DBRep_DrawableShape

CASCADE Topology V1, (c) Matra-Datavision
Locations 19
1
              1               0               0               0 
              0               1               0               0 
              0               0               1               0 
1
              1               0               0               0 
              0               1               0               0 
              0               0               1               0 
1
              1               0               0               0 
              0               1               0               0 
              0               0               1               0 
1
              1               0               0               0 
              0               1               0               0 
              0               0               1               0 
2  3 1 4 1 0
2  2 1 4 -1 3 -1 0
1
              1               0               0               0 
              0               1               0               0 
              0               0               1               0 
2  7 -1 4 -1 3 -1 0
2  7 -1 2 -1 0
1
              1               0               0               0 
              0               1               0               0 
              0               0               1               0 
1
              1               0               0            -0.5 
              0               1               0              -1 
              0               0               1            -0.5 
2  10 1 11 1 3 1 4 1 0
2  7 -1 4 -1 3 -1 11 -1 10 -1 0
1
              1               0               0               0 
              0               1               0               0 
              0               0               1               0 
1
              1               0               0            -0.5 
              0               1               0               0 
              0               0               1            -0.5 
1
              1               0               0               0 
              0               1               0               0 
              0               0               1               0 
1
              1               0               0               0 
              0               1               0               0 
              0               0               1               0 
2  14 1 15 1 16 1 17 1 0
2  7 -1 17 -1 16 -1 15 -1 14 -1 0
Curve2ds 5
1 3.1415926535897931 -4.7123889803846897 -0 1 
1 0 -1.5707963267948966 1 0 
1 0 -6.2831853071795862 0 1 
1 6.2831853071795862 -6.2831853071795862 0 1 
1 0 1.5707963267948966 1 0 
Curves 22
2 0 0 0 0 1 0 0 0 1 1 0 0 0.25
2 0 0 0 -2.4e-16 -1 0 1 -2.4e-16 0 0 0 1 0.25
1 0 0 0 0 0 1 
1 0 0 1 0 1 0 
1 0 1 0 0 0 1 
1 0 0 0 0 1 0 
1 0 0 0 1 0 0 
1 1 0 0 0 0 1 
1 0 0 1 1 0 0 
1 0 1 1 1 0 0 
1 1 0 1 0 1 0 
1 0 1 0 1 0 0 
1 1 1 0 0 0 1 
1 1 0 0 0 1 0 
1 0 0 1 0 1 0 
1 0 1 0 0 0 1 
1 0 0 0 0 1 0 
1 0 1 1 1 0 0 
1 1 0 1 0 1 0 
1 0 1 0 1 0 0 
1 1 1 0 0 0 1 
1 1 0 0 0 1 0 
Polygon3D 0
PolygonOnTriangulations 0
Surfaces 14
4 0 0 0 0 0 1 1 0 0 0 1 0 0.25
4 0 0 0 0 0 1 1 0 0 0 1 0 0.25
4 0 0 0 0 0 1 1 0 -0 -0 1 0 0.25
1 0 0 0 1 0 0 0 0 1 0 -1 0 
1 0 0 0 0 1 0 0 0 1 1 0 0 
1 0 0 1 0 0 1 1 0 0 0 1 0 
1 0 1 0 0 1 0 0 0 1 1 0 0 
1 0 0 0 0 0 1 1 0 0 0 1 0 
1 1 0 0 1 0 0 0 0 1 0 -1 0 
1 0 0 0 1 0 0 0 0 1 0 -1 0 
1 0 0 1 0 0 1 1 0 0 0 1 0 
1 0 1 0 0 1 0 0 0 1 1 0 0 
1 0 0 0 0 0 1 1 0 0 0 1 0 
1 1 0 0 1 0 0 0 0 1 0 -1 0 
Triangulations 0

TShapes 75
Ve
1.0000000013267e-07
5.1026949964473e-18 -1.24979981888488e-33 -0.25
0 0

0101101
*
Ve
1.00000000141643e-07
5.1026949964473e-18 -1.24979981888488e-33 0.25
0 0

0101101
*
Ed
 1.00000000100074e-07 1 1 0
1  1 0 3.14159265358979 6.28318530717959
2  1 1 6 3.14159265358979 6.28318530717959
2  1 2 6 3.14159265358979 6.28318530717959
0

0101000
+75 8 -74 8 *
Ed
 1e-07 1 1 1
2  2 3 0 0 3.14159265358979
2  2 1 0 0 3.14159265358979
0

0101000
+75 9 -75 9 *
Ed
 1.00000000062465e-07 1 1 0
1  2 0 4.71238898038469 7.85398163397448
2  3 1 0 4.71238898038469 7.85398163397448
2  4 2 0 4.71238898038469 7.85398163397448
4 CN 1 0 2 0
0

0101000
+75 9 -74 9 *
Ed
 1e-07 1 1 1
2  5 3 0 0 3.14159265358979
2  5 1 0 0 3.14159265358979
0

0101000
+74 9 -74 9 *
Wi

0101100
+73 5 +72 2 -71 2 -70 2 *
Fa
0  1e-07 1 2

0101000
+69 0 *
Ed
 1e-07 1 1 1
2  2 3 0 3.14159265358979 6.28318530717959
2  2 2 0 3.14159265358979 6.28318530717959
0

0101000
+75 9 -75 9 *
Ed
 1e-07 1 1 1
2  5 3 0 3.14159265358979 6.28318530717959
2  5 2 0 3.14159265358979 6.28318530717959
0

0101000
+74 9 -74 9 *
Wi

0101100
+71 2 +67 2 -73 5 -66 2 *
Fa
0  1e-07 2 2

0101000
+65 0 *
Sh

0101100
+68 0 +64 0 *
So

0100000
+63 0 *
Ve
1e-07
-0.5 -1 0.5
0 0

0101101
*
Ve
1e-07
-0.5 -1 -0.5
0 0

0101101
*
Ed
 1e-07 1 1 0
1  3 0 0 1
0

0101000
-61 13 +60 13 *
Ve
1e-07
-0.5 0 0.5
0 0

0101101
*
Ed
 1e-07 1 1 0
1  4 0 0 1
0

0101000
+61 13 -58 13 *
Ve
1e-07
-0.5 0 -0.5
0 0

0101101
*
Ed
 1e-07 1 1 0
1  5 0 0 1
0

0101000
+56 13 -58 13 *
Ed
 1e-07 1 1 0
1  6 0 0 1
0

0101000
+60 13 -56 13 *
Wi

0101100
-59 12 -57 12 +55 12 +54 12 *
Fa
0  1e-07 4 12

0101000
+53 0 *
Ve
1e-07
0.5 -1 -0.5
0 0

0101101
*
Ed
 1e-07 1 1 0
1  7 0 0 1
0

0101000
-51 13 +60 13 *
Ve
1e-07
0.5 -1 0.5
0 0

0101101
*
Ed
 1e-07 1 1 0
1  8 0 0 1
0

0101000
-49 13 +51 13 *
Ed
 1e-07 1 1 0
1  9 0 0 1
0

0101000
-49 13 +61 13 *
Wi

0101100
-50 0 -48 0 +47 0 +59 0 *
Fa
0  1e-07 5 0

0101000
+46 0 *
Ve
1e-07
0.5 0 0.5
0 0

0101101
*
Ed
 1e-07 1 1 0
1  10 0 0 1
0

0101000
+58 13 -44 13 *
Ed
 1e-07 1 1 0
1  11 0 0 1
0

0101000
+49 13 -44 13 *
Wi

0101100
-57 12 -43 12 +42 12 +47 12 *
Fa
0  1e-07 6 12

0101000
+41 0 *
Ve
1e-07
0.5 0 -0.5
0 0

0101101
*
Ed
 1e-07 1 1 0
1  12 0 0 1
0

0101000
+56 13 -39 13 *
Ed
 1e-07 1 1 0
1  13 0 0 1
0

0101000
+39 13 -44 13 *
Wi

0101100
-38 12 -37 12 +55 12 +43 12 *
Wi

0101100
+71 2 -73 5 *
Fa
0  1e-07 7 12

0101000
+36 0 +35 0 *
Ed
 1e-07 1 1 0
1  14 0 0 1
0

0101000
+51 13 -39 13 *
Wi

0101100
-54 12 -38 12 +33 12 +50 12 *
Fa
0  1e-07 8 12

0101000
+32 0 *
Wi

0101100
-48 12 -42 12 +37 12 +33 12 *
Fa
0  1e-07 9 12

0101000
+30 0 *
Sh

0101100
-52 0 -45 12 +40 0 +34 0 -31 0 +29 0 -64 0 *
So

0100000
+28 0 *
Ve
1e-07
-0.5 1 0.5
0 0

0101101
*
Ed
 1e-07 1 1 0
1  15 0 0 1
0

0101000
+58 19 -26 19 *
Ve
1e-07
-0.5 1 -0.5
0 0

0101101
*
Ed
 1e-07 1 1 0
1  16 0 0 1
0

0101000
-26 19 +24 19 *
Ed
 1e-07 1 1 0
1  17 0 0 1
0

0101000
+56 19 -24 19 *
Wi

0101100
-55 12 -25 18 +23 18 +22 18 *
Fa
0  1e-07 10 18

0101000
+21 0 *
Ve
1e-07
0.5 1 0.5
0 0

0101101
*
Ed
 1e-07 1 1 0
1  18 0 0 1
0

0101000
-19 19 +26 19 *
Ed
 1e-07 1 1 0
1  19 0 0 1
0

0101000
+44 19 -19 19 *
Wi

0101100
-25 18 -18 18 +17 18 +43 12 *
Fa
0  1e-07 11 18

0101000
+16 0 *
Ve
1e-07
0.5 1 -0.5
0 0

0101101
*
Ed
 1e-07 1 1 0
1  20 0 0 1
0

0101000
-14 19 +24 19 *
Ed
 1e-07 1 1 0
1  21 0 0 1
0

0101000
-19 19 +14 19 *
Wi

0101100
-13 0 -12 0 +18 0 +23 0 *
Fa
0  1e-07 12 0

0101000
+11 0 *
Ed
 1e-07 1 1 0
1  22 0 0 1
0

0101000
+39 19 -14 19 *
Wi

0101100
-22 18 -13 18 +9 18 +38 12 *
Fa
0  1e-07 13 18

0101000
+8 0 *
Wi

0101100
-37 12 -17 18 +12 18 +9 18 *
Fa
0  1e-07 14 18

0101000
+6 0 *
Sh

0101100
-20 0 -34 0 +15 0 +10 18 -7 0 +5 0 -68 0 *
So

0100000
+4 0 *
CS

0101000
+62 0 +27 0 +3 0 *
Co

1100000
+2 1 *

+1 0 