DBRep_DrawableShape

CASCADE Topology V1, (c) Matra-Datavision
Locations 3
1
              1               0               0               0 
              0               1               0               0 
              0               0               1               0 
1
              1               0               0              -4 
              0               1               0               0 
              0               0               1               0 
1
              1               0               0               4 
              0               1               0               0 
              0               0               1               0 
Curve2ds 8
1 0 1.5707963267948966 1 0 
1 6.2831853071795862 -6.2831853071795862 0 1 
1 0 -6.2831853071795862 0 1 
1 0 -1.5707963267948966 1 0 
1 0 1.5707963267948966 1 0 
1 6.2831853071795862 -6.2831853071795862 0 1 
1 0 -6.2831853071795862 0 1 
1 0 -1.5707963267948966 1 0 
Curves 2
2 0 0 0 -2.4492935982947064e-16 -1 0 1 -2.4492935982947064e-16 0 0 0 1 1
2 0 0 0 -2.4492935982947064e-16 -1 0 1 -2.4492935982947064e-16 0 0 0 1 1
Polygon3D 0
PolygonOnTriangulations 0
Surfaces 2
4 0 0 0 0 0 1 1 0 -0 -0 1 0 1
4 0 0 0 0 0 1 1 0 -0 -0 1 0 1
Triangulations 0

TShapes 22
Ve
1e-07
6.12323399573677e-17 -1.49975978266186e-32 1
0 0

0101101
*
Ed
 1e-07 1 1 1
2  1 1 0 0 6.28318530717959
0

0101000
+22 0 -22 0 *
Ve
1e-07
6.12323399573677e-17 -1.49975978266186e-32 -1
0 0

0101101
*
Ed
 1e-07 1 1 0
1  1 0 4.71238898038469 7.85398163397448
3  2 3CN 1 0 4.71238898038469 7.85398163397448
0

0101000
-22 0 +20 0 *
Ed
 1e-07 1 1 1
2  4 1 0 0 6.28318530717959
0

0101000
+20 0 -20 0 *
Wi

0101100
-21 0 +19 0 +18 0 -19 0 *
Fa
0  1e-07 1 0

0111000
+17 0 *
Sh

0101100
+16 0 *
So

0100000
+15 0 *
CS

0101000
+14 2 *
Ve
1e-07
6.12323399573677e-17 -1.49975978266186e-32 1
0 0

0101101
*
Ed
 1e-07 1 1 1
2  5 2 0 0 6.28318530717959
0

0101000
+12 0 -12 0 *
Ve
1e-07
6.12323399573677e-17 -1.49975978266186e-32 -1
0 0

0101101
*
Ed
 1e-07 1 1 0
1  2 0 4.71238898038469 7.85398163397448
3  6 7CN 2 0 4.71238898038469 7.85398163397448
0

0101000
-12 0 +10 0 *
Ed
 1e-07 1 1 1
2  8 2 0 0 6.28318530717959
0

0101000
+10 0 -10 0 *
Wi

0101100
-11 0 +9 0 +8 0 -9 0 *
Fa
0  1e-07 2 0

0111000
+7 0 *
Sh

0101100
+6 0 *
So

0100000
+5 0 *
CS

0101000
+4 3 *
Co

0100000
+13 1 +3 1 *
Co

1100000
+2 0 *

+1 0 