<?xml version="1.0" encoding="UTF-8" standalone="no"?>
<!DOCTYPE svg PUBLIC "-//W3C//DTD SVG 1.1//EN"
 "http://www.w3.org/Graphics/SVG/1.1/DTD/svg11.dtd">
<!-- Generated by graphviz version 2.40.1 (20161225.0304)
 -->
<!-- Title: /home/jihuan/Projects/deal.ii/program/dealii&#45;9.1.1/examples/laplace&#45;bem/tests/block&#45;cluster&#45;tree&#45;hp&#45;fine&#45;non&#45;tensor&#45;product/bct&#45;hp&#45;fine&#45;ntp.cc Pages: 1 -->
<svg width="2787pt" height="452pt"
 viewBox="0.00 0.00 2786.53 452.00" xmlns="http://www.w3.org/2000/svg" xmlns:xlink="http://www.w3.org/1999/xlink">
<g id="graph0" class="graph" transform="scale(1 1) rotate(0) translate(4 448)">
<title>/home/jihuan/Projects/deal.ii/program/dealii&#45;9.1.1/examples/laplace&#45;bem/tests/block&#45;cluster&#45;tree&#45;hp&#45;fine&#45;non&#45;tensor&#45;product/bct&#45;hp&#45;fine&#45;ntp.cc</title>
<!-- Node0 -->
<g id="node1" class="node">
<title>Node0</title>
<polygon fill="#bfbfbf" stroke="#000000" points="565.5,-369.5 565.5,-443.5 696.5,-443.5 696.5,-369.5 565.5,-369.5"/>
<text text-anchor="start" x="573.5" y="-431.5" font-family="Helvetica,sans-Serif" font-size="10.00" fill="#000000">/home/jihuan/Projects</text>
<text text-anchor="start" x="573.5" y="-420.5" font-family="Helvetica,sans-Serif" font-size="10.00" fill="#000000">/deal.ii/program/dealii</text>
<text text-anchor="start" x="573.5" y="-409.5" font-family="Helvetica,sans-Serif" font-size="10.00" fill="#000000">&#45;9.1.1/examples/laplace</text>
<text text-anchor="start" x="573.5" y="-398.5" font-family="Helvetica,sans-Serif" font-size="10.00" fill="#000000">&#45;bem/tests/block&#45;cluster</text>
<text text-anchor="start" x="573.5" y="-387.5" font-family="Helvetica,sans-Serif" font-size="10.00" fill="#000000">&#45;tree&#45;hp&#45;fine&#45;non&#45;tensor</text>
<text text-anchor="middle" x="631" y="-376.5" font-family="Helvetica,sans-Serif" font-size="10.00" fill="#000000">&#45;product/bct&#45;hp&#45;fine&#45;ntp.cc</text>
</g>
<!-- Node1 -->
<g id="node2" class="node">
<title>Node1</title>
<g id="a_node2"><a xlink:href="block__cluster__tree_8h.html" target="_top" xlink:title="Implementation of the class BlockClusterTree. ">
<polygon fill="none" stroke="#000000" points="652,-313.5 652,-332.5 756,-332.5 756,-313.5 652,-313.5"/>
<text text-anchor="middle" x="704" y="-320.5" font-family="Helvetica,sans-Serif" font-size="10.00" fill="#000000">block_cluster_tree.h</text>
</a>
</g>
</g>
<!-- Node0&#45;&gt;Node1 -->
<g id="edge1" class="edge">
<title>Node0&#45;&gt;Node1</title>
<path fill="none" stroke="#191970" d="M663.6567,-369.1461C672.426,-359.1155 681.4945,-348.7426 688.8072,-340.3781"/>
<polygon fill="#191970" stroke="#191970" points="691.5116,-342.6024 695.4585,-332.7701 686.2416,-337.9951 691.5116,-342.6024"/>
</g>
<!-- Node14 -->
<g id="node15" class="node">
<title>Node14</title>
<g id="a_node15"><a xlink:href="cluster__tree_8h_source.html" target="_top" xlink:title="cluster_tree.h">
<polygon fill="none" stroke="#000000" points="657,-196 657,-215 733,-215 733,-196 657,-196"/>
<text text-anchor="middle" x="695" y="-203" font-family="Helvetica,sans-Serif" font-size="10.00" fill="#000000">cluster_tree.h</text>
</a>
</g>
</g>
<!-- Node0&#45;&gt;Node14 -->
<g id="edge65" class="edge">
<title>Node0&#45;&gt;Node14</title>
<path fill="none" stroke="#191970" d="M633.0279,-369.0699C634.6681,-351.7399 637.6346,-331.0397 643,-313 652.7964,-280.0627 671.7059,-244.712 683.8211,-223.8806"/>
<polygon fill="#191970" stroke="#191970" points="686.9123,-225.5296 689.0027,-215.1431 680.8914,-221.959 686.9123,-225.5296"/>
</g>
<!-- Node2 -->
<g id="node3" class="node">
<title>Node2</title>
<g id="a_node3"><a xlink:href="block__cluster_8h.html" target="_top" xlink:title="Implementation of the class BlockCluster. ">
<polygon fill="none" stroke="#000000" points="695.5,-257.5 695.5,-276.5 778.5,-276.5 778.5,-257.5 695.5,-257.5"/>
<text text-anchor="middle" x="737" y="-264.5" font-family="Helvetica,sans-Serif" font-size="10.00" fill="#000000">block_cluster.h</text>
</a>
</g>
</g>
<!-- Node1&#45;&gt;Node2 -->
<g id="edge2" class="edge">
<title>Node1&#45;&gt;Node2</title>
<path fill="none" stroke="#191970" d="M709.7482,-313.2455C714.2435,-305.617 720.6248,-294.7881 726.0825,-285.5267"/>
<polygon fill="#191970" stroke="#191970" points="729.2561,-287.035 731.3177,-276.6427 723.2253,-283.4811 729.2561,-287.035"/>
</g>
<!-- Node1&#45;&gt;Node14 -->
<g id="edge34" class="edge">
<title>Node1&#45;&gt;Node14</title>
<path fill="none" stroke="#191970" d="M699.3151,-313.4115C695.1398,-304.2959 689.3386,-290.0744 687,-277 683.8804,-259.5596 686.6738,-239.4952 689.7854,-225.0689"/>
<polygon fill="#191970" stroke="#191970" points="693.2061,-225.8133 692.1343,-215.2728 686.399,-224.1811 693.2061,-225.8133"/>
</g>
<!-- Node15 -->
<g id="node16" class="node">
<title>Node15</title>
<g id="a_node16"><a xlink:href="debug__tools_8h.html" target="_top" xlink:title="This file includes a bunch of helper functions for printing out and visualizing information about gri...">
<polygon fill="none" stroke="#000000" points="269.5,-134.5 269.5,-153.5 346.5,-153.5 346.5,-134.5 269.5,-134.5"/>
<text text-anchor="middle" x="308" y="-141.5" font-family="Helvetica,sans-Serif" font-size="10.00" fill="#000000">debug_tools.h</text>
</a>
</g>
</g>
<!-- Node1&#45;&gt;Node15 -->
<g id="edge35" class="edge">
<title>Node1&#45;&gt;Node15</title>
<path fill="none" stroke="#191970" d="M682.7093,-313.3762C616.7709,-283.5707 415.7469,-192.7038 338.5952,-157.8296"/>
<polygon fill="#191970" stroke="#191970" points="339.9499,-154.6011 329.3959,-153.6714 337.0666,-160.9797 339.9499,-154.6011"/>
</g>
<!-- Node20 -->
<g id="node21" class="node">
<title>Node20</title>
<g id="a_node21"><a xlink:href="tree_8h.html" target="_top" xlink:title="Implementation of the classes for binary tree node, general tree node and functions for manipulating ...">
<polygon fill="none" stroke="#000000" points="674.5,-134.5 674.5,-153.5 715.5,-153.5 715.5,-134.5 674.5,-134.5"/>
<text text-anchor="middle" x="695" y="-141.5" font-family="Helvetica,sans-Serif" font-size="10.00" fill="#000000">tree.h</text>
</a>
</g>
</g>
<!-- Node1&#45;&gt;Node20 -->
<g id="edge64" class="edge">
<title>Node1&#45;&gt;Node20</title>
<path fill="none" stroke="#191970" d="M738.7227,-313.4044C756.8051,-306.4487 777.3209,-295.0236 788,-277 792.5311,-269.3527 790.6339,-265.4897 788,-257 775.3273,-216.1522 739.1116,-180.1665 715.7925,-160.3094"/>
<polygon fill="#191970" stroke="#191970" points="717.7894,-157.4191 707.8523,-153.7443 713.3288,-162.8139 717.7894,-157.4191"/>
</g>
<!-- Node26 -->
<g id="node27" class="node">
<title>Node26</title>
<g id="a_node27"><a xlink:href="lapack__full__matrix__ext_8h_source.html" target="_top" xlink:title="lapack_full_matrix\l_ext.h">
<polygon fill="none" stroke="#000000" points="1195.5,-190.5 1195.5,-220.5 1290.5,-220.5 1290.5,-190.5 1195.5,-190.5"/>
<text text-anchor="start" x="1203.5" y="-208.5" font-family="Helvetica,sans-Serif" font-size="10.00" fill="#000000">lapack_full_matrix</text>
<text text-anchor="middle" x="1243" y="-197.5" font-family="Helvetica,sans-Serif" font-size="10.00" fill="#000000">_ext.h</text>
</a>
</g>
</g>
<!-- Node1&#45;&gt;Node26 -->
<g id="edge36" class="edge">
<title>Node1&#45;&gt;Node26</title>
<path fill="none" stroke="#191970" d="M747.6521,-313.484C844.5006,-292.3714 1077.3344,-241.6145 1185.7109,-217.9888"/>
<polygon fill="#191970" stroke="#191970" points="1186.4641,-221.4069 1195.4891,-215.8572 1184.9731,-214.5675 1186.4641,-221.4069"/>
</g>
<!-- Node3 -->
<g id="node4" class="node">
<title>Node3</title>
<g id="a_node4"><a xlink:href="cluster_8h.html" target="_top" xlink:title="Implementation of the class Cluster. ">
<polygon fill="none" stroke="#000000" points="839,-134.5 839,-153.5 893,-153.5 893,-134.5 839,-134.5"/>
<text text-anchor="middle" x="866" y="-141.5" font-family="Helvetica,sans-Serif" font-size="10.00" fill="#000000">cluster.h</text>
</a>
</g>
</g>
<!-- Node2&#45;&gt;Node3 -->
<g id="edge3" class="edge">
<title>Node2&#45;&gt;Node3</title>
<path fill="none" stroke="#191970" d="M747.1224,-257.3484C769.0705,-236.4212 821.2595,-186.6596 848.6056,-160.5854"/>
<polygon fill="#191970" stroke="#191970" points="851.1025,-163.0406 855.9246,-153.6068 846.2719,-157.9745 851.1025,-163.0406"/>
</g>
<!-- Node2&#45;&gt;Node14 -->
<g id="edge15" class="edge">
<title>Node2&#45;&gt;Node14</title>
<path fill="none" stroke="#191970" d="M730.4375,-257.3906C724.3092,-248.417 715.0015,-234.7879 707.4628,-223.7491"/>
<polygon fill="#191970" stroke="#191970" points="710.185,-221.529 701.655,-215.2449 704.4044,-225.4768 710.185,-221.529"/>
</g>
<!-- Node4 -->
<g id="node5" class="node">
<title>Node4</title>
<polygon fill="none" stroke="#bfbfbf" points="1230.5,-73 1230.5,-92 1333.5,-92 1333.5,-73 1230.5,-73"/>
<text text-anchor="middle" x="1282" y="-80" font-family="Helvetica,sans-Serif" font-size="10.00" fill="#000000">deal.II/base/types.h</text>
</g>
<!-- Node3&#45;&gt;Node4 -->
<g id="edge4" class="edge">
<title>Node3&#45;&gt;Node4</title>
<path fill="none" stroke="#191970" d="M893.3446,-141.5854C953.1317,-136.0597 1099.831,-121.1582 1221,-98 1226.3663,-96.9744 1231.9633,-95.7581 1237.4963,-94.4648"/>
<polygon fill="#191970" stroke="#191970" points="1238.4313,-97.8395 1247.3227,-92.0782 1236.7791,-91.0373 1238.4313,-97.8395"/>
</g>
<!-- Node5 -->
<g id="node6" class="node">
<title>Node5</title>
<polygon fill="none" stroke="#bfbfbf" points="732,-73 732,-92 788,-92 788,-73 732,-73"/>
<text text-anchor="middle" x="760" y="-80" font-family="Helvetica,sans-Serif" font-size="10.00" fill="#000000">algorithm</text>
</g>
<!-- Node3&#45;&gt;Node5 -->
<g id="edge5" class="edge">
<title>Node3&#45;&gt;Node5</title>
<path fill="none" stroke="#191970" d="M849.4375,-134.3906C832.2463,-124.4165 805.1418,-108.6908 785.2734,-97.1633"/>
<polygon fill="#191970" stroke="#191970" points="786.8523,-94.033 776.4462,-92.0419 783.3394,-100.0877 786.8523,-94.033"/>
</g>
<!-- Node6 -->
<g id="node7" class="node">
<title>Node6</title>
<polygon fill="none" stroke="#bfbfbf" points="1020.5,-73 1020.5,-92 1067.5,-92 1067.5,-73 1020.5,-73"/>
<text text-anchor="middle" x="1044" y="-80" font-family="Helvetica,sans-Serif" font-size="10.00" fill="#000000">iterator</text>
</g>
<!-- Node3&#45;&gt;Node6 -->
<g id="edge6" class="edge">
<title>Node3&#45;&gt;Node6</title>
<path fill="none" stroke="#191970" d="M893.0313,-135.7343C921.3701,-126.9254 967.1007,-112.3042 1006,-98 1007.8557,-97.3176 1009.7556,-96.6011 1011.6683,-95.8657"/>
<polygon fill="#191970" stroke="#191970" points="1013.1778,-99.0327 1021.1932,-92.1042 1010.6066,-92.522 1013.1778,-99.0327"/>
</g>
<!-- Node7 -->
<g id="node8" class="node">
<title>Node7</title>
<polygon fill="none" stroke="#bfbfbf" points="970,-6 970,-25 1014,-25 1014,-6 970,-6"/>
<text text-anchor="middle" x="992" y="-13" font-family="Helvetica,sans-Serif" font-size="10.00" fill="#000000">vector</text>
</g>
<!-- Node3&#45;&gt;Node7 -->
<g id="edge7" class="edge">
<title>Node3&#45;&gt;Node7</title>
<path fill="none" stroke="#191970" d="M893.2383,-138.4309C916.3101,-132.3304 948.6389,-120.2937 968,-98 983.3086,-80.3726 988.8693,-53.4614 990.8793,-35.2075"/>
<polygon fill="#191970" stroke="#191970" points="994.3771,-35.3791 991.7274,-25.121 987.4018,-34.7925 994.3771,-35.3791"/>
</g>
<!-- Node8 -->
<g id="node9" class="node">
<title>Node8</title>
<g id="a_node9"><a xlink:href="simple__bounding__box_8h_source.html" target="_top" xlink:title="simple_bounding_box.h">
<polygon fill="none" stroke="#000000" points="806.5,-73 806.5,-92 925.5,-92 925.5,-73 806.5,-73"/>
<text text-anchor="middle" x="866" y="-80" font-family="Helvetica,sans-Serif" font-size="10.00" fill="#000000">simple_bounding_box.h</text>
</a>
</g>
</g>
<!-- Node3&#45;&gt;Node8 -->
<g id="edge8" class="edge">
<title>Node3&#45;&gt;Node8</title>
<path fill="none" stroke="#191970" d="M866,-134.3906C866,-125.8657 866,-113.1392 866,-102.4235"/>
<polygon fill="#191970" stroke="#191970" points="869.5001,-102.2448 866,-92.2449 862.5001,-102.2449 869.5001,-102.2448"/>
</g>
<!-- Node8&#45;&gt;Node7 -->
<g id="edge14" class="edge">
<title>Node8&#45;&gt;Node7</title>
<path fill="none" stroke="#191970" d="M884.0527,-72.9005C905.1984,-61.6564 940.4404,-42.9166 964.8782,-29.9219"/>
<polygon fill="#191970" stroke="#191970" points="966.7947,-32.867 973.9808,-25.0817 963.5082,-26.6864 966.7947,-32.867"/>
</g>
<!-- Node9 -->
<g id="node10" class="node">
<title>Node9</title>
<polygon fill="none" stroke="#bfbfbf" points="834,-6 834,-25 934,-25 934,-6 834,-6"/>
<text text-anchor="middle" x="884" y="-13" font-family="Helvetica,sans-Serif" font-size="10.00" fill="#000000">deal.II/base/point.h</text>
</g>
<!-- Node8&#45;&gt;Node9 -->
<g id="edge9" class="edge">
<title>Node8&#45;&gt;Node9</title>
<path fill="none" stroke="#191970" d="M868.579,-72.9005C871.2255,-63.0495 875.4177,-47.4451 878.7636,-34.9912"/>
<polygon fill="#191970" stroke="#191970" points="882.2113,-35.6473 881.4258,-25.0817 875.451,-33.8311 882.2113,-35.6473"/>
</g>
<!-- Node10 -->
<g id="node11" class="node">
<title>Node10</title>
<polygon fill="none" stroke="#bfbfbf" points="210.5,-6 210.5,-25 337.5,-25 337.5,-6 210.5,-6"/>
<text text-anchor="middle" x="274" y="-13" font-family="Helvetica,sans-Serif" font-size="10.00" fill="#000000">deal.II/dofs/dof_handler.h</text>
</g>
<!-- Node8&#45;&gt;Node10 -->
<g id="edge10" class="edge">
<title>Node8&#45;&gt;Node10</title>
<path fill="none" stroke="#191970" d="M827.4788,-72.9691C817.5913,-70.7648 806.9398,-68.5996 797,-67 775.1811,-63.4887 486.7389,-35.786 347.8084,-22.5264"/>
<polygon fill="#191970" stroke="#191970" points="347.9528,-19.0244 337.6656,-21.5587 347.2879,-25.9927 347.9528,-19.0244"/>
</g>
<!-- Node11 -->
<g id="node12" class="node">
<title>Node11</title>
<polygon fill="none" stroke="#bfbfbf" points="450,-6 450,-25 566,-25 566,-6 450,-6"/>
<text text-anchor="middle" x="508" y="-13" font-family="Helvetica,sans-Serif" font-size="10.00" fill="#000000">deal.II/dofs/dof_tools.h</text>
</g>
<!-- Node8&#45;&gt;Node11 -->
<g id="edge11" class="edge">
<title>Node8&#45;&gt;Node11</title>
<path fill="none" stroke="#191970" d="M824.8347,-72.937C815.6873,-70.9002 806.0272,-68.8173 797,-67 721.433,-51.7872 634.2782,-36.5735 575.6063,-26.6702"/>
<polygon fill="#191970" stroke="#191970" points="576.1595,-23.2141 565.7173,-25.0058 574.9976,-30.117 576.1595,-23.2141"/>
</g>
<!-- Node12 -->
<g id="node13" class="node">
<title>Node12</title>
<polygon fill="none" stroke="#bfbfbf" points="631.5,-6 631.5,-25 734.5,-25 734.5,-6 631.5,-6"/>
<text text-anchor="middle" x="683" y="-13" font-family="Helvetica,sans-Serif" font-size="10.00" fill="#000000">deal.II/fe/mapping.h</text>
</g>
<!-- Node8&#45;&gt;Node12 -->
<g id="edge12" class="edge">
<title>Node8&#45;&gt;Node12</title>
<path fill="none" stroke="#191970" d="M839.7806,-72.9005C807.9819,-61.2584 754.2349,-41.5805 718.6825,-28.5641"/>
<polygon fill="#191970" stroke="#191970" points="719.7646,-25.2331 709.1708,-25.0817 717.3579,-31.8064 719.7646,-25.2331"/>
</g>
<!-- Node13 -->
<g id="node14" class="node">
<title>Node13</title>
<polygon fill="none" stroke="#bfbfbf" points="776,-6 776,-25 816,-25 816,-6 776,-6"/>
<text text-anchor="middle" x="796" y="-13" font-family="Helvetica,sans-Serif" font-size="10.00" fill="#000000">utility</text>
</g>
<!-- Node8&#45;&gt;Node13 -->
<g id="edge13" class="edge">
<title>Node8&#45;&gt;Node13</title>
<path fill="none" stroke="#191970" d="M855.9707,-72.9005C844.8469,-62.2535 826.7013,-44.8856 813.279,-32.0385"/>
<polygon fill="#191970" stroke="#191970" points="815.655,-29.4678 806.0107,-25.0817 810.8148,-34.5247 815.655,-29.4678"/>
</g>
<!-- Node14&#45;&gt;Node3 -->
<g id="edge16" class="edge">
<title>Node14&#45;&gt;Node3</title>
<path fill="none" stroke="#191970" d="M721.7188,-195.8906C750.8321,-185.42 797.5692,-168.6111 829.9247,-156.9745"/>
<polygon fill="#191970" stroke="#191970" points="831.2435,-160.2197 839.4689,-153.5419 828.8744,-153.6328 831.2435,-160.2197"/>
</g>
<!-- Node14&#45;&gt;Node15 -->
<g id="edge17" class="edge">
<title>Node14&#45;&gt;Node15</title>
<path fill="none" stroke="#191970" d="M665.7785,-195.9354C658.4022,-193.7578 650.4579,-191.6136 643,-190 542.2414,-168.1999 422.0845,-154.6629 356.5532,-148.3105"/>
<polygon fill="#191970" stroke="#191970" points="356.8035,-144.8186 346.5161,-147.3525 356.1383,-151.7869 356.8035,-144.8186"/>
</g>
<!-- Node14&#45;&gt;Node20 -->
<g id="edge25" class="edge">
<title>Node14&#45;&gt;Node20</title>
<path fill="none" stroke="#191970" d="M695,-195.8906C695,-187.3657 695,-174.6392 695,-163.9235"/>
<polygon fill="#191970" stroke="#191970" points="698.5001,-163.7448 695,-153.7449 691.5001,-163.7449 698.5001,-163.7448"/>
</g>
<!-- Node15&#45;&gt;Node10 -->
<g id="edge18" class="edge">
<title>Node15&#45;&gt;Node10</title>
<path fill="none" stroke="#191970" d="M290.9433,-134.377C278.6911,-126.4014 263.1292,-113.8248 256,-98 246.6375,-77.2178 255.2878,-51.247 263.5241,-34.0566"/>
<polygon fill="#191970" stroke="#191970" points="266.6949,-35.5447 268.1863,-25.0553 260.4792,-32.3252 266.6949,-35.5447"/>
</g>
<!-- Node15&#45;&gt;Node11 -->
<g id="edge19" class="edge">
<title>Node15&#45;&gt;Node11</title>
<path fill="none" stroke="#191970" d="M301.924,-134.3297C292.8371,-118.5038 278.3595,-86.851 294,-67 311.9781,-44.1822 384.0822,-30.3025 439.6809,-22.7924"/>
<polygon fill="#191970" stroke="#191970" points="440.3912,-26.2295 449.8535,-21.4636 439.4844,-19.2885 440.3912,-26.2295"/>
</g>
<!-- Node15&#45;&gt;Node12 -->
<g id="edge22" class="edge">
<title>Node15&#45;&gt;Node12</title>
<path fill="none" stroke="#191970" d="M307.2496,-134.2671C306.5634,-117.7614 307.8192,-84.383 327,-67 327.3399,-66.692 519.2594,-39.0498 621.1297,-24.3956"/>
<polygon fill="#191970" stroke="#191970" points="621.8956,-27.8216 631.2954,-22.9334 620.8989,-20.8929 621.8956,-27.8216"/>
</g>
<!-- Node16 -->
<g id="node17" class="node">
<title>Node16</title>
<polygon fill="none" stroke="#bfbfbf" points="0,-73 0,-92 74,-92 74,-73 0,-73"/>
<text text-anchor="middle" x="37" y="-80" font-family="Helvetica,sans-Serif" font-size="10.00" fill="#000000">deal.II/fe/fe.h</text>
</g>
<!-- Node15&#45;&gt;Node16 -->
<g id="edge20" class="edge">
<title>Node15&#45;&gt;Node16</title>
<path fill="none" stroke="#191970" d="M269.444,-137.6111C224.3623,-129.7976 147.6733,-115.4358 83,-98 79.8267,-97.1445 76.5526,-96.1899 73.2822,-95.1863"/>
<polygon fill="#191970" stroke="#191970" points="74.1771,-91.7978 63.586,-92.0784 72.0405,-98.4637 74.1771,-91.7978"/>
</g>
<!-- Node17 -->
<g id="node18" class="node">
<title>Node17</title>
<polygon fill="none" stroke="#bfbfbf" points="92,-73 92,-92 204,-92 204,-73 92,-73"/>
<text text-anchor="middle" x="148" y="-80" font-family="Helvetica,sans-Serif" font-size="10.00" fill="#000000">deal.II/fe/fe_system.h</text>
</g>
<!-- Node15&#45;&gt;Node17 -->
<g id="edge21" class="edge">
<title>Node15&#45;&gt;Node17</title>
<path fill="none" stroke="#191970" d="M283,-134.3906C255.9942,-124.0103 212.7815,-107.4004 182.5406,-95.7766"/>
<polygon fill="#191970" stroke="#191970" points="183.4144,-92.3628 172.8244,-92.0419 180.9029,-98.8968 183.4144,-92.3628"/>
</g>
<!-- Node18 -->
<g id="node19" class="node">
<title>Node18</title>
<polygon fill="none" stroke="#bfbfbf" points="396,-73 396,-92 450,-92 450,-73 396,-73"/>
<text text-anchor="middle" x="423" y="-80" font-family="Helvetica,sans-Serif" font-size="10.00" fill="#000000">iostream</text>
</g>
<!-- Node15&#45;&gt;Node18 -->
<g id="edge23" class="edge">
<title>Node15&#45;&gt;Node18</title>
<path fill="none" stroke="#191970" d="M325.9688,-134.3906C344.7884,-124.3262 374.5585,-108.4057 396.1641,-96.8514"/>
<polygon fill="#191970" stroke="#191970" points="397.9898,-99.8442 405.1574,-92.0419 394.6886,-93.6714 397.9898,-99.8442"/>
</g>
<!-- Node19 -->
<g id="node20" class="node">
<title>Node19</title>
<polygon fill="none" stroke="#bfbfbf" points="336.5,-73 336.5,-92 377.5,-92 377.5,-73 336.5,-73"/>
<text text-anchor="middle" x="357" y="-80" font-family="Helvetica,sans-Serif" font-size="10.00" fill="#000000">string</text>
</g>
<!-- Node15&#45;&gt;Node19 -->
<g id="edge24" class="edge">
<title>Node15&#45;&gt;Node19</title>
<path fill="none" stroke="#191970" d="M315.6563,-134.3906C322.9489,-125.2376 334.1007,-111.2409 342.9852,-100.09"/>
<polygon fill="#191970" stroke="#191970" points="345.7417,-102.247 349.2358,-92.2449 340.267,-97.8849 345.7417,-102.247"/>
</g>
<!-- Node20&#45;&gt;Node5 -->
<g id="edge27" class="edge">
<title>Node20&#45;&gt;Node5</title>
<path fill="none" stroke="#191970" d="M705.1563,-134.3906C715.0199,-125.0581 730.2055,-110.6902 742.0987,-99.4374"/>
<polygon fill="#191970" stroke="#191970" points="744.8421,-101.6601 749.7006,-92.2449 740.0311,-96.5753 744.8421,-101.6601"/>
</g>
<!-- Node20&#45;&gt;Node7 -->
<g id="edge33" class="edge">
<title>Node20&#45;&gt;Node7</title>
<path fill="none" stroke="#191970" d="M715.8188,-142.0407C767.2293,-136.8864 898.6619,-121.6926 935,-98 958.6104,-82.6059 975.1551,-53.6858 984.1279,-34.5053"/>
<polygon fill="#191970" stroke="#191970" points="987.3808,-35.8035 988.229,-25.2427 980.9801,-32.9695 987.3808,-35.8035"/>
</g>
<!-- Node20&#45;&gt;Node18 -->
<g id="edge31" class="edge">
<title>Node20&#45;&gt;Node18</title>
<path fill="none" stroke="#191970" d="M674.4347,-141.5006C632.9955,-136.1364 536.775,-122.0189 459,-98 456.8869,-97.3474 454.7302,-96.6107 452.5749,-95.8218"/>
<polygon fill="#191970" stroke="#191970" points="453.8607,-92.5666 443.275,-92.1273 451.2763,-99.0721 453.8607,-92.5666"/>
</g>
<!-- Node21 -->
<g id="node22" class="node">
<title>Node21</title>
<polygon fill="none" stroke="#bfbfbf" points="1086,-73 1086,-92 1212,-92 1212,-73 1086,-73"/>
<text text-anchor="middle" x="1149" y="-80" font-family="Helvetica,sans-Serif" font-size="10.00" fill="#000000">deal.II/base/exceptions.h</text>
</g>
<!-- Node20&#45;&gt;Node21 -->
<g id="edge26" class="edge">
<title>Node20&#45;&gt;Node21</title>
<path fill="none" stroke="#191970" d="M715.8003,-142.1754C773.4332,-136.9736 939.9676,-120.9504 1077,-98 1083.7783,-96.8648 1090.8842,-95.5229 1097.8814,-94.1113"/>
<polygon fill="#191970" stroke="#191970" points="1098.9251,-97.4694 1108.0045,-92.0092 1097.5017,-90.6156 1098.9251,-97.4694"/>
</g>
<!-- Node22 -->
<g id="node23" class="node">
<title>Node22</title>
<polygon fill="none" stroke="#bfbfbf" points="676,-73 676,-92 714,-92 714,-73 676,-73"/>
<text text-anchor="middle" x="695" y="-80" font-family="Helvetica,sans-Serif" font-size="10.00" fill="#000000">array</text>
</g>
<!-- Node20&#45;&gt;Node22 -->
<g id="edge28" class="edge">
<title>Node20&#45;&gt;Node22</title>
<path fill="none" stroke="#191970" d="M695,-134.3906C695,-125.8657 695,-113.1392 695,-102.4235"/>
<polygon fill="#191970" stroke="#191970" points="698.5001,-102.2448 695,-92.2449 691.5001,-102.2449 698.5001,-102.2448"/>
</g>
<!-- Node23 -->
<g id="node24" class="node">
<title>Node23</title>
<polygon fill="none" stroke="#bfbfbf" points="468.5,-73 468.5,-92 527.5,-92 527.5,-73 468.5,-73"/>
<text text-anchor="middle" x="498" y="-80" font-family="Helvetica,sans-Serif" font-size="10.00" fill="#000000">exception</text>
</g>
<!-- Node20&#45;&gt;Node23 -->
<g id="edge29" class="edge">
<title>Node20&#45;&gt;Node23</title>
<path fill="none" stroke="#191970" d="M674.4529,-138.7997C643.9437,-130.911 584.9947,-115.0262 536,-98 534.0819,-97.3334 532.1199,-96.6232 530.1476,-95.8872"/>
<polygon fill="#191970" stroke="#191970" points="530.9435,-92.4414 520.355,-92.0766 528.405,-98.9648 530.9435,-92.4414"/>
</g>
<!-- Node24 -->
<g id="node25" class="node">
<title>Node24</title>
<polygon fill="none" stroke="#bfbfbf" points="545.5,-73 545.5,-92 604.5,-92 604.5,-73 545.5,-73"/>
<text text-anchor="middle" x="575" y="-80" font-family="Helvetica,sans-Serif" font-size="10.00" fill="#000000">functional</text>
</g>
<!-- Node20&#45;&gt;Node24 -->
<g id="edge30" class="edge">
<title>Node20&#45;&gt;Node24</title>
<path fill="none" stroke="#191970" d="M676.25,-134.3906C656.524,-124.2811 625.2688,-108.2628 602.7,-96.6962"/>
<polygon fill="#191970" stroke="#191970" points="604.114,-93.4881 593.6183,-92.0419 600.9213,-99.7176 604.114,-93.4881"/>
</g>
<!-- Node25 -->
<g id="node26" class="node">
<title>Node25</title>
<polygon fill="none" stroke="#bfbfbf" points="622.5,-73 622.5,-92 657.5,-92 657.5,-73 622.5,-73"/>
<text text-anchor="middle" x="640" y="-80" font-family="Helvetica,sans-Serif" font-size="10.00" fill="#000000">new</text>
</g>
<!-- Node20&#45;&gt;Node25 -->
<g id="edge32" class="edge">
<title>Node20&#45;&gt;Node25</title>
<path fill="none" stroke="#191970" d="M686.4063,-134.3906C678.1403,-125.1478 665.4574,-110.966 655.4383,-99.7628"/>
<polygon fill="#191970" stroke="#191970" points="657.99,-97.3657 648.7149,-92.2449 652.7722,-102.0321 657.99,-97.3657"/>
</g>
<!-- Node26&#45;&gt;Node7 -->
<g id="edge42" class="edge">
<title>Node26&#45;&gt;Node7</title>
<path fill="none" stroke="#191970" d="M1290.5531,-198.1984C1342.7901,-189.3676 1422.418,-173.2655 1446,-154 1477.3532,-128.3858 1500.0611,-97.1132 1473,-67 1442.9773,-33.5912 1127.2359,-20.0553 1024.2694,-16.5086"/>
<polygon fill="#191970" stroke="#191970" points="1024.271,-13.0068 1014.1592,-16.1692 1024.0361,-20.0029 1024.271,-13.0068"/>
</g>
<!-- Node26&#45;&gt;Node19 -->
<g id="edge41" class="edge">
<title>Node26&#45;&gt;Node19</title>
<path fill="none" stroke="#191970" d="M1195.2157,-203.0242C1096.0161,-197.4932 860.6703,-182.3374 665,-154 540.2639,-135.9355 505.9131,-139.7745 387,-98 385.5827,-97.5021 384.1485,-96.9486 382.715,-96.3555"/>
<polygon fill="#191970" stroke="#191970" points="383.9946,-93.0905 373.452,-92.0397 381.0383,-99.4356 383.9946,-93.0905"/>
</g>
<!-- Node27 -->
<g id="node28" class="node">
<title>Node27</title>
<polygon fill="none" stroke="#bfbfbf" points="1005,-134.5 1005,-153.5 1045,-153.5 1045,-134.5 1005,-134.5"/>
<text text-anchor="middle" x="1025" y="-141.5" font-family="Helvetica,sans-Serif" font-size="10.00" fill="#000000">limits</text>
</g>
<!-- Node26&#45;&gt;Node27 -->
<g id="edge37" class="edge">
<title>Node26&#45;&gt;Node27</title>
<path fill="none" stroke="#191970" d="M1195.2766,-193.1938C1157.1531,-183.1788 1102.4422,-168.3935 1055,-154 1054.9015,-153.9701 1054.8028,-153.9401 1054.704,-153.9101"/>
<polygon fill="#191970" stroke="#191970" points="1055.8755,-150.6098 1045.2854,-150.9278 1053.7624,-157.2832 1055.8755,-150.6098"/>
</g>
<!-- Node28 -->
<g id="node29" class="node">
<title>Node28</title>
<polygon fill="none" stroke="#bfbfbf" points="1428.5,-73 1428.5,-92 1463.5,-92 1463.5,-73 1428.5,-73"/>
<text text-anchor="middle" x="1446" y="-80" font-family="Helvetica,sans-Serif" font-size="10.00" fill="#000000">map</text>
</g>
<!-- Node26&#45;&gt;Node28 -->
<g id="edge38" class="edge">
<title>Node26&#45;&gt;Node28</title>
<path fill="none" stroke="#191970" d="M1290.6874,-197.6667C1338.6067,-188.8594 1408.0095,-173.2423 1427,-154 1440.3583,-140.4646 1444.6202,-118.6685 1445.8394,-102.695"/>
<polygon fill="#191970" stroke="#191970" points="1449.3535,-102.4323 1446.276,-92.2943 1442.3596,-102.1387 1449.3535,-102.4323"/>
</g>
<!-- Node29 -->
<g id="node30" class="node">
<title>Node29</title>
<polygon fill="none" stroke="#bfbfbf" points="1190.5,-134.5 1190.5,-153.5 1231.5,-153.5 1231.5,-134.5 1190.5,-134.5"/>
<text text-anchor="middle" x="1211" y="-141.5" font-family="Helvetica,sans-Serif" font-size="10.00" fill="#000000">regex</text>
</g>
<!-- Node26&#45;&gt;Node29 -->
<g id="edge39" class="edge">
<title>Node26&#45;&gt;Node29</title>
<path fill="none" stroke="#191970" d="M1235.0899,-190.2977C1230.7868,-182.0277 1225.4242,-171.7215 1220.8518,-162.9339"/>
<polygon fill="#191970" stroke="#191970" points="1223.8443,-161.1024 1216.1236,-153.8469 1217.6346,-164.3335 1223.8443,-161.1024"/>
</g>
<!-- Node30 -->
<g id="node31" class="node">
<title>Node30</title>
<polygon fill="none" stroke="#bfbfbf" points="1250,-134.5 1250,-153.5 1302,-153.5 1302,-134.5 1250,-134.5"/>
<text text-anchor="middle" x="1276" y="-141.5" font-family="Helvetica,sans-Serif" font-size="10.00" fill="#000000">sstream</text>
</g>
<!-- Node26&#45;&gt;Node30 -->
<g id="edge40" class="edge">
<title>Node26&#45;&gt;Node30</title>
<path fill="none" stroke="#191970" d="M1251.1573,-190.2977C1255.5949,-182.0277 1261.125,-171.7215 1265.8404,-162.9339"/>
<polygon fill="#191970" stroke="#191970" points="1269.0721,-164.3134 1270.7163,-153.8469 1262.904,-161.0037 1269.0721,-164.3134"/>
</g>
<!-- Node31 -->
<g id="node32" class="node">
<title>Node31</title>
<g id="a_node32"><a xlink:href="general__exceptions_8h.html" target="_top" xlink:title="Definition of self&#45;defined general exceptions. ">
<polygon fill="none" stroke="#000000" points="1063.5,-134.5 1063.5,-153.5 1172.5,-153.5 1172.5,-134.5 1063.5,-134.5"/>
<text text-anchor="middle" x="1118" y="-141.5" font-family="Helvetica,sans-Serif" font-size="10.00" fill="#000000">general_exceptions.h</text>
</a>
</g>
</g>
<!-- Node26&#45;&gt;Node31 -->
<g id="edge43" class="edge">
<title>Node26&#45;&gt;Node31</title>
<path fill="none" stroke="#191970" d="M1212.4216,-190.4554C1192.2968,-180.554 1166.1361,-167.683 1146.4562,-158.0004"/>
<polygon fill="#191970" stroke="#191970" points="1147.8885,-154.8045 1137.3706,-153.5303 1144.7982,-161.0855 1147.8885,-154.8045"/>
</g>
<!-- Node32 -->
<g id="node33" class="node">
<title>Node32</title>
<g id="a_node33"><a xlink:href="generic__functors_8h.html" target="_top" xlink:title="This header file contains a set of self&#45;defined generic functors. ">
<polygon fill="none" stroke="#000000" points="1320.5,-134.5 1320.5,-153.5 1417.5,-153.5 1417.5,-134.5 1320.5,-134.5"/>
<text text-anchor="middle" x="1369" y="-141.5" font-family="Helvetica,sans-Serif" font-size="10.00" fill="#000000">generic_functors.h</text>
</a>
</g>
</g>
<!-- Node26&#45;&gt;Node32 -->
<g id="edge45" class="edge">
<title>Node26&#45;&gt;Node32</title>
<path fill="none" stroke="#191970" d="M1273.8231,-190.4554C1294.1088,-180.554 1320.4788,-167.683 1340.3162,-158.0004"/>
<polygon fill="#191970" stroke="#191970" points="1342.023,-161.062 1349.4745,-153.5303 1338.9526,-154.7714 1342.023,-161.062"/>
</g>
<!-- Node34 -->
<g id="node35" class="node">
<title>Node34</title>
<g id="a_node35"><a xlink:href="lapack__helpers_8h.html" target="_top" xlink:title="Exposes LAPACK helper functions defined in lapack_full_matrix.cc and define new ones by following the...">
<polygon fill="none" stroke="#000000" points="2091,-134.5 2091,-153.5 2181,-153.5 2181,-134.5 2091,-134.5"/>
<text text-anchor="middle" x="2136" y="-141.5" font-family="Helvetica,sans-Serif" font-size="10.00" fill="#000000">lapack_helpers.h</text>
</a>
</g>
</g>
<!-- Node26&#45;&gt;Node34 -->
<g id="edge51" class="edge">
<title>Node26&#45;&gt;Node34</title>
<path fill="none" stroke="#191970" d="M1290.6958,-202.2152C1443.1247,-191.7176 1917.9781,-159.0149 2080.6634,-147.811"/>
<polygon fill="#191970" stroke="#191970" points="2081.1851,-151.2834 2090.921,-147.1045 2080.7041,-144.3 2081.1851,-151.2834"/>
</g>
<!-- Node31&#45;&gt;Node21 -->
<g id="edge44" class="edge">
<title>Node31&#45;&gt;Node21</title>
<path fill="none" stroke="#191970" d="M1122.8438,-134.3906C1127.2766,-125.5965 1133.9631,-112.3312 1139.4659,-101.4145"/>
<polygon fill="#191970" stroke="#191970" points="1142.7122,-102.75 1144.088,-92.2449 1136.4614,-99.5992 1142.7122,-102.75"/>
</g>
<!-- Node32&#45;&gt;Node4 -->
<g id="edge47" class="edge">
<title>Node32&#45;&gt;Node4</title>
<path fill="none" stroke="#191970" d="M1355.4063,-134.3906C1341.6157,-124.6421 1320.0528,-109.3994 1303.859,-97.9521"/>
<polygon fill="#191970" stroke="#191970" points="1305.6844,-94.9563 1295.4983,-92.0419 1301.6437,-100.6723 1305.6844,-94.9563"/>
</g>
<!-- Node32&#45;&gt;Node7 -->
<g id="edge50" class="edge">
<title>Node32&#45;&gt;Node7</title>
<path fill="none" stroke="#191970" d="M1368.7968,-134.449C1367.8887,-117.9129 1363.4746,-84.0858 1343,-67 1294.9008,-26.8618 1101.5979,-17.9946 1024.2385,-16.0454"/>
<polygon fill="#191970" stroke="#191970" points="1024.1969,-12.5436 1014.1194,-15.8138 1024.0367,-19.5418 1024.1969,-12.5436"/>
</g>
<!-- Node32&#45;&gt;Node21 -->
<g id="edge46" class="edge">
<title>Node32&#45;&gt;Node21</title>
<path fill="none" stroke="#191970" d="M1334.625,-134.3906C1296.4427,-123.7169 1234.6984,-106.4566 1193.0116,-94.8033"/>
<polygon fill="#191970" stroke="#191970" points="1193.7067,-91.3634 1183.1336,-92.0419 1191.8221,-98.105 1193.7067,-91.3634"/>
</g>
<!-- Node32&#45;&gt;Node28 -->
<g id="edge49" class="edge">
<title>Node32&#45;&gt;Node28</title>
<path fill="none" stroke="#191970" d="M1381.0313,-134.3906C1393.0107,-124.8227 1411.6166,-109.9621 1425.8525,-98.5919"/>
<polygon fill="#191970" stroke="#191970" points="1428.4239,-101.0175 1434.0532,-92.0419 1424.0553,-95.5479 1428.4239,-101.0175"/>
</g>
<!-- Node33 -->
<g id="node34" class="node">
<title>Node33</title>
<polygon fill="none" stroke="#bfbfbf" points="2657.5,-.5 2657.5,-30.5 2748.5,-30.5 2748.5,-.5 2657.5,-.5"/>
<text text-anchor="start" x="2665.5" y="-18.5" font-family="Helvetica,sans-Serif" font-size="10.00" fill="#000000">deal.II/lac/lapack</text>
<text text-anchor="middle" x="2703" y="-7.5" font-family="Helvetica,sans-Serif" font-size="10.00" fill="#000000">_support.h</text>
</g>
<!-- Node32&#45;&gt;Node33 -->
<g id="edge48" class="edge">
<title>Node32&#45;&gt;Node33</title>
<path fill="none" stroke="#191970" d="M1372.1286,-134.2663C1378.2201,-117.124 1393.4557,-81.951 1420,-67 1474.1265,-36.5134 2406.967,-20.0689 2647.03,-16.3297"/>
<polygon fill="#191970" stroke="#191970" points="2647.3273,-19.8256 2657.272,-16.1713 2647.2191,-12.8264 2647.3273,-19.8256"/>
</g>
<!-- Node34&#45;&gt;Node33 -->
<g id="edge57" class="edge">
<title>Node34&#45;&gt;Node33</title>
<path fill="none" stroke="#191970" d="M2181.1027,-142.4061C2322.9614,-137.1767 2751.8766,-119.6315 2772,-98 2790.9677,-77.6109 2764.4164,-52.9778 2738.9454,-35.9658"/>
<polygon fill="#191970" stroke="#191970" points="2740.7253,-32.9495 2730.4161,-30.5058 2736.9513,-38.8451 2740.7253,-32.9495"/>
</g>
<!-- Node35 -->
<g id="node36" class="node">
<title>Node35</title>
<polygon fill="none" stroke="#bfbfbf" points="1866,-73 1866,-92 1982,-92 1982,-73 1866,-73"/>
<text text-anchor="middle" x="1924" y="-80" font-family="Helvetica,sans-Serif" font-size="10.00" fill="#000000">deal.II/base/numbers.h</text>
</g>
<!-- Node34&#45;&gt;Node35 -->
<g id="edge52" class="edge">
<title>Node34&#45;&gt;Node35</title>
<path fill="none" stroke="#191970" d="M2102.875,-134.3906C2066.1589,-123.7395 2006.8336,-106.5296 1966.6662,-94.8772"/>
<polygon fill="#191970" stroke="#191970" points="1967.4716,-91.4666 1956.8924,-92.0419 1965.5213,-98.1895 1967.4716,-91.4666"/>
</g>
<!-- Node36 -->
<g id="node37" class="node">
<title>Node36</title>
<polygon fill="none" stroke="#bfbfbf" points="2000,-67.5 2000,-97.5 2128,-97.5 2128,-67.5 2000,-67.5"/>
<text text-anchor="start" x="2008" y="-85.5" font-family="Helvetica,sans-Serif" font-size="10.00" fill="#000000">deal.II/lac/blas_extension</text>
<text text-anchor="middle" x="2064" y="-74.5" font-family="Helvetica,sans-Serif" font-size="10.00" fill="#000000">_templates.h</text>
</g>
<!-- Node34&#45;&gt;Node36 -->
<g id="edge53" class="edge">
<title>Node34&#45;&gt;Node36</title>
<path fill="none" stroke="#191970" d="M2124.75,-134.3906C2115.2764,-126.2986 2101.3706,-114.4207 2089.2532,-104.0705"/>
<polygon fill="#191970" stroke="#191970" points="2091.4902,-101.3782 2081.6132,-97.5446 2086.9437,-106.7008 2091.4902,-101.3782"/>
</g>
<!-- Node37 -->
<g id="node38" class="node">
<title>Node37</title>
<polygon fill="none" stroke="#bfbfbf" points="2146,-73 2146,-92 2272,-92 2272,-73 2146,-73"/>
<text text-anchor="middle" x="2209" y="-80" font-family="Helvetica,sans-Serif" font-size="10.00" fill="#000000">deal.II/lac/block_vector.h</text>
</g>
<!-- Node34&#45;&gt;Node37 -->
<g id="edge54" class="edge">
<title>Node34&#45;&gt;Node37</title>
<path fill="none" stroke="#191970" d="M2147.4063,-134.3906C2158.6969,-124.8786 2176.1967,-110.1357 2189.6619,-98.7917"/>
<polygon fill="#191970" stroke="#191970" points="2192.0402,-101.3646 2197.4329,-92.2449 2187.5301,-96.0111 2192.0402,-101.3646"/>
</g>
<!-- Node38 -->
<g id="node39" class="node">
<title>Node38</title>
<polygon fill="none" stroke="#bfbfbf" points="2290,-73 2290,-92 2406,-92 2406,-73 2290,-73"/>
<text text-anchor="middle" x="2348" y="-80" font-family="Helvetica,sans-Serif" font-size="10.00" fill="#000000">deal.II/lac/full_matrix.h</text>
</g>
<!-- Node34&#45;&gt;Node38 -->
<g id="edge55" class="edge">
<title>Node34&#45;&gt;Node38</title>
<path fill="none" stroke="#191970" d="M2169.125,-134.3906C2205.8411,-123.7395 2265.1664,-106.5296 2305.3338,-94.8772"/>
<polygon fill="#191970" stroke="#191970" points="2306.4787,-98.1895 2315.1076,-92.0419 2304.5284,-91.4666 2306.4787,-98.1895"/>
</g>
<!-- Node39 -->
<g id="node40" class="node">
<title>Node39</title>
<polygon fill="none" stroke="#bfbfbf" points="2424.5,-67.5 2424.5,-97.5 2515.5,-97.5 2515.5,-67.5 2424.5,-67.5"/>
<text text-anchor="start" x="2432.5" y="-85.5" font-family="Helvetica,sans-Serif" font-size="10.00" fill="#000000">deal.II/lac/lapack</text>
<text text-anchor="middle" x="2470" y="-74.5" font-family="Helvetica,sans-Serif" font-size="10.00" fill="#000000">_full_matrix.h</text>
</g>
<!-- Node34&#45;&gt;Node39 -->
<g id="edge56" class="edge">
<title>Node34&#45;&gt;Node39</title>
<path fill="none" stroke="#191970" d="M2181.2355,-138.1206C2234.6655,-130.8272 2326.3699,-117.2176 2414.5776,-97.9412"/>
<polygon fill="#191970" stroke="#191970" points="2415.4732,-101.3278 2424.4806,-95.7495 2413.9606,-94.4932 2415.4732,-101.3278"/>
</g>
<!-- Node40 -->
<g id="node41" class="node">
<title>Node40</title>
<polygon fill="none" stroke="#bfbfbf" points="2533.5,-67.5 2533.5,-97.5 2624.5,-97.5 2624.5,-67.5 2533.5,-67.5"/>
<text text-anchor="start" x="2541.5" y="-85.5" font-family="Helvetica,sans-Serif" font-size="10.00" fill="#000000">deal.II/lac/lapack</text>
<text text-anchor="middle" x="2579" y="-74.5" font-family="Helvetica,sans-Serif" font-size="10.00" fill="#000000">_templates.h</text>
</g>
<!-- Node34&#45;&gt;Node40 -->
<g id="edge58" class="edge">
<title>Node34&#45;&gt;Node40</title>
<path fill="none" stroke="#191970" d="M2181.0022,-141.0545C2251.9897,-135.8914 2394.3635,-123.4436 2523.4059,-98.1361"/>
<polygon fill="#191970" stroke="#191970" points="2524.3396,-101.5189 2533.4627,-96.1319 2522.9715,-94.6539 2524.3396,-101.5189"/>
</g>
<!-- Node41 -->
<g id="node42" class="node">
<title>Node41</title>
<polygon fill="none" stroke="#bfbfbf" points="1520,-67.5 1520,-97.5 1612,-97.5 1612,-67.5 1520,-67.5"/>
<text text-anchor="start" x="1528" y="-85.5" font-family="Helvetica,sans-Serif" font-size="10.00" fill="#000000">deal.II/lac/sparse</text>
<text text-anchor="middle" x="1566" y="-74.5" font-family="Helvetica,sans-Serif" font-size="10.00" fill="#000000">_matrix.h</text>
</g>
<!-- Node34&#45;&gt;Node41 -->
<g id="edge59" class="edge">
<title>Node34&#45;&gt;Node41</title>
<path fill="none" stroke="#191970" d="M2090.9451,-142.702C2002.705,-139.5706 1800.9175,-129.5084 1622.1421,-97.7824"/>
<polygon fill="#191970" stroke="#191970" points="1622.7607,-94.3376 1612.2986,-96.0092 1621.5196,-101.2267 1622.7607,-94.3376"/>
</g>
<!-- Node42 -->
<g id="node43" class="node">
<title>Node42</title>
<polygon fill="none" stroke="#bfbfbf" points="1630.5,-73 1630.5,-92 1731.5,-92 1731.5,-73 1630.5,-73"/>
<text text-anchor="middle" x="1681" y="-80" font-family="Helvetica,sans-Serif" font-size="10.00" fill="#000000">deal.II/lac/utilities.h</text>
</g>
<!-- Node34&#45;&gt;Node42 -->
<g id="edge60" class="edge">
<title>Node34&#45;&gt;Node42</title>
<path fill="none" stroke="#191970" d="M2090.9759,-140.7742C2017.3341,-135.0475 1866.7287,-121.4469 1741,-98 1735.5796,-96.9892 1729.9249,-95.7619 1724.3467,-94.4452"/>
<polygon fill="#191970" stroke="#191970" points="1725.0033,-91.0024 1714.4561,-92.0064 1723.3274,-97.7988 1725.0033,-91.0024"/>
</g>
<!-- Node43 -->
<g id="node44" class="node">
<title>Node43</title>
<polygon fill="none" stroke="#bfbfbf" points="1750,-73 1750,-92 1848,-92 1848,-73 1750,-73"/>
<text text-anchor="middle" x="1799" y="-80" font-family="Helvetica,sans-Serif" font-size="10.00" fill="#000000">deal.II/lac/vector.h</text>
</g>
<!-- Node34&#45;&gt;Node43 -->
<g id="edge61" class="edge">
<title>Node34&#45;&gt;Node43</title>
<path fill="none" stroke="#191970" d="M2090.8051,-137.9352C2035.4126,-130.1836 1938.8222,-115.6342 1857,-98 1852.2813,-96.983 1847.3717,-95.8267 1842.4946,-94.6148"/>
<polygon fill="#191970" stroke="#191970" points="1843.1575,-91.1716 1832.6013,-92.0758 1841.4174,-97.9518 1843.1575,-91.1716"/>
</g>
<!-- Node44 -->
<g id="node45" class="node">
<title>Node44</title>
<g id="a_node45"><a xlink:href="lapack__templates__ext_8h.html" target="_top" xlink:title="Append more template based LAPACK functions to those existing in deal.ii. ">
<polygon fill="none" stroke="#000000" points="2643,-73 2643,-92 2763,-92 2763,-73 2643,-73"/>
<text text-anchor="middle" x="2703" y="-80" font-family="Helvetica,sans-Serif" font-size="10.00" fill="#000000">lapack_templates_ext.h</text>
</a>
</g>
</g>
<!-- Node34&#45;&gt;Node44 -->
<g id="edge62" class="edge">
<title>Node34&#45;&gt;Node44</title>
<path fill="none" stroke="#191970" d="M2181.2206,-141.7786C2268.964,-137.037 2468.2596,-124.1588 2634,-98 2640.6815,-96.9455 2647.683,-95.6269 2654.5571,-94.2069"/>
<polygon fill="#191970" stroke="#191970" points="2655.4444,-97.5962 2664.4855,-92.0726 2653.9732,-90.7525 2655.4444,-97.5962"/>
</g>
<!-- Node44&#45;&gt;Node33 -->
<g id="edge63" class="edge">
<title>Node44&#45;&gt;Node33</title>
<path fill="none" stroke="#191970" d="M2703,-72.9005C2703,-64.5099 2703,-51.9451 2703,-40.7085"/>
<polygon fill="#191970" stroke="#191970" points="2706.5001,-40.5217 2703,-30.5218 2699.5001,-40.5218 2706.5001,-40.5217"/>
</g>
</g>
</svg>
