<?xml version="1.0" encoding="UTF-8" standalone="no"?>
<!DOCTYPE svg PUBLIC "-//W3C//DTD SVG 1.1//EN"
 "http://www.w3.org/Graphics/SVG/1.1/DTD/svg11.dtd">
<!-- Generated by graphviz version 2.40.1 (20161225.0304)
 -->
<!-- Title: /home/jihuan/Projects/deal.ii/program/dealii&#45;9.1.1/examples/laplace&#45;bem/tests/block&#45;cluster&#45;tree&#45;hp&#45;coarse&#45;non&#45;tensor&#45;product/bct&#45;hp&#45;coarse&#45;ntp.cc Pages: 1 -->
<svg width="2867pt" height="452pt"
 viewBox="0.00 0.00 2866.54 452.00" xmlns="http://www.w3.org/2000/svg" xmlns:xlink="http://www.w3.org/1999/xlink">
<g id="graph0" class="graph" transform="scale(1 1) rotate(0) translate(4 448)">
<title>/home/jihuan/Projects/deal.ii/program/dealii&#45;9.1.1/examples/laplace&#45;bem/tests/block&#45;cluster&#45;tree&#45;hp&#45;coarse&#45;non&#45;tensor&#45;product/bct&#45;hp&#45;coarse&#45;ntp.cc</title>
<!-- Node0 -->
<g id="node1" class="node">
<title>Node0</title>
<polygon fill="#bfbfbf" stroke="#000000" points="534,-369.5 534,-443.5 678,-443.5 678,-369.5 534,-369.5"/>
<text text-anchor="start" x="542" y="-431.5" font-family="Helvetica,sans-Serif" font-size="10.00" fill="#000000">/home/jihuan/Projects</text>
<text text-anchor="start" x="542" y="-420.5" font-family="Helvetica,sans-Serif" font-size="10.00" fill="#000000">/deal.ii/program/dealii</text>
<text text-anchor="start" x="542" y="-409.5" font-family="Helvetica,sans-Serif" font-size="10.00" fill="#000000">&#45;9.1.1/examples/laplace</text>
<text text-anchor="start" x="542" y="-398.5" font-family="Helvetica,sans-Serif" font-size="10.00" fill="#000000">&#45;bem/tests/block&#45;cluster</text>
<text text-anchor="start" x="542" y="-387.5" font-family="Helvetica,sans-Serif" font-size="10.00" fill="#000000">&#45;tree&#45;hp&#45;coarse&#45;non&#45;tensor</text>
<text text-anchor="middle" x="606" y="-376.5" font-family="Helvetica,sans-Serif" font-size="10.00" fill="#000000">&#45;product/bct&#45;hp&#45;coarse&#45;ntp.cc</text>
</g>
<!-- Node1 -->
<g id="node2" class="node">
<title>Node1</title>
<polygon fill="none" stroke="#bfbfbf" points="473,-313.5 473,-332.5 523,-332.5 523,-313.5 473,-313.5"/>
<text text-anchor="middle" x="498" y="-320.5" font-family="Helvetica,sans-Serif" font-size="10.00" fill="#000000">fstream</text>
</g>
<!-- Node0&#45;&gt;Node1 -->
<g id="edge1" class="edge">
<title>Node0&#45;&gt;Node1</title>
<path fill="none" stroke="#191970" d="M558.0007,-369.3894C544.3092,-358.8039 530.0967,-347.8155 518.9427,-339.1918"/>
<polygon fill="#191970" stroke="#191970" points="520.7736,-336.1833 510.7215,-332.8356 516.492,-341.7212 520.7736,-336.1833"/>
</g>
<!-- Node2 -->
<g id="node3" class="node">
<title>Node2</title>
<polygon fill="none" stroke="#bfbfbf" points="391,-73 391,-92 445,-92 445,-73 391,-73"/>
<text text-anchor="middle" x="418" y="-80" font-family="Helvetica,sans-Serif" font-size="10.00" fill="#000000">iostream</text>
</g>
<!-- Node0&#45;&gt;Node2 -->
<g id="edge2" class="edge">
<title>Node0&#45;&gt;Node2</title>
<path fill="none" stroke="#191970" d="M582.5155,-369.2709C567.5667,-342.0237 551,-303.5765 551,-267 551,-267 551,-267 551,-205.5 551,-175.9466 479.3229,-123.4965 441.2072,-97.6945"/>
<polygon fill="#191970" stroke="#191970" points="442.9986,-94.6819 432.7415,-92.0283 439.1051,-100.4992 442.9986,-94.6819"/>
</g>
<!-- Node3 -->
<g id="node4" class="node">
<title>Node3</title>
<g id="a_node4"><a xlink:href="block__cluster__tree_8h.html" target="_top" xlink:title="Implementation of the class BlockClusterTree. ">
<polygon fill="none" stroke="#000000" points="609,-313.5 609,-332.5 713,-332.5 713,-313.5 609,-313.5"/>
<text text-anchor="middle" x="661" y="-320.5" font-family="Helvetica,sans-Serif" font-size="10.00" fill="#000000">block_cluster_tree.h</text>
</a>
</g>
</g>
<!-- Node0&#45;&gt;Node3 -->
<g id="edge3" class="edge">
<title>Node0&#45;&gt;Node3</title>
<path fill="none" stroke="#191970" d="M630.6044,-369.1461C637.0049,-359.4289 643.617,-349.3906 649.033,-341.1681"/>
<polygon fill="#191970" stroke="#191970" points="651.9867,-343.0466 654.5646,-332.7701 646.1409,-339.196 651.9867,-343.0466"/>
</g>
<!-- Node16 -->
<g id="node17" class="node">
<title>Node16</title>
<g id="a_node17"><a xlink:href="cluster__tree_8h_source.html" target="_top" xlink:title="cluster_tree.h">
<polygon fill="none" stroke="#000000" points="637,-196 637,-215 713,-215 713,-196 637,-196"/>
<text text-anchor="middle" x="675" y="-203" font-family="Helvetica,sans-Serif" font-size="10.00" fill="#000000">cluster_tree.h</text>
</a>
</g>
</g>
<!-- Node0&#45;&gt;Node16 -->
<g id="edge69" class="edge">
<title>Node0&#45;&gt;Node16</title>
<path fill="none" stroke="#191970" d="M678.144,-376.2664C695.5916,-365.3178 712.0585,-351.0682 722,-333 742.3464,-296.0213 711.3,-248.4576 690.7557,-223.1638"/>
<polygon fill="#191970" stroke="#191970" points="693.1551,-220.5804 684.0283,-215.1996 687.8076,-225.0975 693.1551,-220.5804"/>
</g>
<!-- Node4 -->
<g id="node5" class="node">
<title>Node4</title>
<g id="a_node5"><a xlink:href="block__cluster_8h.html" target="_top" xlink:title="Implementation of the class BlockCluster. ">
<polygon fill="none" stroke="#000000" points="579.5,-257.5 579.5,-276.5 662.5,-276.5 662.5,-257.5 579.5,-257.5"/>
<text text-anchor="middle" x="621" y="-264.5" font-family="Helvetica,sans-Serif" font-size="10.00" fill="#000000">block_cluster.h</text>
</a>
</g>
</g>
<!-- Node3&#45;&gt;Node4 -->
<g id="edge4" class="edge">
<title>Node3&#45;&gt;Node4</title>
<path fill="none" stroke="#191970" d="M654.0325,-313.2455C648.4689,-305.4564 640.522,-294.3308 633.8171,-284.9439"/>
<polygon fill="#191970" stroke="#191970" points="636.5481,-282.7457 627.8876,-276.6427 630.852,-286.8144 636.5481,-282.7457"/>
</g>
<!-- Node3&#45;&gt;Node16 -->
<g id="edge36" class="edge">
<title>Node3&#45;&gt;Node16</title>
<path fill="none" stroke="#191970" d="M663.9156,-313.2343C666.5354,-303.9934 670.2337,-289.6872 672,-277 674.4061,-259.7166 675.0751,-239.8758 675.1888,-225.4863"/>
<polygon fill="#191970" stroke="#191970" points="678.6887,-225.2661 675.1835,-215.2679 671.6887,-225.2698 678.6887,-225.2661"/>
</g>
<!-- Node17 -->
<g id="node18" class="node">
<title>Node17</title>
<g id="a_node18"><a xlink:href="debug__tools_8h.html" target="_top" xlink:title="This file includes a bunch of helper functions for printing out and visualizing information about gri...">
<polygon fill="none" stroke="#000000" points="237.5,-134.5 237.5,-153.5 314.5,-153.5 314.5,-134.5 237.5,-134.5"/>
<text text-anchor="middle" x="276" y="-141.5" font-family="Helvetica,sans-Serif" font-size="10.00" fill="#000000">debug_tools.h</text>
</a>
</g>
</g>
<!-- Node3&#45;&gt;Node17 -->
<g id="edge37" class="edge">
<title>Node3&#45;&gt;Node17</title>
<path fill="none" stroke="#191970" d="M640.3007,-313.3762C576.3245,-283.6314 381.5494,-193.0736 306.2051,-158.0434"/>
<polygon fill="#191970" stroke="#191970" points="307.3451,-154.7137 296.8016,-153.6714 304.3939,-161.0612 307.3451,-154.7137"/>
</g>
<!-- Node21 -->
<g id="node22" class="node">
<title>Node21</title>
<g id="a_node22"><a xlink:href="tree_8h.html" target="_top" xlink:title="Implementation of the classes for binary tree node, general tree node and functions for manipulating ...">
<polygon fill="none" stroke="#000000" points="941.5,-134.5 941.5,-153.5 982.5,-153.5 982.5,-134.5 941.5,-134.5"/>
<text text-anchor="middle" x="962" y="-141.5" font-family="Helvetica,sans-Serif" font-size="10.00" fill="#000000">tree.h</text>
</a>
</g>
</g>
<!-- Node3&#45;&gt;Node21 -->
<g id="edge68" class="edge">
<title>Node3&#45;&gt;Node21</title>
<path fill="none" stroke="#191970" d="M677.1831,-313.3762C726.7925,-283.8742 877.0002,-194.5481 936.9239,-158.9123"/>
<polygon fill="#191970" stroke="#191970" points="938.9309,-161.791 945.7369,-153.6714 935.3529,-155.7745 938.9309,-161.791"/>
</g>
<!-- Node27 -->
<g id="node28" class="node">
<title>Node27</title>
<g id="a_node28"><a xlink:href="lapack__full__matrix__ext_8h_source.html" target="_top" xlink:title="lapack_full_matrix\l_ext.h">
<polygon fill="none" stroke="#000000" points="1383.5,-190.5 1383.5,-220.5 1478.5,-220.5 1478.5,-190.5 1383.5,-190.5"/>
<text text-anchor="start" x="1391.5" y="-208.5" font-family="Helvetica,sans-Serif" font-size="10.00" fill="#000000">lapack_full_matrix</text>
<text text-anchor="middle" x="1431" y="-197.5" font-family="Helvetica,sans-Serif" font-size="10.00" fill="#000000">_ext.h</text>
</a>
</g>
</g>
<!-- Node3&#45;&gt;Node27 -->
<g id="edge38" class="edge">
<title>Node3&#45;&gt;Node27</title>
<path fill="none" stroke="#191970" d="M713.0183,-315.0621C851.4217,-293.9421 1228.0037,-236.4767 1373.0078,-214.3495"/>
<polygon fill="#191970" stroke="#191970" points="1373.6838,-217.7869 1383.0414,-212.8184 1372.6278,-210.867 1373.6838,-217.7869"/>
</g>
<!-- Node5 -->
<g id="node6" class="node">
<title>Node5</title>
<g id="a_node6"><a xlink:href="cluster_8h.html" target="_top" xlink:title="Implementation of the class Cluster. ">
<polygon fill="none" stroke="#000000" points="640,-134.5 640,-153.5 694,-153.5 694,-134.5 640,-134.5"/>
<text text-anchor="middle" x="667" y="-141.5" font-family="Helvetica,sans-Serif" font-size="10.00" fill="#000000">cluster.h</text>
</a>
</g>
</g>
<!-- Node4&#45;&gt;Node5 -->
<g id="edge5" class="edge">
<title>Node4&#45;&gt;Node5</title>
<path fill="none" stroke="#191970" d="M620.0663,-257.3137C619.0069,-242.2672 618.5033,-212.6544 628,-190 632.5537,-179.137 640.6368,-168.9381 648.2678,-160.9175"/>
<polygon fill="#191970" stroke="#191970" points="650.9428,-163.195 655.6007,-153.679 646.0252,-158.2132 650.9428,-163.195"/>
</g>
<!-- Node4&#45;&gt;Node16 -->
<g id="edge17" class="edge">
<title>Node4&#45;&gt;Node16</title>
<path fill="none" stroke="#191970" d="M629.4375,-257.3906C637.5531,-248.1478 650.0055,-233.966 659.8424,-222.7628"/>
<polygon fill="#191970" stroke="#191970" points="662.4755,-225.0686 666.4435,-215.2449 657.2154,-220.45 662.4755,-225.0686"/>
</g>
<!-- Node6 -->
<g id="node7" class="node">
<title>Node6</title>
<polygon fill="none" stroke="#bfbfbf" points="713.5,-73 713.5,-92 816.5,-92 816.5,-73 713.5,-73"/>
<text text-anchor="middle" x="765" y="-80" font-family="Helvetica,sans-Serif" font-size="10.00" fill="#000000">deal.II/base/types.h</text>
</g>
<!-- Node5&#45;&gt;Node6 -->
<g id="edge6" class="edge">
<title>Node5&#45;&gt;Node6</title>
<path fill="none" stroke="#191970" d="M682.3125,-134.3906C698.0624,-124.5067 722.8123,-108.9749 741.1337,-97.4773"/>
<polygon fill="#191970" stroke="#191970" points="743.1852,-100.3221 749.795,-92.0419 739.4643,-94.3929 743.1852,-100.3221"/>
</g>
<!-- Node7 -->
<g id="node8" class="node">
<title>Node7</title>
<polygon fill="none" stroke="#bfbfbf" points="639,-73 639,-92 695,-92 695,-73 639,-73"/>
<text text-anchor="middle" x="667" y="-80" font-family="Helvetica,sans-Serif" font-size="10.00" fill="#000000">algorithm</text>
</g>
<!-- Node5&#45;&gt;Node7 -->
<g id="edge7" class="edge">
<title>Node5&#45;&gt;Node7</title>
<path fill="none" stroke="#191970" d="M667,-134.3906C667,-125.8657 667,-113.1392 667,-102.4235"/>
<polygon fill="#191970" stroke="#191970" points="670.5001,-102.2448 667,-92.2449 663.5001,-102.2449 670.5001,-102.2448"/>
</g>
<!-- Node8 -->
<g id="node9" class="node">
<title>Node8</title>
<polygon fill="none" stroke="#bfbfbf" points="834.5,-73 834.5,-92 881.5,-92 881.5,-73 834.5,-73"/>
<text text-anchor="middle" x="858" y="-80" font-family="Helvetica,sans-Serif" font-size="10.00" fill="#000000">iterator</text>
</g>
<!-- Node5&#45;&gt;Node8 -->
<g id="edge8" class="edge">
<title>Node5&#45;&gt;Node8</title>
<path fill="none" stroke="#191970" d="M694.1836,-137.6305C726.2127,-129.7852 780.7926,-115.3444 826,-98 827.4048,-97.461 828.8322,-96.8842 830.2652,-96.2815"/>
<polygon fill="#191970" stroke="#191970" points="831.947,-99.3625 839.6219,-92.0585 829.0674,-92.9822 831.947,-99.3625"/>
</g>
<!-- Node9 -->
<g id="node10" class="node">
<title>Node9</title>
<polygon fill="none" stroke="#bfbfbf" points="1152,-6 1152,-25 1196,-25 1196,-6 1152,-6"/>
<text text-anchor="middle" x="1174" y="-13" font-family="Helvetica,sans-Serif" font-size="10.00" fill="#000000">vector</text>
</g>
<!-- Node5&#45;&gt;Node9 -->
<g id="edge9" class="edge">
<title>Node5&#45;&gt;Node9</title>
<path fill="none" stroke="#191970" d="M656.0495,-134.4539C639.3796,-118.8067 611.4355,-87.4049 630,-67 664.5605,-29.0131 1029.8721,-18.4423 1141.6717,-16.086"/>
<polygon fill="#191970" stroke="#191970" points="1142.0484,-19.5792 1151.9754,-15.8772 1141.9065,-12.5806 1142.0484,-19.5792"/>
</g>
<!-- Node10 -->
<g id="node11" class="node">
<title>Node10</title>
<g id="a_node11"><a xlink:href="simple__bounding__box_8h_source.html" target="_top" xlink:title="simple_bounding_box.h">
<polygon fill="none" stroke="#000000" points="463.5,-73 463.5,-92 582.5,-92 582.5,-73 463.5,-73"/>
<text text-anchor="middle" x="523" y="-80" font-family="Helvetica,sans-Serif" font-size="10.00" fill="#000000">simple_bounding_box.h</text>
</a>
</g>
</g>
<!-- Node5&#45;&gt;Node10 -->
<g id="edge10" class="edge">
<title>Node5&#45;&gt;Node10</title>
<path fill="none" stroke="#191970" d="M644.5,-134.3906C620.4062,-124.1005 581.9787,-107.6888 554.7992,-96.0809"/>
<polygon fill="#191970" stroke="#191970" points="555.9131,-92.7508 545.342,-92.0419 553.1637,-99.1883 555.9131,-92.7508"/>
</g>
<!-- Node10&#45;&gt;Node9 -->
<g id="edge16" class="edge">
<title>Node10&#45;&gt;Node9</title>
<path fill="none" stroke="#191970" d="M564.332,-72.9481C574.9356,-70.7442 586.3539,-68.5845 597,-67 803.2653,-36.3013 1053.9333,-21.5461 1141.7549,-17.0467"/>
<polygon fill="#191970" stroke="#191970" points="1142.0676,-20.5355 1151.8789,-16.5368 1141.7154,-13.5444 1142.0676,-20.5355"/>
</g>
<!-- Node11 -->
<g id="node12" class="node">
<title>Node11</title>
<polygon fill="none" stroke="#bfbfbf" points="517,-6 517,-25 617,-25 617,-6 517,-6"/>
<text text-anchor="middle" x="567" y="-13" font-family="Helvetica,sans-Serif" font-size="10.00" fill="#000000">deal.II/base/point.h</text>
</g>
<!-- Node10&#45;&gt;Node11 -->
<g id="edge11" class="edge">
<title>Node10&#45;&gt;Node11</title>
<path fill="none" stroke="#191970" d="M529.3041,-72.9005C536.0349,-62.6515 546.8554,-46.1747 555.1807,-33.4976"/>
<polygon fill="#191970" stroke="#191970" points="558.1438,-35.3616 560.7076,-25.0817 552.2927,-31.5191 558.1438,-35.3616"/>
</g>
<!-- Node12 -->
<g id="node13" class="node">
<title>Node12</title>
<polygon fill="none" stroke="#bfbfbf" points="305.5,-6 305.5,-25 432.5,-25 432.5,-6 305.5,-6"/>
<text text-anchor="middle" x="369" y="-13" font-family="Helvetica,sans-Serif" font-size="10.00" fill="#000000">deal.II/dofs/dof_handler.h</text>
</g>
<!-- Node10&#45;&gt;Node12 -->
<g id="edge12" class="edge">
<title>Node10&#45;&gt;Node12</title>
<path fill="none" stroke="#191970" d="M500.9356,-72.9005C474.6335,-61.4574 430.4872,-42.2509 400.5755,-29.2374"/>
<polygon fill="#191970" stroke="#191970" points="401.5896,-25.8617 391.0235,-25.0817 398.797,-32.2806 401.5896,-25.8617"/>
</g>
<!-- Node13 -->
<g id="node14" class="node">
<title>Node13</title>
<polygon fill="none" stroke="#bfbfbf" points="0,-6 0,-25 116,-25 116,-6 0,-6"/>
<text text-anchor="middle" x="58" y="-13" font-family="Helvetica,sans-Serif" font-size="10.00" fill="#000000">deal.II/dofs/dof_tools.h</text>
</g>
<!-- Node10&#45;&gt;Node13 -->
<g id="edge13" class="edge">
<title>Node10&#45;&gt;Node13</title>
<path fill="none" stroke="#191970" d="M483.7273,-72.9678C474.0463,-70.8145 463.6786,-68.6734 454,-67 323.8472,-44.4974 289.8488,-49.02 159,-31 148.3704,-29.5361 137.1256,-27.8987 126.1497,-26.2516"/>
<polygon fill="#191970" stroke="#191970" points="126.582,-22.7772 116.1707,-24.7408 125.5341,-29.6983 126.582,-22.7772"/>
</g>
<!-- Node14 -->
<g id="node15" class="node">
<title>Node14</title>
<polygon fill="none" stroke="#bfbfbf" points="167.5,-6 167.5,-25 270.5,-25 270.5,-6 167.5,-6"/>
<text text-anchor="middle" x="219" y="-13" font-family="Helvetica,sans-Serif" font-size="10.00" fill="#000000">deal.II/fe/mapping.h</text>
</g>
<!-- Node10&#45;&gt;Node14 -->
<g id="edge14" class="edge">
<title>Node10&#45;&gt;Node14</title>
<path fill="none" stroke="#191970" d="M480.6788,-72.9563C471.8637,-70.9788 462.63,-68.9149 454,-67 391.7599,-53.1894 320.1937,-37.5386 272.551,-27.1522"/>
<polygon fill="#191970" stroke="#191970" points="273.2756,-23.728 262.7596,-25.0183 271.785,-30.5675 273.2756,-23.728"/>
</g>
<!-- Node15 -->
<g id="node16" class="node">
<title>Node15</title>
<polygon fill="none" stroke="#bfbfbf" points="459,-6 459,-25 499,-25 499,-6 459,-6"/>
<text text-anchor="middle" x="479" y="-13" font-family="Helvetica,sans-Serif" font-size="10.00" fill="#000000">utility</text>
</g>
<!-- Node10&#45;&gt;Node15 -->
<g id="edge15" class="edge">
<title>Node10&#45;&gt;Node15</title>
<path fill="none" stroke="#191970" d="M516.6959,-72.9005C509.9651,-62.6515 499.1446,-46.1747 490.8193,-33.4976"/>
<polygon fill="#191970" stroke="#191970" points="493.7073,-31.5191 485.2924,-25.0817 487.8562,-35.3616 493.7073,-31.5191"/>
</g>
<!-- Node16&#45;&gt;Node5 -->
<g id="edge18" class="edge">
<title>Node16&#45;&gt;Node5</title>
<path fill="none" stroke="#191970" d="M673.75,-195.8906C672.6411,-187.3657 670.9856,-174.6392 669.5917,-163.9235"/>
<polygon fill="#191970" stroke="#191970" points="673.0284,-163.2098 668.2676,-153.7449 666.0869,-164.1128 673.0284,-163.2098"/>
</g>
<!-- Node16&#45;&gt;Node17 -->
<g id="edge19" class="edge">
<title>Node16&#45;&gt;Node17</title>
<path fill="none" stroke="#191970" d="M636.7422,-199.6031C563.9407,-188.3818 405.5749,-163.9721 325.0841,-151.5656"/>
<polygon fill="#191970" stroke="#191970" points="325.1447,-148.0337 314.7282,-149.9694 324.0783,-154.952 325.1447,-148.0337"/>
</g>
<!-- Node16&#45;&gt;Node21 -->
<g id="edge27" class="edge">
<title>Node16&#45;&gt;Node21</title>
<path fill="none" stroke="#191970" d="M705.1116,-195.9887C712.251,-193.8826 719.8654,-191.7573 727,-190 799.6857,-172.0973 886.3842,-156.6213 931.4225,-149.0154"/>
<polygon fill="#191970" stroke="#191970" points="932.138,-152.4444 941.4225,-147.3407 930.9817,-145.5405 932.138,-152.4444"/>
</g>
<!-- Node17&#45;&gt;Node2 -->
<g id="edge25" class="edge">
<title>Node17&#45;&gt;Node2</title>
<path fill="none" stroke="#191970" d="M298.1875,-134.3906C321.9467,-124.1005 359.8405,-107.6888 386.6425,-96.0809"/>
<polygon fill="#191970" stroke="#191970" points="388.183,-99.2279 395.9683,-92.0419 385.4009,-92.8045 388.183,-99.2279"/>
</g>
<!-- Node17&#45;&gt;Node12 -->
<g id="edge20" class="edge">
<title>Node17&#45;&gt;Node12</title>
<path fill="none" stroke="#191970" d="M237.3898,-140.8692C174.2994,-134.2998 59.9424,-115.4542 100,-67 103.2846,-63.0269 225.6219,-40.7932 304.1671,-26.8693"/>
<polygon fill="#191970" stroke="#191970" points="305.23,-30.2357 314.467,-25.0465 304.0101,-23.3428 305.23,-30.2357"/>
</g>
<!-- Node17&#45;&gt;Node13 -->
<g id="edge21" class="edge">
<title>Node17&#45;&gt;Node13</title>
<path fill="none" stroke="#191970" d="M237.3885,-141.6628C180.2717,-137.309 77.5639,-125.7441 55,-98 40.7125,-80.4324 45.2029,-53.1259 50.7353,-34.7926"/>
<polygon fill="#191970" stroke="#191970" points="54.099,-35.7707 53.9789,-25.1765 47.4662,-33.5333 54.099,-35.7707"/>
</g>
<!-- Node17&#45;&gt;Node14 -->
<g id="edge24" class="edge">
<title>Node17&#45;&gt;Node14</title>
<path fill="none" stroke="#191970" d="M237.2156,-141.1354C182.7651,-136.2158 87.9494,-124.0617 67,-98 37.0715,-60.7681 103.0498,-37.9495 157.2869,-26.0093"/>
<polygon fill="#191970" stroke="#191970" points="158.1905,-29.3958 167.2517,-23.9054 156.7444,-22.5468 158.1905,-29.3958"/>
</g>
<!-- Node18 -->
<g id="node19" class="node">
<title>Node18</title>
<polygon fill="none" stroke="#bfbfbf" points="239,-73 239,-92 313,-92 313,-73 239,-73"/>
<text text-anchor="middle" x="276" y="-80" font-family="Helvetica,sans-Serif" font-size="10.00" fill="#000000">deal.II/fe/fe.h</text>
</g>
<!-- Node17&#45;&gt;Node18 -->
<g id="edge22" class="edge">
<title>Node17&#45;&gt;Node18</title>
<path fill="none" stroke="#191970" d="M276,-134.3906C276,-125.8657 276,-113.1392 276,-102.4235"/>
<polygon fill="#191970" stroke="#191970" points="279.5001,-102.2448 276,-92.2449 272.5001,-102.2449 279.5001,-102.2448"/>
</g>
<!-- Node19 -->
<g id="node20" class="node">
<title>Node19</title>
<polygon fill="none" stroke="#bfbfbf" points="109,-73 109,-92 221,-92 221,-73 109,-73"/>
<text text-anchor="middle" x="165" y="-80" font-family="Helvetica,sans-Serif" font-size="10.00" fill="#000000">deal.II/fe/fe_system.h</text>
</g>
<!-- Node17&#45;&gt;Node19 -->
<g id="edge23" class="edge">
<title>Node17&#45;&gt;Node19</title>
<path fill="none" stroke="#191970" d="M258.6563,-134.3906C240.5727,-124.3713 212.0141,-108.5483 191.1835,-97.0071"/>
<polygon fill="#191970" stroke="#191970" points="192.6654,-93.8268 182.222,-92.0419 189.2729,-99.9498 192.6654,-93.8268"/>
</g>
<!-- Node20 -->
<g id="node21" class="node">
<title>Node20</title>
<polygon fill="none" stroke="#bfbfbf" points="331.5,-73 331.5,-92 372.5,-92 372.5,-73 331.5,-73"/>
<text text-anchor="middle" x="352" y="-80" font-family="Helvetica,sans-Serif" font-size="10.00" fill="#000000">string</text>
</g>
<!-- Node17&#45;&gt;Node20 -->
<g id="edge26" class="edge">
<title>Node17&#45;&gt;Node20</title>
<path fill="none" stroke="#191970" d="M287.875,-134.3906C299.6297,-124.8786 317.8486,-110.1357 331.8672,-98.7917"/>
<polygon fill="#191970" stroke="#191970" points="334.3856,-101.2562 339.9576,-92.2449 329.9822,-95.8146 334.3856,-101.2562"/>
</g>
<!-- Node21&#45;&gt;Node2 -->
<g id="edge33" class="edge">
<title>Node21&#45;&gt;Node2</title>
<path fill="none" stroke="#191970" d="M941.4756,-142.9765C858.7602,-138.7227 549.7792,-121.5556 455,-98 452.3662,-97.3454 449.6768,-96.5309 447.0099,-95.6204"/>
<polygon fill="#191970" stroke="#191970" points="448.1794,-92.3205 437.5889,-92.0164 445.6783,-98.8585 448.1794,-92.3205"/>
</g>
<!-- Node21&#45;&gt;Node7 -->
<g id="edge29" class="edge">
<title>Node21&#45;&gt;Node7</title>
<path fill="none" stroke="#191970" d="M941.3419,-141.7969C897.2589,-136.7721 790.98,-122.9292 705,-98 702.6905,-97.3304 700.3294,-96.5679 697.9706,-95.7487"/>
<polygon fill="#191970" stroke="#191970" points="699.0158,-92.4024 688.4239,-92.1543 696.5493,-98.9535 699.0158,-92.4024"/>
</g>
<!-- Node21&#45;&gt;Node9 -->
<g id="edge35" class="edge">
<title>Node21&#45;&gt;Node9</title>
<path fill="none" stroke="#191970" d="M982.5166,-141.8309C1027.107,-136.7011 1130.797,-122.3882 1155,-98 1171.3671,-81.5077 1174.7654,-53.924 1174.9707,-35.2364"/>
<polygon fill="#191970" stroke="#191970" points="1178.4689,-35.1044 1174.785,-25.1707 1171.4701,-35.2336 1178.4689,-35.1044"/>
</g>
<!-- Node22 -->
<g id="node23" class="node">
<title>Node22</title>
<polygon fill="none" stroke="#bfbfbf" points="1240,-73 1240,-92 1366,-92 1366,-73 1240,-73"/>
<text text-anchor="middle" x="1303" y="-80" font-family="Helvetica,sans-Serif" font-size="10.00" fill="#000000">deal.II/base/exceptions.h</text>
</g>
<!-- Node21&#45;&gt;Node22 -->
<g id="edge28" class="edge">
<title>Node21&#45;&gt;Node22</title>
<path fill="none" stroke="#191970" d="M982.5631,-140.2914C1032.4489,-131.2944 1161.5383,-108.0129 1239.8044,-93.8975"/>
<polygon fill="#191970" stroke="#191970" points="1240.8072,-97.2731 1250.0272,-92.0537 1239.5647,-90.3843 1240.8072,-97.2731"/>
</g>
<!-- Node23 -->
<g id="node24" class="node">
<title>Node23</title>
<polygon fill="none" stroke="#bfbfbf" points="1030,-73 1030,-92 1068,-92 1068,-73 1030,-73"/>
<text text-anchor="middle" x="1049" y="-80" font-family="Helvetica,sans-Serif" font-size="10.00" fill="#000000">array</text>
</g>
<!-- Node21&#45;&gt;Node23 -->
<g id="edge30" class="edge">
<title>Node21&#45;&gt;Node23</title>
<path fill="none" stroke="#191970" d="M975.5938,-134.3906C989.3843,-124.6421 1010.9472,-109.3994 1027.141,-97.9521"/>
<polygon fill="#191970" stroke="#191970" points="1029.3563,-100.6723 1035.5017,-92.0419 1025.3156,-94.9563 1029.3563,-100.6723"/>
</g>
<!-- Node24 -->
<g id="node25" class="node">
<title>Node24</title>
<polygon fill="none" stroke="#bfbfbf" points="1086.5,-73 1086.5,-92 1145.5,-92 1145.5,-73 1086.5,-73"/>
<text text-anchor="middle" x="1116" y="-80" font-family="Helvetica,sans-Serif" font-size="10.00" fill="#000000">exception</text>
</g>
<!-- Node21&#45;&gt;Node24 -->
<g id="edge31" class="edge">
<title>Node21&#45;&gt;Node24</title>
<path fill="none" stroke="#191970" d="M982.7691,-135.7058C1008.4018,-125.4694 1052.3141,-107.933 1082.6814,-95.8058"/>
<polygon fill="#191970" stroke="#191970" points="1084.0359,-99.0337 1092.0247,-92.0746 1081.4398,-92.5329 1084.0359,-99.0337"/>
</g>
<!-- Node25 -->
<g id="node26" class="node">
<title>Node25</title>
<polygon fill="none" stroke="#bfbfbf" points="899.5,-73 899.5,-92 958.5,-92 958.5,-73 899.5,-73"/>
<text text-anchor="middle" x="929" y="-80" font-family="Helvetica,sans-Serif" font-size="10.00" fill="#000000">functional</text>
</g>
<!-- Node21&#45;&gt;Node25 -->
<g id="edge32" class="edge">
<title>Node21&#45;&gt;Node25</title>
<path fill="none" stroke="#191970" d="M956.8438,-134.3906C952.0768,-125.5068 944.8615,-112.0601 938.9703,-101.0811"/>
<polygon fill="#191970" stroke="#191970" points="942.0412,-99.4016 934.2289,-92.2449 935.8731,-102.7114 942.0412,-99.4016"/>
</g>
<!-- Node26 -->
<g id="node27" class="node">
<title>Node26</title>
<polygon fill="none" stroke="#bfbfbf" points="976.5,-73 976.5,-92 1011.5,-92 1011.5,-73 976.5,-73"/>
<text text-anchor="middle" x="994" y="-80" font-family="Helvetica,sans-Serif" font-size="10.00" fill="#000000">new</text>
</g>
<!-- Node21&#45;&gt;Node26 -->
<g id="edge34" class="edge">
<title>Node21&#45;&gt;Node26</title>
<path fill="none" stroke="#191970" d="M967,-134.3906C971.5758,-125.5965 978.4781,-112.3312 984.1583,-101.4145"/>
<polygon fill="#191970" stroke="#191970" points="987.4185,-102.7314 988.9295,-92.2449 981.2088,-99.5003 987.4185,-102.7314"/>
</g>
<!-- Node27&#45;&gt;Node9 -->
<g id="edge44" class="edge">
<title>Node27&#45;&gt;Node9</title>
<path fill="none" stroke="#191970" d="M1383.2728,-198.149C1331.8817,-189.3842 1254.4581,-173.4493 1232,-154 1196.0045,-122.8269 1181.8475,-65.6257 1176.6903,-35.4112"/>
<polygon fill="#191970" stroke="#191970" points="1180.1089,-34.6138 1175.1277,-25.263 1173.1904,-35.6792 1180.1089,-34.6138"/>
</g>
<!-- Node27&#45;&gt;Node20 -->
<g id="edge43" class="edge">
<title>Node27&#45;&gt;Node20</title>
<path fill="none" stroke="#191970" d="M1383.3927,-205.0352C1259.0344,-203.2598 914.4426,-194.7393 631,-154 518.7229,-137.8624 488.5906,-136.7945 382,-98 380.7605,-97.5489 379.5071,-97.0573 378.2519,-96.5359"/>
<polygon fill="#191970" stroke="#191970" points="379.3356,-93.1797 368.7928,-92.1306 376.3803,-99.5253 379.3356,-93.1797"/>
</g>
<!-- Node28 -->
<g id="node29" class="node">
<title>Node28</title>
<polygon fill="none" stroke="#bfbfbf" points="1368,-134.5 1368,-153.5 1408,-153.5 1408,-134.5 1368,-134.5"/>
<text text-anchor="middle" x="1388" y="-141.5" font-family="Helvetica,sans-Serif" font-size="10.00" fill="#000000">limits</text>
</g>
<!-- Node27&#45;&gt;Node28 -->
<g id="edge39" class="edge">
<title>Node27&#45;&gt;Node28</title>
<path fill="none" stroke="#191970" d="M1420.3708,-190.2977C1414.4019,-181.7609 1406.9162,-171.0545 1400.6471,-162.0883"/>
<polygon fill="#191970" stroke="#191970" points="1403.4835,-160.0368 1394.8848,-153.8469 1397.7466,-164.048 1403.4835,-160.0368"/>
</g>
<!-- Node29 -->
<g id="node30" class="node">
<title>Node29</title>
<polygon fill="none" stroke="#bfbfbf" points="1546.5,-73 1546.5,-92 1581.5,-92 1581.5,-73 1546.5,-73"/>
<text text-anchor="middle" x="1564" y="-80" font-family="Helvetica,sans-Serif" font-size="10.00" fill="#000000">map</text>
</g>
<!-- Node27&#45;&gt;Node29 -->
<g id="edge40" class="edge">
<title>Node27&#45;&gt;Node29</title>
<path fill="none" stroke="#191970" d="M1476.784,-190.3994C1496.1349,-182.1467 1517.6873,-170.2351 1533,-154 1546.8031,-139.3655 1555.0298,-117.6109 1559.5014,-101.9438"/>
<polygon fill="#191970" stroke="#191970" points="1562.8975,-102.7907 1562.0196,-92.2323 1556.1216,-101.0336 1562.8975,-102.7907"/>
</g>
<!-- Node30 -->
<g id="node31" class="node">
<title>Node30</title>
<polygon fill="none" stroke="#bfbfbf" points="1580.5,-134.5 1580.5,-153.5 1621.5,-153.5 1621.5,-134.5 1580.5,-134.5"/>
<text text-anchor="middle" x="1601" y="-141.5" font-family="Helvetica,sans-Serif" font-size="10.00" fill="#000000">regex</text>
</g>
<!-- Node27&#45;&gt;Node30 -->
<g id="edge41" class="edge">
<title>Node27&#45;&gt;Node30</title>
<path fill="none" stroke="#191970" d="M1472.5867,-190.4554C1503.0527,-179.4339 1543.6901,-164.7327 1571.0203,-154.8456"/>
<polygon fill="#191970" stroke="#191970" points="1572.2309,-158.1297 1580.4438,-151.4365 1569.8495,-151.5472 1572.2309,-158.1297"/>
</g>
<!-- Node31 -->
<g id="node32" class="node">
<title>Node31</title>
<polygon fill="none" stroke="#bfbfbf" points="1640,-134.5 1640,-153.5 1692,-153.5 1692,-134.5 1640,-134.5"/>
<text text-anchor="middle" x="1666" y="-141.5" font-family="Helvetica,sans-Serif" font-size="10.00" fill="#000000">sstream</text>
</g>
<!-- Node27&#45;&gt;Node31 -->
<g id="edge42" class="edge">
<title>Node27&#45;&gt;Node31</title>
<path fill="none" stroke="#191970" d="M1478.7768,-193.5727C1517.1345,-183.912 1572.6202,-169.7484 1629.7237,-154.3024"/>
<polygon fill="#191970" stroke="#191970" points="1630.9131,-157.6063 1639.6474,-151.6095 1629.0798,-150.8506 1630.9131,-157.6063"/>
</g>
<!-- Node32 -->
<g id="node33" class="node">
<title>Node32</title>
<g id="a_node33"><a xlink:href="general__exceptions_8h.html" target="_top" xlink:title="Definition of self&#45;defined general exceptions. ">
<polygon fill="none" stroke="#000000" points="1240.5,-134.5 1240.5,-153.5 1349.5,-153.5 1349.5,-134.5 1240.5,-134.5"/>
<text text-anchor="middle" x="1295" y="-141.5" font-family="Helvetica,sans-Serif" font-size="10.00" fill="#000000">general_exceptions.h</text>
</a>
</g>
</g>
<!-- Node27&#45;&gt;Node32 -->
<g id="edge45" class="edge">
<title>Node27&#45;&gt;Node32</title>
<path fill="none" stroke="#191970" d="M1397.7307,-190.4554C1375.6359,-180.464 1346.854,-167.4487 1325.3781,-157.7372"/>
<polygon fill="#191970" stroke="#191970" points="1326.629,-154.4616 1316.0752,-153.5303 1323.7447,-160.8398 1326.629,-154.4616"/>
</g>
<!-- Node33 -->
<g id="node34" class="node">
<title>Node33</title>
<g id="a_node34"><a xlink:href="generic__functors_8h.html" target="_top" xlink:title="This header file contains a set of self&#45;defined generic functors. ">
<polygon fill="none" stroke="#000000" points="1426.5,-134.5 1426.5,-153.5 1523.5,-153.5 1523.5,-134.5 1426.5,-134.5"/>
<text text-anchor="middle" x="1475" y="-141.5" font-family="Helvetica,sans-Serif" font-size="10.00" fill="#000000">generic_functors.h</text>
</a>
</g>
</g>
<!-- Node27&#45;&gt;Node33 -->
<g id="edge47" class="edge">
<title>Node27&#45;&gt;Node33</title>
<path fill="none" stroke="#191970" d="M1441.8764,-190.2977C1447.9841,-181.7609 1455.6439,-171.0545 1462.0588,-162.0883"/>
<polygon fill="#191970" stroke="#191970" points="1464.9829,-164.0163 1467.955,-153.8469 1459.2899,-159.9433 1464.9829,-164.0163"/>
</g>
<!-- Node36 -->
<g id="node37" class="node">
<title>Node36</title>
<g id="a_node37"><a xlink:href="lapack__helpers_8h.html" target="_top" xlink:title="Exposes LAPACK helper functions defined in lapack_full_matrix.cc and define new ones by following the...">
<polygon fill="none" stroke="#000000" points="2155,-134.5 2155,-153.5 2245,-153.5 2245,-134.5 2155,-134.5"/>
<text text-anchor="middle" x="2200" y="-141.5" font-family="Helvetica,sans-Serif" font-size="10.00" fill="#000000">lapack_helpers.h</text>
</a>
</g>
</g>
<!-- Node27&#45;&gt;Node36 -->
<g id="edge55" class="edge">
<title>Node27&#45;&gt;Node36</title>
<path fill="none" stroke="#191970" d="M1478.5241,-201.6993C1613.6578,-190.8921 1999.6542,-160.0225 2144.3337,-148.4519"/>
<polygon fill="#191970" stroke="#191970" points="2145.0453,-151.9062 2154.7344,-147.6201 2144.4872,-144.9285 2145.0453,-151.9062"/>
</g>
<!-- Node32&#45;&gt;Node22 -->
<g id="edge46" class="edge">
<title>Node32&#45;&gt;Node22</title>
<path fill="none" stroke="#191970" d="M1296.25,-134.3906C1297.3589,-125.8657 1299.0144,-113.1392 1300.4083,-102.4235"/>
<polygon fill="#191970" stroke="#191970" points="1303.9131,-102.6128 1301.7324,-92.2449 1296.9716,-101.7098 1303.9131,-102.6128"/>
</g>
<!-- Node33&#45;&gt;Node6 -->
<g id="edge49" class="edge">
<title>Node33&#45;&gt;Node6</title>
<path fill="none" stroke="#191970" d="M1426.322,-135.2078C1423.1726,-134.7626 1420.0449,-134.3541 1417,-134 1155.6085,-103.5983 1086.0054,-138.5829 826,-98 820.052,-97.0716 813.8389,-95.8249 807.7503,-94.44"/>
<polygon fill="#191970" stroke="#191970" points="808.2322,-90.9558 797.69,-92.0104 806.5889,-97.7602 808.2322,-90.9558"/>
</g>
<!-- Node33&#45;&gt;Node8 -->
<g id="edge52" class="edge">
<title>Node33&#45;&gt;Node8</title>
<path fill="none" stroke="#191970" d="M1426.3188,-135.2345C1423.1702,-134.7828 1420.0435,-134.3656 1417,-134 1184.3474,-106.0567 1117.8226,-156.8178 891,-98 889.024,-97.4876 887.0222,-96.8583 885.0324,-96.1497"/>
<polygon fill="#191970" stroke="#191970" points="885.9358,-92.7346 875.3588,-92.1199 883.2439,-99.1963 885.9358,-92.7346"/>
</g>
<!-- Node33&#45;&gt;Node9 -->
<g id="edge54" class="edge">
<title>Node33&#45;&gt;Node9</title>
<path fill="none" stroke="#191970" d="M1476.389,-134.4065C1478.1569,-118.1112 1479.0831,-85.0415 1461,-67 1425.5376,-31.6191 1273.3742,-20.1635 1206.1464,-16.7864"/>
<polygon fill="#191970" stroke="#191970" points="1206.2714,-13.2885 1196.1169,-16.3114 1205.9401,-20.2807 1206.2714,-13.2885"/>
</g>
<!-- Node33&#45;&gt;Node22 -->
<g id="edge48" class="edge">
<title>Node33&#45;&gt;Node22</title>
<path fill="none" stroke="#191970" d="M1448.125,-134.3906C1418.8414,-123.92 1371.831,-107.1111 1339.2863,-95.4745"/>
<polygon fill="#191970" stroke="#191970" points="1340.2809,-92.1131 1329.6863,-92.0419 1337.9241,-98.7045 1340.2809,-92.1131"/>
</g>
<!-- Node33&#45;&gt;Node29 -->
<g id="edge53" class="edge">
<title>Node33&#45;&gt;Node29</title>
<path fill="none" stroke="#191970" d="M1488.9063,-134.3906C1503.0138,-124.6421 1525.0724,-109.3994 1541.6385,-97.9521"/>
<polygon fill="#191970" stroke="#191970" points="1543.9542,-100.6063 1550.1914,-92.0419 1539.9747,-94.8474 1543.9542,-100.6063"/>
</g>
<!-- Node34 -->
<g id="node35" class="node">
<title>Node34</title>
<polygon fill="none" stroke="#bfbfbf" points="2737.5,-.5 2737.5,-30.5 2828.5,-30.5 2828.5,-.5 2737.5,-.5"/>
<text text-anchor="start" x="2745.5" y="-18.5" font-family="Helvetica,sans-Serif" font-size="10.00" fill="#000000">deal.II/lac/lapack</text>
<text text-anchor="middle" x="2783" y="-7.5" font-family="Helvetica,sans-Serif" font-size="10.00" fill="#000000">_support.h</text>
</g>
<!-- Node33&#45;&gt;Node34 -->
<g id="edge50" class="edge">
<title>Node33&#45;&gt;Node34</title>
<path fill="none" stroke="#191970" d="M1479.4139,-134.4795C1487.9432,-117.348 1508.4862,-81.7406 1538,-67 1591.8131,-40.1232 2492.1067,-21.0704 2727.2059,-16.5373"/>
<polygon fill="#191970" stroke="#191970" points="2727.314,-20.0359 2737.245,-16.3447 2727.1797,-13.0372 2727.314,-20.0359"/>
</g>
<!-- Node35 -->
<g id="node36" class="node">
<title>Node35</title>
<polygon fill="none" stroke="#bfbfbf" points="1384.5,-73 1384.5,-92 1451.5,-92 1451.5,-73 1384.5,-73"/>
<text text-anchor="middle" x="1418" y="-80" font-family="Helvetica,sans-Serif" font-size="10.00" fill="#000000">forward_list</text>
</g>
<!-- Node33&#45;&gt;Node35 -->
<g id="edge51" class="edge">
<title>Node33&#45;&gt;Node35</title>
<path fill="none" stroke="#191970" d="M1466.0938,-134.3906C1457.5272,-125.1478 1444.3831,-110.966 1433.9997,-99.7628"/>
<polygon fill="#191970" stroke="#191970" points="1436.3965,-97.2 1427.0318,-92.2449 1431.2625,-101.9584 1436.3965,-97.2"/>
</g>
<!-- Node36&#45;&gt;Node34 -->
<g id="edge61" class="edge">
<title>Node36&#45;&gt;Node34</title>
<path fill="none" stroke="#191970" d="M2245.2191,-142.485C2389.5974,-137.4309 2831.305,-120.2065 2852,-98 2870.9857,-77.6276 2844.4314,-52.9918 2818.9548,-35.9746"/>
<polygon fill="#191970" stroke="#191970" points="2820.7326,-32.957 2810.4235,-30.5128 2816.9583,-38.8523 2820.7326,-32.957"/>
</g>
<!-- Node37 -->
<g id="node38" class="node">
<title>Node37</title>
<polygon fill="none" stroke="#bfbfbf" points="2443,-73 2443,-92 2559,-92 2559,-73 2443,-73"/>
<text text-anchor="middle" x="2501" y="-80" font-family="Helvetica,sans-Serif" font-size="10.00" fill="#000000">deal.II/base/numbers.h</text>
</g>
<!-- Node36&#45;&gt;Node37 -->
<g id="edge56" class="edge">
<title>Node36&#45;&gt;Node37</title>
<path fill="none" stroke="#191970" d="M2245.3877,-135.5406C2292.5986,-126.6329 2368.614,-111.9861 2434,-98 2439.3997,-96.845 2445.0352,-95.6014 2450.645,-94.339"/>
<polygon fill="#191970" stroke="#191970" points="2451.684,-97.6921 2460.6586,-92.0612 2450.1313,-90.8665 2451.684,-97.6921"/>
</g>
<!-- Node38 -->
<g id="node39" class="node">
<title>Node38</title>
<polygon fill="none" stroke="#bfbfbf" points="2577,-67.5 2577,-97.5 2705,-97.5 2705,-67.5 2577,-67.5"/>
<text text-anchor="start" x="2585" y="-85.5" font-family="Helvetica,sans-Serif" font-size="10.00" fill="#000000">deal.II/lac/blas_extension</text>
<text text-anchor="middle" x="2641" y="-74.5" font-family="Helvetica,sans-Serif" font-size="10.00" fill="#000000">_templates.h</text>
</g>
<!-- Node36&#45;&gt;Node38 -->
<g id="edge57" class="edge">
<title>Node36&#45;&gt;Node38</title>
<path fill="none" stroke="#191970" d="M2245.2168,-139.5969C2312.9826,-132.7243 2445.0827,-118.2694 2567.0771,-98.0713"/>
<polygon fill="#191970" stroke="#191970" points="2567.679,-101.5193 2576.9646,-96.4177 2566.5243,-94.6152 2567.679,-101.5193"/>
</g>
<!-- Node39 -->
<g id="node40" class="node">
<title>Node39</title>
<polygon fill="none" stroke="#bfbfbf" points="1600,-73 1600,-92 1726,-92 1726,-73 1600,-73"/>
<text text-anchor="middle" x="1663" y="-80" font-family="Helvetica,sans-Serif" font-size="10.00" fill="#000000">deal.II/lac/block_vector.h</text>
</g>
<!-- Node36&#45;&gt;Node39 -->
<g id="edge58" class="edge">
<title>Node36&#45;&gt;Node39</title>
<path fill="none" stroke="#191970" d="M2154.8962,-141.2452C2071.581,-135.7784 1888.0801,-121.9699 1735,-98 1728.1252,-96.9235 1720.9195,-95.6042 1713.8343,-94.194"/>
<polygon fill="#191970" stroke="#191970" points="1714.0934,-90.6738 1703.5924,-92.0806 1712.6786,-97.5294 1714.0934,-90.6738"/>
</g>
<!-- Node40 -->
<g id="node41" class="node">
<title>Node40</title>
<polygon fill="none" stroke="#bfbfbf" points="1744,-73 1744,-92 1860,-92 1860,-73 1744,-73"/>
<text text-anchor="middle" x="1802" y="-80" font-family="Helvetica,sans-Serif" font-size="10.00" fill="#000000">deal.II/lac/full_matrix.h</text>
</g>
<!-- Node36&#45;&gt;Node40 -->
<g id="edge59" class="edge">
<title>Node36&#45;&gt;Node40</title>
<path fill="none" stroke="#191970" d="M2154.9684,-138.9619C2091.2576,-131.5529 1971.2774,-116.5662 1870,-98 1863.8255,-96.8681 1857.363,-95.5589 1850.9824,-94.1908"/>
<polygon fill="#191970" stroke="#191970" points="1851.5951,-90.7419 1841.0763,-92.0092 1850.0895,-97.5781 1851.5951,-90.7419"/>
</g>
<!-- Node41 -->
<g id="node42" class="node">
<title>Node41</title>
<polygon fill="none" stroke="#bfbfbf" points="1878.5,-67.5 1878.5,-97.5 1969.5,-97.5 1969.5,-67.5 1878.5,-67.5"/>
<text text-anchor="start" x="1886.5" y="-85.5" font-family="Helvetica,sans-Serif" font-size="10.00" fill="#000000">deal.II/lac/lapack</text>
<text text-anchor="middle" x="1924" y="-74.5" font-family="Helvetica,sans-Serif" font-size="10.00" fill="#000000">_full_matrix.h</text>
</g>
<!-- Node36&#45;&gt;Node41 -->
<g id="edge60" class="edge">
<title>Node36&#45;&gt;Node41</title>
<path fill="none" stroke="#191970" d="M2154.9275,-135.5705C2112.2211,-127.3707 2046.0888,-114.1243 1979.3954,-98.0006"/>
<polygon fill="#191970" stroke="#191970" points="1980.0985,-94.5696 1969.554,-95.6011 1978.4403,-101.3703 1980.0985,-94.5696"/>
</g>
<!-- Node42 -->
<g id="node43" class="node">
<title>Node42</title>
<polygon fill="none" stroke="#bfbfbf" points="1987.5,-67.5 1987.5,-97.5 2078.5,-97.5 2078.5,-67.5 1987.5,-67.5"/>
<text text-anchor="start" x="1995.5" y="-85.5" font-family="Helvetica,sans-Serif" font-size="10.00" fill="#000000">deal.II/lac/lapack</text>
<text text-anchor="middle" x="2033" y="-74.5" font-family="Helvetica,sans-Serif" font-size="10.00" fill="#000000">_templates.h</text>
</g>
<!-- Node36&#45;&gt;Node42 -->
<g id="edge62" class="edge">
<title>Node36&#45;&gt;Node42</title>
<path fill="none" stroke="#191970" d="M2173.9063,-134.3906C2149.7353,-125.4893 2113.1255,-112.0073 2083.2806,-101.0165"/>
<polygon fill="#191970" stroke="#191970" points="2084.4462,-97.716 2073.8528,-97.5446 2082.0272,-104.2848 2084.4462,-97.716"/>
</g>
<!-- Node43 -->
<g id="node44" class="node">
<title>Node43</title>
<polygon fill="none" stroke="#bfbfbf" points="2097,-67.5 2097,-97.5 2189,-97.5 2189,-67.5 2097,-67.5"/>
<text text-anchor="start" x="2105" y="-85.5" font-family="Helvetica,sans-Serif" font-size="10.00" fill="#000000">deal.II/lac/sparse</text>
<text text-anchor="middle" x="2143" y="-74.5" font-family="Helvetica,sans-Serif" font-size="10.00" fill="#000000">_matrix.h</text>
</g>
<!-- Node36&#45;&gt;Node43 -->
<g id="edge63" class="edge">
<title>Node36&#45;&gt;Node43</title>
<path fill="none" stroke="#191970" d="M2191.0938,-134.3906C2183.8081,-126.5298 2173.2113,-115.0964 2163.8177,-104.9612"/>
<polygon fill="#191970" stroke="#191970" points="2166.3085,-102.4997 2156.9438,-97.5446 2161.1744,-107.2581 2166.3085,-102.4997"/>
</g>
<!-- Node44 -->
<g id="node45" class="node">
<title>Node44</title>
<polygon fill="none" stroke="#bfbfbf" points="2207.5,-73 2207.5,-92 2308.5,-92 2308.5,-73 2207.5,-73"/>
<text text-anchor="middle" x="2258" y="-80" font-family="Helvetica,sans-Serif" font-size="10.00" fill="#000000">deal.II/lac/utilities.h</text>
</g>
<!-- Node36&#45;&gt;Node44 -->
<g id="edge64" class="edge">
<title>Node36&#45;&gt;Node44</title>
<path fill="none" stroke="#191970" d="M2209.0625,-134.3906C2217.7793,-125.1478 2231.154,-110.966 2241.7196,-99.7628"/>
<polygon fill="#191970" stroke="#191970" points="2244.495,-101.9213 2248.8097,-92.2449 2239.4024,-97.1186 2244.495,-101.9213"/>
</g>
<!-- Node45 -->
<g id="node46" class="node">
<title>Node45</title>
<polygon fill="none" stroke="#bfbfbf" points="2327,-73 2327,-92 2425,-92 2425,-73 2327,-73"/>
<text text-anchor="middle" x="2376" y="-80" font-family="Helvetica,sans-Serif" font-size="10.00" fill="#000000">deal.II/lac/vector.h</text>
</g>
<!-- Node36&#45;&gt;Node45 -->
<g id="edge65" class="edge">
<title>Node36&#45;&gt;Node45</title>
<path fill="none" stroke="#191970" d="M2227.5,-134.3906C2257.4647,-123.92 2305.5683,-107.1111 2338.8698,-95.4745"/>
<polygon fill="#191970" stroke="#191970" points="2340.4074,-98.6448 2348.6931,-92.0419 2338.0983,-92.0366 2340.4074,-98.6448"/>
</g>
<!-- Node46 -->
<g id="node47" class="node">
<title>Node46</title>
<g id="a_node47"><a xlink:href="lapack__templates__ext_8h.html" target="_top" xlink:title="Append more template based LAPACK functions to those existing in deal.ii. ">
<polygon fill="none" stroke="#000000" points="2723,-73 2723,-92 2843,-92 2843,-73 2723,-73"/>
<text text-anchor="middle" x="2783" y="-80" font-family="Helvetica,sans-Serif" font-size="10.00" fill="#000000">lapack_templates_ext.h</text>
</a>
</g>
</g>
<!-- Node36&#45;&gt;Node46 -->
<g id="edge66" class="edge">
<title>Node36&#45;&gt;Node46</title>
<path fill="none" stroke="#191970" d="M2245.2779,-141.955C2335.1091,-137.4558 2542.0555,-124.8868 2714,-98 2720.7645,-96.9422 2727.8561,-95.6098 2734.8114,-94.1726"/>
<polygon fill="#191970" stroke="#191970" points="2735.8105,-97.5377 2744.8499,-92.0116 2734.3373,-90.6945 2735.8105,-97.5377"/>
</g>
<!-- Node46&#45;&gt;Node34 -->
<g id="edge67" class="edge">
<title>Node46&#45;&gt;Node34</title>
<path fill="none" stroke="#191970" d="M2783,-72.9005C2783,-64.5099 2783,-51.9451 2783,-40.7085"/>
<polygon fill="#191970" stroke="#191970" points="2786.5001,-40.5217 2783,-30.5218 2779.5001,-40.5218 2786.5001,-40.5217"/>
</g>
</g>
</svg>
