<?xml version="1.0" encoding="UTF-8" standalone="no"?>
<!DOCTYPE svg PUBLIC "-//W3C//DTD SVG 1.1//EN"
 "http://www.w3.org/Graphics/SVG/1.1/DTD/svg11.dtd">
<!-- Generated by graphviz version 2.40.1 (20161225.0304)
 -->
<!-- Title: /home/jihuan/Projects/deal.ii/program/dealii&#45;9.1.1/examples/laplace&#45;bem/tests/block&#45;cluster&#45;tree&#45;overloaded&#45;assignment/bct&#45;overloaded&#45;assignment.cc Pages: 1 -->
<!--zoomable 452 -->
<svg id="main" version="1.1" xmlns="http://www.w3.org/2000/svg" xmlns:xlink="http://www.w3.org/1999/xlink" xml:space="preserve" onload="init(evt)">
<style type="text/css"><![CDATA[
.edge:hover path { stroke: red; }
.edge:hover polygon { stroke: red; fill: red; }
]]></style>
<script type="text/javascript"><![CDATA[
var edges = document.getElementsByTagName('g');
if (edges && edges.length) {
  for (var i=0;i<edges.length;i++) {
    if (edges[i].id.substr(0,4)=='edge') {
      edges[i].setAttribute('class','edge');
    }
  }
}
]]></script>
        <defs>
                <circle id="rim" cx="0" cy="0" r="7"/>
                <circle id="rim2" cx="0" cy="0" r="3.5"/>
                <g id="zoomPlus">
                        <use xlink:href="#rim" fill="#404040">
                                <set attributeName="fill" to="#808080" begin="zoomplus.mouseover" end="zoomplus.mouseout"/>
                        </use>
                        <path d="M-4,0h8M0,-4v8" fill="none" stroke="white" stroke-width="1.5" pointer-events="none"/>
                </g>
                <g id="zoomMin">
                        <use xlink:href="#rim" fill="#404040">
                                <set attributeName="fill" to="#808080" begin="zoomminus.mouseover" end="zoomminus.mouseout"/>
                        </use>
                        <path d="M-4,0h8" fill="none" stroke="white" stroke-width="1.5" pointer-events="none"/>
                </g>
                <g id="dirArrow">
                        <path fill="none" stroke="white" stroke-width="1.5" d="M0,-3.0v7 M-2.5,-0.5L0,-3.0L2.5,-0.5"/>
                </g>
               <g id="resetDef">
                       <use xlink:href="#rim2" fill="#404040">
                               <set attributeName="fill" to="#808080" begin="reset.mouseover" end="reset.mouseout"/>
                       </use>
               </g>
        </defs>

<script type="text/javascript">
var viewWidth = 2894;
var viewHeight = 452;
var sectionId = 'dynsection-0';
</script>
<script xlink:href="svgpan.js"/>
<svg id="graph" class="graph">
<g id="viewport">
<title>/home/jihuan/Projects/deal.ii/program/dealii&#45;9.1.1/examples/laplace&#45;bem/tests/block&#45;cluster&#45;tree&#45;overloaded&#45;assignment/bct&#45;overloaded&#45;assignment.cc</title>
<!-- Node0 -->
<g id="node1" class="node">
<title>Node0</title>
<polygon fill="#bfbfbf" stroke="#000000" points="329,-369.5 329,-443.5 479,-443.5 479,-369.5 329,-369.5"/>
<text text-anchor="start" x="337" y="-431.5" font-family="Helvetica,sans-Serif" font-size="10.00" fill="#000000">/home/jihuan/Projects</text>
<text text-anchor="start" x="337" y="-420.5" font-family="Helvetica,sans-Serif" font-size="10.00" fill="#000000">/deal.ii/program/dealii</text>
<text text-anchor="start" x="337" y="-409.5" font-family="Helvetica,sans-Serif" font-size="10.00" fill="#000000">&#45;9.1.1/examples/laplace</text>
<text text-anchor="start" x="337" y="-398.5" font-family="Helvetica,sans-Serif" font-size="10.00" fill="#000000">&#45;bem/tests/block&#45;cluster</text>
<text text-anchor="start" x="337" y="-387.5" font-family="Helvetica,sans-Serif" font-size="10.00" fill="#000000">&#45;tree&#45;overloaded&#45;assignment</text>
<text text-anchor="middle" x="404" y="-376.5" font-family="Helvetica,sans-Serif" font-size="10.00" fill="#000000">/bct&#45;overloaded&#45;assignment.cc</text>
</g>
<!-- Node1 -->
<g id="node2" class="node">
<title>Node1</title>
<polygon fill="none" stroke="#bfbfbf" points="307,-313.5 307,-332.5 357,-332.5 357,-313.5 307,-313.5"/>
<text text-anchor="middle" x="332" y="-320.5" font-family="Helvetica,sans-Serif" font-size="10.00" fill="#000000">fstream</text>
</g>
<!-- Node0&#45;&gt;Node1 -->
<g id="edge1" class="edge">
<title>Node0&#45;&gt;Node1</title>
<path fill="none" stroke="#191970" d="M371.7906,-369.1461C363.1415,-359.1155 354.1972,-348.7426 346.9847,-340.3781"/>
<polygon fill="#191970" stroke="#191970" points="349.6055,-338.0579 340.4245,-332.7701 344.3042,-342.6291 349.6055,-338.0579"/>
</g>
<!-- Node2 -->
<g id="node3" class="node">
<title>Node2</title>
<polygon fill="none" stroke="#bfbfbf" points="396,-73 396,-92 450,-92 450,-73 396,-73"/>
<text text-anchor="middle" x="423" y="-80" font-family="Helvetica,sans-Serif" font-size="10.00" fill="#000000">iostream</text>
</g>
<!-- Node0&#45;&gt;Node2 -->
<g id="edge2" class="edge">
<title>Node0&#45;&gt;Node2</title>
<path fill="none" stroke="#191970" d="M411.8377,-369.385C417.0715,-341.3843 423,-301.9526 423,-267 423,-267 423,-267 423,-205.5 423,-168.9994 423,-126.406 423,-102.1285"/>
<polygon fill="#191970" stroke="#191970" points="426.5001,-102.0691 423,-92.0691 419.5001,-102.0692 426.5001,-102.0691"/>
</g>
<!-- Node3 -->
<g id="node4" class="node">
<title>Node3</title>
<g id="a_node4"><a xlink:href="block__cluster__tree_8h.html" target="_top" xlink:title="Implementation of the class BlockClusterTree. ">
<polygon fill="none" stroke="#000000" points="601,-313.5 601,-332.5 705,-332.5 705,-313.5 601,-313.5"/>
<text text-anchor="middle" x="653" y="-320.5" font-family="Helvetica,sans-Serif" font-size="10.00" fill="#000000">block_cluster_tree.h</text>
</a>
</g>
</g>
<!-- Node0&#45;&gt;Node3 -->
<g id="edge3" class="edge">
<title>Node0&#45;&gt;Node3</title>
<path fill="none" stroke="#191970" d="M479.0459,-381.334C523.8102,-366.3227 578.7598,-347.8958 614.7694,-335.8203"/>
<polygon fill="#191970" stroke="#191970" points="616.0312,-339.0888 624.3995,-332.5909 613.8056,-332.452 616.0312,-339.0888"/>
</g>
<!-- Node17 -->
<g id="node18" class="node">
<title>Node17</title>
<g id="a_node18"><a xlink:href="debug__tools_8h.html" target="_top" xlink:title="This file includes a bunch of helper functions for printing out and visualizing information about gri...">
<polygon fill="none" stroke="#000000" points="254.5,-134.5 254.5,-153.5 331.5,-153.5 331.5,-134.5 254.5,-134.5"/>
<text text-anchor="middle" x="293" y="-141.5" font-family="Helvetica,sans-Serif" font-size="10.00" fill="#000000">debug_tools.h</text>
</a>
</g>
</g>
<!-- Node0&#45;&gt;Node17 -->
<g id="edge69" class="edge">
<title>Node0&#45;&gt;Node17</title>
<path fill="none" stroke="#191970" d="M389.0223,-369.1152C382.1014,-351.9788 373.7213,-331.4224 366,-313 343.135,-258.4461 315.1759,-194.4411 301.4393,-163.1645"/>
<polygon fill="#191970" stroke="#191970" points="304.583,-161.6186 297.3539,-153.8733 298.1751,-164.4362 304.583,-161.6186"/>
</g>
<!-- Node4 -->
<g id="node5" class="node">
<title>Node4</title>
<g id="a_node5"><a xlink:href="block__cluster_8h.html" target="_top" xlink:title="Implementation of the class BlockCluster. ">
<polygon fill="none" stroke="#000000" points="700.5,-257.5 700.5,-276.5 783.5,-276.5 783.5,-257.5 700.5,-257.5"/>
<text text-anchor="middle" x="742" y="-264.5" font-family="Helvetica,sans-Serif" font-size="10.00" fill="#000000">block_cluster.h</text>
</a>
</g>
</g>
<!-- Node3&#45;&gt;Node4 -->
<g id="edge4" class="edge">
<title>Node3&#45;&gt;Node4</title>
<path fill="none" stroke="#191970" d="M668.5026,-313.2455C682.158,-304.6534 702.2657,-292.0014 717.9989,-282.1018"/>
<polygon fill="#191970" stroke="#191970" points="720.0751,-284.9307 726.675,-276.6427 716.3471,-279.006 720.0751,-284.9307"/>
</g>
<!-- Node16 -->
<g id="node17" class="node">
<title>Node16</title>
<g id="a_node17"><a xlink:href="cluster__tree_8h_source.html" target="_top" xlink:title="cluster_tree.h">
<polygon fill="none" stroke="#000000" points="662,-196 662,-215 738,-215 738,-196 662,-196"/>
<text text-anchor="middle" x="700" y="-203" font-family="Helvetica,sans-Serif" font-size="10.00" fill="#000000">cluster_tree.h</text>
</a>
</g>
</g>
<!-- Node3&#45;&gt;Node16 -->
<g id="edge36" class="edge">
<title>Node3&#45;&gt;Node16</title>
<path fill="none" stroke="#191970" d="M656.8462,-313.3845C664.5923,-294.0192 682.1978,-250.0055 692.3664,-224.584"/>
<polygon fill="#191970" stroke="#191970" points="695.6363,-225.833 696.1006,-215.2484 689.137,-223.2333 695.6363,-225.833"/>
</g>
<!-- Node3&#45;&gt;Node17 -->
<g id="edge37" class="edge">
<title>Node3&#45;&gt;Node17</title>
<path fill="none" stroke="#191970" d="M635.67,-313.3644C594.8937,-290.8168 489.493,-233.2566 399,-190 374.7814,-178.4233 346.9208,-166.3812 325.842,-157.5231"/>
<polygon fill="#191970" stroke="#191970" points="326.9552,-154.195 316.3789,-153.5685 324.2561,-160.6537 326.9552,-154.195"/>
</g>
<!-- Node21 -->
<g id="node22" class="node">
<title>Node21</title>
<g id="a_node22"><a xlink:href="tree_8h.html" target="_top" xlink:title="Implementation of the classes for binary tree node, general tree node and functions for manipulating ...">
<polygon fill="none" stroke="#000000" points="646.5,-134.5 646.5,-153.5 687.5,-153.5 687.5,-134.5 646.5,-134.5"/>
<text text-anchor="middle" x="667" y="-141.5" font-family="Helvetica,sans-Serif" font-size="10.00" fill="#000000">tree.h</text>
</a>
</g>
</g>
<!-- Node3&#45;&gt;Node21 -->
<g id="edge68" class="edge">
<title>Node3&#45;&gt;Node21</title>
<path fill="none" stroke="#191970" d="M652.0243,-313.2488C650.0263,-291.1607 646.203,-235.6776 653,-190 654.3327,-181.0439 657.0494,-171.419 659.7381,-163.3"/>
<polygon fill="#191970" stroke="#191970" points="663.1067,-164.272 663.1376,-153.6772 656.5064,-161.9402 663.1067,-164.272"/>
</g>
<!-- Node27 -->
<g id="node28" class="node">
<title>Node27</title>
<g id="a_node28"><a xlink:href="lapack__full__matrix__ext_8h_source.html" target="_top" xlink:title="lapack_full_matrix\l_ext.h">
<polygon fill="none" stroke="#000000" points="1424.5,-190.5 1424.5,-220.5 1519.5,-220.5 1519.5,-190.5 1424.5,-190.5"/>
<text text-anchor="start" x="1432.5" y="-208.5" font-family="Helvetica,sans-Serif" font-size="10.00" fill="#000000">lapack_full_matrix</text>
<text text-anchor="middle" x="1472" y="-197.5" font-family="Helvetica,sans-Serif" font-size="10.00" fill="#000000">_ext.h</text>
</a>
</g>
</g>
<!-- Node3&#45;&gt;Node27 -->
<g id="edge38" class="edge">
<title>Node3&#45;&gt;Node27</title>
<path fill="none" stroke="#191970" d="M705.1653,-315.516C850.9436,-294.6015 1261.8707,-235.6468 1414.2218,-213.7893"/>
<polygon fill="#191970" stroke="#191970" points="1414.9061,-217.2271 1424.3076,-212.3423 1413.9119,-210.298 1414.9061,-217.2271"/>
</g>
<!-- Node5 -->
<g id="node6" class="node">
<title>Node5</title>
<g id="a_node6"><a xlink:href="cluster_8h.html" target="_top" xlink:title="Implementation of the class Cluster. ">
<polygon fill="none" stroke="#000000" points="839,-134.5 839,-153.5 893,-153.5 893,-134.5 839,-134.5"/>
<text text-anchor="middle" x="866" y="-141.5" font-family="Helvetica,sans-Serif" font-size="10.00" fill="#000000">cluster.h</text>
</a>
</g>
</g>
<!-- Node4&#45;&gt;Node5 -->
<g id="edge5" class="edge">
<title>Node4&#45;&gt;Node5</title>
<path fill="none" stroke="#191970" d="M751.7301,-257.3484C772.7369,-236.511 822.5635,-187.0862 848.94,-160.9224"/>
<polygon fill="#191970" stroke="#191970" points="851.6803,-163.1341 856.3151,-153.6068 846.7506,-158.1643 851.6803,-163.1341"/>
</g>
<!-- Node4&#45;&gt;Node16 -->
<g id="edge17" class="edge">
<title>Node4&#45;&gt;Node16</title>
<path fill="none" stroke="#191970" d="M735.4375,-257.3906C729.3092,-248.417 720.0015,-234.7879 712.4628,-223.7491"/>
<polygon fill="#191970" stroke="#191970" points="715.185,-221.529 706.655,-215.2449 709.4044,-225.4768 715.185,-221.529"/>
</g>
<!-- Node6 -->
<g id="node7" class="node">
<title>Node6</title>
<polygon fill="none" stroke="#bfbfbf" points="1267.5,-73 1267.5,-92 1370.5,-92 1370.5,-73 1267.5,-73"/>
<text text-anchor="middle" x="1319" y="-80" font-family="Helvetica,sans-Serif" font-size="10.00" fill="#000000">deal.II/base/types.h</text>
</g>
<!-- Node5&#45;&gt;Node6 -->
<g id="edge6" class="edge">
<title>Node5&#45;&gt;Node6</title>
<path fill="none" stroke="#191970" d="M893.3506,-142.0889C957.5856,-137.3205 1122.933,-123.416 1259,-98 1264.4201,-96.9876 1270.0747,-95.7593 1275.6527,-94.4422"/>
<polygon fill="#191970" stroke="#191970" points="1276.6723,-97.7957 1285.5432,-92.0029 1274.996,-90.9994 1276.6723,-97.7957"/>
</g>
<!-- Node7 -->
<g id="node8" class="node">
<title>Node7</title>
<polygon fill="none" stroke="#bfbfbf" points="732,-73 732,-92 788,-92 788,-73 732,-73"/>
<text text-anchor="middle" x="760" y="-80" font-family="Helvetica,sans-Serif" font-size="10.00" fill="#000000">algorithm</text>
</g>
<!-- Node5&#45;&gt;Node7 -->
<g id="edge7" class="edge">
<title>Node5&#45;&gt;Node7</title>
<path fill="none" stroke="#191970" d="M849.4375,-134.3906C832.2463,-124.4165 805.1418,-108.6908 785.2734,-97.1633"/>
<polygon fill="#191970" stroke="#191970" points="786.8523,-94.033 776.4462,-92.0419 783.3394,-100.0877 786.8523,-94.033"/>
</g>
<!-- Node8 -->
<g id="node9" class="node">
<title>Node8</title>
<polygon fill="none" stroke="#bfbfbf" points="1202.5,-73 1202.5,-92 1249.5,-92 1249.5,-73 1202.5,-73"/>
<text text-anchor="middle" x="1226" y="-80" font-family="Helvetica,sans-Serif" font-size="10.00" fill="#000000">iterator</text>
</g>
<!-- Node5&#45;&gt;Node8 -->
<g id="edge8" class="edge">
<title>Node5&#45;&gt;Node8</title>
<path fill="none" stroke="#191970" d="M893.2852,-142.9109C950.1515,-140.0479 1085.0327,-130.1523 1193,-98 1194.9109,-97.4309 1196.8512,-96.7672 1198.7847,-96.0408"/>
<polygon fill="#191970" stroke="#191970" points="1200.3899,-99.1618 1208.2282,-92.0336 1197.6555,-92.7179 1200.3899,-99.1618"/>
</g>
<!-- Node9 -->
<g id="node10" class="node">
<title>Node9</title>
<polygon fill="none" stroke="#bfbfbf" points="970,-6 970,-25 1014,-25 1014,-6 970,-6"/>
<text text-anchor="middle" x="992" y="-13" font-family="Helvetica,sans-Serif" font-size="10.00" fill="#000000">vector</text>
</g>
<!-- Node5&#45;&gt;Node9 -->
<g id="edge9" class="edge">
<title>Node5&#45;&gt;Node9</title>
<path fill="none" stroke="#191970" d="M893.2383,-138.4309C916.3101,-132.3304 948.6389,-120.2937 968,-98 983.3086,-80.3726 988.8693,-53.4614 990.8793,-35.2075"/>
<polygon fill="#191970" stroke="#191970" points="994.3771,-35.3791 991.7274,-25.121 987.4018,-34.7925 994.3771,-35.3791"/>
</g>
<!-- Node10 -->
<g id="node11" class="node">
<title>Node10</title>
<g id="a_node11"><a xlink:href="simple__bounding__box_8h_source.html" target="_top" xlink:title="simple_bounding_box.h">
<polygon fill="none" stroke="#000000" points="806.5,-73 806.5,-92 925.5,-92 925.5,-73 806.5,-73"/>
<text text-anchor="middle" x="866" y="-80" font-family="Helvetica,sans-Serif" font-size="10.00" fill="#000000">simple_bounding_box.h</text>
</a>
</g>
</g>
<!-- Node5&#45;&gt;Node10 -->
<g id="edge10" class="edge">
<title>Node5&#45;&gt;Node10</title>
<path fill="none" stroke="#191970" d="M866,-134.3906C866,-125.8657 866,-113.1392 866,-102.4235"/>
<polygon fill="#191970" stroke="#191970" points="869.5001,-102.2448 866,-92.2449 862.5001,-102.2449 869.5001,-102.2448"/>
</g>
<!-- Node10&#45;&gt;Node9 -->
<g id="edge16" class="edge">
<title>Node10&#45;&gt;Node9</title>
<path fill="none" stroke="#191970" d="M884.0527,-72.9005C905.1984,-61.6564 940.4404,-42.9166 964.8782,-29.9219"/>
<polygon fill="#191970" stroke="#191970" points="966.7947,-32.867 973.9808,-25.0817 963.5082,-26.6864 966.7947,-32.867"/>
</g>
<!-- Node11 -->
<g id="node12" class="node">
<title>Node11</title>
<polygon fill="none" stroke="#bfbfbf" points="761,-6 761,-25 861,-25 861,-6 761,-6"/>
<text text-anchor="middle" x="811" y="-13" font-family="Helvetica,sans-Serif" font-size="10.00" fill="#000000">deal.II/base/point.h</text>
</g>
<!-- Node10&#45;&gt;Node11 -->
<g id="edge11" class="edge">
<title>Node10&#45;&gt;Node11</title>
<path fill="none" stroke="#191970" d="M858.1198,-72.9005C849.6248,-62.552 835.9176,-45.8542 825.472,-33.1295"/>
<polygon fill="#191970" stroke="#191970" points="827.9158,-30.5902 818.8655,-25.0817 822.5053,-35.0317 827.9158,-30.5902"/>
</g>
<!-- Node12 -->
<g id="node13" class="node">
<title>Node12</title>
<polygon fill="none" stroke="#bfbfbf" points="141.5,-6 141.5,-25 268.5,-25 268.5,-6 141.5,-6"/>
<text text-anchor="middle" x="205" y="-13" font-family="Helvetica,sans-Serif" font-size="10.00" fill="#000000">deal.II/dofs/dof_handler.h</text>
</g>
<!-- Node10&#45;&gt;Node12 -->
<g id="edge12" class="edge">
<title>Node10&#45;&gt;Node12</title>
<path fill="none" stroke="#191970" d="M827.8526,-72.9713C817.8635,-70.7403 807.0701,-68.5619 797,-67 747.0345,-59.2504 426.4176,-33.1679 278.9815,-21.376"/>
<polygon fill="#191970" stroke="#191970" points="278.9186,-17.8598 268.6715,-20.5521 278.3609,-24.8376 278.9186,-17.8598"/>
</g>
<!-- Node13 -->
<g id="node14" class="node">
<title>Node13</title>
<polygon fill="none" stroke="#bfbfbf" points="412,-6 412,-25 528,-25 528,-6 412,-6"/>
<text text-anchor="middle" x="470" y="-13" font-family="Helvetica,sans-Serif" font-size="10.00" fill="#000000">deal.II/dofs/dof_tools.h</text>
</g>
<!-- Node10&#45;&gt;Node13 -->
<g id="edge13" class="edge">
<title>Node10&#45;&gt;Node13</title>
<path fill="none" stroke="#191970" d="M825.5922,-72.9628C816.2286,-70.8808 806.2862,-68.7723 797,-67 707.866,-49.9881 604.2886,-34.37 537.9921,-24.898"/>
<polygon fill="#191970" stroke="#191970" points="538.4772,-21.4318 528.0839,-23.4885 537.4913,-28.362 538.4772,-21.4318"/>
</g>
<!-- Node14 -->
<g id="node15" class="node">
<title>Node14</title>
<polygon fill="none" stroke="#bfbfbf" points="608.5,-6 608.5,-25 711.5,-25 711.5,-6 608.5,-6"/>
<text text-anchor="middle" x="660" y="-13" font-family="Helvetica,sans-Serif" font-size="10.00" fill="#000000">deal.II/fe/mapping.h</text>
</g>
<!-- Node10&#45;&gt;Node14 -->
<g id="edge14" class="edge">
<title>Node10&#45;&gt;Node14</title>
<path fill="none" stroke="#191970" d="M836.4852,-72.9005C800.3841,-61.1589 739.1518,-41.2436 699.1456,-28.2318"/>
<polygon fill="#191970" stroke="#191970" points="700.0522,-24.8463 689.46,-25.0817 697.8871,-31.5031 700.0522,-24.8463"/>
</g>
<!-- Node15 -->
<g id="node16" class="node">
<title>Node15</title>
<polygon fill="none" stroke="#bfbfbf" points="879,-6 879,-25 919,-25 919,-6 879,-6"/>
<text text-anchor="middle" x="899" y="-13" font-family="Helvetica,sans-Serif" font-size="10.00" fill="#000000">utility</text>
</g>
<!-- Node10&#45;&gt;Node15 -->
<g id="edge15" class="edge">
<title>Node10&#45;&gt;Node15</title>
<path fill="none" stroke="#191970" d="M870.7281,-72.9005C875.6781,-62.8505 883.5776,-46.8122 889.7697,-34.2403"/>
<polygon fill="#191970" stroke="#191970" points="893.0019,-35.5991 894.2807,-25.0817 886.7223,-32.5061 893.0019,-35.5991"/>
</g>
<!-- Node16&#45;&gt;Node5 -->
<g id="edge18" class="edge">
<title>Node16&#45;&gt;Node5</title>
<path fill="none" stroke="#191970" d="M725.9375,-195.8906C754.0778,-185.4652 799.1793,-168.7559 830.5726,-157.1252"/>
<polygon fill="#191970" stroke="#191970" points="832.0834,-160.298 840.2446,-153.5419 829.6515,-153.734 832.0834,-160.298"/>
</g>
<!-- Node16&#45;&gt;Node17 -->
<g id="edge19" class="edge">
<title>Node16&#45;&gt;Node17</title>
<path fill="none" stroke="#191970" d="M661.9213,-199.8584C598.612,-190.4617 467.7103,-170.9604 357,-154 351.9873,-153.2321 346.7547,-152.4244 341.5353,-151.6148"/>
<polygon fill="#191970" stroke="#191970" points="341.9947,-148.1443 331.5756,-150.0655 340.9187,-155.0611 341.9947,-148.1443"/>
</g>
<!-- Node16&#45;&gt;Node21 -->
<g id="edge27" class="edge">
<title>Node16&#45;&gt;Node21</title>
<path fill="none" stroke="#191970" d="M694.8438,-195.8906C690.0768,-187.0068 682.8615,-173.5601 676.9703,-162.5811"/>
<polygon fill="#191970" stroke="#191970" points="680.0412,-160.9016 672.2289,-153.7449 673.8731,-164.2114 680.0412,-160.9016"/>
</g>
<!-- Node17&#45;&gt;Node2 -->
<g id="edge25" class="edge">
<title>Node17&#45;&gt;Node2</title>
<path fill="none" stroke="#191970" d="M313.3125,-134.3906C334.8731,-124.1908 369.1478,-107.9763 393.6444,-96.3875"/>
<polygon fill="#191970" stroke="#191970" points="395.2874,-99.4822 402.8301,-92.0419 392.2939,-93.1545 395.2874,-99.4822"/>
</g>
<!-- Node17&#45;&gt;Node12 -->
<g id="edge20" class="edge">
<title>Node17&#45;&gt;Node12</title>
<path fill="none" stroke="#191970" d="M254.2187,-135.365C220.252,-126.9232 174.6872,-113.1573 164,-98 149.1339,-76.9159 169.2773,-49.6495 186.2153,-32.3613"/>
<polygon fill="#191970" stroke="#191970" points="188.8846,-34.6485 193.6347,-25.1782 184.0156,-29.6193 188.8846,-34.6485"/>
</g>
<!-- Node17&#45;&gt;Node13 -->
<g id="edge21" class="edge">
<title>Node17&#45;&gt;Node13</title>
<path fill="none" stroke="#191970" d="M254.0717,-134.6713C234.8595,-127.8907 213.4066,-116.5471 202,-98 194.7823,-86.2641 193.2249,-77.6219 202,-67 226.8785,-36.8855 330.8935,-24.1989 401.7793,-18.9831"/>
<polygon fill="#191970" stroke="#191970" points="402.2539,-22.4585 411.9842,-18.2666 401.7636,-15.4757 402.2539,-22.4585"/>
</g>
<!-- Node17&#45;&gt;Node14 -->
<g id="edge24" class="edge">
<title>Node17&#45;&gt;Node14</title>
<path fill="none" stroke="#191970" d="M273.1759,-134.3695C259.6785,-126.6136 242.8843,-114.3161 235,-98 229.0054,-85.5947 225.8524,-77.3028 235,-67 279.8732,-16.46 469.9161,-39.2251 537,-31 556.9202,-28.5576 578.6476,-25.838 598.2228,-23.3672"/>
<polygon fill="#191970" stroke="#191970" points="598.7601,-26.8272 608.2422,-22.1006 597.8822,-19.8825 598.7601,-26.8272"/>
</g>
<!-- Node18 -->
<g id="node19" class="node">
<title>Node18</title>
<polygon fill="none" stroke="#bfbfbf" points="244,-73 244,-92 318,-92 318,-73 244,-73"/>
<text text-anchor="middle" x="281" y="-80" font-family="Helvetica,sans-Serif" font-size="10.00" fill="#000000">deal.II/fe/fe.h</text>
</g>
<!-- Node17&#45;&gt;Node18 -->
<g id="edge22" class="edge">
<title>Node17&#45;&gt;Node18</title>
<path fill="none" stroke="#191970" d="M291.125,-134.3906C289.4441,-125.776 286.926,-112.8708 284.8216,-102.0858"/>
<polygon fill="#191970" stroke="#191970" points="288.2518,-101.3895 282.9014,-92.2449 281.3814,-102.7301 288.2518,-101.3895"/>
</g>
<!-- Node19 -->
<g id="node20" class="node">
<title>Node19</title>
<polygon fill="none" stroke="#bfbfbf" points="0,-73 0,-92 112,-92 112,-73 0,-73"/>
<text text-anchor="middle" x="56" y="-80" font-family="Helvetica,sans-Serif" font-size="10.00" fill="#000000">deal.II/fe/fe_system.h</text>
</g>
<!-- Node17&#45;&gt;Node19 -->
<g id="edge23" class="edge">
<title>Node17&#45;&gt;Node19</title>
<path fill="none" stroke="#191970" d="M256.2288,-134.4581C214.8894,-123.7308 147.6767,-106.2895 102.6678,-94.61"/>
<polygon fill="#191970" stroke="#191970" points="103.416,-91.1883 92.8575,-92.0643 101.6578,-97.9639 103.416,-91.1883"/>
</g>
<!-- Node20 -->
<g id="node21" class="node">
<title>Node20</title>
<polygon fill="none" stroke="#bfbfbf" points="336.5,-73 336.5,-92 377.5,-92 377.5,-73 336.5,-73"/>
<text text-anchor="middle" x="357" y="-80" font-family="Helvetica,sans-Serif" font-size="10.00" fill="#000000">string</text>
</g>
<!-- Node17&#45;&gt;Node20 -->
<g id="edge26" class="edge">
<title>Node17&#45;&gt;Node20</title>
<path fill="none" stroke="#191970" d="M303,-134.3906C312.7119,-125.0581 327.6639,-110.6902 339.3741,-99.4374"/>
<polygon fill="#191970" stroke="#191970" points="342.0736,-101.6974 346.859,-92.2449 337.2234,-96.65 342.0736,-101.6974"/>
</g>
<!-- Node21&#45;&gt;Node2 -->
<g id="edge33" class="edge">
<title>Node21&#45;&gt;Node2</title>
<path fill="none" stroke="#191970" d="M646.2864,-140.7557C608.4898,-134.5428 526.0501,-119.634 459,-98 456.8953,-97.3209 454.7448,-96.5644 452.594,-95.7612"/>
<polygon fill="#191970" stroke="#191970" points="453.8884,-92.5094 443.3042,-92.0348 451.2823,-99.0062 453.8884,-92.5094"/>
</g>
<!-- Node21&#45;&gt;Node7 -->
<g id="edge29" class="edge">
<title>Node21&#45;&gt;Node7</title>
<path fill="none" stroke="#191970" d="M681.5313,-134.3906C696.4094,-124.5519 719.7504,-109.1167 737.1128,-97.6351"/>
<polygon fill="#191970" stroke="#191970" points="739.1602,-100.4773 745.5708,-92.0419 735.299,-94.6385 739.1602,-100.4773"/>
</g>
<!-- Node21&#45;&gt;Node9 -->
<g id="edge35" class="edge">
<title>Node21&#45;&gt;Node9</title>
<path fill="none" stroke="#191970" d="M687.7673,-142.5099C743.2844,-138.2062 893.7146,-124.3516 935,-98 958.8828,-82.7561 975.4366,-53.5507 984.3274,-34.2967"/>
<polygon fill="#191970" stroke="#191970" points="987.5844,-35.5839 988.3766,-25.0187 981.1688,-32.7839 987.5844,-35.5839"/>
</g>
<!-- Node22 -->
<g id="node23" class="node">
<title>Node22</title>
<polygon fill="none" stroke="#bfbfbf" points="1058,-73 1058,-92 1184,-92 1184,-73 1058,-73"/>
<text text-anchor="middle" x="1121" y="-80" font-family="Helvetica,sans-Serif" font-size="10.00" fill="#000000">deal.II/base/exceptions.h</text>
</g>
<!-- Node21&#45;&gt;Node22 -->
<g id="edge28" class="edge">
<title>Node21&#45;&gt;Node22</title>
<path fill="none" stroke="#191970" d="M687.6872,-141.1977C750.5368,-132.6839 941.4207,-106.8263 1047.6617,-92.4346"/>
<polygon fill="#191970" stroke="#191970" points="1048.2321,-95.8894 1057.6717,-91.0786 1047.2924,-88.9527 1048.2321,-95.8894"/>
</g>
<!-- Node23 -->
<g id="node24" class="node">
<title>Node23</title>
<polygon fill="none" stroke="#bfbfbf" points="676,-73 676,-92 714,-92 714,-73 676,-73"/>
<text text-anchor="middle" x="695" y="-80" font-family="Helvetica,sans-Serif" font-size="10.00" fill="#000000">array</text>
</g>
<!-- Node21&#45;&gt;Node23 -->
<g id="edge30" class="edge">
<title>Node21&#45;&gt;Node23</title>
<path fill="none" stroke="#191970" d="M671.375,-134.3906C675.3788,-125.5965 681.4183,-112.3312 686.3885,-101.4145"/>
<polygon fill="#191970" stroke="#191970" points="689.6051,-102.7963 690.5633,-92.2449 683.2343,-99.8957 689.6051,-102.7963"/>
</g>
<!-- Node24 -->
<g id="node25" class="node">
<title>Node24</title>
<polygon fill="none" stroke="#bfbfbf" points="468.5,-73 468.5,-92 527.5,-92 527.5,-73 468.5,-73"/>
<text text-anchor="middle" x="498" y="-80" font-family="Helvetica,sans-Serif" font-size="10.00" fill="#000000">exception</text>
</g>
<!-- Node21&#45;&gt;Node24 -->
<g id="edge31" class="edge">
<title>Node21&#45;&gt;Node24</title>
<path fill="none" stroke="#191970" d="M646.4643,-137.1409C620.5753,-128.4133 574.7654,-112.7019 536,-98 534.1513,-97.2989 532.2569,-96.5676 530.3484,-95.821"/>
<polygon fill="#191970" stroke="#191970" points="531.4203,-92.4805 520.8351,-92.0284 528.828,-98.9828 531.4203,-92.4805"/>
</g>
<!-- Node25 -->
<g id="node26" class="node">
<title>Node25</title>
<polygon fill="none" stroke="#bfbfbf" points="545.5,-73 545.5,-92 604.5,-92 604.5,-73 545.5,-73"/>
<text text-anchor="middle" x="575" y="-80" font-family="Helvetica,sans-Serif" font-size="10.00" fill="#000000">functional</text>
</g>
<!-- Node21&#45;&gt;Node25 -->
<g id="edge32" class="edge">
<title>Node21&#45;&gt;Node25</title>
<path fill="none" stroke="#191970" d="M652.625,-134.3906C637.9069,-124.5519 614.8168,-109.1167 597.6411,-97.6351"/>
<polygon fill="#191970" stroke="#191970" points="599.5327,-94.6896 589.2741,-92.0419 595.6425,-100.5091 599.5327,-94.6896"/>
</g>
<!-- Node26 -->
<g id="node27" class="node">
<title>Node26</title>
<polygon fill="none" stroke="#bfbfbf" points="622.5,-73 622.5,-92 657.5,-92 657.5,-73 622.5,-73"/>
<text text-anchor="middle" x="640" y="-80" font-family="Helvetica,sans-Serif" font-size="10.00" fill="#000000">new</text>
</g>
<!-- Node21&#45;&gt;Node26 -->
<g id="edge34" class="edge">
<title>Node21&#45;&gt;Node26</title>
<path fill="none" stroke="#191970" d="M662.7813,-134.3906C658.9204,-125.5965 653.0966,-112.3312 648.3039,-101.4145"/>
<polygon fill="#191970" stroke="#191970" points="651.5029,-99.9943 644.2782,-92.2449 645.0934,-102.8083 651.5029,-99.9943"/>
</g>
<!-- Node27&#45;&gt;Node9 -->
<g id="edge44" class="edge">
<title>Node27&#45;&gt;Node9</title>
<path fill="none" stroke="#191970" d="M1424.303,-203.2261C1359.9505,-198.9773 1242.4961,-187.0241 1148,-154 1100.2787,-137.3226 1086.314,-132.1046 1049,-98 1028.6163,-79.3695 1011.6087,-52.1519 1001.6194,-34.1419"/>
<polygon fill="#191970" stroke="#191970" points="1004.6301,-32.3503 996.815,-25.1966 998.4633,-35.6625 1004.6301,-32.3503"/>
</g>
<!-- Node27&#45;&gt;Node20 -->
<g id="edge43" class="edge">
<title>Node27&#45;&gt;Node20</title>
<path fill="none" stroke="#191970" d="M1424.4312,-203.5526C1271.2219,-197.1249 791.6906,-175.7512 638,-154 524.8295,-137.9834 494.439,-136.9995 387,-98 385.7601,-97.5499 384.5064,-97.0592 383.251,-96.5385"/>
<polygon fill="#191970" stroke="#191970" points="384.334,-93.1821 373.7909,-92.1359 381.3804,-99.5285 384.334,-93.1821"/>
</g>
<!-- Node28 -->
<g id="node29" class="node">
<title>Node28</title>
<polygon fill="none" stroke="#bfbfbf" points="2095,-134.5 2095,-153.5 2135,-153.5 2135,-134.5 2095,-134.5"/>
<text text-anchor="middle" x="2115" y="-141.5" font-family="Helvetica,sans-Serif" font-size="10.00" fill="#000000">limits</text>
</g>
<!-- Node27&#45;&gt;Node28 -->
<g id="edge39" class="edge">
<title>Node27&#45;&gt;Node28</title>
<path fill="none" stroke="#191970" d="M1519.8693,-203.0248C1641.2831,-196.5075 1959.8617,-177.8523 2084.8277,-153.6969"/>
<polygon fill="#191970" stroke="#191970" points="2085.7984,-157.0712 2094.8993,-151.6468 2084.4021,-150.2118 2085.7984,-157.0712"/>
</g>
<!-- Node29 -->
<g id="node30" class="node">
<title>Node29</title>
<polygon fill="none" stroke="#bfbfbf" points="1551.5,-73 1551.5,-92 1586.5,-92 1586.5,-73 1551.5,-73"/>
<text text-anchor="middle" x="1569" y="-80" font-family="Helvetica,sans-Serif" font-size="10.00" fill="#000000">map</text>
</g>
<!-- Node27&#45;&gt;Node29 -->
<g id="edge40" class="edge">
<title>Node27&#45;&gt;Node29</title>
<path fill="none" stroke="#191970" d="M1483.8941,-190.4178C1501.9166,-167.5645 1536.062,-124.2667 1555.1683,-100.0392"/>
<polygon fill="#191970" stroke="#191970" points="1558.0252,-102.0687 1561.4693,-92.0493 1552.5287,-97.7341 1558.0252,-102.0687"/>
</g>
<!-- Node30 -->
<g id="node31" class="node">
<title>Node30</title>
<polygon fill="none" stroke="#bfbfbf" points="2153.5,-134.5 2153.5,-153.5 2194.5,-153.5 2194.5,-134.5 2153.5,-134.5"/>
<text text-anchor="middle" x="2174" y="-141.5" font-family="Helvetica,sans-Serif" font-size="10.00" fill="#000000">regex</text>
</g>
<!-- Node27&#45;&gt;Node30 -->
<g id="edge41" class="edge">
<title>Node27&#45;&gt;Node30</title>
<path fill="none" stroke="#191970" d="M1519.5155,-203.3755C1648.852,-197.3573 2006.1179,-179.1076 2143.3171,-153.5896"/>
<polygon fill="#191970" stroke="#191970" points="2144.0531,-157.0121 2153.1968,-151.6603 2142.7114,-150.1418 2144.0531,-157.0121"/>
</g>
<!-- Node31 -->
<g id="node32" class="node">
<title>Node31</title>
<polygon fill="none" stroke="#bfbfbf" points="2213,-134.5 2213,-153.5 2265,-153.5 2265,-134.5 2213,-134.5"/>
<text text-anchor="middle" x="2239" y="-141.5" font-family="Helvetica,sans-Serif" font-size="10.00" fill="#000000">sstream</text>
</g>
<!-- Node27&#45;&gt;Node31 -->
<g id="edge42" class="edge">
<title>Node27&#45;&gt;Node31</title>
<path fill="none" stroke="#191970" d="M1519.6324,-203.4458C1657.0328,-197.3195 2053.2854,-178.1901 2202.8508,-153.8181"/>
<polygon fill="#191970" stroke="#191970" points="2203.4932,-157.2592 2212.7636,-152.1299 2202.3179,-150.3585 2203.4932,-157.2592"/>
</g>
<!-- Node32 -->
<g id="node33" class="node">
<title>Node32</title>
<g id="a_node33"><a xlink:href="general__exceptions_8h.html" target="_top" xlink:title="Definition of self&#45;defined general exceptions. ">
<polygon fill="none" stroke="#000000" points="1156.5,-134.5 1156.5,-153.5 1265.5,-153.5 1265.5,-134.5 1156.5,-134.5"/>
<text text-anchor="middle" x="1211" y="-141.5" font-family="Helvetica,sans-Serif" font-size="10.00" fill="#000000">general_exceptions.h</text>
</a>
</g>
</g>
<!-- Node27&#45;&gt;Node32 -->
<g id="edge45" class="edge">
<title>Node27&#45;&gt;Node32</title>
<path fill="none" stroke="#191970" d="M1424.4321,-194.2915C1378.2689,-183.4139 1308.4652,-166.9659 1261.3727,-155.8694"/>
<polygon fill="#191970" stroke="#191970" points="1261.9278,-152.4044 1251.3916,-153.5176 1260.3223,-159.2178 1261.9278,-152.4044"/>
</g>
<!-- Node33 -->
<g id="node34" class="node">
<title>Node33</title>
<g id="a_node34"><a xlink:href="generic__functors_8h.html" target="_top" xlink:title="This header file contains a set of self&#45;defined generic functors. ">
<polygon fill="none" stroke="#000000" points="1373.5,-134.5 1373.5,-153.5 1470.5,-153.5 1470.5,-134.5 1373.5,-134.5"/>
<text text-anchor="middle" x="1422" y="-141.5" font-family="Helvetica,sans-Serif" font-size="10.00" fill="#000000">generic_functors.h</text>
</a>
</g>
</g>
<!-- Node27&#45;&gt;Node33 -->
<g id="edge47" class="edge">
<title>Node27&#45;&gt;Node33</title>
<path fill="none" stroke="#191970" d="M1459.6404,-190.2977C1452.6276,-181.672 1443.814,-170.8312 1436.4786,-161.8087"/>
<polygon fill="#191970" stroke="#191970" points="1439.0297,-159.3982 1430.0056,-153.8469 1433.5982,-163.8141 1439.0297,-159.3982"/>
</g>
<!-- Node36 -->
<g id="node37" class="node">
<title>Node36</title>
<g id="a_node37"><a xlink:href="lapack__helpers_8h.html" target="_top" xlink:title="Exposes LAPACK helper functions defined in lapack_full_matrix.cc and define new ones by following the...">
<polygon fill="none" stroke="#000000" points="1987,-134.5 1987,-153.5 2077,-153.5 2077,-134.5 1987,-134.5"/>
<text text-anchor="middle" x="2032" y="-141.5" font-family="Helvetica,sans-Serif" font-size="10.00" fill="#000000">lapack_helpers.h</text>
</a>
</g>
</g>
<!-- Node27&#45;&gt;Node36 -->
<g id="edge55" class="edge">
<title>Node27&#45;&gt;Node36</title>
<path fill="none" stroke="#191970" d="M1519.7453,-200.2565C1623.0075,-188.9161 1866.6299,-162.1612 1976.5206,-150.0928"/>
<polygon fill="#191970" stroke="#191970" points="1977.1704,-153.5426 1986.7285,-148.9718 1976.4062,-146.5844 1977.1704,-153.5426"/>
</g>
<!-- Node32&#45;&gt;Node22 -->
<g id="edge46" class="edge">
<title>Node32&#45;&gt;Node22</title>
<path fill="none" stroke="#191970" d="M1196.9375,-134.3906C1182.6714,-124.6421 1160.365,-109.3994 1143.6128,-97.9521"/>
<polygon fill="#191970" stroke="#191970" points="1145.1949,-94.7941 1134.9638,-92.0419 1141.2455,-100.5736 1145.1949,-94.7941"/>
</g>
<!-- Node33&#45;&gt;Node6 -->
<g id="edge49" class="edge">
<title>Node33&#45;&gt;Node6</title>
<path fill="none" stroke="#191970" d="M1405.9063,-134.3906C1389.2772,-124.4616 1363.1024,-108.833 1343.8206,-97.3201"/>
<polygon fill="#191970" stroke="#191970" points="1345.361,-94.1634 1334.9807,-92.0419 1341.7724,-100.1736 1345.361,-94.1634"/>
</g>
<!-- Node33&#45;&gt;Node8 -->
<g id="edge52" class="edge">
<title>Node33&#45;&gt;Node8</title>
<path fill="none" stroke="#191970" d="M1381.2161,-134.4686C1347.8812,-126.2091 1299.7727,-113.2114 1259,-98 1257.4099,-97.4068 1255.7909,-96.7678 1254.1665,-96.0991"/>
<polygon fill="#191970" stroke="#191970" points="1255.5304,-92.8755 1244.9672,-92.0571 1252.7145,-99.2841 1255.5304,-92.8755"/>
</g>
<!-- Node33&#45;&gt;Node9 -->
<g id="edge54" class="edge">
<title>Node33&#45;&gt;Node9</title>
<path fill="none" stroke="#191970" d="M1419.7506,-134.2856C1415.3112,-117.4967 1403.7252,-83.2908 1380,-67 1322.3098,-27.3874 1106.2825,-18.1794 1024.0523,-16.0932"/>
<polygon fill="#191970" stroke="#191970" points="1024.1144,-12.5938 1014.035,-15.858 1023.95,-19.5919 1024.1144,-12.5938"/>
</g>
<!-- Node33&#45;&gt;Node22 -->
<g id="edge48" class="edge">
<title>Node33&#45;&gt;Node22</title>
<path fill="none" stroke="#191970" d="M1373.9324,-134.4493C1327.7701,-125.2423 1256.0815,-110.8531 1194,-98 1188.1481,-96.7884 1182.0351,-95.5103 1175.9451,-94.2289"/>
<polygon fill="#191970" stroke="#191970" points="1176.2752,-90.7215 1165.7679,-92.0804 1174.8293,-97.5705 1176.2752,-90.7215"/>
</g>
<!-- Node33&#45;&gt;Node29 -->
<g id="edge53" class="edge">
<title>Node33&#45;&gt;Node29</title>
<path fill="none" stroke="#191970" d="M1447.3386,-134.4559C1470.7831,-125.4859 1506.5097,-111.4624 1537,-98 1538.7788,-97.2146 1540.6044,-96.3878 1542.4382,-95.5417"/>
<polygon fill="#191970" stroke="#191970" points="1543.9581,-98.6946 1551.4988,-91.2524 1540.9629,-92.3678 1543.9581,-98.6946"/>
</g>
<!-- Node34 -->
<g id="node35" class="node">
<title>Node34</title>
<polygon fill="none" stroke="#bfbfbf" points="1619.5,-.5 1619.5,-30.5 1710.5,-30.5 1710.5,-.5 1619.5,-.5"/>
<text text-anchor="start" x="1627.5" y="-18.5" font-family="Helvetica,sans-Serif" font-size="10.00" fill="#000000">deal.II/lac/lapack</text>
<text text-anchor="middle" x="1665" y="-7.5" font-family="Helvetica,sans-Serif" font-size="10.00" fill="#000000">_support.h</text>
</g>
<!-- Node33&#45;&gt;Node34 -->
<g id="edge50" class="edge">
<title>Node33&#45;&gt;Node34</title>
<path fill="none" stroke="#191970" d="M1441.0724,-134.4148C1458.027,-125.6355 1483.2675,-111.9242 1504,-98 1522.3813,-85.6549 1523.9578,-78.2989 1543,-67 1564.6149,-54.1746 1590.0173,-42.9114 1612.0306,-34.215"/>
<polygon fill="#191970" stroke="#191970" points="1613.4958,-37.401 1621.5574,-30.5262 1610.9682,-30.8732 1613.4958,-37.401"/>
</g>
<!-- Node35 -->
<g id="node36" class="node">
<title>Node35</title>
<polygon fill="none" stroke="#bfbfbf" points="1427.5,-73 1427.5,-92 1494.5,-92 1494.5,-73 1427.5,-73"/>
<text text-anchor="middle" x="1461" y="-80" font-family="Helvetica,sans-Serif" font-size="10.00" fill="#000000">forward_list</text>
</g>
<!-- Node33&#45;&gt;Node35 -->
<g id="edge51" class="edge">
<title>Node33&#45;&gt;Node35</title>
<path fill="none" stroke="#191970" d="M1428.0938,-134.3906C1433.7843,-125.417 1442.4272,-111.7879 1449.4274,-100.7491"/>
<polygon fill="#191970" stroke="#191970" points="1452.4207,-102.5644 1454.8203,-92.2449 1446.5091,-98.8155 1452.4207,-102.5644"/>
</g>
<!-- Node36&#45;&gt;Node34 -->
<g id="edge61" class="edge">
<title>Node36&#45;&gt;Node34</title>
<path fill="none" stroke="#191970" d="M2077.0162,-135.2259C2080.0502,-134.7698 2083.0657,-134.3545 2086,-134 2225.115,-117.1929 2809.6222,-168.487 2713,-67 2678.5486,-30.814 1933.2502,-18.8249 1720.9658,-16.1375"/>
<polygon fill="#191970" stroke="#191970" points="1720.7191,-12.6343 1710.6762,-16.0093 1720.6318,-19.6337 1720.7191,-12.6343"/>
</g>
<!-- Node37 -->
<g id="node38" class="node">
<title>Node37</title>
<polygon fill="none" stroke="#bfbfbf" points="2442,-73 2442,-92 2558,-92 2558,-73 2442,-73"/>
<text text-anchor="middle" x="2500" y="-80" font-family="Helvetica,sans-Serif" font-size="10.00" fill="#000000">deal.II/base/numbers.h</text>
</g>
<!-- Node36&#45;&gt;Node37 -->
<g id="edge56" class="edge">
<title>Node36&#45;&gt;Node37</title>
<path fill="none" stroke="#191970" d="M2077.0369,-135.3822C2080.0659,-134.8883 2083.0746,-134.4219 2086,-134 2239.462,-111.8659 2280.065,-123.5224 2433,-98 2439.3371,-96.9424 2445.9705,-95.6446 2452.4956,-94.2542"/>
<polygon fill="#191970" stroke="#191970" points="2453.5963,-97.5953 2462.6021,-92.0144 2452.0817,-90.7611 2453.5963,-97.5953"/>
</g>
<!-- Node38 -->
<g id="node39" class="node">
<title>Node38</title>
<polygon fill="none" stroke="#bfbfbf" points="2576,-67.5 2576,-97.5 2704,-97.5 2704,-67.5 2576,-67.5"/>
<text text-anchor="start" x="2584" y="-85.5" font-family="Helvetica,sans-Serif" font-size="10.00" fill="#000000">deal.II/lac/blas_extension</text>
<text text-anchor="middle" x="2640" y="-74.5" font-family="Helvetica,sans-Serif" font-size="10.00" fill="#000000">_templates.h</text>
</g>
<!-- Node36&#45;&gt;Node38 -->
<g id="edge57" class="edge">
<title>Node36&#45;&gt;Node38</title>
<path fill="none" stroke="#191970" d="M2077.0235,-135.2849C2080.0558,-134.8145 2083.0689,-134.38 2086,-134 2295.379,-106.8589 2353.0442,-127.68 2566.06,-98.0038"/>
<polygon fill="#191970" stroke="#191970" points="2566.5814,-101.465 2575.9929,-96.5994 2565.6014,-94.5339 2566.5814,-101.465"/>
</g>
<!-- Node39 -->
<g id="node40" class="node">
<title>Node39</title>
<polygon fill="none" stroke="#bfbfbf" points="2760,-73 2760,-92 2886,-92 2886,-73 2760,-73"/>
<text text-anchor="middle" x="2823" y="-80" font-family="Helvetica,sans-Serif" font-size="10.00" fill="#000000">deal.II/lac/block_vector.h</text>
</g>
<!-- Node36&#45;&gt;Node39 -->
<g id="edge58" class="edge">
<title>Node36&#45;&gt;Node39</title>
<path fill="none" stroke="#191970" d="M2077.015,-135.2162C2080.0493,-134.7624 2083.0652,-134.3503 2086,-134 2377.6987,-99.1819 2454.5805,-135.0825 2746,-98 2754.1744,-96.9598 2762.7802,-95.547 2771.1581,-93.9955"/>
<polygon fill="#191970" stroke="#191970" points="2772.0664,-97.3848 2781.2201,-92.0499 2770.7375,-90.5121 2772.0664,-97.3848"/>
</g>
<!-- Node40 -->
<g id="node41" class="node">
<title>Node40</title>
<polygon fill="none" stroke="#bfbfbf" points="1743,-73 1743,-92 1859,-92 1859,-73 1743,-73"/>
<text text-anchor="middle" x="1801" y="-80" font-family="Helvetica,sans-Serif" font-size="10.00" fill="#000000">deal.II/lac/full_matrix.h</text>
</g>
<!-- Node36&#45;&gt;Node40 -->
<g id="edge59" class="edge">
<title>Node36&#45;&gt;Node40</title>
<path fill="none" stroke="#191970" d="M1996.1597,-134.4581C1955.9515,-123.7533 1890.6309,-106.3628 1846.7631,-94.6837"/>
<polygon fill="#191970" stroke="#191970" points="1847.4882,-91.2549 1836.9244,-92.0643 1845.6873,-98.0193 1847.4882,-91.2549"/>
</g>
<!-- Node41 -->
<g id="node42" class="node">
<title>Node41</title>
<polygon fill="none" stroke="#bfbfbf" points="1877.5,-67.5 1877.5,-97.5 1968.5,-97.5 1968.5,-67.5 1877.5,-67.5"/>
<text text-anchor="start" x="1885.5" y="-85.5" font-family="Helvetica,sans-Serif" font-size="10.00" fill="#000000">deal.II/lac/lapack</text>
<text text-anchor="middle" x="1923" y="-74.5" font-family="Helvetica,sans-Serif" font-size="10.00" fill="#000000">_full_matrix.h</text>
</g>
<!-- Node36&#45;&gt;Node41 -->
<g id="edge60" class="edge">
<title>Node36&#45;&gt;Node41</title>
<path fill="none" stroke="#191970" d="M2014.9688,-134.3906C1999.9437,-125.9132 1977.5548,-113.2809 1958.6294,-102.6028"/>
<polygon fill="#191970" stroke="#191970" points="1960.0937,-99.4104 1949.6644,-97.5446 1956.6538,-105.5069 1960.0937,-99.4104"/>
</g>
<!-- Node42 -->
<g id="node43" class="node">
<title>Node42</title>
<polygon fill="none" stroke="#bfbfbf" points="1986.5,-67.5 1986.5,-97.5 2077.5,-97.5 2077.5,-67.5 1986.5,-67.5"/>
<text text-anchor="start" x="1994.5" y="-85.5" font-family="Helvetica,sans-Serif" font-size="10.00" fill="#000000">deal.II/lac/lapack</text>
<text text-anchor="middle" x="2032" y="-74.5" font-family="Helvetica,sans-Serif" font-size="10.00" fill="#000000">_templates.h</text>
</g>
<!-- Node36&#45;&gt;Node42 -->
<g id="edge62" class="edge">
<title>Node36&#45;&gt;Node42</title>
<path fill="none" stroke="#191970" d="M2032,-134.3906C2032,-127.2234 2032,-117.0862 2032,-107.671"/>
<polygon fill="#191970" stroke="#191970" points="2035.5001,-107.5446 2032,-97.5446 2028.5001,-107.5446 2035.5001,-107.5446"/>
</g>
<!-- Node43 -->
<g id="node44" class="node">
<title>Node43</title>
<polygon fill="none" stroke="#bfbfbf" points="2096,-67.5 2096,-97.5 2188,-97.5 2188,-67.5 2096,-67.5"/>
<text text-anchor="start" x="2104" y="-85.5" font-family="Helvetica,sans-Serif" font-size="10.00" fill="#000000">deal.II/lac/sparse</text>
<text text-anchor="middle" x="2142" y="-74.5" font-family="Helvetica,sans-Serif" font-size="10.00" fill="#000000">_matrix.h</text>
</g>
<!-- Node36&#45;&gt;Node43 -->
<g id="edge63" class="edge">
<title>Node36&#45;&gt;Node43</title>
<path fill="none" stroke="#191970" d="M2049.1875,-134.3906C2064.4193,-125.8747 2087.1503,-113.166 2106.304,-102.4573"/>
<polygon fill="#191970" stroke="#191970" points="2108.0705,-105.4796 2115.091,-97.5446 2104.6545,-99.3697 2108.0705,-105.4796"/>
</g>
<!-- Node44 -->
<g id="node45" class="node">
<title>Node44</title>
<polygon fill="none" stroke="#bfbfbf" points="2206.5,-73 2206.5,-92 2307.5,-92 2307.5,-73 2206.5,-73"/>
<text text-anchor="middle" x="2257" y="-80" font-family="Helvetica,sans-Serif" font-size="10.00" fill="#000000">deal.II/lac/utilities.h</text>
</g>
<!-- Node36&#45;&gt;Node44 -->
<g id="edge64" class="edge">
<title>Node36&#45;&gt;Node44</title>
<path fill="none" stroke="#191970" d="M2067.1563,-134.3906C2106.2889,-123.6944 2169.621,-106.3836 2212.2582,-94.7294"/>
<polygon fill="#191970" stroke="#191970" points="2213.3673,-98.0547 2222.0906,-92.0419 2211.5216,-91.3024 2213.3673,-98.0547"/>
</g>
<!-- Node45 -->
<g id="node46" class="node">
<title>Node45</title>
<polygon fill="none" stroke="#bfbfbf" points="2326,-73 2326,-92 2424,-92 2424,-73 2326,-73"/>
<text text-anchor="middle" x="2375" y="-80" font-family="Helvetica,sans-Serif" font-size="10.00" fill="#000000">deal.II/lac/vector.h</text>
</g>
<!-- Node36&#45;&gt;Node45 -->
<g id="edge65" class="edge">
<title>Node36&#45;&gt;Node45</title>
<path fill="none" stroke="#191970" d="M2077.0641,-135.5555C2080.0866,-135.0198 2083.0864,-134.4967 2086,-134 2188.4282,-116.5381 2215.3309,-119.4437 2317,-98 2321.7837,-96.991 2326.7616,-95.8314 2331.7019,-94.6103"/>
<polygon fill="#191970" stroke="#191970" points="2332.8965,-97.9174 2341.7155,-92.0458 2331.1598,-91.1362 2332.8965,-97.9174"/>
</g>
<!-- Node46 -->
<g id="node47" class="node">
<title>Node46</title>
<g id="a_node47"><a xlink:href="lapack__templates__ext_8h.html" target="_top" xlink:title="Append more template based LAPACK functions to those existing in deal.ii. ">
<polygon fill="none" stroke="#000000" points="1605,-73 1605,-92 1725,-92 1725,-73 1605,-73"/>
<text text-anchor="middle" x="1665" y="-80" font-family="Helvetica,sans-Serif" font-size="10.00" fill="#000000">lapack_templates_ext.h</text>
</a>
</g>
</g>
<!-- Node36&#45;&gt;Node46 -->
<g id="edge66" class="edge">
<title>Node36&#45;&gt;Node46</title>
<path fill="none" stroke="#191970" d="M1986.9054,-138.0098C1928.397,-130.0157 1823.2408,-114.891 1734,-98 1727.9042,-96.8462 1721.5264,-95.544 1715.2156,-94.1969"/>
<polygon fill="#191970" stroke="#191970" points="1715.9198,-90.7683 1705.4038,-92.058 1714.4289,-97.6077 1715.9198,-90.7683"/>
</g>
<!-- Node46&#45;&gt;Node34 -->
<g id="edge67" class="edge">
<title>Node46&#45;&gt;Node34</title>
<path fill="none" stroke="#191970" d="M1665,-72.9005C1665,-64.5099 1665,-51.9451 1665,-40.7085"/>
<polygon fill="#191970" stroke="#191970" points="1668.5001,-40.5217 1665,-30.5218 1661.5001,-40.5218 1668.5001,-40.5217"/>
</g>
</g>
</svg>
        <g id="navigator" transform="translate(0 0)" fill="#404254">
                <rect fill="#f2f5e9" fill-opacity="0.5" stroke="#606060" stroke-width=".5" x="0" y="0" width="60" height="60"/>
                <use id="zoomplus" xlink:href="#zoomPlus" x="17" y="9" onmousedown="handleZoom(evt,'in')"/>
                <use id="zoomminus" xlink:href="#zoomMin" x="42" y="9" onmousedown="handleZoom(evt,'out')"/>
                <use id="reset" xlink:href="#resetDef" x="30" y="36" onmousedown="handleReset()"/>
                <g id="arrowUp" xlink:href="#dirArrow" transform="translate(30 24)" onmousedown="handlePan(0,-1)">
                  <use xlink:href="#rim" fill="#404040">
                        <set attributeName="fill" to="#808080" begin="arrowUp.mouseover" end="arrowUp.mouseout"/>
                  </use>
                  <path fill="none" stroke="white" stroke-width="1.5" d="M0,-3.0v7 M-2.5,-0.5L0,-3.0L2.5,-0.5"/>
                </g>
                <g id="arrowRight" xlink:href="#dirArrow" transform="rotate(90) translate(36 -43)" onmousedown="handlePan(1,0)">
                  <use xlink:href="#rim" fill="#404040">
                        <set attributeName="fill" to="#808080" begin="arrowRight.mouseover" end="arrowRight.mouseout"/>
                  </use>
                  <path fill="none" stroke="white" stroke-width="1.5" d="M0,-3.0v7 M-2.5,-0.5L0,-3.0L2.5,-0.5"/>
                </g>
                <g id="arrowDown" xlink:href="#dirArrow" transform="rotate(180) translate(-30 -48)" onmousedown="handlePan(0,1)">
                  <use xlink:href="#rim" fill="#404040">
                        <set attributeName="fill" to="#808080" begin="arrowDown.mouseover" end="arrowDown.mouseout"/>
                  </use>
                  <path fill="none" stroke="white" stroke-width="1.5" d="M0,-3.0v7 M-2.5,-0.5L0,-3.0L2.5,-0.5"/>
                </g>
                <g id="arrowLeft" xlink:href="#dirArrow" transform="rotate(270) translate(-36 17)" onmousedown="handlePan(-1,0)">
                  <use xlink:href="#rim" fill="#404040">
                        <set attributeName="fill" to="#808080" begin="arrowLeft.mouseover" end="arrowLeft.mouseout"/>
                  </use>
                  <path fill="none" stroke="white" stroke-width="1.5" d="M0,-3.0v7 M-2.5,-0.5L0,-3.0L2.5,-0.5"/>
                </g>
        </g>
        <svg viewBox="0 0 15 15" width="100%" height="30px" preserveAspectRatio="xMaxYMin meet">
         <g id="arrow_out" transform="scale(0.3 0.3)">
          <a xlink:href="bct-overloaded-assignment_8cc__incl_org.svg" target="_base">
           <rect id="button" ry="5" rx="5" y="6" x="6" height="38" width="38"
                fill="#f2f5e9" fill-opacity="0.5" stroke="#606060" stroke-width="1.0"/>
           <path id="arrow"
             d="M 11.500037,31.436501 C 11.940474,20.09759 22.043105,11.32322 32.158766,21.979434 L 37.068811,17.246167 C 37.068811,17.246167 37.088388,32 37.088388,32 L 22.160133,31.978069 C 22.160133,31.978069 26.997745,27.140456 26.997745,27.140456 C 18.528582,18.264221 13.291696,25.230495 11.500037,31.436501 z"
             style="fill:#404040;"/>
          </a>
         </g>
        </svg>
</svg>
