<?xml version="1.0" encoding="UTF-8" standalone="no"?>
<!DOCTYPE svg PUBLIC "-//W3C//DTD SVG 1.1//EN"
 "http://www.w3.org/Graphics/SVG/1.1/DTD/svg11.dtd">
<!-- Generated by graphviz version 2.40.1 (20161225.0304)
 -->
<!-- Title: /home/jihuan/Projects/deal.ii/program/dealii&#45;9.1.1/examples/laplace&#45;bem/tests/block&#45;cluster&#45;tree&#45;subtree/bct&#45;subtree.cc Pages: 1 -->
<!--zoomable 430 -->
<svg id="main" version="1.1" xmlns="http://www.w3.org/2000/svg" xmlns:xlink="http://www.w3.org/1999/xlink" xml:space="preserve" onload="init(evt)">
<style type="text/css"><![CDATA[
.edge:hover path { stroke: red; }
.edge:hover polygon { stroke: red; fill: red; }
]]></style>
<script type="text/javascript"><![CDATA[
var edges = document.getElementsByTagName('g');
if (edges && edges.length) {
  for (var i=0;i<edges.length;i++) {
    if (edges[i].id.substr(0,4)=='edge') {
      edges[i].setAttribute('class','edge');
    }
  }
}
]]></script>
        <defs>
                <circle id="rim" cx="0" cy="0" r="7"/>
                <circle id="rim2" cx="0" cy="0" r="3.5"/>
                <g id="zoomPlus">
                        <use xlink:href="#rim" fill="#404040">
                                <set attributeName="fill" to="#808080" begin="zoomplus.mouseover" end="zoomplus.mouseout"/>
                        </use>
                        <path d="M-4,0h8M0,-4v8" fill="none" stroke="white" stroke-width="1.5" pointer-events="none"/>
                </g>
                <g id="zoomMin">
                        <use xlink:href="#rim" fill="#404040">
                                <set attributeName="fill" to="#808080" begin="zoomminus.mouseover" end="zoomminus.mouseout"/>
                        </use>
                        <path d="M-4,0h8" fill="none" stroke="white" stroke-width="1.5" pointer-events="none"/>
                </g>
                <g id="dirArrow">
                        <path fill="none" stroke="white" stroke-width="1.5" d="M0,-3.0v7 M-2.5,-0.5L0,-3.0L2.5,-0.5"/>
                </g>
               <g id="resetDef">
                       <use xlink:href="#rim2" fill="#404040">
                               <set attributeName="fill" to="#808080" begin="reset.mouseover" end="reset.mouseout"/>
                       </use>
               </g>
        </defs>

<script type="text/javascript">
var viewWidth = 2606;
var viewHeight = 430;
var sectionId = 'dynsection-0';
</script>
<script xlink:href="svgpan.js"/>
<svg id="graph" class="graph">
<g id="viewport">
<title>/home/jihuan/Projects/deal.ii/program/dealii&#45;9.1.1/examples/laplace&#45;bem/tests/block&#45;cluster&#45;tree&#45;subtree/bct&#45;subtree.cc</title>
<!-- Node0 -->
<g id="node1" class="node">
<title>Node0</title>
<polygon fill="#bfbfbf" stroke="#000000" points="330.5,-358.5 330.5,-421.5 467.5,-421.5 467.5,-358.5 330.5,-358.5"/>
<text text-anchor="start" x="338.5" y="-409.5" font-family="Helvetica,sans-Serif" font-size="10.00" fill="#000000">/home/jihuan/Projects</text>
<text text-anchor="start" x="338.5" y="-398.5" font-family="Helvetica,sans-Serif" font-size="10.00" fill="#000000">/deal.ii/program/dealii</text>
<text text-anchor="start" x="338.5" y="-387.5" font-family="Helvetica,sans-Serif" font-size="10.00" fill="#000000">&#45;9.1.1/examples/laplace</text>
<text text-anchor="start" x="338.5" y="-376.5" font-family="Helvetica,sans-Serif" font-size="10.00" fill="#000000">&#45;bem/tests/block&#45;cluster</text>
<text text-anchor="middle" x="399" y="-365.5" font-family="Helvetica,sans-Serif" font-size="10.00" fill="#000000">&#45;tree&#45;subtree/bct&#45;subtree.cc</text>
</g>
<!-- Node1 -->
<g id="node2" class="node">
<title>Node1</title>
<polygon fill="none" stroke="#bfbfbf" points="302,-302.5 302,-321.5 352,-321.5 352,-302.5 302,-302.5"/>
<text text-anchor="middle" x="327" y="-309.5" font-family="Helvetica,sans-Serif" font-size="10.00" fill="#000000">fstream</text>
</g>
<!-- Node0&#45;&gt;Node1 -->
<g id="edge1" class="edge">
<title>Node0&#45;&gt;Node1</title>
<path fill="none" stroke="#191970" d="M369.7148,-358.2744C360.5097,-348.3021 350.6972,-337.672 342.8014,-329.1182"/>
<polygon fill="#191970" stroke="#191970" points="345.2555,-326.6166 335.9008,-321.6426 340.1118,-331.3646 345.2555,-326.6166"/>
</g>
<!-- Node2 -->
<g id="node3" class="node">
<title>Node2</title>
<polygon fill="none" stroke="#bfbfbf" points="391,-62 391,-81 445,-81 445,-62 391,-62"/>
<text text-anchor="middle" x="418" y="-69" font-family="Helvetica,sans-Serif" font-size="10.00" fill="#000000">iostream</text>
</g>
<!-- Node0&#45;&gt;Node2 -->
<g id="edge2" class="edge">
<title>Node0&#45;&gt;Node2</title>
<path fill="none" stroke="#191970" d="M406.0749,-358.2313C411.4769,-331.1924 418,-291.2449 418,-256 418,-256 418,-256 418,-194.5 418,-157.9994 418,-115.406 418,-91.1285"/>
<polygon fill="#191970" stroke="#191970" points="421.5001,-91.0691 418,-81.0691 414.5001,-91.0692 421.5001,-91.0691"/>
</g>
<!-- Node3 -->
<g id="node4" class="node">
<title>Node3</title>
<g id="a_node4"><a xlink:href="block__cluster__tree_8h.html" target="_top" xlink:title="Implementation of the class BlockClusterTree. ">
<polygon fill="none" stroke="#000000" points="663,-302.5 663,-321.5 767,-321.5 767,-302.5 663,-302.5"/>
<text text-anchor="middle" x="715" y="-309.5" font-family="Helvetica,sans-Serif" font-size="10.00" fill="#000000">block_cluster_tree.h</text>
</a>
</g>
</g>
<!-- Node0&#45;&gt;Node3 -->
<g id="edge3" class="edge">
<title>Node0&#45;&gt;Node3</title>
<path fill="none" stroke="#191970" d="M467.5673,-373.0752C527.5936,-358.2585 613.2984,-337.1036 666.4714,-323.9786"/>
<polygon fill="#191970" stroke="#191970" points="667.4614,-327.3393 676.3313,-321.5448 665.7839,-320.5433 667.4614,-327.3393"/>
</g>
<!-- Node17 -->
<g id="node18" class="node">
<title>Node17</title>
<g id="a_node18"><a xlink:href="debug__tools_8h.html" target="_top" xlink:title="This file includes a bunch of helper functions for printing out and visualizing information about gri...">
<polygon fill="none" stroke="#000000" points="265.5,-123.5 265.5,-142.5 342.5,-142.5 342.5,-123.5 265.5,-123.5"/>
<text text-anchor="middle" x="304" y="-130.5" font-family="Helvetica,sans-Serif" font-size="10.00" fill="#000000">debug_tools.h</text>
</a>
</g>
</g>
<!-- Node0&#45;&gt;Node17 -->
<g id="edge56" class="edge">
<title>Node0&#45;&gt;Node17</title>
<path fill="none" stroke="#191970" d="M387.3511,-358.4868C367.3944,-304.4985 327.2521,-195.903 311.0351,-152.0319"/>
<polygon fill="#191970" stroke="#191970" points="314.2866,-150.7332 307.5364,-142.567 307.7208,-153.1603 314.2866,-150.7332"/>
</g>
<!-- Node4 -->
<g id="node5" class="node">
<title>Node4</title>
<g id="a_node5"><a xlink:href="block__cluster_8h.html" target="_top" xlink:title="Implementation of the class BlockCluster. ">
<polygon fill="none" stroke="#000000" points="708.5,-246.5 708.5,-265.5 791.5,-265.5 791.5,-246.5 708.5,-246.5"/>
<text text-anchor="middle" x="750" y="-253.5" font-family="Helvetica,sans-Serif" font-size="10.00" fill="#000000">block_cluster.h</text>
</a>
</g>
</g>
<!-- Node3&#45;&gt;Node4 -->
<g id="edge4" class="edge">
<title>Node3&#45;&gt;Node4</title>
<path fill="none" stroke="#191970" d="M721.0965,-302.2455C725.9145,-294.5367 732.7751,-283.5598 738.6032,-274.2348"/>
<polygon fill="#191970" stroke="#191970" points="741.6413,-275.9777 743.9733,-265.6427 735.7053,-272.2677 741.6413,-275.9777"/>
</g>
<!-- Node16 -->
<g id="node17" class="node">
<title>Node16</title>
<g id="a_node17"><a xlink:href="cluster__tree_8h_source.html" target="_top" xlink:title="cluster_tree.h">
<polygon fill="none" stroke="#000000" points="646,-185 646,-204 722,-204 722,-185 646,-185"/>
<text text-anchor="middle" x="684" y="-192" font-family="Helvetica,sans-Serif" font-size="10.00" fill="#000000">cluster_tree.h</text>
</a>
</g>
</g>
<!-- Node3&#45;&gt;Node16 -->
<g id="edge36" class="edge">
<title>Node3&#45;&gt;Node16</title>
<path fill="none" stroke="#191970" d="M711.5083,-302.2114C708.2778,-292.9544 703.466,-278.6373 700,-266 695.2277,-248.5998 690.8319,-228.5311 687.8604,-214.0929"/>
<polygon fill="#191970" stroke="#191970" points="691.2907,-213.3977 685.883,-204.2869 684.4288,-214.7814 691.2907,-213.3977"/>
</g>
<!-- Node3&#45;&gt;Node17 -->
<g id="edge37" class="edge">
<title>Node3&#45;&gt;Node17</title>
<path fill="none" stroke="#191970" d="M692.9029,-302.3762C624.4668,-272.5707 415.8282,-181.7038 335.7541,-146.8296"/>
<polygon fill="#191970" stroke="#191970" points="336.7722,-143.4555 326.2064,-142.6714 333.9771,-149.8733 336.7722,-143.4555"/>
</g>
<!-- Node21 -->
<g id="node22" class="node">
<title>Node21</title>
<g id="a_node22"><a xlink:href="tree_8h.html" target="_top" xlink:title="Implementation of the classes for binary tree node, general tree node and functions for manipulating ...">
<polygon fill="none" stroke="#000000" points="941.5,-123.5 941.5,-142.5 982.5,-142.5 982.5,-123.5 941.5,-123.5"/>
<text text-anchor="middle" x="962" y="-130.5" font-family="Helvetica,sans-Serif" font-size="10.00" fill="#000000">tree.h</text>
</a>
</g>
</g>
<!-- Node3&#45;&gt;Node21 -->
<g id="edge55" class="edge">
<title>Node3&#45;&gt;Node21</title>
<path fill="none" stroke="#191970" d="M735.4652,-302.4911C753.315,-293.865 779.6257,-280.3362 801,-266 856.3571,-228.8707 915.2413,-176.4745 944.035,-149.89"/>
<polygon fill="#191970" stroke="#191970" points="946.7086,-152.1834 951.65,-142.8114 941.9427,-147.0564 946.7086,-152.1834"/>
</g>
<!-- Node27 -->
<g id="node28" class="node">
<title>Node27</title>
<g id="a_node28"><a xlink:href="lapack__full__matrix__ext_8h_source.html" target="_top" xlink:title="lapack_full_matrix\l_ext.h">
<polygon fill="none" stroke="#000000" points="1266.5,-179.5 1266.5,-209.5 1361.5,-209.5 1361.5,-179.5 1266.5,-179.5"/>
<text text-anchor="start" x="1274.5" y="-197.5" font-family="Helvetica,sans-Serif" font-size="10.00" fill="#000000">lapack_full_matrix</text>
<text text-anchor="middle" x="1314" y="-186.5" font-family="Helvetica,sans-Serif" font-size="10.00" fill="#000000">_ext.h</text>
</a>
</g>
</g>
<!-- Node3&#45;&gt;Node27 -->
<g id="edge38" class="edge">
<title>Node3&#45;&gt;Node27</title>
<path fill="none" stroke="#191970" d="M763.5113,-302.484C872.9813,-281.0103 1138.7869,-228.8698 1256.3897,-205.8008"/>
<polygon fill="#191970" stroke="#191970" points="1257.1481,-209.2189 1266.2873,-203.8593 1255.8006,-202.3498 1257.1481,-209.2189"/>
</g>
<!-- Node5 -->
<g id="node6" class="node">
<title>Node5</title>
<g id="a_node6"><a xlink:href="cluster_8h.html" target="_top" xlink:title="Implementation of the class Cluster. ">
<polygon fill="none" stroke="#000000" points="690,-123.5 690,-142.5 744,-142.5 744,-123.5 690,-123.5"/>
<text text-anchor="middle" x="717" y="-130.5" font-family="Helvetica,sans-Serif" font-size="10.00" fill="#000000">cluster.h</text>
</a>
</g>
</g>
<!-- Node4&#45;&gt;Node5 -->
<g id="edge5" class="edge">
<title>Node4&#45;&gt;Node5</title>
<path fill="none" stroke="#191970" d="M747.8226,-246.4743C744.4491,-231.8861 737.6523,-203.1605 731,-179 728.5963,-170.2701 725.7162,-160.6798 723.1949,-152.5255"/>
<polygon fill="#191970" stroke="#191970" points="726.486,-151.3231 720.1573,-142.8261 719.8059,-153.4151 726.486,-151.3231"/>
</g>
<!-- Node4&#45;&gt;Node16 -->
<g id="edge17" class="edge">
<title>Node4&#45;&gt;Node16</title>
<path fill="none" stroke="#191970" d="M739.6875,-246.3906C729.5758,-236.9683 713.9558,-222.4134 701.8293,-211.1137"/>
<polygon fill="#191970" stroke="#191970" points="704.1601,-208.5015 694.4579,-204.2449 699.388,-213.6228 704.1601,-208.5015"/>
</g>
<!-- Node6 -->
<g id="node7" class="node">
<title>Node6</title>
<polygon fill="none" stroke="#bfbfbf" points="665.5,-62 665.5,-81 768.5,-81 768.5,-62 665.5,-62"/>
<text text-anchor="middle" x="717" y="-69" font-family="Helvetica,sans-Serif" font-size="10.00" fill="#000000">deal.II/base/types.h</text>
</g>
<!-- Node5&#45;&gt;Node6 -->
<g id="edge6" class="edge">
<title>Node5&#45;&gt;Node6</title>
<path fill="none" stroke="#191970" d="M717,-123.3906C717,-114.8657 717,-102.1392 717,-91.4235"/>
<polygon fill="#191970" stroke="#191970" points="720.5001,-91.2448 717,-81.2449 713.5001,-91.2449 720.5001,-91.2448"/>
</g>
<!-- Node7 -->
<g id="node8" class="node">
<title>Node7</title>
<polygon fill="none" stroke="#bfbfbf" points="825,-62 825,-81 881,-81 881,-62 825,-62"/>
<text text-anchor="middle" x="853" y="-69" font-family="Helvetica,sans-Serif" font-size="10.00" fill="#000000">algorithm</text>
</g>
<!-- Node5&#45;&gt;Node7 -->
<g id="edge7" class="edge">
<title>Node5&#45;&gt;Node7</title>
<path fill="none" stroke="#191970" d="M738.25,-123.3906C760.9055,-113.1457 796.9798,-96.8326 822.6291,-85.2339"/>
<polygon fill="#191970" stroke="#191970" points="824.2297,-88.3514 831.8992,-81.0419 821.3454,-81.9732 824.2297,-88.3514"/>
</g>
<!-- Node8 -->
<g id="node9" class="node">
<title>Node8</title>
<polygon fill="none" stroke="#bfbfbf" points="600.5,-62 600.5,-81 647.5,-81 647.5,-62 600.5,-62"/>
<text text-anchor="middle" x="624" y="-69" font-family="Helvetica,sans-Serif" font-size="10.00" fill="#000000">iterator</text>
</g>
<!-- Node5&#45;&gt;Node8 -->
<g id="edge8" class="edge">
<title>Node5&#45;&gt;Node8</title>
<path fill="none" stroke="#191970" d="M702.4688,-123.3906C687.5906,-113.5519 664.2496,-98.1167 646.8872,-86.6351"/>
<polygon fill="#191970" stroke="#191970" points="648.701,-83.6385 638.4292,-81.0419 644.8398,-89.4773 648.701,-83.6385"/>
</g>
<!-- Node9 -->
<g id="node10" class="node">
<title>Node9</title>
<polygon fill="none" stroke="#bfbfbf" points="963,-.5 963,-19.5 1007,-19.5 1007,-.5 963,-.5"/>
<text text-anchor="middle" x="985" y="-7.5" font-family="Helvetica,sans-Serif" font-size="10.00" fill="#000000">vector</text>
</g>
<!-- Node5&#45;&gt;Node9 -->
<g id="edge9" class="edge">
<title>Node5&#45;&gt;Node9</title>
<path fill="none" stroke="#191970" d="M730.1994,-123.2728C742.6296,-114.0592 761.72,-99.7714 778,-87 795.1488,-73.5471 796.6173,-65.9686 816,-56 860.4783,-33.1248 917.5684,-20.6549 952.7019,-14.6627"/>
<polygon fill="#191970" stroke="#191970" points="953.5555,-18.0698 962.8622,-13.0066 952.4293,-11.161 953.5555,-18.0698"/>
</g>
<!-- Node10 -->
<g id="node11" class="node">
<title>Node10</title>
<g id="a_node11"><a xlink:href="simple__bounding__box_8h_source.html" target="_top" xlink:title="simple_bounding_box.h">
<polygon fill="none" stroke="#000000" points="463.5,-62 463.5,-81 582.5,-81 582.5,-62 463.5,-62"/>
<text text-anchor="middle" x="523" y="-69" font-family="Helvetica,sans-Serif" font-size="10.00" fill="#000000">simple_bounding_box.h</text>
</a>
</g>
</g>
<!-- Node5&#45;&gt;Node10 -->
<g id="edge10" class="edge">
<title>Node5&#45;&gt;Node10</title>
<path fill="none" stroke="#191970" d="M689.616,-124.319C656.5381,-113.833 600.6325,-96.1103 562.7953,-84.1155"/>
<polygon fill="#191970" stroke="#191970" points="563.7039,-80.732 553.1138,-81.0464 561.5886,-87.4047 563.7039,-80.732"/>
</g>
<!-- Node10&#45;&gt;Node9 -->
<g id="edge16" class="edge">
<title>Node10&#45;&gt;Node9</title>
<path fill="none" stroke="#191970" d="M562.2669,-61.934C571.9481,-59.7818 582.3174,-57.6496 592,-56 725.0604,-33.3313 885.3831,-18.3617 952.732,-12.6268"/>
<polygon fill="#191970" stroke="#191970" points="953.0532,-16.1122 962.7244,-11.7859 952.4661,-9.1369 953.0532,-16.1122"/>
</g>
<!-- Node11 -->
<g id="node12" class="node">
<title>Node11</title>
<polygon fill="none" stroke="#bfbfbf" points="517,-.5 517,-19.5 617,-19.5 617,-.5 517,-.5"/>
<text text-anchor="middle" x="567" y="-7.5" font-family="Helvetica,sans-Serif" font-size="10.00" fill="#000000">deal.II/base/point.h</text>
</g>
<!-- Node10&#45;&gt;Node11 -->
<g id="edge11" class="edge">
<title>Node10&#45;&gt;Node11</title>
<path fill="none" stroke="#191970" d="M529.875,-61.8906C536.3593,-52.8273 546.2414,-39.0149 554.1801,-27.9188"/>
<polygon fill="#191970" stroke="#191970" points="557.0559,-29.9143 560.0281,-19.7449 551.3629,-25.8412 557.0559,-29.9143"/>
</g>
<!-- Node12 -->
<g id="node13" class="node">
<title>Node12</title>
<polygon fill="none" stroke="#bfbfbf" points="167.5,-.5 167.5,-19.5 294.5,-19.5 294.5,-.5 167.5,-.5"/>
<text text-anchor="middle" x="231" y="-7.5" font-family="Helvetica,sans-Serif" font-size="10.00" fill="#000000">deal.II/dofs/dof_handler.h</text>
</g>
<!-- Node10&#45;&gt;Node12 -->
<g id="edge12" class="edge">
<title>Node10&#45;&gt;Node12</title>
<path fill="none" stroke="#191970" d="M481.0639,-61.956C472.1371,-59.9591 462.7617,-57.8876 454,-56 397.7749,-43.8868 333.4278,-30.6839 288.3525,-21.5426"/>
<polygon fill="#191970" stroke="#191970" points="288.9637,-18.0954 278.4679,-19.5405 287.574,-24.9561 288.9637,-18.0954"/>
</g>
<!-- Node13 -->
<g id="node14" class="node">
<title>Node13</title>
<polygon fill="none" stroke="#bfbfbf" points="0,-.5 0,-19.5 116,-19.5 116,-.5 0,-.5"/>
<text text-anchor="middle" x="58" y="-7.5" font-family="Helvetica,sans-Serif" font-size="10.00" fill="#000000">deal.II/dofs/dof_tools.h</text>
</g>
<!-- Node10&#45;&gt;Node13 -->
<g id="edge13" class="edge">
<title>Node10&#45;&gt;Node13</title>
<path fill="none" stroke="#191970" d="M483.7341,-61.928C474.0529,-59.776 463.6834,-57.6453 454,-56 392.6907,-45.5827 222.326,-27.124 126.2214,-17.0465"/>
<polygon fill="#191970" stroke="#191970" points="126.3306,-13.5389 116.0207,-15.9791 125.6021,-20.5009 126.3306,-13.5389"/>
</g>
<!-- Node14 -->
<g id="node15" class="node">
<title>Node14</title>
<polygon fill="none" stroke="#bfbfbf" points="329.5,-.5 329.5,-19.5 432.5,-19.5 432.5,-.5 329.5,-.5"/>
<text text-anchor="middle" x="381" y="-7.5" font-family="Helvetica,sans-Serif" font-size="10.00" fill="#000000">deal.II/fe/mapping.h</text>
</g>
<!-- Node10&#45;&gt;Node14 -->
<g id="edge14" class="edge">
<title>Node10&#45;&gt;Node14</title>
<path fill="none" stroke="#191970" d="M500.8125,-61.8906C477.0533,-51.6005 439.1595,-35.1888 412.3575,-23.5809"/>
<polygon fill="#191970" stroke="#191970" points="413.5991,-20.3045 403.0317,-19.5419 410.817,-26.7279 413.5991,-20.3045"/>
</g>
<!-- Node15 -->
<g id="node16" class="node">
<title>Node15</title>
<polygon fill="none" stroke="#bfbfbf" points="459,-.5 459,-19.5 499,-19.5 499,-.5 459,-.5"/>
<text text-anchor="middle" x="479" y="-7.5" font-family="Helvetica,sans-Serif" font-size="10.00" fill="#000000">utility</text>
</g>
<!-- Node10&#45;&gt;Node15 -->
<g id="edge15" class="edge">
<title>Node10&#45;&gt;Node15</title>
<path fill="none" stroke="#191970" d="M516.125,-61.8906C509.6407,-52.8273 499.7586,-39.0149 491.8199,-27.9188"/>
<polygon fill="#191970" stroke="#191970" points="494.6371,-25.8412 485.9719,-19.7449 488.9441,-29.9143 494.6371,-25.8412"/>
</g>
<!-- Node16&#45;&gt;Node5 -->
<g id="edge18" class="edge">
<title>Node16&#45;&gt;Node5</title>
<path fill="none" stroke="#191970" d="M689.1563,-184.8906C693.9232,-176.0068 701.1385,-162.5601 707.0297,-151.5811"/>
<polygon fill="#191970" stroke="#191970" points="710.1269,-153.2114 711.7711,-142.7449 703.9588,-149.9016 710.1269,-153.2114"/>
</g>
<!-- Node16&#45;&gt;Node17 -->
<g id="edge19" class="edge">
<title>Node16&#45;&gt;Node17</title>
<path fill="none" stroke="#191970" d="M645.8243,-188.3216C576.2974,-177.0692 429.1528,-153.255 352.5889,-140.8637"/>
<polygon fill="#191970" stroke="#191970" points="353.1473,-137.4086 342.7165,-139.266 352.0289,-144.3187 353.1473,-137.4086"/>
</g>
<!-- Node16&#45;&gt;Node21 -->
<g id="edge27" class="edge">
<title>Node16&#45;&gt;Node21</title>
<path fill="none" stroke="#191970" d="M722.0718,-186.0776C777.8593,-173.7362 880.7067,-150.984 931.6988,-139.7033"/>
<polygon fill="#191970" stroke="#191970" points="932.4593,-143.1198 941.4672,-137.5423 930.9472,-136.285 932.4593,-143.1198"/>
</g>
<!-- Node17&#45;&gt;Node2 -->
<g id="edge25" class="edge">
<title>Node17&#45;&gt;Node2</title>
<path fill="none" stroke="#191970" d="M321.8125,-123.3906C340.4685,-113.3262 369.9797,-97.4057 391.3974,-85.8514"/>
<polygon fill="#191970" stroke="#191970" points="393.1734,-88.8702 400.3126,-81.0419 389.8498,-82.7095 393.1734,-88.8702"/>
</g>
<!-- Node17&#45;&gt;Node12 -->
<g id="edge20" class="edge">
<title>Node17&#45;&gt;Node12</title>
<path fill="none" stroke="#191970" d="M265.1138,-131.2503C204.4504,-127.6148 91.665,-116.9126 67,-87 36.5131,-50.0269 100.3983,-29.7896 157.1265,-19.4633"/>
<polygon fill="#191970" stroke="#191970" points="157.9901,-22.8658 167.2452,-17.7089 156.7943,-15.9687 157.9901,-22.8658"/>
</g>
<!-- Node17&#45;&gt;Node13 -->
<g id="edge21" class="edge">
<title>Node17&#45;&gt;Node13</title>
<path fill="none" stroke="#191970" d="M265.368,-131.6371C202.4409,-128.5151 82.1787,-118.481 56,-87 42.7592,-71.0774 46.2695,-46.2421 51.1099,-29.1036"/>
<polygon fill="#191970" stroke="#191970" points="54.4445,-30.1666 54.1578,-19.5756 47.7774,-28.0338 54.4445,-30.1666"/>
</g>
<!-- Node17&#45;&gt;Node14 -->
<g id="edge24" class="edge">
<title>Node17&#45;&gt;Node14</title>
<path fill="none" stroke="#191970" d="M265.2555,-131.4705C193.756,-127.2891 52.5108,-111.8954 100,-56 107.0789,-47.668 238.6005,-28.88 319.1679,-18.0692"/>
<polygon fill="#191970" stroke="#191970" points="319.7637,-21.5208 329.2121,-16.7273 318.8367,-14.5824 319.7637,-21.5208"/>
</g>
<!-- Node18 -->
<g id="node19" class="node">
<title>Node18</title>
<polygon fill="none" stroke="#bfbfbf" points="109,-62 109,-81 183,-81 183,-62 109,-62"/>
<text text-anchor="middle" x="146" y="-69" font-family="Helvetica,sans-Serif" font-size="10.00" fill="#000000">deal.II/fe/fe.h</text>
</g>
<!-- Node17&#45;&gt;Node18 -->
<g id="edge22" class="edge">
<title>Node17&#45;&gt;Node18</title>
<path fill="none" stroke="#191970" d="M279.3125,-123.3906C252.6443,-113.0103 209.9718,-96.4004 180.1089,-84.7766"/>
<polygon fill="#191970" stroke="#191970" points="181.1027,-81.4076 170.5141,-81.0419 178.5635,-87.9309 181.1027,-81.4076"/>
</g>
<!-- Node19 -->
<g id="node20" class="node">
<title>Node19</title>
<polygon fill="none" stroke="#bfbfbf" points="201,-62 201,-81 313,-81 313,-62 201,-62"/>
<text text-anchor="middle" x="257" y="-69" font-family="Helvetica,sans-Serif" font-size="10.00" fill="#000000">deal.II/fe/fe_system.h</text>
</g>
<!-- Node17&#45;&gt;Node19 -->
<g id="edge23" class="edge">
<title>Node17&#45;&gt;Node19</title>
<path fill="none" stroke="#191970" d="M296.6563,-123.3906C289.7298,-114.3273 279.174,-100.5149 270.694,-89.4188"/>
<polygon fill="#191970" stroke="#191970" points="273.3003,-87.065 264.4473,-81.2449 267.7385,-91.3155 273.3003,-87.065"/>
</g>
<!-- Node20 -->
<g id="node21" class="node">
<title>Node20</title>
<polygon fill="none" stroke="#bfbfbf" points="331.5,-62 331.5,-81 372.5,-81 372.5,-62 331.5,-62"/>
<text text-anchor="middle" x="352" y="-69" font-family="Helvetica,sans-Serif" font-size="10.00" fill="#000000">string</text>
</g>
<!-- Node17&#45;&gt;Node20 -->
<g id="edge26" class="edge">
<title>Node17&#45;&gt;Node20</title>
<path fill="none" stroke="#191970" d="M311.5,-123.3906C318.5738,-114.3273 329.3542,-100.5149 338.0146,-89.4188"/>
<polygon fill="#191970" stroke="#191970" points="341.0006,-91.2815 344.3943,-81.2449 335.4824,-86.9746 341.0006,-91.2815"/>
</g>
<!-- Node21&#45;&gt;Node2 -->
<g id="edge33" class="edge">
<title>Node21&#45;&gt;Node2</title>
<path fill="none" stroke="#191970" d="M941.4286,-132.0049C858.5247,-127.8609 548.8493,-111.061 454,-87 451.5183,-86.3705 448.9885,-85.5912 446.4783,-84.7197"/>
<polygon fill="#191970" stroke="#191970" points="447.625,-81.41 437.0372,-81.0239 445.0733,-87.9284 447.625,-81.41"/>
</g>
<!-- Node21&#45;&gt;Node7 -->
<g id="edge29" class="edge">
<title>Node21&#45;&gt;Node7</title>
<path fill="none" stroke="#191970" d="M944.9688,-123.3906C927.211,-113.3713 899.167,-97.5483 878.7118,-86.0071"/>
<polygon fill="#191970" stroke="#191970" points="880.3409,-82.9077 869.9117,-81.0419 876.9011,-89.0042 880.3409,-82.9077"/>
</g>
<!-- Node21&#45;&gt;Node9 -->
<g id="edge35" class="edge">
<title>Node21&#45;&gt;Node9</title>
<path fill="none" stroke="#191970" d="M982.6011,-131.2402C1027.8627,-126.9032 1133.6528,-114.0331 1155,-87 1193.9265,-37.7053 1076.4104,-18.9132 1017.0669,-12.6947"/>
<polygon fill="#191970" stroke="#191970" points="1017.3486,-9.2056 1007.0532,-11.7067 1016.6612,-16.1717 1017.3486,-9.2056"/>
</g>
<!-- Node22 -->
<g id="node23" class="node">
<title>Node22</title>
<polygon fill="none" stroke="#bfbfbf" points="1202,-62 1202,-81 1328,-81 1328,-62 1202,-62"/>
<text text-anchor="middle" x="1265" y="-69" font-family="Helvetica,sans-Serif" font-size="10.00" fill="#000000">deal.II/base/exceptions.h</text>
</g>
<!-- Node21&#45;&gt;Node22 -->
<g id="edge28" class="edge">
<title>Node21&#45;&gt;Node22</title>
<path fill="none" stroke="#191970" d="M982.8264,-128.7729C1028.6731,-119.4673 1139.6732,-96.9376 1207.994,-83.0705"/>
<polygon fill="#191970" stroke="#191970" points="1209.0597,-86.4257 1218.1637,-81.0064 1207.6673,-79.5655 1209.0597,-86.4257"/>
</g>
<!-- Node23 -->
<g id="node24" class="node">
<title>Node23</title>
<polygon fill="none" stroke="#bfbfbf" points="1030,-62 1030,-81 1068,-81 1068,-62 1030,-62"/>
<text text-anchor="middle" x="1049" y="-69" font-family="Helvetica,sans-Serif" font-size="10.00" fill="#000000">array</text>
</g>
<!-- Node21&#45;&gt;Node23 -->
<g id="edge30" class="edge">
<title>Node21&#45;&gt;Node23</title>
<path fill="none" stroke="#191970" d="M975.5938,-123.3906C989.3843,-113.6421 1010.9472,-98.3994 1027.141,-86.9521"/>
<polygon fill="#191970" stroke="#191970" points="1029.3563,-89.6723 1035.5017,-81.0419 1025.3156,-83.9563 1029.3563,-89.6723"/>
</g>
<!-- Node24 -->
<g id="node25" class="node">
<title>Node24</title>
<polygon fill="none" stroke="#bfbfbf" points="1086.5,-62 1086.5,-81 1145.5,-81 1145.5,-62 1086.5,-62"/>
<text text-anchor="middle" x="1116" y="-69" font-family="Helvetica,sans-Serif" font-size="10.00" fill="#000000">exception</text>
</g>
<!-- Node21&#45;&gt;Node24 -->
<g id="edge31" class="edge">
<title>Node21&#45;&gt;Node24</title>
<path fill="none" stroke="#191970" d="M982.7691,-124.7058C1008.4018,-114.4694 1052.3141,-96.933 1082.6814,-84.8058"/>
<polygon fill="#191970" stroke="#191970" points="1084.0359,-88.0337 1092.0247,-81.0746 1081.4398,-81.5329 1084.0359,-88.0337"/>
</g>
<!-- Node25 -->
<g id="node26" class="node">
<title>Node25</title>
<polygon fill="none" stroke="#bfbfbf" points="899.5,-62 899.5,-81 958.5,-81 958.5,-62 899.5,-62"/>
<text text-anchor="middle" x="929" y="-69" font-family="Helvetica,sans-Serif" font-size="10.00" fill="#000000">functional</text>
</g>
<!-- Node21&#45;&gt;Node25 -->
<g id="edge32" class="edge">
<title>Node21&#45;&gt;Node25</title>
<path fill="none" stroke="#191970" d="M956.8438,-123.3906C952.0768,-114.5068 944.8615,-101.0601 938.9703,-90.0811"/>
<polygon fill="#191970" stroke="#191970" points="942.0412,-88.4016 934.2289,-81.2449 935.8731,-91.7114 942.0412,-88.4016"/>
</g>
<!-- Node26 -->
<g id="node27" class="node">
<title>Node26</title>
<polygon fill="none" stroke="#bfbfbf" points="976.5,-62 976.5,-81 1011.5,-81 1011.5,-62 976.5,-62"/>
<text text-anchor="middle" x="994" y="-69" font-family="Helvetica,sans-Serif" font-size="10.00" fill="#000000">new</text>
</g>
<!-- Node21&#45;&gt;Node26 -->
<g id="edge34" class="edge">
<title>Node21&#45;&gt;Node26</title>
<path fill="none" stroke="#191970" d="M967,-123.3906C971.5758,-114.5965 978.4781,-101.3312 984.1583,-90.4145"/>
<polygon fill="#191970" stroke="#191970" points="987.4185,-91.7314 988.9295,-81.2449 981.2088,-88.5003 987.4185,-91.7314"/>
</g>
<!-- Node27&#45;&gt;Node9 -->
<g id="edge41" class="edge">
<title>Node27&#45;&gt;Node9</title>
<path fill="none" stroke="#191970" d="M1323.3825,-179.4539C1339.4992,-151.4915 1367.8735,-91.1706 1337,-56 1316.0396,-32.1223 1100.4516,-16.865 1017.3861,-11.8335"/>
<polygon fill="#191970" stroke="#191970" points="1017.4447,-8.3309 1007.2545,-11.231 1017.0291,-15.3186 1017.4447,-8.3309"/>
</g>
<!-- Node28 -->
<g id="node29" class="node">
<title>Node28</title>
<polygon fill="none" stroke="#bfbfbf" points="1384,-123.5 1384,-142.5 1424,-142.5 1424,-123.5 1384,-123.5"/>
<text text-anchor="middle" x="1404" y="-130.5" font-family="Helvetica,sans-Serif" font-size="10.00" fill="#000000">limits</text>
</g>
<!-- Node27&#45;&gt;Node28 -->
<g id="edge39" class="edge">
<title>Node27&#45;&gt;Node28</title>
<path fill="none" stroke="#191970" d="M1336.2472,-179.2977C1349.9967,-169.9022 1367.5921,-157.8787 1381.4057,-148.4395"/>
<polygon fill="#191970" stroke="#191970" points="1383.5768,-151.195 1389.8586,-142.6633 1379.6275,-145.4155 1383.5768,-151.195"/>
</g>
<!-- Node29 -->
<g id="node30" class="node">
<title>Node29</title>
<polygon fill="none" stroke="#bfbfbf" points="1165.5,-123.5 1165.5,-142.5 1200.5,-142.5 1200.5,-123.5 1165.5,-123.5"/>
<text text-anchor="middle" x="1183" y="-130.5" font-family="Helvetica,sans-Serif" font-size="10.00" fill="#000000">map</text>
</g>
<!-- Node27&#45;&gt;Node29 -->
<g id="edge40" class="edge">
<title>Node27&#45;&gt;Node29</title>
<path fill="none" stroke="#191970" d="M1281.9538,-179.4554C1259.8517,-169.0792 1230.8027,-155.4417 1209.9034,-145.6302"/>
<polygon fill="#191970" stroke="#191970" points="1211.1865,-142.3661 1200.647,-141.2847 1208.2118,-148.7026 1211.1865,-142.3661"/>
</g>
<!-- Node30 -->
<g id="node31" class="node">
<title>Node30</title>
<g id="a_node31"><a xlink:href="general__exceptions_8h.html" target="_top" xlink:title="Definition of self&#45;defined general exceptions. ">
<polygon fill="none" stroke="#000000" points="1218.5,-123.5 1218.5,-142.5 1327.5,-142.5 1327.5,-123.5 1218.5,-123.5"/>
<text text-anchor="middle" x="1273" y="-130.5" font-family="Helvetica,sans-Serif" font-size="10.00" fill="#000000">general_exceptions.h</text>
</a>
</g>
</g>
<!-- Node27&#45;&gt;Node30 -->
<g id="edge42" class="edge">
<title>Node27&#45;&gt;Node30</title>
<path fill="none" stroke="#191970" d="M1303.8652,-179.2977C1298.2332,-170.8498 1291.1849,-160.2773 1285.246,-151.369"/>
<polygon fill="#191970" stroke="#191970" points="1288.0238,-149.226 1279.5646,-142.8469 1282.1995,-153.1089 1288.0238,-149.226"/>
</g>
<!-- Node31 -->
<g id="node32" class="node">
<title>Node31</title>
<g id="a_node32"><a xlink:href="lapack__helpers_8h.html" target="_top" xlink:title="Exposes LAPACK helper functions defined in lapack_full_matrix.cc and define new ones by following the...">
<polygon fill="none" stroke="#000000" points="1883,-123.5 1883,-142.5 1973,-142.5 1973,-123.5 1883,-123.5"/>
<text text-anchor="middle" x="1928" y="-130.5" font-family="Helvetica,sans-Serif" font-size="10.00" fill="#000000">lapack_helpers.h</text>
</a>
</g>
</g>
<!-- Node27&#45;&gt;Node31 -->
<g id="edge44" class="edge">
<title>Node27&#45;&gt;Node31</title>
<path fill="none" stroke="#191970" d="M1361.6686,-189.7254C1473.7824,-178.4957 1753.683,-150.4601 1872.8649,-138.5225"/>
<polygon fill="#191970" stroke="#191970" points="1873.2668,-141.9998 1882.8681,-137.5205 1872.5691,-135.0347 1873.2668,-141.9998"/>
</g>
<!-- Node30&#45;&gt;Node22 -->
<g id="edge43" class="edge">
<title>Node30&#45;&gt;Node22</title>
<path fill="none" stroke="#191970" d="M1271.75,-123.3906C1270.6411,-114.8657 1268.9856,-102.1392 1267.5917,-91.4235"/>
<polygon fill="#191970" stroke="#191970" points="1271.0284,-90.7098 1266.2676,-81.2449 1264.0869,-91.6128 1271.0284,-90.7098"/>
</g>
<!-- Node32 -->
<g id="node33" class="node">
<title>Node32</title>
<polygon fill="none" stroke="#bfbfbf" points="1730,-62 1730,-81 1846,-81 1846,-62 1730,-62"/>
<text text-anchor="middle" x="1788" y="-69" font-family="Helvetica,sans-Serif" font-size="10.00" fill="#000000">deal.II/base/numbers.h</text>
</g>
<!-- Node31&#45;&gt;Node32 -->
<g id="edge45" class="edge">
<title>Node31&#45;&gt;Node32</title>
<path fill="none" stroke="#191970" d="M1906.125,-123.3906C1882.7004,-113.1005 1845.3404,-96.6888 1818.9159,-85.0809"/>
<polygon fill="#191970" stroke="#191970" points="1820.2846,-81.8594 1809.7214,-81.0419 1817.4693,-88.2683 1820.2846,-81.8594"/>
</g>
<!-- Node33 -->
<g id="node34" class="node">
<title>Node33</title>
<polygon fill="none" stroke="#bfbfbf" points="1864,-56.5 1864,-86.5 1992,-86.5 1992,-56.5 1864,-56.5"/>
<text text-anchor="start" x="1872" y="-74.5" font-family="Helvetica,sans-Serif" font-size="10.00" fill="#000000">deal.II/lac/blas_extension</text>
<text text-anchor="middle" x="1928" y="-63.5" font-family="Helvetica,sans-Serif" font-size="10.00" fill="#000000">_templates.h</text>
</g>
<!-- Node31&#45;&gt;Node33 -->
<g id="edge46" class="edge">
<title>Node31&#45;&gt;Node33</title>
<path fill="none" stroke="#191970" d="M1928,-123.3906C1928,-116.2234 1928,-106.0862 1928,-96.671"/>
<polygon fill="#191970" stroke="#191970" points="1931.5001,-96.5446 1928,-86.5446 1924.5001,-96.5446 1931.5001,-96.5446"/>
</g>
<!-- Node34 -->
<g id="node35" class="node">
<title>Node34</title>
<polygon fill="none" stroke="#bfbfbf" points="2010,-62 2010,-81 2136,-81 2136,-62 2010,-62"/>
<text text-anchor="middle" x="2073" y="-69" font-family="Helvetica,sans-Serif" font-size="10.00" fill="#000000">deal.II/lac/block_vector.h</text>
</g>
<!-- Node31&#45;&gt;Node34 -->
<g id="edge47" class="edge">
<title>Node31&#45;&gt;Node34</title>
<path fill="none" stroke="#191970" d="M1950.6563,-123.3906C1974.9174,-113.1005 2013.6118,-96.6888 2040.98,-85.0809"/>
<polygon fill="#191970" stroke="#191970" points="2042.6633,-88.1688 2050.5028,-81.0419 2039.93,-81.7245 2042.6633,-88.1688"/>
</g>
<!-- Node35 -->
<g id="node36" class="node">
<title>Node35</title>
<polygon fill="none" stroke="#bfbfbf" points="2154,-62 2154,-81 2270,-81 2270,-62 2154,-62"/>
<text text-anchor="middle" x="2212" y="-69" font-family="Helvetica,sans-Serif" font-size="10.00" fill="#000000">deal.II/lac/full_matrix.h</text>
</g>
<!-- Node31&#45;&gt;Node35 -->
<g id="edge48" class="edge">
<title>Node31&#45;&gt;Node35</title>
<path fill="none" stroke="#191970" d="M1973.3549,-123.6397C2017.293,-114.5118 2085.7826,-100.1251 2145,-87 2150.3182,-85.8213 2155.8689,-84.5704 2161.4002,-83.3104"/>
<polygon fill="#191970" stroke="#191970" points="2162.3157,-86.6914 2171.2815,-81.0465 2160.7524,-79.8682 2162.3157,-86.6914"/>
</g>
<!-- Node36 -->
<g id="node37" class="node">
<title>Node36</title>
<polygon fill="none" stroke="#bfbfbf" points="2288.5,-56.5 2288.5,-86.5 2379.5,-86.5 2379.5,-56.5 2288.5,-56.5"/>
<text text-anchor="start" x="2296.5" y="-74.5" font-family="Helvetica,sans-Serif" font-size="10.00" fill="#000000">deal.II/lac/lapack</text>
<text text-anchor="middle" x="2334" y="-63.5" font-family="Helvetica,sans-Serif" font-size="10.00" fill="#000000">_full_matrix.h</text>
</g>
<!-- Node31&#45;&gt;Node36 -->
<g id="edge49" class="edge">
<title>Node31&#45;&gt;Node36</title>
<path fill="none" stroke="#191970" d="M1973.2262,-129.1786C2038.507,-123.2024 2163.0254,-110.0818 2278.1637,-86.9848"/>
<polygon fill="#191970" stroke="#191970" points="2279.1051,-90.365 2288.2055,-84.9398 2277.7082,-83.5058 2279.1051,-90.365"/>
</g>
<!-- Node37 -->
<g id="node38" class="node">
<title>Node37</title>
<polygon fill="none" stroke="#bfbfbf" points="2397.5,-56.5 2397.5,-86.5 2488.5,-86.5 2488.5,-56.5 2397.5,-56.5"/>
<text text-anchor="start" x="2405.5" y="-74.5" font-family="Helvetica,sans-Serif" font-size="10.00" fill="#000000">deal.II/lac/lapack</text>
<text text-anchor="middle" x="2443" y="-63.5" font-family="Helvetica,sans-Serif" font-size="10.00" fill="#000000">_support.h</text>
</g>
<!-- Node31&#45;&gt;Node37 -->
<g id="edge50" class="edge">
<title>Node31&#45;&gt;Node37</title>
<path fill="none" stroke="#191970" d="M1973.2134,-131.1904C2054.4586,-127.3548 2230.5438,-116.3836 2387.186,-87.1441"/>
<polygon fill="#191970" stroke="#191970" points="2388.3024,-90.4948 2397.4744,-85.1916 2386.9972,-83.6176 2388.3024,-90.4948"/>
</g>
<!-- Node38 -->
<g id="node39" class="node">
<title>Node38</title>
<polygon fill="none" stroke="#bfbfbf" points="2506.5,-56.5 2506.5,-86.5 2597.5,-86.5 2597.5,-56.5 2506.5,-56.5"/>
<text text-anchor="start" x="2514.5" y="-74.5" font-family="Helvetica,sans-Serif" font-size="10.00" fill="#000000">deal.II/lac/lapack</text>
<text text-anchor="middle" x="2552" y="-63.5" font-family="Helvetica,sans-Serif" font-size="10.00" fill="#000000">_templates.h</text>
</g>
<!-- Node31&#45;&gt;Node38 -->
<g id="edge51" class="edge">
<title>Node31&#45;&gt;Node38</title>
<path fill="none" stroke="#191970" d="M1973.1027,-132.399C2068.375,-130.4778 2297.0863,-122.4266 2496.4168,-87.0679"/>
<polygon fill="#191970" stroke="#191970" points="2497.2651,-90.4715 2506.486,-85.2537 2496.0239,-83.5824 2497.2651,-90.4715"/>
</g>
<!-- Node39 -->
<g id="node40" class="node">
<title>Node39</title>
<polygon fill="none" stroke="#bfbfbf" points="1384,-56.5 1384,-86.5 1476,-86.5 1476,-56.5 1384,-56.5"/>
<text text-anchor="start" x="1392" y="-74.5" font-family="Helvetica,sans-Serif" font-size="10.00" fill="#000000">deal.II/lac/sparse</text>
<text text-anchor="middle" x="1430" y="-63.5" font-family="Helvetica,sans-Serif" font-size="10.00" fill="#000000">_matrix.h</text>
</g>
<!-- Node31&#45;&gt;Node39 -->
<g id="edge52" class="edge">
<title>Node31&#45;&gt;Node39</title>
<path fill="none" stroke="#191970" d="M1882.7817,-130.7811C1802.3691,-126.2843 1629.4657,-114.1248 1486,-87 1485.8978,-86.9807 1485.7955,-86.9613 1485.6931,-86.9417"/>
<polygon fill="#191970" stroke="#191970" points="1486.5108,-83.5374 1476.0021,-84.8859 1485.0581,-90.385 1486.5108,-83.5374"/>
</g>
<!-- Node40 -->
<g id="node41" class="node">
<title>Node40</title>
<polygon fill="none" stroke="#bfbfbf" points="1494.5,-62 1494.5,-81 1595.5,-81 1595.5,-62 1494.5,-62"/>
<text text-anchor="middle" x="1545" y="-69" font-family="Helvetica,sans-Serif" font-size="10.00" fill="#000000">deal.II/lac/utilities.h</text>
</g>
<!-- Node31&#45;&gt;Node40 -->
<g id="edge53" class="edge">
<title>Node31&#45;&gt;Node40</title>
<path fill="none" stroke="#191970" d="M1882.7939,-128.1718C1820.0865,-121.1093 1703.3149,-106.6363 1605,-87 1599.8567,-85.9727 1594.4965,-84.7746 1589.1885,-83.508"/>
<polygon fill="#191970" stroke="#191970" points="1589.6641,-80.0202 1579.116,-81.0147 1587.982,-86.8151 1589.6641,-80.0202"/>
</g>
<!-- Node41 -->
<g id="node42" class="node">
<title>Node41</title>
<polygon fill="none" stroke="#bfbfbf" points="1614,-62 1614,-81 1712,-81 1712,-62 1614,-62"/>
<text text-anchor="middle" x="1663" y="-69" font-family="Helvetica,sans-Serif" font-size="10.00" fill="#000000">deal.II/lac/vector.h</text>
</g>
<!-- Node31&#45;&gt;Node41 -->
<g id="edge54" class="edge">
<title>Node31&#45;&gt;Node41</title>
<path fill="none" stroke="#191970" d="M1882.6451,-123.5007C1840.6206,-114.5617 1776.4277,-100.5584 1721,-87 1716.6102,-85.9262 1712.0435,-84.7715 1707.4859,-83.5941"/>
<polygon fill="#191970" stroke="#191970" points="1708.1555,-80.1514 1697.5949,-81.0029 1706.3815,-86.9229 1708.1555,-80.1514"/>
</g>
</g>
</svg>
        <g id="navigator" transform="translate(0 0)" fill="#404254">
                <rect fill="#f2f5e9" fill-opacity="0.5" stroke="#606060" stroke-width=".5" x="0" y="0" width="60" height="60"/>
                <use id="zoomplus" xlink:href="#zoomPlus" x="17" y="9" onmousedown="handleZoom(evt,'in')"/>
                <use id="zoomminus" xlink:href="#zoomMin" x="42" y="9" onmousedown="handleZoom(evt,'out')"/>
                <use id="reset" xlink:href="#resetDef" x="30" y="36" onmousedown="handleReset()"/>
                <g id="arrowUp" xlink:href="#dirArrow" transform="translate(30 24)" onmousedown="handlePan(0,-1)">
                  <use xlink:href="#rim" fill="#404040">
                        <set attributeName="fill" to="#808080" begin="arrowUp.mouseover" end="arrowUp.mouseout"/>
                  </use>
                  <path fill="none" stroke="white" stroke-width="1.5" d="M0,-3.0v7 M-2.5,-0.5L0,-3.0L2.5,-0.5"/>
                </g>
                <g id="arrowRight" xlink:href="#dirArrow" transform="rotate(90) translate(36 -43)" onmousedown="handlePan(1,0)">
                  <use xlink:href="#rim" fill="#404040">
                        <set attributeName="fill" to="#808080" begin="arrowRight.mouseover" end="arrowRight.mouseout"/>
                  </use>
                  <path fill="none" stroke="white" stroke-width="1.5" d="M0,-3.0v7 M-2.5,-0.5L0,-3.0L2.5,-0.5"/>
                </g>
                <g id="arrowDown" xlink:href="#dirArrow" transform="rotate(180) translate(-30 -48)" onmousedown="handlePan(0,1)">
                  <use xlink:href="#rim" fill="#404040">
                        <set attributeName="fill" to="#808080" begin="arrowDown.mouseover" end="arrowDown.mouseout"/>
                  </use>
                  <path fill="none" stroke="white" stroke-width="1.5" d="M0,-3.0v7 M-2.5,-0.5L0,-3.0L2.5,-0.5"/>
                </g>
                <g id="arrowLeft" xlink:href="#dirArrow" transform="rotate(270) translate(-36 17)" onmousedown="handlePan(-1,0)">
                  <use xlink:href="#rim" fill="#404040">
                        <set attributeName="fill" to="#808080" begin="arrowLeft.mouseover" end="arrowLeft.mouseout"/>
                  </use>
                  <path fill="none" stroke="white" stroke-width="1.5" d="M0,-3.0v7 M-2.5,-0.5L0,-3.0L2.5,-0.5"/>
                </g>
        </g>
        <svg viewBox="0 0 15 15" width="100%" height="30px" preserveAspectRatio="xMaxYMin meet">
         <g id="arrow_out" transform="scale(0.3 0.3)">
          <a xlink:href="bct-subtree_8cc__incl_org.svg" target="_base">
           <rect id="button" ry="5" rx="5" y="6" x="6" height="38" width="38"
                fill="#f2f5e9" fill-opacity="0.5" stroke="#606060" stroke-width="1.0"/>
           <path id="arrow"
             d="M 11.500037,31.436501 C 11.940474,20.09759 22.043105,11.32322 32.158766,21.979434 L 37.068811,17.246167 C 37.068811,17.246167 37.088388,32 37.088388,32 L 22.160133,31.978069 C 22.160133,31.978069 26.997745,27.140456 26.997745,27.140456 C 18.528582,18.264221 13.291696,25.230495 11.500037,31.436501 z"
             style="fill:#404040;"/>
          </a>
         </g>
        </svg>
</svg>
