<?xml version="1.0" encoding="UTF-8" standalone="no"?>
<!DOCTYPE svg PUBLIC "-//W3C//DTD SVG 1.1//EN"
 "http://www.w3.org/Graphics/SVG/1.1/DTD/svg11.dtd">
<!-- Generated by graphviz version 2.40.1 (20161225.0304)
 -->
<!-- Title: /home/jihuan/Projects/deal.ii/program/dealii&#45;9.1.1/examples/laplace&#45;bem/tests/block&#45;cluster&#45;tree&#45;visualize&#45;with&#45;rank/bct&#45;visualize&#45;with&#45;rank.cc Pages: 1 -->
<!--zoomable 452 -->
<svg id="main" version="1.1" xmlns="http://www.w3.org/2000/svg" xmlns:xlink="http://www.w3.org/1999/xlink" xml:space="preserve" onload="init(evt)">
<style type="text/css"><![CDATA[
.edge:hover path { stroke: red; }
.edge:hover polygon { stroke: red; fill: red; }
]]></style>
<script type="text/javascript"><![CDATA[
var edges = document.getElementsByTagName('g');
if (edges && edges.length) {
  for (var i=0;i<edges.length;i++) {
    if (edges[i].id.substr(0,4)=='edge') {
      edges[i].setAttribute('class','edge');
    }
  }
}
]]></script>
        <defs>
                <circle id="rim" cx="0" cy="0" r="7"/>
                <circle id="rim2" cx="0" cy="0" r="3.5"/>
                <g id="zoomPlus">
                        <use xlink:href="#rim" fill="#404040">
                                <set attributeName="fill" to="#808080" begin="zoomplus.mouseover" end="zoomplus.mouseout"/>
                        </use>
                        <path d="M-4,0h8M0,-4v8" fill="none" stroke="white" stroke-width="1.5" pointer-events="none"/>
                </g>
                <g id="zoomMin">
                        <use xlink:href="#rim" fill="#404040">
                                <set attributeName="fill" to="#808080" begin="zoomminus.mouseover" end="zoomminus.mouseout"/>
                        </use>
                        <path d="M-4,0h8" fill="none" stroke="white" stroke-width="1.5" pointer-events="none"/>
                </g>
                <g id="dirArrow">
                        <path fill="none" stroke="white" stroke-width="1.5" d="M0,-3.0v7 M-2.5,-0.5L0,-3.0L2.5,-0.5"/>
                </g>
               <g id="resetDef">
                       <use xlink:href="#rim2" fill="#404040">
                               <set attributeName="fill" to="#808080" begin="reset.mouseover" end="reset.mouseout"/>
                       </use>
               </g>
        </defs>

<script type="text/javascript">
var viewWidth = 2786;
var viewHeight = 452;
var sectionId = 'dynsection-0';
</script>
<script xlink:href="svgpan.js"/>
<svg id="graph" class="graph">
<g id="viewport">
<title>/home/jihuan/Projects/deal.ii/program/dealii&#45;9.1.1/examples/laplace&#45;bem/tests/block&#45;cluster&#45;tree&#45;visualize&#45;with&#45;rank/bct&#45;visualize&#45;with&#45;rank.cc</title>
<!-- Node0 -->
<g id="node1" class="node">
<title>Node0</title>
<polygon fill="#bfbfbf" stroke="#000000" points="680.5,-369.5 680.5,-443.5 811.5,-443.5 811.5,-369.5 680.5,-369.5"/>
<text text-anchor="start" x="688.5" y="-431.5" font-family="Helvetica,sans-Serif" font-size="10.00" fill="#000000">/home/jihuan/Projects</text>
<text text-anchor="start" x="688.5" y="-420.5" font-family="Helvetica,sans-Serif" font-size="10.00" fill="#000000">/deal.ii/program/dealii</text>
<text text-anchor="start" x="688.5" y="-409.5" font-family="Helvetica,sans-Serif" font-size="10.00" fill="#000000">&#45;9.1.1/examples/laplace</text>
<text text-anchor="start" x="688.5" y="-398.5" font-family="Helvetica,sans-Serif" font-size="10.00" fill="#000000">&#45;bem/tests/block&#45;cluster</text>
<text text-anchor="start" x="688.5" y="-387.5" font-family="Helvetica,sans-Serif" font-size="10.00" fill="#000000">&#45;tree&#45;visualize&#45;with&#45;rank</text>
<text text-anchor="middle" x="746" y="-376.5" font-family="Helvetica,sans-Serif" font-size="10.00" fill="#000000">/bct&#45;visualize&#45;with&#45;rank.cc</text>
</g>
<!-- Node1 -->
<g id="node2" class="node">
<title>Node1</title>
<polygon fill="none" stroke="#bfbfbf" points="336,-73 336,-92 390,-92 390,-73 336,-73"/>
<text text-anchor="middle" x="363" y="-80" font-family="Helvetica,sans-Serif" font-size="10.00" fill="#000000">iostream</text>
</g>
<!-- Node0&#45;&gt;Node1 -->
<g id="edge1" class="edge">
<title>Node0&#45;&gt;Node1</title>
<path fill="none" stroke="#191970" d="M680.4641,-384.6364C630.4248,-363.3259 570,-325.4844 570,-267 570,-267 570,-267 570,-205.5 570,-185.0993 449.6402,-124.2927 392.476,-96.5633"/>
<polygon fill="#191970" stroke="#191970" points="393.7521,-93.2929 383.2249,-92.0971 390.7087,-99.5967 393.7521,-93.2929"/>
</g>
<!-- Node2 -->
<g id="node3" class="node">
<title>Node2</title>
<g id="a_node3"><a xlink:href="block__cluster__tree_8h.html" target="_top" xlink:title="Implementation of the class BlockClusterTree. ">
<polygon fill="none" stroke="#000000" points="694,-313.5 694,-332.5 798,-332.5 798,-313.5 694,-313.5"/>
<text text-anchor="middle" x="746" y="-320.5" font-family="Helvetica,sans-Serif" font-size="10.00" fill="#000000">block_cluster_tree.h</text>
</a>
</g>
</g>
<!-- Node0&#45;&gt;Node2 -->
<g id="edge2" class="edge">
<title>Node0&#45;&gt;Node2</title>
<path fill="none" stroke="#191970" d="M746,-369.1461C746,-360.0558 746,-350.6845 746,-342.7816"/>
<polygon fill="#191970" stroke="#191970" points="749.5001,-342.7701 746,-332.7701 742.5001,-342.7702 749.5001,-342.7701"/>
</g>
<!-- Node26 -->
<g id="node27" class="node">
<title>Node26</title>
<g id="a_node27"><a xlink:href="lapack__full__matrix__ext_8h_source.html" target="_top" xlink:title="lapack_full_matrix\l_ext.h">
<polygon fill="none" stroke="#000000" points="1047.5,-190.5 1047.5,-220.5 1142.5,-220.5 1142.5,-190.5 1047.5,-190.5"/>
<text text-anchor="start" x="1055.5" y="-208.5" font-family="Helvetica,sans-Serif" font-size="10.00" fill="#000000">lapack_full_matrix</text>
<text text-anchor="middle" x="1095" y="-197.5" font-family="Helvetica,sans-Serif" font-size="10.00" fill="#000000">_ext.h</text>
</a>
</g>
</g>
<!-- Node0&#45;&gt;Node26 -->
<g id="edge66" class="edge">
<title>Node0&#45;&gt;Node26</title>
<path fill="none" stroke="#191970" d="M810.4187,-369.3993C883.8918,-327.0838 1001.372,-259.4233 1059.7285,-225.814"/>
<polygon fill="#191970" stroke="#191970" points="1061.6521,-228.7451 1068.5709,-220.7213 1058.1585,-222.6792 1061.6521,-228.7451"/>
</g>
<!-- Node3 -->
<g id="node4" class="node">
<title>Node3</title>
<g id="a_node4"><a xlink:href="block__cluster_8h.html" target="_top" xlink:title="Implementation of the class BlockCluster. ">
<polygon fill="none" stroke="#000000" points="774.5,-257.5 774.5,-276.5 857.5,-276.5 857.5,-257.5 774.5,-257.5"/>
<text text-anchor="middle" x="816" y="-264.5" font-family="Helvetica,sans-Serif" font-size="10.00" fill="#000000">block_cluster.h</text>
</a>
</g>
</g>
<!-- Node2&#45;&gt;Node3 -->
<g id="edge3" class="edge">
<title>Node2&#45;&gt;Node3</title>
<path fill="none" stroke="#191970" d="M758.1931,-313.2455C768.6321,-304.8943 783.8655,-292.7076 796.074,-282.9408"/>
<polygon fill="#191970" stroke="#191970" points="798.3244,-285.6227 803.9467,-276.6427 793.9515,-280.1566 798.3244,-285.6227"/>
</g>
<!-- Node15 -->
<g id="node16" class="node">
<title>Node15</title>
<g id="a_node16"><a xlink:href="cluster__tree_8h_source.html" target="_top" xlink:title="cluster_tree.h">
<polygon fill="none" stroke="#000000" points="722,-196 722,-215 798,-215 798,-196 722,-196"/>
<text text-anchor="middle" x="760" y="-203" font-family="Helvetica,sans-Serif" font-size="10.00" fill="#000000">cluster_tree.h</text>
</a>
</g>
</g>
<!-- Node2&#45;&gt;Node15 -->
<g id="edge35" class="edge">
<title>Node2&#45;&gt;Node15</title>
<path fill="none" stroke="#191970" d="M747.1457,-313.3845C749.4325,-294.1913 754.6042,-250.786 757.6449,-225.2663"/>
<polygon fill="#191970" stroke="#191970" points="761.1307,-225.5923 758.8385,-215.2484 754.1799,-224.764 761.1307,-225.5923"/>
</g>
<!-- Node16 -->
<g id="node17" class="node">
<title>Node16</title>
<g id="a_node17"><a xlink:href="debug__tools_8h.html" target="_top" xlink:title="This file includes a bunch of helper functions for printing out and visualizing information about gri...">
<polygon fill="none" stroke="#000000" points="269.5,-134.5 269.5,-153.5 346.5,-153.5 346.5,-134.5 269.5,-134.5"/>
<text text-anchor="middle" x="308" y="-141.5" font-family="Helvetica,sans-Serif" font-size="10.00" fill="#000000">debug_tools.h</text>
</a>
</g>
</g>
<!-- Node2&#45;&gt;Node16 -->
<g id="edge36" class="edge">
<title>Node2&#45;&gt;Node16</title>
<path fill="none" stroke="#191970" d="M722.4512,-313.3762C649.2111,-283.4447 425.2923,-191.9345 340.7654,-157.3904"/>
<polygon fill="#191970" stroke="#191970" points="341.9797,-154.1057 331.3988,-153.5625 339.3315,-160.5855 341.9797,-154.1057"/>
</g>
<!-- Node20 -->
<g id="node21" class="node">
<title>Node20</title>
<g id="a_node21"><a xlink:href="tree_8h.html" target="_top" xlink:title="Implementation of the classes for binary tree node, general tree node and functions for manipulating ...">
<polygon fill="none" stroke="#000000" points="673.5,-134.5 673.5,-153.5 714.5,-153.5 714.5,-134.5 673.5,-134.5"/>
<text text-anchor="middle" x="694" y="-141.5" font-family="Helvetica,sans-Serif" font-size="10.00" fill="#000000">tree.h</text>
</a>
</g>
</g>
<!-- Node2&#45;&gt;Node20 -->
<g id="edge65" class="edge">
<title>Node2&#45;&gt;Node20</title>
<path fill="none" stroke="#191970" d="M742.5809,-313.2244C736.3135,-295.141 722.7357,-255.1899 713,-221 707.4774,-201.6058 702.0553,-179.2013 698.4261,-163.5781"/>
<polygon fill="#191970" stroke="#191970" points="701.771,-162.5054 696.1246,-153.5405 694.9481,-164.0698 701.771,-162.5054"/>
</g>
<!-- Node2&#45;&gt;Node26 -->
<g id="edge37" class="edge">
<title>Node2&#45;&gt;Node26</title>
<path fill="none" stroke="#191970" d="M774.2645,-313.484C832.1923,-293.9811 965.2553,-249.182 1040.5241,-223.8407"/>
<polygon fill="#191970" stroke="#191970" points="1041.9403,-227.0571 1050.3008,-220.5492 1039.7067,-220.423 1041.9403,-227.0571"/>
</g>
<!-- Node4 -->
<g id="node5" class="node">
<title>Node4</title>
<g id="a_node5"><a xlink:href="cluster_8h.html" target="_top" xlink:title="Implementation of the class Cluster. ">
<polygon fill="none" stroke="#000000" points="838,-134.5 838,-153.5 892,-153.5 892,-134.5 838,-134.5"/>
<text text-anchor="middle" x="865" y="-141.5" font-family="Helvetica,sans-Serif" font-size="10.00" fill="#000000">cluster.h</text>
</a>
</g>
</g>
<!-- Node3&#45;&gt;Node4 -->
<g id="edge4" class="edge">
<title>Node3&#45;&gt;Node4</title>
<path fill="none" stroke="#191970" d="M819.8449,-257.3484C827.9313,-237.0499 846.8248,-189.6235 857.4316,-162.9981"/>
<polygon fill="#191970" stroke="#191970" points="860.7235,-164.1921 861.1729,-153.6068 854.2205,-161.6014 860.7235,-164.1921"/>
</g>
<!-- Node3&#45;&gt;Node15 -->
<g id="edge16" class="edge">
<title>Node3&#45;&gt;Node15</title>
<path fill="none" stroke="#191970" d="M807.25,-257.3906C798.8338,-248.1478 785.9203,-233.966 775.719,-222.7628"/>
<polygon fill="#191970" stroke="#191970" points="778.194,-220.2824 768.8734,-215.2449 773.0182,-224.9953 778.194,-220.2824"/>
</g>
<!-- Node5 -->
<g id="node6" class="node">
<title>Node5</title>
<polygon fill="none" stroke="#bfbfbf" points="1267.5,-73 1267.5,-92 1370.5,-92 1370.5,-73 1267.5,-73"/>
<text text-anchor="middle" x="1319" y="-80" font-family="Helvetica,sans-Serif" font-size="10.00" fill="#000000">deal.II/base/types.h</text>
</g>
<!-- Node4&#45;&gt;Node5 -->
<g id="edge5" class="edge">
<title>Node4&#45;&gt;Node5</title>
<path fill="none" stroke="#191970" d="M892.3283,-140.6249C908.2711,-138.6665 928.7711,-136.1665 947,-134 1085.1727,-117.5779 1121.1539,-123.19 1258,-98 1263.4403,-96.9986 1269.1144,-95.7871 1274.7171,-94.4877"/>
<polygon fill="#191970" stroke="#191970" points="1275.7635,-97.8356 1284.659,-92.0805 1274.1161,-91.0322 1275.7635,-97.8356"/>
</g>
<!-- Node6 -->
<g id="node7" class="node">
<title>Node6</title>
<polygon fill="none" stroke="#bfbfbf" points="731,-73 731,-92 787,-92 787,-73 731,-73"/>
<text text-anchor="middle" x="759" y="-80" font-family="Helvetica,sans-Serif" font-size="10.00" fill="#000000">algorithm</text>
</g>
<!-- Node4&#45;&gt;Node6 -->
<g id="edge6" class="edge">
<title>Node4&#45;&gt;Node6</title>
<path fill="none" stroke="#191970" d="M848.4375,-134.3906C831.2463,-124.4165 804.1418,-108.6908 784.2734,-97.1633"/>
<polygon fill="#191970" stroke="#191970" points="785.8523,-94.033 775.4462,-92.0419 782.3394,-100.0877 785.8523,-94.033"/>
</g>
<!-- Node7 -->
<g id="node8" class="node">
<title>Node7</title>
<polygon fill="none" stroke="#bfbfbf" points="981.5,-73 981.5,-92 1028.5,-92 1028.5,-73 981.5,-73"/>
<text text-anchor="middle" x="1005" y="-80" font-family="Helvetica,sans-Serif" font-size="10.00" fill="#000000">iterator</text>
</g>
<!-- Node4&#45;&gt;Node7 -->
<g id="edge7" class="edge">
<title>Node4&#45;&gt;Node7</title>
<path fill="none" stroke="#191970" d="M886.875,-134.3906C910.2996,-124.1005 947.6596,-107.6888 974.0841,-96.0809"/>
<polygon fill="#191970" stroke="#191970" points="975.5307,-99.2683 983.2786,-92.0419 972.7154,-92.8594 975.5307,-99.2683"/>
</g>
<!-- Node8 -->
<g id="node9" class="node">
<title>Node8</title>
<polygon fill="none" stroke="#bfbfbf" points="1035,-6 1035,-25 1079,-25 1079,-6 1035,-6"/>
<text text-anchor="middle" x="1057" y="-13" font-family="Helvetica,sans-Serif" font-size="10.00" fill="#000000">vector</text>
</g>
<!-- Node4&#45;&gt;Node8 -->
<g id="edge8" class="edge">
<title>Node4&#45;&gt;Node8</title>
<path fill="none" stroke="#191970" d="M892.2242,-140.2233C935.6867,-133.6456 1017.9081,-118.7771 1038,-98 1054.1521,-81.2971 1057.601,-53.7629 1057.8763,-35.144"/>
<polygon fill="#191970" stroke="#191970" points="1061.3757,-35.0693 1057.7335,-25.1202 1054.3764,-35.1691 1061.3757,-35.0693"/>
</g>
<!-- Node9 -->
<g id="node10" class="node">
<title>Node9</title>
<g id="a_node10"><a xlink:href="simple__bounding__box_8h_source.html" target="_top" xlink:title="simple_bounding_box.h">
<polygon fill="none" stroke="#000000" points="805.5,-73 805.5,-92 924.5,-92 924.5,-73 805.5,-73"/>
<text text-anchor="middle" x="865" y="-80" font-family="Helvetica,sans-Serif" font-size="10.00" fill="#000000">simple_bounding_box.h</text>
</a>
</g>
</g>
<!-- Node4&#45;&gt;Node9 -->
<g id="edge9" class="edge">
<title>Node4&#45;&gt;Node9</title>
<path fill="none" stroke="#191970" d="M865,-134.3906C865,-125.8657 865,-113.1392 865,-102.4235"/>
<polygon fill="#191970" stroke="#191970" points="868.5001,-102.2448 865,-92.2449 861.5001,-102.2449 868.5001,-102.2448"/>
</g>
<!-- Node9&#45;&gt;Node8 -->
<g id="edge15" class="edge">
<title>Node9&#45;&gt;Node8</title>
<path fill="none" stroke="#191970" d="M892.5089,-72.9005C927.5775,-60.6631 988.0892,-39.547 1025.1295,-26.6215"/>
<polygon fill="#191970" stroke="#191970" points="1026.6252,-29.8066 1034.9137,-23.2072 1024.3189,-23.1974 1026.6252,-29.8066"/>
</g>
<!-- Node10 -->
<g id="node11" class="node">
<title>Node10</title>
<polygon fill="none" stroke="#bfbfbf" points="859,-6 859,-25 959,-25 959,-6 859,-6"/>
<text text-anchor="middle" x="909" y="-13" font-family="Helvetica,sans-Serif" font-size="10.00" fill="#000000">deal.II/base/point.h</text>
</g>
<!-- Node9&#45;&gt;Node10 -->
<g id="edge10" class="edge">
<title>Node9&#45;&gt;Node10</title>
<path fill="none" stroke="#191970" d="M871.3041,-72.9005C878.0349,-62.6515 888.8554,-46.1747 897.1807,-33.4976"/>
<polygon fill="#191970" stroke="#191970" points="900.1438,-35.3616 902.7076,-25.0817 894.2927,-31.5191 900.1438,-35.3616"/>
</g>
<!-- Node11 -->
<g id="node12" class="node">
<title>Node11</title>
<polygon fill="none" stroke="#bfbfbf" points="236.5,-6 236.5,-25 363.5,-25 363.5,-6 236.5,-6"/>
<text text-anchor="middle" x="300" y="-13" font-family="Helvetica,sans-Serif" font-size="10.00" fill="#000000">deal.II/dofs/dof_handler.h</text>
</g>
<!-- Node9&#45;&gt;Node11 -->
<g id="edge11" class="edge">
<title>Node9&#45;&gt;Node11</title>
<path fill="none" stroke="#191970" d="M826.1108,-72.9249C816.3259,-70.7477 805.8144,-68.6061 796,-67 755.4474,-60.3635 502.2345,-35.2446 374.0985,-22.7079"/>
<polygon fill="#191970" stroke="#191970" points="374.2633,-19.2074 363.9702,-21.7177 373.5821,-26.1742 374.2633,-19.2074"/>
</g>
<!-- Node12 -->
<g id="node13" class="node">
<title>Node12</title>
<polygon fill="none" stroke="#bfbfbf" points="475,-6 475,-25 591,-25 591,-6 475,-6"/>
<text text-anchor="middle" x="533" y="-13" font-family="Helvetica,sans-Serif" font-size="10.00" fill="#000000">deal.II/dofs/dof_tools.h</text>
</g>
<!-- Node9&#45;&gt;Node12 -->
<g id="edge12" class="edge">
<title>Node9&#45;&gt;Node12</title>
<path fill="none" stroke="#191970" d="M823.4449,-72.9703C814.4076,-70.9523 804.8912,-68.8688 796,-67 726.9181,-52.48 647.3422,-37.0816 593.9761,-26.9461"/>
<polygon fill="#191970" stroke="#191970" points="594.4713,-23.4777 583.9943,-25.0537 593.1673,-30.3552 594.4713,-23.4777"/>
</g>
<!-- Node13 -->
<g id="node14" class="node">
<title>Node13</title>
<polygon fill="none" stroke="#bfbfbf" points="656.5,-6 656.5,-25 759.5,-25 759.5,-6 656.5,-6"/>
<text text-anchor="middle" x="708" y="-13" font-family="Helvetica,sans-Serif" font-size="10.00" fill="#000000">deal.II/fe/mapping.h</text>
</g>
<!-- Node9&#45;&gt;Node13 -->
<g id="edge13" class="edge">
<title>Node9&#45;&gt;Node13</title>
<path fill="none" stroke="#191970" d="M842.5057,-72.9005C815.5747,-61.4077 770.2933,-42.0838 739.7936,-29.068"/>
<polygon fill="#191970" stroke="#191970" points="741.0238,-25.7876 730.4525,-25.0817 738.2763,-32.2259 741.0238,-25.7876"/>
</g>
<!-- Node14 -->
<g id="node15" class="node">
<title>Node14</title>
<polygon fill="none" stroke="#bfbfbf" points="801,-6 801,-25 841,-25 841,-6 801,-6"/>
<text text-anchor="middle" x="821" y="-13" font-family="Helvetica,sans-Serif" font-size="10.00" fill="#000000">utility</text>
</g>
<!-- Node9&#45;&gt;Node14 -->
<g id="edge14" class="edge">
<title>Node9&#45;&gt;Node14</title>
<path fill="none" stroke="#191970" d="M858.6959,-72.9005C851.9651,-62.6515 841.1446,-46.1747 832.8193,-33.4976"/>
<polygon fill="#191970" stroke="#191970" points="835.7073,-31.5191 827.2924,-25.0817 829.8562,-35.3616 835.7073,-31.5191"/>
</g>
<!-- Node15&#45;&gt;Node4 -->
<g id="edge17" class="edge">
<title>Node15&#45;&gt;Node4</title>
<path fill="none" stroke="#191970" d="M776.4063,-195.8906C793.4353,-185.9165 820.2841,-170.1908 839.9651,-158.6633"/>
<polygon fill="#191970" stroke="#191970" points="841.849,-161.6161 848.709,-153.5419 838.3112,-155.5759 841.849,-161.6161"/>
</g>
<!-- Node15&#45;&gt;Node16 -->
<g id="edge18" class="edge">
<title>Node15&#45;&gt;Node16</title>
<path fill="none" stroke="#191970" d="M721.8523,-200.3095C639.8778,-189.1559 447.0394,-162.918 356.5224,-150.602"/>
<polygon fill="#191970" stroke="#191970" points="356.9057,-147.122 346.5251,-149.2418 355.9619,-154.0581 356.9057,-147.122"/>
</g>
<!-- Node15&#45;&gt;Node20 -->
<g id="edge26" class="edge">
<title>Node15&#45;&gt;Node20</title>
<path fill="none" stroke="#191970" d="M749.6875,-195.8906C739.5758,-186.4683 723.9558,-171.9134 711.8293,-160.6137"/>
<polygon fill="#191970" stroke="#191970" points="714.1601,-158.0015 704.4579,-153.7449 709.388,-163.1228 714.1601,-158.0015"/>
</g>
<!-- Node16&#45;&gt;Node1 -->
<g id="edge24" class="edge">
<title>Node16&#45;&gt;Node1</title>
<path fill="none" stroke="#191970" d="M316.5938,-134.3906C324.8597,-125.1478 337.5426,-110.966 347.5617,-99.7628"/>
<polygon fill="#191970" stroke="#191970" points="350.2278,-102.0321 354.2851,-92.2449 345.01,-97.3657 350.2278,-102.0321"/>
</g>
<!-- Node16&#45;&gt;Node11 -->
<g id="edge19" class="edge">
<title>Node16&#45;&gt;Node11</title>
<path fill="none" stroke="#191970" d="M290.9433,-134.377C278.6911,-126.4014 263.1292,-113.8248 256,-98 250.3408,-85.4381 251.2302,-79.9258 256,-67 260.9618,-53.554 271.1717,-41.2383 280.5081,-32.0241"/>
<polygon fill="#191970" stroke="#191970" points="283.0647,-34.4264 288.0109,-25.057 278.3014,-29.2969 283.0647,-34.4264"/>
</g>
<!-- Node16&#45;&gt;Node12 -->
<g id="edge20" class="edge">
<title>Node16&#45;&gt;Node12</title>
<path fill="none" stroke="#191970" d="M301.8709,-134.2874C292.7079,-118.4007 278.1232,-86.6624 294,-67 315.1232,-40.8403 401.6378,-27.335 464.5165,-20.8405"/>
<polygon fill="#191970" stroke="#191970" points="465.178,-24.292 474.7827,-19.82 464.4856,-17.3264 465.178,-24.292"/>
</g>
<!-- Node16&#45;&gt;Node13 -->
<g id="edge23" class="edge">
<title>Node16&#45;&gt;Node13</title>
<path fill="none" stroke="#191970" d="M307.2265,-134.2415C306.5056,-117.6972 307.7105,-84.2623 327,-67 372.5989,-26.1933 539.3801,-39.3467 600,-31 614.9417,-28.9427 631.0368,-26.6657 646.1224,-24.5046"/>
<polygon fill="#191970" stroke="#191970" points="646.9777,-27.9178 656.3784,-23.0312 645.9822,-20.9889 646.9777,-27.9178"/>
</g>
<!-- Node17 -->
<g id="node18" class="node">
<title>Node17</title>
<polygon fill="none" stroke="#bfbfbf" points="0,-73 0,-92 74,-92 74,-73 0,-73"/>
<text text-anchor="middle" x="37" y="-80" font-family="Helvetica,sans-Serif" font-size="10.00" fill="#000000">deal.II/fe/fe.h</text>
</g>
<!-- Node16&#45;&gt;Node17 -->
<g id="edge21" class="edge">
<title>Node16&#45;&gt;Node17</title>
<path fill="none" stroke="#191970" d="M269.444,-137.6111C224.3623,-129.7976 147.6733,-115.4358 83,-98 79.8267,-97.1445 76.5526,-96.1899 73.2822,-95.1863"/>
<polygon fill="#191970" stroke="#191970" points="74.1771,-91.7978 63.586,-92.0784 72.0405,-98.4637 74.1771,-91.7978"/>
</g>
<!-- Node18 -->
<g id="node19" class="node">
<title>Node18</title>
<polygon fill="none" stroke="#bfbfbf" points="92,-73 92,-92 204,-92 204,-73 92,-73"/>
<text text-anchor="middle" x="148" y="-80" font-family="Helvetica,sans-Serif" font-size="10.00" fill="#000000">deal.II/fe/fe_system.h</text>
</g>
<!-- Node16&#45;&gt;Node18 -->
<g id="edge22" class="edge">
<title>Node16&#45;&gt;Node18</title>
<path fill="none" stroke="#191970" d="M283,-134.3906C255.9942,-124.0103 212.7815,-107.4004 182.5406,-95.7766"/>
<polygon fill="#191970" stroke="#191970" points="183.4144,-92.3628 172.8244,-92.0419 180.9029,-98.8968 183.4144,-92.3628"/>
</g>
<!-- Node19 -->
<g id="node20" class="node">
<title>Node19</title>
<polygon fill="none" stroke="#bfbfbf" points="615.5,-73 615.5,-92 656.5,-92 656.5,-73 615.5,-73"/>
<text text-anchor="middle" x="636" y="-80" font-family="Helvetica,sans-Serif" font-size="10.00" fill="#000000">string</text>
</g>
<!-- Node16&#45;&gt;Node19 -->
<g id="edge25" class="edge">
<title>Node16&#45;&gt;Node19</title>
<path fill="none" stroke="#191970" d="M346.7314,-142.2093C404.6899,-138.6091 516.8163,-128.0612 607,-98 608.4216,-97.5261 609.8567,-96.9864 611.2873,-96.3995"/>
<polygon fill="#191970" stroke="#191970" points="612.9467,-99.4862 620.4788,-92.0351 609.9441,-93.1628 612.9467,-99.4862"/>
</g>
<!-- Node20&#45;&gt;Node1 -->
<g id="edge32" class="edge">
<title>Node20&#45;&gt;Node1</title>
<path fill="none" stroke="#191970" d="M673.3178,-142.4898C624.792,-138.5757 500.1616,-126.3639 400,-98 397.6819,-97.3436 395.3146,-96.5815 392.9538,-95.7543"/>
<polygon fill="#191970" stroke="#191970" points="394.0179,-92.4137 383.4279,-92.0913 391.5055,-98.9473 394.0179,-92.4137"/>
</g>
<!-- Node20&#45;&gt;Node6 -->
<g id="edge28" class="edge">
<title>Node20&#45;&gt;Node6</title>
<path fill="none" stroke="#191970" d="M704.1563,-134.3906C714.0199,-125.0581 729.2055,-110.6902 741.0987,-99.4374"/>
<polygon fill="#191970" stroke="#191970" points="743.8421,-101.6601 748.7006,-92.2449 739.0311,-96.5753 743.8421,-101.6601"/>
</g>
<!-- Node20&#45;&gt;Node8 -->
<g id="edge34" class="edge">
<title>Node20&#45;&gt;Node8</title>
<path fill="none" stroke="#191970" d="M714.5902,-143.3383C757.3815,-141.2738 858.2408,-132.7896 934,-98 954.1219,-88.7598 954.8614,-79.699 973,-67 991.9176,-53.7556 1014.2427,-40.1582 1031.1207,-30.2632"/>
<polygon fill="#191970" stroke="#191970" points="1032.9931,-33.2233 1039.8807,-25.1727 1029.476,-27.171 1032.9931,-33.2233"/>
</g>
<!-- Node21 -->
<g id="node22" class="node">
<title>Node21</title>
<polygon fill="none" stroke="#bfbfbf" points="1123,-73 1123,-92 1249,-92 1249,-73 1123,-73"/>
<text text-anchor="middle" x="1186" y="-80" font-family="Helvetica,sans-Serif" font-size="10.00" fill="#000000">deal.II/base/exceptions.h</text>
</g>
<!-- Node20&#45;&gt;Node21 -->
<g id="edge27" class="edge">
<title>Node20&#45;&gt;Node21</title>
<path fill="none" stroke="#191970" d="M714.5142,-141.4357C781.7747,-133.0282 997.8746,-106.0157 1112.6939,-91.6633"/>
<polygon fill="#191970" stroke="#191970" points="1113.3178,-95.1126 1122.8064,-90.3992 1112.4495,-88.1667 1113.3178,-95.1126"/>
</g>
<!-- Node22 -->
<g id="node23" class="node">
<title>Node22</title>
<polygon fill="none" stroke="#bfbfbf" points="675,-73 675,-92 713,-92 713,-73 675,-73"/>
<text text-anchor="middle" x="694" y="-80" font-family="Helvetica,sans-Serif" font-size="10.00" fill="#000000">array</text>
</g>
<!-- Node20&#45;&gt;Node22 -->
<g id="edge29" class="edge">
<title>Node20&#45;&gt;Node22</title>
<path fill="none" stroke="#191970" d="M694,-134.3906C694,-125.8657 694,-113.1392 694,-102.4235"/>
<polygon fill="#191970" stroke="#191970" points="697.5001,-102.2448 694,-92.2449 690.5001,-102.2449 697.5001,-102.2448"/>
</g>
<!-- Node23 -->
<g id="node24" class="node">
<title>Node23</title>
<polygon fill="none" stroke="#bfbfbf" points="408.5,-73 408.5,-92 467.5,-92 467.5,-73 408.5,-73"/>
<text text-anchor="middle" x="438" y="-80" font-family="Helvetica,sans-Serif" font-size="10.00" fill="#000000">exception</text>
</g>
<!-- Node20&#45;&gt;Node23 -->
<g id="edge30" class="edge">
<title>Node20&#45;&gt;Node23</title>
<path fill="none" stroke="#191970" d="M673.3644,-140.8246C634.4509,-134.5739 547.7768,-119.3978 477,-98 474.559,-97.262 472.0565,-96.4361 469.5549,-95.5601"/>
<polygon fill="#191970" stroke="#191970" points="470.6359,-92.2278 460.0432,-92.0132 468.1901,-98.7866 470.6359,-92.2278"/>
</g>
<!-- Node24 -->
<g id="node25" class="node">
<title>Node24</title>
<polygon fill="none" stroke="#bfbfbf" points="485.5,-73 485.5,-92 544.5,-92 544.5,-73 485.5,-73"/>
<text text-anchor="middle" x="515" y="-80" font-family="Helvetica,sans-Serif" font-size="10.00" fill="#000000">functional</text>
</g>
<!-- Node20&#45;&gt;Node24 -->
<g id="edge31" class="edge">
<title>Node20&#45;&gt;Node24</title>
<path fill="none" stroke="#191970" d="M673.4632,-137.6827C646.0571,-129.1543 596.09,-113.2628 554,-98 552.0993,-97.3107 550.1523,-96.5888 548.1916,-95.8493"/>
<polygon fill="#191970" stroke="#191970" points="549.0116,-92.4141 538.4222,-92.0764 546.4897,-98.9441 549.0116,-92.4141"/>
</g>
<!-- Node25 -->
<g id="node26" class="node">
<title>Node25</title>
<polygon fill="none" stroke="#bfbfbf" points="562.5,-73 562.5,-92 597.5,-92 597.5,-73 562.5,-73"/>
<text text-anchor="middle" x="580" y="-80" font-family="Helvetica,sans-Serif" font-size="10.00" fill="#000000">new</text>
</g>
<!-- Node20&#45;&gt;Node25 -->
<g id="edge33" class="edge">
<title>Node20&#45;&gt;Node25</title>
<path fill="none" stroke="#191970" d="M675.57,-134.4921C657.8915,-125.3161 630.492,-110.9485 607,-98 606.4675,-97.7065 605.9296,-97.4088 605.3879,-97.108"/>
<polygon fill="#191970" stroke="#191970" points="606.9414,-93.9658 596.5121,-92.1001 603.5016,-100.0624 606.9414,-93.9658"/>
</g>
<!-- Node26&#45;&gt;Node8 -->
<g id="edge43" class="edge">
<title>Node26&#45;&gt;Node8</title>
<path fill="none" stroke="#191970" d="M1091.9545,-190.2727C1085.1233,-156.1167 1068.5816,-73.408 1060.9626,-35.313"/>
<polygon fill="#191970" stroke="#191970" points="1064.2984,-34.1452 1058.9052,-25.0258 1057.4344,-35.5181 1064.2984,-34.1452"/>
</g>
<!-- Node26&#45;&gt;Node19 -->
<g id="edge42" class="edge">
<title>Node26&#45;&gt;Node19</title>
<path fill="none" stroke="#191970" d="M1047.4578,-198.3533C993.887,-189.8261 904.4371,-174.1555 829,-154 754.9953,-134.2273 736.4367,-128.1052 666,-98 664.9758,-97.5622 663.9383,-97.1041 662.8953,-96.6309"/>
<polygon fill="#191970" stroke="#191970" points="664.0876,-93.3198 653.5614,-92.1158 661.0393,-99.6212 664.0876,-93.3198"/>
</g>
<!-- Node27 -->
<g id="node28" class="node">
<title>Node27</title>
<polygon fill="none" stroke="#bfbfbf" points="2093,-134.5 2093,-153.5 2133,-153.5 2133,-134.5 2093,-134.5"/>
<text text-anchor="middle" x="2113" y="-141.5" font-family="Helvetica,sans-Serif" font-size="10.00" fill="#000000">limits</text>
</g>
<!-- Node26&#45;&gt;Node27 -->
<g id="edge38" class="edge">
<title>Node26&#45;&gt;Node27</title>
<path fill="none" stroke="#191970" d="M1142.6279,-204.7824C1311.3765,-201.9702 1881.0066,-190.111 2083.0042,-153.6017"/>
<polygon fill="#191970" stroke="#191970" points="2083.7388,-157.0249 2092.9164,-151.7315 2082.4409,-150.1463 2083.7388,-157.0249"/>
</g>
<!-- Node28 -->
<g id="node29" class="node">
<title>Node28</title>
<polygon fill="none" stroke="#bfbfbf" points="2143.5,-73 2143.5,-92 2178.5,-92 2178.5,-73 2143.5,-73"/>
<text text-anchor="middle" x="2161" y="-80" font-family="Helvetica,sans-Serif" font-size="10.00" fill="#000000">map</text>
</g>
<!-- Node26&#45;&gt;Node28 -->
<g id="edge39" class="edge">
<title>Node26&#45;&gt;Node28</title>
<path fill="none" stroke="#191970" d="M1142.7449,-204.7086C1342.5019,-201.1996 2102.6899,-185.7955 2142,-154 2157.0918,-141.7932 2160.9866,-119.0814 2161.6449,-102.5214"/>
<polygon fill="#191970" stroke="#191970" points="2165.1458,-102.2567 2161.6814,-92.2443 2158.1458,-102.2318 2165.1458,-102.2567"/>
</g>
<!-- Node29 -->
<g id="node30" class="node">
<title>Node29</title>
<polygon fill="none" stroke="#bfbfbf" points="955.5,-134.5 955.5,-153.5 996.5,-153.5 996.5,-134.5 955.5,-134.5"/>
<text text-anchor="middle" x="976" y="-141.5" font-family="Helvetica,sans-Serif" font-size="10.00" fill="#000000">regex</text>
</g>
<!-- Node26&#45;&gt;Node29 -->
<g id="edge40" class="edge">
<title>Node26&#45;&gt;Node29</title>
<path fill="none" stroke="#191970" d="M1065.8893,-190.4554C1046.8176,-180.599 1022.0518,-167.7999 1003.3461,-158.1327"/>
<polygon fill="#191970" stroke="#191970" points="1004.9315,-155.0122 994.4408,-153.5303 1001.7176,-161.2309 1004.9315,-155.0122"/>
</g>
<!-- Node30 -->
<g id="node31" class="node">
<title>Node30</title>
<polygon fill="none" stroke="#bfbfbf" points="1015,-134.5 1015,-153.5 1067,-153.5 1067,-134.5 1015,-134.5"/>
<text text-anchor="middle" x="1041" y="-141.5" font-family="Helvetica,sans-Serif" font-size="10.00" fill="#000000">sstream</text>
</g>
<!-- Node26&#45;&gt;Node30 -->
<g id="edge41" class="edge">
<title>Node26&#45;&gt;Node30</title>
<path fill="none" stroke="#191970" d="M1081.6517,-190.2977C1073.9998,-181.5831 1064.3627,-170.6075 1056.3924,-161.5302"/>
<polygon fill="#191970" stroke="#191970" points="1058.8742,-159.052 1049.6461,-153.8469 1053.6141,-163.6707 1058.8742,-159.052"/>
</g>
<!-- Node31 -->
<g id="node32" class="node">
<title>Node31</title>
<g id="a_node32"><a xlink:href="general__exceptions_8h.html" target="_top" xlink:title="Definition of self&#45;defined general exceptions. ">
<polygon fill="none" stroke="#000000" points="1127.5,-134.5 1127.5,-153.5 1236.5,-153.5 1236.5,-134.5 1127.5,-134.5"/>
<text text-anchor="middle" x="1182" y="-141.5" font-family="Helvetica,sans-Serif" font-size="10.00" fill="#000000">general_exceptions.h</text>
</a>
</g>
</g>
<!-- Node26&#45;&gt;Node31 -->
<g id="edge44" class="edge">
<title>Node26&#45;&gt;Node31</title>
<path fill="none" stroke="#191970" d="M1116.5056,-190.2977C1129.7968,-180.9022 1146.8057,-168.8787 1160.1588,-159.4395"/>
<polygon fill="#191970" stroke="#191970" points="1162.1846,-162.2937 1168.33,-153.6633 1158.1439,-156.5776 1162.1846,-162.2937"/>
</g>
<!-- Node32 -->
<g id="node33" class="node">
<title>Node32</title>
<g id="a_node33"><a xlink:href="generic__functors_8h.html" target="_top" xlink:title="This header file contains a set of self&#45;defined generic functors. ">
<polygon fill="none" stroke="#000000" points="1310.5,-134.5 1310.5,-153.5 1407.5,-153.5 1407.5,-134.5 1310.5,-134.5"/>
<text text-anchor="middle" x="1359" y="-141.5" font-family="Helvetica,sans-Serif" font-size="10.00" fill="#000000">generic_functors.h</text>
</a>
</g>
</g>
<!-- Node26&#45;&gt;Node32 -->
<g id="edge46" class="edge">
<title>Node26&#45;&gt;Node32</title>
<path fill="none" stroke="#191970" d="M1142.5028,-194.434C1189.2088,-183.5536 1260.2637,-167.0011 1308.1067,-155.8558"/>
<polygon fill="#191970" stroke="#191970" points="1309.0013,-159.2412 1317.9464,-153.5636 1307.4131,-152.4238 1309.0013,-159.2412"/>
</g>
<!-- Node34 -->
<g id="node35" class="node">
<title>Node34</title>
<g id="a_node35"><a xlink:href="lapack__helpers_8h.html" target="_top" xlink:title="Exposes LAPACK helper functions defined in lapack_full_matrix.cc and define new ones by following the...">
<polygon fill="none" stroke="#000000" points="1985,-134.5 1985,-153.5 2075,-153.5 2075,-134.5 1985,-134.5"/>
<text text-anchor="middle" x="2030" y="-141.5" font-family="Helvetica,sans-Serif" font-size="10.00" fill="#000000">lapack_helpers.h</text>
</a>
</g>
</g>
<!-- Node26&#45;&gt;Node34 -->
<g id="edge52" class="edge">
<title>Node26&#45;&gt;Node34</title>
<path fill="none" stroke="#191970" d="M1142.6522,-202.3657C1300.5747,-191.9782 1806.2962,-158.7142 1974.7903,-147.6314"/>
<polygon fill="#191970" stroke="#191970" points="1975.1753,-151.1138 1984.924,-146.9649 1974.7158,-144.1289 1975.1753,-151.1138"/>
</g>
<!-- Node31&#45;&gt;Node21 -->
<g id="edge45" class="edge">
<title>Node31&#45;&gt;Node21</title>
<path fill="none" stroke="#191970" d="M1182.625,-134.3906C1183.1795,-125.8657 1184.0072,-113.1392 1184.7042,-102.4235"/>
<polygon fill="#191970" stroke="#191970" points="1188.2097,-102.451 1185.3662,-92.2449 1181.2244,-101.9966 1188.2097,-102.451"/>
</g>
<!-- Node32&#45;&gt;Node5 -->
<g id="edge48" class="edge">
<title>Node32&#45;&gt;Node5</title>
<path fill="none" stroke="#191970" d="M1352.75,-134.3906C1346.9135,-125.417 1338.0491,-111.7879 1330.8694,-100.7491"/>
<polygon fill="#191970" stroke="#191970" points="1333.7245,-98.7194 1325.3381,-92.2449 1327.8564,-102.5361 1333.7245,-98.7194"/>
</g>
<!-- Node32&#45;&gt;Node8 -->
<g id="edge51" class="edge">
<title>Node32&#45;&gt;Node8</title>
<path fill="none" stroke="#191970" d="M1366.6039,-134.2748C1378.0623,-118.37 1396.7279,-86.6064 1380,-67 1361.2116,-44.9786 1167.4283,-25.3643 1089.3443,-18.2938"/>
<polygon fill="#191970" stroke="#191970" points="1089.3963,-14.7846 1079.1244,-17.3805 1088.7731,-21.7568 1089.3963,-14.7846"/>
</g>
<!-- Node32&#45;&gt;Node21 -->
<g id="edge47" class="edge">
<title>Node32&#45;&gt;Node21</title>
<path fill="none" stroke="#191970" d="M1331.9688,-134.3906C1302.5149,-123.92 1255.2311,-107.1111 1222.4973,-95.4745"/>
<polygon fill="#191970" stroke="#191970" points="1223.4361,-92.0937 1212.8414,-92.0419 1221.0914,-98.6893 1223.4361,-92.0937"/>
</g>
<!-- Node32&#45;&gt;Node28 -->
<g id="edge50" class="edge">
<title>Node32&#45;&gt;Node28</title>
<path fill="none" stroke="#191970" d="M1407.7581,-142.4054C1566.869,-137.0219 2064.7034,-118.695 2134,-98 2135.4242,-97.5747 2136.854,-97.0619 2138.2718,-96.4853"/>
<polygon fill="#191970" stroke="#191970" points="2139.8749,-99.5969 2147.2661,-92.0061 2136.7544,-93.3309 2139.8749,-99.5969"/>
</g>
<!-- Node33 -->
<g id="node34" class="node">
<title>Node33</title>
<polygon fill="none" stroke="#bfbfbf" points="1595.5,-.5 1595.5,-30.5 1686.5,-30.5 1686.5,-.5 1595.5,-.5"/>
<text text-anchor="start" x="1603.5" y="-18.5" font-family="Helvetica,sans-Serif" font-size="10.00" fill="#000000">deal.II/lac/lapack</text>
<text text-anchor="middle" x="1641" y="-7.5" font-family="Helvetica,sans-Serif" font-size="10.00" fill="#000000">_support.h</text>
</g>
<!-- Node32&#45;&gt;Node33 -->
<g id="edge49" class="edge">
<title>Node32&#45;&gt;Node33</title>
<path fill="none" stroke="#191970" d="M1370.0427,-134.3045C1391.2937,-115.8058 1437.417,-76.4683 1456,-67 1497.0397,-46.0897 1547.6631,-32.7497 1585.5739,-24.8991"/>
<polygon fill="#191970" stroke="#191970" points="1586.3006,-28.3231 1595.4168,-22.9245 1584.9237,-21.4599 1586.3006,-28.3231"/>
</g>
<!-- Node34&#45;&gt;Node33 -->
<g id="edge58" class="edge">
<title>Node34&#45;&gt;Node33</title>
<path fill="none" stroke="#191970" d="M2075.0141,-135.2089C2078.0486,-134.7569 2081.0648,-134.3472 2084,-134 2159.9089,-125.0215 2718.3833,-153.4461 2771,-98 2780.484,-88.006 2780.518,-76.9617 2771,-67 2733.5443,-27.7983 1919.5793,-17.9056 1696.884,-15.9286"/>
<polygon fill="#191970" stroke="#191970" points="1696.7619,-12.4275 1686.7318,-15.8404 1696.701,-19.4273 1696.7619,-12.4275"/>
</g>
<!-- Node35 -->
<g id="node36" class="node">
<title>Node35</title>
<polygon fill="none" stroke="#bfbfbf" points="1719,-73 1719,-92 1835,-92 1835,-73 1719,-73"/>
<text text-anchor="middle" x="1777" y="-80" font-family="Helvetica,sans-Serif" font-size="10.00" fill="#000000">deal.II/base/numbers.h</text>
</g>
<!-- Node34&#45;&gt;Node35 -->
<g id="edge53" class="edge">
<title>Node34&#45;&gt;Node35</title>
<path fill="none" stroke="#191970" d="M1990.7463,-134.4581C1946.4306,-123.6857 1874.2624,-106.1428 1826.214,-94.4631"/>
<polygon fill="#191970" stroke="#191970" points="1826.8895,-91.0254 1816.3457,-92.0643 1825.236,-97.8274 1826.8895,-91.0254"/>
</g>
<!-- Node36 -->
<g id="node37" class="node">
<title>Node36</title>
<polygon fill="none" stroke="#bfbfbf" points="1853,-67.5 1853,-97.5 1981,-97.5 1981,-67.5 1853,-67.5"/>
<text text-anchor="start" x="1861" y="-85.5" font-family="Helvetica,sans-Serif" font-size="10.00" fill="#000000">deal.II/lac/blas_extension</text>
<text text-anchor="middle" x="1917" y="-74.5" font-family="Helvetica,sans-Serif" font-size="10.00" fill="#000000">_templates.h</text>
</g>
<!-- Node34&#45;&gt;Node36 -->
<g id="edge54" class="edge">
<title>Node34&#45;&gt;Node36</title>
<path fill="none" stroke="#191970" d="M2012.3438,-134.3906C1996.6966,-125.8747 1973.3456,-113.166 1953.6696,-102.4573"/>
<polygon fill="#191970" stroke="#191970" points="1955.0995,-99.2508 1944.6429,-97.5446 1951.7532,-105.3992 1955.0995,-99.2508"/>
</g>
<!-- Node37 -->
<g id="node38" class="node">
<title>Node37</title>
<polygon fill="none" stroke="#bfbfbf" points="1999,-73 1999,-92 2125,-92 2125,-73 1999,-73"/>
<text text-anchor="middle" x="2062" y="-80" font-family="Helvetica,sans-Serif" font-size="10.00" fill="#000000">deal.II/lac/block_vector.h</text>
</g>
<!-- Node34&#45;&gt;Node37 -->
<g id="edge55" class="edge">
<title>Node34&#45;&gt;Node37</title>
<path fill="none" stroke="#191970" d="M2035,-134.3906C2039.5758,-125.5965 2046.4781,-112.3312 2052.1583,-101.4145"/>
<polygon fill="#191970" stroke="#191970" points="2055.4185,-102.7314 2056.9295,-92.2449 2049.2088,-99.5003 2055.4185,-102.7314"/>
</g>
<!-- Node38 -->
<g id="node39" class="node">
<title>Node38</title>
<polygon fill="none" stroke="#bfbfbf" points="2197,-73 2197,-92 2313,-92 2313,-73 2197,-73"/>
<text text-anchor="middle" x="2255" y="-80" font-family="Helvetica,sans-Serif" font-size="10.00" fill="#000000">deal.II/lac/full_matrix.h</text>
</g>
<!-- Node34&#45;&gt;Node38 -->
<g id="edge56" class="edge">
<title>Node34&#45;&gt;Node38</title>
<path fill="none" stroke="#191970" d="M2065.1563,-134.3906C2104.2889,-123.6944 2167.621,-106.3836 2210.2582,-94.7294"/>
<polygon fill="#191970" stroke="#191970" points="2211.3673,-98.0547 2220.0906,-92.0419 2209.5216,-91.3024 2211.3673,-98.0547"/>
</g>
<!-- Node39 -->
<g id="node40" class="node">
<title>Node39</title>
<polygon fill="none" stroke="#bfbfbf" points="2331.5,-67.5 2331.5,-97.5 2422.5,-97.5 2422.5,-67.5 2331.5,-67.5"/>
<text text-anchor="start" x="2339.5" y="-85.5" font-family="Helvetica,sans-Serif" font-size="10.00" fill="#000000">deal.II/lac/lapack</text>
<text text-anchor="middle" x="2377" y="-74.5" font-family="Helvetica,sans-Serif" font-size="10.00" fill="#000000">_full_matrix.h</text>
</g>
<!-- Node34&#45;&gt;Node39 -->
<g id="edge57" class="edge">
<title>Node34&#45;&gt;Node39</title>
<path fill="none" stroke="#191970" d="M2075.0616,-135.5404C2078.0846,-135.0083 2081.0853,-134.4902 2084,-134 2186.4087,-116.7773 2215.7205,-120.3204 2321.6832,-97.8991"/>
<polygon fill="#191970" stroke="#191970" points="2322.4467,-101.3151 2331.491,-95.7968 2320.9795,-94.4705 2322.4467,-101.3151"/>
</g>
<!-- Node40 -->
<g id="node41" class="node">
<title>Node40</title>
<polygon fill="none" stroke="#bfbfbf" points="2440.5,-67.5 2440.5,-97.5 2531.5,-97.5 2531.5,-67.5 2440.5,-67.5"/>
<text text-anchor="start" x="2448.5" y="-85.5" font-family="Helvetica,sans-Serif" font-size="10.00" fill="#000000">deal.II/lac/lapack</text>
<text text-anchor="middle" x="2486" y="-74.5" font-family="Helvetica,sans-Serif" font-size="10.00" fill="#000000">_templates.h</text>
</g>
<!-- Node34&#45;&gt;Node40 -->
<g id="edge59" class="edge">
<title>Node34&#45;&gt;Node40</title>
<path fill="none" stroke="#191970" d="M2075.0367,-135.3812C2078.0658,-134.8876 2081.0745,-134.4215 2084,-134 2234.5963,-112.3019 2277.5119,-126.906 2430.2504,-98.1382"/>
<polygon fill="#191970" stroke="#191970" points="2431.3094,-101.4991 2440.4721,-96.1798 2429.9922,-94.6241 2431.3094,-101.4991"/>
</g>
<!-- Node41 -->
<g id="node42" class="node">
<title>Node41</title>
<polygon fill="none" stroke="#bfbfbf" points="2550,-67.5 2550,-97.5 2642,-97.5 2642,-67.5 2550,-67.5"/>
<text text-anchor="start" x="2558" y="-85.5" font-family="Helvetica,sans-Serif" font-size="10.00" fill="#000000">deal.II/lac/sparse</text>
<text text-anchor="middle" x="2596" y="-74.5" font-family="Helvetica,sans-Serif" font-size="10.00" fill="#000000">_matrix.h</text>
</g>
<!-- Node34&#45;&gt;Node41 -->
<g id="edge60" class="edge">
<title>Node34&#45;&gt;Node41</title>
<path fill="none" stroke="#191970" d="M2075.0253,-135.2982C2078.0571,-134.8246 2081.0696,-134.3857 2084,-134 2282.7435,-107.8426 2338.6379,-132.9677 2539.931,-97.9574"/>
<polygon fill="#191970" stroke="#191970" points="2540.701,-101.3757 2549.9391,-96.1885 2539.4825,-94.4825 2540.701,-101.3757"/>
</g>
<!-- Node42 -->
<g id="node43" class="node">
<title>Node42</title>
<polygon fill="none" stroke="#bfbfbf" points="2660.5,-73 2660.5,-92 2761.5,-92 2761.5,-73 2660.5,-73"/>
<text text-anchor="middle" x="2711" y="-80" font-family="Helvetica,sans-Serif" font-size="10.00" fill="#000000">deal.II/lac/utilities.h</text>
</g>
<!-- Node34&#45;&gt;Node42 -->
<g id="edge61" class="edge">
<title>Node34&#45;&gt;Node42</title>
<path fill="none" stroke="#191970" d="M2075.0187,-135.2465C2078.0521,-134.7854 2081.0668,-134.3634 2084,-134 2334.5917,-102.955 2401.6421,-137.757 2651,-98 2656.8534,-97.0667 2662.9663,-95.8173 2668.9559,-94.431"/>
<polygon fill="#191970" stroke="#191970" points="2669.9755,-97.7847 2678.852,-92.0003 2668.3058,-90.9867 2669.9755,-97.7847"/>
</g>
<!-- Node43 -->
<g id="node44" class="node">
<title>Node43</title>
<polygon fill="none" stroke="#bfbfbf" points="1465,-73 1465,-92 1563,-92 1563,-73 1465,-73"/>
<text text-anchor="middle" x="1514" y="-80" font-family="Helvetica,sans-Serif" font-size="10.00" fill="#000000">deal.II/lac/vector.h</text>
</g>
<!-- Node34&#45;&gt;Node43 -->
<g id="edge62" class="edge">
<title>Node34&#45;&gt;Node43</title>
<path fill="none" stroke="#191970" d="M1984.8066,-141.8778C1902.2501,-137.4666 1721.7595,-125.3476 1572,-98 1566.8141,-97.053 1561.4134,-95.8752 1556.0851,-94.5947"/>
<polygon fill="#191970" stroke="#191970" points="1556.557,-91.1037 1546.0036,-92.0394 1554.8371,-97.8891 1556.557,-91.1037"/>
</g>
<!-- Node44 -->
<g id="node45" class="node">
<title>Node44</title>
<g id="a_node45"><a xlink:href="lapack__templates__ext_8h.html" target="_top" xlink:title="Append more template based LAPACK functions to those existing in deal.ii. ">
<polygon fill="none" stroke="#000000" points="1581,-73 1581,-92 1701,-92 1701,-73 1581,-73"/>
<text text-anchor="middle" x="1641" y="-80" font-family="Helvetica,sans-Serif" font-size="10.00" fill="#000000">lapack_templates_ext.h</text>
</a>
</g>
</g>
<!-- Node34&#45;&gt;Node44 -->
<g id="edge63" class="edge">
<title>Node34&#45;&gt;Node44</title>
<path fill="none" stroke="#191970" d="M1984.7737,-138.6306C1922.6235,-130.9944 1807.4296,-115.9176 1710,-98 1703.819,-96.8633 1697.3512,-95.5615 1690.9583,-94.206"/>
<polygon fill="#191970" stroke="#191970" points="1691.5412,-90.7511 1681.026,-92.0478 1690.0548,-97.5914 1691.5412,-90.7511"/>
</g>
<!-- Node44&#45;&gt;Node33 -->
<g id="edge64" class="edge">
<title>Node44&#45;&gt;Node33</title>
<path fill="none" stroke="#191970" d="M1641,-72.9005C1641,-64.5099 1641,-51.9451 1641,-40.7085"/>
<polygon fill="#191970" stroke="#191970" points="1644.5001,-40.5217 1641,-30.5218 1637.5001,-40.5218 1644.5001,-40.5217"/>
</g>
</g>
</svg>
        <g id="navigator" transform="translate(0 0)" fill="#404254">
                <rect fill="#f2f5e9" fill-opacity="0.5" stroke="#606060" stroke-width=".5" x="0" y="0" width="60" height="60"/>
                <use id="zoomplus" xlink:href="#zoomPlus" x="17" y="9" onmousedown="handleZoom(evt,'in')"/>
                <use id="zoomminus" xlink:href="#zoomMin" x="42" y="9" onmousedown="handleZoom(evt,'out')"/>
                <use id="reset" xlink:href="#resetDef" x="30" y="36" onmousedown="handleReset()"/>
                <g id="arrowUp" xlink:href="#dirArrow" transform="translate(30 24)" onmousedown="handlePan(0,-1)">
                  <use xlink:href="#rim" fill="#404040">
                        <set attributeName="fill" to="#808080" begin="arrowUp.mouseover" end="arrowUp.mouseout"/>
                  </use>
                  <path fill="none" stroke="white" stroke-width="1.5" d="M0,-3.0v7 M-2.5,-0.5L0,-3.0L2.5,-0.5"/>
                </g>
                <g id="arrowRight" xlink:href="#dirArrow" transform="rotate(90) translate(36 -43)" onmousedown="handlePan(1,0)">
                  <use xlink:href="#rim" fill="#404040">
                        <set attributeName="fill" to="#808080" begin="arrowRight.mouseover" end="arrowRight.mouseout"/>
                  </use>
                  <path fill="none" stroke="white" stroke-width="1.5" d="M0,-3.0v7 M-2.5,-0.5L0,-3.0L2.5,-0.5"/>
                </g>
                <g id="arrowDown" xlink:href="#dirArrow" transform="rotate(180) translate(-30 -48)" onmousedown="handlePan(0,1)">
                  <use xlink:href="#rim" fill="#404040">
                        <set attributeName="fill" to="#808080" begin="arrowDown.mouseover" end="arrowDown.mouseout"/>
                  </use>
                  <path fill="none" stroke="white" stroke-width="1.5" d="M0,-3.0v7 M-2.5,-0.5L0,-3.0L2.5,-0.5"/>
                </g>
                <g id="arrowLeft" xlink:href="#dirArrow" transform="rotate(270) translate(-36 17)" onmousedown="handlePan(-1,0)">
                  <use xlink:href="#rim" fill="#404040">
                        <set attributeName="fill" to="#808080" begin="arrowLeft.mouseover" end="arrowLeft.mouseout"/>
                  </use>
                  <path fill="none" stroke="white" stroke-width="1.5" d="M0,-3.0v7 M-2.5,-0.5L0,-3.0L2.5,-0.5"/>
                </g>
        </g>
        <svg viewBox="0 0 15 15" width="100%" height="30px" preserveAspectRatio="xMaxYMin meet">
         <g id="arrow_out" transform="scale(0.3 0.3)">
          <a xlink:href="bct-visualize-with-rank_8cc__incl_org.svg" target="_base">
           <rect id="button" ry="5" rx="5" y="6" x="6" height="38" width="38"
                fill="#f2f5e9" fill-opacity="0.5" stroke="#606060" stroke-width="1.0"/>
           <path id="arrow"
             d="M 11.500037,31.436501 C 11.940474,20.09759 22.043105,11.32322 32.158766,21.979434 L 37.068811,17.246167 C 37.068811,17.246167 37.088388,32 37.088388,32 L 22.160133,31.978069 C 22.160133,31.978069 26.997745,27.140456 26.997745,27.140456 C 18.528582,18.264221 13.291696,25.230495 11.500037,31.436501 z"
             style="fill:#404040;"/>
          </a>
         </g>
        </svg>
</svg>
