<?xml version="1.0" encoding="UTF-8" standalone="no"?>
<!DOCTYPE svg PUBLIC "-//W3C//DTD SVG 1.1//EN"
 "http://www.w3.org/Graphics/SVG/1.1/DTD/svg11.dtd">
<!-- Generated by graphviz version 2.40.1 (20161225.0304)
 -->
<!-- Title: /home/jihuan/Projects/deal.ii/program/dealii&#45;9.1.1/examples/laplace&#45;bem/tests/block&#45;cluster&#45;tree&#45;visualize&#45;with&#45;rank/bct&#45;visualize&#45;with&#45;rank.cc Pages: 1 -->
<svg width="2606pt" height="441pt"
 viewBox="0.00 0.00 2605.50 441.00" xmlns="http://www.w3.org/2000/svg" xmlns:xlink="http://www.w3.org/1999/xlink">
<g id="graph0" class="graph" transform="scale(1 1) rotate(0) translate(4 437)">
<title>/home/jihuan/Projects/deal.ii/program/dealii&#45;9.1.1/examples/laplace&#45;bem/tests/block&#45;cluster&#45;tree&#45;visualize&#45;with&#45;rank/bct&#45;visualize&#45;with&#45;rank.cc</title>
<!-- Node0 -->
<g id="node1" class="node">
<title>Node0</title>
<polygon fill="#bfbfbf" stroke="#000000" points="664,-358.5 664,-432.5 795,-432.5 795,-358.5 664,-358.5"/>
<text text-anchor="start" x="672" y="-420.5" font-family="Helvetica,sans-Serif" font-size="10.00" fill="#000000">/home/jihuan/Projects</text>
<text text-anchor="start" x="672" y="-409.5" font-family="Helvetica,sans-Serif" font-size="10.00" fill="#000000">/deal.ii/program/dealii</text>
<text text-anchor="start" x="672" y="-398.5" font-family="Helvetica,sans-Serif" font-size="10.00" fill="#000000">&#45;9.1.1/examples/laplace</text>
<text text-anchor="start" x="672" y="-387.5" font-family="Helvetica,sans-Serif" font-size="10.00" fill="#000000">&#45;bem/tests/block&#45;cluster</text>
<text text-anchor="start" x="672" y="-376.5" font-family="Helvetica,sans-Serif" font-size="10.00" fill="#000000">&#45;tree&#45;visualize&#45;with&#45;rank</text>
<text text-anchor="middle" x="729.5" y="-365.5" font-family="Helvetica,sans-Serif" font-size="10.00" fill="#000000">/bct&#45;visualize&#45;with&#45;rank.cc</text>
</g>
<!-- Node1 -->
<g id="node2" class="node">
<title>Node1</title>
<polygon fill="none" stroke="#bfbfbf" points="388.5,-56.5 388.5,-75.5 442.5,-75.5 442.5,-56.5 388.5,-56.5"/>
<text text-anchor="middle" x="415.5" y="-63.5" font-family="Helvetica,sans-Serif" font-size="10.00" fill="#000000">iostream</text>
</g>
<!-- Node0&#45;&gt;Node1 -->
<g id="edge1" class="edge">
<title>Node0&#45;&gt;Node1</title>
<path fill="none" stroke="#191970" d="M663.755,-374.2917C610.5807,-352.5345 544.5,-312.936 544.5,-250.5 544.5,-250.5 544.5,-250.5 544.5,-189 544.5,-135.7969 486.3149,-98.5775 448.099,-79.8695"/>
<polygon fill="#191970" stroke="#191970" points="449.3986,-76.6128 438.8609,-75.5136 446.4132,-82.9442 449.3986,-76.6128"/>
</g>
<!-- Node2 -->
<g id="node3" class="node">
<title>Node2</title>
<g id="a_node3"><a xlink:href="block__cluster__tree_8h.html" target="_top" xlink:title="Implementation of the class BlockClusterTree. ">
<polygon fill="none" stroke="#000000" points="677.5,-302.5 677.5,-321.5 781.5,-321.5 781.5,-302.5 677.5,-302.5"/>
<text text-anchor="middle" x="729.5" y="-309.5" font-family="Helvetica,sans-Serif" font-size="10.00" fill="#000000">block_cluster_tree.h</text>
</a>
</g>
</g>
<!-- Node0&#45;&gt;Node2 -->
<g id="edge2" class="edge">
<title>Node0&#45;&gt;Node2</title>
<path fill="none" stroke="#191970" d="M729.5,-358.1461C729.5,-349.0558 729.5,-339.6845 729.5,-331.7816"/>
<polygon fill="#191970" stroke="#191970" points="733.0001,-331.7701 729.5,-321.7701 726.0001,-331.7702 733.0001,-331.7701"/>
</g>
<!-- Node26 -->
<g id="node27" class="node">
<title>Node26</title>
<g id="a_node27"><a xlink:href="lapack__full__matrix__ext_8h_source.html" target="_top" xlink:title="lapack_full_matrix\l_ext.h">
<polygon fill="none" stroke="#000000" points="1206,-235.5 1206,-265.5 1301,-265.5 1301,-235.5 1206,-235.5"/>
<text text-anchor="start" x="1214" y="-253.5" font-family="Helvetica,sans-Serif" font-size="10.00" fill="#000000">lapack_full_matrix</text>
<text text-anchor="middle" x="1253.5" y="-242.5" font-family="Helvetica,sans-Serif" font-size="10.00" fill="#000000">_ext.h</text>
</a>
</g>
</g>
<!-- Node0&#45;&gt;Node26 -->
<g id="edge55" class="edge">
<title>Node0&#45;&gt;Node26</title>
<path fill="none" stroke="#191970" d="M795.0697,-377.3557C898.48,-348.7403 1097.7585,-293.5964 1195.9479,-266.4257"/>
<polygon fill="#191970" stroke="#191970" points="1196.9944,-269.7677 1205.6987,-263.7274 1195.1275,-263.0212 1196.9944,-269.7677"/>
</g>
<!-- Node3 -->
<g id="node4" class="node">
<title>Node3</title>
<g id="a_node4"><a xlink:href="block__cluster_8h.html" target="_top" xlink:title="Implementation of the class BlockCluster. ">
<polygon fill="none" stroke="#000000" points="758,-241 758,-260 841,-260 841,-241 758,-241"/>
<text text-anchor="middle" x="799.5" y="-248" font-family="Helvetica,sans-Serif" font-size="10.00" fill="#000000">block_cluster.h</text>
</a>
</g>
</g>
<!-- Node2&#45;&gt;Node3 -->
<g id="edge3" class="edge">
<title>Node2&#45;&gt;Node3</title>
<path fill="none" stroke="#191970" d="M740.4375,-302.3906C751.162,-292.9683 767.7287,-278.4134 780.5901,-267.1137"/>
<polygon fill="#191970" stroke="#191970" points="783.2059,-269.4745 788.4083,-260.2449 778.5857,-264.2158 783.2059,-269.4745"/>
</g>
<!-- Node15 -->
<g id="node16" class="node">
<title>Node15</title>
<g id="a_node16"><a xlink:href="cluster__tree_8h_source.html" target="_top" xlink:title="cluster_tree.h">
<polygon fill="none" stroke="#000000" points="705.5,-179.5 705.5,-198.5 781.5,-198.5 781.5,-179.5 705.5,-179.5"/>
<text text-anchor="middle" x="743.5" y="-186.5" font-family="Helvetica,sans-Serif" font-size="10.00" fill="#000000">cluster_tree.h</text>
</a>
</g>
</g>
<!-- Node2&#45;&gt;Node15 -->
<g id="edge35" class="edge">
<title>Node2&#45;&gt;Node15</title>
<path fill="none" stroke="#191970" d="M730.5986,-302.3484C732.8885,-282.2295 738.2118,-235.4608 741.2566,-208.7098"/>
<polygon fill="#191970" stroke="#191970" points="744.7531,-208.9385 742.4065,-198.6068 737.798,-208.1468 744.7531,-208.9385"/>
</g>
<!-- Node16 -->
<g id="node17" class="node">
<title>Node16</title>
<g id="a_node17"><a xlink:href="debug__tools_8h.html" target="_top" xlink:title="This file includes a bunch of helper functions for printing out and visualizing information about gri...">
<polygon fill="none" stroke="#000000" points="216,-118 216,-137 293,-137 293,-118 216,-118"/>
<text text-anchor="middle" x="254.5" y="-125" font-family="Helvetica,sans-Serif" font-size="10.00" fill="#000000">debug_tools.h</text>
</a>
</g>
</g>
<!-- Node2&#45;&gt;Node16 -->
<g id="edge36" class="edge">
<title>Node2&#45;&gt;Node16</title>
<path fill="none" stroke="#191970" d="M704.9622,-302.469C626.225,-271.8858 379.7811,-176.1618 288.7423,-140.8004"/>
<polygon fill="#191970" stroke="#191970" points="289.7649,-137.4429 279.1761,-137.0847 287.2304,-143.968 289.7649,-137.4429"/>
</g>
<!-- Node20 -->
<g id="node21" class="node">
<title>Node20</title>
<g id="a_node21"><a xlink:href="tree_8h.html" target="_top" xlink:title="Implementation of the classes for binary tree node, general tree node and functions for manipulating ...">
<polygon fill="none" stroke="#000000" points="657,-118 657,-137 698,-137 698,-118 657,-118"/>
<text text-anchor="middle" x="677.5" y="-125" font-family="Helvetica,sans-Serif" font-size="10.00" fill="#000000">tree.h</text>
</a>
</g>
</g>
<!-- Node2&#45;&gt;Node20 -->
<g id="edge54" class="edge">
<title>Node2&#45;&gt;Node20</title>
<path fill="none" stroke="#191970" d="M726.5952,-302.3487C720.7484,-282.8589 707.2043,-237.3887 696.5,-199 691.6067,-181.4511 686.3029,-161.3984 682.5457,-147.0042"/>
<polygon fill="#191970" stroke="#191970" points="685.9096,-146.0328 680.0065,-137.2349 679.1347,-147.7938 685.9096,-146.0328"/>
</g>
<!-- Node2&#45;&gt;Node26 -->
<g id="edge37" class="edge">
<title>Node2&#45;&gt;Node26</title>
<path fill="none" stroke="#191970" d="M781.6588,-305.8783C880.1406,-294.3199 1092.7762,-269.3636 1195.5527,-257.3011"/>
<polygon fill="#191970" stroke="#191970" points="1196.2202,-260.7468 1205.744,-256.105 1195.4041,-253.7946 1196.2202,-260.7468"/>
</g>
<!-- Node4 -->
<g id="node5" class="node">
<title>Node4</title>
<g id="a_node5"><a xlink:href="cluster_8h.html" target="_top" xlink:title="Implementation of the class Cluster. ">
<polygon fill="none" stroke="#000000" points="832.5,-118 832.5,-137 886.5,-137 886.5,-118 832.5,-118"/>
<text text-anchor="middle" x="859.5" y="-125" font-family="Helvetica,sans-Serif" font-size="10.00" fill="#000000">cluster.h</text>
</a>
</g>
</g>
<!-- Node3&#45;&gt;Node4 -->
<g id="edge4" class="edge">
<title>Node3&#45;&gt;Node4</title>
<path fill="none" stroke="#191970" d="M804.2081,-240.8484C814.1536,-220.4601 837.4496,-172.7033 850.4044,-146.1459"/>
<polygon fill="#191970" stroke="#191970" points="853.5752,-147.629 854.8138,-137.1068 847.2838,-144.56 853.5752,-147.629"/>
</g>
<!-- Node3&#45;&gt;Node15 -->
<g id="edge16" class="edge">
<title>Node3&#45;&gt;Node15</title>
<path fill="none" stroke="#191970" d="M790.75,-240.8906C782.3338,-231.6478 769.4203,-217.466 759.219,-206.2628"/>
<polygon fill="#191970" stroke="#191970" points="761.694,-203.7824 752.3734,-198.7449 756.5182,-208.4953 761.694,-203.7824"/>
</g>
<!-- Node5 -->
<g id="node6" class="node">
<title>Node5</title>
<polygon fill="none" stroke="#bfbfbf" points="1014,-56.5 1014,-75.5 1117,-75.5 1117,-56.5 1014,-56.5"/>
<text text-anchor="middle" x="1065.5" y="-63.5" font-family="Helvetica,sans-Serif" font-size="10.00" fill="#000000">deal.II/base/types.h</text>
</g>
<!-- Node4&#45;&gt;Node5 -->
<g id="edge5" class="edge">
<title>Node4&#45;&gt;Node5</title>
<path fill="none" stroke="#191970" d="M886.8552,-119.3333C921.9399,-108.859 983.1221,-90.5934 1023.9682,-78.399"/>
<polygon fill="#191970" stroke="#191970" points="1025.0502,-81.7288 1033.6311,-75.5143 1023.0477,-75.0213 1025.0502,-81.7288"/>
</g>
<!-- Node6 -->
<g id="node7" class="node">
<title>Node6</title>
<polygon fill="none" stroke="#bfbfbf" points="725.5,-56.5 725.5,-75.5 781.5,-75.5 781.5,-56.5 725.5,-56.5"/>
<text text-anchor="middle" x="753.5" y="-63.5" font-family="Helvetica,sans-Serif" font-size="10.00" fill="#000000">algorithm</text>
</g>
<!-- Node4&#45;&gt;Node6 -->
<g id="edge6" class="edge">
<title>Node4&#45;&gt;Node6</title>
<path fill="none" stroke="#191970" d="M842.9375,-117.8906C825.7463,-107.9165 798.6418,-92.1908 778.7734,-80.6633"/>
<polygon fill="#191970" stroke="#191970" points="780.3523,-77.533 769.9462,-75.5419 776.8394,-83.5877 780.3523,-77.533"/>
</g>
<!-- Node7 -->
<g id="node8" class="node">
<title>Node7</title>
<polygon fill="none" stroke="#bfbfbf" points="1280,-56.5 1280,-75.5 1327,-75.5 1327,-56.5 1280,-56.5"/>
<text text-anchor="middle" x="1303.5" y="-63.5" font-family="Helvetica,sans-Serif" font-size="10.00" fill="#000000">iterator</text>
</g>
<!-- Node4&#45;&gt;Node7 -->
<g id="edge7" class="edge">
<title>Node4&#45;&gt;Node7</title>
<path fill="none" stroke="#191970" d="M886.6936,-125.6947C951.5156,-121.0527 1120.249,-106.9748 1269.9973,-75.7766"/>
<polygon fill="#191970" stroke="#191970" points="1270.7728,-79.1901 1279.8322,-73.6968 1269.3244,-72.3416 1270.7728,-79.1901"/>
</g>
<!-- Node8 -->
<g id="node9" class="node">
<title>Node8</title>
<polygon fill="none" stroke="#bfbfbf" points="954.5,-.5 954.5,-19.5 998.5,-19.5 998.5,-.5 954.5,-.5"/>
<text text-anchor="middle" x="976.5" y="-7.5" font-family="Helvetica,sans-Serif" font-size="10.00" fill="#000000">vector</text>
</g>
<!-- Node4&#45;&gt;Node8 -->
<g id="edge8" class="edge">
<title>Node4&#45;&gt;Node8</title>
<path fill="none" stroke="#191970" d="M886.6723,-120.812C910.0273,-113.6393 942.8107,-99.9148 961.5,-76 971.7768,-62.8499 975.2674,-43.9757 976.3387,-29.7767"/>
<polygon fill="#191970" stroke="#191970" points="979.8437,-29.7274 976.7625,-19.5905 972.8497,-29.4363 979.8437,-29.7274"/>
</g>
<!-- Node9 -->
<g id="node10" class="node">
<title>Node9</title>
<g id="a_node10"><a xlink:href="simple__bounding__box_8h_source.html" target="_top" xlink:title="simple_bounding_box.h">
<polygon fill="none" stroke="#000000" points="800,-56.5 800,-75.5 919,-75.5 919,-56.5 800,-56.5"/>
<text text-anchor="middle" x="859.5" y="-63.5" font-family="Helvetica,sans-Serif" font-size="10.00" fill="#000000">simple_bounding_box.h</text>
</a>
</g>
</g>
<!-- Node4&#45;&gt;Node9 -->
<g id="edge9" class="edge">
<title>Node4&#45;&gt;Node9</title>
<path fill="none" stroke="#191970" d="M859.5,-117.8906C859.5,-109.3657 859.5,-96.6392 859.5,-85.9235"/>
<polygon fill="#191970" stroke="#191970" points="863.0001,-85.7448 859.5,-75.7449 856.0001,-85.7449 863.0001,-85.7448"/>
</g>
<!-- Node9&#45;&gt;Node8 -->
<g id="edge15" class="edge">
<title>Node9&#45;&gt;Node8</title>
<path fill="none" stroke="#191970" d="M879.613,-56.3733C898.3103,-47.4241 926.3744,-33.9917 947.4934,-23.8835"/>
<polygon fill="#191970" stroke="#191970" points="949.1405,-26.9755 956.6494,-19.5011 946.1183,-20.6614 949.1405,-26.9755"/>
</g>
<!-- Node10 -->
<g id="node11" class="node">
<title>Node10</title>
<polygon fill="none" stroke="#bfbfbf" points="818.5,-.5 818.5,-19.5 918.5,-19.5 918.5,-.5 818.5,-.5"/>
<text text-anchor="middle" x="868.5" y="-7.5" font-family="Helvetica,sans-Serif" font-size="10.00" fill="#000000">deal.II/base/point.h</text>
</g>
<!-- Node9&#45;&gt;Node10 -->
<g id="edge10" class="edge">
<title>Node9&#45;&gt;Node10</title>
<path fill="none" stroke="#191970" d="M861.0677,-56.2455C862.2421,-48.9382 863.8884,-38.6944 865.3332,-29.7046"/>
<polygon fill="#191970" stroke="#191970" points="868.8191,-30.0714 866.9503,-19.6427 861.9078,-28.9606 868.8191,-30.0714"/>
</g>
<!-- Node11 -->
<g id="node12" class="node">
<title>Node11</title>
<polygon fill="none" stroke="#bfbfbf" points="0,-.5 0,-19.5 127,-19.5 127,-.5 0,-.5"/>
<text text-anchor="middle" x="63.5" y="-7.5" font-family="Helvetica,sans-Serif" font-size="10.00" fill="#000000">deal.II/dofs/dof_handler.h</text>
</g>
<!-- Node9&#45;&gt;Node11 -->
<g id="edge11" class="edge">
<title>Node9&#45;&gt;Node11</title>
<path fill="none" stroke="#191970" d="M799.6977,-57.0316C796.5899,-56.6599 793.5099,-56.3128 790.5,-56 552.5954,-31.2747 269.4143,-17.9759 137.7037,-12.7152"/>
<polygon fill="#191970" stroke="#191970" points="137.4707,-9.2034 127.3402,-12.3054 137.1941,-16.1979 137.4707,-9.2034"/>
</g>
<!-- Node12 -->
<g id="node13" class="node">
<title>Node12</title>
<polygon fill="none" stroke="#bfbfbf" points="575.5,-.5 575.5,-19.5 691.5,-19.5 691.5,-.5 575.5,-.5"/>
<text text-anchor="middle" x="633.5" y="-7.5" font-family="Helvetica,sans-Serif" font-size="10.00" fill="#000000">deal.II/dofs/dof_tools.h</text>
</g>
<!-- Node9&#45;&gt;Node12 -->
<g id="edge12" class="edge">
<title>Node9&#45;&gt;Node12</title>
<path fill="none" stroke="#191970" d="M820.906,-56.4369C782.4716,-46.9133 723.364,-32.2672 681.829,-21.9753"/>
<polygon fill="#191970" stroke="#191970" points="682.4831,-18.5316 671.9348,-19.5237 680.7994,-25.3261 682.4831,-18.5316"/>
</g>
<!-- Node13 -->
<g id="node14" class="node">
<title>Node13</title>
<polygon fill="none" stroke="#bfbfbf" points="351,-.5 351,-19.5 454,-19.5 454,-.5 351,-.5"/>
<text text-anchor="middle" x="402.5" y="-7.5" font-family="Helvetica,sans-Serif" font-size="10.00" fill="#000000">deal.II/fe/mapping.h</text>
</g>
<!-- Node9&#45;&gt;Node13 -->
<g id="edge13" class="edge">
<title>Node9&#45;&gt;Node13</title>
<path fill="none" stroke="#191970" d="M799.674,-57.2328C796.5724,-56.8085 793.5002,-56.3952 790.5,-56 675.2916,-40.8248 540.5281,-25.3608 463.9706,-16.7898"/>
<polygon fill="#191970" stroke="#191970" points="464.3447,-13.3099 454.0178,-15.6777 463.5673,-20.2666 464.3447,-13.3099"/>
</g>
<!-- Node14 -->
<g id="node15" class="node">
<title>Node14</title>
<polygon fill="none" stroke="#bfbfbf" points="760.5,-.5 760.5,-19.5 800.5,-19.5 800.5,-.5 760.5,-.5"/>
<text text-anchor="middle" x="780.5" y="-7.5" font-family="Helvetica,sans-Serif" font-size="10.00" fill="#000000">utility</text>
</g>
<!-- Node9&#45;&gt;Node14 -->
<g id="edge14" class="edge">
<title>Node9&#45;&gt;Node14</title>
<path fill="none" stroke="#191970" d="M845.7393,-56.2455C833.8448,-47.814 816.435,-35.4729 802.5915,-25.6598"/>
<polygon fill="#191970" stroke="#191970" points="804.2854,-22.5704 794.1031,-19.6427 800.2372,-28.2811 804.2854,-22.5704"/>
</g>
<!-- Node15&#45;&gt;Node4 -->
<g id="edge17" class="edge">
<title>Node15&#45;&gt;Node4</title>
<path fill="none" stroke="#191970" d="M761.625,-179.3906C780.6083,-169.3262 810.6373,-153.4057 832.4307,-141.8514"/>
<polygon fill="#191970" stroke="#191970" points="834.3066,-144.8184 841.5023,-137.0419 831.0277,-138.6338 834.3066,-144.8184"/>
</g>
<!-- Node15&#45;&gt;Node16 -->
<g id="edge18" class="edge">
<title>Node15&#45;&gt;Node16</title>
<path fill="none" stroke="#191970" d="M705.129,-184.1742C617.0401,-173.0955 400.4445,-145.855 303.1758,-133.6218"/>
<polygon fill="#191970" stroke="#191970" points="303.3891,-130.1211 293.0305,-132.3459 302.5155,-137.0664 303.3891,-130.1211"/>
</g>
<!-- Node15&#45;&gt;Node20 -->
<g id="edge26" class="edge">
<title>Node15&#45;&gt;Node20</title>
<path fill="none" stroke="#191970" d="M733.1875,-179.3906C723.0758,-169.9683 707.4558,-155.4134 695.3293,-144.1137"/>
<polygon fill="#191970" stroke="#191970" points="697.6601,-141.5015 687.9579,-137.2449 692.888,-146.6228 697.6601,-141.5015"/>
</g>
<!-- Node16&#45;&gt;Node1 -->
<g id="edge24" class="edge">
<title>Node16&#45;&gt;Node1</title>
<path fill="none" stroke="#191970" d="M279.6563,-117.8906C306.949,-107.4652 350.692,-90.7559 381.1397,-79.1252"/>
<polygon fill="#191970" stroke="#191970" points="382.4277,-82.3799 390.5204,-75.5419 379.9298,-75.8408 382.4277,-82.3799"/>
</g>
<!-- Node16&#45;&gt;Node11 -->
<g id="edge19" class="edge">
<title>Node16&#45;&gt;Node11</title>
<path fill="none" stroke="#191970" d="M215.8753,-123.2962C162.7685,-116.6294 71.482,-101.6843 51.5,-76 41.0413,-62.5567 46.4489,-42.9329 53.0078,-28.5778"/>
<polygon fill="#191970" stroke="#191970" points="56.1482,-30.1236 57.5516,-19.6222 49.9057,-26.9564 56.1482,-30.1236"/>
</g>
<!-- Node16&#45;&gt;Node12 -->
<g id="edge20" class="edge">
<title>Node16&#45;&gt;Node12</title>
<path fill="none" stroke="#191970" d="M215.8556,-123.4101C158.1755,-115.8784 60.1342,-96.71 97.5,-56 105.322,-47.4779 422.2099,-24.5859 564.9898,-14.6776"/>
<polygon fill="#191970" stroke="#191970" points="565.64,-18.141 575.3744,-13.9585 565.1564,-11.1577 565.64,-18.141"/>
</g>
<!-- Node16&#45;&gt;Node13 -->
<g id="edge23" class="edge">
<title>Node16&#45;&gt;Node13</title>
<path fill="none" stroke="#191970" d="M215.9402,-125.8528C148.4504,-121.6286 20.1095,-106.841 64.5,-56 82.3563,-35.5489 248.0598,-20.7938 340.6391,-14.068"/>
<polygon fill="#191970" stroke="#191970" points="341.0063,-17.5508 350.7308,-13.3456 340.5064,-10.5687 341.0063,-17.5508"/>
</g>
<!-- Node17 -->
<g id="node18" class="node">
<title>Node17</title>
<polygon fill="none" stroke="#bfbfbf" points="106.5,-56.5 106.5,-75.5 180.5,-75.5 180.5,-56.5 106.5,-56.5"/>
<text text-anchor="middle" x="143.5" y="-63.5" font-family="Helvetica,sans-Serif" font-size="10.00" fill="#000000">deal.II/fe/fe.h</text>
</g>
<!-- Node16&#45;&gt;Node17 -->
<g id="edge21" class="edge">
<title>Node16&#45;&gt;Node17</title>
<path fill="none" stroke="#191970" d="M237.1563,-117.8906C219.0727,-107.8713 190.5141,-92.0483 169.6835,-80.5071"/>
<polygon fill="#191970" stroke="#191970" points="171.1654,-77.3268 160.722,-75.5419 167.7729,-83.4498 171.1654,-77.3268"/>
</g>
<!-- Node18 -->
<g id="node19" class="node">
<title>Node18</title>
<polygon fill="none" stroke="#bfbfbf" points="198.5,-56.5 198.5,-75.5 310.5,-75.5 310.5,-56.5 198.5,-56.5"/>
<text text-anchor="middle" x="254.5" y="-63.5" font-family="Helvetica,sans-Serif" font-size="10.00" fill="#000000">deal.II/fe/fe_system.h</text>
</g>
<!-- Node16&#45;&gt;Node18 -->
<g id="edge22" class="edge">
<title>Node16&#45;&gt;Node18</title>
<path fill="none" stroke="#191970" d="M254.5,-117.8906C254.5,-109.3657 254.5,-96.6392 254.5,-85.9235"/>
<polygon fill="#191970" stroke="#191970" points="258.0001,-85.7448 254.5,-75.7449 251.0001,-85.7449 258.0001,-85.7448"/>
</g>
<!-- Node19 -->
<g id="node20" class="node">
<title>Node19</title>
<polygon fill="none" stroke="#bfbfbf" points="329,-56.5 329,-75.5 370,-75.5 370,-56.5 329,-56.5"/>
<text text-anchor="middle" x="349.5" y="-63.5" font-family="Helvetica,sans-Serif" font-size="10.00" fill="#000000">string</text>
</g>
<!-- Node16&#45;&gt;Node19 -->
<g id="edge25" class="edge">
<title>Node16&#45;&gt;Node19</title>
<path fill="none" stroke="#191970" d="M269.3438,-117.8906C284.5418,-108.0519 308.3848,-92.6167 326.1206,-81.1351"/>
<polygon fill="#191970" stroke="#191970" points="328.268,-83.9144 334.7605,-75.5419 324.4639,-78.0382 328.268,-83.9144"/>
</g>
<!-- Node20&#45;&gt;Node1 -->
<g id="edge32" class="edge">
<title>Node20&#45;&gt;Node1</title>
<path fill="none" stroke="#191970" d="M656.9611,-123.0796C617.3182,-114.4855 527.5403,-94.721 452.5,-76 452.3991,-75.9748 452.2981,-75.9496 452.1969,-75.9243"/>
<polygon fill="#191970" stroke="#191970" points="453.1031,-72.5435 442.5462,-73.4402 451.358,-79.3225 453.1031,-72.5435"/>
</g>
<!-- Node20&#45;&gt;Node6 -->
<g id="edge28" class="edge">
<title>Node20&#45;&gt;Node6</title>
<path fill="none" stroke="#191970" d="M689.375,-117.8906C701.1297,-108.3786 719.3486,-93.6357 733.3672,-82.2917"/>
<polygon fill="#191970" stroke="#191970" points="735.8856,-84.7562 741.4576,-75.7449 731.4822,-79.3146 735.8856,-84.7562"/>
</g>
<!-- Node20&#45;&gt;Node8 -->
<g id="edge34" class="edge">
<title>Node20&#45;&gt;Node8</title>
<path fill="none" stroke="#191970" d="M698.0761,-125.2129C750.9248,-119.0386 889.9793,-100.8095 928.5,-76 946.2835,-64.5464 959.65,-44.0047 967.703,-28.8706"/>
<polygon fill="#191970" stroke="#191970" points="970.8693,-30.3644 972.2208,-19.8561 964.6112,-27.2281 970.8693,-30.3644"/>
</g>
<!-- Node21 -->
<g id="node22" class="node">
<title>Node21</title>
<polygon fill="none" stroke="#bfbfbf" points="1135.5,-56.5 1135.5,-75.5 1261.5,-75.5 1261.5,-56.5 1135.5,-56.5"/>
<text text-anchor="middle" x="1198.5" y="-63.5" font-family="Helvetica,sans-Serif" font-size="10.00" fill="#000000">deal.II/base/exceptions.h</text>
</g>
<!-- Node20&#45;&gt;Node21 -->
<g id="edge27" class="edge">
<title>Node20&#45;&gt;Node21</title>
<path fill="none" stroke="#191970" d="M698.1077,-125.3129C760.6404,-118.6392 953.9267,-97.7374 1125.3384,-76.1245"/>
<polygon fill="#191970" stroke="#191970" points="1125.8135,-79.5924 1135.2952,-74.8651 1124.935,-72.6477 1125.8135,-79.5924"/>
</g>
<!-- Node22 -->
<g id="node23" class="node">
<title>Node22</title>
<polygon fill="none" stroke="#bfbfbf" points="514.5,-56.5 514.5,-75.5 552.5,-75.5 552.5,-56.5 514.5,-56.5"/>
<text text-anchor="middle" x="533.5" y="-63.5" font-family="Helvetica,sans-Serif" font-size="10.00" fill="#000000">array</text>
</g>
<!-- Node20&#45;&gt;Node22 -->
<g id="edge29" class="edge">
<title>Node20&#45;&gt;Node22</title>
<path fill="none" stroke="#191970" d="M656.8683,-118.6885C631.9637,-108.0522 589.9497,-90.1087 561.9723,-78.16"/>
<polygon fill="#191970" stroke="#191970" points="563.2839,-74.9144 552.7128,-74.2055 560.5345,-81.3519 563.2839,-74.9144"/>
</g>
<!-- Node23 -->
<g id="node24" class="node">
<title>Node23</title>
<polygon fill="none" stroke="#bfbfbf" points="571,-56.5 571,-75.5 630,-75.5 630,-56.5 571,-56.5"/>
<text text-anchor="middle" x="600.5" y="-63.5" font-family="Helvetica,sans-Serif" font-size="10.00" fill="#000000">exception</text>
</g>
<!-- Node20&#45;&gt;Node23 -->
<g id="edge30" class="edge">
<title>Node20&#45;&gt;Node23</title>
<path fill="none" stroke="#191970" d="M665.4688,-117.8906C653.4893,-108.3227 634.8834,-93.4621 620.6475,-82.0919"/>
<polygon fill="#191970" stroke="#191970" points="622.4447,-79.0479 612.4468,-75.5419 618.0761,-84.5175 622.4447,-79.0479"/>
</g>
<!-- Node24 -->
<g id="node25" class="node">
<title>Node24</title>
<polygon fill="none" stroke="#bfbfbf" points="648,-56.5 648,-75.5 707,-75.5 707,-56.5 648,-56.5"/>
<text text-anchor="middle" x="677.5" y="-63.5" font-family="Helvetica,sans-Serif" font-size="10.00" fill="#000000">functional</text>
</g>
<!-- Node20&#45;&gt;Node24 -->
<g id="edge31" class="edge">
<title>Node20&#45;&gt;Node24</title>
<path fill="none" stroke="#191970" d="M677.5,-117.8906C677.5,-109.3657 677.5,-96.6392 677.5,-85.9235"/>
<polygon fill="#191970" stroke="#191970" points="681.0001,-85.7448 677.5,-75.7449 674.0001,-85.7449 681.0001,-85.7448"/>
</g>
<!-- Node25 -->
<g id="node26" class="node">
<title>Node25</title>
<polygon fill="none" stroke="#bfbfbf" points="461,-56.5 461,-75.5 496,-75.5 496,-56.5 461,-56.5"/>
<text text-anchor="middle" x="478.5" y="-63.5" font-family="Helvetica,sans-Serif" font-size="10.00" fill="#000000">new</text>
</g>
<!-- Node20&#45;&gt;Node25 -->
<g id="edge33" class="edge">
<title>Node20&#45;&gt;Node25</title>
<path fill="none" stroke="#191970" d="M656.9801,-121.8141C626.2419,-113.1992 566.2471,-96.0093 505.8534,-75.9654"/>
<polygon fill="#191970" stroke="#191970" points="506.7553,-72.5766 496.1615,-72.7249 504.5356,-79.2153 506.7553,-72.5766"/>
</g>
<!-- Node26&#45;&gt;Node8 -->
<g id="edge40" class="edge">
<title>Node26&#45;&gt;Node8</title>
<path fill="none" stroke="#191970" d="M1294.4108,-235.4816C1310.5283,-227.3159 1327.3481,-215.4491 1336.5,-199 1367.4002,-143.4618 1378.4961,-103.7037 1336.5,-56 1314.9645,-31.5377 1093.0881,-16.5695 1008.7713,-11.7277"/>
<polygon fill="#191970" stroke="#191970" points="1008.9151,-8.2304 998.734,-11.1621 1008.5212,-15.2193 1008.9151,-8.2304"/>
</g>
<!-- Node27 -->
<g id="node28" class="node">
<title>Node27</title>
<polygon fill="none" stroke="#bfbfbf" points="1233.5,-179.5 1233.5,-198.5 1273.5,-198.5 1273.5,-179.5 1233.5,-179.5"/>
<text text-anchor="middle" x="1253.5" y="-186.5" font-family="Helvetica,sans-Serif" font-size="10.00" fill="#000000">limits</text>
</g>
<!-- Node26&#45;&gt;Node27 -->
<g id="edge38" class="edge">
<title>Node26&#45;&gt;Node27</title>
<path fill="none" stroke="#191970" d="M1253.5,-235.2977C1253.5,-227.3834 1253.5,-217.6043 1253.5,-209.0759"/>
<polygon fill="#191970" stroke="#191970" points="1257.0001,-208.8469 1253.5,-198.8469 1250.0001,-208.847 1257.0001,-208.8469"/>
</g>
<!-- Node28 -->
<g id="node29" class="node">
<title>Node28</title>
<polygon fill="none" stroke="#bfbfbf" points="1292,-179.5 1292,-198.5 1327,-198.5 1327,-179.5 1292,-179.5"/>
<text text-anchor="middle" x="1309.5" y="-186.5" font-family="Helvetica,sans-Serif" font-size="10.00" fill="#000000">map</text>
</g>
<!-- Node26&#45;&gt;Node28 -->
<g id="edge39" class="edge">
<title>Node26&#45;&gt;Node28</title>
<path fill="none" stroke="#191970" d="M1267.3427,-235.2977C1275.359,-226.4941 1285.4762,-215.3833 1293.79,-206.2529"/>
<polygon fill="#191970" stroke="#191970" points="1296.3888,-208.5974 1300.5337,-198.8469 1291.2131,-203.8845 1296.3888,-208.5974"/>
</g>
<!-- Node29 -->
<g id="node30" class="node">
<title>Node29</title>
<g id="a_node30"><a xlink:href="general__exceptions_8h.html" target="_top" xlink:title="Definition of self&#45;defined general exceptions. ">
<polygon fill="none" stroke="#000000" points="1106,-179.5 1106,-198.5 1215,-198.5 1215,-179.5 1106,-179.5"/>
<text text-anchor="middle" x="1160.5" y="-186.5" font-family="Helvetica,sans-Serif" font-size="10.00" fill="#000000">general_exceptions.h</text>
</a>
</g>
</g>
<!-- Node26&#45;&gt;Node29 -->
<g id="edge41" class="edge">
<title>Node26&#45;&gt;Node29</title>
<path fill="none" stroke="#191970" d="M1230.5112,-235.2977C1216.3034,-225.9022 1198.1215,-213.8787 1183.8475,-204.4395"/>
<polygon fill="#191970" stroke="#191970" points="1185.3845,-201.2598 1175.1128,-198.6633 1181.5233,-207.0986 1185.3845,-201.2598"/>
</g>
<!-- Node30 -->
<g id="node31" class="node">
<title>Node30</title>
<g id="a_node31"><a xlink:href="lapack__helpers_8h.html" target="_top" xlink:title="Exposes LAPACK helper functions defined in lapack_full_matrix.cc and define new ones by following the...">
<polygon fill="none" stroke="#000000" points="1917.5,-179.5 1917.5,-198.5 2007.5,-198.5 2007.5,-179.5 1917.5,-179.5"/>
<text text-anchor="middle" x="1962.5" y="-186.5" font-family="Helvetica,sans-Serif" font-size="10.00" fill="#000000">lapack_helpers.h</text>
</a>
</g>
</g>
<!-- Node26&#45;&gt;Node30 -->
<g id="edge43" class="edge">
<title>Node26&#45;&gt;Node30</title>
<path fill="none" stroke="#191970" d="M1301.1204,-246.3693C1427.7578,-235.3845 1772.3524,-205.4938 1907.2758,-193.7903"/>
<polygon fill="#191970" stroke="#191970" points="1907.7263,-197.2644 1917.3864,-192.9132 1907.1213,-190.2906 1907.7263,-197.2644"/>
</g>
<!-- Node29&#45;&gt;Node21 -->
<g id="edge42" class="edge">
<title>Node29&#45;&gt;Node21</title>
<path fill="none" stroke="#191970" d="M1163.4818,-179.3484C1169.7251,-159.1397 1184.2754,-112.0427 1192.5211,-85.3528"/>
<polygon fill="#191970" stroke="#191970" points="1195.9243,-86.1943 1195.5321,-75.6068 1189.2362,-84.1281 1195.9243,-86.1943"/>
</g>
<!-- Node31 -->
<g id="node32" class="node">
<title>Node31</title>
<polygon fill="none" stroke="#bfbfbf" points="1619.5,-118 1619.5,-137 1735.5,-137 1735.5,-118 1619.5,-118"/>
<text text-anchor="middle" x="1677.5" y="-125" font-family="Helvetica,sans-Serif" font-size="10.00" fill="#000000">deal.II/base/numbers.h</text>
</g>
<!-- Node30&#45;&gt;Node31 -->
<g id="edge44" class="edge">
<title>Node30&#45;&gt;Node31</title>
<path fill="none" stroke="#191970" d="M1917.3533,-179.7398C1873.2282,-170.6263 1804.1735,-156.1971 1744.5,-143 1739.1813,-141.8237 1733.6302,-140.5744 1728.0986,-139.3154"/>
<polygon fill="#191970" stroke="#191970" points="1728.7461,-135.8732 1718.2171,-137.0526 1727.1835,-142.6966 1728.7461,-135.8732"/>
</g>
<!-- Node32 -->
<g id="node33" class="node">
<title>Node32</title>
<polygon fill="none" stroke="#bfbfbf" points="1753.5,-112.5 1753.5,-142.5 1881.5,-142.5 1881.5,-112.5 1753.5,-112.5"/>
<text text-anchor="start" x="1761.5" y="-130.5" font-family="Helvetica,sans-Serif" font-size="10.00" fill="#000000">deal.II/lac/blas_extension</text>
<text text-anchor="middle" x="1817.5" y="-119.5" font-family="Helvetica,sans-Serif" font-size="10.00" fill="#000000">_templates.h</text>
</g>
<!-- Node30&#45;&gt;Node32 -->
<g id="edge45" class="edge">
<title>Node30&#45;&gt;Node32</title>
<path fill="none" stroke="#191970" d="M1939.8438,-179.3906C1919.2204,-170.6435 1888.1677,-157.4728 1862.5082,-146.5897"/>
<polygon fill="#191970" stroke="#191970" points="1863.5438,-143.2272 1852.971,-142.5446 1860.8105,-149.6715 1863.5438,-143.2272"/>
</g>
<!-- Node33 -->
<g id="node34" class="node">
<title>Node33</title>
<polygon fill="none" stroke="#bfbfbf" points="1899.5,-118 1899.5,-137 2025.5,-137 2025.5,-118 1899.5,-118"/>
<text text-anchor="middle" x="1962.5" y="-125" font-family="Helvetica,sans-Serif" font-size="10.00" fill="#000000">deal.II/lac/block_vector.h</text>
</g>
<!-- Node30&#45;&gt;Node33 -->
<g id="edge46" class="edge">
<title>Node30&#45;&gt;Node33</title>
<path fill="none" stroke="#191970" d="M1962.5,-179.3906C1962.5,-170.8657 1962.5,-158.1392 1962.5,-147.4235"/>
<polygon fill="#191970" stroke="#191970" points="1966.0001,-147.2448 1962.5,-137.2449 1959.0001,-147.2449 1966.0001,-147.2448"/>
</g>
<!-- Node34 -->
<g id="node35" class="node">
<title>Node34</title>
<polygon fill="none" stroke="#bfbfbf" points="2043.5,-118 2043.5,-137 2159.5,-137 2159.5,-118 2043.5,-118"/>
<text text-anchor="middle" x="2101.5" y="-125" font-family="Helvetica,sans-Serif" font-size="10.00" fill="#000000">deal.II/lac/full_matrix.h</text>
</g>
<!-- Node30&#45;&gt;Node34 -->
<g id="edge47" class="edge">
<title>Node30&#45;&gt;Node34</title>
<path fill="none" stroke="#191970" d="M1984.2188,-179.3906C2007.374,-169.1457 2044.2441,-152.8326 2070.4591,-141.2339"/>
<polygon fill="#191970" stroke="#191970" points="2072.205,-144.2888 2079.9338,-137.0419 2069.3727,-137.8874 2072.205,-144.2888"/>
</g>
<!-- Node35 -->
<g id="node36" class="node">
<title>Node35</title>
<polygon fill="none" stroke="#bfbfbf" points="2178,-112.5 2178,-142.5 2269,-142.5 2269,-112.5 2178,-112.5"/>
<text text-anchor="start" x="2186" y="-130.5" font-family="Helvetica,sans-Serif" font-size="10.00" fill="#000000">deal.II/lac/lapack</text>
<text text-anchor="middle" x="2223.5" y="-119.5" font-family="Helvetica,sans-Serif" font-size="10.00" fill="#000000">_full_matrix.h</text>
</g>
<!-- Node30&#45;&gt;Node35 -->
<g id="edge48" class="edge">
<title>Node30&#45;&gt;Node35</title>
<path fill="none" stroke="#191970" d="M2007.6765,-179.6593C2047.401,-171.278 2106.9942,-158.2997 2168.1136,-143.0213"/>
<polygon fill="#191970" stroke="#191970" points="2169.09,-146.3848 2177.9332,-140.5498 2167.3814,-139.5965 2169.09,-146.3848"/>
</g>
<!-- Node36 -->
<g id="node37" class="node">
<title>Node36</title>
<polygon fill="none" stroke="#bfbfbf" points="2287,-112.5 2287,-142.5 2378,-142.5 2378,-112.5 2287,-112.5"/>
<text text-anchor="start" x="2295" y="-130.5" font-family="Helvetica,sans-Serif" font-size="10.00" fill="#000000">deal.II/lac/lapack</text>
<text text-anchor="middle" x="2332.5" y="-119.5" font-family="Helvetica,sans-Serif" font-size="10.00" fill="#000000">_support.h</text>
</g>
<!-- Node30&#45;&gt;Node36 -->
<g id="edge49" class="edge">
<title>Node30&#45;&gt;Node36</title>
<path fill="none" stroke="#191970" d="M2007.5828,-184.3758C2067.2147,-177.834 2175.6975,-164.4619 2276.8644,-143.1951"/>
<polygon fill="#191970" stroke="#191970" points="2277.895,-146.554 2286.9444,-141.0442 2276.4342,-139.7081 2277.895,-146.554"/>
</g>
<!-- Node37 -->
<g id="node38" class="node">
<title>Node37</title>
<polygon fill="none" stroke="#bfbfbf" points="2396,-112.5 2396,-142.5 2487,-142.5 2487,-112.5 2396,-112.5"/>
<text text-anchor="start" x="2404" y="-130.5" font-family="Helvetica,sans-Serif" font-size="10.00" fill="#000000">deal.II/lac/lapack</text>
<text text-anchor="middle" x="2441.5" y="-119.5" font-family="Helvetica,sans-Serif" font-size="10.00" fill="#000000">_templates.h</text>
</g>
<!-- Node30&#45;&gt;Node37 -->
<g id="edge50" class="edge">
<title>Node30&#45;&gt;Node37</title>
<path fill="none" stroke="#191970" d="M2007.5481,-186.6714C2083.8054,-182.1771 2243.2137,-170.3983 2386.1441,-143.0726"/>
<polygon fill="#191970" stroke="#191970" points="2386.8199,-146.5068 2395.9691,-141.1643 2385.4852,-139.6352 2386.8199,-146.5068"/>
</g>
<!-- Node38 -->
<g id="node39" class="node">
<title>Node38</title>
<polygon fill="none" stroke="#bfbfbf" points="2505.5,-112.5 2505.5,-142.5 2597.5,-142.5 2597.5,-112.5 2505.5,-112.5"/>
<text text-anchor="start" x="2513.5" y="-130.5" font-family="Helvetica,sans-Serif" font-size="10.00" fill="#000000">deal.II/lac/sparse</text>
<text text-anchor="middle" x="2551.5" y="-119.5" font-family="Helvetica,sans-Serif" font-size="10.00" fill="#000000">_matrix.h</text>
</g>
<!-- Node30&#45;&gt;Node38 -->
<g id="edge51" class="edge">
<title>Node30&#45;&gt;Node38</title>
<path fill="none" stroke="#191970" d="M2007.5356,-187.9836C2098.305,-185.3192 2309.7009,-176.0015 2495.4874,-142.9599"/>
<polygon fill="#191970" stroke="#191970" points="2496.2159,-146.385 2505.4346,-141.1634 2494.9717,-139.4965 2496.2159,-146.385"/>
</g>
<!-- Node39 -->
<g id="node40" class="node">
<title>Node39</title>
<polygon fill="none" stroke="#bfbfbf" points="1384,-118 1384,-137 1485,-137 1485,-118 1384,-118"/>
<text text-anchor="middle" x="1434.5" y="-125" font-family="Helvetica,sans-Serif" font-size="10.00" fill="#000000">deal.II/lac/utilities.h</text>
</g>
<!-- Node30&#45;&gt;Node39 -->
<g id="edge52" class="edge">
<title>Node30&#45;&gt;Node39</title>
<path fill="none" stroke="#191970" d="M1917.3331,-186.8892C1833.4702,-182.4555 1648.244,-170.2453 1494.5,-143 1489.0046,-142.0261 1483.2726,-140.8105 1477.6256,-139.4911"/>
<polygon fill="#191970" stroke="#191970" points="1478.1685,-136.0204 1467.6222,-137.0338 1476.4985,-142.8184 1478.1685,-136.0204"/>
</g>
<!-- Node40 -->
<g id="node41" class="node">
<title>Node40</title>
<polygon fill="none" stroke="#bfbfbf" points="1503.5,-118 1503.5,-137 1601.5,-137 1601.5,-118 1503.5,-118"/>
<text text-anchor="middle" x="1552.5" y="-125" font-family="Helvetica,sans-Serif" font-size="10.00" fill="#000000">deal.II/lac/vector.h</text>
</g>
<!-- Node30&#45;&gt;Node40 -->
<g id="edge53" class="edge">
<title>Node30&#45;&gt;Node40</title>
<path fill="none" stroke="#191970" d="M1917.4305,-183.8579C1836.2005,-174.4658 1668.3112,-154.4509 1610.5,-143 1605.4534,-142.0004 1600.1967,-140.8101 1594.9985,-139.5397"/>
<polygon fill="#191970" stroke="#191970" points="1595.6996,-136.1065 1585.1448,-137.0271 1593.97,-142.8895 1595.6996,-136.1065"/>
</g>
</g>
</svg>
