<?xml version="1.0" encoding="UTF-8" standalone="no"?>
<!DOCTYPE svg PUBLIC "-//W3C//DTD SVG 1.1//EN"
 "http://www.w3.org/Graphics/SVG/1.1/DTD/svg11.dtd">
<!-- Generated by graphviz version 2.40.1 (20161225.0304)
 -->
<!-- Title: /home/jihuan/Projects/deal.ii/program/dealii&#45;9.1.1/examples/laplace&#45;bem/tests/block&#45;cluster&#45;tree&#45;hp&#45;coarse&#45;non&#45;tensor&#45;product/bct&#45;hp&#45;coarse&#45;ntp.cc Pages: 1 -->
<svg width="2588pt" height="441pt"
 viewBox="0.00 0.00 2587.78 441.00" xmlns="http://www.w3.org/2000/svg" xmlns:xlink="http://www.w3.org/1999/xlink">
<g id="graph0" class="graph" transform="scale(1 1) rotate(0) translate(4 437)">
<title>/home/jihuan/Projects/deal.ii/program/dealii&#45;9.1.1/examples/laplace&#45;bem/tests/block&#45;cluster&#45;tree&#45;hp&#45;coarse&#45;non&#45;tensor&#45;product/bct&#45;hp&#45;coarse&#45;ntp.cc</title>
<!-- Node0 -->
<g id="node1" class="node">
<title>Node0</title>
<polygon fill="#bfbfbf" stroke="#000000" points="496.2819,-358.5 496.2819,-432.5 640.2819,-432.5 640.2819,-358.5 496.2819,-358.5"/>
<text text-anchor="start" x="504.2819" y="-420.5" font-family="Helvetica,sans-Serif" font-size="10.00" fill="#000000">/home/jihuan/Projects</text>
<text text-anchor="start" x="504.2819" y="-409.5" font-family="Helvetica,sans-Serif" font-size="10.00" fill="#000000">/deal.ii/program/dealii</text>
<text text-anchor="start" x="504.2819" y="-398.5" font-family="Helvetica,sans-Serif" font-size="10.00" fill="#000000">&#45;9.1.1/examples/laplace</text>
<text text-anchor="start" x="504.2819" y="-387.5" font-family="Helvetica,sans-Serif" font-size="10.00" fill="#000000">&#45;bem/tests/block&#45;cluster</text>
<text text-anchor="start" x="504.2819" y="-376.5" font-family="Helvetica,sans-Serif" font-size="10.00" fill="#000000">&#45;tree&#45;hp&#45;coarse&#45;non&#45;tensor</text>
<text text-anchor="middle" x="568.2819" y="-365.5" font-family="Helvetica,sans-Serif" font-size="10.00" fill="#000000">&#45;product/bct&#45;hp&#45;coarse&#45;ntp.cc</text>
</g>
<!-- Node1 -->
<g id="node2" class="node">
<title>Node1</title>
<polygon fill="none" stroke="#bfbfbf" points="450.2819,-302.5 450.2819,-321.5 500.2819,-321.5 500.2819,-302.5 450.2819,-302.5"/>
<text text-anchor="middle" x="475.2819" y="-309.5" font-family="Helvetica,sans-Serif" font-size="10.00" fill="#000000">fstream</text>
</g>
<!-- Node0&#45;&gt;Node1 -->
<g id="edge1" class="edge">
<title>Node0&#45;&gt;Node1</title>
<path fill="none" stroke="#191970" d="M526.9491,-358.3894C515.3927,-348.0135 503.4053,-337.2506 493.8895,-328.7069"/>
<polygon fill="#191970" stroke="#191970" points="496.0157,-325.9121 486.2365,-321.8356 491.3391,-331.1208 496.0157,-325.9121"/>
</g>
<!-- Node2 -->
<g id="node3" class="node">
<title>Node2</title>
<polygon fill="none" stroke="#bfbfbf" points="373.2819,-62 373.2819,-81 427.2819,-81 427.2819,-62 373.2819,-62"/>
<text text-anchor="middle" x="400.2819" y="-69" font-family="Helvetica,sans-Serif" font-size="10.00" fill="#000000">iostream</text>
</g>
<!-- Node0&#45;&gt;Node2 -->
<g id="edge2" class="edge">
<title>Node0&#45;&gt;Node2</title>
<path fill="none" stroke="#191970" d="M551.55,-358.4315C540.589,-330.7845 528.2819,-291.7765 528.2819,-256 528.2819,-256 528.2819,-256 528.2819,-194.5 528.2819,-141.5125 470.5478,-104.2191 432.6282,-85.4393"/>
<polygon fill="#191970" stroke="#191970" points="433.9942,-82.2131 423.4617,-81.0653 430.9796,-88.5307 433.9942,-82.2131"/>
</g>
<!-- Node3 -->
<g id="node4" class="node">
<title>Node3</title>
<g id="a_node4"><a xlink:href="block__cluster__tree_8h.html" target="_top" xlink:title="Implementation of the class BlockClusterTree. ">
<polygon fill="none" stroke="#000000" points="556.2819,-302.5 556.2819,-321.5 660.2819,-321.5 660.2819,-302.5 556.2819,-302.5"/>
<text text-anchor="middle" x="608.2819" y="-309.5" font-family="Helvetica,sans-Serif" font-size="10.00" fill="#000000">block_cluster_tree.h</text>
</a>
</g>
</g>
<!-- Node0&#45;&gt;Node3 -->
<g id="edge3" class="edge">
<title>Node0&#45;&gt;Node3</title>
<path fill="none" stroke="#191970" d="M586.176,-358.1461C590.6807,-348.7424 595.3296,-339.0379 599.1947,-330.9694"/>
<polygon fill="#191970" stroke="#191970" points="602.4377,-332.3009 603.6016,-321.7701 596.1247,-329.2766 602.4377,-332.3009"/>
</g>
<!-- Node16 -->
<g id="node17" class="node">
<title>Node16</title>
<g id="a_node17"><a xlink:href="cluster__tree_8h_source.html" target="_top" xlink:title="cluster_tree.h">
<polygon fill="none" stroke="#000000" points="643.2819,-185 643.2819,-204 719.2819,-204 719.2819,-185 643.2819,-185"/>
<text text-anchor="middle" x="681.2819" y="-192" font-family="Helvetica,sans-Serif" font-size="10.00" fill="#000000">cluster_tree.h</text>
</a>
</g>
</g>
<!-- Node0&#45;&gt;Node16 -->
<g id="edge56" class="edge">
<title>Node0&#45;&gt;Node16</title>
<path fill="none" stroke="#191970" d="M636.2819,-358.4239C649.2295,-348.2932 661.2317,-336.1328 669.2819,-322 688.5492,-288.1744 687.0743,-240.9765 684.2174,-214.5211"/>
<polygon fill="#191970" stroke="#191970" points="687.6457,-213.7325 682.921,-204.2495 680.7008,-214.6091 687.6457,-213.7325"/>
</g>
<!-- Node4 -->
<g id="node5" class="node">
<title>Node4</title>
<g id="a_node5"><a xlink:href="block__cluster_8h.html" target="_top" xlink:title="Implementation of the class BlockCluster. ">
<polygon fill="none" stroke="#000000" points="716.7819,-246.5 716.7819,-265.5 799.7819,-265.5 799.7819,-246.5 716.7819,-246.5"/>
<text text-anchor="middle" x="758.2819" y="-253.5" font-family="Helvetica,sans-Serif" font-size="10.00" fill="#000000">block_cluster.h</text>
</a>
</g>
</g>
<!-- Node3&#45;&gt;Node4 -->
<g id="edge4" class="edge">
<title>Node3&#45;&gt;Node4</title>
<path fill="none" stroke="#191970" d="M634.0678,-302.3733C658.6866,-293.1822 695.9719,-279.2624 723.2693,-269.0713"/>
<polygon fill="#191970" stroke="#191970" points="724.6882,-272.2777 732.8324,-265.5011 722.2398,-265.7198 724.6882,-272.2777"/>
</g>
<!-- Node3&#45;&gt;Node16 -->
<g id="edge36" class="edge">
<title>Node3&#45;&gt;Node16</title>
<path fill="none" stroke="#191970" d="M614.2558,-302.3845C626.3939,-282.8471 654.119,-238.2211 669.8438,-212.9106"/>
<polygon fill="#191970" stroke="#191970" points="672.9211,-214.5896 675.2254,-204.2484 666.9752,-210.8955 672.9211,-214.5896"/>
</g>
<!-- Node17 -->
<g id="node18" class="node">
<title>Node17</title>
<g id="a_node18"><a xlink:href="debug__tools_8h.html" target="_top" xlink:title="This file includes a bunch of helper functions for printing out and visualizing information about gri...">
<polygon fill="none" stroke="#000000" points="214.7819,-123.5 214.7819,-142.5 291.7819,-142.5 291.7819,-123.5 214.7819,-123.5"/>
<text text-anchor="middle" x="253.2819" y="-130.5" font-family="Helvetica,sans-Serif" font-size="10.00" fill="#000000">debug_tools.h</text>
</a>
</g>
</g>
<!-- Node3&#45;&gt;Node17 -->
<g id="edge37" class="edge">
<title>Node3&#45;&gt;Node17</title>
<path fill="none" stroke="#191970" d="M589.1955,-302.3762C530.3248,-272.6921 351.3392,-182.443 281.5601,-147.2586"/>
<polygon fill="#191970" stroke="#191970" points="282.9675,-144.0485 272.4626,-142.6714 279.8159,-150.2989 282.9675,-144.0485"/>
</g>
<!-- Node21 -->
<g id="node22" class="node">
<title>Node21</title>
<g id="a_node22"><a xlink:href="tree_8h.html" target="_top" xlink:title="Implementation of the classes for binary tree node, general tree node and functions for manipulating ...">
<polygon fill="none" stroke="#000000" points="624.7819,-123.5 624.7819,-142.5 665.7819,-142.5 665.7819,-123.5 624.7819,-123.5"/>
<text text-anchor="middle" x="645.2819" y="-130.5" font-family="Helvetica,sans-Serif" font-size="10.00" fill="#000000">tree.h</text>
</a>
</g>
</g>
<!-- Node3&#45;&gt;Node21 -->
<g id="edge55" class="edge">
<title>Node3&#45;&gt;Node21</title>
<path fill="none" stroke="#191970" d="M610.0362,-302.2926C614.043,-280.2941 624.294,-224.9825 634.2819,-179 636.1512,-170.3941 638.3849,-160.9253 640.3495,-152.8271"/>
<polygon fill="#191970" stroke="#191970" points="643.8153,-153.3897 642.8024,-142.8434 637.0175,-151.7195 643.8153,-153.3897"/>
</g>
<!-- Node27 -->
<g id="node28" class="node">
<title>Node27</title>
<g id="a_node28"><a xlink:href="lapack__full__matrix__ext_8h_source.html" target="_top" xlink:title="lapack_full_matrix\l_ext.h">
<polygon fill="none" stroke="#000000" points="1267.7819,-179.5 1267.7819,-209.5 1362.7819,-209.5 1362.7819,-179.5 1267.7819,-179.5"/>
<text text-anchor="start" x="1275.7819" y="-197.5" font-family="Helvetica,sans-Serif" font-size="10.00" fill="#000000">lapack_full_matrix</text>
<text text-anchor="middle" x="1315.2819" y="-186.5" font-family="Helvetica,sans-Serif" font-size="10.00" fill="#000000">_ext.h</text>
</a>
</g>
</g>
<!-- Node3&#45;&gt;Node27 -->
<g id="edge38" class="edge">
<title>Node3&#45;&gt;Node27</title>
<path fill="none" stroke="#191970" d="M660.5564,-303.3122C789.6088,-281.8643 1122.6083,-226.5214 1257.3796,-204.1231"/>
<polygon fill="#191970" stroke="#191970" points="1258.2112,-207.533 1267.502,-202.4408 1257.0635,-200.6277 1258.2112,-207.533"/>
</g>
<!-- Node5 -->
<g id="node6" class="node">
<title>Node5</title>
<g id="a_node6"><a xlink:href="cluster_8h.html" target="_top" xlink:title="Implementation of the class Cluster. ">
<polygon fill="none" stroke="#000000" points="960.2819,-123.5 960.2819,-142.5 1014.2819,-142.5 1014.2819,-123.5 960.2819,-123.5"/>
<text text-anchor="middle" x="987.2819" y="-130.5" font-family="Helvetica,sans-Serif" font-size="10.00" fill="#000000">cluster.h</text>
</a>
</g>
</g>
<!-- Node4&#45;&gt;Node5 -->
<g id="edge5" class="edge">
<title>Node4&#45;&gt;Node5</title>
<path fill="none" stroke="#191970" d="M776.2511,-246.3484C816.3001,-224.8374 913.0696,-172.8608 960.3611,-147.4596"/>
<polygon fill="#191970" stroke="#191970" points="962.2426,-150.422 969.3961,-142.6068 958.9303,-144.2553 962.2426,-150.422"/>
</g>
<!-- Node4&#45;&gt;Node16 -->
<g id="edge17" class="edge">
<title>Node4&#45;&gt;Node16</title>
<path fill="none" stroke="#191970" d="M746.2506,-246.3906C734.2712,-236.8227 715.6653,-221.9621 701.4294,-210.5919"/>
<polygon fill="#191970" stroke="#191970" points="703.2266,-207.5479 693.2286,-204.0419 698.858,-213.0175 703.2266,-207.5479"/>
</g>
<!-- Node6 -->
<g id="node7" class="node">
<title>Node6</title>
<polygon fill="none" stroke="#bfbfbf" points="1168.7819,-62 1168.7819,-81 1271.7819,-81 1271.7819,-62 1168.7819,-62"/>
<text text-anchor="middle" x="1220.2819" y="-69" font-family="Helvetica,sans-Serif" font-size="10.00" fill="#000000">deal.II/base/types.h</text>
</g>
<!-- Node5&#45;&gt;Node6 -->
<g id="edge6" class="edge">
<title>Node5&#45;&gt;Node6</title>
<path fill="none" stroke="#191970" d="M1014.4659,-125.8248C1053.6914,-115.4713 1126.678,-96.2066 1174.3566,-83.6219"/>
<polygon fill="#191970" stroke="#191970" points="1175.3497,-86.9797 1184.1253,-81.0435 1173.5632,-80.2115 1175.3497,-86.9797"/>
</g>
<!-- Node7 -->
<g id="node8" class="node">
<title>Node7</title>
<polygon fill="none" stroke="#bfbfbf" points="853.2819,-62 853.2819,-81 909.2819,-81 909.2819,-62 853.2819,-62"/>
<text text-anchor="middle" x="881.2819" y="-69" font-family="Helvetica,sans-Serif" font-size="10.00" fill="#000000">algorithm</text>
</g>
<!-- Node5&#45;&gt;Node7 -->
<g id="edge7" class="edge">
<title>Node5&#45;&gt;Node7</title>
<path fill="none" stroke="#191970" d="M970.7194,-123.3906C953.5281,-113.4165 926.4237,-97.6908 906.5552,-86.1633"/>
<polygon fill="#191970" stroke="#191970" points="908.1341,-83.033 897.7281,-81.0419 904.6212,-89.0877 908.1341,-83.033"/>
</g>
<!-- Node8 -->
<g id="node9" class="node">
<title>Node8</title>
<polygon fill="none" stroke="#bfbfbf" points="1103.7819,-62 1103.7819,-81 1150.7819,-81 1150.7819,-62 1103.7819,-62"/>
<text text-anchor="middle" x="1127.2819" y="-69" font-family="Helvetica,sans-Serif" font-size="10.00" fill="#000000">iterator</text>
</g>
<!-- Node5&#45;&gt;Node8 -->
<g id="edge8" class="edge">
<title>Node5&#45;&gt;Node8</title>
<path fill="none" stroke="#191970" d="M1009.1569,-123.3906C1032.5814,-113.1005 1069.9415,-96.6888 1096.366,-85.0809"/>
<polygon fill="#191970" stroke="#191970" points="1097.8126,-88.2683 1105.5605,-81.0419 1094.9972,-81.8594 1097.8126,-88.2683"/>
</g>
<!-- Node9 -->
<g id="node10" class="node">
<title>Node9</title>
<polygon fill="none" stroke="#bfbfbf" points="1165.2819,-.5 1165.2819,-19.5 1209.2819,-19.5 1209.2819,-.5 1165.2819,-.5"/>
<text text-anchor="middle" x="1187.2819" y="-7.5" font-family="Helvetica,sans-Serif" font-size="10.00" fill="#000000">vector</text>
</g>
<!-- Node5&#45;&gt;Node9 -->
<g id="edge9" class="edge">
<title>Node5&#45;&gt;Node9</title>
<path fill="none" stroke="#191970" d="M1014.3141,-130.7566C1083.7165,-124.725 1263.9625,-107.2399 1281.2819,-87 1290.2396,-76.5317 1288.5753,-67.689 1281.2819,-56 1267.8312,-34.4429 1241.0234,-22.7107 1219.4665,-16.5023"/>
<polygon fill="#191970" stroke="#191970" points="1220.2534,-13.0905 1209.6936,-13.9511 1218.4853,-19.8635 1220.2534,-13.0905"/>
</g>
<!-- Node10 -->
<g id="node11" class="node">
<title>Node10</title>
<g id="a_node11"><a xlink:href="simple__bounding__box_8h_source.html" target="_top" xlink:title="simple_bounding_box.h">
<polygon fill="none" stroke="#000000" points="927.7819,-62 927.7819,-81 1046.7819,-81 1046.7819,-62 927.7819,-62"/>
<text text-anchor="middle" x="987.2819" y="-69" font-family="Helvetica,sans-Serif" font-size="10.00" fill="#000000">simple_bounding_box.h</text>
</a>
</g>
</g>
<!-- Node5&#45;&gt;Node10 -->
<g id="edge10" class="edge">
<title>Node5&#45;&gt;Node10</title>
<path fill="none" stroke="#191970" d="M987.2819,-123.3906C987.2819,-114.8657 987.2819,-102.1392 987.2819,-91.4235"/>
<polygon fill="#191970" stroke="#191970" points="990.782,-91.2448 987.2819,-81.2449 983.782,-91.2449 990.782,-91.2448"/>
</g>
<!-- Node10&#45;&gt;Node9 -->
<g id="edge16" class="edge">
<title>Node10&#45;&gt;Node9</title>
<path fill="none" stroke="#191970" d="M1018.5319,-61.8906C1055.7884,-50.4342 1117.7213,-31.3899 1155.2983,-19.8349"/>
<polygon fill="#191970" stroke="#191970" points="1156.6807,-23.0717 1165.2103,-16.787 1154.6233,-16.3808 1156.6807,-23.0717"/>
</g>
<!-- Node11 -->
<g id="node12" class="node">
<title>Node11</title>
<polygon fill="none" stroke="#bfbfbf" points="863.2819,-.5 863.2819,-19.5 963.2819,-19.5 963.2819,-.5 863.2819,-.5"/>
<text text-anchor="middle" x="913.2819" y="-7.5" font-family="Helvetica,sans-Serif" font-size="10.00" fill="#000000">deal.II/base/point.h</text>
</g>
<!-- Node10&#45;&gt;Node11 -->
<g id="edge11" class="edge">
<title>Node10&#45;&gt;Node11</title>
<path fill="none" stroke="#191970" d="M975.7194,-61.8906C964.274,-52.3786 946.5346,-37.6357 932.8849,-26.2917"/>
<polygon fill="#191970" stroke="#191970" points="934.9352,-23.4447 925.0074,-19.7449 930.4611,-28.8283 934.9352,-23.4447"/>
</g>
<!-- Node12 -->
<g id="node13" class="node">
<title>Node12</title>
<polygon fill="none" stroke="#bfbfbf" points="214.7819,-.5 214.7819,-19.5 341.7819,-19.5 341.7819,-.5 214.7819,-.5"/>
<text text-anchor="middle" x="278.2819" y="-7.5" font-family="Helvetica,sans-Serif" font-size="10.00" fill="#000000">deal.II/dofs/dof_handler.h</text>
</g>
<!-- Node10&#45;&gt;Node12 -->
<g id="edge12" class="edge">
<title>Node10&#45;&gt;Node12</title>
<path fill="none" stroke="#191970" d="M949.5109,-61.9482C939.4211,-59.6899 928.4849,-57.5041 918.2819,-56 810.9272,-40.1743 496.3045,-21.7945 352.0656,-13.9139"/>
<polygon fill="#191970" stroke="#191970" points="352.1556,-10.4137 341.9801,-13.3648 351.775,-17.4034 352.1556,-10.4137"/>
</g>
<!-- Node13 -->
<g id="node14" class="node">
<title>Node13</title>
<polygon fill="none" stroke="#bfbfbf" points="66.2819,-.5 66.2819,-19.5 182.2819,-19.5 182.2819,-.5 66.2819,-.5"/>
<text text-anchor="middle" x="124.2819" y="-7.5" font-family="Helvetica,sans-Serif" font-size="10.00" fill="#000000">deal.II/dofs/dof_tools.h</text>
</g>
<!-- Node10&#45;&gt;Node13 -->
<g id="edge13" class="edge">
<title>Node10&#45;&gt;Node13</title>
<path fill="none" stroke="#191970" d="M950.251,-61.9628C939.9632,-59.647 928.7436,-57.4289 918.2819,-56 604.3479,-13.1216 521.9613,-47.195 206.2819,-20 201.8211,-19.6157 197.2289,-19.1764 192.6036,-18.7013"/>
<polygon fill="#191970" stroke="#191970" points="192.7801,-15.2002 182.4633,-17.6113 192.0319,-22.1601 192.7801,-15.2002"/>
</g>
<!-- Node14 -->
<g id="node15" class="node">
<title>Node14</title>
<polygon fill="none" stroke="#bfbfbf" points="496.7819,-.5 496.7819,-19.5 599.7819,-19.5 599.7819,-.5 496.7819,-.5"/>
<text text-anchor="middle" x="548.2819" y="-7.5" font-family="Helvetica,sans-Serif" font-size="10.00" fill="#000000">deal.II/fe/mapping.h</text>
</g>
<!-- Node10&#45;&gt;Node14 -->
<g id="edge14" class="edge">
<title>Node10&#45;&gt;Node14</title>
<path fill="none" stroke="#191970" d="M948.0065,-61.9832C938.3256,-59.8296 927.9585,-57.6843 918.2819,-56 810.4763,-37.2358 683.7074,-23.1947 610.0294,-15.8212"/>
<polygon fill="#191970" stroke="#191970" points="610.2897,-12.3299 599.993,-14.8252 609.5984,-19.2957 610.2897,-12.3299"/>
</g>
<!-- Node15 -->
<g id="node16" class="node">
<title>Node15</title>
<polygon fill="none" stroke="#bfbfbf" points="981.2819,-.5 981.2819,-19.5 1021.2819,-19.5 1021.2819,-.5 981.2819,-.5"/>
<text text-anchor="middle" x="1001.2819" y="-7.5" font-family="Helvetica,sans-Serif" font-size="10.00" fill="#000000">utility</text>
</g>
<!-- Node10&#45;&gt;Node15 -->
<g id="edge15" class="edge">
<title>Node10&#45;&gt;Node15</title>
<path fill="none" stroke="#191970" d="M989.4694,-61.8906C991.4304,-53.276 994.3682,-40.3708 996.8233,-29.5858"/>
<polygon fill="#191970" stroke="#191970" points="1000.2565,-30.2723 999.0635,-19.7449 993.4311,-28.7185 1000.2565,-30.2723"/>
</g>
<!-- Node16&#45;&gt;Node5 -->
<g id="edge18" class="edge">
<title>Node16&#45;&gt;Node5</title>
<path fill="none" stroke="#191970" d="M719.4183,-186.8353C778.5131,-174.9584 891.4835,-152.2536 950.0334,-140.4862"/>
<polygon fill="#191970" stroke="#191970" points="950.8534,-143.8915 959.9677,-138.4896 949.4741,-137.0287 950.8534,-143.8915"/>
</g>
<!-- Node16&#45;&gt;Node17 -->
<g id="edge19" class="edge">
<title>Node16&#45;&gt;Node17</title>
<path fill="none" stroke="#191970" d="M642.9231,-188.9882C564.9436,-177.7832 388.0421,-152.3639 302.0415,-140.0064"/>
<polygon fill="#191970" stroke="#191970" points="302.4132,-136.5239 292.017,-138.5659 301.4175,-143.4527 302.4132,-136.5239"/>
</g>
<!-- Node16&#45;&gt;Node21 -->
<g id="edge27" class="edge">
<title>Node16&#45;&gt;Node21</title>
<path fill="none" stroke="#191970" d="M675.6569,-184.8906C670.4566,-176.0068 662.5853,-162.5601 656.1586,-151.5811"/>
<polygon fill="#191970" stroke="#191970" points="659.0586,-149.6069 650.9862,-142.7449 653.0175,-153.1432 659.0586,-149.6069"/>
</g>
<!-- Node17&#45;&gt;Node2 -->
<g id="edge25" class="edge">
<title>Node17&#45;&gt;Node2</title>
<path fill="none" stroke="#191970" d="M276.708,-123.4008C299.1997,-114.1588 334.1132,-99.7451 364.2819,-87 365.6922,-86.4042 367.1328,-85.7934 368.5873,-85.1748"/>
<polygon fill="#191970" stroke="#191970" points="370.3992,-88.2066 378.2175,-81.0565 367.6468,-81.7704 370.3992,-88.2066"/>
</g>
<!-- Node17&#45;&gt;Node12 -->
<g id="edge20" class="edge">
<title>Node17&#45;&gt;Node12</title>
<path fill="none" stroke="#191970" d="M222.5627,-123.4362C205.3744,-116.3313 185.4187,-104.7464 175.2819,-87 168.4482,-75.0364 167.7846,-67.5593 175.2819,-56 185.4875,-40.2649 202.4714,-29.8651 219.734,-23.0109"/>
<polygon fill="#191970" stroke="#191970" points="221.0924,-26.2417 229.3118,-19.5564 218.7174,-19.6569 221.0924,-26.2417"/>
</g>
<!-- Node17&#45;&gt;Node13 -->
<g id="edge21" class="edge">
<title>Node17&#45;&gt;Node13</title>
<path fill="none" stroke="#191970" d="M214.5522,-131.5997C151.808,-128.4271 32.3123,-118.3258 6.2819,-87 -2.5236,-76.4033 -1.4925,-67.3748 6.2819,-56 14.8371,-43.4827 48.4195,-31.1021 77.5814,-22.3437"/>
<polygon fill="#191970" stroke="#191970" points="78.6413,-25.6804 87.2591,-19.5173 76.6789,-18.9611 78.6413,-25.6804"/>
</g>
<!-- Node17&#45;&gt;Node14 -->
<g id="edge24" class="edge">
<title>Node17&#45;&gt;Node14</title>
<path fill="none" stroke="#191970" d="M252.5712,-123.3105C251.945,-106.8703 253.2889,-73.5881 272.2819,-56 302.6441,-27.8836 414.8356,-16.8171 486.492,-12.5596"/>
<polygon fill="#191970" stroke="#191970" points="486.969,-16.0384 496.7556,-11.9797 486.574,-9.0495 486.969,-16.0384"/>
</g>
<!-- Node18 -->
<g id="node19" class="node">
<title>Node18</title>
<polygon fill="none" stroke="#bfbfbf" points="281.2819,-62 281.2819,-81 355.2819,-81 355.2819,-62 281.2819,-62"/>
<text text-anchor="middle" x="318.2819" y="-69" font-family="Helvetica,sans-Serif" font-size="10.00" fill="#000000">deal.II/fe/fe.h</text>
</g>
<!-- Node17&#45;&gt;Node18 -->
<g id="edge22" class="edge">
<title>Node17&#45;&gt;Node18</title>
<path fill="none" stroke="#191970" d="M263.4381,-123.3906C273.3018,-114.0581 288.4874,-99.6902 300.3806,-88.4374"/>
<polygon fill="#191970" stroke="#191970" points="303.124,-90.6601 307.9824,-81.2449 298.313,-85.5753 303.124,-90.6601"/>
</g>
<!-- Node19 -->
<g id="node20" class="node">
<title>Node19</title>
<polygon fill="none" stroke="#bfbfbf" points="15.2819,-62 15.2819,-81 127.2819,-81 127.2819,-62 15.2819,-62"/>
<text text-anchor="middle" x="71.2819" y="-69" font-family="Helvetica,sans-Serif" font-size="10.00" fill="#000000">deal.II/fe/fe_system.h</text>
</g>
<!-- Node17&#45;&gt;Node19 -->
<g id="edge23" class="edge">
<title>Node17&#45;&gt;Node19</title>
<path fill="none" stroke="#191970" d="M224.8444,-123.3906C193.7246,-112.8749 143.6854,-95.966 109.2334,-84.3243"/>
<polygon fill="#191970" stroke="#191970" points="110.1139,-80.9274 99.5197,-81.0419 107.8729,-87.5591 110.1139,-80.9274"/>
</g>
<!-- Node20 -->
<g id="node21" class="node">
<title>Node20</title>
<polygon fill="none" stroke="#bfbfbf" points="183.7819,-62 183.7819,-81 224.7819,-81 224.7819,-62 183.7819,-62"/>
<text text-anchor="middle" x="204.2819" y="-69" font-family="Helvetica,sans-Serif" font-size="10.00" fill="#000000">string</text>
</g>
<!-- Node17&#45;&gt;Node20 -->
<g id="edge26" class="edge">
<title>Node17&#45;&gt;Node20</title>
<path fill="none" stroke="#191970" d="M245.6256,-123.3906C238.3329,-114.2376 227.1811,-100.2409 218.2967,-89.09"/>
<polygon fill="#191970" stroke="#191970" points="221.0149,-86.8849 212.0461,-81.2449 215.5401,-91.247 221.0149,-86.8849"/>
</g>
<!-- Node21&#45;&gt;Node2 -->
<g id="edge33" class="edge">
<title>Node21&#45;&gt;Node2</title>
<path fill="none" stroke="#191970" d="M624.589,-129.6907C586.8258,-123.3735 504.4378,-108.3032 437.2819,-87 435.1244,-86.3156 432.9183,-85.5551 430.7109,-84.749"/>
<polygon fill="#191970" stroke="#191970" points="431.7577,-81.4003 421.1698,-81.0162 429.2072,-87.9191 431.7577,-81.4003"/>
</g>
<!-- Node21&#45;&gt;Node7 -->
<g id="edge29" class="edge">
<title>Node21&#45;&gt;Node7</title>
<path fill="none" stroke="#191970" d="M665.9324,-129.4233C702.4279,-122.8389 780.4975,-107.5682 844.2819,-87 846.2207,-86.3748 848.1995,-85.6901 850.1838,-84.9677"/>
<polygon fill="#191970" stroke="#191970" points="851.9475,-88.0367 859.992,-81.142 849.4038,-81.5152 851.9475,-88.0367"/>
</g>
<!-- Node21&#45;&gt;Node9 -->
<g id="edge35" class="edge">
<title>Node21&#45;&gt;Node9</title>
<path fill="none" stroke="#191970" d="M666.0107,-131.3568C744.3698,-125.0528 1019.9049,-102.0181 1056.2819,-87 1076.7484,-78.5505 1076.6121,-67.9043 1095.2819,-56 1114.5543,-43.7114 1137.5535,-32.2117 1155.735,-23.784"/>
<polygon fill="#191970" stroke="#191970" points="1157.3739,-26.8835 1165.0215,-19.551 1154.4705,-20.514 1157.3739,-26.8835"/>
</g>
<!-- Node22 -->
<g id="node23" class="node">
<title>Node22</title>
<polygon fill="none" stroke="#bfbfbf" points="709.2819,-62 709.2819,-81 835.2819,-81 835.2819,-62 709.2819,-62"/>
<text text-anchor="middle" x="772.2819" y="-69" font-family="Helvetica,sans-Serif" font-size="10.00" fill="#000000">deal.II/base/exceptions.h</text>
</g>
<!-- Node21&#45;&gt;Node22 -->
<g id="edge28" class="edge">
<title>Node21&#45;&gt;Node22</title>
<path fill="none" stroke="#191970" d="M665.1256,-123.3906C686.0954,-113.2359 719.3763,-97.1196 743.2854,-85.5416"/>
<polygon fill="#191970" stroke="#191970" points="745.1027,-88.5504 752.5775,-81.0419 742.0517,-82.2502 745.1027,-88.5504"/>
</g>
<!-- Node23 -->
<g id="node24" class="node">
<title>Node23</title>
<polygon fill="none" stroke="#bfbfbf" points="653.2819,-62 653.2819,-81 691.2819,-81 691.2819,-62 653.2819,-62"/>
<text text-anchor="middle" x="672.2819" y="-69" font-family="Helvetica,sans-Serif" font-size="10.00" fill="#000000">array</text>
</g>
<!-- Node21&#45;&gt;Node23 -->
<g id="edge30" class="edge">
<title>Node21&#45;&gt;Node23</title>
<path fill="none" stroke="#191970" d="M649.5006,-123.3906C653.3615,-114.5965 659.1852,-101.3312 663.9779,-90.4145"/>
<polygon fill="#191970" stroke="#191970" points="667.1884,-91.8083 668.0036,-81.2449 660.7789,-88.9943 667.1884,-91.8083"/>
</g>
<!-- Node24 -->
<g id="node25" class="node">
<title>Node24</title>
<polygon fill="none" stroke="#bfbfbf" points="445.7819,-62 445.7819,-81 504.7819,-81 504.7819,-62 445.7819,-62"/>
<text text-anchor="middle" x="475.2819" y="-69" font-family="Helvetica,sans-Serif" font-size="10.00" fill="#000000">exception</text>
</g>
<!-- Node21&#45;&gt;Node24 -->
<g id="edge31" class="edge">
<title>Node21&#45;&gt;Node24</title>
<path fill="none" stroke="#191970" d="M624.7674,-126.0846C598.9003,-117.2987 553.113,-101.5273 514.2819,-87 512.4394,-86.3107 510.5517,-85.5944 508.6489,-84.8644"/>
<polygon fill="#191970" stroke="#191970" points="509.736,-81.5317 499.1476,-81.1627 507.1948,-88.0542 509.736,-81.5317"/>
</g>
<!-- Node25 -->
<g id="node26" class="node">
<title>Node25</title>
<polygon fill="none" stroke="#bfbfbf" points="522.7819,-62 522.7819,-81 581.7819,-81 581.7819,-62 522.7819,-62"/>
<text text-anchor="middle" x="552.2819" y="-69" font-family="Helvetica,sans-Serif" font-size="10.00" fill="#000000">functional</text>
</g>
<!-- Node21&#45;&gt;Node25 -->
<g id="edge32" class="edge">
<title>Node21&#45;&gt;Node25</title>
<path fill="none" stroke="#191970" d="M630.7506,-123.3906C615.8725,-113.5519 592.5314,-98.1167 575.169,-86.6351"/>
<polygon fill="#191970" stroke="#191970" points="576.9828,-83.6385 566.7111,-81.0419 573.1217,-89.4773 576.9828,-83.6385"/>
</g>
<!-- Node26 -->
<g id="node27" class="node">
<title>Node26</title>
<polygon fill="none" stroke="#bfbfbf" points="599.7819,-62 599.7819,-81 634.7819,-81 634.7819,-62 599.7819,-62"/>
<text text-anchor="middle" x="617.2819" y="-69" font-family="Helvetica,sans-Serif" font-size="10.00" fill="#000000">new</text>
</g>
<!-- Node21&#45;&gt;Node26 -->
<g id="edge34" class="edge">
<title>Node21&#45;&gt;Node26</title>
<path fill="none" stroke="#191970" d="M640.9069,-123.3906C636.903,-114.5965 630.8636,-101.3312 625.8934,-90.4145"/>
<polygon fill="#191970" stroke="#191970" points="629.0476,-88.8957 621.7186,-81.2449 622.6768,-91.7963 629.0476,-88.8957"/>
</g>
<!-- Node27&#45;&gt;Node9 -->
<g id="edge41" class="edge">
<title>Node27&#45;&gt;Node9</title>
<path fill="none" stroke="#191970" d="M1318.5116,-179.2948C1323.5402,-151.0675 1329.6736,-90.3224 1298.2819,-56 1277.7097,-33.5072 1244.4574,-21.7048 1219.7034,-15.7171"/>
<polygon fill="#191970" stroke="#191970" points="1220.1973,-12.2416 1209.6766,-13.4927 1218.6812,-19.0755 1220.1973,-12.2416"/>
</g>
<!-- Node28 -->
<g id="node29" class="node">
<title>Node28</title>
<polygon fill="none" stroke="#bfbfbf" points="1366.2819,-123.5 1366.2819,-142.5 1406.2819,-142.5 1406.2819,-123.5 1366.2819,-123.5"/>
<text text-anchor="middle" x="1386.2819" y="-130.5" font-family="Helvetica,sans-Serif" font-size="10.00" fill="#000000">limits</text>
</g>
<!-- Node27&#45;&gt;Node28 -->
<g id="edge39" class="edge">
<title>Node27&#45;&gt;Node28</title>
<path fill="none" stroke="#191970" d="M1332.8324,-179.2977C1343.3039,-170.2274 1356.603,-158.7077 1367.3157,-149.4285"/>
<polygon fill="#191970" stroke="#191970" points="1369.6468,-152.0398 1374.9139,-142.8469 1365.0636,-146.7487 1369.6468,-152.0398"/>
</g>
<!-- Node29 -->
<g id="node30" class="node">
<title>Node29</title>
<polygon fill="none" stroke="#bfbfbf" points="1274.7819,-123.5 1274.7819,-142.5 1309.7819,-142.5 1309.7819,-123.5 1274.7819,-123.5"/>
<text text-anchor="middle" x="1292.2819" y="-130.5" font-family="Helvetica,sans-Serif" font-size="10.00" fill="#000000">map</text>
</g>
<!-- Node27&#45;&gt;Node29 -->
<g id="edge40" class="edge">
<title>Node27&#45;&gt;Node29</title>
<path fill="none" stroke="#191970" d="M1309.5965,-179.2977C1306.5369,-171.1166 1302.7321,-160.943 1299.469,-152.2179"/>
<polygon fill="#191970" stroke="#191970" points="1302.7457,-150.9873 1295.9645,-142.8469 1296.1892,-153.4394 1302.7457,-150.9873"/>
</g>
<!-- Node30 -->
<g id="node31" class="node">
<title>Node30</title>
<g id="a_node31"><a xlink:href="general__exceptions_8h.html" target="_top" xlink:title="Definition of self&#45;defined general exceptions. ">
<polygon fill="none" stroke="#000000" points="774.7819,-123.5 774.7819,-142.5 883.7819,-142.5 883.7819,-123.5 774.7819,-123.5"/>
<text text-anchor="middle" x="829.2819" y="-130.5" font-family="Helvetica,sans-Serif" font-size="10.00" fill="#000000">general_exceptions.h</text>
</a>
</g>
</g>
<!-- Node27&#45;&gt;Node30 -->
<g id="edge42" class="edge">
<title>Node27&#45;&gt;Node30</title>
<path fill="none" stroke="#191970" d="M1267.3523,-188.4348C1179.5783,-177.3276 992.973,-153.714 894.0208,-141.1923"/>
<polygon fill="#191970" stroke="#191970" points="894.2131,-137.6888 883.8528,-139.9056 893.3343,-144.6334 894.2131,-137.6888"/>
</g>
<!-- Node31 -->
<g id="node32" class="node">
<title>Node31</title>
<g id="a_node32"><a xlink:href="lapack__helpers_8h.html" target="_top" xlink:title="Exposes LAPACK helper functions defined in lapack_full_matrix.cc and define new ones by following the...">
<polygon fill="none" stroke="#000000" points="1865.2819,-123.5 1865.2819,-142.5 1955.2819,-142.5 1955.2819,-123.5 1865.2819,-123.5"/>
<text text-anchor="middle" x="1910.2819" y="-130.5" font-family="Helvetica,sans-Serif" font-size="10.00" fill="#000000">lapack_helpers.h</text>
</a>
</g>
</g>
<!-- Node27&#45;&gt;Node31 -->
<g id="edge44" class="edge">
<title>Node27&#45;&gt;Node31</title>
<path fill="none" stroke="#191970" d="M1362.9674,-189.5712C1472.0491,-178.2963 1739.2638,-150.6767 1855.1615,-138.6973"/>
<polygon fill="#191970" stroke="#191970" points="1855.6461,-142.166 1865.2332,-137.6563 1854.9264,-135.2031 1855.6461,-142.166"/>
</g>
<!-- Node30&#45;&gt;Node22 -->
<g id="edge43" class="edge">
<title>Node30&#45;&gt;Node22</title>
<path fill="none" stroke="#191970" d="M820.3756,-123.3906C811.8091,-114.1478 798.665,-99.966 788.2816,-88.7628"/>
<polygon fill="#191970" stroke="#191970" points="790.6784,-86.2 781.3137,-81.2449 785.5443,-90.9584 790.6784,-86.2"/>
</g>
<!-- Node32 -->
<g id="node33" class="node">
<title>Node32</title>
<polygon fill="none" stroke="#bfbfbf" points="1712.2819,-62 1712.2819,-81 1828.2819,-81 1828.2819,-62 1712.2819,-62"/>
<text text-anchor="middle" x="1770.2819" y="-69" font-family="Helvetica,sans-Serif" font-size="10.00" fill="#000000">deal.II/base/numbers.h</text>
</g>
<!-- Node31&#45;&gt;Node32 -->
<g id="edge45" class="edge">
<title>Node31&#45;&gt;Node32</title>
<path fill="none" stroke="#191970" d="M1888.4069,-123.3906C1864.9823,-113.1005 1827.6222,-96.6888 1801.1978,-85.0809"/>
<polygon fill="#191970" stroke="#191970" points="1802.5665,-81.8594 1792.0033,-81.0419 1799.7511,-88.2683 1802.5665,-81.8594"/>
</g>
<!-- Node33 -->
<g id="node34" class="node">
<title>Node33</title>
<polygon fill="none" stroke="#bfbfbf" points="1846.2819,-56.5 1846.2819,-86.5 1974.2819,-86.5 1974.2819,-56.5 1846.2819,-56.5"/>
<text text-anchor="start" x="1854.2819" y="-74.5" font-family="Helvetica,sans-Serif" font-size="10.00" fill="#000000">deal.II/lac/blas_extension</text>
<text text-anchor="middle" x="1910.2819" y="-63.5" font-family="Helvetica,sans-Serif" font-size="10.00" fill="#000000">_templates.h</text>
</g>
<!-- Node31&#45;&gt;Node33 -->
<g id="edge46" class="edge">
<title>Node31&#45;&gt;Node33</title>
<path fill="none" stroke="#191970" d="M1910.2819,-123.3906C1910.2819,-116.2234 1910.2819,-106.0862 1910.2819,-96.671"/>
<polygon fill="#191970" stroke="#191970" points="1913.782,-96.5446 1910.2819,-86.5446 1906.782,-96.5446 1913.782,-96.5446"/>
</g>
<!-- Node34 -->
<g id="node35" class="node">
<title>Node34</title>
<polygon fill="none" stroke="#bfbfbf" points="1992.2819,-62 1992.2819,-81 2118.2819,-81 2118.2819,-62 1992.2819,-62"/>
<text text-anchor="middle" x="2055.2819" y="-69" font-family="Helvetica,sans-Serif" font-size="10.00" fill="#000000">deal.II/lac/block_vector.h</text>
</g>
<!-- Node31&#45;&gt;Node34 -->
<g id="edge47" class="edge">
<title>Node31&#45;&gt;Node34</title>
<path fill="none" stroke="#191970" d="M1932.9381,-123.3906C1957.1993,-113.1005 1995.8936,-96.6888 2023.2618,-85.0809"/>
<polygon fill="#191970" stroke="#191970" points="2024.9452,-88.1688 2032.7847,-81.0419 2022.2119,-81.7245 2024.9452,-88.1688"/>
</g>
<!-- Node35 -->
<g id="node36" class="node">
<title>Node35</title>
<polygon fill="none" stroke="#bfbfbf" points="2136.2819,-62 2136.2819,-81 2252.2819,-81 2252.2819,-62 2136.2819,-62"/>
<text text-anchor="middle" x="2194.2819" y="-69" font-family="Helvetica,sans-Serif" font-size="10.00" fill="#000000">deal.II/lac/full_matrix.h</text>
</g>
<!-- Node31&#45;&gt;Node35 -->
<g id="edge48" class="edge">
<title>Node31&#45;&gt;Node35</title>
<path fill="none" stroke="#191970" d="M1955.6368,-123.6397C1999.5749,-114.5118 2068.0645,-100.1251 2127.2819,-87 2132.6,-85.8213 2138.1507,-84.5704 2143.6821,-83.3104"/>
<polygon fill="#191970" stroke="#191970" points="2144.5976,-86.6914 2153.5634,-81.0465 2143.0343,-79.8682 2144.5976,-86.6914"/>
</g>
<!-- Node36 -->
<g id="node37" class="node">
<title>Node36</title>
<polygon fill="none" stroke="#bfbfbf" points="2270.7819,-56.5 2270.7819,-86.5 2361.7819,-86.5 2361.7819,-56.5 2270.7819,-56.5"/>
<text text-anchor="start" x="2278.7819" y="-74.5" font-family="Helvetica,sans-Serif" font-size="10.00" fill="#000000">deal.II/lac/lapack</text>
<text text-anchor="middle" x="2316.2819" y="-63.5" font-family="Helvetica,sans-Serif" font-size="10.00" fill="#000000">_full_matrix.h</text>
</g>
<!-- Node31&#45;&gt;Node36 -->
<g id="edge49" class="edge">
<title>Node31&#45;&gt;Node36</title>
<path fill="none" stroke="#191970" d="M1955.508,-129.1786C2020.7888,-123.2024 2145.3072,-110.0818 2260.4456,-86.9848"/>
<polygon fill="#191970" stroke="#191970" points="2261.387,-90.365 2270.4874,-84.9398 2259.99,-83.5058 2261.387,-90.365"/>
</g>
<!-- Node37 -->
<g id="node38" class="node">
<title>Node37</title>
<polygon fill="none" stroke="#bfbfbf" points="2379.7819,-56.5 2379.7819,-86.5 2470.7819,-86.5 2470.7819,-56.5 2379.7819,-56.5"/>
<text text-anchor="start" x="2387.7819" y="-74.5" font-family="Helvetica,sans-Serif" font-size="10.00" fill="#000000">deal.II/lac/lapack</text>
<text text-anchor="middle" x="2425.2819" y="-63.5" font-family="Helvetica,sans-Serif" font-size="10.00" fill="#000000">_support.h</text>
</g>
<!-- Node31&#45;&gt;Node37 -->
<g id="edge50" class="edge">
<title>Node31&#45;&gt;Node37</title>
<path fill="none" stroke="#191970" d="M1955.4953,-131.1904C2036.7404,-127.3548 2212.8257,-116.3836 2369.4679,-87.1441"/>
<polygon fill="#191970" stroke="#191970" points="2370.5843,-90.4948 2379.7563,-85.1916 2369.2791,-83.6176 2370.5843,-90.4948"/>
</g>
<!-- Node38 -->
<g id="node39" class="node">
<title>Node38</title>
<polygon fill="none" stroke="#bfbfbf" points="2488.7819,-56.5 2488.7819,-86.5 2579.7819,-86.5 2579.7819,-56.5 2488.7819,-56.5"/>
<text text-anchor="start" x="2496.7819" y="-74.5" font-family="Helvetica,sans-Serif" font-size="10.00" fill="#000000">deal.II/lac/lapack</text>
<text text-anchor="middle" x="2534.2819" y="-63.5" font-family="Helvetica,sans-Serif" font-size="10.00" fill="#000000">_templates.h</text>
</g>
<!-- Node31&#45;&gt;Node38 -->
<g id="edge51" class="edge">
<title>Node31&#45;&gt;Node38</title>
<path fill="none" stroke="#191970" d="M1955.3845,-132.399C2050.6569,-130.4778 2279.3682,-122.4266 2478.6986,-87.0679"/>
<polygon fill="#191970" stroke="#191970" points="2479.547,-90.4715 2488.7679,-85.2537 2478.3057,-83.5824 2479.547,-90.4715"/>
</g>
<!-- Node39 -->
<g id="node40" class="node">
<title>Node39</title>
<polygon fill="none" stroke="#bfbfbf" points="1366.2819,-56.5 1366.2819,-86.5 1458.2819,-86.5 1458.2819,-56.5 1366.2819,-56.5"/>
<text text-anchor="start" x="1374.2819" y="-74.5" font-family="Helvetica,sans-Serif" font-size="10.00" fill="#000000">deal.II/lac/sparse</text>
<text text-anchor="middle" x="1412.2819" y="-63.5" font-family="Helvetica,sans-Serif" font-size="10.00" fill="#000000">_matrix.h</text>
</g>
<!-- Node31&#45;&gt;Node39 -->
<g id="edge52" class="edge">
<title>Node31&#45;&gt;Node39</title>
<path fill="none" stroke="#191970" d="M1865.0636,-130.7811C1784.6509,-126.2843 1611.7476,-114.1248 1468.2819,-87 1468.1796,-86.9807 1468.0773,-86.9613 1467.975,-86.9417"/>
<polygon fill="#191970" stroke="#191970" points="1468.7926,-83.5374 1458.284,-84.8859 1467.3399,-90.385 1468.7926,-83.5374"/>
</g>
<!-- Node40 -->
<g id="node41" class="node">
<title>Node40</title>
<polygon fill="none" stroke="#bfbfbf" points="1476.7819,-62 1476.7819,-81 1577.7819,-81 1577.7819,-62 1476.7819,-62"/>
<text text-anchor="middle" x="1527.2819" y="-69" font-family="Helvetica,sans-Serif" font-size="10.00" fill="#000000">deal.II/lac/utilities.h</text>
</g>
<!-- Node31&#45;&gt;Node40 -->
<g id="edge53" class="edge">
<title>Node31&#45;&gt;Node40</title>
<path fill="none" stroke="#191970" d="M1865.0758,-128.1718C1802.3684,-121.1093 1685.5968,-106.6363 1587.2819,-87 1582.1386,-85.9727 1576.7784,-84.7746 1571.4704,-83.508"/>
<polygon fill="#191970" stroke="#191970" points="1571.946,-80.0202 1561.3979,-81.0147 1570.2639,-86.8151 1571.946,-80.0202"/>
</g>
<!-- Node41 -->
<g id="node42" class="node">
<title>Node41</title>
<polygon fill="none" stroke="#bfbfbf" points="1596.2819,-62 1596.2819,-81 1694.2819,-81 1694.2819,-62 1596.2819,-62"/>
<text text-anchor="middle" x="1645.2819" y="-69" font-family="Helvetica,sans-Serif" font-size="10.00" fill="#000000">deal.II/lac/vector.h</text>
</g>
<!-- Node31&#45;&gt;Node41 -->
<g id="edge54" class="edge">
<title>Node31&#45;&gt;Node41</title>
<path fill="none" stroke="#191970" d="M1864.927,-123.5007C1822.9024,-114.5617 1758.7096,-100.5584 1703.2819,-87 1698.892,-85.9262 1694.3254,-84.7715 1689.7677,-83.5941"/>
<polygon fill="#191970" stroke="#191970" points="1690.4374,-80.1514 1679.8768,-81.0029 1688.6634,-86.9229 1690.4374,-80.1514"/>
</g>
</g>
</svg>
