<?xml version="1.0" encoding="UTF-8" standalone="no"?>
<!DOCTYPE svg PUBLIC "-//W3C//DTD SVG 1.1//EN"
 "http://www.w3.org/Graphics/SVG/1.1/DTD/svg11.dtd">
<!-- Generated by graphviz version 2.40.1 (20161225.0304)
 -->
<!-- Title: /home/jihuan/Projects/deal.ii/program/dealii&#45;9.1.1/examples/laplace&#45;bem/tests/block&#45;cluster&#45;tree&#45;copy&#45;constructor/bct&#45;copy&#45;constructor.cc Pages: 1 -->
<!--zoomable 452 -->
<svg id="main" version="1.1" xmlns="http://www.w3.org/2000/svg" xmlns:xlink="http://www.w3.org/1999/xlink" xml:space="preserve" onload="init(evt)">
<style type="text/css"><![CDATA[
.edge:hover path { stroke: red; }
.edge:hover polygon { stroke: red; fill: red; }
]]></style>
<script type="text/javascript"><![CDATA[
var edges = document.getElementsByTagName('g');
if (edges && edges.length) {
  for (var i=0;i<edges.length;i++) {
    if (edges[i].id.substr(0,4)=='edge') {
      edges[i].setAttribute('class','edge');
    }
  }
}
]]></script>
        <defs>
                <circle id="rim" cx="0" cy="0" r="7"/>
                <circle id="rim2" cx="0" cy="0" r="3.5"/>
                <g id="zoomPlus">
                        <use xlink:href="#rim" fill="#404040">
                                <set attributeName="fill" to="#808080" begin="zoomplus.mouseover" end="zoomplus.mouseout"/>
                        </use>
                        <path d="M-4,0h8M0,-4v8" fill="none" stroke="white" stroke-width="1.5" pointer-events="none"/>
                </g>
                <g id="zoomMin">
                        <use xlink:href="#rim" fill="#404040">
                                <set attributeName="fill" to="#808080" begin="zoomminus.mouseover" end="zoomminus.mouseout"/>
                        </use>
                        <path d="M-4,0h8" fill="none" stroke="white" stroke-width="1.5" pointer-events="none"/>
                </g>
                <g id="dirArrow">
                        <path fill="none" stroke="white" stroke-width="1.5" d="M0,-3.0v7 M-2.5,-0.5L0,-3.0L2.5,-0.5"/>
                </g>
               <g id="resetDef">
                       <use xlink:href="#rim2" fill="#404040">
                               <set attributeName="fill" to="#808080" begin="reset.mouseover" end="reset.mouseout"/>
                       </use>
               </g>
        </defs>

<script type="text/javascript">
var viewWidth = 2845;
var viewHeight = 452;
var sectionId = 'dynsection-0';
</script>
<script xlink:href="svgpan.js"/>
<svg id="graph" class="graph">
<g id="viewport">
<title>/home/jihuan/Projects/deal.ii/program/dealii&#45;9.1.1/examples/laplace&#45;bem/tests/block&#45;cluster&#45;tree&#45;copy&#45;constructor/bct&#45;copy&#45;constructor.cc</title>
<!-- Node0 -->
<g id="node1" class="node">
<title>Node0</title>
<polygon fill="#bfbfbf" stroke="#000000" points="2092.5,-369.5 2092.5,-443.5 2220.5,-443.5 2220.5,-369.5 2092.5,-369.5"/>
<text text-anchor="start" x="2100.5" y="-431.5" font-family="Helvetica,sans-Serif" font-size="10.00" fill="#000000">/home/jihuan/Projects</text>
<text text-anchor="start" x="2100.5" y="-420.5" font-family="Helvetica,sans-Serif" font-size="10.00" fill="#000000">/deal.ii/program/dealii</text>
<text text-anchor="start" x="2100.5" y="-409.5" font-family="Helvetica,sans-Serif" font-size="10.00" fill="#000000">&#45;9.1.1/examples/laplace</text>
<text text-anchor="start" x="2100.5" y="-398.5" font-family="Helvetica,sans-Serif" font-size="10.00" fill="#000000">&#45;bem/tests/block&#45;cluster</text>
<text text-anchor="start" x="2100.5" y="-387.5" font-family="Helvetica,sans-Serif" font-size="10.00" fill="#000000">&#45;tree&#45;copy&#45;constructor/bct</text>
<text text-anchor="middle" x="2156.5" y="-376.5" font-family="Helvetica,sans-Serif" font-size="10.00" fill="#000000">&#45;copy&#45;constructor.cc</text>
</g>
<!-- Node1 -->
<g id="node2" class="node">
<title>Node1</title>
<polygon fill="none" stroke="#bfbfbf" points="2022.5,-313.5 2022.5,-332.5 2072.5,-332.5 2072.5,-313.5 2022.5,-313.5"/>
<text text-anchor="middle" x="2047.5" y="-320.5" font-family="Helvetica,sans-Serif" font-size="10.00" fill="#000000">fstream</text>
</g>
<!-- Node0&#45;&gt;Node1 -->
<g id="edge1" class="edge">
<title>Node0&#45;&gt;Node1</title>
<path fill="none" stroke="#191970" d="M2108.0562,-369.3894C2094.1012,-358.6991 2079.6098,-347.5979 2068.3032,-338.9364"/>
<polygon fill="#191970" stroke="#191970" points="2070.4062,-336.1385 2060.3393,-332.8356 2066.1493,-341.6954 2070.4062,-336.1385"/>
</g>
<!-- Node2 -->
<g id="node3" class="node">
<title>Node2</title>
<polygon fill="none" stroke="#bfbfbf" points="2108.5,-73 2108.5,-92 2162.5,-92 2162.5,-73 2108.5,-73"/>
<text text-anchor="middle" x="2135.5" y="-80" font-family="Helvetica,sans-Serif" font-size="10.00" fill="#000000">iostream</text>
</g>
<!-- Node0&#45;&gt;Node2 -->
<g id="edge2" class="edge">
<title>Node0&#45;&gt;Node2</title>
<path fill="none" stroke="#191970" d="M2154.091,-369.3331C2149.6246,-300.4218 2140.202,-155.0449 2136.778,-102.2171"/>
<polygon fill="#191970" stroke="#191970" points="2140.265,-101.9026 2136.1255,-92.1499 2133.2797,-102.3554 2140.265,-101.9026"/>
</g>
<!-- Node3 -->
<g id="node4" class="node">
<title>Node3</title>
<g id="a_node4"><a xlink:href="block__cluster__tree_8h.html" target="_top" xlink:title="Implementation of the class BlockClusterTree. ">
<polygon fill="none" stroke="#000000" points="2161.5,-313.5 2161.5,-332.5 2265.5,-332.5 2265.5,-313.5 2161.5,-313.5"/>
<text text-anchor="middle" x="2213.5" y="-320.5" font-family="Helvetica,sans-Serif" font-size="10.00" fill="#000000">block_cluster_tree.h</text>
</a>
</g>
</g>
<!-- Node0&#45;&gt;Node3 -->
<g id="edge3" class="edge">
<title>Node0&#45;&gt;Node3</title>
<path fill="none" stroke="#191970" d="M2181.9991,-369.1461C2188.6324,-359.4289 2195.4849,-349.3906 2201.0978,-341.1681"/>
<polygon fill="#191970" stroke="#191970" points="2204.0833,-343.0026 2206.8306,-332.7701 2198.3019,-339.056 2204.0833,-343.0026"/>
</g>
<!-- Node17 -->
<g id="node18" class="node">
<title>Node17</title>
<g id="a_node18"><a xlink:href="debug__tools_8h.html" target="_top" xlink:title="This file includes a bunch of helper functions for printing out and visualizing information about gri...">
<polygon fill="none" stroke="#000000" points="2441,-134.5 2441,-153.5 2518,-153.5 2518,-134.5 2441,-134.5"/>
<text text-anchor="middle" x="2479.5" y="-141.5" font-family="Helvetica,sans-Serif" font-size="10.00" fill="#000000">debug_tools.h</text>
</a>
</g>
</g>
<!-- Node0&#45;&gt;Node17 -->
<g id="edge67" class="edge">
<title>Node0&#45;&gt;Node17</title>
<path fill="none" stroke="#191970" d="M2220.6368,-371.6018C2278.3856,-338.1003 2363.3369,-283.4684 2424.5,-221 2442.1778,-202.9449 2458.4677,-178.7891 2468.6559,-162.3815"/>
<polygon fill="#191970" stroke="#191970" points="2471.716,-164.0853 2473.9138,-153.7209 2465.7324,-160.4526 2471.716,-164.0853"/>
</g>
<!-- Node4 -->
<g id="node5" class="node">
<title>Node4</title>
<g id="a_node5"><a xlink:href="block__cluster_8h.html" target="_top" xlink:title="Implementation of the class BlockCluster. ">
<polygon fill="none" stroke="#000000" points="2205,-257.5 2205,-276.5 2288,-276.5 2288,-257.5 2205,-257.5"/>
<text text-anchor="middle" x="2246.5" y="-264.5" font-family="Helvetica,sans-Serif" font-size="10.00" fill="#000000">block_cluster.h</text>
</a>
</g>
</g>
<!-- Node3&#45;&gt;Node4 -->
<g id="edge4" class="edge">
<title>Node3&#45;&gt;Node4</title>
<path fill="none" stroke="#191970" d="M2219.2482,-313.2455C2223.7435,-305.617 2230.1248,-294.7881 2235.5825,-285.5267"/>
<polygon fill="#191970" stroke="#191970" points="2238.7561,-287.035 2240.8177,-276.6427 2232.7253,-283.4811 2238.7561,-287.035"/>
</g>
<!-- Node16 -->
<g id="node17" class="node">
<title>Node16</title>
<g id="a_node17"><a xlink:href="cluster__tree_8h_source.html" target="_top" xlink:title="cluster_tree.h">
<polygon fill="none" stroke="#000000" points="2229.5,-196 2229.5,-215 2305.5,-215 2305.5,-196 2229.5,-196"/>
<text text-anchor="middle" x="2267.5" y="-203" font-family="Helvetica,sans-Serif" font-size="10.00" fill="#000000">cluster_tree.h</text>
</a>
</g>
</g>
<!-- Node3&#45;&gt;Node16 -->
<g id="edge36" class="edge">
<title>Node3&#45;&gt;Node16</title>
<path fill="none" stroke="#191970" d="M2247.3965,-313.4632C2265.3701,-306.4893 2285.8802,-295.0275 2296.5,-277 2306.7305,-259.6335 2294.916,-237.9807 2283.4368,-223.08"/>
<polygon fill="#191970" stroke="#191970" points="2285.9601,-220.6395 2276.886,-215.1703 2280.569,-225.1045 2285.9601,-220.6395"/>
</g>
<!-- Node3&#45;&gt;Node17 -->
<g id="edge37" class="edge">
<title>Node3&#45;&gt;Node17</title>
<path fill="none" stroke="#191970" d="M2238.3396,-313.3924C2258.8846,-304.997 2288.4813,-291.8504 2312.5,-277 2370.9964,-240.8325 2432.4303,-187.2211 2461.8111,-160.4545"/>
<polygon fill="#191970" stroke="#191970" points="2464.2196,-162.9947 2469.219,-153.6536 2459.4855,-157.8382 2464.2196,-162.9947"/>
</g>
<!-- Node21 -->
<g id="node22" class="node">
<title>Node21</title>
<g id="a_node22"><a xlink:href="tree_8h.html" target="_top" xlink:title="Implementation of the classes for binary tree node, general tree node and functions for manipulating ...">
<polygon fill="none" stroke="#000000" points="1928,-134.5 1928,-153.5 1969,-153.5 1969,-134.5 1928,-134.5"/>
<text text-anchor="middle" x="1948.5" y="-141.5" font-family="Helvetica,sans-Serif" font-size="10.00" fill="#000000">tree.h</text>
</a>
</g>
</g>
<!-- Node3&#45;&gt;Node21 -->
<g id="edge66" class="edge">
<title>Node3&#45;&gt;Node21</title>
<path fill="none" stroke="#191970" d="M2199.2524,-313.3762C2155.7561,-283.9956 2024.4207,-195.2823 1971.2323,-159.355"/>
<polygon fill="#191970" stroke="#191970" points="1973.0638,-156.3685 1962.818,-153.6714 1969.1456,-162.1692 1973.0638,-156.3685"/>
</g>
<!-- Node27 -->
<g id="node28" class="node">
<title>Node27</title>
<g id="a_node28"><a xlink:href="lapack__full__matrix__ext_8h_source.html" target="_top" xlink:title="lapack_full_matrix\l_ext.h">
<polygon fill="none" stroke="#000000" points="824,-190.5 824,-220.5 919,-220.5 919,-190.5 824,-190.5"/>
<text text-anchor="start" x="832" y="-208.5" font-family="Helvetica,sans-Serif" font-size="10.00" fill="#000000">lapack_full_matrix</text>
<text text-anchor="middle" x="871.5" y="-197.5" font-family="Helvetica,sans-Serif" font-size="10.00" fill="#000000">_ext.h</text>
</a>
</g>
</g>
<!-- Node3&#45;&gt;Node27 -->
<g id="edge38" class="edge">
<title>Node3&#45;&gt;Node27</title>
<path fill="none" stroke="#191970" d="M2161.3039,-318.4299C1949.0664,-299.8473 1151.5864,-230.0232 929.3258,-210.563"/>
<polygon fill="#191970" stroke="#191970" points="929.4485,-207.0604 919.1813,-209.6748 928.8379,-214.0338 929.4485,-207.0604"/>
</g>
<!-- Node5 -->
<g id="node6" class="node">
<title>Node5</title>
<g id="a_node6"><a xlink:href="cluster_8h.html" target="_top" xlink:title="Implementation of the class Cluster. ">
<polygon fill="none" stroke="#000000" points="2174.5,-134.5 2174.5,-153.5 2228.5,-153.5 2228.5,-134.5 2174.5,-134.5"/>
<text text-anchor="middle" x="2201.5" y="-141.5" font-family="Helvetica,sans-Serif" font-size="10.00" fill="#000000">cluster.h</text>
</a>
</g>
</g>
<!-- Node4&#45;&gt;Node5 -->
<g id="edge5" class="edge">
<title>Node4&#45;&gt;Node5</title>
<path fill="none" stroke="#191970" d="M2239.8907,-257.1642C2234.0655,-248.1085 2225.7163,-234.1289 2220.5,-221 2213.0543,-202.2598 2207.9094,-179.761 2204.8697,-163.9374"/>
<polygon fill="#191970" stroke="#191970" points="2208.25,-162.9614 2203.0255,-153.7443 2201.3618,-164.2077 2208.25,-162.9614"/>
</g>
<!-- Node4&#45;&gt;Node16 -->
<g id="edge17" class="edge">
<title>Node4&#45;&gt;Node16</title>
<path fill="none" stroke="#191970" d="M2249.7813,-257.3906C2252.7535,-248.6862 2257.2214,-235.6015 2260.927,-224.7494"/>
<polygon fill="#191970" stroke="#191970" points="2264.2532,-225.8394 2264.1725,-215.2449 2257.6288,-223.5773 2264.2532,-225.8394"/>
</g>
<!-- Node6 -->
<g id="node7" class="node">
<title>Node6</title>
<polygon fill="none" stroke="#bfbfbf" points="898,-73 898,-92 1001,-92 1001,-73 898,-73"/>
<text text-anchor="middle" x="949.5" y="-80" font-family="Helvetica,sans-Serif" font-size="10.00" fill="#000000">deal.II/base/types.h</text>
</g>
<!-- Node5&#45;&gt;Node6 -->
<g id="edge6" class="edge">
<title>Node5&#45;&gt;Node6</title>
<path fill="none" stroke="#191970" d="M2174.2625,-142.719C2132.0998,-140.7506 2048.4835,-136.9057 1977.5,-134 1547.7844,-116.4095 1436.1843,-159.3007 1010.5,-98 1004.4722,-97.132 998.1777,-95.9072 992.0184,-94.5222"/>
<polygon fill="#191970" stroke="#191970" points="992.3927,-91.0124 981.8513,-92.0748 990.7544,-97.818 992.3927,-91.0124"/>
</g>
<!-- Node7 -->
<g id="node8" class="node">
<title>Node7</title>
<polygon fill="none" stroke="#bfbfbf" points="2034.5,-73 2034.5,-92 2090.5,-92 2090.5,-73 2034.5,-73"/>
<text text-anchor="middle" x="2062.5" y="-80" font-family="Helvetica,sans-Serif" font-size="10.00" fill="#000000">algorithm</text>
</g>
<!-- Node5&#45;&gt;Node7 -->
<g id="edge7" class="edge">
<title>Node5&#45;&gt;Node7</title>
<path fill="none" stroke="#191970" d="M2179.7813,-134.3906C2156.626,-124.1457 2119.7559,-107.8326 2093.5409,-96.2339"/>
<polygon fill="#191970" stroke="#191970" points="2094.6273,-92.8874 2084.0662,-92.0419 2091.795,-99.2888 2094.6273,-92.8874"/>
</g>
<!-- Node8 -->
<g id="node9" class="node">
<title>Node8</title>
<polygon fill="none" stroke="#bfbfbf" points="2219,-73 2219,-92 2266,-92 2266,-73 2219,-73"/>
<text text-anchor="middle" x="2242.5" y="-80" font-family="Helvetica,sans-Serif" font-size="10.00" fill="#000000">iterator</text>
</g>
<!-- Node5&#45;&gt;Node8 -->
<g id="edge8" class="edge">
<title>Node5&#45;&gt;Node8</title>
<path fill="none" stroke="#191970" d="M2207.9063,-134.3906C2213.8886,-125.417 2222.9747,-111.7879 2230.3339,-100.7491"/>
<polygon fill="#191970" stroke="#191970" points="2233.3686,-102.5068 2236.0034,-92.2449 2227.5442,-98.6239 2233.3686,-102.5068"/>
</g>
<!-- Node9 -->
<g id="node10" class="node">
<title>Node9</title>
<polygon fill="none" stroke="#bfbfbf" points="1719.5,-6 1719.5,-25 1763.5,-25 1763.5,-6 1719.5,-6"/>
<text text-anchor="middle" x="1741.5" y="-13" font-family="Helvetica,sans-Serif" font-size="10.00" fill="#000000">vector</text>
</g>
<!-- Node5&#45;&gt;Node9 -->
<g id="edge9" class="edge">
<title>Node5&#45;&gt;Node9</title>
<path fill="none" stroke="#191970" d="M2200.8153,-134.3509C2199.071,-117.6632 2192.9337,-83.6087 2171.5,-67 2140.1329,-42.6941 1868.0706,-23.453 1773.6298,-17.4529"/>
<polygon fill="#191970" stroke="#191970" points="1773.7258,-13.9521 1763.5261,-16.8186 1773.2871,-20.9383 1773.7258,-13.9521"/>
</g>
<!-- Node10 -->
<g id="node11" class="node">
<title>Node10</title>
<g id="a_node11"><a xlink:href="simple__bounding__box_8h_source.html" target="_top" xlink:title="simple_bounding_box.h">
<polygon fill="none" stroke="#000000" points="2284,-73 2284,-92 2403,-92 2403,-73 2284,-73"/>
<text text-anchor="middle" x="2343.5" y="-80" font-family="Helvetica,sans-Serif" font-size="10.00" fill="#000000">simple_bounding_box.h</text>
</a>
</g>
</g>
<!-- Node5&#45;&gt;Node10 -->
<g id="edge10" class="edge">
<title>Node5&#45;&gt;Node10</title>
<path fill="none" stroke="#191970" d="M2223.6875,-134.3906C2247.4467,-124.1005 2285.3405,-107.6888 2312.1425,-96.0809"/>
<polygon fill="#191970" stroke="#191970" points="2313.683,-99.2279 2321.4683,-92.0419 2310.9009,-92.8045 2313.683,-99.2279"/>
</g>
<!-- Node10&#45;&gt;Node9 -->
<g id="edge16" class="edge">
<title>Node10&#45;&gt;Node9</title>
<path fill="none" stroke="#191970" d="M2304.9808,-72.9565C2295.0933,-70.7524 2284.4413,-68.5905 2274.5,-67 2086.0813,-36.8547 1857.1683,-21.9426 1773.8175,-17.2151"/>
<polygon fill="#191970" stroke="#191970" points="1773.891,-13.7138 1763.7116,-16.6517 1773.5013,-20.703 1773.891,-13.7138"/>
</g>
<!-- Node11 -->
<g id="node12" class="node">
<title>Node11</title>
<polygon fill="none" stroke="#bfbfbf" points="2296.5,-6 2296.5,-25 2396.5,-25 2396.5,-6 2296.5,-6"/>
<text text-anchor="middle" x="2346.5" y="-13" font-family="Helvetica,sans-Serif" font-size="10.00" fill="#000000">deal.II/base/point.h</text>
</g>
<!-- Node10&#45;&gt;Node11 -->
<g id="edge11" class="edge">
<title>Node10&#45;&gt;Node11</title>
<path fill="none" stroke="#191970" d="M2343.9298,-72.9005C2344.3665,-63.149 2345.0555,-47.7597 2345.6103,-35.3695"/>
<polygon fill="#191970" stroke="#191970" points="2349.1201,-35.2282 2346.071,-25.0817 2342.1271,-34.9151 2349.1201,-35.2282"/>
</g>
<!-- Node12 -->
<g id="node13" class="node">
<title>Node12</title>
<polygon fill="none" stroke="#bfbfbf" points="2437,-6 2437,-25 2564,-25 2564,-6 2437,-6"/>
<text text-anchor="middle" x="2500.5" y="-13" font-family="Helvetica,sans-Serif" font-size="10.00" fill="#000000">deal.II/dofs/dof_handler.h</text>
</g>
<!-- Node10&#45;&gt;Node12 -->
<g id="edge12" class="edge">
<title>Node10&#45;&gt;Node12</title>
<path fill="none" stroke="#191970" d="M2365.9943,-72.9005C2392.9253,-61.4077 2438.2067,-42.0838 2468.7064,-29.068"/>
<polygon fill="#191970" stroke="#191970" points="2470.2237,-32.2259 2478.0475,-25.0817 2467.4762,-25.7876 2470.2237,-32.2259"/>
</g>
<!-- Node13 -->
<g id="node14" class="node">
<title>Node13</title>
<polygon fill="none" stroke="#bfbfbf" points="2593.5,-6 2593.5,-25 2709.5,-25 2709.5,-6 2593.5,-6"/>
<text text-anchor="middle" x="2651.5" y="-13" font-family="Helvetica,sans-Serif" font-size="10.00" fill="#000000">deal.II/dofs/dof_tools.h</text>
</g>
<!-- Node10&#45;&gt;Node13 -->
<g id="edge13" class="edge">
<title>Node10&#45;&gt;Node13</title>
<path fill="none" stroke="#191970" d="M2384.835,-72.9896C2393.6319,-70.9904 2402.8696,-68.9095 2411.5,-67 2474.8187,-52.9906 2547.6646,-37.4388 2596.3372,-27.1286"/>
<polygon fill="#191970" stroke="#191970" points="2597.2859,-30.5055 2606.3444,-25.0106 2595.8363,-23.6572 2597.2859,-30.5055"/>
</g>
<!-- Node14 -->
<g id="node15" class="node">
<title>Node14</title>
<polygon fill="none" stroke="#bfbfbf" points="2734,-6 2734,-25 2837,-25 2837,-6 2734,-6"/>
<text text-anchor="middle" x="2785.5" y="-13" font-family="Helvetica,sans-Serif" font-size="10.00" fill="#000000">deal.II/fe/mapping.h</text>
</g>
<!-- Node10&#45;&gt;Node14 -->
<g id="edge14" class="edge">
<title>Node10&#45;&gt;Node14</title>
<path fill="none" stroke="#191970" d="M2382.1921,-72.9245C2391.7331,-70.7726 2401.9536,-68.6428 2411.5,-67 2546.8892,-43.7008 2583.1486,-54.518 2718.5,-31 2724.7527,-29.9136 2731.2975,-28.61 2737.7435,-27.2264"/>
<polygon fill="#191970" stroke="#191970" points="2738.7328,-30.592 2747.7353,-25.0058 2737.2141,-23.7587 2738.7328,-30.592"/>
</g>
<!-- Node15 -->
<g id="node16" class="node">
<title>Node15</title>
<polygon fill="none" stroke="#bfbfbf" points="2238.5,-6 2238.5,-25 2278.5,-25 2278.5,-6 2238.5,-6"/>
<text text-anchor="middle" x="2258.5" y="-13" font-family="Helvetica,sans-Serif" font-size="10.00" fill="#000000">utility</text>
</g>
<!-- Node10&#45;&gt;Node15 -->
<g id="edge15" class="edge">
<title>Node10&#45;&gt;Node15</title>
<path fill="none" stroke="#191970" d="M2331.3216,-72.9005C2317.5616,-62.0544 2294.9535,-44.2339 2278.5738,-31.3229"/>
<polygon fill="#191970" stroke="#191970" points="2280.6761,-28.5234 2270.6558,-25.0817 2276.3427,-34.0209 2280.6761,-28.5234"/>
</g>
<!-- Node16&#45;&gt;Node5 -->
<g id="edge18" class="edge">
<title>Node16&#45;&gt;Node5</title>
<path fill="none" stroke="#191970" d="M2257.1875,-195.8906C2247.0758,-186.4683 2231.4558,-171.9134 2219.3293,-160.6137"/>
<polygon fill="#191970" stroke="#191970" points="2221.6601,-158.0015 2211.9579,-153.7449 2216.888,-163.1228 2221.6601,-158.0015"/>
</g>
<!-- Node16&#45;&gt;Node17 -->
<g id="edge19" class="edge">
<title>Node16&#45;&gt;Node17</title>
<path fill="none" stroke="#191970" d="M2300.625,-195.8906C2337.3411,-185.2395 2396.6664,-168.0296 2436.8338,-156.3772"/>
<polygon fill="#191970" stroke="#191970" points="2437.9787,-159.6895 2446.6076,-153.5419 2436.0284,-152.9666 2437.9787,-159.6895"/>
</g>
<!-- Node16&#45;&gt;Node21 -->
<g id="edge27" class="edge">
<title>Node16&#45;&gt;Node21</title>
<path fill="none" stroke="#191970" d="M2229.338,-198.1427C2165.3508,-185.8067 2037.6924,-161.1954 1979.1373,-149.9066"/>
<polygon fill="#191970" stroke="#191970" points="1979.5206,-146.4161 1969.0389,-147.9597 1978.1955,-153.2895 1979.5206,-146.4161"/>
</g>
<!-- Node17&#45;&gt;Node2 -->
<g id="edge25" class="edge">
<title>Node17&#45;&gt;Node2</title>
<path fill="none" stroke="#191970" d="M2440.9659,-137.904C2388.5048,-129.4979 2291.7202,-113.6091 2209.5,-98 2197.4314,-95.7088 2184.2972,-93.0214 2172.4894,-90.5336"/>
<polygon fill="#191970" stroke="#191970" points="2173.0234,-87.069 2162.5143,-88.4137 2171.5683,-93.9161 2173.0234,-87.069"/>
</g>
<!-- Node17&#45;&gt;Node12 -->
<g id="edge20" class="edge">
<title>Node17&#45;&gt;Node12</title>
<path fill="none" stroke="#191970" d="M2518.2759,-141.3572C2573.8593,-136.67 2671.8875,-124.7518 2693.5,-98 2702.1584,-87.2827 2701.893,-77.9263 2693.5,-67 2685.0477,-55.9965 2611.7359,-38.6237 2557.9621,-27.1455"/>
<polygon fill="#191970" stroke="#191970" points="2558.6766,-23.7193 2548.1687,-25.0738 2557.2278,-30.5678 2558.6766,-23.7193"/>
</g>
<!-- Node17&#45;&gt;Node13 -->
<g id="edge21" class="edge">
<title>Node17&#45;&gt;Node13</title>
<path fill="none" stroke="#191970" d="M2518.3763,-142.0324C2577.7421,-138.1231 2686.6371,-127.0834 2710.5,-98 2728.9033,-75.5706 2699.1771,-47.8381 2675.6517,-30.9201"/>
<polygon fill="#191970" stroke="#191970" points="2677.5851,-28.0018 2667.3657,-25.2062 2673.6112,-33.7645 2677.5851,-28.0018"/>
</g>
<!-- Node17&#45;&gt;Node14 -->
<g id="edge24" class="edge">
<title>Node17&#45;&gt;Node14</title>
<path fill="none" stroke="#191970" d="M2518.1054,-140.3489C2578.631,-134.0442 2692.4671,-119.6727 2726.5,-98 2750.5469,-82.6866 2767.776,-53.7451 2777.1928,-34.538"/>
<polygon fill="#191970" stroke="#191970" points="2780.4638,-35.8044 2781.5073,-25.2611 2774.1167,-32.8525 2780.4638,-35.8044"/>
</g>
<!-- Node18 -->
<g id="node19" class="node">
<title>Node18</title>
<polygon fill="none" stroke="#bfbfbf" points="2480.5,-73 2480.5,-92 2554.5,-92 2554.5,-73 2480.5,-73"/>
<text text-anchor="middle" x="2517.5" y="-80" font-family="Helvetica,sans-Serif" font-size="10.00" fill="#000000">deal.II/fe/fe.h</text>
</g>
<!-- Node17&#45;&gt;Node18 -->
<g id="edge22" class="edge">
<title>Node17&#45;&gt;Node18</title>
<path fill="none" stroke="#191970" d="M2485.4375,-134.3906C2490.9267,-125.5068 2499.2353,-112.0601 2506.019,-101.0811"/>
<polygon fill="#191970" stroke="#191970" points="2509.1998,-102.5917 2511.4788,-92.2449 2503.2449,-98.9122 2509.1998,-102.5917"/>
</g>
<!-- Node19 -->
<g id="node20" class="node">
<title>Node19</title>
<polygon fill="none" stroke="#bfbfbf" points="2572.5,-73 2572.5,-92 2684.5,-92 2684.5,-73 2572.5,-73"/>
<text text-anchor="middle" x="2628.5" y="-80" font-family="Helvetica,sans-Serif" font-size="10.00" fill="#000000">deal.II/fe/fe_system.h</text>
</g>
<!-- Node17&#45;&gt;Node19 -->
<g id="edge23" class="edge">
<title>Node17&#45;&gt;Node19</title>
<path fill="none" stroke="#191970" d="M2502.7813,-134.3906C2527.821,-124.0554 2567.8225,-107.5447 2595.966,-95.9284"/>
<polygon fill="#191970" stroke="#191970" points="2597.474,-99.0925 2605.3822,-92.0419 2594.8033,-92.622 2597.474,-99.0925"/>
</g>
<!-- Node20 -->
<g id="node21" class="node">
<title>Node20</title>
<polygon fill="none" stroke="#bfbfbf" points="2421,-73 2421,-92 2462,-92 2462,-73 2421,-73"/>
<text text-anchor="middle" x="2441.5" y="-80" font-family="Helvetica,sans-Serif" font-size="10.00" fill="#000000">string</text>
</g>
<!-- Node17&#45;&gt;Node20 -->
<g id="edge26" class="edge">
<title>Node17&#45;&gt;Node20</title>
<path fill="none" stroke="#191970" d="M2473.5625,-134.3906C2468.0733,-125.5068 2459.7647,-112.0601 2452.981,-101.0811"/>
<polygon fill="#191970" stroke="#191970" points="2455.7551,-98.9122 2447.5212,-92.2449 2449.8002,-102.5917 2455.7551,-98.9122"/>
</g>
<!-- Node21&#45;&gt;Node2 -->
<g id="edge33" class="edge">
<title>Node21&#45;&gt;Node2</title>
<path fill="none" stroke="#191970" d="M1969.2552,-138.464C1998.5858,-130.4637 2053.696,-114.7787 2099.5,-98 2101.321,-97.3329 2103.1827,-96.6223 2105.0535,-95.886"/>
<polygon fill="#191970" stroke="#191970" points="2106.4156,-99.1104 2114.3369,-92.0746 2103.7569,-92.635 2106.4156,-99.1104"/>
</g>
<!-- Node21&#45;&gt;Node7 -->
<g id="edge29" class="edge">
<title>Node21&#45;&gt;Node7</title>
<path fill="none" stroke="#191970" d="M1966.3125,-134.3906C1984.9685,-124.3262 2014.4797,-108.4057 2035.8974,-96.8514"/>
<polygon fill="#191970" stroke="#191970" points="2037.6734,-99.8702 2044.8126,-92.0419 2034.3498,-93.7095 2037.6734,-99.8702"/>
</g>
<!-- Node21&#45;&gt;Node9 -->
<g id="edge35" class="edge">
<title>Node21&#45;&gt;Node9</title>
<path fill="none" stroke="#191970" d="M1927.8519,-141.6737C1884.0524,-136.3218 1783.9208,-121.7417 1760.5,-98 1744.1824,-81.4588 1740.7724,-53.8866 1740.551,-35.215"/>
<polygon fill="#191970" stroke="#191970" points="1744.0514,-35.2187 1740.7268,-25.159 1737.0525,-35.0962 1744.0514,-35.2187"/>
</g>
<!-- Node22 -->
<g id="node23" class="node">
<title>Node22</title>
<polygon fill="none" stroke="#bfbfbf" points="129.5,-73 129.5,-92 255.5,-92 255.5,-73 129.5,-73"/>
<text text-anchor="middle" x="192.5" y="-80" font-family="Helvetica,sans-Serif" font-size="10.00" fill="#000000">deal.II/base/exceptions.h</text>
</g>
<!-- Node21&#45;&gt;Node22 -->
<g id="edge28" class="edge">
<title>Node21&#45;&gt;Node22</title>
<path fill="none" stroke="#191970" d="M1927.7347,-143.9612C1758.8845,-143.5673 608.5982,-139.3778 264.5,-98 256.645,-97.0554 248.381,-95.662 240.3645,-94.0918"/>
<polygon fill="#191970" stroke="#191970" points="240.8939,-90.6273 230.3922,-92.0289 239.4758,-97.4822 240.8939,-90.6273"/>
</g>
<!-- Node23 -->
<g id="node24" class="node">
<title>Node23</title>
<polygon fill="none" stroke="#bfbfbf" points="1823.5,-73 1823.5,-92 1861.5,-92 1861.5,-73 1823.5,-73"/>
<text text-anchor="middle" x="1842.5" y="-80" font-family="Helvetica,sans-Serif" font-size="10.00" fill="#000000">array</text>
</g>
<!-- Node21&#45;&gt;Node23 -->
<g id="edge30" class="edge">
<title>Node21&#45;&gt;Node23</title>
<path fill="none" stroke="#191970" d="M1931.9375,-134.3906C1914.7463,-124.4165 1887.6418,-108.6908 1867.7734,-97.1633"/>
<polygon fill="#191970" stroke="#191970" points="1869.3523,-94.033 1858.9462,-92.0419 1865.8394,-100.0877 1869.3523,-94.033"/>
</g>
<!-- Node24 -->
<g id="node25" class="node">
<title>Node24</title>
<polygon fill="none" stroke="#bfbfbf" points="1880,-73 1880,-92 1939,-92 1939,-73 1880,-73"/>
<text text-anchor="middle" x="1909.5" y="-80" font-family="Helvetica,sans-Serif" font-size="10.00" fill="#000000">exception</text>
</g>
<!-- Node21&#45;&gt;Node24 -->
<g id="edge31" class="edge">
<title>Node21&#45;&gt;Node24</title>
<path fill="none" stroke="#191970" d="M1942.4063,-134.3906C1936.7157,-125.417 1928.0728,-111.7879 1921.0726,-100.7491"/>
<polygon fill="#191970" stroke="#191970" points="1923.9909,-98.8155 1915.6797,-92.2449 1918.0793,-102.5644 1923.9909,-98.8155"/>
</g>
<!-- Node25 -->
<g id="node26" class="node">
<title>Node25</title>
<polygon fill="none" stroke="#bfbfbf" points="1957,-73 1957,-92 2016,-92 2016,-73 1957,-73"/>
<text text-anchor="middle" x="1986.5" y="-80" font-family="Helvetica,sans-Serif" font-size="10.00" fill="#000000">functional</text>
</g>
<!-- Node21&#45;&gt;Node25 -->
<g id="edge32" class="edge">
<title>Node21&#45;&gt;Node25</title>
<path fill="none" stroke="#191970" d="M1954.4375,-134.3906C1959.9267,-125.5068 1968.2353,-112.0601 1975.019,-101.0811"/>
<polygon fill="#191970" stroke="#191970" points="1978.1998,-102.5917 1980.4788,-92.2449 1972.2449,-98.9122 1978.1998,-102.5917"/>
</g>
<!-- Node26 -->
<g id="node27" class="node">
<title>Node26</title>
<polygon fill="none" stroke="#bfbfbf" points="1770,-73 1770,-92 1805,-92 1805,-73 1770,-73"/>
<text text-anchor="middle" x="1787.5" y="-80" font-family="Helvetica,sans-Serif" font-size="10.00" fill="#000000">new</text>
</g>
<!-- Node21&#45;&gt;Node26 -->
<g id="edge34" class="edge">
<title>Node21&#45;&gt;Node26</title>
<path fill="none" stroke="#191970" d="M1927.5965,-138.1732C1900.8224,-130.407 1853.2505,-115.5802 1814.5,-98 1813.6602,-97.619 1812.8123,-97.2199 1811.9613,-96.8069"/>
<polygon fill="#191970" stroke="#191970" points="1813.4154,-93.6165 1802.9394,-92.0338 1810.1419,-99.804 1813.4154,-93.6165"/>
</g>
<!-- Node27&#45;&gt;Node9 -->
<g id="edge44" class="edge">
<title>Node27&#45;&gt;Node9</title>
<path fill="none" stroke="#191970" d="M919.2042,-204.1951C1073.1753,-199.223 1554.457,-177.521 1684.5,-98 1708.672,-83.2189 1725.1473,-53.8878 1733.9425,-34.481"/>
<polygon fill="#191970" stroke="#191970" points="1737.2311,-35.6921 1737.9406,-25.1211 1730.7937,-32.9424 1737.2311,-35.6921"/>
</g>
<!-- Node27&#45;&gt;Node20 -->
<g id="edge43" class="edge">
<title>Node27&#45;&gt;Node20</title>
<path fill="none" stroke="#191970" d="M919.0617,-204.4787C1145.1431,-199.5199 2105.6695,-177.2444 2237.5,-154 2317.5056,-139.8933 2336.4888,-129.1966 2411.5,-98 2412.6875,-97.5061 2413.8917,-96.9831 2415.1012,-96.4395"/>
<polygon fill="#191970" stroke="#191970" points="2416.794,-99.509 2424.2816,-92.0133 2413.7539,-93.2036 2416.794,-99.509"/>
</g>
<!-- Node28 -->
<g id="node29" class="node">
<title>Node28</title>
<polygon fill="none" stroke="#bfbfbf" points="726.5,-134.5 726.5,-153.5 766.5,-153.5 766.5,-134.5 726.5,-134.5"/>
<text text-anchor="middle" x="746.5" y="-141.5" font-family="Helvetica,sans-Serif" font-size="10.00" fill="#000000">limits</text>
</g>
<!-- Node27&#45;&gt;Node28 -->
<g id="edge39" class="edge">
<title>Node27&#45;&gt;Node28</title>
<path fill="none" stroke="#191970" d="M840.9216,-190.4554C820.7968,-180.554 794.6361,-167.683 774.9562,-158.0004"/>
<polygon fill="#191970" stroke="#191970" points="776.3885,-154.8045 765.8706,-153.5303 773.2982,-161.0855 776.3885,-154.8045"/>
</g>
<!-- Node29 -->
<g id="node30" class="node">
<title>Node29</title>
<polygon fill="none" stroke="#bfbfbf" points="0,-73 0,-92 35,-92 35,-73 0,-73"/>
<text text-anchor="middle" x="17.5" y="-80" font-family="Helvetica,sans-Serif" font-size="10.00" fill="#000000">map</text>
</g>
<!-- Node27&#45;&gt;Node29 -->
<g id="edge40" class="edge">
<title>Node27&#45;&gt;Node29</title>
<path fill="none" stroke="#191970" d="M823.7718,-203.878C667.4443,-198.3436 176.9981,-179.1443 110.5,-154 79.443,-142.2567 50.2251,-116.4727 33.0995,-99.294"/>
<polygon fill="#191970" stroke="#191970" points="35.5906,-96.8351 26.1187,-92.088 30.5628,-101.7057 35.5906,-96.8351"/>
</g>
<!-- Node30 -->
<g id="node31" class="node">
<title>Node30</title>
<polygon fill="none" stroke="#bfbfbf" points="893,-134.5 893,-153.5 934,-153.5 934,-134.5 893,-134.5"/>
<text text-anchor="middle" x="913.5" y="-141.5" font-family="Helvetica,sans-Serif" font-size="10.00" fill="#000000">regex</text>
</g>
<!-- Node27&#45;&gt;Node30 -->
<g id="edge41" class="edge">
<title>Node27&#45;&gt;Node30</title>
<path fill="none" stroke="#191970" d="M881.882,-190.2977C887.6513,-181.8498 894.8716,-171.2773 900.9553,-162.369"/>
<polygon fill="#191970" stroke="#191970" points="904.0259,-164.0788 906.7753,-153.8469 898.2453,-160.1311 904.0259,-164.0788"/>
</g>
<!-- Node31 -->
<g id="node32" class="node">
<title>Node31</title>
<polygon fill="none" stroke="#bfbfbf" points="952.5,-134.5 952.5,-153.5 1004.5,-153.5 1004.5,-134.5 952.5,-134.5"/>
<text text-anchor="middle" x="978.5" y="-141.5" font-family="Helvetica,sans-Serif" font-size="10.00" fill="#000000">sstream</text>
</g>
<!-- Node27&#45;&gt;Node31 -->
<g id="edge42" class="edge">
<title>Node27&#45;&gt;Node31</title>
<path fill="none" stroke="#191970" d="M897.6751,-190.4554C914.5887,-180.734 936.4829,-168.15 953.2172,-158.5317"/>
<polygon fill="#191970" stroke="#191970" points="954.993,-161.548 961.9188,-153.5303 951.5047,-155.4791 954.993,-161.548"/>
</g>
<!-- Node32 -->
<g id="node33" class="node">
<title>Node32</title>
<g id="a_node33"><a xlink:href="general__exceptions_8h.html" target="_top" xlink:title="Definition of self&#45;defined general exceptions. ">
<polygon fill="none" stroke="#000000" points="429,-134.5 429,-153.5 538,-153.5 538,-134.5 429,-134.5"/>
<text text-anchor="middle" x="483.5" y="-141.5" font-family="Helvetica,sans-Serif" font-size="10.00" fill="#000000">general_exceptions.h</text>
</a>
</g>
</g>
<!-- Node27&#45;&gt;Node32 -->
<g id="edge45" class="edge">
<title>Node27&#45;&gt;Node32</title>
<path fill="none" stroke="#191970" d="M823.9236,-197.9589C754.6892,-186.9849 625.9709,-166.5824 548.184,-154.2527"/>
<polygon fill="#191970" stroke="#191970" points="548.4492,-150.7512 538.0246,-152.6424 547.3533,-157.6649 548.4492,-150.7512"/>
</g>
<!-- Node33 -->
<g id="node34" class="node">
<title>Node33</title>
<g id="a_node34"><a xlink:href="generic__functors_8h.html" target="_top" xlink:title="This header file contains a set of self&#45;defined generic functors. ">
<polygon fill="none" stroke="#000000" points="120,-134.5 120,-153.5 217,-153.5 217,-134.5 120,-134.5"/>
<text text-anchor="middle" x="168.5" y="-141.5" font-family="Helvetica,sans-Serif" font-size="10.00" fill="#000000">generic_functors.h</text>
</a>
</g>
</g>
<!-- Node27&#45;&gt;Node33 -->
<g id="edge47" class="edge">
<title>Node27&#45;&gt;Node33</title>
<path fill="none" stroke="#191970" d="M823.7326,-201.3212C699.0401,-190.4128 363.9509,-161.0985 227.5161,-149.1629"/>
<polygon fill="#191970" stroke="#191970" points="227.5316,-145.6509 217.2646,-148.266 226.9215,-152.6243 227.5316,-145.6509"/>
</g>
<!-- Node35 -->
<g id="node36" class="node">
<title>Node35</title>
<g id="a_node36"><a xlink:href="lapack__helpers_8h.html" target="_top" xlink:title="Exposes LAPACK helper functions defined in lapack_full_matrix.cc and define new ones by following the...">
<polygon fill="none" stroke="#000000" points="784.5,-134.5 784.5,-153.5 874.5,-153.5 874.5,-134.5 784.5,-134.5"/>
<text text-anchor="middle" x="829.5" y="-141.5" font-family="Helvetica,sans-Serif" font-size="10.00" fill="#000000">lapack_helpers.h</text>
</a>
</g>
</g>
<!-- Node27&#45;&gt;Node35 -->
<g id="edge53" class="edge">
<title>Node27&#45;&gt;Node35</title>
<path fill="none" stroke="#191970" d="M861.118,-190.2977C855.3487,-181.8498 848.1284,-171.2773 842.0447,-162.369"/>
<polygon fill="#191970" stroke="#191970" points="844.7547,-160.1311 836.2247,-153.8469 838.9741,-164.0788 844.7547,-160.1311"/>
</g>
<!-- Node32&#45;&gt;Node22 -->
<g id="edge46" class="edge">
<title>Node32&#45;&gt;Node22</title>
<path fill="none" stroke="#191970" d="M437.7662,-134.4633C393.4517,-125.2062 324.3511,-110.728 264.5,-98 258.7313,-96.7732 252.704,-95.4853 246.6985,-94.1982"/>
<polygon fill="#191970" stroke="#191970" points="247.1739,-90.7206 236.662,-92.0436 245.7046,-97.5646 247.1739,-90.7206"/>
</g>
<!-- Node33&#45;&gt;Node6 -->
<g id="edge49" class="edge">
<title>Node33&#45;&gt;Node6</title>
<path fill="none" stroke="#191970" d="M217.303,-142.0613C357.3151,-136.3121 758.586,-118.4748 888.5,-98 894.3774,-97.0737 900.5145,-95.8402 906.5347,-94.472"/>
<polygon fill="#191970" stroke="#191970" points="907.588,-97.8185 916.4896,-92.0729 905.9479,-91.0133 907.588,-97.8185"/>
</g>
<!-- Node33&#45;&gt;Node9 -->
<g id="edge52" class="edge">
<title>Node33&#45;&gt;Node9</title>
<path fill="none" stroke="#191970" d="M154.7924,-134.347C134.3197,-118.8223 100.2229,-87.9316 120.5,-67 149.1872,-37.387 1483.0643,-18.8421 1709.1166,-15.9095"/>
<polygon fill="#191970" stroke="#191970" points="1709.3669,-19.4066 1719.3209,-15.778 1709.2766,-12.4072 1709.3669,-19.4066"/>
</g>
<!-- Node33&#45;&gt;Node22 -->
<g id="edge48" class="edge">
<title>Node33&#45;&gt;Node22</title>
<path fill="none" stroke="#191970" d="M172.25,-134.3906C175.6468,-125.6862 180.7531,-112.6015 184.988,-101.7494"/>
<polygon fill="#191970" stroke="#191970" points="188.3222,-102.8331 188.6971,-92.2449 181.8011,-100.2882 188.3222,-102.8331"/>
</g>
<!-- Node33&#45;&gt;Node29 -->
<g id="edge51" class="edge">
<title>Node33&#45;&gt;Node29</title>
<path fill="none" stroke="#191970" d="M141.7787,-134.3864C117.4926,-125.4804 80.7837,-111.5956 49.5,-98 47.9042,-97.3065 46.2718,-96.5778 44.6303,-95.83"/>
<polygon fill="#191970" stroke="#191970" points="45.8585,-92.5399 35.3197,-91.4517 42.8797,-98.8745 45.8585,-92.5399"/>
</g>
<!-- Node34 -->
<g id="node35" class="node">
<title>Node34</title>
<polygon fill="none" stroke="#bfbfbf" points="288,-.5 288,-30.5 379,-30.5 379,-.5 288,-.5"/>
<text text-anchor="start" x="296" y="-18.5" font-family="Helvetica,sans-Serif" font-size="10.00" fill="#000000">deal.II/lac/lapack</text>
<text text-anchor="middle" x="333.5" y="-7.5" font-family="Helvetica,sans-Serif" font-size="10.00" fill="#000000">_support.h</text>
</g>
<!-- Node33&#45;&gt;Node34 -->
<g id="edge50" class="edge">
<title>Node33&#45;&gt;Node34</title>
<path fill="none" stroke="#191970" d="M135.8103,-134.4174C118.1638,-127.3899 97.9138,-115.8899 87.5,-98 80.5687,-86.0927 78.8129,-77.694 87.5,-67 111.0033,-38.0667 212.7139,-24.8141 277.7681,-19.1993"/>
<polygon fill="#191970" stroke="#191970" points="278.1994,-22.6756 287.8766,-18.3625 277.6219,-15.6995 278.1994,-22.6756"/>
</g>
<!-- Node35&#45;&gt;Node34 -->
<g id="edge59" class="edge">
<title>Node35&#45;&gt;Node34</title>
<path fill="none" stroke="#191970" d="M784.4613,-135.3947C781.4328,-134.8978 778.4246,-134.4273 775.5,-134 627.3271,-112.3508 578.6763,-155.7166 440.5,-98 420.3881,-89.5992 419.682,-80.4105 402.5,-67 389.4791,-56.8372 374.8432,-45.8526 362.4126,-36.6491"/>
<polygon fill="#191970" stroke="#191970" points="364.3308,-33.7148 354.206,-30.594 360.1747,-39.3476 364.3308,-33.7148"/>
</g>
<!-- Node36 -->
<g id="node37" class="node">
<title>Node36</title>
<polygon fill="none" stroke="#bfbfbf" points="1135.5,-73 1135.5,-92 1251.5,-92 1251.5,-73 1135.5,-73"/>
<text text-anchor="middle" x="1193.5" y="-80" font-family="Helvetica,sans-Serif" font-size="10.00" fill="#000000">deal.II/base/numbers.h</text>
</g>
<!-- Node35&#45;&gt;Node36 -->
<g id="edge54" class="edge">
<title>Node35&#45;&gt;Node36</title>
<path fill="none" stroke="#191970" d="M874.5599,-135.5301C877.5833,-135.0005 880.5845,-134.4858 883.5,-134 991.1942,-116.0569 1019.2289,-118.3203 1126.5,-98 1132.3616,-96.8896 1138.4876,-95.6222 1144.5515,-94.3013"/>
<polygon fill="#191970" stroke="#191970" points="1145.6446,-97.6434 1154.6402,-92.0462 1144.1175,-90.812 1145.6446,-97.6434"/>
</g>
<!-- Node37 -->
<g id="node38" class="node">
<title>Node37</title>
<polygon fill="none" stroke="#bfbfbf" points="1269.5,-67.5 1269.5,-97.5 1397.5,-97.5 1397.5,-67.5 1269.5,-67.5"/>
<text text-anchor="start" x="1277.5" y="-85.5" font-family="Helvetica,sans-Serif" font-size="10.00" fill="#000000">deal.II/lac/blas_extension</text>
<text text-anchor="middle" x="1333.5" y="-74.5" font-family="Helvetica,sans-Serif" font-size="10.00" fill="#000000">_templates.h</text>
</g>
<!-- Node35&#45;&gt;Node37 -->
<g id="edge55" class="edge">
<title>Node35&#45;&gt;Node37</title>
<path fill="none" stroke="#191970" d="M874.5329,-135.3545C877.5629,-134.8673 880.5729,-134.41 883.5,-134 1046.935,-111.109 1092.3652,-123.0323 1259.3557,-98.0611"/>
<polygon fill="#191970" stroke="#191970" points="1260.1202,-101.4852 1269.4818,-96.5243 1259.0698,-94.5645 1260.1202,-101.4852"/>
</g>
<!-- Node38 -->
<g id="node39" class="node">
<title>Node38</title>
<polygon fill="none" stroke="#bfbfbf" points="1415.5,-73 1415.5,-92 1541.5,-92 1541.5,-73 1415.5,-73"/>
<text text-anchor="middle" x="1478.5" y="-80" font-family="Helvetica,sans-Serif" font-size="10.00" fill="#000000">deal.II/lac/block_vector.h</text>
</g>
<!-- Node35&#45;&gt;Node38 -->
<g id="edge56" class="edge">
<title>Node35&#45;&gt;Node38</title>
<path fill="none" stroke="#191970" d="M874.5209,-135.2646C877.5538,-134.7991 880.5677,-134.3712 883.5,-134 1114.6498,-104.7393 1175.7976,-130.6012 1406.5,-98 1413.8946,-96.9551 1421.6628,-95.5801 1429.2492,-94.0801"/>
<polygon fill="#191970" stroke="#191970" points="1429.9846,-97.5022 1439.0709,-92.0535 1428.5699,-90.6466 1429.9846,-97.5022"/>
</g>
<!-- Node39 -->
<g id="node40" class="node">
<title>Node39</title>
<polygon fill="none" stroke="#bfbfbf" points="1559.5,-73 1559.5,-92 1675.5,-92 1675.5,-73 1559.5,-73"/>
<text text-anchor="middle" x="1617.5" y="-80" font-family="Helvetica,sans-Serif" font-size="10.00" fill="#000000">deal.II/lac/full_matrix.h</text>
</g>
<!-- Node35&#45;&gt;Node39 -->
<g id="edge57" class="edge">
<title>Node35&#45;&gt;Node39</title>
<path fill="none" stroke="#191970" d="M874.5148,-135.2143C877.5491,-134.7609 880.5651,-134.3495 883.5,-134 1178.2934,-98.8978 1256.555,-139.6128 1550.5,-98 1557.3305,-97.033 1564.4908,-95.7129 1571.4842,-94.2484"/>
<polygon fill="#191970" stroke="#191970" points="1572.5436,-97.5988 1581.5528,-92.0236 1571.0332,-90.7637 1572.5436,-97.5988"/>
</g>
<!-- Node40 -->
<g id="node41" class="node">
<title>Node40</title>
<polygon fill="none" stroke="#bfbfbf" points="450,-67.5 450,-97.5 541,-97.5 541,-67.5 450,-67.5"/>
<text text-anchor="start" x="458" y="-85.5" font-family="Helvetica,sans-Serif" font-size="10.00" fill="#000000">deal.II/lac/lapack</text>
<text text-anchor="middle" x="495.5" y="-74.5" font-family="Helvetica,sans-Serif" font-size="10.00" fill="#000000">_full_matrix.h</text>
</g>
<!-- Node35&#45;&gt;Node40 -->
<g id="edge58" class="edge">
<title>Node35&#45;&gt;Node40</title>
<path fill="none" stroke="#191970" d="M784.4339,-135.5668C781.412,-135.0284 778.4128,-134.5016 775.5,-134 678.397,-117.2778 650.514,-119.8834 550.9308,-98.1783"/>
<polygon fill="#191970" stroke="#191970" points="551.5845,-94.7385 541.0651,-96.0005 550.0755,-101.5739 551.5845,-94.7385"/>
</g>
<!-- Node41 -->
<g id="node42" class="node">
<title>Node41</title>
<polygon fill="none" stroke="#bfbfbf" points="559,-67.5 559,-97.5 650,-97.5 650,-67.5 559,-67.5"/>
<text text-anchor="start" x="567" y="-85.5" font-family="Helvetica,sans-Serif" font-size="10.00" fill="#000000">deal.II/lac/lapack</text>
<text text-anchor="middle" x="604.5" y="-74.5" font-family="Helvetica,sans-Serif" font-size="10.00" fill="#000000">_templates.h</text>
</g>
<!-- Node35&#45;&gt;Node41 -->
<g id="edge60" class="edge">
<title>Node35&#45;&gt;Node41</title>
<path fill="none" stroke="#191970" d="M793.652,-134.4164C761.244,-125.7264 711.9698,-112.4502 659.8666,-98.0866"/>
<polygon fill="#191970" stroke="#191970" points="660.6791,-94.68 650.1083,-95.3928 658.8164,-101.4276 660.6791,-94.68"/>
</g>
<!-- Node42 -->
<g id="node43" class="node">
<title>Node42</title>
<polygon fill="none" stroke="#bfbfbf" points="668.5,-67.5 668.5,-97.5 760.5,-97.5 760.5,-67.5 668.5,-67.5"/>
<text text-anchor="start" x="676.5" y="-85.5" font-family="Helvetica,sans-Serif" font-size="10.00" fill="#000000">deal.II/lac/sparse</text>
<text text-anchor="middle" x="714.5" y="-74.5" font-family="Helvetica,sans-Serif" font-size="10.00" fill="#000000">_matrix.h</text>
</g>
<!-- Node35&#45;&gt;Node42 -->
<g id="edge61" class="edge">
<title>Node35&#45;&gt;Node42</title>
<path fill="none" stroke="#191970" d="M811.5313,-134.3906C795.5351,-125.8361 771.6277,-113.0509 751.547,-102.3121"/>
<polygon fill="#191970" stroke="#191970" points="753.101,-99.1741 742.6322,-97.5446 749.7998,-105.3469 753.101,-99.1741"/>
</g>
<!-- Node43 -->
<g id="node44" class="node">
<title>Node43</title>
<polygon fill="none" stroke="#bfbfbf" points="779,-73 779,-92 880,-92 880,-73 779,-73"/>
<text text-anchor="middle" x="829.5" y="-80" font-family="Helvetica,sans-Serif" font-size="10.00" fill="#000000">deal.II/lac/utilities.h</text>
</g>
<!-- Node35&#45;&gt;Node43 -->
<g id="edge62" class="edge">
<title>Node35&#45;&gt;Node43</title>
<path fill="none" stroke="#191970" d="M829.5,-134.3906C829.5,-125.8657 829.5,-113.1392 829.5,-102.4235"/>
<polygon fill="#191970" stroke="#191970" points="833.0001,-102.2448 829.5,-92.2449 826.0001,-102.2449 833.0001,-102.2448"/>
</g>
<!-- Node44 -->
<g id="node45" class="node">
<title>Node44</title>
<polygon fill="none" stroke="#bfbfbf" points="1019.5,-73 1019.5,-92 1117.5,-92 1117.5,-73 1019.5,-73"/>
<text text-anchor="middle" x="1068.5" y="-80" font-family="Helvetica,sans-Serif" font-size="10.00" fill="#000000">deal.II/lac/vector.h</text>
</g>
<!-- Node35&#45;&gt;Node44 -->
<g id="edge63" class="edge">
<title>Node35&#45;&gt;Node44</title>
<path fill="none" stroke="#191970" d="M867.0967,-134.47C903.5249,-125.2178 960.3237,-110.7431 1009.5,-98 1013.6521,-96.9241 1017.9671,-95.8006 1022.2895,-94.6717"/>
<polygon fill="#191970" stroke="#191970" points="1023.528,-97.9655 1032.3156,-92.047 1021.7552,-91.1937 1023.528,-97.9655"/>
</g>
<!-- Node45 -->
<g id="node46" class="node">
<title>Node45</title>
<g id="a_node46"><a xlink:href="lapack__templates__ext_8h.html" target="_top" xlink:title="Append more template based LAPACK functions to those existing in deal.ii. ">
<polygon fill="none" stroke="#000000" points="273.5,-73 273.5,-92 393.5,-92 393.5,-73 273.5,-73"/>
<text text-anchor="middle" x="333.5" y="-80" font-family="Helvetica,sans-Serif" font-size="10.00" fill="#000000">lapack_templates_ext.h</text>
</a>
</g>
</g>
<!-- Node35&#45;&gt;Node45 -->
<g id="edge64" class="edge">
<title>Node35&#45;&gt;Node45</title>
<path fill="none" stroke="#191970" d="M784.466,-135.3623C781.4363,-134.8732 778.4266,-134.4134 775.5,-134 612.7788,-111.017 569.9417,-122.8822 407.5,-98 400.2747,-96.8933 392.6913,-95.5346 385.2473,-94.0859"/>
<polygon fill="#191970" stroke="#191970" points="385.7237,-90.6117 375.2298,-92.0699 384.3427,-97.4741 385.7237,-90.6117"/>
</g>
<!-- Node45&#45;&gt;Node34 -->
<g id="edge65" class="edge">
<title>Node45&#45;&gt;Node34</title>
<path fill="none" stroke="#191970" d="M333.5,-72.9005C333.5,-64.5099 333.5,-51.9451 333.5,-40.7085"/>
<polygon fill="#191970" stroke="#191970" points="337.0001,-40.5217 333.5,-30.5218 330.0001,-40.5218 337.0001,-40.5217"/>
</g>
</g>
</svg>
        <g id="navigator" transform="translate(0 0)" fill="#404254">
                <rect fill="#f2f5e9" fill-opacity="0.5" stroke="#606060" stroke-width=".5" x="0" y="0" width="60" height="60"/>
                <use id="zoomplus" xlink:href="#zoomPlus" x="17" y="9" onmousedown="handleZoom(evt,'in')"/>
                <use id="zoomminus" xlink:href="#zoomMin" x="42" y="9" onmousedown="handleZoom(evt,'out')"/>
                <use id="reset" xlink:href="#resetDef" x="30" y="36" onmousedown="handleReset()"/>
                <g id="arrowUp" xlink:href="#dirArrow" transform="translate(30 24)" onmousedown="handlePan(0,-1)">
                  <use xlink:href="#rim" fill="#404040">
                        <set attributeName="fill" to="#808080" begin="arrowUp.mouseover" end="arrowUp.mouseout"/>
                  </use>
                  <path fill="none" stroke="white" stroke-width="1.5" d="M0,-3.0v7 M-2.5,-0.5L0,-3.0L2.5,-0.5"/>
                </g>
                <g id="arrowRight" xlink:href="#dirArrow" transform="rotate(90) translate(36 -43)" onmousedown="handlePan(1,0)">
                  <use xlink:href="#rim" fill="#404040">
                        <set attributeName="fill" to="#808080" begin="arrowRight.mouseover" end="arrowRight.mouseout"/>
                  </use>
                  <path fill="none" stroke="white" stroke-width="1.5" d="M0,-3.0v7 M-2.5,-0.5L0,-3.0L2.5,-0.5"/>
                </g>
                <g id="arrowDown" xlink:href="#dirArrow" transform="rotate(180) translate(-30 -48)" onmousedown="handlePan(0,1)">
                  <use xlink:href="#rim" fill="#404040">
                        <set attributeName="fill" to="#808080" begin="arrowDown.mouseover" end="arrowDown.mouseout"/>
                  </use>
                  <path fill="none" stroke="white" stroke-width="1.5" d="M0,-3.0v7 M-2.5,-0.5L0,-3.0L2.5,-0.5"/>
                </g>
                <g id="arrowLeft" xlink:href="#dirArrow" transform="rotate(270) translate(-36 17)" onmousedown="handlePan(-1,0)">
                  <use xlink:href="#rim" fill="#404040">
                        <set attributeName="fill" to="#808080" begin="arrowLeft.mouseover" end="arrowLeft.mouseout"/>
                  </use>
                  <path fill="none" stroke="white" stroke-width="1.5" d="M0,-3.0v7 M-2.5,-0.5L0,-3.0L2.5,-0.5"/>
                </g>
        </g>
        <svg viewBox="0 0 15 15" width="100%" height="30px" preserveAspectRatio="xMaxYMin meet">
         <g id="arrow_out" transform="scale(0.3 0.3)">
          <a xlink:href="bct-copy-constructor_8cc__incl_org.svg" target="_base">
           <rect id="button" ry="5" rx="5" y="6" x="6" height="38" width="38"
                fill="#f2f5e9" fill-opacity="0.5" stroke="#606060" stroke-width="1.0"/>
           <path id="arrow"
             d="M 11.500037,31.436501 C 11.940474,20.09759 22.043105,11.32322 32.158766,21.979434 L 37.068811,17.246167 C 37.068811,17.246167 37.088388,32 37.088388,32 L 22.160133,31.978069 C 22.160133,31.978069 26.997745,27.140456 26.997745,27.140456 C 18.528582,18.264221 13.291696,25.230495 11.500037,31.436501 z"
             style="fill:#404040;"/>
          </a>
         </g>
        </svg>
</svg>
