<?xml version="1.0" encoding="UTF-8" standalone="no"?>
<!DOCTYPE svg PUBLIC "-//W3C//DTD SVG 1.1//EN"
 "http://www.w3.org/Graphics/SVG/1.1/DTD/svg11.dtd">
<!-- Generated by graphviz version 2.40.1 (20161225.0304)
 -->
<!-- Title: /home/jihuan/Projects/deal.ii/program/dealii&#45;9.1.1/examples/laplace&#45;bem/tests/block&#45;cluster&#45;tree&#45;hp&#45;coarse&#45;non&#45;tensor&#45;product/bct&#45;hp&#45;coarse&#45;ntp.cc Pages: 1 -->
<svg width="2810pt" height="452pt"
 viewBox="0.00 0.00 2809.50 452.00" xmlns="http://www.w3.org/2000/svg" xmlns:xlink="http://www.w3.org/1999/xlink">
<g id="graph0" class="graph" transform="scale(1 1) rotate(0) translate(4 448)">
<title>/home/jihuan/Projects/deal.ii/program/dealii&#45;9.1.1/examples/laplace&#45;bem/tests/block&#45;cluster&#45;tree&#45;hp&#45;coarse&#45;non&#45;tensor&#45;product/bct&#45;hp&#45;coarse&#45;ntp.cc</title>
<!-- Node0 -->
<g id="node1" class="node">
<title>Node0</title>
<polygon fill="#bfbfbf" stroke="#000000" points="520.5,-369.5 520.5,-443.5 664.5,-443.5 664.5,-369.5 520.5,-369.5"/>
<text text-anchor="start" x="528.5" y="-431.5" font-family="Helvetica,sans-Serif" font-size="10.00" fill="#000000">/home/jihuan/Projects</text>
<text text-anchor="start" x="528.5" y="-420.5" font-family="Helvetica,sans-Serif" font-size="10.00" fill="#000000">/deal.ii/program/dealii</text>
<text text-anchor="start" x="528.5" y="-409.5" font-family="Helvetica,sans-Serif" font-size="10.00" fill="#000000">&#45;9.1.1/examples/laplace</text>
<text text-anchor="start" x="528.5" y="-398.5" font-family="Helvetica,sans-Serif" font-size="10.00" fill="#000000">&#45;bem/tests/block&#45;cluster</text>
<text text-anchor="start" x="528.5" y="-387.5" font-family="Helvetica,sans-Serif" font-size="10.00" fill="#000000">&#45;tree&#45;hp&#45;coarse&#45;non&#45;tensor</text>
<text text-anchor="middle" x="592.5" y="-376.5" font-family="Helvetica,sans-Serif" font-size="10.00" fill="#000000">&#45;product/bct&#45;hp&#45;coarse&#45;ntp.cc</text>
</g>
<!-- Node1 -->
<g id="node2" class="node">
<title>Node1</title>
<polygon fill="none" stroke="#bfbfbf" points="495.5,-313.5 495.5,-332.5 545.5,-332.5 545.5,-313.5 495.5,-313.5"/>
<text text-anchor="middle" x="520.5" y="-320.5" font-family="Helvetica,sans-Serif" font-size="10.00" fill="#000000">fstream</text>
</g>
<!-- Node0&#45;&gt;Node1 -->
<g id="edge1" class="edge">
<title>Node0&#45;&gt;Node1</title>
<path fill="none" stroke="#191970" d="M560.2906,-369.1461C551.6415,-359.1155 542.6972,-348.7426 535.4847,-340.3781"/>
<polygon fill="#191970" stroke="#191970" points="538.1055,-338.0579 528.9245,-332.7701 532.8042,-342.6291 538.1055,-338.0579"/>
</g>
<!-- Node2 -->
<g id="node3" class="node">
<title>Node2</title>
<polygon fill="none" stroke="#bfbfbf" points="579.5,-73 579.5,-92 633.5,-92 633.5,-73 579.5,-73"/>
<text text-anchor="middle" x="606.5" y="-80" font-family="Helvetica,sans-Serif" font-size="10.00" fill="#000000">iostream</text>
</g>
<!-- Node0&#45;&gt;Node2 -->
<g id="edge2" class="edge">
<title>Node0&#45;&gt;Node2</title>
<path fill="none" stroke="#191970" d="M584.6623,-369.385C579.4285,-341.3843 573.5,-301.9526 573.5,-267 573.5,-267 573.5,-267 573.5,-205.5 573.5,-167.5591 588.3285,-125.2146 598.1054,-101.4189"/>
<polygon fill="#191970" stroke="#191970" points="601.3554,-102.72 602.0495,-92.1479 594.914,-99.9796 601.3554,-102.72"/>
</g>
<!-- Node3 -->
<g id="node4" class="node">
<title>Node3</title>
<g id="a_node4"><a xlink:href="block__cluster__tree_8h.html" target="_top" xlink:title="Implementation of the class BlockClusterTree. ">
<polygon fill="none" stroke="#000000" points="718.5,-313.5 718.5,-332.5 822.5,-332.5 822.5,-313.5 718.5,-313.5"/>
<text text-anchor="middle" x="770.5" y="-320.5" font-family="Helvetica,sans-Serif" font-size="10.00" fill="#000000">block_cluster_tree.h</text>
</a>
</g>
</g>
<!-- Node0&#45;&gt;Node3 -->
<g id="edge3" class="edge">
<title>Node0&#45;&gt;Node3</title>
<path fill="none" stroke="#191970" d="M664.6428,-372.6577C691.2649,-360.1693 719.9756,-346.701 740.7711,-336.9459"/>
<polygon fill="#191970" stroke="#191970" points="742.4491,-340.0248 750.016,-332.6091 739.4762,-333.6874 742.4491,-340.0248"/>
</g>
<!-- Node16 -->
<g id="node17" class="node">
<title>Node16</title>
<g id="a_node17"><a xlink:href="cluster__tree_8h_source.html" target="_top" xlink:title="cluster_tree.h">
<polygon fill="none" stroke="#000000" points="622.5,-196 622.5,-215 698.5,-215 698.5,-196 622.5,-196"/>
<text text-anchor="middle" x="660.5" y="-203" font-family="Helvetica,sans-Serif" font-size="10.00" fill="#000000">cluster_tree.h</text>
</a>
</g>
</g>
<!-- Node0&#45;&gt;Node16 -->
<g id="edge67" class="edge">
<title>Node0&#45;&gt;Node16</title>
<path fill="none" stroke="#191970" d="M599.3967,-369.4013C605.7714,-338.6212 616.5265,-294.0561 631.5,-257 636.1131,-245.5835 642.7735,-233.5541 648.5482,-223.9948"/>
<polygon fill="#191970" stroke="#191970" points="651.6023,-225.7116 653.9191,-215.3732 645.6609,-222.0103 651.6023,-225.7116"/>
</g>
<!-- Node4 -->
<g id="node5" class="node">
<title>Node4</title>
<g id="a_node5"><a xlink:href="block__cluster_8h.html" target="_top" xlink:title="Implementation of the class BlockCluster. ">
<polygon fill="none" stroke="#000000" points="640,-257.5 640,-276.5 723,-276.5 723,-257.5 640,-257.5"/>
<text text-anchor="middle" x="681.5" y="-264.5" font-family="Helvetica,sans-Serif" font-size="10.00" fill="#000000">block_cluster.h</text>
</a>
</g>
</g>
<!-- Node3&#45;&gt;Node4 -->
<g id="edge4" class="edge">
<title>Node3&#45;&gt;Node4</title>
<path fill="none" stroke="#191970" d="M754.9974,-313.2455C741.342,-304.6534 721.2343,-292.0014 705.5011,-282.1018"/>
<polygon fill="#191970" stroke="#191970" points="707.1529,-279.006 696.825,-276.6427 703.4249,-284.9307 707.1529,-279.006"/>
</g>
<!-- Node3&#45;&gt;Node16 -->
<g id="edge36" class="edge">
<title>Node3&#45;&gt;Node16</title>
<path fill="none" stroke="#191970" d="M766.4675,-313.2098C760.5009,-299.5363 748.3022,-274.4408 732.5,-257 719.3401,-242.4755 701.4235,-229.6414 686.7554,-220.4181"/>
<polygon fill="#191970" stroke="#191970" points="688.4758,-217.368 678.1138,-215.1591 684.8367,-223.3477 688.4758,-217.368"/>
</g>
<!-- Node17 -->
<g id="node18" class="node">
<title>Node17</title>
<g id="a_node18"><a xlink:href="debug__tools_8h.html" target="_top" xlink:title="This file includes a bunch of helper functions for printing out and visualizing information about gri...">
<polygon fill="none" stroke="#000000" points="783,-134.5 783,-153.5 860,-153.5 860,-134.5 783,-134.5"/>
<text text-anchor="middle" x="821.5" y="-141.5" font-family="Helvetica,sans-Serif" font-size="10.00" fill="#000000">debug_tools.h</text>
</a>
</g>
</g>
<!-- Node3&#45;&gt;Node17 -->
<g id="edge37" class="edge">
<title>Node3&#45;&gt;Node17</title>
<path fill="none" stroke="#191970" d="M779.681,-313.2664C787.3818,-304.4964 797.9807,-290.8825 803.5,-277 818.5724,-239.089 821.4475,-190.8213 821.7592,-164.0977"/>
<polygon fill="#191970" stroke="#191970" points="825.2592,-163.7531 821.7605,-153.7526 818.2592,-163.7522 825.2592,-163.7531"/>
</g>
<!-- Node21 -->
<g id="node22" class="node">
<title>Node21</title>
<g id="a_node22"><a xlink:href="tree_8h.html" target="_top" xlink:title="Implementation of the classes for binary tree node, general tree node and functions for manipulating ...">
<polygon fill="none" stroke="#000000" points="504,-134.5 504,-153.5 545,-153.5 545,-134.5 504,-134.5"/>
<text text-anchor="middle" x="524.5" y="-141.5" font-family="Helvetica,sans-Serif" font-size="10.00" fill="#000000">tree.h</text>
</a>
</g>
</g>
<!-- Node3&#45;&gt;Node21 -->
<g id="edge66" class="edge">
<title>Node3&#45;&gt;Node21</title>
<path fill="none" stroke="#191970" d="M769.1563,-313.2256C765.1123,-287.9456 750.5552,-220.2726 707.5,-190 683.0735,-172.8255 600.6366,-156.7847 555.1953,-148.9721"/>
<polygon fill="#191970" stroke="#191970" points="555.7381,-145.5143 545.2948,-147.2995 554.572,-152.4165 555.7381,-145.5143"/>
</g>
<!-- Node27 -->
<g id="node28" class="node">
<title>Node27</title>
<g id="a_node28"><a xlink:href="lapack__full__matrix__ext_8h_source.html" target="_top" xlink:title="lapack_full_matrix\l_ext.h">
<polygon fill="none" stroke="#000000" points="1158,-190.5 1158,-220.5 1253,-220.5 1253,-190.5 1158,-190.5"/>
<text text-anchor="start" x="1166" y="-208.5" font-family="Helvetica,sans-Serif" font-size="10.00" fill="#000000">lapack_full_matrix</text>
<text text-anchor="middle" x="1205.5" y="-197.5" font-family="Helvetica,sans-Serif" font-size="10.00" fill="#000000">_ext.h</text>
</a>
</g>
</g>
<!-- Node3&#45;&gt;Node27 -->
<g id="edge38" class="edge">
<title>Node3&#45;&gt;Node27</title>
<path fill="none" stroke="#191970" d="M805.7294,-313.484C880.6894,-293.2362 1056.5896,-245.7229 1148.0254,-221.0247"/>
<polygon fill="#191970" stroke="#191970" points="1149.2014,-224.3326 1157.9427,-218.3459 1147.3759,-217.5748 1149.2014,-224.3326"/>
</g>
<!-- Node5 -->
<g id="node6" class="node">
<title>Node5</title>
<g id="a_node6"><a xlink:href="cluster_8h.html" target="_top" xlink:title="Implementation of the class Cluster. ">
<polygon fill="none" stroke="#000000" points="241.5,-134.5 241.5,-153.5 295.5,-153.5 295.5,-134.5 241.5,-134.5"/>
<text text-anchor="middle" x="268.5" y="-141.5" font-family="Helvetica,sans-Serif" font-size="10.00" fill="#000000">cluster.h</text>
</a>
</g>
</g>
<!-- Node4&#45;&gt;Node5 -->
<g id="edge5" class="edge">
<title>Node4&#45;&gt;Node5</title>
<path fill="none" stroke="#191970" d="M649.4362,-257.4507C573.919,-234.9601 385.2267,-178.7636 305.251,-154.9452"/>
<polygon fill="#191970" stroke="#191970" points="306.1864,-151.5719 295.6034,-152.072 304.1883,-158.2807 306.1864,-151.5719"/>
</g>
<!-- Node4&#45;&gt;Node16 -->
<g id="edge17" class="edge">
<title>Node4&#45;&gt;Node16</title>
<path fill="none" stroke="#191970" d="M678.2188,-257.3906C675.2465,-248.6862 670.7786,-235.6015 667.073,-224.7494"/>
<polygon fill="#191970" stroke="#191970" points="670.3712,-223.5773 663.8275,-215.2449 663.7468,-225.8394 670.3712,-223.5773"/>
</g>
<!-- Node6 -->
<g id="node7" class="node">
<title>Node6</title>
<polygon fill="none" stroke="#bfbfbf" points="934,-73 934,-92 1037,-92 1037,-73 934,-73"/>
<text text-anchor="middle" x="985.5" y="-80" font-family="Helvetica,sans-Serif" font-size="10.00" fill="#000000">deal.II/base/types.h</text>
</g>
<!-- Node5&#45;&gt;Node6 -->
<g id="edge6" class="edge">
<title>Node5&#45;&gt;Node6</title>
<path fill="none" stroke="#191970" d="M295.6816,-142.7644C382.1956,-138.6632 658.845,-124.2504 886.5,-98 898.5842,-96.6066 911.4527,-94.818 923.7756,-92.9541"/>
<polygon fill="#191970" stroke="#191970" points="924.6218,-96.365 933.9694,-91.3778 923.5519,-89.4472 924.6218,-96.365"/>
</g>
<!-- Node7 -->
<g id="node8" class="node">
<title>Node7</title>
<polygon fill="none" stroke="#bfbfbf" points="240.5,-73 240.5,-92 296.5,-92 296.5,-73 240.5,-73"/>
<text text-anchor="middle" x="268.5" y="-80" font-family="Helvetica,sans-Serif" font-size="10.00" fill="#000000">algorithm</text>
</g>
<!-- Node5&#45;&gt;Node7 -->
<g id="edge7" class="edge">
<title>Node5&#45;&gt;Node7</title>
<path fill="none" stroke="#191970" d="M268.5,-134.3906C268.5,-125.8657 268.5,-113.1392 268.5,-102.4235"/>
<polygon fill="#191970" stroke="#191970" points="272.0001,-102.2448 268.5,-92.2449 265.0001,-102.2449 272.0001,-102.2448"/>
</g>
<!-- Node8 -->
<g id="node9" class="node">
<title>Node8</title>
<polygon fill="none" stroke="#bfbfbf" points="0,-73 0,-92 47,-92 47,-73 0,-73"/>
<text text-anchor="middle" x="23.5" y="-80" font-family="Helvetica,sans-Serif" font-size="10.00" fill="#000000">iterator</text>
</g>
<!-- Node5&#45;&gt;Node8 -->
<g id="edge8" class="edge">
<title>Node5&#45;&gt;Node8</title>
<path fill="none" stroke="#191970" d="M241.3759,-140.2644C200.3504,-134.1438 120.4175,-120.3725 55.5,-98 53.8951,-97.4469 52.2657,-96.8338 50.6356,-96.1799"/>
<polygon fill="#191970" stroke="#191970" points="52.0192,-92.9648 41.4578,-92.1235 49.1894,-99.3673 52.0192,-92.9648"/>
</g>
<!-- Node9 -->
<g id="node10" class="node">
<title>Node9</title>
<polygon fill="none" stroke="#bfbfbf" points="677.5,-6 677.5,-25 721.5,-25 721.5,-6 677.5,-6"/>
<text text-anchor="middle" x="699.5" y="-13" font-family="Helvetica,sans-Serif" font-size="10.00" fill="#000000">vector</text>
</g>
<!-- Node5&#45;&gt;Node9 -->
<g id="edge9" class="edge">
<title>Node5&#45;&gt;Node9</title>
<path fill="none" stroke="#191970" d="M257.5261,-134.4325C240.8224,-118.7544 212.8309,-87.3093 231.5,-67 263.7221,-31.947 612.0638,-41.5194 658.5,-31 661.6913,-30.2771 664.9673,-29.3597 668.2095,-28.3335"/>
<polygon fill="#191970" stroke="#191970" points="669.4285,-31.6152 677.7161,-25.0147 667.1213,-25.0063 669.4285,-31.6152"/>
</g>
<!-- Node10 -->
<g id="node11" class="node">
<title>Node10</title>
<g id="a_node11"><a xlink:href="simple__bounding__box_8h_source.html" target="_top" xlink:title="simple_bounding_box.h">
<polygon fill="none" stroke="#000000" points="65,-73 65,-92 184,-92 184,-73 65,-73"/>
<text text-anchor="middle" x="124.5" y="-80" font-family="Helvetica,sans-Serif" font-size="10.00" fill="#000000">simple_bounding_box.h</text>
</a>
</g>
</g>
<!-- Node5&#45;&gt;Node10 -->
<g id="edge10" class="edge">
<title>Node5&#45;&gt;Node10</title>
<path fill="none" stroke="#191970" d="M246,-134.3906C221.9062,-124.1005 183.4787,-107.6888 156.2992,-96.0809"/>
<polygon fill="#191970" stroke="#191970" points="157.4131,-92.7508 146.842,-92.0419 154.6637,-99.1883 157.4131,-92.7508"/>
</g>
<!-- Node10&#45;&gt;Node9 -->
<g id="edge16" class="edge">
<title>Node10&#45;&gt;Node9</title>
<path fill="none" stroke="#191970" d="M165.4327,-72.9481C176.1454,-70.7174 187.7155,-68.5449 198.5,-67 401.4972,-37.9194 458.3629,-75.7065 658.5,-31 661.6935,-30.2866 664.9709,-29.3756 668.214,-28.3535"/>
<polygon fill="#191970" stroke="#191970" points="669.4306,-31.636 677.7218,-25.0401 667.127,-25.0259 669.4306,-31.636"/>
</g>
<!-- Node11 -->
<g id="node12" class="node">
<title>Node11</title>
<polygon fill="none" stroke="#bfbfbf" points="79.5,-6 79.5,-25 179.5,-25 179.5,-6 79.5,-6"/>
<text text-anchor="middle" x="129.5" y="-13" font-family="Helvetica,sans-Serif" font-size="10.00" fill="#000000">deal.II/base/point.h</text>
</g>
<!-- Node10&#45;&gt;Node11 -->
<g id="edge11" class="edge">
<title>Node10&#45;&gt;Node11</title>
<path fill="none" stroke="#191970" d="M125.2164,-72.9005C125.9441,-63.149 127.0926,-47.7597 128.0172,-35.3695"/>
<polygon fill="#191970" stroke="#191970" points="131.531,-35.3144 128.785,-25.0817 124.5504,-34.7934 131.531,-35.3144"/>
</g>
<!-- Node12 -->
<g id="node13" class="node">
<title>Node12</title>
<polygon fill="none" stroke="#bfbfbf" points="204,-6 204,-25 331,-25 331,-6 204,-6"/>
<text text-anchor="middle" x="267.5" y="-13" font-family="Helvetica,sans-Serif" font-size="10.00" fill="#000000">deal.II/dofs/dof_handler.h</text>
</g>
<!-- Node10&#45;&gt;Node12 -->
<g id="edge12" class="edge">
<title>Node10&#45;&gt;Node12</title>
<path fill="none" stroke="#191970" d="M144.9884,-72.9005C169.3056,-61.5072 210.0486,-42.4178 237.8169,-29.4075"/>
<polygon fill="#191970" stroke="#191970" points="239.4792,-32.4938 247.0496,-25.0817 236.5093,-26.1551 239.4792,-32.4938"/>
</g>
<!-- Node13 -->
<g id="node14" class="node">
<title>Node13</title>
<polygon fill="none" stroke="#bfbfbf" points="390.5,-6 390.5,-25 506.5,-25 506.5,-6 390.5,-6"/>
<text text-anchor="middle" x="448.5" y="-13" font-family="Helvetica,sans-Serif" font-size="10.00" fill="#000000">deal.II/dofs/dof_tools.h</text>
</g>
<!-- Node10&#45;&gt;Node13 -->
<g id="edge13" class="edge">
<title>Node10&#45;&gt;Node13</title>
<path fill="none" stroke="#191970" d="M169.8914,-72.9675C179.345,-70.9892 189.2468,-68.9222 198.5,-67 264.867,-53.2137 341.1782,-37.5159 391.8562,-27.1129"/>
<polygon fill="#191970" stroke="#191970" points="392.8615,-30.4796 401.9537,-25.0405 391.4542,-23.6225 392.8615,-30.4796"/>
</g>
<!-- Node14 -->
<g id="node15" class="node">
<title>Node14</title>
<polygon fill="none" stroke="#bfbfbf" points="546,-6 546,-25 649,-25 649,-6 546,-6"/>
<text text-anchor="middle" x="597.5" y="-13" font-family="Helvetica,sans-Serif" font-size="10.00" fill="#000000">deal.II/fe/mapping.h</text>
</g>
<!-- Node10&#45;&gt;Node14 -->
<g id="edge14" class="edge">
<title>Node10&#45;&gt;Node14</title>
<path fill="none" stroke="#191970" d="M166.6367,-72.9639C177.0187,-70.8108 188.1329,-68.6707 198.5,-67 338.4884,-44.4407 375.2966,-52.1825 515.5,-31 523.5459,-29.7844 532.0082,-28.3561 540.317,-26.867"/>
<polygon fill="#191970" stroke="#191970" points="541.1322,-30.276 550.3374,-25.0307 539.8703,-23.3907 541.1322,-30.276"/>
</g>
<!-- Node15 -->
<g id="node16" class="node">
<title>Node15</title>
<polygon fill="none" stroke="#bfbfbf" points="21.5,-6 21.5,-25 61.5,-25 61.5,-6 21.5,-6"/>
<text text-anchor="middle" x="41.5" y="-13" font-family="Helvetica,sans-Serif" font-size="10.00" fill="#000000">utility</text>
</g>
<!-- Node10&#45;&gt;Node15 -->
<g id="edge15" class="edge">
<title>Node10&#45;&gt;Node15</title>
<path fill="none" stroke="#191970" d="M112.6081,-72.9005C99.2952,-62.1539 77.5001,-44.5603 61.5432,-31.6794"/>
<polygon fill="#191970" stroke="#191970" points="63.3494,-28.6395 53.3698,-25.0817 58.9526,-34.0863 63.3494,-28.6395"/>
</g>
<!-- Node16&#45;&gt;Node5 -->
<g id="edge18" class="edge">
<title>Node16&#45;&gt;Node5</title>
<path fill="none" stroke="#191970" d="M622.1997,-199.4911C546.9152,-187.6799 380.5066,-161.5725 305.9303,-149.8724"/>
<polygon fill="#191970" stroke="#191970" points="306.037,-146.3464 295.6153,-148.2541 304.952,-153.2618 306.037,-146.3464"/>
</g>
<!-- Node16&#45;&gt;Node17 -->
<g id="edge19" class="edge">
<title>Node16&#45;&gt;Node17</title>
<path fill="none" stroke="#191970" d="M685.6563,-195.8906C712.949,-185.4652 756.692,-168.7559 787.1397,-157.1252"/>
<polygon fill="#191970" stroke="#191970" points="788.4277,-160.3799 796.5204,-153.5419 785.9298,-153.8408 788.4277,-160.3799"/>
</g>
<!-- Node16&#45;&gt;Node21 -->
<g id="edge27" class="edge">
<title>Node16&#45;&gt;Node21</title>
<path fill="none" stroke="#191970" d="M639.25,-195.8906C616.462,-185.5858 580.0978,-169.1416 554.422,-157.5309"/>
<polygon fill="#191970" stroke="#191970" points="555.7093,-154.2718 545.1555,-153.3405 552.825,-160.65 555.7093,-154.2718"/>
</g>
<!-- Node17&#45;&gt;Node2 -->
<g id="edge25" class="edge">
<title>Node17&#45;&gt;Node2</title>
<path fill="none" stroke="#191970" d="M782.8133,-134.9846C747.3329,-126.4306 693.4749,-112.7244 647.5,-98 645.0903,-97.2283 642.615,-96.3955 640.1316,-95.5306"/>
<polygon fill="#191970" stroke="#191970" points="641.2303,-92.2062 630.636,-92.0966 638.8496,-98.7889 641.2303,-92.2062"/>
</g>
<!-- Node17&#45;&gt;Node12 -->
<g id="edge20" class="edge">
<title>Node17&#45;&gt;Node12</title>
<path fill="none" stroke="#191970" d="M782.9698,-136.8188C752.3485,-129.9762 709.2126,-117.7388 675.5,-98 658.1345,-87.8325 660.6605,-75.6679 642.5,-67 641.6519,-66.5952 450.3158,-40.4424 341.317,-25.5673"/>
<polygon fill="#191970" stroke="#191970" points="341.7391,-22.0925 331.3577,-24.2082 340.7926,-29.0282 341.7391,-22.0925"/>
</g>
<!-- Node17&#45;&gt;Node13 -->
<g id="edge21" class="edge">
<title>Node17&#45;&gt;Node13</title>
<path fill="none" stroke="#191970" d="M806.352,-134.2848C780.497,-118.1054 725.7607,-85.5868 675.5,-67 645.1523,-55.7772 563.9495,-38.4436 507.3887,-27.0354"/>
<polygon fill="#191970" stroke="#191970" points="507.9769,-23.5837 497.4836,-25.0472 506.5992,-30.4468 507.9769,-23.5837"/>
</g>
<!-- Node17&#45;&gt;Node14 -->
<g id="edge24" class="edge">
<title>Node17&#45;&gt;Node14</title>
<path fill="none" stroke="#191970" d="M844.6112,-134.4901C859.5298,-126.9878 877.7331,-114.9445 886.5,-98 892.8313,-85.7631 895.4134,-77.5061 886.5,-67 854.7348,-29.5589 716.7234,-40.2393 668.5,-31 662.3198,-29.8159 655.8528,-28.5049 649.4454,-27.1613"/>
<polygon fill="#191970" stroke="#191970" points="649.9851,-23.6978 639.4753,-25.0368 648.5262,-30.5441 649.9851,-23.6978"/>
</g>
<!-- Node18 -->
<g id="node19" class="node">
<title>Node18</title>
<polygon fill="none" stroke="#bfbfbf" points="1055.5,-73 1055.5,-92 1129.5,-92 1129.5,-73 1055.5,-73"/>
<text text-anchor="middle" x="1092.5" y="-80" font-family="Helvetica,sans-Serif" font-size="10.00" fill="#000000">deal.II/fe/fe.h</text>
</g>
<!-- Node17&#45;&gt;Node18 -->
<g id="edge22" class="edge">
<title>Node17&#45;&gt;Node18</title>
<path fill="none" stroke="#191970" d="M860.056,-137.6111C905.1377,-129.7976 981.8267,-115.4358 1046.5,-98 1049.6733,-97.1445 1052.9474,-96.1899 1056.2178,-95.1863"/>
<polygon fill="#191970" stroke="#191970" points="1057.4595,-98.4637 1065.914,-92.0784 1055.3229,-91.7978 1057.4595,-98.4637"/>
</g>
<!-- Node19 -->
<g id="node20" class="node">
<title>Node19</title>
<polygon fill="none" stroke="#bfbfbf" points="765.5,-73 765.5,-92 877.5,-92 877.5,-73 765.5,-73"/>
<text text-anchor="middle" x="821.5" y="-80" font-family="Helvetica,sans-Serif" font-size="10.00" fill="#000000">deal.II/fe/fe_system.h</text>
</g>
<!-- Node17&#45;&gt;Node19 -->
<g id="edge23" class="edge">
<title>Node17&#45;&gt;Node19</title>
<path fill="none" stroke="#191970" d="M821.5,-134.3906C821.5,-125.8657 821.5,-113.1392 821.5,-102.4235"/>
<polygon fill="#191970" stroke="#191970" points="825.0001,-102.2448 821.5,-92.2449 818.0001,-102.2449 825.0001,-102.2448"/>
</g>
<!-- Node20 -->
<g id="node21" class="node">
<title>Node20</title>
<polygon fill="none" stroke="#bfbfbf" points="1148,-73 1148,-92 1189,-92 1189,-73 1148,-73"/>
<text text-anchor="middle" x="1168.5" y="-80" font-family="Helvetica,sans-Serif" font-size="10.00" fill="#000000">string</text>
</g>
<!-- Node17&#45;&gt;Node20 -->
<g id="edge26" class="edge">
<title>Node17&#45;&gt;Node20</title>
<path fill="none" stroke="#191970" d="M860.4905,-142.4969C921.2481,-139.2391 1041.598,-129.0936 1138.5,-98 1139.9653,-97.5298 1141.4455,-96.9931 1142.9222,-96.4084"/>
<polygon fill="#191970" stroke="#191970" points="1144.7905,-99.4021 1152.4203,-92.0511 1141.8717,-93.0397 1144.7905,-99.4021"/>
</g>
<!-- Node21&#45;&gt;Node2 -->
<g id="edge33" class="edge">
<title>Node21&#45;&gt;Node2</title>
<path fill="none" stroke="#191970" d="M537.3125,-134.3906C550.1901,-124.7324 570.2584,-109.6812 585.472,-98.271"/>
<polygon fill="#191970" stroke="#191970" points="587.8775,-100.8419 593.7775,-92.0419 583.6774,-95.2419 587.8775,-100.8419"/>
</g>
<!-- Node21&#45;&gt;Node7 -->
<g id="edge29" class="edge">
<title>Node21&#45;&gt;Node7</title>
<path fill="none" stroke="#191970" d="M503.9413,-141.0175C464.7537,-135.0405 376.9055,-120.2349 305.5,-98 303.3389,-97.3271 301.1302,-96.5752 298.9208,-95.7752"/>
<polygon fill="#191970" stroke="#191970" points="299.9638,-92.4254 289.3754,-92.0562 297.4225,-98.9478 299.9638,-92.4254"/>
</g>
<!-- Node21&#45;&gt;Node9 -->
<g id="edge35" class="edge">
<title>Node21&#45;&gt;Node9</title>
<path fill="none" stroke="#191970" d="M545.1328,-139.8658C570.2638,-134.0087 613.0047,-121.3176 642.5,-98 664.3937,-80.6919 681.2195,-52.7086 690.739,-34.2076"/>
<polygon fill="#191970" stroke="#191970" points="693.9795,-35.5498 695.2617,-25.0328 687.7009,-32.4547 693.9795,-35.5498"/>
</g>
<!-- Node22 -->
<g id="node23" class="node">
<title>Node22</title>
<polygon fill="none" stroke="#bfbfbf" points="1207.5,-73 1207.5,-92 1333.5,-92 1333.5,-73 1207.5,-73"/>
<text text-anchor="middle" x="1270.5" y="-80" font-family="Helvetica,sans-Serif" font-size="10.00" fill="#000000">deal.II/base/exceptions.h</text>
</g>
<!-- Node21&#45;&gt;Node22 -->
<g id="edge28" class="edge">
<title>Node21&#45;&gt;Node22</title>
<path fill="none" stroke="#191970" d="M545.0175,-142.9993C643.3941,-138.1399 1067.4103,-116.4858 1198.5,-98 1205.8949,-96.9572 1213.6632,-95.5834 1221.2497,-94.084"/>
<polygon fill="#191970" stroke="#191970" points="1221.985,-97.5061 1231.0715,-92.0577 1220.5706,-90.6505 1221.985,-97.5061"/>
</g>
<!-- Node23 -->
<g id="node24" class="node">
<title>Node23</title>
<polygon fill="none" stroke="#bfbfbf" points="368.5,-73 368.5,-92 406.5,-92 406.5,-73 368.5,-73"/>
<text text-anchor="middle" x="387.5" y="-80" font-family="Helvetica,sans-Serif" font-size="10.00" fill="#000000">array</text>
</g>
<!-- Node21&#45;&gt;Node23 -->
<g id="edge30" class="edge">
<title>Node21&#45;&gt;Node23</title>
<path fill="none" stroke="#191970" d="M503.7179,-135.9935C481.5672,-127.2834 445.6108,-112.6367 415.5,-98 414.8066,-97.663 414.1062,-97.3169 413.4015,-96.9639"/>
<polygon fill="#191970" stroke="#191970" points="414.7064,-93.6956 404.2267,-92.1378 411.4476,-99.8908 414.7064,-93.6956"/>
</g>
<!-- Node24 -->
<g id="node25" class="node">
<title>Node24</title>
<polygon fill="none" stroke="#bfbfbf" points="425,-73 425,-92 484,-92 484,-73 425,-73"/>
<text text-anchor="middle" x="454.5" y="-80" font-family="Helvetica,sans-Serif" font-size="10.00" fill="#000000">exception</text>
</g>
<!-- Node21&#45;&gt;Node24 -->
<g id="edge31" class="edge">
<title>Node21&#45;&gt;Node24</title>
<path fill="none" stroke="#191970" d="M513.5625,-134.3906C502.838,-124.9683 486.2713,-110.4134 473.4099,-99.1137"/>
<polygon fill="#191970" stroke="#191970" points="475.4143,-96.2158 465.5917,-92.2449 470.7941,-101.4745 475.4143,-96.2158"/>
</g>
<!-- Node25 -->
<g id="node26" class="node">
<title>Node25</title>
<polygon fill="none" stroke="#bfbfbf" points="502,-73 502,-92 561,-92 561,-73 502,-73"/>
<text text-anchor="middle" x="531.5" y="-80" font-family="Helvetica,sans-Serif" font-size="10.00" fill="#000000">functional</text>
</g>
<!-- Node21&#45;&gt;Node25 -->
<g id="edge32" class="edge">
<title>Node21&#45;&gt;Node25</title>
<path fill="none" stroke="#191970" d="M525.5938,-134.3906C526.5641,-125.8657 528.0126,-113.1392 529.2323,-102.4235"/>
<polygon fill="#191970" stroke="#191970" points="532.7374,-102.5766 530.3908,-92.2449 525.7823,-101.7849 532.7374,-102.5766"/>
</g>
<!-- Node26 -->
<g id="node27" class="node">
<title>Node26</title>
<polygon fill="none" stroke="#bfbfbf" points="315,-73 315,-92 350,-92 350,-73 315,-73"/>
<text text-anchor="middle" x="332.5" y="-80" font-family="Helvetica,sans-Serif" font-size="10.00" fill="#000000">new</text>
</g>
<!-- Node21&#45;&gt;Node26 -->
<g id="edge34" class="edge">
<title>Node21&#45;&gt;Node26</title>
<path fill="none" stroke="#191970" d="M503.8863,-139.9851C472.1014,-133.4135 409.5615,-118.9601 359.5,-98 358.5029,-97.5825 357.4967,-97.1357 356.4891,-96.6666"/>
<polygon fill="#191970" stroke="#191970" points="358.0694,-93.5434 347.5822,-92.0371 354.8411,-99.7546 358.0694,-93.5434"/>
</g>
<!-- Node27&#45;&gt;Node9 -->
<g id="edge44" class="edge">
<title>Node27&#45;&gt;Node9</title>
<path fill="none" stroke="#191970" d="M1253.1785,-201.2084C1316.6512,-194.5748 1424.3094,-179.8211 1453.5,-154 1483.1445,-127.7774 1499.5397,-95.9011 1472.5,-67 1446.8085,-39.5399 875.9108,-20.7502 732.1369,-16.4426"/>
<polygon fill="#191970" stroke="#191970" points="731.8864,-12.9337 721.7869,-16.1355 731.6787,-19.9307 731.8864,-12.9337"/>
</g>
<!-- Node27&#45;&gt;Node20 -->
<g id="edge43" class="edge">
<title>Node27&#45;&gt;Node20</title>
<path fill="none" stroke="#191970" d="M1157.7335,-194.5558C1120.7043,-184.9909 1073.8409,-170.1382 1062.5,-154 1028.821,-106.0743 1106.2544,-113.9613 1138.5,-98 1139.3275,-97.5904 1140.1667,-97.1725 1141.0131,-96.7489"/>
<polygon fill="#191970" stroke="#191970" points="1142.8163,-99.7587 1150.147,-92.1094 1139.6462,-93.5177 1142.8163,-99.7587"/>
</g>
<!-- Node28 -->
<g id="node29" class="node">
<title>Node28</title>
<polygon fill="none" stroke="#bfbfbf" points="974.5,-134.5 974.5,-153.5 1014.5,-153.5 1014.5,-134.5 974.5,-134.5"/>
<text text-anchor="middle" x="994.5" y="-141.5" font-family="Helvetica,sans-Serif" font-size="10.00" fill="#000000">limits</text>
</g>
<!-- Node27&#45;&gt;Node28 -->
<g id="edge39" class="edge">
<title>Node27&#45;&gt;Node28</title>
<path fill="none" stroke="#191970" d="M1157.7853,-191.6576C1122.1553,-181.3112 1072.2705,-166.8045 1028.5,-154 1027.2377,-153.6307 1025.9492,-153.2534 1024.6477,-152.872"/>
<polygon fill="#191970" stroke="#191970" points="1025.214,-149.3906 1014.633,-149.932 1023.2422,-156.1072 1025.214,-149.3906"/>
</g>
<!-- Node29 -->
<g id="node30" class="node">
<title>Node29</title>
<polygon fill="none" stroke="#bfbfbf" points="1428,-73 1428,-92 1463,-92 1463,-73 1428,-73"/>
<text text-anchor="middle" x="1445.5" y="-80" font-family="Helvetica,sans-Serif" font-size="10.00" fill="#000000">map</text>
</g>
<!-- Node27&#45;&gt;Node29 -->
<g id="edge40" class="edge">
<title>Node27&#45;&gt;Node29</title>
<path fill="none" stroke="#191970" d="M1253.2302,-201.0378C1312.9288,-194.4339 1410.2705,-179.9504 1434.5,-154 1447.1906,-140.408 1448.8811,-118.6209 1448.0506,-102.6649"/>
<polygon fill="#191970" stroke="#191970" points="1451.4986,-101.926 1447.1216,-92.2776 1444.5264,-102.5497 1451.4986,-101.926"/>
</g>
<!-- Node30 -->
<g id="node31" class="node">
<title>Node30</title>
<polygon fill="none" stroke="#bfbfbf" points="1071,-134.5 1071,-153.5 1112,-153.5 1112,-134.5 1071,-134.5"/>
<text text-anchor="middle" x="1091.5" y="-141.5" font-family="Helvetica,sans-Serif" font-size="10.00" fill="#000000">regex</text>
</g>
<!-- Node27&#45;&gt;Node30 -->
<g id="edge41" class="edge">
<title>Node27&#45;&gt;Node30</title>
<path fill="none" stroke="#191970" d="M1177.6125,-190.4554C1159.5924,-180.734 1136.2659,-168.15 1118.4368,-158.5317"/>
<polygon fill="#191970" stroke="#191970" points="1119.6287,-155.1979 1109.166,-153.5303 1116.3052,-161.3586 1119.6287,-155.1979"/>
</g>
<!-- Node31 -->
<g id="node32" class="node">
<title>Node31</title>
<polygon fill="none" stroke="#bfbfbf" points="1130.5,-134.5 1130.5,-153.5 1182.5,-153.5 1182.5,-134.5 1130.5,-134.5"/>
<text text-anchor="middle" x="1156.5" y="-141.5" font-family="Helvetica,sans-Serif" font-size="10.00" fill="#000000">sstream</text>
</g>
<!-- Node27&#45;&gt;Node31 -->
<g id="edge42" class="edge">
<title>Node27&#45;&gt;Node31</title>
<path fill="none" stroke="#191970" d="M1193.3876,-190.2977C1186.5151,-181.672 1177.8777,-170.8312 1170.689,-161.8087"/>
<polygon fill="#191970" stroke="#191970" points="1173.3144,-159.487 1164.3455,-153.8469 1167.8396,-163.849 1173.3144,-159.487"/>
</g>
<!-- Node32 -->
<g id="node33" class="node">
<title>Node32</title>
<g id="a_node33"><a xlink:href="general__exceptions_8h.html" target="_top" xlink:title="Definition of self&#45;defined general exceptions. ">
<polygon fill="none" stroke="#000000" points="1201,-134.5 1201,-153.5 1310,-153.5 1310,-134.5 1201,-134.5"/>
<text text-anchor="middle" x="1255.5" y="-141.5" font-family="Helvetica,sans-Serif" font-size="10.00" fill="#000000">general_exceptions.h</text>
</a>
</g>
</g>
<!-- Node27&#45;&gt;Node32 -->
<g id="edge45" class="edge">
<title>Node27&#45;&gt;Node32</title>
<path fill="none" stroke="#191970" d="M1217.8596,-190.2977C1224.8724,-181.672 1233.686,-170.8312 1241.0214,-161.8087"/>
<polygon fill="#191970" stroke="#191970" points="1243.9018,-163.8141 1247.4944,-153.8469 1238.4703,-159.3982 1243.9018,-163.8141"/>
</g>
<!-- Node33 -->
<g id="node34" class="node">
<title>Node33</title>
<g id="a_node34"><a xlink:href="generic__functors_8h.html" target="_top" xlink:title="This header file contains a set of self&#45;defined generic functors. ">
<polygon fill="none" stroke="#000000" points="1328,-134.5 1328,-153.5 1425,-153.5 1425,-134.5 1328,-134.5"/>
<text text-anchor="middle" x="1376.5" y="-141.5" font-family="Helvetica,sans-Serif" font-size="10.00" fill="#000000">generic_functors.h</text>
</a>
</g>
</g>
<!-- Node27&#45;&gt;Node33 -->
<g id="edge47" class="edge">
<title>Node27&#45;&gt;Node33</title>
<path fill="none" stroke="#191970" d="M1247.3313,-190.4554C1275.8631,-180.194 1313.2635,-166.7429 1340.4729,-156.9571"/>
<polygon fill="#191970" stroke="#191970" points="1341.7757,-160.2081 1350.0011,-153.5303 1339.4066,-153.6212 1341.7757,-160.2081"/>
</g>
<!-- Node35 -->
<g id="node36" class="node">
<title>Node35</title>
<g id="a_node36"><a xlink:href="lapack__helpers_8h.html" target="_top" xlink:title="Exposes LAPACK helper functions defined in lapack_full_matrix.cc and define new ones by following the...">
<polygon fill="none" stroke="#000000" points="2058.5,-134.5 2058.5,-153.5 2148.5,-153.5 2148.5,-134.5 2058.5,-134.5"/>
<text text-anchor="middle" x="2103.5" y="-141.5" font-family="Helvetica,sans-Serif" font-size="10.00" fill="#000000">lapack_helpers.h</text>
</a>
</g>
</g>
<!-- Node27&#45;&gt;Node35 -->
<g id="edge53" class="edge">
<title>Node27&#45;&gt;Node35</title>
<path fill="none" stroke="#191970" d="M1253.1464,-202.2369C1406.1568,-191.7579 1884.583,-158.9926 2048.0785,-147.7956"/>
<polygon fill="#191970" stroke="#191970" points="2048.648,-151.2649 2058.3855,-147.0897 2048.1697,-144.2812 2048.648,-151.2649"/>
</g>
<!-- Node32&#45;&gt;Node22 -->
<g id="edge46" class="edge">
<title>Node32&#45;&gt;Node22</title>
<path fill="none" stroke="#191970" d="M1257.8438,-134.3906C1259.9449,-125.776 1263.0925,-112.8708 1265.723,-102.0858"/>
<polygon fill="#191970" stroke="#191970" points="1269.1539,-102.7894 1268.1232,-92.2449 1262.3532,-101.1307 1269.1539,-102.7894"/>
</g>
<!-- Node33&#45;&gt;Node6 -->
<g id="edge49" class="edge">
<title>Node33&#45;&gt;Node6</title>
<path fill="none" stroke="#191970" d="M1327.7049,-135.2988C1324.931,-134.848 1322.1812,-134.4118 1319.5,-134 1198.5346,-115.4219 1166.682,-121.1099 1046.5,-98 1041.1349,-96.9683 1035.5385,-95.7484 1030.006,-94.4531"/>
<polygon fill="#191970" stroke="#191970" points="1030.7237,-91.0257 1020.1799,-92.0644 1029.0702,-97.8276 1030.7237,-91.0257"/>
</g>
<!-- Node33&#45;&gt;Node9 -->
<g id="edge52" class="edge">
<title>Node33&#45;&gt;Node9</title>
<path fill="none" stroke="#191970" d="M1375.3998,-134.4904C1372.9016,-117.7035 1365.1385,-83.075 1342.5,-67 1292.4206,-31.4401 855.9778,-19.0066 732.1354,-16.1771"/>
<polygon fill="#191970" stroke="#191970" points="731.8712,-12.6704 721.7957,-15.9467 731.7153,-19.6687 731.8712,-12.6704"/>
</g>
<!-- Node33&#45;&gt;Node22 -->
<g id="edge48" class="edge">
<title>Node33&#45;&gt;Node22</title>
<path fill="none" stroke="#191970" d="M1359.9375,-134.3906C1342.7463,-124.4165 1315.6418,-108.6908 1295.7734,-97.1633"/>
<polygon fill="#191970" stroke="#191970" points="1297.3523,-94.033 1286.9462,-92.0419 1293.8394,-100.0877 1297.3523,-94.033"/>
</g>
<!-- Node33&#45;&gt;Node29 -->
<g id="edge51" class="edge">
<title>Node33&#45;&gt;Node29</title>
<path fill="none" stroke="#191970" d="M1387.2813,-134.3906C1397.8526,-124.9683 1414.1825,-110.4134 1426.8603,-99.1137"/>
<polygon fill="#191970" stroke="#191970" points="1429.4304,-101.5114 1434.5667,-92.2449 1424.7728,-96.2858 1429.4304,-101.5114"/>
</g>
<!-- Node34 -->
<g id="node35" class="node">
<title>Node34</title>
<polygon fill="none" stroke="#bfbfbf" points="2608,-.5 2608,-30.5 2699,-30.5 2699,-.5 2608,-.5"/>
<text text-anchor="start" x="2616" y="-18.5" font-family="Helvetica,sans-Serif" font-size="10.00" fill="#000000">deal.II/lac/lapack</text>
<text text-anchor="middle" x="2653.5" y="-7.5" font-family="Helvetica,sans-Serif" font-size="10.00" fill="#000000">_support.h</text>
</g>
<!-- Node33&#45;&gt;Node34 -->
<g id="edge50" class="edge">
<title>Node33&#45;&gt;Node34</title>
<path fill="none" stroke="#191970" d="M1378.66,-134.325C1383.0383,-117.2758 1394.7232,-82.2454 1419.5,-67 1470.2503,-35.7727 2363.5159,-19.9429 2597.6784,-16.3181"/>
<polygon fill="#191970" stroke="#191970" points="2597.7347,-19.8178 2607.6798,-16.1646 2597.6272,-12.8186 2597.7347,-19.8178"/>
</g>
<!-- Node35&#45;&gt;Node34 -->
<g id="edge59" class="edge">
<title>Node35&#45;&gt;Node34</title>
<path fill="none" stroke="#191970" d="M2148.6729,-143.0837C2270.3373,-140.2029 2598.1806,-129.5619 2634.5,-98 2650.544,-84.0576 2654.5245,-59.5399 2654.9511,-40.8444"/>
<polygon fill="#191970" stroke="#191970" points="2658.4491,-40.6005 2654.8559,-30.6336 2651.4494,-40.6658 2658.4491,-40.6005"/>
</g>
<!-- Node36 -->
<g id="node37" class="node">
<title>Node36</title>
<polygon fill="none" stroke="#bfbfbf" points="1975.5,-73 1975.5,-92 2091.5,-92 2091.5,-73 1975.5,-73"/>
<text text-anchor="middle" x="2033.5" y="-80" font-family="Helvetica,sans-Serif" font-size="10.00" fill="#000000">deal.II/base/numbers.h</text>
</g>
<!-- Node35&#45;&gt;Node36 -->
<g id="edge54" class="edge">
<title>Node35&#45;&gt;Node36</title>
<path fill="none" stroke="#191970" d="M2092.5625,-134.3906C2081.838,-124.9683 2065.2713,-110.4134 2052.4099,-99.1137"/>
<polygon fill="#191970" stroke="#191970" points="2054.4143,-96.2158 2044.5917,-92.2449 2049.7941,-101.4745 2054.4143,-96.2158"/>
</g>
<!-- Node37 -->
<g id="node38" class="node">
<title>Node37</title>
<polygon fill="none" stroke="#bfbfbf" points="2109.5,-67.5 2109.5,-97.5 2237.5,-97.5 2237.5,-67.5 2109.5,-67.5"/>
<text text-anchor="start" x="2117.5" y="-85.5" font-family="Helvetica,sans-Serif" font-size="10.00" fill="#000000">deal.II/lac/blas_extension</text>
<text text-anchor="middle" x="2173.5" y="-74.5" font-family="Helvetica,sans-Serif" font-size="10.00" fill="#000000">_templates.h</text>
</g>
<!-- Node35&#45;&gt;Node37 -->
<g id="edge55" class="edge">
<title>Node35&#45;&gt;Node37</title>
<path fill="none" stroke="#191970" d="M2114.4375,-134.3906C2123.5603,-126.3756 2136.9103,-114.6466 2148.6112,-104.3666"/>
<polygon fill="#191970" stroke="#191970" points="2151.1737,-106.7742 2156.3761,-97.5446 2146.5535,-101.5155 2151.1737,-106.7742"/>
</g>
<!-- Node38 -->
<g id="node39" class="node">
<title>Node38</title>
<polygon fill="none" stroke="#bfbfbf" points="2255.5,-73 2255.5,-92 2381.5,-92 2381.5,-73 2255.5,-73"/>
<text text-anchor="middle" x="2318.5" y="-80" font-family="Helvetica,sans-Serif" font-size="10.00" fill="#000000">deal.II/lac/block_vector.h</text>
</g>
<!-- Node35&#45;&gt;Node38 -->
<g id="edge56" class="edge">
<title>Node35&#45;&gt;Node38</title>
<path fill="none" stroke="#191970" d="M2137.0938,-134.3906C2174.4083,-123.7169 2234.7492,-106.4566 2275.4886,-94.8033"/>
<polygon fill="#191970" stroke="#191970" points="2276.4903,-98.1572 2285.1421,-92.0419 2274.5652,-91.4271 2276.4903,-98.1572"/>
</g>
<!-- Node39 -->
<g id="node40" class="node">
<title>Node39</title>
<polygon fill="none" stroke="#bfbfbf" points="2399.5,-73 2399.5,-92 2515.5,-92 2515.5,-73 2399.5,-73"/>
<text text-anchor="middle" x="2457.5" y="-80" font-family="Helvetica,sans-Serif" font-size="10.00" fill="#000000">deal.II/lac/full_matrix.h</text>
</g>
<!-- Node35&#45;&gt;Node39 -->
<g id="edge57" class="edge">
<title>Node35&#45;&gt;Node39</title>
<path fill="none" stroke="#191970" d="M2148.9038,-137.7025C2205.6261,-129.6103 2305.5662,-114.6108 2390.5,-98 2396.2799,-96.8696 2402.3199,-95.5994 2408.3053,-94.2851"/>
<polygon fill="#191970" stroke="#191970" points="2409.2801,-97.6535 2418.2711,-92.0487 2407.7474,-90.8233 2409.2801,-97.6535"/>
</g>
<!-- Node40 -->
<g id="node41" class="node">
<title>Node40</title>
<polygon fill="none" stroke="#bfbfbf" points="2534,-67.5 2534,-97.5 2625,-97.5 2625,-67.5 2534,-67.5"/>
<text text-anchor="start" x="2542" y="-85.5" font-family="Helvetica,sans-Serif" font-size="10.00" fill="#000000">deal.II/lac/lapack</text>
<text text-anchor="middle" x="2579.5" y="-74.5" font-family="Helvetica,sans-Serif" font-size="10.00" fill="#000000">_full_matrix.h</text>
</g>
<!-- Node35&#45;&gt;Node40 -->
<g id="edge58" class="edge">
<title>Node35&#45;&gt;Node40</title>
<path fill="none" stroke="#191970" d="M2148.7285,-141.5257C2224.4172,-136.8496 2381.5765,-124.8547 2523.5276,-97.976"/>
<polygon fill="#191970" stroke="#191970" points="2524.5619,-101.3412 2533.7205,-96.0149 2523.2393,-94.4673 2524.5619,-101.3412"/>
</g>
<!-- Node41 -->
<g id="node42" class="node">
<title>Node41</title>
<polygon fill="none" stroke="#bfbfbf" points="1520,-67.5 1520,-97.5 1611,-97.5 1611,-67.5 1520,-67.5"/>
<text text-anchor="start" x="1528" y="-85.5" font-family="Helvetica,sans-Serif" font-size="10.00" fill="#000000">deal.II/lac/lapack</text>
<text text-anchor="middle" x="1565.5" y="-74.5" font-family="Helvetica,sans-Serif" font-size="10.00" fill="#000000">_templates.h</text>
</g>
<!-- Node35&#45;&gt;Node41 -->
<g id="edge60" class="edge">
<title>Node35&#45;&gt;Node41</title>
<path fill="none" stroke="#191970" d="M2058.1749,-142.3994C1973.8548,-138.8353 1787.1598,-128.187 1621.1647,-97.8971"/>
<polygon fill="#191970" stroke="#191970" points="1621.7406,-94.4443 1611.2702,-96.0634 1620.465,-101.3271 1621.7406,-94.4443"/>
</g>
<!-- Node42 -->
<g id="node43" class="node">
<title>Node42</title>
<polygon fill="none" stroke="#bfbfbf" points="1629.5,-67.5 1629.5,-97.5 1721.5,-97.5 1721.5,-67.5 1629.5,-67.5"/>
<text text-anchor="start" x="1637.5" y="-85.5" font-family="Helvetica,sans-Serif" font-size="10.00" fill="#000000">deal.II/lac/sparse</text>
<text text-anchor="middle" x="1675.5" y="-74.5" font-family="Helvetica,sans-Serif" font-size="10.00" fill="#000000">_matrix.h</text>
</g>
<!-- Node35&#45;&gt;Node42 -->
<g id="edge61" class="edge">
<title>Node35&#45;&gt;Node42</title>
<path fill="none" stroke="#191970" d="M2058.4961,-140.5845C1988.2024,-134.768 1848.2953,-121.2538 1731.5,-98 1731.398,-97.9797 1731.2959,-97.9593 1731.1937,-97.9388"/>
<polygon fill="#191970" stroke="#191970" points="1732.034,-94.54 1721.5161,-95.814 1730.5328,-101.3772 1732.034,-94.54"/>
</g>
<!-- Node43 -->
<g id="node44" class="node">
<title>Node43</title>
<polygon fill="none" stroke="#bfbfbf" points="1740,-73 1740,-92 1841,-92 1841,-73 1740,-73"/>
<text text-anchor="middle" x="1790.5" y="-80" font-family="Helvetica,sans-Serif" font-size="10.00" fill="#000000">deal.II/lac/utilities.h</text>
</g>
<!-- Node35&#45;&gt;Node43 -->
<g id="edge62" class="edge">
<title>Node35&#45;&gt;Node43</title>
<path fill="none" stroke="#191970" d="M2058.0558,-136.7642C2007.261,-128.4383 1922.6632,-113.8592 1850.5,-98 1845.5695,-96.9164 1840.4307,-95.7094 1835.3257,-94.4605"/>
<polygon fill="#191970" stroke="#191970" points="1836.1642,-91.0624 1825.6136,-92.0287 1834.464,-97.8528 1836.1642,-91.0624"/>
</g>
<!-- Node44 -->
<g id="node45" class="node">
<title>Node44</title>
<polygon fill="none" stroke="#bfbfbf" points="1859.5,-73 1859.5,-92 1957.5,-92 1957.5,-73 1859.5,-73"/>
<text text-anchor="middle" x="1908.5" y="-80" font-family="Helvetica,sans-Serif" font-size="10.00" fill="#000000">deal.II/lac/vector.h</text>
</g>
<!-- Node35&#45;&gt;Node44 -->
<g id="edge63" class="edge">
<title>Node35&#45;&gt;Node44</title>
<path fill="none" stroke="#191970" d="M2073.0313,-134.3906C2039.5456,-123.8298 1985.6147,-106.8208 1948.688,-95.1747"/>
<polygon fill="#191970" stroke="#191970" points="1949.3445,-91.7118 1938.7548,-92.0419 1947.239,-98.3877 1949.3445,-91.7118"/>
</g>
<!-- Node45 -->
<g id="node46" class="node">
<title>Node45</title>
<g id="a_node46"><a xlink:href="lapack__templates__ext_8h.html" target="_top" xlink:title="Append more template based LAPACK functions to those existing in deal.ii. ">
<polygon fill="none" stroke="#000000" points="2681.5,-73 2681.5,-92 2801.5,-92 2801.5,-73 2681.5,-73"/>
<text text-anchor="middle" x="2741.5" y="-80" font-family="Helvetica,sans-Serif" font-size="10.00" fill="#000000">lapack_templates_ext.h</text>
</a>
</g>
</g>
<!-- Node35&#45;&gt;Node45 -->
<g id="edge64" class="edge">
<title>Node35&#45;&gt;Node45</title>
<path fill="none" stroke="#191970" d="M2148.6774,-142.2355C2244.6399,-138.0665 2475.7217,-125.7943 2667.5,-98 2674.9968,-96.9135 2682.8743,-95.5291 2690.5798,-94.0364"/>
<polygon fill="#191970" stroke="#191970" points="2691.4507,-97.4314 2700.5639,-92.0277 2690.0699,-90.569 2691.4507,-97.4314"/>
</g>
<!-- Node45&#45;&gt;Node34 -->
<g id="edge65" class="edge">
<title>Node45&#45;&gt;Node34</title>
<path fill="none" stroke="#191970" d="M2728.8917,-72.9005C2716.5078,-63.4718 2697.2012,-48.7725 2681.226,-36.6096"/>
<polygon fill="#191970" stroke="#191970" points="2683.3067,-33.7948 2673.2301,-30.5218 2679.0663,-39.3643 2683.3067,-33.7948"/>
</g>
</g>
</svg>
