<?xml version="1.0" encoding="UTF-8" standalone="no"?>
<!DOCTYPE svg PUBLIC "-//W3C//DTD SVG 1.1//EN"
 "http://www.w3.org/Graphics/SVG/1.1/DTD/svg11.dtd">
<!-- Generated by graphviz version 2.40.1 (20161225.0304)
 -->
<!-- Title: /home/jihuan/Projects/deal.ii/program/dealii&#45;9.1.1/examples/laplace&#45;bem/tests/block&#45;cluster&#45;tree&#45;extend&#45;finer&#45;than&#45;partition/bct&#45;extend&#45;finer&#45;than&#45;partition.cc Pages: 1 -->
<!--zoomable 452 -->
<svg id="main" version="1.1" xmlns="http://www.w3.org/2000/svg" xmlns:xlink="http://www.w3.org/1999/xlink" xml:space="preserve" onload="init(evt)">
<style type="text/css"><![CDATA[
.edge:hover path { stroke: red; }
.edge:hover polygon { stroke: red; fill: red; }
]]></style>
<script type="text/javascript"><![CDATA[
var edges = document.getElementsByTagName('g');
if (edges && edges.length) {
  for (var i=0;i<edges.length;i++) {
    if (edges[i].id.substr(0,4)=='edge') {
      edges[i].setAttribute('class','edge');
    }
  }
}
]]></script>
        <defs>
                <circle id="rim" cx="0" cy="0" r="7"/>
                <circle id="rim2" cx="0" cy="0" r="3.5"/>
                <g id="zoomPlus">
                        <use xlink:href="#rim" fill="#404040">
                                <set attributeName="fill" to="#808080" begin="zoomplus.mouseover" end="zoomplus.mouseout"/>
                        </use>
                        <path d="M-4,0h8M0,-4v8" fill="none" stroke="white" stroke-width="1.5" pointer-events="none"/>
                </g>
                <g id="zoomMin">
                        <use xlink:href="#rim" fill="#404040">
                                <set attributeName="fill" to="#808080" begin="zoomminus.mouseover" end="zoomminus.mouseout"/>
                        </use>
                        <path d="M-4,0h8" fill="none" stroke="white" stroke-width="1.5" pointer-events="none"/>
                </g>
                <g id="dirArrow">
                        <path fill="none" stroke="white" stroke-width="1.5" d="M0,-3.0v7 M-2.5,-0.5L0,-3.0L2.5,-0.5"/>
                </g>
               <g id="resetDef">
                       <use xlink:href="#rim2" fill="#404040">
                               <set attributeName="fill" to="#808080" begin="reset.mouseover" end="reset.mouseout"/>
                       </use>
               </g>
        </defs>

<script type="text/javascript">
var viewWidth = 2894;
var viewHeight = 452;
var sectionId = 'dynsection-0';
</script>
<script xlink:href="svgpan.js"/>
<svg id="graph" class="graph">
<g id="viewport">
<title>/home/jihuan/Projects/deal.ii/program/dealii&#45;9.1.1/examples/laplace&#45;bem/tests/block&#45;cluster&#45;tree&#45;extend&#45;finer&#45;than&#45;partition/bct&#45;extend&#45;finer&#45;than&#45;partition.cc</title>
<!-- Node0 -->
<g id="node1" class="node">
<title>Node0</title>
<polygon fill="#bfbfbf" stroke="#000000" points="408,-369.5 408,-443.5 568,-443.5 568,-369.5 408,-369.5"/>
<text text-anchor="start" x="416" y="-431.5" font-family="Helvetica,sans-Serif" font-size="10.00" fill="#000000">/home/jihuan/Projects</text>
<text text-anchor="start" x="416" y="-420.5" font-family="Helvetica,sans-Serif" font-size="10.00" fill="#000000">/deal.ii/program/dealii</text>
<text text-anchor="start" x="416" y="-409.5" font-family="Helvetica,sans-Serif" font-size="10.00" fill="#000000">&#45;9.1.1/examples/laplace</text>
<text text-anchor="start" x="416" y="-398.5" font-family="Helvetica,sans-Serif" font-size="10.00" fill="#000000">&#45;bem/tests/block&#45;cluster</text>
<text text-anchor="start" x="416" y="-387.5" font-family="Helvetica,sans-Serif" font-size="10.00" fill="#000000">&#45;tree&#45;extend&#45;finer&#45;than&#45;partition</text>
<text text-anchor="middle" x="488" y="-376.5" font-family="Helvetica,sans-Serif" font-size="10.00" fill="#000000">/bct&#45;extend&#45;finer&#45;than&#45;partition.cc</text>
</g>
<!-- Node1 -->
<g id="node2" class="node">
<title>Node1</title>
<polygon fill="none" stroke="#bfbfbf" points="410,-313.5 410,-332.5 460,-332.5 460,-313.5 410,-313.5"/>
<text text-anchor="middle" x="435" y="-320.5" font-family="Helvetica,sans-Serif" font-size="10.00" fill="#000000">fstream</text>
</g>
<!-- Node0&#45;&gt;Node1 -->
<g id="edge1" class="edge">
<title>Node0&#45;&gt;Node1</title>
<path fill="none" stroke="#191970" d="M464.2903,-369.1461C458.1889,-359.5334 451.8879,-349.6064 446.7006,-341.434"/>
<polygon fill="#191970" stroke="#191970" points="449.5154,-339.3374 441.2014,-332.7701 443.6054,-343.0886 449.5154,-339.3374"/>
</g>
<!-- Node2 -->
<g id="node3" class="node">
<title>Node2</title>
<polygon fill="none" stroke="#bfbfbf" points="336,-73 336,-92 390,-92 390,-73 336,-73"/>
<text text-anchor="middle" x="363" y="-80" font-family="Helvetica,sans-Serif" font-size="10.00" fill="#000000">iostream</text>
</g>
<!-- Node0&#45;&gt;Node2 -->
<g id="edge2" class="edge">
<title>Node0&#45;&gt;Node2</title>
<path fill="none" stroke="#191970" d="M488,-369.4924C488,-341.3781 488,-301.7539 488,-267 488,-267 488,-267 488,-205.5 488,-153.2366 431.7958,-115.7584 394.7625,-96.7364"/>
<polygon fill="#191970" stroke="#191970" points="395.863,-93.3762 385.3475,-92.0817 392.7606,-99.6512 395.863,-93.3762"/>
</g>
<!-- Node3 -->
<g id="node4" class="node">
<title>Node3</title>
<g id="a_node4"><a xlink:href="block__cluster__tree_8h.html" target="_top" xlink:title="Implementation of the class BlockClusterTree. ">
<polygon fill="none" stroke="#000000" points="550,-313.5 550,-332.5 654,-332.5 654,-313.5 550,-313.5"/>
<text text-anchor="middle" x="602" y="-320.5" font-family="Helvetica,sans-Serif" font-size="10.00" fill="#000000">block_cluster_tree.h</text>
</a>
</g>
</g>
<!-- Node0&#45;&gt;Node3 -->
<g id="edge3" class="edge">
<title>Node0&#45;&gt;Node3</title>
<path fill="none" stroke="#191970" d="M538.6659,-369.3894C553.2611,-358.6991 568.4172,-347.5979 580.2425,-338.9364"/>
<polygon fill="#191970" stroke="#191970" points="582.5725,-341.5683 588.5717,-332.8356 578.4361,-335.9211 582.5725,-341.5683"/>
</g>
<!-- Node4 -->
<g id="node5" class="node">
<title>Node4</title>
<g id="a_node5"><a xlink:href="block__cluster_8h.html" target="_top" xlink:title="Implementation of the class BlockCluster. ">
<polygon fill="none" stroke="#000000" points="594.5,-257.5 594.5,-276.5 677.5,-276.5 677.5,-257.5 594.5,-257.5"/>
<text text-anchor="middle" x="636" y="-264.5" font-family="Helvetica,sans-Serif" font-size="10.00" fill="#000000">block_cluster.h</text>
</a>
</g>
</g>
<!-- Node3&#45;&gt;Node4 -->
<g id="edge4" class="edge">
<title>Node3&#45;&gt;Node4</title>
<path fill="none" stroke="#191970" d="M607.9223,-313.2455C612.6027,-305.5367 619.2673,-294.5598 624.9289,-285.2348"/>
<polygon fill="#191970" stroke="#191970" points="627.9475,-287.007 630.1455,-276.6427 621.9639,-283.3741 627.9475,-287.007"/>
</g>
<!-- Node16 -->
<g id="node17" class="node">
<title>Node16</title>
<g id="a_node17"><a xlink:href="cluster__tree_8h_source.html" target="_top" xlink:title="cluster_tree.h">
<polygon fill="none" stroke="#000000" points="532,-196 532,-215 608,-215 608,-196 532,-196"/>
<text text-anchor="middle" x="570" y="-203" font-family="Helvetica,sans-Serif" font-size="10.00" fill="#000000">cluster_tree.h</text>
</a>
</g>
</g>
<!-- Node3&#45;&gt;Node16 -->
<g id="edge36" class="edge">
<title>Node3&#45;&gt;Node16</title>
<path fill="none" stroke="#191970" d="M598.237,-313.2337C594.7639,-303.9925 589.6128,-289.686 586,-277 581.0581,-259.6472 576.6806,-239.5733 573.7592,-225.1212"/>
<polygon fill="#191970" stroke="#191970" points="577.1919,-224.4377 571.8238,-215.3034 570.3241,-225.7916 577.1919,-224.4377"/>
</g>
<!-- Node17 -->
<g id="node18" class="node">
<title>Node17</title>
<g id="a_node18"><a xlink:href="debug__tools_8h.html" target="_top" xlink:title="This file includes a bunch of helper functions for printing out and visualizing information about gri...">
<polygon fill="none" stroke="#000000" points="242.5,-134.5 242.5,-153.5 319.5,-153.5 319.5,-134.5 242.5,-134.5"/>
<text text-anchor="middle" x="281" y="-141.5" font-family="Helvetica,sans-Serif" font-size="10.00" fill="#000000">debug_tools.h</text>
</a>
</g>
</g>
<!-- Node3&#45;&gt;Node17 -->
<g id="edge37" class="edge">
<title>Node3&#45;&gt;Node17</title>
<path fill="none" stroke="#191970" d="M584.7416,-313.3762C531.727,-283.8135 370.988,-194.1802 307.349,-158.6931"/>
<polygon fill="#191970" stroke="#191970" points="308.7822,-155.4849 298.3437,-153.6714 305.3729,-161.5986 308.7822,-155.4849"/>
</g>
<!-- Node21 -->
<g id="node22" class="node">
<title>Node21</title>
<g id="a_node22"><a xlink:href="tree_8h.html" target="_top" xlink:title="Implementation of the classes for binary tree node, general tree node and functions for manipulating ...">
<polygon fill="none" stroke="#000000" points="703.5,-134.5 703.5,-153.5 744.5,-153.5 744.5,-134.5 703.5,-134.5"/>
<text text-anchor="middle" x="724" y="-141.5" font-family="Helvetica,sans-Serif" font-size="10.00" fill="#000000">tree.h</text>
</a>
</g>
</g>
<!-- Node3&#45;&gt;Node21 -->
<g id="edge68" class="edge">
<title>Node3&#45;&gt;Node21</title>
<path fill="none" stroke="#191970" d="M632.3767,-313.4319C650.6894,-306.1842 673.0886,-294.4499 687,-277 713.7876,-243.3987 721.2019,-191.6242 723.2401,-163.6151"/>
<polygon fill="#191970" stroke="#191970" points="726.7417,-163.6831 723.8129,-153.5012 719.7529,-163.2872 726.7417,-163.6831"/>
</g>
<!-- Node27 -->
<g id="node28" class="node">
<title>Node27</title>
<g id="a_node28"><a xlink:href="lapack__full__matrix__ext_8h_source.html" target="_top" xlink:title="lapack_full_matrix\l_ext.h">
<polygon fill="none" stroke="#000000" points="1509.5,-190.5 1509.5,-220.5 1604.5,-220.5 1604.5,-190.5 1509.5,-190.5"/>
<text text-anchor="start" x="1517.5" y="-208.5" font-family="Helvetica,sans-Serif" font-size="10.00" fill="#000000">lapack_full_matrix</text>
<text text-anchor="middle" x="1557" y="-197.5" font-family="Helvetica,sans-Serif" font-size="10.00" fill="#000000">_ext.h</text>
</a>
</g>
</g>
<!-- Node3&#45;&gt;Node27 -->
<g id="edge38" class="edge">
<title>Node3&#45;&gt;Node27</title>
<path fill="none" stroke="#191970" d="M654.0231,-316.5992C818.5193,-296.3602 1326.6767,-233.8382 1499.0885,-212.6252"/>
<polygon fill="#191970" stroke="#191970" points="1499.7309,-216.0727 1509.2287,-211.3776 1498.8761,-209.1251 1499.7309,-216.0727"/>
</g>
<!-- Node5 -->
<g id="node6" class="node">
<title>Node5</title>
<g id="a_node6"><a xlink:href="cluster_8h.html" target="_top" xlink:title="Implementation of the class Cluster. ">
<polygon fill="none" stroke="#000000" points="585,-134.5 585,-153.5 639,-153.5 639,-134.5 585,-134.5"/>
<text text-anchor="middle" x="612" y="-141.5" font-family="Helvetica,sans-Serif" font-size="10.00" fill="#000000">cluster.h</text>
</a>
</g>
</g>
<!-- Node4&#45;&gt;Node5 -->
<g id="edge5" class="edge">
<title>Node4&#45;&gt;Node5</title>
<path fill="none" stroke="#191970" d="M634.1168,-257.3484C630.1911,-237.2295 621.0655,-190.4608 615.8458,-163.7098"/>
<polygon fill="#191970" stroke="#191970" points="619.2249,-162.7514 613.8745,-153.6068 612.3545,-164.092 619.2249,-162.7514"/>
</g>
<!-- Node4&#45;&gt;Node16 -->
<g id="edge17" class="edge">
<title>Node4&#45;&gt;Node16</title>
<path fill="none" stroke="#191970" d="M625.6875,-257.3906C615.5758,-247.9683 599.9558,-233.4134 587.8293,-222.1137"/>
<polygon fill="#191970" stroke="#191970" points="590.1601,-219.5015 580.4579,-215.2449 585.388,-224.6228 590.1601,-219.5015"/>
</g>
<!-- Node6 -->
<g id="node7" class="node">
<title>Node6</title>
<polygon fill="none" stroke="#bfbfbf" points="1046.5,-73 1046.5,-92 1149.5,-92 1149.5,-73 1046.5,-73"/>
<text text-anchor="middle" x="1098" y="-80" font-family="Helvetica,sans-Serif" font-size="10.00" fill="#000000">deal.II/base/types.h</text>
</g>
<!-- Node5&#45;&gt;Node6 -->
<g id="edge6" class="edge">
<title>Node5&#45;&gt;Node6</title>
<path fill="none" stroke="#191970" d="M639.277,-140.6069C655.4647,-138.6199 676.3948,-136.097 695,-134 847.3173,-116.832 887.1588,-125.2444 1038,-98 1043.426,-97.02 1049.0842,-95.8111 1054.6641,-94.5044"/>
<polygon fill="#191970" stroke="#191970" points="1055.6799,-97.859 1064.5564,-92.0747 1054.0102,-91.061 1055.6799,-97.859"/>
</g>
<!-- Node7 -->
<g id="node8" class="node">
<title>Node7</title>
<polygon fill="none" stroke="#bfbfbf" points="584,-73 584,-92 640,-92 640,-73 584,-73"/>
<text text-anchor="middle" x="612" y="-80" font-family="Helvetica,sans-Serif" font-size="10.00" fill="#000000">algorithm</text>
</g>
<!-- Node5&#45;&gt;Node7 -->
<g id="edge7" class="edge">
<title>Node5&#45;&gt;Node7</title>
<path fill="none" stroke="#191970" d="M612,-134.3906C612,-125.8657 612,-113.1392 612,-102.4235"/>
<polygon fill="#191970" stroke="#191970" points="615.5001,-102.2448 612,-92.2449 608.5001,-102.2449 615.5001,-102.2448"/>
</g>
<!-- Node8 -->
<g id="node9" class="node">
<title>Node8</title>
<polygon fill="none" stroke="#bfbfbf" points="981.5,-73 981.5,-92 1028.5,-92 1028.5,-73 981.5,-73"/>
<text text-anchor="middle" x="1005" y="-80" font-family="Helvetica,sans-Serif" font-size="10.00" fill="#000000">iterator</text>
</g>
<!-- Node5&#45;&gt;Node8 -->
<g id="edge8" class="edge">
<title>Node5&#45;&gt;Node8</title>
<path fill="none" stroke="#191970" d="M639.0309,-140.6739C721.5268,-130.5078 964.9566,-100.3907 973,-98 974.8639,-97.446 976.7536,-96.7937 978.6345,-96.0756"/>
<polygon fill="#191970" stroke="#191970" points="980.0309,-99.285 987.8061,-92.0881 977.2398,-92.8655 980.0309,-99.285"/>
</g>
<!-- Node9 -->
<g id="node10" class="node">
<title>Node9</title>
<polygon fill="none" stroke="#bfbfbf" points="1156,-6 1156,-25 1200,-25 1200,-6 1156,-6"/>
<text text-anchor="middle" x="1178" y="-13" font-family="Helvetica,sans-Serif" font-size="10.00" fill="#000000">vector</text>
</g>
<!-- Node5&#45;&gt;Node9 -->
<g id="edge9" class="edge">
<title>Node5&#45;&gt;Node9</title>
<path fill="none" stroke="#191970" d="M601.0286,-134.4347C584.3285,-118.76 556.342,-87.3194 575,-67 613.8452,-24.6958 1026.2203,-17.087 1145.7204,-15.7673"/>
<polygon fill="#191970" stroke="#191970" points="1145.7584,-19.2672 1155.7217,-15.6643 1145.6861,-12.2676 1145.7584,-19.2672"/>
</g>
<!-- Node10 -->
<g id="node11" class="node">
<title>Node10</title>
<g id="a_node11"><a xlink:href="simple__bounding__box_8h_source.html" target="_top" xlink:title="simple_bounding_box.h">
<polygon fill="none" stroke="#000000" points="408.5,-73 408.5,-92 527.5,-92 527.5,-73 408.5,-73"/>
<text text-anchor="middle" x="468" y="-80" font-family="Helvetica,sans-Serif" font-size="10.00" fill="#000000">simple_bounding_box.h</text>
</a>
</g>
</g>
<!-- Node5&#45;&gt;Node10 -->
<g id="edge10" class="edge">
<title>Node5&#45;&gt;Node10</title>
<path fill="none" stroke="#191970" d="M589.5,-134.3906C565.4062,-124.1005 526.9787,-107.6888 499.7992,-96.0809"/>
<polygon fill="#191970" stroke="#191970" points="500.9131,-92.7508 490.342,-92.0419 498.1637,-99.1883 500.9131,-92.7508"/>
</g>
<!-- Node10&#45;&gt;Node9 -->
<g id="edge16" class="edge">
<title>Node10&#45;&gt;Node9</title>
<path fill="none" stroke="#191970" d="M508.9355,-72.968C519.6482,-70.7371 531.2176,-68.5595 542,-67 771.9064,-33.7481 1051.9057,-20.4163 1145.6716,-16.6815"/>
<polygon fill="#191970" stroke="#191970" points="1146.0626,-20.169 1155.9187,-16.2823 1145.79,-13.1743 1146.0626,-20.169"/>
</g>
<!-- Node11 -->
<g id="node12" class="node">
<title>Node11</title>
<polygon fill="none" stroke="#bfbfbf" points="448,-6 448,-25 548,-25 548,-6 448,-6"/>
<text text-anchor="middle" x="498" y="-13" font-family="Helvetica,sans-Serif" font-size="10.00" fill="#000000">deal.II/base/point.h</text>
</g>
<!-- Node10&#45;&gt;Node11 -->
<g id="edge11" class="edge">
<title>Node10&#45;&gt;Node11</title>
<path fill="none" stroke="#191970" d="M472.2983,-72.9005C476.7983,-62.8505 483.9796,-46.8122 489.6088,-34.2403"/>
<polygon fill="#191970" stroke="#191970" points="492.8174,-35.6389 493.7097,-25.0817 486.4286,-32.7782 492.8174,-35.6389"/>
</g>
<!-- Node12 -->
<g id="node13" class="node">
<title>Node12</title>
<polygon fill="none" stroke="#bfbfbf" points="46.5,-6 46.5,-25 173.5,-25 173.5,-6 46.5,-6"/>
<text text-anchor="middle" x="110" y="-13" font-family="Helvetica,sans-Serif" font-size="10.00" fill="#000000">deal.II/dofs/dof_handler.h</text>
</g>
<!-- Node10&#45;&gt;Node12 -->
<g id="edge12" class="edge">
<title>Node10&#45;&gt;Node12</title>
<path fill="none" stroke="#191970" d="M427.2154,-72.9424C417.9593,-70.8837 408.1577,-68.7903 399,-67 303.4839,-48.3272 278.6241,-49.1114 183,-31 176.7345,-29.8133 170.1799,-28.51 163.6789,-27.1787"/>
<polygon fill="#191970" stroke="#191970" points="164.0592,-23.6831 153.5564,-25.0765 162.6357,-30.5369 164.0592,-23.6831"/>
</g>
<!-- Node13 -->
<g id="node14" class="node">
<title>Node13</title>
<polygon fill="none" stroke="#bfbfbf" points="192,-6 192,-25 308,-25 308,-6 192,-6"/>
<text text-anchor="middle" x="250" y="-13" font-family="Helvetica,sans-Serif" font-size="10.00" fill="#000000">deal.II/dofs/dof_tools.h</text>
</g>
<!-- Node10&#45;&gt;Node13 -->
<g id="edge13" class="edge">
<title>Node10&#45;&gt;Node13</title>
<path fill="none" stroke="#191970" d="M436.7659,-72.9005C398.3999,-61.1091 333.213,-41.0746 290.8889,-28.0668"/>
<polygon fill="#191970" stroke="#191970" points="291.7631,-24.6739 281.1761,-25.0817 289.7066,-31.3651 291.7631,-24.6739"/>
</g>
<!-- Node14 -->
<g id="node15" class="node">
<title>Node14</title>
<polygon fill="none" stroke="#bfbfbf" points="326.5,-6 326.5,-25 429.5,-25 429.5,-6 326.5,-6"/>
<text text-anchor="middle" x="378" y="-13" font-family="Helvetica,sans-Serif" font-size="10.00" fill="#000000">deal.II/fe/mapping.h</text>
</g>
<!-- Node10&#45;&gt;Node14 -->
<g id="edge14" class="edge">
<title>Node10&#45;&gt;Node14</title>
<path fill="none" stroke="#191970" d="M455.1052,-72.9005C440.5358,-62.0544 416.5978,-44.2339 399.2546,-31.3229"/>
<polygon fill="#191970" stroke="#191970" points="400.9823,-28.2457 390.8709,-25.0817 396.8022,-33.8606 400.9823,-28.2457"/>
</g>
<!-- Node15 -->
<g id="node16" class="node">
<title>Node15</title>
<polygon fill="none" stroke="#bfbfbf" points="566,-6 566,-25 606,-25 606,-6 566,-6"/>
<text text-anchor="middle" x="586" y="-13" font-family="Helvetica,sans-Serif" font-size="10.00" fill="#000000">utility</text>
</g>
<!-- Node10&#45;&gt;Node15 -->
<g id="edge15" class="edge">
<title>Node10&#45;&gt;Node15</title>
<path fill="none" stroke="#191970" d="M484.9065,-72.9005C504.622,-61.7062 537.4222,-43.0823 560.2959,-30.0947"/>
<polygon fill="#191970" stroke="#191970" points="562.157,-33.0629 569.1248,-25.0817 558.7007,-26.9757 562.157,-33.0629"/>
</g>
<!-- Node16&#45;&gt;Node5 -->
<g id="edge18" class="edge">
<title>Node16&#45;&gt;Node5</title>
<path fill="none" stroke="#191970" d="M576.5625,-195.8906C582.6908,-186.917 591.9985,-173.2879 599.5372,-162.2491"/>
<polygon fill="#191970" stroke="#191970" points="602.5956,-163.9768 605.345,-153.7449 596.815,-160.029 602.5956,-163.9768"/>
</g>
<!-- Node16&#45;&gt;Node17 -->
<g id="edge19" class="edge">
<title>Node16&#45;&gt;Node17</title>
<path fill="none" stroke="#191970" d="M531.9211,-197.3967C479.868,-186.3197 386.4717,-166.4447 329.4796,-154.3166"/>
<polygon fill="#191970" stroke="#191970" points="330.134,-150.8776 319.6245,-152.2194 328.677,-157.7242 330.134,-150.8776"/>
</g>
<!-- Node16&#45;&gt;Node21 -->
<g id="edge27" class="edge">
<title>Node16&#45;&gt;Node21</title>
<path fill="none" stroke="#191970" d="M594.0625,-195.8906C620.9676,-185.1461 664.5857,-167.7271 693.7712,-156.0719"/>
<polygon fill="#191970" stroke="#191970" points="695.0818,-159.3173 703.0706,-152.3582 692.4857,-152.8165 695.0818,-159.3173"/>
</g>
<!-- Node17&#45;&gt;Node2 -->
<g id="edge25" class="edge">
<title>Node17&#45;&gt;Node2</title>
<path fill="none" stroke="#191970" d="M293.8125,-134.3906C306.6901,-124.7324 326.7584,-109.6812 341.972,-98.271"/>
<polygon fill="#191970" stroke="#191970" points="344.3775,-100.8419 350.2775,-92.0419 340.1774,-95.2419 344.3775,-100.8419"/>
</g>
<!-- Node17&#45;&gt;Node12 -->
<g id="edge20" class="edge">
<title>Node17&#45;&gt;Node12</title>
<path fill="none" stroke="#191970" d="M258.2199,-134.3948C239.7812,-126.0924 213.5856,-113.073 193,-98 166.5157,-78.6079 140.4019,-50.8335 124.7394,-32.9808"/>
<polygon fill="#191970" stroke="#191970" points="127.117,-30.3787 117.9342,-25.094 121.8171,-34.9517 127.117,-30.3787"/>
</g>
<!-- Node17&#45;&gt;Node13 -->
<g id="edge21" class="edge">
<title>Node17&#45;&gt;Node13</title>
<path fill="none" stroke="#191970" d="M249.4968,-134.3744C232.1841,-127.2912 212.204,-115.7494 202,-98 188.8219,-75.0773 210.719,-48.6791 229.0867,-32.0431"/>
<polygon fill="#191970" stroke="#191970" points="231.8288,-34.3021 237.1389,-25.1341 227.2705,-28.9897 231.8288,-34.3021"/>
</g>
<!-- Node17&#45;&gt;Node14 -->
<g id="edge24" class="edge">
<title>Node17&#45;&gt;Node14</title>
<path fill="none" stroke="#191970" d="M267.915,-134.4749C249.1618,-119.6441 218.6156,-90.3153 235,-67 241.0841,-58.3422 295.6872,-40.3147 335.6178,-28.0584"/>
<polygon fill="#191970" stroke="#191970" points="336.8678,-31.3366 345.4151,-25.076 334.8292,-24.64 336.8678,-31.3366"/>
</g>
<!-- Node18 -->
<g id="node19" class="node">
<title>Node18</title>
<polygon fill="none" stroke="#bfbfbf" points="244,-73 244,-92 318,-92 318,-73 244,-73"/>
<text text-anchor="middle" x="281" y="-80" font-family="Helvetica,sans-Serif" font-size="10.00" fill="#000000">deal.II/fe/fe.h</text>
</g>
<!-- Node17&#45;&gt;Node18 -->
<g id="edge22" class="edge">
<title>Node17&#45;&gt;Node18</title>
<path fill="none" stroke="#191970" d="M281,-134.3906C281,-125.8657 281,-113.1392 281,-102.4235"/>
<polygon fill="#191970" stroke="#191970" points="284.5001,-102.2448 281,-92.2449 277.5001,-102.2449 284.5001,-102.2448"/>
</g>
<!-- Node19 -->
<g id="node20" class="node">
<title>Node19</title>
<polygon fill="none" stroke="#bfbfbf" points="0,-73 0,-92 112,-92 112,-73 0,-73"/>
<text text-anchor="middle" x="56" y="-80" font-family="Helvetica,sans-Serif" font-size="10.00" fill="#000000">deal.II/fe/fe_system.h</text>
</g>
<!-- Node17&#45;&gt;Node19 -->
<g id="edge23" class="edge">
<title>Node17&#45;&gt;Node19</title>
<path fill="none" stroke="#191970" d="M245.8438,-134.3906C206.7111,-123.6944 143.379,-106.3836 100.7418,-94.7294"/>
<polygon fill="#191970" stroke="#191970" points="101.4784,-91.3024 90.9094,-92.0419 99.6327,-98.0547 101.4784,-91.3024"/>
</g>
<!-- Node20 -->
<g id="node21" class="node">
<title>Node20</title>
<polygon fill="none" stroke="#bfbfbf" points="845.5,-73 845.5,-92 886.5,-92 886.5,-73 845.5,-73"/>
<text text-anchor="middle" x="866" y="-80" font-family="Helvetica,sans-Serif" font-size="10.00" fill="#000000">string</text>
</g>
<!-- Node17&#45;&gt;Node20 -->
<g id="edge26" class="edge">
<title>Node17&#45;&gt;Node20</title>
<path fill="none" stroke="#191970" d="M319.7363,-142.8381C429.2866,-139.2297 739.683,-126.6911 837,-98 838.4716,-97.5661 839.9538,-97.0526 841.4282,-96.4808"/>
<polygon fill="#191970" stroke="#191970" points="843.2633,-99.4871 850.8493,-92.0909 840.3067,-93.1421 843.2633,-99.4871"/>
</g>
<!-- Node21&#45;&gt;Node2 -->
<g id="edge33" class="edge">
<title>Node21&#45;&gt;Node2</title>
<path fill="none" stroke="#191970" d="M703.3462,-141.2156C634.2619,-131.883 414.7544,-102.0655 400,-98 397.6773,-97.36 395.3067,-96.6099 392.9435,-95.7912"/>
<polygon fill="#191970" stroke="#191970" points="394.0033,-92.4493 383.4128,-92.1454 391.5023,-98.9873 394.0033,-92.4493"/>
</g>
<!-- Node21&#45;&gt;Node7 -->
<g id="edge29" class="edge">
<title>Node21&#45;&gt;Node7</title>
<path fill="none" stroke="#191970" d="M706.5,-134.3906C688.2535,-124.3713 659.4376,-108.5483 638.4194,-97.0071"/>
<polygon fill="#191970" stroke="#191970" points="639.8272,-93.7872 629.3771,-92.0419 636.458,-99.923 639.8272,-93.7872"/>
</g>
<!-- Node21&#45;&gt;Node9 -->
<g id="edge35" class="edge">
<title>Node21&#45;&gt;Node9</title>
<path fill="none" stroke="#191970" d="M744.687,-143.2043C826.9076,-139.857 1127.6272,-125.7891 1159,-98 1176.4847,-82.5126 1179.5831,-54.4614 1179.4187,-35.4131"/>
<polygon fill="#191970" stroke="#191970" points="1182.9055,-35.0083 1179.0116,-25.155 1175.911,-35.286 1182.9055,-35.0083"/>
</g>
<!-- Node22 -->
<g id="node23" class="node">
<title>Node22</title>
<polygon fill="none" stroke="#bfbfbf" points="1206,-73 1206,-92 1332,-92 1332,-73 1206,-73"/>
<text text-anchor="middle" x="1269" y="-80" font-family="Helvetica,sans-Serif" font-size="10.00" fill="#000000">deal.II/base/exceptions.h</text>
</g>
<!-- Node21&#45;&gt;Node22 -->
<g id="edge28" class="edge">
<title>Node21&#45;&gt;Node22</title>
<path fill="none" stroke="#191970" d="M744.619,-142.7175C810.2378,-138.477 1020.0125,-123.6961 1192,-98 1199.681,-96.8524 1207.7554,-95.4483 1215.6681,-93.9585"/>
<polygon fill="#191970" stroke="#191970" points="1216.4122,-97.3795 1225.5624,-92.0386 1215.0788,-90.5077 1216.4122,-97.3795"/>
</g>
<!-- Node23 -->
<g id="node24" class="node">
<title>Node23</title>
<polygon fill="none" stroke="#bfbfbf" points="712,-73 712,-92 750,-92 750,-73 712,-73"/>
<text text-anchor="middle" x="731" y="-80" font-family="Helvetica,sans-Serif" font-size="10.00" fill="#000000">array</text>
</g>
<!-- Node21&#45;&gt;Node23 -->
<g id="edge30" class="edge">
<title>Node21&#45;&gt;Node23</title>
<path fill="none" stroke="#191970" d="M725.0938,-134.3906C726.0641,-125.8657 727.5126,-113.1392 728.7323,-102.4235"/>
<polygon fill="#191970" stroke="#191970" points="732.2374,-102.5766 729.8908,-92.2449 725.2823,-101.7849 732.2374,-102.5766"/>
</g>
<!-- Node24 -->
<g id="node25" class="node">
<title>Node24</title>
<polygon fill="none" stroke="#bfbfbf" points="768.5,-73 768.5,-92 827.5,-92 827.5,-73 768.5,-73"/>
<text text-anchor="middle" x="798" y="-80" font-family="Helvetica,sans-Serif" font-size="10.00" fill="#000000">exception</text>
</g>
<!-- Node21&#45;&gt;Node24 -->
<g id="edge31" class="edge">
<title>Node21&#45;&gt;Node24</title>
<path fill="none" stroke="#191970" d="M735.5625,-134.3906C747.0079,-124.8786 764.7473,-110.1357 778.397,-98.7917"/>
<polygon fill="#191970" stroke="#191970" points="780.8208,-101.3283 786.2745,-92.2449 776.3467,-95.9447 780.8208,-101.3283"/>
</g>
<!-- Node25 -->
<g id="node26" class="node">
<title>Node25</title>
<polygon fill="none" stroke="#bfbfbf" points="904.5,-73 904.5,-92 963.5,-92 963.5,-73 904.5,-73"/>
<text text-anchor="middle" x="934" y="-80" font-family="Helvetica,sans-Serif" font-size="10.00" fill="#000000">functional</text>
</g>
<!-- Node21&#45;&gt;Node25 -->
<g id="edge32" class="edge">
<title>Node21&#45;&gt;Node25</title>
<path fill="none" stroke="#191970" d="M744.6354,-139.3705C777.1745,-131.8721 842.2359,-116.0744 896,-98 897.9248,-97.3529 899.8919,-96.6578 901.8682,-95.9334"/>
<polygon fill="#191970" stroke="#191970" points="903.6,-99.0169 911.6714,-92.1537 901.0817,-92.4856 903.6,-99.0169"/>
</g>
<!-- Node26 -->
<g id="node27" class="node">
<title>Node26</title>
<polygon fill="none" stroke="#bfbfbf" points="658.5,-73 658.5,-92 693.5,-92 693.5,-73 658.5,-73"/>
<text text-anchor="middle" x="676" y="-80" font-family="Helvetica,sans-Serif" font-size="10.00" fill="#000000">new</text>
</g>
<!-- Node21&#45;&gt;Node26 -->
<g id="edge34" class="edge">
<title>Node21&#45;&gt;Node26</title>
<path fill="none" stroke="#191970" d="M716.5,-134.3906C709.4262,-125.3273 698.6458,-111.5149 689.9854,-100.4188"/>
<polygon fill="#191970" stroke="#191970" points="692.5176,-97.9746 683.6057,-92.2449 686.9994,-102.2815 692.5176,-97.9746"/>
</g>
<!-- Node27&#45;&gt;Node9 -->
<g id="edge44" class="edge">
<title>Node27&#45;&gt;Node9</title>
<path fill="none" stroke="#191970" d="M1562.6939,-190.3793C1572.1838,-162.2928 1587.3676,-101.7731 1557,-67 1534.253,-40.953 1297.576,-23.1958 1210.1875,-17.4839"/>
<polygon fill="#191970" stroke="#191970" points="1210.2624,-13.9816 1200.0583,-16.8324 1209.813,-20.9672 1210.2624,-13.9816"/>
</g>
<!-- Node27&#45;&gt;Node20 -->
<g id="edge43" class="edge">
<title>Node27&#45;&gt;Node20</title>
<path fill="none" stroke="#191970" d="M1509.2388,-203.0976C1398.6254,-196.3911 1117.4134,-172.7533 896,-98 894.5767,-97.5195 893.1377,-96.9798 891.7005,-96.3977"/>
<polygon fill="#191970" stroke="#191970" points="892.9718,-93.1297 882.4255,-92.1167 890.0382,-99.4854 892.9718,-93.1297"/>
</g>
<!-- Node28 -->
<g id="node29" class="node">
<title>Node28</title>
<polygon fill="none" stroke="#bfbfbf" points="1604,-134.5 1604,-153.5 1644,-153.5 1644,-134.5 1604,-134.5"/>
<text text-anchor="middle" x="1624" y="-141.5" font-family="Helvetica,sans-Serif" font-size="10.00" fill="#000000">limits</text>
</g>
<!-- Node27&#45;&gt;Node28 -->
<g id="edge39" class="edge">
<title>Node27&#45;&gt;Node28</title>
<path fill="none" stroke="#191970" d="M1573.5618,-190.2977C1583.3465,-181.3163 1595.7474,-169.9334 1605.8043,-160.702"/>
<polygon fill="#191970" stroke="#191970" points="1608.2722,-163.1876 1613.2725,-153.8469 1603.5387,-158.0307 1608.2722,-163.1876"/>
</g>
<!-- Node29 -->
<g id="node30" class="node">
<title>Node29</title>
<polygon fill="none" stroke="#bfbfbf" points="1512.5,-73 1512.5,-92 1547.5,-92 1547.5,-73 1512.5,-73"/>
<text text-anchor="middle" x="1530" y="-80" font-family="Helvetica,sans-Serif" font-size="10.00" fill="#000000">map</text>
</g>
<!-- Node27&#45;&gt;Node29 -->
<g id="edge40" class="edge">
<title>Node27&#45;&gt;Node29</title>
<path fill="none" stroke="#191970" d="M1553.6893,-190.4178C1548.8047,-168.1659 1539.6654,-126.5314 1534.2785,-101.9908"/>
<polygon fill="#191970" stroke="#191970" points="1537.6589,-101.0662 1532.0962,-92.0493 1530.8217,-102.5672 1537.6589,-101.0662"/>
</g>
<!-- Node30 -->
<g id="node31" class="node">
<title>Node30</title>
<polygon fill="none" stroke="#bfbfbf" points="2146.5,-134.5 2146.5,-153.5 2187.5,-153.5 2187.5,-134.5 2146.5,-134.5"/>
<text text-anchor="middle" x="2167" y="-141.5" font-family="Helvetica,sans-Serif" font-size="10.00" fill="#000000">regex</text>
</g>
<!-- Node27&#45;&gt;Node30 -->
<g id="edge41" class="edge">
<title>Node27&#45;&gt;Node30</title>
<path fill="none" stroke="#191970" d="M1604.8072,-202.6959C1721.261,-195.6407 2018.0987,-176.2498 2136.3174,-153.6142"/>
<polygon fill="#191970" stroke="#191970" points="2137.0773,-157.0315 2146.19,-151.627 2135.6959,-150.1692 2137.0773,-157.0315"/>
</g>
<!-- Node31 -->
<g id="node32" class="node">
<title>Node31</title>
<polygon fill="none" stroke="#bfbfbf" points="2206,-134.5 2206,-153.5 2258,-153.5 2258,-134.5 2206,-134.5"/>
<text text-anchor="middle" x="2232" y="-141.5" font-family="Helvetica,sans-Serif" font-size="10.00" fill="#000000">sstream</text>
</g>
<!-- Node27&#45;&gt;Node31 -->
<g id="edge42" class="edge">
<title>Node27&#45;&gt;Node31</title>
<path fill="none" stroke="#191970" d="M1604.7866,-204.877C1710.1713,-202.8128 1970.4101,-193.9253 2195.7331,-153.9063"/>
<polygon fill="#191970" stroke="#191970" points="2196.5372,-157.3179 2205.7585,-152.1008 2195.2964,-150.4288 2196.5372,-157.3179"/>
</g>
<!-- Node32 -->
<g id="node33" class="node">
<title>Node32</title>
<g id="a_node33"><a xlink:href="general__exceptions_8h.html" target="_top" xlink:title="Definition of self&#45;defined general exceptions. ">
<polygon fill="none" stroke="#000000" points="1222.5,-134.5 1222.5,-153.5 1331.5,-153.5 1331.5,-134.5 1222.5,-134.5"/>
<text text-anchor="middle" x="1277" y="-141.5" font-family="Helvetica,sans-Serif" font-size="10.00" fill="#000000">general_exceptions.h</text>
</a>
</g>
</g>
<!-- Node27&#45;&gt;Node32 -->
<g id="edge45" class="edge">
<title>Node27&#45;&gt;Node32</title>
<path fill="none" stroke="#191970" d="M1509.1844,-194.9977C1459.544,-184.0945 1382.0687,-167.0776 1330.4408,-155.7379"/>
<polygon fill="#191970" stroke="#191970" points="1330.9938,-152.276 1320.4757,-153.5491 1329.492,-159.113 1330.9938,-152.276"/>
</g>
<!-- Node33 -->
<g id="node34" class="node">
<title>Node33</title>
<g id="a_node34"><a xlink:href="generic__functors_8h.html" target="_top" xlink:title="This header file contains a set of self&#45;defined generic functors. ">
<polygon fill="none" stroke="#000000" points="1357.5,-134.5 1357.5,-153.5 1454.5,-153.5 1454.5,-134.5 1357.5,-134.5"/>
<text text-anchor="middle" x="1406" y="-141.5" font-family="Helvetica,sans-Serif" font-size="10.00" fill="#000000">generic_functors.h</text>
</a>
</g>
</g>
<!-- Node27&#45;&gt;Node33 -->
<g id="edge47" class="edge">
<title>Node27&#45;&gt;Node33</title>
<path fill="none" stroke="#191970" d="M1520.0612,-190.4554C1495.198,-180.329 1462.7082,-167.0964 1438.7664,-157.3453"/>
<polygon fill="#191970" stroke="#191970" points="1439.9812,-154.0609 1429.3996,-153.5303 1437.3407,-160.5438 1439.9812,-154.0609"/>
</g>
<!-- Node36 -->
<g id="node37" class="node">
<title>Node36</title>
<g id="a_node37"><a xlink:href="lapack__helpers_8h.html" target="_top" xlink:title="Exposes LAPACK helper functions defined in lapack_full_matrix.cc and define new ones by following the...">
<polygon fill="none" stroke="#000000" points="2038,-134.5 2038,-153.5 2128,-153.5 2128,-134.5 2038,-134.5"/>
<text text-anchor="middle" x="2083" y="-141.5" font-family="Helvetica,sans-Serif" font-size="10.00" fill="#000000">lapack_helpers.h</text>
</a>
</g>
</g>
<!-- Node27&#45;&gt;Node36 -->
<g id="edge55" class="edge">
<title>Node27&#45;&gt;Node36</title>
<path fill="none" stroke="#191970" d="M1604.6067,-199.9338C1702.1357,-188.5307 1924.1642,-162.5711 2027.8021,-150.4537"/>
<polygon fill="#191970" stroke="#191970" points="2028.2268,-153.928 2037.7526,-149.2903 2027.4138,-146.9754 2028.2268,-153.928"/>
</g>
<!-- Node32&#45;&gt;Node22 -->
<g id="edge46" class="edge">
<title>Node32&#45;&gt;Node22</title>
<path fill="none" stroke="#191970" d="M1275.75,-134.3906C1274.6411,-125.8657 1272.9856,-113.1392 1271.5917,-102.4235"/>
<polygon fill="#191970" stroke="#191970" points="1275.0284,-101.7098 1270.2676,-92.2449 1268.0869,-102.6128 1275.0284,-101.7098"/>
</g>
<!-- Node33&#45;&gt;Node6 -->
<g id="edge49" class="edge">
<title>Node33&#45;&gt;Node6</title>
<path fill="none" stroke="#191970" d="M1358.2129,-134.4581C1303.5063,-123.5345 1213.934,-105.6492 1155.4677,-93.9749"/>
<polygon fill="#191970" stroke="#191970" points="1156.1375,-90.5396 1145.6457,-92.0137 1154.7668,-97.4041 1156.1375,-90.5396"/>
</g>
<!-- Node33&#45;&gt;Node8 -->
<g id="edge52" class="edge">
<title>Node33&#45;&gt;Node8</title>
<path fill="none" stroke="#191970" d="M1357.4001,-136.3364C1351.8727,-135.5203 1346.3171,-134.7247 1341,-134 1206.6284,-115.6868 1168.3816,-135.3062 1038,-98 1036.0831,-97.4515 1034.1383,-96.8033 1032.2014,-96.0883"/>
<polygon fill="#191970" stroke="#191970" points="1033.3246,-92.7636 1022.7501,-92.1079 1030.6077,-99.2149 1033.3246,-92.7636"/>
</g>
<!-- Node33&#45;&gt;Node9 -->
<g id="edge54" class="edge">
<title>Node33&#45;&gt;Node9</title>
<path fill="none" stroke="#191970" d="M1400.4708,-134.4485C1390.5942,-118.2166 1368.368,-85.2399 1341,-67 1300.4918,-40.0026 1244.9739,-26.4585 1210.312,-20.2114"/>
<polygon fill="#191970" stroke="#191970" points="1210.7099,-16.7288 1200.2641,-18.5001 1209.5345,-23.6295 1210.7099,-16.7288"/>
</g>
<!-- Node33&#45;&gt;Node22 -->
<g id="edge48" class="edge">
<title>Node33&#45;&gt;Node22</title>
<path fill="none" stroke="#191970" d="M1384.5938,-134.3906C1361.7717,-124.1457 1325.4321,-107.8326 1299.5943,-96.2339"/>
<polygon fill="#191970" stroke="#191970" points="1300.8123,-92.9443 1290.2559,-92.0419 1297.9455,-99.3303 1300.8123,-92.9443"/>
</g>
<!-- Node33&#45;&gt;Node29 -->
<g id="edge53" class="edge">
<title>Node33&#45;&gt;Node29</title>
<path fill="none" stroke="#191970" d="M1425.375,-134.3906C1446.3284,-123.9984 1479.871,-107.3624 1503.3114,-95.7367"/>
<polygon fill="#191970" stroke="#191970" points="1504.962,-98.8249 1512.3655,-91.2461 1501.8517,-92.5539 1504.962,-98.8249"/>
</g>
<!-- Node34 -->
<g id="node35" class="node">
<title>Node34</title>
<polygon fill="none" stroke="#bfbfbf" points="1618.5,-.5 1618.5,-30.5 1709.5,-30.5 1709.5,-.5 1618.5,-.5"/>
<text text-anchor="start" x="1626.5" y="-18.5" font-family="Helvetica,sans-Serif" font-size="10.00" fill="#000000">deal.II/lac/lapack</text>
<text text-anchor="middle" x="1664" y="-7.5" font-family="Helvetica,sans-Serif" font-size="10.00" fill="#000000">_support.h</text>
</g>
<!-- Node33&#45;&gt;Node34 -->
<g id="edge50" class="edge">
<title>Node33&#45;&gt;Node34</title>
<path fill="none" stroke="#191970" d="M1418.6869,-134.1638C1430.6532,-124.8731 1449.0795,-110.5332 1465,-98 1482.3978,-84.3038 1484.479,-77.45 1504,-67 1536.8485,-49.4155 1576.7315,-36.5607 1608.4606,-28.092"/>
<polygon fill="#191970" stroke="#191970" points="1609.6574,-31.3974 1618.4565,-25.4961 1607.8978,-24.6221 1609.6574,-31.3974"/>
</g>
<!-- Node35 -->
<g id="node36" class="node">
<title>Node35</title>
<polygon fill="none" stroke="#bfbfbf" points="1388.5,-73 1388.5,-92 1455.5,-92 1455.5,-73 1388.5,-73"/>
<text text-anchor="middle" x="1422" y="-80" font-family="Helvetica,sans-Serif" font-size="10.00" fill="#000000">forward_list</text>
</g>
<!-- Node33&#45;&gt;Node35 -->
<g id="edge51" class="edge">
<title>Node33&#45;&gt;Node35</title>
<path fill="none" stroke="#191970" d="M1408.5,-134.3906C1410.7412,-125.776 1414.0986,-112.8708 1416.9045,-102.0858"/>
<polygon fill="#191970" stroke="#191970" points="1420.3341,-102.804 1419.4648,-92.2449 1413.5596,-101.0414 1420.3341,-102.804"/>
</g>
<!-- Node36&#45;&gt;Node34 -->
<g id="edge61" class="edge">
<title>Node36&#45;&gt;Node34</title>
<path fill="none" stroke="#191970" d="M2128.2551,-135.3245C2131.5461,-134.8311 2134.8201,-134.3817 2138,-134 2273.1797,-117.7757 2840.9582,-165.5324 2747,-67 2711.2536,-29.5134 1936.1116,-18.4152 1719.6801,-16.0417"/>
<polygon fill="#191970" stroke="#191970" points="1719.5389,-12.5401 1709.5018,-15.932 1719.4634,-19.5397 1719.5389,-12.5401"/>
</g>
<!-- Node37 -->
<g id="node38" class="node">
<title>Node37</title>
<polygon fill="none" stroke="#bfbfbf" points="2088,-73 2088,-92 2204,-92 2204,-73 2088,-73"/>
<text text-anchor="middle" x="2146" y="-80" font-family="Helvetica,sans-Serif" font-size="10.00" fill="#000000">deal.II/base/numbers.h</text>
</g>
<!-- Node36&#45;&gt;Node37 -->
<g id="edge56" class="edge">
<title>Node36&#45;&gt;Node37</title>
<path fill="none" stroke="#191970" d="M2092.8438,-134.3906C2102.4039,-125.0581 2117.1223,-110.6902 2128.6495,-99.4374"/>
<polygon fill="#191970" stroke="#191970" points="2131.3066,-101.7348 2136.0175,-92.2449 2126.4168,-96.7257 2131.3066,-101.7348"/>
</g>
<!-- Node38 -->
<g id="node39" class="node">
<title>Node38</title>
<polygon fill="none" stroke="#bfbfbf" points="2222,-67.5 2222,-97.5 2350,-97.5 2350,-67.5 2222,-67.5"/>
<text text-anchor="start" x="2230" y="-85.5" font-family="Helvetica,sans-Serif" font-size="10.00" fill="#000000">deal.II/lac/blas_extension</text>
<text text-anchor="middle" x="2286" y="-74.5" font-family="Helvetica,sans-Serif" font-size="10.00" fill="#000000">_templates.h</text>
</g>
<!-- Node36&#45;&gt;Node38 -->
<g id="edge57" class="edge">
<title>Node36&#45;&gt;Node38</title>
<path fill="none" stroke="#191970" d="M2114.7188,-134.3906C2144.609,-125.3352 2190.1476,-111.539 2226.7575,-100.4479"/>
<polygon fill="#191970" stroke="#191970" points="2227.785,-103.7937 2236.3406,-97.5446 2225.7553,-97.0944 2227.785,-103.7937"/>
</g>
<!-- Node39 -->
<g id="node40" class="node">
<title>Node39</title>
<polygon fill="none" stroke="#bfbfbf" points="2368,-73 2368,-92 2494,-92 2494,-73 2368,-73"/>
<text text-anchor="middle" x="2431" y="-80" font-family="Helvetica,sans-Serif" font-size="10.00" fill="#000000">deal.II/lac/block_vector.h</text>
</g>
<!-- Node36&#45;&gt;Node39 -->
<g id="edge58" class="edge">
<title>Node36&#45;&gt;Node39</title>
<path fill="none" stroke="#191970" d="M2128.011,-135.7467C2131.39,-135.1484 2134.7482,-134.5604 2138,-134 2236.0711,-117.0982 2261.2136,-116.4779 2359,-98 2365.2663,-96.8159 2371.8238,-95.5049 2378.3212,-94.1613"/>
<polygon fill="#191970" stroke="#191970" points="2379.365,-97.5185 2388.4315,-92.0367 2377.9254,-90.6681 2379.365,-97.5185"/>
</g>
<!-- Node40 -->
<g id="node41" class="node">
<title>Node40</title>
<polygon fill="none" stroke="#bfbfbf" points="2512,-73 2512,-92 2628,-92 2628,-73 2512,-73"/>
<text text-anchor="middle" x="2570" y="-80" font-family="Helvetica,sans-Serif" font-size="10.00" fill="#000000">deal.II/lac/full_matrix.h</text>
</g>
<!-- Node36&#45;&gt;Node40 -->
<g id="edge59" class="edge">
<title>Node36&#45;&gt;Node40</title>
<path fill="none" stroke="#191970" d="M2128.2736,-135.4664C2131.5602,-134.9397 2134.8282,-134.444 2138,-134 2299.4353,-111.4012 2342.1468,-124.4254 2503,-98 2509.3398,-96.9585 2515.9747,-95.6699 2522.5006,-94.2843"/>
<polygon fill="#191970" stroke="#191970" points="2523.5998,-97.6258 2532.6077,-92.0483 2522.0878,-90.791 2523.5998,-97.6258"/>
</g>
<!-- Node41 -->
<g id="node42" class="node">
<title>Node41</title>
<polygon fill="none" stroke="#bfbfbf" points="2646.5,-67.5 2646.5,-97.5 2737.5,-97.5 2737.5,-67.5 2646.5,-67.5"/>
<text text-anchor="start" x="2654.5" y="-85.5" font-family="Helvetica,sans-Serif" font-size="10.00" fill="#000000">deal.II/lac/lapack</text>
<text text-anchor="middle" x="2692" y="-74.5" font-family="Helvetica,sans-Serif" font-size="10.00" fill="#000000">_full_matrix.h</text>
</g>
<!-- Node36&#45;&gt;Node41 -->
<g id="edge60" class="edge">
<title>Node36&#45;&gt;Node41</title>
<path fill="none" stroke="#191970" d="M2128.2609,-135.3714C2131.5506,-134.867 2134.8227,-134.4023 2138,-134 2355.3619,-106.4806 2416.2042,-135.4791 2636.3208,-97.8659"/>
<polygon fill="#191970" stroke="#191970" points="2636.99,-101.3022 2646.2443,-96.1439 2635.7931,-94.4053 2636.99,-101.3022"/>
</g>
<!-- Node42 -->
<g id="node43" class="node">
<title>Node42</title>
<polygon fill="none" stroke="#bfbfbf" points="2794.5,-67.5 2794.5,-97.5 2885.5,-97.5 2885.5,-67.5 2794.5,-67.5"/>
<text text-anchor="start" x="2802.5" y="-85.5" font-family="Helvetica,sans-Serif" font-size="10.00" fill="#000000">deal.II/lac/lapack</text>
<text text-anchor="middle" x="2840" y="-74.5" font-family="Helvetica,sans-Serif" font-size="10.00" fill="#000000">_templates.h</text>
</g>
<!-- Node36&#45;&gt;Node42 -->
<g id="edge62" class="edge">
<title>Node36&#45;&gt;Node42</title>
<path fill="none" stroke="#191970" d="M2128.2538,-135.3135C2131.5451,-134.8227 2134.8195,-134.3768 2138,-134 2421.7965,-100.3745 2497.6186,-141.9527 2780,-98 2781.4617,-97.7725 2782.9395,-97.5247 2784.4274,-97.2595"/>
<polygon fill="#191970" stroke="#191970" points="2785.2083,-100.6728 2794.3314,-95.2859 2783.8402,-93.8077 2785.2083,-100.6728"/>
</g>
<!-- Node43 -->
<g id="node44" class="node">
<title>Node43</title>
<polygon fill="none" stroke="#bfbfbf" points="1742,-67.5 1742,-97.5 1834,-97.5 1834,-67.5 1742,-67.5"/>
<text text-anchor="start" x="1750" y="-85.5" font-family="Helvetica,sans-Serif" font-size="10.00" fill="#000000">deal.II/lac/sparse</text>
<text text-anchor="middle" x="1788" y="-74.5" font-family="Helvetica,sans-Serif" font-size="10.00" fill="#000000">_matrix.h</text>
</g>
<!-- Node36&#45;&gt;Node43 -->
<g id="edge63" class="edge">
<title>Node36&#45;&gt;Node43</title>
<path fill="none" stroke="#191970" d="M2037.8425,-136.4174C1989.6164,-128.0615 1911.06,-113.7076 1844,-98 1843.8987,-97.9763 1843.7973,-97.9525 1843.6959,-97.9286"/>
<polygon fill="#191970" stroke="#191970" points="1844.616,-94.5507 1834.0699,-95.5655 1842.947,-101.3488 1844.616,-94.5507"/>
</g>
<!-- Node44 -->
<g id="node45" class="node">
<title>Node44</title>
<polygon fill="none" stroke="#bfbfbf" points="1852.5,-73 1852.5,-92 1953.5,-92 1953.5,-73 1852.5,-73"/>
<text text-anchor="middle" x="1903" y="-80" font-family="Helvetica,sans-Serif" font-size="10.00" fill="#000000">deal.II/lac/utilities.h</text>
</g>
<!-- Node36&#45;&gt;Node44 -->
<g id="edge64" class="edge">
<title>Node36&#45;&gt;Node44</title>
<path fill="none" stroke="#191970" d="M2054.875,-134.3906C2024.0972,-123.8749 1974.6079,-106.966 1940.5345,-95.3243"/>
<polygon fill="#191970" stroke="#191970" points="1941.522,-91.9631 1930.9275,-92.0419 1939.2588,-98.5871 1941.522,-91.9631"/>
</g>
<!-- Node45 -->
<g id="node46" class="node">
<title>Node45</title>
<polygon fill="none" stroke="#bfbfbf" points="1972,-73 1972,-92 2070,-92 2070,-73 1972,-73"/>
<text text-anchor="middle" x="2021" y="-80" font-family="Helvetica,sans-Serif" font-size="10.00" fill="#000000">deal.II/lac/vector.h</text>
</g>
<!-- Node36&#45;&gt;Node45 -->
<g id="edge65" class="edge">
<title>Node36&#45;&gt;Node45</title>
<path fill="none" stroke="#191970" d="M2073.3125,-134.3906C2063.9041,-125.0581 2049.4193,-110.6902 2038.0751,-99.4374"/>
<polygon fill="#191970" stroke="#191970" points="2040.3886,-96.8024 2030.8241,-92.2449 2035.4589,-101.7722 2040.3886,-96.8024"/>
</g>
<!-- Node46 -->
<g id="node47" class="node">
<title>Node46</title>
<g id="a_node47"><a xlink:href="lapack__templates__ext_8h.html" target="_top" xlink:title="Append more template based LAPACK functions to those existing in deal.ii. ">
<polygon fill="none" stroke="#000000" points="1604,-73 1604,-92 1724,-92 1724,-73 1604,-73"/>
<text text-anchor="middle" x="1664" y="-80" font-family="Helvetica,sans-Serif" font-size="10.00" fill="#000000">lapack_templates_ext.h</text>
</a>
</g>
</g>
<!-- Node36&#45;&gt;Node46 -->
<g id="edge66" class="edge">
<title>Node36&#45;&gt;Node46</title>
<path fill="none" stroke="#191970" d="M2037.7709,-139.3764C1970.8828,-132.2403 1841.7657,-117.3232 1733,-98 1726.7329,-96.8866 1720.1743,-95.5885 1713.6994,-94.2261"/>
<polygon fill="#191970" stroke="#191970" points="1714.1613,-90.7451 1703.6471,-92.0496 1712.68,-97.5866 1714.1613,-90.7451"/>
</g>
<!-- Node46&#45;&gt;Node34 -->
<g id="edge67" class="edge">
<title>Node46&#45;&gt;Node34</title>
<path fill="none" stroke="#191970" d="M1664,-72.9005C1664,-64.5099 1664,-51.9451 1664,-40.7085"/>
<polygon fill="#191970" stroke="#191970" points="1667.5001,-40.5217 1664,-30.5218 1660.5001,-40.5218 1667.5001,-40.5217"/>
</g>
</g>
</svg>
        <g id="navigator" transform="translate(0 0)" fill="#404254">
                <rect fill="#f2f5e9" fill-opacity="0.5" stroke="#606060" stroke-width=".5" x="0" y="0" width="60" height="60"/>
                <use id="zoomplus" xlink:href="#zoomPlus" x="17" y="9" onmousedown="handleZoom(evt,'in')"/>
                <use id="zoomminus" xlink:href="#zoomMin" x="42" y="9" onmousedown="handleZoom(evt,'out')"/>
                <use id="reset" xlink:href="#resetDef" x="30" y="36" onmousedown="handleReset()"/>
                <g id="arrowUp" xlink:href="#dirArrow" transform="translate(30 24)" onmousedown="handlePan(0,-1)">
                  <use xlink:href="#rim" fill="#404040">
                        <set attributeName="fill" to="#808080" begin="arrowUp.mouseover" end="arrowUp.mouseout"/>
                  </use>
                  <path fill="none" stroke="white" stroke-width="1.5" d="M0,-3.0v7 M-2.5,-0.5L0,-3.0L2.5,-0.5"/>
                </g>
                <g id="arrowRight" xlink:href="#dirArrow" transform="rotate(90) translate(36 -43)" onmousedown="handlePan(1,0)">
                  <use xlink:href="#rim" fill="#404040">
                        <set attributeName="fill" to="#808080" begin="arrowRight.mouseover" end="arrowRight.mouseout"/>
                  </use>
                  <path fill="none" stroke="white" stroke-width="1.5" d="M0,-3.0v7 M-2.5,-0.5L0,-3.0L2.5,-0.5"/>
                </g>
                <g id="arrowDown" xlink:href="#dirArrow" transform="rotate(180) translate(-30 -48)" onmousedown="handlePan(0,1)">
                  <use xlink:href="#rim" fill="#404040">
                        <set attributeName="fill" to="#808080" begin="arrowDown.mouseover" end="arrowDown.mouseout"/>
                  </use>
                  <path fill="none" stroke="white" stroke-width="1.5" d="M0,-3.0v7 M-2.5,-0.5L0,-3.0L2.5,-0.5"/>
                </g>
                <g id="arrowLeft" xlink:href="#dirArrow" transform="rotate(270) translate(-36 17)" onmousedown="handlePan(-1,0)">
                  <use xlink:href="#rim" fill="#404040">
                        <set attributeName="fill" to="#808080" begin="arrowLeft.mouseover" end="arrowLeft.mouseout"/>
                  </use>
                  <path fill="none" stroke="white" stroke-width="1.5" d="M0,-3.0v7 M-2.5,-0.5L0,-3.0L2.5,-0.5"/>
                </g>
        </g>
        <svg viewBox="0 0 15 15" width="100%" height="30px" preserveAspectRatio="xMaxYMin meet">
         <g id="arrow_out" transform="scale(0.3 0.3)">
          <a xlink:href="bct-extend-finer-than-partition_8cc__incl_org.svg" target="_base">
           <rect id="button" ry="5" rx="5" y="6" x="6" height="38" width="38"
                fill="#f2f5e9" fill-opacity="0.5" stroke="#606060" stroke-width="1.0"/>
           <path id="arrow"
             d="M 11.500037,31.436501 C 11.940474,20.09759 22.043105,11.32322 32.158766,21.979434 L 37.068811,17.246167 C 37.068811,17.246167 37.088388,32 37.088388,32 L 22.160133,31.978069 C 22.160133,31.978069 26.997745,27.140456 26.997745,27.140456 C 18.528582,18.264221 13.291696,25.230495 11.500037,31.436501 z"
             style="fill:#404040;"/>
          </a>
         </g>
        </svg>
</svg>
