<?xml version="1.0" encoding="UTF-8" standalone="no"?>
<!DOCTYPE svg PUBLIC "-//W3C//DTD SVG 1.1//EN"
 "http://www.w3.org/Graphics/SVG/1.1/DTD/svg11.dtd">
<!-- Generated by graphviz version 2.40.1 (20161225.0304)
 -->
<!-- Title: /home/jihuan/Projects/deal.ii/program/dealii&#45;9.1.1/examples/laplace&#45;bem/tests/block&#45;cluster&#45;tree&#45;hp&#45;fine&#45;non&#45;tensor&#45;product/bct&#45;hp&#45;fine&#45;ntp.cc Pages: 1 -->
<svg width="2612pt" height="441pt"
 viewBox="0.00 0.00 2612.00 441.00" xmlns="http://www.w3.org/2000/svg" xmlns:xlink="http://www.w3.org/1999/xlink">
<g id="graph0" class="graph" transform="scale(1 1) rotate(0) translate(4 437)">
<title>/home/jihuan/Projects/deal.ii/program/dealii&#45;9.1.1/examples/laplace&#45;bem/tests/block&#45;cluster&#45;tree&#45;hp&#45;fine&#45;non&#45;tensor&#45;product/bct&#45;hp&#45;fine&#45;ntp.cc</title>
<!-- Node0 -->
<g id="node1" class="node">
<title>Node0</title>
<polygon fill="#bfbfbf" stroke="#000000" points="1812,-358.5 1812,-432.5 1943,-432.5 1943,-358.5 1812,-358.5"/>
<text text-anchor="start" x="1820" y="-420.5" font-family="Helvetica,sans-Serif" font-size="10.00" fill="#000000">/home/jihuan/Projects</text>
<text text-anchor="start" x="1820" y="-409.5" font-family="Helvetica,sans-Serif" font-size="10.00" fill="#000000">/deal.ii/program/dealii</text>
<text text-anchor="start" x="1820" y="-398.5" font-family="Helvetica,sans-Serif" font-size="10.00" fill="#000000">&#45;9.1.1/examples/laplace</text>
<text text-anchor="start" x="1820" y="-387.5" font-family="Helvetica,sans-Serif" font-size="10.00" fill="#000000">&#45;bem/tests/block&#45;cluster</text>
<text text-anchor="start" x="1820" y="-376.5" font-family="Helvetica,sans-Serif" font-size="10.00" fill="#000000">&#45;tree&#45;hp&#45;fine&#45;non&#45;tensor</text>
<text text-anchor="middle" x="1877.5" y="-365.5" font-family="Helvetica,sans-Serif" font-size="10.00" fill="#000000">&#45;product/bct&#45;hp&#45;fine&#45;ntp.cc</text>
</g>
<!-- Node1 -->
<g id="node2" class="node">
<title>Node1</title>
<g id="a_node2"><a xlink:href="block__cluster__tree_8h.html" target="_top" xlink:title="Implementation of the class BlockClusterTree. ">
<polygon fill="none" stroke="#000000" points="1785.5,-302.5 1785.5,-321.5 1889.5,-321.5 1889.5,-302.5 1785.5,-302.5"/>
<text text-anchor="middle" x="1837.5" y="-309.5" font-family="Helvetica,sans-Serif" font-size="10.00" fill="#000000">block_cluster_tree.h</text>
</a>
</g>
</g>
<!-- Node0&#45;&gt;Node1 -->
<g id="edge1" class="edge">
<title>Node0&#45;&gt;Node1</title>
<path fill="none" stroke="#191970" d="M1859.6059,-358.1461C1855.1011,-348.7424 1850.4523,-339.0379 1846.5871,-330.9694"/>
<polygon fill="#191970" stroke="#191970" points="1849.6572,-329.2766 1842.1803,-321.7701 1843.3441,-332.3009 1849.6572,-329.2766"/>
</g>
<!-- Node14 -->
<g id="node15" class="node">
<title>Node14</title>
<g id="a_node15"><a xlink:href="cluster__tree_8h_source.html" target="_top" xlink:title="cluster_tree.h">
<polygon fill="none" stroke="#000000" points="1879.5,-185 1879.5,-204 1955.5,-204 1955.5,-185 1879.5,-185"/>
<text text-anchor="middle" x="1917.5" y="-192" font-family="Helvetica,sans-Serif" font-size="10.00" fill="#000000">cluster_tree.h</text>
</a>
</g>
</g>
<!-- Node0&#45;&gt;Node14 -->
<g id="edge54" class="edge">
<title>Node0&#45;&gt;Node14</title>
<path fill="none" stroke="#191970" d="M1889.1335,-358.347C1892.4792,-346.7819 1895.9177,-333.9331 1898.5,-322 1906.6686,-284.2528 1912.4581,-239.4587 1915.3641,-214.2713"/>
<polygon fill="#191970" stroke="#191970" points="1918.8601,-214.5015 1916.4946,-204.1741 1911.9036,-213.7226 1918.8601,-214.5015"/>
</g>
<!-- Node2 -->
<g id="node3" class="node">
<title>Node2</title>
<g id="a_node3"><a xlink:href="block__cluster_8h.html" target="_top" xlink:title="Implementation of the class BlockCluster. ">
<polygon fill="none" stroke="#000000" points="1946,-246.5 1946,-265.5 2029,-265.5 2029,-246.5 1946,-246.5"/>
<text text-anchor="middle" x="1987.5" y="-253.5" font-family="Helvetica,sans-Serif" font-size="10.00" fill="#000000">block_cluster.h</text>
</a>
</g>
</g>
<!-- Node1&#45;&gt;Node2 -->
<g id="edge2" class="edge">
<title>Node1&#45;&gt;Node2</title>
<path fill="none" stroke="#191970" d="M1863.2859,-302.3733C1887.9047,-293.1822 1925.19,-279.2624 1952.4875,-269.0713"/>
<polygon fill="#191970" stroke="#191970" points="1953.9063,-272.2777 1962.0506,-265.5011 1951.458,-265.7198 1953.9063,-272.2777"/>
</g>
<!-- Node1&#45;&gt;Node14 -->
<g id="edge34" class="edge">
<title>Node1&#45;&gt;Node14</title>
<path fill="none" stroke="#191970" d="M1844.0467,-302.3845C1857.4074,-282.761 1888.0005,-237.8274 1905.1921,-212.5772"/>
<polygon fill="#191970" stroke="#191970" points="1908.128,-214.4842 1910.8628,-204.2484 1902.3417,-210.5446 1908.128,-214.4842"/>
</g>
<!-- Node15 -->
<g id="node16" class="node">
<title>Node15</title>
<g id="a_node16"><a xlink:href="debug__tools_8h.html" target="_top" xlink:title="This file includes a bunch of helper functions for printing out and visualizing information about gri...">
<polygon fill="none" stroke="#000000" points="1470,-123.5 1470,-142.5 1547,-142.5 1547,-123.5 1470,-123.5"/>
<text text-anchor="middle" x="1508.5" y="-130.5" font-family="Helvetica,sans-Serif" font-size="10.00" fill="#000000">debug_tools.h</text>
</a>
</g>
</g>
<!-- Node1&#45;&gt;Node15 -->
<g id="edge35" class="edge">
<title>Node1&#45;&gt;Node15</title>
<path fill="none" stroke="#191970" d="M1819.8115,-302.3762C1765.3641,-272.7528 1600.0537,-182.8119 1535.1051,-147.4751"/>
<polygon fill="#191970" stroke="#191970" points="1536.7327,-144.3762 1526.2759,-142.6714 1533.3873,-150.525 1536.7327,-144.3762"/>
</g>
<!-- Node20 -->
<g id="node21" class="node">
<title>Node20</title>
<g id="a_node21"><a xlink:href="tree_8h.html" target="_top" xlink:title="Implementation of the classes for binary tree node, general tree node and functions for manipulating ...">
<polygon fill="none" stroke="#000000" points="1897,-123.5 1897,-142.5 1938,-142.5 1938,-123.5 1897,-123.5"/>
<text text-anchor="middle" x="1917.5" y="-130.5" font-family="Helvetica,sans-Serif" font-size="10.00" fill="#000000">tree.h</text>
</a>
</g>
</g>
<!-- Node1&#45;&gt;Node20 -->
<g id="edge53" class="edge">
<title>Node1&#45;&gt;Node20</title>
<path fill="none" stroke="#191970" d="M1838.0999,-302.3111C1839.8855,-279.4057 1846.635,-220.7121 1870.5,-179 1876.9903,-167.656 1887.0735,-157.2597 1896.2388,-149.2316"/>
<polygon fill="#191970" stroke="#191970" points="1898.4943,-151.9081 1903.9435,-142.822 1894.0175,-146.5267 1898.4943,-151.9081"/>
</g>
<!-- Node26 -->
<g id="node27" class="node">
<title>Node26</title>
<g id="a_node27"><a xlink:href="lapack__full__matrix__ext_8h_source.html" target="_top" xlink:title="lapack_full_matrix\l_ext.h">
<polygon fill="none" stroke="#000000" points="1716,-179.5 1716,-209.5 1811,-209.5 1811,-179.5 1716,-179.5"/>
<text text-anchor="start" x="1724" y="-197.5" font-family="Helvetica,sans-Serif" font-size="10.00" fill="#000000">lapack_full_matrix</text>
<text text-anchor="middle" x="1763.5" y="-186.5" font-family="Helvetica,sans-Serif" font-size="10.00" fill="#000000">_ext.h</text>
</a>
</g>
</g>
<!-- Node1&#45;&gt;Node26 -->
<g id="edge36" class="edge">
<title>Node1&#45;&gt;Node26</title>
<path fill="none" stroke="#191970" d="M1831.4443,-302.3845C1819.9578,-284.1458 1794.7017,-244.0432 1778.4266,-218.201"/>
<polygon fill="#191970" stroke="#191970" points="1781.3725,-216.3109 1773.0818,-209.7143 1775.4493,-220.0413 1781.3725,-216.3109"/>
</g>
<!-- Node3 -->
<g id="node4" class="node">
<title>Node3</title>
<g id="a_node4"><a xlink:href="cluster_8h.html" target="_top" xlink:title="Implementation of the class Cluster. ">
<polygon fill="none" stroke="#000000" points="2388.5,-123.5 2388.5,-142.5 2442.5,-142.5 2442.5,-123.5 2388.5,-123.5"/>
<text text-anchor="middle" x="2415.5" y="-130.5" font-family="Helvetica,sans-Serif" font-size="10.00" fill="#000000">cluster.h</text>
</a>
</g>
</g>
<!-- Node2&#45;&gt;Node3 -->
<g id="edge3" class="edge">
<title>Node2&#45;&gt;Node3</title>
<path fill="none" stroke="#191970" d="M2020.7283,-246.4507C2099.4451,-223.8289 2296.8205,-167.1065 2378.8539,-143.5315"/>
<polygon fill="#191970" stroke="#191970" points="2379.8553,-146.8854 2388.4995,-140.7595 2377.9218,-140.1577 2379.8553,-146.8854"/>
</g>
<!-- Node2&#45;&gt;Node14 -->
<g id="edge15" class="edge">
<title>Node2&#45;&gt;Node14</title>
<path fill="none" stroke="#191970" d="M1976.5625,-246.3906C1965.838,-236.9683 1949.2713,-222.4134 1936.4099,-211.1137"/>
<polygon fill="#191970" stroke="#191970" points="1938.4143,-208.2158 1928.5917,-204.2449 1933.7941,-213.4745 1938.4143,-208.2158"/>
</g>
<!-- Node4 -->
<g id="node5" class="node">
<title>Node4</title>
<polygon fill="none" stroke="#bfbfbf" points="2501,-62 2501,-81 2604,-81 2604,-62 2501,-62"/>
<text text-anchor="middle" x="2552.5" y="-69" font-family="Helvetica,sans-Serif" font-size="10.00" fill="#000000">deal.II/base/types.h</text>
</g>
<!-- Node3&#45;&gt;Node4 -->
<g id="edge4" class="edge">
<title>Node3&#45;&gt;Node4</title>
<path fill="none" stroke="#191970" d="M2436.9063,-123.3906C2459.7283,-113.1457 2496.0679,-96.8326 2521.9057,-85.2339"/>
<polygon fill="#191970" stroke="#191970" points="2523.5545,-88.3303 2531.2441,-81.0419 2520.6877,-81.9443 2523.5545,-88.3303"/>
</g>
<!-- Node5 -->
<g id="node6" class="node">
<title>Node5</title>
<polygon fill="none" stroke="#bfbfbf" points="2109.5,-62 2109.5,-81 2165.5,-81 2165.5,-62 2109.5,-62"/>
<text text-anchor="middle" x="2137.5" y="-69" font-family="Helvetica,sans-Serif" font-size="10.00" fill="#000000">algorithm</text>
</g>
<!-- Node3&#45;&gt;Node5 -->
<g id="edge5" class="edge">
<title>Node3&#45;&gt;Node5</title>
<path fill="none" stroke="#191970" d="M2388.4496,-129.5959C2343.5672,-123.5541 2251.1532,-109.4385 2175.5,-87 2173.1946,-86.3162 2170.8366,-85.5433 2168.4799,-84.7167"/>
<polygon fill="#191970" stroke="#191970" points="2169.5293,-81.3717 2158.9378,-81.1068 2167.0524,-87.9188 2169.5293,-81.3717"/>
</g>
<!-- Node6 -->
<g id="node7" class="node">
<title>Node6</title>
<polygon fill="none" stroke="#bfbfbf" points="2436,-62 2436,-81 2483,-81 2483,-62 2436,-62"/>
<text text-anchor="middle" x="2459.5" y="-69" font-family="Helvetica,sans-Serif" font-size="10.00" fill="#000000">iterator</text>
</g>
<!-- Node3&#45;&gt;Node6 -->
<g id="edge6" class="edge">
<title>Node3&#45;&gt;Node6</title>
<path fill="none" stroke="#191970" d="M2422.375,-123.3906C2428.8593,-114.3273 2438.7414,-100.5149 2446.6801,-89.4188"/>
<polygon fill="#191970" stroke="#191970" points="2449.5559,-91.4143 2452.5281,-81.2449 2443.8629,-87.3412 2449.5559,-91.4143"/>
</g>
<!-- Node7 -->
<g id="node8" class="node">
<title>Node7</title>
<polygon fill="none" stroke="#bfbfbf" points="2328.5,-.5 2328.5,-19.5 2372.5,-19.5 2372.5,-.5 2328.5,-.5"/>
<text text-anchor="middle" x="2350.5" y="-7.5" font-family="Helvetica,sans-Serif" font-size="10.00" fill="#000000">vector</text>
</g>
<!-- Node3&#45;&gt;Node7 -->
<g id="edge7" class="edge">
<title>Node3&#45;&gt;Node7</title>
<path fill="none" stroke="#191970" d="M2412.2374,-123.1881C2407.0843,-108.2261 2396.3181,-79.019 2383.5,-56 2378.0922,-46.2886 2371.0221,-36.1802 2364.8138,-27.9208"/>
<polygon fill="#191970" stroke="#191970" points="2367.4172,-25.5657 2358.5347,-19.7905 2361.8771,-29.8444 2367.4172,-25.5657"/>
</g>
<!-- Node8 -->
<g id="node9" class="node">
<title>Node8</title>
<g id="a_node9"><a xlink:href="simple__bounding__box_8h_source.html" target="_top" xlink:title="simple_bounding_box.h">
<polygon fill="none" stroke="#000000" points="2184,-62 2184,-81 2303,-81 2303,-62 2184,-62"/>
<text text-anchor="middle" x="2243.5" y="-69" font-family="Helvetica,sans-Serif" font-size="10.00" fill="#000000">simple_bounding_box.h</text>
</a>
</g>
</g>
<!-- Node3&#45;&gt;Node8 -->
<g id="edge8" class="edge">
<title>Node3&#45;&gt;Node8</title>
<path fill="none" stroke="#191970" d="M2388.625,-123.3906C2359.3414,-112.92 2312.331,-96.1111 2279.7863,-84.4745"/>
<polygon fill="#191970" stroke="#191970" points="2280.7809,-81.1131 2270.1863,-81.0419 2278.4241,-87.7045 2280.7809,-81.1131"/>
</g>
<!-- Node8&#45;&gt;Node7 -->
<g id="edge14" class="edge">
<title>Node8&#45;&gt;Node7</title>
<path fill="none" stroke="#191970" d="M2260.2188,-61.8906C2277.5722,-51.9165 2304.9323,-36.1908 2324.9882,-24.6633"/>
<polygon fill="#191970" stroke="#191970" points="2326.9728,-27.5596 2333.8987,-19.5419 2323.4846,-21.4907 2326.9728,-27.5596"/>
</g>
<!-- Node9 -->
<g id="node10" class="node">
<title>Node9</title>
<polygon fill="none" stroke="#bfbfbf" points="2128.5,-.5 2128.5,-19.5 2228.5,-19.5 2228.5,-.5 2128.5,-.5"/>
<text text-anchor="middle" x="2178.5" y="-7.5" font-family="Helvetica,sans-Serif" font-size="10.00" fill="#000000">deal.II/base/point.h</text>
</g>
<!-- Node8&#45;&gt;Node9 -->
<g id="edge9" class="edge">
<title>Node8&#45;&gt;Node9</title>
<path fill="none" stroke="#191970" d="M2233.3438,-61.8906C2223.4801,-52.5581 2208.2945,-38.1902 2196.4013,-26.9374"/>
<polygon fill="#191970" stroke="#191970" points="2198.4689,-24.0753 2188.7994,-19.7449 2193.6579,-29.1601 2198.4689,-24.0753"/>
</g>
<!-- Node10 -->
<g id="node11" class="node">
<title>Node10</title>
<polygon fill="none" stroke="#bfbfbf" points="1434,-.5 1434,-19.5 1561,-19.5 1561,-.5 1434,-.5"/>
<text text-anchor="middle" x="1497.5" y="-7.5" font-family="Helvetica,sans-Serif" font-size="10.00" fill="#000000">deal.II/dofs/dof_handler.h</text>
</g>
<!-- Node8&#45;&gt;Node10 -->
<g id="edge10" class="edge">
<title>Node8&#45;&gt;Node10</title>
<path fill="none" stroke="#191970" d="M2205.733,-61.9212C2195.6432,-59.6631 2184.7059,-57.4841 2174.5,-56 2059.8267,-39.3244 1721.5951,-21.1129 1571.1243,-13.5739"/>
<polygon fill="#191970" stroke="#191970" points="1571.2166,-10.0743 1561.0546,-13.0713 1570.8676,-17.0656 1571.2166,-10.0743"/>
</g>
<!-- Node11 -->
<g id="node12" class="node">
<title>Node11</title>
<polygon fill="none" stroke="#bfbfbf" points="1746.5,-.5 1746.5,-19.5 1862.5,-19.5 1862.5,-.5 1746.5,-.5"/>
<text text-anchor="middle" x="1804.5" y="-7.5" font-family="Helvetica,sans-Serif" font-size="10.00" fill="#000000">deal.II/dofs/dof_tools.h</text>
</g>
<!-- Node8&#45;&gt;Node11 -->
<g id="edge11" class="edge">
<title>Node8&#45;&gt;Node11</title>
<path fill="none" stroke="#191970" d="M2204.2246,-61.9832C2194.5437,-59.8296 2184.1767,-57.6843 2174.5,-56 2069.8921,-37.7924 1947.429,-24.0318 1872.9419,-16.4949"/>
<polygon fill="#191970" stroke="#191970" points="1873.0562,-12.9888 1862.7567,-15.4729 1872.3572,-19.9539 1873.0562,-12.9888"/>
</g>
<!-- Node12 -->
<g id="node13" class="node">
<title>Node12</title>
<polygon fill="none" stroke="#bfbfbf" points="1965,-.5 1965,-19.5 2068,-19.5 2068,-.5 1965,-.5"/>
<text text-anchor="middle" x="2016.5" y="-7.5" font-family="Helvetica,sans-Serif" font-size="10.00" fill="#000000">deal.II/fe/mapping.h</text>
</g>
<!-- Node8&#45;&gt;Node12 -->
<g id="edge12" class="edge">
<title>Node8&#45;&gt;Node12</title>
<path fill="none" stroke="#191970" d="M2208.0313,-61.8906C2168.5507,-51.1944 2104.6557,-33.8836 2061.6395,-22.2294"/>
<polygon fill="#191970" stroke="#191970" points="2062.287,-18.7787 2051.7197,-19.5419 2060.4565,-25.5352 2062.287,-18.7787"/>
</g>
<!-- Node13 -->
<g id="node14" class="node">
<title>Node13</title>
<polygon fill="none" stroke="#bfbfbf" points="2246.5,-.5 2246.5,-19.5 2286.5,-19.5 2286.5,-.5 2246.5,-.5"/>
<text text-anchor="middle" x="2266.5" y="-7.5" font-family="Helvetica,sans-Serif" font-size="10.00" fill="#000000">utility</text>
</g>
<!-- Node8&#45;&gt;Node13 -->
<g id="edge13" class="edge">
<title>Node8&#45;&gt;Node13</title>
<path fill="none" stroke="#191970" d="M2247.0938,-61.8906C2250.3491,-53.1862 2255.2425,-40.1015 2259.301,-29.2494"/>
<polygon fill="#191970" stroke="#191970" points="2262.6309,-30.3373 2262.8556,-19.7449 2256.0744,-27.8852 2262.6309,-30.3373"/>
</g>
<!-- Node14&#45;&gt;Node3 -->
<g id="edge16" class="edge">
<title>Node14&#45;&gt;Node3</title>
<path fill="none" stroke="#191970" d="M1955.6521,-191.8476C2034.3894,-186.0125 2220.4187,-170.3581 2374.5,-143 2375.7579,-142.7766 2377.0347,-142.5373 2378.3219,-142.2852"/>
<polygon fill="#191970" stroke="#191970" points="2379.2108,-145.6743 2388.2553,-140.1563 2377.7438,-138.8297 2379.2108,-145.6743"/>
</g>
<!-- Node14&#45;&gt;Node15 -->
<g id="edge17" class="edge">
<title>Node14&#45;&gt;Node15</title>
<path fill="none" stroke="#191970" d="M1879.3509,-188.3753C1861.2248,-185.4885 1839.2515,-182.0226 1819.5,-179 1726.9316,-164.834 1618.7479,-148.994 1557.4602,-140.087"/>
<polygon fill="#191970" stroke="#191970" points="1557.7057,-136.586 1547.3065,-138.6124 1556.6996,-143.5133 1557.7057,-136.586"/>
</g>
<!-- Node14&#45;&gt;Node20 -->
<g id="edge25" class="edge">
<title>Node14&#45;&gt;Node20</title>
<path fill="none" stroke="#191970" d="M1917.5,-184.8906C1917.5,-176.3657 1917.5,-163.6392 1917.5,-152.9235"/>
<polygon fill="#191970" stroke="#191970" points="1921.0001,-152.7448 1917.5,-142.7449 1914.0001,-152.7449 1921.0001,-152.7448"/>
</g>
<!-- Node15&#45;&gt;Node10 -->
<g id="edge18" class="edge">
<title>Node15&#45;&gt;Node10</title>
<path fill="none" stroke="#191970" d="M1491.4433,-123.377C1479.1911,-115.4014 1463.6292,-102.8248 1456.5,-87 1450.8408,-74.4381 1451.595,-68.8751 1456.5,-56 1460.7275,-44.9034 1468.9971,-34.7814 1477.0088,-26.8751"/>
<polygon fill="#191970" stroke="#191970" points="1479.7703,-29.0916 1484.7752,-19.7534 1475.0393,-23.9323 1479.7703,-29.0916"/>
</g>
<!-- Node15&#45;&gt;Node11 -->
<g id="edge19" class="edge">
<title>Node15&#45;&gt;Node11</title>
<path fill="none" stroke="#191970" d="M1502.3803,-123.4271C1493.0242,-107.4574 1477.9046,-75.2397 1494.5,-56 1510.075,-37.9433 1649.6934,-23.0453 1736.1613,-15.4476"/>
<polygon fill="#191970" stroke="#191970" points="1736.5109,-18.9305 1746.1712,-14.5797 1735.9062,-11.9567 1736.5109,-18.9305"/>
</g>
<!-- Node15&#45;&gt;Node12 -->
<g id="edge22" class="edge">
<title>Node15&#45;&gt;Node12</title>
<path fill="none" stroke="#191970" d="M1507.6724,-123.4291C1506.8256,-106.8624 1507.7875,-72.9893 1527.5,-56 1535.5085,-49.0979 1824.7448,-25.2703 1954.5458,-14.8934"/>
<polygon fill="#191970" stroke="#191970" points="1955.0419,-18.3651 1964.7318,-14.0806 1954.485,-11.3872 1955.0419,-18.3651"/>
</g>
<!-- Node16 -->
<g id="node17" class="node">
<title>Node16</title>
<polygon fill="none" stroke="#bfbfbf" points="1536.5,-62 1536.5,-81 1610.5,-81 1610.5,-62 1536.5,-62"/>
<text text-anchor="middle" x="1573.5" y="-69" font-family="Helvetica,sans-Serif" font-size="10.00" fill="#000000">deal.II/fe/fe.h</text>
</g>
<!-- Node15&#45;&gt;Node16 -->
<g id="edge20" class="edge">
<title>Node15&#45;&gt;Node16</title>
<path fill="none" stroke="#191970" d="M1518.6563,-123.3906C1528.5199,-114.0581 1543.7055,-99.6902 1555.5987,-88.4374"/>
<polygon fill="#191970" stroke="#191970" points="1558.3421,-90.6601 1563.2006,-81.2449 1553.5311,-85.5753 1558.3421,-90.6601"/>
</g>
<!-- Node17 -->
<g id="node18" class="node">
<title>Node17</title>
<polygon fill="none" stroke="#bfbfbf" points="1232.5,-62 1232.5,-81 1344.5,-81 1344.5,-62 1232.5,-62"/>
<text text-anchor="middle" x="1288.5" y="-69" font-family="Helvetica,sans-Serif" font-size="10.00" fill="#000000">deal.II/fe/fe_system.h</text>
</g>
<!-- Node15&#45;&gt;Node17 -->
<g id="edge21" class="edge">
<title>Node15&#45;&gt;Node17</title>
<path fill="none" stroke="#191970" d="M1474.125,-123.3906C1435.9427,-112.7169 1374.1984,-95.4566 1332.5116,-83.8033"/>
<polygon fill="#191970" stroke="#191970" points="1333.2067,-80.3634 1322.6336,-81.0419 1331.3221,-87.105 1333.2067,-80.3634"/>
</g>
<!-- Node18 -->
<g id="node19" class="node">
<title>Node18</title>
<polygon fill="none" stroke="#bfbfbf" points="1628.5,-62 1628.5,-81 1682.5,-81 1682.5,-62 1628.5,-62"/>
<text text-anchor="middle" x="1655.5" y="-69" font-family="Helvetica,sans-Serif" font-size="10.00" fill="#000000">iostream</text>
</g>
<!-- Node15&#45;&gt;Node18 -->
<g id="edge23" class="edge">
<title>Node15&#45;&gt;Node18</title>
<path fill="none" stroke="#191970" d="M1531.9261,-123.4008C1554.4178,-114.1588 1589.3314,-99.7451 1619.5,-87 1620.9104,-86.4042 1622.3509,-85.7934 1623.8054,-85.1748"/>
<polygon fill="#191970" stroke="#191970" points="1625.6173,-88.2066 1633.4357,-81.0565 1622.8649,-81.7704 1625.6173,-88.2066"/>
</g>
<!-- Node19 -->
<g id="node20" class="node">
<title>Node19</title>
<polygon fill="none" stroke="#bfbfbf" points="1363,-62 1363,-81 1404,-81 1404,-62 1363,-62"/>
<text text-anchor="middle" x="1383.5" y="-69" font-family="Helvetica,sans-Serif" font-size="10.00" fill="#000000">string</text>
</g>
<!-- Node15&#45;&gt;Node19 -->
<g id="edge24" class="edge">
<title>Node15&#45;&gt;Node19</title>
<path fill="none" stroke="#191970" d="M1488.9688,-123.3906C1468.3292,-113.2359 1435.5724,-97.1196 1412.0398,-85.5416"/>
<polygon fill="#191970" stroke="#191970" points="1413.412,-82.3161 1402.8941,-81.0419 1410.3218,-88.5971 1413.412,-82.3161"/>
</g>
<!-- Node20&#45;&gt;Node5 -->
<g id="edge27" class="edge">
<title>Node20&#45;&gt;Node5</title>
<path fill="none" stroke="#191970" d="M1938.0979,-128.8815C1972.2805,-121.8121 2042.6897,-106.2531 2100.5,-87 2102.5938,-86.3027 2104.7362,-85.5405 2106.883,-84.7402"/>
<polygon fill="#191970" stroke="#191970" points="2108.1685,-87.9957 2116.1867,-81.0705 2105.6,-81.4839 2108.1685,-87.9957"/>
</g>
<!-- Node20&#45;&gt;Node7 -->
<g id="edge33" class="edge">
<title>Node20&#45;&gt;Node7</title>
<path fill="none" stroke="#191970" d="M1938.1957,-131.7436C2015.1082,-126.919 2281.6432,-108.7574 2312.5,-87 2331.6586,-73.4911 2341.6186,-47.524 2346.4517,-29.5015"/>
<polygon fill="#191970" stroke="#191970" points="2349.8677,-30.2651 2348.7855,-19.7257 2343.0591,-28.6396 2349.8677,-30.2651"/>
</g>
<!-- Node20&#45;&gt;Node18 -->
<g id="edge31" class="edge">
<title>Node20&#45;&gt;Node18</title>
<path fill="none" stroke="#191970" d="M1896.9456,-126.1799C1893.1614,-125.0377 1889.2285,-123.925 1885.5,-123 1800.3861,-101.8839 1775.4054,-112.4982 1691.5,-87 1689.384,-86.357 1687.2251,-85.6274 1685.0682,-84.8436"/>
<polygon fill="#191970" stroke="#191970" points="1686.3511,-81.5872 1675.7648,-81.1606 1683.7744,-88.0958 1686.3511,-81.5872"/>
</g>
<!-- Node21 -->
<g id="node22" class="node">
<title>Node21</title>
<polygon fill="none" stroke="#bfbfbf" points="1700.5,-62 1700.5,-81 1826.5,-81 1826.5,-62 1700.5,-62"/>
<text text-anchor="middle" x="1763.5" y="-69" font-family="Helvetica,sans-Serif" font-size="10.00" fill="#000000">deal.II/base/exceptions.h</text>
</g>
<!-- Node20&#45;&gt;Node21 -->
<g id="edge26" class="edge">
<title>Node20&#45;&gt;Node21</title>
<path fill="none" stroke="#191970" d="M1896.7309,-124.7058C1871.0982,-114.4694 1827.1859,-96.933 1796.8186,-84.8058"/>
<polygon fill="#191970" stroke="#191970" points="1798.0602,-81.5329 1787.4753,-81.0746 1795.4641,-88.0337 1798.0602,-81.5329"/>
</g>
<!-- Node22 -->
<g id="node23" class="node">
<title>Node22</title>
<polygon fill="none" stroke="#bfbfbf" points="1898.5,-62 1898.5,-81 1936.5,-81 1936.5,-62 1898.5,-62"/>
<text text-anchor="middle" x="1917.5" y="-69" font-family="Helvetica,sans-Serif" font-size="10.00" fill="#000000">array</text>
</g>
<!-- Node20&#45;&gt;Node22 -->
<g id="edge28" class="edge">
<title>Node20&#45;&gt;Node22</title>
<path fill="none" stroke="#191970" d="M1917.5,-123.3906C1917.5,-114.8657 1917.5,-102.1392 1917.5,-91.4235"/>
<polygon fill="#191970" stroke="#191970" points="1921.0001,-91.2448 1917.5,-81.2449 1914.0001,-91.2449 1921.0001,-91.2448"/>
</g>
<!-- Node23 -->
<g id="node24" class="node">
<title>Node23</title>
<polygon fill="none" stroke="#bfbfbf" points="1955,-62 1955,-81 2014,-81 2014,-62 1955,-62"/>
<text text-anchor="middle" x="1984.5" y="-69" font-family="Helvetica,sans-Serif" font-size="10.00" fill="#000000">exception</text>
</g>
<!-- Node20&#45;&gt;Node23 -->
<g id="edge29" class="edge">
<title>Node20&#45;&gt;Node23</title>
<path fill="none" stroke="#191970" d="M1927.9688,-123.3906C1938.2337,-113.9683 1954.0903,-99.4134 1966.4006,-88.1137"/>
<polygon fill="#191970" stroke="#191970" points="1968.8834,-90.5856 1973.8837,-81.2449 1964.1499,-85.4287 1968.8834,-90.5856"/>
</g>
<!-- Node24 -->
<g id="node25" class="node">
<title>Node24</title>
<polygon fill="none" stroke="#bfbfbf" points="2032,-62 2032,-81 2091,-81 2091,-62 2032,-62"/>
<text text-anchor="middle" x="2061.5" y="-69" font-family="Helvetica,sans-Serif" font-size="10.00" fill="#000000">functional</text>
</g>
<!-- Node20&#45;&gt;Node24 -->
<g id="edge30" class="edge">
<title>Node20&#45;&gt;Node24</title>
<path fill="none" stroke="#191970" d="M1938.1317,-124.1885C1962.0624,-113.9681 2001.7905,-97.0009 2029.6829,-85.0886"/>
<polygon fill="#191970" stroke="#191970" points="2031.1882,-88.2516 2039.0099,-81.1052 2028.4388,-81.8141 2031.1882,-88.2516"/>
</g>
<!-- Node25 -->
<g id="node26" class="node">
<title>Node25</title>
<polygon fill="none" stroke="#bfbfbf" points="1845,-62 1845,-81 1880,-81 1880,-62 1845,-62"/>
<text text-anchor="middle" x="1862.5" y="-69" font-family="Helvetica,sans-Serif" font-size="10.00" fill="#000000">new</text>
</g>
<!-- Node20&#45;&gt;Node25 -->
<g id="edge32" class="edge">
<title>Node20&#45;&gt;Node25</title>
<path fill="none" stroke="#191970" d="M1908.9063,-123.3906C1900.6403,-114.1478 1887.9574,-99.966 1877.9383,-88.7628"/>
<polygon fill="#191970" stroke="#191970" points="1880.49,-86.3657 1871.2149,-81.2449 1875.2722,-91.0321 1880.49,-86.3657"/>
</g>
<!-- Node26&#45;&gt;Node7 -->
<g id="edge39" class="edge">
<title>Node26&#45;&gt;Node7</title>
<path fill="none" stroke="#191970" d="M1811.2063,-187.1128C1945.7965,-166.0711 2319.9587,-106.1103 2338.5,-87 2353.0291,-72.025 2354.4079,-47.1486 2353.2077,-29.7349"/>
<polygon fill="#191970" stroke="#191970" points="2356.6647,-29.1372 2352.1588,-19.5483 2349.7015,-29.8542 2356.6647,-29.1372"/>
</g>
<!-- Node27 -->
<g id="node28" class="node">
<title>Node27</title>
<polygon fill="none" stroke="#bfbfbf" points="1836.5,-123.5 1836.5,-142.5 1876.5,-142.5 1876.5,-123.5 1836.5,-123.5"/>
<text text-anchor="middle" x="1856.5" y="-130.5" font-family="Helvetica,sans-Serif" font-size="10.00" fill="#000000">limits</text>
</g>
<!-- Node26&#45;&gt;Node27 -->
<g id="edge37" class="edge">
<title>Node26&#45;&gt;Node27</title>
<path fill="none" stroke="#191970" d="M1786.4888,-179.2977C1800.6966,-169.9022 1818.8785,-157.8787 1833.1525,-148.4395"/>
<polygon fill="#191970" stroke="#191970" points="1835.4767,-151.0986 1841.8872,-142.6633 1831.6155,-145.2598 1835.4767,-151.0986"/>
</g>
<!-- Node28 -->
<g id="node29" class="node">
<title>Node28</title>
<polygon fill="none" stroke="#bfbfbf" points="627,-123.5 627,-142.5 662,-142.5 662,-123.5 627,-123.5"/>
<text text-anchor="middle" x="644.5" y="-130.5" font-family="Helvetica,sans-Serif" font-size="10.00" fill="#000000">map</text>
</g>
<!-- Node26&#45;&gt;Node28 -->
<g id="edge38" class="edge">
<title>Node26&#45;&gt;Node28</title>
<path fill="none" stroke="#191970" d="M1715.994,-194.1954C1536.0254,-192.7467 895.5221,-184.8379 672.2785,-142.4384"/>
<polygon fill="#191970" stroke="#191970" points="672.7736,-138.9685 662.2841,-140.4589 671.4135,-145.8351 672.7736,-138.9685"/>
</g>
<!-- Node29 -->
<g id="node30" class="node">
<title>Node29</title>
<g id="a_node30"><a xlink:href="general__exceptions_8h.html" target="_top" xlink:title="Definition of self&#45;defined general exceptions. ">
<polygon fill="none" stroke="#000000" points="1709,-123.5 1709,-142.5 1818,-142.5 1818,-123.5 1709,-123.5"/>
<text text-anchor="middle" x="1763.5" y="-130.5" font-family="Helvetica,sans-Serif" font-size="10.00" fill="#000000">general_exceptions.h</text>
</a>
</g>
</g>
<!-- Node26&#45;&gt;Node29 -->
<g id="edge40" class="edge">
<title>Node26&#45;&gt;Node29</title>
<path fill="none" stroke="#191970" d="M1763.5,-179.2977C1763.5,-171.3834 1763.5,-161.6043 1763.5,-153.0759"/>
<polygon fill="#191970" stroke="#191970" points="1767.0001,-152.8469 1763.5,-142.8469 1760.0001,-152.847 1767.0001,-152.8469"/>
</g>
<!-- Node30 -->
<g id="node31" class="node">
<title>Node30</title>
<g id="a_node31"><a xlink:href="lapack__helpers_8h.html" target="_top" xlink:title="Exposes LAPACK helper functions defined in lapack_full_matrix.cc and define new ones by following the...">
<polygon fill="none" stroke="#000000" points="680.5,-123.5 680.5,-142.5 770.5,-142.5 770.5,-123.5 680.5,-123.5"/>
<text text-anchor="middle" x="725.5" y="-130.5" font-family="Helvetica,sans-Serif" font-size="10.00" fill="#000000">lapack_helpers.h</text>
</a>
</g>
</g>
<!-- Node26&#45;&gt;Node30 -->
<g id="edge42" class="edge">
<title>Node26&#45;&gt;Node30</title>
<path fill="none" stroke="#191970" d="M1715.86,-191.6774C1545.0001,-181.5542 963.4728,-147.0995 780.8472,-136.2792"/>
<polygon fill="#191970" stroke="#191970" points="780.8579,-132.7738 770.6683,-135.6762 780.4438,-139.7616 780.8579,-132.7738"/>
</g>
<!-- Node29&#45;&gt;Node21 -->
<g id="edge41" class="edge">
<title>Node29&#45;&gt;Node21</title>
<path fill="none" stroke="#191970" d="M1763.5,-123.3906C1763.5,-114.8657 1763.5,-102.1392 1763.5,-91.4235"/>
<polygon fill="#191970" stroke="#191970" points="1767.0001,-91.2448 1763.5,-81.2449 1760.0001,-91.2449 1767.0001,-91.2448"/>
</g>
<!-- Node31 -->
<g id="node32" class="node">
<title>Node31</title>
<polygon fill="none" stroke="#bfbfbf" points="455.5,-62 455.5,-81 571.5,-81 571.5,-62 455.5,-62"/>
<text text-anchor="middle" x="513.5" y="-69" font-family="Helvetica,sans-Serif" font-size="10.00" fill="#000000">deal.II/base/numbers.h</text>
</g>
<!-- Node30&#45;&gt;Node31 -->
<g id="edge43" class="edge">
<title>Node30&#45;&gt;Node31</title>
<path fill="none" stroke="#191970" d="M692.375,-123.3906C655.6589,-112.7395 596.3336,-95.5296 556.1662,-83.8772"/>
<polygon fill="#191970" stroke="#191970" points="556.9716,-80.4666 546.3924,-81.0419 555.0213,-87.1895 556.9716,-80.4666"/>
</g>
<!-- Node32 -->
<g id="node33" class="node">
<title>Node32</title>
<polygon fill="none" stroke="#bfbfbf" points="589.5,-56.5 589.5,-86.5 717.5,-86.5 717.5,-56.5 589.5,-56.5"/>
<text text-anchor="start" x="597.5" y="-74.5" font-family="Helvetica,sans-Serif" font-size="10.00" fill="#000000">deal.II/lac/blas_extension</text>
<text text-anchor="middle" x="653.5" y="-63.5" font-family="Helvetica,sans-Serif" font-size="10.00" fill="#000000">_templates.h</text>
</g>
<!-- Node30&#45;&gt;Node32 -->
<g id="edge44" class="edge">
<title>Node30&#45;&gt;Node32</title>
<path fill="none" stroke="#191970" d="M714.25,-123.3906C704.7764,-115.2986 690.8706,-103.4207 678.7532,-93.0705"/>
<polygon fill="#191970" stroke="#191970" points="680.9902,-90.3782 671.1132,-86.5446 676.4437,-95.7008 680.9902,-90.3782"/>
</g>
<!-- Node33 -->
<g id="node34" class="node">
<title>Node33</title>
<polygon fill="none" stroke="#bfbfbf" points="735.5,-62 735.5,-81 861.5,-81 861.5,-62 735.5,-62"/>
<text text-anchor="middle" x="798.5" y="-69" font-family="Helvetica,sans-Serif" font-size="10.00" fill="#000000">deal.II/lac/block_vector.h</text>
</g>
<!-- Node30&#45;&gt;Node33 -->
<g id="edge45" class="edge">
<title>Node30&#45;&gt;Node33</title>
<path fill="none" stroke="#191970" d="M736.9063,-123.3906C748.1969,-113.8786 765.6967,-99.1357 779.1619,-87.7917"/>
<polygon fill="#191970" stroke="#191970" points="781.5402,-90.3646 786.9329,-81.2449 777.0301,-85.0111 781.5402,-90.3646"/>
</g>
<!-- Node34 -->
<g id="node35" class="node">
<title>Node34</title>
<polygon fill="none" stroke="#bfbfbf" points="879.5,-62 879.5,-81 995.5,-81 995.5,-62 879.5,-62"/>
<text text-anchor="middle" x="937.5" y="-69" font-family="Helvetica,sans-Serif" font-size="10.00" fill="#000000">deal.II/lac/full_matrix.h</text>
</g>
<!-- Node30&#45;&gt;Node34 -->
<g id="edge46" class="edge">
<title>Node30&#45;&gt;Node34</title>
<path fill="none" stroke="#191970" d="M758.625,-123.3906C795.3411,-112.7395 854.6664,-95.5296 894.8338,-83.8772"/>
<polygon fill="#191970" stroke="#191970" points="895.9787,-87.1895 904.6076,-81.0419 894.0284,-80.4666 895.9787,-87.1895"/>
</g>
<!-- Node35 -->
<g id="node36" class="node">
<title>Node35</title>
<polygon fill="none" stroke="#bfbfbf" points="1014,-56.5 1014,-86.5 1105,-86.5 1105,-56.5 1014,-56.5"/>
<text text-anchor="start" x="1022" y="-74.5" font-family="Helvetica,sans-Serif" font-size="10.00" fill="#000000">deal.II/lac/lapack</text>
<text text-anchor="middle" x="1059.5" y="-63.5" font-family="Helvetica,sans-Serif" font-size="10.00" fill="#000000">_full_matrix.h</text>
</g>
<!-- Node30&#45;&gt;Node35 -->
<g id="edge47" class="edge">
<title>Node30&#45;&gt;Node35</title>
<path fill="none" stroke="#191970" d="M770.7355,-127.1206C824.1655,-119.8272 915.8699,-106.2176 1004.0776,-86.9412"/>
<polygon fill="#191970" stroke="#191970" points="1004.9732,-90.3278 1013.9806,-84.7495 1003.4606,-83.4932 1004.9732,-90.3278"/>
</g>
<!-- Node36 -->
<g id="node37" class="node">
<title>Node36</title>
<polygon fill="none" stroke="#bfbfbf" points="1123,-56.5 1123,-86.5 1214,-86.5 1214,-56.5 1123,-56.5"/>
<text text-anchor="start" x="1131" y="-74.5" font-family="Helvetica,sans-Serif" font-size="10.00" fill="#000000">deal.II/lac/lapack</text>
<text text-anchor="middle" x="1168.5" y="-63.5" font-family="Helvetica,sans-Serif" font-size="10.00" fill="#000000">_support.h</text>
</g>
<!-- Node30&#45;&gt;Node36 -->
<g id="edge48" class="edge">
<title>Node30&#45;&gt;Node36</title>
<path fill="none" stroke="#191970" d="M770.6679,-129.9533C841.5554,-124.6692 983.3186,-112.077 1112.6342,-86.9706"/>
<polygon fill="#191970" stroke="#191970" points="1113.5803,-90.3515 1122.7142,-84.9828 1112.2259,-83.4837 1113.5803,-90.3515"/>
</g>
<!-- Node37 -->
<g id="node38" class="node">
<title>Node37</title>
<polygon fill="none" stroke="#bfbfbf" points="0,-56.5 0,-86.5 91,-86.5 91,-56.5 0,-56.5"/>
<text text-anchor="start" x="8" y="-74.5" font-family="Helvetica,sans-Serif" font-size="10.00" fill="#000000">deal.II/lac/lapack</text>
<text text-anchor="middle" x="45.5" y="-63.5" font-family="Helvetica,sans-Serif" font-size="10.00" fill="#000000">_templates.h</text>
</g>
<!-- Node30&#45;&gt;Node37 -->
<g id="edge49" class="edge">
<title>Node30&#45;&gt;Node37</title>
<path fill="none" stroke="#191970" d="M680.2431,-124.339C676.9525,-123.8422 673.6791,-123.3881 670.5,-123 421.8539,-92.6491 352.5466,-128.6908 101.4137,-86.8925"/>
<polygon fill="#191970" stroke="#191970" points="101.6936,-83.3903 91.2503,-85.1753 100.5274,-90.2925 101.6936,-83.3903"/>
</g>
<!-- Node38 -->
<g id="node39" class="node">
<title>Node38</title>
<polygon fill="none" stroke="#bfbfbf" points="109.5,-56.5 109.5,-86.5 201.5,-86.5 201.5,-56.5 109.5,-56.5"/>
<text text-anchor="start" x="117.5" y="-74.5" font-family="Helvetica,sans-Serif" font-size="10.00" fill="#000000">deal.II/lac/sparse</text>
<text text-anchor="middle" x="155.5" y="-63.5" font-family="Helvetica,sans-Serif" font-size="10.00" fill="#000000">_matrix.h</text>
</g>
<!-- Node30&#45;&gt;Node38 -->
<g id="edge50" class="edge">
<title>Node30&#45;&gt;Node38</title>
<path fill="none" stroke="#191970" d="M680.2363,-124.3934C676.9473,-123.8838 673.6761,-123.4119 670.5,-123 470.4106,-97.0489 414.1902,-122.1506 211.6316,-86.9678"/>
<polygon fill="#191970" stroke="#191970" points="212.0168,-83.4817 201.5606,-85.1902 210.8,-90.3752 212.0168,-83.4817"/>
</g>
<!-- Node39 -->
<g id="node40" class="node">
<title>Node39</title>
<polygon fill="none" stroke="#bfbfbf" points="220,-62 220,-81 321,-81 321,-62 220,-62"/>
<text text-anchor="middle" x="270.5" y="-69" font-family="Helvetica,sans-Serif" font-size="10.00" fill="#000000">deal.II/lac/utilities.h</text>
</g>
<!-- Node30&#45;&gt;Node39 -->
<g id="edge51" class="edge">
<title>Node30&#45;&gt;Node39</title>
<path fill="none" stroke="#191970" d="M680.2227,-124.4923C676.9369,-123.9595 673.6702,-123.4554 670.5,-123 520.0881,-101.3937 480.0239,-114.0772 330.5,-87 325.0744,-86.0175 319.4165,-84.8072 313.8368,-83.4996"/>
<polygon fill="#191970" stroke="#191970" points="314.4909,-80.0563 303.9446,-81.0692 312.8207,-86.8541 314.4909,-80.0563"/>
</g>
<!-- Node40 -->
<g id="node41" class="node">
<title>Node40</title>
<polygon fill="none" stroke="#bfbfbf" points="339.5,-62 339.5,-81 437.5,-81 437.5,-62 339.5,-62"/>
<text text-anchor="middle" x="388.5" y="-69" font-family="Helvetica,sans-Serif" font-size="10.00" fill="#000000">deal.II/lac/vector.h</text>
</g>
<!-- Node30&#45;&gt;Node40 -->
<g id="edge52" class="edge">
<title>Node30&#45;&gt;Node40</title>
<path fill="none" stroke="#191970" d="M680.4903,-124.7389C677.111,-124.1424 673.7524,-123.557 670.5,-123 571.1137,-105.9803 545.1127,-108.0438 446.5,-87 441.7187,-85.9797 436.7423,-84.8129 431.8029,-83.5876"/>
<polygon fill="#191970" stroke="#191970" points="432.3464,-80.1137 421.7903,-81.0183 430.6066,-86.894 432.3464,-80.1137"/>
</g>
</g>
</svg>
