<?xml version="1.0" encoding="UTF-8" standalone="no"?>
<!DOCTYPE svg PUBLIC "-//W3C//DTD SVG 1.1//EN"
 "http://www.w3.org/Graphics/SVG/1.1/DTD/svg11.dtd">
<!-- Generated by graphviz version 2.40.1 (20161225.0304)
 -->
<!-- Title: /home/jihuan/Projects/deal.ii/program/dealii&#45;9.1.1/examples/laplace&#45;bem/tests/block&#45;cluster&#45;tree&#45;visualize&#45;with&#45;rank/bct&#45;visualize&#45;with&#45;rank.cc Pages: 1 -->
<!--zoomable 452 -->
<svg id="main" version="1.1" xmlns="http://www.w3.org/2000/svg" xmlns:xlink="http://www.w3.org/1999/xlink" xml:space="preserve" onload="init(evt)">
<style type="text/css"><![CDATA[
.edge:hover path { stroke: red; }
.edge:hover polygon { stroke: red; fill: red; }
]]></style>
<script type="text/javascript"><![CDATA[
var edges = document.getElementsByTagName('g');
if (edges && edges.length) {
  for (var i=0;i<edges.length;i++) {
    if (edges[i].id.substr(0,4)=='edge') {
      edges[i].setAttribute('class','edge');
    }
  }
}
]]></script>
        <defs>
                <circle id="rim" cx="0" cy="0" r="7"/>
                <circle id="rim2" cx="0" cy="0" r="3.5"/>
                <g id="zoomPlus">
                        <use xlink:href="#rim" fill="#404040">
                                <set attributeName="fill" to="#808080" begin="zoomplus.mouseover" end="zoomplus.mouseout"/>
                        </use>
                        <path d="M-4,0h8M0,-4v8" fill="none" stroke="white" stroke-width="1.5" pointer-events="none"/>
                </g>
                <g id="zoomMin">
                        <use xlink:href="#rim" fill="#404040">
                                <set attributeName="fill" to="#808080" begin="zoomminus.mouseover" end="zoomminus.mouseout"/>
                        </use>
                        <path d="M-4,0h8" fill="none" stroke="white" stroke-width="1.5" pointer-events="none"/>
                </g>
                <g id="dirArrow">
                        <path fill="none" stroke="white" stroke-width="1.5" d="M0,-3.0v7 M-2.5,-0.5L0,-3.0L2.5,-0.5"/>
                </g>
               <g id="resetDef">
                       <use xlink:href="#rim2" fill="#404040">
                               <set attributeName="fill" to="#808080" begin="reset.mouseover" end="reset.mouseout"/>
                       </use>
               </g>
        </defs>

<script type="text/javascript">
var viewWidth = 2895;
var viewHeight = 452;
var sectionId = 'dynsection-0';
</script>
<script xlink:href="svgpan.js"/>
<svg id="graph" class="graph">
<g id="viewport">
<title>/home/jihuan/Projects/deal.ii/program/dealii&#45;9.1.1/examples/laplace&#45;bem/tests/block&#45;cluster&#45;tree&#45;visualize&#45;with&#45;rank/bct&#45;visualize&#45;with&#45;rank.cc</title>
<!-- Node0 -->
<g id="node1" class="node">
<title>Node0</title>
<polygon fill="#bfbfbf" stroke="#000000" points="465,-369.5 465,-443.5 596,-443.5 596,-369.5 465,-369.5"/>
<text text-anchor="start" x="473" y="-431.5" font-family="Helvetica,sans-Serif" font-size="10.00" fill="#000000">/home/jihuan/Projects</text>
<text text-anchor="start" x="473" y="-420.5" font-family="Helvetica,sans-Serif" font-size="10.00" fill="#000000">/deal.ii/program/dealii</text>
<text text-anchor="start" x="473" y="-409.5" font-family="Helvetica,sans-Serif" font-size="10.00" fill="#000000">&#45;9.1.1/examples/laplace</text>
<text text-anchor="start" x="473" y="-398.5" font-family="Helvetica,sans-Serif" font-size="10.00" fill="#000000">&#45;bem/tests/block&#45;cluster</text>
<text text-anchor="start" x="473" y="-387.5" font-family="Helvetica,sans-Serif" font-size="10.00" fill="#000000">&#45;tree&#45;visualize&#45;with&#45;rank</text>
<text text-anchor="middle" x="530.5" y="-376.5" font-family="Helvetica,sans-Serif" font-size="10.00" fill="#000000">/bct&#45;visualize&#45;with&#45;rank.cc</text>
</g>
<!-- Node1 -->
<g id="node2" class="node">
<title>Node1</title>
<polygon fill="none" stroke="#bfbfbf" points="264.5,-73 264.5,-92 318.5,-92 318.5,-73 264.5,-73"/>
<text text-anchor="middle" x="291.5" y="-80" font-family="Helvetica,sans-Serif" font-size="10.00" fill="#000000">iostream</text>
</g>
<!-- Node0&#45;&gt;Node1 -->
<g id="edge1" class="edge">
<title>Node0&#45;&gt;Node1</title>
<path fill="none" stroke="#191970" d="M464.899,-395.573C396.9173,-380.0573 300.5,-344.4072 300.5,-267 300.5,-267 300.5,-267 300.5,-205.5 300.5,-168.9018 296.4877,-126.3411 293.821,-102.0962"/>
<polygon fill="#191970" stroke="#191970" points="297.2862,-101.5912 292.6766,-92.0517 290.3312,-102.3837 297.2862,-101.5912"/>
</g>
<!-- Node2 -->
<g id="node3" class="node">
<title>Node2</title>
<g id="a_node3"><a xlink:href="block__cluster__tree_8h.html" target="_top" xlink:title="Implementation of the class BlockClusterTree. ">
<polygon fill="none" stroke="#000000" points="478.5,-313.5 478.5,-332.5 582.5,-332.5 582.5,-313.5 478.5,-313.5"/>
<text text-anchor="middle" x="530.5" y="-320.5" font-family="Helvetica,sans-Serif" font-size="10.00" fill="#000000">block_cluster_tree.h</text>
</a>
</g>
</g>
<!-- Node0&#45;&gt;Node2 -->
<g id="edge2" class="edge">
<title>Node0&#45;&gt;Node2</title>
<path fill="none" stroke="#191970" d="M530.5,-369.1461C530.5,-360.0558 530.5,-350.6845 530.5,-342.7816"/>
<polygon fill="#191970" stroke="#191970" points="534.0001,-342.7701 530.5,-332.7701 527.0001,-342.7702 534.0001,-342.7701"/>
</g>
<!-- Node26 -->
<g id="node27" class="node">
<title>Node26</title>
<g id="a_node27"><a xlink:href="lapack__full__matrix__ext_8h_source.html" target="_top" xlink:title="lapack_full_matrix\l_ext.h">
<polygon fill="none" stroke="#000000" points="1484,-190.5 1484,-220.5 1579,-220.5 1579,-190.5 1484,-190.5"/>
<text text-anchor="start" x="1492" y="-208.5" font-family="Helvetica,sans-Serif" font-size="10.00" fill="#000000">lapack_full_matrix</text>
<text text-anchor="middle" x="1531.5" y="-197.5" font-family="Helvetica,sans-Serif" font-size="10.00" fill="#000000">_ext.h</text>
</a>
</g>
</g>
<!-- Node0&#45;&gt;Node26 -->
<g id="edge68" class="edge">
<title>Node0&#45;&gt;Node26</title>
<path fill="none" stroke="#191970" d="M596.1784,-393.3118C780.4079,-356.3187 1299.9343,-251.9982 1473.9127,-217.0635"/>
<polygon fill="#191970" stroke="#191970" points="1474.7779,-220.4597 1483.8931,-215.0594 1473.3997,-213.5967 1474.7779,-220.4597"/>
</g>
<!-- Node3 -->
<g id="node4" class="node">
<title>Node3</title>
<g id="a_node4"><a xlink:href="block__cluster_8h.html" target="_top" xlink:title="Implementation of the class BlockCluster. ">
<polygon fill="none" stroke="#000000" points="559,-257.5 559,-276.5 642,-276.5 642,-257.5 559,-257.5"/>
<text text-anchor="middle" x="600.5" y="-264.5" font-family="Helvetica,sans-Serif" font-size="10.00" fill="#000000">block_cluster.h</text>
</a>
</g>
</g>
<!-- Node2&#45;&gt;Node3 -->
<g id="edge3" class="edge">
<title>Node2&#45;&gt;Node3</title>
<path fill="none" stroke="#191970" d="M542.6931,-313.2455C553.1321,-304.8943 568.3655,-292.7076 580.574,-282.9408"/>
<polygon fill="#191970" stroke="#191970" points="582.8244,-285.6227 588.4467,-276.6427 578.4515,-280.1566 582.8244,-285.6227"/>
</g>
<!-- Node15 -->
<g id="node16" class="node">
<title>Node15</title>
<g id="a_node16"><a xlink:href="cluster__tree_8h_source.html" target="_top" xlink:title="cluster_tree.h">
<polygon fill="none" stroke="#000000" points="506.5,-196 506.5,-215 582.5,-215 582.5,-196 506.5,-196"/>
<text text-anchor="middle" x="544.5" y="-203" font-family="Helvetica,sans-Serif" font-size="10.00" fill="#000000">cluster_tree.h</text>
</a>
</g>
</g>
<!-- Node2&#45;&gt;Node15 -->
<g id="edge35" class="edge">
<title>Node2&#45;&gt;Node15</title>
<path fill="none" stroke="#191970" d="M531.6457,-313.3845C533.9325,-294.1913 539.1042,-250.786 542.1449,-225.2663"/>
<polygon fill="#191970" stroke="#191970" points="545.6307,-225.5923 543.3385,-215.2484 538.6799,-224.764 545.6307,-225.5923"/>
</g>
<!-- Node16 -->
<g id="node17" class="node">
<title>Node16</title>
<g id="a_node17"><a xlink:href="debug__tools_8h.html" target="_top" xlink:title="This file includes a bunch of helper functions for printing out and visualizing information about gri...">
<polygon fill="none" stroke="#000000" points="440,-134.5 440,-153.5 517,-153.5 517,-134.5 440,-134.5"/>
<text text-anchor="middle" x="478.5" y="-141.5" font-family="Helvetica,sans-Serif" font-size="10.00" fill="#000000">debug_tools.h</text>
</a>
</g>
</g>
<!-- Node2&#45;&gt;Node16 -->
<g id="edge36" class="edge">
<title>Node2&#45;&gt;Node16</title>
<path fill="none" stroke="#191970" d="M527.0809,-313.2244C520.8135,-295.141 507.2357,-255.1899 497.5,-221 491.9774,-201.6058 486.5553,-179.2013 482.9261,-163.5781"/>
<polygon fill="#191970" stroke="#191970" points="486.271,-162.5054 480.6246,-153.5405 479.4481,-164.0698 486.271,-162.5054"/>
</g>
<!-- Node20 -->
<g id="node21" class="node">
<title>Node20</title>
<g id="a_node21"><a xlink:href="tree_8h.html" target="_top" xlink:title="Implementation of the classes for binary tree node, general tree node and functions for manipulating ...">
<polygon fill="none" stroke="#000000" points="364,-134.5 364,-153.5 405,-153.5 405,-134.5 364,-134.5"/>
<text text-anchor="middle" x="384.5" y="-141.5" font-family="Helvetica,sans-Serif" font-size="10.00" fill="#000000">tree.h</text>
</a>
</g>
</g>
<!-- Node2&#45;&gt;Node20 -->
<g id="edge67" class="edge">
<title>Node2&#45;&gt;Node20</title>
<path fill="none" stroke="#191970" d="M522.6504,-313.3762C499.1815,-284.6027 429.2973,-198.9228 398.8949,-161.6485"/>
<polygon fill="#191970" stroke="#191970" points="401.4213,-159.2084 392.3884,-153.6714 395.9968,-163.6328 401.4213,-159.2084"/>
</g>
<!-- Node2&#45;&gt;Node26 -->
<g id="edge37" class="edge">
<title>Node2&#45;&gt;Node26</title>
<path fill="none" stroke="#191970" d="M582.559,-316.8892C753.3125,-296.8457 1295.619,-233.1883 1474.0054,-212.2489"/>
<polygon fill="#191970" stroke="#191970" points="1474.4537,-215.7204 1483.9775,-211.0783 1473.6376,-208.7681 1474.4537,-215.7204"/>
</g>
<!-- Node4 -->
<g id="node5" class="node">
<title>Node4</title>
<g id="a_node5"><a xlink:href="cluster_8h.html" target="_top" xlink:title="Implementation of the class Cluster. ">
<polygon fill="none" stroke="#000000" points="779.5,-134.5 779.5,-153.5 833.5,-153.5 833.5,-134.5 779.5,-134.5"/>
<text text-anchor="middle" x="806.5" y="-141.5" font-family="Helvetica,sans-Serif" font-size="10.00" fill="#000000">cluster.h</text>
</a>
</g>
</g>
<!-- Node3&#45;&gt;Node4 -->
<g id="edge4" class="edge">
<title>Node3&#45;&gt;Node4</title>
<path fill="none" stroke="#191970" d="M616.6645,-257.3484C652.5407,-235.9272 739.0153,-184.2943 781.7479,-158.7792"/>
<polygon fill="#191970" stroke="#191970" points="783.619,-161.7385 790.4106,-153.6068 780.0303,-155.7283 783.619,-161.7385"/>
</g>
<!-- Node3&#45;&gt;Node15 -->
<g id="edge16" class="edge">
<title>Node3&#45;&gt;Node15</title>
<path fill="none" stroke="#191970" d="M591.75,-257.3906C583.3338,-248.1478 570.4203,-233.966 560.219,-222.7628"/>
<polygon fill="#191970" stroke="#191970" points="562.694,-220.2824 553.3734,-215.2449 557.5182,-224.9953 562.694,-220.2824"/>
</g>
<!-- Node5 -->
<g id="node6" class="node">
<title>Node5</title>
<polygon fill="none" stroke="#bfbfbf" points="1165,-73 1165,-92 1268,-92 1268,-73 1165,-73"/>
<text text-anchor="middle" x="1216.5" y="-80" font-family="Helvetica,sans-Serif" font-size="10.00" fill="#000000">deal.II/base/types.h</text>
</g>
<!-- Node4&#45;&gt;Node5 -->
<g id="edge5" class="edge">
<title>Node4&#45;&gt;Node5</title>
<path fill="none" stroke="#191970" d="M833.8268,-141.5044C892.8814,-135.8696 1036.6699,-120.8461 1155.5,-98 1160.8652,-96.9685 1166.4615,-95.7487 1171.9941,-94.4534"/>
<polygon fill="#191970" stroke="#191970" points="1172.9299,-97.8279 1181.8201,-92.0648 1171.2764,-91.026 1172.9299,-97.8279"/>
</g>
<!-- Node6 -->
<g id="node7" class="node">
<title>Node6</title>
<polygon fill="none" stroke="#bfbfbf" points="542.5,-73 542.5,-92 598.5,-92 598.5,-73 542.5,-73"/>
<text text-anchor="middle" x="570.5" y="-80" font-family="Helvetica,sans-Serif" font-size="10.00" fill="#000000">algorithm</text>
</g>
<!-- Node4&#45;&gt;Node6 -->
<g id="edge6" class="edge">
<title>Node4&#45;&gt;Node6</title>
<path fill="none" stroke="#191970" d="M779.3915,-139.246C740.7236,-132.1258 667.7408,-117.4256 607.5,-98 605.5612,-97.3748 603.5824,-96.6901 601.5981,-95.9677"/>
<polygon fill="#191970" stroke="#191970" points="602.3781,-92.5152 591.7898,-92.142 599.8343,-99.0367 602.3781,-92.5152"/>
</g>
<!-- Node7 -->
<g id="node8" class="node">
<title>Node7</title>
<polygon fill="none" stroke="#bfbfbf" points="1286,-73 1286,-92 1333,-92 1333,-73 1286,-73"/>
<text text-anchor="middle" x="1309.5" y="-80" font-family="Helvetica,sans-Serif" font-size="10.00" fill="#000000">iterator</text>
</g>
<!-- Node4&#45;&gt;Node7 -->
<g id="edge7" class="edge">
<title>Node4&#45;&gt;Node7</title>
<path fill="none" stroke="#191970" d="M833.5396,-142.6141C920.6011,-137.9555 1192.8734,-121.8054 1277.5,-98 1279.4164,-97.4609 1281.3578,-96.8117 1283.2875,-96.0886"/>
<polygon fill="#191970" stroke="#191970" points="1284.883,-99.2118 1292.6684,-92.0258 1282.101,-92.7883 1284.883,-99.2118"/>
</g>
<!-- Node8 -->
<g id="node9" class="node">
<title>Node8</title>
<polygon fill="none" stroke="#bfbfbf" points="970.5,-6 970.5,-25 1014.5,-25 1014.5,-6 970.5,-6"/>
<text text-anchor="middle" x="992.5" y="-13" font-family="Helvetica,sans-Serif" font-size="10.00" fill="#000000">vector</text>
</g>
<!-- Node4&#45;&gt;Node8 -->
<g id="edge8" class="edge">
<title>Node4&#45;&gt;Node8</title>
<path fill="none" stroke="#191970" d="M833.8122,-139.9265C876.0352,-133.0807 954.3038,-118.0284 973.5,-98 989.5776,-81.2254 993.044,-53.7081 993.3436,-35.1125"/>
<polygon fill="#191970" stroke="#191970" points="996.8433,-35.0574 993.2156,-25.1031 989.8439,-35.147 996.8433,-35.0574"/>
</g>
<!-- Node9 -->
<g id="node10" class="node">
<title>Node9</title>
<g id="a_node10"><a xlink:href="simple__bounding__box_8h_source.html" target="_top" xlink:title="simple_bounding_box.h">
<polygon fill="none" stroke="#000000" points="747,-73 747,-92 866,-92 866,-73 747,-73"/>
<text text-anchor="middle" x="806.5" y="-80" font-family="Helvetica,sans-Serif" font-size="10.00" fill="#000000">simple_bounding_box.h</text>
</a>
</g>
</g>
<!-- Node4&#45;&gt;Node9 -->
<g id="edge9" class="edge">
<title>Node4&#45;&gt;Node9</title>
<path fill="none" stroke="#191970" d="M806.5,-134.3906C806.5,-125.8657 806.5,-113.1392 806.5,-102.4235"/>
<polygon fill="#191970" stroke="#191970" points="810.0001,-102.2448 806.5,-92.2449 803.0001,-102.2449 810.0001,-102.2448"/>
</g>
<!-- Node9&#45;&gt;Node8 -->
<g id="edge15" class="edge">
<title>Node9&#45;&gt;Node8</title>
<path fill="none" stroke="#191970" d="M833.1493,-72.9005C866.8465,-60.7623 924.7937,-39.8888 960.7482,-26.9375"/>
<polygon fill="#191970" stroke="#191970" points="962.0455,-30.1904 970.2675,-23.5085 959.6731,-23.6046 962.0455,-30.1904"/>
</g>
<!-- Node10 -->
<g id="node11" class="node">
<title>Node10</title>
<polygon fill="none" stroke="#bfbfbf" points="800.5,-6 800.5,-25 900.5,-25 900.5,-6 800.5,-6"/>
<text text-anchor="middle" x="850.5" y="-13" font-family="Helvetica,sans-Serif" font-size="10.00" fill="#000000">deal.II/base/point.h</text>
</g>
<!-- Node9&#45;&gt;Node10 -->
<g id="edge10" class="edge">
<title>Node9&#45;&gt;Node10</title>
<path fill="none" stroke="#191970" d="M812.8041,-72.9005C819.5349,-62.6515 830.3554,-46.1747 838.6807,-33.4976"/>
<polygon fill="#191970" stroke="#191970" points="841.6438,-35.3616 844.2076,-25.0817 835.7927,-31.5191 841.6438,-35.3616"/>
</g>
<!-- Node11 -->
<g id="node12" class="node">
<title>Node11</title>
<polygon fill="none" stroke="#bfbfbf" points="329,-6 329,-25 456,-25 456,-6 329,-6"/>
<text text-anchor="middle" x="392.5" y="-13" font-family="Helvetica,sans-Serif" font-size="10.00" fill="#000000">deal.II/dofs/dof_handler.h</text>
</g>
<!-- Node9&#45;&gt;Node11 -->
<g id="edge11" class="edge">
<title>Node9&#45;&gt;Node11</title>
<path fill="none" stroke="#191970" d="M766.8475,-72.9801C757.2714,-70.8508 747.0461,-68.7173 737.5,-67 620.5183,-45.955 589.7802,-50.312 472.5,-31 465.0264,-29.7694 457.1797,-28.3755 449.4429,-26.9406"/>
<polygon fill="#191970" stroke="#191970" points="449.8517,-23.456 439.376,-25.0408 448.5535,-30.3346 449.8517,-23.456"/>
</g>
<!-- Node12 -->
<g id="node13" class="node">
<title>Node12</title>
<polygon fill="none" stroke="#bfbfbf" points="481.5,-6 481.5,-25 597.5,-25 597.5,-6 481.5,-6"/>
<text text-anchor="middle" x="539.5" y="-13" font-family="Helvetica,sans-Serif" font-size="10.00" fill="#000000">deal.II/dofs/dof_tools.h</text>
</g>
<!-- Node9&#45;&gt;Node12 -->
<g id="edge12" class="edge">
<title>Node9&#45;&gt;Node12</title>
<path fill="none" stroke="#191970" d="M768.529,-72.9717C721.018,-61.0495 639.6083,-40.6208 587.7345,-27.6038"/>
<polygon fill="#191970" stroke="#191970" points="588.3235,-24.1431 577.7723,-25.1039 586.6197,-30.9326 588.3235,-24.1431"/>
</g>
<!-- Node13 -->
<g id="node14" class="node">
<title>Node13</title>
<polygon fill="none" stroke="#bfbfbf" points="619,-6 619,-25 722,-25 722,-6 619,-6"/>
<text text-anchor="middle" x="670.5" y="-13" font-family="Helvetica,sans-Serif" font-size="10.00" fill="#000000">deal.II/fe/mapping.h</text>
</g>
<!-- Node9&#45;&gt;Node13 -->
<g id="edge13" class="edge">
<title>Node9&#45;&gt;Node13</title>
<path fill="none" stroke="#191970" d="M787.0145,-72.9005C763.9887,-61.5569 725.4772,-42.5844 699.0768,-29.5783"/>
<polygon fill="#191970" stroke="#191970" points="700.4666,-26.3613 689.9493,-25.0817 697.3731,-32.6407 700.4666,-26.3613"/>
</g>
<!-- Node14 -->
<g id="node15" class="node">
<title>Node14</title>
<polygon fill="none" stroke="#bfbfbf" points="742.5,-6 742.5,-25 782.5,-25 782.5,-6 742.5,-6"/>
<text text-anchor="middle" x="762.5" y="-13" font-family="Helvetica,sans-Serif" font-size="10.00" fill="#000000">utility</text>
</g>
<!-- Node9&#45;&gt;Node14 -->
<g id="edge14" class="edge">
<title>Node9&#45;&gt;Node14</title>
<path fill="none" stroke="#191970" d="M800.1959,-72.9005C793.4651,-62.6515 782.6446,-46.1747 774.3193,-33.4976"/>
<polygon fill="#191970" stroke="#191970" points="777.2073,-31.5191 768.7924,-25.0817 771.3562,-35.3616 777.2073,-31.5191"/>
</g>
<!-- Node15&#45;&gt;Node4 -->
<g id="edge17" class="edge">
<title>Node15&#45;&gt;Node4</title>
<path fill="none" stroke="#191970" d="M582.597,-196.5574C632.5493,-184.8319 719.6321,-164.3908 769.1904,-152.7578"/>
<polygon fill="#191970" stroke="#191970" points="770.2337,-156.1081 779.1692,-150.4154 768.634,-149.2933 770.2337,-156.1081"/>
</g>
<!-- Node15&#45;&gt;Node16 -->
<g id="edge18" class="edge">
<title>Node15&#45;&gt;Node16</title>
<path fill="none" stroke="#191970" d="M534.1875,-195.8906C524.0758,-186.4683 508.4558,-171.9134 496.3293,-160.6137"/>
<polygon fill="#191970" stroke="#191970" points="498.6601,-158.0015 488.9579,-153.7449 493.888,-163.1228 498.6601,-158.0015"/>
</g>
<!-- Node15&#45;&gt;Node20 -->
<g id="edge26" class="edge">
<title>Node15&#45;&gt;Node20</title>
<path fill="none" stroke="#191970" d="M519.5,-195.8906C491.2308,-185.0247 445.2028,-167.3326 414.8844,-155.679"/>
<polygon fill="#191970" stroke="#191970" points="415.8432,-152.2979 405.2532,-151.977 413.3316,-158.8319 415.8432,-152.2979"/>
</g>
<!-- Node16&#45;&gt;Node1 -->
<g id="edge24" class="edge">
<title>Node16&#45;&gt;Node1</title>
<path fill="none" stroke="#191970" d="M446.4316,-134.4631C416.7366,-125.4981 371.4248,-111.4778 332.5,-98 330.2551,-97.2227 327.948,-96.4045 325.6272,-95.5669"/>
<polygon fill="#191970" stroke="#191970" points="326.7279,-92.2424 316.1345,-92.0696 324.3079,-98.8109 326.7279,-92.2424"/>
</g>
<!-- Node16&#45;&gt;Node11 -->
<g id="edge19" class="edge">
<title>Node16&#45;&gt;Node11</title>
<path fill="none" stroke="#191970" d="M447.4877,-134.3571C430.0339,-127.2242 409.5771,-115.6376 398.5,-98 386.6651,-79.1558 386.959,-52.8982 389.0348,-35.1057"/>
<polygon fill="#191970" stroke="#191970" points="392.5243,-35.4317 390.5058,-25.031 385.5977,-34.4204 392.5243,-35.4317"/>
</g>
<!-- Node16&#45;&gt;Node12 -->
<g id="edge20" class="edge">
<title>Node16&#45;&gt;Node12</title>
<path fill="none" stroke="#191970" d="M452.615,-134.4647C436.7773,-127.1252 417.8206,-115.2779 408.5,-98 401.9587,-85.8741 400.7419,-78.3859 408.5,-67 418.4879,-52.3414 459.2736,-37.7469 492.7163,-27.8576"/>
<polygon fill="#191970" stroke="#191970" points="493.7317,-31.2075 502.3686,-25.071 491.7901,-24.4821 493.7317,-31.2075"/>
</g>
<!-- Node16&#45;&gt;Node13 -->
<g id="edge23" class="edge">
<title>Node16&#45;&gt;Node13</title>
<path fill="none" stroke="#191970" d="M467.5693,-134.4481C451.2765,-119.0653 424.2901,-88.3696 441.5,-67 488.5789,-8.5418 533.3538,-47.8348 606.5,-31 611.456,-29.8594 616.6222,-28.6471 621.7757,-27.4226"/>
<polygon fill="#191970" stroke="#191970" points="622.7017,-30.7999 631.6122,-25.0682 621.0722,-23.9922 622.7017,-30.7999"/>
</g>
<!-- Node17 -->
<g id="node18" class="node">
<title>Node17</title>
<polygon fill="none" stroke="#bfbfbf" points="450.5,-73 450.5,-92 524.5,-92 524.5,-73 450.5,-73"/>
<text text-anchor="middle" x="487.5" y="-80" font-family="Helvetica,sans-Serif" font-size="10.00" fill="#000000">deal.II/fe/fe.h</text>
</g>
<!-- Node16&#45;&gt;Node17 -->
<g id="edge21" class="edge">
<title>Node16&#45;&gt;Node17</title>
<path fill="none" stroke="#191970" d="M479.9063,-134.3906C481.1538,-125.8657 483.0162,-113.1392 484.5844,-102.4235"/>
<polygon fill="#191970" stroke="#191970" points="488.089,-102.6463 486.0739,-92.2449 481.1627,-101.6326 488.089,-102.6463"/>
</g>
<!-- Node18 -->
<g id="node19" class="node">
<title>Node18</title>
<polygon fill="none" stroke="#bfbfbf" points="616.5,-73 616.5,-92 728.5,-92 728.5,-73 616.5,-73"/>
<text text-anchor="middle" x="672.5" y="-80" font-family="Helvetica,sans-Serif" font-size="10.00" fill="#000000">deal.II/fe/fe_system.h</text>
</g>
<!-- Node16&#45;&gt;Node18 -->
<g id="edge22" class="edge">
<title>Node16&#45;&gt;Node18</title>
<path fill="none" stroke="#191970" d="M508.8125,-134.3906C542.1265,-123.8298 595.7808,-106.8208 632.5181,-95.1747"/>
<polygon fill="#191970" stroke="#191970" points="633.9256,-98.4002 642.4004,-92.0419 631.8102,-91.7275 633.9256,-98.4002"/>
</g>
<!-- Node19 -->
<g id="node20" class="node">
<title>Node19</title>
<polygon fill="none" stroke="#bfbfbf" points="923,-73 923,-92 964,-92 964,-73 923,-73"/>
<text text-anchor="middle" x="943.5" y="-80" font-family="Helvetica,sans-Serif" font-size="10.00" fill="#000000">string</text>
</g>
<!-- Node16&#45;&gt;Node19 -->
<g id="edge25" class="edge">
<title>Node16&#45;&gt;Node19</title>
<path fill="none" stroke="#191970" d="M517.0319,-141.4135C608.1968,-135.0467 834.9811,-117.6942 908.5,-98 910.6906,-97.4132 912.9191,-96.7074 915.1364,-95.9248"/>
<polygon fill="#191970" stroke="#191970" points="916.6451,-99.0912 924.6343,-92.1325 914.0494,-92.5902 916.6451,-99.0912"/>
</g>
<!-- Node20&#45;&gt;Node1 -->
<g id="edge32" class="edge">
<title>Node20&#45;&gt;Node1</title>
<path fill="none" stroke="#191970" d="M369.9688,-134.3906C355.0906,-124.5519 331.7496,-109.1167 314.3872,-97.6351"/>
<polygon fill="#191970" stroke="#191970" points="316.201,-94.6385 305.9292,-92.0419 312.3398,-100.4773 316.201,-94.6385"/>
</g>
<!-- Node20&#45;&gt;Node6 -->
<g id="edge28" class="edge">
<title>Node20&#45;&gt;Node6</title>
<path fill="none" stroke="#191970" d="M405.4414,-138.2314C434.4704,-130.0776 488.4549,-114.3446 533.5,-98 535.3658,-97.323 537.2748,-96.6046 539.1942,-95.8624"/>
<polygon fill="#191970" stroke="#191970" points="540.7505,-99.0092 548.7263,-92.0352 538.1423,-92.5133 540.7505,-99.0092"/>
</g>
<!-- Node20&#45;&gt;Node8 -->
<g id="edge34" class="edge">
<title>Node20&#45;&gt;Node8</title>
<path fill="none" stroke="#191970" d="M405.4526,-138.9386C413.5489,-137.1418 422.9153,-135.256 431.5,-134 627.3955,-105.34 691.3684,-170.7461 875.5,-98 896.0932,-89.8641 896.5771,-80.0015 914.5,-67 932.1779,-54.1762 952.8266,-40.6021 968.4365,-30.6108"/>
<polygon fill="#191970" stroke="#191970" points="970.4244,-33.4945 976.9845,-25.1749 966.6681,-27.5877 970.4244,-33.4945"/>
</g>
<!-- Node21 -->
<g id="node22" class="node">
<title>Node21</title>
<polygon fill="none" stroke="#bfbfbf" points="1020.5,-73 1020.5,-92 1146.5,-92 1146.5,-73 1020.5,-73"/>
<text text-anchor="middle" x="1083.5" y="-80" font-family="Helvetica,sans-Serif" font-size="10.00" fill="#000000">deal.II/base/exceptions.h</text>
</g>
<!-- Node20&#45;&gt;Node21 -->
<g id="edge27" class="edge">
<title>Node20&#45;&gt;Node21</title>
<path fill="none" stroke="#191970" d="M405.4432,-138.8723C413.5383,-137.0675 422.9064,-135.1933 431.5,-134 670.6251,-100.7941 733.3637,-122.8596 973.5,-98 985.8366,-96.7229 998.9165,-95.1093 1011.588,-93.4089"/>
<polygon fill="#191970" stroke="#191970" points="1012.2084,-96.8566 1021.6406,-92.0313 1011.258,-89.9215 1012.2084,-96.8566"/>
</g>
<!-- Node22 -->
<g id="node23" class="node">
<title>Node22</title>
<polygon fill="none" stroke="#bfbfbf" points="53.5,-73 53.5,-92 91.5,-92 91.5,-73 53.5,-73"/>
<text text-anchor="middle" x="72.5" y="-80" font-family="Helvetica,sans-Serif" font-size="10.00" fill="#000000">array</text>
</g>
<!-- Node20&#45;&gt;Node22 -->
<g id="edge29" class="edge">
<title>Node20&#45;&gt;Node22</title>
<path fill="none" stroke="#191970" d="M363.9443,-143.0879C316.3455,-140.4621 195.378,-130.8248 100.5,-98 99.2595,-97.5708 98.0095,-97.0888 96.7623,-96.5675"/>
<polygon fill="#191970" stroke="#191970" points="97.9825,-93.2683 87.4612,-92.0221 94.909,-99.5575 97.9825,-93.2683"/>
</g>
<!-- Node23 -->
<g id="node24" class="node">
<title>Node23</title>
<polygon fill="none" stroke="#bfbfbf" points="110,-73 110,-92 169,-92 169,-73 110,-73"/>
<text text-anchor="middle" x="139.5" y="-80" font-family="Helvetica,sans-Serif" font-size="10.00" fill="#000000">exception</text>
</g>
<!-- Node20&#45;&gt;Node23 -->
<g id="edge30" class="edge">
<title>Node20&#45;&gt;Node23</title>
<path fill="none" stroke="#191970" d="M363.927,-140.6164C326.378,-134.1799 244.4366,-118.9248 177.5,-98 175.3451,-97.3264 173.1415,-96.582 170.9342,-95.7948"/>
<polygon fill="#191970" stroke="#191970" points="171.9643,-92.4419 161.3733,-92.1551 169.4738,-98.9839 171.9643,-92.4419"/>
</g>
<!-- Node24 -->
<g id="node25" class="node">
<title>Node24</title>
<polygon fill="none" stroke="#bfbfbf" points="187,-73 187,-92 246,-92 246,-73 187,-73"/>
<text text-anchor="middle" x="216.5" y="-80" font-family="Helvetica,sans-Serif" font-size="10.00" fill="#000000">functional</text>
</g>
<!-- Node20&#45;&gt;Node24 -->
<g id="edge31" class="edge">
<title>Node20&#45;&gt;Node24</title>
<path fill="none" stroke="#191970" d="M363.8626,-136.8962C338.3228,-128.0462 293.5466,-112.3388 255.5,-98 253.6592,-97.3062 251.7728,-96.5864 249.871,-95.8537"/>
<polygon fill="#191970" stroke="#191970" points="250.9607,-92.5219 240.3726,-92.1443 248.4143,-99.0423 250.9607,-92.5219"/>
</g>
<!-- Node25 -->
<g id="node26" class="node">
<title>Node25</title>
<polygon fill="none" stroke="#bfbfbf" points="0,-73 0,-92 35,-92 35,-73 0,-73"/>
<text text-anchor="middle" x="17.5" y="-80" font-family="Helvetica,sans-Serif" font-size="10.00" fill="#000000">new</text>
</g>
<!-- Node20&#45;&gt;Node25 -->
<g id="edge33" class="edge">
<title>Node20&#45;&gt;Node25</title>
<path fill="none" stroke="#191970" d="M363.5755,-142.2319C299.133,-136.6203 104.4183,-118.3769 44.5,-98 43.2911,-97.5889 42.0753,-97.1216 40.8643,-96.6121"/>
<polygon fill="#191970" stroke="#191970" points="42.3747,-93.4542 31.8656,-92.1091 39.2421,-99.7142 42.3747,-93.4542"/>
</g>
<!-- Node26&#45;&gt;Node8 -->
<g id="edge43" class="edge">
<title>Node26&#45;&gt;Node8</title>
<path fill="none" stroke="#191970" d="M1541.6656,-190.3719C1559.1708,-162.273 1590.2166,-101.7335 1558.5,-67 1522.3651,-27.4279 1139.9673,-17.9313 1025.0072,-15.9628"/>
<polygon fill="#191970" stroke="#191970" points="1024.7934,-12.4589 1014.7375,-15.795 1024.679,-19.458 1024.7934,-12.4589"/>
</g>
<!-- Node26&#45;&gt;Node19 -->
<g id="edge42" class="edge">
<title>Node26&#45;&gt;Node19</title>
<path fill="none" stroke="#191970" d="M1483.8156,-202.6153C1409.3937,-197.3599 1261.5052,-183.8841 1139.5,-154 1079.1079,-139.2075 1011.5791,-112.1043 973.6389,-95.8514"/>
<polygon fill="#191970" stroke="#191970" points="974.7705,-92.5276 964.2028,-91.7708 971.992,-98.9526 974.7705,-92.5276"/>
</g>
<!-- Node27 -->
<g id="node28" class="node">
<title>Node27</title>
<polygon fill="none" stroke="#bfbfbf" points="1605.5,-134.5 1605.5,-153.5 1645.5,-153.5 1645.5,-134.5 1605.5,-134.5"/>
<text text-anchor="middle" x="1625.5" y="-141.5" font-family="Helvetica,sans-Serif" font-size="10.00" fill="#000000">limits</text>
</g>
<!-- Node26&#45;&gt;Node27 -->
<g id="edge38" class="edge">
<title>Node26&#45;&gt;Node27</title>
<path fill="none" stroke="#191970" d="M1554.736,-190.2977C1569.2334,-180.8127 1587.8244,-168.6495 1602.3126,-159.1705"/>
<polygon fill="#191970" stroke="#191970" points="1604.2782,-162.0671 1610.7301,-153.6633 1600.4457,-156.2094 1604.2782,-162.0671"/>
</g>
<!-- Node28 -->
<g id="node29" class="node">
<title>Node28</title>
<polygon fill="none" stroke="#bfbfbf" points="1514,-73 1514,-92 1549,-92 1549,-73 1514,-73"/>
<text text-anchor="middle" x="1531.5" y="-80" font-family="Helvetica,sans-Serif" font-size="10.00" fill="#000000">map</text>
</g>
<!-- Node26&#45;&gt;Node28 -->
<g id="edge39" class="edge">
<title>Node26&#45;&gt;Node28</title>
<path fill="none" stroke="#191970" d="M1531.5,-190.4178C1531.5,-168.2662 1531.5,-126.9061 1531.5,-102.3234"/>
<polygon fill="#191970" stroke="#191970" points="1535.0001,-102.0492 1531.5,-92.0493 1528.0001,-102.0493 1535.0001,-102.0492"/>
</g>
<!-- Node29 -->
<g id="node30" class="node">
<title>Node29</title>
<polygon fill="none" stroke="#bfbfbf" points="2148,-134.5 2148,-153.5 2189,-153.5 2189,-134.5 2148,-134.5"/>
<text text-anchor="middle" x="2168.5" y="-141.5" font-family="Helvetica,sans-Serif" font-size="10.00" fill="#000000">regex</text>
</g>
<!-- Node26&#45;&gt;Node29 -->
<g id="edge40" class="edge">
<title>Node26&#45;&gt;Node29</title>
<path fill="none" stroke="#191970" d="M1579.2599,-202.9147C1699.598,-196.1724 2013.8559,-177.092 2137.7069,-153.627"/>
<polygon fill="#191970" stroke="#191970" points="2138.5688,-157.0241 2147.6922,-151.6378 2137.2011,-150.159 2138.5688,-157.0241"/>
</g>
<!-- Node30 -->
<g id="node31" class="node">
<title>Node30</title>
<polygon fill="none" stroke="#bfbfbf" points="2207.5,-134.5 2207.5,-153.5 2259.5,-153.5 2259.5,-134.5 2207.5,-134.5"/>
<text text-anchor="middle" x="2233.5" y="-141.5" font-family="Helvetica,sans-Serif" font-size="10.00" fill="#000000">sstream</text>
</g>
<!-- Node26&#45;&gt;Node30 -->
<g id="edge41" class="edge">
<title>Node26&#45;&gt;Node30</title>
<path fill="none" stroke="#191970" d="M1579.0849,-203.0741C1707.6021,-196.3286 2060.637,-176.4696 2197.0477,-153.881"/>
<polygon fill="#191970" stroke="#191970" points="2198.0052,-157.2673 2207.2601,-152.1102 2196.8092,-150.3702 2198.0052,-157.2673"/>
</g>
<!-- Node31 -->
<g id="node32" class="node">
<title>Node31</title>
<g id="a_node32"><a xlink:href="general__exceptions_8h.html" target="_top" xlink:title="Definition of self&#45;defined general exceptions. ">
<polygon fill="none" stroke="#000000" points="1148,-134.5 1148,-153.5 1257,-153.5 1257,-134.5 1148,-134.5"/>
<text text-anchor="middle" x="1202.5" y="-141.5" font-family="Helvetica,sans-Serif" font-size="10.00" fill="#000000">general_exceptions.h</text>
</a>
</g>
</g>
<!-- Node26&#45;&gt;Node31 -->
<g id="edge44" class="edge">
<title>Node26&#45;&gt;Node31</title>
<path fill="none" stroke="#191970" d="M1483.6606,-196.5574C1425.3824,-185.6634 1326.8568,-167.246 1263.2671,-155.3592"/>
<polygon fill="#191970" stroke="#191970" points="1263.8458,-151.9068 1253.3729,-153.5097 1262.5595,-158.7876 1263.8458,-151.9068"/>
</g>
<!-- Node32 -->
<g id="node33" class="node">
<title>Node32</title>
<g id="a_node33"><a xlink:href="generic__functors_8h.html" target="_top" xlink:title="This header file contains a set of self&#45;defined generic functors. ">
<polygon fill="none" stroke="#000000" points="1344,-134.5 1344,-153.5 1441,-153.5 1441,-134.5 1344,-134.5"/>
<text text-anchor="middle" x="1392.5" y="-141.5" font-family="Helvetica,sans-Serif" font-size="10.00" fill="#000000">generic_functors.h</text>
</a>
</g>
</g>
<!-- Node26&#45;&gt;Node32 -->
<g id="edge46" class="edge">
<title>Node26&#45;&gt;Node32</title>
<path fill="none" stroke="#191970" d="M1497.4968,-190.4554C1474.8129,-180.419 1445.2327,-167.3314 1423.2521,-157.6061"/>
<polygon fill="#191970" stroke="#191970" points="1424.6011,-154.3758 1414.0401,-153.5303 1421.7688,-160.7772 1424.6011,-154.3758"/>
</g>
<!-- Node35 -->
<g id="node36" class="node">
<title>Node35</title>
<g id="a_node36"><a xlink:href="lapack__helpers_8h.html" target="_top" xlink:title="Exposes LAPACK helper functions defined in lapack_full_matrix.cc and define new ones by following the...">
<polygon fill="none" stroke="#000000" points="2039.5,-134.5 2039.5,-153.5 2129.5,-153.5 2129.5,-134.5 2039.5,-134.5"/>
<text text-anchor="middle" x="2084.5" y="-141.5" font-family="Helvetica,sans-Serif" font-size="10.00" fill="#000000">lapack_helpers.h</text>
</a>
</g>
</g>
<!-- Node26&#45;&gt;Node35 -->
<g id="edge54" class="edge">
<title>Node26&#45;&gt;Node35</title>
<path fill="none" stroke="#191970" d="M1579.1271,-200.2033C1681.1549,-188.8566 1920.3539,-162.255 2029.0262,-150.1693"/>
<polygon fill="#191970" stroke="#191970" points="2029.5746,-153.63 2039.1264,-149.0461 2028.8008,-146.6729 2029.5746,-153.63"/>
</g>
<!-- Node31&#45;&gt;Node21 -->
<g id="edge45" class="edge">
<title>Node31&#45;&gt;Node21</title>
<path fill="none" stroke="#191970" d="M1183.9063,-134.3906C1164.3447,-124.2811 1133.3499,-108.2628 1110.9691,-96.6962"/>
<polygon fill="#191970" stroke="#191970" points="1112.4539,-93.5238 1101.9632,-92.0419 1109.24,-99.7425 1112.4539,-93.5238"/>
</g>
<!-- Node32&#45;&gt;Node5 -->
<g id="edge48" class="edge">
<title>Node32&#45;&gt;Node5</title>
<path fill="none" stroke="#191970" d="M1365,-134.3906C1335.0353,-123.92 1286.9317,-107.1111 1253.6302,-95.4745"/>
<polygon fill="#191970" stroke="#191970" points="1254.4017,-92.0366 1243.8069,-92.0419 1252.0926,-98.6448 1254.4017,-92.0366"/>
</g>
<!-- Node32&#45;&gt;Node7 -->
<g id="edge51" class="edge">
<title>Node32&#45;&gt;Node7</title>
<path fill="none" stroke="#191970" d="M1379.5313,-134.3906C1366.4966,-124.7324 1346.1836,-109.6812 1330.7845,-98.271"/>
<polygon fill="#191970" stroke="#191970" points="1332.4961,-95.1832 1322.3777,-92.0419 1328.3287,-100.8075 1332.4961,-95.1832"/>
</g>
<!-- Node32&#45;&gt;Node8 -->
<g id="edge53" class="edge">
<title>Node32&#45;&gt;Node8</title>
<path fill="none" stroke="#191970" d="M1389.2283,-134.2811C1383.0244,-117.4852 1367.8544,-83.2688 1342.5,-67 1290.1519,-33.4106 1101.5546,-20.7346 1025.0673,-16.9052"/>
<polygon fill="#191970" stroke="#191970" points="1024.782,-13.3875 1014.6253,-16.403 1024.4456,-20.3795 1024.782,-13.3875"/>
</g>
<!-- Node32&#45;&gt;Node21 -->
<g id="edge47" class="edge">
<title>Node32&#45;&gt;Node21</title>
<path fill="none" stroke="#191970" d="M1343.6377,-134.723C1295.8783,-125.597 1221.1284,-111.1588 1156.5,-98 1150.418,-96.7617 1144.0559,-95.444 1137.7315,-94.1201"/>
<polygon fill="#191970" stroke="#191970" points="1138.3763,-90.6792 1127.8699,-92.0449 1136.9349,-97.5292 1138.3763,-90.6792"/>
</g>
<!-- Node32&#45;&gt;Node28 -->
<g id="edge52" class="edge">
<title>Node32&#45;&gt;Node28</title>
<path fill="none" stroke="#191970" d="M1415.5915,-134.4268C1437.3518,-125.3221 1470.8088,-111.1079 1499.5,-98 1501.2686,-97.192 1503.0865,-96.3481 1504.9148,-95.4895"/>
<polygon fill="#191970" stroke="#191970" points="1506.4454,-98.6372 1513.9621,-91.1707 1503.4298,-92.3201 1506.4454,-98.6372"/>
</g>
<!-- Node33 -->
<g id="node34" class="node">
<title>Node33</title>
<polygon fill="none" stroke="#bfbfbf" points="1620,-.5 1620,-30.5 1711,-30.5 1711,-.5 1620,-.5"/>
<text text-anchor="start" x="1628" y="-18.5" font-family="Helvetica,sans-Serif" font-size="10.00" fill="#000000">deal.II/lac/lapack</text>
<text text-anchor="middle" x="1665.5" y="-7.5" font-family="Helvetica,sans-Serif" font-size="10.00" fill="#000000">_support.h</text>
</g>
<!-- Node32&#45;&gt;Node33 -->
<g id="edge49" class="edge">
<title>Node32&#45;&gt;Node33</title>
<path fill="none" stroke="#191970" d="M1409.0168,-134.4765C1424.249,-125.5208 1447.3341,-111.5066 1466.5,-98 1484.5993,-85.2451 1485.979,-77.45 1505.5,-67 1538.3485,-49.4155 1578.2315,-36.5607 1609.9606,-28.092"/>
<polygon fill="#191970" stroke="#191970" points="1611.1574,-31.3974 1619.9565,-25.4961 1609.3978,-24.6221 1611.1574,-31.3974"/>
</g>
<!-- Node34 -->
<g id="node35" class="node">
<title>Node34</title>
<polygon fill="none" stroke="#bfbfbf" points="1390,-73 1390,-92 1457,-92 1457,-73 1390,-73"/>
<text text-anchor="middle" x="1423.5" y="-80" font-family="Helvetica,sans-Serif" font-size="10.00" fill="#000000">forward_list</text>
</g>
<!-- Node32&#45;&gt;Node34 -->
<g id="edge50" class="edge">
<title>Node32&#45;&gt;Node34</title>
<path fill="none" stroke="#191970" d="M1397.3438,-134.3906C1401.7766,-125.5965 1408.4631,-112.3312 1413.9659,-101.4145"/>
<polygon fill="#191970" stroke="#191970" points="1417.2122,-102.75 1418.588,-92.2449 1410.9614,-99.5992 1417.2122,-102.75"/>
</g>
<!-- Node35&#45;&gt;Node33 -->
<g id="edge60" class="edge">
<title>Node35&#45;&gt;Node33</title>
<path fill="none" stroke="#191970" d="M2129.7551,-135.3245C2133.0461,-134.8311 2136.3201,-134.3817 2139.5,-134 2274.6797,-117.7757 2842.4582,-165.5324 2748.5,-67 2712.7536,-29.5134 1937.6116,-18.4152 1721.1801,-16.0417"/>
<polygon fill="#191970" stroke="#191970" points="1721.0389,-12.5401 1711.0018,-15.932 1720.9634,-19.5397 1721.0389,-12.5401"/>
</g>
<!-- Node36 -->
<g id="node37" class="node">
<title>Node36</title>
<polygon fill="none" stroke="#bfbfbf" points="2089.5,-73 2089.5,-92 2205.5,-92 2205.5,-73 2089.5,-73"/>
<text text-anchor="middle" x="2147.5" y="-80" font-family="Helvetica,sans-Serif" font-size="10.00" fill="#000000">deal.II/base/numbers.h</text>
</g>
<!-- Node35&#45;&gt;Node36 -->
<g id="edge55" class="edge">
<title>Node35&#45;&gt;Node36</title>
<path fill="none" stroke="#191970" d="M2094.3438,-134.3906C2103.9039,-125.0581 2118.6223,-110.6902 2130.1495,-99.4374"/>
<polygon fill="#191970" stroke="#191970" points="2132.8066,-101.7348 2137.5175,-92.2449 2127.9168,-96.7257 2132.8066,-101.7348"/>
</g>
<!-- Node37 -->
<g id="node38" class="node">
<title>Node37</title>
<polygon fill="none" stroke="#bfbfbf" points="2223.5,-67.5 2223.5,-97.5 2351.5,-97.5 2351.5,-67.5 2223.5,-67.5"/>
<text text-anchor="start" x="2231.5" y="-85.5" font-family="Helvetica,sans-Serif" font-size="10.00" fill="#000000">deal.II/lac/blas_extension</text>
<text text-anchor="middle" x="2287.5" y="-74.5" font-family="Helvetica,sans-Serif" font-size="10.00" fill="#000000">_templates.h</text>
</g>
<!-- Node35&#45;&gt;Node37 -->
<g id="edge56" class="edge">
<title>Node35&#45;&gt;Node37</title>
<path fill="none" stroke="#191970" d="M2116.2188,-134.3906C2146.109,-125.3352 2191.6476,-111.539 2228.2575,-100.4479"/>
<polygon fill="#191970" stroke="#191970" points="2229.285,-103.7937 2237.8406,-97.5446 2227.2553,-97.0944 2229.285,-103.7937"/>
</g>
<!-- Node38 -->
<g id="node39" class="node">
<title>Node38</title>
<polygon fill="none" stroke="#bfbfbf" points="2369.5,-73 2369.5,-92 2495.5,-92 2495.5,-73 2369.5,-73"/>
<text text-anchor="middle" x="2432.5" y="-80" font-family="Helvetica,sans-Serif" font-size="10.00" fill="#000000">deal.II/lac/block_vector.h</text>
</g>
<!-- Node35&#45;&gt;Node38 -->
<g id="edge57" class="edge">
<title>Node35&#45;&gt;Node38</title>
<path fill="none" stroke="#191970" d="M2129.511,-135.7467C2132.89,-135.1484 2136.2482,-134.5604 2139.5,-134 2237.5711,-117.0982 2262.7136,-116.4779 2360.5,-98 2366.7663,-96.8159 2373.3238,-95.5049 2379.8212,-94.1613"/>
<polygon fill="#191970" stroke="#191970" points="2380.865,-97.5185 2389.9315,-92.0367 2379.4254,-90.6681 2380.865,-97.5185"/>
</g>
<!-- Node39 -->
<g id="node40" class="node">
<title>Node39</title>
<polygon fill="none" stroke="#bfbfbf" points="2513.5,-73 2513.5,-92 2629.5,-92 2629.5,-73 2513.5,-73"/>
<text text-anchor="middle" x="2571.5" y="-80" font-family="Helvetica,sans-Serif" font-size="10.00" fill="#000000">deal.II/lac/full_matrix.h</text>
</g>
<!-- Node35&#45;&gt;Node39 -->
<g id="edge58" class="edge">
<title>Node35&#45;&gt;Node39</title>
<path fill="none" stroke="#191970" d="M2129.7736,-135.4664C2133.0602,-134.9397 2136.3282,-134.444 2139.5,-134 2300.9353,-111.4012 2343.6468,-124.4254 2504.5,-98 2510.8398,-96.9585 2517.4747,-95.6699 2524.0006,-94.2843"/>
<polygon fill="#191970" stroke="#191970" points="2525.0998,-97.6258 2534.1077,-92.0483 2523.5878,-90.791 2525.0998,-97.6258"/>
</g>
<!-- Node40 -->
<g id="node41" class="node">
<title>Node40</title>
<polygon fill="none" stroke="#bfbfbf" points="2648,-67.5 2648,-97.5 2739,-97.5 2739,-67.5 2648,-67.5"/>
<text text-anchor="start" x="2656" y="-85.5" font-family="Helvetica,sans-Serif" font-size="10.00" fill="#000000">deal.II/lac/lapack</text>
<text text-anchor="middle" x="2693.5" y="-74.5" font-family="Helvetica,sans-Serif" font-size="10.00" fill="#000000">_full_matrix.h</text>
</g>
<!-- Node35&#45;&gt;Node40 -->
<g id="edge59" class="edge">
<title>Node35&#45;&gt;Node40</title>
<path fill="none" stroke="#191970" d="M2129.7609,-135.3714C2133.0506,-134.867 2136.3227,-134.4023 2139.5,-134 2356.8619,-106.4806 2417.7042,-135.4791 2637.8208,-97.8659"/>
<polygon fill="#191970" stroke="#191970" points="2638.49,-101.3022 2647.7443,-96.1439 2637.2931,-94.4053 2638.49,-101.3022"/>
</g>
<!-- Node41 -->
<g id="node42" class="node">
<title>Node41</title>
<polygon fill="none" stroke="#bfbfbf" points="2796,-67.5 2796,-97.5 2887,-97.5 2887,-67.5 2796,-67.5"/>
<text text-anchor="start" x="2804" y="-85.5" font-family="Helvetica,sans-Serif" font-size="10.00" fill="#000000">deal.II/lac/lapack</text>
<text text-anchor="middle" x="2841.5" y="-74.5" font-family="Helvetica,sans-Serif" font-size="10.00" fill="#000000">_templates.h</text>
</g>
<!-- Node35&#45;&gt;Node41 -->
<g id="edge61" class="edge">
<title>Node35&#45;&gt;Node41</title>
<path fill="none" stroke="#191970" d="M2129.7538,-135.3135C2133.0451,-134.8227 2136.3195,-134.3768 2139.5,-134 2423.2965,-100.3745 2499.1186,-141.9527 2781.5,-98 2782.9617,-97.7725 2784.4395,-97.5247 2785.9274,-97.2595"/>
<polygon fill="#191970" stroke="#191970" points="2786.7083,-100.6728 2795.8314,-95.2859 2785.3402,-93.8077 2786.7083,-100.6728"/>
</g>
<!-- Node42 -->
<g id="node43" class="node">
<title>Node42</title>
<polygon fill="none" stroke="#bfbfbf" points="1743.5,-67.5 1743.5,-97.5 1835.5,-97.5 1835.5,-67.5 1743.5,-67.5"/>
<text text-anchor="start" x="1751.5" y="-85.5" font-family="Helvetica,sans-Serif" font-size="10.00" fill="#000000">deal.II/lac/sparse</text>
<text text-anchor="middle" x="1789.5" y="-74.5" font-family="Helvetica,sans-Serif" font-size="10.00" fill="#000000">_matrix.h</text>
</g>
<!-- Node35&#45;&gt;Node42 -->
<g id="edge62" class="edge">
<title>Node35&#45;&gt;Node42</title>
<path fill="none" stroke="#191970" d="M2039.3425,-136.4174C1991.1164,-128.0615 1912.56,-113.7076 1845.5,-98 1845.3987,-97.9763 1845.2973,-97.9525 1845.1959,-97.9286"/>
<polygon fill="#191970" stroke="#191970" points="1846.116,-94.5507 1835.5699,-95.5655 1844.447,-101.3488 1846.116,-94.5507"/>
</g>
<!-- Node43 -->
<g id="node44" class="node">
<title>Node43</title>
<polygon fill="none" stroke="#bfbfbf" points="1854,-73 1854,-92 1955,-92 1955,-73 1854,-73"/>
<text text-anchor="middle" x="1904.5" y="-80" font-family="Helvetica,sans-Serif" font-size="10.00" fill="#000000">deal.II/lac/utilities.h</text>
</g>
<!-- Node35&#45;&gt;Node43 -->
<g id="edge63" class="edge">
<title>Node35&#45;&gt;Node43</title>
<path fill="none" stroke="#191970" d="M2056.375,-134.3906C2025.5972,-123.8749 1976.1079,-106.966 1942.0345,-95.3243"/>
<polygon fill="#191970" stroke="#191970" points="1943.022,-91.9631 1932.4275,-92.0419 1940.7588,-98.5871 1943.022,-91.9631"/>
</g>
<!-- Node44 -->
<g id="node45" class="node">
<title>Node44</title>
<polygon fill="none" stroke="#bfbfbf" points="1973.5,-73 1973.5,-92 2071.5,-92 2071.5,-73 1973.5,-73"/>
<text text-anchor="middle" x="2022.5" y="-80" font-family="Helvetica,sans-Serif" font-size="10.00" fill="#000000">deal.II/lac/vector.h</text>
</g>
<!-- Node35&#45;&gt;Node44 -->
<g id="edge64" class="edge">
<title>Node35&#45;&gt;Node44</title>
<path fill="none" stroke="#191970" d="M2074.8125,-134.3906C2065.4041,-125.0581 2050.9193,-110.6902 2039.5751,-99.4374"/>
<polygon fill="#191970" stroke="#191970" points="2041.8886,-96.8024 2032.3241,-92.2449 2036.9589,-101.7722 2041.8886,-96.8024"/>
</g>
<!-- Node45 -->
<g id="node46" class="node">
<title>Node45</title>
<g id="a_node46"><a xlink:href="lapack__templates__ext_8h.html" target="_top" xlink:title="Append more template based LAPACK functions to those existing in deal.ii. ">
<polygon fill="none" stroke="#000000" points="1605.5,-73 1605.5,-92 1725.5,-92 1725.5,-73 1605.5,-73"/>
<text text-anchor="middle" x="1665.5" y="-80" font-family="Helvetica,sans-Serif" font-size="10.00" fill="#000000">lapack_templates_ext.h</text>
</a>
</g>
</g>
<!-- Node35&#45;&gt;Node45 -->
<g id="edge65" class="edge">
<title>Node35&#45;&gt;Node45</title>
<path fill="none" stroke="#191970" d="M2039.2709,-139.3764C1972.3828,-132.2403 1843.2657,-117.3232 1734.5,-98 1728.2329,-96.8866 1721.6743,-95.5885 1715.1994,-94.2261"/>
<polygon fill="#191970" stroke="#191970" points="1715.6613,-90.7451 1705.1471,-92.0496 1714.18,-97.5866 1715.6613,-90.7451"/>
</g>
<!-- Node45&#45;&gt;Node33 -->
<g id="edge66" class="edge">
<title>Node45&#45;&gt;Node33</title>
<path fill="none" stroke="#191970" d="M1665.5,-72.9005C1665.5,-64.5099 1665.5,-51.9451 1665.5,-40.7085"/>
<polygon fill="#191970" stroke="#191970" points="1669.0001,-40.5217 1665.5,-30.5218 1662.0001,-40.5218 1669.0001,-40.5217"/>
</g>
</g>
</svg>
        <g id="navigator" transform="translate(0 0)" fill="#404254">
                <rect fill="#f2f5e9" fill-opacity="0.5" stroke="#606060" stroke-width=".5" x="0" y="0" width="60" height="60"/>
                <use id="zoomplus" xlink:href="#zoomPlus" x="17" y="9" onmousedown="handleZoom(evt,'in')"/>
                <use id="zoomminus" xlink:href="#zoomMin" x="42" y="9" onmousedown="handleZoom(evt,'out')"/>
                <use id="reset" xlink:href="#resetDef" x="30" y="36" onmousedown="handleReset()"/>
                <g id="arrowUp" xlink:href="#dirArrow" transform="translate(30 24)" onmousedown="handlePan(0,-1)">
                  <use xlink:href="#rim" fill="#404040">
                        <set attributeName="fill" to="#808080" begin="arrowUp.mouseover" end="arrowUp.mouseout"/>
                  </use>
                  <path fill="none" stroke="white" stroke-width="1.5" d="M0,-3.0v7 M-2.5,-0.5L0,-3.0L2.5,-0.5"/>
                </g>
                <g id="arrowRight" xlink:href="#dirArrow" transform="rotate(90) translate(36 -43)" onmousedown="handlePan(1,0)">
                  <use xlink:href="#rim" fill="#404040">
                        <set attributeName="fill" to="#808080" begin="arrowRight.mouseover" end="arrowRight.mouseout"/>
                  </use>
                  <path fill="none" stroke="white" stroke-width="1.5" d="M0,-3.0v7 M-2.5,-0.5L0,-3.0L2.5,-0.5"/>
                </g>
                <g id="arrowDown" xlink:href="#dirArrow" transform="rotate(180) translate(-30 -48)" onmousedown="handlePan(0,1)">
                  <use xlink:href="#rim" fill="#404040">
                        <set attributeName="fill" to="#808080" begin="arrowDown.mouseover" end="arrowDown.mouseout"/>
                  </use>
                  <path fill="none" stroke="white" stroke-width="1.5" d="M0,-3.0v7 M-2.5,-0.5L0,-3.0L2.5,-0.5"/>
                </g>
                <g id="arrowLeft" xlink:href="#dirArrow" transform="rotate(270) translate(-36 17)" onmousedown="handlePan(-1,0)">
                  <use xlink:href="#rim" fill="#404040">
                        <set attributeName="fill" to="#808080" begin="arrowLeft.mouseover" end="arrowLeft.mouseout"/>
                  </use>
                  <path fill="none" stroke="white" stroke-width="1.5" d="M0,-3.0v7 M-2.5,-0.5L0,-3.0L2.5,-0.5"/>
                </g>
        </g>
        <svg viewBox="0 0 15 15" width="100%" height="30px" preserveAspectRatio="xMaxYMin meet">
         <g id="arrow_out" transform="scale(0.3 0.3)">
          <a xlink:href="bct-visualize-with-rank_8cc__incl_org.svg" target="_base">
           <rect id="button" ry="5" rx="5" y="6" x="6" height="38" width="38"
                fill="#f2f5e9" fill-opacity="0.5" stroke="#606060" stroke-width="1.0"/>
           <path id="arrow"
             d="M 11.500037,31.436501 C 11.940474,20.09759 22.043105,11.32322 32.158766,21.979434 L 37.068811,17.246167 C 37.068811,17.246167 37.088388,32 37.088388,32 L 22.160133,31.978069 C 22.160133,31.978069 26.997745,27.140456 26.997745,27.140456 C 18.528582,18.264221 13.291696,25.230495 11.500037,31.436501 z"
             style="fill:#404040;"/>
          </a>
         </g>
        </svg>
</svg>
