<?xml version="1.0" encoding="UTF-8" standalone="no"?>
<!DOCTYPE svg PUBLIC "-//W3C//DTD SVG 1.1//EN"
 "http://www.w3.org/Graphics/SVG/1.1/DTD/svg11.dtd">
<!-- Generated by graphviz version 2.40.1 (20161225.0304)
 -->
<!-- Title: /home/jihuan/Projects/deal.ii/program/dealii&#45;9.1.1/examples/laplace&#45;bem/tests/block&#45;cluster&#45;tree&#45;hp&#45;fine&#45;non&#45;tensor&#45;product/bct&#45;hp&#45;fine&#45;ntp.cc Pages: 1 -->
<!--zoomable 452 -->
<svg id="main" version="1.1" xmlns="http://www.w3.org/2000/svg" xmlns:xlink="http://www.w3.org/1999/xlink" xml:space="preserve" onload="init(evt)">
<style type="text/css"><![CDATA[
.edge:hover path { stroke: red; }
.edge:hover polygon { stroke: red; fill: red; }
]]></style>
<script type="text/javascript"><![CDATA[
var edges = document.getElementsByTagName('g');
if (edges && edges.length) {
  for (var i=0;i<edges.length;i++) {
    if (edges[i].id.substr(0,4)=='edge') {
      edges[i].setAttribute('class','edge');
    }
  }
}
]]></script>
        <defs>
                <circle id="rim" cx="0" cy="0" r="7"/>
                <circle id="rim2" cx="0" cy="0" r="3.5"/>
                <g id="zoomPlus">
                        <use xlink:href="#rim" fill="#404040">
                                <set attributeName="fill" to="#808080" begin="zoomplus.mouseover" end="zoomplus.mouseout"/>
                        </use>
                        <path d="M-4,0h8M0,-4v8" fill="none" stroke="white" stroke-width="1.5" pointer-events="none"/>
                </g>
                <g id="zoomMin">
                        <use xlink:href="#rim" fill="#404040">
                                <set attributeName="fill" to="#808080" begin="zoomminus.mouseover" end="zoomminus.mouseout"/>
                        </use>
                        <path d="M-4,0h8" fill="none" stroke="white" stroke-width="1.5" pointer-events="none"/>
                </g>
                <g id="dirArrow">
                        <path fill="none" stroke="white" stroke-width="1.5" d="M0,-3.0v7 M-2.5,-0.5L0,-3.0L2.5,-0.5"/>
                </g>
               <g id="resetDef">
                       <use xlink:href="#rim2" fill="#404040">
                               <set attributeName="fill" to="#808080" begin="reset.mouseover" end="reset.mouseout"/>
                       </use>
               </g>
        </defs>

<script type="text/javascript">
var viewWidth = 2872;
var viewHeight = 452;
var sectionId = 'dynsection-0';
</script>
<script xlink:href="svgpan.js"/>
<svg id="graph" class="graph">
<g id="viewport">
<title>/home/jihuan/Projects/deal.ii/program/dealii&#45;9.1.1/examples/laplace&#45;bem/tests/block&#45;cluster&#45;tree&#45;hp&#45;fine&#45;non&#45;tensor&#45;product/bct&#45;hp&#45;fine&#45;ntp.cc</title>
<!-- Node0 -->
<g id="node1" class="node">
<title>Node0</title>
<polygon fill="#bfbfbf" stroke="#000000" points="621.5,-369.5 621.5,-443.5 752.5,-443.5 752.5,-369.5 621.5,-369.5"/>
<text text-anchor="start" x="629.5" y="-431.5" font-family="Helvetica,sans-Serif" font-size="10.00" fill="#000000">/home/jihuan/Projects</text>
<text text-anchor="start" x="629.5" y="-420.5" font-family="Helvetica,sans-Serif" font-size="10.00" fill="#000000">/deal.ii/program/dealii</text>
<text text-anchor="start" x="629.5" y="-409.5" font-family="Helvetica,sans-Serif" font-size="10.00" fill="#000000">&#45;9.1.1/examples/laplace</text>
<text text-anchor="start" x="629.5" y="-398.5" font-family="Helvetica,sans-Serif" font-size="10.00" fill="#000000">&#45;bem/tests/block&#45;cluster</text>
<text text-anchor="start" x="629.5" y="-387.5" font-family="Helvetica,sans-Serif" font-size="10.00" fill="#000000">&#45;tree&#45;hp&#45;fine&#45;non&#45;tensor</text>
<text text-anchor="middle" x="687" y="-376.5" font-family="Helvetica,sans-Serif" font-size="10.00" fill="#000000">&#45;product/bct&#45;hp&#45;fine&#45;ntp.cc</text>
</g>
<!-- Node1 -->
<g id="node2" class="node">
<title>Node1</title>
<g id="a_node2"><a xlink:href="block__cluster__tree_8h.html" target="_top" xlink:title="Implementation of the class BlockClusterTree. ">
<polygon fill="none" stroke="#000000" points="689,-313.5 689,-332.5 793,-332.5 793,-313.5 689,-313.5"/>
<text text-anchor="middle" x="741" y="-320.5" font-family="Helvetica,sans-Serif" font-size="10.00" fill="#000000">block_cluster_tree.h</text>
</a>
</g>
</g>
<!-- Node0&#45;&gt;Node1 -->
<g id="edge1" class="edge">
<title>Node0&#45;&gt;Node1</title>
<path fill="none" stroke="#191970" d="M711.157,-369.1461C717.4412,-359.4289 723.933,-349.3906 729.2506,-341.1681"/>
<polygon fill="#191970" stroke="#191970" points="732.1901,-343.0679 734.6816,-332.7701 726.3121,-339.2665 732.1901,-343.0679"/>
</g>
<!-- Node14 -->
<g id="node15" class="node">
<title>Node14</title>
<g id="a_node15"><a xlink:href="cluster__tree_8h_source.html" target="_top" xlink:title="cluster_tree.h">
<polygon fill="none" stroke="#000000" points="647,-196 647,-215 723,-215 723,-196 647,-196"/>
<text text-anchor="middle" x="685" y="-203" font-family="Helvetica,sans-Serif" font-size="10.00" fill="#000000">cluster_tree.h</text>
</a>
</g>
</g>
<!-- Node0&#45;&gt;Node14 -->
<g id="edge67" class="edge">
<title>Node0&#45;&gt;Node14</title>
<path fill="none" stroke="#191970" d="M682.7514,-369.1577C681.6211,-357.5849 680.5597,-344.7794 680,-333 678.1858,-294.8146 681.0896,-250.1731 683.1749,-225.1317"/>
<polygon fill="#191970" stroke="#191970" points="686.6677,-225.3667 684.0556,-215.0989 679.6945,-224.7546 686.6677,-225.3667"/>
</g>
<!-- Node2 -->
<g id="node3" class="node">
<title>Node2</title>
<g id="a_node3"><a xlink:href="block__cluster_8h.html" target="_top" xlink:title="Implementation of the class BlockCluster. ">
<polygon fill="none" stroke="#000000" points="713.5,-257.5 713.5,-276.5 796.5,-276.5 796.5,-257.5 713.5,-257.5"/>
<text text-anchor="middle" x="755" y="-264.5" font-family="Helvetica,sans-Serif" font-size="10.00" fill="#000000">block_cluster.h</text>
</a>
</g>
</g>
<!-- Node1&#45;&gt;Node2 -->
<g id="edge2" class="edge">
<title>Node1&#45;&gt;Node2</title>
<path fill="none" stroke="#191970" d="M743.4386,-313.2455C745.2855,-305.8579 747.8828,-295.4689 750.1478,-286.4087"/>
<polygon fill="#191970" stroke="#191970" points="753.5594,-287.193 752.5893,-276.6427 746.7684,-285.4952 753.5594,-287.193"/>
</g>
<!-- Node1&#45;&gt;Node14 -->
<g id="edge34" class="edge">
<title>Node1&#45;&gt;Node14</title>
<path fill="none" stroke="#191970" d="M731.4487,-313.2028C723.3455,-304.392 711.9589,-290.7541 705,-277 696.6532,-260.5027 691.3811,-240.0457 688.3585,-225.2455"/>
<polygon fill="#191970" stroke="#191970" points="691.7559,-224.3727 686.472,-215.1895 684.8759,-225.6634 691.7559,-224.3727"/>
</g>
<!-- Node15 -->
<g id="node16" class="node">
<title>Node15</title>
<g id="a_node16"><a xlink:href="debug__tools_8h.html" target="_top" xlink:title="This file includes a bunch of helper functions for printing out and visualizing information about gri...">
<polygon fill="none" stroke="#000000" points="242.5,-134.5 242.5,-153.5 319.5,-153.5 319.5,-134.5 242.5,-134.5"/>
<text text-anchor="middle" x="281" y="-141.5" font-family="Helvetica,sans-Serif" font-size="10.00" fill="#000000">debug_tools.h</text>
</a>
</g>
</g>
<!-- Node1&#45;&gt;Node15 -->
<g id="edge35" class="edge">
<title>Node1&#45;&gt;Node15</title>
<path fill="none" stroke="#191970" d="M716.2684,-313.3762C639.2714,-283.4143 403.706,-191.7486 315.1413,-157.2854"/>
<polygon fill="#191970" stroke="#191970" points="316.1626,-153.9272 305.574,-153.5625 313.6241,-160.4507 316.1626,-153.9272"/>
</g>
<!-- Node20 -->
<g id="node21" class="node">
<title>Node20</title>
<g id="a_node21"><a xlink:href="tree_8h.html" target="_top" xlink:title="Implementation of the classes for binary tree node, general tree node and functions for manipulating ...">
<polygon fill="none" stroke="#000000" points="664.5,-134.5 664.5,-153.5 705.5,-153.5 705.5,-134.5 664.5,-134.5"/>
<text text-anchor="middle" x="685" y="-141.5" font-family="Helvetica,sans-Serif" font-size="10.00" fill="#000000">tree.h</text>
</a>
</g>
</g>
<!-- Node1&#45;&gt;Node20 -->
<g id="edge66" class="edge">
<title>Node1&#45;&gt;Node20</title>
<path fill="none" stroke="#191970" d="M763.3963,-313.3428C786.148,-301.968 816.6363,-281.4862 806,-257 786.6969,-212.5615 740.3541,-177.6523 710.9489,-158.9898"/>
<polygon fill="#191970" stroke="#191970" points="712.7643,-155.9974 702.4156,-153.727 709.0898,-161.9554 712.7643,-155.9974"/>
</g>
<!-- Node26 -->
<g id="node27" class="node">
<title>Node26</title>
<g id="a_node27"><a xlink:href="lapack__full__matrix__ext_8h_source.html" target="_top" xlink:title="lapack_full_matrix\l_ext.h">
<polygon fill="none" stroke="#000000" points="1211.5,-190.5 1211.5,-220.5 1306.5,-220.5 1306.5,-190.5 1211.5,-190.5"/>
<text text-anchor="start" x="1219.5" y="-208.5" font-family="Helvetica,sans-Serif" font-size="10.00" fill="#000000">lapack_full_matrix</text>
<text text-anchor="middle" x="1259" y="-197.5" font-family="Helvetica,sans-Serif" font-size="10.00" fill="#000000">_ext.h</text>
</a>
</g>
</g>
<!-- Node1&#45;&gt;Node26 -->
<g id="edge36" class="edge">
<title>Node1&#45;&gt;Node26</title>
<path fill="none" stroke="#191970" d="M782.9513,-313.484C875.3495,-292.525 1096.5404,-242.3514 1201.6511,-218.5087"/>
<polygon fill="#191970" stroke="#191970" points="1202.4745,-221.9109 1211.4525,-216.2854 1200.926,-215.0843 1202.4745,-221.9109"/>
</g>
<!-- Node3 -->
<g id="node4" class="node">
<title>Node3</title>
<g id="a_node4"><a xlink:href="cluster_8h.html" target="_top" xlink:title="Implementation of the class Cluster. ">
<polygon fill="none" stroke="#000000" points="840,-134.5 840,-153.5 894,-153.5 894,-134.5 840,-134.5"/>
<text text-anchor="middle" x="867" y="-141.5" font-family="Helvetica,sans-Serif" font-size="10.00" fill="#000000">cluster.h</text>
</a>
</g>
</g>
<!-- Node2&#45;&gt;Node3 -->
<g id="edge3" class="edge">
<title>Node2&#45;&gt;Node3</title>
<path fill="none" stroke="#191970" d="M763.7885,-257.3484C782.6806,-236.6008 827.3796,-187.5117 851.2818,-161.262"/>
<polygon fill="#191970" stroke="#191970" points="854.1075,-163.3572 858.2524,-153.6068 848.9317,-158.6443 854.1075,-163.3572"/>
</g>
<!-- Node2&#45;&gt;Node14 -->
<g id="edge15" class="edge">
<title>Node2&#45;&gt;Node14</title>
<path fill="none" stroke="#191970" d="M744.0625,-257.3906C733.338,-247.9683 716.7713,-233.4134 703.9099,-222.1137"/>
<polygon fill="#191970" stroke="#191970" points="705.9143,-219.2158 696.0917,-215.2449 701.2941,-224.4745 705.9143,-219.2158"/>
</g>
<!-- Node4 -->
<g id="node5" class="node">
<title>Node4</title>
<polygon fill="none" stroke="#bfbfbf" points="1230.5,-73 1230.5,-92 1333.5,-92 1333.5,-73 1230.5,-73"/>
<text text-anchor="middle" x="1282" y="-80" font-family="Helvetica,sans-Serif" font-size="10.00" fill="#000000">deal.II/base/types.h</text>
</g>
<!-- Node3&#45;&gt;Node4 -->
<g id="edge4" class="edge">
<title>Node3&#45;&gt;Node4</title>
<path fill="none" stroke="#191970" d="M894.3516,-141.6219C954.1525,-136.1678 1100.8773,-121.3989 1222,-98 1227.3477,-96.9669 1232.9267,-95.7363 1238.4365,-94.4266"/>
<polygon fill="#191970" stroke="#191970" points="1239.3464,-97.8071 1248.2142,-92.0095 1237.6665,-91.0116 1239.3464,-97.8071"/>
</g>
<!-- Node5 -->
<g id="node6" class="node">
<title>Node5</title>
<polygon fill="none" stroke="#bfbfbf" points="733,-73 733,-92 789,-92 789,-73 733,-73"/>
<text text-anchor="middle" x="761" y="-80" font-family="Helvetica,sans-Serif" font-size="10.00" fill="#000000">algorithm</text>
</g>
<!-- Node3&#45;&gt;Node5 -->
<g id="edge5" class="edge">
<title>Node3&#45;&gt;Node5</title>
<path fill="none" stroke="#191970" d="M850.4375,-134.3906C833.2463,-124.4165 806.1418,-108.6908 786.2734,-97.1633"/>
<polygon fill="#191970" stroke="#191970" points="787.8523,-94.033 777.4462,-92.0419 784.3394,-100.0877 787.8523,-94.033"/>
</g>
<!-- Node6 -->
<g id="node7" class="node">
<title>Node6</title>
<polygon fill="none" stroke="#bfbfbf" points="1165.5,-73 1165.5,-92 1212.5,-92 1212.5,-73 1165.5,-73"/>
<text text-anchor="middle" x="1189" y="-80" font-family="Helvetica,sans-Serif" font-size="10.00" fill="#000000">iterator</text>
</g>
<!-- Node3&#45;&gt;Node6 -->
<g id="edge6" class="edge">
<title>Node3&#45;&gt;Node6</title>
<path fill="none" stroke="#191970" d="M894.269,-142.2218C946.217,-138.2775 1062.5242,-126.7597 1156,-98 1157.8603,-97.4276 1159.7498,-96.7691 1161.6347,-96.0535"/>
<polygon fill="#191970" stroke="#191970" points="1163.0285,-99.2642 1170.8637,-92.1325 1160.2913,-92.8215 1163.0285,-99.2642"/>
</g>
<!-- Node7 -->
<g id="node8" class="node">
<title>Node7</title>
<polygon fill="none" stroke="#bfbfbf" points="971,-6 971,-25 1015,-25 1015,-6 971,-6"/>
<text text-anchor="middle" x="993" y="-13" font-family="Helvetica,sans-Serif" font-size="10.00" fill="#000000">vector</text>
</g>
<!-- Node3&#45;&gt;Node7 -->
<g id="edge7" class="edge">
<title>Node3&#45;&gt;Node7</title>
<path fill="none" stroke="#191970" d="M894.2383,-138.4309C917.3101,-132.3304 949.6389,-120.2937 969,-98 984.3086,-80.3726 989.8693,-53.4614 991.8793,-35.2075"/>
<polygon fill="#191970" stroke="#191970" points="995.3771,-35.3791 992.7274,-25.121 988.4018,-34.7925 995.3771,-35.3791"/>
</g>
<!-- Node8 -->
<g id="node9" class="node">
<title>Node8</title>
<g id="a_node9"><a xlink:href="simple__bounding__box_8h_source.html" target="_top" xlink:title="simple_bounding_box.h">
<polygon fill="none" stroke="#000000" points="807.5,-73 807.5,-92 926.5,-92 926.5,-73 807.5,-73"/>
<text text-anchor="middle" x="867" y="-80" font-family="Helvetica,sans-Serif" font-size="10.00" fill="#000000">simple_bounding_box.h</text>
</a>
</g>
</g>
<!-- Node3&#45;&gt;Node8 -->
<g id="edge8" class="edge">
<title>Node3&#45;&gt;Node8</title>
<path fill="none" stroke="#191970" d="M867,-134.3906C867,-125.8657 867,-113.1392 867,-102.4235"/>
<polygon fill="#191970" stroke="#191970" points="870.5001,-102.2448 867,-92.2449 863.5001,-102.2449 870.5001,-102.2448"/>
</g>
<!-- Node8&#45;&gt;Node7 -->
<g id="edge14" class="edge">
<title>Node8&#45;&gt;Node7</title>
<path fill="none" stroke="#191970" d="M885.0527,-72.9005C906.1984,-61.6564 941.4404,-42.9166 965.8782,-29.9219"/>
<polygon fill="#191970" stroke="#191970" points="967.7947,-32.867 974.9808,-25.0817 964.5082,-26.6864 967.7947,-32.867"/>
</g>
<!-- Node9 -->
<g id="node10" class="node">
<title>Node9</title>
<polygon fill="none" stroke="#bfbfbf" points="835,-6 835,-25 935,-25 935,-6 835,-6"/>
<text text-anchor="middle" x="885" y="-13" font-family="Helvetica,sans-Serif" font-size="10.00" fill="#000000">deal.II/base/point.h</text>
</g>
<!-- Node8&#45;&gt;Node9 -->
<g id="edge9" class="edge">
<title>Node8&#45;&gt;Node9</title>
<path fill="none" stroke="#191970" d="M869.579,-72.9005C872.2255,-63.0495 876.4177,-47.4451 879.7636,-34.9912"/>
<polygon fill="#191970" stroke="#191970" points="883.2113,-35.6473 882.4258,-25.0817 876.451,-33.8311 883.2113,-35.6473"/>
</g>
<!-- Node10 -->
<g id="node11" class="node">
<title>Node10</title>
<polygon fill="none" stroke="#bfbfbf" points="130.5,-6 130.5,-25 257.5,-25 257.5,-6 130.5,-6"/>
<text text-anchor="middle" x="194" y="-13" font-family="Helvetica,sans-Serif" font-size="10.00" fill="#000000">deal.II/dofs/dof_handler.h</text>
</g>
<!-- Node8&#45;&gt;Node10 -->
<g id="edge10" class="edge">
<title>Node8&#45;&gt;Node10</title>
<path fill="none" stroke="#191970" d="M828.8544,-72.9594C818.8653,-70.7286 808.0714,-68.5532 798,-67 746.8126,-59.1059 417.2084,-32.9008 267.6326,-21.213"/>
<polygon fill="#191970" stroke="#191970" points="267.855,-17.7198 257.6129,-20.4308 267.3101,-24.6986 267.855,-17.7198"/>
</g>
<!-- Node11 -->
<g id="node12" class="node">
<title>Node11</title>
<polygon fill="none" stroke="#bfbfbf" points="416,-6 416,-25 532,-25 532,-6 416,-6"/>
<text text-anchor="middle" x="474" y="-13" font-family="Helvetica,sans-Serif" font-size="10.00" fill="#000000">deal.II/dofs/dof_tools.h</text>
</g>
<!-- Node8&#45;&gt;Node11 -->
<g id="edge11" class="edge">
<title>Node8&#45;&gt;Node11</title>
<path fill="none" stroke="#191970" d="M826.5904,-72.9725C817.2268,-70.89 807.2849,-68.7789 798,-67 710.1227,-50.1632 608.0886,-34.5969 542.3647,-25.082"/>
<polygon fill="#191970" stroke="#191970" points="542.5329,-21.5702 532.1359,-23.6077 541.5342,-28.4986 542.5329,-21.5702"/>
</g>
<!-- Node12 -->
<g id="node13" class="node">
<title>Node12</title>
<polygon fill="none" stroke="#bfbfbf" points="620.5,-6 620.5,-25 723.5,-25 723.5,-6 620.5,-6"/>
<text text-anchor="middle" x="672" y="-13" font-family="Helvetica,sans-Serif" font-size="10.00" fill="#000000">deal.II/fe/mapping.h</text>
</g>
<!-- Node8&#45;&gt;Node12 -->
<g id="edge12" class="edge">
<title>Node8&#45;&gt;Node12</title>
<path fill="none" stroke="#191970" d="M839.0613,-72.9005C805.0326,-61.2086 747.4161,-41.4122 709.5378,-28.3976"/>
<polygon fill="#191970" stroke="#191970" points="710.4816,-25.0211 699.8869,-25.0817 708.2069,-31.6412 710.4816,-25.0211"/>
</g>
<!-- Node13 -->
<g id="node14" class="node">
<title>Node13</title>
<polygon fill="none" stroke="#bfbfbf" points="777,-6 777,-25 817,-25 817,-6 777,-6"/>
<text text-anchor="middle" x="797" y="-13" font-family="Helvetica,sans-Serif" font-size="10.00" fill="#000000">utility</text>
</g>
<!-- Node8&#45;&gt;Node13 -->
<g id="edge13" class="edge">
<title>Node8&#45;&gt;Node13</title>
<path fill="none" stroke="#191970" d="M856.9707,-72.9005C845.8469,-62.2535 827.7013,-44.8856 814.279,-32.0385"/>
<polygon fill="#191970" stroke="#191970" points="816.655,-29.4678 807.0107,-25.0817 811.8148,-34.5247 816.655,-29.4678"/>
</g>
<!-- Node14&#45;&gt;Node3 -->
<g id="edge16" class="edge">
<title>Node14&#45;&gt;Node3</title>
<path fill="none" stroke="#191970" d="M713.4375,-195.8906C744.9212,-185.2519 795.7695,-168.0696 830.2509,-156.418"/>
<polygon fill="#191970" stroke="#191970" points="831.596,-159.6579 839.9493,-153.1408 829.3551,-153.0263 831.596,-159.6579"/>
</g>
<!-- Node14&#45;&gt;Node15 -->
<g id="edge17" class="edge">
<title>Node14&#45;&gt;Node15</title>
<path fill="none" stroke="#191970" d="M646.9927,-199.7142C573.3401,-188.5023 411.2715,-163.8309 329.7921,-151.4275"/>
<polygon fill="#191970" stroke="#191970" points="330.2059,-147.9503 319.793,-149.9054 329.1524,-154.8705 330.2059,-147.9503"/>
</g>
<!-- Node14&#45;&gt;Node20 -->
<g id="edge25" class="edge">
<title>Node14&#45;&gt;Node20</title>
<path fill="none" stroke="#191970" d="M685,-195.8906C685,-187.3657 685,-174.6392 685,-163.9235"/>
<polygon fill="#191970" stroke="#191970" points="688.5001,-163.7448 685,-153.7449 681.5001,-163.7449 688.5001,-163.7448"/>
</g>
<!-- Node15&#45;&gt;Node10 -->
<g id="edge18" class="edge">
<title>Node15&#45;&gt;Node10</title>
<path fill="none" stroke="#191970" d="M244.2865,-134.44C213.6184,-125.6241 173.4323,-111.8435 164,-98 150.3346,-77.9437 165.2781,-50.917 178.5263,-33.3521"/>
<polygon fill="#191970" stroke="#191970" points="181.6073,-35.1051 185.1392,-25.1163 176.1491,-30.7224 181.6073,-35.1051"/>
</g>
<!-- Node15&#45;&gt;Node11 -->
<g id="edge19" class="edge">
<title>Node15&#45;&gt;Node11</title>
<path fill="none" stroke="#191970" d="M249.4968,-134.3744C232.1841,-127.2912 212.204,-115.7494 202,-98 195.1331,-86.0554 193.2104,-77.6099 202,-67 227.3514,-36.3982 333.4484,-23.8423 405.3948,-18.7875"/>
<polygon fill="#191970" stroke="#191970" points="406.0043,-22.2547 415.7484,-18.0949 405.5371,-15.2703 406.0043,-22.2547"/>
</g>
<!-- Node15&#45;&gt;Node12 -->
<g id="edge22" class="edge">
<title>Node15&#45;&gt;Node12</title>
<path fill="none" stroke="#191970" d="M267.9303,-134.4845C248.4041,-119.1529 215.8567,-88.5275 235,-67 280.4986,-15.8348 473.0027,-39.0226 541,-31 563.5796,-28.336 588.3475,-25.4071 610.2107,-22.8195"/>
<polygon fill="#191970" stroke="#191970" points="610.8402,-26.2695 620.3594,-21.6182 610.0173,-19.318 610.8402,-26.2695"/>
</g>
<!-- Node16 -->
<g id="node17" class="node">
<title>Node16</title>
<polygon fill="none" stroke="#bfbfbf" points="244,-73 244,-92 318,-92 318,-73 244,-73"/>
<text text-anchor="middle" x="281" y="-80" font-family="Helvetica,sans-Serif" font-size="10.00" fill="#000000">deal.II/fe/fe.h</text>
</g>
<!-- Node15&#45;&gt;Node16 -->
<g id="edge20" class="edge">
<title>Node15&#45;&gt;Node16</title>
<path fill="none" stroke="#191970" d="M281,-134.3906C281,-125.8657 281,-113.1392 281,-102.4235"/>
<polygon fill="#191970" stroke="#191970" points="284.5001,-102.2448 281,-92.2449 277.5001,-102.2449 284.5001,-102.2448"/>
</g>
<!-- Node17 -->
<g id="node18" class="node">
<title>Node17</title>
<polygon fill="none" stroke="#bfbfbf" points="0,-73 0,-92 112,-92 112,-73 0,-73"/>
<text text-anchor="middle" x="56" y="-80" font-family="Helvetica,sans-Serif" font-size="10.00" fill="#000000">deal.II/fe/fe_system.h</text>
</g>
<!-- Node15&#45;&gt;Node17 -->
<g id="edge21" class="edge">
<title>Node15&#45;&gt;Node17</title>
<path fill="none" stroke="#191970" d="M245.8438,-134.3906C206.7111,-123.6944 143.379,-106.3836 100.7418,-94.7294"/>
<polygon fill="#191970" stroke="#191970" points="101.4784,-91.3024 90.9094,-92.0419 99.6327,-98.0547 101.4784,-91.3024"/>
</g>
<!-- Node18 -->
<g id="node19" class="node">
<title>Node18</title>
<polygon fill="none" stroke="#bfbfbf" points="396,-73 396,-92 450,-92 450,-73 396,-73"/>
<text text-anchor="middle" x="423" y="-80" font-family="Helvetica,sans-Serif" font-size="10.00" fill="#000000">iostream</text>
</g>
<!-- Node15&#45;&gt;Node18 -->
<g id="edge23" class="edge">
<title>Node15&#45;&gt;Node18</title>
<path fill="none" stroke="#191970" d="M303.1875,-134.3906C326.9467,-124.1005 364.8405,-107.6888 391.6425,-96.0809"/>
<polygon fill="#191970" stroke="#191970" points="393.183,-99.2279 400.9683,-92.0419 390.4009,-92.8045 393.183,-99.2279"/>
</g>
<!-- Node19 -->
<g id="node20" class="node">
<title>Node19</title>
<polygon fill="none" stroke="#bfbfbf" points="336.5,-73 336.5,-92 377.5,-92 377.5,-73 336.5,-73"/>
<text text-anchor="middle" x="357" y="-80" font-family="Helvetica,sans-Serif" font-size="10.00" fill="#000000">string</text>
</g>
<!-- Node15&#45;&gt;Node19 -->
<g id="edge24" class="edge">
<title>Node15&#45;&gt;Node19</title>
<path fill="none" stroke="#191970" d="M292.875,-134.3906C304.6297,-124.8786 322.8486,-110.1357 336.8672,-98.7917"/>
<polygon fill="#191970" stroke="#191970" points="339.3856,-101.2562 344.9576,-92.2449 334.9822,-95.8146 339.3856,-101.2562"/>
</g>
<!-- Node20&#45;&gt;Node5 -->
<g id="edge27" class="edge">
<title>Node20&#45;&gt;Node5</title>
<path fill="none" stroke="#191970" d="M696.875,-134.3906C708.6297,-124.8786 726.8486,-110.1357 740.8672,-98.7917"/>
<polygon fill="#191970" stroke="#191970" points="743.3856,-101.2562 748.9576,-92.2449 738.9822,-95.8146 743.3856,-101.2562"/>
</g>
<!-- Node20&#45;&gt;Node7 -->
<g id="edge33" class="edge">
<title>Node20&#45;&gt;Node7</title>
<path fill="none" stroke="#191970" d="M705.5985,-142.2555C758.5013,-137.4606 897.6751,-122.7671 936,-98 959.6726,-82.7018 976.2009,-53.7563 985.1531,-34.5442"/>
<polygon fill="#191970" stroke="#191970" points="988.4126,-35.8268 989.2432,-25.2646 982.0072,-33.0035 988.4126,-35.8268"/>
</g>
<!-- Node20&#45;&gt;Node18 -->
<g id="edge31" class="edge">
<title>Node20&#45;&gt;Node18</title>
<path fill="none" stroke="#191970" d="M664.3858,-141.2562C624.2193,-135.5938 532.9333,-121.1689 459,-98 456.8897,-97.3387 454.735,-96.5955 452.5811,-95.8018"/>
<polygon fill="#191970" stroke="#191970" points="453.8698,-92.5477 443.2845,-92.0968 451.2782,-99.0503 453.8698,-92.5477"/>
</g>
<!-- Node21 -->
<g id="node22" class="node">
<title>Node21</title>
<polygon fill="none" stroke="#bfbfbf" points="1021,-73 1021,-92 1147,-92 1147,-73 1021,-73"/>
<text text-anchor="middle" x="1084" y="-80" font-family="Helvetica,sans-Serif" font-size="10.00" fill="#000000">deal.II/base/exceptions.h</text>
</g>
<!-- Node20&#45;&gt;Node21 -->
<g id="edge26" class="edge">
<title>Node20&#45;&gt;Node21</title>
<path fill="none" stroke="#191970" d="M705.6118,-140.823C761.7331,-132.1727 919.2847,-107.8884 1012.4458,-93.529"/>
<polygon fill="#191970" stroke="#191970" points="1013.0149,-96.9827 1022.3649,-92.0001 1011.9484,-90.0644 1013.0149,-96.9827"/>
</g>
<!-- Node22 -->
<g id="node23" class="node">
<title>Node22</title>
<polygon fill="none" stroke="#bfbfbf" points="599,-73 599,-92 637,-92 637,-73 599,-73"/>
<text text-anchor="middle" x="618" y="-80" font-family="Helvetica,sans-Serif" font-size="10.00" fill="#000000">array</text>
</g>
<!-- Node20&#45;&gt;Node22 -->
<g id="edge28" class="edge">
<title>Node20&#45;&gt;Node22</title>
<path fill="none" stroke="#191970" d="M674.5313,-134.3906C664.2663,-124.9683 648.4097,-110.4134 636.0994,-99.1137"/>
<polygon fill="#191970" stroke="#191970" points="638.3501,-96.4287 628.6163,-92.2449 633.6166,-101.5856 638.3501,-96.4287"/>
</g>
<!-- Node23 -->
<g id="node24" class="node">
<title>Node23</title>
<polygon fill="none" stroke="#bfbfbf" points="655.5,-73 655.5,-92 714.5,-92 714.5,-73 655.5,-73"/>
<text text-anchor="middle" x="685" y="-80" font-family="Helvetica,sans-Serif" font-size="10.00" fill="#000000">exception</text>
</g>
<!-- Node20&#45;&gt;Node23 -->
<g id="edge29" class="edge">
<title>Node20&#45;&gt;Node23</title>
<path fill="none" stroke="#191970" d="M685,-134.3906C685,-125.8657 685,-113.1392 685,-102.4235"/>
<polygon fill="#191970" stroke="#191970" points="688.5001,-102.2448 685,-92.2449 681.5001,-102.2449 688.5001,-102.2448"/>
</g>
<!-- Node24 -->
<g id="node25" class="node">
<title>Node24</title>
<polygon fill="none" stroke="#bfbfbf" points="468.5,-73 468.5,-92 527.5,-92 527.5,-73 468.5,-73"/>
<text text-anchor="middle" x="498" y="-80" font-family="Helvetica,sans-Serif" font-size="10.00" fill="#000000">functional</text>
</g>
<!-- Node20&#45;&gt;Node24 -->
<g id="edge30" class="edge">
<title>Node20&#45;&gt;Node24</title>
<path fill="none" stroke="#191970" d="M664.2445,-138.097C635.4631,-129.7874 581.9018,-113.8743 537,-98 535.0938,-97.3261 533.1425,-96.6161 531.1785,-95.8859"/>
<polygon fill="#191970" stroke="#191970" points="531.9903,-92.4488 521.4,-92.1384 529.4852,-98.9853 531.9903,-92.4488"/>
</g>
<!-- Node25 -->
<g id="node26" class="node">
<title>Node25</title>
<polygon fill="none" stroke="#bfbfbf" points="545.5,-73 545.5,-92 580.5,-92 580.5,-73 545.5,-73"/>
<text text-anchor="middle" x="563" y="-80" font-family="Helvetica,sans-Serif" font-size="10.00" fill="#000000">new</text>
</g>
<!-- Node20&#45;&gt;Node25 -->
<g id="edge32" class="edge">
<title>Node20&#45;&gt;Node25</title>
<path fill="none" stroke="#191970" d="M664.4078,-134.5393C645.0241,-125.514 615.2761,-111.3536 590,-98 589.3369,-97.6497 588.6664,-97.2918 587.9912,-96.9282"/>
<polygon fill="#191970" stroke="#191970" points="589.6152,-93.8267 579.1738,-92.0304 586.2161,-99.946 589.6152,-93.8267"/>
</g>
<!-- Node26&#45;&gt;Node7 -->
<g id="edge42" class="edge">
<title>Node26&#45;&gt;Node7</title>
<path fill="none" stroke="#191970" d="M1306.7378,-200.6471C1409.256,-188.5011 1635.1454,-151.497 1558,-67 1521.9315,-27.4943 1140.2075,-17.9514 1025.45,-15.9673"/>
<polygon fill="#191970" stroke="#191970" points="1025.2548,-12.4637 1015.1984,-15.7982 1025.1392,-19.4628 1025.2548,-12.4637"/>
</g>
<!-- Node26&#45;&gt;Node19 -->
<g id="edge41" class="edge">
<title>Node26&#45;&gt;Node19</title>
<path fill="none" stroke="#191970" d="M1211.4803,-203.3845C1109.3654,-198.4129 861.5861,-184.0675 656,-154 535.1667,-136.3278 502.0844,-138.8481 387,-98 385.5843,-97.4975 384.1514,-96.9403 382.719,-96.3444"/>
<polygon fill="#191970" stroke="#191970" points="384.0008,-93.0802 373.4592,-92.0193 381.0384,-99.4225 384.0008,-93.0802"/>
</g>
<!-- Node27 -->
<g id="node28" class="node">
<title>Node27</title>
<polygon fill="none" stroke="#bfbfbf" points="1021,-134.5 1021,-153.5 1061,-153.5 1061,-134.5 1021,-134.5"/>
<text text-anchor="middle" x="1041" y="-141.5" font-family="Helvetica,sans-Serif" font-size="10.00" fill="#000000">limits</text>
</g>
<!-- Node26&#45;&gt;Node27 -->
<g id="edge37" class="edge">
<title>Node26&#45;&gt;Node27</title>
<path fill="none" stroke="#191970" d="M1211.2766,-193.1938C1173.1531,-183.1788 1118.4422,-168.3935 1071,-154 1070.9015,-153.9701 1070.8028,-153.9401 1070.704,-153.9101"/>
<polygon fill="#191970" stroke="#191970" points="1071.8755,-150.6098 1061.2854,-150.9278 1069.7624,-157.2832 1071.8755,-150.6098"/>
</g>
<!-- Node28 -->
<g id="node29" class="node">
<title>Node28</title>
<polygon fill="none" stroke="#bfbfbf" points="1513.5,-73 1513.5,-92 1548.5,-92 1548.5,-73 1513.5,-73"/>
<text text-anchor="middle" x="1531" y="-80" font-family="Helvetica,sans-Serif" font-size="10.00" fill="#000000">map</text>
</g>
<!-- Node26&#45;&gt;Node28 -->
<g id="edge38" class="edge">
<title>Node26&#45;&gt;Node28</title>
<path fill="none" stroke="#191970" d="M1306.7225,-197.7088C1345.0832,-190.161 1399.5465,-176.4906 1443,-154 1470.6436,-139.6922 1497.7117,-115.7807 1514.3686,-99.5881"/>
<polygon fill="#191970" stroke="#191970" points="1517.0408,-101.8669 1521.6661,-92.335 1512.1061,-96.902 1517.0408,-101.8669"/>
</g>
<!-- Node29 -->
<g id="node30" class="node">
<title>Node29</title>
<polygon fill="none" stroke="#bfbfbf" points="1206.5,-134.5 1206.5,-153.5 1247.5,-153.5 1247.5,-134.5 1206.5,-134.5"/>
<text text-anchor="middle" x="1227" y="-141.5" font-family="Helvetica,sans-Serif" font-size="10.00" fill="#000000">regex</text>
</g>
<!-- Node26&#45;&gt;Node29 -->
<g id="edge39" class="edge">
<title>Node26&#45;&gt;Node29</title>
<path fill="none" stroke="#191970" d="M1251.0899,-190.2977C1246.7868,-182.0277 1241.4242,-171.7215 1236.8518,-162.9339"/>
<polygon fill="#191970" stroke="#191970" points="1239.8443,-161.1024 1232.1236,-153.8469 1233.6346,-164.3335 1239.8443,-161.1024"/>
</g>
<!-- Node30 -->
<g id="node31" class="node">
<title>Node30</title>
<polygon fill="none" stroke="#bfbfbf" points="1266,-134.5 1266,-153.5 1318,-153.5 1318,-134.5 1266,-134.5"/>
<text text-anchor="middle" x="1292" y="-141.5" font-family="Helvetica,sans-Serif" font-size="10.00" fill="#000000">sstream</text>
</g>
<!-- Node26&#45;&gt;Node30 -->
<g id="edge40" class="edge">
<title>Node26&#45;&gt;Node30</title>
<path fill="none" stroke="#191970" d="M1267.1573,-190.2977C1271.5949,-182.0277 1277.125,-171.7215 1281.8404,-162.9339"/>
<polygon fill="#191970" stroke="#191970" points="1285.0721,-164.3134 1286.7163,-153.8469 1278.904,-161.0037 1285.0721,-164.3134"/>
</g>
<!-- Node31 -->
<g id="node32" class="node">
<title>Node31</title>
<g id="a_node32"><a xlink:href="general__exceptions_8h.html" target="_top" xlink:title="Definition of self&#45;defined general exceptions. ">
<polygon fill="none" stroke="#000000" points="1079.5,-134.5 1079.5,-153.5 1188.5,-153.5 1188.5,-134.5 1079.5,-134.5"/>
<text text-anchor="middle" x="1134" y="-141.5" font-family="Helvetica,sans-Serif" font-size="10.00" fill="#000000">general_exceptions.h</text>
</a>
</g>
</g>
<!-- Node26&#45;&gt;Node31 -->
<g id="edge43" class="edge">
<title>Node26&#45;&gt;Node31</title>
<path fill="none" stroke="#191970" d="M1228.4216,-190.4554C1208.2968,-180.554 1182.1361,-167.683 1162.4562,-158.0004"/>
<polygon fill="#191970" stroke="#191970" points="1163.8885,-154.8045 1153.3706,-153.5303 1160.7982,-161.0855 1163.8885,-154.8045"/>
</g>
<!-- Node32 -->
<g id="node33" class="node">
<title>Node32</title>
<g id="a_node33"><a xlink:href="generic__functors_8h.html" target="_top" xlink:title="This header file contains a set of self&#45;defined generic functors. ">
<polygon fill="none" stroke="#000000" points="1336.5,-134.5 1336.5,-153.5 1433.5,-153.5 1433.5,-134.5 1336.5,-134.5"/>
<text text-anchor="middle" x="1385" y="-141.5" font-family="Helvetica,sans-Serif" font-size="10.00" fill="#000000">generic_functors.h</text>
</a>
</g>
</g>
<!-- Node26&#45;&gt;Node32 -->
<g id="edge45" class="edge">
<title>Node26&#45;&gt;Node32</title>
<path fill="none" stroke="#191970" d="M1289.8231,-190.4554C1310.1088,-180.554 1336.4788,-167.683 1356.3162,-158.0004"/>
<polygon fill="#191970" stroke="#191970" points="1358.023,-161.062 1365.4745,-153.5303 1354.9526,-154.7714 1358.023,-161.062"/>
</g>
<!-- Node35 -->
<g id="node36" class="node">
<title>Node35</title>
<g id="a_node36"><a xlink:href="lapack__helpers_8h.html" target="_top" xlink:title="Exposes LAPACK helper functions defined in lapack_full_matrix.cc and define new ones by following the...">
<polygon fill="none" stroke="#000000" points="2204,-134.5 2204,-153.5 2294,-153.5 2294,-134.5 2204,-134.5"/>
<text text-anchor="middle" x="2249" y="-141.5" font-family="Helvetica,sans-Serif" font-size="10.00" fill="#000000">lapack_helpers.h</text>
</a>
</g>
</g>
<!-- Node26&#45;&gt;Node35 -->
<g id="edge53" class="edge">
<title>Node26&#45;&gt;Node35</title>
<path fill="none" stroke="#191970" d="M1306.7498,-202.5337C1471.7678,-192.2826 2017.4846,-158.382 2193.647,-147.4386"/>
<polygon fill="#191970" stroke="#191970" points="2193.9651,-150.9257 2203.7288,-146.8123 2193.531,-143.9391 2193.9651,-150.9257"/>
</g>
<!-- Node31&#45;&gt;Node21 -->
<g id="edge44" class="edge">
<title>Node31&#45;&gt;Node21</title>
<path fill="none" stroke="#191970" d="M1126.1875,-134.3906C1118.746,-125.2376 1107.3666,-111.2409 1098.3008,-100.09"/>
<polygon fill="#191970" stroke="#191970" points="1100.9467,-97.7962 1091.9226,-92.2449 1095.5153,-102.212 1100.9467,-97.7962"/>
</g>
<!-- Node32&#45;&gt;Node4 -->
<g id="edge47" class="edge">
<title>Node32&#45;&gt;Node4</title>
<path fill="none" stroke="#191970" d="M1368.9063,-134.3906C1352.2772,-124.4616 1326.1024,-108.833 1306.8206,-97.3201"/>
<polygon fill="#191970" stroke="#191970" points="1308.361,-94.1634 1297.9807,-92.0419 1304.7724,-100.1736 1308.361,-94.1634"/>
</g>
<!-- Node32&#45;&gt;Node6 -->
<g id="edge50" class="edge">
<title>Node32&#45;&gt;Node6</title>
<path fill="none" stroke="#191970" d="M1344.2161,-134.4686C1310.8812,-126.2091 1262.7727,-113.2114 1222,-98 1220.4099,-97.4068 1218.7909,-96.7678 1217.1665,-96.0991"/>
<polygon fill="#191970" stroke="#191970" points="1218.5304,-92.8755 1207.9672,-92.0571 1215.7145,-99.2841 1218.5304,-92.8755"/>
</g>
<!-- Node32&#45;&gt;Node7 -->
<g id="edge52" class="edge">
<title>Node32&#45;&gt;Node7</title>
<path fill="none" stroke="#191970" d="M1397.4297,-134.403C1415.9806,-118.9569 1446.8152,-88.1741 1428,-67 1401.2514,-36.8978 1120.9813,-21.3528 1025.0191,-16.883"/>
<polygon fill="#191970" stroke="#191970" points="1025.1763,-13.3866 1015.0271,-16.4268 1024.857,-20.3793 1025.1763,-13.3866"/>
</g>
<!-- Node32&#45;&gt;Node21 -->
<g id="edge46" class="edge">
<title>Node32&#45;&gt;Node21</title>
<path fill="none" stroke="#191970" d="M1336.9324,-134.4493C1290.7701,-125.2423 1219.0815,-110.8531 1157,-98 1151.1481,-96.7884 1145.0351,-95.5103 1138.9451,-94.2289"/>
<polygon fill="#191970" stroke="#191970" points="1139.2752,-90.7215 1128.7679,-92.0804 1137.8293,-97.5705 1139.2752,-90.7215"/>
</g>
<!-- Node32&#45;&gt;Node28 -->
<g id="edge51" class="edge">
<title>Node32&#45;&gt;Node28</title>
<path fill="none" stroke="#191970" d="M1410.1106,-134.4301C1433.3459,-125.4424 1468.7584,-111.4072 1499,-98 1500.7776,-97.2119 1502.6023,-96.3831 1504.4355,-95.5355"/>
<polygon fill="#191970" stroke="#191970" points="1505.9566,-98.6878 1513.4945,-91.2427 1502.959,-92.3621 1505.9566,-98.6878"/>
</g>
<!-- Node33 -->
<g id="node34" class="node">
<title>Node33</title>
<polygon fill="none" stroke="#bfbfbf" points="1855.5,-.5 1855.5,-30.5 1946.5,-30.5 1946.5,-.5 1855.5,-.5"/>
<text text-anchor="start" x="1863.5" y="-18.5" font-family="Helvetica,sans-Serif" font-size="10.00" fill="#000000">deal.II/lac/lapack</text>
<text text-anchor="middle" x="1901" y="-7.5" font-family="Helvetica,sans-Serif" font-size="10.00" fill="#000000">_support.h</text>
</g>
<!-- Node32&#45;&gt;Node33 -->
<g id="edge48" class="edge">
<title>Node32&#45;&gt;Node33</title>
<path fill="none" stroke="#191970" d="M1396.0057,-134.5C1416.1178,-117.7283 1460.8184,-83.123 1505,-67 1566.2837,-44.636 1751.4724,-27.3212 1845.2725,-19.7181"/>
<polygon fill="#191970" stroke="#191970" points="1845.7365,-23.1922 1855.4248,-18.9042 1845.1771,-16.2146 1845.7365,-23.1922"/>
</g>
<!-- Node34 -->
<g id="node35" class="node">
<title>Node34</title>
<polygon fill="none" stroke="#bfbfbf" points="1351.5,-73 1351.5,-92 1418.5,-92 1418.5,-73 1351.5,-73"/>
<text text-anchor="middle" x="1385" y="-80" font-family="Helvetica,sans-Serif" font-size="10.00" fill="#000000">forward_list</text>
</g>
<!-- Node32&#45;&gt;Node34 -->
<g id="edge49" class="edge">
<title>Node32&#45;&gt;Node34</title>
<path fill="none" stroke="#191970" d="M1385,-134.3906C1385,-125.8657 1385,-113.1392 1385,-102.4235"/>
<polygon fill="#191970" stroke="#191970" points="1388.5001,-102.2448 1385,-92.2449 1381.5001,-102.2449 1388.5001,-102.2448"/>
</g>
<!-- Node35&#45;&gt;Node33 -->
<g id="edge59" class="edge">
<title>Node35&#45;&gt;Node33</title>
<path fill="none" stroke="#191970" d="M2294.0432,-142.2529C2431.5728,-136.7026 2837.882,-118.619 2857,-98 2866.3677,-87.8968 2866.4767,-77.001 2857,-67 2825.9026,-34.1822 2156.9214,-19.9454 1956.9602,-16.4132"/>
<polygon fill="#191970" stroke="#191970" points="1956.7431,-12.909 1946.6835,-16.2338 1956.6209,-19.9079 1956.7431,-12.909"/>
</g>
<!-- Node36 -->
<g id="node37" class="node">
<title>Node36</title>
<polygon fill="none" stroke="#bfbfbf" points="1979,-73 1979,-92 2095,-92 2095,-73 1979,-73"/>
<text text-anchor="middle" x="2037" y="-80" font-family="Helvetica,sans-Serif" font-size="10.00" fill="#000000">deal.II/base/numbers.h</text>
</g>
<!-- Node35&#45;&gt;Node36 -->
<g id="edge54" class="edge">
<title>Node35&#45;&gt;Node36</title>
<path fill="none" stroke="#191970" d="M2215.875,-134.3906C2179.1589,-123.7395 2119.8336,-106.5296 2079.6662,-94.8772"/>
<polygon fill="#191970" stroke="#191970" points="2080.4716,-91.4666 2069.8924,-92.0419 2078.5213,-98.1895 2080.4716,-91.4666"/>
</g>
<!-- Node37 -->
<g id="node38" class="node">
<title>Node37</title>
<polygon fill="none" stroke="#bfbfbf" points="2113,-67.5 2113,-97.5 2241,-97.5 2241,-67.5 2113,-67.5"/>
<text text-anchor="start" x="2121" y="-85.5" font-family="Helvetica,sans-Serif" font-size="10.00" fill="#000000">deal.II/lac/blas_extension</text>
<text text-anchor="middle" x="2177" y="-74.5" font-family="Helvetica,sans-Serif" font-size="10.00" fill="#000000">_templates.h</text>
</g>
<!-- Node35&#45;&gt;Node37 -->
<g id="edge55" class="edge">
<title>Node35&#45;&gt;Node37</title>
<path fill="none" stroke="#191970" d="M2237.75,-134.3906C2228.2764,-126.2986 2214.3706,-114.4207 2202.2532,-104.0705"/>
<polygon fill="#191970" stroke="#191970" points="2204.4902,-101.3782 2194.6132,-97.5446 2199.9437,-106.7008 2204.4902,-101.3782"/>
</g>
<!-- Node38 -->
<g id="node39" class="node">
<title>Node38</title>
<polygon fill="none" stroke="#bfbfbf" points="2259,-73 2259,-92 2385,-92 2385,-73 2259,-73"/>
<text text-anchor="middle" x="2322" y="-80" font-family="Helvetica,sans-Serif" font-size="10.00" fill="#000000">deal.II/lac/block_vector.h</text>
</g>
<!-- Node35&#45;&gt;Node38 -->
<g id="edge56" class="edge">
<title>Node35&#45;&gt;Node38</title>
<path fill="none" stroke="#191970" d="M2260.4063,-134.3906C2271.6969,-124.8786 2289.1967,-110.1357 2302.6619,-98.7917"/>
<polygon fill="#191970" stroke="#191970" points="2305.0402,-101.3646 2310.4329,-92.2449 2300.5301,-96.0111 2305.0402,-101.3646"/>
</g>
<!-- Node39 -->
<g id="node40" class="node">
<title>Node39</title>
<polygon fill="none" stroke="#bfbfbf" points="2403,-73 2403,-92 2519,-92 2519,-73 2403,-73"/>
<text text-anchor="middle" x="2461" y="-80" font-family="Helvetica,sans-Serif" font-size="10.00" fill="#000000">deal.II/lac/full_matrix.h</text>
</g>
<!-- Node35&#45;&gt;Node39 -->
<g id="edge57" class="edge">
<title>Node35&#45;&gt;Node39</title>
<path fill="none" stroke="#191970" d="M2282.125,-134.3906C2318.8411,-123.7395 2378.1664,-106.5296 2418.3338,-94.8772"/>
<polygon fill="#191970" stroke="#191970" points="2419.4787,-98.1895 2428.1076,-92.0419 2417.5284,-91.4666 2419.4787,-98.1895"/>
</g>
<!-- Node40 -->
<g id="node41" class="node">
<title>Node40</title>
<polygon fill="none" stroke="#bfbfbf" points="2537.5,-67.5 2537.5,-97.5 2628.5,-97.5 2628.5,-67.5 2537.5,-67.5"/>
<text text-anchor="start" x="2545.5" y="-85.5" font-family="Helvetica,sans-Serif" font-size="10.00" fill="#000000">deal.II/lac/lapack</text>
<text text-anchor="middle" x="2583" y="-74.5" font-family="Helvetica,sans-Serif" font-size="10.00" fill="#000000">_full_matrix.h</text>
</g>
<!-- Node35&#45;&gt;Node40 -->
<g id="edge58" class="edge">
<title>Node35&#45;&gt;Node40</title>
<path fill="none" stroke="#191970" d="M2294.2355,-138.1206C2347.6655,-130.8272 2439.3699,-117.2176 2527.5776,-97.9412"/>
<polygon fill="#191970" stroke="#191970" points="2528.4732,-101.3278 2537.4806,-95.7495 2526.9606,-94.4932 2528.4732,-101.3278"/>
</g>
<!-- Node41 -->
<g id="node42" class="node">
<title>Node41</title>
<polygon fill="none" stroke="#bfbfbf" points="2646.5,-67.5 2646.5,-97.5 2737.5,-97.5 2737.5,-67.5 2646.5,-67.5"/>
<text text-anchor="start" x="2654.5" y="-85.5" font-family="Helvetica,sans-Serif" font-size="10.00" fill="#000000">deal.II/lac/lapack</text>
<text text-anchor="middle" x="2692" y="-74.5" font-family="Helvetica,sans-Serif" font-size="10.00" fill="#000000">_templates.h</text>
</g>
<!-- Node35&#45;&gt;Node41 -->
<g id="edge60" class="edge">
<title>Node35&#45;&gt;Node41</title>
<path fill="none" stroke="#191970" d="M2294.0022,-141.0545C2364.9897,-135.8914 2507.3635,-123.4436 2636.4059,-98.1361"/>
<polygon fill="#191970" stroke="#191970" points="2637.3396,-101.5189 2646.4627,-96.1319 2635.9715,-94.6539 2637.3396,-101.5189"/>
</g>
<!-- Node42 -->
<g id="node43" class="node">
<title>Node42</title>
<polygon fill="none" stroke="#bfbfbf" points="2756,-67.5 2756,-97.5 2848,-97.5 2848,-67.5 2756,-67.5"/>
<text text-anchor="start" x="2764" y="-85.5" font-family="Helvetica,sans-Serif" font-size="10.00" fill="#000000">deal.II/lac/sparse</text>
<text text-anchor="middle" x="2802" y="-74.5" font-family="Helvetica,sans-Serif" font-size="10.00" fill="#000000">_matrix.h</text>
</g>
<!-- Node35&#45;&gt;Node42 -->
<g id="edge61" class="edge">
<title>Node35&#45;&gt;Node42</title>
<path fill="none" stroke="#191970" d="M2294.0171,-142.5923C2380.149,-139.3059 2574.2326,-129.0417 2745.9561,-97.9751"/>
<polygon fill="#191970" stroke="#191970" points="2746.7279,-101.392 2755.9307,-96.1423 2745.4628,-94.5073 2746.7279,-101.392"/>
</g>
<!-- Node43 -->
<g id="node44" class="node">
<title>Node43</title>
<polygon fill="none" stroke="#bfbfbf" points="1605.5,-73 1605.5,-92 1706.5,-92 1706.5,-73 1605.5,-73"/>
<text text-anchor="middle" x="1656" y="-80" font-family="Helvetica,sans-Serif" font-size="10.00" fill="#000000">deal.II/lac/utilities.h</text>
</g>
<!-- Node35&#45;&gt;Node43 -->
<g id="edge62" class="edge">
<title>Node35&#45;&gt;Node43</title>
<path fill="none" stroke="#191970" d="M2203.7528,-142.6375C2111.4375,-139.3002 1894.9773,-128.6211 1716,-98 1710.4326,-97.0475 1704.6253,-95.8338 1698.9106,-94.506"/>
<polygon fill="#191970" stroke="#191970" points="1699.342,-91.0081 1688.7961,-92.0248 1697.6742,-97.8066 1699.342,-91.0081"/>
</g>
<!-- Node44 -->
<g id="node45" class="node">
<title>Node44</title>
<polygon fill="none" stroke="#bfbfbf" points="1725,-73 1725,-92 1823,-92 1823,-73 1725,-73"/>
<text text-anchor="middle" x="1774" y="-80" font-family="Helvetica,sans-Serif" font-size="10.00" fill="#000000">deal.II/lac/vector.h</text>
</g>
<!-- Node35&#45;&gt;Node44 -->
<g id="edge63" class="edge">
<title>Node35&#45;&gt;Node44</title>
<path fill="none" stroke="#191970" d="M2203.9316,-141.2717C2127.0962,-136.1214 1966.0436,-123.1547 1832,-98 1826.8812,-97.0394 1821.5509,-95.8633 1816.2868,-94.5923"/>
<polygon fill="#191970" stroke="#191970" points="1816.8716,-91.1299 1806.3179,-92.0632 1815.1501,-97.9149 1816.8716,-91.1299"/>
</g>
<!-- Node45 -->
<g id="node46" class="node">
<title>Node45</title>
<g id="a_node46"><a xlink:href="lapack__templates__ext_8h.html" target="_top" xlink:title="Append more template based LAPACK functions to those existing in deal.ii. ">
<polygon fill="none" stroke="#000000" points="1841,-73 1841,-92 1961,-92 1961,-73 1841,-73"/>
<text text-anchor="middle" x="1901" y="-80" font-family="Helvetica,sans-Serif" font-size="10.00" fill="#000000">lapack_templates_ext.h</text>
</a>
</g>
</g>
<!-- Node35&#45;&gt;Node45 -->
<g id="edge64" class="edge">
<title>Node35&#45;&gt;Node45</title>
<path fill="none" stroke="#191970" d="M2203.9181,-137.3841C2148.6382,-129.0836 2052.1599,-113.9874 1970,-98 1964.1324,-96.8582 1958.0008,-95.5901 1951.918,-94.285"/>
<polygon fill="#191970" stroke="#191970" points="1952.2991,-90.7857 1941.7823,-92.0694 1950.8042,-97.6242 1952.2991,-90.7857"/>
</g>
<!-- Node45&#45;&gt;Node33 -->
<g id="edge65" class="edge">
<title>Node45&#45;&gt;Node33</title>
<path fill="none" stroke="#191970" d="M1901,-72.9005C1901,-64.5099 1901,-51.9451 1901,-40.7085"/>
<polygon fill="#191970" stroke="#191970" points="1904.5001,-40.5217 1901,-30.5218 1897.5001,-40.5218 1904.5001,-40.5217"/>
</g>
</g>
</svg>
        <g id="navigator" transform="translate(0 0)" fill="#404254">
                <rect fill="#f2f5e9" fill-opacity="0.5" stroke="#606060" stroke-width=".5" x="0" y="0" width="60" height="60"/>
                <use id="zoomplus" xlink:href="#zoomPlus" x="17" y="9" onmousedown="handleZoom(evt,'in')"/>
                <use id="zoomminus" xlink:href="#zoomMin" x="42" y="9" onmousedown="handleZoom(evt,'out')"/>
                <use id="reset" xlink:href="#resetDef" x="30" y="36" onmousedown="handleReset()"/>
                <g id="arrowUp" xlink:href="#dirArrow" transform="translate(30 24)" onmousedown="handlePan(0,-1)">
                  <use xlink:href="#rim" fill="#404040">
                        <set attributeName="fill" to="#808080" begin="arrowUp.mouseover" end="arrowUp.mouseout"/>
                  </use>
                  <path fill="none" stroke="white" stroke-width="1.5" d="M0,-3.0v7 M-2.5,-0.5L0,-3.0L2.5,-0.5"/>
                </g>
                <g id="arrowRight" xlink:href="#dirArrow" transform="rotate(90) translate(36 -43)" onmousedown="handlePan(1,0)">
                  <use xlink:href="#rim" fill="#404040">
                        <set attributeName="fill" to="#808080" begin="arrowRight.mouseover" end="arrowRight.mouseout"/>
                  </use>
                  <path fill="none" stroke="white" stroke-width="1.5" d="M0,-3.0v7 M-2.5,-0.5L0,-3.0L2.5,-0.5"/>
                </g>
                <g id="arrowDown" xlink:href="#dirArrow" transform="rotate(180) translate(-30 -48)" onmousedown="handlePan(0,1)">
                  <use xlink:href="#rim" fill="#404040">
                        <set attributeName="fill" to="#808080" begin="arrowDown.mouseover" end="arrowDown.mouseout"/>
                  </use>
                  <path fill="none" stroke="white" stroke-width="1.5" d="M0,-3.0v7 M-2.5,-0.5L0,-3.0L2.5,-0.5"/>
                </g>
                <g id="arrowLeft" xlink:href="#dirArrow" transform="rotate(270) translate(-36 17)" onmousedown="handlePan(-1,0)">
                  <use xlink:href="#rim" fill="#404040">
                        <set attributeName="fill" to="#808080" begin="arrowLeft.mouseover" end="arrowLeft.mouseout"/>
                  </use>
                  <path fill="none" stroke="white" stroke-width="1.5" d="M0,-3.0v7 M-2.5,-0.5L0,-3.0L2.5,-0.5"/>
                </g>
        </g>
        <svg viewBox="0 0 15 15" width="100%" height="30px" preserveAspectRatio="xMaxYMin meet">
         <g id="arrow_out" transform="scale(0.3 0.3)">
          <a xlink:href="bct-hp-fine-ntp_8cc__incl_org.svg" target="_base">
           <rect id="button" ry="5" rx="5" y="6" x="6" height="38" width="38"
                fill="#f2f5e9" fill-opacity="0.5" stroke="#606060" stroke-width="1.0"/>
           <path id="arrow"
             d="M 11.500037,31.436501 C 11.940474,20.09759 22.043105,11.32322 32.158766,21.979434 L 37.068811,17.246167 C 37.068811,17.246167 37.088388,32 37.088388,32 L 22.160133,31.978069 C 22.160133,31.978069 26.997745,27.140456 26.997745,27.140456 C 18.528582,18.264221 13.291696,25.230495 11.500037,31.436501 z"
             style="fill:#404040;"/>
          </a>
         </g>
        </svg>
</svg>
