<?xml version="1.0" encoding="UTF-8" standalone="no"?>
<!DOCTYPE svg PUBLIC "-//W3C//DTD SVG 1.1//EN"
 "http://www.w3.org/Graphics/SVG/1.1/DTD/svg11.dtd">
<!-- Generated by graphviz version 2.40.1 (20161225.0304)
 -->
<!-- Title: /home/jihuan/Projects/deal.ii/program/dealii&#45;9.1.1/examples/laplace&#45;bem/tests/block&#45;cluster&#45;tree&#45;extend&#45;finer&#45;than&#45;partition/bct&#45;extend&#45;finer&#45;than&#45;partition.cc Pages: 1 -->
<svg width="2659pt" height="441pt"
 viewBox="0.00 0.00 2658.50 441.00" xmlns="http://www.w3.org/2000/svg" xmlns:xlink="http://www.w3.org/1999/xlink">
<g id="graph0" class="graph" transform="scale(1 1) rotate(0) translate(4 437)">
<title>/home/jihuan/Projects/deal.ii/program/dealii&#45;9.1.1/examples/laplace&#45;bem/tests/block&#45;cluster&#45;tree&#45;extend&#45;finer&#45;than&#45;partition/bct&#45;extend&#45;finer&#45;than&#45;partition.cc</title>
<!-- Node0 -->
<g id="node1" class="node">
<title>Node0</title>
<polygon fill="#bfbfbf" stroke="#000000" points="693.5,-358.5 693.5,-432.5 853.5,-432.5 853.5,-358.5 693.5,-358.5"/>
<text text-anchor="start" x="701.5" y="-420.5" font-family="Helvetica,sans-Serif" font-size="10.00" fill="#000000">/home/jihuan/Projects</text>
<text text-anchor="start" x="701.5" y="-409.5" font-family="Helvetica,sans-Serif" font-size="10.00" fill="#000000">/deal.ii/program/dealii</text>
<text text-anchor="start" x="701.5" y="-398.5" font-family="Helvetica,sans-Serif" font-size="10.00" fill="#000000">&#45;9.1.1/examples/laplace</text>
<text text-anchor="start" x="701.5" y="-387.5" font-family="Helvetica,sans-Serif" font-size="10.00" fill="#000000">&#45;bem/tests/block&#45;cluster</text>
<text text-anchor="start" x="701.5" y="-376.5" font-family="Helvetica,sans-Serif" font-size="10.00" fill="#000000">&#45;tree&#45;extend&#45;finer&#45;than&#45;partition</text>
<text text-anchor="middle" x="773.5" y="-365.5" font-family="Helvetica,sans-Serif" font-size="10.00" fill="#000000">/bct&#45;extend&#45;finer&#45;than&#45;partition.cc</text>
</g>
<!-- Node1 -->
<g id="node2" class="node">
<title>Node1</title>
<polygon fill="none" stroke="#bfbfbf" points="653.5,-302.5 653.5,-321.5 703.5,-321.5 703.5,-302.5 653.5,-302.5"/>
<text text-anchor="middle" x="678.5" y="-309.5" font-family="Helvetica,sans-Serif" font-size="10.00" fill="#000000">fstream</text>
</g>
<!-- Node0&#45;&gt;Node1 -->
<g id="edge1" class="edge">
<title>Node0&#45;&gt;Node1</title>
<path fill="none" stroke="#191970" d="M731.2784,-358.3894C719.3542,-347.9087 706.9808,-337.0331 697.2141,-328.4487"/>
<polygon fill="#191970" stroke="#191970" points="699.512,-325.8086 689.6902,-321.8356 694.8907,-331.0664 699.512,-325.8086"/>
</g>
<!-- Node2 -->
<g id="node3" class="node">
<title>Node2</title>
<polygon fill="none" stroke="#bfbfbf" points="806.5,-62 806.5,-81 860.5,-81 860.5,-62 806.5,-62"/>
<text text-anchor="middle" x="833.5" y="-69" font-family="Helvetica,sans-Serif" font-size="10.00" fill="#000000">iostream</text>
</g>
<!-- Node0&#45;&gt;Node2 -->
<g id="edge2" class="edge">
<title>Node0&#45;&gt;Node2</title>
<path fill="none" stroke="#191970" d="M816.0995,-358.4615C840.9707,-332.6057 867.5,-295.7174 867.5,-256 867.5,-256 867.5,-256 867.5,-194.5 867.5,-156.4808 852.2222,-114.163 842.149,-90.3934"/>
<polygon fill="#191970" stroke="#191970" points="845.3089,-88.8841 838.0854,-81.1336 838.899,-91.6971 845.3089,-88.8841"/>
</g>
<!-- Node3 -->
<g id="node4" class="node">
<title>Node3</title>
<g id="a_node4"><a xlink:href="block__cluster__tree_8h.html" target="_top" xlink:title="Implementation of the class BlockClusterTree. ">
<polygon fill="none" stroke="#000000" points="721.5,-302.5 721.5,-321.5 825.5,-321.5 825.5,-302.5 721.5,-302.5"/>
<text text-anchor="middle" x="773.5" y="-309.5" font-family="Helvetica,sans-Serif" font-size="10.00" fill="#000000">block_cluster_tree.h</text>
</a>
</g>
</g>
<!-- Node0&#45;&gt;Node3 -->
<g id="edge3" class="edge">
<title>Node0&#45;&gt;Node3</title>
<path fill="none" stroke="#191970" d="M773.5,-358.1461C773.5,-349.0558 773.5,-339.6845 773.5,-331.7816"/>
<polygon fill="#191970" stroke="#191970" points="777.0001,-331.7701 773.5,-321.7701 770.0001,-331.7702 777.0001,-331.7701"/>
</g>
<!-- Node4 -->
<g id="node5" class="node">
<title>Node4</title>
<g id="a_node5"><a xlink:href="block__cluster_8h.html" target="_top" xlink:title="Implementation of the class BlockCluster. ">
<polygon fill="none" stroke="#000000" points="718,-246.5 718,-265.5 801,-265.5 801,-246.5 718,-246.5"/>
<text text-anchor="middle" x="759.5" y="-253.5" font-family="Helvetica,sans-Serif" font-size="10.00" fill="#000000">block_cluster.h</text>
</a>
</g>
</g>
<!-- Node3&#45;&gt;Node4 -->
<g id="edge4" class="edge">
<title>Node3&#45;&gt;Node4</title>
<path fill="none" stroke="#191970" d="M771.0614,-302.2455C769.2145,-294.8579 766.6172,-284.4689 764.3522,-275.4087"/>
<polygon fill="#191970" stroke="#191970" points="767.7316,-274.4952 761.9107,-265.6427 760.9406,-276.193 767.7316,-274.4952"/>
</g>
<!-- Node16 -->
<g id="node17" class="node">
<title>Node16</title>
<g id="a_node17"><a xlink:href="cluster__tree_8h_source.html" target="_top" xlink:title="cluster_tree.h">
<polygon fill="none" stroke="#000000" points="655.5,-185 655.5,-204 731.5,-204 731.5,-185 655.5,-185"/>
<text text-anchor="middle" x="693.5" y="-192" font-family="Helvetica,sans-Serif" font-size="10.00" fill="#000000">cluster_tree.h</text>
</a>
</g>
</g>
<!-- Node3&#45;&gt;Node16 -->
<g id="edge36" class="edge">
<title>Node3&#45;&gt;Node16</title>
<path fill="none" stroke="#191970" d="M753.1013,-302.4027C738.7311,-294.5915 720.2112,-282.2114 709.5,-266 699.3302,-250.608 695.5481,-229.7078 694.1801,-214.4806"/>
<polygon fill="#191970" stroke="#191970" points="697.6504,-213.8917 693.5388,-204.1273 690.6638,-214.3246 697.6504,-213.8917"/>
</g>
<!-- Node17 -->
<g id="node18" class="node">
<title>Node17</title>
<g id="a_node18"><a xlink:href="debug__tools_8h.html" target="_top" xlink:title="This file includes a bunch of helper functions for printing out and visualizing information about gri...">
<polygon fill="none" stroke="#000000" points="273,-123.5 273,-142.5 350,-142.5 350,-123.5 273,-123.5"/>
<text text-anchor="middle" x="311.5" y="-130.5" font-family="Helvetica,sans-Serif" font-size="10.00" fill="#000000">debug_tools.h</text>
</a>
</g>
</g>
<!-- Node3&#45;&gt;Node17 -->
<g id="edge37" class="edge">
<title>Node3&#45;&gt;Node17</title>
<path fill="none" stroke="#191970" d="M748.6609,-302.3762C671.2507,-272.3839 434.2595,-180.5627 345.5195,-146.1807"/>
<polygon fill="#191970" stroke="#191970" points="346.77,-142.9117 336.1809,-142.5625 344.241,-149.439 346.77,-142.9117"/>
</g>
<!-- Node21 -->
<g id="node22" class="node">
<title>Node21</title>
<g id="a_node22"><a xlink:href="tree_8h.html" target="_top" xlink:title="Implementation of the classes for binary tree node, general tree node and functions for manipulating ...">
<polygon fill="none" stroke="#000000" points="984,-123.5 984,-142.5 1025,-142.5 1025,-123.5 984,-123.5"/>
<text text-anchor="middle" x="1004.5" y="-130.5" font-family="Helvetica,sans-Serif" font-size="10.00" fill="#000000">tree.h</text>
</a>
</g>
</g>
<!-- Node3&#45;&gt;Node21 -->
<g id="edge55" class="edge">
<title>Node3&#45;&gt;Node21</title>
<path fill="none" stroke="#191970" d="M785.9196,-302.3762C823.6786,-273.117 937.3753,-185.0144 984.1061,-148.8031"/>
<polygon fill="#191970" stroke="#191970" points="986.2583,-151.5632 992.019,-142.6714 981.9706,-146.03 986.2583,-151.5632"/>
</g>
<!-- Node27 -->
<g id="node28" class="node">
<title>Node27</title>
<g id="a_node28"><a xlink:href="lapack__full__matrix__ext_8h_source.html" target="_top" xlink:title="lapack_full_matrix\l_ext.h">
<polygon fill="none" stroke="#000000" points="1229,-179.5 1229,-209.5 1324,-209.5 1324,-179.5 1229,-179.5"/>
<text text-anchor="start" x="1237" y="-197.5" font-family="Helvetica,sans-Serif" font-size="10.00" fill="#000000">lapack_full_matrix</text>
<text text-anchor="middle" x="1276.5" y="-186.5" font-family="Helvetica,sans-Serif" font-size="10.00" fill="#000000">_ext.h</text>
</a>
</g>
</g>
<!-- Node3&#45;&gt;Node27 -->
<g id="edge38" class="edge">
<title>Node3&#45;&gt;Node27</title>
<path fill="none" stroke="#191970" d="M814.2365,-302.484C903.4159,-281.6518 1116.149,-231.9577 1218.9458,-207.9446"/>
<polygon fill="#191970" stroke="#191970" points="1219.8992,-211.3162 1228.8408,-205.6331 1218.3068,-204.4997 1219.8992,-211.3162"/>
</g>
<!-- Node5 -->
<g id="node6" class="node">
<title>Node5</title>
<g id="a_node6"><a xlink:href="cluster_8h.html" target="_top" xlink:title="Implementation of the class Cluster. ">
<polygon fill="none" stroke="#000000" points="699.5,-123.5 699.5,-142.5 753.5,-142.5 753.5,-123.5 699.5,-123.5"/>
<text text-anchor="middle" x="726.5" y="-130.5" font-family="Helvetica,sans-Serif" font-size="10.00" fill="#000000">cluster.h</text>
</a>
</g>
</g>
<!-- Node4&#45;&gt;Node5 -->
<g id="edge5" class="edge">
<title>Node4&#45;&gt;Node5</title>
<path fill="none" stroke="#191970" d="M757.3226,-246.4743C753.9491,-231.8861 747.1523,-203.1605 740.5,-179 738.0963,-170.2701 735.2162,-160.6798 732.6949,-152.5255"/>
<polygon fill="#191970" stroke="#191970" points="735.986,-151.3231 729.6573,-142.8261 729.3059,-153.4151 735.986,-151.3231"/>
</g>
<!-- Node4&#45;&gt;Node16 -->
<g id="edge17" class="edge">
<title>Node4&#45;&gt;Node16</title>
<path fill="none" stroke="#191970" d="M749.1875,-246.3906C739.0758,-236.9683 723.4558,-222.4134 711.3293,-211.1137"/>
<polygon fill="#191970" stroke="#191970" points="713.6601,-208.5015 703.9579,-204.2449 708.888,-213.6228 713.6601,-208.5015"/>
</g>
<!-- Node6 -->
<g id="node7" class="node">
<title>Node6</title>
<polygon fill="none" stroke="#bfbfbf" points="582,-62 582,-81 685,-81 685,-62 582,-62"/>
<text text-anchor="middle" x="633.5" y="-69" font-family="Helvetica,sans-Serif" font-size="10.00" fill="#000000">deal.II/base/types.h</text>
</g>
<!-- Node5&#45;&gt;Node6 -->
<g id="edge6" class="edge">
<title>Node5&#45;&gt;Node6</title>
<path fill="none" stroke="#191970" d="M711.9688,-123.3906C697.0906,-113.5519 673.7496,-98.1167 656.3872,-86.6351"/>
<polygon fill="#191970" stroke="#191970" points="658.201,-83.6385 647.9292,-81.0419 654.3398,-89.4773 658.201,-83.6385"/>
</g>
<!-- Node7 -->
<g id="node8" class="node">
<title>Node7</title>
<polygon fill="none" stroke="#bfbfbf" points="878.5,-62 878.5,-81 934.5,-81 934.5,-62 878.5,-62"/>
<text text-anchor="middle" x="906.5" y="-69" font-family="Helvetica,sans-Serif" font-size="10.00" fill="#000000">algorithm</text>
</g>
<!-- Node5&#45;&gt;Node7 -->
<g id="edge7" class="edge">
<title>Node5&#45;&gt;Node7</title>
<path fill="none" stroke="#191970" d="M753.6179,-125.0322C782.5554,-116.3545 829.6262,-101.7346 869.5,-87 871.3128,-86.3301 873.1674,-85.6233 875.0334,-84.8955"/>
<polygon fill="#191970" stroke="#191970" points="876.3503,-88.1384 884.3176,-81.1546 873.7341,-81.6456 876.3503,-88.1384"/>
</g>
<!-- Node8 -->
<g id="node9" class="node">
<title>Node8</title>
<polygon fill="none" stroke="#bfbfbf" points="703,-62 703,-81 750,-81 750,-62 703,-62"/>
<text text-anchor="middle" x="726.5" y="-69" font-family="Helvetica,sans-Serif" font-size="10.00" fill="#000000">iterator</text>
</g>
<!-- Node5&#45;&gt;Node8 -->
<g id="edge8" class="edge">
<title>Node5&#45;&gt;Node8</title>
<path fill="none" stroke="#191970" d="M726.5,-123.3906C726.5,-114.8657 726.5,-102.1392 726.5,-91.4235"/>
<polygon fill="#191970" stroke="#191970" points="730.0001,-91.2448 726.5,-81.2449 723.0001,-91.2449 730.0001,-91.2448"/>
</g>
<!-- Node9 -->
<g id="node10" class="node">
<title>Node9</title>
<polygon fill="none" stroke="#bfbfbf" points="980.5,-.5 980.5,-19.5 1024.5,-19.5 1024.5,-.5 980.5,-.5"/>
<text text-anchor="middle" x="1002.5" y="-7.5" font-family="Helvetica,sans-Serif" font-size="10.00" fill="#000000">vector</text>
</g>
<!-- Node5&#45;&gt;Node9 -->
<g id="edge9" class="edge">
<title>Node5&#45;&gt;Node9</title>
<path fill="none" stroke="#191970" d="M732.4273,-123.4674C743.2194,-106.9598 767.7325,-73.1754 797.5,-56 826.6268,-39.1943 920.143,-22.7341 970.1853,-14.84"/>
<polygon fill="#191970" stroke="#191970" points="970.8215,-18.2832 980.1651,-13.2884 969.7461,-11.3663 970.8215,-18.2832"/>
</g>
<!-- Node10 -->
<g id="node11" class="node">
<title>Node10</title>
<g id="a_node11"><a xlink:href="simple__bounding__box_8h_source.html" target="_top" xlink:title="simple_bounding_box.h">
<polygon fill="none" stroke="#000000" points="445,-62 445,-81 564,-81 564,-62 445,-62"/>
<text text-anchor="middle" x="504.5" y="-69" font-family="Helvetica,sans-Serif" font-size="10.00" fill="#000000">simple_bounding_box.h</text>
</a>
</g>
</g>
<!-- Node5&#45;&gt;Node10 -->
<g id="edge10" class="edge">
<title>Node5&#45;&gt;Node10</title>
<path fill="none" stroke="#191970" d="M699.2784,-125.4589C661.7117,-115.0519 593.5366,-96.1655 548.6334,-83.7261"/>
<polygon fill="#191970" stroke="#191970" points="549.4394,-80.3177 538.8679,-81.0208 547.5706,-87.0636 549.4394,-80.3177"/>
</g>
<!-- Node10&#45;&gt;Node9 -->
<g id="edge16" class="edge">
<title>Node10&#45;&gt;Node9</title>
<path fill="none" stroke="#191970" d="M543.393,-61.948C553.1778,-59.7702 563.6883,-57.6226 573.5,-56 720.4141,-31.7038 897.853,-17.4028 969.8172,-12.2247"/>
<polygon fill="#191970" stroke="#191970" points="970.3203,-15.6979 980.0477,-11.4992 969.8251,-8.7154 970.3203,-15.6979"/>
</g>
<!-- Node11 -->
<g id="node12" class="node">
<title>Node11</title>
<polygon fill="none" stroke="#bfbfbf" points="426.5,-.5 426.5,-19.5 526.5,-19.5 526.5,-.5 426.5,-.5"/>
<text text-anchor="middle" x="476.5" y="-7.5" font-family="Helvetica,sans-Serif" font-size="10.00" fill="#000000">deal.II/base/point.h</text>
</g>
<!-- Node10&#45;&gt;Node11 -->
<g id="edge11" class="edge">
<title>Node10&#45;&gt;Node11</title>
<path fill="none" stroke="#191970" d="M500.125,-61.8906C496.1212,-53.0965 490.0817,-39.8312 485.1115,-28.9145"/>
<polygon fill="#191970" stroke="#191970" points="488.2657,-27.3957 480.9367,-19.7449 481.8949,-30.2963 488.2657,-27.3957"/>
</g>
<!-- Node12 -->
<g id="node13" class="node">
<title>Node12</title>
<polygon fill="none" stroke="#bfbfbf" points="0,-.5 0,-19.5 127,-19.5 127,-.5 0,-.5"/>
<text text-anchor="middle" x="63.5" y="-7.5" font-family="Helvetica,sans-Serif" font-size="10.00" fill="#000000">deal.II/dofs/dof_handler.h</text>
</g>
<!-- Node10&#45;&gt;Node12 -->
<g id="edge12" class="edge">
<title>Node10&#45;&gt;Node12</title>
<path fill="none" stroke="#191970" d="M465.8009,-61.9649C456.2601,-59.8118 446.0414,-57.6713 436.5,-56 407.8014,-50.9729 237.5697,-30.5676 137.276,-18.6905"/>
<polygon fill="#191970" stroke="#191970" points="137.5408,-15.1975 127.1987,-17.498 136.7181,-22.149 137.5408,-15.1975"/>
</g>
<!-- Node13 -->
<g id="node14" class="node">
<title>Node13</title>
<polygon fill="none" stroke="#bfbfbf" points="159.5,-.5 159.5,-19.5 275.5,-19.5 275.5,-.5 159.5,-.5"/>
<text text-anchor="middle" x="217.5" y="-7.5" font-family="Helvetica,sans-Serif" font-size="10.00" fill="#000000">deal.II/dofs/dof_tools.h</text>
</g>
<!-- Node10&#45;&gt;Node13 -->
<g id="edge13" class="edge">
<title>Node10&#45;&gt;Node13</title>
<path fill="none" stroke="#191970" d="M463.1714,-61.9608C454.374,-59.9636 445.1345,-57.8908 436.5,-56 381.3984,-43.934 318.3552,-30.7582 274.1025,-21.6125"/>
<polygon fill="#191970" stroke="#191970" points="274.6171,-18.145 264.116,-19.5511 273.2019,-25.0005 274.6171,-18.145"/>
</g>
<!-- Node14 -->
<g id="node15" class="node">
<title>Node14</title>
<polygon fill="none" stroke="#bfbfbf" points="301,-.5 301,-19.5 404,-19.5 404,-.5 301,-.5"/>
<text text-anchor="middle" x="352.5" y="-7.5" font-family="Helvetica,sans-Serif" font-size="10.00" fill="#000000">deal.II/fe/mapping.h</text>
</g>
<!-- Node10&#45;&gt;Node14 -->
<g id="edge14" class="edge">
<title>Node10&#45;&gt;Node14</title>
<path fill="none" stroke="#191970" d="M480.75,-61.8906C455.2061,-51.5554 414.3991,-35.0447 385.689,-23.4284"/>
<polygon fill="#191970" stroke="#191970" points="386.666,-20.0481 376.0832,-19.5419 384.0404,-26.5371 386.666,-20.0481"/>
</g>
<!-- Node15 -->
<g id="node16" class="node">
<title>Node15</title>
<polygon fill="none" stroke="#bfbfbf" points="544.5,-.5 544.5,-19.5 584.5,-19.5 584.5,-.5 544.5,-.5"/>
<text text-anchor="middle" x="564.5" y="-7.5" font-family="Helvetica,sans-Serif" font-size="10.00" fill="#000000">utility</text>
</g>
<!-- Node10&#45;&gt;Node15 -->
<g id="edge15" class="edge">
<title>Node10&#45;&gt;Node15</title>
<path fill="none" stroke="#191970" d="M513.875,-61.8906C522.9799,-52.5581 536.9974,-38.1902 547.9757,-26.9374"/>
<polygon fill="#191970" stroke="#191970" points="550.5148,-29.3468 554.9928,-19.7449 545.5043,-24.4586 550.5148,-29.3468"/>
</g>
<!-- Node16&#45;&gt;Node5 -->
<g id="edge18" class="edge">
<title>Node16&#45;&gt;Node5</title>
<path fill="none" stroke="#191970" d="M698.6563,-184.8906C703.4232,-176.0068 710.6385,-162.5601 716.5297,-151.5811"/>
<polygon fill="#191970" stroke="#191970" points="719.6269,-153.2114 721.2711,-142.7449 713.4588,-149.9016 719.6269,-153.2114"/>
</g>
<!-- Node16&#45;&gt;Node17 -->
<g id="edge19" class="edge">
<title>Node16&#45;&gt;Node17</title>
<path fill="none" stroke="#191970" d="M655.4758,-188.3783C585.6713,-177.1401 437.1959,-153.2364 360.1536,-140.833"/>
<polygon fill="#191970" stroke="#191970" points="360.6513,-137.3681 350.2221,-139.2341 359.5386,-144.2791 360.6513,-137.3681"/>
</g>
<!-- Node16&#45;&gt;Node21 -->
<g id="edge27" class="edge">
<title>Node16&#45;&gt;Node21</title>
<path fill="none" stroke="#191970" d="M731.6347,-186.9589C794.0871,-174.609 916.9237,-150.3181 974.0049,-139.0304"/>
<polygon fill="#191970" stroke="#191970" points="974.7376,-142.4533 983.8687,-137.0798 973.3796,-135.5863 974.7376,-142.4533"/>
</g>
<!-- Node17&#45;&gt;Node2 -->
<g id="edge25" class="edge">
<title>Node17&#45;&gt;Node2</title>
<path fill="none" stroke="#191970" d="M350.0266,-130.4031C427.7691,-124.8637 608.8496,-110.4466 759.5,-87 771.5377,-85.1265 784.5735,-82.5741 796.3016,-80.0814"/>
<polygon fill="#191970" stroke="#191970" points="797.1862,-83.4709 806.2134,-77.9247 795.6978,-76.6309 797.1862,-83.4709"/>
</g>
<!-- Node17&#45;&gt;Node12 -->
<g id="edge20" class="edge">
<title>Node17&#45;&gt;Node12</title>
<path fill="none" stroke="#191970" d="M272.6586,-129.5993C234.5941,-124.8153 176.1038,-113.4847 132.5,-87 107.9388,-72.0816 87.1123,-45.7088 74.955,-28.0422"/>
<polygon fill="#191970" stroke="#191970" points="77.8637,-26.0955 69.4138,-19.7042 72.0337,-29.97 77.8637,-26.0955"/>
</g>
<!-- Node17&#45;&gt;Node13 -->
<g id="edge21" class="edge">
<title>Node17&#45;&gt;Node13</title>
<path fill="none" stroke="#191970" d="M272.8056,-127.9266C227.9783,-121.1626 158.24,-107.5969 142.5,-87 134.1342,-76.0528 135.7702,-68.0224 142.5,-56 150.5789,-41.5676 165.2415,-31.1145 179.4729,-23.8565"/>
<polygon fill="#191970" stroke="#191970" points="181.1186,-26.9506 188.6892,-19.5387 178.1489,-20.6118 181.1186,-26.9506"/>
</g>
<!-- Node17&#45;&gt;Node14 -->
<g id="edge24" class="edge">
<title>Node17&#45;&gt;Node14</title>
<path fill="none" stroke="#191970" d="M272.9841,-128.5334C216.0633,-120.3823 119.7566,-99.7404 154.5,-56 163.1271,-45.1389 235.8325,-30.2692 290.659,-20.4107"/>
<polygon fill="#191970" stroke="#191970" points="291.4363,-23.8274 300.6688,-18.6303 290.2104,-16.9356 291.4363,-23.8274"/>
</g>
<!-- Node18 -->
<g id="node19" class="node">
<title>Node18</title>
<polygon fill="none" stroke="#bfbfbf" points="163.5,-62 163.5,-81 237.5,-81 237.5,-62 163.5,-62"/>
<text text-anchor="middle" x="200.5" y="-69" font-family="Helvetica,sans-Serif" font-size="10.00" fill="#000000">deal.II/fe/fe.h</text>
</g>
<!-- Node17&#45;&gt;Node18 -->
<g id="edge22" class="edge">
<title>Node17&#45;&gt;Node18</title>
<path fill="none" stroke="#191970" d="M294.1563,-123.3906C276.0727,-113.3713 247.5141,-97.5483 226.6835,-86.0071"/>
<polygon fill="#191970" stroke="#191970" points="228.1654,-82.8268 217.722,-81.0419 224.7729,-88.9498 228.1654,-82.8268"/>
</g>
<!-- Node19 -->
<g id="node20" class="node">
<title>Node19</title>
<polygon fill="none" stroke="#bfbfbf" points="255.5,-62 255.5,-81 367.5,-81 367.5,-62 255.5,-62"/>
<text text-anchor="middle" x="311.5" y="-69" font-family="Helvetica,sans-Serif" font-size="10.00" fill="#000000">deal.II/fe/fe_system.h</text>
</g>
<!-- Node17&#45;&gt;Node19 -->
<g id="edge23" class="edge">
<title>Node17&#45;&gt;Node19</title>
<path fill="none" stroke="#191970" d="M311.5,-123.3906C311.5,-114.8657 311.5,-102.1392 311.5,-91.4235"/>
<polygon fill="#191970" stroke="#191970" points="315.0001,-91.2448 311.5,-81.2449 308.0001,-91.2449 315.0001,-91.2448"/>
</g>
<!-- Node20 -->
<g id="node21" class="node">
<title>Node20</title>
<polygon fill="none" stroke="#bfbfbf" points="386,-62 386,-81 427,-81 427,-62 386,-62"/>
<text text-anchor="middle" x="406.5" y="-69" font-family="Helvetica,sans-Serif" font-size="10.00" fill="#000000">string</text>
</g>
<!-- Node17&#45;&gt;Node20 -->
<g id="edge26" class="edge">
<title>Node17&#45;&gt;Node20</title>
<path fill="none" stroke="#191970" d="M326.3438,-123.3906C341.5418,-113.5519 365.3848,-98.1167 383.1206,-86.6351"/>
<polygon fill="#191970" stroke="#191970" points="385.268,-89.4144 391.7605,-81.0419 381.4639,-83.5382 385.268,-89.4144"/>
</g>
<!-- Node21&#45;&gt;Node2 -->
<g id="edge33" class="edge">
<title>Node21&#45;&gt;Node2</title>
<path fill="none" stroke="#191970" d="M983.7358,-126.4824C957.0738,-117.9865 909.4761,-102.3897 869.5,-87 867.8846,-86.3781 866.2348,-85.7268 864.5734,-85.058"/>
<polygon fill="#191970" stroke="#191970" points="865.6671,-81.7225 855.0894,-81.1202 862.9828,-88.1874 865.6671,-81.7225"/>
</g>
<!-- Node21&#45;&gt;Node7 -->
<g id="edge29" class="edge">
<title>Node21&#45;&gt;Node7</title>
<path fill="none" stroke="#191970" d="M989.1875,-123.3906C973.4376,-113.5067 948.6877,-97.9749 930.3663,-86.4773"/>
<polygon fill="#191970" stroke="#191970" points="932.0357,-83.3929 921.705,-81.0419 928.3148,-89.3221 932.0357,-83.3929"/>
</g>
<!-- Node21&#45;&gt;Node9 -->
<g id="edge35" class="edge">
<title>Node21&#45;&gt;Node9</title>
<path fill="none" stroke="#191970" d="M1025.2853,-132.4707C1086.2604,-130.1943 1257.3195,-118.2373 1207.5,-56 1186.2283,-29.4262 1087.0077,-17.1497 1034.8052,-12.4482"/>
<polygon fill="#191970" stroke="#191970" points="1034.9893,-8.9512 1024.7263,-11.5822 1034.3899,-15.9255 1034.9893,-8.9512"/>
</g>
<!-- Node22 -->
<g id="node23" class="node">
<title>Node22</title>
<polygon fill="none" stroke="#bfbfbf" points="1254.5,-62 1254.5,-81 1380.5,-81 1380.5,-62 1254.5,-62"/>
<text text-anchor="middle" x="1317.5" y="-69" font-family="Helvetica,sans-Serif" font-size="10.00" fill="#000000">deal.II/base/exceptions.h</text>
</g>
<!-- Node21&#45;&gt;Node22 -->
<g id="edge28" class="edge">
<title>Node21&#45;&gt;Node22</title>
<path fill="none" stroke="#191970" d="M1025.0272,-129.0429C1066.0045,-121.1339 1160.8571,-102.7777 1240.5,-87 1246.8203,-85.7479 1253.4306,-84.43 1260.0086,-83.1132"/>
<polygon fill="#191970" stroke="#191970" points="1261.156,-86.4529 1270.2724,-81.0545 1259.7793,-79.5896 1261.156,-86.4529"/>
</g>
<!-- Node23 -->
<g id="node24" class="node">
<title>Node23</title>
<polygon fill="none" stroke="#bfbfbf" points="952.5,-62 952.5,-81 990.5,-81 990.5,-62 952.5,-62"/>
<text text-anchor="middle" x="971.5" y="-69" font-family="Helvetica,sans-Serif" font-size="10.00" fill="#000000">array</text>
</g>
<!-- Node21&#45;&gt;Node23 -->
<g id="edge30" class="edge">
<title>Node21&#45;&gt;Node23</title>
<path fill="none" stroke="#191970" d="M999.3438,-123.3906C994.5768,-114.5068 987.3615,-101.0601 981.4703,-90.0811"/>
<polygon fill="#191970" stroke="#191970" points="984.5412,-88.4016 976.7289,-81.2449 978.3731,-91.7114 984.5412,-88.4016"/>
</g>
<!-- Node24 -->
<g id="node25" class="node">
<title>Node24</title>
<polygon fill="none" stroke="#bfbfbf" points="1009,-62 1009,-81 1068,-81 1068,-62 1009,-62"/>
<text text-anchor="middle" x="1038.5" y="-69" font-family="Helvetica,sans-Serif" font-size="10.00" fill="#000000">exception</text>
</g>
<!-- Node21&#45;&gt;Node24 -->
<g id="edge31" class="edge">
<title>Node21&#45;&gt;Node24</title>
<path fill="none" stroke="#191970" d="M1009.8125,-123.3906C1014.7239,-114.5068 1022.1579,-101.0601 1028.2275,-90.0811"/>
<polygon fill="#191970" stroke="#191970" points="1031.3373,-91.6899 1033.1126,-81.2449 1025.2112,-88.3031 1031.3373,-91.6899"/>
</g>
<!-- Node25 -->
<g id="node26" class="node">
<title>Node25</title>
<polygon fill="none" stroke="#bfbfbf" points="1086,-62 1086,-81 1145,-81 1145,-62 1086,-62"/>
<text text-anchor="middle" x="1115.5" y="-69" font-family="Helvetica,sans-Serif" font-size="10.00" fill="#000000">functional</text>
</g>
<!-- Node21&#45;&gt;Node25 -->
<g id="edge32" class="edge">
<title>Node21&#45;&gt;Node25</title>
<path fill="none" stroke="#191970" d="M1021.8438,-123.3906C1039.9273,-113.3713 1068.4859,-97.5483 1089.3165,-86.0071"/>
<polygon fill="#191970" stroke="#191970" points="1091.2271,-88.9498 1098.278,-81.0419 1087.8346,-82.8268 1091.2271,-88.9498"/>
</g>
<!-- Node26 -->
<g id="node27" class="node">
<title>Node26</title>
<polygon fill="none" stroke="#bfbfbf" points="1163,-62 1163,-81 1198,-81 1198,-62 1163,-62"/>
<text text-anchor="middle" x="1180.5" y="-69" font-family="Helvetica,sans-Serif" font-size="10.00" fill="#000000">new</text>
</g>
<!-- Node21&#45;&gt;Node26 -->
<g id="edge34" class="edge">
<title>Node21&#45;&gt;Node26</title>
<path fill="none" stroke="#191970" d="M1025.4469,-128.2673C1054.9743,-121.2211 1110.1812,-106.6628 1154.5,-87 1155.2025,-86.6883 1155.9096,-86.3617 1156.6185,-86.0227"/>
<polygon fill="#191970" stroke="#191970" points="1158.5466,-88.9603 1165.7045,-81.149 1155.2378,-82.7917 1158.5466,-88.9603"/>
</g>
<!-- Node27&#45;&gt;Node9 -->
<g id="edge41" class="edge">
<title>Node27&#45;&gt;Node9</title>
<path fill="none" stroke="#191970" d="M1324.0895,-183.8853C1346.4744,-176.3347 1371.3114,-163.7236 1385.5,-143 1407.3673,-111.0611 1415.2044,-84.9406 1389.5,-56 1366.0501,-29.5977 1123.4863,-15.6661 1034.7704,-11.4237"/>
<polygon fill="#191970" stroke="#191970" points="1034.8919,-7.9257 1024.7392,-10.9542 1034.5645,-14.918 1034.8919,-7.9257"/>
</g>
<!-- Node28 -->
<g id="node29" class="node">
<title>Node28</title>
<polygon fill="none" stroke="#bfbfbf" points="1155.5,-123.5 1155.5,-142.5 1195.5,-142.5 1195.5,-123.5 1155.5,-123.5"/>
<text text-anchor="middle" x="1175.5" y="-130.5" font-family="Helvetica,sans-Serif" font-size="10.00" fill="#000000">limits</text>
</g>
<!-- Node27&#45;&gt;Node28 -->
<g id="edge39" class="edge">
<title>Node27&#45;&gt;Node28</title>
<path fill="none" stroke="#191970" d="M1251.7926,-179.4554C1235.9753,-169.8241 1215.5433,-157.3828 1199.8051,-147.7996"/>
<polygon fill="#191970" stroke="#191970" points="1201.5129,-144.7418 1191.1514,-142.5303 1197.8723,-150.7206 1201.5129,-144.7418"/>
</g>
<!-- Node29 -->
<g id="node30" class="node">
<title>Node29</title>
<polygon fill="none" stroke="#bfbfbf" points="1214,-123.5 1214,-142.5 1249,-142.5 1249,-123.5 1214,-123.5"/>
<text text-anchor="middle" x="1231.5" y="-130.5" font-family="Helvetica,sans-Serif" font-size="10.00" fill="#000000">map</text>
</g>
<!-- Node27&#45;&gt;Node29 -->
<g id="edge40" class="edge">
<title>Node27&#45;&gt;Node29</title>
<path fill="none" stroke="#191970" d="M1265.3764,-179.2977C1259.1299,-170.7609 1251.296,-160.0545 1244.7353,-151.0883"/>
<polygon fill="#191970" stroke="#191970" points="1247.4348,-148.8505 1238.7051,-142.8469 1241.7856,-152.984 1247.4348,-148.8505"/>
</g>
<!-- Node30 -->
<g id="node31" class="node">
<title>Node30</title>
<g id="a_node31"><a xlink:href="general__exceptions_8h.html" target="_top" xlink:title="Definition of self&#45;defined general exceptions. ">
<polygon fill="none" stroke="#000000" points="1267,-123.5 1267,-142.5 1376,-142.5 1376,-123.5 1267,-123.5"/>
<text text-anchor="middle" x="1321.5" y="-130.5" font-family="Helvetica,sans-Serif" font-size="10.00" fill="#000000">general_exceptions.h</text>
</a>
</g>
</g>
<!-- Node27&#45;&gt;Node30 -->
<g id="edge42" class="edge">
<title>Node27&#45;&gt;Node30</title>
<path fill="none" stroke="#191970" d="M1287.6236,-179.2977C1293.8701,-170.7609 1301.704,-160.0545 1308.2647,-151.0883"/>
<polygon fill="#191970" stroke="#191970" points="1311.2144,-152.984 1314.2949,-142.8469 1305.5652,-148.8505 1311.2144,-152.984"/>
</g>
<!-- Node31 -->
<g id="node32" class="node">
<title>Node31</title>
<g id="a_node32"><a xlink:href="lapack__helpers_8h.html" target="_top" xlink:title="Exposes LAPACK helper functions defined in lapack_full_matrix.cc and define new ones by following the...">
<polygon fill="none" stroke="#000000" points="1970.5,-123.5 1970.5,-142.5 2060.5,-142.5 2060.5,-123.5 1970.5,-123.5"/>
<text text-anchor="middle" x="2015.5" y="-130.5" font-family="Helvetica,sans-Serif" font-size="10.00" fill="#000000">lapack_helpers.h</text>
</a>
</g>
</g>
<!-- Node27&#45;&gt;Node31 -->
<g id="edge44" class="edge">
<title>Node27&#45;&gt;Node31</title>
<path fill="none" stroke="#191970" d="M1324.1348,-190.5358C1455.2387,-179.6253 1820.9024,-149.1945 1960.4358,-137.5825"/>
<polygon fill="#191970" stroke="#191970" points="1960.8039,-141.064 1970.4792,-136.7467 1960.2233,-134.0881 1960.8039,-141.064"/>
</g>
<!-- Node30&#45;&gt;Node22 -->
<g id="edge43" class="edge">
<title>Node30&#45;&gt;Node22</title>
<path fill="none" stroke="#191970" d="M1320.875,-123.3906C1320.3205,-114.8657 1319.4928,-102.1392 1318.7958,-91.4235"/>
<polygon fill="#191970" stroke="#191970" points="1322.2756,-90.9966 1318.1338,-81.2449 1315.2903,-91.451 1322.2756,-90.9966"/>
</g>
<!-- Node32 -->
<g id="node33" class="node">
<title>Node32</title>
<polygon fill="none" stroke="#bfbfbf" points="2534.5,-62 2534.5,-81 2650.5,-81 2650.5,-62 2534.5,-62"/>
<text text-anchor="middle" x="2592.5" y="-69" font-family="Helvetica,sans-Serif" font-size="10.00" fill="#000000">deal.II/base/numbers.h</text>
</g>
<!-- Node31&#45;&gt;Node32 -->
<g id="edge45" class="edge">
<title>Node31&#45;&gt;Node32</title>
<path fill="none" stroke="#191970" d="M2060.7851,-131.0071C2150.1272,-126.6147 2355.1978,-114.2471 2525.5,-87 2531.9214,-85.9726 2538.6434,-84.6807 2545.2474,-83.2834"/>
<polygon fill="#191970" stroke="#191970" points="2546.4592,-86.6001 2555.4677,-81.0237 2544.9479,-79.7652 2546.4592,-86.6001"/>
</g>
<!-- Node33 -->
<g id="node34" class="node">
<title>Node33</title>
<polygon fill="none" stroke="#bfbfbf" points="1436.5,-56.5 1436.5,-86.5 1564.5,-86.5 1564.5,-56.5 1436.5,-56.5"/>
<text text-anchor="start" x="1444.5" y="-74.5" font-family="Helvetica,sans-Serif" font-size="10.00" fill="#000000">deal.II/lac/blas_extension</text>
<text text-anchor="middle" x="1500.5" y="-63.5" font-family="Helvetica,sans-Serif" font-size="10.00" fill="#000000">_templates.h</text>
</g>
<!-- Node31&#45;&gt;Node33 -->
<g id="edge46" class="edge">
<title>Node31&#45;&gt;Node33</title>
<path fill="none" stroke="#191970" d="M1970.4364,-129.8891C1891.9869,-124.13 1725.0952,-110.3598 1574.423,-87.0429"/>
<polygon fill="#191970" stroke="#191970" points="1574.944,-83.5819 1564.5231,-85.4932 1573.8614,-90.4977 1574.944,-83.5819"/>
</g>
<!-- Node34 -->
<g id="node35" class="node">
<title>Node34</title>
<polygon fill="none" stroke="#bfbfbf" points="1582.5,-62 1582.5,-81 1708.5,-81 1708.5,-62 1582.5,-62"/>
<text text-anchor="middle" x="1645.5" y="-69" font-family="Helvetica,sans-Serif" font-size="10.00" fill="#000000">deal.II/lac/block_vector.h</text>
</g>
<!-- Node31&#45;&gt;Node34 -->
<g id="edge47" class="edge">
<title>Node31&#45;&gt;Node34</title>
<path fill="none" stroke="#191970" d="M1970.4286,-126.8856C1911.945,-118.7588 1806.8153,-103.4925 1717.5,-87 1711.1463,-85.8268 1704.4956,-84.5128 1697.9128,-83.1593"/>
<polygon fill="#191970" stroke="#191970" points="1698.1818,-79.6398 1687.6765,-81.0145 1696.7462,-86.491 1698.1818,-79.6398"/>
</g>
<!-- Node35 -->
<g id="node36" class="node">
<title>Node35</title>
<polygon fill="none" stroke="#bfbfbf" points="1726.5,-62 1726.5,-81 1842.5,-81 1842.5,-62 1726.5,-62"/>
<text text-anchor="middle" x="1784.5" y="-69" font-family="Helvetica,sans-Serif" font-size="10.00" fill="#000000">deal.II/lac/full_matrix.h</text>
</g>
<!-- Node31&#45;&gt;Node35 -->
<g id="edge48" class="edge">
<title>Node31&#45;&gt;Node35</title>
<path fill="none" stroke="#191970" d="M1979.6597,-123.4581C1939.4515,-112.7533 1874.1309,-95.3628 1830.2631,-83.6837"/>
<polygon fill="#191970" stroke="#191970" points="1830.9882,-80.2549 1820.4244,-81.0643 1829.1873,-87.0193 1830.9882,-80.2549"/>
</g>
<!-- Node36 -->
<g id="node37" class="node">
<title>Node36</title>
<polygon fill="none" stroke="#bfbfbf" points="1861,-56.5 1861,-86.5 1952,-86.5 1952,-56.5 1861,-56.5"/>
<text text-anchor="start" x="1869" y="-74.5" font-family="Helvetica,sans-Serif" font-size="10.00" fill="#000000">deal.II/lac/lapack</text>
<text text-anchor="middle" x="1906.5" y="-63.5" font-family="Helvetica,sans-Serif" font-size="10.00" fill="#000000">_full_matrix.h</text>
</g>
<!-- Node31&#45;&gt;Node36 -->
<g id="edge49" class="edge">
<title>Node31&#45;&gt;Node36</title>
<path fill="none" stroke="#191970" d="M1998.4688,-123.3906C1983.4437,-114.9132 1961.0548,-102.2809 1942.1294,-91.6028"/>
<polygon fill="#191970" stroke="#191970" points="1943.5937,-88.4104 1933.1644,-86.5446 1940.1538,-94.5069 1943.5937,-88.4104"/>
</g>
<!-- Node37 -->
<g id="node38" class="node">
<title>Node37</title>
<polygon fill="none" stroke="#bfbfbf" points="1970,-56.5 1970,-86.5 2061,-86.5 2061,-56.5 1970,-56.5"/>
<text text-anchor="start" x="1978" y="-74.5" font-family="Helvetica,sans-Serif" font-size="10.00" fill="#000000">deal.II/lac/lapack</text>
<text text-anchor="middle" x="2015.5" y="-63.5" font-family="Helvetica,sans-Serif" font-size="10.00" fill="#000000">_support.h</text>
</g>
<!-- Node31&#45;&gt;Node37 -->
<g id="edge50" class="edge">
<title>Node31&#45;&gt;Node37</title>
<path fill="none" stroke="#191970" d="M2015.5,-123.3906C2015.5,-116.2234 2015.5,-106.0862 2015.5,-96.671"/>
<polygon fill="#191970" stroke="#191970" points="2019.0001,-96.5446 2015.5,-86.5446 2012.0001,-96.5446 2019.0001,-96.5446"/>
</g>
<!-- Node38 -->
<g id="node39" class="node">
<title>Node38</title>
<polygon fill="none" stroke="#bfbfbf" points="2079,-56.5 2079,-86.5 2170,-86.5 2170,-56.5 2079,-56.5"/>
<text text-anchor="start" x="2087" y="-74.5" font-family="Helvetica,sans-Serif" font-size="10.00" fill="#000000">deal.II/lac/lapack</text>
<text text-anchor="middle" x="2124.5" y="-63.5" font-family="Helvetica,sans-Serif" font-size="10.00" fill="#000000">_templates.h</text>
</g>
<!-- Node31&#45;&gt;Node38 -->
<g id="edge51" class="edge">
<title>Node31&#45;&gt;Node38</title>
<path fill="none" stroke="#191970" d="M2032.5313,-123.3906C2047.5563,-114.9132 2069.9452,-102.2809 2088.8706,-91.6028"/>
<polygon fill="#191970" stroke="#191970" points="2090.8462,-94.5069 2097.8356,-86.5446 2087.4063,-88.4104 2090.8462,-94.5069"/>
</g>
<!-- Node39 -->
<g id="node40" class="node">
<title>Node39</title>
<polygon fill="none" stroke="#bfbfbf" points="2188.5,-56.5 2188.5,-86.5 2280.5,-86.5 2280.5,-56.5 2188.5,-56.5"/>
<text text-anchor="start" x="2196.5" y="-74.5" font-family="Helvetica,sans-Serif" font-size="10.00" fill="#000000">deal.II/lac/sparse</text>
<text text-anchor="middle" x="2234.5" y="-63.5" font-family="Helvetica,sans-Serif" font-size="10.00" fill="#000000">_matrix.h</text>
</g>
<!-- Node31&#45;&gt;Node39 -->
<g id="edge52" class="edge">
<title>Node31&#45;&gt;Node39</title>
<path fill="none" stroke="#191970" d="M2049.4256,-123.4974C2080.5844,-114.7669 2128.3022,-101.3894 2178.5455,-87.2668"/>
<polygon fill="#191970" stroke="#191970" points="2179.6081,-90.6038 2188.2877,-84.5279 2177.7136,-83.865 2179.6081,-90.6038"/>
</g>
<!-- Node40 -->
<g id="node41" class="node">
<title>Node40</title>
<polygon fill="none" stroke="#bfbfbf" points="2299,-62 2299,-81 2400,-81 2400,-62 2299,-62"/>
<text text-anchor="middle" x="2349.5" y="-69" font-family="Helvetica,sans-Serif" font-size="10.00" fill="#000000">deal.II/lac/utilities.h</text>
</g>
<!-- Node31&#45;&gt;Node40 -->
<g id="edge53" class="edge">
<title>Node31&#45;&gt;Node40</title>
<path fill="none" stroke="#191970" d="M2060.8171,-126.6193C2115.3394,-118.6602 2209.5302,-104.0089 2289.5,-87 2294.5018,-85.9362 2299.7147,-84.733 2304.8877,-83.479"/>
<polygon fill="#191970" stroke="#191970" points="2305.8643,-86.8428 2314.7208,-81.028 2304.1712,-80.0506 2305.8643,-86.8428"/>
</g>
<!-- Node41 -->
<g id="node42" class="node">
<title>Node41</title>
<polygon fill="none" stroke="#bfbfbf" points="2418.5,-62 2418.5,-81 2516.5,-81 2516.5,-62 2418.5,-62"/>
<text text-anchor="middle" x="2467.5" y="-69" font-family="Helvetica,sans-Serif" font-size="10.00" fill="#000000">deal.II/lac/vector.h</text>
</g>
<!-- Node31&#45;&gt;Node41 -->
<g id="edge54" class="edge">
<title>Node31&#45;&gt;Node41</title>
<path fill="none" stroke="#191970" d="M2060.7304,-129.8621C2134.325,-124.2778 2284.3565,-110.8966 2409.5,-87 2414.6157,-86.0231 2419.9441,-84.8371 2425.2073,-83.5607"/>
<polygon fill="#191970" stroke="#191970" points="2426.346,-86.8826 2435.1751,-81.0262 2424.6209,-80.0985 2426.346,-86.8826"/>
</g>
</g>
</svg>
