<?xml version="1.0" encoding="UTF-8" standalone="no"?>
<!DOCTYPE svg PUBLIC "-//W3C//DTD SVG 1.1//EN"
 "http://www.w3.org/Graphics/SVG/1.1/DTD/svg11.dtd">
<!-- Generated by graphviz version 2.40.1 (20161225.0304)
 -->
<!-- Title: /home/jihuan/Projects/deal.ii/program/dealii&#45;9.1.1/examples/laplace&#45;bem/tests/binary&#45;tree&#45;copy/binary&#45;tree&#45;copy.cc Pages: 1 -->
<svg width="607pt" height="184pt"
 viewBox="0.00 0.00 606.50 184.00" xmlns="http://www.w3.org/2000/svg" xmlns:xlink="http://www.w3.org/1999/xlink">
<g id="graph0" class="graph" transform="scale(1 1) rotate(0) translate(4 180)">
<title>/home/jihuan/Projects/deal.ii/program/dealii&#45;9.1.1/examples/laplace&#45;bem/tests/binary&#45;tree&#45;copy/binary&#45;tree&#45;copy.cc</title>
<!-- Node0 -->
<g id="node1" class="node">
<title>Node0</title>
<polygon fill="#bfbfbf" stroke="#000000" points="36.5,-112.5 36.5,-175.5 172.5,-175.5 172.5,-112.5 36.5,-112.5"/>
<text text-anchor="start" x="44.5" y="-163.5" font-family="Helvetica,sans-Serif" font-size="10.00" fill="#000000">/home/jihuan/Projects</text>
<text text-anchor="start" x="44.5" y="-152.5" font-family="Helvetica,sans-Serif" font-size="10.00" fill="#000000">/deal.ii/program/dealii</text>
<text text-anchor="start" x="44.5" y="-141.5" font-family="Helvetica,sans-Serif" font-size="10.00" fill="#000000">&#45;9.1.1/examples/laplace</text>
<text text-anchor="start" x="44.5" y="-130.5" font-family="Helvetica,sans-Serif" font-size="10.00" fill="#000000">&#45;bem/tests/binary&#45;tree&#45;copy</text>
<text text-anchor="middle" x="104.5" y="-119.5" font-family="Helvetica,sans-Serif" font-size="10.00" fill="#000000">/binary&#45;tree&#45;copy.cc</text>
</g>
<!-- Node1 -->
<g id="node2" class="node">
<title>Node1</title>
<polygon fill="none" stroke="#bfbfbf" points="0,-.5 0,-19.5 59,-19.5 59,-.5 0,-.5"/>
<text text-anchor="middle" x="29.5" y="-7.5" font-family="Helvetica,sans-Serif" font-size="10.00" fill="#000000">functional</text>
</g>
<!-- Node0&#45;&gt;Node1 -->
<g id="edge1" class="edge">
<title>Node0&#45;&gt;Node1</title>
<path fill="none" stroke="#191970" d="M86.726,-112.2439C72.076,-86.0691 51.8107,-49.8619 39.7408,-28.297"/>
<polygon fill="#191970" stroke="#191970" points="42.7598,-26.5245 34.8215,-19.5078 36.6514,-29.9434 42.7598,-26.5245"/>
</g>
<!-- Node2 -->
<g id="node3" class="node">
<title>Node2</title>
<polygon fill="none" stroke="#bfbfbf" points="77.5,-.5 77.5,-19.5 131.5,-19.5 131.5,-.5 77.5,-.5"/>
<text text-anchor="middle" x="104.5" y="-7.5" font-family="Helvetica,sans-Serif" font-size="10.00" fill="#000000">iostream</text>
</g>
<!-- Node0&#45;&gt;Node2 -->
<g id="edge2" class="edge">
<title>Node0&#45;&gt;Node2</title>
<path fill="none" stroke="#191970" d="M104.5,-112.2439C104.5,-86.6586 104.5,-51.4877 104.5,-29.7761"/>
<polygon fill="#191970" stroke="#191970" points="108.0001,-29.5077 104.5,-19.5078 101.0001,-29.5078 108.0001,-29.5077"/>
</g>
<!-- Node3 -->
<g id="node4" class="node">
<title>Node3</title>
<g id="a_node4"><a xlink:href="tree_8h.html" target="_top" xlink:title="Implementation of the classes for binary tree node, general tree node and functions for manipulating ...">
<polygon fill="none" stroke="#000000" points="301,-56.5 301,-75.5 342,-75.5 342,-56.5 301,-56.5"/>
<text text-anchor="middle" x="321.5" y="-63.5" font-family="Helvetica,sans-Serif" font-size="10.00" fill="#000000">tree.h</text>
</a>
</g>
</g>
<!-- Node0&#45;&gt;Node3 -->
<g id="edge3" class="edge">
<title>Node0&#45;&gt;Node3</title>
<path fill="none" stroke="#191970" d="M172.5648,-119.5343C212.3197,-105.2445 260.5263,-87.9168 291.111,-76.9232"/>
<polygon fill="#191970" stroke="#191970" points="292.5433,-80.1277 300.7699,-73.4514 290.1755,-73.5403 292.5433,-80.1277"/>
</g>
<!-- Node3&#45;&gt;Node1 -->
<g id="edge8" class="edge">
<title>Node3&#45;&gt;Node1</title>
<path fill="none" stroke="#191970" d="M300.74,-62.7394C258.9211,-56.0624 161.3794,-39.94 69.2992,-20.0515"/>
<polygon fill="#191970" stroke="#191970" points="69.7745,-16.573 59.2585,-17.8627 68.2835,-23.4124 69.7745,-16.573"/>
</g>
<!-- Node3&#45;&gt;Node2 -->
<g id="edge9" class="edge">
<title>Node3&#45;&gt;Node2</title>
<path fill="none" stroke="#191970" d="M300.8317,-60.9049C268.8209,-52.98 205.0935,-37.0695 141.4119,-20.2034"/>
<polygon fill="#191970" stroke="#191970" points="142.1728,-16.7842 131.6094,-17.5994 140.3755,-23.5496 142.1728,-16.7842"/>
</g>
<!-- Node4 -->
<g id="node5" class="node">
<title>Node4</title>
<polygon fill="none" stroke="#bfbfbf" points="149.5,-.5 149.5,-19.5 275.5,-19.5 275.5,-.5 149.5,-.5"/>
<text text-anchor="middle" x="212.5" y="-7.5" font-family="Helvetica,sans-Serif" font-size="10.00" fill="#000000">deal.II/base/exceptions.h</text>
</g>
<!-- Node3&#45;&gt;Node4 -->
<g id="edge4" class="edge">
<title>Node3&#45;&gt;Node4</title>
<path fill="none" stroke="#191970" d="M302.5136,-56.2455C285.3208,-47.4125 259.7762,-34.2887 240.2868,-24.2758"/>
<polygon fill="#191970" stroke="#191970" points="241.763,-21.0993 231.2688,-19.6427 238.5641,-27.3257 241.763,-21.0993"/>
</g>
<!-- Node5 -->
<g id="node6" class="node">
<title>Node5</title>
<polygon fill="none" stroke="#bfbfbf" points="293.5,-.5 293.5,-19.5 349.5,-19.5 349.5,-.5 293.5,-.5"/>
<text text-anchor="middle" x="321.5" y="-7.5" font-family="Helvetica,sans-Serif" font-size="10.00" fill="#000000">algorithm</text>
</g>
<!-- Node3&#45;&gt;Node5 -->
<g id="edge5" class="edge">
<title>Node3&#45;&gt;Node5</title>
<path fill="none" stroke="#191970" d="M321.5,-56.2455C321.5,-48.9382 321.5,-38.6944 321.5,-29.7046"/>
<polygon fill="#191970" stroke="#191970" points="325.0001,-29.6426 321.5,-19.6427 318.0001,-29.6427 325.0001,-29.6426"/>
</g>
<!-- Node6 -->
<g id="node7" class="node">
<title>Node6</title>
<polygon fill="none" stroke="#bfbfbf" points="367.5,-.5 367.5,-19.5 405.5,-19.5 405.5,-.5 367.5,-.5"/>
<text text-anchor="middle" x="386.5" y="-7.5" font-family="Helvetica,sans-Serif" font-size="10.00" fill="#000000">array</text>
</g>
<!-- Node3&#45;&gt;Node6 -->
<g id="edge6" class="edge">
<title>Node3&#45;&gt;Node6</title>
<path fill="none" stroke="#191970" d="M332.8221,-56.2455C342.4223,-47.9746 356.3892,-35.9416 367.6695,-26.2232"/>
<polygon fill="#191970" stroke="#191970" points="370.016,-28.8214 375.3076,-19.6427 365.447,-23.5182 370.016,-28.8214"/>
</g>
<!-- Node7 -->
<g id="node8" class="node">
<title>Node7</title>
<polygon fill="none" stroke="#bfbfbf" points="424,-.5 424,-19.5 483,-19.5 483,-.5 424,-.5"/>
<text text-anchor="middle" x="453.5" y="-7.5" font-family="Helvetica,sans-Serif" font-size="10.00" fill="#000000">exception</text>
</g>
<!-- Node3&#45;&gt;Node7 -->
<g id="edge7" class="edge">
<title>Node3&#45;&gt;Node7</title>
<path fill="none" stroke="#191970" d="M342.125,-57.25C363.3772,-48.2339 396.7951,-34.0566 421.486,-23.5817"/>
<polygon fill="#191970" stroke="#191970" points="422.9695,-26.7543 430.8084,-19.6267 420.2356,-20.3103 422.9695,-26.7543"/>
</g>
<!-- Node8 -->
<g id="node9" class="node">
<title>Node8</title>
<polygon fill="none" stroke="#bfbfbf" points="501,-.5 501,-19.5 536,-19.5 536,-.5 501,-.5"/>
<text text-anchor="middle" x="518.5" y="-7.5" font-family="Helvetica,sans-Serif" font-size="10.00" fill="#000000">new</text>
</g>
<!-- Node3&#45;&gt;Node8 -->
<g id="edge10" class="edge">
<title>Node3&#45;&gt;Node8</title>
<path fill="none" stroke="#191970" d="M342.2352,-61.1636C372.9044,-53.853 432.3055,-39.0952 491.1497,-20.2189"/>
<polygon fill="#191970" stroke="#191970" points="492.5382,-23.4479 500.967,-17.0287 490.3748,-16.7906 492.5382,-23.4479"/>
</g>
<!-- Node9 -->
<g id="node10" class="node">
<title>Node9</title>
<polygon fill="none" stroke="#bfbfbf" points="554.5,-.5 554.5,-19.5 598.5,-19.5 598.5,-.5 554.5,-.5"/>
<text text-anchor="middle" x="576.5" y="-7.5" font-family="Helvetica,sans-Serif" font-size="10.00" fill="#000000">vector</text>
</g>
<!-- Node3&#45;&gt;Node9 -->
<g id="edge11" class="edge">
<title>Node3&#45;&gt;Node9</title>
<path fill="none" stroke="#191970" d="M342.0579,-62.556C380.1641,-56.0078 464.4699,-40.7521 544.4999,-20.0551"/>
<polygon fill="#191970" stroke="#191970" points="545.4488,-23.4247 554.2351,-17.5043 543.6745,-16.6533 545.4488,-23.4247"/>
</g>
</g>
</svg>
