<?xml version="1.0" encoding="UTF-8" standalone="no"?>
<!DOCTYPE svg PUBLIC "-//W3C//DTD SVG 1.1//EN"
 "http://www.w3.org/Graphics/SVG/1.1/DTD/svg11.dtd">
<!-- Generated by graphviz version 2.40.1 (20161225.0304)
 -->
<!-- Title: /home/jihuan/Projects/deal.ii/program/dealii&#45;9.1.1/examples/laplace&#45;bem/include/block_cluster_tree.h Pages: 1 -->
<svg width="2612pt" height="363pt"
 viewBox="0.00 0.00 2612.00 363.00" xmlns="http://www.w3.org/2000/svg" xmlns:xlink="http://www.w3.org/1999/xlink">
<g id="graph0" class="graph" transform="scale(1 1) rotate(0) translate(4 359)">
<title>/home/jihuan/Projects/deal.ii/program/dealii&#45;9.1.1/examples/laplace&#45;bem/include/block_cluster_tree.h</title>
<!-- Node0 -->
<g id="node1" class="node">
<title>Node0</title>
<polygon fill="#bfbfbf" stroke="#000000" points="648,-302.5 648,-354.5 811,-354.5 811,-302.5 648,-302.5"/>
<text text-anchor="start" x="656" y="-342.5" font-family="Helvetica,sans-Serif" font-size="10.00" fill="#000000">/home/jihuan/Projects</text>
<text text-anchor="start" x="656" y="-331.5" font-family="Helvetica,sans-Serif" font-size="10.00" fill="#000000">/deal.ii/program/dealii</text>
<text text-anchor="start" x="656" y="-320.5" font-family="Helvetica,sans-Serif" font-size="10.00" fill="#000000">&#45;9.1.1/examples/laplace</text>
<text text-anchor="middle" x="729.5" y="-309.5" font-family="Helvetica,sans-Serif" font-size="10.00" fill="#000000">&#45;bem/include/block_cluster_tree.h</text>
</g>
<!-- Node1 -->
<g id="node2" class="node">
<title>Node1</title>
<g id="a_node2"><a xlink:href="block__cluster_8h.html" target="_top" xlink:title="Implementation of the class BlockCluster. ">
<polygon fill="none" stroke="#000000" points="580,-246.5 580,-265.5 663,-265.5 663,-246.5 580,-246.5"/>
<text text-anchor="middle" x="621.5" y="-253.5" font-family="Helvetica,sans-Serif" font-size="10.00" fill="#000000">block_cluster.h</text>
</a>
</g>
</g>
<!-- Node0&#45;&gt;Node1 -->
<g id="edge1" class="edge">
<title>Node0&#45;&gt;Node1</title>
<path fill="none" stroke="#191970" d="M690.5095,-302.3258C674.9966,-291.912 657.6884,-280.2931 644.2865,-271.2965"/>
<polygon fill="#191970" stroke="#191970" points="645.9559,-268.2017 635.7024,-265.534 642.0543,-274.0136 645.9559,-268.2017"/>
</g>
<!-- Node13 -->
<g id="node14" class="node">
<title>Node13</title>
<g id="a_node14"><a xlink:href="cluster__tree_8h_source.html" target="_top" xlink:title="cluster_tree.h">
<polygon fill="none" stroke="#000000" points="604.5,-185 604.5,-204 680.5,-204 680.5,-185 604.5,-185"/>
<text text-anchor="middle" x="642.5" y="-192" font-family="Helvetica,sans-Serif" font-size="10.00" fill="#000000">cluster_tree.h</text>
</a>
</g>
</g>
<!-- Node0&#45;&gt;Node13 -->
<g id="edge33" class="edge">
<title>Node0&#45;&gt;Node13</title>
<path fill="none" stroke="#191970" d="M712.519,-302.3453C695.3949,-275.9703 669.4047,-235.9394 654.3748,-212.7899"/>
<polygon fill="#191970" stroke="#191970" points="657.2195,-210.744 648.8384,-204.2626 651.3484,-214.5559 657.2195,-210.744"/>
</g>
<!-- Node14 -->
<g id="node15" class="node">
<title>Node14</title>
<g id="a_node15"><a xlink:href="debug__tools_8h.html" target="_top" xlink:title="This file includes a bunch of helper functions for printing out and visualizing information about gri...">
<polygon fill="none" stroke="#000000" points="604,-123.5 604,-142.5 681,-142.5 681,-123.5 604,-123.5"/>
<text text-anchor="middle" x="642.5" y="-130.5" font-family="Helvetica,sans-Serif" font-size="10.00" fill="#000000">debug_tools.h</text>
</a>
</g>
</g>
<!-- Node0&#45;&gt;Node14 -->
<g id="edge34" class="edge">
<title>Node0&#45;&gt;Node14</title>
<path fill="none" stroke="#191970" d="M726.7549,-302.297C722.5616,-271.1114 712.475,-218.3208 689.5,-179 682.8175,-167.5631 672.5391,-157.0449 663.2964,-148.9617"/>
<polygon fill="#191970" stroke="#191970" points="665.4831,-146.228 655.5571,-142.5231 661.0062,-151.6092 665.4831,-146.228"/>
</g>
<!-- Node19 -->
<g id="node20" class="node">
<title>Node19</title>
<g id="a_node20"><a xlink:href="tree_8h.html" target="_top" xlink:title="Implementation of the classes for binary tree node, general tree node and functions for manipulating ...">
<polygon fill="none" stroke="#000000" points="947,-123.5 947,-142.5 988,-142.5 988,-123.5 947,-123.5"/>
<text text-anchor="middle" x="967.5" y="-130.5" font-family="Helvetica,sans-Serif" font-size="10.00" fill="#000000">tree.h</text>
</a>
</g>
</g>
<!-- Node0&#45;&gt;Node19 -->
<g id="edge52" class="edge">
<title>Node0&#45;&gt;Node19</title>
<path fill="none" stroke="#191970" d="M761.5977,-302.134C811.7049,-260.9745 907.0107,-182.6876 947.9813,-149.0332"/>
<polygon fill="#191970" stroke="#191970" points="950.3578,-151.6106 955.8634,-142.5586 945.9146,-146.2015 950.3578,-151.6106"/>
</g>
<!-- Node25 -->
<g id="node26" class="node">
<title>Node25</title>
<g id="a_node26"><a xlink:href="lapack__full__matrix__ext_8h_source.html" target="_top" xlink:title="lapack_full_matrix\l_ext.h">
<polygon fill="none" stroke="#000000" points="1518,-179.5 1518,-209.5 1613,-209.5 1613,-179.5 1518,-179.5"/>
<text text-anchor="start" x="1526" y="-197.5" font-family="Helvetica,sans-Serif" font-size="10.00" fill="#000000">lapack_full_matrix</text>
<text text-anchor="middle" x="1565.5" y="-186.5" font-family="Helvetica,sans-Serif" font-size="10.00" fill="#000000">_ext.h</text>
</a>
</g>
</g>
<!-- Node0&#45;&gt;Node25 -->
<g id="edge35" class="edge">
<title>Node0&#45;&gt;Node25</title>
<path fill="none" stroke="#191970" d="M811.1813,-315.4075C979.6973,-288.3966 1362.2976,-227.0707 1507.8388,-203.7423"/>
<polygon fill="#191970" stroke="#191970" points="1508.5819,-207.168 1517.9019,-202.1294 1507.474,-200.2562 1508.5819,-207.168"/>
</g>
<!-- Node2 -->
<g id="node3" class="node">
<title>Node2</title>
<g id="a_node3"><a xlink:href="cluster_8h.html" target="_top" xlink:title="Implementation of the class Cluster. ">
<polygon fill="none" stroke="#000000" points="383.5,-123.5 383.5,-142.5 437.5,-142.5 437.5,-123.5 383.5,-123.5"/>
<text text-anchor="middle" x="410.5" y="-130.5" font-family="Helvetica,sans-Serif" font-size="10.00" fill="#000000">cluster.h</text>
</a>
</g>
</g>
<!-- Node1&#45;&gt;Node2 -->
<g id="edge2" class="edge">
<title>Node1&#45;&gt;Node2</title>
<path fill="none" stroke="#191970" d="M604.9432,-246.3484C568.1962,-224.9272 479.6227,-173.2943 435.8529,-147.7792"/>
<polygon fill="#191970" stroke="#191970" points="437.3819,-144.6192 426.9799,-142.6068 433.8565,-150.6667 437.3819,-144.6192"/>
</g>
<!-- Node1&#45;&gt;Node13 -->
<g id="edge14" class="edge">
<title>Node1&#45;&gt;Node13</title>
<path fill="none" stroke="#191970" d="M624.7813,-246.3906C627.7535,-237.6862 632.2214,-224.6015 635.927,-213.7494"/>
<polygon fill="#191970" stroke="#191970" points="639.2532,-214.8394 639.1725,-204.2449 632.6288,-212.5773 639.2532,-214.8394"/>
</g>
<!-- Node3 -->
<g id="node4" class="node">
<title>Node3</title>
<polygon fill="none" stroke="#bfbfbf" points="65,-62 65,-81 168,-81 168,-62 65,-62"/>
<text text-anchor="middle" x="116.5" y="-69" font-family="Helvetica,sans-Serif" font-size="10.00" fill="#000000">deal.II/base/types.h</text>
</g>
<!-- Node2&#45;&gt;Node3 -->
<g id="edge3" class="edge">
<title>Node2&#45;&gt;Node3</title>
<path fill="none" stroke="#191970" d="M383.4171,-127.8232C340.6508,-119.5838 254.8949,-102.7998 182.5,-87 177.1815,-85.8393 171.6306,-84.592 166.1047,-83.3274"/>
<polygon fill="#191970" stroke="#191970" points="166.7723,-79.8895 156.2409,-81.0473 165.1957,-86.7097 166.7723,-79.8895"/>
</g>
<!-- Node4 -->
<g id="node5" class="node">
<title>Node4</title>
<polygon fill="none" stroke="#bfbfbf" points="438.5,-62 438.5,-81 494.5,-81 494.5,-62 438.5,-62"/>
<text text-anchor="middle" x="466.5" y="-69" font-family="Helvetica,sans-Serif" font-size="10.00" fill="#000000">algorithm</text>
</g>
<!-- Node2&#45;&gt;Node4 -->
<g id="edge4" class="edge">
<title>Node2&#45;&gt;Node4</title>
<path fill="none" stroke="#191970" d="M419.25,-123.3906C427.6662,-114.1478 440.5797,-99.966 450.781,-88.7628"/>
<polygon fill="#191970" stroke="#191970" points="453.4818,-90.9953 457.6266,-81.2449 448.306,-86.2824 453.4818,-90.9953"/>
</g>
<!-- Node5 -->
<g id="node6" class="node">
<title>Node5</title>
<polygon fill="none" stroke="#bfbfbf" points="0,-62 0,-81 47,-81 47,-62 0,-62"/>
<text text-anchor="middle" x="23.5" y="-69" font-family="Helvetica,sans-Serif" font-size="10.00" fill="#000000">iterator</text>
</g>
<!-- Node2&#45;&gt;Node5 -->
<g id="edge5" class="edge">
<title>Node2&#45;&gt;Node5</title>
<path fill="none" stroke="#191970" d="M383.1647,-132.4331C322.7875,-130.5425 174.0101,-122.3603 55.5,-87 53.6367,-86.444 51.7474,-85.7902 49.8668,-85.071"/>
<polygon fill="#191970" stroke="#191970" points="51.2621,-81.8612 40.696,-81.0809 48.4693,-88.28 51.2621,-81.8612"/>
</g>
<!-- Node6 -->
<g id="node7" class="node">
<title>Node6</title>
<polygon fill="none" stroke="#bfbfbf" points="879.5,-.5 879.5,-19.5 923.5,-19.5 923.5,-.5 879.5,-.5"/>
<text text-anchor="middle" x="901.5" y="-7.5" font-family="Helvetica,sans-Serif" font-size="10.00" fill="#000000">vector</text>
</g>
<!-- Node2&#45;&gt;Node6 -->
<g id="edge6" class="edge">
<title>Node2&#45;&gt;Node6</title>
<path fill="none" stroke="#191970" d="M409.6782,-123.4359C408.8405,-106.8797 409.816,-73.0223 429.5,-56 462.6978,-27.2911 768.0544,-14.4937 869.1587,-11.0189"/>
<polygon fill="#191970" stroke="#191970" points="869.4971,-14.5096 879.374,-10.6758 869.2621,-7.5135 869.4971,-14.5096"/>
</g>
<!-- Node7 -->
<g id="node8" class="node">
<title>Node7</title>
<g id="a_node8"><a xlink:href="simple__bounding__box_8h_source.html" target="_top" xlink:title="simple_bounding_box.h">
<polygon fill="none" stroke="#000000" points="225,-62 225,-81 344,-81 344,-62 225,-62"/>
<text text-anchor="middle" x="284.5" y="-69" font-family="Helvetica,sans-Serif" font-size="10.00" fill="#000000">simple_bounding_box.h</text>
</a>
</g>
</g>
<!-- Node2&#45;&gt;Node7 -->
<g id="edge7" class="edge">
<title>Node2&#45;&gt;Node7</title>
<path fill="none" stroke="#191970" d="M390.8125,-123.3906C370.0078,-113.2359 336.989,-97.1196 313.2681,-85.5416"/>
<polygon fill="#191970" stroke="#191970" points="314.5712,-82.283 304.0493,-81.0419 311.5007,-88.5736 314.5712,-82.283"/>
</g>
<!-- Node7&#45;&gt;Node6 -->
<g id="edge13" class="edge">
<title>Node7&#45;&gt;Node6</title>
<path fill="none" stroke="#191970" d="M344.0129,-62.7379C360.9522,-60.3868 379.4358,-57.9569 396.5,-56 574.4281,-35.5956 788.4689,-18.5722 868.8707,-12.4412"/>
<polygon fill="#191970" stroke="#191970" points="869.6046,-15.8957 879.3112,-11.6492 869.0751,-8.9158 869.6046,-15.8957"/>
</g>
<!-- Node8 -->
<g id="node9" class="node">
<title>Node8</title>
<polygon fill="none" stroke="#bfbfbf" points="144.5,-.5 144.5,-19.5 244.5,-19.5 244.5,-.5 144.5,-.5"/>
<text text-anchor="middle" x="194.5" y="-7.5" font-family="Helvetica,sans-Serif" font-size="10.00" fill="#000000">deal.II/base/point.h</text>
</g>
<!-- Node7&#45;&gt;Node8 -->
<g id="edge8" class="edge">
<title>Node7&#45;&gt;Node8</title>
<path fill="none" stroke="#191970" d="M270.4375,-61.8906C256.1714,-52.1421 233.865,-36.8994 217.1128,-25.4521"/>
<polygon fill="#191970" stroke="#191970" points="218.6949,-22.2941 208.4638,-19.5419 214.7455,-28.0736 218.6949,-22.2941"/>
</g>
<!-- Node9 -->
<g id="node10" class="node">
<title>Node9</title>
<polygon fill="none" stroke="#bfbfbf" points="321,-.5 321,-19.5 448,-19.5 448,-.5 321,-.5"/>
<text text-anchor="middle" x="384.5" y="-7.5" font-family="Helvetica,sans-Serif" font-size="10.00" fill="#000000">deal.II/dofs/dof_handler.h</text>
</g>
<!-- Node7&#45;&gt;Node9 -->
<g id="edge9" class="edge">
<title>Node7&#45;&gt;Node9</title>
<path fill="none" stroke="#191970" d="M300.125,-61.8906C316.2698,-51.9616 341.6822,-36.333 360.4023,-24.8201"/>
<polygon fill="#191970" stroke="#191970" points="362.3002,-27.7619 368.9847,-19.5419 358.6331,-21.7992 362.3002,-27.7619"/>
</g>
<!-- Node10 -->
<g id="node11" class="node">
<title>Node10</title>
<polygon fill="none" stroke="#bfbfbf" points="466.5,-.5 466.5,-19.5 582.5,-19.5 582.5,-.5 466.5,-.5"/>
<text text-anchor="middle" x="524.5" y="-7.5" font-family="Helvetica,sans-Serif" font-size="10.00" fill="#000000">deal.II/dofs/dof_tools.h</text>
</g>
<!-- Node7&#45;&gt;Node10 -->
<g id="edge10" class="edge">
<title>Node7&#45;&gt;Node10</title>
<path fill="none" stroke="#191970" d="M321.7367,-61.9581C363.5994,-51.2308 431.6628,-33.7895 477.2415,-22.11"/>
<polygon fill="#191970" stroke="#191970" points="478.3578,-25.4371 487.176,-19.5643 476.6201,-18.6562 478.3578,-25.4371"/>
</g>
<!-- Node11 -->
<g id="node12" class="node">
<title>Node11</title>
<polygon fill="none" stroke="#bfbfbf" points="23,-.5 23,-19.5 126,-19.5 126,-.5 23,-.5"/>
<text text-anchor="middle" x="74.5" y="-7.5" font-family="Helvetica,sans-Serif" font-size="10.00" fill="#000000">deal.II/fe/mapping.h</text>
</g>
<!-- Node7&#45;&gt;Node11 -->
<g id="edge11" class="edge">
<title>Node7&#45;&gt;Node11</title>
<path fill="none" stroke="#191970" d="M251.6875,-61.8906C215.3178,-51.2395 156.5522,-34.0296 116.7637,-22.3772"/>
<polygon fill="#191970" stroke="#191970" points="117.6627,-18.9936 107.0821,-19.5419 115.6953,-25.7114 117.6627,-18.9936"/>
</g>
<!-- Node12 -->
<g id="node13" class="node">
<title>Node12</title>
<polygon fill="none" stroke="#bfbfbf" points="262.5,-.5 262.5,-19.5 302.5,-19.5 302.5,-.5 262.5,-.5"/>
<text text-anchor="middle" x="282.5" y="-7.5" font-family="Helvetica,sans-Serif" font-size="10.00" fill="#000000">utility</text>
</g>
<!-- Node7&#45;&gt;Node12 -->
<g id="edge12" class="edge">
<title>Node7&#45;&gt;Node12</title>
<path fill="none" stroke="#191970" d="M284.1875,-61.8906C283.9103,-53.3657 283.4964,-40.6392 283.1479,-29.9235"/>
<polygon fill="#191970" stroke="#191970" points="286.6402,-29.6258 282.8169,-19.7449 279.6439,-29.8534 286.6402,-29.6258"/>
</g>
<!-- Node13&#45;&gt;Node2 -->
<g id="edge15" class="edge">
<title>Node13&#45;&gt;Node2</title>
<path fill="none" stroke="#191970" d="M606.5046,-184.9581C563.2616,-173.495 491.0977,-154.3653 447.439,-142.792"/>
<polygon fill="#191970" stroke="#191970" points="448.081,-139.3414 437.518,-140.1621 446.2873,-146.1077 448.081,-139.3414"/>
</g>
<!-- Node13&#45;&gt;Node14 -->
<g id="edge16" class="edge">
<title>Node13&#45;&gt;Node14</title>
<path fill="none" stroke="#191970" d="M642.5,-184.8906C642.5,-176.3657 642.5,-163.6392 642.5,-152.9235"/>
<polygon fill="#191970" stroke="#191970" points="646.0001,-152.7448 642.5,-142.7449 639.0001,-152.7449 646.0001,-152.7448"/>
</g>
<!-- Node13&#45;&gt;Node19 -->
<g id="edge24" class="edge">
<title>Node13&#45;&gt;Node19</title>
<path fill="none" stroke="#191970" d="M680.7373,-187.2643C745.9533,-174.9235 877.4033,-150.0491 936.9491,-138.7812"/>
<polygon fill="#191970" stroke="#191970" points="937.6924,-142.2027 946.8672,-136.9044 936.3908,-135.3248 937.6924,-142.2027"/>
</g>
<!-- Node14&#45;&gt;Node9 -->
<g id="edge17" class="edge">
<title>Node14&#45;&gt;Node9</title>
<path fill="none" stroke="#191970" d="M603.7223,-128.4127C550.1278,-121.4453 456.913,-106.8743 429.5,-87 409.7872,-72.7083 397.3126,-46.9201 390.6219,-29.1521"/>
<polygon fill="#191970" stroke="#191970" points="393.8644,-27.8208 387.2651,-19.5323 387.2553,-30.1272 393.8644,-27.8208"/>
</g>
<!-- Node14&#45;&gt;Node10 -->
<g id="edge18" class="edge">
<title>Node14&#45;&gt;Node10</title>
<path fill="none" stroke="#191970" d="M603.6359,-124.3786C582.2646,-117.6715 557.0146,-106.1715 541.5,-87 528.4851,-70.9175 524.9121,-46.9891 524.1688,-30.0829"/>
<polygon fill="#191970" stroke="#191970" points="527.6631,-29.6338 524.0251,-19.6831 520.6637,-29.7306 527.6631,-29.6338"/>
</g>
<!-- Node14&#45;&gt;Node11 -->
<g id="edge21" class="edge">
<title>Node14&#45;&gt;Node11</title>
<path fill="none" stroke="#191970" d="M603.8371,-131.5823C512.4266,-127.7929 285.4257,-115.6992 215.5,-87 195.0161,-78.5929 195.404,-67.5288 176.5,-56 155.406,-43.1356 130.0948,-31.6995 109.9636,-23.4478"/>
<polygon fill="#191970" stroke="#191970" points="111.1222,-20.1415 100.5383,-19.6605 108.5123,-26.6367 111.1222,-20.1415"/>
</g>
<!-- Node15 -->
<g id="node16" class="node">
<title>Node15</title>
<polygon fill="none" stroke="#bfbfbf" points="550.5,-62 550.5,-81 624.5,-81 624.5,-62 550.5,-62"/>
<text text-anchor="middle" x="587.5" y="-69" font-family="Helvetica,sans-Serif" font-size="10.00" fill="#000000">deal.II/fe/fe.h</text>
</g>
<!-- Node14&#45;&gt;Node15 -->
<g id="edge19" class="edge">
<title>Node14&#45;&gt;Node15</title>
<path fill="none" stroke="#191970" d="M633.9063,-123.3906C625.6403,-114.1478 612.9574,-99.966 602.9383,-88.7628"/>
<polygon fill="#191970" stroke="#191970" points="605.49,-86.3657 596.2149,-81.2449 600.2722,-91.0321 605.49,-86.3657"/>
</g>
<!-- Node16 -->
<g id="node17" class="node">
<title>Node16</title>
<polygon fill="none" stroke="#bfbfbf" points="642.5,-62 642.5,-81 754.5,-81 754.5,-62 642.5,-62"/>
<text text-anchor="middle" x="698.5" y="-69" font-family="Helvetica,sans-Serif" font-size="10.00" fill="#000000">deal.II/fe/fe_system.h</text>
</g>
<!-- Node14&#45;&gt;Node16 -->
<g id="edge20" class="edge">
<title>Node14&#45;&gt;Node16</title>
<path fill="none" stroke="#191970" d="M651.25,-123.3906C659.6662,-114.1478 672.5797,-99.966 682.781,-88.7628"/>
<polygon fill="#191970" stroke="#191970" points="685.4818,-90.9953 689.6266,-81.2449 680.306,-86.2824 685.4818,-90.9953"/>
</g>
<!-- Node17 -->
<g id="node18" class="node">
<title>Node17</title>
<polygon fill="none" stroke="#bfbfbf" points="832.5,-62 832.5,-81 886.5,-81 886.5,-62 832.5,-62"/>
<text text-anchor="middle" x="859.5" y="-69" font-family="Helvetica,sans-Serif" font-size="10.00" fill="#000000">iostream</text>
</g>
<!-- Node14&#45;&gt;Node17 -->
<g id="edge22" class="edge">
<title>Node14&#45;&gt;Node17</title>
<path fill="none" stroke="#191970" d="M681.2479,-124.8259C718.0261,-116.663 774.6396,-103.0441 822.5,-87 824.5924,-86.2986 826.7338,-85.5333 828.8798,-84.7307"/>
<polygon fill="#191970" stroke="#191970" points="830.1674,-87.9854 838.1818,-81.0558 827.5953,-81.475 830.1674,-87.9854"/>
</g>
<!-- Node18 -->
<g id="node19" class="node">
<title>Node18</title>
<polygon fill="none" stroke="#bfbfbf" points="773,-62 773,-81 814,-81 814,-62 773,-62"/>
<text text-anchor="middle" x="793.5" y="-69" font-family="Helvetica,sans-Serif" font-size="10.00" fill="#000000">string</text>
</g>
<!-- Node14&#45;&gt;Node18 -->
<g id="edge23" class="edge">
<title>Node14&#45;&gt;Node18</title>
<path fill="none" stroke="#191970" d="M670.254,-123.4631C695.0164,-114.7155 732.1049,-101.0237 763.5,-87 764.517,-86.5457 765.5483,-86.0735 766.5862,-85.5885"/>
<polygon fill="#191970" stroke="#191970" points="768.4618,-88.5667 775.8958,-81.0178 765.3768,-82.2832 768.4618,-88.5667"/>
</g>
<!-- Node19&#45;&gt;Node4 -->
<g id="edge26" class="edge">
<title>Node19&#45;&gt;Node4</title>
<path fill="none" stroke="#191970" d="M946.5723,-131.4581C884.5162,-126.7321 696.1935,-111.2793 541.5,-87 529.4105,-85.1025 516.3195,-82.5659 504.5098,-80.095"/>
<polygon fill="#191970" stroke="#191970" points="505.0298,-76.6271 494.5189,-77.9582 503.5657,-83.4723 505.0298,-76.6271"/>
</g>
<!-- Node19&#45;&gt;Node6 -->
<g id="edge32" class="edge">
<title>Node19&#45;&gt;Node6</title>
<path fill="none" stroke="#191970" d="M988.2456,-132.0832C1047.3471,-128.7504 1209.2761,-114.2024 1160.5,-56 1131.9386,-21.9189 996.9627,-13.0703 933.994,-10.7869"/>
<polygon fill="#191970" stroke="#191970" points="933.9326,-7.2831 923.8231,-10.4529 933.7028,-14.2793 933.9326,-7.2831"/>
</g>
<!-- Node19&#45;&gt;Node17 -->
<g id="edge30" class="edge">
<title>Node19&#45;&gt;Node17</title>
<path fill="none" stroke="#191970" d="M950.625,-123.3906C933.0302,-113.3713 905.2434,-97.5483 884.9759,-86.0071"/>
<polygon fill="#191970" stroke="#191970" points="886.6783,-82.9489 876.2565,-81.0419 883.2144,-89.0318 886.6783,-82.9489"/>
</g>
<!-- Node20 -->
<g id="node21" class="node">
<title>Node20</title>
<polygon fill="none" stroke="#bfbfbf" points="1207.5,-62 1207.5,-81 1333.5,-81 1333.5,-62 1207.5,-62"/>
<text text-anchor="middle" x="1270.5" y="-69" font-family="Helvetica,sans-Serif" font-size="10.00" fill="#000000">deal.II/base/exceptions.h</text>
</g>
<!-- Node19&#45;&gt;Node20 -->
<g id="edge25" class="edge">
<title>Node19&#45;&gt;Node20</title>
<path fill="none" stroke="#191970" d="M988.3264,-128.7729C1034.1731,-119.4673 1145.1732,-96.9376 1213.494,-83.0705"/>
<polygon fill="#191970" stroke="#191970" points="1214.5597,-86.4257 1223.6637,-81.0064 1213.1673,-79.5655 1214.5597,-86.4257"/>
</g>
<!-- Node21 -->
<g id="node22" class="node">
<title>Node21</title>
<polygon fill="none" stroke="#bfbfbf" points="1035.5,-62 1035.5,-81 1073.5,-81 1073.5,-62 1035.5,-62"/>
<text text-anchor="middle" x="1054.5" y="-69" font-family="Helvetica,sans-Serif" font-size="10.00" fill="#000000">array</text>
</g>
<!-- Node19&#45;&gt;Node21 -->
<g id="edge27" class="edge">
<title>Node19&#45;&gt;Node21</title>
<path fill="none" stroke="#191970" d="M981.0938,-123.3906C994.8843,-113.6421 1016.4472,-98.3994 1032.641,-86.9521"/>
<polygon fill="#191970" stroke="#191970" points="1034.8563,-89.6723 1041.0017,-81.0419 1030.8156,-83.9563 1034.8563,-89.6723"/>
</g>
<!-- Node22 -->
<g id="node23" class="node">
<title>Node22</title>
<polygon fill="none" stroke="#bfbfbf" points="1092,-62 1092,-81 1151,-81 1151,-62 1092,-62"/>
<text text-anchor="middle" x="1121.5" y="-69" font-family="Helvetica,sans-Serif" font-size="10.00" fill="#000000">exception</text>
</g>
<!-- Node19&#45;&gt;Node22 -->
<g id="edge28" class="edge">
<title>Node19&#45;&gt;Node22</title>
<path fill="none" stroke="#191970" d="M988.2691,-124.7058C1013.9018,-114.4694 1057.8141,-96.933 1088.1814,-84.8058"/>
<polygon fill="#191970" stroke="#191970" points="1089.5359,-88.0337 1097.5247,-81.0746 1086.9398,-81.5329 1089.5359,-88.0337"/>
</g>
<!-- Node23 -->
<g id="node24" class="node">
<title>Node23</title>
<polygon fill="none" stroke="#bfbfbf" points="905,-62 905,-81 964,-81 964,-62 905,-62"/>
<text text-anchor="middle" x="934.5" y="-69" font-family="Helvetica,sans-Serif" font-size="10.00" fill="#000000">functional</text>
</g>
<!-- Node19&#45;&gt;Node23 -->
<g id="edge29" class="edge">
<title>Node19&#45;&gt;Node23</title>
<path fill="none" stroke="#191970" d="M962.3438,-123.3906C957.5768,-114.5068 950.3615,-101.0601 944.4703,-90.0811"/>
<polygon fill="#191970" stroke="#191970" points="947.5412,-88.4016 939.7289,-81.2449 941.3731,-91.7114 947.5412,-88.4016"/>
</g>
<!-- Node24 -->
<g id="node25" class="node">
<title>Node24</title>
<polygon fill="none" stroke="#bfbfbf" points="982,-62 982,-81 1017,-81 1017,-62 982,-62"/>
<text text-anchor="middle" x="999.5" y="-69" font-family="Helvetica,sans-Serif" font-size="10.00" fill="#000000">new</text>
</g>
<!-- Node19&#45;&gt;Node24 -->
<g id="edge31" class="edge">
<title>Node19&#45;&gt;Node24</title>
<path fill="none" stroke="#191970" d="M972.5,-123.3906C977.0758,-114.5965 983.9781,-101.3312 989.6583,-90.4145"/>
<polygon fill="#191970" stroke="#191970" points="992.9185,-91.7314 994.4295,-81.2449 986.7088,-88.5003 992.9185,-91.7314"/>
</g>
<!-- Node25&#45;&gt;Node6 -->
<g id="edge38" class="edge">
<title>Node25&#45;&gt;Node6</title>
<path fill="none" stroke="#191970" d="M1536.9926,-179.4979C1500.1573,-159.7438 1434.4714,-123.2535 1381.5,-87 1363.2276,-74.4944 1362.9981,-64.3725 1342.5,-56 1268.2003,-25.6523 1022.3454,-14.2235 933.7107,-11.0282"/>
<polygon fill="#191970" stroke="#191970" points="933.8192,-7.53 923.7031,-10.6786 933.5747,-14.5257 933.8192,-7.53"/>
</g>
<!-- Node26 -->
<g id="node27" class="node">
<title>Node26</title>
<polygon fill="none" stroke="#bfbfbf" points="1832.5,-123.5 1832.5,-142.5 1872.5,-142.5 1872.5,-123.5 1832.5,-123.5"/>
<text text-anchor="middle" x="1852.5" y="-130.5" font-family="Helvetica,sans-Serif" font-size="10.00" fill="#000000">limits</text>
</g>
<!-- Node25&#45;&gt;Node26 -->
<g id="edge36" class="edge">
<title>Node25&#45;&gt;Node26</title>
<path fill="none" stroke="#191970" d="M1613.0237,-186.9948C1662.991,-178.6645 1743.9923,-163.9186 1822.2971,-143.0563"/>
<polygon fill="#191970" stroke="#191970" points="1823.5862,-146.3336 1832.3269,-140.346 1821.7601,-139.576 1823.5862,-146.3336"/>
</g>
<!-- Node27 -->
<g id="node28" class="node">
<title>Node27</title>
<polygon fill="none" stroke="#bfbfbf" points="1891,-123.5 1891,-142.5 1926,-142.5 1926,-123.5 1891,-123.5"/>
<text text-anchor="middle" x="1908.5" y="-130.5" font-family="Helvetica,sans-Serif" font-size="10.00" fill="#000000">map</text>
</g>
<!-- Node25&#45;&gt;Node27 -->
<g id="edge37" class="edge">
<title>Node25&#45;&gt;Node27</title>
<path fill="none" stroke="#191970" d="M1613.2113,-189.6327C1673.6589,-182.8279 1781.0118,-168.6141 1881.2609,-142.6126"/>
<polygon fill="#191970" stroke="#191970" points="1882.1622,-145.9947 1890.9385,-140.0594 1880.3764,-139.2263 1882.1622,-145.9947"/>
</g>
<!-- Node28 -->
<g id="node29" class="node">
<title>Node28</title>
<g id="a_node29"><a xlink:href="general__exceptions_8h.html" target="_top" xlink:title="Definition of self&#45;defined general exceptions. ">
<polygon fill="none" stroke="#000000" points="1220,-123.5 1220,-142.5 1329,-142.5 1329,-123.5 1220,-123.5"/>
<text text-anchor="middle" x="1274.5" y="-130.5" font-family="Helvetica,sans-Serif" font-size="10.00" fill="#000000">general_exceptions.h</text>
</a>
</g>
</g>
<!-- Node25&#45;&gt;Node28 -->
<g id="edge39" class="edge">
<title>Node25&#45;&gt;Node28</title>
<path fill="none" stroke="#191970" d="M1517.7731,-184.4134C1466.1631,-173.5061 1384.0064,-156.1431 1329.6657,-144.6587"/>
<polygon fill="#191970" stroke="#191970" points="1330.364,-141.2291 1319.8564,-142.5856 1328.9166,-148.0778 1330.364,-141.2291"/>
</g>
<!-- Node29 -->
<g id="node30" class="node">
<title>Node29</title>
<g id="a_node30"><a xlink:href="lapack__helpers_8h.html" target="_top" xlink:title="Exposes LAPACK helper functions defined in lapack_full_matrix.cc and define new ones by following the...">
<polygon fill="none" stroke="#000000" points="1724.5,-123.5 1724.5,-142.5 1814.5,-142.5 1814.5,-123.5 1724.5,-123.5"/>
<text text-anchor="middle" x="1769.5" y="-130.5" font-family="Helvetica,sans-Serif" font-size="10.00" fill="#000000">lapack_helpers.h</text>
</a>
</g>
</g>
<!-- Node25&#45;&gt;Node29 -->
<g id="edge41" class="edge">
<title>Node25&#45;&gt;Node29</title>
<path fill="none" stroke="#191970" d="M1613.0715,-180.1586C1647.8548,-169.6724 1694.5807,-155.586 1727.8854,-145.5456"/>
<polygon fill="#191970" stroke="#191970" points="1729.1982,-148.8055 1737.7623,-142.568 1727.1777,-142.1034 1729.1982,-148.8055"/>
</g>
<!-- Node28&#45;&gt;Node20 -->
<g id="edge40" class="edge">
<title>Node28&#45;&gt;Node20</title>
<path fill="none" stroke="#191970" d="M1273.875,-123.3906C1273.3205,-114.8657 1272.4928,-102.1392 1271.7958,-91.4235"/>
<polygon fill="#191970" stroke="#191970" points="1275.2756,-90.9966 1271.1338,-81.2449 1268.2903,-91.451 1275.2756,-90.9966"/>
</g>
<!-- Node30 -->
<g id="node31" class="node">
<title>Node30</title>
<polygon fill="none" stroke="#bfbfbf" points="1954.5,-62 1954.5,-81 2070.5,-81 2070.5,-62 1954.5,-62"/>
<text text-anchor="middle" x="2012.5" y="-69" font-family="Helvetica,sans-Serif" font-size="10.00" fill="#000000">deal.II/base/numbers.h</text>
</g>
<!-- Node29&#45;&gt;Node30 -->
<g id="edge42" class="edge">
<title>Node29&#45;&gt;Node30</title>
<path fill="none" stroke="#191970" d="M1807.2021,-123.4581C1849.6772,-112.7082 1918.792,-95.2162 1964.9413,-83.5365"/>
<polygon fill="#191970" stroke="#191970" points="1965.8738,-86.9109 1974.7094,-81.0643 1964.1563,-80.1248 1965.8738,-86.9109"/>
</g>
<!-- Node31 -->
<g id="node32" class="node">
<title>Node31</title>
<polygon fill="none" stroke="#bfbfbf" points="2088.5,-56.5 2088.5,-86.5 2216.5,-86.5 2216.5,-56.5 2088.5,-56.5"/>
<text text-anchor="start" x="2096.5" y="-74.5" font-family="Helvetica,sans-Serif" font-size="10.00" fill="#000000">deal.II/lac/blas_extension</text>
<text text-anchor="middle" x="2152.5" y="-63.5" font-family="Helvetica,sans-Serif" font-size="10.00" fill="#000000">_templates.h</text>
</g>
<!-- Node29&#45;&gt;Node31 -->
<g id="edge43" class="edge">
<title>Node29&#45;&gt;Node31</title>
<path fill="none" stroke="#191970" d="M1814.5557,-124.5052C1817.5802,-123.9816 1820.5828,-123.475 1823.5,-123 1933.6922,-105.0578 1964.6119,-106.8243 2078.2995,-87.1386"/>
<polygon fill="#191970" stroke="#191970" points="2079.2079,-90.5329 2088.455,-85.3617 2078.0014,-83.6377 2079.2079,-90.5329"/>
</g>
<!-- Node32 -->
<g id="node33" class="node">
<title>Node32</title>
<polygon fill="none" stroke="#bfbfbf" points="2234.5,-62 2234.5,-81 2360.5,-81 2360.5,-62 2234.5,-62"/>
<text text-anchor="middle" x="2297.5" y="-69" font-family="Helvetica,sans-Serif" font-size="10.00" fill="#000000">deal.II/lac/block_vector.h</text>
</g>
<!-- Node29&#45;&gt;Node32 -->
<g id="edge44" class="edge">
<title>Node29&#45;&gt;Node32</title>
<path fill="none" stroke="#191970" d="M1814.5302,-124.3345C1817.5608,-123.8521 1820.5717,-123.4014 1823.5,-123 2001.2201,-98.6415 2048.1508,-113.9267 2225.5,-87 2232.6266,-85.918 2240.1061,-84.5608 2247.4374,-83.1022"/>
<polygon fill="#191970" stroke="#191970" points="2248.2101,-86.5166 2257.2957,-81.0666 2246.7945,-79.6612 2248.2101,-86.5166"/>
</g>
<!-- Node33 -->
<g id="node34" class="node">
<title>Node33</title>
<polygon fill="none" stroke="#bfbfbf" points="2378.5,-62 2378.5,-81 2494.5,-81 2494.5,-62 2378.5,-62"/>
<text text-anchor="middle" x="2436.5" y="-69" font-family="Helvetica,sans-Serif" font-size="10.00" fill="#000000">deal.II/lac/full_matrix.h</text>
</g>
<!-- Node29&#45;&gt;Node33 -->
<g id="edge45" class="edge">
<title>Node29&#45;&gt;Node33</title>
<path fill="none" stroke="#191970" d="M1814.5197,-124.2548C1817.5529,-123.7917 1820.5672,-123.367 1823.5,-123 2064.812,-92.8066 2128.9148,-122.5225 2369.5,-87 2376.2452,-86.0041 2383.3153,-84.6811 2390.2296,-83.2266"/>
<polygon fill="#191970" stroke="#191970" points="2391.1837,-86.6003 2400.1924,-81.0242 2389.6727,-79.7653 2391.1837,-86.6003"/>
</g>
<!-- Node34 -->
<g id="node35" class="node">
<title>Node34</title>
<polygon fill="none" stroke="#bfbfbf" points="2513,-56.5 2513,-86.5 2604,-86.5 2604,-56.5 2513,-56.5"/>
<text text-anchor="start" x="2521" y="-74.5" font-family="Helvetica,sans-Serif" font-size="10.00" fill="#000000">deal.II/lac/lapack</text>
<text text-anchor="middle" x="2558.5" y="-63.5" font-family="Helvetica,sans-Serif" font-size="10.00" fill="#000000">_full_matrix.h</text>
</g>
<!-- Node29&#45;&gt;Node34 -->
<g id="edge46" class="edge">
<title>Node29&#45;&gt;Node34</title>
<path fill="none" stroke="#191970" d="M1814.5143,-124.2108C1817.5488,-123.7583 1820.5649,-123.348 1823.5,-123 2120.6656,-87.7704 2203.0612,-135.2604 2502.4691,-86.8964"/>
<polygon fill="#191970" stroke="#191970" points="2503.4532,-90.2819 2512.7557,-85.2111 2502.3214,-83.374 2503.4532,-90.2819"/>
</g>
<!-- Node35 -->
<g id="node36" class="node">
<title>Node35</title>
<polygon fill="none" stroke="#bfbfbf" points="1390,-56.5 1390,-86.5 1481,-86.5 1481,-56.5 1390,-56.5"/>
<text text-anchor="start" x="1398" y="-74.5" font-family="Helvetica,sans-Serif" font-size="10.00" fill="#000000">deal.II/lac/lapack</text>
<text text-anchor="middle" x="1435.5" y="-63.5" font-family="Helvetica,sans-Serif" font-size="10.00" fill="#000000">_support.h</text>
</g>
<!-- Node29&#45;&gt;Node35 -->
<g id="edge47" class="edge">
<title>Node29&#45;&gt;Node35</title>
<path fill="none" stroke="#191970" d="M1724.2645,-127.1206C1670.8345,-119.8272 1579.1301,-106.2176 1490.9224,-86.9412"/>
<polygon fill="#191970" stroke="#191970" points="1491.5394,-83.4932 1481.0194,-84.7495 1490.0268,-90.3278 1491.5394,-83.4932"/>
</g>
<!-- Node36 -->
<g id="node37" class="node">
<title>Node36</title>
<polygon fill="none" stroke="#bfbfbf" points="1499,-56.5 1499,-86.5 1590,-86.5 1590,-56.5 1499,-56.5"/>
<text text-anchor="start" x="1507" y="-74.5" font-family="Helvetica,sans-Serif" font-size="10.00" fill="#000000">deal.II/lac/lapack</text>
<text text-anchor="middle" x="1544.5" y="-63.5" font-family="Helvetica,sans-Serif" font-size="10.00" fill="#000000">_templates.h</text>
</g>
<!-- Node29&#45;&gt;Node36 -->
<g id="edge48" class="edge">
<title>Node29&#45;&gt;Node36</title>
<path fill="none" stroke="#191970" d="M1733.652,-123.4164C1701.244,-114.7264 1651.9698,-101.4502 1599.8666,-87.0866"/>
<polygon fill="#191970" stroke="#191970" points="1600.6791,-83.68 1590.1083,-84.3928 1598.8164,-90.4276 1600.6791,-83.68"/>
</g>
<!-- Node37 -->
<g id="node38" class="node">
<title>Node37</title>
<polygon fill="none" stroke="#bfbfbf" points="1608.5,-56.5 1608.5,-86.5 1700.5,-86.5 1700.5,-56.5 1608.5,-56.5"/>
<text text-anchor="start" x="1616.5" y="-74.5" font-family="Helvetica,sans-Serif" font-size="10.00" fill="#000000">deal.II/lac/sparse</text>
<text text-anchor="middle" x="1654.5" y="-63.5" font-family="Helvetica,sans-Serif" font-size="10.00" fill="#000000">_matrix.h</text>
</g>
<!-- Node29&#45;&gt;Node37 -->
<g id="edge49" class="edge">
<title>Node29&#45;&gt;Node37</title>
<path fill="none" stroke="#191970" d="M1751.5313,-123.3906C1735.5351,-114.8361 1711.6277,-102.0509 1691.547,-91.3121"/>
<polygon fill="#191970" stroke="#191970" points="1693.101,-88.1741 1682.6322,-86.5446 1689.7998,-94.3469 1693.101,-88.1741"/>
</g>
<!-- Node38 -->
<g id="node39" class="node">
<title>Node38</title>
<polygon fill="none" stroke="#bfbfbf" points="1719,-62 1719,-81 1820,-81 1820,-62 1719,-62"/>
<text text-anchor="middle" x="1769.5" y="-69" font-family="Helvetica,sans-Serif" font-size="10.00" fill="#000000">deal.II/lac/utilities.h</text>
</g>
<!-- Node29&#45;&gt;Node38 -->
<g id="edge50" class="edge">
<title>Node29&#45;&gt;Node38</title>
<path fill="none" stroke="#191970" d="M1769.5,-123.3906C1769.5,-114.8657 1769.5,-102.1392 1769.5,-91.4235"/>
<polygon fill="#191970" stroke="#191970" points="1773.0001,-91.2448 1769.5,-81.2449 1766.0001,-91.2449 1773.0001,-91.2448"/>
</g>
<!-- Node39 -->
<g id="node40" class="node">
<title>Node39</title>
<polygon fill="none" stroke="#bfbfbf" points="1838.5,-62 1838.5,-81 1936.5,-81 1936.5,-62 1838.5,-62"/>
<text text-anchor="middle" x="1887.5" y="-69" font-family="Helvetica,sans-Serif" font-size="10.00" fill="#000000">deal.II/lac/vector.h</text>
</g>
<!-- Node29&#45;&gt;Node39 -->
<g id="edge51" class="edge">
<title>Node29&#45;&gt;Node39</title>
<path fill="none" stroke="#191970" d="M1787.9375,-123.3906C1807.3347,-113.2811 1838.069,-97.2628 1860.2617,-85.6962"/>
<polygon fill="#191970" stroke="#191970" points="1861.9418,-88.7675 1869.192,-81.0419 1858.7064,-82.56 1861.9418,-88.7675"/>
</g>
</g>
</svg>
