<?xml version="1.0" encoding="UTF-8" standalone="no"?>
<!DOCTYPE svg PUBLIC "-//W3C//DTD SVG 1.1//EN"
 "http://www.w3.org/Graphics/SVG/1.1/DTD/svg11.dtd">
<!-- Generated by graphviz version 2.40.1 (20161225.0304)
 -->
<!-- Title: /home/jihuan/Projects/deal.ii/program/dealii&#45;9.1.1/examples/laplace&#45;bem/tests/block&#45;cluster&#45;tree/block&#45;cluster&#45;tree.cc Pages: 1 -->
<svg width="3344pt" height="452pt"
 viewBox="0.00 0.00 3343.50 452.00" xmlns="http://www.w3.org/2000/svg" xmlns:xlink="http://www.w3.org/1999/xlink">
<g id="graph0" class="graph" transform="scale(1 1) rotate(0) translate(4 448)">
<title>/home/jihuan/Projects/deal.ii/program/dealii&#45;9.1.1/examples/laplace&#45;bem/tests/block&#45;cluster&#45;tree/block&#45;cluster&#45;tree.cc</title>
<!-- Node0 -->
<g id="node1" class="node">
<title>Node0</title>
<polygon fill="#bfbfbf" stroke="#000000" points="740,-380.5 740,-443.5 868,-443.5 868,-380.5 740,-380.5"/>
<text text-anchor="start" x="748" y="-431.5" font-family="Helvetica,sans-Serif" font-size="10.00" fill="#000000">/home/jihuan/Projects</text>
<text text-anchor="start" x="748" y="-420.5" font-family="Helvetica,sans-Serif" font-size="10.00" fill="#000000">/deal.ii/program/dealii</text>
<text text-anchor="start" x="748" y="-409.5" font-family="Helvetica,sans-Serif" font-size="10.00" fill="#000000">&#45;9.1.1/examples/laplace</text>
<text text-anchor="start" x="748" y="-398.5" font-family="Helvetica,sans-Serif" font-size="10.00" fill="#000000">&#45;bem/tests/block&#45;cluster</text>
<text text-anchor="middle" x="804" y="-387.5" font-family="Helvetica,sans-Serif" font-size="10.00" fill="#000000">&#45;tree/block&#45;cluster&#45;tree.cc</text>
</g>
<!-- Node1 -->
<g id="node2" class="node">
<title>Node1</title>
<polygon fill="none" stroke="#bfbfbf" points="0,-319 0,-338 122,-338 122,-319 0,-319"/>
<text text-anchor="middle" x="61" y="-326" font-family="Helvetica,sans-Serif" font-size="10.00" fill="#000000">deal.II/base/logstream.h</text>
</g>
<!-- Node0&#45;&gt;Node1 -->
<g id="edge1" class="edge">
<title>Node0&#45;&gt;Node1</title>
<path fill="none" stroke="#191970" d="M739.7047,-407.655C620.2871,-399.0974 356.3516,-377.8941 136,-344 128.5987,-342.8615 120.824,-341.4738 113.1983,-340.0016"/>
<polygon fill="#191970" stroke="#191970" points="113.7944,-336.5516 103.3034,-338.0313 112.4274,-343.4169 113.7944,-336.5516"/>
</g>
<!-- Node2 -->
<g id="node3" class="node">
<title>Node2</title>
<polygon fill="none" stroke="#bfbfbf" points="598,-6 598,-25 698,-25 698,-6 598,-6"/>
<text text-anchor="middle" x="648" y="-13" font-family="Helvetica,sans-Serif" font-size="10.00" fill="#000000">deal.II/base/point.h</text>
</g>
<!-- Node0&#45;&gt;Node2 -->
<g id="edge2" class="edge">
<title>Node0&#45;&gt;Node2</title>
<path fill="none" stroke="#191970" d="M804.6288,-380.2915C803.5333,-359.3939 799.082,-332.4055 785,-313 668.981,-153.1219 496.3632,-268.1431 396,-98 388.9999,-86.133 387.2874,-77.6732 396,-67 419.7702,-37.8806 521.2653,-24.7881 587.9737,-19.2365"/>
<polygon fill="#191970" stroke="#191970" points="588.2669,-22.7243 597.9568,-18.44 587.7101,-15.7465 588.2669,-22.7243"/>
</g>
<!-- Node3 -->
<g id="node4" class="node">
<title>Node3</title>
<polygon fill="none" stroke="#bfbfbf" points="178.5,-319 178.5,-338 263.5,-338 263.5,-319 178.5,-319"/>
<text text-anchor="middle" x="221" y="-326" font-family="Helvetica,sans-Serif" font-size="10.00" fill="#000000">deal.II/fe/fe_q.h</text>
</g>
<!-- Node0&#45;&gt;Node3 -->
<g id="edge3" class="edge">
<title>Node0&#45;&gt;Node3</title>
<path fill="none" stroke="#191970" d="M739.95,-407.3081C639.4219,-399.1626 438.8413,-379.7512 272,-344 267.8263,-343.1057 263.501,-342.0304 259.2142,-340.8685"/>
<polygon fill="#191970" stroke="#191970" points="259.9484,-337.438 249.3709,-338.0443 258.0178,-344.1665 259.9484,-337.438"/>
</g>
<!-- Node4 -->
<g id="node5" class="node">
<title>Node4</title>
<polygon fill="none" stroke="#bfbfbf" points="281.5,-313.5 281.5,-343.5 376.5,-343.5 376.5,-313.5 281.5,-313.5"/>
<text text-anchor="start" x="289.5" y="-331.5" font-family="Helvetica,sans-Serif" font-size="10.00" fill="#000000">deal.II/fe/mapping</text>
<text text-anchor="middle" x="329" y="-320.5" font-family="Helvetica,sans-Serif" font-size="10.00" fill="#000000">_q_generic.h</text>
</g>
<!-- Node0&#45;&gt;Node4 -->
<g id="edge4" class="edge">
<title>Node0&#45;&gt;Node4</title>
<path fill="none" stroke="#191970" d="M739.7024,-403.7866C659.2053,-393.0095 516.9958,-372.3407 386.7265,-344.2572"/>
<polygon fill="#191970" stroke="#191970" points="387.0863,-340.7537 376.5707,-342.0473 385.5978,-347.5936 387.0863,-340.7537"/>
</g>
<!-- Node5 -->
<g id="node6" class="node">
<title>Node5</title>
<polygon fill="none" stroke="#bfbfbf" points="394.5,-319 394.5,-338 529.5,-338 529.5,-319 394.5,-319"/>
<text text-anchor="middle" x="462" y="-326" font-family="Helvetica,sans-Serif" font-size="10.00" fill="#000000">deal.II/grid/grid_generator.h</text>
</g>
<!-- Node0&#45;&gt;Node5 -->
<g id="edge5" class="edge">
<title>Node0&#45;&gt;Node5</title>
<path fill="none" stroke="#191970" d="M739.6724,-396.2943C673.2752,-380.0833 571.1524,-355.1498 511.016,-340.4674"/>
<polygon fill="#191970" stroke="#191970" points="511.5605,-336.9976 501.0157,-338.0258 509.9002,-343.7978 511.5605,-336.9976"/>
</g>
<!-- Node6 -->
<g id="node7" class="node">
<title>Node6</title>
<polygon fill="none" stroke="#bfbfbf" points="548,-319 548,-338 650,-338 650,-319 548,-319"/>
<text text-anchor="middle" x="599" y="-326" font-family="Helvetica,sans-Serif" font-size="10.00" fill="#000000">deal.II/grid/grid_in.h</text>
</g>
<!-- Node0&#45;&gt;Node6 -->
<g id="edge6" class="edge">
<title>Node0&#45;&gt;Node6</title>
<path fill="none" stroke="#191970" d="M739.98,-385.9235C704.0937,-371.3065 660.8459,-353.6909 631.7945,-341.8578"/>
<polygon fill="#191970" stroke="#191970" points="633.0992,-338.61 622.5177,-338.0791 630.4586,-345.0929 633.0992,-338.61"/>
</g>
<!-- Node7 -->
<g id="node8" class="node">
<title>Node7</title>
<polygon fill="none" stroke="#bfbfbf" points="668,-319 668,-338 776,-338 776,-319 668,-319"/>
<text text-anchor="middle" x="722" y="-326" font-family="Helvetica,sans-Serif" font-size="10.00" fill="#000000">deal.II/grid/grid_out.h</text>
</g>
<!-- Node0&#45;&gt;Node7 -->
<g id="edge7" class="edge">
<title>Node0&#45;&gt;Node7</title>
<path fill="none" stroke="#191970" d="M772.9993,-380.4322C761.4044,-368.6252 748.6732,-355.6612 738.8315,-345.6394"/>
<polygon fill="#191970" stroke="#191970" points="741.1389,-342.9937 731.635,-338.3112 736.1445,-347.8984 741.1389,-342.9937"/>
</g>
<!-- Node8 -->
<g id="node9" class="node">
<title>Node8</title>
<polygon fill="none" stroke="#bfbfbf" points="405,-73 405,-92 521,-92 521,-73 405,-73"/>
<text text-anchor="middle" x="463" y="-80" font-family="Helvetica,sans-Serif" font-size="10.00" fill="#000000">deal.II/lac/full_matrix.h</text>
</g>
<!-- Node0&#45;&gt;Node8 -->
<g id="edge8" class="edge">
<title>Node0&#45;&gt;Node8</title>
<path fill="none" stroke="#191970" d="M739.9147,-409.2612C587.2223,-402.1599 211.4634,-381.0767 169,-344 142.4483,-320.8165 150,-302.2487 150,-267 150,-267 150,-267 150,-205.5 150,-152.3193 308.4975,-112.541 399.9172,-94.0203"/>
<polygon fill="#191970" stroke="#191970" points="400.7821,-97.4168 409.9038,-92.0275 399.4122,-90.5522 400.7821,-97.4168"/>
</g>
<!-- Node9 -->
<g id="node10" class="node">
<title>Node9</title>
<polygon fill="none" stroke="#bfbfbf" points="539,-73 539,-92 637,-92 637,-73 539,-73"/>
<text text-anchor="middle" x="588" y="-80" font-family="Helvetica,sans-Serif" font-size="10.00" fill="#000000">deal.II/lac/vector.h</text>
</g>
<!-- Node0&#45;&gt;Node9 -->
<g id="edge9" class="edge">
<title>Node0&#45;&gt;Node9</title>
<path fill="none" stroke="#191970" d="M817.2906,-380.3728C828.2487,-351.4082 842,-307.0765 842,-267 842,-267 842,-267 842,-205.5 842,-159.9338 707.913,-115.6496 634.5858,-94.839"/>
<polygon fill="#191970" stroke="#191970" points="635.2359,-91.3865 624.6625,-92.0606 633.3485,-98.1272 635.2359,-91.3865"/>
</g>
<!-- Node10 -->
<g id="node11" class="node">
<title>Node10</title>
<polygon fill="none" stroke="#bfbfbf" points="870,-313.5 870,-343.5 978,-343.5 978,-313.5 870,-313.5"/>
<text text-anchor="start" x="878" y="-331.5" font-family="Helvetica,sans-Serif" font-size="10.00" fill="#000000">deal.II/numerics/data</text>
<text text-anchor="middle" x="924" y="-320.5" font-family="Helvetica,sans-Serif" font-size="10.00" fill="#000000">_out.h</text>
</g>
<!-- Node0&#45;&gt;Node10 -->
<g id="edge10" class="edge">
<title>Node0&#45;&gt;Node10</title>
<path fill="none" stroke="#191970" d="M849.3669,-380.4322C864.2848,-370.0519 880.4879,-358.7771 893.973,-349.3938"/>
<polygon fill="#191970" stroke="#191970" points="896.192,-352.1137 902.4013,-343.5291 892.1938,-346.3678 896.192,-352.1137"/>
</g>
<!-- Node11 -->
<g id="node12" class="node">
<title>Node11</title>
<polygon fill="none" stroke="#bfbfbf" points="996,-319 996,-338 1046,-338 1046,-319 996,-319"/>
<text text-anchor="middle" x="1021" y="-326" font-family="Helvetica,sans-Serif" font-size="10.00" fill="#000000">fstream</text>
</g>
<!-- Node0&#45;&gt;Node11 -->
<g id="edge11" class="edge">
<title>Node0&#45;&gt;Node11</title>
<path fill="none" stroke="#191970" d="M868.3802,-389.3591C903.651,-376.6349 947.9996,-360.1113 987,-344 988.3865,-343.4272 989.8,-342.8314 991.2242,-342.2215"/>
<polygon fill="#191970" stroke="#191970" points="992.8699,-345.321 1000.608,-338.0841 990.0459,-338.916 992.8699,-345.321"/>
</g>
<!-- Node12 -->
<g id="node13" class="node">
<title>Node12</title>
<g id="a_node13"><a xlink:href="block__cluster__tree_8h.html" target="_top" xlink:title="Implementation of the class BlockClusterTree. ">
<polygon fill="none" stroke="#000000" points="2297,-319 2297,-338 2401,-338 2401,-319 2297,-319"/>
<text text-anchor="middle" x="2349" y="-326" font-family="Helvetica,sans-Serif" font-size="10.00" fill="#000000">block_cluster_tree.h</text>
</a>
</g>
</g>
<!-- Node0&#45;&gt;Node12 -->
<g id="edge12" class="edge">
<title>Node0&#45;&gt;Node12</title>
<path fill="none" stroke="#191970" d="M868.4197,-408.5184C1120.5087,-394.8942 2038.3958,-345.2867 2286.7049,-331.8668"/>
<polygon fill="#191970" stroke="#191970" points="2287.1898,-335.3458 2296.9863,-331.3111 2286.812,-328.356 2287.1898,-335.3458"/>
</g>
<!-- Node19 -->
<g id="node20" class="node">
<title>Node19</title>
<g id="a_node20"><a xlink:href="simple__bounding__box_8h_source.html" target="_top" xlink:title="simple_bounding_box.h">
<polygon fill="none" stroke="#000000" points="3008.5,-73 3008.5,-92 3127.5,-92 3127.5,-73 3008.5,-73"/>
<text text-anchor="middle" x="3068" y="-80" font-family="Helvetica,sans-Serif" font-size="10.00" fill="#000000">simple_bounding_box.h</text>
</a>
</g>
</g>
<!-- Node0&#45;&gt;Node19 -->
<g id="edge78" class="edge">
<title>Node0&#45;&gt;Node19</title>
<path fill="none" stroke="#191970" d="M868.232,-411.1244C1226.3129,-405.8322 2960,-374.6508 2960,-267 2960,-267 2960,-267 2960,-205.5 2960,-156.3574 3009.2814,-117.4811 3041.2644,-97.4254"/>
<polygon fill="#191970" stroke="#191970" points="3043.4186,-100.213 3050.166,-92.0445 3039.7974,-94.2224 3043.4186,-100.213"/>
</g>
<!-- Node24 -->
<g id="node25" class="node">
<title>Node24</title>
<g id="a_node25"><a xlink:href="cluster__tree_8h_source.html" target="_top" xlink:title="cluster_tree.h">
<polygon fill="none" stroke="#000000" points="2422,-196 2422,-215 2498,-215 2498,-196 2422,-196"/>
<text text-anchor="middle" x="2460" y="-203" font-family="Helvetica,sans-Serif" font-size="10.00" fill="#000000">cluster_tree.h</text>
</a>
</g>
</g>
<!-- Node0&#45;&gt;Node24 -->
<g id="edge76" class="edge">
<title>Node0&#45;&gt;Node24</title>
<path fill="none" stroke="#191970" d="M868.3549,-410.9113C1159.4656,-405.7788 2341.9212,-382.6199 2410,-344 2440.9863,-326.422 2442.3751,-310.6749 2454,-277 2459.7733,-260.2759 2460.9873,-240.1005 2460.924,-225.4513"/>
<polygon fill="#191970" stroke="#191970" points="2464.4131,-224.9679 2460.6621,-215.0593 2457.4153,-225.1443 2464.4131,-224.9679"/>
</g>
<!-- Node25 -->
<g id="node26" class="node">
<title>Node25</title>
<g id="a_node26"><a xlink:href="debug__tools_8h.html" target="_top" xlink:title="This file includes a bunch of helper functions for printing out and visualizing information about gri...">
<polygon fill="none" stroke="#000000" points="2708.5,-134.5 2708.5,-153.5 2785.5,-153.5 2785.5,-134.5 2708.5,-134.5"/>
<text text-anchor="middle" x="2747" y="-141.5" font-family="Helvetica,sans-Serif" font-size="10.00" fill="#000000">debug_tools.h</text>
</a>
</g>
</g>
<!-- Node0&#45;&gt;Node25 -->
<g id="edge77" class="edge">
<title>Node0&#45;&gt;Node25</title>
<path fill="none" stroke="#191970" d="M868.1372,-411.3384C1152.0679,-408.1392 2288.5275,-392.3934 2440,-344 2563.5273,-304.5347 2684.9998,-201.0951 2729.3557,-160.5977"/>
<polygon fill="#191970" stroke="#191970" points="2731.9773,-162.941 2736.9508,-153.586 2727.229,-157.7977 2731.9773,-162.941"/>
</g>
<!-- Node13 -->
<g id="node14" class="node">
<title>Node13</title>
<g id="a_node14"><a xlink:href="block__cluster_8h.html" target="_top" xlink:title="Implementation of the class BlockCluster. ">
<polygon fill="none" stroke="#000000" points="2342.5,-257.5 2342.5,-276.5 2425.5,-276.5 2425.5,-257.5 2342.5,-257.5"/>
<text text-anchor="middle" x="2384" y="-264.5" font-family="Helvetica,sans-Serif" font-size="10.00" fill="#000000">block_cluster.h</text>
</a>
</g>
</g>
<!-- Node12&#45;&gt;Node13 -->
<g id="edge13" class="edge">
<title>Node12&#45;&gt;Node13</title>
<path fill="none" stroke="#191970" d="M2354.4688,-318.8906C2359.5246,-310.0068 2367.1772,-296.5601 2373.4254,-285.5811"/>
<polygon fill="#191970" stroke="#191970" points="2376.5498,-287.1672 2378.4541,-276.7449 2370.466,-283.7048 2376.5498,-287.1672"/>
</g>
<!-- Node12&#45;&gt;Node24 -->
<g id="edge45" class="edge">
<title>Node12&#45;&gt;Node24</title>
<path fill="none" stroke="#191970" d="M2373.7403,-318.9301C2392.6162,-310.4827 2418.0151,-296.4699 2434,-277 2446.2747,-262.0491 2453.0144,-240.8041 2456.5347,-225.3596"/>
<polygon fill="#191970" stroke="#191970" points="2460.015,-225.8064 2458.5623,-215.3117 2453.1533,-224.4218 2460.015,-225.8064"/>
</g>
<!-- Node12&#45;&gt;Node25 -->
<g id="edge46" class="edge">
<title>Node12&#45;&gt;Node25</title>
<path fill="none" stroke="#191970" d="M2369.5601,-318.969C2435.1994,-288.5407 2639.9391,-193.63 2717.1393,-157.8425"/>
<polygon fill="#191970" stroke="#191970" points="2718.7235,-160.9659 2726.324,-153.5847 2715.7794,-154.6151 2718.7235,-160.9659"/>
</g>
<!-- Node30 -->
<g id="node31" class="node">
<title>Node30</title>
<g id="a_node31"><a xlink:href="tree_8h.html" target="_top" xlink:title="Implementation of the classes for binary tree node, general tree node and functions for manipulating ...">
<polygon fill="none" stroke="#000000" points="2293.5,-134.5 2293.5,-153.5 2334.5,-153.5 2334.5,-134.5 2293.5,-134.5"/>
<text text-anchor="middle" x="2314" y="-141.5" font-family="Helvetica,sans-Serif" font-size="10.00" fill="#000000">tree.h</text>
</a>
</g>
</g>
<!-- Node12&#45;&gt;Node30 -->
<g id="edge75" class="edge">
<title>Node12&#45;&gt;Node30</title>
<path fill="none" stroke="#191970" d="M2345.4607,-318.7534C2341.8549,-308.4895 2336.3331,-291.7965 2333,-277 2324.0701,-237.3573 2318.4949,-190.0744 2315.8442,-163.9102"/>
<polygon fill="#191970" stroke="#191970" points="2319.3101,-163.3894 2314.8581,-153.7754 2312.343,-164.0673 2319.3101,-163.3894"/>
</g>
<!-- Node36 -->
<g id="node37" class="node">
<title>Node36</title>
<g id="a_node37"><a xlink:href="lapack__full__matrix__ext_8h_source.html" target="_top" xlink:title="lapack_full_matrix\l_ext.h">
<polygon fill="none" stroke="#000000" points="1795.5,-190.5 1795.5,-220.5 1890.5,-220.5 1890.5,-190.5 1795.5,-190.5"/>
<text text-anchor="start" x="1803.5" y="-208.5" font-family="Helvetica,sans-Serif" font-size="10.00" fill="#000000">lapack_full_matrix</text>
<text text-anchor="middle" x="1843" y="-197.5" font-family="Helvetica,sans-Serif" font-size="10.00" fill="#000000">_ext.h</text>
</a>
</g>
</g>
<!-- Node12&#45;&gt;Node36 -->
<g id="edge47" class="edge">
<title>Node12&#45;&gt;Node36</title>
<path fill="none" stroke="#191970" d="M2309.7161,-318.9507C2220.9525,-297.3738 2004.5663,-244.774 1900.61,-219.504"/>
<polygon fill="#191970" stroke="#191970" points="1901.1515,-216.0338 1890.6077,-217.0726 1899.498,-222.8357 1901.1515,-216.0338"/>
</g>
<!-- Node14 -->
<g id="node15" class="node">
<title>Node14</title>
<g id="a_node15"><a xlink:href="cluster_8h.html" target="_top" xlink:title="Implementation of the class Cluster. ">
<polygon fill="none" stroke="#000000" points="2440,-134.5 2440,-153.5 2494,-153.5 2494,-134.5 2440,-134.5"/>
<text text-anchor="middle" x="2467" y="-141.5" font-family="Helvetica,sans-Serif" font-size="10.00" fill="#000000">cluster.h</text>
</a>
</g>
</g>
<!-- Node13&#45;&gt;Node14 -->
<g id="edge14" class="edge">
<title>Node13&#45;&gt;Node14</title>
<path fill="none" stroke="#191970" d="M2386.0045,-257.2563C2389.5161,-241.8736 2397.8845,-211.5026 2413,-190 2421.189,-178.3506 2432.9966,-167.8405 2443.4834,-159.817"/>
<polygon fill="#191970" stroke="#191970" points="2445.8606,-162.415 2451.8733,-153.6916 2441.733,-156.7615 2445.8606,-162.415"/>
</g>
<!-- Node13&#45;&gt;Node24 -->
<g id="edge26" class="edge">
<title>Node13&#45;&gt;Node24</title>
<path fill="none" stroke="#191970" d="M2395.875,-257.3906C2407.6297,-247.8786 2425.8486,-233.1357 2439.8672,-221.7917"/>
<polygon fill="#191970" stroke="#191970" points="2442.3856,-224.2562 2447.9576,-215.2449 2437.9822,-218.8146 2442.3856,-224.2562"/>
</g>
<!-- Node15 -->
<g id="node16" class="node">
<title>Node15</title>
<polygon fill="none" stroke="#bfbfbf" points="2053.5,-73 2053.5,-92 2156.5,-92 2156.5,-73 2053.5,-73"/>
<text text-anchor="middle" x="2105" y="-80" font-family="Helvetica,sans-Serif" font-size="10.00" fill="#000000">deal.II/base/types.h</text>
</g>
<!-- Node14&#45;&gt;Node15 -->
<g id="edge15" class="edge">
<title>Node14&#45;&gt;Node15</title>
<path fill="none" stroke="#191970" d="M2439.765,-140.7946C2386.63,-134.3333 2265.537,-118.5873 2165,-98 2159.926,-96.961 2154.6386,-95.7646 2149.3974,-94.5068"/>
<polygon fill="#191970" stroke="#191970" points="2149.9923,-91.0484 2139.4437,-92.0375 2148.3068,-97.8424 2149.9923,-91.0484"/>
</g>
<!-- Node16 -->
<g id="node17" class="node">
<title>Node16</title>
<polygon fill="none" stroke="#bfbfbf" points="2439,-73 2439,-92 2495,-92 2495,-73 2439,-73"/>
<text text-anchor="middle" x="2467" y="-80" font-family="Helvetica,sans-Serif" font-size="10.00" fill="#000000">algorithm</text>
</g>
<!-- Node14&#45;&gt;Node16 -->
<g id="edge16" class="edge">
<title>Node14&#45;&gt;Node16</title>
<path fill="none" stroke="#191970" d="M2467,-134.3906C2467,-125.8657 2467,-113.1392 2467,-102.4235"/>
<polygon fill="#191970" stroke="#191970" points="2470.5001,-102.2448 2467,-92.2449 2463.5001,-102.2449 2470.5001,-102.2448"/>
</g>
<!-- Node17 -->
<g id="node18" class="node">
<title>Node17</title>
<polygon fill="none" stroke="#bfbfbf" points="2623.5,-73 2623.5,-92 2670.5,-92 2670.5,-73 2623.5,-73"/>
<text text-anchor="middle" x="2647" y="-80" font-family="Helvetica,sans-Serif" font-size="10.00" fill="#000000">iterator</text>
</g>
<!-- Node14&#45;&gt;Node17 -->
<g id="edge17" class="edge">
<title>Node14&#45;&gt;Node17</title>
<path fill="none" stroke="#191970" d="M2494.1613,-135.8567C2522.892,-127.0905 2569.4468,-112.4508 2609,-98 2610.8571,-97.3215 2612.7581,-96.608 2614.6717,-95.875"/>
<polygon fill="#191970" stroke="#191970" points="2616.179,-99.043 2624.199,-92.1199 2613.6121,-92.5306 2616.179,-99.043"/>
</g>
<!-- Node18 -->
<g id="node19" class="node">
<title>Node18</title>
<polygon fill="none" stroke="#bfbfbf" points="2003,-6 2003,-25 2047,-25 2047,-6 2003,-6"/>
<text text-anchor="middle" x="2025" y="-13" font-family="Helvetica,sans-Serif" font-size="10.00" fill="#000000">vector</text>
</g>
<!-- Node14&#45;&gt;Node18 -->
<g id="edge18" class="edge">
<title>Node14&#45;&gt;Node18</title>
<path fill="none" stroke="#191970" d="M2494.3124,-140.9136C2520.2712,-136.3683 2557.9464,-125.2144 2576,-98 2583.6164,-86.5188 2585.278,-77.1856 2576,-67 2540.9404,-28.5107 2170.2295,-18.2787 2057.401,-16.0462"/>
<polygon fill="#191970" stroke="#191970" points="2057.3717,-12.5451 2047.307,-15.8544 2057.2387,-19.5438 2057.3717,-12.5451"/>
</g>
<!-- Node14&#45;&gt;Node19 -->
<g id="edge19" class="edge">
<title>Node14&#45;&gt;Node19</title>
<path fill="none" stroke="#191970" d="M2494.0939,-141.9655C2568.6842,-136.2591 2783.3066,-119.1295 2961,-98 2973.0134,-96.5715 2985.7601,-94.8798 2998.1094,-93.1479"/>
<polygon fill="#191970" stroke="#191970" points="2998.9573,-96.5626 3008.3644,-91.6887 2997.971,-89.6324 2998.9573,-96.5626"/>
</g>
<!-- Node19&#45;&gt;Node2 -->
<g id="edge20" class="edge">
<title>Node19&#45;&gt;Node2</title>
<path fill="none" stroke="#191970" d="M3011.5092,-72.9623C2995.2521,-70.5858 2977.4637,-68.3366 2961,-67 2082.412,4.3267 1859.0118,-59.6816 978,-31 883.7287,-27.931 774.3956,-22.4086 708.2544,-18.8515"/>
<polygon fill="#191970" stroke="#191970" points="708.1933,-15.3431 698.0189,-18.2981 707.8154,-22.3329 708.1933,-15.3431"/>
</g>
<!-- Node19&#45;&gt;Node18 -->
<g id="edge25" class="edge">
<title>Node19&#45;&gt;Node18</title>
<path fill="none" stroke="#191970" d="M3008.9682,-72.9902C2993.4013,-70.7454 2976.5958,-68.5555 2961,-67 2608.0533,-31.7966 2177.6576,-19.207 2057.5012,-16.242"/>
<polygon fill="#191970" stroke="#191970" points="2057.2485,-12.7349 2047.1668,-15.992 2057.0792,-19.7329 2057.2485,-12.7349"/>
</g>
<!-- Node20 -->
<g id="node21" class="node">
<title>Node20</title>
<polygon fill="none" stroke="#bfbfbf" points="2894.5,-6 2894.5,-25 3021.5,-25 3021.5,-6 2894.5,-6"/>
<text text-anchor="middle" x="2958" y="-13" font-family="Helvetica,sans-Serif" font-size="10.00" fill="#000000">deal.II/dofs/dof_handler.h</text>
</g>
<!-- Node19&#45;&gt;Node20 -->
<g id="edge21" class="edge">
<title>Node19&#45;&gt;Node20</title>
<path fill="none" stroke="#191970" d="M3052.2397,-72.9005C3034.0243,-61.8057 3003.827,-43.4128 2982.5323,-30.4424"/>
<polygon fill="#191970" stroke="#191970" points="2984.0923,-27.2945 2973.7311,-25.0817 2980.4509,-33.2728 2984.0923,-27.2945"/>
</g>
<!-- Node21 -->
<g id="node22" class="node">
<title>Node21</title>
<polygon fill="none" stroke="#bfbfbf" points="3098,-6 3098,-25 3214,-25 3214,-6 3098,-6"/>
<text text-anchor="middle" x="3156" y="-13" font-family="Helvetica,sans-Serif" font-size="10.00" fill="#000000">deal.II/dofs/dof_tools.h</text>
</g>
<!-- Node19&#45;&gt;Node21 -->
<g id="edge22" class="edge">
<title>Node19&#45;&gt;Node21</title>
<path fill="none" stroke="#191970" d="M3080.6083,-72.9005C3094.8539,-62.0544 3118.2599,-44.2339 3135.2177,-31.3229"/>
<polygon fill="#191970" stroke="#191970" points="3137.5789,-33.9241 3143.4151,-25.0817 3133.3385,-28.3547 3137.5789,-33.9241"/>
</g>
<!-- Node22 -->
<g id="node23" class="node">
<title>Node22</title>
<polygon fill="none" stroke="#bfbfbf" points="3232.5,-6 3232.5,-25 3335.5,-25 3335.5,-6 3232.5,-6"/>
<text text-anchor="middle" x="3284" y="-13" font-family="Helvetica,sans-Serif" font-size="10.00" fill="#000000">deal.II/fe/mapping.h</text>
</g>
<!-- Node19&#45;&gt;Node22 -->
<g id="edge23" class="edge">
<title>Node19&#45;&gt;Node22</title>
<path fill="none" stroke="#191970" d="M3098.9475,-72.9005C3136.9616,-61.1091 3201.5504,-41.0746 3243.4862,-28.0668"/>
<polygon fill="#191970" stroke="#191970" points="3244.5957,-31.3872 3253.1099,-25.0817 3242.5219,-24.7015 3244.5957,-31.3872"/>
</g>
<!-- Node23 -->
<g id="node24" class="node">
<title>Node23</title>
<polygon fill="none" stroke="#bfbfbf" points="3040,-6 3040,-25 3080,-25 3080,-6 3040,-6"/>
<text text-anchor="middle" x="3060" y="-13" font-family="Helvetica,sans-Serif" font-size="10.00" fill="#000000">utility</text>
</g>
<!-- Node19&#45;&gt;Node23 -->
<g id="edge24" class="edge">
<title>Node19&#45;&gt;Node23</title>
<path fill="none" stroke="#191970" d="M3066.8538,-72.9005C3065.6894,-63.149 3063.8519,-47.7597 3062.3725,-35.3695"/>
<polygon fill="#191970" stroke="#191970" points="3065.8051,-34.5961 3061.1441,-25.0817 3058.8545,-35.4261 3065.8051,-34.5961"/>
</g>
<!-- Node24&#45;&gt;Node14 -->
<g id="edge27" class="edge">
<title>Node24&#45;&gt;Node14</title>
<path fill="none" stroke="#191970" d="M2461.0938,-195.8906C2462.0641,-187.3657 2463.5126,-174.6392 2464.7323,-163.9235"/>
<polygon fill="#191970" stroke="#191970" points="2468.2374,-164.0766 2465.8908,-153.7449 2461.2823,-163.2849 2468.2374,-164.0766"/>
</g>
<!-- Node24&#45;&gt;Node25 -->
<g id="edge28" class="edge">
<title>Node24&#45;&gt;Node25</title>
<path fill="none" stroke="#191970" d="M2498.1114,-197.3333C2549.7511,-186.2676 2641.971,-166.5062 2698.4933,-154.3943"/>
<polygon fill="#191970" stroke="#191970" points="2699.2271,-157.8166 2708.2718,-152.2989 2697.7604,-150.972 2699.2271,-157.8166"/>
</g>
<!-- Node24&#45;&gt;Node30 -->
<g id="edge36" class="edge">
<title>Node24&#45;&gt;Node30</title>
<path fill="none" stroke="#191970" d="M2437.1875,-195.8906C2412.1876,-185.3598 2371.9671,-168.4177 2344.3261,-156.7743"/>
<polygon fill="#191970" stroke="#191970" points="2345.3377,-153.4027 2334.7632,-152.7461 2342.6202,-159.8537 2345.3377,-153.4027"/>
</g>
<!-- Node25&#45;&gt;Node20 -->
<g id="edge29" class="edge">
<title>Node25&#45;&gt;Node20</title>
<path fill="none" stroke="#191970" d="M2785.7759,-141.3572C2841.3593,-136.67 2939.3875,-124.7518 2961,-98 2975.2302,-80.386 2970.7532,-53.0903 2965.2395,-34.7721"/>
<polygon fill="#191970" stroke="#191970" points="2968.5134,-33.5268 2962.007,-25.1651 2961.8789,-35.7592 2968.5134,-33.5268"/>
</g>
<!-- Node25&#45;&gt;Node21 -->
<g id="edge30" class="edge">
<title>Node25&#45;&gt;Node21</title>
<path fill="none" stroke="#191970" d="M2785.5323,-141.9503C2878.8289,-136.6401 3111.1112,-121.2114 3137,-98 3154.391,-82.4075 3157.5121,-54.3817 3157.3783,-35.3678"/>
<polygon fill="#191970" stroke="#191970" points="3160.8666,-34.9907 3156.9899,-25.1306 3153.8716,-35.2561 3160.8666,-34.9907"/>
</g>
<!-- Node25&#45;&gt;Node22 -->
<g id="edge33" class="edge">
<title>Node25&#45;&gt;Node22</title>
<path fill="none" stroke="#191970" d="M2785.7973,-141.9887C2874.7179,-137.0067 3090.8168,-122.6789 3159,-98 3200.8088,-82.8673 3242.5364,-51.1409 3265.637,-31.7409"/>
<polygon fill="#191970" stroke="#191970" points="3267.9509,-34.3673 3273.2706,-25.2048 3263.3982,-29.0501 3267.9509,-34.3673"/>
</g>
<!-- Node26 -->
<g id="node27" class="node">
<title>Node26</title>
<polygon fill="none" stroke="#bfbfbf" points="2748,-73 2748,-92 2822,-92 2822,-73 2748,-73"/>
<text text-anchor="middle" x="2785" y="-80" font-family="Helvetica,sans-Serif" font-size="10.00" fill="#000000">deal.II/fe/fe.h</text>
</g>
<!-- Node25&#45;&gt;Node26 -->
<g id="edge31" class="edge">
<title>Node25&#45;&gt;Node26</title>
<path fill="none" stroke="#191970" d="M2752.9375,-134.3906C2758.4267,-125.5068 2766.7353,-112.0601 2773.519,-101.0811"/>
<polygon fill="#191970" stroke="#191970" points="2776.6998,-102.5917 2778.9788,-92.2449 2770.7449,-98.9122 2776.6998,-102.5917"/>
</g>
<!-- Node27 -->
<g id="node28" class="node">
<title>Node27</title>
<polygon fill="none" stroke="#bfbfbf" points="2840,-73 2840,-92 2952,-92 2952,-73 2840,-73"/>
<text text-anchor="middle" x="2896" y="-80" font-family="Helvetica,sans-Serif" font-size="10.00" fill="#000000">deal.II/fe/fe_system.h</text>
</g>
<!-- Node25&#45;&gt;Node27 -->
<g id="edge32" class="edge">
<title>Node25&#45;&gt;Node27</title>
<path fill="none" stroke="#191970" d="M2770.2813,-134.3906C2795.321,-124.0554 2835.3225,-107.5447 2863.466,-95.9284"/>
<polygon fill="#191970" stroke="#191970" points="2864.974,-99.0925 2872.8822,-92.0419 2862.3033,-92.622 2864.974,-99.0925"/>
</g>
<!-- Node28 -->
<g id="node29" class="node">
<title>Node28</title>
<polygon fill="none" stroke="#bfbfbf" points="2513,-73 2513,-92 2567,-92 2567,-73 2513,-73"/>
<text text-anchor="middle" x="2540" y="-80" font-family="Helvetica,sans-Serif" font-size="10.00" fill="#000000">iostream</text>
</g>
<!-- Node25&#45;&gt;Node28 -->
<g id="edge34" class="edge">
<title>Node25&#45;&gt;Node28</title>
<path fill="none" stroke="#191970" d="M2714.6563,-134.3906C2677.313,-123.2959 2616.0167,-105.0847 2576.8599,-93.4511"/>
<polygon fill="#191970" stroke="#191970" points="2577.7507,-90.0646 2567.168,-90.5716 2575.757,-96.7748 2577.7507,-90.0646"/>
</g>
<!-- Node29 -->
<g id="node30" class="node">
<title>Node29</title>
<polygon fill="none" stroke="#bfbfbf" points="2688.5,-73 2688.5,-92 2729.5,-92 2729.5,-73 2688.5,-73"/>
<text text-anchor="middle" x="2709" y="-80" font-family="Helvetica,sans-Serif" font-size="10.00" fill="#000000">string</text>
</g>
<!-- Node25&#45;&gt;Node29 -->
<g id="edge35" class="edge">
<title>Node25&#45;&gt;Node29</title>
<path fill="none" stroke="#191970" d="M2741.0625,-134.3906C2735.5733,-125.5068 2727.2647,-112.0601 2720.481,-101.0811"/>
<polygon fill="#191970" stroke="#191970" points="2723.2551,-98.9122 2715.0212,-92.2449 2717.3002,-102.5917 2723.2551,-98.9122"/>
</g>
<!-- Node30&#45;&gt;Node16 -->
<g id="edge38" class="edge">
<title>Node30&#45;&gt;Node16</title>
<path fill="none" stroke="#191970" d="M2334.7921,-135.7323C2357.8384,-126.5569 2396.1022,-111.2888 2429,-98 2430.6351,-97.3395 2432.3092,-96.6619 2433.9994,-95.9766"/>
<polygon fill="#191970" stroke="#191970" points="2435.7528,-99.042 2443.6985,-92.0337 2433.1166,-92.5574 2435.7528,-99.042"/>
</g>
<!-- Node30&#45;&gt;Node18 -->
<g id="edge44" class="edge">
<title>Node30&#45;&gt;Node18</title>
<path fill="none" stroke="#191970" d="M2293.2862,-143.3512C2236.477,-141.141 2080.0472,-132.0282 2044,-98 2027.0149,-81.9662 2023.7958,-54.047 2023.7969,-35.1774"/>
<polygon fill="#191970" stroke="#191970" points="2027.2999,-35.1295 2024.1045,-25.028 2020.3031,-34.9174 2027.2999,-35.1295"/>
</g>
<!-- Node30&#45;&gt;Node28 -->
<g id="edge42" class="edge">
<title>Node30&#45;&gt;Node28</title>
<path fill="none" stroke="#191970" d="M2334.565,-140.2083C2369.7718,-133.4552 2443.6358,-118.1415 2504,-98 2505.888,-97.37 2507.8146,-96.6817 2509.7463,-95.9565"/>
<polygon fill="#191970" stroke="#191970" points="2511.3163,-99.0977 2519.2919,-92.1235 2508.7079,-92.6018 2511.3163,-99.0977"/>
</g>
<!-- Node31 -->
<g id="node32" class="node">
<title>Node31</title>
<polygon fill="none" stroke="#bfbfbf" points="1833,-73 1833,-92 1959,-92 1959,-73 1833,-73"/>
<text text-anchor="middle" x="1896" y="-80" font-family="Helvetica,sans-Serif" font-size="10.00" fill="#000000">deal.II/base/exceptions.h</text>
</g>
<!-- Node30&#45;&gt;Node31 -->
<g id="edge37" class="edge">
<title>Node30&#45;&gt;Node31</title>
<path fill="none" stroke="#191970" d="M2293.2713,-140.9502C2234.9599,-132.3709 2067.3923,-107.7168 1969.509,-93.3153"/>
<polygon fill="#191970" stroke="#191970" points="1969.7897,-89.819 1959.3867,-91.826 1968.7707,-96.7445 1969.7897,-89.819"/>
</g>
<!-- Node32 -->
<g id="node33" class="node">
<title>Node32</title>
<polygon fill="none" stroke="#bfbfbf" points="2228,-73 2228,-92 2266,-92 2266,-73 2228,-73"/>
<text text-anchor="middle" x="2247" y="-80" font-family="Helvetica,sans-Serif" font-size="10.00" fill="#000000">array</text>
</g>
<!-- Node30&#45;&gt;Node32 -->
<g id="edge39" class="edge">
<title>Node30&#45;&gt;Node32</title>
<path fill="none" stroke="#191970" d="M2303.5313,-134.3906C2293.2663,-124.9683 2277.4097,-110.4134 2265.0994,-99.1137"/>
<polygon fill="#191970" stroke="#191970" points="2267.3501,-96.4287 2257.6163,-92.2449 2262.6166,-101.5856 2267.3501,-96.4287"/>
</g>
<!-- Node33 -->
<g id="node34" class="node">
<title>Node33</title>
<polygon fill="none" stroke="#bfbfbf" points="2284.5,-73 2284.5,-92 2343.5,-92 2343.5,-73 2284.5,-73"/>
<text text-anchor="middle" x="2314" y="-80" font-family="Helvetica,sans-Serif" font-size="10.00" fill="#000000">exception</text>
</g>
<!-- Node30&#45;&gt;Node33 -->
<g id="edge40" class="edge">
<title>Node30&#45;&gt;Node33</title>
<path fill="none" stroke="#191970" d="M2314,-134.3906C2314,-125.8657 2314,-113.1392 2314,-102.4235"/>
<polygon fill="#191970" stroke="#191970" points="2317.5001,-102.2448 2314,-92.2449 2310.5001,-102.2449 2317.5001,-102.2448"/>
</g>
<!-- Node34 -->
<g id="node35" class="node">
<title>Node34</title>
<polygon fill="none" stroke="#bfbfbf" points="2361.5,-73 2361.5,-92 2420.5,-92 2420.5,-73 2361.5,-73"/>
<text text-anchor="middle" x="2391" y="-80" font-family="Helvetica,sans-Serif" font-size="10.00" fill="#000000">functional</text>
</g>
<!-- Node30&#45;&gt;Node34 -->
<g id="edge41" class="edge">
<title>Node30&#45;&gt;Node34</title>
<path fill="none" stroke="#191970" d="M2326.0313,-134.3906C2338.0107,-124.8227 2356.6166,-109.9621 2370.8525,-98.5919"/>
<polygon fill="#191970" stroke="#191970" points="2373.4239,-101.0175 2379.0532,-92.0419 2369.0553,-95.5479 2373.4239,-101.0175"/>
</g>
<!-- Node35 -->
<g id="node36" class="node">
<title>Node35</title>
<polygon fill="none" stroke="#bfbfbf" points="2174.5,-73 2174.5,-92 2209.5,-92 2209.5,-73 2174.5,-73"/>
<text text-anchor="middle" x="2192" y="-80" font-family="Helvetica,sans-Serif" font-size="10.00" fill="#000000">new</text>
</g>
<!-- Node30&#45;&gt;Node35 -->
<g id="edge43" class="edge">
<title>Node30&#45;&gt;Node35</title>
<path fill="none" stroke="#191970" d="M2293.4078,-134.5393C2274.0241,-125.514 2244.2761,-111.3536 2219,-98 2218.3369,-97.6497 2217.6664,-97.2918 2216.9912,-96.9282"/>
<polygon fill="#191970" stroke="#191970" points="2218.6152,-93.8267 2208.1738,-92.0304 2215.2161,-99.946 2218.6152,-93.8267"/>
</g>
<!-- Node36&#45;&gt;Node18 -->
<g id="edge53" class="edge">
<title>Node36&#45;&gt;Node18</title>
<path fill="none" stroke="#191970" d="M1890.6658,-195.0987C1916.0778,-187.4363 1946.2833,-174.6559 1967,-154 2000.5565,-120.542 2015.7016,-64.7677 2021.6629,-35.2387"/>
<polygon fill="#191970" stroke="#191970" points="2025.1222,-35.7802 2023.5172,-25.3077 2018.2411,-34.4954 2025.1222,-35.7802"/>
</g>
<!-- Node36&#45;&gt;Node29 -->
<g id="edge52" class="edge">
<title>Node36&#45;&gt;Node29</title>
<path fill="none" stroke="#191970" d="M1890.5894,-203.212C2021.5618,-196.6883 2385.4075,-176.9768 2503,-154 2583.5629,-138.2585 2603.155,-129.3959 2679,-98 2680.1883,-97.5081 2681.3932,-96.9867 2682.6032,-96.4444"/>
<polygon fill="#191970" stroke="#191970" points="2684.294,-99.515 2691.7858,-92.0234 2681.2574,-93.2079 2684.294,-99.515"/>
</g>
<!-- Node37 -->
<g id="node38" class="node">
<title>Node37</title>
<polygon fill="none" stroke="#bfbfbf" points="2015,-134.5 2015,-153.5 2055,-153.5 2055,-134.5 2015,-134.5"/>
<text text-anchor="middle" x="2035" y="-141.5" font-family="Helvetica,sans-Serif" font-size="10.00" fill="#000000">limits</text>
</g>
<!-- Node36&#45;&gt;Node37 -->
<g id="edge48" class="edge">
<title>Node36&#45;&gt;Node37</title>
<path fill="none" stroke="#191970" d="M1889.9685,-190.4554C1925.8759,-178.9538 1974.2935,-163.445 2005.0863,-153.5817"/>
<polygon fill="#191970" stroke="#191970" points="2006.3542,-156.8509 2014.8099,-150.4671 2004.2188,-150.1845 2006.3542,-156.8509"/>
</g>
<!-- Node38 -->
<g id="node39" class="node">
<title>Node38</title>
<polygon fill="none" stroke="#bfbfbf" points="1703.5,-73 1703.5,-92 1738.5,-92 1738.5,-73 1703.5,-73"/>
<text text-anchor="middle" x="1721" y="-80" font-family="Helvetica,sans-Serif" font-size="10.00" fill="#000000">map</text>
</g>
<!-- Node36&#45;&gt;Node38 -->
<g id="edge49" class="edge">
<title>Node36&#45;&gt;Node38</title>
<path fill="none" stroke="#191970" d="M1795.3549,-197.1192C1770.1438,-190.0622 1741.142,-177.2151 1725,-154 1714.6054,-139.0507 1714.7948,-117.8055 1716.8603,-102.3605"/>
<polygon fill="#191970" stroke="#191970" points="1720.343,-102.7578 1718.5714,-92.3122 1713.4423,-101.5827 1720.343,-102.7578"/>
</g>
<!-- Node39 -->
<g id="node40" class="node">
<title>Node39</title>
<polygon fill="none" stroke="#bfbfbf" points="1566.5,-134.5 1566.5,-153.5 1607.5,-153.5 1607.5,-134.5 1566.5,-134.5"/>
<text text-anchor="middle" x="1587" y="-141.5" font-family="Helvetica,sans-Serif" font-size="10.00" fill="#000000">regex</text>
</g>
<!-- Node36&#45;&gt;Node39 -->
<g id="edge50" class="edge">
<title>Node36&#45;&gt;Node39</title>
<path fill="none" stroke="#191970" d="M1795.4807,-196.0813C1751.6675,-187.0818 1684.6805,-172.5278 1617.4875,-153.9262"/>
<polygon fill="#191970" stroke="#191970" points="1618.1483,-150.4767 1607.575,-151.1525 1616.2619,-157.2178 1618.1483,-150.4767"/>
</g>
<!-- Node40 -->
<g id="node41" class="node">
<title>Node40</title>
<polygon fill="none" stroke="#bfbfbf" points="1626,-134.5 1626,-153.5 1678,-153.5 1678,-134.5 1626,-134.5"/>
<text text-anchor="middle" x="1652" y="-141.5" font-family="Helvetica,sans-Serif" font-size="10.00" fill="#000000">sstream</text>
</g>
<!-- Node36&#45;&gt;Node40 -->
<g id="edge51" class="edge">
<title>Node36&#45;&gt;Node40</title>
<path fill="none" stroke="#191970" d="M1796.2761,-190.4554C1762.9371,-179.7206 1718.757,-165.4951 1688.1093,-155.6268"/>
<polygon fill="#191970" stroke="#191970" points="1688.8611,-152.192 1678.2697,-152.4586 1686.7156,-158.8551 1688.8611,-152.192"/>
</g>
<!-- Node41 -->
<g id="node42" class="node">
<title>Node41</title>
<g id="a_node42"><a xlink:href="general__exceptions_8h.html" target="_top" xlink:title="Definition of self&#45;defined general exceptions. ">
<polygon fill="none" stroke="#000000" points="1849.5,-134.5 1849.5,-153.5 1958.5,-153.5 1958.5,-134.5 1849.5,-134.5"/>
<text text-anchor="middle" x="1904" y="-141.5" font-family="Helvetica,sans-Serif" font-size="10.00" fill="#000000">general_exceptions.h</text>
</a>
</g>
</g>
<!-- Node36&#45;&gt;Node41 -->
<g id="edge54" class="edge">
<title>Node36&#45;&gt;Node41</title>
<path fill="none" stroke="#191970" d="M1858.0787,-190.2977C1866.8989,-181.4052 1878.0541,-170.1586 1887.1612,-160.9769"/>
<polygon fill="#191970" stroke="#191970" points="1889.6759,-163.4116 1894.2331,-153.8469 1884.706,-158.4821 1889.6759,-163.4116"/>
</g>
<!-- Node42 -->
<g id="node43" class="node">
<title>Node42</title>
<g id="a_node43"><a xlink:href="generic__functors_8h.html" target="_top" xlink:title="This header file contains a set of self&#45;defined generic functors. ">
<polygon fill="none" stroke="#000000" points="1734.5,-134.5 1734.5,-153.5 1831.5,-153.5 1831.5,-134.5 1734.5,-134.5"/>
<text text-anchor="middle" x="1783" y="-141.5" font-family="Helvetica,sans-Serif" font-size="10.00" fill="#000000">generic_functors.h</text>
</a>
</g>
</g>
<!-- Node36&#45;&gt;Node42 -->
<g id="edge56" class="edge">
<title>Node36&#45;&gt;Node42</title>
<path fill="none" stroke="#191970" d="M1828.1685,-190.2977C1819.5796,-181.4941 1808.7398,-170.3833 1799.8321,-161.2529"/>
<polygon fill="#191970" stroke="#191970" points="1802.0953,-158.5606 1792.6068,-153.8469 1797.0848,-163.4489 1802.0953,-158.5606"/>
</g>
<!-- Node44 -->
<g id="node45" class="node">
<title>Node44</title>
<g id="a_node45"><a xlink:href="lapack__helpers_8h.html" target="_top" xlink:title="Exposes LAPACK helper functions defined in lapack_full_matrix.cc and define new ones by following the...">
<polygon fill="none" stroke="#000000" points="1031,-134.5 1031,-153.5 1121,-153.5 1121,-134.5 1031,-134.5"/>
<text text-anchor="middle" x="1076" y="-141.5" font-family="Helvetica,sans-Serif" font-size="10.00" fill="#000000">lapack_helpers.h</text>
</a>
</g>
</g>
<!-- Node36&#45;&gt;Node44 -->
<g id="edge62" class="edge">
<title>Node36&#45;&gt;Node44</title>
<path fill="none" stroke="#191970" d="M1795.3105,-201.6761C1660.249,-190.8466 1275.6152,-160.0056 1131.4616,-148.4471"/>
<polygon fill="#191970" stroke="#191970" points="1131.3465,-144.9267 1121.0987,-147.6161 1130.787,-151.9043 1131.3465,-144.9267"/>
</g>
<!-- Node41&#45;&gt;Node31 -->
<g id="edge55" class="edge">
<title>Node41&#45;&gt;Node31</title>
<path fill="none" stroke="#191970" d="M1902.75,-134.3906C1901.6411,-125.8657 1899.9856,-113.1392 1898.5917,-102.4235"/>
<polygon fill="#191970" stroke="#191970" points="1902.0284,-101.7098 1897.2676,-92.2449 1895.0869,-102.6128 1902.0284,-101.7098"/>
</g>
<!-- Node42&#45;&gt;Node15 -->
<g id="edge58" class="edge">
<title>Node42&#45;&gt;Node15</title>
<path fill="none" stroke="#191970" d="M1831.5553,-134.7262C1888.7225,-123.8077 1983.6681,-105.6736 2045.2853,-93.9051"/>
<polygon fill="#191970" stroke="#191970" points="2046.0881,-97.3152 2055.2539,-92.0012 2044.7748,-90.4394 2046.0881,-97.3152"/>
</g>
<!-- Node42&#45;&gt;Node18 -->
<g id="edge61" class="edge">
<title>Node42&#45;&gt;Node18</title>
<path fill="none" stroke="#191970" d="M1785.4034,-134.3121C1789.9964,-117.8742 1801.6149,-84.5955 1824,-67 1850.1099,-46.4766 1942.88,-28.8009 1992.741,-20.5176"/>
<polygon fill="#191970" stroke="#191970" points="1993.3839,-23.9591 2002.69,-18.895 1992.257,-17.0504 1993.3839,-23.9591"/>
</g>
<!-- Node42&#45;&gt;Node31 -->
<g id="edge57" class="edge">
<title>Node42&#45;&gt;Node31</title>
<path fill="none" stroke="#191970" d="M1800.6563,-134.3906C1819.1486,-124.3262 1848.401,-108.4057 1869.6308,-96.8514"/>
<polygon fill="#191970" stroke="#191970" points="1871.3575,-99.8965 1878.4677,-92.0419 1868.0112,-93.7481 1871.3575,-99.8965"/>
</g>
<!-- Node42&#45;&gt;Node38 -->
<g id="edge60" class="edge">
<title>Node42&#45;&gt;Node38</title>
<path fill="none" stroke="#191970" d="M1773.3125,-134.3906C1763.9041,-125.0581 1749.4193,-110.6902 1738.0751,-99.4374"/>
<polygon fill="#191970" stroke="#191970" points="1740.3886,-96.8024 1730.8241,-92.2449 1735.4589,-101.7722 1740.3886,-96.8024"/>
</g>
<!-- Node43 -->
<g id="node44" class="node">
<title>Node43</title>
<polygon fill="none" stroke="#bfbfbf" points="987.5,-.5 987.5,-30.5 1078.5,-30.5 1078.5,-.5 987.5,-.5"/>
<text text-anchor="start" x="995.5" y="-18.5" font-family="Helvetica,sans-Serif" font-size="10.00" fill="#000000">deal.II/lac/lapack</text>
<text text-anchor="middle" x="1033" y="-7.5" font-family="Helvetica,sans-Serif" font-size="10.00" fill="#000000">_support.h</text>
</g>
<!-- Node42&#45;&gt;Node43 -->
<g id="edge59" class="edge">
<title>Node42&#45;&gt;Node43</title>
<path fill="none" stroke="#191970" d="M1781.661,-134.4544C1778.74,-117.6106 1770.0976,-82.8947 1747,-67 1693.2464,-30.0093 1247.1649,-19.0509 1088.6373,-16.3075"/>
<polygon fill="#191970" stroke="#191970" points="1088.6761,-12.8078 1078.6185,-16.1385 1088.558,-19.8068 1088.6761,-12.8078"/>
</g>
<!-- Node44&#45;&gt;Node8 -->
<g id="edge66" class="edge">
<title>Node44&#45;&gt;Node8</title>
<path fill="none" stroke="#191970" d="M1030.7946,-142.3832C936.9633,-138.5467 714.4294,-126.9495 530,-98 523.5756,-96.9916 516.8518,-95.7106 510.247,-94.3186"/>
<polygon fill="#191970" stroke="#191970" points="510.5453,-90.8003 500.026,-92.0633 509.0369,-97.6359 510.5453,-90.8003"/>
</g>
<!-- Node44&#45;&gt;Node9 -->
<g id="edge72" class="edge">
<title>Node44&#45;&gt;Node9</title>
<path fill="none" stroke="#191970" d="M1030.7871,-141.4692C952.0668,-136.5507 784.9537,-123.8391 646,-98 640.8172,-97.0362 635.4183,-95.8483 630.0911,-94.5623"/>
<polygon fill="#191970" stroke="#191970" points="630.5644,-91.0714 620.0105,-92.0017 628.8411,-97.856 630.5644,-91.0714"/>
</g>
<!-- Node44&#45;&gt;Node43 -->
<g id="edge68" class="edge">
<title>Node44&#45;&gt;Node43</title>
<path fill="none" stroke="#191970" d="M1070.1023,-134.461C1064.7138,-125.3804 1056.8662,-111.1826 1052,-98 1045.1108,-79.3372 1040.1952,-57.3469 1037.0921,-40.7647"/>
<polygon fill="#191970" stroke="#191970" points="1040.5062,-39.9724 1035.312,-30.7381 1033.614,-41.196 1040.5062,-39.9724"/>
</g>
<!-- Node45 -->
<g id="node46" class="node">
<title>Node45</title>
<polygon fill="none" stroke="#bfbfbf" points="1061,-73 1061,-92 1177,-92 1177,-73 1061,-73"/>
<text text-anchor="middle" x="1119" y="-80" font-family="Helvetica,sans-Serif" font-size="10.00" fill="#000000">deal.II/base/numbers.h</text>
</g>
<!-- Node44&#45;&gt;Node45 -->
<g id="edge63" class="edge">
<title>Node44&#45;&gt;Node45</title>
<path fill="none" stroke="#191970" d="M1082.7188,-134.3906C1088.993,-125.417 1098.5223,-111.7879 1106.2404,-100.7491"/>
<polygon fill="#191970" stroke="#191970" points="1109.3247,-102.4459 1112.1865,-92.2449 1103.5879,-98.4348 1109.3247,-102.4459"/>
</g>
<!-- Node46 -->
<g id="node47" class="node">
<title>Node46</title>
<polygon fill="none" stroke="#bfbfbf" points="1195,-67.5 1195,-97.5 1323,-97.5 1323,-67.5 1195,-67.5"/>
<text text-anchor="start" x="1203" y="-85.5" font-family="Helvetica,sans-Serif" font-size="10.00" fill="#000000">deal.II/lac/blas_extension</text>
<text text-anchor="middle" x="1259" y="-74.5" font-family="Helvetica,sans-Serif" font-size="10.00" fill="#000000">_templates.h</text>
</g>
<!-- Node44&#45;&gt;Node46 -->
<g id="edge64" class="edge">
<title>Node44&#45;&gt;Node46</title>
<path fill="none" stroke="#191970" d="M1104.5938,-134.3906C1131.3098,-125.4123 1171.8935,-111.7735 1204.7498,-100.7316"/>
<polygon fill="#191970" stroke="#191970" points="1205.8691,-104.0479 1214.2332,-97.5446 1203.6391,-97.4126 1205.8691,-104.0479"/>
</g>
<!-- Node47 -->
<g id="node48" class="node">
<title>Node47</title>
<polygon fill="none" stroke="#bfbfbf" points="1341,-73 1341,-92 1467,-92 1467,-73 1341,-73"/>
<text text-anchor="middle" x="1404" y="-80" font-family="Helvetica,sans-Serif" font-size="10.00" fill="#000000">deal.II/lac/block_vector.h</text>
</g>
<!-- Node44&#45;&gt;Node47 -->
<g id="edge65" class="edge">
<title>Node44&#45;&gt;Node47</title>
<path fill="none" stroke="#191970" d="M1121.4068,-136.3246C1172.6516,-127.5499 1258.4601,-112.5184 1332,-98 1338.1741,-96.7811 1344.6356,-95.4579 1351.0457,-94.1157"/>
<polygon fill="#191970" stroke="#191970" points="1351.9692,-97.4978 1361.0277,-92.0029 1350.5197,-90.6495 1351.9692,-97.4978"/>
</g>
<!-- Node48 -->
<g id="node49" class="node">
<title>Node48</title>
<polygon fill="none" stroke="#bfbfbf" points="1485.5,-67.5 1485.5,-97.5 1576.5,-97.5 1576.5,-67.5 1485.5,-67.5"/>
<text text-anchor="start" x="1493.5" y="-85.5" font-family="Helvetica,sans-Serif" font-size="10.00" fill="#000000">deal.II/lac/lapack</text>
<text text-anchor="middle" x="1531" y="-74.5" font-family="Helvetica,sans-Serif" font-size="10.00" fill="#000000">_full_matrix.h</text>
</g>
<!-- Node44&#45;&gt;Node48 -->
<g id="edge67" class="edge">
<title>Node44&#45;&gt;Node48</title>
<path fill="none" stroke="#191970" d="M1121.0532,-141.1814C1193.676,-136.1242 1341.1781,-123.7325 1475.1829,-97.9555"/>
<polygon fill="#191970" stroke="#191970" points="1476.0734,-101.3478 1485.2166,-95.995 1474.731,-94.4777 1476.0734,-101.3478"/>
</g>
<!-- Node49 -->
<g id="node50" class="node">
<title>Node49</title>
<polygon fill="none" stroke="#bfbfbf" points="1594.5,-67.5 1594.5,-97.5 1685.5,-97.5 1685.5,-67.5 1594.5,-67.5"/>
<text text-anchor="start" x="1602.5" y="-85.5" font-family="Helvetica,sans-Serif" font-size="10.00" fill="#000000">deal.II/lac/lapack</text>
<text text-anchor="middle" x="1640" y="-74.5" font-family="Helvetica,sans-Serif" font-size="10.00" fill="#000000">_templates.h</text>
</g>
<!-- Node44&#45;&gt;Node49 -->
<g id="edge69" class="edge">
<title>Node44&#45;&gt;Node49</title>
<path fill="none" stroke="#191970" d="M1121.318,-142.707C1209.0397,-139.6003 1408.1546,-129.6055 1584.2698,-97.9018"/>
<polygon fill="#191970" stroke="#191970" points="1585.0254,-101.3218 1594.2329,-96.0803 1583.7665,-94.4359 1585.0254,-101.3218"/>
</g>
<!-- Node50 -->
<g id="node51" class="node">
<title>Node50</title>
<polygon fill="none" stroke="#bfbfbf" points="793,-67.5 793,-97.5 885,-97.5 885,-67.5 793,-67.5"/>
<text text-anchor="start" x="801" y="-85.5" font-family="Helvetica,sans-Serif" font-size="10.00" fill="#000000">deal.II/lac/sparse</text>
<text text-anchor="middle" x="839" y="-74.5" font-family="Helvetica,sans-Serif" font-size="10.00" fill="#000000">_matrix.h</text>
</g>
<!-- Node44&#45;&gt;Node50 -->
<g id="edge70" class="edge">
<title>Node44&#45;&gt;Node50</title>
<path fill="none" stroke="#191970" d="M1036.8676,-134.435C1002.0477,-125.8515 949.493,-112.7192 895.0181,-98.2373"/>
<polygon fill="#191970" stroke="#191970" points="895.7528,-94.8109 885.1885,-95.6148 893.9483,-101.5744 895.7528,-94.8109"/>
</g>
<!-- Node51 -->
<g id="node52" class="node">
<title>Node51</title>
<polygon fill="none" stroke="#bfbfbf" points="903.5,-73 903.5,-92 1004.5,-92 1004.5,-73 903.5,-73"/>
<text text-anchor="middle" x="954" y="-80" font-family="Helvetica,sans-Serif" font-size="10.00" fill="#000000">deal.II/lac/utilities.h</text>
</g>
<!-- Node44&#45;&gt;Node51 -->
<g id="edge71" class="edge">
<title>Node44&#45;&gt;Node51</title>
<path fill="none" stroke="#191970" d="M1056.9375,-134.3906C1036.8828,-124.2811 1005.1066,-108.2628 982.1616,-96.6962"/>
<polygon fill="#191970" stroke="#191970" points="983.4337,-93.418 972.9286,-92.0419 980.2827,-99.6687 983.4337,-93.418"/>
</g>
<!-- Node52 -->
<g id="node53" class="node">
<title>Node52</title>
<g id="a_node53"><a xlink:href="lapack__templates__ext_8h.html" target="_top" xlink:title="Append more template based LAPACK functions to those existing in deal.ii. ">
<polygon fill="none" stroke="#000000" points="655,-73 655,-92 775,-92 775,-73 655,-73"/>
<text text-anchor="middle" x="715" y="-80" font-family="Helvetica,sans-Serif" font-size="10.00" fill="#000000">lapack_templates_ext.h</text>
</a>
</g>
</g>
<!-- Node44&#45;&gt;Node52 -->
<g id="edge73" class="edge">
<title>Node44&#45;&gt;Node52</title>
<path fill="none" stroke="#191970" d="M1030.8227,-137.8084C973.3064,-129.7137 870.9564,-114.5981 784,-98 777.906,-96.8368 771.5293,-95.5289 765.2191,-94.1787"/>
<polygon fill="#191970" stroke="#191970" points="765.9242,-90.7503 755.4078,-92.0369 764.4313,-97.5892 765.9242,-90.7503"/>
</g>
<!-- Node52&#45;&gt;Node43 -->
<g id="edge74" class="edge">
<title>Node52&#45;&gt;Node43</title>
<path fill="none" stroke="#191970" d="M756.9369,-72.9596C765.8636,-70.9624 775.2388,-68.8899 784,-67 850.2072,-52.718 926.4952,-37.0565 976.9987,-26.7992"/>
<polygon fill="#191970" stroke="#191970" points="977.9535,-30.1769 987.0579,-24.7584 976.5616,-23.3166 977.9535,-30.1769"/>
</g>
</g>
</svg>
