<?xml version="1.0" encoding="UTF-8" standalone="no"?>
<!DOCTYPE svg PUBLIC "-//W3C//DTD SVG 1.1//EN"
 "http://www.w3.org/Graphics/SVG/1.1/DTD/svg11.dtd">
<!-- Generated by graphviz version 2.40.1 (20161225.0304)
 -->
<!-- Title: /home/jihuan/Projects/deal.ii/program/dealii&#45;9.1.1/examples/laplace&#45;bem/include/block_cluster_tree.h Pages: 1 -->
<svg width="2829pt" height="374pt"
 viewBox="0.00 0.00 2829.12 374.00" xmlns="http://www.w3.org/2000/svg" xmlns:xlink="http://www.w3.org/1999/xlink">
<g id="graph0" class="graph" transform="scale(1 1) rotate(0) translate(4 370)">
<title>/home/jihuan/Projects/deal.ii/program/dealii&#45;9.1.1/examples/laplace&#45;bem/include/block_cluster_tree.h</title>
<!-- Node0 -->
<g id="node1" class="node">
<title>Node0</title>
<polygon fill="#bfbfbf" stroke="#000000" points="600.5,-313.5 600.5,-365.5 763.5,-365.5 763.5,-313.5 600.5,-313.5"/>
<text text-anchor="start" x="608.5" y="-353.5" font-family="Helvetica,sans-Serif" font-size="10.00" fill="#000000">/home/jihuan/Projects</text>
<text text-anchor="start" x="608.5" y="-342.5" font-family="Helvetica,sans-Serif" font-size="10.00" fill="#000000">/deal.ii/program/dealii</text>
<text text-anchor="start" x="608.5" y="-331.5" font-family="Helvetica,sans-Serif" font-size="10.00" fill="#000000">&#45;9.1.1/examples/laplace</text>
<text text-anchor="middle" x="682" y="-320.5" font-family="Helvetica,sans-Serif" font-size="10.00" fill="#000000">&#45;bem/include/block_cluster_tree.h</text>
</g>
<!-- Node1 -->
<g id="node2" class="node">
<title>Node1</title>
<g id="a_node2"><a xlink:href="block__cluster_8h.html" target="_top" xlink:title="Implementation of the class BlockCluster. ">
<polygon fill="none" stroke="#000000" points="640.5,-257.5 640.5,-276.5 723.5,-276.5 723.5,-257.5 640.5,-257.5"/>
<text text-anchor="middle" x="682" y="-264.5" font-family="Helvetica,sans-Serif" font-size="10.00" fill="#000000">block_cluster.h</text>
</a>
</g>
</g>
<!-- Node0&#45;&gt;Node1 -->
<g id="edge1" class="edge">
<title>Node0&#45;&gt;Node1</title>
<path fill="none" stroke="#191970" d="M682,-313.3258C682,-304.5142 682,-294.8397 682,-286.621"/>
<polygon fill="#191970" stroke="#191970" points="685.5001,-286.534 682,-276.534 678.5001,-286.534 685.5001,-286.534"/>
</g>
<!-- Node13 -->
<g id="node14" class="node">
<title>Node13</title>
<g id="a_node14"><a xlink:href="cluster__tree_8h_source.html" target="_top" xlink:title="cluster_tree.h">
<polygon fill="none" stroke="#000000" points="575,-196 575,-215 651,-215 651,-196 575,-196"/>
<text text-anchor="middle" x="613" y="-203" font-family="Helvetica,sans-Serif" font-size="10.00" fill="#000000">cluster_tree.h</text>
</a>
</g>
</g>
<!-- Node0&#45;&gt;Node13 -->
<g id="edge33" class="edge">
<title>Node0&#45;&gt;Node13</title>
<path fill="none" stroke="#191970" d="M656.9354,-313.2099C647.9817,-302.6367 638.5093,-289.9025 632,-277 623.7019,-260.5515 618.7378,-240.0887 615.9768,-225.2738"/>
<polygon fill="#191970" stroke="#191970" points="619.3929,-224.483 614.2761,-215.2057 612.4906,-225.649 619.3929,-224.483"/>
</g>
<!-- Node14 -->
<g id="node15" class="node">
<title>Node14</title>
<g id="a_node15"><a xlink:href="debug__tools_8h.html" target="_top" xlink:title="This file includes a bunch of helper functions for printing out and visualizing information about gri...">
<polygon fill="none" stroke="#000000" points="265.5,-134.5 265.5,-153.5 342.5,-153.5 342.5,-134.5 265.5,-134.5"/>
<text text-anchor="middle" x="304" y="-141.5" font-family="Helvetica,sans-Serif" font-size="10.00" fill="#000000">debug_tools.h</text>
</a>
</g>
</g>
<!-- Node0&#45;&gt;Node14 -->
<g id="edge34" class="edge">
<title>Node0&#45;&gt;Node14</title>
<path fill="none" stroke="#191970" d="M631.4135,-313.3369C550.4716,-271.4741 394.5551,-190.8347 331.4829,-158.214"/>
<polygon fill="#191970" stroke="#191970" points="333.0165,-155.0668 322.5262,-153.5817 329.8007,-161.2845 333.0165,-155.0668"/>
</g>
<!-- Node19 -->
<g id="node20" class="node">
<title>Node19</title>
<g id="a_node20"><a xlink:href="tree_8h.html" target="_top" xlink:title="Implementation of the classes for binary tree node, general tree node and functions for manipulating ...">
<polygon fill="none" stroke="#000000" points="796.5,-134.5 796.5,-153.5 837.5,-153.5 837.5,-134.5 796.5,-134.5"/>
<text text-anchor="middle" x="817" y="-141.5" font-family="Helvetica,sans-Serif" font-size="10.00" fill="#000000">tree.h</text>
</a>
</g>
</g>
<!-- Node0&#45;&gt;Node19 -->
<g id="edge63" class="edge">
<title>Node0&#45;&gt;Node19</title>
<path fill="none" stroke="#191970" d="M704.5684,-313.2943C713.7067,-302.3177 724.1642,-289.276 733,-277 761.4348,-237.4944 790.9921,-188.5307 806.3262,-162.4274"/>
<polygon fill="#191970" stroke="#191970" points="809.4549,-164.0103 811.4747,-153.6098 803.4099,-160.4807 809.4549,-164.0103"/>
</g>
<!-- Node25 -->
<g id="node26" class="node">
<title>Node25</title>
<g id="a_node26"><a xlink:href="lapack__full__matrix__ext_8h_source.html" target="_top" xlink:title="lapack_full_matrix\l_ext.h">
<polygon fill="none" stroke="#000000" points="1250.5,-190.5 1250.5,-220.5 1345.5,-220.5 1345.5,-190.5 1250.5,-190.5"/>
<text text-anchor="start" x="1258.5" y="-208.5" font-family="Helvetica,sans-Serif" font-size="10.00" fill="#000000">lapack_full_matrix</text>
<text text-anchor="middle" x="1298" y="-197.5" font-family="Helvetica,sans-Serif" font-size="10.00" fill="#000000">_ext.h</text>
</a>
</g>
</g>
<!-- Node0&#45;&gt;Node25 -->
<g id="edge35" class="edge">
<title>Node0&#45;&gt;Node25</title>
<path fill="none" stroke="#191970" d="M763.8,-321.7058C890.2703,-294.1944 1130.1438,-242.0142 1240.1915,-218.0752"/>
<polygon fill="#191970" stroke="#191970" points="1241.0837,-221.4631 1250.1111,-215.9174 1239.5957,-214.6231 1241.0837,-221.4631"/>
</g>
<!-- Node2 -->
<g id="node3" class="node">
<title>Node2</title>
<g id="a_node3"><a xlink:href="cluster_8h.html" target="_top" xlink:title="Implementation of the class Cluster. ">
<polygon fill="none" stroke="#000000" points="586,-134.5 586,-153.5 640,-153.5 640,-134.5 586,-134.5"/>
<text text-anchor="middle" x="613" y="-141.5" font-family="Helvetica,sans-Serif" font-size="10.00" fill="#000000">cluster.h</text>
</a>
</g>
</g>
<!-- Node1&#45;&gt;Node2 -->
<g id="edge2" class="edge">
<title>Node1&#45;&gt;Node2</title>
<path fill="none" stroke="#191970" d="M680.8648,-257.3691C678.7292,-242.1409 673.0914,-211.9779 660,-190 653.2213,-178.6199 642.9338,-168.107 633.7101,-160.0126"/>
<polygon fill="#191970" stroke="#191970" points="635.9101,-157.2898 625.9931,-153.5608 631.4202,-162.6602 635.9101,-157.2898"/>
</g>
<!-- Node1&#45;&gt;Node13 -->
<g id="edge14" class="edge">
<title>Node1&#45;&gt;Node13</title>
<path fill="none" stroke="#191970" d="M671.2188,-257.3906C660.6474,-247.9683 644.3175,-233.4134 631.6397,-222.1137"/>
<polygon fill="#191970" stroke="#191970" points="633.7272,-219.2858 623.9333,-215.2449 629.0696,-224.5114 633.7272,-219.2858"/>
</g>
<!-- Node3 -->
<g id="node4" class="node">
<title>Node3</title>
<polygon fill="none" stroke="#bfbfbf" points="1034.5,-73 1034.5,-92 1137.5,-92 1137.5,-73 1034.5,-73"/>
<text text-anchor="middle" x="1086" y="-80" font-family="Helvetica,sans-Serif" font-size="10.00" fill="#000000">deal.II/base/types.h</text>
</g>
<!-- Node2&#45;&gt;Node3 -->
<g id="edge3" class="edge">
<title>Node2&#45;&gt;Node3</title>
<path fill="none" stroke="#191970" d="M640.2549,-142.3074C706.6649,-137.8925 881.9614,-124.4882 1026,-98 1031.4229,-97.0028 1037.0792,-95.7836 1042.6581,-94.4713"/>
<polygon fill="#191970" stroke="#191970" points="1043.6759,-97.8253 1052.5494,-92.0365 1042.0027,-91.0282 1043.6759,-97.8253"/>
</g>
<!-- Node4 -->
<g id="node5" class="node">
<title>Node4</title>
<polygon fill="none" stroke="#bfbfbf" points="691,-73 691,-92 747,-92 747,-73 691,-73"/>
<text text-anchor="middle" x="719" y="-80" font-family="Helvetica,sans-Serif" font-size="10.00" fill="#000000">algorithm</text>
</g>
<!-- Node2&#45;&gt;Node4 -->
<g id="edge4" class="edge">
<title>Node2&#45;&gt;Node4</title>
<path fill="none" stroke="#191970" d="M629.5625,-134.3906C646.7537,-124.4165 673.8582,-108.6908 693.7266,-97.1633"/>
<polygon fill="#191970" stroke="#191970" points="695.6606,-100.0877 702.5538,-92.0419 692.1477,-94.033 695.6606,-100.0877"/>
</g>
<!-- Node5 -->
<g id="node6" class="node">
<title>Node5</title>
<polygon fill="none" stroke="#bfbfbf" points="378.5,-73 378.5,-92 425.5,-92 425.5,-73 378.5,-73"/>
<text text-anchor="middle" x="402" y="-80" font-family="Helvetica,sans-Serif" font-size="10.00" fill="#000000">iterator</text>
</g>
<!-- Node2&#45;&gt;Node5 -->
<g id="edge5" class="edge">
<title>Node2&#45;&gt;Node5</title>
<path fill="none" stroke="#191970" d="M585.9925,-138.6621C550.7016,-131.317 487.246,-116.835 435,-98 433.4034,-97.4244 431.7793,-96.7994 430.1509,-96.1416"/>
<polygon fill="#191970" stroke="#191970" points="431.5058,-92.9142 420.9399,-92.1316 428.7116,-99.3323 431.5058,-92.9142"/>
</g>
<!-- Node6 -->
<g id="node7" class="node">
<title>Node6</title>
<polygon fill="none" stroke="#bfbfbf" points="1197,-6 1197,-25 1241,-25 1241,-6 1197,-6"/>
<text text-anchor="middle" x="1219" y="-13" font-family="Helvetica,sans-Serif" font-size="10.00" fill="#000000">vector</text>
</g>
<!-- Node2&#45;&gt;Node6 -->
<g id="edge6" class="edge">
<title>Node2&#45;&gt;Node6</title>
<path fill="none" stroke="#191970" d="M608.7743,-134.2484C602.4754,-118.0156 593.0719,-85.4201 610,-67 649.2903,-24.2469 1066.6394,-16.9537 1186.801,-15.7376"/>
<polygon fill="#191970" stroke="#191970" points="1186.8834,-19.2371 1196.8501,-15.6433 1186.8177,-12.2374 1186.8834,-19.2371"/>
</g>
<!-- Node7 -->
<g id="node8" class="node">
<title>Node7</title>
<g id="a_node8"><a xlink:href="simple__bounding__box_8h_source.html" target="_top" xlink:title="simple_bounding_box.h">
<polygon fill="none" stroke="#000000" points="443.5,-73 443.5,-92 562.5,-92 562.5,-73 443.5,-73"/>
<text text-anchor="middle" x="503" y="-80" font-family="Helvetica,sans-Serif" font-size="10.00" fill="#000000">simple_bounding_box.h</text>
</a>
</g>
</g>
<!-- Node2&#45;&gt;Node7 -->
<g id="edge7" class="edge">
<title>Node2&#45;&gt;Node7</title>
<path fill="none" stroke="#191970" d="M595.8125,-134.3906C577.8918,-124.3713 549.5905,-108.5483 528.9477,-97.0071"/>
<polygon fill="#191970" stroke="#191970" points="530.5033,-93.867 520.0668,-92.0419 527.0872,-99.9769 530.5033,-93.867"/>
</g>
<!-- Node7&#45;&gt;Node6 -->
<g id="edge13" class="edge">
<title>Node7&#45;&gt;Node6</title>
<path fill="none" stroke="#191970" d="M543.9347,-72.9625C554.6474,-70.7316 566.217,-68.5554 577,-67 809.5759,-33.4512 1092.9387,-20.2781 1186.9781,-16.6357"/>
<polygon fill="#191970" stroke="#191970" points="1187.1331,-20.1324 1196.9934,-16.2564 1186.8681,-13.1375 1187.1331,-20.1324"/>
</g>
<!-- Node8 -->
<g id="node9" class="node">
<title>Node8</title>
<polygon fill="none" stroke="#bfbfbf" points="497,-6 497,-25 597,-25 597,-6 497,-6"/>
<text text-anchor="middle" x="547" y="-13" font-family="Helvetica,sans-Serif" font-size="10.00" fill="#000000">deal.II/base/point.h</text>
</g>
<!-- Node7&#45;&gt;Node8 -->
<g id="edge8" class="edge">
<title>Node7&#45;&gt;Node8</title>
<path fill="none" stroke="#191970" d="M509.3041,-72.9005C516.0349,-62.6515 526.8554,-46.1747 535.1807,-33.4976"/>
<polygon fill="#191970" stroke="#191970" points="538.1438,-35.3616 540.7076,-25.0817 532.2927,-31.5191 538.1438,-35.3616"/>
</g>
<!-- Node9 -->
<g id="node10" class="node">
<title>Node9</title>
<polygon fill="none" stroke="#bfbfbf" points="288.5,-6 288.5,-25 415.5,-25 415.5,-6 288.5,-6"/>
<text text-anchor="middle" x="352" y="-13" font-family="Helvetica,sans-Serif" font-size="10.00" fill="#000000">deal.II/dofs/dof_handler.h</text>
</g>
<!-- Node7&#45;&gt;Node9 -->
<g id="edge9" class="edge">
<title>Node7&#45;&gt;Node9</title>
<path fill="none" stroke="#191970" d="M481.3654,-72.9005C455.5757,-61.4574 412.2894,-42.2509 382.9603,-29.2374"/>
<polygon fill="#191970" stroke="#191970" points="384.1546,-25.9383 373.5945,-25.0817 381.3156,-32.3367 384.1546,-25.9383"/>
</g>
<!-- Node10 -->
<g id="node11" class="node">
<title>Node10</title>
<polygon fill="none" stroke="#bfbfbf" points="0,-6 0,-25 116,-25 116,-6 0,-6"/>
<text text-anchor="middle" x="58" y="-13" font-family="Helvetica,sans-Serif" font-size="10.00" fill="#000000">deal.II/dofs/dof_tools.h</text>
</g>
<!-- Node7&#45;&gt;Node10 -->
<g id="edge10" class="edge">
<title>Node7&#45;&gt;Node10</title>
<path fill="none" stroke="#191970" d="M464.299,-72.9761C454.7582,-70.8226 444.54,-68.6792 435,-67 307.9569,-44.6381 274.5785,-50.0717 147,-31 138.322,-29.7027 129.1864,-28.2322 120.2077,-26.7261"/>
<polygon fill="#191970" stroke="#191970" points="120.6154,-23.2452 110.1699,-25.0179 119.441,-30.146 120.6154,-23.2452"/>
</g>
<!-- Node11 -->
<g id="node12" class="node">
<title>Node11</title>
<polygon fill="none" stroke="#bfbfbf" points="156.5,-6 156.5,-25 259.5,-25 259.5,-6 156.5,-6"/>
<text text-anchor="middle" x="208" y="-13" font-family="Helvetica,sans-Serif" font-size="10.00" fill="#000000">deal.II/fe/mapping.h</text>
</g>
<!-- Node7&#45;&gt;Node11 -->
<g id="edge11" class="edge">
<title>Node7&#45;&gt;Node11</title>
<path fill="none" stroke="#191970" d="M461.2859,-72.9846C452.5991,-71.005 443.501,-68.9332 435,-67 375.1026,-53.3789 306.3047,-37.7766 260.2932,-27.348"/>
<polygon fill="#191970" stroke="#191970" points="260.7846,-23.8707 250.2583,-25.0738 259.2374,-30.6976 260.7846,-23.8707"/>
</g>
<!-- Node12 -->
<g id="node13" class="node">
<title>Node12</title>
<polygon fill="none" stroke="#bfbfbf" points="439,-6 439,-25 479,-25 479,-6 439,-6"/>
<text text-anchor="middle" x="459" y="-13" font-family="Helvetica,sans-Serif" font-size="10.00" fill="#000000">utility</text>
</g>
<!-- Node7&#45;&gt;Node12 -->
<g id="edge12" class="edge">
<title>Node7&#45;&gt;Node12</title>
<path fill="none" stroke="#191970" d="M496.6959,-72.9005C489.9651,-62.6515 479.1446,-46.1747 470.8193,-33.4976"/>
<polygon fill="#191970" stroke="#191970" points="473.7073,-31.5191 465.2924,-25.0817 467.8562,-35.3616 473.7073,-31.5191"/>
</g>
<!-- Node13&#45;&gt;Node2 -->
<g id="edge15" class="edge">
<title>Node13&#45;&gt;Node2</title>
<path fill="none" stroke="#191970" d="M613,-195.8906C613,-187.3657 613,-174.6392 613,-163.9235"/>
<polygon fill="#191970" stroke="#191970" points="616.5001,-163.7448 613,-153.7449 609.5001,-163.7449 616.5001,-163.7448"/>
</g>
<!-- Node13&#45;&gt;Node14 -->
<g id="edge16" class="edge">
<title>Node13&#45;&gt;Node14</title>
<path fill="none" stroke="#191970" d="M574.8006,-197.8972C518.6658,-186.7247 413.9126,-165.8758 352.4448,-153.6419"/>
<polygon fill="#191970" stroke="#191970" points="353.0882,-150.2014 342.5973,-151.682 351.7217,-157.0667 353.0882,-150.2014"/>
</g>
<!-- Node13&#45;&gt;Node19 -->
<g id="edge24" class="edge">
<title>Node13&#45;&gt;Node19</title>
<path fill="none" stroke="#191970" d="M644.875,-195.8906C683.4912,-184.249 748.0981,-164.7719 786.2167,-153.2803"/>
<polygon fill="#191970" stroke="#191970" points="787.6579,-156.5014 796.222,-150.264 785.6374,-149.7994 787.6579,-156.5014"/>
</g>
<!-- Node14&#45;&gt;Node9 -->
<g id="edge17" class="edge">
<title>Node14&#45;&gt;Node9</title>
<path fill="none" stroke="#191970" d="M265.1132,-139.5407C208.2622,-131.4441 112.7418,-110.9291 147,-67 156.0077,-55.4495 233.5212,-38.2741 290.5844,-26.9831"/>
<polygon fill="#191970" stroke="#191970" points="291.4825,-30.3737 300.6225,-25.0154 290.1359,-23.5045 291.4825,-30.3737"/>
</g>
<!-- Node14&#45;&gt;Node10 -->
<g id="edge18" class="edge">
<title>Node14&#45;&gt;Node10</title>
<path fill="none" stroke="#191970" d="M265.3944,-140.8203C227.6048,-136.2041 169.6567,-124.9978 127,-98 101.2204,-81.6838 80.24,-52.5871 68.4346,-33.6712"/>
<polygon fill="#191970" stroke="#191970" points="71.412,-31.8308 63.2578,-25.0663 65.4138,-35.4394 71.412,-31.8308"/>
</g>
<!-- Node14&#45;&gt;Node11 -->
<g id="edge21" class="edge">
<title>Node14&#45;&gt;Node11</title>
<path fill="none" stroke="#191970" d="M265.1388,-138.8326C220.5604,-132.0149 151.592,-118.4352 136,-98 117.0404,-73.1513 152.1324,-46.1911 179.6678,-30.0812"/>
<polygon fill="#191970" stroke="#191970" points="181.62,-32.9991 188.6272,-25.0525 178.1938,-26.8949 181.62,-32.9991"/>
</g>
<!-- Node15 -->
<g id="node16" class="node">
<title>Node15</title>
<polygon fill="none" stroke="#bfbfbf" points="156,-73 156,-92 230,-92 230,-73 156,-73"/>
<text text-anchor="middle" x="193" y="-80" font-family="Helvetica,sans-Serif" font-size="10.00" fill="#000000">deal.II/fe/fe.h</text>
</g>
<!-- Node14&#45;&gt;Node15 -->
<g id="edge19" class="edge">
<title>Node14&#45;&gt;Node15</title>
<path fill="none" stroke="#191970" d="M286.6563,-134.3906C268.5727,-124.3713 240.0141,-108.5483 219.1835,-97.0071"/>
<polygon fill="#191970" stroke="#191970" points="220.6654,-93.8268 210.222,-92.0419 217.2729,-99.9498 220.6654,-93.8268"/>
</g>
<!-- Node16 -->
<g id="node17" class="node">
<title>Node16</title>
<polygon fill="none" stroke="#bfbfbf" points="248,-73 248,-92 360,-92 360,-73 248,-73"/>
<text text-anchor="middle" x="304" y="-80" font-family="Helvetica,sans-Serif" font-size="10.00" fill="#000000">deal.II/fe/fe_system.h</text>
</g>
<!-- Node14&#45;&gt;Node16 -->
<g id="edge20" class="edge">
<title>Node14&#45;&gt;Node16</title>
<path fill="none" stroke="#191970" d="M304,-134.3906C304,-125.8657 304,-113.1392 304,-102.4235"/>
<polygon fill="#191970" stroke="#191970" points="307.5001,-102.2448 304,-92.2449 300.5001,-102.2449 307.5001,-102.2448"/>
</g>
<!-- Node17 -->
<g id="node18" class="node">
<title>Node17</title>
<polygon fill="none" stroke="#bfbfbf" points="619,-73 619,-92 673,-92 673,-73 619,-73"/>
<text text-anchor="middle" x="646" y="-80" font-family="Helvetica,sans-Serif" font-size="10.00" fill="#000000">iostream</text>
</g>
<!-- Node14&#45;&gt;Node17 -->
<g id="edge22" class="edge">
<title>Node14&#45;&gt;Node17</title>
<path fill="none" stroke="#191970" d="M342.6913,-137.8139C394.8621,-129.3688 490.613,-113.503 572,-98 584.0671,-95.7014 597.201,-93.0119 609.0089,-90.5246"/>
<polygon fill="#191970" stroke="#191970" points="609.9297,-93.9072 618.9842,-88.4057 608.4752,-87.06 609.9297,-93.9072"/>
</g>
<!-- Node18 -->
<g id="node19" class="node">
<title>Node18</title>
<polygon fill="none" stroke="#bfbfbf" points="975.5,-73 975.5,-92 1016.5,-92 1016.5,-73 975.5,-73"/>
<text text-anchor="middle" x="996" y="-80" font-family="Helvetica,sans-Serif" font-size="10.00" fill="#000000">string</text>
</g>
<!-- Node14&#45;&gt;Node18 -->
<g id="edge23" class="edge">
<title>Node14&#45;&gt;Node18</title>
<path fill="none" stroke="#191970" d="M342.6545,-142.2644C475.2913,-136.1784 907.0525,-115.2421 967,-98 968.4744,-97.5759 969.9589,-97.0701 971.4351,-96.5042"/>
<polygon fill="#191970" stroke="#191970" points="973.2623,-99.515 980.8613,-92.1322 970.3169,-93.1648 973.2623,-99.515"/>
</g>
<!-- Node19&#45;&gt;Node4 -->
<g id="edge26" class="edge">
<title>Node19&#45;&gt;Node4</title>
<path fill="none" stroke="#191970" d="M801.6875,-134.3906C785.9376,-124.5067 761.1877,-108.9749 742.8663,-97.4773"/>
<polygon fill="#191970" stroke="#191970" points="744.5357,-94.3929 734.205,-92.0419 740.8148,-100.3221 744.5357,-94.3929"/>
</g>
<!-- Node19&#45;&gt;Node6 -->
<g id="edge32" class="edge">
<title>Node19&#45;&gt;Node6</title>
<path fill="none" stroke="#191970" d="M837.7554,-142.8874C913.6106,-138.6365 1172.819,-122.4221 1200,-98 1217.3745,-82.389 1220.4995,-54.3677 1220.3711,-35.3598"/>
<polygon fill="#191970" stroke="#191970" points="1223.8597,-34.9876 1219.986,-25.1263 1216.8646,-35.2509 1223.8597,-34.9876"/>
</g>
<!-- Node19&#45;&gt;Node17 -->
<g id="edge30" class="edge">
<title>Node19&#45;&gt;Node17</title>
<path fill="none" stroke="#191970" d="M796.2358,-137.4824C769.5738,-128.9865 721.9761,-113.3897 682,-98 680.3846,-97.3781 678.7348,-96.7268 677.0734,-96.058"/>
<polygon fill="#191970" stroke="#191970" points="678.1671,-92.7225 667.5894,-92.1202 675.4828,-99.1874 678.1671,-92.7225"/>
</g>
<!-- Node20 -->
<g id="node21" class="node">
<title>Node20</title>
<polygon fill="none" stroke="#bfbfbf" points="1285,-73 1285,-92 1411,-92 1411,-73 1285,-73"/>
<text text-anchor="middle" x="1348" y="-80" font-family="Helvetica,sans-Serif" font-size="10.00" fill="#000000">deal.II/base/exceptions.h</text>
</g>
<!-- Node19&#45;&gt;Node20 -->
<g id="edge25" class="edge">
<title>Node19&#45;&gt;Node20</title>
<path fill="none" stroke="#191970" d="M837.7975,-141.8776C898.6389,-135.6304 1081.5441,-116.5779 1233,-98 1246.516,-96.3421 1260.9119,-94.4791 1274.7807,-92.6349"/>
<polygon fill="#191970" stroke="#191970" points="1275.3188,-96.0942 1284.7661,-91.2985 1274.3902,-89.156 1275.3188,-96.0942"/>
</g>
<!-- Node21 -->
<g id="node22" class="node">
<title>Node21</title>
<polygon fill="none" stroke="#bfbfbf" points="765,-73 765,-92 803,-92 803,-73 765,-73"/>
<text text-anchor="middle" x="784" y="-80" font-family="Helvetica,sans-Serif" font-size="10.00" fill="#000000">array</text>
</g>
<!-- Node19&#45;&gt;Node21 -->
<g id="edge27" class="edge">
<title>Node19&#45;&gt;Node21</title>
<path fill="none" stroke="#191970" d="M811.8438,-134.3906C807.0768,-125.5068 799.8615,-112.0601 793.9703,-101.0811"/>
<polygon fill="#191970" stroke="#191970" points="797.0412,-99.4016 789.2289,-92.2449 790.8731,-102.7114 797.0412,-99.4016"/>
</g>
<!-- Node22 -->
<g id="node23" class="node">
<title>Node22</title>
<polygon fill="none" stroke="#bfbfbf" points="821.5,-73 821.5,-92 880.5,-92 880.5,-73 821.5,-73"/>
<text text-anchor="middle" x="851" y="-80" font-family="Helvetica,sans-Serif" font-size="10.00" fill="#000000">exception</text>
</g>
<!-- Node19&#45;&gt;Node22 -->
<g id="edge28" class="edge">
<title>Node19&#45;&gt;Node22</title>
<path fill="none" stroke="#191970" d="M822.3125,-134.3906C827.2239,-125.5068 834.6579,-112.0601 840.7275,-101.0811"/>
<polygon fill="#191970" stroke="#191970" points="843.8373,-102.6899 845.6126,-92.2449 837.7112,-99.3031 843.8373,-102.6899"/>
</g>
<!-- Node23 -->
<g id="node24" class="node">
<title>Node23</title>
<polygon fill="none" stroke="#bfbfbf" points="898.5,-73 898.5,-92 957.5,-92 957.5,-73 898.5,-73"/>
<text text-anchor="middle" x="928" y="-80" font-family="Helvetica,sans-Serif" font-size="10.00" fill="#000000">functional</text>
</g>
<!-- Node19&#45;&gt;Node23 -->
<g id="edge29" class="edge">
<title>Node19&#45;&gt;Node23</title>
<path fill="none" stroke="#191970" d="M834.3438,-134.3906C852.4273,-124.3713 880.9859,-108.5483 901.8165,-97.0071"/>
<polygon fill="#191970" stroke="#191970" points="903.7271,-99.9498 910.778,-92.0419 900.3346,-93.8268 903.7271,-99.9498"/>
</g>
<!-- Node24 -->
<g id="node25" class="node">
<title>Node24</title>
<polygon fill="none" stroke="#bfbfbf" points="1155.5,-73 1155.5,-92 1190.5,-92 1190.5,-73 1155.5,-73"/>
<text text-anchor="middle" x="1173" y="-80" font-family="Helvetica,sans-Serif" font-size="10.00" fill="#000000">new</text>
</g>
<!-- Node19&#45;&gt;Node24 -->
<g id="edge31" class="edge">
<title>Node19&#45;&gt;Node24</title>
<path fill="none" stroke="#191970" d="M837.768,-142.1926C900.8044,-136.5366 1089.1539,-118.3351 1147,-98 1148.0411,-97.634 1149.0864,-97.2238 1150.1281,-96.779"/>
<polygon fill="#191970" stroke="#191970" points="1151.9132,-99.7966 1159.2007,-92.1061 1148.7079,-93.5735 1151.9132,-99.7966"/>
</g>
<!-- Node25&#45;&gt;Node6 -->
<g id="edge41" class="edge">
<title>Node25&#45;&gt;Node6</title>
<path fill="none" stroke="#191970" d="M1291.6686,-190.2727C1277.3445,-155.8223 1242.4831,-71.9783 1226.8325,-34.3378"/>
<polygon fill="#191970" stroke="#191970" points="1230.0318,-32.9157 1222.9607,-25.0258 1223.5683,-35.6032 1230.0318,-32.9157"/>
</g>
<!-- Node25&#45;&gt;Node18 -->
<g id="edge40" class="edge">
<title>Node25&#45;&gt;Node18</title>
<path fill="none" stroke="#191970" d="M1250.4556,-196.657C1211.4096,-188.4339 1155.2144,-174.3664 1109,-154 1074.6445,-138.8597 1038.6006,-114.3151 1016.7115,-98.2898"/>
<polygon fill="#191970" stroke="#191970" points="1018.6261,-95.352 1008.5116,-92.198 1014.4516,-100.9711 1018.6261,-95.352"/>
</g>
<!-- Node26 -->
<g id="node27" class="node">
<title>Node26</title>
<polygon fill="none" stroke="#bfbfbf" points="2242,-134.5 2242,-153.5 2282,-153.5 2282,-134.5 2242,-134.5"/>
<text text-anchor="middle" x="2262" y="-141.5" font-family="Helvetica,sans-Serif" font-size="10.00" fill="#000000">limits</text>
</g>
<!-- Node25&#45;&gt;Node26 -->
<g id="edge36" class="edge">
<title>Node25&#45;&gt;Node26</title>
<path fill="none" stroke="#191970" d="M1345.5762,-204.6176C1508.0738,-201.3375 2041.1077,-188.3172 2232.0008,-153.6075"/>
<polygon fill="#191970" stroke="#191970" points="2232.7442,-157.029 2241.9149,-151.7235 2231.4372,-150.1521 2232.7442,-157.029"/>
</g>
<!-- Node27 -->
<g id="node28" class="node">
<title>Node27</title>
<polygon fill="none" stroke="#bfbfbf" points="1505.5,-73 1505.5,-92 1540.5,-92 1540.5,-73 1505.5,-73"/>
<text text-anchor="middle" x="1523" y="-80" font-family="Helvetica,sans-Serif" font-size="10.00" fill="#000000">map</text>
</g>
<!-- Node25&#45;&gt;Node27 -->
<g id="edge37" class="edge">
<title>Node25&#45;&gt;Node27</title>
<path fill="none" stroke="#191970" d="M1345.7155,-200.9969C1403.8574,-194.436 1497.0761,-180.0888 1519,-154 1530.9578,-139.7705 1530.3134,-117.7764 1527.7077,-101.9393"/>
<polygon fill="#191970" stroke="#191970" points="1531.1365,-101.2363 1525.7212,-92.13 1524.2758,-102.6257 1531.1365,-101.2363"/>
</g>
<!-- Node28 -->
<g id="node29" class="node">
<title>Node28</title>
<polygon fill="none" stroke="#bfbfbf" points="1117.5,-134.5 1117.5,-153.5 1158.5,-153.5 1158.5,-134.5 1117.5,-134.5"/>
<text text-anchor="middle" x="1138" y="-141.5" font-family="Helvetica,sans-Serif" font-size="10.00" fill="#000000">regex</text>
</g>
<!-- Node25&#45;&gt;Node28 -->
<g id="edge38" class="edge">
<title>Node25&#45;&gt;Node28</title>
<path fill="none" stroke="#191970" d="M1258.8596,-190.4554C1230.9272,-179.7189 1193.9106,-165.4906 1168.2366,-155.6222"/>
<polygon fill="#191970" stroke="#191970" points="1169.2498,-152.2621 1158.6599,-151.9411 1166.7383,-158.796 1169.2498,-152.2621"/>
</g>
<!-- Node29 -->
<g id="node30" class="node">
<title>Node29</title>
<polygon fill="none" stroke="#bfbfbf" points="1177,-134.5 1177,-153.5 1229,-153.5 1229,-134.5 1177,-134.5"/>
<text text-anchor="middle" x="1203" y="-141.5" font-family="Helvetica,sans-Serif" font-size="10.00" fill="#000000">sstream</text>
</g>
<!-- Node25&#45;&gt;Node29 -->
<g id="edge39" class="edge">
<title>Node25&#45;&gt;Node29</title>
<path fill="none" stroke="#191970" d="M1274.5168,-190.2977C1259.8652,-180.8127 1241.0764,-168.6495 1226.4341,-159.1705"/>
<polygon fill="#191970" stroke="#191970" points="1228.2236,-156.1596 1217.927,-153.6633 1224.4195,-162.0357 1228.2236,-156.1596"/>
</g>
<!-- Node30 -->
<g id="node31" class="node">
<title>Node30</title>
<g id="a_node31"><a xlink:href="general__exceptions_8h.html" target="_top" xlink:title="Definition of self&#45;defined general exceptions. ">
<polygon fill="none" stroke="#000000" points="1285.5,-134.5 1285.5,-153.5 1394.5,-153.5 1394.5,-134.5 1285.5,-134.5"/>
<text text-anchor="middle" x="1340" y="-141.5" font-family="Helvetica,sans-Serif" font-size="10.00" fill="#000000">general_exceptions.h</text>
</a>
</g>
</g>
<!-- Node25&#45;&gt;Node30 -->
<g id="edge42" class="edge">
<title>Node25&#45;&gt;Node30</title>
<path fill="none" stroke="#191970" d="M1308.382,-190.2977C1314.1513,-181.8498 1321.3716,-171.2773 1327.4553,-162.369"/>
<polygon fill="#191970" stroke="#191970" points="1330.5259,-164.0788 1333.2753,-153.8469 1324.7453,-160.1311 1330.5259,-164.0788"/>
</g>
<!-- Node31 -->
<g id="node32" class="node">
<title>Node31</title>
<g id="a_node32"><a xlink:href="generic__functors_8h.html" target="_top" xlink:title="This header file contains a set of self&#45;defined generic functors. ">
<polygon fill="none" stroke="#000000" points="1412.5,-134.5 1412.5,-153.5 1509.5,-153.5 1509.5,-134.5 1412.5,-134.5"/>
<text text-anchor="middle" x="1461" y="-141.5" font-family="Helvetica,sans-Serif" font-size="10.00" fill="#000000">generic_functors.h</text>
</a>
</g>
</g>
<!-- Node25&#45;&gt;Node31 -->
<g id="edge44" class="edge">
<title>Node25&#45;&gt;Node31</title>
<path fill="none" stroke="#191970" d="M1337.8743,-190.4554C1364.952,-180.239 1400.4094,-166.8609 1426.3166,-157.0861"/>
<polygon fill="#191970" stroke="#191970" points="1427.6201,-160.3352 1435.7408,-153.5303 1425.149,-153.7858 1427.6201,-160.3352"/>
</g>
<!-- Node33 -->
<g id="node34" class="node">
<title>Node33</title>
<g id="a_node34"><a xlink:href="lapack__helpers_8h.html" target="_top" xlink:title="Exposes LAPACK helper functions defined in lapack_full_matrix.cc and define new ones by following the...">
<polygon fill="none" stroke="#000000" points="2134,-134.5 2134,-153.5 2224,-153.5 2224,-134.5 2134,-134.5"/>
<text text-anchor="middle" x="2179" y="-141.5" font-family="Helvetica,sans-Serif" font-size="10.00" fill="#000000">lapack_helpers.h</text>
</a>
</g>
</g>
<!-- Node25&#45;&gt;Node33 -->
<g id="edge50" class="edge">
<title>Node25&#45;&gt;Node33</title>
<path fill="none" stroke="#191970" d="M1345.6788,-202.1717C1496.5006,-191.6433 1962.7303,-159.0972 2123.685,-147.8614"/>
<polygon fill="#191970" stroke="#191970" points="2124.1068,-151.3405 2133.8388,-147.1526 2123.6193,-144.3575 2124.1068,-151.3405"/>
</g>
<!-- Node30&#45;&gt;Node20 -->
<g id="edge43" class="edge">
<title>Node30&#45;&gt;Node20</title>
<path fill="none" stroke="#191970" d="M1341.25,-134.3906C1342.3589,-125.8657 1344.0144,-113.1392 1345.4083,-102.4235"/>
<polygon fill="#191970" stroke="#191970" points="1348.9131,-102.6128 1346.7324,-92.2449 1341.9716,-101.7098 1348.9131,-102.6128"/>
</g>
<!-- Node31&#45;&gt;Node3 -->
<g id="edge46" class="edge">
<title>Node31&#45;&gt;Node3</title>
<path fill="none" stroke="#191970" d="M1412.2008,-135.3247C1409.428,-134.8673 1406.6796,-134.4226 1404,-134 1290.0707,-116.0322 1260.1737,-120.2356 1147,-98 1141.6391,-96.9467 1136.0453,-95.7136 1130.5141,-94.4111"/>
<polygon fill="#191970" stroke="#191970" points="1131.234,-90.9841 1120.6895,-92.0154 1129.5756,-97.7849 1131.234,-90.9841"/>
</g>
<!-- Node31&#45;&gt;Node6 -->
<g id="edge49" class="edge">
<title>Node31&#45;&gt;Node6</title>
<path fill="none" stroke="#191970" d="M1458.5966,-134.3121C1454.0036,-117.8742 1442.3851,-84.5955 1420,-67 1393.8901,-46.4766 1301.12,-28.8009 1251.259,-20.5176"/>
<polygon fill="#191970" stroke="#191970" points="1251.743,-17.0504 1241.31,-18.895 1250.6161,-23.9591 1251.743,-17.0504"/>
</g>
<!-- Node31&#45;&gt;Node20 -->
<g id="edge45" class="edge">
<title>Node31&#45;&gt;Node20</title>
<path fill="none" stroke="#191970" d="M1443.3438,-134.3906C1424.8514,-124.3262 1395.599,-108.4057 1374.3692,-96.8514"/>
<polygon fill="#191970" stroke="#191970" points="1375.9888,-93.7481 1365.5323,-92.0419 1372.6425,-99.8965 1375.9888,-93.7481"/>
</g>
<!-- Node31&#45;&gt;Node27 -->
<g id="edge48" class="edge">
<title>Node31&#45;&gt;Node27</title>
<path fill="none" stroke="#191970" d="M1470.6875,-134.3906C1480.0959,-125.0581 1494.5807,-110.6902 1505.9249,-99.4374"/>
<polygon fill="#191970" stroke="#191970" points="1508.5411,-101.7722 1513.1759,-92.2449 1503.6114,-96.8024 1508.5411,-101.7722"/>
</g>
<!-- Node32 -->
<g id="node33" class="node">
<title>Node32</title>
<polygon fill="none" stroke="#bfbfbf" points="1573.5,-.5 1573.5,-30.5 1664.5,-30.5 1664.5,-.5 1573.5,-.5"/>
<text text-anchor="start" x="1581.5" y="-18.5" font-family="Helvetica,sans-Serif" font-size="10.00" fill="#000000">deal.II/lac/lapack</text>
<text text-anchor="middle" x="1619" y="-7.5" font-family="Helvetica,sans-Serif" font-size="10.00" fill="#000000">_support.h</text>
</g>
<!-- Node31&#45;&gt;Node32 -->
<g id="edge47" class="edge">
<title>Node31&#45;&gt;Node32</title>
<path fill="none" stroke="#191970" d="M1463.1036,-134.4053C1467.0748,-118.4035 1477.1208,-86.1397 1497,-67 1515.4043,-49.2804 1540.8187,-37.2403 1563.6895,-29.2878"/>
<polygon fill="#191970" stroke="#191970" points="1564.9013,-32.5738 1573.3077,-26.1252 1562.7148,-25.924 1564.9013,-32.5738"/>
</g>
<!-- Node33&#45;&gt;Node32 -->
<g id="edge56" class="edge">
<title>Node33&#45;&gt;Node32</title>
<path fill="none" stroke="#191970" d="M2224.0182,-135.2424C2227.0517,-134.7823 2230.0665,-134.3616 2233,-134 2361.333,-118.1796 2900.437,-160.3846 2811,-67 2771.2705,-25.5169 1905.2844,-17.2563 1674.8849,-15.7903"/>
<polygon fill="#191970" stroke="#191970" points="1674.7388,-12.2895 1664.7173,-15.7275 1674.6954,-19.2893 1674.7388,-12.2895"/>
</g>
<!-- Node34 -->
<g id="node35" class="node">
<title>Node34</title>
<polygon fill="none" stroke="#bfbfbf" points="1697,-73 1697,-92 1813,-92 1813,-73 1697,-73"/>
<text text-anchor="middle" x="1755" y="-80" font-family="Helvetica,sans-Serif" font-size="10.00" fill="#000000">deal.II/base/numbers.h</text>
</g>
<!-- Node33&#45;&gt;Node34 -->
<g id="edge51" class="edge">
<title>Node33&#45;&gt;Node34</title>
<path fill="none" stroke="#191970" d="M2133.9768,-139.6469C2066.0586,-132.7539 1933.4814,-118.0266 1822,-98 1815.8307,-96.8917 1809.3739,-95.5862 1803.0071,-94.2108"/>
<polygon fill="#191970" stroke="#191970" points="1803.6522,-90.7688 1793.1303,-92.0104 1802.1299,-97.6013 1803.6522,-90.7688"/>
</g>
<!-- Node35 -->
<g id="node36" class="node">
<title>Node35</title>
<polygon fill="none" stroke="#bfbfbf" points="1831,-67.5 1831,-97.5 1959,-97.5 1959,-67.5 1831,-67.5"/>
<text text-anchor="start" x="1839" y="-85.5" font-family="Helvetica,sans-Serif" font-size="10.00" fill="#000000">deal.II/lac/blas_extension</text>
<text text-anchor="middle" x="1895" y="-74.5" font-family="Helvetica,sans-Serif" font-size="10.00" fill="#000000">_templates.h</text>
</g>
<!-- Node33&#45;&gt;Node35 -->
<g id="edge52" class="edge">
<title>Node33&#45;&gt;Node35</title>
<path fill="none" stroke="#191970" d="M2134.9366,-134.4581C2090.7334,-124.8859 2021.8438,-109.9679 1969.1998,-98.5679"/>
<polygon fill="#191970" stroke="#191970" points="1969.7489,-95.1058 1959.2347,-96.41 1968.2674,-101.9472 1969.7489,-95.1058"/>
</g>
<!-- Node36 -->
<g id="node37" class="node">
<title>Node36</title>
<polygon fill="none" stroke="#bfbfbf" points="1977,-73 1977,-92 2103,-92 2103,-73 1977,-73"/>
<text text-anchor="middle" x="2040" y="-80" font-family="Helvetica,sans-Serif" font-size="10.00" fill="#000000">deal.II/lac/block_vector.h</text>
</g>
<!-- Node33&#45;&gt;Node36 -->
<g id="edge53" class="edge">
<title>Node33&#45;&gt;Node36</title>
<path fill="none" stroke="#191970" d="M2157.2813,-134.3906C2134.126,-124.1457 2097.2559,-107.8326 2071.0409,-96.2339"/>
<polygon fill="#191970" stroke="#191970" points="2072.1273,-92.8874 2061.5662,-92.0419 2069.295,-99.2888 2072.1273,-92.8874"/>
</g>
<!-- Node37 -->
<g id="node38" class="node">
<title>Node37</title>
<polygon fill="none" stroke="#bfbfbf" points="2121,-73 2121,-92 2237,-92 2237,-73 2121,-73"/>
<text text-anchor="middle" x="2179" y="-80" font-family="Helvetica,sans-Serif" font-size="10.00" fill="#000000">deal.II/lac/full_matrix.h</text>
</g>
<!-- Node33&#45;&gt;Node37 -->
<g id="edge54" class="edge">
<title>Node33&#45;&gt;Node37</title>
<path fill="none" stroke="#191970" d="M2179,-134.3906C2179,-125.8657 2179,-113.1392 2179,-102.4235"/>
<polygon fill="#191970" stroke="#191970" points="2182.5001,-102.2448 2179,-92.2449 2175.5001,-102.2449 2182.5001,-102.2448"/>
</g>
<!-- Node38 -->
<g id="node39" class="node">
<title>Node38</title>
<polygon fill="none" stroke="#bfbfbf" points="2255.5,-67.5 2255.5,-97.5 2346.5,-97.5 2346.5,-67.5 2255.5,-67.5"/>
<text text-anchor="start" x="2263.5" y="-85.5" font-family="Helvetica,sans-Serif" font-size="10.00" fill="#000000">deal.II/lac/lapack</text>
<text text-anchor="middle" x="2301" y="-74.5" font-family="Helvetica,sans-Serif" font-size="10.00" fill="#000000">_full_matrix.h</text>
</g>
<!-- Node33&#45;&gt;Node38 -->
<g id="edge55" class="edge">
<title>Node33&#45;&gt;Node38</title>
<path fill="none" stroke="#191970" d="M2198.0625,-134.3906C2215.1088,-125.7976 2240.6236,-112.9356 2261.9856,-102.1671"/>
<polygon fill="#191970" stroke="#191970" points="2263.8014,-105.1714 2271.1554,-97.5446 2260.6503,-98.9207 2263.8014,-105.1714"/>
</g>
<!-- Node39 -->
<g id="node40" class="node">
<title>Node39</title>
<polygon fill="none" stroke="#bfbfbf" points="2364.5,-67.5 2364.5,-97.5 2455.5,-97.5 2455.5,-67.5 2364.5,-67.5"/>
<text text-anchor="start" x="2372.5" y="-85.5" font-family="Helvetica,sans-Serif" font-size="10.00" fill="#000000">deal.II/lac/lapack</text>
<text text-anchor="middle" x="2410" y="-74.5" font-family="Helvetica,sans-Serif" font-size="10.00" fill="#000000">_templates.h</text>
</g>
<!-- Node33&#45;&gt;Node39 -->
<g id="edge57" class="edge">
<title>Node33&#45;&gt;Node39</title>
<path fill="none" stroke="#191970" d="M2216.7093,-134.4937C2250.4909,-125.9121 2301.6366,-112.7596 2354.4755,-98.386"/>
<polygon fill="#191970" stroke="#191970" points="2355.6321,-101.6984 2364.3576,-95.6887 2353.7889,-94.9454 2355.6321,-101.6984"/>
</g>
<!-- Node40 -->
<g id="node41" class="node">
<title>Node40</title>
<polygon fill="none" stroke="#bfbfbf" points="2474,-67.5 2474,-97.5 2566,-97.5 2566,-67.5 2474,-67.5"/>
<text text-anchor="start" x="2482" y="-85.5" font-family="Helvetica,sans-Serif" font-size="10.00" fill="#000000">deal.II/lac/sparse</text>
<text text-anchor="middle" x="2520" y="-74.5" font-family="Helvetica,sans-Serif" font-size="10.00" fill="#000000">_matrix.h</text>
</g>
<!-- Node33&#45;&gt;Node40 -->
<g id="edge58" class="edge">
<title>Node33&#45;&gt;Node40</title>
<path fill="none" stroke="#191970" d="M2224.0638,-135.5533C2227.0863,-135.0181 2230.0862,-134.4958 2233,-134 2332.7527,-117.0279 2361.3274,-119.9881 2464.0468,-98.0593"/>
<polygon fill="#191970" stroke="#191970" points="2464.8538,-101.4657 2473.8882,-95.9314 2463.3744,-94.6238 2464.8538,-101.4657"/>
</g>
<!-- Node41 -->
<g id="node42" class="node">
<title>Node41</title>
<polygon fill="none" stroke="#bfbfbf" points="2584.5,-73 2584.5,-92 2685.5,-92 2685.5,-73 2584.5,-73"/>
<text text-anchor="middle" x="2635" y="-80" font-family="Helvetica,sans-Serif" font-size="10.00" fill="#000000">deal.II/lac/utilities.h</text>
</g>
<!-- Node33&#45;&gt;Node41 -->
<g id="edge59" class="edge">
<title>Node33&#45;&gt;Node41</title>
<path fill="none" stroke="#191970" d="M2224.0376,-135.3873C2227.0664,-134.8922 2230.0749,-134.4241 2233,-134 2384.258,-112.068 2424.5979,-125.1886 2575,-98 2580.4259,-97.0192 2586.0839,-95.8098 2591.6638,-94.5028"/>
<polygon fill="#191970" stroke="#191970" points="2592.6797,-97.8574 2601.5561,-92.0729 2591.0098,-91.0595 2592.6797,-97.8574"/>
</g>
<!-- Node42 -->
<g id="node43" class="node">
<title>Node42</title>
<polygon fill="none" stroke="#bfbfbf" points="2704,-73 2704,-92 2802,-92 2802,-73 2704,-73"/>
<text text-anchor="middle" x="2753" y="-80" font-family="Helvetica,sans-Serif" font-size="10.00" fill="#000000">deal.II/lac/vector.h</text>
</g>
<!-- Node33&#45;&gt;Node42 -->
<g id="edge60" class="edge">
<title>Node33&#45;&gt;Node42</title>
<path fill="none" stroke="#191970" d="M2224.0249,-135.2953C2227.0568,-134.8224 2230.0694,-134.3844 2233,-134 2437.2062,-107.2117 2491.9941,-132.7328 2695,-98 2700.4578,-97.0662 2706.1482,-95.8525 2711.7395,-94.5152"/>
<polygon fill="#191970" stroke="#191970" points="2712.7924,-97.8591 2721.6253,-92.0085 2711.0718,-91.0738 2712.7924,-97.8591"/>
</g>
<!-- Node43 -->
<g id="node44" class="node">
<title>Node43</title>
<g id="a_node44"><a xlink:href="lapack__templates__ext_8h.html" target="_top" xlink:title="Append more template based LAPACK functions to those existing in deal.ii. ">
<polygon fill="none" stroke="#000000" points="1559,-73 1559,-92 1679,-92 1679,-73 1559,-73"/>
<text text-anchor="middle" x="1619" y="-80" font-family="Helvetica,sans-Serif" font-size="10.00" fill="#000000">lapack_templates_ext.h</text>
</a>
</g>
</g>
<!-- Node33&#45;&gt;Node43 -->
<g id="edge61" class="edge">
<title>Node33&#45;&gt;Node43</title>
<path fill="none" stroke="#191970" d="M2133.7419,-141.6945C2046.8898,-136.8431 1850.9909,-123.8339 1688,-98 1681.3192,-96.9411 1674.3181,-95.6201 1667.4441,-94.1988"/>
<polygon fill="#191970" stroke="#191970" points="1668.0284,-90.7445 1657.516,-92.0636 1666.5565,-97.588 1668.0284,-90.7445"/>
</g>
<!-- Node43&#45;&gt;Node32 -->
<g id="edge62" class="edge">
<title>Node43&#45;&gt;Node32</title>
<path fill="none" stroke="#191970" d="M1619,-72.9005C1619,-64.5099 1619,-51.9451 1619,-40.7085"/>
<polygon fill="#191970" stroke="#191970" points="1622.5001,-40.5217 1619,-30.5218 1615.5001,-40.5218 1622.5001,-40.5217"/>
</g>
</g>
</svg>
