<?xml version="1.0" encoding="UTF-8" standalone="no"?>
<!DOCTYPE svg PUBLIC "-//W3C//DTD SVG 1.1//EN"
 "http://www.w3.org/Graphics/SVG/1.1/DTD/svg11.dtd">
<!-- Generated by graphviz version 2.40.1 (20161225.0304)
 -->
<!-- Title: /home/jihuan/Projects/deal.ii/program/dealii&#45;9.1.1/examples/laplace&#45;bem/include/block_cluster.h Pages: 1 -->
<!--zoomable 285 -->
<svg id="main" version="1.1" xmlns="http://www.w3.org/2000/svg" xmlns:xlink="http://www.w3.org/1999/xlink" xml:space="preserve" onload="init(evt)">
<style type="text/css"><![CDATA[
.edge:hover path { stroke: red; }
.edge:hover polygon { stroke: red; fill: red; }
]]></style>
<script type="text/javascript"><![CDATA[
var edges = document.getElementsByTagName('g');
if (edges && edges.length) {
  for (var i=0;i<edges.length;i++) {
    if (edges[i].id.substr(0,4)=='edge') {
      edges[i].setAttribute('class','edge');
    }
  }
}
]]></script>
        <defs>
                <circle id="rim" cx="0" cy="0" r="7"/>
                <circle id="rim2" cx="0" cy="0" r="3.5"/>
                <g id="zoomPlus">
                        <use xlink:href="#rim" fill="#404040">
                                <set attributeName="fill" to="#808080" begin="zoomplus.mouseover" end="zoomplus.mouseout"/>
                        </use>
                        <path d="M-4,0h8M0,-4v8" fill="none" stroke="white" stroke-width="1.5" pointer-events="none"/>
                </g>
                <g id="zoomMin">
                        <use xlink:href="#rim" fill="#404040">
                                <set attributeName="fill" to="#808080" begin="zoomminus.mouseover" end="zoomminus.mouseout"/>
                        </use>
                        <path d="M-4,0h8" fill="none" stroke="white" stroke-width="1.5" pointer-events="none"/>
                </g>
                <g id="dirArrow">
                        <path fill="none" stroke="white" stroke-width="1.5" d="M0,-3.0v7 M-2.5,-0.5L0,-3.0L2.5,-0.5"/>
                </g>
               <g id="resetDef">
                       <use xlink:href="#rim2" fill="#404040">
                               <set attributeName="fill" to="#808080" begin="reset.mouseover" end="reset.mouseout"/>
                       </use>
               </g>
        </defs>

<script type="text/javascript">
var viewWidth = 1466;
var viewHeight = 285;
var sectionId = 'dynsection-0';
</script>
<script xlink:href="svgpan.js"/>
<svg id="graph" class="graph">
<g id="viewport">
<title>/home/jihuan/Projects/deal.ii/program/dealii&#45;9.1.1/examples/laplace&#45;bem/include/block_cluster.h</title>
<!-- Node0 -->
<g id="node1" class="node">
<title>Node0</title>
<polygon fill="#bfbfbf" stroke="#000000" points="395.5,-224.5 395.5,-276.5 536.5,-276.5 536.5,-224.5 395.5,-224.5"/>
<text text-anchor="start" x="403.5" y="-264.5" font-family="Helvetica,sans-Serif" font-size="10.00" fill="#000000">/home/jihuan/Projects</text>
<text text-anchor="start" x="403.5" y="-253.5" font-family="Helvetica,sans-Serif" font-size="10.00" fill="#000000">/deal.ii/program/dealii</text>
<text text-anchor="start" x="403.5" y="-242.5" font-family="Helvetica,sans-Serif" font-size="10.00" fill="#000000">&#45;9.1.1/examples/laplace</text>
<text text-anchor="middle" x="466" y="-231.5" font-family="Helvetica,sans-Serif" font-size="10.00" fill="#000000">&#45;bem/include/block_cluster.h</text>
</g>
<!-- Node1 -->
<g id="node2" class="node">
<title>Node1</title>
<g id="a_node2"><a xlink:href="cluster_8h.html" target="_top" xlink:title="Implementation of the class Cluster. ">
<polygon fill="none" stroke="#000000" points="253,-112.5 253,-131.5 307,-131.5 307,-112.5 253,-112.5"/>
<text text-anchor="middle" x="280" y="-119.5" font-family="Helvetica,sans-Serif" font-size="10.00" fill="#000000">cluster.h</text>
</a>
</g>
</g>
<!-- Node0&#45;&gt;Node1 -->
<g id="edge1" class="edge">
<title>Node0&#45;&gt;Node1</title>
<path fill="none" stroke="#191970" d="M428.3601,-224.4961C390.4871,-198.3312 333.3556,-158.8613 302.1962,-137.3345"/>
<polygon fill="#191970" stroke="#191970" points="303.9884,-134.3186 293.7715,-131.5142 300.0095,-140.0779 303.9884,-134.3186"/>
</g>
<!-- Node12 -->
<g id="node13" class="node">
<title>Node12</title>
<g id="a_node13"><a xlink:href="cluster__tree_8h_source.html" target="_top" xlink:title="cluster_tree.h">
<polygon fill="none" stroke="#000000" points="537,-168.5 537,-187.5 613,-187.5 613,-168.5 537,-168.5"/>
<text text-anchor="middle" x="575" y="-175.5" font-family="Helvetica,sans-Serif" font-size="10.00" fill="#000000">cluster_tree.h</text>
</a>
</g>
</g>
<!-- Node0&#45;&gt;Node12 -->
<g id="edge13" class="edge">
<title>Node0&#45;&gt;Node12</title>
<path fill="none" stroke="#191970" d="M505.3515,-224.3258C521.0081,-213.912 538.4765,-202.2931 552.0025,-193.2965"/>
<polygon fill="#191970" stroke="#191970" points="554.2781,-195.9865 560.6661,-187.534 550.4014,-190.158 554.2781,-195.9865"/>
</g>
<!-- Node2 -->
<g id="node3" class="node">
<title>Node2</title>
<polygon fill="none" stroke="#bfbfbf" points="110.5,-56.5 110.5,-75.5 213.5,-75.5 213.5,-56.5 110.5,-56.5"/>
<text text-anchor="middle" x="162" y="-63.5" font-family="Helvetica,sans-Serif" font-size="10.00" fill="#000000">deal.II/base/types.h</text>
</g>
<!-- Node1&#45;&gt;Node2 -->
<g id="edge2" class="edge">
<title>Node1&#45;&gt;Node2</title>
<path fill="none" stroke="#191970" d="M259.7151,-112.3733C240.8579,-103.4241 212.554,-89.9917 191.2545,-79.8835"/>
<polygon fill="#191970" stroke="#191970" points="192.5551,-76.6266 182.0202,-75.5011 189.5539,-82.9506 192.5551,-76.6266"/>
</g>
<!-- Node3 -->
<g id="node4" class="node">
<title>Node3</title>
<polygon fill="none" stroke="#bfbfbf" points="176,-.5 176,-19.5 232,-19.5 232,-.5 176,-.5"/>
<text text-anchor="middle" x="204" y="-7.5" font-family="Helvetica,sans-Serif" font-size="10.00" fill="#000000">algorithm</text>
</g>
<!-- Node1&#45;&gt;Node3 -->
<g id="edge3" class="edge">
<title>Node1&#45;&gt;Node3</title>
<path fill="none" stroke="#191970" d="M273.5203,-112.4509C260.8444,-93.7707 232.584,-52.1238 216.266,-28.0761"/>
<polygon fill="#191970" stroke="#191970" points="218.9745,-25.8344 210.4633,-19.5249 213.1822,-29.7649 218.9745,-25.8344"/>
</g>
<!-- Node4 -->
<g id="node5" class="node">
<title>Node4</title>
<polygon fill="none" stroke="#bfbfbf" points="45.5,-56.5 45.5,-75.5 92.5,-75.5 92.5,-56.5 45.5,-56.5"/>
<text text-anchor="middle" x="69" y="-63.5" font-family="Helvetica,sans-Serif" font-size="10.00" fill="#000000">iterator</text>
</g>
<!-- Node1&#45;&gt;Node4 -->
<g id="edge4" class="edge">
<title>Node1&#45;&gt;Node4</title>
<path fill="none" stroke="#191970" d="M252.8942,-115.4939C219.5842,-107.3992 161.1303,-92.8727 102.5121,-76.3416"/>
<polygon fill="#191970" stroke="#191970" points="103.3008,-72.9273 92.725,-73.5629 101.3888,-79.6611 103.3008,-72.9273"/>
</g>
<!-- Node5 -->
<g id="node6" class="node">
<title>Node5</title>
<polygon fill="none" stroke="#bfbfbf" points="250,-.5 250,-19.5 294,-19.5 294,-.5 250,-.5"/>
<text text-anchor="middle" x="272" y="-7.5" font-family="Helvetica,sans-Serif" font-size="10.00" fill="#000000">vector</text>
</g>
<!-- Node1&#45;&gt;Node5 -->
<g id="edge5" class="edge">
<title>Node1&#45;&gt;Node5</title>
<path fill="none" stroke="#191970" d="M279.3179,-112.4509C278.0131,-94.184 275.1397,-53.9553 273.407,-29.6976"/>
<polygon fill="#191970" stroke="#191970" points="276.884,-29.2501 272.6803,-19.5249 269.9018,-29.7489 276.884,-29.2501"/>
</g>
<!-- Node6 -->
<g id="node7" class="node">
<title>Node6</title>
<g id="a_node7"><a xlink:href="simple__bounding__box_8h_source.html" target="_top" xlink:title="simple_bounding_box.h">
<polygon fill="none" stroke="#000000" points="308.5,-56.5 308.5,-75.5 427.5,-75.5 427.5,-56.5 308.5,-56.5"/>
<text text-anchor="middle" x="368" y="-63.5" font-family="Helvetica,sans-Serif" font-size="10.00" fill="#000000">simple_bounding_box.h</text>
</a>
</g>
</g>
<!-- Node1&#45;&gt;Node6 -->
<g id="edge6" class="edge">
<title>Node1&#45;&gt;Node6</title>
<path fill="none" stroke="#191970" d="M295.3284,-112.2455C308.8303,-103.6534 328.7122,-91.0014 344.2686,-81.1018"/>
<polygon fill="#191970" stroke="#191970" points="346.2897,-83.9643 352.8472,-75.6427 342.5315,-78.0587 346.2897,-83.9643"/>
</g>
<!-- Node6&#45;&gt;Node5 -->
<g id="edge12" class="edge">
<title>Node6&#45;&gt;Node5</title>
<path fill="none" stroke="#191970" d="M351.2781,-56.2455C336.4111,-47.5731 314.4534,-34.7645 297.4142,-24.825"/>
<polygon fill="#191970" stroke="#191970" points="298.9317,-21.6582 288.5303,-19.6427 295.4045,-27.7047 298.9317,-21.6582"/>
</g>
<!-- Node7 -->
<g id="node8" class="node">
<title>Node7</title>
<polygon fill="none" stroke="#bfbfbf" points="58,-.5 58,-19.5 158,-19.5 158,-.5 58,-.5"/>
<text text-anchor="middle" x="108" y="-7.5" font-family="Helvetica,sans-Serif" font-size="10.00" fill="#000000">deal.II/base/point.h</text>
</g>
<!-- Node6&#45;&gt;Node7 -->
<g id="edge7" class="edge">
<title>Node6&#45;&gt;Node7</title>
<path fill="none" stroke="#191970" d="M323.5998,-56.4369C278.9159,-46.8127 209.943,-31.957 162.0912,-21.6504"/>
<polygon fill="#191970" stroke="#191970" points="162.7298,-18.2078 152.217,-19.5237 161.2559,-25.0508 162.7298,-18.2078"/>
</g>
<!-- Node8 -->
<g id="node9" class="node">
<title>Node8</title>
<polygon fill="none" stroke="#bfbfbf" points="312.5,-.5 312.5,-19.5 439.5,-19.5 439.5,-.5 312.5,-.5"/>
<text text-anchor="middle" x="376" y="-7.5" font-family="Helvetica,sans-Serif" font-size="10.00" fill="#000000">deal.II/dofs/dof_handler.h</text>
</g>
<!-- Node6&#45;&gt;Node8 -->
<g id="edge8" class="edge">
<title>Node6&#45;&gt;Node8</title>
<path fill="none" stroke="#191970" d="M369.3935,-56.2455C370.4374,-48.9382 371.9008,-38.6944 373.1851,-29.7046"/>
<polygon fill="#191970" stroke="#191970" points="376.673,-30.0372 374.6225,-19.6427 369.7434,-29.0472 376.673,-30.0372"/>
</g>
<!-- Node9 -->
<g id="node10" class="node">
<title>Node9</title>
<polygon fill="none" stroke="#bfbfbf" points="458,-.5 458,-19.5 574,-19.5 574,-.5 458,-.5"/>
<text text-anchor="middle" x="516" y="-7.5" font-family="Helvetica,sans-Serif" font-size="10.00" fill="#000000">deal.II/dofs/dof_tools.h</text>
</g>
<!-- Node6&#45;&gt;Node9 -->
<g id="edge9" class="edge">
<title>Node6&#45;&gt;Node9</title>
<path fill="none" stroke="#191970" d="M393.4421,-56.3733C417.7326,-47.1822 454.5208,-33.2624 481.4543,-23.0713"/>
<polygon fill="#191970" stroke="#191970" points="482.7757,-26.3136 490.8899,-19.5011 480.2984,-19.7666 482.7757,-26.3136"/>
</g>
<!-- Node10 -->
<g id="node11" class="node">
<title>Node10</title>
<polygon fill="none" stroke="#bfbfbf" points="592.5,-.5 592.5,-19.5 695.5,-19.5 695.5,-.5 592.5,-.5"/>
<text text-anchor="middle" x="644" y="-7.5" font-family="Helvetica,sans-Serif" font-size="10.00" fill="#000000">deal.II/fe/mapping.h</text>
</g>
<!-- Node6&#45;&gt;Node10 -->
<g id="edge10" class="edge">
<title>Node6&#45;&gt;Node10</title>
<path fill="none" stroke="#191970" d="M415.1325,-56.4369C462.7647,-46.7724 536.3967,-31.8326 587.2166,-21.5213"/>
<polygon fill="#191970" stroke="#191970" points="587.9576,-24.9423 597.0619,-19.5237 586.5656,-18.0821 587.9576,-24.9423"/>
</g>
<!-- Node11 -->
<g id="node12" class="node">
<title>Node11</title>
<polygon fill="none" stroke="#bfbfbf" points="0,-.5 0,-19.5 40,-19.5 40,-.5 0,-.5"/>
<text text-anchor="middle" x="20" y="-7.5" font-family="Helvetica,sans-Serif" font-size="10.00" fill="#000000">utility</text>
</g>
<!-- Node6&#45;&gt;Node11 -->
<g id="edge11" class="edge">
<title>Node6&#45;&gt;Node11</title>
<path fill="none" stroke="#191970" d="M308.2749,-60.7877C245.8424,-54.5792 145.0214,-42.4121 49.9136,-19.8498"/>
<polygon fill="#191970" stroke="#191970" points="50.6789,-16.4341 40.1366,-17.4883 49.0353,-23.2384 50.6789,-16.4341"/>
</g>
<!-- Node12&#45;&gt;Node1 -->
<g id="edge14" class="edge">
<title>Node12&#45;&gt;Node1</title>
<path fill="none" stroke="#191970" d="M536.7363,-170.7364C479.7922,-159.9266 373.4303,-139.7359 317.1427,-129.0508"/>
<polygon fill="#191970" stroke="#191970" points="317.7159,-125.5972 307.2385,-127.1707 316.4103,-132.4744 317.7159,-125.5972"/>
</g>
<!-- Node13 -->
<g id="node14" class="node">
<title>Node13</title>
<g id="a_node14"><a xlink:href="debug__tools_8h.html" target="_top" xlink:title="This file includes a bunch of helper functions for printing out and visualizing information about gri...">
<polygon fill="none" stroke="#000000" points="650.5,-56.5 650.5,-75.5 727.5,-75.5 727.5,-56.5 650.5,-56.5"/>
<text text-anchor="middle" x="689" y="-63.5" font-family="Helvetica,sans-Serif" font-size="10.00" fill="#000000">debug_tools.h</text>
</a>
</g>
</g>
<!-- Node12&#45;&gt;Node13 -->
<g id="edge15" class="edge">
<title>Node12&#45;&gt;Node13</title>
<path fill="none" stroke="#191970" d="M584.7196,-168.4509C604.0699,-149.4401 647.6319,-106.6423 671.8837,-82.816"/>
<polygon fill="#191970" stroke="#191970" points="674.6245,-85.0298 679.305,-75.5249 669.7187,-80.0364 674.6245,-85.0298"/>
</g>
<!-- Node18 -->
<g id="node19" class="node">
<title>Node18</title>
<g id="a_node19"><a xlink:href="tree_8h.html" target="_top" xlink:title="Implementation of the classes for binary tree node, general tree node and functions for manipulating ...">
<polygon fill="none" stroke="#000000" points="1076.5,-56.5 1076.5,-75.5 1117.5,-75.5 1117.5,-56.5 1076.5,-56.5"/>
<text text-anchor="middle" x="1097" y="-63.5" font-family="Helvetica,sans-Serif" font-size="10.00" fill="#000000">tree.h</text>
</a>
</g>
</g>
<!-- Node12&#45;&gt;Node18 -->
<g id="edge23" class="edge">
<title>Node12&#45;&gt;Node18</title>
<path fill="none" stroke="#191970" d="M613.3839,-169.7644C712.6958,-148.4561 976.6018,-91.8326 1066.5058,-72.5428"/>
<polygon fill="#191970" stroke="#191970" points="1067.3022,-75.9517 1076.3454,-70.4316 1065.8336,-69.1075 1067.3022,-75.9517"/>
</g>
<!-- Node13&#45;&gt;Node8 -->
<g id="edge16" class="edge">
<title>Node13&#45;&gt;Node8</title>
<path fill="none" stroke="#191970" d="M650.3061,-59.0771C597.5193,-49.6328 502.29,-32.595 439.0984,-21.2892"/>
<polygon fill="#191970" stroke="#191970" points="439.7031,-17.8419 429.243,-19.5259 438.4702,-24.7324 439.7031,-17.8419"/>
</g>
<!-- Node13&#45;&gt;Node9 -->
<g id="edge17" class="edge">
<title>Node13&#45;&gt;Node9</title>
<path fill="none" stroke="#191970" d="M659.2602,-56.3733C630.493,-47.0613 586.73,-32.8953 555.1444,-22.671"/>
<polygon fill="#191970" stroke="#191970" points="555.9436,-19.251 545.3517,-19.5011 553.7878,-25.9107 555.9436,-19.251"/>
</g>
<!-- Node13&#45;&gt;Node10 -->
<g id="edge20" class="edge">
<title>Node13&#45;&gt;Node10</title>
<path fill="none" stroke="#191970" d="M681.1616,-56.2455C674.838,-48.3761 665.7776,-37.101 658.1864,-27.6542"/>
<polygon fill="#191970" stroke="#191970" points="660.7408,-25.2454 651.7486,-19.6427 655.2842,-29.6302 660.7408,-25.2454"/>
</g>
<!-- Node14 -->
<g id="node15" class="node">
<title>Node14</title>
<polygon fill="none" stroke="#bfbfbf" points="773,-.5 773,-19.5 847,-19.5 847,-.5 773,-.5"/>
<text text-anchor="middle" x="810" y="-7.5" font-family="Helvetica,sans-Serif" font-size="10.00" fill="#000000">deal.II/fe/fe.h</text>
</g>
<!-- Node13&#45;&gt;Node14 -->
<g id="edge18" class="edge">
<title>Node13&#45;&gt;Node14</title>
<path fill="none" stroke="#191970" d="M709.8006,-56.3733C729.2243,-47.3838 758.4224,-33.8706 780.2964,-23.7471"/>
<polygon fill="#191970" stroke="#191970" points="781.8656,-26.8776 789.4708,-19.5011 778.9255,-20.5249 781.8656,-26.8776"/>
</g>
<!-- Node15 -->
<g id="node16" class="node">
<title>Node15</title>
<polygon fill="none" stroke="#bfbfbf" points="865,-.5 865,-19.5 977,-19.5 977,-.5 865,-.5"/>
<text text-anchor="middle" x="921" y="-7.5" font-family="Helvetica,sans-Serif" font-size="10.00" fill="#000000">deal.II/fe/fe_system.h</text>
</g>
<!-- Node13&#45;&gt;Node15 -->
<g id="edge19" class="edge">
<title>Node13&#45;&gt;Node15</title>
<path fill="none" stroke="#191970" d="M727.5705,-56.6899C767.0539,-47.1594 828.563,-32.3124 871.5897,-21.9266"/>
<polygon fill="#191970" stroke="#191970" points="872.6612,-25.2686 881.5607,-19.5198 871.0186,-18.464 872.6612,-25.2686"/>
</g>
<!-- Node16 -->
<g id="node17" class="node">
<title>Node16</title>
<polygon fill="none" stroke="#bfbfbf" points="995,-.5 995,-19.5 1049,-19.5 1049,-.5 995,-.5"/>
<text text-anchor="middle" x="1022" y="-7.5" font-family="Helvetica,sans-Serif" font-size="10.00" fill="#000000">iostream</text>
</g>
<!-- Node13&#45;&gt;Node16 -->
<g id="edge21" class="edge">
<title>Node13&#45;&gt;Node16</title>
<path fill="none" stroke="#191970" d="M727.711,-61.4771C782.7645,-54.7239 886.9738,-40.7578 984.8935,-20.0369"/>
<polygon fill="#191970" stroke="#191970" points="985.9142,-23.3977 994.9577,-17.8782 984.446,-16.5533 985.9142,-23.3977"/>
</g>
<!-- Node17 -->
<g id="node18" class="node">
<title>Node17</title>
<polygon fill="none" stroke="#bfbfbf" points="713.5,-.5 713.5,-19.5 754.5,-19.5 754.5,-.5 713.5,-.5"/>
<text text-anchor="middle" x="734" y="-7.5" font-family="Helvetica,sans-Serif" font-size="10.00" fill="#000000">string</text>
</g>
<!-- Node13&#45;&gt;Node17 -->
<g id="edge22" class="edge">
<title>Node13&#45;&gt;Node17</title>
<path fill="none" stroke="#191970" d="M696.8384,-56.2455C703.162,-48.3761 712.2224,-37.101 719.8136,-27.6542"/>
<polygon fill="#191970" stroke="#191970" points="722.7158,-29.6302 726.2514,-19.6427 717.2592,-25.2454 722.7158,-29.6302"/>
</g>
<!-- Node18&#45;&gt;Node3 -->
<g id="edge25" class="edge">
<title>Node18&#45;&gt;Node3</title>
<path fill="none" stroke="#191970" d="M1076.4318,-65.482C964.7134,-62.5808 429.2899,-47.5381 242.1215,-19.8062"/>
<polygon fill="#191970" stroke="#191970" points="242.5666,-16.3335 232.1489,-18.2626 241.4958,-23.2512 242.5666,-16.3335"/>
</g>
<!-- Node18&#45;&gt;Node5 -->
<g id="edge31" class="edge">
<title>Node18&#45;&gt;Node5</title>
<path fill="none" stroke="#191970" d="M1076.4937,-65.5172C969.897,-62.9027 477.6584,-49.5174 304.1595,-19.7011"/>
<polygon fill="#191970" stroke="#191970" points="304.6387,-16.2311 294.176,-17.8996 303.3956,-23.1198 304.6387,-16.2311"/>
</g>
<!-- Node18&#45;&gt;Node16 -->
<g id="edge29" class="edge">
<title>Node18&#45;&gt;Node16</title>
<path fill="none" stroke="#191970" d="M1083.936,-56.2455C1072.6438,-47.814 1056.1155,-35.4729 1042.9729,-25.6598"/>
<polygon fill="#191970" stroke="#191970" points="1045.0211,-22.8211 1034.9143,-19.6427 1040.8331,-28.4301 1045.0211,-22.8211"/>
</g>
<!-- Node19 -->
<g id="node20" class="node">
<title>Node19</title>
<polygon fill="none" stroke="#bfbfbf" points="1198,-.5 1198,-19.5 1324,-19.5 1324,-.5 1198,-.5"/>
<text text-anchor="middle" x="1261" y="-7.5" font-family="Helvetica,sans-Serif" font-size="10.00" fill="#000000">deal.II/base/exceptions.h</text>
</g>
<!-- Node18&#45;&gt;Node19 -->
<g id="edge24" class="edge">
<title>Node18&#45;&gt;Node19</title>
<path fill="none" stroke="#191970" d="M1117.7707,-58.9076C1144.2504,-49.8657 1190.5214,-34.0659 1223.2988,-22.8736"/>
<polygon fill="#191970" stroke="#191970" points="1224.6685,-26.1044 1233.001,-19.5606 1222.4065,-19.4799 1224.6685,-26.1044"/>
</g>
<!-- Node20 -->
<g id="node21" class="node">
<title>Node20</title>
<polygon fill="none" stroke="#bfbfbf" points="1342,-.5 1342,-19.5 1380,-19.5 1380,-.5 1342,-.5"/>
<text text-anchor="middle" x="1361" y="-7.5" font-family="Helvetica,sans-Serif" font-size="10.00" fill="#000000">array</text>
</g>
<!-- Node18&#45;&gt;Node20 -->
<g id="edge26" class="edge">
<title>Node18&#45;&gt;Node20</title>
<path fill="none" stroke="#191970" d="M1117.7602,-63.0304C1157.615,-57.1026 1247.6854,-42.6107 1332.1093,-19.9299"/>
<polygon fill="#191970" stroke="#191970" points="1333.1177,-23.2828 1341.8419,-17.2712 1331.273,-16.5302 1333.1177,-23.2828"/>
</g>
<!-- Node21 -->
<g id="node22" class="node">
<title>Node21</title>
<polygon fill="none" stroke="#bfbfbf" points="1398.5,-.5 1398.5,-19.5 1457.5,-19.5 1457.5,-.5 1398.5,-.5"/>
<text text-anchor="middle" x="1428" y="-7.5" font-family="Helvetica,sans-Serif" font-size="10.00" fill="#000000">exception</text>
</g>
<!-- Node18&#45;&gt;Node21 -->
<g id="edge27" class="edge">
<title>Node18&#45;&gt;Node21</title>
<path fill="none" stroke="#191970" d="M1117.6541,-63.4311C1164.1321,-57.5058 1280.6363,-41.8469 1388.2106,-19.9998"/>
<polygon fill="#191970" stroke="#191970" points="1389.1661,-23.3767 1398.2571,-17.9357 1387.7573,-16.5199 1389.1661,-23.3767"/>
</g>
<!-- Node22 -->
<g id="node23" class="node">
<title>Node22</title>
<polygon fill="none" stroke="#bfbfbf" points="1067.5,-.5 1067.5,-19.5 1126.5,-19.5 1126.5,-.5 1067.5,-.5"/>
<text text-anchor="middle" x="1097" y="-7.5" font-family="Helvetica,sans-Serif" font-size="10.00" fill="#000000">functional</text>
</g>
<!-- Node18&#45;&gt;Node22 -->
<g id="edge28" class="edge">
<title>Node18&#45;&gt;Node22</title>
<path fill="none" stroke="#191970" d="M1097,-56.2455C1097,-48.9382 1097,-38.6944 1097,-29.7046"/>
<polygon fill="#191970" stroke="#191970" points="1100.5001,-29.6426 1097,-19.6427 1093.5001,-29.6427 1100.5001,-29.6426"/>
</g>
<!-- Node23 -->
<g id="node24" class="node">
<title>Node23</title>
<polygon fill="none" stroke="#bfbfbf" points="1144.5,-.5 1144.5,-19.5 1179.5,-19.5 1179.5,-.5 1144.5,-.5"/>
<text text-anchor="middle" x="1162" y="-7.5" font-family="Helvetica,sans-Serif" font-size="10.00" fill="#000000">new</text>
</g>
<!-- Node18&#45;&gt;Node23 -->
<g id="edge30" class="edge">
<title>Node18&#45;&gt;Node23</title>
<path fill="none" stroke="#191970" d="M1108.3221,-56.2455C1117.9223,-47.9746 1131.8892,-35.9416 1143.1695,-26.2232"/>
<polygon fill="#191970" stroke="#191970" points="1145.516,-28.8214 1150.8076,-19.6427 1140.947,-23.5182 1145.516,-28.8214"/>
</g>
</g>
</svg>
        <g id="navigator" transform="translate(0 0)" fill="#404254">
                <rect fill="#f2f5e9" fill-opacity="0.5" stroke="#606060" stroke-width=".5" x="0" y="0" width="60" height="60"/>
                <use id="zoomplus" xlink:href="#zoomPlus" x="17" y="9" onmousedown="handleZoom(evt,'in')"/>
                <use id="zoomminus" xlink:href="#zoomMin" x="42" y="9" onmousedown="handleZoom(evt,'out')"/>
                <use id="reset" xlink:href="#resetDef" x="30" y="36" onmousedown="handleReset()"/>
                <g id="arrowUp" xlink:href="#dirArrow" transform="translate(30 24)" onmousedown="handlePan(0,-1)">
                  <use xlink:href="#rim" fill="#404040">
                        <set attributeName="fill" to="#808080" begin="arrowUp.mouseover" end="arrowUp.mouseout"/>
                  </use>
                  <path fill="none" stroke="white" stroke-width="1.5" d="M0,-3.0v7 M-2.5,-0.5L0,-3.0L2.5,-0.5"/>
                </g>
                <g id="arrowRight" xlink:href="#dirArrow" transform="rotate(90) translate(36 -43)" onmousedown="handlePan(1,0)">
                  <use xlink:href="#rim" fill="#404040">
                        <set attributeName="fill" to="#808080" begin="arrowRight.mouseover" end="arrowRight.mouseout"/>
                  </use>
                  <path fill="none" stroke="white" stroke-width="1.5" d="M0,-3.0v7 M-2.5,-0.5L0,-3.0L2.5,-0.5"/>
                </g>
                <g id="arrowDown" xlink:href="#dirArrow" transform="rotate(180) translate(-30 -48)" onmousedown="handlePan(0,1)">
                  <use xlink:href="#rim" fill="#404040">
                        <set attributeName="fill" to="#808080" begin="arrowDown.mouseover" end="arrowDown.mouseout"/>
                  </use>
                  <path fill="none" stroke="white" stroke-width="1.5" d="M0,-3.0v7 M-2.5,-0.5L0,-3.0L2.5,-0.5"/>
                </g>
                <g id="arrowLeft" xlink:href="#dirArrow" transform="rotate(270) translate(-36 17)" onmousedown="handlePan(-1,0)">
                  <use xlink:href="#rim" fill="#404040">
                        <set attributeName="fill" to="#808080" begin="arrowLeft.mouseover" end="arrowLeft.mouseout"/>
                  </use>
                  <path fill="none" stroke="white" stroke-width="1.5" d="M0,-3.0v7 M-2.5,-0.5L0,-3.0L2.5,-0.5"/>
                </g>
        </g>
        <svg viewBox="0 0 15 15" width="100%" height="30px" preserveAspectRatio="xMaxYMin meet">
         <g id="arrow_out" transform="scale(0.3 0.3)">
          <a xlink:href="block__cluster_8h__incl_org.svg" target="_base">
           <rect id="button" ry="5" rx="5" y="6" x="6" height="38" width="38"
                fill="#f2f5e9" fill-opacity="0.5" stroke="#606060" stroke-width="1.0"/>
           <path id="arrow"
             d="M 11.500037,31.436501 C 11.940474,20.09759 22.043105,11.32322 32.158766,21.979434 L 37.068811,17.246167 C 37.068811,17.246167 37.088388,32 37.088388,32 L 22.160133,31.978069 C 22.160133,31.978069 26.997745,27.140456 26.997745,27.140456 C 18.528582,18.264221 13.291696,25.230495 11.500037,31.436501 z"
             style="fill:#404040;"/>
          </a>
         </g>
        </svg>
</svg>
