<?xml version="1.0" encoding="UTF-8" standalone="no"?>
<!DOCTYPE svg PUBLIC "-//W3C//DTD SVG 1.1//EN"
 "http://www.w3.org/Graphics/SVG/1.1/DTD/svg11.dtd">
<!-- Generated by graphviz version 2.40.1 (20161225.0304)
 -->
<!-- Title: /home/jihuan/Projects/deal.ii/program/dealii&#45;9.1.1/examples/laplace&#45;bem/tests/block&#45;cluster&#45;tree/block&#45;cluster&#45;tree.cc Pages: 1 -->
<!--zoomable 441 -->
<svg id="main" version="1.1" xmlns="http://www.w3.org/2000/svg" xmlns:xlink="http://www.w3.org/1999/xlink" xml:space="preserve" onload="init(evt)">
<style type="text/css"><![CDATA[
.edge:hover path { stroke: red; }
.edge:hover polygon { stroke: red; fill: red; }
]]></style>
<script type="text/javascript"><![CDATA[
var edges = document.getElementsByTagName('g');
if (edges && edges.length) {
  for (var i=0;i<edges.length;i++) {
    if (edges[i].id.substr(0,4)=='edge') {
      edges[i].setAttribute('class','edge');
    }
  }
}
]]></script>
        <defs>
                <circle id="rim" cx="0" cy="0" r="7"/>
                <circle id="rim2" cx="0" cy="0" r="3.5"/>
                <g id="zoomPlus">
                        <use xlink:href="#rim" fill="#404040">
                                <set attributeName="fill" to="#808080" begin="zoomplus.mouseover" end="zoomplus.mouseout"/>
                        </use>
                        <path d="M-4,0h8M0,-4v8" fill="none" stroke="white" stroke-width="1.5" pointer-events="none"/>
                </g>
                <g id="zoomMin">
                        <use xlink:href="#rim" fill="#404040">
                                <set attributeName="fill" to="#808080" begin="zoomminus.mouseover" end="zoomminus.mouseout"/>
                        </use>
                        <path d="M-4,0h8" fill="none" stroke="white" stroke-width="1.5" pointer-events="none"/>
                </g>
                <g id="dirArrow">
                        <path fill="none" stroke="white" stroke-width="1.5" d="M0,-3.0v7 M-2.5,-0.5L0,-3.0L2.5,-0.5"/>
                </g>
               <g id="resetDef">
                       <use xlink:href="#rim2" fill="#404040">
                               <set attributeName="fill" to="#808080" begin="reset.mouseover" end="reset.mouseout"/>
                       </use>
               </g>
        </defs>

<script type="text/javascript">
var viewWidth = 2667;
var viewHeight = 441;
var sectionId = 'dynsection-0';
</script>
<script xlink:href="svgpan.js"/>
<svg id="graph" class="graph">
<g id="viewport">
<title>/home/jihuan/Projects/deal.ii/program/dealii&#45;9.1.1/examples/laplace&#45;bem/tests/block&#45;cluster&#45;tree/block&#45;cluster&#45;tree.cc</title>
<!-- Node0 -->
<g id="node1" class="node">
<title>Node0</title>
<polygon fill="#bfbfbf" stroke="#000000" points="1775,-369.5 1775,-432.5 1903,-432.5 1903,-369.5 1775,-369.5"/>
<text text-anchor="start" x="1783" y="-420.5" font-family="Helvetica,sans-Serif" font-size="10.00" fill="#000000">/home/jihuan/Projects</text>
<text text-anchor="start" x="1783" y="-409.5" font-family="Helvetica,sans-Serif" font-size="10.00" fill="#000000">/deal.ii/program/dealii</text>
<text text-anchor="start" x="1783" y="-398.5" font-family="Helvetica,sans-Serif" font-size="10.00" fill="#000000">&#45;9.1.1/examples/laplace</text>
<text text-anchor="start" x="1783" y="-387.5" font-family="Helvetica,sans-Serif" font-size="10.00" fill="#000000">&#45;bem/tests/block&#45;cluster</text>
<text text-anchor="middle" x="1839" y="-376.5" font-family="Helvetica,sans-Serif" font-size="10.00" fill="#000000">&#45;tree/block&#45;cluster&#45;tree.cc</text>
</g>
<!-- Node1 -->
<g id="node2" class="node">
<title>Node1</title>
<polygon fill="none" stroke="#bfbfbf" points="0,-308 0,-327 122,-327 122,-308 0,-308"/>
<text text-anchor="middle" x="61" y="-315" font-family="Helvetica,sans-Serif" font-size="10.00" fill="#000000">deal.II/base/logstream.h</text>
</g>
<!-- Node0&#45;&gt;Node1 -->
<g id="edge1" class="edge">
<title>Node0&#45;&gt;Node1</title>
<path fill="none" stroke="#191970" d="M1774.5691,-399.8414C1504.4489,-394.766 462.192,-372.9454 136,-333 127.8372,-332.0004 119.2407,-330.579 110.8966,-328.998"/>
<polygon fill="#191970" stroke="#191970" points="111.3806,-325.5258 100.8899,-327.008 110.0152,-332.3913 111.3806,-325.5258"/>
</g>
<!-- Node2 -->
<g id="node3" class="node">
<title>Node2</title>
<polygon fill="none" stroke="#bfbfbf" points="105,-.5 105,-19.5 205,-19.5 205,-.5 105,-.5"/>
<text text-anchor="middle" x="155" y="-7.5" font-family="Helvetica,sans-Serif" font-size="10.00" fill="#000000">deal.II/base/point.h</text>
</g>
<!-- Node0&#45;&gt;Node2 -->
<g id="edge2" class="edge">
<title>Node0&#45;&gt;Node2</title>
<path fill="none" stroke="#191970" d="M1774.8516,-398.7103C1466.3355,-387.2853 150,-333.6654 150,-250.5 150,-250.5 150,-250.5 150,-127.5 150,-93.1088 152.1646,-53.1067 153.6453,-29.7654"/>
<polygon fill="#191970" stroke="#191970" points="157.1405,-29.9512 154.3048,-19.743 150.1556,-29.4916 157.1405,-29.9512"/>
</g>
<!-- Node3 -->
<g id="node4" class="node">
<title>Node3</title>
<polygon fill="none" stroke="#bfbfbf" points="1867.5,-308 1867.5,-327 1952.5,-327 1952.5,-308 1867.5,-308"/>
<text text-anchor="middle" x="1910" y="-315" font-family="Helvetica,sans-Serif" font-size="10.00" fill="#000000">deal.II/fe/fe_q.h</text>
</g>
<!-- Node0&#45;&gt;Node3 -->
<g id="edge3" class="edge">
<title>Node0&#45;&gt;Node3</title>
<path fill="none" stroke="#191970" d="M1865.8421,-369.4322C1875.7821,-357.7421 1886.6867,-344.9178 1895.1726,-334.9379"/>
<polygon fill="#191970" stroke="#191970" points="1897.8461,-337.1967 1901.6575,-327.3112 1892.5133,-332.6622 1897.8461,-337.1967"/>
</g>
<!-- Node4 -->
<g id="node5" class="node">
<title>Node4</title>
<polygon fill="none" stroke="#bfbfbf" points="1970.5,-302.5 1970.5,-332.5 2065.5,-332.5 2065.5,-302.5 1970.5,-302.5"/>
<text text-anchor="start" x="1978.5" y="-320.5" font-family="Helvetica,sans-Serif" font-size="10.00" fill="#000000">deal.II/fe/mapping</text>
<text text-anchor="middle" x="2018" y="-309.5" font-family="Helvetica,sans-Serif" font-size="10.00" fill="#000000">_q_generic.h</text>
</g>
<!-- Node0&#45;&gt;Node4 -->
<g id="edge4" class="edge">
<title>Node0&#45;&gt;Node4</title>
<path fill="none" stroke="#191970" d="M1903.1175,-371.0904C1927.4106,-359.7582 1954.4236,-347.1572 1976.149,-337.0227"/>
<polygon fill="#191970" stroke="#191970" points="1977.8378,-340.097 1985.4206,-332.6976 1974.8785,-333.7533 1977.8378,-340.097"/>
</g>
<!-- Node5 -->
<g id="node6" class="node">
<title>Node5</title>
<polygon fill="none" stroke="#bfbfbf" points="2083.5,-308 2083.5,-327 2218.5,-327 2218.5,-308 2083.5,-308"/>
<text text-anchor="middle" x="2151" y="-315" font-family="Helvetica,sans-Serif" font-size="10.00" fill="#000000">deal.II/grid/grid_generator.h</text>
</g>
<!-- Node0&#45;&gt;Node5 -->
<g id="edge5" class="edge">
<title>Node0&#45;&gt;Node5</title>
<path fill="none" stroke="#191970" d="M1903.2683,-383.8C1963.5992,-367.6537 2052.3194,-343.9097 2105.5995,-329.6505"/>
<polygon fill="#191970" stroke="#191970" points="2106.6871,-332.9826 2115.4423,-327.0162 2104.8774,-326.2206 2106.6871,-332.9826"/>
</g>
<!-- Node6 -->
<g id="node7" class="node">
<title>Node6</title>
<polygon fill="none" stroke="#bfbfbf" points="2237,-308 2237,-327 2339,-327 2339,-308 2237,-308"/>
<text text-anchor="middle" x="2288" y="-315" font-family="Helvetica,sans-Serif" font-size="10.00" fill="#000000">deal.II/grid/grid_in.h</text>
</g>
<!-- Node0&#45;&gt;Node6 -->
<g id="edge6" class="edge">
<title>Node0&#45;&gt;Node6</title>
<path fill="none" stroke="#191970" d="M1903.3203,-391.367C1980.7097,-379.4061 2114.4173,-357.5577 2228,-333 2232.9341,-331.9332 2238.0752,-330.7367 2243.1816,-329.494"/>
<polygon fill="#191970" stroke="#191970" points="2244.0408,-332.887 2252.8952,-327.069 2242.3452,-326.0954 2244.0408,-332.887"/>
</g>
<!-- Node7 -->
<g id="node8" class="node">
<title>Node7</title>
<polygon fill="none" stroke="#bfbfbf" points="2357,-308 2357,-327 2465,-327 2465,-308 2357,-308"/>
<text text-anchor="middle" x="2411" y="-315" font-family="Helvetica,sans-Serif" font-size="10.00" fill="#000000">deal.II/grid/grid_out.h</text>
</g>
<!-- Node0&#45;&gt;Node7 -->
<g id="edge7" class="edge">
<title>Node0&#45;&gt;Node7</title>
<path fill="none" stroke="#191970" d="M1903.2375,-394.6778C2000.1305,-384.6328 2189.2278,-363.0455 2348,-333 2353.5336,-331.9528 2359.3089,-330.7234 2365.0204,-329.423"/>
<polygon fill="#191970" stroke="#191970" points="2366.2371,-332.7321 2375.1662,-327.0293 2364.6297,-325.9191 2366.2371,-332.7321"/>
</g>
<!-- Node8 -->
<g id="node9" class="node">
<title>Node8</title>
<polygon fill="none" stroke="#bfbfbf" points="2392,-118 2392,-137 2508,-137 2508,-118 2392,-118"/>
<text text-anchor="middle" x="2450" y="-125" font-family="Helvetica,sans-Serif" font-size="10.00" fill="#000000">deal.II/lac/full_matrix.h</text>
</g>
<!-- Node0&#45;&gt;Node8 -->
<g id="edge8" class="edge">
<title>Node0&#45;&gt;Node8</title>
<path fill="none" stroke="#191970" d="M1824.2797,-369.3232C1804.4349,-321.3467 1776.7953,-230.4149 1825,-179 1867.494,-133.6761 2321.5311,-152.0316 2383,-143 2389.746,-142.0088 2396.8164,-140.6885 2403.7309,-139.2352"/>
<polygon fill="#191970" stroke="#191970" points="2404.6846,-142.609 2413.6938,-137.0337 2403.1742,-135.7739 2404.6846,-142.609"/>
</g>
<!-- Node9 -->
<g id="node10" class="node">
<title>Node9</title>
<polygon fill="none" stroke="#bfbfbf" points="2526,-118 2526,-137 2624,-137 2624,-118 2526,-118"/>
<text text-anchor="middle" x="2575" y="-125" font-family="Helvetica,sans-Serif" font-size="10.00" fill="#000000">deal.II/lac/vector.h</text>
</g>
<!-- Node0&#45;&gt;Node9 -->
<g id="edge9" class="edge">
<title>Node0&#45;&gt;Node9</title>
<path fill="none" stroke="#191970" d="M1837.1094,-369.3327C1837.5872,-347.6335 1841.9723,-319.6831 1859,-302 2067.687,-85.2806 2225.4262,-217.177 2517,-143 2521.1477,-141.9448 2525.4571,-140.8293 2529.7696,-139.7001"/>
<polygon fill="#191970" stroke="#191970" points="2530.9876,-142.9985 2539.763,-137.0619 2529.2008,-136.2304 2530.9876,-142.9985"/>
</g>
<!-- Node10 -->
<g id="node11" class="node">
<title>Node10</title>
<polygon fill="none" stroke="#bfbfbf" points="2483,-302.5 2483,-332.5 2591,-332.5 2591,-302.5 2483,-302.5"/>
<text text-anchor="start" x="2491" y="-320.5" font-family="Helvetica,sans-Serif" font-size="10.00" fill="#000000">deal.II/numerics/data</text>
<text text-anchor="middle" x="2537" y="-309.5" font-family="Helvetica,sans-Serif" font-size="10.00" fill="#000000">_out.h</text>
</g>
<!-- Node0&#45;&gt;Node10 -->
<g id="edge10" class="edge">
<title>Node0&#45;&gt;Node10</title>
<path fill="none" stroke="#191970" d="M1903.3942,-396.98C2016.7458,-389.2759 2259.3324,-369.9813 2472.6662,-333.0952"/>
<polygon fill="#191970" stroke="#191970" points="2473.5533,-336.4933 2482.8022,-331.3254 2472.3492,-329.5976 2473.5533,-336.4933"/>
</g>
<!-- Node11 -->
<g id="node12" class="node">
<title>Node11</title>
<g id="a_node12"><a xlink:href="simple__bounding__box_8h_source.html" target="_top" xlink:title="simple_bounding_box.h">
<polygon fill="none" stroke="#000000" points="646.5,-56.5 646.5,-75.5 765.5,-75.5 765.5,-56.5 646.5,-56.5"/>
<text text-anchor="middle" x="706" y="-63.5" font-family="Helvetica,sans-Serif" font-size="10.00" fill="#000000">simple_bounding_box.h</text>
</a>
</g>
</g>
<!-- Node0&#45;&gt;Node11 -->
<g id="edge11" class="edge">
<title>Node0&#45;&gt;Node11</title>
<path fill="none" stroke="#191970" d="M1774.9374,-398.3417C1607.3477,-390.9683 1159.0006,-368.4362 1015,-333 923.6222,-310.5134 820,-344.604 820,-250.5 820,-250.5 820,-250.5 820,-189 820,-138.7008 768.0841,-100.2744 734.3217,-80.6028"/>
<polygon fill="#191970" stroke="#191970" points="735.7714,-77.4029 725.3385,-75.5575 732.3435,-83.5062 735.7714,-77.4029"/>
</g>
<!-- Node17 -->
<g id="node18" class="node">
<title>Node17</title>
<polygon fill="none" stroke="#bfbfbf" points="2609,-308 2609,-327 2659,-327 2659,-308 2609,-308"/>
<text text-anchor="middle" x="2634" y="-315" font-family="Helvetica,sans-Serif" font-size="10.00" fill="#000000">fstream</text>
</g>
<!-- Node0&#45;&gt;Node17 -->
<g id="edge18" class="edge">
<title>Node0&#45;&gt;Node17</title>
<path fill="none" stroke="#191970" d="M1903.0821,-398.0596C2061.6284,-390.3384 2468.8749,-367.6614 2600,-333 2602.1912,-332.4208 2604.4176,-331.711 2606.6287,-330.917"/>
<polygon fill="#191970" stroke="#191970" points="2608.1473,-334.0771 2616.0687,-327.0413 2605.4887,-327.6016 2608.1473,-334.0771"/>
</g>
<!-- Node18 -->
<g id="node19" class="node">
<title>Node18</title>
<g id="a_node19"><a xlink:href="block__cluster__tree_8h.html" target="_top" xlink:title="Implementation of the class BlockClusterTree. ">
<polygon fill="none" stroke="#000000" points="1051,-308 1051,-327 1155,-327 1155,-308 1051,-308"/>
<text text-anchor="middle" x="1103" y="-315" font-family="Helvetica,sans-Serif" font-size="10.00" fill="#000000">block_cluster_tree.h</text>
</a>
</g>
</g>
<!-- Node0&#45;&gt;Node18 -->
<g id="edge19" class="edge">
<title>Node0&#45;&gt;Node18</title>
<path fill="none" stroke="#191970" d="M1774.9723,-393.736C1635.0818,-377.8653 1303.6456,-340.2635 1165.3247,-324.5708"/>
<polygon fill="#191970" stroke="#191970" points="1165.6399,-321.0842 1155.3091,-323.4345 1164.8508,-328.0396 1165.6399,-321.0842"/>
</g>
<!-- Node24 -->
<g id="node25" class="node">
<title>Node24</title>
<g id="a_node25"><a xlink:href="cluster__tree_8h_source.html" target="_top" xlink:title="cluster_tree.h">
<polygon fill="none" stroke="#000000" points="962,-179.5 962,-198.5 1038,-198.5 1038,-179.5 962,-179.5"/>
<text text-anchor="middle" x="1000" y="-186.5" font-family="Helvetica,sans-Serif" font-size="10.00" fill="#000000">cluster_tree.h</text>
</a>
</g>
</g>
<!-- Node0&#45;&gt;Node24 -->
<g id="edge66" class="edge">
<title>Node0&#45;&gt;Node24</title>
<path fill="none" stroke="#191970" d="M1774.9153,-399.6372C1595.6111,-395.2597 1098.244,-379.0486 1042,-333 1004.6726,-302.439 999.3748,-240.7031 999.2976,-208.9137"/>
<polygon fill="#191970" stroke="#191970" points="1002.8008,-208.7228 999.4556,-198.67 995.8017,-208.6148 1002.8008,-208.7228"/>
</g>
<!-- Node25 -->
<g id="node26" class="node">
<title>Node25</title>
<g id="a_node26"><a xlink:href="debug__tools_8h.html" target="_top" xlink:title="This file includes a bunch of helper functions for printing out and visualizing information about gri...">
<polygon fill="none" stroke="#000000" points="444.5,-118 444.5,-137 521.5,-137 521.5,-118 444.5,-118"/>
<text text-anchor="middle" x="483" y="-125" font-family="Helvetica,sans-Serif" font-size="10.00" fill="#000000">debug_tools.h</text>
</a>
</g>
</g>
<!-- Node0&#45;&gt;Node25 -->
<g id="edge67" class="edge">
<title>Node0&#45;&gt;Node25</title>
<path fill="none" stroke="#191970" d="M1774.6944,-398.6234C1563.2488,-390.5525 897.762,-363.0205 806,-333 676.9551,-290.7821 548.181,-185.0835 501.4196,-144.1017"/>
<polygon fill="#191970" stroke="#191970" points="503.4683,-141.2409 493.661,-137.2325 498.8281,-146.482 503.4683,-141.2409"/>
</g>
<!-- Node11&#45;&gt;Node2 -->
<g id="edge12" class="edge">
<title>Node11&#45;&gt;Node2</title>
<path fill="none" stroke="#191970" d="M646.1859,-57.1376C643.0812,-56.7382 640.005,-56.3562 637,-56 464.14,-35.5097 420.1978,-37.4055 247,-20 236.7029,-18.9652 225.763,-17.818 215.1558,-16.6806"/>
<polygon fill="#191970" stroke="#191970" points="215.4376,-13.1907 205.1197,-15.5969 214.6861,-20.1503 215.4376,-13.1907"/>
</g>
<!-- Node12 -->
<g id="node13" class="node">
<title>Node12</title>
<polygon fill="none" stroke="#bfbfbf" points="407.5,-.5 407.5,-19.5 534.5,-19.5 534.5,-.5 407.5,-.5"/>
<text text-anchor="middle" x="471" y="-7.5" font-family="Helvetica,sans-Serif" font-size="10.00" fill="#000000">deal.II/dofs/dof_handler.h</text>
</g>
<!-- Node11&#45;&gt;Node12 -->
<g id="edge13" class="edge">
<title>Node11&#45;&gt;Node12</title>
<path fill="none" stroke="#191970" d="M665.8691,-56.4369C625.7351,-46.8731 563.9225,-32.1432 520.7067,-21.845"/>
<polygon fill="#191970" stroke="#191970" points="521.5044,-18.4372 510.9654,-19.5237 519.8817,-25.2465 521.5044,-18.4372"/>
</g>
<!-- Node13 -->
<g id="node14" class="node">
<title>Node13</title>
<polygon fill="none" stroke="#bfbfbf" points="256,-.5 256,-19.5 372,-19.5 372,-.5 256,-.5"/>
<text text-anchor="middle" x="314" y="-7.5" font-family="Helvetica,sans-Serif" font-size="10.00" fill="#000000">deal.II/dofs/dof_tools.h</text>
</g>
<!-- Node11&#45;&gt;Node13 -->
<g id="edge14" class="edge">
<title>Node11&#45;&gt;Node13</title>
<path fill="none" stroke="#191970" d="M646.1622,-57.3187C643.0637,-56.872 639.9953,-56.4303 637,-56 549.055,-43.3649 447.617,-28.9435 382.2388,-19.6685"/>
<polygon fill="#191970" stroke="#191970" points="382.4556,-16.1643 372.0632,-18.2252 381.4725,-23.0949 382.4556,-16.1643"/>
</g>
<!-- Node14 -->
<g id="node15" class="node">
<title>Node14</title>
<polygon fill="none" stroke="#bfbfbf" points="560.5,-.5 560.5,-19.5 663.5,-19.5 663.5,-.5 560.5,-.5"/>
<text text-anchor="middle" x="612" y="-7.5" font-family="Helvetica,sans-Serif" font-size="10.00" fill="#000000">deal.II/fe/mapping.h</text>
</g>
<!-- Node11&#45;&gt;Node14 -->
<g id="edge15" class="edge">
<title>Node11&#45;&gt;Node14</title>
<path fill="none" stroke="#191970" d="M689.6264,-56.2455C675.0692,-47.5731 653.569,-34.7645 636.8848,-24.825"/>
<polygon fill="#191970" stroke="#191970" points="638.5683,-21.7539 628.1859,-19.6427 634.9856,-27.7676 638.5683,-21.7539"/>
</g>
<!-- Node15 -->
<g id="node16" class="node">
<title>Node15</title>
<polygon fill="none" stroke="#bfbfbf" points="686,-.5 686,-19.5 726,-19.5 726,-.5 686,-.5"/>
<text text-anchor="middle" x="706" y="-7.5" font-family="Helvetica,sans-Serif" font-size="10.00" fill="#000000">utility</text>
</g>
<!-- Node11&#45;&gt;Node15 -->
<g id="edge16" class="edge">
<title>Node11&#45;&gt;Node15</title>
<path fill="none" stroke="#191970" d="M706,-56.2455C706,-48.9382 706,-38.6944 706,-29.7046"/>
<polygon fill="#191970" stroke="#191970" points="709.5001,-29.6426 706,-19.6427 702.5001,-29.6427 709.5001,-29.6426"/>
</g>
<!-- Node16 -->
<g id="node17" class="node">
<title>Node16</title>
<polygon fill="none" stroke="#bfbfbf" points="1257,-.5 1257,-19.5 1301,-19.5 1301,-.5 1257,-.5"/>
<text text-anchor="middle" x="1279" y="-7.5" font-family="Helvetica,sans-Serif" font-size="10.00" fill="#000000">vector</text>
</g>
<!-- Node11&#45;&gt;Node16 -->
<g id="edge17" class="edge">
<title>Node11&#45;&gt;Node16</title>
<path fill="none" stroke="#191970" d="M765.6793,-57.0335C768.4903,-56.671 771.2747,-56.3243 774,-56 951.8399,-34.8402 1165.9327,-18.262 1246.3596,-12.3457"/>
<polygon fill="#191970" stroke="#191970" points="1247.0852,-15.8021 1256.8034,-11.5823 1246.5748,-8.8207 1247.0852,-15.8021"/>
</g>
<!-- Node19 -->
<g id="node20" class="node">
<title>Node19</title>
<g id="a_node20"><a xlink:href="block__cluster_8h.html" target="_top" xlink:title="Implementation of the class BlockCluster. ">
<polygon fill="none" stroke="#000000" points="1094.5,-241 1094.5,-260 1177.5,-260 1177.5,-241 1094.5,-241"/>
<text text-anchor="middle" x="1136" y="-248" font-family="Helvetica,sans-Serif" font-size="10.00" fill="#000000">block_cluster.h</text>
</a>
</g>
</g>
<!-- Node18&#45;&gt;Node19 -->
<g id="edge20" class="edge">
<title>Node18&#45;&gt;Node19</title>
<path fill="none" stroke="#191970" d="M1107.7281,-307.9005C1112.6781,-297.8505 1120.5776,-281.8122 1126.7697,-269.2403"/>
<polygon fill="#191970" stroke="#191970" points="1130.0019,-270.5991 1131.2807,-260.0817 1123.7223,-267.5061 1130.0019,-270.5991"/>
</g>
<!-- Node18&#45;&gt;Node24 -->
<g id="edge46" class="edge">
<title>Node18&#45;&gt;Node24</title>
<path fill="none" stroke="#191970" d="M1092.2518,-307.7706C1081.5014,-297.7893 1064.7727,-281.5628 1052,-266 1036.4913,-247.1034 1021.1214,-223.5958 1011.1608,-207.5584"/>
<polygon fill="#191970" stroke="#191970" points="1013.9113,-205.3478 1005.7051,-198.6463 1007.9411,-209.0025 1013.9113,-205.3478"/>
</g>
<!-- Node18&#45;&gt;Node25 -->
<g id="edge47" class="edge">
<title>Node18&#45;&gt;Node25</title>
<path fill="none" stroke="#191970" d="M1071.8292,-307.9477C968.8719,-276.3962 639.6664,-175.5107 523.8085,-140.0058"/>
<polygon fill="#191970" stroke="#191970" points="524.8195,-136.655 514.2328,-137.0714 522.7684,-143.3478 524.8195,-136.655"/>
</g>
<!-- Node30 -->
<g id="node31" class="node">
<title>Node30</title>
<g id="a_node31"><a xlink:href="tree_8h.html" target="_top" xlink:title="Implementation of the classes for binary tree node, general tree node and functions for manipulating ...">
<polygon fill="none" stroke="#000000" points="979.5,-118 979.5,-137 1020.5,-137 1020.5,-118 979.5,-118"/>
<text text-anchor="middle" x="1000" y="-125" font-family="Helvetica,sans-Serif" font-size="10.00" fill="#000000">tree.h</text>
</a>
</g>
</g>
<!-- Node18&#45;&gt;Node30 -->
<g id="edge65" class="edge">
<title>Node18&#45;&gt;Node30</title>
<path fill="none" stroke="#191970" d="M1099.6311,-307.9237C1089.8983,-280.48 1061.5117,-202.0445 1047,-179 1039.038,-166.3564 1027.8269,-153.9322 1018.3512,-144.4554"/>
<polygon fill="#191970" stroke="#191970" points="1020.5275,-141.6908 1010.9091,-137.2481 1015.6576,-146.7192 1020.5275,-141.6908"/>
</g>
<!-- Node36 -->
<g id="node37" class="node">
<title>Node36</title>
<g id="a_node37"><a xlink:href="lapack__full__matrix__ext_8h_source.html" target="_top" xlink:title="lapack_full_matrix\l_ext.h">
<polygon fill="none" stroke="#000000" points="1260.5,-235.5 1260.5,-265.5 1355.5,-265.5 1355.5,-235.5 1260.5,-235.5"/>
<text text-anchor="start" x="1268.5" y="-253.5" font-family="Helvetica,sans-Serif" font-size="10.00" fill="#000000">lapack_full_matrix</text>
<text text-anchor="middle" x="1308" y="-242.5" font-family="Helvetica,sans-Serif" font-size="10.00" fill="#000000">_ext.h</text>
</a>
</g>
</g>
<!-- Node18&#45;&gt;Node36 -->
<g id="edge48" class="edge">
<title>Node18&#45;&gt;Node36</title>
<path fill="none" stroke="#191970" d="M1132.3715,-307.9005C1163.6025,-297.6933 1213.7333,-281.3091 1252.4571,-268.6531"/>
<polygon fill="#191970" stroke="#191970" points="1253.62,-271.9552 1262.0379,-265.5218 1251.4453,-265.3016 1253.62,-271.9552"/>
</g>
<!-- Node20 -->
<g id="node21" class="node">
<title>Node20</title>
<g id="a_node21"><a xlink:href="cluster_8h.html" target="_top" xlink:title="Implementation of the class Cluster. ">
<polygon fill="none" stroke="#000000" points="1231,-118 1231,-137 1285,-137 1285,-118 1231,-118"/>
<text text-anchor="middle" x="1258" y="-125" font-family="Helvetica,sans-Serif" font-size="10.00" fill="#000000">cluster.h</text>
</a>
</g>
</g>
<!-- Node19&#45;&gt;Node20 -->
<g id="edge21" class="edge">
<title>Node19&#45;&gt;Node20</title>
<path fill="none" stroke="#191970" d="M1154.7068,-240.9434C1171.3749,-231.7847 1195.7319,-216.7543 1213,-199 1228.2674,-183.3027 1241.0322,-161.5965 1249.0208,-146.2288"/>
<polygon fill="#191970" stroke="#191970" points="1252.2081,-147.6807 1253.559,-137.1723 1245.9498,-144.5446 1252.2081,-147.6807"/>
</g>
<!-- Node19&#45;&gt;Node24 -->
<g id="edge27" class="edge">
<title>Node19&#45;&gt;Node24</title>
<path fill="none" stroke="#191970" d="M1114.75,-240.8906C1092.0945,-230.6457 1056.0202,-214.3326 1030.3709,-202.7339"/>
<polygon fill="#191970" stroke="#191970" points="1031.6546,-199.4732 1021.1008,-198.5419 1028.7703,-205.8514 1031.6546,-199.4732"/>
</g>
<!-- Node20&#45;&gt;Node11 -->
<g id="edge26" class="edge">
<title>Node20&#45;&gt;Node11</title>
<path fill="none" stroke="#191970" d="M1230.9316,-125.003C1158.7515,-118.2633 955.475,-98.752 775.847,-76.1976"/>
<polygon fill="#191970" stroke="#191970" points="776.0451,-72.6949 765.6856,-74.9152 775.1686,-79.6398 776.0451,-72.6949"/>
</g>
<!-- Node20&#45;&gt;Node16 -->
<g id="edge25" class="edge">
<title>Node20&#45;&gt;Node16</title>
<path fill="none" stroke="#191970" d="M1285.3895,-123.1469C1342.4271,-113.8096 1469.6969,-91.4527 1482,-76 1487.5366,-69.046 1487.5476,-62.9453 1482,-56 1460.9535,-29.6508 1362.6928,-17.2714 1310.9939,-12.4977"/>
<polygon fill="#191970" stroke="#191970" points="1311.2811,-9.0095 1301.0122,-11.6173 1310.666,-15.9824 1311.2811,-9.0095"/>
</g>
<!-- Node21 -->
<g id="node22" class="node">
<title>Node21</title>
<polygon fill="none" stroke="#bfbfbf" points="1304.5,-56.5 1304.5,-75.5 1407.5,-75.5 1407.5,-56.5 1304.5,-56.5"/>
<text text-anchor="middle" x="1356" y="-63.5" font-family="Helvetica,sans-Serif" font-size="10.00" fill="#000000">deal.II/base/types.h</text>
</g>
<!-- Node20&#45;&gt;Node21 -->
<g id="edge22" class="edge">
<title>Node20&#45;&gt;Node21</title>
<path fill="none" stroke="#191970" d="M1273.3125,-117.8906C1289.0624,-108.0067 1313.8123,-92.4749 1332.1337,-80.9773"/>
<polygon fill="#191970" stroke="#191970" points="1334.1852,-83.8221 1340.795,-75.5419 1330.4643,-77.8929 1334.1852,-83.8221"/>
</g>
<!-- Node22 -->
<g id="node23" class="node">
<title>Node22</title>
<polygon fill="none" stroke="#bfbfbf" points="1230,-56.5 1230,-75.5 1286,-75.5 1286,-56.5 1230,-56.5"/>
<text text-anchor="middle" x="1258" y="-63.5" font-family="Helvetica,sans-Serif" font-size="10.00" fill="#000000">algorithm</text>
</g>
<!-- Node20&#45;&gt;Node22 -->
<g id="edge23" class="edge">
<title>Node20&#45;&gt;Node22</title>
<path fill="none" stroke="#191970" d="M1258,-117.8906C1258,-109.3657 1258,-96.6392 1258,-85.9235"/>
<polygon fill="#191970" stroke="#191970" points="1261.5001,-85.7448 1258,-75.7449 1254.5001,-85.7449 1261.5001,-85.7448"/>
</g>
<!-- Node23 -->
<g id="node24" class="node">
<title>Node23</title>
<polygon fill="none" stroke="#bfbfbf" points="1425.5,-56.5 1425.5,-75.5 1472.5,-75.5 1472.5,-56.5 1425.5,-56.5"/>
<text text-anchor="middle" x="1449" y="-63.5" font-family="Helvetica,sans-Serif" font-size="10.00" fill="#000000">iterator</text>
</g>
<!-- Node20&#45;&gt;Node23 -->
<g id="edge24" class="edge">
<title>Node20&#45;&gt;Node23</title>
<path fill="none" stroke="#191970" d="M1285.3656,-118.6885C1319.6858,-107.6378 1378.5024,-88.6995 1415.4847,-76.7916"/>
<polygon fill="#191970" stroke="#191970" points="1416.8521,-80.0283 1425.2981,-73.6318 1414.7066,-73.3652 1416.8521,-80.0283"/>
</g>
<!-- Node24&#45;&gt;Node20 -->
<g id="edge28" class="edge">
<title>Node24&#45;&gt;Node20</title>
<path fill="none" stroke="#191970" d="M1038.0688,-179.9255C1087.2728,-168.1966 1172.388,-147.9075 1221.0436,-136.3094"/>
<polygon fill="#191970" stroke="#191970" points="1221.9309,-139.696 1230.8467,-133.9726 1220.3077,-132.8868 1221.9309,-139.696"/>
</g>
<!-- Node24&#45;&gt;Node25 -->
<g id="edge29" class="edge">
<title>Node24&#45;&gt;Node25</title>
<path fill="none" stroke="#191970" d="M961.9838,-184.4778C869.7746,-173.509 634.3006,-145.498 531.8485,-133.3108"/>
<polygon fill="#191970" stroke="#191970" points="532.1182,-129.8183 521.7747,-132.1125 531.2913,-136.7693 532.1182,-129.8183"/>
</g>
<!-- Node24&#45;&gt;Node30 -->
<g id="edge37" class="edge">
<title>Node24&#45;&gt;Node30</title>
<path fill="none" stroke="#191970" d="M1000,-179.3906C1000,-170.8657 1000,-158.1392 1000,-147.4235"/>
<polygon fill="#191970" stroke="#191970" points="1003.5001,-147.2448 1000,-137.2449 996.5001,-147.2449 1003.5001,-147.2448"/>
</g>
<!-- Node25&#45;&gt;Node12 -->
<g id="edge30" class="edge">
<title>Node25&#45;&gt;Node12</title>
<path fill="none" stroke="#191970" d="M444.2728,-121.7843C397.1312,-113.9427 321.7204,-98.2438 305,-76 299.659,-68.8946 299.6189,-63.075 305,-56 316.6332,-40.7047 358.4214,-29.1735 397.1563,-21.4818"/>
<polygon fill="#191970" stroke="#191970" points="398.2805,-24.8302 407.4437,-19.5118 396.9639,-17.9551 398.2805,-24.8302"/>
</g>
<!-- Node25&#45;&gt;Node13 -->
<g id="edge31" class="edge">
<title>Node25&#45;&gt;Node13</title>
<path fill="none" stroke="#191970" d="M444.2519,-122.3033C395.1509,-114.8319 314.751,-99.3338 297,-76 286.5227,-62.2275 293.5648,-42.6507 301.5286,-28.3963"/>
<polygon fill="#191970" stroke="#191970" points="304.7324,-29.8676 306.9852,-19.515 298.7682,-26.2032 304.7324,-29.8676"/>
</g>
<!-- Node25&#45;&gt;Node14 -->
<g id="edge34" class="edge">
<title>Node25&#45;&gt;Node14</title>
<path fill="none" stroke="#191970" d="M493.5566,-117.8845C515.4787,-97.9167 566.1715,-51.743 593.5923,-26.7667"/>
<polygon fill="#191970" stroke="#191970" points="596.2614,-29.0698 601.2975,-19.7484 591.5477,-23.8947 596.2614,-29.0698"/>
</g>
<!-- Node26 -->
<g id="node27" class="node">
<title>Node26</title>
<polygon fill="none" stroke="#bfbfbf" points="314,-56.5 314,-75.5 388,-75.5 388,-56.5 314,-56.5"/>
<text text-anchor="middle" x="351" y="-63.5" font-family="Helvetica,sans-Serif" font-size="10.00" fill="#000000">deal.II/fe/fe.h</text>
</g>
<!-- Node25&#45;&gt;Node26 -->
<g id="edge32" class="edge">
<title>Node25&#45;&gt;Node26</title>
<path fill="none" stroke="#191970" d="M462.375,-117.8906C440.4827,-107.6908 405.6807,-91.4763 380.8073,-79.8875"/>
<polygon fill="#191970" stroke="#191970" points="382.0228,-76.5926 371.4802,-75.5419 379.0665,-82.9377 382.0228,-76.5926"/>
</g>
<!-- Node27 -->
<g id="node28" class="node">
<title>Node27</title>
<polygon fill="none" stroke="#bfbfbf" points="406,-56.5 406,-75.5 518,-75.5 518,-56.5 406,-56.5"/>
<text text-anchor="middle" x="462" y="-63.5" font-family="Helvetica,sans-Serif" font-size="10.00" fill="#000000">deal.II/fe/fe_system.h</text>
</g>
<!-- Node25&#45;&gt;Node27 -->
<g id="edge33" class="edge">
<title>Node25&#45;&gt;Node27</title>
<path fill="none" stroke="#191970" d="M479.7188,-117.8906C476.7465,-109.1862 472.2786,-96.1015 468.573,-85.2494"/>
<polygon fill="#191970" stroke="#191970" points="471.8712,-84.0773 465.3275,-75.7449 465.2468,-86.3394 471.8712,-84.0773"/>
</g>
<!-- Node28 -->
<g id="node29" class="node">
<title>Node28</title>
<polygon fill="none" stroke="#bfbfbf" points="574,-56.5 574,-75.5 628,-75.5 628,-56.5 574,-56.5"/>
<text text-anchor="middle" x="601" y="-63.5" font-family="Helvetica,sans-Serif" font-size="10.00" fill="#000000">iostream</text>
</g>
<!-- Node25&#45;&gt;Node28 -->
<g id="edge35" class="edge">
<title>Node25&#45;&gt;Node28</title>
<path fill="none" stroke="#191970" d="M501.4375,-117.8906C520.8347,-107.7811 551.569,-91.7628 573.7617,-80.1962"/>
<polygon fill="#191970" stroke="#191970" points="575.4418,-83.2675 582.692,-75.5419 572.2064,-77.06 575.4418,-83.2675"/>
</g>
<!-- Node29 -->
<g id="node30" class="node">
<title>Node29</title>
<polygon fill="none" stroke="#bfbfbf" points="178.5,-56.5 178.5,-75.5 219.5,-75.5 219.5,-56.5 178.5,-56.5"/>
<text text-anchor="middle" x="199" y="-63.5" font-family="Helvetica,sans-Serif" font-size="10.00" fill="#000000">string</text>
</g>
<!-- Node25&#45;&gt;Node29 -->
<g id="edge36" class="edge">
<title>Node25&#45;&gt;Node29</title>
<path fill="none" stroke="#191970" d="M444.4099,-120.4409C395.295,-111.2455 307.9456,-94.184 234,-76 232.5425,-75.6416 231.0542,-75.2636 229.5534,-74.8728"/>
<polygon fill="#191970" stroke="#191970" points="230.2284,-71.4292 219.6601,-72.1782 228.3889,-78.1832 230.2284,-71.4292"/>
</g>
<!-- Node30&#45;&gt;Node16 -->
<g id="edge45" class="edge">
<title>Node30&#45;&gt;Node16</title>
<path fill="none" stroke="#191970" d="M1007.3939,-117.9418C1019.946,-102.4141 1047,-71.8533 1077,-56 1132.1432,-26.86 1205.2645,-16.091 1246.7074,-12.1753"/>
<polygon fill="#191970" stroke="#191970" points="1247.1175,-15.653 1256.7773,-11.3009 1246.5119,-8.6792 1247.1175,-15.653"/>
</g>
<!-- Node30&#45;&gt;Node22 -->
<g id="edge39" class="edge">
<title>Node30&#45;&gt;Node22</title>
<path fill="none" stroke="#191970" d="M1020.7772,-122.9132C1058.4009,-114.5532 1140.5378,-96.0547 1219.6186,-76.2883"/>
<polygon fill="#191970" stroke="#191970" points="1220.8983,-79.5757 1229.7449,-73.7458 1219.1936,-72.7864 1220.8983,-79.5757"/>
</g>
<!-- Node30&#45;&gt;Node28 -->
<g id="edge43" class="edge">
<title>Node30&#45;&gt;Node28</title>
<path fill="none" stroke="#191970" d="M979.3696,-125.5233C925.0703,-120.1213 773.6164,-103.7684 638.171,-76.0203"/>
<polygon fill="#191970" stroke="#191970" points="638.537,-72.5217 628.0343,-73.9157 637.114,-79.3755 638.537,-72.5217"/>
</g>
<!-- Node31 -->
<g id="node32" class="node">
<title>Node31</title>
<polygon fill="none" stroke="#bfbfbf" points="1086,-56.5 1086,-75.5 1212,-75.5 1212,-56.5 1086,-56.5"/>
<text text-anchor="middle" x="1149" y="-63.5" font-family="Helvetica,sans-Serif" font-size="10.00" fill="#000000">deal.II/base/exceptions.h</text>
</g>
<!-- Node30&#45;&gt;Node31 -->
<g id="edge38" class="edge">
<title>Node30&#45;&gt;Node31</title>
<path fill="none" stroke="#191970" d="M1020.7178,-118.9487C1045.4314,-108.7481 1087.0522,-91.5691 1116.1634,-79.5534"/>
<polygon fill="#191970" stroke="#191970" points="1117.6056,-82.7446 1125.5138,-75.694 1114.9348,-76.2741 1117.6056,-82.7446"/>
</g>
<!-- Node32 -->
<g id="node33" class="node">
<title>Node32</title>
<polygon fill="none" stroke="#bfbfbf" points="837,-56.5 837,-75.5 875,-75.5 875,-56.5 837,-56.5"/>
<text text-anchor="middle" x="856" y="-63.5" font-family="Helvetica,sans-Serif" font-size="10.00" fill="#000000">array</text>
</g>
<!-- Node30&#45;&gt;Node32 -->
<g id="edge40" class="edge">
<title>Node30&#45;&gt;Node32</title>
<path fill="none" stroke="#191970" d="M979.3683,-118.6885C954.4637,-108.0522 912.4497,-90.1087 884.4723,-78.16"/>
<polygon fill="#191970" stroke="#191970" points="885.7839,-74.9144 875.2128,-74.2055 883.0345,-81.3519 885.7839,-74.9144"/>
</g>
<!-- Node33 -->
<g id="node34" class="node">
<title>Node33</title>
<polygon fill="none" stroke="#bfbfbf" points="893.5,-56.5 893.5,-75.5 952.5,-75.5 952.5,-56.5 893.5,-56.5"/>
<text text-anchor="middle" x="923" y="-63.5" font-family="Helvetica,sans-Serif" font-size="10.00" fill="#000000">exception</text>
</g>
<!-- Node30&#45;&gt;Node33 -->
<g id="edge41" class="edge">
<title>Node30&#45;&gt;Node33</title>
<path fill="none" stroke="#191970" d="M987.9688,-117.8906C975.9893,-108.3227 957.3834,-93.4621 943.1475,-82.0919"/>
<polygon fill="#191970" stroke="#191970" points="944.9447,-79.0479 934.9468,-75.5419 940.5761,-84.5175 944.9447,-79.0479"/>
</g>
<!-- Node34 -->
<g id="node35" class="node">
<title>Node34</title>
<polygon fill="none" stroke="#bfbfbf" points="970.5,-56.5 970.5,-75.5 1029.5,-75.5 1029.5,-56.5 970.5,-56.5"/>
<text text-anchor="middle" x="1000" y="-63.5" font-family="Helvetica,sans-Serif" font-size="10.00" fill="#000000">functional</text>
</g>
<!-- Node30&#45;&gt;Node34 -->
<g id="edge42" class="edge">
<title>Node30&#45;&gt;Node34</title>
<path fill="none" stroke="#191970" d="M1000,-117.8906C1000,-109.3657 1000,-96.6392 1000,-85.9235"/>
<polygon fill="#191970" stroke="#191970" points="1003.5001,-85.7448 1000,-75.7449 996.5001,-85.7449 1003.5001,-85.7448"/>
</g>
<!-- Node35 -->
<g id="node36" class="node">
<title>Node35</title>
<polygon fill="none" stroke="#bfbfbf" points="783.5,-56.5 783.5,-75.5 818.5,-75.5 818.5,-56.5 783.5,-56.5"/>
<text text-anchor="middle" x="801" y="-63.5" font-family="Helvetica,sans-Serif" font-size="10.00" fill="#000000">new</text>
</g>
<!-- Node30&#45;&gt;Node35 -->
<g id="edge44" class="edge">
<title>Node30&#45;&gt;Node35</title>
<path fill="none" stroke="#191970" d="M979.4801,-121.8141C948.7419,-113.1992 888.7471,-96.0093 828.3534,-75.9654"/>
<polygon fill="#191970" stroke="#191970" points="829.2553,-72.5766 818.6615,-72.7249 827.0356,-79.2153 829.2553,-72.5766"/>
</g>
<!-- Node36&#45;&gt;Node16 -->
<g id="edge51" class="edge">
<title>Node36&#45;&gt;Node16</title>
<path fill="none" stroke="#191970" d="M1327.6764,-235.4131C1339.0928,-225.9063 1353.1215,-212.8421 1363,-199 1387.6151,-164.5086 1371.1133,-141.0098 1402,-112 1438.0046,-78.1833 1529.1316,-94.35 1498,-56 1474.8725,-27.51 1366.6277,-16.0185 1311.4776,-11.952"/>
<polygon fill="#191970" stroke="#191970" points="1311.4158,-8.4393 1301.1965,-11.2349 1310.9287,-15.4223 1311.4158,-8.4393"/>
</g>
<!-- Node37 -->
<g id="node38" class="node">
<title>Node37</title>
<polygon fill="none" stroke="#bfbfbf" points="1260,-179.5 1260,-198.5 1300,-198.5 1300,-179.5 1260,-179.5"/>
<text text-anchor="middle" x="1280" y="-186.5" font-family="Helvetica,sans-Serif" font-size="10.00" fill="#000000">limits</text>
</g>
<!-- Node36&#45;&gt;Node37 -->
<g id="edge49" class="edge">
<title>Node36&#45;&gt;Node37</title>
<path fill="none" stroke="#191970" d="M1301.0786,-235.2977C1297.3539,-227.1166 1292.722,-216.943 1288.7496,-208.2179"/>
<polygon fill="#191970" stroke="#191970" points="1291.8122,-206.4978 1284.4832,-198.8469 1285.4414,-209.3983 1291.8122,-206.4978"/>
</g>
<!-- Node38 -->
<g id="node39" class="node">
<title>Node38</title>
<polygon fill="none" stroke="#bfbfbf" points="1318.5,-179.5 1318.5,-198.5 1353.5,-198.5 1353.5,-179.5 1318.5,-179.5"/>
<text text-anchor="middle" x="1336" y="-186.5" font-family="Helvetica,sans-Serif" font-size="10.00" fill="#000000">map</text>
</g>
<!-- Node36&#45;&gt;Node38 -->
<g id="edge50" class="edge">
<title>Node36&#45;&gt;Node38</title>
<path fill="none" stroke="#191970" d="M1314.9214,-235.2977C1318.6461,-227.1166 1323.278,-216.943 1327.2504,-208.2179"/>
<polygon fill="#191970" stroke="#191970" points="1330.5586,-209.3983 1331.5168,-198.8469 1324.1878,-206.4978 1330.5586,-209.3983"/>
</g>
<!-- Node39 -->
<g id="node40" class="node">
<title>Node39</title>
<g id="a_node40"><a xlink:href="general__exceptions_8h.html" target="_top" xlink:title="Definition of self&#45;defined general exceptions. ">
<polygon fill="none" stroke="#000000" points="1094.5,-179.5 1094.5,-198.5 1203.5,-198.5 1203.5,-179.5 1094.5,-179.5"/>
<text text-anchor="middle" x="1149" y="-186.5" font-family="Helvetica,sans-Serif" font-size="10.00" fill="#000000">general_exceptions.h</text>
</a>
</g>
</g>
<!-- Node36&#45;&gt;Node39 -->
<g id="edge52" class="edge">
<title>Node36&#45;&gt;Node39</title>
<path fill="none" stroke="#191970" d="M1269.1042,-235.4554C1242.8074,-225.284 1208.4083,-211.9787 1183.1668,-202.2155"/>
<polygon fill="#191970" stroke="#191970" points="1184.2286,-198.8735 1173.6394,-198.5303 1181.7034,-205.4022 1184.2286,-198.8735"/>
</g>
<!-- Node40 -->
<g id="node41" class="node">
<title>Node40</title>
<g id="a_node41"><a xlink:href="lapack__helpers_8h.html" target="_top" xlink:title="Exposes LAPACK helper functions defined in lapack_full_matrix.cc and define new ones by following the...">
<polygon fill="none" stroke="#000000" points="1683,-179.5 1683,-198.5 1773,-198.5 1773,-179.5 1683,-179.5"/>
<text text-anchor="middle" x="1728" y="-186.5" font-family="Helvetica,sans-Serif" font-size="10.00" fill="#000000">lapack_helpers.h</text>
</a>
</g>
</g>
<!-- Node36&#45;&gt;Node40 -->
<g id="edge54" class="edge">
<title>Node36&#45;&gt;Node40</title>
<path fill="none" stroke="#191970" d="M1355.7704,-243.505C1434.2004,-232.0207 1589.8215,-209.2333 1672.8286,-197.0787"/>
<polygon fill="#191970" stroke="#191970" points="1673.4379,-200.5269 1682.8252,-195.6149 1672.4236,-193.6007 1673.4379,-200.5269"/>
</g>
<!-- Node39&#45;&gt;Node31 -->
<g id="edge53" class="edge">
<title>Node39&#45;&gt;Node31</title>
<path fill="none" stroke="#191970" d="M1149,-179.3484C1149,-159.2295 1149,-112.4608 1149,-85.7098"/>
<polygon fill="#191970" stroke="#191970" points="1152.5001,-85.6067 1149,-75.6068 1145.5001,-85.6068 1152.5001,-85.6067"/>
</g>
<!-- Node40&#45;&gt;Node8 -->
<g id="edge58" class="edge">
<title>Node40&#45;&gt;Node8</title>
<path fill="none" stroke="#191970" d="M1773.0268,-180.8556C1777.7352,-180.1575 1782.4585,-179.5205 1787,-179 2050.6457,-148.7834 2120.3687,-181.0387 2383,-143 2389.748,-142.0226 2396.8196,-140.71 2403.7345,-139.2602"/>
<polygon fill="#191970" stroke="#191970" points="2404.6872,-142.6343 2413.6978,-137.0612 2403.1785,-135.7988 2404.6872,-142.6343"/>
</g>
<!-- Node40&#45;&gt;Node9 -->
<g id="edge64" class="edge">
<title>Node40&#45;&gt;Node9</title>
<path fill="none" stroke="#191970" d="M1773.3569,-183.8429C1789.6278,-182.1203 1808.1211,-180.3082 1825,-179 2132.0505,-155.2012 2212.7951,-191.0185 2517,-143 2522.5337,-142.1265 2528.3006,-140.9365 2533.9587,-139.6014"/>
<polygon fill="#191970" stroke="#191970" points="2535.113,-142.9199 2543.9521,-137.0786 2533.3996,-136.1329 2535.113,-142.9199"/>
</g>
<!-- Node41 -->
<g id="node42" class="node">
<title>Node41</title>
<polygon fill="none" stroke="#bfbfbf" points="1530,-118 1530,-137 1646,-137 1646,-118 1530,-118"/>
<text text-anchor="middle" x="1588" y="-125" font-family="Helvetica,sans-Serif" font-size="10.00" fill="#000000">deal.II/base/numbers.h</text>
</g>
<!-- Node40&#45;&gt;Node41 -->
<g id="edge55" class="edge">
<title>Node40&#45;&gt;Node41</title>
<path fill="none" stroke="#191970" d="M1706.125,-179.3906C1682.7004,-169.1005 1645.3404,-152.6888 1618.9159,-141.0809"/>
<polygon fill="#191970" stroke="#191970" points="1620.2846,-137.8594 1609.7214,-137.0419 1617.4693,-144.2683 1620.2846,-137.8594"/>
</g>
<!-- Node42 -->
<g id="node43" class="node">
<title>Node42</title>
<polygon fill="none" stroke="#bfbfbf" points="1664,-112.5 1664,-142.5 1792,-142.5 1792,-112.5 1664,-112.5"/>
<text text-anchor="start" x="1672" y="-130.5" font-family="Helvetica,sans-Serif" font-size="10.00" fill="#000000">deal.II/lac/blas_extension</text>
<text text-anchor="middle" x="1728" y="-119.5" font-family="Helvetica,sans-Serif" font-size="10.00" fill="#000000">_templates.h</text>
</g>
<!-- Node40&#45;&gt;Node42 -->
<g id="edge56" class="edge">
<title>Node40&#45;&gt;Node42</title>
<path fill="none" stroke="#191970" d="M1728,-179.3906C1728,-172.2234 1728,-162.0862 1728,-152.671"/>
<polygon fill="#191970" stroke="#191970" points="1731.5001,-152.5446 1728,-142.5446 1724.5001,-152.5446 1731.5001,-152.5446"/>
</g>
<!-- Node43 -->
<g id="node44" class="node">
<title>Node43</title>
<polygon fill="none" stroke="#bfbfbf" points="1810,-118 1810,-137 1936,-137 1936,-118 1810,-118"/>
<text text-anchor="middle" x="1873" y="-125" font-family="Helvetica,sans-Serif" font-size="10.00" fill="#000000">deal.II/lac/block_vector.h</text>
</g>
<!-- Node40&#45;&gt;Node43 -->
<g id="edge57" class="edge">
<title>Node40&#45;&gt;Node43</title>
<path fill="none" stroke="#191970" d="M1750.6563,-179.3906C1774.9174,-169.1005 1813.6118,-152.6888 1840.98,-141.0809"/>
<polygon fill="#191970" stroke="#191970" points="1842.6633,-144.1688 1850.5028,-137.0419 1839.93,-137.7245 1842.6633,-144.1688"/>
</g>
<!-- Node44 -->
<g id="node45" class="node">
<title>Node44</title>
<polygon fill="none" stroke="#bfbfbf" points="1954.5,-112.5 1954.5,-142.5 2045.5,-142.5 2045.5,-112.5 1954.5,-112.5"/>
<text text-anchor="start" x="1962.5" y="-130.5" font-family="Helvetica,sans-Serif" font-size="10.00" fill="#000000">deal.II/lac/lapack</text>
<text text-anchor="middle" x="2000" y="-119.5" font-family="Helvetica,sans-Serif" font-size="10.00" fill="#000000">_full_matrix.h</text>
</g>
<!-- Node40&#45;&gt;Node44 -->
<g id="edge59" class="edge">
<title>Node40&#45;&gt;Node44</title>
<path fill="none" stroke="#191970" d="M1773.0815,-180.3431C1814.9596,-172.1002 1879.262,-158.9341 1944.4065,-143.0547"/>
<polygon fill="#191970" stroke="#191970" points="1945.5671,-146.3737 1954.4428,-140.5881 1943.8964,-139.576 1945.5671,-146.3737"/>
</g>
<!-- Node45 -->
<g id="node46" class="node">
<title>Node45</title>
<polygon fill="none" stroke="#bfbfbf" points="2063.5,-112.5 2063.5,-142.5 2154.5,-142.5 2154.5,-112.5 2063.5,-112.5"/>
<text text-anchor="start" x="2071.5" y="-130.5" font-family="Helvetica,sans-Serif" font-size="10.00" fill="#000000">deal.II/lac/lapack</text>
<text text-anchor="middle" x="2109" y="-119.5" font-family="Helvetica,sans-Serif" font-size="10.00" fill="#000000">_support.h</text>
</g>
<!-- Node40&#45;&gt;Node45 -->
<g id="edge60" class="edge">
<title>Node40&#45;&gt;Node45</title>
<path fill="none" stroke="#191970" d="M1773.0723,-181.1967C1777.7718,-180.4322 1782.4806,-179.6863 1787,-179 1902.5697,-161.4491 1935.5821,-167.2971 2053.318,-143.1859"/>
<polygon fill="#191970" stroke="#191970" points="2054.3733,-146.5414 2063.4521,-141.0802 2052.9491,-139.6878 2054.3733,-146.5414"/>
</g>
<!-- Node46 -->
<g id="node47" class="node">
<title>Node46</title>
<polygon fill="none" stroke="#bfbfbf" points="2172.5,-112.5 2172.5,-142.5 2263.5,-142.5 2263.5,-112.5 2172.5,-112.5"/>
<text text-anchor="start" x="2180.5" y="-130.5" font-family="Helvetica,sans-Serif" font-size="10.00" fill="#000000">deal.II/lac/lapack</text>
<text text-anchor="middle" x="2218" y="-119.5" font-family="Helvetica,sans-Serif" font-size="10.00" fill="#000000">_templates.h</text>
</g>
<!-- Node40&#45;&gt;Node46 -->
<g id="edge61" class="edge">
<title>Node40&#45;&gt;Node46</title>
<path fill="none" stroke="#191970" d="M1773.0469,-181.0183C1777.7514,-180.2885 1782.4683,-179.5996 1787,-179 1950.6044,-157.353 1996.8328,-173.6864 2162.4365,-143.0905"/>
<polygon fill="#191970" stroke="#191970" points="2163.2946,-146.4907 2172.4771,-141.2056 2162.003,-139.6109 2163.2946,-146.4907"/>
</g>
<!-- Node47 -->
<g id="node48" class="node">
<title>Node47</title>
<polygon fill="none" stroke="#bfbfbf" points="2282,-112.5 2282,-142.5 2374,-142.5 2374,-112.5 2282,-112.5"/>
<text text-anchor="start" x="2290" y="-130.5" font-family="Helvetica,sans-Serif" font-size="10.00" fill="#000000">deal.II/lac/sparse</text>
<text text-anchor="middle" x="2328" y="-119.5" font-family="Helvetica,sans-Serif" font-size="10.00" fill="#000000">_matrix.h</text>
</g>
<!-- Node40&#45;&gt;Node47 -->
<g id="edge62" class="edge">
<title>Node40&#45;&gt;Node47</title>
<path fill="none" stroke="#191970" d="M1773.0343,-180.9191C1777.7413,-180.2087 1782.4622,-179.5514 1787,-179 1998.7558,-153.2695 2057.9084,-179.7386 2271.9615,-142.9461"/>
<polygon fill="#191970" stroke="#191970" points="2272.6925,-146.3715 2281.9419,-141.2045 2271.4891,-139.4758 2272.6925,-146.3715"/>
</g>
<!-- Node48 -->
<g id="node49" class="node">
<title>Node48</title>
<polygon fill="none" stroke="#bfbfbf" points="1410.5,-118 1410.5,-137 1511.5,-137 1511.5,-118 1410.5,-118"/>
<text text-anchor="middle" x="1461" y="-125" font-family="Helvetica,sans-Serif" font-size="10.00" fill="#000000">deal.II/lac/utilities.h</text>
</g>
<!-- Node40&#45;&gt;Node48 -->
<g id="edge63" class="edge">
<title>Node40&#45;&gt;Node48</title>
<path fill="none" stroke="#191970" d="M1683.0771,-179.4799C1641.0789,-170.4701 1576.6627,-156.3704 1521,-143 1516.4037,-141.8959 1511.6176,-140.7143 1506.8424,-139.5142"/>
<polygon fill="#191970" stroke="#191970" points="1507.6741,-136.1143 1497.1202,-137.0438 1505.9502,-142.8988 1507.6741,-136.1143"/>
</g>
</g>
</svg>
        <g id="navigator" transform="translate(0 0)" fill="#404254">
                <rect fill="#f2f5e9" fill-opacity="0.5" stroke="#606060" stroke-width=".5" x="0" y="0" width="60" height="60"/>
                <use id="zoomplus" xlink:href="#zoomPlus" x="17" y="9" onmousedown="handleZoom(evt,'in')"/>
                <use id="zoomminus" xlink:href="#zoomMin" x="42" y="9" onmousedown="handleZoom(evt,'out')"/>
                <use id="reset" xlink:href="#resetDef" x="30" y="36" onmousedown="handleReset()"/>
                <g id="arrowUp" xlink:href="#dirArrow" transform="translate(30 24)" onmousedown="handlePan(0,-1)">
                  <use xlink:href="#rim" fill="#404040">
                        <set attributeName="fill" to="#808080" begin="arrowUp.mouseover" end="arrowUp.mouseout"/>
                  </use>
                  <path fill="none" stroke="white" stroke-width="1.5" d="M0,-3.0v7 M-2.5,-0.5L0,-3.0L2.5,-0.5"/>
                </g>
                <g id="arrowRight" xlink:href="#dirArrow" transform="rotate(90) translate(36 -43)" onmousedown="handlePan(1,0)">
                  <use xlink:href="#rim" fill="#404040">
                        <set attributeName="fill" to="#808080" begin="arrowRight.mouseover" end="arrowRight.mouseout"/>
                  </use>
                  <path fill="none" stroke="white" stroke-width="1.5" d="M0,-3.0v7 M-2.5,-0.5L0,-3.0L2.5,-0.5"/>
                </g>
                <g id="arrowDown" xlink:href="#dirArrow" transform="rotate(180) translate(-30 -48)" onmousedown="handlePan(0,1)">
                  <use xlink:href="#rim" fill="#404040">
                        <set attributeName="fill" to="#808080" begin="arrowDown.mouseover" end="arrowDown.mouseout"/>
                  </use>
                  <path fill="none" stroke="white" stroke-width="1.5" d="M0,-3.0v7 M-2.5,-0.5L0,-3.0L2.5,-0.5"/>
                </g>
                <g id="arrowLeft" xlink:href="#dirArrow" transform="rotate(270) translate(-36 17)" onmousedown="handlePan(-1,0)">
                  <use xlink:href="#rim" fill="#404040">
                        <set attributeName="fill" to="#808080" begin="arrowLeft.mouseover" end="arrowLeft.mouseout"/>
                  </use>
                  <path fill="none" stroke="white" stroke-width="1.5" d="M0,-3.0v7 M-2.5,-0.5L0,-3.0L2.5,-0.5"/>
                </g>
        </g>
        <svg viewBox="0 0 15 15" width="100%" height="30px" preserveAspectRatio="xMaxYMin meet">
         <g id="arrow_out" transform="scale(0.3 0.3)">
          <a xlink:href="block-cluster-tree_8cc__incl_org.svg" target="_base">
           <rect id="button" ry="5" rx="5" y="6" x="6" height="38" width="38"
                fill="#f2f5e9" fill-opacity="0.5" stroke="#606060" stroke-width="1.0"/>
           <path id="arrow"
             d="M 11.500037,31.436501 C 11.940474,20.09759 22.043105,11.32322 32.158766,21.979434 L 37.068811,17.246167 C 37.068811,17.246167 37.088388,32 37.088388,32 L 22.160133,31.978069 C 22.160133,31.978069 26.997745,27.140456 26.997745,27.140456 C 18.528582,18.264221 13.291696,25.230495 11.500037,31.436501 z"
             style="fill:#404040;"/>
          </a>
         </g>
        </svg>
</svg>
