<?xml version="1.0" encoding="UTF-8" standalone="no"?>
<!DOCTYPE svg PUBLIC "-//W3C//DTD SVG 1.1//EN"
 "http://www.w3.org/Graphics/SVG/1.1/DTD/svg11.dtd">
<!-- Generated by graphviz version 2.40.1 (20161225.0304)
 -->
<!-- Title: /home/jihuan/Projects/deal.ii/program/dealii&#45;9.1.1/examples/laplace&#45;bem/include/block_cluster_tree.h Pages: 1 -->
<svg width="2872pt" height="374pt"
 viewBox="0.00 0.00 2872.00 374.00" xmlns="http://www.w3.org/2000/svg" xmlns:xlink="http://www.w3.org/1999/xlink">
<g id="graph0" class="graph" transform="scale(1 1) rotate(0) translate(4 370)">
<title>/home/jihuan/Projects/deal.ii/program/dealii&#45;9.1.1/examples/laplace&#45;bem/include/block_cluster_tree.h</title>
<!-- Node0 -->
<g id="node1" class="node">
<title>Node0</title>
<polygon fill="#bfbfbf" stroke="#000000" points="644.5,-313.5 644.5,-365.5 807.5,-365.5 807.5,-313.5 644.5,-313.5"/>
<text text-anchor="start" x="652.5" y="-353.5" font-family="Helvetica,sans-Serif" font-size="10.00" fill="#000000">/home/jihuan/Projects</text>
<text text-anchor="start" x="652.5" y="-342.5" font-family="Helvetica,sans-Serif" font-size="10.00" fill="#000000">/deal.ii/program/dealii</text>
<text text-anchor="start" x="652.5" y="-331.5" font-family="Helvetica,sans-Serif" font-size="10.00" fill="#000000">&#45;9.1.1/examples/laplace</text>
<text text-anchor="middle" x="726" y="-320.5" font-family="Helvetica,sans-Serif" font-size="10.00" fill="#000000">&#45;bem/include/block_cluster_tree.h</text>
</g>
<!-- Node1 -->
<g id="node2" class="node">
<title>Node1</title>
<g id="a_node2"><a xlink:href="block__cluster_8h.html" target="_top" xlink:title="Implementation of the class BlockCluster. ">
<polygon fill="none" stroke="#000000" points="754.5,-257.5 754.5,-276.5 837.5,-276.5 837.5,-257.5 754.5,-257.5"/>
<text text-anchor="middle" x="796" y="-264.5" font-family="Helvetica,sans-Serif" font-size="10.00" fill="#000000">block_cluster.h</text>
</a>
</g>
</g>
<!-- Node0&#45;&gt;Node1 -->
<g id="edge1" class="edge">
<title>Node0&#45;&gt;Node1</title>
<path fill="none" stroke="#191970" d="M751.2716,-313.3258C760.7462,-303.5128 771.254,-292.6298 779.703,-283.879"/>
<polygon fill="#191970" stroke="#191970" points="782.3667,-286.1591 786.7948,-276.534 777.3309,-281.297 782.3667,-286.1591"/>
</g>
<!-- Node13 -->
<g id="node14" class="node">
<title>Node13</title>
<g id="a_node14"><a xlink:href="cluster__tree_8h_source.html" target="_top" xlink:title="cluster_tree.h">
<polygon fill="none" stroke="#000000" points="702,-196 702,-215 778,-215 778,-196 702,-196"/>
<text text-anchor="middle" x="740" y="-203" font-family="Helvetica,sans-Serif" font-size="10.00" fill="#000000">cluster_tree.h</text>
</a>
</g>
</g>
<!-- Node0&#45;&gt;Node13 -->
<g id="edge33" class="edge">
<title>Node0&#45;&gt;Node13</title>
<path fill="none" stroke="#191970" d="M728.7326,-313.3453C731.4269,-287.5564 735.4853,-248.7118 737.9253,-225.3578"/>
<polygon fill="#191970" stroke="#191970" points="741.4219,-225.5722 738.98,-215.2626 734.4598,-224.8448 741.4219,-225.5722"/>
</g>
<!-- Node14 -->
<g id="node15" class="node">
<title>Node14</title>
<g id="a_node15"><a xlink:href="debug__tools_8h.html" target="_top" xlink:title="This file includes a bunch of helper functions for printing out and visualizing information about gri...">
<polygon fill="none" stroke="#000000" points="202.5,-134.5 202.5,-153.5 279.5,-153.5 279.5,-134.5 202.5,-134.5"/>
<text text-anchor="middle" x="241" y="-141.5" font-family="Helvetica,sans-Serif" font-size="10.00" fill="#000000">debug_tools.h</text>
</a>
</g>
</g>
<!-- Node0&#45;&gt;Node14 -->
<g id="edge34" class="edge">
<title>Node0&#45;&gt;Node14</title>
<path fill="none" stroke="#191970" d="M661.3451,-313.4381C556.7284,-271.2678 354.0266,-189.5602 274.3323,-157.436"/>
<polygon fill="#191970" stroke="#191970" points="275.3825,-154.0857 264.7991,-153.5932 272.7654,-160.5781 275.3825,-154.0857"/>
</g>
<!-- Node19 -->
<g id="node20" class="node">
<title>Node19</title>
<g id="a_node20"><a xlink:href="tree_8h.html" target="_top" xlink:title="Implementation of the classes for binary tree node, general tree node and functions for manipulating ...">
<polygon fill="none" stroke="#000000" points="653.5,-134.5 653.5,-153.5 694.5,-153.5 694.5,-134.5 653.5,-134.5"/>
<text text-anchor="middle" x="674" y="-141.5" font-family="Helvetica,sans-Serif" font-size="10.00" fill="#000000">tree.h</text>
</a>
</g>
</g>
<!-- Node0&#45;&gt;Node19 -->
<g id="edge65" class="edge">
<title>Node0&#45;&gt;Node19</title>
<path fill="none" stroke="#191970" d="M718.4358,-313.2041C711.5973,-289.2309 701.3518,-252.8097 693,-221 687.8791,-201.4959 682.3991,-179.1073 678.6468,-163.5178"/>
<polygon fill="#191970" stroke="#191970" points="681.9821,-162.4164 676.2497,-153.5063 675.1745,-164.0464 681.9821,-162.4164"/>
</g>
<!-- Node25 -->
<g id="node26" class="node">
<title>Node25</title>
<g id="a_node26"><a xlink:href="lapack__full__matrix__ext_8h_source.html" target="_top" xlink:title="lapack_full_matrix\l_ext.h">
<polygon fill="none" stroke="#000000" points="1005.5,-190.5 1005.5,-220.5 1100.5,-220.5 1100.5,-190.5 1005.5,-190.5"/>
<text text-anchor="start" x="1013.5" y="-208.5" font-family="Helvetica,sans-Serif" font-size="10.00" fill="#000000">lapack_full_matrix</text>
<text text-anchor="middle" x="1053" y="-197.5" font-family="Helvetica,sans-Serif" font-size="10.00" fill="#000000">_ext.h</text>
</a>
</g>
</g>
<!-- Node0&#45;&gt;Node25 -->
<g id="edge35" class="edge">
<title>Node0&#45;&gt;Node25</title>
<path fill="none" stroke="#191970" d="M789.8252,-313.3453C853.6045,-287.2095 950.1064,-247.6644 1006.8201,-224.4239"/>
<polygon fill="#191970" stroke="#191970" points="1008.3234,-227.5904 1016.2495,-220.5599 1005.6691,-221.1131 1008.3234,-227.5904"/>
</g>
<!-- Node2 -->
<g id="node3" class="node">
<title>Node2</title>
<g id="a_node3"><a xlink:href="cluster_8h.html" target="_top" xlink:title="Implementation of the class Cluster. ">
<polygon fill="none" stroke="#000000" points="798,-134.5 798,-153.5 852,-153.5 852,-134.5 798,-134.5"/>
<text text-anchor="middle" x="825" y="-141.5" font-family="Helvetica,sans-Serif" font-size="10.00" fill="#000000">cluster.h</text>
</a>
</g>
</g>
<!-- Node1&#45;&gt;Node2 -->
<g id="edge2" class="edge">
<title>Node1&#45;&gt;Node2</title>
<path fill="none" stroke="#191970" d="M798.2756,-257.3484C803.0402,-237.1397 814.1444,-190.0427 820.4372,-163.3528"/>
<polygon fill="#191970" stroke="#191970" points="823.8467,-164.1431 822.735,-153.6068 817.0335,-162.5367 823.8467,-164.1431"/>
</g>
<!-- Node1&#45;&gt;Node13 -->
<g id="edge14" class="edge">
<title>Node1&#45;&gt;Node13</title>
<path fill="none" stroke="#191970" d="M787.25,-257.3906C778.8338,-248.1478 765.9203,-233.966 755.719,-222.7628"/>
<polygon fill="#191970" stroke="#191970" points="758.194,-220.2824 748.8734,-215.2449 753.0182,-224.9953 758.194,-220.2824"/>
</g>
<!-- Node3 -->
<g id="node4" class="node">
<title>Node3</title>
<polygon fill="none" stroke="#bfbfbf" points="1180.5,-73 1180.5,-92 1283.5,-92 1283.5,-73 1180.5,-73"/>
<text text-anchor="middle" x="1232" y="-80" font-family="Helvetica,sans-Serif" font-size="10.00" fill="#000000">deal.II/base/types.h</text>
</g>
<!-- Node2&#45;&gt;Node3 -->
<g id="edge3" class="edge">
<title>Node2&#45;&gt;Node3</title>
<path fill="none" stroke="#191970" d="M852.3737,-136.1173C855.6024,-135.3316 858.8635,-134.6031 862,-134 997.7748,-107.8916 1035.0316,-123.0804 1171,-98 1176.4399,-96.9966 1182.1138,-95.7838 1187.7164,-94.4839"/>
<polygon fill="#191970" stroke="#191970" points="1188.763,-97.8316 1197.6581,-92.076 1187.1152,-91.0283 1188.763,-97.8316"/>
</g>
<!-- Node4 -->
<g id="node5" class="node">
<title>Node4</title>
<polygon fill="none" stroke="#bfbfbf" points="710,-73 710,-92 766,-92 766,-73 710,-73"/>
<text text-anchor="middle" x="738" y="-80" font-family="Helvetica,sans-Serif" font-size="10.00" fill="#000000">algorithm</text>
</g>
<!-- Node2&#45;&gt;Node4 -->
<g id="edge4" class="edge">
<title>Node2&#45;&gt;Node4</title>
<path fill="none" stroke="#191970" d="M811.4063,-134.3906C797.6157,-124.6421 776.0528,-109.3994 759.859,-97.9521"/>
<polygon fill="#191970" stroke="#191970" points="761.6844,-94.9563 751.4983,-92.0419 757.6437,-100.6723 761.6844,-94.9563"/>
</g>
<!-- Node5 -->
<g id="node6" class="node">
<title>Node5</title>
<polygon fill="none" stroke="#bfbfbf" points="1301.5,-73 1301.5,-92 1348.5,-92 1348.5,-73 1301.5,-73"/>
<text text-anchor="middle" x="1325" y="-80" font-family="Helvetica,sans-Serif" font-size="10.00" fill="#000000">iterator</text>
</g>
<!-- Node2&#45;&gt;Node5 -->
<g id="edge5" class="edge">
<title>Node2&#45;&gt;Node5</title>
<path fill="none" stroke="#191970" d="M852.355,-136.0158C855.5871,-135.2483 858.8541,-134.5518 862,-134 1051.3318,-100.7883 1107.5987,-148.7532 1293,-98 1294.9201,-97.4744 1296.8643,-96.8352 1298.7961,-96.1194"/>
<polygon fill="#191970" stroke="#191970" points="1300.3842,-99.2462 1308.1815,-92.0732 1297.6129,-92.8181 1300.3842,-99.2462"/>
</g>
<!-- Node6 -->
<g id="node7" class="node">
<title>Node6</title>
<polygon fill="none" stroke="#bfbfbf" points="948,-6 948,-25 992,-25 992,-6 948,-6"/>
<text text-anchor="middle" x="970" y="-13" font-family="Helvetica,sans-Serif" font-size="10.00" fill="#000000">vector</text>
</g>
<!-- Node2&#45;&gt;Node6 -->
<g id="edge6" class="edge">
<title>Node2&#45;&gt;Node6</title>
<path fill="none" stroke="#191970" d="M852.1274,-136.7457C883.648,-127.8092 933.0066,-112.0796 946,-98 961.8337,-80.8427 967.2774,-53.8268 969.1172,-35.4204"/>
<polygon fill="#191970" stroke="#191970" points="972.6231,-35.4651 969.8577,-25.2376 965.6415,-34.9574 972.6231,-35.4651"/>
</g>
<!-- Node7 -->
<g id="node8" class="node">
<title>Node7</title>
<g id="a_node8"><a xlink:href="simple__bounding__box_8h_source.html" target="_top" xlink:title="simple_bounding_box.h">
<polygon fill="none" stroke="#000000" points="784.5,-73 784.5,-92 903.5,-92 903.5,-73 784.5,-73"/>
<text text-anchor="middle" x="844" y="-80" font-family="Helvetica,sans-Serif" font-size="10.00" fill="#000000">simple_bounding_box.h</text>
</a>
</g>
</g>
<!-- Node2&#45;&gt;Node7 -->
<g id="edge7" class="edge">
<title>Node2&#45;&gt;Node7</title>
<path fill="none" stroke="#191970" d="M827.9688,-134.3906C830.6302,-125.776 834.6171,-112.8708 837.9491,-102.0858"/>
<polygon fill="#191970" stroke="#191970" points="841.3816,-102.8324 840.9894,-92.2449 834.6935,-100.7661 841.3816,-102.8324"/>
</g>
<!-- Node7&#45;&gt;Node6 -->
<g id="edge13" class="edge">
<title>Node7&#45;&gt;Node6</title>
<path fill="none" stroke="#191970" d="M862.0527,-72.9005C883.1984,-61.6564 918.4404,-42.9166 942.8782,-29.9219"/>
<polygon fill="#191970" stroke="#191970" points="944.7947,-32.867 951.9808,-25.0817 941.5082,-26.6864 944.7947,-32.867"/>
</g>
<!-- Node8 -->
<g id="node9" class="node">
<title>Node8</title>
<polygon fill="none" stroke="#bfbfbf" points="812,-6 812,-25 912,-25 912,-6 812,-6"/>
<text text-anchor="middle" x="862" y="-13" font-family="Helvetica,sans-Serif" font-size="10.00" fill="#000000">deal.II/base/point.h</text>
</g>
<!-- Node7&#45;&gt;Node8 -->
<g id="edge8" class="edge">
<title>Node7&#45;&gt;Node8</title>
<path fill="none" stroke="#191970" d="M846.579,-72.9005C849.2255,-63.0495 853.4177,-47.4451 856.7636,-34.9912"/>
<polygon fill="#191970" stroke="#191970" points="860.2113,-35.6473 859.4258,-25.0817 853.451,-33.8311 860.2113,-35.6473"/>
</g>
<!-- Node9 -->
<g id="node10" class="node">
<title>Node9</title>
<polygon fill="none" stroke="#bfbfbf" points="558.5,-6 558.5,-25 685.5,-25 685.5,-6 558.5,-6"/>
<text text-anchor="middle" x="622" y="-13" font-family="Helvetica,sans-Serif" font-size="10.00" fill="#000000">deal.II/dofs/dof_handler.h</text>
</g>
<!-- Node7&#45;&gt;Node9 -->
<g id="edge9" class="edge">
<title>Node7&#45;&gt;Node9</title>
<path fill="none" stroke="#191970" d="M812.1928,-72.9005C773.0404,-61.0843 706.4596,-40.9901 663.3667,-27.9845"/>
<polygon fill="#191970" stroke="#191970" points="664.333,-24.6203 653.7482,-25.0817 662.3104,-31.3218 664.333,-24.6203"/>
</g>
<!-- Node10 -->
<g id="node11" class="node">
<title>Node10</title>
<polygon fill="none" stroke="#bfbfbf" points="0,-6 0,-25 116,-25 116,-6 0,-6"/>
<text text-anchor="middle" x="58" y="-13" font-family="Helvetica,sans-Serif" font-size="10.00" fill="#000000">deal.II/dofs/dof_tools.h</text>
</g>
<!-- Node7&#45;&gt;Node10 -->
<g id="edge10" class="edge">
<title>Node7&#45;&gt;Node10</title>
<path fill="none" stroke="#191970" d="M806.2291,-72.9479C796.1393,-70.6896 785.203,-68.5038 775,-67 711.9632,-57.709 293.1987,-30.4669 126.3874,-19.8275"/>
<polygon fill="#191970" stroke="#191970" points="126.449,-16.3245 116.2466,-19.1814 126.0038,-23.3103 126.449,-16.3245"/>
</g>
<!-- Node11 -->
<g id="node12" class="node">
<title>Node11</title>
<polygon fill="none" stroke="#bfbfbf" points="336.5,-6 336.5,-25 439.5,-25 439.5,-6 336.5,-6"/>
<text text-anchor="middle" x="388" y="-13" font-family="Helvetica,sans-Serif" font-size="10.00" fill="#000000">deal.II/fe/mapping.h</text>
</g>
<!-- Node7&#45;&gt;Node11 -->
<g id="edge11" class="edge">
<title>Node7&#45;&gt;Node11</title>
<path fill="none" stroke="#191970" d="M804.3509,-72.9614C794.7746,-70.8329 784.5485,-68.7043 775,-67 660.694,-46.5971 526.0729,-30.439 449.511,-21.981"/>
<polygon fill="#191970" stroke="#191970" points="449.8789,-18.5004 439.5568,-20.8886 449.1153,-25.4586 449.8789,-18.5004"/>
</g>
<!-- Node12 -->
<g id="node13" class="node">
<title>Node12</title>
<polygon fill="none" stroke="#bfbfbf" points="754,-6 754,-25 794,-25 794,-6 754,-6"/>
<text text-anchor="middle" x="774" y="-13" font-family="Helvetica,sans-Serif" font-size="10.00" fill="#000000">utility</text>
</g>
<!-- Node7&#45;&gt;Node12 -->
<g id="edge12" class="edge">
<title>Node7&#45;&gt;Node12</title>
<path fill="none" stroke="#191970" d="M833.9707,-72.9005C822.8469,-62.2535 804.7013,-44.8856 791.279,-32.0385"/>
<polygon fill="#191970" stroke="#191970" points="793.655,-29.4678 784.0107,-25.0817 788.8148,-34.5247 793.655,-29.4678"/>
</g>
<!-- Node13&#45;&gt;Node2 -->
<g id="edge15" class="edge">
<title>Node13&#45;&gt;Node2</title>
<path fill="none" stroke="#191970" d="M753.2813,-195.8906C766.7548,-186.1421 787.822,-170.8994 803.6435,-159.4521"/>
<polygon fill="#191970" stroke="#191970" points="805.7619,-162.2394 811.812,-153.5419 801.6586,-156.5682 805.7619,-162.2394"/>
</g>
<!-- Node13&#45;&gt;Node14 -->
<g id="edge16" class="edge">
<title>Node13&#45;&gt;Node14</title>
<path fill="none" stroke="#191970" d="M701.6729,-200.7763C612.0736,-189.7335 389.0118,-162.2419 289.8518,-150.0208"/>
<polygon fill="#191970" stroke="#191970" points="290.1542,-146.5317 279.8012,-148.7821 289.2979,-153.4791 290.1542,-146.5317"/>
</g>
<!-- Node13&#45;&gt;Node19 -->
<g id="edge24" class="edge">
<title>Node13&#45;&gt;Node19</title>
<path fill="none" stroke="#191970" d="M729.6875,-195.8906C719.5758,-186.4683 703.9558,-171.9134 691.8293,-160.6137"/>
<polygon fill="#191970" stroke="#191970" points="694.1601,-158.0015 684.4579,-153.7449 689.388,-163.1228 694.1601,-158.0015"/>
</g>
<!-- Node14&#45;&gt;Node9 -->
<g id="edge17" class="edge">
<title>Node14&#45;&gt;Node9</title>
<path fill="none" stroke="#191970" d="M202.284,-139.0359C144.5045,-130.1487 46.328,-108.4503 84,-67 85.9355,-64.8704 401.1995,-35.7291 548.1623,-22.2508"/>
<polygon fill="#191970" stroke="#191970" points="548.8074,-25.7064 558.4461,-21.308 548.1683,-18.7356 548.8074,-25.7064"/>
</g>
<!-- Node14&#45;&gt;Node10 -->
<g id="edge18" class="edge">
<title>Node14&#45;&gt;Node10</title>
<path fill="none" stroke="#191970" d="M202.4303,-140.8773C149.3905,-135.6914 58.1848,-123.2704 38,-98 23.1965,-79.4667 34.9118,-51.6284 45.6527,-33.5104"/>
<polygon fill="#191970" stroke="#191970" points="48.6354,-35.3423 51.035,-25.0227 42.7238,-31.5935 48.6354,-35.3423"/>
</g>
<!-- Node14&#45;&gt;Node11 -->
<g id="edge21" class="edge">
<title>Node14&#45;&gt;Node11</title>
<path fill="none" stroke="#191970" d="M202.4372,-141.6464C134.9426,-136.1431 6.5939,-118.7078 51,-67 68.6776,-46.4157 233.9453,-28.8962 326.2917,-20.6126"/>
<polygon fill="#191970" stroke="#191970" points="326.7062,-24.0897 336.3581,-19.7203 326.0881,-17.117 326.7062,-24.0897"/>
</g>
<!-- Node15 -->
<g id="node16" class="node">
<title>Node15</title>
<polygon fill="none" stroke="#bfbfbf" points="93,-73 93,-92 167,-92 167,-73 93,-73"/>
<text text-anchor="middle" x="130" y="-80" font-family="Helvetica,sans-Serif" font-size="10.00" fill="#000000">deal.II/fe/fe.h</text>
</g>
<!-- Node14&#45;&gt;Node15 -->
<g id="edge19" class="edge">
<title>Node14&#45;&gt;Node15</title>
<path fill="none" stroke="#191970" d="M223.6563,-134.3906C205.5727,-124.3713 177.0141,-108.5483 156.1835,-97.0071"/>
<polygon fill="#191970" stroke="#191970" points="157.6654,-93.8268 147.222,-92.0419 154.2729,-99.9498 157.6654,-93.8268"/>
</g>
<!-- Node16 -->
<g id="node17" class="node">
<title>Node16</title>
<polygon fill="none" stroke="#bfbfbf" points="185,-73 185,-92 297,-92 297,-73 185,-73"/>
<text text-anchor="middle" x="241" y="-80" font-family="Helvetica,sans-Serif" font-size="10.00" fill="#000000">deal.II/fe/fe_system.h</text>
</g>
<!-- Node14&#45;&gt;Node16 -->
<g id="edge20" class="edge">
<title>Node14&#45;&gt;Node16</title>
<path fill="none" stroke="#191970" d="M241,-134.3906C241,-125.8657 241,-113.1392 241,-102.4235"/>
<polygon fill="#191970" stroke="#191970" points="244.5001,-102.2448 241,-92.2449 237.5001,-102.2449 244.5001,-102.2448"/>
</g>
<!-- Node17 -->
<g id="node18" class="node">
<title>Node17</title>
<polygon fill="none" stroke="#bfbfbf" points="315,-73 315,-92 369,-92 369,-73 315,-73"/>
<text text-anchor="middle" x="342" y="-80" font-family="Helvetica,sans-Serif" font-size="10.00" fill="#000000">iostream</text>
</g>
<!-- Node14&#45;&gt;Node17 -->
<g id="edge22" class="edge">
<title>Node14&#45;&gt;Node17</title>
<path fill="none" stroke="#191970" d="M256.7813,-134.3906C273.0875,-124.4616 298.754,-108.833 317.6614,-97.3201"/>
<polygon fill="#191970" stroke="#191970" points="319.6087,-100.2322 326.3296,-92.0419 315.9681,-94.2533 319.6087,-100.2322"/>
</g>
<!-- Node18 -->
<g id="node19" class="node">
<title>Node18</title>
<polygon fill="none" stroke="#bfbfbf" points="520.5,-73 520.5,-92 561.5,-92 561.5,-73 520.5,-73"/>
<text text-anchor="middle" x="541" y="-80" font-family="Helvetica,sans-Serif" font-size="10.00" fill="#000000">string</text>
</g>
<!-- Node14&#45;&gt;Node18 -->
<g id="edge23" class="edge">
<title>Node14&#45;&gt;Node18</title>
<path fill="none" stroke="#191970" d="M279.9163,-141.1498C333.2231,-136.4026 431.4088,-124.6251 511,-98 512.4246,-97.5234 513.8647,-96.987 515.3027,-96.4074"/>
<polygon fill="#191970" stroke="#191970" points="516.9617,-99.4967 524.5804,-92.1343 514.0333,-93.1387 516.9617,-99.4967"/>
</g>
<!-- Node19&#45;&gt;Node4 -->
<g id="edge26" class="edge">
<title>Node19&#45;&gt;Node4</title>
<path fill="none" stroke="#191970" d="M684,-134.3906C693.7119,-125.0581 708.6639,-110.6902 720.3741,-99.4374"/>
<polygon fill="#191970" stroke="#191970" points="723.0736,-101.6974 727.859,-92.2449 718.2234,-96.65 723.0736,-101.6974"/>
</g>
<!-- Node19&#45;&gt;Node6 -->
<g id="edge32" class="edge">
<title>Node19&#45;&gt;Node6</title>
<path fill="none" stroke="#191970" d="M694.7325,-142.0308C745.9298,-136.8537 876.8171,-121.6114 913,-98 936.6044,-82.5968 953.1507,-53.6791 962.1254,-34.5016"/>
<polygon fill="#191970" stroke="#191970" points="965.3777,-35.8013 966.2277,-25.2406 958.9775,-32.9662 965.3777,-35.8013"/>
</g>
<!-- Node19&#45;&gt;Node17 -->
<g id="edge30" class="edge">
<title>Node19&#45;&gt;Node17</title>
<path fill="none" stroke="#191970" d="M653.1576,-142.5758C604.2603,-138.8452 478.6998,-126.9969 378,-98 375.8217,-97.3727 373.6007,-96.6463 371.3851,-95.857"/>
<polygon fill="#191970" stroke="#191970" points="372.4413,-92.5115 361.8541,-92.108 369.8789,-99.0257 372.4413,-92.5115"/>
</g>
<!-- Node20 -->
<g id="node21" class="node">
<title>Node20</title>
<polygon fill="none" stroke="#bfbfbf" points="1036,-73 1036,-92 1162,-92 1162,-73 1036,-73"/>
<text text-anchor="middle" x="1099" y="-80" font-family="Helvetica,sans-Serif" font-size="10.00" fill="#000000">deal.II/base/exceptions.h</text>
</g>
<!-- Node19&#45;&gt;Node20 -->
<g id="edge25" class="edge">
<title>Node19&#45;&gt;Node20</title>
<path fill="none" stroke="#191970" d="M694.7863,-140.9921C754.0789,-132.4121 926.1492,-107.5125 1025.6318,-93.1168"/>
<polygon fill="#191970" stroke="#191970" points="1026.2215,-96.568 1035.6172,-91.6719 1025.219,-89.6402 1026.2215,-96.568"/>
</g>
<!-- Node21 -->
<g id="node22" class="node">
<title>Node21</title>
<polygon fill="none" stroke="#bfbfbf" points="387,-73 387,-92 425,-92 425,-73 387,-73"/>
<text text-anchor="middle" x="406" y="-80" font-family="Helvetica,sans-Serif" font-size="10.00" fill="#000000">array</text>
</g>
<!-- Node19&#45;&gt;Node21 -->
<g id="edge27" class="edge">
<title>Node19&#45;&gt;Node21</title>
<path fill="none" stroke="#191970" d="M653.1894,-142.2392C610.8264,-138.1764 511.9841,-126.2435 434,-98 432.7952,-97.5636 431.5802,-97.0801 430.3666,-96.5615"/>
<polygon fill="#191970" stroke="#191970" points="431.8034,-93.3677 421.2849,-92.0977 428.7156,-99.6499 431.8034,-93.3677"/>
</g>
<!-- Node22 -->
<g id="node23" class="node">
<title>Node22</title>
<polygon fill="none" stroke="#bfbfbf" points="443.5,-73 443.5,-92 502.5,-92 502.5,-73 443.5,-73"/>
<text text-anchor="middle" x="473" y="-80" font-family="Helvetica,sans-Serif" font-size="10.00" fill="#000000">exception</text>
</g>
<!-- Node19&#45;&gt;Node22 -->
<g id="edge28" class="edge">
<title>Node19&#45;&gt;Node22</title>
<path fill="none" stroke="#191970" d="M653.4436,-138.9891C622.3074,-131.2222 561.4681,-115.3528 511,-98 509.0797,-97.3397 507.1161,-96.6344 505.1424,-95.9022"/>
<polygon fill="#191970" stroke="#191970" points="505.9353,-92.4556 495.3464,-92.1015 503.4033,-98.9817 505.9353,-92.4556"/>
</g>
<!-- Node23 -->
<g id="node24" class="node">
<title>Node23</title>
<polygon fill="none" stroke="#bfbfbf" points="579.5,-73 579.5,-92 638.5,-92 638.5,-73 579.5,-73"/>
<text text-anchor="middle" x="609" y="-80" font-family="Helvetica,sans-Serif" font-size="10.00" fill="#000000">functional</text>
</g>
<!-- Node19&#45;&gt;Node23 -->
<g id="edge29" class="edge">
<title>Node19&#45;&gt;Node23</title>
<path fill="none" stroke="#191970" d="M663.8438,-134.3906C653.9801,-125.0581 638.7945,-110.6902 626.9013,-99.4374"/>
<polygon fill="#191970" stroke="#191970" points="628.9689,-96.5753 619.2994,-92.2449 624.1579,-101.6601 628.9689,-96.5753"/>
</g>
<!-- Node24 -->
<g id="node25" class="node">
<title>Node24</title>
<polygon fill="none" stroke="#bfbfbf" points="656.5,-73 656.5,-92 691.5,-92 691.5,-73 656.5,-73"/>
<text text-anchor="middle" x="674" y="-80" font-family="Helvetica,sans-Serif" font-size="10.00" fill="#000000">new</text>
</g>
<!-- Node19&#45;&gt;Node24 -->
<g id="edge31" class="edge">
<title>Node19&#45;&gt;Node24</title>
<path fill="none" stroke="#191970" d="M674,-134.3906C674,-125.8657 674,-113.1392 674,-102.4235"/>
<polygon fill="#191970" stroke="#191970" points="677.5001,-102.2448 674,-92.2449 670.5001,-102.2449 677.5001,-102.2448"/>
</g>
<!-- Node25&#45;&gt;Node6 -->
<g id="edge41" class="edge">
<title>Node25&#45;&gt;Node6</title>
<path fill="none" stroke="#191970" d="M1046.3481,-190.2727C1031.2987,-155.8223 994.6721,-71.9783 978.2291,-34.3378"/>
<polygon fill="#191970" stroke="#191970" points="981.3718,-32.7885 974.1613,-25.0258 974.9571,-35.5907 981.3718,-32.7885"/>
</g>
<!-- Node25&#45;&gt;Node18 -->
<g id="edge40" class="edge">
<title>Node25&#45;&gt;Node18</title>
<path fill="none" stroke="#191970" d="M1005.131,-197.0365C952.1042,-187.4579 864.1588,-170.9688 789,-154 764.6054,-148.4923 594.3686,-106.9074 571,-98 569.7675,-97.5302 568.5198,-97.0232 567.2693,-96.4893"/>
<polygon fill="#191970" stroke="#191970" points="568.3655,-93.1366 557.8279,-92.0364 565.3794,-99.4678 568.3655,-93.1366"/>
</g>
<!-- Node26 -->
<g id="node27" class="node">
<title>Node26</title>
<polygon fill="none" stroke="#bfbfbf" points="2166,-134.5 2166,-153.5 2206,-153.5 2206,-134.5 2166,-134.5"/>
<text text-anchor="middle" x="2186" y="-141.5" font-family="Helvetica,sans-Serif" font-size="10.00" fill="#000000">limits</text>
</g>
<!-- Node25&#45;&gt;Node26 -->
<g id="edge36" class="edge">
<title>Node25&#45;&gt;Node26</title>
<path fill="none" stroke="#191970" d="M1100.6849,-205.0813C1282.0931,-203.2135 1929.9212,-193.9646 2155.8064,-153.628"/>
<polygon fill="#191970" stroke="#191970" points="2156.7284,-157.0166 2165.9192,-151.746 2155.4477,-150.1347 2156.7284,-157.0166"/>
</g>
<!-- Node27 -->
<g id="node28" class="node">
<title>Node27</title>
<polygon fill="none" stroke="#bfbfbf" points="1529.5,-73 1529.5,-92 1564.5,-92 1564.5,-73 1529.5,-73"/>
<text text-anchor="middle" x="1547" y="-80" font-family="Helvetica,sans-Serif" font-size="10.00" fill="#000000">map</text>
</g>
<!-- Node25&#45;&gt;Node27 -->
<g id="edge37" class="edge">
<title>Node25&#45;&gt;Node27</title>
<path fill="none" stroke="#191970" d="M1100.7803,-203.6372C1170.1915,-199.8112 1302.2765,-188.2866 1409,-154 1451.7436,-140.2679 1497.2192,-114.1832 1523.8202,-97.6032"/>
<polygon fill="#191970" stroke="#191970" points="1525.8272,-100.4752 1532.4067,-92.1709 1522.0846,-94.5596 1525.8272,-100.4752"/>
</g>
<!-- Node28 -->
<g id="node29" class="node">
<title>Node28</title>
<polygon fill="none" stroke="#bfbfbf" points="870.5,-134.5 870.5,-153.5 911.5,-153.5 911.5,-134.5 870.5,-134.5"/>
<text text-anchor="middle" x="891" y="-141.5" font-family="Helvetica,sans-Serif" font-size="10.00" fill="#000000">regex</text>
</g>
<!-- Node25&#45;&gt;Node28 -->
<g id="edge38" class="edge">
<title>Node25&#45;&gt;Node28</title>
<path fill="none" stroke="#191970" d="M1013.3703,-190.4554C984.9637,-179.6714 947.2776,-165.3647 921.2702,-155.4915"/>
<polygon fill="#191970" stroke="#191970" points="922.5093,-152.2182 911.9181,-151.9411 920.0249,-158.7625 922.5093,-152.2182"/>
</g>
<!-- Node29 -->
<g id="node30" class="node">
<title>Node29</title>
<polygon fill="none" stroke="#bfbfbf" points="930,-134.5 930,-153.5 982,-153.5 982,-134.5 930,-134.5"/>
<text text-anchor="middle" x="956" y="-141.5" font-family="Helvetica,sans-Serif" font-size="10.00" fill="#000000">sstream</text>
</g>
<!-- Node25&#45;&gt;Node29 -->
<g id="edge39" class="edge">
<title>Node25&#45;&gt;Node29</title>
<path fill="none" stroke="#191970" d="M1029.0225,-190.2977C1014.0624,-180.8127 994.878,-168.6495 979.9274,-159.1705"/>
<polygon fill="#191970" stroke="#191970" points="981.561,-156.062 971.2413,-153.6633 977.8127,-161.9739 981.561,-156.062"/>
</g>
<!-- Node30 -->
<g id="node31" class="node">
<title>Node30</title>
<g id="a_node31"><a xlink:href="general__exceptions_8h.html" target="_top" xlink:title="Definition of self&#45;defined general exceptions. ">
<polygon fill="none" stroke="#000000" points="1040.5,-134.5 1040.5,-153.5 1149.5,-153.5 1149.5,-134.5 1040.5,-134.5"/>
<text text-anchor="middle" x="1095" y="-141.5" font-family="Helvetica,sans-Serif" font-size="10.00" fill="#000000">general_exceptions.h</text>
</a>
</g>
</g>
<!-- Node25&#45;&gt;Node30 -->
<g id="edge42" class="edge">
<title>Node25&#45;&gt;Node30</title>
<path fill="none" stroke="#191970" d="M1063.382,-190.2977C1069.1513,-181.8498 1076.3716,-171.2773 1082.4553,-162.369"/>
<polygon fill="#191970" stroke="#191970" points="1085.5259,-164.0788 1088.2753,-153.8469 1079.7453,-160.1311 1085.5259,-164.0788"/>
</g>
<!-- Node31 -->
<g id="node32" class="node">
<title>Node31</title>
<g id="a_node32"><a xlink:href="generic__functors_8h.html" target="_top" xlink:title="This header file contains a set of self&#45;defined generic functors. ">
<polygon fill="none" stroke="#000000" points="1302.5,-134.5 1302.5,-153.5 1399.5,-153.5 1399.5,-134.5 1302.5,-134.5"/>
<text text-anchor="middle" x="1351" y="-141.5" font-family="Helvetica,sans-Serif" font-size="10.00" fill="#000000">generic_functors.h</text>
</a>
</g>
</g>
<!-- Node25&#45;&gt;Node31 -->
<g id="edge44" class="edge">
<title>Node25&#45;&gt;Node31</title>
<path fill="none" stroke="#191970" d="M1100.5485,-195.6871C1153.2995,-184.8006 1238.3587,-167.2465 1294.4748,-155.6654"/>
<polygon fill="#191970" stroke="#191970" points="1295.5155,-159.0245 1304.6017,-153.5755 1294.1007,-152.169 1295.5155,-159.0245"/>
</g>
<!-- Node34 -->
<g id="node35" class="node">
<title>Node34</title>
<g id="a_node35"><a xlink:href="lapack__helpers_8h.html" target="_top" xlink:title="Exposes LAPACK helper functions defined in lapack_full_matrix.cc and define new ones by following the...">
<polygon fill="none" stroke="#000000" points="2058,-134.5 2058,-153.5 2148,-153.5 2148,-134.5 2058,-134.5"/>
<text text-anchor="middle" x="2103" y="-141.5" font-family="Helvetica,sans-Serif" font-size="10.00" fill="#000000">lapack_helpers.h</text>
</a>
</g>
</g>
<!-- Node25&#45;&gt;Node34 -->
<g id="edge52" class="edge">
<title>Node25&#45;&gt;Node34</title>
<path fill="none" stroke="#191970" d="M1100.8448,-202.6977C1273.5036,-192.5848 1863.9584,-158.001 2047.8599,-147.2296"/>
<polygon fill="#191970" stroke="#191970" points="2048.0704,-150.7234 2057.8486,-146.6446 2047.6611,-143.7354 2048.0704,-150.7234"/>
</g>
<!-- Node30&#45;&gt;Node20 -->
<g id="edge43" class="edge">
<title>Node30&#45;&gt;Node20</title>
<path fill="none" stroke="#191970" d="M1095.625,-134.3906C1096.1795,-125.8657 1097.0072,-113.1392 1097.7042,-102.4235"/>
<polygon fill="#191970" stroke="#191970" points="1101.2097,-102.451 1098.3662,-92.2449 1094.2244,-101.9966 1101.2097,-102.451"/>
</g>
<!-- Node31&#45;&gt;Node3 -->
<g id="edge46" class="edge">
<title>Node31&#45;&gt;Node3</title>
<path fill="none" stroke="#191970" d="M1332.4063,-134.3906C1312.8447,-124.2811 1281.8499,-108.2628 1259.4691,-96.6962"/>
<polygon fill="#191970" stroke="#191970" points="1260.9539,-93.5238 1250.4632,-92.0419 1257.74,-99.7425 1260.9539,-93.5238"/>
</g>
<!-- Node31&#45;&gt;Node5 -->
<g id="edge49" class="edge">
<title>Node31&#45;&gt;Node5</title>
<path fill="none" stroke="#191970" d="M1346.9375,-134.3906C1343.2576,-125.6862 1337.7258,-112.6015 1333.138,-101.7494"/>
<polygon fill="#191970" stroke="#191970" points="1336.2375,-100.0927 1329.1198,-92.2449 1329.79,-102.8185 1336.2375,-100.0927"/>
</g>
<!-- Node31&#45;&gt;Node6 -->
<g id="edge51" class="edge">
<title>Node31&#45;&gt;Node6</title>
<path fill="none" stroke="#191970" d="M1355.8563,-134.3489C1363.1812,-118.264 1374.5405,-85.881 1358,-67 1334.6037,-40.2931 1090.7908,-22.8674 1002.0617,-17.3694"/>
<polygon fill="#191970" stroke="#191970" points="1002.2295,-13.8733 992.0351,-16.7583 1001.8035,-20.8603 1002.2295,-13.8733"/>
</g>
<!-- Node31&#45;&gt;Node20 -->
<g id="edge45" class="edge">
<title>Node31&#45;&gt;Node20</title>
<path fill="none" stroke="#191970" d="M1311.9015,-134.4581C1267.761,-123.6857 1195.878,-106.1428 1148.0194,-94.4631"/>
<polygon fill="#191970" stroke="#191970" points="1148.735,-91.035 1138.1902,-92.0643 1147.0753,-97.8355 1148.735,-91.035"/>
</g>
<!-- Node31&#45;&gt;Node27 -->
<g id="edge50" class="edge">
<title>Node31&#45;&gt;Node27</title>
<path fill="none" stroke="#191970" d="M1392.769,-134.4619C1426.3104,-126.286 1474.3519,-113.4053 1515,-98 1516.6271,-97.3834 1518.2838,-96.7146 1519.9439,-96.0126"/>
<polygon fill="#191970" stroke="#191970" points="1521.6479,-99.0829 1529.3063,-91.7617 1518.7539,-92.7091 1521.6479,-99.0829"/>
</g>
<!-- Node32 -->
<g id="node33" class="node">
<title>Node32</title>
<polygon fill="none" stroke="#bfbfbf" points="1547.5,-.5 1547.5,-30.5 1638.5,-30.5 1638.5,-.5 1547.5,-.5"/>
<text text-anchor="start" x="1555.5" y="-18.5" font-family="Helvetica,sans-Serif" font-size="10.00" fill="#000000">deal.II/lac/lapack</text>
<text text-anchor="middle" x="1593" y="-7.5" font-family="Helvetica,sans-Serif" font-size="10.00" fill="#000000">_support.h</text>
</g>
<!-- Node31&#45;&gt;Node32 -->
<g id="edge47" class="edge">
<title>Node31&#45;&gt;Node32</title>
<path fill="none" stroke="#191970" d="M1388.545,-134.4402C1415.5308,-126.7185 1452.2495,-114.4329 1482,-98 1501.3819,-87.2943 1503.323,-80.334 1521,-67 1534.688,-56.675 1550.1196,-45.5685 1563.1755,-36.3225"/>
<polygon fill="#191970" stroke="#191970" points="1565.2158,-39.1665 1571.3699,-30.5422 1561.1809,-33.4464 1565.2158,-39.1665"/>
</g>
<!-- Node33 -->
<g id="node34" class="node">
<title>Node33</title>
<polygon fill="none" stroke="#bfbfbf" points="1405.5,-73 1405.5,-92 1472.5,-92 1472.5,-73 1405.5,-73"/>
<text text-anchor="middle" x="1439" y="-80" font-family="Helvetica,sans-Serif" font-size="10.00" fill="#000000">forward_list</text>
</g>
<!-- Node31&#45;&gt;Node33 -->
<g id="edge48" class="edge">
<title>Node31&#45;&gt;Node33</title>
<path fill="none" stroke="#191970" d="M1364.75,-134.3906C1378.6991,-124.6421 1400.5098,-109.3994 1416.8897,-97.9521"/>
<polygon fill="#191970" stroke="#191970" points="1419.1548,-100.6392 1425.3466,-92.0419 1415.1449,-94.9015 1419.1548,-100.6392"/>
</g>
<!-- Node34&#45;&gt;Node32 -->
<g id="edge58" class="edge">
<title>Node34&#45;&gt;Node32</title>
<path fill="none" stroke="#191970" d="M2057.9231,-142.7443C1942.8943,-139.1291 1645.1801,-127.0383 1612,-98 1596.0049,-84.0015 1592.018,-59.4911 1591.5767,-40.8126"/>
<polygon fill="#191970" stroke="#191970" points="1595.0781,-40.6415 1591.6625,-30.6124 1588.0784,-40.5826 1595.0781,-40.6415"/>
</g>
<!-- Node35 -->
<g id="node36" class="node">
<title>Node35</title>
<polygon fill="none" stroke="#bfbfbf" points="1621,-73 1621,-92 1737,-92 1737,-73 1621,-73"/>
<text text-anchor="middle" x="1679" y="-80" font-family="Helvetica,sans-Serif" font-size="10.00" fill="#000000">deal.II/base/numbers.h</text>
</g>
<!-- Node34&#45;&gt;Node35 -->
<g id="edge53" class="edge">
<title>Node34&#45;&gt;Node35</title>
<path fill="none" stroke="#191970" d="M2057.9768,-139.6469C1990.0586,-132.7539 1857.4814,-118.0266 1746,-98 1739.8307,-96.8917 1733.3739,-95.5862 1727.0071,-94.2108"/>
<polygon fill="#191970" stroke="#191970" points="1727.6522,-90.7688 1717.1303,-92.0104 1726.1299,-97.6013 1727.6522,-90.7688"/>
</g>
<!-- Node36 -->
<g id="node37" class="node">
<title>Node36</title>
<polygon fill="none" stroke="#bfbfbf" points="1755,-67.5 1755,-97.5 1883,-97.5 1883,-67.5 1755,-67.5"/>
<text text-anchor="start" x="1763" y="-85.5" font-family="Helvetica,sans-Serif" font-size="10.00" fill="#000000">deal.II/lac/blas_extension</text>
<text text-anchor="middle" x="1819" y="-74.5" font-family="Helvetica,sans-Serif" font-size="10.00" fill="#000000">_templates.h</text>
</g>
<!-- Node34&#45;&gt;Node36 -->
<g id="edge54" class="edge">
<title>Node34&#45;&gt;Node36</title>
<path fill="none" stroke="#191970" d="M2058.9366,-134.4581C2014.7334,-124.8859 1945.8438,-109.9679 1893.1998,-98.5679"/>
<polygon fill="#191970" stroke="#191970" points="1893.7489,-95.1058 1883.2347,-96.41 1892.2674,-101.9472 1893.7489,-95.1058"/>
</g>
<!-- Node37 -->
<g id="node38" class="node">
<title>Node37</title>
<polygon fill="none" stroke="#bfbfbf" points="1901,-73 1901,-92 2027,-92 2027,-73 1901,-73"/>
<text text-anchor="middle" x="1964" y="-80" font-family="Helvetica,sans-Serif" font-size="10.00" fill="#000000">deal.II/lac/block_vector.h</text>
</g>
<!-- Node34&#45;&gt;Node37 -->
<g id="edge55" class="edge">
<title>Node34&#45;&gt;Node37</title>
<path fill="none" stroke="#191970" d="M2081.2813,-134.3906C2058.126,-124.1457 2021.2559,-107.8326 1995.0409,-96.2339"/>
<polygon fill="#191970" stroke="#191970" points="1996.1273,-92.8874 1985.5662,-92.0419 1993.295,-99.2888 1996.1273,-92.8874"/>
</g>
<!-- Node38 -->
<g id="node39" class="node">
<title>Node38</title>
<polygon fill="none" stroke="#bfbfbf" points="2045,-73 2045,-92 2161,-92 2161,-73 2045,-73"/>
<text text-anchor="middle" x="2103" y="-80" font-family="Helvetica,sans-Serif" font-size="10.00" fill="#000000">deal.II/lac/full_matrix.h</text>
</g>
<!-- Node34&#45;&gt;Node38 -->
<g id="edge56" class="edge">
<title>Node34&#45;&gt;Node38</title>
<path fill="none" stroke="#191970" d="M2103,-134.3906C2103,-125.8657 2103,-113.1392 2103,-102.4235"/>
<polygon fill="#191970" stroke="#191970" points="2106.5001,-102.2448 2103,-92.2449 2099.5001,-102.2449 2106.5001,-102.2448"/>
</g>
<!-- Node39 -->
<g id="node40" class="node">
<title>Node39</title>
<polygon fill="none" stroke="#bfbfbf" points="2179.5,-67.5 2179.5,-97.5 2270.5,-97.5 2270.5,-67.5 2179.5,-67.5"/>
<text text-anchor="start" x="2187.5" y="-85.5" font-family="Helvetica,sans-Serif" font-size="10.00" fill="#000000">deal.II/lac/lapack</text>
<text text-anchor="middle" x="2225" y="-74.5" font-family="Helvetica,sans-Serif" font-size="10.00" fill="#000000">_full_matrix.h</text>
</g>
<!-- Node34&#45;&gt;Node39 -->
<g id="edge57" class="edge">
<title>Node34&#45;&gt;Node39</title>
<path fill="none" stroke="#191970" d="M2122.0625,-134.3906C2139.1088,-125.7976 2164.6236,-112.9356 2185.9856,-102.1671"/>
<polygon fill="#191970" stroke="#191970" points="2187.8014,-105.1714 2195.1554,-97.5446 2184.6503,-98.9207 2187.8014,-105.1714"/>
</g>
<!-- Node40 -->
<g id="node41" class="node">
<title>Node40</title>
<polygon fill="none" stroke="#bfbfbf" points="2288.5,-67.5 2288.5,-97.5 2379.5,-97.5 2379.5,-67.5 2288.5,-67.5"/>
<text text-anchor="start" x="2296.5" y="-85.5" font-family="Helvetica,sans-Serif" font-size="10.00" fill="#000000">deal.II/lac/lapack</text>
<text text-anchor="middle" x="2334" y="-74.5" font-family="Helvetica,sans-Serif" font-size="10.00" fill="#000000">_templates.h</text>
</g>
<!-- Node34&#45;&gt;Node40 -->
<g id="edge59" class="edge">
<title>Node34&#45;&gt;Node40</title>
<path fill="none" stroke="#191970" d="M2140.7093,-134.4937C2174.4909,-125.9121 2225.6366,-112.7596 2278.4755,-98.386"/>
<polygon fill="#191970" stroke="#191970" points="2279.6321,-101.6984 2288.3576,-95.6887 2277.7889,-94.9454 2279.6321,-101.6984"/>
</g>
<!-- Node41 -->
<g id="node42" class="node">
<title>Node41</title>
<polygon fill="none" stroke="#bfbfbf" points="2398,-67.5 2398,-97.5 2490,-97.5 2490,-67.5 2398,-67.5"/>
<text text-anchor="start" x="2406" y="-85.5" font-family="Helvetica,sans-Serif" font-size="10.00" fill="#000000">deal.II/lac/sparse</text>
<text text-anchor="middle" x="2444" y="-74.5" font-family="Helvetica,sans-Serif" font-size="10.00" fill="#000000">_matrix.h</text>
</g>
<!-- Node34&#45;&gt;Node41 -->
<g id="edge60" class="edge">
<title>Node34&#45;&gt;Node41</title>
<path fill="none" stroke="#191970" d="M2148.0638,-135.5533C2151.0863,-135.0181 2154.0862,-134.4958 2157,-134 2256.7527,-117.0279 2285.3274,-119.9881 2388.0468,-98.0593"/>
<polygon fill="#191970" stroke="#191970" points="2388.8538,-101.4657 2397.8882,-95.9314 2387.3744,-94.6238 2388.8538,-101.4657"/>
</g>
<!-- Node42 -->
<g id="node43" class="node">
<title>Node42</title>
<polygon fill="none" stroke="#bfbfbf" points="2508.5,-73 2508.5,-92 2609.5,-92 2609.5,-73 2508.5,-73"/>
<text text-anchor="middle" x="2559" y="-80" font-family="Helvetica,sans-Serif" font-size="10.00" fill="#000000">deal.II/lac/utilities.h</text>
</g>
<!-- Node34&#45;&gt;Node42 -->
<g id="edge61" class="edge">
<title>Node34&#45;&gt;Node42</title>
<path fill="none" stroke="#191970" d="M2148.0376,-135.3873C2151.0664,-134.8922 2154.0749,-134.4241 2157,-134 2308.258,-112.068 2348.5979,-125.1886 2499,-98 2504.4259,-97.0192 2510.0839,-95.8098 2515.6638,-94.5028"/>
<polygon fill="#191970" stroke="#191970" points="2516.6797,-97.8574 2525.5561,-92.0729 2515.0098,-91.0595 2516.6797,-97.8574"/>
</g>
<!-- Node43 -->
<g id="node44" class="node">
<title>Node43</title>
<polygon fill="none" stroke="#bfbfbf" points="2628,-73 2628,-92 2726,-92 2726,-73 2628,-73"/>
<text text-anchor="middle" x="2677" y="-80" font-family="Helvetica,sans-Serif" font-size="10.00" fill="#000000">deal.II/lac/vector.h</text>
</g>
<!-- Node34&#45;&gt;Node43 -->
<g id="edge62" class="edge">
<title>Node34&#45;&gt;Node43</title>
<path fill="none" stroke="#191970" d="M2148.0249,-135.2953C2151.0568,-134.8224 2154.0694,-134.3844 2157,-134 2361.2062,-107.2117 2415.9941,-132.7328 2619,-98 2624.4578,-97.0662 2630.1482,-95.8525 2635.7395,-94.5152"/>
<polygon fill="#191970" stroke="#191970" points="2636.7924,-97.8591 2645.6253,-92.0085 2635.0718,-91.0738 2636.7924,-97.8591"/>
</g>
<!-- Node44 -->
<g id="node45" class="node">
<title>Node44</title>
<g id="a_node45"><a xlink:href="lapack__templates__ext_8h.html" target="_top" xlink:title="Append more template based LAPACK functions to those existing in deal.ii. ">
<polygon fill="none" stroke="#000000" points="2744,-73 2744,-92 2864,-92 2864,-73 2744,-73"/>
<text text-anchor="middle" x="2804" y="-80" font-family="Helvetica,sans-Serif" font-size="10.00" fill="#000000">lapack_templates_ext.h</text>
</a>
</g>
</g>
<!-- Node34&#45;&gt;Node44 -->
<g id="edge63" class="edge">
<title>Node34&#45;&gt;Node44</title>
<path fill="none" stroke="#191970" d="M2148.0182,-135.2424C2151.0517,-134.7823 2154.0665,-134.3616 2157,-134 2412.4529,-102.5088 2480.1889,-134.3208 2735,-98 2741.9416,-97.0105 2749.2199,-95.6912 2756.3393,-94.2383"/>
<polygon fill="#191970" stroke="#191970" points="2757.5553,-97.5572 2766.5986,-92.0371 2756.0868,-90.7129 2757.5553,-97.5572"/>
</g>
<!-- Node44&#45;&gt;Node32 -->
<g id="edge64" class="edge">
<title>Node44&#45;&gt;Node32</title>
<path fill="none" stroke="#191970" d="M2766.9742,-72.925C2756.6865,-70.6091 2745.4655,-68.4004 2735,-67 2521.3332,-38.4097 1847.9434,-21.257 1648.9208,-16.7181"/>
<polygon fill="#191970" stroke="#191970" points="1648.7754,-13.2141 1638.6987,-16.4866 1648.6168,-20.2123 1648.7754,-13.2141"/>
</g>
</g>
</svg>
