<?xml version="1.0" encoding="UTF-8" standalone="no"?>
<!DOCTYPE svg PUBLIC "-//W3C//DTD SVG 1.1//EN"
 "http://www.w3.org/Graphics/SVG/1.1/DTD/svg11.dtd">
<!-- Generated by graphviz version 2.40.1 (20161225.0304)
 -->
<!-- Title: LaplaceBEM::LaplaceKernel::DoubleLayerKernel&lt; dim, RangeNumberType &gt; Pages: 1 -->
<svg width="148pt" height="526pt"
 viewBox="0.00 0.00 148.00 526.00" xmlns="http://www.w3.org/2000/svg" xmlns:xlink="http://www.w3.org/1999/xlink">
<g id="graph0" class="graph" transform="scale(1 1) rotate(0) translate(4 522)">
<title>LaplaceBEM::LaplaceKernel::DoubleLayerKernel&lt; dim, RangeNumberType &gt;</title>
<!-- Node0 -->
<g id="node1" class="node">
<title>Node0</title>
<polygon fill="#bfbfbf" stroke="#000000" points="0,-127.5 0,-217.5 140,-217.5 140,-127.5 0,-127.5"/>
<text text-anchor="start" x="8" y="-205.5" font-family="Helvetica,sans-Serif" font-size="10.00" fill="#000000">LaplaceBEM::LaplaceKernel</text>
<text text-anchor="start" x="8" y="-194.5" font-family="Helvetica,sans-Serif" font-size="10.00" fill="#000000">::DoubleLayerKernel&lt; dim,</text>
<text text-anchor="middle" x="70" y="-183.5" font-family="Helvetica,sans-Serif" font-size="10.00" fill="#000000"> RangeNumberType &gt;</text>
<polyline fill="none" stroke="#000000" points="0,-176.5 140,-176.5 "/>
<text text-anchor="middle" x="70" y="-164.5" font-family="Helvetica,sans-Serif" font-size="10.00" fill="#000000"> </text>
<polyline fill="none" stroke="#000000" points="0,-157.5 140,-157.5 "/>
<text text-anchor="start" x="8" y="-145.5" font-family="Helvetica,sans-Serif" font-size="10.00" fill="#000000">+ DoubleLayerKernel()</text>
<text text-anchor="start" x="8" y="-134.5" font-family="Helvetica,sans-Serif" font-size="10.00" fill="#000000">+ value()</text>
</g>
<!-- Node3 -->
<g id="node4" class="node">
<title>Node3</title>
<g id="a_node4"><a xlink:href="classLaplaceBEM_1_1LaplaceKernel_1_1DoubleLayerKernel.html" target="_top" xlink:title="{LaplaceBEM::LaplaceKernel\l::DoubleLayerKernel\&lt; 3 \&gt;\n||+ DoubleLayerKernel()\l+ value()\l}">
<polygon fill="none" stroke="#000000" points="0,-.5 0,-79.5 140,-79.5 140,-.5 0,-.5"/>
<text text-anchor="start" x="8" y="-67.5" font-family="Helvetica,sans-Serif" font-size="10.00" fill="#000000">LaplaceBEM::LaplaceKernel</text>
<text text-anchor="middle" x="70" y="-56.5" font-family="Helvetica,sans-Serif" font-size="10.00" fill="#000000">::DoubleLayerKernel&lt; 3 &gt;</text>
<polyline fill="none" stroke="#000000" points="0,-49.5 140,-49.5 "/>
<text text-anchor="middle" x="70" y="-37.5" font-family="Helvetica,sans-Serif" font-size="10.00" fill="#000000"> </text>
<polyline fill="none" stroke="#000000" points="0,-30.5 140,-30.5 "/>
<text text-anchor="start" x="8" y="-18.5" font-family="Helvetica,sans-Serif" font-size="10.00" fill="#000000">+ DoubleLayerKernel()</text>
<text text-anchor="start" x="8" y="-7.5" font-family="Helvetica,sans-Serif" font-size="10.00" fill="#000000">+ value()</text>
</a>
</g>
</g>
<!-- Node0&#45;&gt;Node3 -->
<g id="edge3" class="edge">
<title>Node0&#45;&gt;Node3</title>
<path fill="none" stroke="#ffa500" d="M70,-116.9331C70,-104.4312 70,-91.408 70,-79.7081"/>
<polygon fill="#ffa500" stroke="#ffa500" points="66.5001,-117.2716 70,-127.2716 73.5001,-117.2716 66.5001,-117.2716"/>
<text text-anchor="middle" x="83.5" y="-101" font-family="Helvetica,sans-Serif" font-size="10.00" fill="#000000"> &lt; 3 &gt;</text>
</g>
<!-- Node1 -->
<g id="node2" class="node">
<title>Node1</title>
<g id="a_node2"><a xlink:href="classLaplaceBEM_1_1LaplaceKernel_1_1KernelFunction.html" target="_top" xlink:title="{LaplaceBEM::LaplaceKernel\l::KernelFunction\&lt; dim,\l RangeNumberType \&gt;\n|+ kernel_type\l+ n_components\l+ dimension\l|+ KernelFunction()\l+ ~KernelFunction()\l+ operator=()\l+ value()\l+ vector_value()\l+ value_list()\l+ vector_value_list()\l}">
<polygon fill="none" stroke="#000000" points="0,-255.5 0,-422.5 140,-422.5 140,-255.5 0,-255.5"/>
<text text-anchor="start" x="8" y="-410.5" font-family="Helvetica,sans-Serif" font-size="10.00" fill="#000000">LaplaceBEM::LaplaceKernel</text>
<text text-anchor="start" x="8" y="-399.5" font-family="Helvetica,sans-Serif" font-size="10.00" fill="#000000">::KernelFunction&lt; dim,</text>
<text text-anchor="middle" x="70" y="-388.5" font-family="Helvetica,sans-Serif" font-size="10.00" fill="#000000"> RangeNumberType &gt;</text>
<polyline fill="none" stroke="#000000" points="0,-381.5 140,-381.5 "/>
<text text-anchor="start" x="8" y="-369.5" font-family="Helvetica,sans-Serif" font-size="10.00" fill="#000000">+ kernel_type</text>
<text text-anchor="start" x="8" y="-358.5" font-family="Helvetica,sans-Serif" font-size="10.00" fill="#000000">+ n_components</text>
<text text-anchor="start" x="8" y="-347.5" font-family="Helvetica,sans-Serif" font-size="10.00" fill="#000000">+ dimension</text>
<polyline fill="none" stroke="#000000" points="0,-340.5 140,-340.5 "/>
<text text-anchor="start" x="8" y="-328.5" font-family="Helvetica,sans-Serif" font-size="10.00" fill="#000000">+ KernelFunction()</text>
<text text-anchor="start" x="8" y="-317.5" font-family="Helvetica,sans-Serif" font-size="10.00" fill="#000000">+ ~KernelFunction()</text>
<text text-anchor="start" x="8" y="-306.5" font-family="Helvetica,sans-Serif" font-size="10.00" fill="#000000">+ operator=()</text>
<text text-anchor="start" x="8" y="-295.5" font-family="Helvetica,sans-Serif" font-size="10.00" fill="#000000">+ value()</text>
<text text-anchor="start" x="8" y="-284.5" font-family="Helvetica,sans-Serif" font-size="10.00" fill="#000000">+ vector_value()</text>
<text text-anchor="start" x="8" y="-273.5" font-family="Helvetica,sans-Serif" font-size="10.00" fill="#000000">+ value_list()</text>
<text text-anchor="start" x="8" y="-262.5" font-family="Helvetica,sans-Serif" font-size="10.00" fill="#000000">+ vector_value_list()</text>
</a>
</g>
</g>
<!-- Node1&#45;&gt;Node0 -->
<g id="edge1" class="edge">
<title>Node1&#45;&gt;Node0</title>
<path fill="none" stroke="#191970" d="M70,-244.9641C70,-235.5202 70,-226.2646 70,-217.6945"/>
<polygon fill="none" stroke="#191970" points="66.5001,-245.2622 70,-255.2622 73.5001,-245.2622 66.5001,-245.2622"/>
</g>
<!-- Node2 -->
<g id="node3" class="node">
<title>Node2</title>
<polygon fill="none" stroke="#bfbfbf" points="37,-460.5 37,-517.5 103,-517.5 103,-460.5 37,-460.5"/>
<text text-anchor="middle" x="70" y="-505.5" font-family="Helvetica,sans-Serif" font-size="10.00" fill="#000000">Subscriptor</text>
<polyline fill="none" stroke="#bfbfbf" points="37,-498.5 103,-498.5 "/>
<text text-anchor="middle" x="70" y="-486.5" font-family="Helvetica,sans-Serif" font-size="10.00" fill="#000000"> </text>
<polyline fill="none" stroke="#bfbfbf" points="37,-479.5 103,-479.5 "/>
<text text-anchor="middle" x="70" y="-467.5" font-family="Helvetica,sans-Serif" font-size="10.00" fill="#000000"> </text>
</g>
<!-- Node2&#45;&gt;Node1 -->
<g id="edge2" class="edge">
<title>Node2&#45;&gt;Node1</title>
<path fill="none" stroke="#191970" d="M70,-450.4203C70,-441.834 70,-432.4068 70,-422.784"/>
<polygon fill="none" stroke="#191970" points="66.5001,-450.433 70,-460.4331 73.5001,-450.4331 66.5001,-450.433"/>
</g>
</g>
</svg>
