<?xml version="1.0" encoding="UTF-8" standalone="no"?>
<!DOCTYPE svg PUBLIC "-//W3C//DTD SVG 1.1//EN"
 "http://www.w3.org/Graphics/SVG/1.1/DTD/svg11.dtd">
<!-- Generated by graphviz version 2.40.1 (20161225.0304)
 -->
<!-- Title: LaplaceBEM::Erichsen1996Efficient::Example2::NeumannBC Pages: 1 -->
<svg width="172pt" height="215pt"
 viewBox="0.00 0.00 172.00 215.00" xmlns="http://www.w3.org/2000/svg" xmlns:xlink="http://www.w3.org/1999/xlink">
<g id="graph0" class="graph" transform="scale(1 1) rotate(0) translate(4 211)">
<title>LaplaceBEM::Erichsen1996Efficient::Example2::NeumannBC</title>
<!-- Node2 -->
<g id="node1" class="node">
<title>Node2</title>
<polygon fill="#bfbfbf" stroke="#000000" points="0,-.5 0,-112.5 164,-112.5 164,-.5 0,-.5"/>
<text text-anchor="start" x="8" y="-100.5" font-family="Helvetica,sans-Serif" font-size="10.00" fill="#000000">LaplaceBEM::Erichsen1996</text>
<text text-anchor="middle" x="82" y="-89.5" font-family="Helvetica,sans-Serif" font-size="10.00" fill="#000000">Efficient::Example2::NeumannBC</text>
<polyline fill="none" stroke="#000000" points="0,-82.5 164,-82.5 "/>
<text text-anchor="start" x="8" y="-70.5" font-family="Helvetica,sans-Serif" font-size="10.00" fill="#000000">&#45; x0</text>
<text text-anchor="start" x="8" y="-59.5" font-family="Helvetica,sans-Serif" font-size="10.00" fill="#000000">&#45; model_sphere_center</text>
<text text-anchor="start" x="8" y="-48.5" font-family="Helvetica,sans-Serif" font-size="10.00" fill="#000000">&#45; model_sphere_radius</text>
<polyline fill="none" stroke="#000000" points="0,-41.5 164,-41.5 "/>
<text text-anchor="start" x="8" y="-29.5" font-family="Helvetica,sans-Serif" font-size="10.00" fill="#000000">+ NeumannBC()</text>
<text text-anchor="start" x="8" y="-18.5" font-family="Helvetica,sans-Serif" font-size="10.00" fill="#000000">+ NeumannBC()</text>
<text text-anchor="start" x="8" y="-7.5" font-family="Helvetica,sans-Serif" font-size="10.00" fill="#000000">+ value()</text>
</g>
<!-- Node3 -->
<g id="node2" class="node">
<title>Node3</title>
<polygon fill="none" stroke="#bfbfbf" points="43.5,-149.5 43.5,-206.5 120.5,-206.5 120.5,-149.5 43.5,-149.5"/>
<text text-anchor="middle" x="82" y="-194.5" font-family="Helvetica,sans-Serif" font-size="10.00" fill="#000000">Function&lt; 3 &gt;</text>
<polyline fill="none" stroke="#bfbfbf" points="43.5,-187.5 120.5,-187.5 "/>
<text text-anchor="middle" x="82" y="-175.5" font-family="Helvetica,sans-Serif" font-size="10.00" fill="#000000"> </text>
<polyline fill="none" stroke="#bfbfbf" points="43.5,-168.5 120.5,-168.5 "/>
<text text-anchor="middle" x="82" y="-156.5" font-family="Helvetica,sans-Serif" font-size="10.00" fill="#000000"> </text>
</g>
<!-- Node3&#45;&gt;Node2 -->
<g id="edge1" class="edge">
<title>Node3&#45;&gt;Node2</title>
<path fill="none" stroke="#191970" d="M82,-139.0021C82,-130.6329 82,-121.6292 82,-112.7541"/>
<polygon fill="none" stroke="#191970" points="78.5001,-139.2062 82,-149.2062 85.5001,-139.2062 78.5001,-139.2062"/>
</g>
</g>
</svg>
