<?xml version="1.0" encoding="UTF-8" standalone="no"?>
<!DOCTYPE svg PUBLIC "-//W3C//DTD SVG 1.1//EN"
 "http://www.w3.org/Graphics/SVG/1.1/DTD/svg11.dtd">
<!-- Generated by graphviz version 2.40.1 (20161225.0304)
 -->
<!-- Title: LaplaceBEM::LaplaceKernel::KernelFunction&lt; dim, RangeNumberType &gt; Pages: 1 -->
<svg width="944pt" height="613pt"
 viewBox="0.00 0.00 944.00 613.00" xmlns="http://www.w3.org/2000/svg" xmlns:xlink="http://www.w3.org/1999/xlink">
<g id="graph0" class="graph" transform="scale(1 1) rotate(0) translate(4 609)">
<title>LaplaceBEM::LaplaceKernel::KernelFunction&lt; dim, RangeNumberType &gt;</title>
<!-- Node0 -->
<g id="node1" class="node">
<title>Node0</title>
<polygon fill="#bfbfbf" stroke="#000000" points="368,-342.5 368,-509.5 508,-509.5 508,-342.5 368,-342.5"/>
<text text-anchor="start" x="376" y="-497.5" font-family="Helvetica,sans-Serif" font-size="10.00" fill="#000000">LaplaceBEM::LaplaceKernel</text>
<text text-anchor="start" x="376" y="-486.5" font-family="Helvetica,sans-Serif" font-size="10.00" fill="#000000">::KernelFunction&lt; dim,</text>
<text text-anchor="middle" x="438" y="-475.5" font-family="Helvetica,sans-Serif" font-size="10.00" fill="#000000"> RangeNumberType &gt;</text>
<polyline fill="none" stroke="#000000" points="368,-468.5 508,-468.5 "/>
<text text-anchor="start" x="376" y="-456.5" font-family="Helvetica,sans-Serif" font-size="10.00" fill="#000000">+ kernel_type</text>
<text text-anchor="start" x="376" y="-445.5" font-family="Helvetica,sans-Serif" font-size="10.00" fill="#000000">+ n_components</text>
<text text-anchor="start" x="376" y="-434.5" font-family="Helvetica,sans-Serif" font-size="10.00" fill="#000000">+ dimension</text>
<polyline fill="none" stroke="#000000" points="368,-427.5 508,-427.5 "/>
<text text-anchor="start" x="376" y="-415.5" font-family="Helvetica,sans-Serif" font-size="10.00" fill="#000000">+ KernelFunction()</text>
<text text-anchor="start" x="376" y="-404.5" font-family="Helvetica,sans-Serif" font-size="10.00" fill="#000000">+ ~KernelFunction()</text>
<text text-anchor="start" x="376" y="-393.5" font-family="Helvetica,sans-Serif" font-size="10.00" fill="#000000">+ operator=()</text>
<text text-anchor="start" x="376" y="-382.5" font-family="Helvetica,sans-Serif" font-size="10.00" fill="#000000">+ value()</text>
<text text-anchor="start" x="376" y="-371.5" font-family="Helvetica,sans-Serif" font-size="10.00" fill="#000000">+ vector_value()</text>
<text text-anchor="start" x="376" y="-360.5" font-family="Helvetica,sans-Serif" font-size="10.00" fill="#000000">+ value_list()</text>
<text text-anchor="start" x="376" y="-349.5" font-family="Helvetica,sans-Serif" font-size="10.00" fill="#000000">+ vector_value_list()</text>
</g>
<!-- Node2 -->
<g id="node3" class="node">
<title>Node2</title>
<g id="a_node3"><a xlink:href="classLaplaceBEM_1_1LaplaceKernel_1_1AdjointDoubleLayerKernel.html" target="_top" xlink:title="{LaplaceBEM::LaplaceKernel\l::AdjointDoubleLayerKernel\l\&lt; dim, RangeNumberType \&gt;\n||+ AdjointDoubleLayerKernel()\l+ value()\l}">
<polygon fill="none" stroke="#000000" points="0,-166 0,-256 144,-256 144,-166 0,-166"/>
<text text-anchor="start" x="8" y="-244" font-family="Helvetica,sans-Serif" font-size="10.00" fill="#000000">LaplaceBEM::LaplaceKernel</text>
<text text-anchor="start" x="8" y="-233" font-family="Helvetica,sans-Serif" font-size="10.00" fill="#000000">::AdjointDoubleLayerKernel</text>
<text text-anchor="middle" x="72" y="-222" font-family="Helvetica,sans-Serif" font-size="10.00" fill="#000000">&lt; dim, RangeNumberType &gt;</text>
<polyline fill="none" stroke="#000000" points="0,-215 144,-215 "/>
<text text-anchor="middle" x="72" y="-203" font-family="Helvetica,sans-Serif" font-size="10.00" fill="#000000"> </text>
<polyline fill="none" stroke="#000000" points="0,-196 144,-196 "/>
<text text-anchor="start" x="8" y="-184" font-family="Helvetica,sans-Serif" font-size="10.00" fill="#000000">+ AdjointDoubleLayerKernel()</text>
<text text-anchor="start" x="8" y="-173" font-family="Helvetica,sans-Serif" font-size="10.00" fill="#000000">+ value()</text>
</a>
</g>
</g>
<!-- Node0&#45;&gt;Node2 -->
<g id="edge2" class="edge">
<title>Node0&#45;&gt;Node2</title>
<path fill="none" stroke="#191970" d="M358.5593,-398.6868C298.9097,-376.0647 216.8622,-340.3237 153,-295 137.4702,-283.9783 122.4241,-269.7252 109.6003,-256.0998"/>
<polygon fill="none" stroke="#191970" points="357.342,-401.9683 367.9342,-402.2044 359.8011,-395.4144 357.342,-401.9683"/>
</g>
<!-- Node3 -->
<g id="node4" class="node">
<title>Node3</title>
<g id="a_node4"><a xlink:href="classLaplaceBEM_1_1LaplaceKernel_1_1DoubleLayerKernel.html" target="_top" xlink:title="{LaplaceBEM::LaplaceKernel\l::DoubleLayerKernel\&lt; dim,\l RangeNumberType \&gt;\n||+ DoubleLayerKernel()\l+ value()\l}">
<polygon fill="none" stroke="#000000" points="162,-166 162,-256 302,-256 302,-166 162,-166"/>
<text text-anchor="start" x="170" y="-244" font-family="Helvetica,sans-Serif" font-size="10.00" fill="#000000">LaplaceBEM::LaplaceKernel</text>
<text text-anchor="start" x="170" y="-233" font-family="Helvetica,sans-Serif" font-size="10.00" fill="#000000">::DoubleLayerKernel&lt; dim,</text>
<text text-anchor="middle" x="232" y="-222" font-family="Helvetica,sans-Serif" font-size="10.00" fill="#000000"> RangeNumberType &gt;</text>
<polyline fill="none" stroke="#000000" points="162,-215 302,-215 "/>
<text text-anchor="middle" x="232" y="-203" font-family="Helvetica,sans-Serif" font-size="10.00" fill="#000000"> </text>
<polyline fill="none" stroke="#000000" points="162,-196 302,-196 "/>
<text text-anchor="start" x="170" y="-184" font-family="Helvetica,sans-Serif" font-size="10.00" fill="#000000">+ DoubleLayerKernel()</text>
<text text-anchor="start" x="170" y="-173" font-family="Helvetica,sans-Serif" font-size="10.00" fill="#000000">+ value()</text>
</a>
</g>
</g>
<!-- Node0&#45;&gt;Node3 -->
<g id="edge3" class="edge">
<title>Node0&#45;&gt;Node3</title>
<path fill="none" stroke="#191970" d="M360.9091,-346.8676C344.3933,-329.8066 327.0785,-311.8385 311,-295 298.9719,-282.4033 285.9951,-268.667 274.1036,-256.0204"/>
<polygon fill="none" stroke="#191970" points="358.4607,-349.3706 367.9324,-354.118 363.4886,-344.5001 358.4607,-349.3706"/>
</g>
<!-- Node5 -->
<g id="node6" class="node">
<title>Node5</title>
<g id="a_node6"><a xlink:href="classLaplaceBEM_1_1LaplaceKernel_1_1HyperSingularKernel.html" target="_top" xlink:title="{LaplaceBEM::LaplaceKernel\l::HyperSingularKernel\&lt;\l dim, RangeNumberType \&gt;\n||+ HyperSingularKernel()\l+ value()\l}">
<polygon fill="none" stroke="#000000" points="320,-166 320,-256 460,-256 460,-166 320,-166"/>
<text text-anchor="start" x="328" y="-244" font-family="Helvetica,sans-Serif" font-size="10.00" fill="#000000">LaplaceBEM::LaplaceKernel</text>
<text text-anchor="start" x="328" y="-233" font-family="Helvetica,sans-Serif" font-size="10.00" fill="#000000">::HyperSingularKernel&lt;</text>
<text text-anchor="middle" x="390" y="-222" font-family="Helvetica,sans-Serif" font-size="10.00" fill="#000000"> dim, RangeNumberType &gt;</text>
<polyline fill="none" stroke="#000000" points="320,-215 460,-215 "/>
<text text-anchor="middle" x="390" y="-203" font-family="Helvetica,sans-Serif" font-size="10.00" fill="#000000"> </text>
<polyline fill="none" stroke="#000000" points="320,-196 460,-196 "/>
<text text-anchor="start" x="328" y="-184" font-family="Helvetica,sans-Serif" font-size="10.00" fill="#000000">+ HyperSingularKernel()</text>
<text text-anchor="start" x="328" y="-173" font-family="Helvetica,sans-Serif" font-size="10.00" fill="#000000">+ value()</text>
</a>
</g>
</g>
<!-- Node0&#45;&gt;Node5 -->
<g id="edge5" class="edge">
<title>Node0&#45;&gt;Node5</title>
<path fill="none" stroke="#191970" d="M417.0586,-332.2001C411.1588,-305.7736 405.0082,-278.2244 400.0647,-256.0813"/>
<polygon fill="none" stroke="#191970" points="413.7096,-333.2627 419.3045,-342.2598 420.5414,-331.7374 413.7096,-333.2627"/>
</g>
<!-- Node6 -->
<g id="node7" class="node">
<title>Node6</title>
<g id="a_node7"><a xlink:href="classLaplaceBEM_1_1LaplaceKernel_1_1SingleLayerKernel.html" target="_top" xlink:title="{LaplaceBEM::LaplaceKernel\l::SingleLayerKernel\&lt; dim,\l RangeNumberType \&gt;\n||+ SingleLayerKernel()\l+ value()\l}">
<polygon fill="none" stroke="#000000" points="796,-166 796,-256 936,-256 936,-166 796,-166"/>
<text text-anchor="start" x="804" y="-244" font-family="Helvetica,sans-Serif" font-size="10.00" fill="#000000">LaplaceBEM::LaplaceKernel</text>
<text text-anchor="start" x="804" y="-233" font-family="Helvetica,sans-Serif" font-size="10.00" fill="#000000">::SingleLayerKernel&lt; dim,</text>
<text text-anchor="middle" x="866" y="-222" font-family="Helvetica,sans-Serif" font-size="10.00" fill="#000000"> RangeNumberType &gt;</text>
<polyline fill="none" stroke="#000000" points="796,-215 936,-215 "/>
<text text-anchor="middle" x="866" y="-203" font-family="Helvetica,sans-Serif" font-size="10.00" fill="#000000"> </text>
<polyline fill="none" stroke="#000000" points="796,-196 936,-196 "/>
<text text-anchor="start" x="804" y="-184" font-family="Helvetica,sans-Serif" font-size="10.00" fill="#000000">+ SingleLayerKernel()</text>
<text text-anchor="start" x="804" y="-173" font-family="Helvetica,sans-Serif" font-size="10.00" fill="#000000">+ value()</text>
</a>
</g>
</g>
<!-- Node0&#45;&gt;Node6 -->
<g id="edge6" class="edge">
<title>Node0&#45;&gt;Node6</title>
<path fill="none" stroke="#191970" d="M518.1637,-412.4338C586.4175,-398.2227 685.0402,-371.2115 760,-324 788.1091,-306.2962 813.7668,-279.3752 832.7964,-256.2504"/>
<polygon fill="none" stroke="#191970" points="517.4206,-409.0132 508.3203,-414.4385 518.8176,-415.8724 517.4206,-409.0132"/>
</g>
<!-- Node8 -->
<g id="node9" class="node">
<title>Node8</title>
<g id="a_node9"><a xlink:href="classLaplaceBEM_1_1LaplaceKernel_1_1KernelFunction.html" target="_top" xlink:title="{LaplaceBEM::LaplaceKernel\l::KernelFunction\&lt; spacedim,\l RangeNumberType \&gt;\n|+ kernel_type\l+ n_components\l+ dimension\l|+ KernelFunction()\l+ ~KernelFunction()\l+ operator=()\l+ value()\l+ vector_value()\l+ value_list()\l+ vector_value_list()\l}">
<polygon fill="none" stroke="#000000" points="636,-127.5 636,-294.5 778,-294.5 778,-127.5 636,-127.5"/>
<text text-anchor="start" x="644" y="-282.5" font-family="Helvetica,sans-Serif" font-size="10.00" fill="#000000">LaplaceBEM::LaplaceKernel</text>
<text text-anchor="start" x="644" y="-271.5" font-family="Helvetica,sans-Serif" font-size="10.00" fill="#000000">::KernelFunction&lt; spacedim,</text>
<text text-anchor="middle" x="707" y="-260.5" font-family="Helvetica,sans-Serif" font-size="10.00" fill="#000000"> RangeNumberType &gt;</text>
<polyline fill="none" stroke="#000000" points="636,-253.5 778,-253.5 "/>
<text text-anchor="start" x="644" y="-241.5" font-family="Helvetica,sans-Serif" font-size="10.00" fill="#000000">+ kernel_type</text>
<text text-anchor="start" x="644" y="-230.5" font-family="Helvetica,sans-Serif" font-size="10.00" fill="#000000">+ n_components</text>
<text text-anchor="start" x="644" y="-219.5" font-family="Helvetica,sans-Serif" font-size="10.00" fill="#000000">+ dimension</text>
<polyline fill="none" stroke="#000000" points="636,-212.5 778,-212.5 "/>
<text text-anchor="start" x="644" y="-200.5" font-family="Helvetica,sans-Serif" font-size="10.00" fill="#000000">+ KernelFunction()</text>
<text text-anchor="start" x="644" y="-189.5" font-family="Helvetica,sans-Serif" font-size="10.00" fill="#000000">+ ~KernelFunction()</text>
<text text-anchor="start" x="644" y="-178.5" font-family="Helvetica,sans-Serif" font-size="10.00" fill="#000000">+ operator=()</text>
<text text-anchor="start" x="644" y="-167.5" font-family="Helvetica,sans-Serif" font-size="10.00" fill="#000000">+ value()</text>
<text text-anchor="start" x="644" y="-156.5" font-family="Helvetica,sans-Serif" font-size="10.00" fill="#000000">+ vector_value()</text>
<text text-anchor="start" x="644" y="-145.5" font-family="Helvetica,sans-Serif" font-size="10.00" fill="#000000">+ value_list()</text>
<text text-anchor="start" x="644" y="-134.5" font-family="Helvetica,sans-Serif" font-size="10.00" fill="#000000">+ vector_value_list()</text>
</a>
</g>
</g>
<!-- Node0&#45;&gt;Node8 -->
<g id="edge8" class="edge">
<title>Node0&#45;&gt;Node8</title>
<path fill="none" stroke="#ffa500" d="M517.0181,-376.4567C551.9366,-353.2619 592.7482,-324.3179 627,-295 629.9069,-292.5118 632.823,-289.9303 635.7309,-287.2829"/>
<polygon fill="#ffa500" stroke="#ffa500" points="514.6935,-373.7973 508.275,-382.2266 518.5492,-379.6397 514.6935,-373.7973"/>
<text text-anchor="middle" x="679" y="-316" font-family="Helvetica,sans-Serif" font-size="10.00" fill="#000000"> &lt; spacedim, RangeNumberType &gt;</text>
</g>
<!-- Node9 -->
<g id="node10" class="node">
<title>Node9</title>
<g id="a_node10"><a xlink:href="classLaplaceBEM_1_1LaplaceKernel_1_1KernelFunction.html" target="_top" xlink:title="{LaplaceBEM::LaplaceKernel\l::KernelFunction\&lt; dim,\l double \&gt;\n|+ kernel_type\l+ n_components\l+ dimension\l|+ KernelFunction()\l+ ~KernelFunction()\l+ operator=()\l+ value()\l+ vector_value()\l+ value_list()\l+ vector_value_list()\l}">
<polygon fill="none" stroke="#000000" points="478,-127.5 478,-294.5 618,-294.5 618,-127.5 478,-127.5"/>
<text text-anchor="start" x="486" y="-282.5" font-family="Helvetica,sans-Serif" font-size="10.00" fill="#000000">LaplaceBEM::LaplaceKernel</text>
<text text-anchor="start" x="486" y="-271.5" font-family="Helvetica,sans-Serif" font-size="10.00" fill="#000000">::KernelFunction&lt; dim,</text>
<text text-anchor="middle" x="548" y="-260.5" font-family="Helvetica,sans-Serif" font-size="10.00" fill="#000000"> double &gt;</text>
<polyline fill="none" stroke="#000000" points="478,-253.5 618,-253.5 "/>
<text text-anchor="start" x="486" y="-241.5" font-family="Helvetica,sans-Serif" font-size="10.00" fill="#000000">+ kernel_type</text>
<text text-anchor="start" x="486" y="-230.5" font-family="Helvetica,sans-Serif" font-size="10.00" fill="#000000">+ n_components</text>
<text text-anchor="start" x="486" y="-219.5" font-family="Helvetica,sans-Serif" font-size="10.00" fill="#000000">+ dimension</text>
<polyline fill="none" stroke="#000000" points="478,-212.5 618,-212.5 "/>
<text text-anchor="start" x="486" y="-200.5" font-family="Helvetica,sans-Serif" font-size="10.00" fill="#000000">+ KernelFunction()</text>
<text text-anchor="start" x="486" y="-189.5" font-family="Helvetica,sans-Serif" font-size="10.00" fill="#000000">+ ~KernelFunction()</text>
<text text-anchor="start" x="486" y="-178.5" font-family="Helvetica,sans-Serif" font-size="10.00" fill="#000000">+ operator=()</text>
<text text-anchor="start" x="486" y="-167.5" font-family="Helvetica,sans-Serif" font-size="10.00" fill="#000000">+ value()</text>
<text text-anchor="start" x="486" y="-156.5" font-family="Helvetica,sans-Serif" font-size="10.00" fill="#000000">+ vector_value()</text>
<text text-anchor="start" x="486" y="-145.5" font-family="Helvetica,sans-Serif" font-size="10.00" fill="#000000">+ value_list()</text>
<text text-anchor="start" x="486" y="-134.5" font-family="Helvetica,sans-Serif" font-size="10.00" fill="#000000">+ vector_value_list()</text>
</a>
</g>
</g>
<!-- Node0&#45;&gt;Node9 -->
<g id="edge9" class="edge">
<title>Node0&#45;&gt;Node9</title>
<path fill="none" stroke="#ffa500" d="M485.5811,-333.0007C492.129,-320.2025 498.8198,-307.1249 505.2731,-294.5117"/>
<polygon fill="#ffa500" stroke="#ffa500" points="482.2828,-331.7631 480.8438,-342.2598 488.5145,-334.9514 482.2828,-331.7631"/>
<text text-anchor="middle" x="529" y="-316" font-family="Helvetica,sans-Serif" font-size="10.00" fill="#000000"> &lt; dim, double &gt;</text>
</g>
<!-- Node1 -->
<g id="node2" class="node">
<title>Node1</title>
<polygon fill="none" stroke="#bfbfbf" points="405,-547.5 405,-604.5 471,-604.5 471,-547.5 405,-547.5"/>
<text text-anchor="middle" x="438" y="-592.5" font-family="Helvetica,sans-Serif" font-size="10.00" fill="#000000">Subscriptor</text>
<polyline fill="none" stroke="#bfbfbf" points="405,-585.5 471,-585.5 "/>
<text text-anchor="middle" x="438" y="-573.5" font-family="Helvetica,sans-Serif" font-size="10.00" fill="#000000"> </text>
<polyline fill="none" stroke="#bfbfbf" points="405,-566.5 471,-566.5 "/>
<text text-anchor="middle" x="438" y="-554.5" font-family="Helvetica,sans-Serif" font-size="10.00" fill="#000000"> </text>
</g>
<!-- Node1&#45;&gt;Node0 -->
<g id="edge1" class="edge">
<title>Node1&#45;&gt;Node0</title>
<path fill="none" stroke="#191970" d="M438,-537.4203C438,-528.834 438,-519.4068 438,-509.784"/>
<polygon fill="none" stroke="#191970" points="434.5001,-537.433 438,-547.4331 441.5001,-537.4331 434.5001,-537.433"/>
</g>
<!-- Node4 -->
<g id="node5" class="node">
<title>Node4</title>
<g id="a_node5"><a xlink:href="classLaplaceBEM_1_1LaplaceKernel_1_1DoubleLayerKernel.html" target="_top" xlink:title="{LaplaceBEM::LaplaceKernel\l::DoubleLayerKernel\&lt; 3 \&gt;\n||+ DoubleLayerKernel()\l+ value()\l}">
<polygon fill="none" stroke="#000000" points="337,-.5 337,-79.5 477,-79.5 477,-.5 337,-.5"/>
<text text-anchor="start" x="345" y="-67.5" font-family="Helvetica,sans-Serif" font-size="10.00" fill="#000000">LaplaceBEM::LaplaceKernel</text>
<text text-anchor="middle" x="407" y="-56.5" font-family="Helvetica,sans-Serif" font-size="10.00" fill="#000000">::DoubleLayerKernel&lt; 3 &gt;</text>
<polyline fill="none" stroke="#000000" points="337,-49.5 477,-49.5 "/>
<text text-anchor="middle" x="407" y="-37.5" font-family="Helvetica,sans-Serif" font-size="10.00" fill="#000000"> </text>
<polyline fill="none" stroke="#000000" points="337,-30.5 477,-30.5 "/>
<text text-anchor="start" x="345" y="-18.5" font-family="Helvetica,sans-Serif" font-size="10.00" fill="#000000">+ DoubleLayerKernel()</text>
<text text-anchor="start" x="345" y="-7.5" font-family="Helvetica,sans-Serif" font-size="10.00" fill="#000000">+ value()</text>
</a>
</g>
</g>
<!-- Node3&#45;&gt;Node4 -->
<g id="edge4" class="edge">
<title>Node3&#45;&gt;Node4</title>
<path fill="none" stroke="#ffa500" d="M280.038,-158.6228C290.1141,-148.0064 300.7854,-137.0276 311,-127 327.2114,-111.0854 345.5738,-94.1865 361.8666,-79.557"/>
<polygon fill="#ffa500" stroke="#ffa500" points="277.4892,-156.2241 273.1702,-165.8987 282.5797,-161.0291 277.4892,-156.2241"/>
<text text-anchor="middle" x="353.5" y="-101" font-family="Helvetica,sans-Serif" font-size="10.00" fill="#000000"> &lt; 3 &gt;</text>
</g>
<!-- Node7 -->
<g id="node8" class="node">
<title>Node7</title>
<g id="a_node8"><a xlink:href="classLaplaceBEM_1_1LaplaceKernel_1_1SingleLayerKernel.html" target="_top" xlink:title="{LaplaceBEM::LaplaceKernel\l::SingleLayerKernel\&lt; 3 \&gt;\n||+ SingleLayerKernel()\l+ value()\l}">
<polygon fill="none" stroke="#000000" points="591,-.5 591,-79.5 731,-79.5 731,-.5 591,-.5"/>
<text text-anchor="start" x="599" y="-67.5" font-family="Helvetica,sans-Serif" font-size="10.00" fill="#000000">LaplaceBEM::LaplaceKernel</text>
<text text-anchor="middle" x="661" y="-56.5" font-family="Helvetica,sans-Serif" font-size="10.00" fill="#000000">::SingleLayerKernel&lt; 3 &gt;</text>
<polyline fill="none" stroke="#000000" points="591,-49.5 731,-49.5 "/>
<text text-anchor="middle" x="661" y="-37.5" font-family="Helvetica,sans-Serif" font-size="10.00" fill="#000000"> </text>
<polyline fill="none" stroke="#000000" points="591,-30.5 731,-30.5 "/>
<text text-anchor="start" x="599" y="-18.5" font-family="Helvetica,sans-Serif" font-size="10.00" fill="#000000">+ SingleLayerKernel()</text>
<text text-anchor="start" x="599" y="-7.5" font-family="Helvetica,sans-Serif" font-size="10.00" fill="#000000">+ value()</text>
</a>
</g>
</g>
<!-- Node6&#45;&gt;Node7 -->
<g id="edge7" class="edge">
<title>Node6&#45;&gt;Node7</title>
<path fill="none" stroke="#ffa500" d="M819.6484,-158.2576C809.3047,-147.49 798.1001,-136.5444 787,-127 767.4484,-110.1886 744.6235,-93.6265 723.8127,-79.5384"/>
<polygon fill="#ffa500" stroke="#ffa500" points="817.2434,-160.8083 826.66,-165.6642 822.3269,-155.9959 817.2434,-160.8083"/>
<text text-anchor="middle" x="777.5" y="-101" font-family="Helvetica,sans-Serif" font-size="10.00" fill="#000000"> &lt; 3 &gt;</text>
</g>
<!-- Node9&#45;&gt;Node4 -->
<g id="edge10" class="edge">
<title>Node9&#45;&gt;Node4</title>
<path fill="none" stroke="#191970" d="M472.5376,-119.4818C461.0217,-105.5157 449.6833,-91.7648 439.7595,-79.7296"/>
<polygon fill="none" stroke="#191970" points="469.8835,-121.7645 478.9457,-127.2533 475.2843,-117.3112 469.8835,-121.7645"/>
</g>
<!-- Node9&#45;&gt;Node7 -->
<g id="edge11" class="edge">
<title>Node9&#45;&gt;Node7</title>
<path fill="none" stroke="#191970" d="M608.9895,-118.7061C618.0422,-105.007 626.9401,-91.5419 634.7459,-79.7296"/>
<polygon fill="none" stroke="#191970" points="605.9346,-116.9807 603.3414,-127.2533 611.7746,-120.84 605.9346,-116.9807"/>
</g>
</g>
</svg>
