<?xml version="1.0" encoding="UTF-8" standalone="no"?>
<!DOCTYPE svg PUBLIC "-//W3C//DTD SVG 1.1//EN"
 "http://www.w3.org/Graphics/SVG/1.1/DTD/svg11.dtd">
<!-- Generated by graphviz version 2.40.1 (20161225.0304)
 -->
<!-- Title: LaplaceBEM::Erichsen1996Efficient::Example2::AnalyticalSolution Pages: 1 -->
<svg width="159pt" height="204pt"
 viewBox="0.00 0.00 159.00 204.00" xmlns="http://www.w3.org/2000/svg" xmlns:xlink="http://www.w3.org/1999/xlink">
<g id="graph0" class="graph" transform="scale(1 1) rotate(0) translate(4 200)">
<title>LaplaceBEM::Erichsen1996Efficient::Example2::AnalyticalSolution</title>
<!-- Node0 -->
<g id="node1" class="node">
<title>Node0</title>
<polygon fill="#bfbfbf" stroke="#000000" points="0,-.5 0,-101.5 151,-101.5 151,-.5 0,-.5"/>
<text text-anchor="start" x="8" y="-89.5" font-family="Helvetica,sans-Serif" font-size="10.00" fill="#000000">LaplaceBEM::Erichsen1996</text>
<text text-anchor="start" x="8" y="-78.5" font-family="Helvetica,sans-Serif" font-size="10.00" fill="#000000">Efficient::Example2::Analytical</text>
<text text-anchor="middle" x="75.5" y="-67.5" font-family="Helvetica,sans-Serif" font-size="10.00" fill="#000000">Solution</text>
<polyline fill="none" stroke="#000000" points="0,-60.5 151,-60.5 "/>
<text text-anchor="start" x="8" y="-48.5" font-family="Helvetica,sans-Serif" font-size="10.00" fill="#000000">&#45; x0</text>
<polyline fill="none" stroke="#000000" points="0,-41.5 151,-41.5 "/>
<text text-anchor="start" x="8" y="-29.5" font-family="Helvetica,sans-Serif" font-size="10.00" fill="#000000">+ AnalyticalSolution()</text>
<text text-anchor="start" x="8" y="-18.5" font-family="Helvetica,sans-Serif" font-size="10.00" fill="#000000">+ AnalyticalSolution()</text>
<text text-anchor="start" x="8" y="-7.5" font-family="Helvetica,sans-Serif" font-size="10.00" fill="#000000">+ value()</text>
</g>
<!-- Node1 -->
<g id="node2" class="node">
<title>Node1</title>
<polygon fill="none" stroke="#bfbfbf" points="37,-138.5 37,-195.5 114,-195.5 114,-138.5 37,-138.5"/>
<text text-anchor="middle" x="75.5" y="-183.5" font-family="Helvetica,sans-Serif" font-size="10.00" fill="#000000">Function&lt; 3 &gt;</text>
<polyline fill="none" stroke="#bfbfbf" points="37,-176.5 114,-176.5 "/>
<text text-anchor="middle" x="75.5" y="-164.5" font-family="Helvetica,sans-Serif" font-size="10.00" fill="#000000"> </text>
<polyline fill="none" stroke="#bfbfbf" points="37,-157.5 114,-157.5 "/>
<text text-anchor="middle" x="75.5" y="-145.5" font-family="Helvetica,sans-Serif" font-size="10.00" fill="#000000"> </text>
</g>
<!-- Node1&#45;&gt;Node0 -->
<g id="edge1" class="edge">
<title>Node1&#45;&gt;Node0</title>
<path fill="none" stroke="#191970" d="M75.5,-128.0826C75.5,-119.6942 75.5,-110.7064 75.5,-101.9373"/>
<polygon fill="none" stroke="#191970" points="72.0001,-128.3258 75.5,-138.3258 79.0001,-128.3259 72.0001,-128.3258"/>
</g>
</g>
</svg>
