<?xml version="1.0" encoding="UTF-8" standalone="no"?>
<!DOCTYPE svg PUBLIC "-//W3C//DTD SVG 1.1//EN"
 "http://www.w3.org/Graphics/SVG/1.1/DTD/svg11.dtd">
<!-- Generated by graphviz version 2.40.1 (20161225.0304)
 -->
<!-- Title: /home/jihuan/Projects/deal.ii/program/dealii&#45;9.1.1/examples/laplace&#45;bem/tests/cluster&#45;set&#45;inclusion/cluster&#45;set&#45;inclusion.cc Pages: 1 -->
<svg width="813pt" height="240pt"
 viewBox="0.00 0.00 812.50 240.00" xmlns="http://www.w3.org/2000/svg" xmlns:xlink="http://www.w3.org/1999/xlink">
<g id="graph0" class="graph" transform="scale(1 1) rotate(0) translate(4 236)">
<title>/home/jihuan/Projects/deal.ii/program/dealii&#45;9.1.1/examples/laplace&#45;bem/tests/cluster&#45;set&#45;inclusion/cluster&#45;set&#45;inclusion.cc</title>
<!-- Node0 -->
<g id="node1" class="node">
<title>Node0</title>
<polygon fill="#bfbfbf" stroke="#000000" points="107,-168.5 107,-231.5 260,-231.5 260,-168.5 107,-168.5"/>
<text text-anchor="start" x="115" y="-219.5" font-family="Helvetica,sans-Serif" font-size="10.00" fill="#000000">/home/jihuan/Projects</text>
<text text-anchor="start" x="115" y="-208.5" font-family="Helvetica,sans-Serif" font-size="10.00" fill="#000000">/deal.ii/program/dealii</text>
<text text-anchor="start" x="115" y="-197.5" font-family="Helvetica,sans-Serif" font-size="10.00" fill="#000000">&#45;9.1.1/examples/laplace</text>
<text text-anchor="start" x="115" y="-186.5" font-family="Helvetica,sans-Serif" font-size="10.00" fill="#000000">&#45;bem/tests/cluster&#45;set&#45;inclusion</text>
<text text-anchor="middle" x="183.5" y="-175.5" font-family="Helvetica,sans-Serif" font-size="10.00" fill="#000000">/cluster&#45;set&#45;inclusion.cc</text>
</g>
<!-- Node1 -->
<g id="node2" class="node">
<title>Node1</title>
<polygon fill="none" stroke="#bfbfbf" points="120.5,-112.5 120.5,-131.5 174.5,-131.5 174.5,-112.5 120.5,-112.5"/>
<text text-anchor="middle" x="147.5" y="-119.5" font-family="Helvetica,sans-Serif" font-size="10.00" fill="#000000">iostream</text>
</g>
<!-- Node0&#45;&gt;Node1 -->
<g id="edge1" class="edge">
<title>Node0&#45;&gt;Node1</title>
<path fill="none" stroke="#191970" d="M168.8574,-168.2744C164.5395,-158.919 159.9544,-148.9845 156.144,-140.7287"/>
<polygon fill="#191970" stroke="#191970" points="159.3189,-139.2554 151.9504,-131.6426 152.9632,-142.1889 159.3189,-139.2554"/>
</g>
<!-- Node2 -->
<g id="node3" class="node">
<title>Node2</title>
<g id="a_node3"><a xlink:href="cluster_8h.html" target="_top" xlink:title="Implementation of the class Cluster. ">
<polygon fill="none" stroke="#000000" points="192.5,-112.5 192.5,-131.5 246.5,-131.5 246.5,-112.5 192.5,-112.5"/>
<text text-anchor="middle" x="219.5" y="-119.5" font-family="Helvetica,sans-Serif" font-size="10.00" fill="#000000">cluster.h</text>
</a>
</g>
</g>
<!-- Node0&#45;&gt;Node2 -->
<g id="edge2" class="edge">
<title>Node0&#45;&gt;Node2</title>
<path fill="none" stroke="#191970" d="M198.1426,-168.2744C202.4605,-158.919 207.0456,-148.9845 210.856,-140.7287"/>
<polygon fill="#191970" stroke="#191970" points="214.0368,-142.1889 215.0496,-131.6426 207.6811,-139.2554 214.0368,-142.1889"/>
</g>
<!-- Node3 -->
<g id="node4" class="node">
<title>Node3</title>
<polygon fill="none" stroke="#bfbfbf" points="0,-56.5 0,-75.5 103,-75.5 103,-56.5 0,-56.5"/>
<text text-anchor="middle" x="51.5" y="-63.5" font-family="Helvetica,sans-Serif" font-size="10.00" fill="#000000">deal.II/base/types.h</text>
</g>
<!-- Node2&#45;&gt;Node3 -->
<g id="edge3" class="edge">
<title>Node2&#45;&gt;Node3</title>
<path fill="none" stroke="#191970" d="M192.134,-112.878C164.3637,-103.6212 121.1355,-89.2118 89.9344,-78.8115"/>
<polygon fill="#191970" stroke="#191970" points="90.8553,-75.4292 80.2616,-75.5872 88.6416,-82.0699 90.8553,-75.4292"/>
</g>
<!-- Node4 -->
<g id="node5" class="node">
<title>Node4</title>
<polygon fill="none" stroke="#bfbfbf" points="121.5,-56.5 121.5,-75.5 177.5,-75.5 177.5,-56.5 121.5,-56.5"/>
<text text-anchor="middle" x="149.5" y="-63.5" font-family="Helvetica,sans-Serif" font-size="10.00" fill="#000000">algorithm</text>
</g>
<!-- Node2&#45;&gt;Node4 -->
<g id="edge4" class="edge">
<title>Node2&#45;&gt;Node4</title>
<path fill="none" stroke="#191970" d="M207.3069,-112.2455C196.8679,-103.8943 181.6345,-91.7076 169.426,-81.9408"/>
<polygon fill="#191970" stroke="#191970" points="171.5485,-79.1566 161.5533,-75.6427 167.1756,-84.6227 171.5485,-79.1566"/>
</g>
<!-- Node5 -->
<g id="node6" class="node">
<title>Node5</title>
<polygon fill="none" stroke="#bfbfbf" points="196,-56.5 196,-75.5 243,-75.5 243,-56.5 196,-56.5"/>
<text text-anchor="middle" x="219.5" y="-63.5" font-family="Helvetica,sans-Serif" font-size="10.00" fill="#000000">iterator</text>
</g>
<!-- Node2&#45;&gt;Node5 -->
<g id="edge5" class="edge">
<title>Node2&#45;&gt;Node5</title>
<path fill="none" stroke="#191970" d="M219.5,-112.2455C219.5,-104.9382 219.5,-94.6944 219.5,-85.7046"/>
<polygon fill="#191970" stroke="#191970" points="223.0001,-85.6426 219.5,-75.6427 216.0001,-85.6427 223.0001,-85.6426"/>
</g>
<!-- Node6 -->
<g id="node7" class="node">
<title>Node6</title>
<polygon fill="none" stroke="#bfbfbf" points="182.5,-.5 182.5,-19.5 226.5,-19.5 226.5,-.5 182.5,-.5"/>
<text text-anchor="middle" x="204.5" y="-7.5" font-family="Helvetica,sans-Serif" font-size="10.00" fill="#000000">vector</text>
</g>
<!-- Node2&#45;&gt;Node6 -->
<g id="edge6" class="edge">
<title>Node2&#45;&gt;Node6</title>
<path fill="none" stroke="#191970" d="M229.8901,-112.31C242.2192,-99.575 260.0892,-76.4248 251.5,-56 246.5022,-44.1153 236.7686,-33.765 227.4497,-25.908"/>
<polygon fill="#191970" stroke="#191970" points="229.5248,-23.0874 219.4965,-19.6692 225.2043,-28.5951 229.5248,-23.0874"/>
</g>
<!-- Node7 -->
<g id="node8" class="node">
<title>Node7</title>
<g id="a_node8"><a xlink:href="simple__bounding__box_8h_source.html" target="_top" xlink:title="simple_bounding_box.h">
<polygon fill="none" stroke="#000000" points="367,-56.5 367,-75.5 486,-75.5 486,-56.5 367,-56.5"/>
<text text-anchor="middle" x="426.5" y="-63.5" font-family="Helvetica,sans-Serif" font-size="10.00" fill="#000000">simple_bounding_box.h</text>
</a>
</g>
</g>
<!-- Node2&#45;&gt;Node7 -->
<g id="edge7" class="edge">
<title>Node2&#45;&gt;Node7</title>
<path fill="none" stroke="#191970" d="M246.5616,-114.679C280.7814,-105.4215 340.1886,-89.3499 381.3333,-78.219"/>
<polygon fill="#191970" stroke="#191970" points="382.3749,-81.5631 391.1139,-75.573 380.5469,-74.806 382.3749,-81.5631"/>
</g>
<!-- Node7&#45;&gt;Node6 -->
<g id="edge13" class="edge">
<title>Node7&#45;&gt;Node6</title>
<path fill="none" stroke="#191970" d="M382.6375,-56.4291C345.8919,-48.1885 291.8787,-35.5597 236.4253,-20.1204"/>
<polygon fill="#191970" stroke="#191970" points="237.3637,-16.7487 226.7898,-17.413 235.4701,-23.4877 237.3637,-16.7487"/>
</g>
<!-- Node8 -->
<g id="node9" class="node">
<title>Node8</title>
<polygon fill="none" stroke="#bfbfbf" points="244.5,-.5 244.5,-19.5 344.5,-19.5 344.5,-.5 244.5,-.5"/>
<text text-anchor="middle" x="294.5" y="-7.5" font-family="Helvetica,sans-Serif" font-size="10.00" fill="#000000">deal.II/base/point.h</text>
</g>
<!-- Node7&#45;&gt;Node8 -->
<g id="edge8" class="edge">
<title>Node7&#45;&gt;Node8</title>
<path fill="none" stroke="#191970" d="M403.8084,-56.3733C382.4289,-47.3032 350.1943,-33.6279 326.2638,-23.4755"/>
<polygon fill="#191970" stroke="#191970" points="327.4683,-20.1846 316.8955,-19.5011 324.7344,-26.6287 327.4683,-20.1846"/>
</g>
<!-- Node9 -->
<g id="node10" class="node">
<title>Node9</title>
<polygon fill="none" stroke="#bfbfbf" points="363,-.5 363,-19.5 490,-19.5 490,-.5 363,-.5"/>
<text text-anchor="middle" x="426.5" y="-7.5" font-family="Helvetica,sans-Serif" font-size="10.00" fill="#000000">deal.II/dofs/dof_handler.h</text>
</g>
<!-- Node7&#45;&gt;Node9 -->
<g id="edge9" class="edge">
<title>Node7&#45;&gt;Node9</title>
<path fill="none" stroke="#191970" d="M426.5,-56.2455C426.5,-48.9382 426.5,-38.6944 426.5,-29.7046"/>
<polygon fill="#191970" stroke="#191970" points="430.0001,-29.6426 426.5,-19.6427 423.0001,-29.6427 430.0001,-29.6426"/>
</g>
<!-- Node10 -->
<g id="node11" class="node">
<title>Node10</title>
<polygon fill="none" stroke="#bfbfbf" points="508.5,-.5 508.5,-19.5 624.5,-19.5 624.5,-.5 508.5,-.5"/>
<text text-anchor="middle" x="566.5" y="-7.5" font-family="Helvetica,sans-Serif" font-size="10.00" fill="#000000">deal.II/dofs/dof_tools.h</text>
</g>
<!-- Node7&#45;&gt;Node10 -->
<g id="edge10" class="edge">
<title>Node7&#45;&gt;Node10</title>
<path fill="none" stroke="#191970" d="M450.5669,-56.3733C473.3428,-47.2629 507.7344,-33.5062 533.149,-23.3404"/>
<polygon fill="#191970" stroke="#191970" points="534.7623,-26.4648 542.7472,-19.5011 532.1625,-19.9654 534.7623,-26.4648"/>
</g>
<!-- Node11 -->
<g id="node12" class="node">
<title>Node11</title>
<polygon fill="none" stroke="#bfbfbf" points="643,-.5 643,-19.5 746,-19.5 746,-.5 643,-.5"/>
<text text-anchor="middle" x="694.5" y="-7.5" font-family="Helvetica,sans-Serif" font-size="10.00" fill="#000000">deal.II/fe/mapping.h</text>
</g>
<!-- Node7&#45;&gt;Node11 -->
<g id="edge11" class="edge">
<title>Node7&#45;&gt;Node11</title>
<path fill="none" stroke="#191970" d="M472.2663,-56.4369C518.4215,-46.7925 589.7178,-31.8948 639.0537,-21.5858"/>
<polygon fill="#191970" stroke="#191970" points="639.8498,-24.9951 648.9224,-19.5237 638.4179,-18.1431 639.8498,-24.9951"/>
</g>
<!-- Node12 -->
<g id="node13" class="node">
<title>Node12</title>
<polygon fill="none" stroke="#bfbfbf" points="764.5,-.5 764.5,-19.5 804.5,-19.5 804.5,-.5 764.5,-.5"/>
<text text-anchor="middle" x="784.5" y="-7.5" font-family="Helvetica,sans-Serif" font-size="10.00" fill="#000000">utility</text>
</g>
<!-- Node7&#45;&gt;Node12 -->
<g id="edge12" class="edge">
<title>Node7&#45;&gt;Node12</title>
<path fill="none" stroke="#191970" d="M486.281,-61.1396C550.5661,-55.1327 655.7726,-43.0481 754.5242,-19.8539"/>
<polygon fill="#191970" stroke="#191970" points="755.4548,-23.2301 764.3661,-17.4997 753.8262,-16.4222 755.4548,-23.2301"/>
</g>
</g>
</svg>
