<?xml version="1.0" encoding="UTF-8" standalone="no"?>
<!DOCTYPE svg PUBLIC "-//W3C//DTD SVG 1.1//EN"
 "http://www.w3.org/Graphics/SVG/1.1/DTD/svg11.dtd">
<!-- Generated by graphviz version 2.40.1 (20161225.0304)
 -->
<!-- Title: /home/jihuan/Projects/deal.ii/program/dealii&#45;9.1.1/examples/laplace&#45;bem/tests/cluster&#45;tree&#45;hp/cluster&#45;tree&#45;hp.cc Pages: 1 -->
<svg width="1466pt" height="296pt"
 viewBox="0.00 0.00 1465.50 296.00" xmlns="http://www.w3.org/2000/svg" xmlns:xlink="http://www.w3.org/1999/xlink">
<g id="graph0" class="graph" transform="scale(1 1) rotate(0) translate(4 292)">
<title>/home/jihuan/Projects/deal.ii/program/dealii&#45;9.1.1/examples/laplace&#45;bem/tests/cluster&#45;tree&#45;hp/cluster&#45;tree&#45;hp.cc</title>
<!-- Node0 -->
<g id="node1" class="node">
<title>Node0</title>
<polygon fill="#bfbfbf" stroke="#000000" points="541,-224.5 541,-287.5 661,-287.5 661,-224.5 541,-224.5"/>
<text text-anchor="start" x="549" y="-275.5" font-family="Helvetica,sans-Serif" font-size="10.00" fill="#000000">/home/jihuan/Projects</text>
<text text-anchor="start" x="549" y="-264.5" font-family="Helvetica,sans-Serif" font-size="10.00" fill="#000000">/deal.ii/program/dealii</text>
<text text-anchor="start" x="549" y="-253.5" font-family="Helvetica,sans-Serif" font-size="10.00" fill="#000000">&#45;9.1.1/examples/laplace</text>
<text text-anchor="start" x="549" y="-242.5" font-family="Helvetica,sans-Serif" font-size="10.00" fill="#000000">&#45;bem/tests/cluster&#45;tree</text>
<text text-anchor="middle" x="601" y="-231.5" font-family="Helvetica,sans-Serif" font-size="10.00" fill="#000000">&#45;hp/cluster&#45;tree&#45;hp.cc</text>
</g>
<!-- Node1 -->
<g id="node2" class="node">
<title>Node1</title>
<polygon fill="none" stroke="#bfbfbf" points="482,-168.5 482,-187.5 604,-187.5 604,-168.5 482,-168.5"/>
<text text-anchor="middle" x="543" y="-175.5" font-family="Helvetica,sans-Serif" font-size="10.00" fill="#000000">deal.II/base/logstream.h</text>
</g>
<!-- Node0&#45;&gt;Node1 -->
<g id="edge1" class="edge">
<title>Node0&#45;&gt;Node1</title>
<path fill="none" stroke="#191970" d="M577.4092,-224.2744C570.2232,-214.6106 562.5779,-204.3289 556.3234,-195.9177"/>
<polygon fill="#191970" stroke="#191970" points="558.9458,-193.5787 550.1701,-187.6426 553.3286,-197.7557 558.9458,-193.5787"/>
</g>
<!-- Node2 -->
<g id="node3" class="node">
<title>Node2</title>
<g id="a_node3"><a xlink:href="cluster__tree_8h_source.html" target="_top" xlink:title="cluster_tree.h">
<polygon fill="none" stroke="#000000" points="622,-168.5 622,-187.5 698,-187.5 698,-168.5 622,-168.5"/>
<text text-anchor="middle" x="660" y="-175.5" font-family="Helvetica,sans-Serif" font-size="10.00" fill="#000000">cluster_tree.h</text>
</a>
</g>
</g>
<!-- Node0&#45;&gt;Node2 -->
<g id="edge2" class="edge">
<title>Node0&#45;&gt;Node2</title>
<path fill="none" stroke="#191970" d="M624.9976,-224.2744C632.3852,-214.5078 640.2501,-204.1101 646.6494,-195.6499"/>
<polygon fill="#191970" stroke="#191970" points="649.465,-197.7294 652.7063,-187.6426 643.8822,-193.5065 649.465,-197.7294"/>
</g>
<!-- Node3 -->
<g id="node4" class="node">
<title>Node3</title>
<g id="a_node4"><a xlink:href="cluster_8h.html" target="_top" xlink:title="Implementation of the class Cluster. ">
<polygon fill="none" stroke="#000000" points="445,-112.5 445,-131.5 499,-131.5 499,-112.5 445,-112.5"/>
<text text-anchor="middle" x="472" y="-119.5" font-family="Helvetica,sans-Serif" font-size="10.00" fill="#000000">cluster.h</text>
</a>
</g>
</g>
<!-- Node2&#45;&gt;Node3 -->
<g id="edge3" class="edge">
<title>Node2&#45;&gt;Node3</title>
<path fill="none" stroke="#191970" d="M627.6816,-168.3733C594.6206,-158.5253 543.3336,-143.2483 508.7482,-132.9463"/>
<polygon fill="#191970" stroke="#191970" points="509.6111,-129.5514 499.028,-130.0509 507.6127,-136.2601 509.6111,-129.5514"/>
</g>
<!-- Node14 -->
<g id="node15" class="node">
<title>Node14</title>
<g id="a_node15"><a xlink:href="debug__tools_8h.html" target="_top" xlink:title="This file includes a bunch of helper functions for printing out and visualizing information about gri...">
<polygon fill="none" stroke="#000000" points="621.5,-56.5 621.5,-75.5 698.5,-75.5 698.5,-56.5 621.5,-56.5"/>
<text text-anchor="middle" x="660" y="-63.5" font-family="Helvetica,sans-Serif" font-size="10.00" fill="#000000">debug_tools.h</text>
</a>
</g>
</g>
<!-- Node2&#45;&gt;Node14 -->
<g id="edge15" class="edge">
<title>Node2&#45;&gt;Node14</title>
<path fill="none" stroke="#191970" d="M660,-168.4509C660,-150.184 660,-109.9553 660,-85.6976"/>
<polygon fill="#191970" stroke="#191970" points="663.5001,-85.5249 660,-75.5249 656.5001,-85.5249 663.5001,-85.5249"/>
</g>
<!-- Node19 -->
<g id="node20" class="node">
<title>Node19</title>
<g id="a_node20"><a xlink:href="tree_8h.html" target="_top" xlink:title="Implementation of the classes for binary tree node, general tree node and functions for manipulating ...">
<polygon fill="none" stroke="#000000" points="1076.5,-56.5 1076.5,-75.5 1117.5,-75.5 1117.5,-56.5 1076.5,-56.5"/>
<text text-anchor="middle" x="1097" y="-63.5" font-family="Helvetica,sans-Serif" font-size="10.00" fill="#000000">tree.h</text>
</a>
</g>
</g>
<!-- Node2&#45;&gt;Node19 -->
<g id="edge23" class="edge">
<title>Node2&#45;&gt;Node19</title>
<path fill="none" stroke="#191970" d="M697.2584,-168.4509C782.0251,-146.7258 987.9963,-93.9369 1066.1937,-73.8954"/>
<polygon fill="#191970" stroke="#191970" points="1067.5358,-77.1647 1076.3537,-71.2915 1065.7979,-70.3838 1067.5358,-77.1647"/>
</g>
<!-- Node4 -->
<g id="node5" class="node">
<title>Node4</title>
<polygon fill="none" stroke="#bfbfbf" points="466.5,-56.5 466.5,-75.5 569.5,-75.5 569.5,-56.5 466.5,-56.5"/>
<text text-anchor="middle" x="518" y="-63.5" font-family="Helvetica,sans-Serif" font-size="10.00" fill="#000000">deal.II/base/types.h</text>
</g>
<!-- Node3&#45;&gt;Node4 -->
<g id="edge4" class="edge">
<title>Node3&#45;&gt;Node4</title>
<path fill="none" stroke="#191970" d="M480.0126,-112.2455C486.4768,-104.3761 495.7385,-93.101 503.4983,-83.6542"/>
<polygon fill="#191970" stroke="#191970" points="506.4364,-85.5916 510.0792,-75.6427 501.0273,-81.1484 506.4364,-85.5916"/>
</g>
<!-- Node5 -->
<g id="node6" class="node">
<title>Node5</title>
<polygon fill="none" stroke="#bfbfbf" points="993,-.5 993,-19.5 1049,-19.5 1049,-.5 993,-.5"/>
<text text-anchor="middle" x="1021" y="-7.5" font-family="Helvetica,sans-Serif" font-size="10.00" fill="#000000">algorithm</text>
</g>
<!-- Node3&#45;&gt;Node5 -->
<g id="edge5" class="edge">
<title>Node3&#45;&gt;Node5</title>
<path fill="none" stroke="#191970" d="M499.0678,-117.299C574.2751,-104.0915 792.2326,-64.824 982.8489,-20.1662"/>
<polygon fill="#191970" stroke="#191970" points="983.8338,-23.5301 992.7659,-17.832 982.23,-16.7163 983.8338,-23.5301"/>
</g>
<!-- Node6 -->
<g id="node7" class="node">
<title>Node6</title>
<polygon fill="none" stroke="#bfbfbf" points="401.5,-56.5 401.5,-75.5 448.5,-75.5 448.5,-56.5 401.5,-56.5"/>
<text text-anchor="middle" x="425" y="-63.5" font-family="Helvetica,sans-Serif" font-size="10.00" fill="#000000">iterator</text>
</g>
<!-- Node3&#45;&gt;Node6 -->
<g id="edge6" class="edge">
<title>Node3&#45;&gt;Node6</title>
<path fill="none" stroke="#191970" d="M463.8132,-112.2455C457.1411,-104.2958 447.5521,-92.8706 439.5747,-83.3656"/>
<polygon fill="#191970" stroke="#191970" points="442.2026,-81.0524 433.093,-75.6427 436.8408,-85.5525 442.2026,-81.0524"/>
</g>
<!-- Node7 -->
<g id="node8" class="node">
<title>Node7</title>
<polygon fill="none" stroke="#bfbfbf" points="58,-.5 58,-19.5 102,-19.5 102,-.5 58,-.5"/>
<text text-anchor="middle" x="80" y="-7.5" font-family="Helvetica,sans-Serif" font-size="10.00" fill="#000000">vector</text>
</g>
<!-- Node3&#45;&gt;Node7 -->
<g id="edge7" class="edge">
<title>Node3&#45;&gt;Node7</title>
<path fill="none" stroke="#191970" d="M444.6983,-119.3168C397.988,-114.2171 300.1191,-101.3025 221,-76 179.0879,-62.5964 133.4583,-39.548 105.7904,-24.543"/>
<polygon fill="#191970" stroke="#191970" points="107.2387,-21.3454 96.7886,-19.6 103.8694,-27.4812 107.2387,-21.3454"/>
</g>
<!-- Node8 -->
<g id="node9" class="node">
<title>Node8</title>
<g id="a_node9"><a xlink:href="simple__bounding__box_8h_source.html" target="_top" xlink:title="simple_bounding_box.h">
<polygon fill="none" stroke="#000000" points="230.5,-56.5 230.5,-75.5 349.5,-75.5 349.5,-56.5 230.5,-56.5"/>
<text text-anchor="middle" x="290" y="-63.5" font-family="Helvetica,sans-Serif" font-size="10.00" fill="#000000">simple_bounding_box.h</text>
</a>
</g>
</g>
<!-- Node3&#45;&gt;Node8 -->
<g id="edge8" class="edge">
<title>Node3&#45;&gt;Node8</title>
<path fill="none" stroke="#191970" d="M444.7528,-113.6162C414.6077,-104.3408 365.7054,-89.294 330.9463,-78.5989"/>
<polygon fill="#191970" stroke="#191970" points="331.685,-75.1643 321.0979,-75.5686 329.6263,-81.8547 331.685,-75.1643"/>
</g>
<!-- Node8&#45;&gt;Node7 -->
<g id="edge14" class="edge">
<title>Node8&#45;&gt;Node7</title>
<path fill="none" stroke="#191970" d="M249.9994,-56.4554C215.7316,-48.1149 164.8606,-35.347 112.1596,-20.2229"/>
<polygon fill="#191970" stroke="#191970" points="112.8802,-16.788 102.3014,-17.372 110.9355,-23.5124 112.8802,-16.788"/>
</g>
<!-- Node9 -->
<g id="node10" class="node">
<title>Node9</title>
<polygon fill="none" stroke="#bfbfbf" points="120,-.5 120,-19.5 220,-19.5 220,-.5 120,-.5"/>
<text text-anchor="middle" x="170" y="-7.5" font-family="Helvetica,sans-Serif" font-size="10.00" fill="#000000">deal.II/base/point.h</text>
</g>
<!-- Node8&#45;&gt;Node9 -->
<g id="edge9" class="edge">
<title>Node8&#45;&gt;Node9</title>
<path fill="none" stroke="#191970" d="M269.3713,-56.3733C250.1081,-47.3838 221.1514,-33.8706 199.4581,-23.7471"/>
<polygon fill="#191970" stroke="#191970" points="200.9015,-20.5584 190.3595,-19.5011 197.9413,-26.9017 200.9015,-20.5584"/>
</g>
<!-- Node10 -->
<g id="node11" class="node">
<title>Node10</title>
<polygon fill="none" stroke="#bfbfbf" points="359.5,-.5 359.5,-19.5 486.5,-19.5 486.5,-.5 359.5,-.5"/>
<text text-anchor="middle" x="423" y="-7.5" font-family="Helvetica,sans-Serif" font-size="10.00" fill="#000000">deal.II/dofs/dof_handler.h</text>
</g>
<!-- Node8&#45;&gt;Node10 -->
<g id="edge10" class="edge">
<title>Node8&#45;&gt;Node10</title>
<path fill="none" stroke="#191970" d="M312.8635,-56.3733C334.405,-47.3032 366.8838,-33.6279 390.9956,-23.4755"/>
<polygon fill="#191970" stroke="#191970" points="392.5767,-26.6075 400.4348,-19.5011 389.8603,-20.156 392.5767,-26.6075"/>
</g>
<!-- Node11 -->
<g id="node12" class="node">
<title>Node11</title>
<polygon fill="none" stroke="#bfbfbf" points="505,-.5 505,-19.5 621,-19.5 621,-.5 505,-.5"/>
<text text-anchor="middle" x="563" y="-7.5" font-family="Helvetica,sans-Serif" font-size="10.00" fill="#000000">deal.II/dofs/dof_tools.h</text>
</g>
<!-- Node8&#45;&gt;Node11 -->
<g id="edge11" class="edge">
<title>Node8&#45;&gt;Node11</title>
<path fill="none" stroke="#191970" d="M336.6202,-56.4369C383.6365,-46.7925 456.2629,-31.8948 506.5193,-21.5858"/>
<polygon fill="#191970" stroke="#191970" points="507.4794,-24.9618 516.5721,-19.5237 506.0727,-18.1046 507.4794,-24.9618"/>
</g>
<!-- Node12 -->
<g id="node13" class="node">
<title>Node12</title>
<polygon fill="none" stroke="#bfbfbf" points="238.5,-.5 238.5,-19.5 341.5,-19.5 341.5,-.5 238.5,-.5"/>
<text text-anchor="middle" x="290" y="-7.5" font-family="Helvetica,sans-Serif" font-size="10.00" fill="#000000">deal.II/fe/mapping.h</text>
</g>
<!-- Node8&#45;&gt;Node12 -->
<g id="edge12" class="edge">
<title>Node8&#45;&gt;Node12</title>
<path fill="none" stroke="#191970" d="M290,-56.2455C290,-48.9382 290,-38.6944 290,-29.7046"/>
<polygon fill="#191970" stroke="#191970" points="293.5001,-29.6426 290,-19.6427 286.5001,-29.6427 293.5001,-29.6426"/>
</g>
<!-- Node13 -->
<g id="node14" class="node">
<title>Node13</title>
<polygon fill="none" stroke="#bfbfbf" points="0,-.5 0,-19.5 40,-19.5 40,-.5 0,-.5"/>
<text text-anchor="middle" x="20" y="-7.5" font-family="Helvetica,sans-Serif" font-size="10.00" fill="#000000">utility</text>
</g>
<!-- Node8&#45;&gt;Node13 -->
<g id="edge13" class="edge">
<title>Node8&#45;&gt;Node13</title>
<path fill="none" stroke="#191970" d="M230.0383,-57.0109C183.2492,-49.4384 116.5282,-37.4198 49.9818,-19.9806"/>
<polygon fill="#191970" stroke="#191970" points="50.731,-16.5582 40.1672,-17.3682 48.9304,-23.3227 50.731,-16.5582"/>
</g>
<!-- Node14&#45;&gt;Node10 -->
<g id="edge16" class="edge">
<title>Node14&#45;&gt;Node10</title>
<path fill="none" stroke="#191970" d="M621.3944,-56.878C581.1161,-47.3608 517.7866,-32.3968 473.5455,-21.9432"/>
<polygon fill="#191970" stroke="#191970" points="474.1113,-18.4806 463.5744,-19.5872 472.5016,-25.293 474.1113,-18.4806"/>
</g>
<!-- Node14&#45;&gt;Node11 -->
<g id="edge17" class="edge">
<title>Node14&#45;&gt;Node11</title>
<path fill="none" stroke="#191970" d="M643.1039,-56.2455C628.082,-47.5731 605.8957,-34.7645 588.679,-24.825"/>
<polygon fill="#191970" stroke="#191970" points="590.1128,-21.6114 579.7025,-19.6427 586.6129,-27.6737 590.1128,-21.6114"/>
</g>
<!-- Node14&#45;&gt;Node12 -->
<g id="edge20" class="edge">
<title>Node14&#45;&gt;Node12</title>
<path fill="none" stroke="#191970" d="M621.3032,-60.4841C564.4353,-52.3285 454.6848,-36.401 351.6493,-20.2413"/>
<polygon fill="#191970" stroke="#191970" points="352.1234,-16.7729 341.7011,-18.677 351.036,-23.6879 352.1234,-16.7729"/>
</g>
<!-- Node15 -->
<g id="node16" class="node">
<title>Node15</title>
<polygon fill="none" stroke="#bfbfbf" points="699,-.5 699,-19.5 773,-19.5 773,-.5 699,-.5"/>
<text text-anchor="middle" x="736" y="-7.5" font-family="Helvetica,sans-Serif" font-size="10.00" fill="#000000">deal.II/fe/fe.h</text>
</g>
<!-- Node14&#45;&gt;Node15 -->
<g id="edge18" class="edge">
<title>Node14&#45;&gt;Node15</title>
<path fill="none" stroke="#191970" d="M673.2382,-56.2455C684.681,-47.814 701.4296,-35.4729 714.7475,-25.6598"/>
<polygon fill="#191970" stroke="#191970" points="716.9391,-28.3924 722.9135,-19.6427 712.7867,-22.757 716.9391,-28.3924"/>
</g>
<!-- Node16 -->
<g id="node17" class="node">
<title>Node16</title>
<polygon fill="none" stroke="#bfbfbf" points="791,-.5 791,-19.5 903,-19.5 903,-.5 791,-.5"/>
<text text-anchor="middle" x="847" y="-7.5" font-family="Helvetica,sans-Serif" font-size="10.00" fill="#000000">deal.II/fe/fe_system.h</text>
</g>
<!-- Node14&#45;&gt;Node16 -->
<g id="edge19" class="edge">
<title>Node14&#45;&gt;Node16</title>
<path fill="none" stroke="#191970" d="M692.1464,-56.3733C723.5109,-46.9807 771.3665,-32.6496 805.5716,-22.4064"/>
<polygon fill="#191970" stroke="#191970" points="806.6975,-25.7229 815.273,-19.5011 804.6893,-19.0171 806.6975,-25.7229"/>
</g>
<!-- Node17 -->
<g id="node18" class="node">
<title>Node17</title>
<polygon fill="none" stroke="#bfbfbf" points="921,-.5 921,-19.5 975,-19.5 975,-.5 921,-.5"/>
<text text-anchor="middle" x="948" y="-7.5" font-family="Helvetica,sans-Serif" font-size="10.00" fill="#000000">iostream</text>
</g>
<!-- Node14&#45;&gt;Node17 -->
<g id="edge21" class="edge">
<title>Node14&#45;&gt;Node17</title>
<path fill="none" stroke="#191970" d="M698.6451,-60.0601C746.3535,-52.4824 830.1423,-38.379 911.0857,-20.0546"/>
<polygon fill="#191970" stroke="#191970" points="911.9731,-23.442 920.9401,-17.7991 910.4113,-16.6185 911.9731,-23.442"/>
</g>
<!-- Node18 -->
<g id="node19" class="node">
<title>Node18</title>
<polygon fill="none" stroke="#bfbfbf" points="639.5,-.5 639.5,-19.5 680.5,-19.5 680.5,-.5 639.5,-.5"/>
<text text-anchor="middle" x="660" y="-7.5" font-family="Helvetica,sans-Serif" font-size="10.00" fill="#000000">string</text>
</g>
<!-- Node14&#45;&gt;Node18 -->
<g id="edge22" class="edge">
<title>Node14&#45;&gt;Node18</title>
<path fill="none" stroke="#191970" d="M660,-56.2455C660,-48.9382 660,-38.6944 660,-29.7046"/>
<polygon fill="#191970" stroke="#191970" points="663.5001,-29.6426 660,-19.6427 656.5001,-29.6427 663.5001,-29.6426"/>
</g>
<!-- Node19&#45;&gt;Node5 -->
<g id="edge25" class="edge">
<title>Node19&#45;&gt;Node5</title>
<path fill="none" stroke="#191970" d="M1083.7618,-56.2455C1072.319,-47.814 1055.5704,-35.4729 1042.2525,-25.6598"/>
<polygon fill="#191970" stroke="#191970" points="1044.2133,-22.757 1034.0865,-19.6427 1040.0609,-28.3924 1044.2133,-22.757"/>
</g>
<!-- Node19&#45;&gt;Node7 -->
<g id="edge31" class="edge">
<title>Node19&#45;&gt;Node7</title>
<path fill="none" stroke="#191970" d="M1076.077,-65.3574C945.9377,-61.3178 248.662,-39.0343 112.3145,-19.5654"/>
<polygon fill="#191970" stroke="#191970" points="112.5998,-16.0663 102.1703,-17.9306 111.4861,-22.9771 112.5998,-16.0663"/>
</g>
<!-- Node19&#45;&gt;Node17 -->
<g id="edge29" class="edge">
<title>Node19&#45;&gt;Node17</title>
<path fill="none" stroke="#191970" d="M1076.2822,-58.2134C1052.2483,-49.1806 1012.2244,-34.138 983.2663,-23.2544"/>
<polygon fill="#191970" stroke="#191970" points="984.1214,-19.8368 973.5293,-19.5949 981.6587,-26.3893 984.1214,-19.8368"/>
</g>
<!-- Node20 -->
<g id="node21" class="node">
<title>Node20</title>
<polygon fill="none" stroke="#bfbfbf" points="1198,-.5 1198,-19.5 1324,-19.5 1324,-.5 1198,-.5"/>
<text text-anchor="middle" x="1261" y="-7.5" font-family="Helvetica,sans-Serif" font-size="10.00" fill="#000000">deal.II/base/exceptions.h</text>
</g>
<!-- Node19&#45;&gt;Node20 -->
<g id="edge24" class="edge">
<title>Node19&#45;&gt;Node20</title>
<path fill="none" stroke="#191970" d="M1117.7707,-58.9076C1144.2504,-49.8657 1190.5214,-34.0659 1223.2988,-22.8736"/>
<polygon fill="#191970" stroke="#191970" points="1224.6685,-26.1044 1233.001,-19.5606 1222.4065,-19.4799 1224.6685,-26.1044"/>
</g>
<!-- Node21 -->
<g id="node22" class="node">
<title>Node21</title>
<polygon fill="none" stroke="#bfbfbf" points="1342,-.5 1342,-19.5 1380,-19.5 1380,-.5 1342,-.5"/>
<text text-anchor="middle" x="1361" y="-7.5" font-family="Helvetica,sans-Serif" font-size="10.00" fill="#000000">array</text>
</g>
<!-- Node19&#45;&gt;Node21 -->
<g id="edge26" class="edge">
<title>Node19&#45;&gt;Node21</title>
<path fill="none" stroke="#191970" d="M1117.7602,-63.0304C1157.615,-57.1026 1247.6854,-42.6107 1332.1093,-19.9299"/>
<polygon fill="#191970" stroke="#191970" points="1333.1177,-23.2828 1341.8419,-17.2712 1331.273,-16.5302 1333.1177,-23.2828"/>
</g>
<!-- Node22 -->
<g id="node23" class="node">
<title>Node22</title>
<polygon fill="none" stroke="#bfbfbf" points="1398.5,-.5 1398.5,-19.5 1457.5,-19.5 1457.5,-.5 1398.5,-.5"/>
<text text-anchor="middle" x="1428" y="-7.5" font-family="Helvetica,sans-Serif" font-size="10.00" fill="#000000">exception</text>
</g>
<!-- Node19&#45;&gt;Node22 -->
<g id="edge27" class="edge">
<title>Node19&#45;&gt;Node22</title>
<path fill="none" stroke="#191970" d="M1117.6541,-63.4311C1164.1321,-57.5058 1280.6363,-41.8469 1388.2106,-19.9998"/>
<polygon fill="#191970" stroke="#191970" points="1389.1661,-23.3767 1398.2571,-17.9357 1387.7573,-16.5199 1389.1661,-23.3767"/>
</g>
<!-- Node23 -->
<g id="node24" class="node">
<title>Node23</title>
<polygon fill="none" stroke="#bfbfbf" points="1067.5,-.5 1067.5,-19.5 1126.5,-19.5 1126.5,-.5 1067.5,-.5"/>
<text text-anchor="middle" x="1097" y="-7.5" font-family="Helvetica,sans-Serif" font-size="10.00" fill="#000000">functional</text>
</g>
<!-- Node19&#45;&gt;Node23 -->
<g id="edge28" class="edge">
<title>Node19&#45;&gt;Node23</title>
<path fill="none" stroke="#191970" d="M1097,-56.2455C1097,-48.9382 1097,-38.6944 1097,-29.7046"/>
<polygon fill="#191970" stroke="#191970" points="1100.5001,-29.6426 1097,-19.6427 1093.5001,-29.6427 1100.5001,-29.6426"/>
</g>
<!-- Node24 -->
<g id="node25" class="node">
<title>Node24</title>
<polygon fill="none" stroke="#bfbfbf" points="1144.5,-.5 1144.5,-19.5 1179.5,-19.5 1179.5,-.5 1144.5,-.5"/>
<text text-anchor="middle" x="1162" y="-7.5" font-family="Helvetica,sans-Serif" font-size="10.00" fill="#000000">new</text>
</g>
<!-- Node19&#45;&gt;Node24 -->
<g id="edge30" class="edge">
<title>Node19&#45;&gt;Node24</title>
<path fill="none" stroke="#191970" d="M1108.3221,-56.2455C1117.9223,-47.9746 1131.8892,-35.9416 1143.1695,-26.2232"/>
<polygon fill="#191970" stroke="#191970" points="1145.516,-28.8214 1150.8076,-19.6427 1140.947,-23.5182 1145.516,-28.8214"/>
</g>
</g>
</svg>
