<?xml version="1.0" encoding="UTF-8" standalone="no"?>
<!DOCTYPE svg PUBLIC "-//W3C//DTD SVG 1.1//EN"
 "http://www.w3.org/Graphics/SVG/1.1/DTD/svg11.dtd">
<!-- Generated by graphviz version 2.40.1 (20161225.0304)
 -->
<!-- Title: /home/jihuan/Projects/deal.ii/program/dealii&#45;9.1.1/examples/laplace&#45;bem/tests/cluster&#45;diameter/cluster&#45;diameter.cc Pages: 1 -->
<svg width="1823pt" height="307pt"
 viewBox="0.00 0.00 1822.90 307.00" xmlns="http://www.w3.org/2000/svg" xmlns:xlink="http://www.w3.org/1999/xlink">
<g id="graph0" class="graph" transform="scale(1 1) rotate(0) translate(4 303)">
<title>/home/jihuan/Projects/deal.ii/program/dealii&#45;9.1.1/examples/laplace&#45;bem/tests/cluster&#45;diameter/cluster&#45;diameter.cc</title>
<!-- Node0 -->
<g id="node1" class="node">
<title>Node0</title>
<polygon fill="#bfbfbf" stroke="#000000" points="531,-235.5 531,-298.5 667,-298.5 667,-235.5 531,-235.5"/>
<text text-anchor="start" x="539" y="-286.5" font-family="Helvetica,sans-Serif" font-size="10.00" fill="#000000">/home/jihuan/Projects</text>
<text text-anchor="start" x="539" y="-275.5" font-family="Helvetica,sans-Serif" font-size="10.00" fill="#000000">/deal.ii/program/dealii</text>
<text text-anchor="start" x="539" y="-264.5" font-family="Helvetica,sans-Serif" font-size="10.00" fill="#000000">&#45;9.1.1/examples/laplace</text>
<text text-anchor="start" x="539" y="-253.5" font-family="Helvetica,sans-Serif" font-size="10.00" fill="#000000">&#45;bem/tests/cluster&#45;diameter</text>
<text text-anchor="middle" x="599" y="-242.5" font-family="Helvetica,sans-Serif" font-size="10.00" fill="#000000">/cluster&#45;diameter.cc</text>
</g>
<!-- Node1 -->
<g id="node2" class="node">
<title>Node1</title>
<polygon fill="none" stroke="#bfbfbf" points="0,-174 0,-193 122,-193 122,-174 0,-174"/>
<text text-anchor="middle" x="61" y="-181" font-family="Helvetica,sans-Serif" font-size="10.00" fill="#000000">deal.II/base/logstream.h</text>
</g>
<!-- Node0&#45;&gt;Node1 -->
<g id="edge1" class="edge">
<title>Node0&#45;&gt;Node1</title>
<path fill="none" stroke="#191970" d="M530.9383,-258.2607C440.4893,-246.3597 275.8105,-223.6925 136,-199 129.2262,-197.8037 122.1273,-196.4578 115.1113,-195.0718"/>
<polygon fill="#191970" stroke="#191970" points="115.4327,-191.5664 104.9388,-193.0251 114.0519,-198.4289 115.4327,-191.5664"/>
</g>
<!-- Node2 -->
<g id="node3" class="node">
<title>Node2</title>
<polygon fill="none" stroke="#bfbfbf" points="284,-.5 284,-19.5 384,-19.5 384,-.5 284,-.5"/>
<text text-anchor="middle" x="334" y="-7.5" font-family="Helvetica,sans-Serif" font-size="10.00" fill="#000000">deal.II/base/point.h</text>
</g>
<!-- Node0&#45;&gt;Node2 -->
<g id="edge2" class="edge">
<title>Node0&#45;&gt;Node2</title>
<path fill="none" stroke="#191970" d="M530.8229,-261.0443C415.5172,-250.2768 192.1962,-226.1527 169,-199 112.7378,-133.1413 243.4493,-55.5543 304.6012,-24.2007"/>
<polygon fill="#191970" stroke="#191970" points="306.4249,-27.201 313.7792,-19.5745 303.2741,-20.9502 306.4249,-27.201"/>
</g>
<!-- Node3 -->
<g id="node4" class="node">
<title>Node3</title>
<polygon fill="none" stroke="#bfbfbf" points="178.5,-174 178.5,-193 263.5,-193 263.5,-174 178.5,-174"/>
<text text-anchor="middle" x="221" y="-181" font-family="Helvetica,sans-Serif" font-size="10.00" fill="#000000">deal.II/fe/fe_q.h</text>
</g>
<!-- Node0&#45;&gt;Node3 -->
<g id="edge3" class="edge">
<title>Node0&#45;&gt;Node3</title>
<path fill="none" stroke="#191970" d="M530.9535,-254.7008C464.5238,-242.2592 360.7678,-221.6699 272,-199 268.2244,-198.0358 264.3109,-196.9694 260.4072,-195.8605"/>
<polygon fill="#191970" stroke="#191970" points="261.388,-192.5008 250.8075,-193.0506 259.4216,-199.2189 261.388,-192.5008"/>
</g>
<!-- Node4 -->
<g id="node5" class="node">
<title>Node4</title>
<polygon fill="none" stroke="#bfbfbf" points="281.5,-168.5 281.5,-198.5 376.5,-198.5 376.5,-168.5 281.5,-168.5"/>
<text text-anchor="start" x="289.5" y="-186.5" font-family="Helvetica,sans-Serif" font-size="10.00" fill="#000000">deal.II/fe/mapping</text>
<text text-anchor="middle" x="329" y="-175.5" font-family="Helvetica,sans-Serif" font-size="10.00" fill="#000000">_q_generic.h</text>
</g>
<!-- Node0&#45;&gt;Node4 -->
<g id="edge4" class="edge">
<title>Node0&#45;&gt;Node4</title>
<path fill="none" stroke="#191970" d="M530.8676,-245.9294C486.2286,-232.1244 428.5402,-214.2837 386.2713,-201.2117"/>
<polygon fill="#191970" stroke="#191970" points="387.2755,-197.8588 376.6878,-198.2479 385.2073,-204.5463 387.2755,-197.8588"/>
</g>
<!-- Node5 -->
<g id="node6" class="node">
<title>Node5</title>
<polygon fill="none" stroke="#bfbfbf" points="394.5,-174 394.5,-193 529.5,-193 529.5,-174 394.5,-174"/>
<text text-anchor="middle" x="462" y="-181" font-family="Helvetica,sans-Serif" font-size="10.00" fill="#000000">deal.II/grid/grid_generator.h</text>
</g>
<!-- Node0&#45;&gt;Node5 -->
<g id="edge5" class="edge">
<title>Node0&#45;&gt;Node5</title>
<path fill="none" stroke="#191970" d="M547.2062,-235.4322C526.3637,-222.729 503.3237,-208.6864 486.4628,-198.4098"/>
<polygon fill="#191970" stroke="#191970" points="488.1451,-195.3364 477.7846,-193.1205 484.502,-201.3136 488.1451,-195.3364"/>
</g>
<!-- Node6 -->
<g id="node7" class="node">
<title>Node6</title>
<polygon fill="none" stroke="#bfbfbf" points="548,-174 548,-193 650,-193 650,-174 548,-174"/>
<text text-anchor="middle" x="599" y="-181" font-family="Helvetica,sans-Serif" font-size="10.00" fill="#000000">deal.II/grid/grid_in.h</text>
</g>
<!-- Node0&#45;&gt;Node6 -->
<g id="edge6" class="edge">
<title>Node0&#45;&gt;Node6</title>
<path fill="none" stroke="#191970" d="M599,-235.4322C599,-224.6773 599,-212.9624 599,-203.3857"/>
<polygon fill="#191970" stroke="#191970" points="602.5001,-203.3112 599,-193.3112 595.5001,-203.3112 602.5001,-203.3112"/>
</g>
<!-- Node7 -->
<g id="node8" class="node">
<title>Node7</title>
<polygon fill="none" stroke="#bfbfbf" points="668,-174 668,-193 776,-193 776,-174 668,-174"/>
<text text-anchor="middle" x="722" y="-181" font-family="Helvetica,sans-Serif" font-size="10.00" fill="#000000">deal.II/grid/grid_out.h</text>
</g>
<!-- Node0&#45;&gt;Node7 -->
<g id="edge7" class="edge">
<title>Node0&#45;&gt;Node7</title>
<path fill="none" stroke="#191970" d="M645.501,-235.4322C663.867,-222.9642 684.1337,-209.206 699.1904,-198.9846"/>
<polygon fill="#191970" stroke="#191970" points="701.5206,-201.633 707.8284,-193.1205 697.5889,-195.8415 701.5206,-201.633"/>
</g>
<!-- Node8 -->
<g id="node9" class="node">
<title>Node8</title>
<g id="a_node9"><a xlink:href="simple__bounding__box_8h_source.html" target="_top" xlink:title="simple_bounding_box.h">
<polygon fill="none" stroke="#000000" points="542.5,-56.5 542.5,-75.5 661.5,-75.5 661.5,-56.5 542.5,-56.5"/>
<text text-anchor="middle" x="602" y="-63.5" font-family="Helvetica,sans-Serif" font-size="10.00" fill="#000000">simple_bounding_box.h</text>
</a>
</g>
</g>
<!-- Node0&#45;&gt;Node8 -->
<g id="edge8" class="edge">
<title>Node0&#45;&gt;Node8</title>
<path fill="none" stroke="#191970" d="M667.0007,-250.859C714.1329,-238.1361 770.8648,-219.2179 785,-199 825.831,-140.5984 716.8636,-98.1728 649.9228,-78.413"/>
<polygon fill="#191970" stroke="#191970" points="650.5497,-74.9515 639.9718,-75.55 648.6142,-81.6786 650.5497,-74.9515"/>
</g>
<!-- Node14 -->
<g id="node15" class="node">
<title>Node14</title>
<polygon fill="none" stroke="#bfbfbf" points="832,-174 832,-193 882,-193 882,-174 832,-174"/>
<text text-anchor="middle" x="857" y="-181" font-family="Helvetica,sans-Serif" font-size="10.00" fill="#000000">fstream</text>
</g>
<!-- Node0&#45;&gt;Node14 -->
<g id="edge15" class="edge">
<title>Node0&#45;&gt;Node14</title>
<path fill="none" stroke="#191970" d="M667.0235,-247.3544C710.4855,-234.4396 767.8885,-216.7082 818,-199 819.9063,-198.3263 821.8576,-197.6166 823.8218,-196.8865"/>
<polygon fill="#191970" stroke="#191970" points="825.5149,-199.986 833.6004,-193.1395 823.0101,-193.4494 825.5149,-199.986"/>
</g>
<!-- Node15 -->
<g id="node16" class="node">
<title>Node15</title>
<g id="a_node16"><a xlink:href="cluster__tree_8h_source.html" target="_top" xlink:title="cluster_tree.h">
<polygon fill="none" stroke="#000000" points="1002,-174 1002,-193 1078,-193 1078,-174 1002,-174"/>
<text text-anchor="middle" x="1040" y="-181" font-family="Helvetica,sans-Serif" font-size="10.00" fill="#000000">cluster_tree.h</text>
</a>
</g>
</g>
<!-- Node0&#45;&gt;Node15 -->
<g id="edge16" class="edge">
<title>Node0&#45;&gt;Node15</title>
<path fill="none" stroke="#191970" d="M667.4224,-254.0447C757.374,-237.0131 913.1593,-207.5163 991.728,-192.6399"/>
<polygon fill="#191970" stroke="#191970" points="992.6566,-196.0264 1001.8308,-190.727 991.3542,-189.1486 992.6566,-196.0264"/>
</g>
<!-- Node20 -->
<g id="node21" class="node">
<title>Node20</title>
<g id="a_node21"><a xlink:href="debug__tools_8h.html" target="_top" xlink:title="This file includes a bunch of helper functions for printing out and visualizing information about gri...">
<polygon fill="none" stroke="#000000" points="1467.5,-112.5 1467.5,-131.5 1544.5,-131.5 1544.5,-112.5 1467.5,-112.5"/>
<text text-anchor="middle" x="1506" y="-119.5" font-family="Helvetica,sans-Serif" font-size="10.00" fill="#000000">debug_tools.h</text>
</a>
</g>
</g>
<!-- Node0&#45;&gt;Node20 -->
<g id="edge40" class="edge">
<title>Node0&#45;&gt;Node20</title>
<path fill="none" stroke="#191970" d="M667.0324,-258.4653C761.4636,-246.4037 937.5291,-223.1366 1087,-199 1221.5151,-177.2785 1379.4186,-146.9433 1457.3845,-131.6411"/>
<polygon fill="#191970" stroke="#191970" points="1458.2565,-135.0368 1467.3933,-129.6731 1456.9059,-128.1683 1458.2565,-135.0368"/>
</g>
<!-- Node8&#45;&gt;Node2 -->
<g id="edge9" class="edge">
<title>Node8&#45;&gt;Node2</title>
<path fill="none" stroke="#191970" d="M556.2337,-56.4369C510.0785,-46.7925 438.7822,-31.8948 389.4463,-21.5858"/>
<polygon fill="#191970" stroke="#191970" points="390.0821,-18.1431 379.5776,-19.5237 388.6502,-24.9951 390.0821,-18.1431"/>
</g>
<!-- Node9 -->
<g id="node10" class="node">
<title>Node9</title>
<polygon fill="none" stroke="#bfbfbf" points="1587.5,-.5 1587.5,-19.5 1714.5,-19.5 1714.5,-.5 1587.5,-.5"/>
<text text-anchor="middle" x="1651" y="-7.5" font-family="Helvetica,sans-Serif" font-size="10.00" fill="#000000">deal.II/dofs/dof_handler.h</text>
</g>
<!-- Node8&#45;&gt;Node9 -->
<g id="edge10" class="edge">
<title>Node8&#45;&gt;Node9</title>
<path fill="none" stroke="#191970" d="M661.6632,-56.8844C664.4785,-56.5617 667.2683,-56.2643 670,-56 759.2783,-47.3637 1364.611,-21.8448 1577.2956,-13.033"/>
<polygon fill="#191970" stroke="#191970" points="1577.5786,-16.5244 1587.4252,-12.6137 1577.289,-9.5304 1577.5786,-16.5244"/>
</g>
<!-- Node10 -->
<g id="node11" class="node">
<title>Node10</title>
<polygon fill="none" stroke="#bfbfbf" points="995,-.5 995,-19.5 1111,-19.5 1111,-.5 995,-.5"/>
<text text-anchor="middle" x="1053" y="-7.5" font-family="Helvetica,sans-Serif" font-size="10.00" fill="#000000">deal.II/dofs/dof_tools.h</text>
</g>
<!-- Node8&#45;&gt;Node10 -->
<g id="edge11" class="edge">
<title>Node8&#45;&gt;Node10</title>
<path fill="none" stroke="#191970" d="M661.6915,-57.1306C664.4993,-56.7421 667.2797,-56.3633 670,-56 780.0643,-41.3001 908.2197,-26.3454 984.8612,-17.6324"/>
<polygon fill="#191970" stroke="#191970" points="985.3249,-21.1023 994.8665,-16.4971 984.5356,-14.1469 985.3249,-21.1023"/>
</g>
<!-- Node11 -->
<g id="node12" class="node">
<title>Node11</title>
<polygon fill="none" stroke="#bfbfbf" points="1291.5,-.5 1291.5,-19.5 1394.5,-19.5 1394.5,-.5 1291.5,-.5"/>
<text text-anchor="middle" x="1343" y="-7.5" font-family="Helvetica,sans-Serif" font-size="10.00" fill="#000000">deal.II/fe/mapping.h</text>
</g>
<!-- Node8&#45;&gt;Node11 -->
<g id="edge12" class="edge">
<title>Node8&#45;&gt;Node11</title>
<path fill="none" stroke="#191970" d="M661.6706,-56.9569C664.4839,-56.6149 667.2713,-56.2934 670,-56 894.3648,-31.8718 1162.2493,-18.0051 1281.0344,-12.6218"/>
<polygon fill="#191970" stroke="#191970" points="1281.5439,-16.1026 1291.3768,-12.1576 1281.2299,-9.1096 1281.5439,-16.1026"/>
</g>
<!-- Node12 -->
<g id="node13" class="node">
<title>Node12</title>
<polygon fill="none" stroke="#bfbfbf" points="612,-.5 612,-19.5 652,-19.5 652,-.5 612,-.5"/>
<text text-anchor="middle" x="632" y="-7.5" font-family="Helvetica,sans-Serif" font-size="10.00" fill="#000000">utility</text>
</g>
<!-- Node8&#45;&gt;Node12 -->
<g id="edge13" class="edge">
<title>Node8&#45;&gt;Node12</title>
<path fill="none" stroke="#191970" d="M607.2256,-56.2455C611.3123,-48.617 617.1135,-37.7881 622.075,-28.5267"/>
<polygon fill="#191970" stroke="#191970" points="625.1972,-30.1103 626.8343,-19.6427 619.0268,-26.8047 625.1972,-30.1103"/>
</g>
<!-- Node13 -->
<g id="node14" class="node">
<title>Node13</title>
<polygon fill="none" stroke="#bfbfbf" points="550,-.5 550,-19.5 594,-19.5 594,-.5 550,-.5"/>
<text text-anchor="middle" x="572" y="-7.5" font-family="Helvetica,sans-Serif" font-size="10.00" fill="#000000">vector</text>
</g>
<!-- Node8&#45;&gt;Node13 -->
<g id="edge14" class="edge">
<title>Node8&#45;&gt;Node13</title>
<path fill="none" stroke="#191970" d="M596.7744,-56.2455C592.6877,-48.617 586.8865,-37.7881 581.925,-28.5267"/>
<polygon fill="#191970" stroke="#191970" points="584.9732,-26.8047 577.1657,-19.6427 578.8028,-30.1103 584.9732,-26.8047"/>
</g>
<!-- Node16 -->
<g id="node17" class="node">
<title>Node16</title>
<g id="a_node17"><a xlink:href="cluster_8h.html" target="_top" xlink:title="Implementation of the class Cluster. ">
<polygon fill="none" stroke="#000000" points="832,-112.5 832,-131.5 886,-131.5 886,-112.5 832,-112.5"/>
<text text-anchor="middle" x="859" y="-119.5" font-family="Helvetica,sans-Serif" font-size="10.00" fill="#000000">cluster.h</text>
</a>
</g>
</g>
<!-- Node15&#45;&gt;Node16 -->
<g id="edge17" class="edge">
<title>Node15&#45;&gt;Node16</title>
<path fill="none" stroke="#191970" d="M1011.7188,-173.8906C980.4985,-163.2826 930.1313,-146.1689 895.8449,-134.5191"/>
<polygon fill="#191970" stroke="#191970" points="896.7898,-131.1437 886.1954,-131.2404 894.5378,-137.7716 896.7898,-131.1437"/>
</g>
<!-- Node15&#45;&gt;Node20 -->
<g id="edge23" class="edge">
<title>Node15&#45;&gt;Node20</title>
<path fill="none" stroke="#191970" d="M1078.1347,-178.4672C1162.3608,-167.3515 1364.154,-140.72 1457.3295,-128.4233"/>
<polygon fill="#191970" stroke="#191970" points="1457.8823,-131.8807 1467.3383,-127.1023 1456.9663,-124.9409 1457.8823,-131.8807"/>
</g>
<!-- Node25 -->
<g id="node26" class="node">
<title>Node25</title>
<g id="a_node26"><a xlink:href="tree_8h.html" target="_top" xlink:title="Implementation of the classes for binary tree node, general tree node and functions for manipulating ...">
<polygon fill="none" stroke="#000000" points="1120.5,-112.5 1120.5,-131.5 1161.5,-131.5 1161.5,-112.5 1120.5,-112.5"/>
<text text-anchor="middle" x="1141" y="-119.5" font-family="Helvetica,sans-Serif" font-size="10.00" fill="#000000">tree.h</text>
</a>
</g>
</g>
<!-- Node15&#45;&gt;Node25 -->
<g id="edge31" class="edge">
<title>Node15&#45;&gt;Node25</title>
<path fill="none" stroke="#191970" d="M1055.7813,-173.8906C1072.0875,-163.9616 1097.754,-148.333 1116.6614,-136.8201"/>
<polygon fill="#191970" stroke="#191970" points="1118.6087,-139.7322 1125.3296,-131.5419 1114.9681,-133.7533 1118.6087,-139.7322"/>
</g>
<!-- Node16&#45;&gt;Node8 -->
<g id="edge22" class="edge">
<title>Node16&#45;&gt;Node8</title>
<path fill="none" stroke="#191970" d="M831.6794,-115.218C827.1169,-114.1194 822.4285,-113.0114 818,-112 764.0767,-99.685 702.3345,-86.6418 658.7096,-77.6019"/>
<polygon fill="#191970" stroke="#191970" points="659.3588,-74.1622 648.8572,-75.5645 657.9412,-81.0171 659.3588,-74.1622"/>
</g>
<!-- Node16&#45;&gt;Node13 -->
<g id="edge21" class="edge">
<title>Node16&#45;&gt;Node13</title>
<path fill="none" stroke="#191970" d="M831.7821,-120.1786C756.9874,-114.8988 552.5635,-98.5178 533,-76 519.7689,-60.7708 535.8789,-40.4375 551.2228,-26.3835"/>
<polygon fill="#191970" stroke="#191970" points="553.7267,-28.8461 559.0174,-19.6668 549.1572,-23.5433 553.7267,-28.8461"/>
</g>
<!-- Node17 -->
<g id="node18" class="node">
<title>Node17</title>
<polygon fill="none" stroke="#bfbfbf" points="679.5,-56.5 679.5,-75.5 782.5,-75.5 782.5,-56.5 679.5,-56.5"/>
<text text-anchor="middle" x="731" y="-63.5" font-family="Helvetica,sans-Serif" font-size="10.00" fill="#000000">deal.II/base/types.h</text>
</g>
<!-- Node16&#45;&gt;Node17 -->
<g id="edge18" class="edge">
<title>Node16&#45;&gt;Node17</title>
<path fill="none" stroke="#191970" d="M836.996,-112.3733C816.3565,-103.3435 785.2842,-89.7494 762.1111,-79.6111"/>
<polygon fill="#191970" stroke="#191970" points="763.2813,-76.3028 752.7169,-75.5011 760.4755,-82.7159 763.2813,-76.3028"/>
</g>
<!-- Node18 -->
<g id="node19" class="node">
<title>Node18</title>
<polygon fill="none" stroke="#bfbfbf" points="866,-56.5 866,-75.5 922,-75.5 922,-56.5 866,-56.5"/>
<text text-anchor="middle" x="894" y="-63.5" font-family="Helvetica,sans-Serif" font-size="10.00" fill="#000000">algorithm</text>
</g>
<!-- Node16&#45;&gt;Node18 -->
<g id="edge19" class="edge">
<title>Node16&#45;&gt;Node18</title>
<path fill="none" stroke="#191970" d="M865.0965,-112.2455C869.9145,-104.5367 876.7751,-93.5598 882.6032,-84.2348"/>
<polygon fill="#191970" stroke="#191970" points="885.6413,-85.9777 887.9733,-75.6427 879.7053,-82.2677 885.6413,-85.9777"/>
</g>
<!-- Node19 -->
<g id="node20" class="node">
<title>Node19</title>
<polygon fill="none" stroke="#bfbfbf" points="800.5,-56.5 800.5,-75.5 847.5,-75.5 847.5,-56.5 800.5,-56.5"/>
<text text-anchor="middle" x="824" y="-63.5" font-family="Helvetica,sans-Serif" font-size="10.00" fill="#000000">iterator</text>
</g>
<!-- Node16&#45;&gt;Node19 -->
<g id="edge20" class="edge">
<title>Node16&#45;&gt;Node19</title>
<path fill="none" stroke="#191970" d="M852.9035,-112.2455C848.0855,-104.5367 841.2249,-93.5598 835.3968,-84.2348"/>
<polygon fill="#191970" stroke="#191970" points="838.2947,-82.2677 830.0267,-75.6427 832.3587,-85.9777 838.2947,-82.2677"/>
</g>
<!-- Node20&#45;&gt;Node9 -->
<g id="edge24" class="edge">
<title>Node20&#45;&gt;Node9</title>
<path fill="none" stroke="#191970" d="M1544.7752,-118.8678C1622.2211,-112.218 1790.1023,-95.6763 1807,-76 1835.5738,-42.7277 1777.9104,-25.8227 1724.7907,-17.507"/>
<polygon fill="#191970" stroke="#191970" points="1725.0048,-14.0008 1714.6011,-16.0041 1723.9834,-20.9259 1725.0048,-14.0008"/>
</g>
<!-- Node20&#45;&gt;Node10 -->
<g id="edge25" class="edge">
<title>Node20&#45;&gt;Node10</title>
<path fill="none" stroke="#191970" d="M1500.8519,-112.3685C1492.2942,-97.4294 1473.6184,-69.0378 1449,-56 1393.766,-26.7484 1219.3653,-15.8752 1121.4342,-12.0079"/>
<polygon fill="#191970" stroke="#191970" points="1121.4591,-8.5064 1111.3331,-11.6231 1121.1926,-15.5013 1121.4591,-8.5064"/>
</g>
<!-- Node20&#45;&gt;Node11 -->
<g id="edge28" class="edge">
<title>Node20&#45;&gt;Node11</title>
<path fill="none" stroke="#191970" d="M1505.0728,-112.0459C1503.2127,-97.708 1497.7431,-71.2903 1482,-56 1461.2232,-35.8208 1431.4048,-24.4919 1404.7095,-18.1325"/>
<polygon fill="#191970" stroke="#191970" points="1405.1738,-14.6513 1394.6565,-15.9305 1403.6759,-21.4892 1405.1738,-14.6513"/>
</g>
<!-- Node21 -->
<g id="node22" class="node">
<title>Node21</title>
<polygon fill="none" stroke="#bfbfbf" points="1534,-56.5 1534,-75.5 1608,-75.5 1608,-56.5 1534,-56.5"/>
<text text-anchor="middle" x="1571" y="-63.5" font-family="Helvetica,sans-Serif" font-size="10.00" fill="#000000">deal.II/fe/fe.h</text>
</g>
<!-- Node20&#45;&gt;Node21 -->
<g id="edge26" class="edge">
<title>Node20&#45;&gt;Node21</title>
<path fill="none" stroke="#191970" d="M1517.3221,-112.2455C1526.9223,-103.9746 1540.8892,-91.9416 1552.1695,-82.2232"/>
<polygon fill="#191970" stroke="#191970" points="1554.516,-84.8214 1559.8076,-75.6427 1549.947,-79.5182 1554.516,-84.8214"/>
</g>
<!-- Node22 -->
<g id="node23" class="node">
<title>Node22</title>
<polygon fill="none" stroke="#bfbfbf" points="1626,-56.5 1626,-75.5 1738,-75.5 1738,-56.5 1626,-56.5"/>
<text text-anchor="middle" x="1682" y="-63.5" font-family="Helvetica,sans-Serif" font-size="10.00" fill="#000000">deal.II/fe/fe_system.h</text>
</g>
<!-- Node20&#45;&gt;Node22 -->
<g id="edge27" class="edge">
<title>Node20&#45;&gt;Node22</title>
<path fill="none" stroke="#191970" d="M1536.2555,-112.3733C1565.6483,-103.021 1610.4292,-88.7725 1642.5934,-78.5385"/>
<polygon fill="#191970" stroke="#191970" points="1643.6713,-81.8685 1652.1393,-75.5011 1641.5488,-75.198 1643.6713,-81.8685"/>
</g>
<!-- Node23 -->
<g id="node24" class="node">
<title>Node23</title>
<polygon fill="none" stroke="#bfbfbf" points="1386,-56.5 1386,-75.5 1440,-75.5 1440,-56.5 1386,-56.5"/>
<text text-anchor="middle" x="1413" y="-63.5" font-family="Helvetica,sans-Serif" font-size="10.00" fill="#000000">iostream</text>
</g>
<!-- Node20&#45;&gt;Node23 -->
<g id="edge29" class="edge">
<title>Node20&#45;&gt;Node23</title>
<path fill="none" stroke="#191970" d="M1489.8006,-112.2455C1475.3982,-103.5731 1454.1268,-90.7645 1437.6201,-80.825"/>
<polygon fill="#191970" stroke="#191970" points="1439.386,-77.8028 1429.0137,-75.6427 1435.775,-83.7996 1439.386,-77.8028"/>
</g>
<!-- Node24 -->
<g id="node25" class="node">
<title>Node24</title>
<polygon fill="none" stroke="#bfbfbf" points="1756.5,-56.5 1756.5,-75.5 1797.5,-75.5 1797.5,-56.5 1756.5,-56.5"/>
<text text-anchor="middle" x="1777" y="-63.5" font-family="Helvetica,sans-Serif" font-size="10.00" fill="#000000">string</text>
</g>
<!-- Node20&#45;&gt;Node24 -->
<g id="edge30" class="edge">
<title>Node20&#45;&gt;Node24</title>
<path fill="none" stroke="#191970" d="M1544.7534,-116.2346C1590.7018,-109.0413 1669.702,-95.5511 1746.5991,-75.8166"/>
<polygon fill="#191970" stroke="#191970" points="1747.6566,-79.158 1756.4514,-73.2502 1745.8921,-72.3841 1747.6566,-79.158"/>
</g>
<!-- Node25&#45;&gt;Node13 -->
<g id="edge39" class="edge">
<title>Node25&#45;&gt;Node13</title>
<path fill="none" stroke="#191970" d="M1120.4059,-118.0479C1087.6492,-111.4191 1021.9666,-96.7208 969,-76 951.2264,-69.0469 949.2502,-61.5835 931,-56 793.9129,-14.0595 748.4513,-49.0216 604.2995,-19.871"/>
<polygon fill="#191970" stroke="#191970" points="604.7093,-16.381 594.2044,-17.7583 603.2754,-23.2325 604.7093,-16.381"/>
</g>
<!-- Node25&#45;&gt;Node18 -->
<g id="edge33" class="edge">
<title>Node25&#45;&gt;Node18</title>
<path fill="none" stroke="#191970" d="M1120.3203,-117.453C1083.3163,-109.2957 1003.3437,-91.5721 936,-76 934.7266,-75.7055 933.4318,-75.4048 932.1244,-75.1"/>
<polygon fill="#191970" stroke="#191970" points="932.5378,-71.6018 922.0022,-72.7207 930.936,-78.4161 932.5378,-71.6018"/>
</g>
<!-- Node25&#45;&gt;Node23 -->
<g id="edge37" class="edge">
<title>Node25&#45;&gt;Node23</title>
<path fill="none" stroke="#191970" d="M1161.635,-118.5395C1201.2758,-111.7728 1290.9899,-95.8842 1376.1137,-76.0719"/>
<polygon fill="#191970" stroke="#191970" points="1376.9982,-79.4595 1385.932,-73.764 1375.3964,-72.6452 1376.9982,-79.4595"/>
</g>
<!-- Node26 -->
<g id="node27" class="node">
<title>Node26</title>
<polygon fill="none" stroke="#bfbfbf" points="978,-56.5 978,-75.5 1104,-75.5 1104,-56.5 978,-56.5"/>
<text text-anchor="middle" x="1041" y="-63.5" font-family="Helvetica,sans-Serif" font-size="10.00" fill="#000000">deal.II/base/exceptions.h</text>
</g>
<!-- Node25&#45;&gt;Node26 -->
<g id="edge32" class="edge">
<title>Node25&#45;&gt;Node26</title>
<path fill="none" stroke="#191970" d="M1123.5813,-112.2455C1107.9515,-103.4928 1084.7981,-90.527 1066.9815,-80.5496"/>
<polygon fill="#191970" stroke="#191970" points="1068.6543,-77.475 1058.2191,-75.6427 1065.234,-83.5825 1068.6543,-77.475"/>
</g>
<!-- Node27 -->
<g id="node28" class="node">
<title>Node27</title>
<polygon fill="none" stroke="#bfbfbf" points="1122,-56.5 1122,-75.5 1160,-75.5 1160,-56.5 1122,-56.5"/>
<text text-anchor="middle" x="1141" y="-63.5" font-family="Helvetica,sans-Serif" font-size="10.00" fill="#000000">array</text>
</g>
<!-- Node25&#45;&gt;Node27 -->
<g id="edge34" class="edge">
<title>Node25&#45;&gt;Node27</title>
<path fill="none" stroke="#191970" d="M1141,-112.2455C1141,-104.9382 1141,-94.6944 1141,-85.7046"/>
<polygon fill="#191970" stroke="#191970" points="1144.5001,-85.6426 1141,-75.6427 1137.5001,-85.6427 1144.5001,-85.6426"/>
</g>
<!-- Node28 -->
<g id="node29" class="node">
<title>Node28</title>
<polygon fill="none" stroke="#bfbfbf" points="1178.5,-56.5 1178.5,-75.5 1237.5,-75.5 1237.5,-56.5 1178.5,-56.5"/>
<text text-anchor="middle" x="1208" y="-63.5" font-family="Helvetica,sans-Serif" font-size="10.00" fill="#000000">exception</text>
</g>
<!-- Node25&#45;&gt;Node28 -->
<g id="edge35" class="edge">
<title>Node25&#45;&gt;Node28</title>
<path fill="none" stroke="#191970" d="M1152.6705,-112.2455C1162.5661,-103.9746 1176.9627,-91.9416 1188.5901,-82.2232"/>
<polygon fill="#191970" stroke="#191970" points="1191.035,-84.7413 1196.4632,-75.6427 1186.5458,-79.3703 1191.035,-84.7413"/>
</g>
<!-- Node29 -->
<g id="node30" class="node">
<title>Node29</title>
<polygon fill="none" stroke="#bfbfbf" points="1255.5,-56.5 1255.5,-75.5 1314.5,-75.5 1314.5,-56.5 1255.5,-56.5"/>
<text text-anchor="middle" x="1285" y="-63.5" font-family="Helvetica,sans-Serif" font-size="10.00" fill="#000000">functional</text>
</g>
<!-- Node25&#45;&gt;Node29 -->
<g id="edge36" class="edge">
<title>Node25&#45;&gt;Node29</title>
<path fill="none" stroke="#191970" d="M1161.6317,-113.9766C1185.0059,-104.8866 1223.4512,-89.9356 1251.2181,-79.1374"/>
<polygon fill="#191970" stroke="#191970" points="1252.5005,-82.3941 1260.552,-75.5076 1249.9633,-75.8701 1252.5005,-82.3941"/>
</g>
<!-- Node30 -->
<g id="node31" class="node">
<title>Node30</title>
<polygon fill="none" stroke="#bfbfbf" points="1332.5,-56.5 1332.5,-75.5 1367.5,-75.5 1367.5,-56.5 1332.5,-56.5"/>
<text text-anchor="middle" x="1350" y="-63.5" font-family="Helvetica,sans-Serif" font-size="10.00" fill="#000000">new</text>
</g>
<!-- Node25&#45;&gt;Node30 -->
<g id="edge38" class="edge">
<title>Node25&#45;&gt;Node30</title>
<path fill="none" stroke="#191970" d="M1161.5356,-117.6895C1193.9638,-110.7028 1259.1344,-95.9342 1322.7068,-76.1543"/>
<polygon fill="#191970" stroke="#191970" points="1323.9976,-79.4171 1332.4799,-73.0688 1321.8901,-72.7419 1323.9976,-79.4171"/>
</g>
</g>
</svg>
