<?xml version="1.0" encoding="UTF-8" standalone="no"?>
<!DOCTYPE svg PUBLIC "-//W3C//DTD SVG 1.1//EN"
 "http://www.w3.org/Graphics/SVG/1.1/DTD/svg11.dtd">
<!-- Generated by graphviz version 2.40.1 (20161225.0304)
 -->
<!-- Title: /home/jihuan/Projects/deal.ii/program/dealii&#45;9.1.1/examples/laplace&#45;bem/tests/cluster&#45;tree&#45;copy&#45;constructor/cluster&#45;tree&#45;copy&#45;constructor.cc Pages: 1 -->
<!--zoomable 307 -->
<svg id="main" version="1.1" xmlns="http://www.w3.org/2000/svg" xmlns:xlink="http://www.w3.org/1999/xlink" xml:space="preserve" onload="init(evt)">
<style type="text/css"><![CDATA[
.edge:hover path { stroke: red; }
.edge:hover polygon { stroke: red; fill: red; }
]]></style>
<script type="text/javascript"><![CDATA[
var edges = document.getElementsByTagName('g');
if (edges && edges.length) {
  for (var i=0;i<edges.length;i++) {
    if (edges[i].id.substr(0,4)=='edge') {
      edges[i].setAttribute('class','edge');
    }
  }
}
]]></script>
        <defs>
                <circle id="rim" cx="0" cy="0" r="7"/>
                <circle id="rim2" cx="0" cy="0" r="3.5"/>
                <g id="zoomPlus">
                        <use xlink:href="#rim" fill="#404040">
                                <set attributeName="fill" to="#808080" begin="zoomplus.mouseover" end="zoomplus.mouseout"/>
                        </use>
                        <path d="M-4,0h8M0,-4v8" fill="none" stroke="white" stroke-width="1.5" pointer-events="none"/>
                </g>
                <g id="zoomMin">
                        <use xlink:href="#rim" fill="#404040">
                                <set attributeName="fill" to="#808080" begin="zoomminus.mouseover" end="zoomminus.mouseout"/>
                        </use>
                        <path d="M-4,0h8" fill="none" stroke="white" stroke-width="1.5" pointer-events="none"/>
                </g>
                <g id="dirArrow">
                        <path fill="none" stroke="white" stroke-width="1.5" d="M0,-3.0v7 M-2.5,-0.5L0,-3.0L2.5,-0.5"/>
                </g>
               <g id="resetDef">
                       <use xlink:href="#rim2" fill="#404040">
                               <set attributeName="fill" to="#808080" begin="reset.mouseover" end="reset.mouseout"/>
                       </use>
               </g>
        </defs>

<script type="text/javascript">
var viewWidth = 1340;
var viewHeight = 307;
var sectionId = 'dynsection-0';
</script>
<script xlink:href="svgpan.js"/>
<svg id="graph" class="graph">
<g id="viewport">
<title>/home/jihuan/Projects/deal.ii/program/dealii&#45;9.1.1/examples/laplace&#45;bem/tests/cluster&#45;tree&#45;copy&#45;constructor/cluster&#45;tree&#45;copy&#45;constructor.cc</title>
<!-- Node0 -->
<g id="node1" class="node">
<title>Node0</title>
<polygon fill="#bfbfbf" stroke="#000000" points="445,-224.5 445,-298.5 570,-298.5 570,-224.5 445,-224.5"/>
<text text-anchor="start" x="453" y="-286.5" font-family="Helvetica,sans-Serif" font-size="10.00" fill="#000000">/home/jihuan/Projects</text>
<text text-anchor="start" x="453" y="-275.5" font-family="Helvetica,sans-Serif" font-size="10.00" fill="#000000">/deal.ii/program/dealii</text>
<text text-anchor="start" x="453" y="-264.5" font-family="Helvetica,sans-Serif" font-size="10.00" fill="#000000">&#45;9.1.1/examples/laplace</text>
<text text-anchor="start" x="453" y="-253.5" font-family="Helvetica,sans-Serif" font-size="10.00" fill="#000000">&#45;bem/tests/cluster&#45;tree</text>
<text text-anchor="start" x="453" y="-242.5" font-family="Helvetica,sans-Serif" font-size="10.00" fill="#000000">&#45;copy&#45;constructor/cluster</text>
<text text-anchor="middle" x="507.5" y="-231.5" font-family="Helvetica,sans-Serif" font-size="10.00" fill="#000000">&#45;tree&#45;copy&#45;constructor.cc</text>
</g>
<!-- Node1 -->
<g id="node2" class="node">
<title>Node1</title>
<polygon fill="none" stroke="#bfbfbf" points="395.5,-56.5 395.5,-75.5 449.5,-75.5 449.5,-56.5 395.5,-56.5"/>
<text text-anchor="middle" x="422.5" y="-63.5" font-family="Helvetica,sans-Serif" font-size="10.00" fill="#000000">iostream</text>
</g>
<!-- Node0&#45;&gt;Node1 -->
<g id="edge1" class="edge">
<title>Node0&#45;&gt;Node1</title>
<path fill="none" stroke="#191970" d="M491.3121,-224.2678C473.3093,-182.8614 444.9219,-117.5703 430.9042,-85.3296"/>
<polygon fill="#191970" stroke="#191970" points="433.934,-83.5202 426.737,-75.745 427.5145,-86.3113 433.934,-83.5202"/>
</g>
<!-- Node2 -->
<g id="node3" class="node">
<title>Node2</title>
<g id="a_node3"><a xlink:href="cluster__tree_8h_source.html" target="_top" xlink:title="cluster_tree.h">
<polygon fill="none" stroke="#000000" points="606.5,-168.5 606.5,-187.5 682.5,-187.5 682.5,-168.5 606.5,-168.5"/>
<text text-anchor="middle" x="644.5" y="-175.5" font-family="Helvetica,sans-Serif" font-size="10.00" fill="#000000">cluster_tree.h</text>
</a>
</g>
</g>
<!-- Node0&#45;&gt;Node2 -->
<g id="edge2" class="edge">
<title>Node0&#45;&gt;Node2</title>
<path fill="none" stroke="#191970" d="M568.388,-224.3894C586.561,-213.3132 605.4575,-201.796 619.8759,-193.0081"/>
<polygon fill="#191970" stroke="#191970" points="621.9341,-195.8525 628.6516,-187.6594 618.291,-189.8753 621.9341,-195.8525"/>
</g>
<!-- Node3 -->
<g id="node4" class="node">
<title>Node3</title>
<g id="a_node4"><a xlink:href="cluster_8h.html" target="_top" xlink:title="Implementation of the class Cluster. ">
<polygon fill="none" stroke="#000000" points="1045.5,-112.5 1045.5,-131.5 1099.5,-131.5 1099.5,-112.5 1045.5,-112.5"/>
<text text-anchor="middle" x="1072.5" y="-119.5" font-family="Helvetica,sans-Serif" font-size="10.00" fill="#000000">cluster.h</text>
</a>
</g>
</g>
<!-- Node2&#45;&gt;Node3 -->
<g id="edge3" class="edge">
<title>Node2&#45;&gt;Node3</title>
<path fill="none" stroke="#191970" d="M682.8588,-172.9811C764.4486,-162.3058 954.3322,-137.4612 1035.082,-126.8958"/>
<polygon fill="#191970" stroke="#191970" points="1035.8174,-130.3295 1045.2788,-125.5616 1034.9092,-123.3887 1035.8174,-130.3295"/>
</g>
<!-- Node14 -->
<g id="node15" class="node">
<title>Node14</title>
<g id="a_node15"><a xlink:href="debug__tools_8h.html" target="_top" xlink:title="This file includes a bunch of helper functions for printing out and visualizing information about gri...">
<polygon fill="none" stroke="#000000" points="140,-112.5 140,-131.5 217,-131.5 217,-112.5 140,-112.5"/>
<text text-anchor="middle" x="178.5" y="-119.5" font-family="Helvetica,sans-Serif" font-size="10.00" fill="#000000">debug_tools.h</text>
</a>
</g>
</g>
<!-- Node2&#45;&gt;Node14 -->
<g id="edge15" class="edge">
<title>Node2&#45;&gt;Node14</title>
<path fill="none" stroke="#191970" d="M606.3653,-173.4173C522.1392,-163.2957 320.346,-139.0459 227.1705,-127.8488"/>
<polygon fill="#191970" stroke="#191970" points="227.5079,-124.3643 217.1617,-126.646 226.6726,-131.3143 227.5079,-124.3643"/>
</g>
<!-- Node18 -->
<g id="node19" class="node">
<title>Node18</title>
<g id="a_node19"><a xlink:href="tree_8h.html" target="_top" xlink:title="Implementation of the classes for binary tree node, general tree node and functions for manipulating ...">
<polygon fill="none" stroke="#000000" points="677,-112.5 677,-131.5 718,-131.5 718,-112.5 677,-112.5"/>
<text text-anchor="middle" x="697.5" y="-119.5" font-family="Helvetica,sans-Serif" font-size="10.00" fill="#000000">tree.h</text>
</a>
</g>
</g>
<!-- Node2&#45;&gt;Node18 -->
<g id="edge23" class="edge">
<title>Node2&#45;&gt;Node18</title>
<path fill="none" stroke="#191970" d="M653.7319,-168.2455C661.3317,-160.2155 672.2877,-148.6394 681.3368,-139.0781"/>
<polygon fill="#191970" stroke="#191970" points="684.0421,-141.3115 688.3739,-131.6427 678.958,-136.4998 684.0421,-141.3115"/>
</g>
<!-- Node4 -->
<g id="node5" class="node">
<title>Node4</title>
<polygon fill="none" stroke="#bfbfbf" points="1164,-56.5 1164,-75.5 1267,-75.5 1267,-56.5 1164,-56.5"/>
<text text-anchor="middle" x="1215.5" y="-63.5" font-family="Helvetica,sans-Serif" font-size="10.00" fill="#000000">deal.II/base/types.h</text>
</g>
<!-- Node3&#45;&gt;Node4 -->
<g id="edge4" class="edge">
<title>Node3&#45;&gt;Node4</title>
<path fill="none" stroke="#191970" d="M1097.0826,-112.3733C1120.4496,-103.2226 1155.7862,-89.3844 1181.7784,-79.2057"/>
<polygon fill="#191970" stroke="#191970" points="1183.203,-82.4066 1191.2382,-75.5011 1180.6505,-75.8886 1183.203,-82.4066"/>
</g>
<!-- Node5 -->
<g id="node6" class="node">
<title>Node5</title>
<polygon fill="none" stroke="#bfbfbf" points="875.5,-56.5 875.5,-75.5 931.5,-75.5 931.5,-56.5 875.5,-56.5"/>
<text text-anchor="middle" x="903.5" y="-63.5" font-family="Helvetica,sans-Serif" font-size="10.00" fill="#000000">algorithm</text>
</g>
<!-- Node3&#45;&gt;Node5 -->
<g id="edge5" class="edge">
<title>Node3&#45;&gt;Node5</title>
<path fill="none" stroke="#191970" d="M1045.3472,-113.0026C1017.2266,-103.6845 973.0623,-89.0502 941.4859,-78.5871"/>
<polygon fill="#191970" stroke="#191970" points="942.3058,-75.1716 931.7125,-75.3485 940.104,-81.8163 942.3058,-75.1716"/>
</g>
<!-- Node6 -->
<g id="node7" class="node">
<title>Node6</title>
<polygon fill="none" stroke="#bfbfbf" points="1285,-56.5 1285,-75.5 1332,-75.5 1332,-56.5 1285,-56.5"/>
<text text-anchor="middle" x="1308.5" y="-63.5" font-family="Helvetica,sans-Serif" font-size="10.00" fill="#000000">iterator</text>
</g>
<!-- Node3&#45;&gt;Node6 -->
<g id="edge6" class="edge">
<title>Node3&#45;&gt;Node6</title>
<path fill="none" stroke="#191970" d="M1099.7303,-116.5929C1137.1654,-109.0015 1206.8078,-94.3152 1274.7838,-76.3207"/>
<polygon fill="#191970" stroke="#191970" points="1276.0411,-79.6075 1284.7969,-73.6422 1274.2321,-72.8453 1276.0411,-79.6075"/>
</g>
<!-- Node7 -->
<g id="node8" class="node">
<title>Node7</title>
<polygon fill="none" stroke="#bfbfbf" points="1075.5,-.5 1075.5,-19.5 1119.5,-19.5 1119.5,-.5 1075.5,-.5"/>
<text text-anchor="middle" x="1097.5" y="-7.5" font-family="Helvetica,sans-Serif" font-size="10.00" fill="#000000">vector</text>
</g>
<!-- Node3&#45;&gt;Node7 -->
<g id="edge7" class="edge">
<title>Node3&#45;&gt;Node7</title>
<path fill="none" stroke="#191970" d="M1084.24,-112.4549C1093.631,-104.0029 1106.0909,-90.7442 1111.5,-76 1117.158,-60.5772 1112.4145,-42.2439 1106.9683,-28.8181"/>
<polygon fill="#191970" stroke="#191970" points="1110.1295,-27.3139 1102.8272,-19.6375 1103.7486,-30.1922 1110.1295,-27.3139"/>
</g>
<!-- Node8 -->
<g id="node9" class="node">
<title>Node8</title>
<g id="a_node9"><a xlink:href="simple__bounding__box_8h_source.html" target="_top" xlink:title="simple_bounding_box.h">
<polygon fill="none" stroke="#000000" points="950,-56.5 950,-75.5 1069,-75.5 1069,-56.5 950,-56.5"/>
<text text-anchor="middle" x="1009.5" y="-63.5" font-family="Helvetica,sans-Serif" font-size="10.00" fill="#000000">simple_bounding_box.h</text>
</a>
</g>
</g>
<!-- Node3&#45;&gt;Node8 -->
<g id="edge8" class="edge">
<title>Node3&#45;&gt;Node8</title>
<path fill="none" stroke="#191970" d="M1061.5262,-112.2455C1052.3118,-104.0549 1038.9468,-92.1749 1028.0703,-82.5069"/>
<polygon fill="#191970" stroke="#191970" points="1030.1474,-79.6704 1020.348,-75.6427 1025.4968,-84.9023 1030.1474,-79.6704"/>
</g>
<!-- Node8&#45;&gt;Node7 -->
<g id="edge14" class="edge">
<title>Node8&#45;&gt;Node7</title>
<path fill="none" stroke="#191970" d="M1024.8284,-56.2455C1038.3303,-47.6534 1058.2122,-35.0014 1073.7686,-25.1018"/>
<polygon fill="#191970" stroke="#191970" points="1075.7897,-27.9643 1082.3472,-19.6427 1072.0315,-22.0587 1075.7897,-27.9643"/>
</g>
<!-- Node9 -->
<g id="node10" class="node">
<title>Node9</title>
<polygon fill="none" stroke="#bfbfbf" points="885.5,-.5 885.5,-19.5 985.5,-19.5 985.5,-.5 885.5,-.5"/>
<text text-anchor="middle" x="935.5" y="-7.5" font-family="Helvetica,sans-Serif" font-size="10.00" fill="#000000">deal.II/base/point.h</text>
</g>
<!-- Node8&#45;&gt;Node9 -->
<g id="edge9" class="edge">
<title>Node8&#45;&gt;Node9</title>
<path fill="none" stroke="#191970" d="M996.6102,-56.2455C985.5746,-47.8943 969.4708,-35.7076 956.5647,-25.9408"/>
<polygon fill="#191970" stroke="#191970" points="958.3283,-22.8862 948.2421,-19.6427 954.1041,-28.4681 958.3283,-22.8862"/>
</g>
<!-- Node10 -->
<g id="node11" class="node">
<title>Node10</title>
<polygon fill="none" stroke="#bfbfbf" points="78,-.5 78,-19.5 205,-19.5 205,-.5 78,-.5"/>
<text text-anchor="middle" x="141.5" y="-7.5" font-family="Helvetica,sans-Serif" font-size="10.00" fill="#000000">deal.II/dofs/dof_handler.h</text>
</g>
<!-- Node8&#45;&gt;Node10 -->
<g id="edge10" class="edge">
<title>Node8&#45;&gt;Node10</title>
<path fill="none" stroke="#191970" d="M949.6998,-57.0107C946.5915,-56.6445 943.5107,-56.3043 940.5,-56 674.3086,-29.099 356.5156,-16.6413 215.3492,-12.1187"/>
<polygon fill="#191970" stroke="#191970" points="215.1922,-8.6121 205.0865,-11.794 214.9708,-15.6086 215.1922,-8.6121"/>
</g>
<!-- Node11 -->
<g id="node12" class="node">
<title>Node11</title>
<polygon fill="none" stroke="#bfbfbf" points="455.5,-.5 455.5,-19.5 571.5,-19.5 571.5,-.5 455.5,-.5"/>
<text text-anchor="middle" x="513.5" y="-7.5" font-family="Helvetica,sans-Serif" font-size="10.00" fill="#000000">deal.II/dofs/dof_tools.h</text>
</g>
<!-- Node8&#45;&gt;Node11 -->
<g id="edge11" class="edge">
<title>Node8&#45;&gt;Node11</title>
<path fill="none" stroke="#191970" d="M949.6791,-57.1936C946.5761,-56.7796 943.5022,-56.3791 940.5,-56 813.9709,-40.0213 665.8988,-24.8593 581.5577,-16.5561"/>
<polygon fill="#191970" stroke="#191970" points="581.888,-13.0717 571.5939,-15.5779 581.204,-20.0383 581.888,-13.0717"/>
</g>
<!-- Node12 -->
<g id="node13" class="node">
<title>Node12</title>
<polygon fill="none" stroke="#bfbfbf" points="706,-.5 706,-19.5 809,-19.5 809,-.5 706,-.5"/>
<text text-anchor="middle" x="757.5" y="-7.5" font-family="Helvetica,sans-Serif" font-size="10.00" fill="#000000">deal.II/fe/mapping.h</text>
</g>
<!-- Node8&#45;&gt;Node12 -->
<g id="edge12" class="edge">
<title>Node8&#45;&gt;Node12</title>
<path fill="none" stroke="#191970" d="M966.466,-56.4369C923.2475,-46.8328 856.5859,-32.0191 810.2182,-21.7152"/>
<polygon fill="#191970" stroke="#191970" points="810.8777,-18.2764 800.3565,-19.5237 809.3591,-25.1097 810.8777,-18.2764"/>
</g>
<!-- Node13 -->
<g id="node14" class="node">
<title>Node13</title>
<polygon fill="none" stroke="#bfbfbf" points="1003.5,-.5 1003.5,-19.5 1043.5,-19.5 1043.5,-.5 1003.5,-.5"/>
<text text-anchor="middle" x="1023.5" y="-7.5" font-family="Helvetica,sans-Serif" font-size="10.00" fill="#000000">utility</text>
</g>
<!-- Node8&#45;&gt;Node13 -->
<g id="edge13" class="edge">
<title>Node8&#45;&gt;Node13</title>
<path fill="none" stroke="#191970" d="M1011.9386,-56.2455C1013.7855,-48.8579 1016.3828,-38.4689 1018.6478,-29.4087"/>
<polygon fill="#191970" stroke="#191970" points="1022.0594,-30.193 1021.0893,-19.6427 1015.2684,-28.4952 1022.0594,-30.193"/>
</g>
<!-- Node14&#45;&gt;Node1 -->
<g id="edge21" class="edge">
<title>Node14&#45;&gt;Node1</title>
<path fill="none" stroke="#191970" d="M217.3631,-114.0516C257.2106,-105.7586 321.1944,-92.0478 385.5099,-76.1548"/>
<polygon fill="#191970" stroke="#191970" points="386.5551,-79.5015 395.4141,-73.6904 384.8649,-72.7087 386.5551,-79.5015"/>
</g>
<!-- Node14&#45;&gt;Node10 -->
<g id="edge16" class="edge">
<title>Node14&#45;&gt;Node10</title>
<path fill="none" stroke="#191970" d="M142.9402,-112.3459C124.7535,-105.4075 104.2363,-94.0179 93.5,-76 82.8156,-58.0693 100.3243,-38.9188 117.1158,-25.8905"/>
<polygon fill="#191970" stroke="#191970" points="119.642,-28.3816 125.6782,-19.6744 115.5296,-22.717 119.642,-28.3816"/>
</g>
<!-- Node14&#45;&gt;Node11 -->
<g id="edge17" class="edge">
<title>Node14&#45;&gt;Node11</title>
<path fill="none" stroke="#191970" d="M163.1154,-112.3455C143.7722,-99.048 114.9802,-74.6284 131.5,-56 151.9273,-32.9653 341.0494,-19.2509 445.2977,-13.3791"/>
<polygon fill="#191970" stroke="#191970" points="445.6291,-16.8662 455.4203,-12.8186 445.242,-9.877 445.6291,-16.8662"/>
</g>
<!-- Node14&#45;&gt;Node12 -->
<g id="edge20" class="edge">
<title>Node14&#45;&gt;Node12</title>
<path fill="none" stroke="#191970" d="M171.7446,-112.0946C162.9186,-97.8173 150.1795,-71.4743 164.5,-56 173.4468,-46.3323 545.0634,-22.8406 695.37,-13.7131"/>
<polygon fill="#191970" stroke="#191970" points="696.0316,-17.1795 705.8016,-13.0811 695.6082,-10.1923 696.0316,-17.1795"/>
</g>
<!-- Node15 -->
<g id="node16" class="node">
<title>Node15</title>
<polygon fill="none" stroke="#bfbfbf" points="173.5,-56.5 173.5,-75.5 247.5,-75.5 247.5,-56.5 173.5,-56.5"/>
<text text-anchor="middle" x="210.5" y="-63.5" font-family="Helvetica,sans-Serif" font-size="10.00" fill="#000000">deal.II/fe/fe.h</text>
</g>
<!-- Node14&#45;&gt;Node15 -->
<g id="edge18" class="edge">
<title>Node14&#45;&gt;Node15</title>
<path fill="none" stroke="#191970" d="M184.074,-112.2455C188.4331,-104.617 194.6211,-93.7881 199.9133,-84.5267"/>
<polygon fill="#191970" stroke="#191970" points="203.0673,-86.0616 204.9899,-75.6427 196.9896,-82.5886 203.0673,-86.0616"/>
</g>
<!-- Node16 -->
<g id="node17" class="node">
<title>Node16</title>
<polygon fill="none" stroke="#bfbfbf" points="265.5,-56.5 265.5,-75.5 377.5,-75.5 377.5,-56.5 265.5,-56.5"/>
<text text-anchor="middle" x="321.5" y="-63.5" font-family="Helvetica,sans-Serif" font-size="10.00" fill="#000000">deal.II/fe/fe_system.h</text>
</g>
<!-- Node14&#45;&gt;Node16 -->
<g id="edge19" class="edge">
<title>Node14&#45;&gt;Node16</title>
<path fill="none" stroke="#191970" d="M203.0826,-112.3733C226.4496,-103.2226 261.7862,-89.3844 287.7784,-79.2057"/>
<polygon fill="#191970" stroke="#191970" points="289.203,-82.4066 297.2382,-75.5011 286.6505,-75.8886 289.203,-82.4066"/>
</g>
<!-- Node17 -->
<g id="node18" class="node">
<title>Node17</title>
<polygon fill="none" stroke="#bfbfbf" points="0,-56.5 0,-75.5 41,-75.5 41,-56.5 0,-56.5"/>
<text text-anchor="middle" x="20.5" y="-63.5" font-family="Helvetica,sans-Serif" font-size="10.00" fill="#000000">string</text>
</g>
<!-- Node14&#45;&gt;Node17 -->
<g id="edge22" class="edge">
<title>Node14&#45;&gt;Node17</title>
<path fill="none" stroke="#191970" d="M151.3388,-112.3733C123.3991,-102.4706 79.9711,-87.0784 50.9009,-76.775"/>
<polygon fill="#191970" stroke="#191970" points="51.8609,-73.402 41.2661,-73.3601 49.5224,-79.9998 51.8609,-73.402"/>
</g>
<!-- Node18&#45;&gt;Node1 -->
<g id="edge29" class="edge">
<title>Node18&#45;&gt;Node1</title>
<path fill="none" stroke="#191970" d="M676.9207,-118.6164C636.9405,-111.9208 545.8162,-96.0641 459.5192,-76.0975"/>
<polygon fill="#191970" stroke="#191970" points="460.1006,-72.6391 449.5664,-73.771 458.5072,-79.4554 460.1006,-72.6391"/>
</g>
<!-- Node18&#45;&gt;Node5 -->
<g id="edge25" class="edge">
<title>Node18&#45;&gt;Node5</title>
<path fill="none" stroke="#191970" d="M718.0052,-116.4258C752.3718,-107.0834 822.0988,-88.1285 865.5913,-76.3053"/>
<polygon fill="#191970" stroke="#191970" points="866.5165,-79.6809 875.2481,-73.6801 864.6802,-72.926 866.5165,-79.6809"/>
</g>
<!-- Node18&#45;&gt;Node7 -->
<g id="edge31" class="edge">
<title>Node18&#45;&gt;Node7</title>
<path fill="none" stroke="#191970" d="M718.1052,-120.8316C793.4173,-116.3843 1050.8209,-99.5669 1078.5,-76 1091.667,-64.7892 1096.0131,-45.0979 1097.307,-30.1331"/>
<polygon fill="#191970" stroke="#191970" points="1100.8179,-29.9845 1097.797,-19.8295 1093.8258,-29.652 1100.8179,-29.9845"/>
</g>
<!-- Node19 -->
<g id="node20" class="node">
<title>Node19</title>
<polygon fill="none" stroke="#bfbfbf" points="467.5,-56.5 467.5,-75.5 593.5,-75.5 593.5,-56.5 467.5,-56.5"/>
<text text-anchor="middle" x="530.5" y="-63.5" font-family="Helvetica,sans-Serif" font-size="10.00" fill="#000000">deal.II/base/exceptions.h</text>
</g>
<!-- Node18&#45;&gt;Node19 -->
<g id="edge24" class="edge">
<title>Node18&#45;&gt;Node19</title>
<path fill="none" stroke="#191970" d="M676.687,-115.0208C649.6296,-105.9477 601.8771,-89.9348 568.3298,-78.6855"/>
<polygon fill="#191970" stroke="#191970" points="569.438,-75.3656 558.844,-75.5046 567.2124,-82.0024 569.438,-75.3656"/>
</g>
<!-- Node20 -->
<g id="node21" class="node">
<title>Node20</title>
<polygon fill="none" stroke="#bfbfbf" points="611.5,-56.5 611.5,-75.5 649.5,-75.5 649.5,-56.5 611.5,-56.5"/>
<text text-anchor="middle" x="630.5" y="-63.5" font-family="Helvetica,sans-Serif" font-size="10.00" fill="#000000">array</text>
</g>
<!-- Node18&#45;&gt;Node20 -->
<g id="edge26" class="edge">
<title>Node18&#45;&gt;Node20</title>
<path fill="none" stroke="#191970" d="M685.8295,-112.2455C675.9339,-103.9746 661.5373,-91.9416 649.9099,-82.2232"/>
<polygon fill="#191970" stroke="#191970" points="651.9542,-79.3703 642.0368,-75.6427 647.465,-84.7413 651.9542,-79.3703"/>
</g>
<!-- Node21 -->
<g id="node22" class="node">
<title>Node21</title>
<polygon fill="none" stroke="#bfbfbf" points="668,-56.5 668,-75.5 727,-75.5 727,-56.5 668,-56.5"/>
<text text-anchor="middle" x="697.5" y="-63.5" font-family="Helvetica,sans-Serif" font-size="10.00" fill="#000000">exception</text>
</g>
<!-- Node18&#45;&gt;Node21 -->
<g id="edge27" class="edge">
<title>Node18&#45;&gt;Node21</title>
<path fill="none" stroke="#191970" d="M697.5,-112.2455C697.5,-104.9382 697.5,-94.6944 697.5,-85.7046"/>
<polygon fill="#191970" stroke="#191970" points="701.0001,-85.6426 697.5,-75.6427 694.0001,-85.6427 701.0001,-85.6426"/>
</g>
<!-- Node22 -->
<g id="node23" class="node">
<title>Node22</title>
<polygon fill="none" stroke="#bfbfbf" points="745,-56.5 745,-75.5 804,-75.5 804,-56.5 745,-56.5"/>
<text text-anchor="middle" x="774.5" y="-63.5" font-family="Helvetica,sans-Serif" font-size="10.00" fill="#000000">functional</text>
</g>
<!-- Node18&#45;&gt;Node22 -->
<g id="edge28" class="edge">
<title>Node18&#45;&gt;Node22</title>
<path fill="none" stroke="#191970" d="M710.9124,-112.2455C722.5057,-103.814 739.4748,-91.4729 752.9678,-81.6598"/>
<polygon fill="#191970" stroke="#191970" points="755.2126,-84.355 761.2413,-75.6427 751.0953,-78.6938 755.2126,-84.355"/>
</g>
<!-- Node23 -->
<g id="node24" class="node">
<title>Node23</title>
<polygon fill="none" stroke="#bfbfbf" points="822,-56.5 822,-75.5 857,-75.5 857,-56.5 822,-56.5"/>
<text text-anchor="middle" x="839.5" y="-63.5" font-family="Helvetica,sans-Serif" font-size="10.00" fill="#000000">new</text>
</g>
<!-- Node18&#45;&gt;Node23 -->
<g id="edge30" class="edge">
<title>Node18&#45;&gt;Node23</title>
<path fill="none" stroke="#191970" d="M718.148,-113.8571C743.0847,-104.0229 785.0945,-87.4557 812.5593,-76.6245"/>
<polygon fill="#191970" stroke="#191970" points="813.9425,-79.8414 821.9612,-72.9167 811.3744,-73.3295 813.9425,-79.8414"/>
</g>
</g>
</svg>
        <g id="navigator" transform="translate(0 0)" fill="#404254">
                <rect fill="#f2f5e9" fill-opacity="0.5" stroke="#606060" stroke-width=".5" x="0" y="0" width="60" height="60"/>
                <use id="zoomplus" xlink:href="#zoomPlus" x="17" y="9" onmousedown="handleZoom(evt,'in')"/>
                <use id="zoomminus" xlink:href="#zoomMin" x="42" y="9" onmousedown="handleZoom(evt,'out')"/>
                <use id="reset" xlink:href="#resetDef" x="30" y="36" onmousedown="handleReset()"/>
                <g id="arrowUp" xlink:href="#dirArrow" transform="translate(30 24)" onmousedown="handlePan(0,-1)">
                  <use xlink:href="#rim" fill="#404040">
                        <set attributeName="fill" to="#808080" begin="arrowUp.mouseover" end="arrowUp.mouseout"/>
                  </use>
                  <path fill="none" stroke="white" stroke-width="1.5" d="M0,-3.0v7 M-2.5,-0.5L0,-3.0L2.5,-0.5"/>
                </g>
                <g id="arrowRight" xlink:href="#dirArrow" transform="rotate(90) translate(36 -43)" onmousedown="handlePan(1,0)">
                  <use xlink:href="#rim" fill="#404040">
                        <set attributeName="fill" to="#808080" begin="arrowRight.mouseover" end="arrowRight.mouseout"/>
                  </use>
                  <path fill="none" stroke="white" stroke-width="1.5" d="M0,-3.0v7 M-2.5,-0.5L0,-3.0L2.5,-0.5"/>
                </g>
                <g id="arrowDown" xlink:href="#dirArrow" transform="rotate(180) translate(-30 -48)" onmousedown="handlePan(0,1)">
                  <use xlink:href="#rim" fill="#404040">
                        <set attributeName="fill" to="#808080" begin="arrowDown.mouseover" end="arrowDown.mouseout"/>
                  </use>
                  <path fill="none" stroke="white" stroke-width="1.5" d="M0,-3.0v7 M-2.5,-0.5L0,-3.0L2.5,-0.5"/>
                </g>
                <g id="arrowLeft" xlink:href="#dirArrow" transform="rotate(270) translate(-36 17)" onmousedown="handlePan(-1,0)">
                  <use xlink:href="#rim" fill="#404040">
                        <set attributeName="fill" to="#808080" begin="arrowLeft.mouseover" end="arrowLeft.mouseout"/>
                  </use>
                  <path fill="none" stroke="white" stroke-width="1.5" d="M0,-3.0v7 M-2.5,-0.5L0,-3.0L2.5,-0.5"/>
                </g>
        </g>
        <svg viewBox="0 0 15 15" width="100%" height="30px" preserveAspectRatio="xMaxYMin meet">
         <g id="arrow_out" transform="scale(0.3 0.3)">
          <a xlink:href="cluster-tree-copy-constructor_8cc__incl_org.svg" target="_base">
           <rect id="button" ry="5" rx="5" y="6" x="6" height="38" width="38"
                fill="#f2f5e9" fill-opacity="0.5" stroke="#606060" stroke-width="1.0"/>
           <path id="arrow"
             d="M 11.500037,31.436501 C 11.940474,20.09759 22.043105,11.32322 32.158766,21.979434 L 37.068811,17.246167 C 37.068811,17.246167 37.088388,32 37.088388,32 L 22.160133,31.978069 C 22.160133,31.978069 26.997745,27.140456 26.997745,27.140456 C 18.528582,18.264221 13.291696,25.230495 11.500037,31.436501 z"
             style="fill:#404040;"/>
          </a>
         </g>
        </svg>
</svg>
