<?xml version="1.0" encoding="UTF-8" standalone="no"?>
<!DOCTYPE svg PUBLIC "-//W3C//DTD SVG 1.1//EN"
 "http://www.w3.org/Graphics/SVG/1.1/DTD/svg11.dtd">
<!-- Generated by graphviz version 2.40.1 (20161225.0304)
 -->
<!-- Title: /home/jihuan/Projects/deal.ii/program/dealii&#45;9.1.1/examples/laplace&#45;bem/tests/cluster&#45;tree/cluster&#45;tree.cc Pages: 1 -->
<svg width="1466pt" height="307pt"
 viewBox="0.00 0.00 1466.00 307.00" xmlns="http://www.w3.org/2000/svg" xmlns:xlink="http://www.w3.org/1999/xlink">
<g id="graph0" class="graph" transform="scale(1 1) rotate(0) translate(4 303)">
<title>/home/jihuan/Projects/deal.ii/program/dealii&#45;9.1.1/examples/laplace&#45;bem/tests/cluster&#45;tree/cluster&#45;tree.cc</title>
<!-- Node0 -->
<g id="node1" class="node">
<title>Node0</title>
<polygon fill="#bfbfbf" stroke="#000000" points="695,-235.5 695,-298.5 815,-298.5 815,-235.5 695,-235.5"/>
<text text-anchor="start" x="703" y="-286.5" font-family="Helvetica,sans-Serif" font-size="10.00" fill="#000000">/home/jihuan/Projects</text>
<text text-anchor="start" x="703" y="-275.5" font-family="Helvetica,sans-Serif" font-size="10.00" fill="#000000">/deal.ii/program/dealii</text>
<text text-anchor="start" x="703" y="-264.5" font-family="Helvetica,sans-Serif" font-size="10.00" fill="#000000">&#45;9.1.1/examples/laplace</text>
<text text-anchor="start" x="703" y="-253.5" font-family="Helvetica,sans-Serif" font-size="10.00" fill="#000000">&#45;bem/tests/cluster&#45;tree</text>
<text text-anchor="middle" x="755" y="-242.5" font-family="Helvetica,sans-Serif" font-size="10.00" fill="#000000">/cluster&#45;tree.cc</text>
</g>
<!-- Node1 -->
<g id="node2" class="node">
<title>Node1</title>
<polygon fill="none" stroke="#bfbfbf" points="261,-174 261,-193 383,-193 383,-174 261,-174"/>
<text text-anchor="middle" x="322" y="-181" font-family="Helvetica,sans-Serif" font-size="10.00" fill="#000000">deal.II/base/logstream.h</text>
</g>
<!-- Node0&#45;&gt;Node1 -->
<g id="edge1" class="edge">
<title>Node0&#45;&gt;Node1</title>
<path fill="none" stroke="#191970" d="M694.7672,-255.8651C623.5761,-242.6335 501.564,-219.7342 397,-199 390.752,-197.7611 384.2161,-196.4431 377.7186,-195.1189"/>
<polygon fill="#191970" stroke="#191970" points="378.0861,-191.6216 367.5871,-193.0436 376.6813,-198.4792 378.0861,-191.6216"/>
</g>
<!-- Node2 -->
<g id="node3" class="node">
<title>Node2</title>
<polygon fill="none" stroke="#bfbfbf" points="0,-.5 0,-19.5 100,-19.5 100,-.5 0,-.5"/>
<text text-anchor="middle" x="50" y="-7.5" font-family="Helvetica,sans-Serif" font-size="10.00" fill="#000000">deal.II/base/point.h</text>
</g>
<!-- Node0&#45;&gt;Node2 -->
<g id="edge2" class="edge">
<title>Node0&#45;&gt;Node2</title>
<path fill="none" stroke="#191970" d="M694.5364,-250.5241C648.3182,-237.5553 583.2029,-218.4739 527,-199 356.6359,-139.9699 157.4736,-56.131 81.5582,-23.618"/>
<polygon fill="#191970" stroke="#191970" points="82.6618,-20.2829 72.0919,-19.5559 79.9014,-26.7157 82.6618,-20.2829"/>
</g>
<!-- Node3 -->
<g id="node4" class="node">
<title>Node3</title>
<polygon fill="none" stroke="#bfbfbf" points="658.5,-174 658.5,-193 743.5,-193 743.5,-174 658.5,-174"/>
<text text-anchor="middle" x="701" y="-181" font-family="Helvetica,sans-Serif" font-size="10.00" fill="#000000">deal.II/fe/fe_q.h</text>
</g>
<!-- Node0&#45;&gt;Node3 -->
<g id="edge3" class="edge">
<title>Node0&#45;&gt;Node3</title>
<path fill="none" stroke="#191970" d="M734.5849,-235.4322C727.2517,-224.0928 719.2282,-211.6862 712.863,-201.8437"/>
<polygon fill="#191970" stroke="#191970" points="715.7144,-199.8076 707.345,-193.3112 709.8365,-203.6089 715.7144,-199.8076"/>
</g>
<!-- Node4 -->
<g id="node5" class="node">
<title>Node4</title>
<polygon fill="none" stroke="#bfbfbf" points="761.5,-168.5 761.5,-198.5 856.5,-198.5 856.5,-168.5 761.5,-168.5"/>
<text text-anchor="start" x="769.5" y="-186.5" font-family="Helvetica,sans-Serif" font-size="10.00" fill="#000000">deal.II/fe/mapping</text>
<text text-anchor="middle" x="809" y="-175.5" font-family="Helvetica,sans-Serif" font-size="10.00" fill="#000000">_q_generic.h</text>
</g>
<!-- Node0&#45;&gt;Node4 -->
<g id="edge4" class="edge">
<title>Node0&#45;&gt;Node4</title>
<path fill="none" stroke="#191970" d="M775.4151,-235.4322C781.4445,-226.109 787.9404,-216.0643 793.5977,-207.3165"/>
<polygon fill="#191970" stroke="#191970" points="796.6433,-209.0522 799.1348,-198.7545 790.7654,-205.2509 796.6433,-209.0522"/>
</g>
<!-- Node5 -->
<g id="node6" class="node">
<title>Node5</title>
<polygon fill="none" stroke="#bfbfbf" points="874.5,-174 874.5,-193 1009.5,-193 1009.5,-174 874.5,-174"/>
<text text-anchor="middle" x="942" y="-181" font-family="Helvetica,sans-Serif" font-size="10.00" fill="#000000">deal.II/grid/grid_generator.h</text>
</g>
<!-- Node0&#45;&gt;Node5 -->
<g id="edge5" class="edge">
<title>Node0&#45;&gt;Node5</title>
<path fill="none" stroke="#191970" d="M815.1973,-240.1205C847.1973,-225.8317 885.1839,-208.8698 911.183,-197.2605"/>
<polygon fill="#191970" stroke="#191970" points="912.8191,-200.3631 920.5231,-193.09 909.965,-193.9714 912.8191,-200.3631"/>
</g>
<!-- Node6 -->
<g id="node7" class="node">
<title>Node6</title>
<polygon fill="none" stroke="#bfbfbf" points="1028,-174 1028,-193 1130,-193 1130,-174 1028,-174"/>
<text text-anchor="middle" x="1079" y="-181" font-family="Helvetica,sans-Serif" font-size="10.00" fill="#000000">deal.II/grid/grid_in.h</text>
</g>
<!-- Node0&#45;&gt;Node6 -->
<g id="edge6" class="edge">
<title>Node0&#45;&gt;Node6</title>
<path fill="none" stroke="#191970" d="M815.0299,-251.5507C868.5409,-237.776 948.996,-217.0578 1019,-199 1023.3363,-197.8814 1027.8488,-196.7168 1032.3655,-195.5507"/>
<polygon fill="#191970" stroke="#191970" points="1033.386,-198.9021 1042.1932,-193.0128 1031.6357,-192.1244 1033.386,-198.9021"/>
</g>
<!-- Node7 -->
<g id="node8" class="node">
<title>Node7</title>
<polygon fill="none" stroke="#bfbfbf" points="1148,-174 1148,-193 1256,-193 1256,-174 1148,-174"/>
<text text-anchor="middle" x="1202" y="-181" font-family="Helvetica,sans-Serif" font-size="10.00" fill="#000000">deal.II/grid/grid_out.h</text>
</g>
<!-- Node0&#45;&gt;Node7 -->
<g id="edge7" class="edge">
<title>Node0&#45;&gt;Node7</title>
<path fill="none" stroke="#191970" d="M815.0988,-257.6173C890.8867,-245.4964 1025.0654,-223.0763 1139,-199 1144.3035,-197.8793 1149.8394,-196.6322 1155.3329,-195.3458"/>
<polygon fill="#191970" stroke="#191970" points="1156.2042,-198.7362 1165.1161,-193.0067 1154.5763,-191.9281 1156.2042,-198.7362"/>
</g>
<!-- Node8 -->
<g id="node9" class="node">
<title>Node8</title>
<g id="a_node9"><a xlink:href="simple__bounding__box_8h_source.html" target="_top" xlink:title="simple_bounding_box.h">
<polygon fill="none" stroke="#000000" points="439.5,-56.5 439.5,-75.5 558.5,-75.5 558.5,-56.5 439.5,-56.5"/>
<text text-anchor="middle" x="499" y="-63.5" font-family="Helvetica,sans-Serif" font-size="10.00" fill="#000000">simple_bounding_box.h</text>
</a>
</g>
</g>
<!-- Node0&#45;&gt;Node8 -->
<g id="edge8" class="edge">
<title>Node0&#45;&gt;Node8</title>
<path fill="none" stroke="#191970" d="M694.9272,-259.8447C651.2812,-251.7768 593.3726,-234.7483 555,-199 521.8246,-168.0935 507.5684,-114.4165 502.0619,-85.6097"/>
<polygon fill="#191970" stroke="#191970" points="505.4758,-84.8129 500.3077,-75.5641 498.5801,-86.0171 505.4758,-84.8129"/>
</g>
<!-- Node14 -->
<g id="node15" class="node">
<title>Node14</title>
<polygon fill="none" stroke="#bfbfbf" points="1274,-174 1274,-193 1324,-193 1324,-174 1274,-174"/>
<text text-anchor="middle" x="1299" y="-181" font-family="Helvetica,sans-Serif" font-size="10.00" fill="#000000">fstream</text>
</g>
<!-- Node0&#45;&gt;Node14 -->
<g id="edge15" class="edge">
<title>Node0&#45;&gt;Node14</title>
<path fill="none" stroke="#191970" d="M815.0633,-264.7134C911.6291,-259.7738 1106.6197,-244.5675 1265,-199 1266.9638,-198.435 1268.9591,-197.7744 1270.9484,-197.0502"/>
<polygon fill="#191970" stroke="#191970" points="1272.7564,-200.091 1280.6716,-193.0483 1270.0921,-193.6178 1272.7564,-200.091"/>
</g>
<!-- Node15 -->
<g id="node16" class="node">
<title>Node15</title>
<g id="a_node16"><a xlink:href="cluster__tree_8h_source.html" target="_top" xlink:title="cluster_tree.h">
<polygon fill="none" stroke="#000000" points="564,-174 564,-193 640,-193 640,-174 564,-174"/>
<text text-anchor="middle" x="602" y="-181" font-family="Helvetica,sans-Serif" font-size="10.00" fill="#000000">cluster_tree.h</text>
</a>
</g>
</g>
<!-- Node0&#45;&gt;Node15 -->
<g id="edge16" class="edge">
<title>Node0&#45;&gt;Node15</title>
<path fill="none" stroke="#191970" d="M697.1573,-235.4322C673.5574,-222.5526 647.4346,-208.296 628.5392,-197.9838"/>
<polygon fill="#191970" stroke="#191970" points="630.0826,-194.8389 619.6281,-193.1205 626.7292,-200.9834 630.0826,-194.8389"/>
</g>
<!-- Node8&#45;&gt;Node2 -->
<g id="edge9" class="edge">
<title>Node8&#45;&gt;Node2</title>
<path fill="none" stroke="#191970" d="M439.2395,-57.8153C434.4234,-57.1889 429.6313,-56.5767 425,-56 288.0179,-38.9436 250.691,-39.7681 110.4603,-20.1455"/>
<polygon fill="#191970" stroke="#191970" points="110.5737,-16.6269 100.1831,-18.6968 109.5966,-23.5584 110.5737,-16.6269"/>
</g>
<!-- Node9 -->
<g id="node10" class="node">
<title>Node9</title>
<polygon fill="none" stroke="#bfbfbf" points="176.5,-.5 176.5,-19.5 303.5,-19.5 303.5,-.5 176.5,-.5"/>
<text text-anchor="middle" x="240" y="-7.5" font-family="Helvetica,sans-Serif" font-size="10.00" fill="#000000">deal.II/dofs/dof_handler.h</text>
</g>
<!-- Node8&#45;&gt;Node9 -->
<g id="edge10" class="edge">
<title>Node8&#45;&gt;Node9</title>
<path fill="none" stroke="#191970" d="M454.7706,-56.4369C410.2585,-46.8127 341.551,-31.957 293.8831,-21.6504"/>
<polygon fill="#191970" stroke="#191970" points="294.5608,-18.2161 284.047,-19.5237 293.0814,-25.058 294.5608,-18.2161"/>
</g>
<!-- Node10 -->
<g id="node11" class="node">
<title>Node10</title>
<polygon fill="none" stroke="#bfbfbf" points="322,-.5 322,-19.5 438,-19.5 438,-.5 322,-.5"/>
<text text-anchor="middle" x="380" y="-7.5" font-family="Helvetica,sans-Serif" font-size="10.00" fill="#000000">deal.II/dofs/dof_tools.h</text>
</g>
<!-- Node8&#45;&gt;Node10 -->
<g id="edge11" class="edge">
<title>Node8&#45;&gt;Node10</title>
<path fill="none" stroke="#191970" d="M478.5432,-56.3733C459.5262,-47.4241 430.9825,-33.9917 409.5024,-23.8835"/>
<polygon fill="#191970" stroke="#191970" points="410.7284,-20.5923 400.1899,-19.5011 407.7478,-26.926 410.7284,-20.5923"/>
</g>
<!-- Node11 -->
<g id="node12" class="node">
<title>Node11</title>
<polygon fill="none" stroke="#bfbfbf" points="456.5,-.5 456.5,-19.5 559.5,-19.5 559.5,-.5 456.5,-.5"/>
<text text-anchor="middle" x="508" y="-7.5" font-family="Helvetica,sans-Serif" font-size="10.00" fill="#000000">deal.II/fe/mapping.h</text>
</g>
<!-- Node8&#45;&gt;Node11 -->
<g id="edge12" class="edge">
<title>Node8&#45;&gt;Node11</title>
<path fill="none" stroke="#191970" d="M500.5677,-56.2455C501.7421,-48.9382 503.3884,-38.6944 504.8332,-29.7046"/>
<polygon fill="#191970" stroke="#191970" points="508.3191,-30.0714 506.4503,-19.6427 501.4078,-28.9606 508.3191,-30.0714"/>
</g>
<!-- Node12 -->
<g id="node13" class="node">
<title>Node12</title>
<polygon fill="none" stroke="#bfbfbf" points="118,-.5 118,-19.5 158,-19.5 158,-.5 118,-.5"/>
<text text-anchor="middle" x="138" y="-7.5" font-family="Helvetica,sans-Serif" font-size="10.00" fill="#000000">utility</text>
</g>
<!-- Node8&#45;&gt;Node12 -->
<g id="edge13" class="edge">
<title>Node8&#45;&gt;Node12</title>
<path fill="none" stroke="#191970" d="M439.2034,-57.8644C355.2893,-46.4289 208.9466,-26.4116 167.9613,-19.4038"/>
<polygon fill="#191970" stroke="#191970" points="168.6158,-15.9656 158.1331,-17.503 167.2865,-22.8382 168.6158,-15.9656"/>
</g>
<!-- Node13 -->
<g id="node14" class="node">
<title>Node13</title>
<polygon fill="none" stroke="#bfbfbf" points="860,-.5 860,-19.5 904,-19.5 904,-.5 860,-.5"/>
<text text-anchor="middle" x="882" y="-7.5" font-family="Helvetica,sans-Serif" font-size="10.00" fill="#000000">vector</text>
</g>
<!-- Node8&#45;&gt;Node13 -->
<g id="edge14" class="edge">
<title>Node8&#45;&gt;Node13</title>
<path fill="none" stroke="#191970" d="M558.8302,-57.264C561.9307,-56.8316 565.0015,-56.408 568,-56 690.4439,-39.3406 725.4788,-47.1573 849.8777,-19.913"/>
<polygon fill="#191970" stroke="#191970" points="850.7828,-23.2973 859.7854,-17.7112 849.2642,-16.464 850.7828,-23.2973"/>
</g>
<!-- Node16 -->
<g id="node17" class="node">
<title>Node16</title>
<g id="a_node17"><a xlink:href="cluster_8h.html" target="_top" xlink:title="Implementation of the class Cluster. ">
<polygon fill="none" stroke="#000000" points="1019,-112.5 1019,-131.5 1073,-131.5 1073,-112.5 1019,-112.5"/>
<text text-anchor="middle" x="1046" y="-119.5" font-family="Helvetica,sans-Serif" font-size="10.00" fill="#000000">cluster.h</text>
</a>
</g>
</g>
<!-- Node15&#45;&gt;Node16 -->
<g id="edge17" class="edge">
<title>Node15&#45;&gt;Node16</title>
<path fill="none" stroke="#191970" d="M628.404,-173.9462C635.3548,-171.7155 642.8974,-169.5435 650,-168 779.9489,-139.7592 937.903,-127.9979 1008.6242,-123.8873"/>
<polygon fill="#191970" stroke="#191970" points="1009.023,-127.3705 1018.8103,-123.3136 1008.6293,-120.3816 1009.023,-127.3705"/>
</g>
<!-- Node20 -->
<g id="node21" class="node">
<title>Node20</title>
<g id="a_node21"><a xlink:href="debug__tools_8h.html" target="_top" xlink:title="This file includes a bunch of helper functions for printing out and visualizing information about gri...">
<polygon fill="none" stroke="#000000" points="576.5,-56.5 576.5,-75.5 653.5,-75.5 653.5,-56.5 576.5,-56.5"/>
<text text-anchor="middle" x="615" y="-63.5" font-family="Helvetica,sans-Serif" font-size="10.00" fill="#000000">debug_tools.h</text>
</a>
</g>
</g>
<!-- Node15&#45;&gt;Node20 -->
<g id="edge23" class="edge">
<title>Node15&#45;&gt;Node20</title>
<path fill="none" stroke="#191970" d="M603.0638,-173.8845C605.1873,-154.6913 609.9896,-111.286 612.8131,-85.7663"/>
<polygon fill="#191970" stroke="#191970" points="616.3005,-86.0726 613.9215,-75.7484 609.3429,-85.3028 616.3005,-86.0726"/>
</g>
<!-- Node25 -->
<g id="node26" class="node">
<title>Node25</title>
<g id="a_node26"><a xlink:href="tree_8h.html" target="_top" xlink:title="Implementation of the classes for binary tree node, general tree node and functions for manipulating ...">
<polygon fill="none" stroke="#000000" points="1036.5,-56.5 1036.5,-75.5 1077.5,-75.5 1077.5,-56.5 1036.5,-56.5"/>
<text text-anchor="middle" x="1057" y="-63.5" font-family="Helvetica,sans-Serif" font-size="10.00" fill="#000000">tree.h</text>
</a>
</g>
</g>
<!-- Node15&#45;&gt;Node25 -->
<g id="edge31" class="edge">
<title>Node15&#45;&gt;Node25</title>
<path fill="none" stroke="#191970" d="M630.5855,-173.9237C636.9519,-171.8876 643.6861,-169.8084 650,-168 789.2607,-128.113 957.7579,-88.6456 1026.0368,-73.0146"/>
<polygon fill="#191970" stroke="#191970" points="1027.1445,-76.3519 1036.1148,-70.7142 1025.5867,-69.5274 1027.1445,-76.3519"/>
</g>
<!-- Node16&#45;&gt;Node8 -->
<g id="edge22" class="edge">
<title>Node16&#45;&gt;Node8</title>
<path fill="none" stroke="#191970" d="M1018.9986,-119.8587C947.4694,-114.0892 746.9627,-97.2869 568.8903,-76.0569"/>
<polygon fill="#191970" stroke="#191970" points="569.1616,-72.5645 558.8158,-74.8481 568.3276,-79.5146 569.1616,-72.5645"/>
</g>
<!-- Node16&#45;&gt;Node13 -->
<g id="edge21" class="edge">
<title>Node16&#45;&gt;Node13</title>
<path fill="none" stroke="#191970" d="M1032.0175,-112.4509C1003.5749,-93.0268 938.7708,-48.7703 904.3882,-25.2895"/>
<polygon fill="#191970" stroke="#191970" points="906.1791,-22.2742 895.9472,-19.5249 902.2313,-28.0549 906.1791,-22.2742"/>
</g>
<!-- Node17 -->
<g id="node18" class="node">
<title>Node17</title>
<polygon fill="none" stroke="#bfbfbf" points="1095.5,-56.5 1095.5,-75.5 1198.5,-75.5 1198.5,-56.5 1095.5,-56.5"/>
<text text-anchor="middle" x="1147" y="-63.5" font-family="Helvetica,sans-Serif" font-size="10.00" fill="#000000">deal.II/base/types.h</text>
</g>
<!-- Node16&#45;&gt;Node17 -->
<g id="edge18" class="edge">
<title>Node16&#45;&gt;Node17</title>
<path fill="none" stroke="#191970" d="M1063.5929,-112.2455C1079.379,-103.4928 1102.7639,-90.527 1120.7587,-80.5496"/>
<polygon fill="#191970" stroke="#191970" points="1122.5603,-83.5528 1129.6087,-75.6427 1119.1659,-77.4308 1122.5603,-83.5528"/>
</g>
<!-- Node18 -->
<g id="node19" class="node">
<title>Node18</title>
<polygon fill="none" stroke="#bfbfbf" points="1402,-.5 1402,-19.5 1458,-19.5 1458,-.5 1402,-.5"/>
<text text-anchor="middle" x="1430" y="-7.5" font-family="Helvetica,sans-Serif" font-size="10.00" fill="#000000">algorithm</text>
</g>
<!-- Node16&#45;&gt;Node18 -->
<g id="edge19" class="edge">
<title>Node16&#45;&gt;Node18</title>
<path fill="none" stroke="#191970" d="M1073.1953,-116.0147C1105.8221,-108.4402 1161.892,-94.1632 1208,-76 1226.1241,-68.8604 1228.754,-62.8221 1247,-56 1306.6654,-33.6914 1326.4439,-36.3934 1391.7582,-20.2345"/>
<polygon fill="#191970" stroke="#191970" points="1392.9004,-23.5559 1401.7354,-17.7084 1391.1822,-16.77 1392.9004,-23.5559"/>
</g>
<!-- Node19 -->
<g id="node20" class="node">
<title>Node19</title>
<polygon fill="none" stroke="#bfbfbf" points="1255.5,-56.5 1255.5,-75.5 1302.5,-75.5 1302.5,-56.5 1255.5,-56.5"/>
<text text-anchor="middle" x="1279" y="-63.5" font-family="Helvetica,sans-Serif" font-size="10.00" fill="#000000">iterator</text>
</g>
<!-- Node16&#45;&gt;Node19 -->
<g id="edge20" class="edge">
<title>Node16&#45;&gt;Node19</title>
<path fill="none" stroke="#191970" d="M1073.1826,-115.8196C1110.9136,-107.188 1181.2644,-90.9031 1241,-76 1242.4479,-75.6388 1243.9258,-75.2663 1245.418,-74.887"/>
<polygon fill="#191970" stroke="#191970" points="1246.4991,-78.2228 1255.3074,-72.3352 1244.75,-71.4448 1246.4991,-78.2228"/>
</g>
<!-- Node20&#45;&gt;Node9 -->
<g id="edge24" class="edge">
<title>Node20&#45;&gt;Node9</title>
<path fill="none" stroke="#191970" d="M576.3134,-57.5436C573.5044,-56.9988 570.7112,-56.4779 568,-56 555.587,-53.8118 406.2734,-33.037 313.438,-20.1661"/>
<polygon fill="#191970" stroke="#191970" points="313.9101,-16.6981 303.5243,-18.7919 312.949,-23.6318 313.9101,-16.6981"/>
</g>
<!-- Node20&#45;&gt;Node10 -->
<g id="edge25" class="edge">
<title>Node20&#45;&gt;Node10</title>
<path fill="none" stroke="#191970" d="M576.4577,-56.8154C536.472,-47.2869 473.7808,-32.3478 430.0037,-21.9158"/>
<polygon fill="#191970" stroke="#191970" points="430.6767,-18.4782 420.1377,-19.5647 429.054,-25.2875 430.6767,-18.4782"/>
</g>
<!-- Node20&#45;&gt;Node11 -->
<g id="edge28" class="edge">
<title>Node20&#45;&gt;Node11</title>
<path fill="none" stroke="#191970" d="M596.362,-56.2455C579.5614,-47.4527 554.6366,-34.4079 535.5382,-24.4125"/>
<polygon fill="#191970" stroke="#191970" points="536.9073,-21.1787 526.4244,-19.6427 533.6614,-27.3807 536.9073,-21.1787"/>
</g>
<!-- Node21 -->
<g id="node22" class="node">
<title>Node21</title>
<polygon fill="none" stroke="#bfbfbf" points="578,-.5 578,-19.5 652,-19.5 652,-.5 578,-.5"/>
<text text-anchor="middle" x="615" y="-7.5" font-family="Helvetica,sans-Serif" font-size="10.00" fill="#000000">deal.II/fe/fe.h</text>
</g>
<!-- Node20&#45;&gt;Node21 -->
<g id="edge26" class="edge">
<title>Node20&#45;&gt;Node21</title>
<path fill="none" stroke="#191970" d="M615,-56.2455C615,-48.9382 615,-38.6944 615,-29.7046"/>
<polygon fill="#191970" stroke="#191970" points="618.5001,-29.6426 615,-19.6427 611.5001,-29.6427 618.5001,-29.6426"/>
</g>
<!-- Node22 -->
<g id="node23" class="node">
<title>Node22</title>
<polygon fill="none" stroke="#bfbfbf" points="670,-.5 670,-19.5 782,-19.5 782,-.5 670,-.5"/>
<text text-anchor="middle" x="726" y="-7.5" font-family="Helvetica,sans-Serif" font-size="10.00" fill="#000000">deal.II/fe/fe_system.h</text>
</g>
<!-- Node20&#45;&gt;Node22 -->
<g id="edge27" class="edge">
<title>Node20&#45;&gt;Node22</title>
<path fill="none" stroke="#191970" d="M634.0816,-56.3733C651.7402,-47.4644 678.2053,-34.1127 698.2098,-24.0203"/>
<polygon fill="#191970" stroke="#191970" points="699.8158,-27.1303 707.1674,-19.5011 696.6628,-20.8806 699.8158,-27.1303"/>
</g>
<!-- Node23 -->
<g id="node24" class="node">
<title>Node23</title>
<polygon fill="none" stroke="#bfbfbf" points="922,-.5 922,-19.5 976,-19.5 976,-.5 922,-.5"/>
<text text-anchor="middle" x="949" y="-7.5" font-family="Helvetica,sans-Serif" font-size="10.00" fill="#000000">iostream</text>
</g>
<!-- Node20&#45;&gt;Node23 -->
<g id="edge29" class="edge">
<title>Node20&#45;&gt;Node23</title>
<path fill="none" stroke="#191970" d="M653.8419,-61.4882C709.1373,-54.7414 813.8538,-40.7701 912.1607,-19.9793"/>
<polygon fill="#191970" stroke="#191970" points="912.9135,-23.3975 921.958,-17.8796 911.4466,-16.5529 912.9135,-23.3975"/>
</g>
<!-- Node24 -->
<g id="node25" class="node">
<title>Node24</title>
<polygon fill="none" stroke="#bfbfbf" points="800.5,-.5 800.5,-19.5 841.5,-19.5 841.5,-.5 800.5,-.5"/>
<text text-anchor="middle" x="821" y="-7.5" font-family="Helvetica,sans-Serif" font-size="10.00" fill="#000000">string</text>
</g>
<!-- Node20&#45;&gt;Node24 -->
<g id="edge30" class="edge">
<title>Node20&#45;&gt;Node24</title>
<path fill="none" stroke="#191970" d="M653.6563,-56.6774C687.3546,-48.3769 737.7375,-35.551 790.5199,-20.0006"/>
<polygon fill="#191970" stroke="#191970" points="791.8106,-23.2684 800.4,-17.0657 789.8173,-16.5582 791.8106,-23.2684"/>
</g>
<!-- Node25&#45;&gt;Node13 -->
<g id="edge39" class="edge">
<title>Node25&#45;&gt;Node13</title>
<path fill="none" stroke="#191970" d="M1036.4863,-59.4672C1010.2414,-51.1049 963.1381,-36.0822 913.6136,-20.1912"/>
<polygon fill="#191970" stroke="#191970" points="914.6042,-16.8333 904.013,-17.1095 912.4647,-23.4984 914.6042,-16.8333"/>
</g>
<!-- Node25&#45;&gt;Node18 -->
<g id="edge33" class="edge">
<title>Node25&#45;&gt;Node18</title>
<path fill="none" stroke="#191970" d="M1077.5006,-58.5512C1080.6526,-57.5855 1083.8921,-56.6931 1087,-56 1217.5219,-26.8909 1256.7117,-45.0359 1391.9148,-19.9562"/>
<polygon fill="#191970" stroke="#191970" points="1392.647,-23.3798 1401.8179,-18.0745 1391.3403,-16.5028 1392.647,-23.3798"/>
</g>
<!-- Node25&#45;&gt;Node23 -->
<g id="edge37" class="edge">
<title>Node25&#45;&gt;Node23</title>
<path fill="none" stroke="#191970" d="M1038.1878,-56.2455C1021.1527,-47.4125 995.8425,-34.2887 976.5319,-24.2758"/>
<polygon fill="#191970" stroke="#191970" points="978.0853,-21.1388 967.5966,-19.6427 974.863,-27.353 978.0853,-21.1388"/>
</g>
<!-- Node26 -->
<g id="node27" class="node">
<title>Node26</title>
<polygon fill="none" stroke="#bfbfbf" points="994,-.5 994,-19.5 1120,-19.5 1120,-.5 994,-.5"/>
<text text-anchor="middle" x="1057" y="-7.5" font-family="Helvetica,sans-Serif" font-size="10.00" fill="#000000">deal.II/base/exceptions.h</text>
</g>
<!-- Node25&#45;&gt;Node26 -->
<g id="edge32" class="edge">
<title>Node25&#45;&gt;Node26</title>
<path fill="none" stroke="#191970" d="M1057,-56.2455C1057,-48.9382 1057,-38.6944 1057,-29.7046"/>
<polygon fill="#191970" stroke="#191970" points="1060.5001,-29.6426 1057,-19.6427 1053.5001,-29.6427 1060.5001,-29.6426"/>
</g>
<!-- Node27 -->
<g id="node28" class="node">
<title>Node27</title>
<polygon fill="none" stroke="#bfbfbf" points="1138,-.5 1138,-19.5 1176,-19.5 1176,-.5 1138,-.5"/>
<text text-anchor="middle" x="1157" y="-7.5" font-family="Helvetica,sans-Serif" font-size="10.00" fill="#000000">array</text>
</g>
<!-- Node25&#45;&gt;Node27 -->
<g id="edge34" class="edge">
<title>Node25&#45;&gt;Node27</title>
<path fill="none" stroke="#191970" d="M1074.4187,-56.2455C1090.0485,-47.4928 1113.2019,-34.527 1131.0185,-24.5496"/>
<polygon fill="#191970" stroke="#191970" points="1132.766,-27.5825 1139.7809,-19.6427 1129.3457,-21.475 1132.766,-27.5825"/>
</g>
<!-- Node28 -->
<g id="node29" class="node">
<title>Node28</title>
<polygon fill="none" stroke="#bfbfbf" points="1194.5,-.5 1194.5,-19.5 1253.5,-19.5 1253.5,-.5 1194.5,-.5"/>
<text text-anchor="middle" x="1224" y="-7.5" font-family="Helvetica,sans-Serif" font-size="10.00" fill="#000000">exception</text>
</g>
<!-- Node25&#45;&gt;Node28 -->
<g id="edge35" class="edge">
<title>Node25&#45;&gt;Node28</title>
<path fill="none" stroke="#191970" d="M1077.813,-59.0208C1104.8704,-49.9477 1152.6229,-33.9348 1186.1702,-22.6855"/>
<polygon fill="#191970" stroke="#191970" points="1187.2876,-26.0024 1195.656,-19.5046 1185.062,-19.3656 1187.2876,-26.0024"/>
</g>
<!-- Node29 -->
<g id="node30" class="node">
<title>Node29</title>
<polygon fill="none" stroke="#bfbfbf" points="1271.5,-.5 1271.5,-19.5 1330.5,-19.5 1330.5,-.5 1271.5,-.5"/>
<text text-anchor="middle" x="1301" y="-7.5" font-family="Helvetica,sans-Serif" font-size="10.00" fill="#000000">functional</text>
</g>
<!-- Node25&#45;&gt;Node29 -->
<g id="edge36" class="edge">
<title>Node25&#45;&gt;Node29</title>
<path fill="none" stroke="#191970" d="M1077.5582,-58.7861C1080.7022,-57.7879 1083.9242,-56.824 1087,-56 1161.1096,-36.1458 1183.5162,-37.9815 1261.3894,-20.2766"/>
<polygon fill="#191970" stroke="#191970" points="1262.2126,-23.6787 1271.1683,-18.0178 1260.6371,-16.8583 1262.2126,-23.6787"/>
</g>
<!-- Node30 -->
<g id="node31" class="node">
<title>Node30</title>
<polygon fill="none" stroke="#bfbfbf" points="1348.5,-.5 1348.5,-19.5 1383.5,-19.5 1383.5,-.5 1348.5,-.5"/>
<text text-anchor="middle" x="1366" y="-7.5" font-family="Helvetica,sans-Serif" font-size="10.00" fill="#000000">new</text>
</g>
<!-- Node25&#45;&gt;Node30 -->
<g id="edge38" class="edge">
<title>Node25&#45;&gt;Node30</title>
<path fill="none" stroke="#191970" d="M1077.516,-58.6187C1080.6659,-57.6437 1083.9007,-56.7307 1087,-56 1194.4153,-30.6741 1228.1694,-47.5483 1338.4315,-19.9547"/>
<polygon fill="#191970" stroke="#191970" points="1339.4567,-23.305 1348.2711,-17.4265 1337.7147,-16.5252 1339.4567,-23.305"/>
</g>
</g>
</svg>
