<?xml version="1.0" encoding="UTF-8" standalone="no"?>
<!DOCTYPE svg PUBLIC "-//W3C//DTD SVG 1.1//EN"
 "http://www.w3.org/Graphics/SVG/1.1/DTD/svg11.dtd">
<!-- Generated by graphviz version 2.40.1 (20161225.0304)
 -->
<!-- Title: /home/jihuan/Projects/deal.ii/program/dealii&#45;9.1.1/examples/laplace&#45;bem/include/debug_tools.h Pages: 1 -->
<svg width="745pt" height="117pt"
 viewBox="0.00 0.00 745.00 117.00" xmlns="http://www.w3.org/2000/svg" xmlns:xlink="http://www.w3.org/1999/xlink">
<g id="graph0" class="graph" transform="scale(1 1) rotate(0) translate(4 113)">
<title>/home/jihuan/Projects/deal.ii/program/dealii&#45;9.1.1/examples/laplace&#45;bem/include/debug_tools.h</title>
<!-- Node0 -->
<g id="node1" class="node">
<title>Node0</title>
<polygon fill="#bfbfbf" stroke="#000000" points="359.5,-56.5 359.5,-108.5 495.5,-108.5 495.5,-56.5 359.5,-56.5"/>
<text text-anchor="start" x="367.5" y="-96.5" font-family="Helvetica,sans-Serif" font-size="10.00" fill="#000000">/home/jihuan/Projects</text>
<text text-anchor="start" x="367.5" y="-85.5" font-family="Helvetica,sans-Serif" font-size="10.00" fill="#000000">/deal.ii/program/dealii</text>
<text text-anchor="start" x="367.5" y="-74.5" font-family="Helvetica,sans-Serif" font-size="10.00" fill="#000000">&#45;9.1.1/examples/laplace</text>
<text text-anchor="middle" x="427.5" y="-63.5" font-family="Helvetica,sans-Serif" font-size="10.00" fill="#000000">&#45;bem/include/debug_tools.h</text>
</g>
<!-- Node1 -->
<g id="node2" class="node">
<title>Node1</title>
<polygon fill="none" stroke="#bfbfbf" points="0,-.5 0,-19.5 127,-19.5 127,-.5 0,-.5"/>
<text text-anchor="middle" x="63.5" y="-7.5" font-family="Helvetica,sans-Serif" font-size="10.00" fill="#000000">deal.II/dofs/dof_handler.h</text>
</g>
<!-- Node0&#45;&gt;Node1 -->
<g id="edge1" class="edge">
<title>Node0&#45;&gt;Node1</title>
<path fill="none" stroke="#191970" d="M359.4614,-68.9484C290.9034,-55.2933 186.2452,-34.4479 121.5013,-21.5525"/>
<polygon fill="#191970" stroke="#191970" points="121.9557,-18.0743 111.4646,-19.5534 120.5883,-24.9394 121.9557,-18.0743"/>
</g>
<!-- Node2 -->
<g id="node3" class="node">
<title>Node2</title>
<polygon fill="none" stroke="#bfbfbf" points="145.5,-.5 145.5,-19.5 261.5,-19.5 261.5,-.5 145.5,-.5"/>
<text text-anchor="middle" x="203.5" y="-7.5" font-family="Helvetica,sans-Serif" font-size="10.00" fill="#000000">deal.II/dofs/dof_tools.h</text>
</g>
<!-- Node0&#45;&gt;Node2 -->
<g id="edge2" class="edge">
<title>Node0&#45;&gt;Node2</title>
<path fill="none" stroke="#191970" d="M359.3803,-60.4523C321.2847,-48.1223 275.1438,-33.1883 242.989,-22.781"/>
<polygon fill="#191970" stroke="#191970" points="243.6604,-19.3196 233.0685,-19.5702 241.5048,-25.9795 243.6604,-19.3196"/>
</g>
<!-- Node3 -->
<g id="node4" class="node">
<title>Node3</title>
<polygon fill="none" stroke="#bfbfbf" points="279.5,-.5 279.5,-19.5 353.5,-19.5 353.5,-.5 279.5,-.5"/>
<text text-anchor="middle" x="316.5" y="-7.5" font-family="Helvetica,sans-Serif" font-size="10.00" fill="#000000">deal.II/fe/fe.h</text>
</g>
<!-- Node0&#45;&gt;Node3 -->
<g id="edge3" class="edge">
<title>Node0&#45;&gt;Node3</title>
<path fill="none" stroke="#191970" d="M387.4265,-56.3258C371.3293,-45.8119 353.3514,-34.0696 339.5232,-25.0377"/>
<polygon fill="#191970" stroke="#191970" points="341.3832,-22.0721 331.0969,-19.534 337.5553,-27.9328 341.3832,-22.0721"/>
</g>
<!-- Node4 -->
<g id="node5" class="node">
<title>Node4</title>
<polygon fill="none" stroke="#bfbfbf" points="371.5,-.5 371.5,-19.5 483.5,-19.5 483.5,-.5 371.5,-.5"/>
<text text-anchor="middle" x="427.5" y="-7.5" font-family="Helvetica,sans-Serif" font-size="10.00" fill="#000000">deal.II/fe/fe_system.h</text>
</g>
<!-- Node0&#45;&gt;Node4 -->
<g id="edge4" class="edge">
<title>Node0&#45;&gt;Node4</title>
<path fill="none" stroke="#191970" d="M427.5,-56.3258C427.5,-47.5142 427.5,-37.8397 427.5,-29.621"/>
<polygon fill="#191970" stroke="#191970" points="431.0001,-29.534 427.5,-19.534 424.0001,-29.534 431.0001,-29.534"/>
</g>
<!-- Node5 -->
<g id="node6" class="node">
<title>Node5</title>
<polygon fill="none" stroke="#bfbfbf" points="502,-.5 502,-19.5 605,-19.5 605,-.5 502,-.5"/>
<text text-anchor="middle" x="553.5" y="-7.5" font-family="Helvetica,sans-Serif" font-size="10.00" fill="#000000">deal.II/fe/mapping.h</text>
</g>
<!-- Node0&#45;&gt;Node5 -->
<g id="edge5" class="edge">
<title>Node0&#45;&gt;Node5</title>
<path fill="none" stroke="#191970" d="M472.9889,-56.3258C491.6094,-45.6116 512.4469,-33.6218 528.2573,-24.5246"/>
<polygon fill="#191970" stroke="#191970" points="530.0085,-27.555 536.9306,-19.534 526.5174,-21.4877 530.0085,-27.555"/>
</g>
<!-- Node6 -->
<g id="node7" class="node">
<title>Node6</title>
<polygon fill="none" stroke="#bfbfbf" points="623.5,-.5 623.5,-19.5 677.5,-19.5 677.5,-.5 623.5,-.5"/>
<text text-anchor="middle" x="650.5" y="-7.5" font-family="Helvetica,sans-Serif" font-size="10.00" fill="#000000">iostream</text>
</g>
<!-- Node0&#45;&gt;Node6 -->
<g id="edge6" class="edge">
<title>Node0&#45;&gt;Node6</title>
<path fill="none" stroke="#191970" d="M495.6191,-60.3537C534.4532,-47.7282 581.6052,-32.3985 613.6065,-21.9945"/>
<polygon fill="#191970" stroke="#191970" points="615.0065,-25.2198 623.4344,-18.7994 612.8422,-18.5627 615.0065,-25.2198"/>
</g>
<!-- Node7 -->
<g id="node8" class="node">
<title>Node7</title>
<polygon fill="none" stroke="#bfbfbf" points="696,-.5 696,-19.5 737,-19.5 737,-.5 696,-.5"/>
<text text-anchor="middle" x="716.5" y="-7.5" font-family="Helvetica,sans-Serif" font-size="10.00" fill="#000000">string</text>
</g>
<!-- Node0&#45;&gt;Node7 -->
<g id="edge7" class="edge">
<title>Node0&#45;&gt;Node7</title>
<path fill="none" stroke="#191970" d="M495.5336,-67.7445C545.6552,-56.4917 615.6239,-39.9886 685.9861,-19.9659"/>
<polygon fill="#191970" stroke="#191970" points="687.268,-23.2394 695.9151,-17.1175 685.3376,-16.5108 687.268,-23.2394"/>
</g>
</g>
</svg>
