<?xml version="1.0" encoding="UTF-8" standalone="no"?>
<!DOCTYPE svg PUBLIC "-//W3C//DTD SVG 1.1//EN"
 "http://www.w3.org/Graphics/SVG/1.1/DTD/svg11.dtd">
<!-- Generated by graphviz version 2.40.1 (20161225.0304)
 -->
<!-- Title: /home/jihuan/Projects/deal.ii/program/dealii&#45;9.1.1/examples/laplace&#45;bem/tests/lapack&#45;matrix&#45;delete&#45;rows&#45;and&#45;columns/delete&#45;rows&#45;and&#45;columns.cc Pages: 1 -->
<!--zoomable 340 -->
<svg id="main" version="1.1" xmlns="http://www.w3.org/2000/svg" xmlns:xlink="http://www.w3.org/1999/xlink" xml:space="preserve" onload="init(evt)">
<style type="text/css"><![CDATA[
.edge:hover path { stroke: red; }
.edge:hover polygon { stroke: red; fill: red; }
]]></style>
<script type="text/javascript"><![CDATA[
var edges = document.getElementsByTagName('g');
if (edges && edges.length) {
  for (var i=0;i<edges.length;i++) {
    if (edges[i].id.substr(0,4)=='edge') {
      edges[i].setAttribute('class','edge');
    }
  }
}
]]></script>
        <defs>
                <circle id="rim" cx="0" cy="0" r="7"/>
                <circle id="rim2" cx="0" cy="0" r="3.5"/>
                <g id="zoomPlus">
                        <use xlink:href="#rim" fill="#404040">
                                <set attributeName="fill" to="#808080" begin="zoomplus.mouseover" end="zoomplus.mouseout"/>
                        </use>
                        <path d="M-4,0h8M0,-4v8" fill="none" stroke="white" stroke-width="1.5" pointer-events="none"/>
                </g>
                <g id="zoomMin">
                        <use xlink:href="#rim" fill="#404040">
                                <set attributeName="fill" to="#808080" begin="zoomminus.mouseover" end="zoomminus.mouseout"/>
                        </use>
                        <path d="M-4,0h8" fill="none" stroke="white" stroke-width="1.5" pointer-events="none"/>
                </g>
                <g id="dirArrow">
                        <path fill="none" stroke="white" stroke-width="1.5" d="M0,-3.0v7 M-2.5,-0.5L0,-3.0L2.5,-0.5"/>
                </g>
               <g id="resetDef">
                       <use xlink:href="#rim2" fill="#404040">
                               <set attributeName="fill" to="#808080" begin="reset.mouseover" end="reset.mouseout"/>
                       </use>
               </g>
        </defs>

<script type="text/javascript">
var viewWidth = 1693;
var viewHeight = 340;
var sectionId = 'dynsection-0';
</script>
<script xlink:href="svgpan.js"/>
<svg id="graph" class="graph">
<g id="viewport">
<title>/home/jihuan/Projects/deal.ii/program/dealii&#45;9.1.1/examples/laplace&#45;bem/tests/lapack&#45;matrix&#45;delete&#45;rows&#45;and&#45;columns/delete&#45;rows&#45;and&#45;columns.cc</title>
<!-- Node0 -->
<g id="node1" class="node">
<title>Node0</title>
<polygon fill="#bfbfbf" stroke="#000000" points="687,-257.5 687,-331.5 829,-331.5 829,-257.5 687,-257.5"/>
<text text-anchor="start" x="695" y="-319.5" font-family="Helvetica,sans-Serif" font-size="10.00" fill="#000000">/home/jihuan/Projects</text>
<text text-anchor="start" x="695" y="-308.5" font-family="Helvetica,sans-Serif" font-size="10.00" fill="#000000">/deal.ii/program/dealii</text>
<text text-anchor="start" x="695" y="-297.5" font-family="Helvetica,sans-Serif" font-size="10.00" fill="#000000">&#45;9.1.1/examples/laplace</text>
<text text-anchor="start" x="695" y="-286.5" font-family="Helvetica,sans-Serif" font-size="10.00" fill="#000000">&#45;bem/tests/lapack&#45;matrix</text>
<text text-anchor="start" x="695" y="-275.5" font-family="Helvetica,sans-Serif" font-size="10.00" fill="#000000">&#45;delete&#45;rows&#45;and&#45;columns</text>
<text text-anchor="middle" x="758" y="-264.5" font-family="Helvetica,sans-Serif" font-size="10.00" fill="#000000">/delete&#45;rows&#45;and&#45;columns.cc</text>
</g>
<!-- Node1 -->
<g id="node2" class="node">
<title>Node1</title>
<g id="a_node2"><a xlink:href="debug__tools_8h.html" target="_top" xlink:title="This file includes a bunch of helper functions for printing out and visualizing information about gri...">
<polygon fill="none" stroke="#000000" points="419.5,-196 419.5,-215 496.5,-215 496.5,-196 419.5,-196"/>
<text text-anchor="middle" x="458" y="-203" font-family="Helvetica,sans-Serif" font-size="10.00" fill="#000000">debug_tools.h</text>
</a>
</g>
</g>
<!-- Node0&#45;&gt;Node1 -->
<g id="edge1" class="edge">
<title>Node0&#45;&gt;Node1</title>
<path fill="none" stroke="#191970" d="M686.9042,-273.4082C628.6693,-256.1319 548.2532,-232.2751 499.8705,-217.9216"/>
<polygon fill="#191970" stroke="#191970" points="500.6344,-214.4975 490.0519,-215.0087 498.6435,-221.2084 500.6344,-214.4975"/>
</g>
<!-- Node9 -->
<g id="node10" class="node">
<title>Node9</title>
<g id="a_node10"><a xlink:href="lapack__full__matrix__ext_8h_source.html" target="_top" xlink:title="lapack_full_matrix\l_ext.h">
<polygon fill="none" stroke="#000000" points="1173.5,-190.5 1173.5,-220.5 1268.5,-220.5 1268.5,-190.5 1173.5,-190.5"/>
<text text-anchor="start" x="1181.5" y="-208.5" font-family="Helvetica,sans-Serif" font-size="10.00" fill="#000000">lapack_full_matrix</text>
<text text-anchor="middle" x="1221" y="-197.5" font-family="Helvetica,sans-Serif" font-size="10.00" fill="#000000">_ext.h</text>
</a>
</g>
</g>
<!-- Node0&#45;&gt;Node9 -->
<g id="edge9" class="edge">
<title>Node0&#45;&gt;Node9</title>
<path fill="none" stroke="#191970" d="M829.0762,-280.8374C920.7879,-263.2082 1078.5837,-232.8759 1163.2764,-216.5959"/>
<polygon fill="#191970" stroke="#191970" points="1164.0735,-220.0068 1173.233,-214.682 1162.752,-213.1327 1164.0735,-220.0068"/>
</g>
<!-- Node2 -->
<g id="node3" class="node">
<title>Node2</title>
<polygon fill="none" stroke="#bfbfbf" points="324.5,-134.5 324.5,-153.5 451.5,-153.5 451.5,-134.5 324.5,-134.5"/>
<text text-anchor="middle" x="388" y="-141.5" font-family="Helvetica,sans-Serif" font-size="10.00" fill="#000000">deal.II/dofs/dof_handler.h</text>
</g>
<!-- Node1&#45;&gt;Node2 -->
<g id="edge2" class="edge">
<title>Node1&#45;&gt;Node2</title>
<path fill="none" stroke="#191970" d="M447.0625,-195.8906C436.338,-186.4683 419.7713,-171.9134 406.9099,-160.6137"/>
<polygon fill="#191970" stroke="#191970" points="408.9143,-157.7158 399.0917,-153.7449 404.2941,-162.9745 408.9143,-157.7158"/>
</g>
<!-- Node3 -->
<g id="node4" class="node">
<title>Node3</title>
<polygon fill="none" stroke="#bfbfbf" points="470,-134.5 470,-153.5 586,-153.5 586,-134.5 470,-134.5"/>
<text text-anchor="middle" x="528" y="-141.5" font-family="Helvetica,sans-Serif" font-size="10.00" fill="#000000">deal.II/dofs/dof_tools.h</text>
</g>
<!-- Node1&#45;&gt;Node3 -->
<g id="edge3" class="edge">
<title>Node1&#45;&gt;Node3</title>
<path fill="none" stroke="#191970" d="M468.9375,-195.8906C479.662,-186.4683 496.2287,-171.9134 509.0901,-160.6137"/>
<polygon fill="#191970" stroke="#191970" points="511.7059,-162.9745 516.9083,-153.7449 507.0857,-157.7158 511.7059,-162.9745"/>
</g>
<!-- Node4 -->
<g id="node5" class="node">
<title>Node4</title>
<polygon fill="none" stroke="#bfbfbf" points="604,-134.5 604,-153.5 678,-153.5 678,-134.5 604,-134.5"/>
<text text-anchor="middle" x="641" y="-141.5" font-family="Helvetica,sans-Serif" font-size="10.00" fill="#000000">deal.II/fe/fe.h</text>
</g>
<!-- Node1&#45;&gt;Node4 -->
<g id="edge4" class="edge">
<title>Node1&#45;&gt;Node4</title>
<path fill="none" stroke="#191970" d="M486.5938,-195.8906C517.8845,-185.3749 568.1986,-168.466 602.84,-156.8243"/>
<polygon fill="#191970" stroke="#191970" points="604.243,-160.0452 612.607,-153.5419 602.013,-153.4099 604.243,-160.0452"/>
</g>
<!-- Node5 -->
<g id="node6" class="node">
<title>Node5</title>
<polygon fill="none" stroke="#bfbfbf" points="0,-134.5 0,-153.5 112,-153.5 112,-134.5 0,-134.5"/>
<text text-anchor="middle" x="56" y="-141.5" font-family="Helvetica,sans-Serif" font-size="10.00" fill="#000000">deal.II/fe/fe_system.h</text>
</g>
<!-- Node1&#45;&gt;Node5 -->
<g id="edge5" class="edge">
<title>Node1&#45;&gt;Node5</title>
<path fill="none" stroke="#191970" d="M419.3338,-199.604C358.4548,-190.318 236.2584,-171.6678 121.9888,-154.1505"/>
<polygon fill="#191970" stroke="#191970" points="122.4342,-150.678 112.0193,-152.622 121.3733,-157.5971 122.4342,-150.678"/>
</g>
<!-- Node6 -->
<g id="node7" class="node">
<title>Node6</title>
<polygon fill="none" stroke="#bfbfbf" points="130.5,-134.5 130.5,-153.5 233.5,-153.5 233.5,-134.5 130.5,-134.5"/>
<text text-anchor="middle" x="182" y="-141.5" font-family="Helvetica,sans-Serif" font-size="10.00" fill="#000000">deal.II/fe/mapping.h</text>
</g>
<!-- Node1&#45;&gt;Node6 -->
<g id="edge6" class="edge">
<title>Node1&#45;&gt;Node6</title>
<path fill="none" stroke="#191970" d="M419.3328,-196.8839C371.2484,-186.1695 288.9361,-167.8282 234.9992,-155.8096"/>
<polygon fill="#191970" stroke="#191970" points="235.4628,-152.3271 224.941,-153.5684 233.9403,-159.1596 235.4628,-152.3271"/>
</g>
<!-- Node7 -->
<g id="node8" class="node">
<title>Node7</title>
<polygon fill="none" stroke="#bfbfbf" points="252,-134.5 252,-153.5 306,-153.5 306,-134.5 252,-134.5"/>
<text text-anchor="middle" x="279" y="-141.5" font-family="Helvetica,sans-Serif" font-size="10.00" fill="#000000">iostream</text>
</g>
<!-- Node1&#45;&gt;Node7 -->
<g id="edge7" class="edge">
<title>Node1&#45;&gt;Node7</title>
<path fill="none" stroke="#191970" d="M430.0313,-195.8906C399.2455,-185.3134 349.6339,-168.2681 315.7331,-156.6206"/>
<polygon fill="#191970" stroke="#191970" points="316.7809,-153.2798 306.1862,-153.3405 314.5063,-159.9 316.7809,-153.2798"/>
</g>
<!-- Node8 -->
<g id="node9" class="node">
<title>Node8</title>
<polygon fill="none" stroke="#bfbfbf" points="696.5,-134.5 696.5,-153.5 737.5,-153.5 737.5,-134.5 696.5,-134.5"/>
<text text-anchor="middle" x="717" y="-141.5" font-family="Helvetica,sans-Serif" font-size="10.00" fill="#000000">string</text>
</g>
<!-- Node1&#45;&gt;Node8 -->
<g id="edge8" class="edge">
<title>Node1&#45;&gt;Node8</title>
<path fill="none" stroke="#191970" d="M496.7872,-198.0166C540.6038,-189.29 614.184,-173.8158 686.6728,-153.8732"/>
<polygon fill="#191970" stroke="#191970" points="687.7307,-157.2119 696.4272,-151.1603 685.855,-150.4679 687.7307,-157.2119"/>
</g>
<!-- Node9&#45;&gt;Node8 -->
<g id="edge14" class="edge">
<title>Node9&#45;&gt;Node8</title>
<path fill="none" stroke="#191970" d="M1173.3674,-203.6862C1089.0914,-199.7511 908.2679,-188.0458 747.8685,-153.7564"/>
<polygon fill="#191970" stroke="#191970" points="748.3368,-150.2766 737.8215,-151.5728 746.8501,-157.1169 748.3368,-150.2766"/>
</g>
<!-- Node10 -->
<g id="node11" class="node">
<title>Node10</title>
<polygon fill="none" stroke="#bfbfbf" points="1233,-134.5 1233,-153.5 1273,-153.5 1273,-134.5 1233,-134.5"/>
<text text-anchor="middle" x="1253" y="-141.5" font-family="Helvetica,sans-Serif" font-size="10.00" fill="#000000">limits</text>
</g>
<!-- Node9&#45;&gt;Node10 -->
<g id="edge10" class="edge">
<title>Node9&#45;&gt;Node10</title>
<path fill="none" stroke="#191970" d="M1228.9101,-190.2977C1233.2132,-182.0277 1238.5758,-171.7215 1243.1482,-162.9339"/>
<polygon fill="#191970" stroke="#191970" points="1246.3654,-164.3335 1247.8764,-153.8469 1240.1557,-161.1024 1246.3654,-164.3335"/>
</g>
<!-- Node11 -->
<g id="node12" class="node">
<title>Node11</title>
<polygon fill="none" stroke="#bfbfbf" points="1283.5,-73 1283.5,-92 1318.5,-92 1318.5,-73 1283.5,-73"/>
<text text-anchor="middle" x="1301" y="-80" font-family="Helvetica,sans-Serif" font-size="10.00" fill="#000000">map</text>
</g>
<!-- Node9&#45;&gt;Node11 -->
<g id="edge11" class="edge">
<title>Node9&#45;&gt;Node11</title>
<path fill="none" stroke="#191970" d="M1245.2888,-190.3419C1257.9678,-181.2568 1272.7286,-168.6352 1282,-154 1291.9687,-138.264 1296.7404,-117.4096 1299.0042,-102.2867"/>
<polygon fill="#191970" stroke="#191970" points="1302.5202,-102.3767 1300.2909,-92.0191 1295.5745,-101.5062 1302.5202,-102.3767"/>
</g>
<!-- Node12 -->
<g id="node13" class="node">
<title>Node12</title>
<polygon fill="none" stroke="#bfbfbf" points="1103.5,-134.5 1103.5,-153.5 1144.5,-153.5 1144.5,-134.5 1103.5,-134.5"/>
<text text-anchor="middle" x="1124" y="-141.5" font-family="Helvetica,sans-Serif" font-size="10.00" fill="#000000">regex</text>
</g>
<!-- Node9&#45;&gt;Node12 -->
<g id="edge12" class="edge">
<title>Node9&#45;&gt;Node12</title>
<path fill="none" stroke="#191970" d="M1197.0225,-190.2977C1182.0624,-180.8127 1162.878,-168.6495 1147.9274,-159.1705"/>
<polygon fill="#191970" stroke="#191970" points="1149.561,-156.062 1139.2413,-153.6633 1145.8127,-161.9739 1149.561,-156.062"/>
</g>
<!-- Node13 -->
<g id="node14" class="node">
<title>Node13</title>
<polygon fill="none" stroke="#bfbfbf" points="1163,-134.5 1163,-153.5 1215,-153.5 1215,-134.5 1163,-134.5"/>
<text text-anchor="middle" x="1189" y="-141.5" font-family="Helvetica,sans-Serif" font-size="10.00" fill="#000000">sstream</text>
</g>
<!-- Node9&#45;&gt;Node13 -->
<g id="edge13" class="edge">
<title>Node9&#45;&gt;Node13</title>
<path fill="none" stroke="#191970" d="M1213.0899,-190.2977C1208.7868,-182.0277 1203.4242,-171.7215 1198.8518,-162.9339"/>
<polygon fill="#191970" stroke="#191970" points="1201.8443,-161.1024 1194.1236,-153.8469 1195.6346,-164.3335 1201.8443,-161.1024"/>
</g>
<!-- Node14 -->
<g id="node15" class="node">
<title>Node14</title>
<polygon fill="none" stroke="#bfbfbf" points="1497,-73 1497,-92 1541,-92 1541,-73 1497,-73"/>
<text text-anchor="middle" x="1519" y="-80" font-family="Helvetica,sans-Serif" font-size="10.00" fill="#000000">vector</text>
</g>
<!-- Node9&#45;&gt;Node14 -->
<g id="edge15" class="edge">
<title>Node9&#45;&gt;Node14</title>
<path fill="none" stroke="#191970" d="M1268.6265,-199.0171C1328.8077,-190.1845 1428.3616,-173.2484 1460,-154 1481.3777,-140.9941 1498.5518,-117.4113 1508.7425,-100.8973"/>
<polygon fill="#191970" stroke="#191970" points="1511.851,-102.5163 1513.9147,-92.1244 1505.8209,-98.9612 1511.851,-102.5163"/>
</g>
<!-- Node15 -->
<g id="node16" class="node">
<title>Node15</title>
<g id="a_node16"><a xlink:href="general__exceptions_8h.html" target="_top" xlink:title="Definition of self&#45;defined general exceptions. ">
<polygon fill="none" stroke="#000000" points="1547.5,-134.5 1547.5,-153.5 1656.5,-153.5 1656.5,-134.5 1547.5,-134.5"/>
<text text-anchor="middle" x="1602" y="-141.5" font-family="Helvetica,sans-Serif" font-size="10.00" fill="#000000">general_exceptions.h</text>
</a>
</g>
</g>
<!-- Node9&#45;&gt;Node15 -->
<g id="edge16" class="edge">
<title>Node9&#45;&gt;Node15</title>
<path fill="none" stroke="#191970" d="M1268.8681,-197.7733C1336.7701,-186.8127 1461.2419,-166.7208 1537.3093,-154.4422"/>
<polygon fill="#191970" stroke="#191970" points="1537.9384,-157.886 1547.2528,-152.8371 1536.8228,-150.9755 1537.9384,-157.886"/>
</g>
<!-- Node17 -->
<g id="node18" class="node">
<title>Node17</title>
<g id="a_node18"><a xlink:href="generic__functors_8h.html" target="_top" xlink:title="This header file contains a set of self&#45;defined generic functors. ">
<polygon fill="none" stroke="#000000" points="1353.5,-134.5 1353.5,-153.5 1450.5,-153.5 1450.5,-134.5 1353.5,-134.5"/>
<text text-anchor="middle" x="1402" y="-141.5" font-family="Helvetica,sans-Serif" font-size="10.00" fill="#000000">generic_functors.h</text>
</a>
</g>
</g>
<!-- Node9&#45;&gt;Node17 -->
<g id="edge18" class="edge">
<title>Node9&#45;&gt;Node17</title>
<path fill="none" stroke="#191970" d="M1265.2776,-190.4554C1295.6104,-180.149 1335.4129,-166.6249 1364.2444,-156.8286"/>
<polygon fill="#191970" stroke="#191970" points="1365.6091,-160.0615 1373.9514,-153.5303 1363.357,-153.4336 1365.6091,-160.0615"/>
</g>
<!-- Node20 -->
<g id="node21" class="node">
<title>Node20</title>
<g id="a_node21"><a xlink:href="lapack__helpers_8h.html" target="_top" xlink:title="Exposes LAPACK helper functions defined in lapack_full_matrix.cc and define new ones by following the...">
<polygon fill="none" stroke="#000000" points="756,-134.5 756,-153.5 846,-153.5 846,-134.5 756,-134.5"/>
<text text-anchor="middle" x="801" y="-141.5" font-family="Helvetica,sans-Serif" font-size="10.00" fill="#000000">lapack_helpers.h</text>
</a>
</g>
</g>
<!-- Node9&#45;&gt;Node20 -->
<g id="edge24" class="edge">
<title>Node9&#45;&gt;Node20</title>
<path fill="none" stroke="#191970" d="M1173.2296,-198.505C1094.7996,-187.0207 939.1785,-164.2333 856.1714,-152.0787"/>
<polygon fill="#191970" stroke="#191970" points="856.5764,-148.6007 846.1748,-150.6149 855.5621,-155.5269 856.5764,-148.6007"/>
</g>
<!-- Node16 -->
<g id="node17" class="node">
<title>Node16</title>
<polygon fill="none" stroke="#bfbfbf" points="1559,-73 1559,-92 1685,-92 1685,-73 1559,-73"/>
<text text-anchor="middle" x="1622" y="-80" font-family="Helvetica,sans-Serif" font-size="10.00" fill="#000000">deal.II/base/exceptions.h</text>
</g>
<!-- Node15&#45;&gt;Node16 -->
<g id="edge17" class="edge">
<title>Node15&#45;&gt;Node16</title>
<path fill="none" stroke="#191970" d="M1605.125,-134.3906C1607.9265,-125.776 1612.1233,-112.8708 1615.6306,-102.0858"/>
<polygon fill="#191970" stroke="#191970" points="1619.0667,-102.8371 1618.8309,-92.2449 1612.4098,-100.6722 1619.0667,-102.8371"/>
</g>
<!-- Node17&#45;&gt;Node11 -->
<g id="edge22" class="edge">
<title>Node17&#45;&gt;Node11</title>
<path fill="none" stroke="#191970" d="M1386.2188,-134.3906C1369.9125,-124.4616 1344.246,-108.833 1325.3386,-97.3201"/>
<polygon fill="#191970" stroke="#191970" points="1327.0319,-94.2533 1316.6704,-92.0419 1323.3913,-100.2322 1327.0319,-94.2533"/>
</g>
<!-- Node17&#45;&gt;Node14 -->
<g id="edge23" class="edge">
<title>Node17&#45;&gt;Node14</title>
<path fill="none" stroke="#191970" d="M1420.2813,-134.3906C1439.5141,-124.2811 1469.9879,-108.2628 1491.9925,-96.6962"/>
<polygon fill="#191970" stroke="#191970" points="1493.624,-99.7928 1500.8471,-92.0419 1490.367,-93.5967 1493.624,-99.7928"/>
</g>
<!-- Node17&#45;&gt;Node16 -->
<g id="edge19" class="edge">
<title>Node17&#45;&gt;Node16</title>
<path fill="none" stroke="#191970" d="M1436.375,-134.3906C1474.5573,-123.7169 1536.3016,-106.4566 1577.9884,-94.8033"/>
<polygon fill="#191970" stroke="#191970" points="1579.1779,-98.105 1587.8664,-92.0419 1577.2933,-91.3634 1579.1779,-98.105"/>
</g>
<!-- Node18 -->
<g id="node19" class="node">
<title>Node18</title>
<polygon fill="none" stroke="#bfbfbf" points="1375.5,-73 1375.5,-92 1478.5,-92 1478.5,-73 1375.5,-73"/>
<text text-anchor="middle" x="1427" y="-80" font-family="Helvetica,sans-Serif" font-size="10.00" fill="#000000">deal.II/base/types.h</text>
</g>
<!-- Node17&#45;&gt;Node18 -->
<g id="edge20" class="edge">
<title>Node17&#45;&gt;Node18</title>
<path fill="none" stroke="#191970" d="M1405.9063,-134.3906C1409.4446,-125.6862 1414.7636,-112.6015 1419.175,-101.7494"/>
<polygon fill="#191970" stroke="#191970" points="1422.5152,-102.8268 1423.0387,-92.2449 1416.0305,-100.1907 1422.5152,-102.8268"/>
</g>
<!-- Node19 -->
<g id="node20" class="node">
<title>Node19</title>
<polygon fill="none" stroke="#bfbfbf" points="1159.5,-.5 1159.5,-30.5 1250.5,-30.5 1250.5,-.5 1159.5,-.5"/>
<text text-anchor="start" x="1167.5" y="-18.5" font-family="Helvetica,sans-Serif" font-size="10.00" fill="#000000">deal.II/lac/lapack</text>
<text text-anchor="middle" x="1205" y="-7.5" font-family="Helvetica,sans-Serif" font-size="10.00" fill="#000000">_support.h</text>
</g>
<!-- Node17&#45;&gt;Node19 -->
<g id="edge21" class="edge">
<title>Node17&#45;&gt;Node19</title>
<path fill="none" stroke="#191970" d="M1394.8076,-134.2504C1382.6199,-118.3104 1356.4448,-86.4974 1328,-67 1307.4574,-52.9191 1282.4588,-41.578 1260.377,-33.1607"/>
<polygon fill="#191970" stroke="#191970" points="1261.3827,-29.801 1250.7894,-29.6165 1258.9555,-36.3667 1261.3827,-29.801"/>
</g>
<!-- Node20&#45;&gt;Node19 -->
<g id="edge30" class="edge">
<title>Node20&#45;&gt;Node19</title>
<path fill="none" stroke="#191970" d="M755.7491,-135.2884C752.4571,-134.8034 749.1817,-134.3658 746,-134 705.4955,-129.3434 41.1137,-127.5283 13,-98 3.4996,-88.0215 3.4702,-76.9504 13,-67 52.7295,-25.5169 918.7156,-17.2563 1149.1151,-15.7903"/>
<polygon fill="#191970" stroke="#191970" points="1149.3046,-19.2893 1159.2827,-15.7275 1149.2612,-12.2895 1149.3046,-19.2893"/>
</g>
<!-- Node21 -->
<g id="node22" class="node">
<title>Node21</title>
<polygon fill="none" stroke="#bfbfbf" points="258,-73 258,-92 374,-92 374,-73 258,-73"/>
<text text-anchor="middle" x="316" y="-80" font-family="Helvetica,sans-Serif" font-size="10.00" fill="#000000">deal.II/base/numbers.h</text>
</g>
<!-- Node20&#45;&gt;Node21 -->
<g id="edge25" class="edge">
<title>Node20&#45;&gt;Node21</title>
<path fill="none" stroke="#191970" d="M755.7262,-135.4683C752.4395,-134.9412 749.1717,-134.4449 746,-134 585.4468,-111.4807 542.9732,-124.325 383,-98 376.6605,-96.9568 370.0257,-95.6673 363.4999,-94.2811"/>
<polygon fill="#191970" stroke="#191970" points="363.9129,-90.7879 353.3929,-92.0447 362.4005,-97.6226 363.9129,-90.7879"/>
</g>
<!-- Node22 -->
<g id="node23" class="node">
<title>Node22</title>
<polygon fill="none" stroke="#bfbfbf" points="392,-67.5 392,-97.5 520,-97.5 520,-67.5 392,-67.5"/>
<text text-anchor="start" x="400" y="-85.5" font-family="Helvetica,sans-Serif" font-size="10.00" fill="#000000">deal.II/lac/blas_extension</text>
<text text-anchor="middle" x="456" y="-74.5" font-family="Helvetica,sans-Serif" font-size="10.00" fill="#000000">_templates.h</text>
</g>
<!-- Node20&#45;&gt;Node22 -->
<g id="edge26" class="edge">
<title>Node20&#45;&gt;Node22</title>
<path fill="none" stroke="#191970" d="M755.9871,-135.7574C752.6086,-135.1566 749.251,-134.5652 746,-134 652.786,-117.795 626.723,-116.2442 529.9675,-98.1369"/>
<polygon fill="#191970" stroke="#191970" points="530.5364,-94.6826 520.0614,-96.2717 529.2411,-101.5617 530.5364,-94.6826"/>
</g>
<!-- Node23 -->
<g id="node24" class="node">
<title>Node23</title>
<polygon fill="none" stroke="#bfbfbf" points="538,-73 538,-92 664,-92 664,-73 538,-73"/>
<text text-anchor="middle" x="601" y="-80" font-family="Helvetica,sans-Serif" font-size="10.00" fill="#000000">deal.II/lac/block_vector.h</text>
</g>
<!-- Node20&#45;&gt;Node23 -->
<g id="edge27" class="edge">
<title>Node20&#45;&gt;Node23</title>
<path fill="none" stroke="#191970" d="M769.75,-134.3906C735.2589,-123.7846 679.6188,-106.6753 641.7338,-95.0257"/>
<polygon fill="#191970" stroke="#191970" points="642.6176,-91.6357 632.0306,-92.0419 640.5601,-98.3266 642.6176,-91.6357"/>
</g>
<!-- Node24 -->
<g id="node25" class="node">
<title>Node24</title>
<polygon fill="none" stroke="#bfbfbf" points="682,-73 682,-92 798,-92 798,-73 682,-73"/>
<text text-anchor="middle" x="740" y="-80" font-family="Helvetica,sans-Serif" font-size="10.00" fill="#000000">deal.II/lac/full_matrix.h</text>
</g>
<!-- Node20&#45;&gt;Node24 -->
<g id="edge28" class="edge">
<title>Node20&#45;&gt;Node24</title>
<path fill="none" stroke="#191970" d="M791.4688,-134.3906C782.2121,-125.0581 767.961,-110.6902 756.7997,-99.4374"/>
<polygon fill="#191970" stroke="#191970" points="759.1928,-96.88 749.6656,-92.2449 754.2228,-101.8095 759.1928,-96.88"/>
</g>
<!-- Node25 -->
<g id="node26" class="node">
<title>Node25</title>
<polygon fill="none" stroke="#bfbfbf" points="816.5,-67.5 816.5,-97.5 907.5,-97.5 907.5,-67.5 816.5,-67.5"/>
<text text-anchor="start" x="824.5" y="-85.5" font-family="Helvetica,sans-Serif" font-size="10.00" fill="#000000">deal.II/lac/lapack</text>
<text text-anchor="middle" x="862" y="-74.5" font-family="Helvetica,sans-Serif" font-size="10.00" fill="#000000">_full_matrix.h</text>
</g>
<!-- Node20&#45;&gt;Node25 -->
<g id="edge29" class="edge">
<title>Node20&#45;&gt;Node25</title>
<path fill="none" stroke="#191970" d="M810.5313,-134.3906C818.4047,-126.4527 829.8913,-114.8718 840.0167,-104.6635"/>
<polygon fill="#191970" stroke="#191970" points="842.5205,-107.1093 847.0777,-97.5446 837.5506,-102.1797 842.5205,-107.1093"/>
</g>
<!-- Node26 -->
<g id="node27" class="node">
<title>Node26</title>
<polygon fill="none" stroke="#bfbfbf" points="925.5,-67.5 925.5,-97.5 1016.5,-97.5 1016.5,-67.5 925.5,-67.5"/>
<text text-anchor="start" x="933.5" y="-85.5" font-family="Helvetica,sans-Serif" font-size="10.00" fill="#000000">deal.II/lac/lapack</text>
<text text-anchor="middle" x="971" y="-74.5" font-family="Helvetica,sans-Serif" font-size="10.00" fill="#000000">_templates.h</text>
</g>
<!-- Node20&#45;&gt;Node26 -->
<g id="edge31" class="edge">
<title>Node20&#45;&gt;Node26</title>
<path fill="none" stroke="#191970" d="M827.5625,-134.3906C852.1677,-125.4893 889.4351,-112.0073 919.8161,-101.0165"/>
<polygon fill="#191970" stroke="#191970" points="921.2004,-104.2378 929.4133,-97.5446 918.8191,-97.6553 921.2004,-104.2378"/>
</g>
<!-- Node27 -->
<g id="node28" class="node">
<title>Node27</title>
<polygon fill="none" stroke="#bfbfbf" points="1035,-67.5 1035,-97.5 1127,-97.5 1127,-67.5 1035,-67.5"/>
<text text-anchor="start" x="1043" y="-85.5" font-family="Helvetica,sans-Serif" font-size="10.00" fill="#000000">deal.II/lac/sparse</text>
<text text-anchor="middle" x="1081" y="-74.5" font-family="Helvetica,sans-Serif" font-size="10.00" fill="#000000">_matrix.h</text>
</g>
<!-- Node20&#45;&gt;Node27 -->
<g id="edge32" class="edge">
<title>Node20&#45;&gt;Node27</title>
<path fill="none" stroke="#191970" d="M846.2478,-135.6377C891.6335,-127.0319 963.4373,-112.8232 1025,-98 1025.1011,-97.9756 1025.2024,-97.9512 1025.3037,-97.9268"/>
<polygon fill="#191970" stroke="#191970" points="1026.0685,-101.3434 1034.9193,-95.5198 1024.3686,-94.5529 1026.0685,-101.3434"/>
</g>
<!-- Node28 -->
<g id="node29" class="node">
<title>Node28</title>
<polygon fill="none" stroke="#bfbfbf" points="22.5,-73 22.5,-92 123.5,-92 123.5,-73 22.5,-73"/>
<text text-anchor="middle" x="73" y="-80" font-family="Helvetica,sans-Serif" font-size="10.00" fill="#000000">deal.II/lac/utilities.h</text>
</g>
<!-- Node20&#45;&gt;Node28 -->
<g id="edge33" class="edge">
<title>Node20&#45;&gt;Node28</title>
<path fill="none" stroke="#191970" d="M755.745,-135.3231C752.454,-134.83 749.18,-134.381 746,-134 475.0246,-101.5302 402.6111,-140.3302 133,-98 127.1444,-97.0806 121.0302,-95.8391 115.04,-94.4566"/>
<polygon fill="#191970" stroke="#191970" points="115.6894,-91.0122 105.1435,-92.029 114.0217,-97.8107 115.6894,-91.0122"/>
</g>
<!-- Node29 -->
<g id="node30" class="node">
<title>Node29</title>
<polygon fill="none" stroke="#bfbfbf" points="142,-73 142,-92 240,-92 240,-73 142,-73"/>
<text text-anchor="middle" x="191" y="-80" font-family="Helvetica,sans-Serif" font-size="10.00" fill="#000000">deal.II/lac/vector.h</text>
</g>
<!-- Node20&#45;&gt;Node29 -->
<g id="edge34" class="edge">
<title>Node20&#45;&gt;Node29</title>
<path fill="none" stroke="#191970" d="M755.739,-135.3724C752.4493,-134.8678 749.1773,-134.4027 746,-134 526.2903,-106.1511 467.3967,-134.7531 249,-98 243.5397,-97.0811 237.8478,-95.8761 232.2558,-94.5433"/>
<polygon fill="#191970" stroke="#191970" points="232.9225,-91.1017 222.3693,-92.0404 231.2045,-97.8876 232.9225,-91.1017"/>
</g>
<!-- Node30 -->
<g id="node31" class="node">
<title>Node30</title>
<g id="a_node31"><a xlink:href="lapack__templates__ext_8h.html" target="_top" xlink:title="Append more template based LAPACK functions to those existing in deal.ii. ">
<polygon fill="none" stroke="#000000" points="1145,-73 1145,-92 1265,-92 1265,-73 1145,-73"/>
<text text-anchor="middle" x="1205" y="-80" font-family="Helvetica,sans-Serif" font-size="10.00" fill="#000000">lapack_templates_ext.h</text>
</a>
</g>
</g>
<!-- Node20&#45;&gt;Node30 -->
<g id="edge35" class="edge">
<title>Node20&#45;&gt;Node30</title>
<path fill="none" stroke="#191970" d="M846.1648,-139.0267C910.6938,-131.6428 1032.8797,-116.6279 1136,-98 1142.2638,-96.8685 1148.8205,-95.5596 1155.2944,-94.1915"/>
<polygon fill="#191970" stroke="#191970" points="1156.3156,-97.5515 1165.3458,-92.0101 1154.8309,-90.7107 1156.3156,-97.5515"/>
</g>
<!-- Node30&#45;&gt;Node19 -->
<g id="edge36" class="edge">
<title>Node30&#45;&gt;Node19</title>
<path fill="none" stroke="#191970" d="M1205,-72.9005C1205,-64.5099 1205,-51.9451 1205,-40.7085"/>
<polygon fill="#191970" stroke="#191970" points="1208.5001,-40.5217 1205,-30.5218 1201.5001,-40.5218 1208.5001,-40.5217"/>
</g>
</g>
</svg>
        <g id="navigator" transform="translate(0 0)" fill="#404254">
                <rect fill="#f2f5e9" fill-opacity="0.5" stroke="#606060" stroke-width=".5" x="0" y="0" width="60" height="60"/>
                <use id="zoomplus" xlink:href="#zoomPlus" x="17" y="9" onmousedown="handleZoom(evt,'in')"/>
                <use id="zoomminus" xlink:href="#zoomMin" x="42" y="9" onmousedown="handleZoom(evt,'out')"/>
                <use id="reset" xlink:href="#resetDef" x="30" y="36" onmousedown="handleReset()"/>
                <g id="arrowUp" xlink:href="#dirArrow" transform="translate(30 24)" onmousedown="handlePan(0,-1)">
                  <use xlink:href="#rim" fill="#404040">
                        <set attributeName="fill" to="#808080" begin="arrowUp.mouseover" end="arrowUp.mouseout"/>
                  </use>
                  <path fill="none" stroke="white" stroke-width="1.5" d="M0,-3.0v7 M-2.5,-0.5L0,-3.0L2.5,-0.5"/>
                </g>
                <g id="arrowRight" xlink:href="#dirArrow" transform="rotate(90) translate(36 -43)" onmousedown="handlePan(1,0)">
                  <use xlink:href="#rim" fill="#404040">
                        <set attributeName="fill" to="#808080" begin="arrowRight.mouseover" end="arrowRight.mouseout"/>
                  </use>
                  <path fill="none" stroke="white" stroke-width="1.5" d="M0,-3.0v7 M-2.5,-0.5L0,-3.0L2.5,-0.5"/>
                </g>
                <g id="arrowDown" xlink:href="#dirArrow" transform="rotate(180) translate(-30 -48)" onmousedown="handlePan(0,1)">
                  <use xlink:href="#rim" fill="#404040">
                        <set attributeName="fill" to="#808080" begin="arrowDown.mouseover" end="arrowDown.mouseout"/>
                  </use>
                  <path fill="none" stroke="white" stroke-width="1.5" d="M0,-3.0v7 M-2.5,-0.5L0,-3.0L2.5,-0.5"/>
                </g>
                <g id="arrowLeft" xlink:href="#dirArrow" transform="rotate(270) translate(-36 17)" onmousedown="handlePan(-1,0)">
                  <use xlink:href="#rim" fill="#404040">
                        <set attributeName="fill" to="#808080" begin="arrowLeft.mouseover" end="arrowLeft.mouseout"/>
                  </use>
                  <path fill="none" stroke="white" stroke-width="1.5" d="M0,-3.0v7 M-2.5,-0.5L0,-3.0L2.5,-0.5"/>
                </g>
        </g>
        <svg viewBox="0 0 15 15" width="100%" height="30px" preserveAspectRatio="xMaxYMin meet">
         <g id="arrow_out" transform="scale(0.3 0.3)">
          <a xlink:href="delete-rows-and-columns_8cc__incl_org.svg" target="_base">
           <rect id="button" ry="5" rx="5" y="6" x="6" height="38" width="38"
                fill="#f2f5e9" fill-opacity="0.5" stroke="#606060" stroke-width="1.0"/>
           <path id="arrow"
             d="M 11.500037,31.436501 C 11.940474,20.09759 22.043105,11.32322 32.158766,21.979434 L 37.068811,17.246167 C 37.068811,17.246167 37.088388,32 37.088388,32 L 22.160133,31.978069 C 22.160133,31.978069 26.997745,27.140456 26.997745,27.140456 C 18.528582,18.264221 13.291696,25.230495 11.500037,31.436501 z"
             style="fill:#404040;"/>
          </a>
         </g>
        </svg>
</svg>
