<?xml version="1.0" encoding="UTF-8" standalone="no"?>
<!DOCTYPE svg PUBLIC "-//W3C//DTD SVG 1.1//EN"
 "http://www.w3.org/Graphics/SVG/1.1/DTD/svg11.dtd">
<!-- Generated by graphviz version 2.40.1 (20161225.0304)
 -->
<!-- Title: /home/jihuan/Projects/deal.ii/program/dealii&#45;9.1.1/examples/laplace&#45;bem/src/generic_functors.cc Pages: 1 -->
<svg width="480pt" height="184pt"
 viewBox="0.00 0.00 480.00 184.00" xmlns="http://www.w3.org/2000/svg" xmlns:xlink="http://www.w3.org/1999/xlink">
<g id="graph0" class="graph" transform="scale(1 1) rotate(0) translate(4 180)">
<title>/home/jihuan/Projects/deal.ii/program/dealii&#45;9.1.1/examples/laplace&#45;bem/src/generic_functors.cc</title>
<!-- Node0 -->
<g id="node1" class="node">
<title>Node0</title>
<polygon fill="#bfbfbf" stroke="#000000" points="239.5,-123.5 239.5,-175.5 382.5,-175.5 382.5,-123.5 239.5,-123.5"/>
<text text-anchor="start" x="247.5" y="-163.5" font-family="Helvetica,sans-Serif" font-size="10.00" fill="#000000">/home/jihuan/Projects</text>
<text text-anchor="start" x="247.5" y="-152.5" font-family="Helvetica,sans-Serif" font-size="10.00" fill="#000000">/deal.ii/program/dealii</text>
<text text-anchor="start" x="247.5" y="-141.5" font-family="Helvetica,sans-Serif" font-size="10.00" fill="#000000">&#45;9.1.1/examples/laplace</text>
<text text-anchor="middle" x="311" y="-130.5" font-family="Helvetica,sans-Serif" font-size="10.00" fill="#000000">&#45;bem/src/generic_functors.cc</text>
</g>
<!-- Node1 -->
<g id="node2" class="node">
<title>Node1</title>
<g id="a_node2"><a xlink:href="generic__functors_8h.html" target="_top" xlink:title="This header file contains a set of self&#45;defined generic functors. ">
<polygon fill="none" stroke="#000000" points="262.5,-67.5 262.5,-86.5 359.5,-86.5 359.5,-67.5 262.5,-67.5"/>
<text text-anchor="middle" x="311" y="-74.5" font-family="Helvetica,sans-Serif" font-size="10.00" fill="#000000">generic_functors.h</text>
</a>
</g>
</g>
<!-- Node0&#45;&gt;Node1 -->
<g id="edge1" class="edge">
<title>Node0&#45;&gt;Node1</title>
<path fill="none" stroke="#191970" d="M311,-123.3258C311,-114.5142 311,-104.8397 311,-96.621"/>
<polygon fill="#191970" stroke="#191970" points="314.5001,-96.534 311,-86.534 307.5001,-96.534 314.5001,-96.534"/>
</g>
<!-- Node2 -->
<g id="node3" class="node">
<title>Node2</title>
<polygon fill="none" stroke="#bfbfbf" points="0,-6 0,-25 126,-25 126,-6 0,-6"/>
<text text-anchor="middle" x="63" y="-13" font-family="Helvetica,sans-Serif" font-size="10.00" fill="#000000">deal.II/base/exceptions.h</text>
</g>
<!-- Node1&#45;&gt;Node2 -->
<g id="edge2" class="edge">
<title>Node1&#45;&gt;Node2</title>
<path fill="none" stroke="#191970" d="M272.5221,-67.4581C229.1731,-56.7082 158.6361,-39.2162 111.5373,-27.5365"/>
<polygon fill="#191970" stroke="#191970" points="112.1166,-24.0742 101.5682,-25.0643 110.4317,-30.8684 112.1166,-24.0742"/>
</g>
<!-- Node3 -->
<g id="node4" class="node">
<title>Node3</title>
<polygon fill="none" stroke="#bfbfbf" points="144.5,-6 144.5,-25 247.5,-25 247.5,-6 144.5,-6"/>
<text text-anchor="middle" x="196" y="-13" font-family="Helvetica,sans-Serif" font-size="10.00" fill="#000000">deal.II/base/types.h</text>
</g>
<!-- Node1&#45;&gt;Node3 -->
<g id="edge3" class="edge">
<title>Node1&#45;&gt;Node3</title>
<path fill="none" stroke="#191970" d="M293.0313,-67.3906C274.2116,-57.3262 244.4415,-41.4057 222.8359,-29.8514"/>
<polygon fill="#191970" stroke="#191970" points="224.3114,-26.6714 213.8426,-25.0419 221.0102,-32.8442 224.3114,-26.6714"/>
</g>
<!-- Node4 -->
<g id="node5" class="node">
<title>Node4</title>
<polygon fill="none" stroke="#bfbfbf" points="265.5,-.5 265.5,-30.5 356.5,-30.5 356.5,-.5 265.5,-.5"/>
<text text-anchor="start" x="273.5" y="-18.5" font-family="Helvetica,sans-Serif" font-size="10.00" fill="#000000">deal.II/lac/lapack</text>
<text text-anchor="middle" x="311" y="-7.5" font-family="Helvetica,sans-Serif" font-size="10.00" fill="#000000">_support.h</text>
</g>
<!-- Node1&#45;&gt;Node4 -->
<g id="edge4" class="edge">
<title>Node1&#45;&gt;Node4</title>
<path fill="none" stroke="#191970" d="M311,-67.3906C311,-60.2234 311,-50.0862 311,-40.671"/>
<polygon fill="#191970" stroke="#191970" points="314.5001,-40.5446 311,-30.5446 307.5001,-40.5446 314.5001,-40.5446"/>
</g>
<!-- Node5 -->
<g id="node6" class="node">
<title>Node5</title>
<polygon fill="none" stroke="#bfbfbf" points="374.5,-6 374.5,-25 409.5,-25 409.5,-6 374.5,-6"/>
<text text-anchor="middle" x="392" y="-13" font-family="Helvetica,sans-Serif" font-size="10.00" fill="#000000">map</text>
</g>
<!-- Node1&#45;&gt;Node5 -->
<g id="edge5" class="edge">
<title>Node1&#45;&gt;Node5</title>
<path fill="none" stroke="#191970" d="M323.6563,-67.3906C336.3768,-57.7324 356.2004,-42.6812 371.2284,-31.271"/>
<polygon fill="#191970" stroke="#191970" points="373.5846,-33.8766 379.4326,-25.0419 369.3516,-28.3015 373.5846,-33.8766"/>
</g>
<!-- Node6 -->
<g id="node7" class="node">
<title>Node6</title>
<polygon fill="none" stroke="#bfbfbf" points="428,-6 428,-25 472,-25 472,-6 428,-6"/>
<text text-anchor="middle" x="450" y="-13" font-family="Helvetica,sans-Serif" font-size="10.00" fill="#000000">vector</text>
</g>
<!-- Node1&#45;&gt;Node6 -->
<g id="edge6" class="edge">
<title>Node1&#45;&gt;Node6</title>
<path fill="none" stroke="#191970" d="M334.7789,-67.3608C356.7844,-58.3253 390.3285,-44.2589 419,-31 420.0104,-30.5328 421.0366,-30.0521 422.0711,-29.5624"/>
<polygon fill="#191970" stroke="#191970" points="423.9362,-32.5475 431.4014,-25.0295 420.8773,-26.2513 423.9362,-32.5475"/>
</g>
</g>
</svg>
