<?xml version="1.0" encoding="UTF-8" standalone="no"?>
<!DOCTYPE svg PUBLIC "-//W3C//DTD SVG 1.1//EN"
 "http://www.w3.org/Graphics/SVG/1.1/DTD/svg11.dtd">
<!-- Generated by graphviz version 2.40.1 (20161225.0304)
 -->
<!-- Title: /home/jihuan/Projects/deal.ii/program/dealii&#45;9.1.1/examples/laplace&#45;bem/include/generic_functors.h Pages: 1 -->
<svg width="480pt" height="128pt"
 viewBox="0.00 0.00 480.00 128.00" xmlns="http://www.w3.org/2000/svg" xmlns:xlink="http://www.w3.org/1999/xlink">
<g id="graph0" class="graph" transform="scale(1 1) rotate(0) translate(4 124)">
<title>/home/jihuan/Projects/deal.ii/program/dealii&#45;9.1.1/examples/laplace&#45;bem/include/generic_functors.h</title>
<!-- Node0 -->
<g id="node1" class="node">
<title>Node0</title>
<polygon fill="#bfbfbf" stroke="#000000" points="233.5,-67.5 233.5,-119.5 388.5,-119.5 388.5,-67.5 233.5,-67.5"/>
<text text-anchor="start" x="241.5" y="-107.5" font-family="Helvetica,sans-Serif" font-size="10.00" fill="#000000">/home/jihuan/Projects</text>
<text text-anchor="start" x="241.5" y="-96.5" font-family="Helvetica,sans-Serif" font-size="10.00" fill="#000000">/deal.ii/program/dealii</text>
<text text-anchor="start" x="241.5" y="-85.5" font-family="Helvetica,sans-Serif" font-size="10.00" fill="#000000">&#45;9.1.1/examples/laplace</text>
<text text-anchor="middle" x="311" y="-74.5" font-family="Helvetica,sans-Serif" font-size="10.00" fill="#000000">&#45;bem/include/generic_functors.h</text>
</g>
<!-- Node1 -->
<g id="node2" class="node">
<title>Node1</title>
<polygon fill="none" stroke="#bfbfbf" points="0,-6 0,-25 126,-25 126,-6 0,-6"/>
<text text-anchor="middle" x="63" y="-13" font-family="Helvetica,sans-Serif" font-size="10.00" fill="#000000">deal.II/base/exceptions.h</text>
</g>
<!-- Node0&#45;&gt;Node1 -->
<g id="edge1" class="edge">
<title>Node0&#45;&gt;Node1</title>
<path fill="none" stroke="#191970" d="M233.2117,-69.0343C190.0292,-55.4527 138.1214,-39.1269 103.0721,-28.1033"/>
<polygon fill="#191970" stroke="#191970" points="103.7995,-24.6631 93.2101,-25.0016 101.6993,-31.3407 103.7995,-24.6631"/>
</g>
<!-- Node2 -->
<g id="node3" class="node">
<title>Node2</title>
<polygon fill="none" stroke="#bfbfbf" points="144.5,-6 144.5,-25 247.5,-25 247.5,-6 144.5,-6"/>
<text text-anchor="middle" x="196" y="-13" font-family="Helvetica,sans-Serif" font-size="10.00" fill="#000000">deal.II/base/types.h</text>
</g>
<!-- Node0&#45;&gt;Node2 -->
<g id="edge2" class="edge">
<title>Node0&#45;&gt;Node2</title>
<path fill="none" stroke="#191970" d="M272.3867,-67.3101C254.4956,-55.1753 233.8602,-41.1791 218.5506,-30.7952"/>
<polygon fill="#191970" stroke="#191970" points="220.4536,-27.8568 210.213,-25.1401 216.5243,-33.65 220.4536,-27.8568"/>
</g>
<!-- Node3 -->
<g id="node4" class="node">
<title>Node3</title>
<polygon fill="none" stroke="#bfbfbf" points="265.5,-.5 265.5,-30.5 356.5,-30.5 356.5,-.5 265.5,-.5"/>
<text text-anchor="start" x="273.5" y="-18.5" font-family="Helvetica,sans-Serif" font-size="10.00" fill="#000000">deal.II/lac/lapack</text>
<text text-anchor="middle" x="311" y="-7.5" font-family="Helvetica,sans-Serif" font-size="10.00" fill="#000000">_support.h</text>
</g>
<!-- Node0&#45;&gt;Node3 -->
<g id="edge3" class="edge">
<title>Node0&#45;&gt;Node3</title>
<path fill="none" stroke="#191970" d="M311,-67.0928C311,-58.516 311,-49.0289 311,-40.5538"/>
<polygon fill="#191970" stroke="#191970" points="314.5001,-40.5045 311,-30.5046 307.5001,-40.5046 314.5001,-40.5045"/>
</g>
<!-- Node4 -->
<g id="node5" class="node">
<title>Node4</title>
<polygon fill="none" stroke="#bfbfbf" points="374.5,-6 374.5,-25 409.5,-25 409.5,-6 374.5,-6"/>
<text text-anchor="middle" x="392" y="-13" font-family="Helvetica,sans-Serif" font-size="10.00" fill="#000000">map</text>
</g>
<!-- Node0&#45;&gt;Node4 -->
<g id="edge4" class="edge">
<title>Node0&#45;&gt;Node4</title>
<path fill="none" stroke="#191970" d="M338.4229,-67.0928C350.419,-55.541 364.1297,-42.338 374.6782,-32.1802"/>
<polygon fill="#191970" stroke="#191970" points="377.2721,-34.5414 382.0475,-25.0839 372.4165,-29.4992 377.2721,-34.5414"/>
</g>
<!-- Node5 -->
<g id="node6" class="node">
<title>Node5</title>
<polygon fill="none" stroke="#bfbfbf" points="428,-6 428,-25 472,-25 472,-6 428,-6"/>
<text text-anchor="middle" x="450" y="-13" font-family="Helvetica,sans-Serif" font-size="10.00" fill="#000000">vector</text>
</g>
<!-- Node0&#45;&gt;Node5 -->
<g id="edge5" class="edge">
<title>Node0&#45;&gt;Node5</title>
<path fill="none" stroke="#191970" d="M357.6717,-67.3101C379.8018,-54.8918 405.4059,-40.524 424.0296,-30.0733"/>
<polygon fill="#191970" stroke="#191970" points="425.8128,-33.0861 432.8208,-25.1401 422.3872,-26.9816 425.8128,-33.0861"/>
</g>
</g>
</svg>
