<?xml version="1.0" encoding="UTF-8" standalone="no"?>
<!DOCTYPE svg PUBLIC "-//W3C//DTD SVG 1.1//EN"
 "http://www.w3.org/Graphics/SVG/1.1/DTD/svg11.dtd">
<!-- Generated by graphviz version 2.40.1 (20161225.0304)
 -->
<!-- Title: /home/jihuan/Projects/deal.ii/program/dealii&#45;9.1.1/examples/laplace&#45;bem/tests/hmatrix&#45;convert&#45;to&#45;bct/hmatrix&#45;convert&#45;to&#45;bct.cc Pages: 1 -->
<svg width="2453pt" height="486pt"
 viewBox="0.00 0.00 2453.00 486.00" xmlns="http://www.w3.org/2000/svg" xmlns:xlink="http://www.w3.org/1999/xlink">
<g id="graph0" class="graph" transform="scale(1 1) rotate(0) translate(4 482)">
<title>/home/jihuan/Projects/deal.ii/program/dealii&#45;9.1.1/examples/laplace&#45;bem/tests/hmatrix&#45;convert&#45;to&#45;bct/hmatrix&#45;convert&#45;to&#45;bct.cc</title>
<!-- Node0 -->
<g id="node1" class="node">
<title>Node0</title>
<polygon fill="#bfbfbf" stroke="#000000" points="300,-414.5 300,-477.5 456,-477.5 456,-414.5 300,-414.5"/>
<text text-anchor="start" x="308" y="-465.5" font-family="Helvetica,sans-Serif" font-size="10.00" fill="#000000">/home/jihuan/Projects</text>
<text text-anchor="start" x="308" y="-454.5" font-family="Helvetica,sans-Serif" font-size="10.00" fill="#000000">/deal.ii/program/dealii</text>
<text text-anchor="start" x="308" y="-443.5" font-family="Helvetica,sans-Serif" font-size="10.00" fill="#000000">&#45;9.1.1/examples/laplace</text>
<text text-anchor="start" x="308" y="-432.5" font-family="Helvetica,sans-Serif" font-size="10.00" fill="#000000">&#45;bem/tests/hmatrix&#45;convert</text>
<text text-anchor="middle" x="378" y="-421.5" font-family="Helvetica,sans-Serif" font-size="10.00" fill="#000000">&#45;to&#45;bct/hmatrix&#45;convert&#45;to&#45;bct.cc</text>
</g>
<!-- Node1 -->
<g id="node2" class="node">
<title>Node1</title>
<polygon fill="none" stroke="#bfbfbf" points="0,-56.5 0,-75.5 54,-75.5 54,-56.5 0,-56.5"/>
<text text-anchor="middle" x="27" y="-63.5" font-family="Helvetica,sans-Serif" font-size="10.00" fill="#000000">iostream</text>
</g>
<!-- Node0&#45;&gt;Node1 -->
<g id="edge1" class="edge">
<title>Node0&#45;&gt;Node1</title>
<path fill="none" stroke="#191970" d="M299.7124,-427.8016C209.6394,-404.5362 74,-361.3143 74,-312 74,-312 74,-312 74,-189 74,-149.62 52.7179,-107.5428 38.7956,-84.2301"/>
<polygon fill="#191970" stroke="#191970" points="41.7699,-82.3851 33.5351,-75.7189 35.8155,-86.0654 41.7699,-82.3851"/>
</g>
<!-- Node2 -->
<g id="node3" class="node">
<title>Node2</title>
<g id="a_node3"><a xlink:href="hmatrix_8h.html" target="_top" xlink:title="Definition of hierarchical matrix. ">
<polygon fill="none" stroke="#000000" points="1054.5,-358.5 1054.5,-377.5 1111.5,-377.5 1111.5,-358.5 1054.5,-358.5"/>
<text text-anchor="middle" x="1083" y="-365.5" font-family="Helvetica,sans-Serif" font-size="10.00" fill="#000000">hmatrix.h</text>
</a>
</g>
</g>
<!-- Node0&#45;&gt;Node2 -->
<g id="edge2" class="edge">
<title>Node0&#45;&gt;Node2</title>
<path fill="none" stroke="#191970" d="M456.141,-437.3546C606.697,-420.6974 932.0018,-384.7062 1044.1017,-372.3036"/>
<polygon fill="#191970" stroke="#191970" points="1044.7171,-375.757 1054.2715,-371.1785 1043.9472,-368.7995 1044.7171,-375.757"/>
</g>
<!-- Node2&#45;&gt;Node1 -->
<g id="edge6" class="edge">
<title>Node2&#45;&gt;Node1</title>
<path fill="none" stroke="#191970" d="M1054.3806,-366.831C912.5705,-360.6678 292,-329.2011 292,-250.5 292,-250.5 292,-250.5 292,-189 292,-164.1731 136.9929,-105.3752 64.0803,-79.091"/>
<polygon fill="#191970" stroke="#191970" points="64.9561,-75.6868 54.3615,-75.6049 62.5926,-82.2757 64.9561,-75.6868"/>
</g>
<!-- Node3 -->
<g id="node4" class="node">
<title>Node3</title>
<polygon fill="none" stroke="#bfbfbf" points="1050,-118 1050,-137 1166,-137 1166,-118 1050,-118"/>
<text text-anchor="middle" x="1108" y="-125" font-family="Helvetica,sans-Serif" font-size="10.00" fill="#000000">deal.II/lac/full_matrix.h</text>
</g>
<!-- Node2&#45;&gt;Node3 -->
<g id="edge3" class="edge">
<title>Node2&#45;&gt;Node3</title>
<path fill="none" stroke="#191970" d="M1084.011,-358.2742C1087.749,-322.3148 1100.8347,-196.4298 1105.939,-147.3266"/>
<polygon fill="#191970" stroke="#191970" points="1109.451,-147.3916 1107.0038,-137.0833 1102.4886,-146.6678 1109.451,-147.3916"/>
</g>
<!-- Node4 -->
<g id="node5" class="node">
<title>Node4</title>
<polygon fill="none" stroke="#bfbfbf" points="876,-56.5 876,-75.5 932,-75.5 932,-56.5 876,-56.5"/>
<text text-anchor="middle" x="904" y="-63.5" font-family="Helvetica,sans-Serif" font-size="10.00" fill="#000000">algorithm</text>
</g>
<!-- Node2&#45;&gt;Node4 -->
<g id="edge4" class="edge">
<title>Node2&#45;&gt;Node4</title>
<path fill="none" stroke="#191970" d="M1054.3306,-363.0782C979.4933,-349.4226 784,-308.2262 784,-250.5 784,-250.5 784,-250.5 784,-189 784,-137.5142 838.5347,-99.5469 874.0768,-80.2696"/>
<polygon fill="#191970" stroke="#191970" points="875.8575,-83.2882 883.0976,-75.5531 872.6141,-77.0849 875.8575,-83.2882"/>
</g>
<!-- Node5 -->
<g id="node6" class="node">
<title>Node5</title>
<polygon fill="none" stroke="#bfbfbf" points="1131,-302.5 1131,-321.5 1181,-321.5 1181,-302.5 1131,-302.5"/>
<text text-anchor="middle" x="1156" y="-309.5" font-family="Helvetica,sans-Serif" font-size="10.00" fill="#000000">fstream</text>
</g>
<!-- Node2&#45;&gt;Node5 -->
<g id="edge5" class="edge">
<title>Node2&#45;&gt;Node5</title>
<path fill="none" stroke="#191970" d="M1095.7156,-358.2455C1106.602,-349.8943 1122.4883,-337.7076 1135.22,-327.9408"/>
<polygon fill="#191970" stroke="#191970" points="1137.6261,-330.5063 1143.4301,-321.6427 1133.3654,-324.9523 1137.6261,-330.5063"/>
</g>
<!-- Node6 -->
<g id="node7" class="node">
<title>Node6</title>
<polygon fill="none" stroke="#bfbfbf" points="1964.5,-179.5 1964.5,-198.5 1999.5,-198.5 1999.5,-179.5 1964.5,-179.5"/>
<text text-anchor="middle" x="1982" y="-186.5" font-family="Helvetica,sans-Serif" font-size="10.00" fill="#000000">map</text>
</g>
<!-- Node2&#45;&gt;Node6 -->
<g id="edge7" class="edge">
<title>Node2&#45;&gt;Node6</title>
<path fill="none" stroke="#191970" d="M1111.6935,-363.5897C1221.389,-346.4801 1624.4055,-281.34 1950,-199 1951.4813,-198.6254 1952.9952,-198.2225 1954.5195,-197.801"/>
<polygon fill="#191970" stroke="#191970" points="1955.8961,-201.0439 1964.4941,-194.8532 1953.9121,-194.3309 1955.8961,-201.0439"/>
</g>
<!-- Node7 -->
<g id="node8" class="node">
<title>Node7</title>
<polygon fill="none" stroke="#bfbfbf" points="816.5,-56.5 816.5,-75.5 857.5,-75.5 857.5,-56.5 816.5,-56.5"/>
<text text-anchor="middle" x="837" y="-63.5" font-family="Helvetica,sans-Serif" font-size="10.00" fill="#000000">string</text>
</g>
<!-- Node2&#45;&gt;Node7 -->
<g id="edge8" class="edge">
<title>Node2&#45;&gt;Node7</title>
<path fill="none" stroke="#191970" d="M1054.1461,-366.9557C1006.9568,-364.309 911.2005,-354.9646 838,-322 790.7817,-300.736 746,-302.2854 746,-250.5 746,-250.5 746,-250.5 746,-189 746,-142.9795 787.6781,-102.9143 814.6223,-81.8213"/>
<polygon fill="#191970" stroke="#191970" points="816.913,-84.4773 822.7813,-75.656 812.6928,-78.8925 816.913,-84.4773"/>
</g>
<!-- Node8 -->
<g id="node9" class="node">
<title>Node8</title>
<polygon fill="none" stroke="#bfbfbf" points="1840,-.5 1840,-19.5 1880,-19.5 1880,-.5 1840,-.5"/>
<text text-anchor="middle" x="1860" y="-7.5" font-family="Helvetica,sans-Serif" font-size="10.00" fill="#000000">utility</text>
</g>
<!-- Node2&#45;&gt;Node8 -->
<g id="edge9" class="edge">
<title>Node2&#45;&gt;Node8</title>
<path fill="none" stroke="#191970" d="M1111.6833,-367.9048C1267.8159,-367.2291 2016.6347,-361.9251 2244,-322 2337.3882,-305.6012 2445,-345.317 2445,-250.5 2445,-250.5 2445,-250.5 2445,-127.5 2445,-70.3663 2010.5525,-24.4438 1890.444,-12.8397"/>
<polygon fill="#191970" stroke="#191970" points="1890.4248,-9.322 1880.137,-11.854 1889.7584,-16.2902 1890.4248,-9.322"/>
</g>
<!-- Node9 -->
<g id="node10" class="node">
<title>Node9</title>
<polygon fill="none" stroke="#bfbfbf" points="1218,-.5 1218,-19.5 1262,-19.5 1262,-.5 1218,-.5"/>
<text text-anchor="middle" x="1240" y="-7.5" font-family="Helvetica,sans-Serif" font-size="10.00" fill="#000000">vector</text>
</g>
<!-- Node2&#45;&gt;Node9 -->
<g id="edge10" class="edge">
<title>Node2&#45;&gt;Node9</title>
<path fill="none" stroke="#191970" d="M1111.5346,-367.2855C1252.437,-363.6627 1874.8796,-346.5301 2067,-322 2220.1728,-302.4427 2407,-404.9163 2407,-250.5 2407,-250.5 2407,-250.5 2407,-127.5 2407,-106.649 2408.6135,-96.3933 2045,-56 1745.7505,-22.7568 1381.0918,-12.9026 1272.1798,-10.6019"/>
<polygon fill="#191970" stroke="#191970" points="1272.2318,-7.1024 1262.1622,-10.3966 1272.0883,-14.1009 1272.2318,-7.1024"/>
</g>
<!-- Node10 -->
<g id="node11" class="node">
<title>Node10</title>
<g id="a_node11"><a xlink:href="block__cluster_8h.html" target="_top" xlink:title="Implementation of the class BlockCluster. ">
<polygon fill="none" stroke="#000000" points="634.5,-241 634.5,-260 717.5,-260 717.5,-241 634.5,-241"/>
<text text-anchor="middle" x="676" y="-248" font-family="Helvetica,sans-Serif" font-size="10.00" fill="#000000">block_cluster.h</text>
</a>
</g>
</g>
<!-- Node2&#45;&gt;Node10 -->
<g id="edge11" class="edge">
<title>Node2&#45;&gt;Node10</title>
<path fill="none" stroke="#191970" d="M1054.3543,-367.0103C980.7595,-364.037 786.987,-353.3626 732,-322 710.5901,-309.7886 694.4467,-285.8306 685.121,-269.0248"/>
<polygon fill="#191970" stroke="#191970" points="688.1804,-267.3225 680.4298,-260.0991 681.9841,-270.5793 688.1804,-267.3225"/>
</g>
<!-- Node29 -->
<g id="node30" class="node">
<title>Node29</title>
<g id="a_node30"><a xlink:href="block__cluster__tree_8h.html" target="_top" xlink:title="Implementation of the class BlockClusterTree. ">
<polygon fill="none" stroke="#000000" points="560,-302.5 560,-321.5 664,-321.5 664,-302.5 560,-302.5"/>
<text text-anchor="middle" x="612" y="-309.5" font-family="Helvetica,sans-Serif" font-size="10.00" fill="#000000">block_cluster_tree.h</text>
</a>
</g>
</g>
<!-- Node2&#45;&gt;Node29 -->
<g id="edge43" class="edge">
<title>Node2&#45;&gt;Node29</title>
<path fill="none" stroke="#191970" d="M1054.3117,-364.7792C989.2845,-357.4506 825.6995,-338.8558 689,-322 684.2337,-321.4123 679.3029,-320.7945 674.3455,-320.1664"/>
<polygon fill="#191970" stroke="#191970" points="674.5395,-316.6628 664.1769,-318.8689 673.6535,-323.6065 674.5395,-316.6628"/>
</g>
<!-- Node30 -->
<g id="node31" class="node">
<title>Node30</title>
<g id="a_node31"><a xlink:href="lapack__full__matrix__ext_8h_source.html" target="_top" xlink:title="lapack_full_matrix\l_ext.h">
<polygon fill="none" stroke="#000000" points="1487.5,-235.5 1487.5,-265.5 1582.5,-265.5 1582.5,-235.5 1487.5,-235.5"/>
<text text-anchor="start" x="1495.5" y="-253.5" font-family="Helvetica,sans-Serif" font-size="10.00" fill="#000000">lapack_full_matrix</text>
<text text-anchor="middle" x="1535" y="-242.5" font-family="Helvetica,sans-Serif" font-size="10.00" fill="#000000">_ext.h</text>
</a>
</g>
</g>
<!-- Node2&#45;&gt;Node30 -->
<g id="edge69" class="edge">
<title>Node2&#45;&gt;Node30</title>
<path fill="none" stroke="#191970" d="M1111.6175,-360.5607C1184.7881,-341.5396 1379.8,-290.8451 1477.5165,-265.4432"/>
<polygon fill="#191970" stroke="#191970" points="1478.4333,-268.8212 1487.2311,-262.9178 1476.6721,-262.0464 1478.4333,-268.8212"/>
</g>
<!-- Node43 -->
<g id="node44" class="node">
<title>Node43</title>
<g id="a_node44"><a xlink:href="generic__functors_8h.html" target="_top" xlink:title="This header file contains a set of self&#45;defined generic functors. ">
<polygon fill="none" stroke="#000000" points="977.5,-241 977.5,-260 1074.5,-260 1074.5,-241 977.5,-241"/>
<text text-anchor="middle" x="1026" y="-248" font-family="Helvetica,sans-Serif" font-size="10.00" fill="#000000">generic_functors.h</text>
</a>
</g>
</g>
<!-- Node2&#45;&gt;Node43 -->
<g id="edge65" class="edge">
<title>Node2&#45;&gt;Node43</title>
<path fill="none" stroke="#191970" d="M1078.3355,-358.3845C1068.8995,-338.9331 1047.3999,-294.6138 1035.0939,-269.2462"/>
<polygon fill="#191970" stroke="#191970" points="1038.2427,-267.718 1030.729,-260.2484 1031.9446,-270.7733 1038.2427,-267.718"/>
</g>
<!-- Node44 -->
<g id="node45" class="node">
<title>Node44</title>
<g id="a_node45"><a xlink:href="rkmatrix_8h.html" target="_top" xlink:title="Definition of rank&#45;k matrix. ">
<polygon fill="none" stroke="#000000" points="1998,-302.5 1998,-321.5 2058,-321.5 2058,-302.5 1998,-302.5"/>
<text text-anchor="middle" x="2028" y="-309.5" font-family="Helvetica,sans-Serif" font-size="10.00" fill="#000000">rkmatrix.h</text>
</a>
</g>
</g>
<!-- Node2&#45;&gt;Node44 -->
<g id="edge70" class="edge">
<title>Node2&#45;&gt;Node44</title>
<path fill="none" stroke="#191970" d="M1111.5394,-366.3088C1247.4222,-358.2565 1828.8036,-323.8042 1987.7184,-314.3871"/>
<polygon fill="#191970" stroke="#191970" points="1988.2176,-317.8637 1997.993,-313.7782 1987.8034,-310.876 1988.2176,-317.8637"/>
</g>
<!-- Node11 -->
<g id="node12" class="node">
<title>Node11</title>
<g id="a_node12"><a xlink:href="cluster_8h.html" target="_top" xlink:title="Implementation of the class Cluster. ">
<polygon fill="none" stroke="#000000" points="902,-118 902,-137 956,-137 956,-118 902,-118"/>
<text text-anchor="middle" x="929" y="-125" font-family="Helvetica,sans-Serif" font-size="10.00" fill="#000000">cluster.h</text>
</a>
</g>
</g>
<!-- Node10&#45;&gt;Node11 -->
<g id="edge12" class="edge">
<title>Node10&#45;&gt;Node11</title>
<path fill="none" stroke="#191970" d="M695.8525,-240.8484C740.3759,-219.2026 848.3516,-166.7085 900.2331,-141.4855"/>
<polygon fill="#191970" stroke="#191970" points="901.7766,-144.6269 909.2397,-137.1068 898.7159,-138.3314 901.7766,-144.6269"/>
</g>
<!-- Node19 -->
<g id="node20" class="node">
<title>Node19</title>
<g id="a_node20"><a xlink:href="cluster__tree_8h_source.html" target="_top" xlink:title="cluster_tree.h">
<polygon fill="none" stroke="#000000" points="596,-179.5 596,-198.5 672,-198.5 672,-179.5 596,-179.5"/>
<text text-anchor="middle" x="634" y="-186.5" font-family="Helvetica,sans-Serif" font-size="10.00" fill="#000000">cluster_tree.h</text>
</a>
</g>
</g>
<!-- Node10&#45;&gt;Node19 -->
<g id="edge24" class="edge">
<title>Node10&#45;&gt;Node19</title>
<path fill="none" stroke="#191970" d="M669.4375,-240.8906C663.3092,-231.917 654.0015,-218.2879 646.4628,-207.2491"/>
<polygon fill="#191970" stroke="#191970" points="649.185,-205.029 640.655,-198.7449 643.4044,-208.9768 649.185,-205.029"/>
</g>
<!-- Node11&#45;&gt;Node4 -->
<g id="edge14" class="edge">
<title>Node11&#45;&gt;Node4</title>
<path fill="none" stroke="#191970" d="M925.0938,-117.8906C921.5554,-109.1862 916.2364,-96.1015 911.825,-85.2494"/>
<polygon fill="#191970" stroke="#191970" points="914.9695,-83.6907 907.9613,-75.7449 908.4848,-86.3268 914.9695,-83.6907"/>
</g>
<!-- Node11&#45;&gt;Node9 -->
<g id="edge16" class="edge">
<title>Node11&#45;&gt;Node9</title>
<path fill="none" stroke="#191970" d="M952.1594,-117.8544C957.9172,-115.7046 964.1244,-113.5934 970,-112 1062.2393,-86.9853 1098.545,-122.5735 1182,-76 1202.0761,-64.7962 1218.6168,-43.9078 1228.8262,-28.6218"/>
<polygon fill="#191970" stroke="#191970" points="1231.9199,-30.2795 1234.3398,-19.9647 1226.0157,-26.5191 1231.9199,-30.2795"/>
</g>
<!-- Node12 -->
<g id="node13" class="node">
<title>Node12</title>
<polygon fill="none" stroke="#bfbfbf" points="1268.5,-56.5 1268.5,-75.5 1371.5,-75.5 1371.5,-56.5 1268.5,-56.5"/>
<text text-anchor="middle" x="1320" y="-63.5" font-family="Helvetica,sans-Serif" font-size="10.00" fill="#000000">deal.II/base/types.h</text>
</g>
<!-- Node11&#45;&gt;Node12 -->
<g id="edge13" class="edge">
<title>Node11&#45;&gt;Node12</title>
<path fill="none" stroke="#191970" d="M956.3618,-121.8004C971.5424,-118.7216 990.7811,-114.9568 1008,-112 1094.515,-97.1436 1195.037,-82.8537 1258.0894,-74.2475"/>
<polygon fill="#191970" stroke="#191970" points="1258.8255,-77.6797 1268.2626,-72.8639 1257.8821,-70.7435 1258.8255,-77.6797"/>
</g>
<!-- Node13 -->
<g id="node14" class="node">
<title>Node13</title>
<polygon fill="none" stroke="#bfbfbf" points="1126.5,-56.5 1126.5,-75.5 1173.5,-75.5 1173.5,-56.5 1126.5,-56.5"/>
<text text-anchor="middle" x="1150" y="-63.5" font-family="Helvetica,sans-Serif" font-size="10.00" fill="#000000">iterator</text>
</g>
<!-- Node11&#45;&gt;Node13 -->
<g id="edge15" class="edge">
<title>Node11&#45;&gt;Node13</title>
<path fill="none" stroke="#191970" d="M953.1228,-117.8619C958.6286,-115.8073 964.4833,-113.736 970,-112 1032.1054,-92.457 1048.9618,-92.2849 1112,-76 1113.4448,-75.6267 1114.9202,-75.2443 1116.4104,-74.8569"/>
<polygon fill="#191970" stroke="#191970" points="1117.5019,-78.1892 1126.2919,-72.2743 1115.7319,-71.4167 1117.5019,-78.1892"/>
</g>
<!-- Node14 -->
<g id="node15" class="node">
<title>Node14</title>
<g id="a_node15"><a xlink:href="simple__bounding__box_8h_source.html" target="_top" xlink:title="simple_bounding_box.h">
<polygon fill="none" stroke="#000000" points="950.5,-56.5 950.5,-75.5 1069.5,-75.5 1069.5,-56.5 950.5,-56.5"/>
<text text-anchor="middle" x="1010" y="-63.5" font-family="Helvetica,sans-Serif" font-size="10.00" fill="#000000">simple_bounding_box.h</text>
</a>
</g>
</g>
<!-- Node11&#45;&gt;Node14 -->
<g id="edge17" class="edge">
<title>Node11&#45;&gt;Node14</title>
<path fill="none" stroke="#191970" d="M941.6563,-117.8906C954.3768,-108.2324 974.2004,-93.1812 989.2284,-81.771"/>
<polygon fill="#191970" stroke="#191970" points="991.5846,-84.3766 997.4326,-75.5419 987.3516,-78.8015 991.5846,-84.3766"/>
</g>
<!-- Node14&#45;&gt;Node8 -->
<g id="edge22" class="edge">
<title>Node14&#45;&gt;Node8</title>
<path fill="none" stroke="#191970" d="M1069.6784,-60.0886C1085.0864,-58.6541 1101.6539,-57.1919 1117,-56 1393.6166,-34.5165 1728.7961,-16.7161 1829.795,-11.5294"/>
<polygon fill="#191970" stroke="#191970" points="1830.0803,-15.0195 1839.8884,-11.0131 1829.7226,-8.0286 1830.0803,-15.0195"/>
</g>
<!-- Node14&#45;&gt;Node9 -->
<g id="edge23" class="edge">
<title>Node14&#45;&gt;Node9</title>
<path fill="none" stroke="#191970" d="M1049.2771,-56.4369C1094.1047,-45.5223 1166.5661,-27.8796 1208.0714,-17.7739"/>
<polygon fill="#191970" stroke="#191970" points="1209.0328,-21.1422 1217.921,-15.3758 1207.3768,-14.3409 1209.0328,-21.1422"/>
</g>
<!-- Node15 -->
<g id="node16" class="node">
<title>Node15</title>
<polygon fill="none" stroke="#bfbfbf" points="960,-.5 960,-19.5 1060,-19.5 1060,-.5 960,-.5"/>
<text text-anchor="middle" x="1010" y="-7.5" font-family="Helvetica,sans-Serif" font-size="10.00" fill="#000000">deal.II/base/point.h</text>
</g>
<!-- Node14&#45;&gt;Node15 -->
<g id="edge18" class="edge">
<title>Node14&#45;&gt;Node15</title>
<path fill="none" stroke="#191970" d="M1010,-56.2455C1010,-48.9382 1010,-38.6944 1010,-29.7046"/>
<polygon fill="#191970" stroke="#191970" points="1013.5001,-29.6426 1010,-19.6427 1006.5001,-29.6427 1013.5001,-29.6426"/>
</g>
<!-- Node16 -->
<g id="node17" class="node">
<title>Node16</title>
<polygon fill="none" stroke="#bfbfbf" points="317.5,-.5 317.5,-19.5 444.5,-19.5 444.5,-.5 317.5,-.5"/>
<text text-anchor="middle" x="381" y="-7.5" font-family="Helvetica,sans-Serif" font-size="10.00" fill="#000000">deal.II/dofs/dof_handler.h</text>
</g>
<!-- Node14&#45;&gt;Node16 -->
<g id="edge19" class="edge">
<title>Node14&#45;&gt;Node16</title>
<path fill="none" stroke="#191970" d="M950.1902,-57.1005C947.0844,-56.7108 944.0068,-56.341 941,-56 767.0518,-36.27 561.786,-21.5965 454.5941,-14.586"/>
<polygon fill="#191970" stroke="#191970" points="454.7373,-11.088 444.5312,-13.9316 454.2829,-18.0733 454.7373,-11.088"/>
</g>
<!-- Node17 -->
<g id="node18" class="node">
<title>Node17</title>
<polygon fill="none" stroke="#bfbfbf" points="791,-.5 791,-19.5 907,-19.5 907,-.5 791,-.5"/>
<text text-anchor="middle" x="849" y="-7.5" font-family="Helvetica,sans-Serif" font-size="10.00" fill="#000000">deal.II/dofs/dof_tools.h</text>
</g>
<!-- Node14&#45;&gt;Node17 -->
<g id="edge20" class="edge">
<title>Node14&#45;&gt;Node17</title>
<path fill="none" stroke="#191970" d="M982.3231,-56.3733C955.6672,-47.1016 915.1762,-33.0178 885.8116,-22.804"/>
<polygon fill="#191970" stroke="#191970" points="886.9105,-19.4807 876.3157,-19.5011 884.6109,-26.0921 886.9105,-19.4807"/>
</g>
<!-- Node18 -->
<g id="node19" class="node">
<title>Node18</title>
<polygon fill="none" stroke="#bfbfbf" points="600.5,-.5 600.5,-19.5 703.5,-19.5 703.5,-.5 600.5,-.5"/>
<text text-anchor="middle" x="652" y="-7.5" font-family="Helvetica,sans-Serif" font-size="10.00" fill="#000000">deal.II/fe/mapping.h</text>
</g>
<!-- Node14&#45;&gt;Node18 -->
<g id="edge21" class="edge">
<title>Node14&#45;&gt;Node18</title>
<path fill="none" stroke="#191970" d="M950.4817,-56.6899C884.858,-46.4247 779.8038,-29.9917 713.4271,-19.6087"/>
<polygon fill="#191970" stroke="#191970" points="713.942,-16.1468 703.5212,-18.0592 712.8601,-23.0627 713.942,-16.1468"/>
</g>
<!-- Node19&#45;&gt;Node11 -->
<g id="edge25" class="edge">
<title>Node19&#45;&gt;Node11</title>
<path fill="none" stroke="#191970" d="M672.2637,-181.023C729.2078,-169.1516 835.5697,-146.9778 891.8573,-135.2433"/>
<polygon fill="#191970" stroke="#191970" points="892.6863,-138.6458 901.7615,-133.1785 891.2576,-131.7932 892.6863,-138.6458"/>
</g>
<!-- Node20 -->
<g id="node21" class="node">
<title>Node20</title>
<g id="a_node21"><a xlink:href="debug__tools_8h.html" target="_top" xlink:title="This file includes a bunch of helper functions for printing out and visualizing information about gri...">
<polygon fill="none" stroke="#000000" points="554.5,-118 554.5,-137 631.5,-137 631.5,-118 554.5,-118"/>
<text text-anchor="middle" x="593" y="-125" font-family="Helvetica,sans-Serif" font-size="10.00" fill="#000000">debug_tools.h</text>
</a>
</g>
</g>
<!-- Node19&#45;&gt;Node20 -->
<g id="edge26" class="edge">
<title>Node19&#45;&gt;Node20</title>
<path fill="none" stroke="#191970" d="M627.5938,-179.3906C621.6114,-170.417 612.5253,-156.7879 605.1661,-145.7491"/>
<polygon fill="#191970" stroke="#191970" points="607.9558,-143.6239 599.4966,-137.2449 602.1314,-147.5068 607.9558,-143.6239"/>
</g>
<!-- Node23 -->
<g id="node24" class="node">
<title>Node23</title>
<g id="a_node24"><a xlink:href="tree_8h.html" target="_top" xlink:title="Implementation of the classes for binary tree node, general tree node and functions for manipulating ...">
<polygon fill="none" stroke="#000000" points="367.5,-118 367.5,-137 408.5,-137 408.5,-118 367.5,-118"/>
<text text-anchor="middle" x="388" y="-125" font-family="Helvetica,sans-Serif" font-size="10.00" fill="#000000">tree.h</text>
</a>
</g>
</g>
<!-- Node19&#45;&gt;Node23 -->
<g id="edge34" class="edge">
<title>Node19&#45;&gt;Node23</title>
<path fill="none" stroke="#191970" d="M595.8324,-179.4581C547.0036,-167.2509 463.3981,-146.3495 418.5518,-135.138"/>
<polygon fill="#191970" stroke="#191970" points="419.3626,-131.733 408.8122,-132.7031 417.6648,-138.524 419.3626,-131.733"/>
</g>
<!-- Node20&#45;&gt;Node1 -->
<g id="edge32" class="edge">
<title>Node20&#45;&gt;Node1</title>
<path fill="none" stroke="#191970" d="M554.477,-124.1476C446.2398,-114.6765 142.6813,-87.74 64.2506,-75.7671"/>
<polygon fill="#191970" stroke="#191970" points="64.4504,-72.2516 54.0086,-74.0459 63.2902,-79.1548 64.4504,-72.2516"/>
</g>
<!-- Node20&#45;&gt;Node7 -->
<g id="edge33" class="edge">
<title>Node20&#45;&gt;Node7</title>
<path fill="none" stroke="#191970" d="M631.6286,-118.4302C673.6563,-108.4578 742.7721,-91.7527 802,-76 803.4505,-75.6142 804.933,-75.214 806.4293,-74.8052"/>
<polygon fill="#191970" stroke="#191970" points="807.6157,-78.1079 816.3066,-72.0483 805.7338,-71.3656 807.6157,-78.1079"/>
</g>
<!-- Node20&#45;&gt;Node16 -->
<g id="edge27" class="edge">
<title>Node20&#45;&gt;Node16</title>
<path fill="none" stroke="#191970" d="M554.4351,-120.0469C498.952,-108.9724 402.0216,-88.1737 391,-76 379.8433,-63.677 378.0494,-44.4432 378.6289,-29.9116"/>
<polygon fill="#191970" stroke="#191970" points="382.1207,-30.1527 379.4189,-19.9081 375.1424,-29.6015 382.1207,-30.1527"/>
</g>
<!-- Node20&#45;&gt;Node17 -->
<g id="edge28" class="edge">
<title>Node20&#45;&gt;Node17</title>
<path fill="none" stroke="#191970" d="M631.7896,-120.8505C668.6433,-113.4695 724.8327,-99.4016 769,-76 793.6582,-62.9351 817.7814,-41.4992 832.9796,-26.6165"/>
<polygon fill="#191970" stroke="#191970" points="835.4843,-29.0615 840.0694,-19.5102 830.5287,-24.1175 835.4843,-29.0615"/>
</g>
<!-- Node20&#45;&gt;Node18 -->
<g id="edge31" class="edge">
<title>Node20&#45;&gt;Node18</title>
<path fill="none" stroke="#191970" d="M554.4089,-126.0352C487.2308,-122.1144 359.8836,-107.8113 403,-56 426.3555,-27.9346 524.2414,-16.9233 590.1015,-12.6507"/>
<polygon fill="#191970" stroke="#191970" points="590.613,-16.1261 600.3803,-12.0213 590.185,-9.1392 590.613,-16.1261"/>
</g>
<!-- Node21 -->
<g id="node22" class="node">
<title>Node21</title>
<polygon fill="none" stroke="#bfbfbf" points="556,-56.5 556,-75.5 630,-75.5 630,-56.5 556,-56.5"/>
<text text-anchor="middle" x="593" y="-63.5" font-family="Helvetica,sans-Serif" font-size="10.00" fill="#000000">deal.II/fe/fe.h</text>
</g>
<!-- Node20&#45;&gt;Node21 -->
<g id="edge29" class="edge">
<title>Node20&#45;&gt;Node21</title>
<path fill="none" stroke="#191970" d="M593,-117.8906C593,-109.3657 593,-96.6392 593,-85.9235"/>
<polygon fill="#191970" stroke="#191970" points="596.5001,-85.7448 593,-75.7449 589.5001,-85.7449 596.5001,-85.7448"/>
</g>
<!-- Node22 -->
<g id="node23" class="node">
<title>Node22</title>
<polygon fill="none" stroke="#bfbfbf" points="648,-56.5 648,-75.5 760,-75.5 760,-56.5 648,-56.5"/>
<text text-anchor="middle" x="704" y="-63.5" font-family="Helvetica,sans-Serif" font-size="10.00" fill="#000000">deal.II/fe/fe_system.h</text>
</g>
<!-- Node20&#45;&gt;Node22 -->
<g id="edge30" class="edge">
<title>Node20&#45;&gt;Node22</title>
<path fill="none" stroke="#191970" d="M610.3438,-117.8906C628.4273,-107.8713 656.9859,-92.0483 677.8165,-80.5071"/>
<polygon fill="#191970" stroke="#191970" points="679.7271,-83.4498 686.778,-75.5419 676.3346,-77.3268 679.7271,-83.4498"/>
</g>
<!-- Node23&#45;&gt;Node1 -->
<g id="edge40" class="edge">
<title>Node23&#45;&gt;Node1</title>
<path fill="none" stroke="#191970" d="M367.484,-123.3877C350.9218,-120.1246 327.0016,-115.5391 306,-112 201.4934,-94.3888 171.5426,-98.3926 63.9923,-75.9986"/>
<polygon fill="#191970" stroke="#191970" points="64.5454,-72.5383 54.0381,-73.8975 63.0997,-79.3874 64.5454,-72.5383"/>
</g>
<!-- Node23&#45;&gt;Node4 -->
<g id="edge36" class="edge">
<title>Node23&#45;&gt;Node4</title>
<path fill="none" stroke="#191970" d="M408.6442,-125.4605C494.4364,-116.9598 820.444,-84.3993 866,-76 866.1006,-75.9814 866.2014,-75.9628 866.3023,-75.944"/>
<polygon fill="#191970" stroke="#191970" points="866.8338,-79.4094 875.8844,-73.9013 865.3744,-72.5632 866.8338,-79.4094"/>
</g>
<!-- Node23&#45;&gt;Node9 -->
<g id="edge42" class="edge">
<title>Node23&#45;&gt;Node9</title>
<path fill="none" stroke="#191970" d="M408.5549,-125.2658C438.53,-122.0542 496.0049,-116.0722 545,-112 781.6128,-92.3341 849.2141,-139.4774 1078,-76 1096.7706,-70.792 1099.1807,-63.8694 1117,-56 1147.4278,-42.5624 1183.1239,-29.5004 1208.2003,-20.7505"/>
<polygon fill="#191970" stroke="#191970" points="1209.6119,-23.9658 1217.9189,-17.3897 1207.3241,-17.3502 1209.6119,-23.9658"/>
</g>
<!-- Node24 -->
<g id="node25" class="node">
<title>Node24</title>
<polygon fill="none" stroke="#bfbfbf" points="412,-56.5 412,-75.5 538,-75.5 538,-56.5 412,-56.5"/>
<text text-anchor="middle" x="475" y="-63.5" font-family="Helvetica,sans-Serif" font-size="10.00" fill="#000000">deal.II/base/exceptions.h</text>
</g>
<!-- Node23&#45;&gt;Node24 -->
<g id="edge35" class="edge">
<title>Node23&#45;&gt;Node24</title>
<path fill="none" stroke="#191970" d="M401.5938,-117.8906C415.3843,-108.1421 436.9472,-92.8994 453.141,-81.4521"/>
<polygon fill="#191970" stroke="#191970" points="455.3563,-84.1723 461.5017,-75.5419 451.3156,-78.4563 455.3563,-84.1723"/>
</g>
<!-- Node25 -->
<g id="node26" class="node">
<title>Node25</title>
<polygon fill="none" stroke="#bfbfbf" points="72,-56.5 72,-75.5 110,-75.5 110,-56.5 72,-56.5"/>
<text text-anchor="middle" x="91" y="-63.5" font-family="Helvetica,sans-Serif" font-size="10.00" fill="#000000">array</text>
</g>
<!-- Node23&#45;&gt;Node25 -->
<g id="edge37" class="edge">
<title>Node23&#45;&gt;Node25</title>
<path fill="none" stroke="#191970" d="M367.4307,-123.6057C312.092,-113.1236 161.8309,-84.6269 120.0691,-75.5995"/>
<polygon fill="#191970" stroke="#191970" points="120.6902,-72.1504 110.1557,-73.2798 119.0952,-78.9663 120.6902,-72.1504"/>
</g>
<!-- Node26 -->
<g id="node27" class="node">
<title>Node26</title>
<polygon fill="none" stroke="#bfbfbf" points="128.5,-56.5 128.5,-75.5 187.5,-75.5 187.5,-56.5 128.5,-56.5"/>
<text text-anchor="middle" x="158" y="-63.5" font-family="Helvetica,sans-Serif" font-size="10.00" fill="#000000">exception</text>
</g>
<!-- Node23&#45;&gt;Node26 -->
<g id="edge38" class="edge">
<title>Node23&#45;&gt;Node26</title>
<path fill="none" stroke="#191970" d="M367.1834,-121.9338C328.8828,-111.6926 246.6716,-89.71 197.4878,-76.5587"/>
<polygon fill="#191970" stroke="#191970" points="198.0863,-73.0958 187.5216,-73.8938 196.278,-79.8583 198.0863,-73.0958"/>
</g>
<!-- Node27 -->
<g id="node28" class="node">
<title>Node27</title>
<polygon fill="none" stroke="#bfbfbf" points="205.5,-56.5 205.5,-75.5 264.5,-75.5 264.5,-56.5 205.5,-56.5"/>
<text text-anchor="middle" x="235" y="-63.5" font-family="Helvetica,sans-Serif" font-size="10.00" fill="#000000">functional</text>
</g>
<!-- Node23&#45;&gt;Node27 -->
<g id="edge39" class="edge">
<title>Node23&#45;&gt;Node27</title>
<path fill="none" stroke="#191970" d="M367.3657,-119.2058C341.8995,-108.9694 298.2724,-91.433 268.1022,-79.3058"/>
<polygon fill="#191970" stroke="#191970" points="269.4035,-76.0567 258.8196,-75.5746 266.7927,-82.5517 269.4035,-76.0567"/>
</g>
<!-- Node28 -->
<g id="node29" class="node">
<title>Node28</title>
<polygon fill="none" stroke="#bfbfbf" points="282.5,-56.5 282.5,-75.5 317.5,-75.5 317.5,-56.5 282.5,-56.5"/>
<text text-anchor="middle" x="300" y="-63.5" font-family="Helvetica,sans-Serif" font-size="10.00" fill="#000000">new</text>
</g>
<!-- Node23&#45;&gt;Node28 -->
<g id="edge41" class="edge">
<title>Node23&#45;&gt;Node28</title>
<path fill="none" stroke="#191970" d="M374.25,-117.8906C360.3009,-108.1421 338.4902,-92.8994 322.1103,-81.4521"/>
<polygon fill="#191970" stroke="#191970" points="323.8551,-78.4015 313.6534,-75.5419 319.8452,-84.1392 323.8551,-78.4015"/>
</g>
<!-- Node29&#45;&gt;Node10 -->
<g id="edge44" class="edge">
<title>Node29&#45;&gt;Node10</title>
<path fill="none" stroke="#191970" d="M622,-302.3906C631.7119,-293.0581 646.6639,-278.6902 658.3741,-267.4374"/>
<polygon fill="#191970" stroke="#191970" points="661.0736,-269.6974 665.859,-260.2449 656.2234,-264.65 661.0736,-269.6974"/>
</g>
<!-- Node29&#45;&gt;Node19 -->
<g id="edge45" class="edge">
<title>Node29&#45;&gt;Node19</title>
<path fill="none" stroke="#191970" d="M613.6003,-302.018C615.9757,-287.3222 620.6255,-259.0077 625,-235 626.5845,-226.3038 628.4448,-216.7054 630.0615,-208.5362"/>
<polygon fill="#191970" stroke="#191970" points="633.5393,-208.9931 632.0663,-198.5011 626.6749,-207.6216 633.5393,-208.9931"/>
</g>
<!-- Node29&#45;&gt;Node20 -->
<g id="edge46" class="edge">
<title>Node29&#45;&gt;Node20</title>
<path fill="none" stroke="#191970" d="M608.5435,-302.4258C601.0673,-280.7 584.2766,-225.9103 587,-179 587.6075,-168.5366 588.9036,-156.9374 590.1362,-147.4002"/>
<polygon fill="#191970" stroke="#191970" points="593.6243,-147.7247 591.5091,-137.3432 586.6886,-146.7779 593.6243,-147.7247"/>
</g>
<!-- Node29&#45;&gt;Node23 -->
<g id="edge64" class="edge">
<title>Node29&#45;&gt;Node23</title>
<path fill="none" stroke="#191970" d="M600.2722,-302.3402C563.9077,-272.3883 452.7841,-180.8601 407.5076,-143.5677"/>
<polygon fill="#191970" stroke="#191970" points="409.5558,-140.7203 399.6117,-137.0641 405.1054,-146.1234 409.5558,-140.7203"/>
</g>
<!-- Node29&#45;&gt;Node30 -->
<g id="edge47" class="edge">
<title>Node29&#45;&gt;Node30</title>
<path fill="none" stroke="#191970" d="M664.2691,-308.5173C824.7963,-297.8213 1309.9135,-265.4976 1477.3994,-254.338"/>
<polygon fill="#191970" stroke="#191970" points="1477.7507,-257.8224 1487.4958,-253.6652 1477.2852,-250.8379 1477.7507,-257.8224"/>
</g>
<!-- Node30&#45;&gt;Node6 -->
<g id="edge49" class="edge">
<title>Node30&#45;&gt;Node6</title>
<path fill="none" stroke="#191970" d="M1582.7662,-247.3704C1660.4587,-241.6568 1818.7279,-227.4157 1950,-199 1951.4577,-198.6845 1952.9443,-198.3319 1954.4392,-197.9529"/>
<polygon fill="#191970" stroke="#191970" points="1955.5467,-201.2769 1964.2113,-195.1798 1953.6357,-194.5428 1955.5467,-201.2769"/>
</g>
<!-- Node30&#45;&gt;Node9 -->
<g id="edge50" class="edge">
<title>Node30&#45;&gt;Node9</title>
<path fill="none" stroke="#191970" d="M1582.7484,-242.3043C1708.446,-220.5087 2039.9188,-161.5179 2055,-143 2063.7005,-132.3169 2064.1174,-122.3296 2055,-112 2002.1235,-52.0934 1417.0696,-18.8973 1272.269,-11.5626"/>
<polygon fill="#191970" stroke="#191970" points="1272.4029,-8.065 1262.2404,-11.0605 1272.0529,-15.0563 1272.4029,-8.065"/>
</g>
<!-- Node31 -->
<g id="node32" class="node">
<title>Node31</title>
<polygon fill="none" stroke="#bfbfbf" points="1515,-179.5 1515,-198.5 1555,-198.5 1555,-179.5 1515,-179.5"/>
<text text-anchor="middle" x="1535" y="-186.5" font-family="Helvetica,sans-Serif" font-size="10.00" fill="#000000">limits</text>
</g>
<!-- Node30&#45;&gt;Node31 -->
<g id="edge48" class="edge">
<title>Node30&#45;&gt;Node31</title>
<path fill="none" stroke="#191970" d="M1535,-235.2977C1535,-227.3834 1535,-217.6043 1535,-209.0759"/>
<polygon fill="#191970" stroke="#191970" points="1538.5001,-208.8469 1535,-198.8469 1531.5001,-208.847 1538.5001,-208.8469"/>
</g>
<!-- Node32 -->
<g id="node33" class="node">
<title>Node32</title>
<g id="a_node33"><a xlink:href="general__exceptions_8h.html" target="_top" xlink:title="Definition of self&#45;defined general exceptions. ">
<polygon fill="none" stroke="#000000" points="850.5,-179.5 850.5,-198.5 959.5,-198.5 959.5,-179.5 850.5,-179.5"/>
<text text-anchor="middle" x="905" y="-186.5" font-family="Helvetica,sans-Serif" font-size="10.00" fill="#000000">general_exceptions.h</text>
</a>
</g>
</g>
<!-- Node30&#45;&gt;Node32 -->
<g id="edge51" class="edge">
<title>Node30&#45;&gt;Node32</title>
<path fill="none" stroke="#191970" d="M1487.3894,-245.8523C1375.7508,-234.9542 1096.9838,-207.7413 969.934,-195.3388"/>
<polygon fill="#191970" stroke="#191970" points="970.2449,-191.8526 959.9521,-194.3644 969.5647,-198.8195 970.2449,-191.8526"/>
</g>
<!-- Node33 -->
<g id="node34" class="node">
<title>Node33</title>
<g id="a_node34"><a xlink:href="lapack__helpers_8h.html" target="_top" xlink:title="Exposes LAPACK helper functions defined in lapack_full_matrix.cc and define new ones by following the...">
<polygon fill="none" stroke="#000000" points="1639,-179.5 1639,-198.5 1729,-198.5 1729,-179.5 1639,-179.5"/>
<text text-anchor="middle" x="1684" y="-186.5" font-family="Helvetica,sans-Serif" font-size="10.00" fill="#000000">lapack_helpers.h</text>
</a>
</g>
</g>
<!-- Node30&#45;&gt;Node33 -->
<g id="edge53" class="edge">
<title>Node30&#45;&gt;Node33</title>
<path fill="none" stroke="#191970" d="M1571.4495,-235.4554C1595.8744,-225.374 1627.7581,-212.2139 1651.3521,-202.4755"/>
<polygon fill="#191970" stroke="#191970" points="1653.0021,-205.5809 1660.9103,-198.5303 1650.3313,-199.1104 1653.0021,-205.5809"/>
</g>
<!-- Node32&#45;&gt;Node24 -->
<g id="edge52" class="edge">
<title>Node32&#45;&gt;Node24</title>
<path fill="none" stroke="#191970" d="M872.3956,-179.4023C822.4234,-164.7201 723.8639,-135.8734 640,-112 599.3049,-100.4154 552.8771,-87.4986 519.6596,-78.3089"/>
<polygon fill="#191970" stroke="#191970" points="520.3669,-74.8732 509.7958,-75.5822 518.5017,-81.6202 520.3669,-74.8732"/>
</g>
<!-- Node33&#45;&gt;Node3 -->
<g id="edge57" class="edge">
<title>Node33&#45;&gt;Node3</title>
<path fill="none" stroke="#191970" d="M1638.9623,-180.9466C1634.256,-180.2308 1629.5362,-179.5648 1625,-179 1425.8982,-154.2118 1373.2772,-173.6945 1175,-143 1168.3412,-141.9692 1161.362,-140.6395 1154.5273,-139.1929"/>
<polygon fill="#191970" stroke="#191970" points="1155.1915,-135.7553 1144.6713,-137.0109 1153.6784,-142.5898 1155.1915,-135.7553"/>
</g>
<!-- Node34 -->
<g id="node35" class="node">
<title>Node34</title>
<polygon fill="none" stroke="#bfbfbf" points="1184,-118 1184,-137 1300,-137 1300,-118 1184,-118"/>
<text text-anchor="middle" x="1242" y="-125" font-family="Helvetica,sans-Serif" font-size="10.00" fill="#000000">deal.II/base/numbers.h</text>
</g>
<!-- Node33&#45;&gt;Node34 -->
<g id="edge54" class="edge">
<title>Node33&#45;&gt;Node34</title>
<path fill="none" stroke="#191970" d="M1638.9414,-181.1032C1634.2392,-180.3569 1629.5261,-179.6409 1625,-179 1485.0433,-159.182 1448.3059,-166.9687 1309,-143 1302.7455,-141.9239 1296.1997,-140.6263 1289.7532,-139.2458"/>
<polygon fill="#191970" stroke="#191970" points="1290.2817,-135.778 1279.7609,-137.0278 1288.7648,-142.6117 1290.2817,-135.778"/>
</g>
<!-- Node35 -->
<g id="node36" class="node">
<title>Node35</title>
<polygon fill="none" stroke="#bfbfbf" points="1318,-112.5 1318,-142.5 1446,-142.5 1446,-112.5 1318,-112.5"/>
<text text-anchor="start" x="1326" y="-130.5" font-family="Helvetica,sans-Serif" font-size="10.00" fill="#000000">deal.II/lac/blas_extension</text>
<text text-anchor="middle" x="1382" y="-119.5" font-family="Helvetica,sans-Serif" font-size="10.00" fill="#000000">_templates.h</text>
</g>
<!-- Node33&#45;&gt;Node35 -->
<g id="edge55" class="edge">
<title>Node33&#45;&gt;Node35</title>
<path fill="none" stroke="#191970" d="M1638.7816,-180.0691C1594.644,-171.3174 1525.3159,-157.4809 1455.8814,-143.1707"/>
<polygon fill="#191970" stroke="#191970" points="1456.5868,-139.7426 1446.0857,-141.1488 1455.1718,-146.5981 1456.5868,-139.7426"/>
</g>
<!-- Node36 -->
<g id="node37" class="node">
<title>Node36</title>
<polygon fill="none" stroke="#bfbfbf" points="1810,-118 1810,-137 1936,-137 1936,-118 1810,-118"/>
<text text-anchor="middle" x="1873" y="-125" font-family="Helvetica,sans-Serif" font-size="10.00" fill="#000000">deal.II/lac/block_vector.h</text>
</g>
<!-- Node33&#45;&gt;Node36 -->
<g id="edge56" class="edge">
<title>Node33&#45;&gt;Node36</title>
<path fill="none" stroke="#191970" d="M1713.5313,-179.3906C1745.9866,-168.8298 1798.2581,-151.8208 1834.0486,-140.1747"/>
<polygon fill="#191970" stroke="#191970" points="1835.2499,-143.4645 1843.6761,-137.0419 1833.0839,-136.808 1835.2499,-143.4645"/>
</g>
<!-- Node37 -->
<g id="node38" class="node">
<title>Node37</title>
<polygon fill="none" stroke="#bfbfbf" points="2211.5,-112.5 2211.5,-142.5 2302.5,-142.5 2302.5,-112.5 2211.5,-112.5"/>
<text text-anchor="start" x="2219.5" y="-130.5" font-family="Helvetica,sans-Serif" font-size="10.00" fill="#000000">deal.II/lac/lapack</text>
<text text-anchor="middle" x="2257" y="-119.5" font-family="Helvetica,sans-Serif" font-size="10.00" fill="#000000">_full_matrix.h</text>
</g>
<!-- Node33&#45;&gt;Node37 -->
<g id="edge58" class="edge">
<title>Node33&#45;&gt;Node37</title>
<path fill="none" stroke="#191970" d="M1729.1698,-187.8945C1818.1274,-185.0933 2022.2563,-175.5777 2201.6078,-143.0469"/>
<polygon fill="#191970" stroke="#191970" points="2202.281,-146.4819 2211.4813,-141.2279 2201.0126,-139.5977 2202.281,-146.4819"/>
</g>
<!-- Node38 -->
<g id="node39" class="node">
<title>Node38</title>
<polygon fill="none" stroke="#bfbfbf" points="1954.5,-112.5 1954.5,-142.5 2045.5,-142.5 2045.5,-112.5 1954.5,-112.5"/>
<text text-anchor="start" x="1962.5" y="-130.5" font-family="Helvetica,sans-Serif" font-size="10.00" fill="#000000">deal.II/lac/lapack</text>
<text text-anchor="middle" x="2000" y="-119.5" font-family="Helvetica,sans-Serif" font-size="10.00" fill="#000000">_support.h</text>
</g>
<!-- Node33&#45;&gt;Node38 -->
<g id="edge59" class="edge">
<title>Node33&#45;&gt;Node38</title>
<path fill="none" stroke="#191970" d="M1729.0727,-182.4618C1779.2765,-174.8677 1863.0045,-161.2772 1944.5415,-142.9665"/>
<polygon fill="#191970" stroke="#191970" points="1945.4959,-146.339 1954.4718,-140.7102 1943.9448,-139.513 1945.4959,-146.339"/>
</g>
<!-- Node39 -->
<g id="node40" class="node">
<title>Node39</title>
<polygon fill="none" stroke="#bfbfbf" points="2102.5,-112.5 2102.5,-142.5 2193.5,-142.5 2193.5,-112.5 2102.5,-112.5"/>
<text text-anchor="start" x="2110.5" y="-130.5" font-family="Helvetica,sans-Serif" font-size="10.00" fill="#000000">deal.II/lac/lapack</text>
<text text-anchor="middle" x="2148" y="-119.5" font-family="Helvetica,sans-Serif" font-size="10.00" fill="#000000">_templates.h</text>
</g>
<!-- Node33&#45;&gt;Node39 -->
<g id="edge60" class="edge">
<title>Node33&#45;&gt;Node39</title>
<path fill="none" stroke="#191970" d="M1729.1984,-184.0126C1799.1444,-176.1553 1937.7824,-160.0274 2055,-143 2067.0223,-141.2536 2079.8906,-139.217 2092.1037,-137.2053"/>
<polygon fill="#191970" stroke="#191970" points="2092.8863,-140.6232 2102.1756,-135.5282 2091.7365,-133.7183 2092.8863,-140.6232"/>
</g>
<!-- Node40 -->
<g id="node41" class="node">
<title>Node40</title>
<polygon fill="none" stroke="#bfbfbf" points="1464,-112.5 1464,-142.5 1556,-142.5 1556,-112.5 1464,-112.5"/>
<text text-anchor="start" x="1472" y="-130.5" font-family="Helvetica,sans-Serif" font-size="10.00" fill="#000000">deal.II/lac/sparse</text>
<text text-anchor="middle" x="1510" y="-119.5" font-family="Helvetica,sans-Serif" font-size="10.00" fill="#000000">_matrix.h</text>
</g>
<!-- Node33&#45;&gt;Node40 -->
<g id="edge61" class="edge">
<title>Node33&#45;&gt;Node40</title>
<path fill="none" stroke="#191970" d="M1656.8125,-179.3906C1631.6284,-170.4893 1593.4841,-157.0073 1562.3882,-146.0165"/>
<polygon fill="#191970" stroke="#191970" points="1563.16,-142.5772 1552.5652,-142.5446 1560.8272,-149.1771 1563.16,-142.5772"/>
</g>
<!-- Node41 -->
<g id="node42" class="node">
<title>Node41</title>
<polygon fill="none" stroke="#bfbfbf" points="1574.5,-118 1574.5,-137 1675.5,-137 1675.5,-118 1574.5,-118"/>
<text text-anchor="middle" x="1625" y="-125" font-family="Helvetica,sans-Serif" font-size="10.00" fill="#000000">deal.II/lac/utilities.h</text>
</g>
<!-- Node33&#45;&gt;Node41 -->
<g id="edge62" class="edge">
<title>Node33&#45;&gt;Node41</title>
<path fill="none" stroke="#191970" d="M1674.7813,-179.3906C1665.9142,-170.1478 1652.3088,-155.966 1641.5611,-144.7628"/>
<polygon fill="#191970" stroke="#191970" points="1643.7973,-142.0381 1634.3487,-137.2449 1638.7459,-146.8841 1643.7973,-142.0381"/>
</g>
<!-- Node42 -->
<g id="node43" class="node">
<title>Node42</title>
<polygon fill="none" stroke="#bfbfbf" points="1694,-118 1694,-137 1792,-137 1792,-118 1694,-118"/>
<text text-anchor="middle" x="1743" y="-125" font-family="Helvetica,sans-Serif" font-size="10.00" fill="#000000">deal.II/lac/vector.h</text>
</g>
<!-- Node33&#45;&gt;Node42 -->
<g id="edge63" class="edge">
<title>Node33&#45;&gt;Node42</title>
<path fill="none" stroke="#191970" d="M1693.2188,-179.3906C1702.0858,-170.1478 1715.6912,-155.966 1726.4389,-144.7628"/>
<polygon fill="#191970" stroke="#191970" points="1729.2541,-146.8841 1733.6513,-137.2449 1724.2027,-142.0381 1729.2541,-146.8841"/>
</g>
<!-- Node43&#45;&gt;Node6 -->
<g id="edge67" class="edge">
<title>Node43&#45;&gt;Node6</title>
<path fill="none" stroke="#191970" d="M1074.7225,-247.3657C1246.4453,-236.3186 1820.3757,-199.3974 1954.0194,-190.8"/>
<polygon fill="#191970" stroke="#191970" points="1954.4733,-194.2781 1964.2279,-190.1433 1954.0238,-187.2926 1954.4733,-194.2781"/>
</g>
<!-- Node43&#45;&gt;Node9 -->
<g id="edge68" class="edge">
<title>Node43&#45;&gt;Node9</title>
<path fill="none" stroke="#191970" d="M1021.5939,-240.9192C1010.8843,-216.0365 986.7179,-148.7481 1020,-112 1077.4019,-48.6201 1141.4451,-128.4246 1209,-76 1223.647,-64.6335 1231.681,-44.6718 1235.8748,-29.6692"/>
<polygon fill="#191970" stroke="#191970" points="1239.3088,-30.3609 1238.2894,-19.8153 1232.5099,-28.6949 1239.3088,-30.3609"/>
</g>
<!-- Node43&#45;&gt;Node12 -->
<g id="edge66" class="edge">
<title>Node43&#45;&gt;Node12</title>
<path fill="none" stroke="#191970" d="M1023.5748,-240.8558C1017.9128,-215.8202 1006.7615,-148.1942 1041,-112 1042.8729,-110.0201 1176.5045,-88.6359 1258.1242,-75.7322"/>
<polygon fill="#191970" stroke="#191970" points="1258.9656,-79.1427 1268.297,-74.1252 1257.8734,-72.2285 1258.9656,-79.1427"/>
</g>
<!-- Node44&#45;&gt;Node3 -->
<g id="edge72" class="edge">
<title>Node44&#45;&gt;Node3</title>
<path fill="none" stroke="#191970" d="M1997.9917,-303.6745C1931.5735,-285.2047 1767.1547,-239.2481 1630,-199 1600.5896,-190.3695 1594.08,-184.8867 1564,-179 1393.6046,-145.6535 1346.4151,-170.63 1175,-143 1168.5798,-141.9651 1161.8584,-140.669 1155.2548,-139.2695"/>
<polygon fill="#191970" stroke="#191970" points="1155.5548,-135.7513 1145.0348,-137.0081 1154.0424,-142.586 1155.5548,-135.7513"/>
</g>
<!-- Node44&#45;&gt;Node6 -->
<g id="edge76" class="edge">
<title>Node44&#45;&gt;Node6</title>
<path fill="none" stroke="#191970" d="M2024.3905,-302.3484C2016.7991,-282.0499 1999.0625,-234.6235 1989.105,-207.9981"/>
<polygon fill="#191970" stroke="#191970" points="1992.374,-206.7472 1985.5928,-198.6068 1985.8175,-209.1992 1992.374,-206.7472"/>
</g>
<!-- Node44&#45;&gt;Node9 -->
<g id="edge77" class="edge">
<title>Node44&#45;&gt;Node9</title>
<path fill="none" stroke="#191970" d="M2058.2615,-307.7349C2141.717,-295.1307 2369,-254.767 2369,-189 2369,-189 2369,-189 2369,-127.5 2369,-70.803 1456.3742,-21.0755 1272.1738,-11.6162"/>
<polygon fill="#191970" stroke="#191970" points="1272.2115,-8.1137 1262.046,-11.0991 1271.8545,-15.1045 1272.2115,-8.1137"/>
</g>
<!-- Node44&#45;&gt;Node12 -->
<g id="edge71" class="edge">
<title>Node44&#45;&gt;Node12</title>
<path fill="none" stroke="#191970" d="M2058.1089,-304.5014C2147.5824,-280.9451 2400.2824,-204.471 2312,-112 2279.8062,-78.2787 1593.631,-68.7008 1381.7545,-66.5422"/>
<polygon fill="#191970" stroke="#191970" points="1381.7657,-63.0422 1371.7312,-66.442 1381.6957,-70.0419 1381.7657,-63.0422"/>
</g>
<!-- Node44&#45;&gt;Node30 -->
<g id="edge78" class="edge">
<title>Node44&#45;&gt;Node30</title>
<path fill="none" stroke="#191970" d="M1997.7523,-310.2194C1927.1408,-305.7481 1746.1131,-292.4648 1597,-266 1595.532,-265.7395 1594.0473,-265.4636 1592.5517,-265.1747"/>
<polygon fill="#191970" stroke="#191970" points="1593.087,-261.7112 1582.584,-263.1035 1591.6628,-268.5648 1593.087,-261.7112"/>
</g>
<!-- Node44&#45;&gt;Node37 -->
<g id="edge73" class="edge">
<title>Node44&#45;&gt;Node37</title>
<path fill="none" stroke="#191970" d="M2039.9896,-302.3402C2075.3968,-273.8135 2180.1312,-189.4314 2230.0074,-149.2473"/>
<polygon fill="#191970" stroke="#191970" points="2232.4975,-151.7357 2238.0888,-142.7363 2228.1058,-146.2848 2232.4975,-151.7357"/>
</g>
<!-- Node44&#45;&gt;Node38 -->
<g id="edge74" class="edge">
<title>Node44&#45;&gt;Node38</title>
<path fill="none" stroke="#191970" d="M2026.7203,-302.3055C2023.7969,-280.3334 2016.3148,-225.0723 2009,-179 2007.639,-170.428 2006.0391,-161.0742 2004.5685,-152.7186"/>
<polygon fill="#191970" stroke="#191970" points="2008.0018,-152.0343 2002.8028,-142.8028 2001.1102,-153.2616 2008.0018,-152.0343"/>
</g>
<!-- Node44&#45;&gt;Node39 -->
<g id="edge75" class="edge">
<title>Node44&#45;&gt;Node39</title>
<path fill="none" stroke="#191970" d="M2034.2828,-302.3402C2052.5301,-274.285 2105.915,-192.2056 2132.5361,-151.2757"/>
<polygon fill="#191970" stroke="#191970" points="2135.5719,-153.0275 2138.0902,-142.7363 2129.7039,-149.2109 2135.5719,-153.0275"/>
</g>
</g>
</svg>
