<?xml version="1.0" encoding="UTF-8" standalone="no"?>
<!DOCTYPE svg PUBLIC "-//W3C//DTD SVG 1.1//EN"
 "http://www.w3.org/Graphics/SVG/1.1/DTD/svg11.dtd">
<!-- Generated by graphviz version 2.40.1 (20161225.0304)
 -->
<!-- Title: /home/jihuan/Projects/deal.ii/program/dealii&#45;9.1.1/examples/laplace&#45;bem/tests/hmatrix&#45;rkmatrix&#45;mmult/hmatrix&#45;rkmatrix&#45;mmult.cc Pages: 1 -->
<svg width="2361pt" height="486pt"
 viewBox="0.00 0.00 2360.50 486.00" xmlns="http://www.w3.org/2000/svg" xmlns:xlink="http://www.w3.org/1999/xlink">
<g id="graph0" class="graph" transform="scale(1 1) rotate(0) translate(4 482)">
<title>/home/jihuan/Projects/deal.ii/program/dealii&#45;9.1.1/examples/laplace&#45;bem/tests/hmatrix&#45;rkmatrix&#45;mmult/hmatrix&#45;rkmatrix&#45;mmult.cc</title>
<!-- Node0 -->
<g id="node1" class="node">
<title>Node0</title>
<polygon fill="#bfbfbf" stroke="#000000" points="730.5,-414.5 730.5,-477.5 894.5,-477.5 894.5,-414.5 730.5,-414.5"/>
<text text-anchor="start" x="738.5" y="-465.5" font-family="Helvetica,sans-Serif" font-size="10.00" fill="#000000">/home/jihuan/Projects</text>
<text text-anchor="start" x="738.5" y="-454.5" font-family="Helvetica,sans-Serif" font-size="10.00" fill="#000000">/deal.ii/program/dealii</text>
<text text-anchor="start" x="738.5" y="-443.5" font-family="Helvetica,sans-Serif" font-size="10.00" fill="#000000">&#45;9.1.1/examples/laplace</text>
<text text-anchor="start" x="738.5" y="-432.5" font-family="Helvetica,sans-Serif" font-size="10.00" fill="#000000">&#45;bem/tests/hmatrix&#45;rkmatrix</text>
<text text-anchor="middle" x="812.5" y="-421.5" font-family="Helvetica,sans-Serif" font-size="10.00" fill="#000000">&#45;mmult/hmatrix&#45;rkmatrix&#45;mmult.cc</text>
</g>
<!-- Node1 -->
<g id="node2" class="node">
<title>Node1</title>
<polygon fill="none" stroke="#bfbfbf" points="749.5,-56.5 749.5,-75.5 803.5,-75.5 803.5,-56.5 749.5,-56.5"/>
<text text-anchor="middle" x="776.5" y="-63.5" font-family="Helvetica,sans-Serif" font-size="10.00" fill="#000000">iostream</text>
</g>
<!-- Node0&#45;&gt;Node1 -->
<g id="edge1" class="edge">
<title>Node0&#45;&gt;Node1</title>
<path fill="none" stroke="#191970" d="M834.5377,-414.2872C850.5775,-388.0934 869.5,-349.2897 869.5,-312 869.5,-312 869.5,-312 869.5,-250.5 869.5,-196.4214 836.6262,-191.3986 812.5,-143 802.671,-123.2824 792.0623,-100.3744 784.9264,-84.7035"/>
<polygon fill="#191970" stroke="#191970" points="788.097,-83.2206 780.7816,-75.5568 781.7211,-86.1099 788.097,-83.2206"/>
</g>
<!-- Node2 -->
<g id="node3" class="node">
<title>Node2</title>
<g id="a_node3"><a xlink:href="hmatrix_8h.html" target="_top" xlink:title="Definition of hierarchical matrix. ">
<polygon fill="none" stroke="#000000" points="727,-358.5 727,-377.5 784,-377.5 784,-358.5 727,-358.5"/>
<text text-anchor="middle" x="755.5" y="-365.5" font-family="Helvetica,sans-Serif" font-size="10.00" fill="#000000">hmatrix.h</text>
</a>
</g>
</g>
<!-- Node0&#45;&gt;Node2 -->
<g id="edge2" class="edge">
<title>Node0&#45;&gt;Node2</title>
<path fill="none" stroke="#191970" d="M789.3159,-414.2744C782.2539,-404.6106 774.7404,-394.3289 768.5937,-385.9177"/>
<polygon fill="#191970" stroke="#191970" points="771.2726,-383.6514 762.5465,-377.6426 765.6208,-387.7816 771.2726,-383.6514"/>
</g>
<!-- Node2&#45;&gt;Node1 -->
<g id="edge7" class="edge">
<title>Node2&#45;&gt;Node1</title>
<path fill="none" stroke="#191970" d="M755.5,-358.2511C755.5,-338.1182 755.5,-290.4826 755.5,-250.5 755.5,-250.5 755.5,-250.5 755.5,-189 755.5,-151.9915 764.8519,-109.6015 771.0741,-85.4932"/>
<polygon fill="#191970" stroke="#191970" points="774.4672,-86.3526 773.6678,-75.7879 767.7045,-84.5452 774.4672,-86.3526"/>
</g>
<!-- Node3 -->
<g id="node4" class="node">
<title>Node3</title>
<polygon fill="none" stroke="#bfbfbf" points="339.5,-302.5 339.5,-321.5 461.5,-321.5 461.5,-302.5 339.5,-302.5"/>
<text text-anchor="middle" x="400.5" y="-309.5" font-family="Helvetica,sans-Serif" font-size="10.00" fill="#000000">deal.II/base/logstream.h</text>
</g>
<!-- Node2&#45;&gt;Node3 -->
<g id="edge3" class="edge">
<title>Node2&#45;&gt;Node3</title>
<path fill="none" stroke="#191970" d="M726.7496,-363.4647C671.5382,-354.7553 549.2268,-335.4611 471.0497,-323.129"/>
<polygon fill="#191970" stroke="#191970" points="471.2199,-319.6126 460.7967,-321.5116 470.1291,-326.5271 471.2199,-319.6126"/>
</g>
<!-- Node4 -->
<g id="node5" class="node">
<title>Node4</title>
<polygon fill="none" stroke="#bfbfbf" points="881.5,-118 881.5,-137 997.5,-137 997.5,-118 881.5,-118"/>
<text text-anchor="middle" x="939.5" y="-125" font-family="Helvetica,sans-Serif" font-size="10.00" fill="#000000">deal.II/lac/full_matrix.h</text>
</g>
<!-- Node2&#45;&gt;Node4 -->
<g id="edge4" class="edge">
<title>Node2&#45;&gt;Node4</title>
<path fill="none" stroke="#191970" d="M762.9409,-358.2742C790.8588,-321.7838 889.6233,-192.6921 925.9568,-145.2019"/>
<polygon fill="#191970" stroke="#191970" points="928.8715,-147.1522 932.1681,-137.0833 923.3119,-142.8987 928.8715,-147.1522"/>
</g>
<!-- Node5 -->
<g id="node6" class="node">
<title>Node5</title>
<polygon fill="none" stroke="#bfbfbf" points="461.5,-56.5 461.5,-75.5 517.5,-75.5 517.5,-56.5 461.5,-56.5"/>
<text text-anchor="middle" x="489.5" y="-63.5" font-family="Helvetica,sans-Serif" font-size="10.00" fill="#000000">algorithm</text>
</g>
<!-- Node2&#45;&gt;Node5 -->
<g id="edge5" class="edge">
<title>Node2&#45;&gt;Node5</title>
<path fill="none" stroke="#191970" d="M726.7338,-366.7511C636.0795,-362.5621 360.5551,-347.804 330.5,-322 305.5526,-300.5813 311.5,-283.3806 311.5,-250.5 311.5,-250.5 311.5,-250.5 311.5,-189 311.5,-153.6231 407.8649,-103.7163 458.7875,-79.8136"/>
<polygon fill="#191970" stroke="#191970" points="460.4302,-82.9099 468.029,-75.5269 457.4847,-76.5598 460.4302,-82.9099"/>
</g>
<!-- Node6 -->
<g id="node7" class="node">
<title>Node6</title>
<polygon fill="none" stroke="#bfbfbf" points="639.5,-302.5 639.5,-321.5 689.5,-321.5 689.5,-302.5 639.5,-302.5"/>
<text text-anchor="middle" x="664.5" y="-309.5" font-family="Helvetica,sans-Serif" font-size="10.00" fill="#000000">fstream</text>
</g>
<!-- Node2&#45;&gt;Node6 -->
<g id="edge6" class="edge">
<title>Node2&#45;&gt;Node6</title>
<path fill="none" stroke="#191970" d="M739.649,-358.2455C725.6868,-349.6534 705.1272,-337.0014 689.0404,-327.1018"/>
<polygon fill="#191970" stroke="#191970" points="690.5203,-323.9029 680.1693,-321.6427 686.8516,-329.8645 690.5203,-323.9029"/>
</g>
<!-- Node7 -->
<g id="node8" class="node">
<title>Node7</title>
<polygon fill="none" stroke="#bfbfbf" points="1926,-179.5 1926,-198.5 1961,-198.5 1961,-179.5 1926,-179.5"/>
<text text-anchor="middle" x="1943.5" y="-186.5" font-family="Helvetica,sans-Serif" font-size="10.00" fill="#000000">map</text>
</g>
<!-- Node2&#45;&gt;Node7 -->
<g id="edge8" class="edge">
<title>Node2&#45;&gt;Node7</title>
<path fill="none" stroke="#191970" d="M784.3771,-366.988C900.3718,-362.4811 1343.2385,-341.0285 1698.5,-266 1779.4424,-248.9056 1871.7563,-216.141 1916.4368,-199.4016"/>
<polygon fill="#191970" stroke="#191970" points="1917.8644,-202.6038 1925.983,-195.7966 1915.3913,-196.0552 1917.8644,-202.6038"/>
</g>
<!-- Node8 -->
<g id="node9" class="node">
<title>Node8</title>
<polygon fill="none" stroke="#bfbfbf" points="0,-56.5 0,-75.5 41,-75.5 41,-56.5 0,-56.5"/>
<text text-anchor="middle" x="20.5" y="-63.5" font-family="Helvetica,sans-Serif" font-size="10.00" fill="#000000">string</text>
</g>
<!-- Node2&#45;&gt;Node8 -->
<g id="edge9" class="edge">
<title>Node2&#45;&gt;Node8</title>
<path fill="none" stroke="#191970" d="M726.582,-366.0646C597.7656,-357.066 82.5,-316.9203 82.5,-250.5 82.5,-250.5 82.5,-250.5 82.5,-189 82.5,-147.6509 54.2152,-106.0453 35.8545,-83.3934"/>
<polygon fill="#191970" stroke="#191970" points="38.4917,-81.0914 29.3831,-75.68 33.1291,-85.5905 38.4917,-81.0914"/>
</g>
<!-- Node9 -->
<g id="node10" class="node">
<title>Node9</title>
<polygon fill="none" stroke="#bfbfbf" points="682.5,-.5 682.5,-19.5 722.5,-19.5 722.5,-.5 682.5,-.5"/>
<text text-anchor="middle" x="702.5" y="-7.5" font-family="Helvetica,sans-Serif" font-size="10.00" fill="#000000">utility</text>
</g>
<!-- Node2&#45;&gt;Node9 -->
<g id="edge10" class="edge">
<title>Node2&#45;&gt;Node9</title>
<path fill="none" stroke="#191970" d="M750.0555,-358.2863C739.5482,-338.599 717.5,-292.3072 717.5,-250.5 717.5,-250.5 717.5,-250.5 717.5,-189 717.5,-130.9758 709.5763,-62.74 705.2469,-29.7874"/>
<polygon fill="#191970" stroke="#191970" points="708.6887,-29.1206 703.8843,-19.6778 701.7515,-30.0557 708.6887,-29.1206"/>
</g>
<!-- Node10 -->
<g id="node11" class="node">
<title>Node10</title>
<polygon fill="none" stroke="#bfbfbf" points="2030.5,-.5 2030.5,-19.5 2074.5,-19.5 2074.5,-.5 2030.5,-.5"/>
<text text-anchor="middle" x="2052.5" y="-7.5" font-family="Helvetica,sans-Serif" font-size="10.00" fill="#000000">vector</text>
</g>
<!-- Node2&#45;&gt;Node10 -->
<g id="edge11" class="edge">
<title>Node2&#45;&gt;Node10</title>
<path fill="none" stroke="#191970" d="M784.2194,-367.7704C952.9996,-366.3049 1817.4218,-357.1696 2080.5,-322 2204.3936,-305.4373 2352.5,-375.4958 2352.5,-250.5 2352.5,-250.5 2352.5,-250.5 2352.5,-127.5 2352.5,-88.2069 2333.7348,-76.9618 2300.5,-56 2265.0217,-33.6232 2143.7586,-18.9766 2084.9723,-13.022"/>
<polygon fill="#191970" stroke="#191970" points="2085.0535,-9.513 2074.7575,-12.0113 2084.3643,-16.479 2085.0535,-9.513"/>
</g>
<!-- Node11 -->
<g id="node12" class="node">
<title>Node11</title>
<g id="a_node12"><a xlink:href="block__cluster_8h.html" target="_top" xlink:title="Implementation of the class BlockCluster. ">
<polygon fill="none" stroke="#000000" points="472,-241 472,-260 555,-260 555,-241 472,-241"/>
<text text-anchor="middle" x="513.5" y="-248" font-family="Helvetica,sans-Serif" font-size="10.00" fill="#000000">block_cluster.h</text>
</a>
</g>
</g>
<!-- Node2&#45;&gt;Node11 -->
<g id="edge12" class="edge">
<title>Node2&#45;&gt;Node11</title>
<path fill="none" stroke="#191970" d="M726.564,-367.0619C667.425,-364.472 535.9592,-355.0452 508.5,-322 496.6107,-307.6921 500.3129,-285.7111 505.4509,-269.8986"/>
<polygon fill="#191970" stroke="#191970" points="508.8857,-270.7004 509.0635,-260.107 502.3184,-268.2774 508.8857,-270.7004"/>
</g>
<!-- Node30 -->
<g id="node31" class="node">
<title>Node30</title>
<g id="a_node31"><a xlink:href="block__cluster__tree_8h.html" target="_top" xlink:title="Implementation of the class BlockClusterTree. ">
<polygon fill="none" stroke="#000000" points="517.5,-302.5 517.5,-321.5 621.5,-321.5 621.5,-302.5 517.5,-302.5"/>
<text text-anchor="middle" x="569.5" y="-309.5" font-family="Helvetica,sans-Serif" font-size="10.00" fill="#000000">block_cluster_tree.h</text>
</a>
</g>
</g>
<!-- Node2&#45;&gt;Node30 -->
<g id="edge44" class="edge">
<title>Node2&#45;&gt;Node30</title>
<path fill="none" stroke="#191970" d="M726.8451,-359.3727C695.9601,-350.074 646.5045,-335.1841 611.2868,-324.581"/>
<polygon fill="#191970" stroke="#191970" points="611.8897,-321.1074 601.3053,-321.5758 609.8716,-327.8102 611.8897,-321.1074"/>
</g>
<!-- Node31 -->
<g id="node32" class="node">
<title>Node31</title>
<g id="a_node32"><a xlink:href="lapack__full__matrix__ext_8h_source.html" target="_top" xlink:title="lapack_full_matrix\l_ext.h">
<polygon fill="none" stroke="#000000" points="1594,-235.5 1594,-265.5 1689,-265.5 1689,-235.5 1594,-235.5"/>
<text text-anchor="start" x="1602" y="-253.5" font-family="Helvetica,sans-Serif" font-size="10.00" fill="#000000">lapack_full_matrix</text>
<text text-anchor="middle" x="1641.5" y="-242.5" font-family="Helvetica,sans-Serif" font-size="10.00" fill="#000000">_ext.h</text>
</a>
</g>
</g>
<!-- Node2&#45;&gt;Node31 -->
<g id="edge70" class="edge">
<title>Node2&#45;&gt;Node31</title>
<path fill="none" stroke="#191970" d="M784.4751,-364.1574C910.5141,-347.4423 1412.393,-280.8838 1583.7847,-258.1541"/>
<polygon fill="#191970" stroke="#191970" points="1584.4157,-261.6012 1593.8688,-256.8168 1583.4954,-254.6619 1584.4157,-261.6012"/>
</g>
<!-- Node44 -->
<g id="node45" class="node">
<title>Node44</title>
<g id="a_node45"><a xlink:href="generic__functors_8h.html" target="_top" xlink:title="This header file contains a set of self&#45;defined generic functors. ">
<polygon fill="none" stroke="#000000" points="2189,-241 2189,-260 2286,-260 2286,-241 2189,-241"/>
<text text-anchor="middle" x="2237.5" y="-248" font-family="Helvetica,sans-Serif" font-size="10.00" fill="#000000">generic_functors.h</text>
</a>
</g>
</g>
<!-- Node2&#45;&gt;Node44 -->
<g id="edge66" class="edge">
<title>Node2&#45;&gt;Node44</title>
<path fill="none" stroke="#191970" d="M784.2126,-367.4672C961.3813,-364.1123 1902.507,-345.3009 2028.5,-322 2094.1685,-309.8554 2167.2063,-281.1483 2207.2009,-264.0313"/>
<polygon fill="#191970" stroke="#191970" points="2208.6112,-267.2347 2216.3973,-260.0495 2205.8299,-260.811 2208.6112,-267.2347"/>
</g>
<!-- Node45 -->
<g id="node46" class="node">
<title>Node45</title>
<g id="a_node46"><a xlink:href="rkmatrix_8h.html" target="_top" xlink:title="Definition of rank&#45;k matrix. ">
<polygon fill="none" stroke="#000000" points="1959.5,-302.5 1959.5,-321.5 2019.5,-321.5 2019.5,-302.5 1959.5,-302.5"/>
<text text-anchor="middle" x="1989.5" y="-309.5" font-family="Helvetica,sans-Serif" font-size="10.00" fill="#000000">rkmatrix.h</text>
</a>
</g>
</g>
<!-- Node2&#45;&gt;Node45 -->
<g id="edge71" class="edge">
<title>Node2&#45;&gt;Node45</title>
<path fill="none" stroke="#191970" d="M784.1865,-366.6982C947.3824,-359.2922 1758.2009,-322.4966 1949.1673,-313.8303"/>
<polygon fill="#191970" stroke="#191970" points="1949.494,-317.3192 1959.325,-313.3694 1949.1766,-310.3264 1949.494,-317.3192"/>
</g>
<!-- Node12 -->
<g id="node13" class="node">
<title>Node12</title>
<g id="a_node13"><a xlink:href="cluster_8h.html" target="_top" xlink:title="Implementation of the class Cluster. ">
<polygon fill="none" stroke="#000000" points="555.5,-118 555.5,-137 609.5,-137 609.5,-118 555.5,-118"/>
<text text-anchor="middle" x="582.5" y="-125" font-family="Helvetica,sans-Serif" font-size="10.00" fill="#000000">cluster.h</text>
</a>
</g>
</g>
<!-- Node11&#45;&gt;Node12 -->
<g id="edge13" class="edge">
<title>Node11&#45;&gt;Node12</title>
<path fill="none" stroke="#191970" d="M515.0991,-240.7035C517.7372,-226.4002 523.902,-199.2977 535.5,-179 542.9128,-166.0268 554.1043,-153.5909 563.7071,-144.1903"/>
<polygon fill="#191970" stroke="#191970" points="566.3977,-146.4645 571.2819,-137.0626 561.6006,-141.3665 566.3977,-146.4645"/>
</g>
<!-- Node20 -->
<g id="node21" class="node">
<title>Node20</title>
<g id="a_node21"><a xlink:href="cluster__tree_8h_source.html" target="_top" xlink:title="cluster_tree.h">
<polygon fill="none" stroke="#000000" points="544.5,-179.5 544.5,-198.5 620.5,-198.5 620.5,-179.5 544.5,-179.5"/>
<text text-anchor="middle" x="582.5" y="-186.5" font-family="Helvetica,sans-Serif" font-size="10.00" fill="#000000">cluster_tree.h</text>
</a>
</g>
</g>
<!-- Node11&#45;&gt;Node20 -->
<g id="edge25" class="edge">
<title>Node11&#45;&gt;Node20</title>
<path fill="none" stroke="#191970" d="M524.2813,-240.8906C534.8526,-231.4683 551.1825,-216.9134 563.8603,-205.6137"/>
<polygon fill="#191970" stroke="#191970" points="566.4304,-208.0114 571.5667,-198.7449 561.7728,-202.7858 566.4304,-208.0114"/>
</g>
<!-- Node12&#45;&gt;Node5 -->
<g id="edge15" class="edge">
<title>Node12&#45;&gt;Node5</title>
<path fill="none" stroke="#191970" d="M567.9688,-117.8906C553.0906,-108.0519 529.7496,-92.6167 512.3872,-81.1351"/>
<polygon fill="#191970" stroke="#191970" points="514.201,-78.1385 503.9292,-75.5419 510.3398,-83.9773 514.201,-78.1385"/>
</g>
<!-- Node12&#45;&gt;Node10 -->
<g id="edge17" class="edge">
<title>Node12&#45;&gt;Node10</title>
<path fill="none" stroke="#191970" d="M598.3557,-117.7772C626.0106,-101.416 685.3866,-68.9045 740.5,-56 868.4608,-26.0386 1830.8493,-12.7256 2020.211,-10.3825"/>
<polygon fill="#191970" stroke="#191970" points="2020.3969,-13.8806 2030.3533,-10.2584 2020.3112,-6.8811 2020.3969,-13.8806"/>
</g>
<!-- Node13 -->
<g id="node14" class="node">
<title>Node13</title>
<polygon fill="none" stroke="#bfbfbf" points="2145,-56.5 2145,-75.5 2248,-75.5 2248,-56.5 2145,-56.5"/>
<text text-anchor="middle" x="2196.5" y="-63.5" font-family="Helvetica,sans-Serif" font-size="10.00" fill="#000000">deal.II/base/types.h</text>
</g>
<!-- Node12&#45;&gt;Node13 -->
<g id="edge14" class="edge">
<title>Node12&#45;&gt;Node13</title>
<path fill="none" stroke="#191970" d="M609.7444,-125.3623C652.7829,-122.0535 739.154,-115.6893 812.5,-112 1323.1938,-86.3123 1940.6428,-71.5558 2134.9276,-67.2984"/>
<polygon fill="#191970" stroke="#191970" points="2135.0256,-70.7972 2144.9469,-67.08 2134.873,-63.7989 2135.0256,-70.7972"/>
</g>
<!-- Node14 -->
<g id="node15" class="node">
<title>Node14</title>
<polygon fill="none" stroke="#bfbfbf" points="396,-56.5 396,-75.5 443,-75.5 443,-56.5 396,-56.5"/>
<text text-anchor="middle" x="419.5" y="-63.5" font-family="Helvetica,sans-Serif" font-size="10.00" fill="#000000">iterator</text>
</g>
<!-- Node12&#45;&gt;Node14 -->
<g id="edge16" class="edge">
<title>Node12&#45;&gt;Node14</title>
<path fill="none" stroke="#191970" d="M557.0313,-117.8906C528.9147,-107.2822 483.554,-90.1676 452.6773,-78.5178"/>
<polygon fill="#191970" stroke="#191970" points="453.7934,-75.1981 443.2016,-74.9426 451.3222,-81.7475 453.7934,-75.1981"/>
</g>
<!-- Node15 -->
<g id="node16" class="node">
<title>Node15</title>
<g id="a_node16"><a xlink:href="simple__bounding__box_8h_source.html" target="_top" xlink:title="simple_bounding_box.h">
<polygon fill="none" stroke="#000000" points="536,-56.5 536,-75.5 655,-75.5 655,-56.5 536,-56.5"/>
<text text-anchor="middle" x="595.5" y="-63.5" font-family="Helvetica,sans-Serif" font-size="10.00" fill="#000000">simple_bounding_box.h</text>
</a>
</g>
</g>
<!-- Node12&#45;&gt;Node15 -->
<g id="edge18" class="edge">
<title>Node12&#45;&gt;Node15</title>
<path fill="none" stroke="#191970" d="M584.5313,-117.8906C586.3522,-109.276 589.0802,-96.3708 591.3599,-85.5858"/>
<polygon fill="#191970" stroke="#191970" points="594.7962,-86.2525 593.4401,-75.7449 587.9476,-84.8048 594.7962,-86.2525"/>
</g>
<!-- Node15&#45;&gt;Node9 -->
<g id="edge23" class="edge">
<title>Node15&#45;&gt;Node9</title>
<path fill="none" stroke="#191970" d="M614.138,-56.2455C630.9386,-47.4527 655.8634,-34.4079 674.9618,-24.4125"/>
<polygon fill="#191970" stroke="#191970" points="676.8386,-27.3807 684.0756,-19.6427 673.5927,-21.1787 676.8386,-27.3807"/>
</g>
<!-- Node15&#45;&gt;Node10 -->
<g id="edge24" class="edge">
<title>Node15&#45;&gt;Node10</title>
<path fill="none" stroke="#191970" d="M655.2175,-57.403C660.0433,-56.869 664.8493,-56.3906 669.5,-56 944.2772,-32.9237 1838.3384,-14.2444 2020.084,-10.6322"/>
<polygon fill="#191970" stroke="#191970" points="2020.3904,-14.1269 2030.3192,-10.4298 2020.2519,-7.1283 2020.3904,-14.1269"/>
</g>
<!-- Node16 -->
<g id="node17" class="node">
<title>Node16</title>
<polygon fill="none" stroke="#bfbfbf" points="545.5,-.5 545.5,-19.5 645.5,-19.5 645.5,-.5 545.5,-.5"/>
<text text-anchor="middle" x="595.5" y="-7.5" font-family="Helvetica,sans-Serif" font-size="10.00" fill="#000000">deal.II/base/point.h</text>
</g>
<!-- Node15&#45;&gt;Node16 -->
<g id="edge19" class="edge">
<title>Node15&#45;&gt;Node16</title>
<path fill="none" stroke="#191970" d="M595.5,-56.2455C595.5,-48.9382 595.5,-38.6944 595.5,-29.7046"/>
<polygon fill="#191970" stroke="#191970" points="599.0001,-29.6426 595.5,-19.6427 592.0001,-29.6427 599.0001,-29.6426"/>
</g>
<!-- Node17 -->
<g id="node18" class="node">
<title>Node17</title>
<polygon fill="none" stroke="#bfbfbf" points="24,-.5 24,-19.5 151,-19.5 151,-.5 24,-.5"/>
<text text-anchor="middle" x="87.5" y="-7.5" font-family="Helvetica,sans-Serif" font-size="10.00" fill="#000000">deal.II/dofs/dof_handler.h</text>
</g>
<!-- Node15&#45;&gt;Node17 -->
<g id="edge20" class="edge">
<title>Node15&#45;&gt;Node17</title>
<path fill="none" stroke="#191970" d="M535.6804,-57.1829C532.5771,-56.7717 529.5028,-56.3748 526.5,-56 398.3109,-40.0012 248.5874,-25.1263 161.2754,-16.8325"/>
<polygon fill="#191970" stroke="#191970" points="161.4886,-13.3371 151.2031,-15.8786 160.8286,-20.3059 161.4886,-13.3371"/>
</g>
<!-- Node18 -->
<g id="node19" class="node">
<title>Node18</title>
<polygon fill="none" stroke="#bfbfbf" points="238.5,-.5 238.5,-19.5 354.5,-19.5 354.5,-.5 238.5,-.5"/>
<text text-anchor="middle" x="296.5" y="-7.5" font-family="Helvetica,sans-Serif" font-size="10.00" fill="#000000">deal.II/dofs/dof_tools.h</text>
</g>
<!-- Node15&#45;&gt;Node18 -->
<g id="edge21" class="edge">
<title>Node15&#45;&gt;Node18</title>
<path fill="none" stroke="#191970" d="M544.4398,-56.4369C492.6232,-46.7321 412.405,-31.708 357.3285,-21.3926"/>
<polygon fill="#191970" stroke="#191970" points="357.823,-17.9245 347.3496,-19.5237 356.5344,-24.8048 357.823,-17.9245"/>
</g>
<!-- Node19 -->
<g id="node20" class="node">
<title>Node19</title>
<polygon fill="none" stroke="#bfbfbf" points="407,-.5 407,-19.5 510,-19.5 510,-.5 407,-.5"/>
<text text-anchor="middle" x="458.5" y="-7.5" font-family="Helvetica,sans-Serif" font-size="10.00" fill="#000000">deal.II/fe/mapping.h</text>
</g>
<!-- Node15&#45;&gt;Node19 -->
<g id="edge22" class="edge">
<title>Node15&#45;&gt;Node19</title>
<path fill="none" stroke="#191970" d="M571.9489,-56.3733C549.6609,-47.2629 516.0063,-33.5062 491.1363,-23.3404"/>
<polygon fill="#191970" stroke="#191970" points="492.3247,-20.0451 481.7438,-19.5011 489.6761,-26.5247 492.3247,-20.0451"/>
</g>
<!-- Node20&#45;&gt;Node12 -->
<g id="edge26" class="edge">
<title>Node20&#45;&gt;Node12</title>
<path fill="none" stroke="#191970" d="M582.5,-179.3906C582.5,-170.8657 582.5,-158.1392 582.5,-147.4235"/>
<polygon fill="#191970" stroke="#191970" points="586.0001,-147.2448 582.5,-137.2449 579.0001,-147.2449 586.0001,-147.2448"/>
</g>
<!-- Node21 -->
<g id="node22" class="node">
<title>Node21</title>
<g id="a_node22"><a xlink:href="debug__tools_8h.html" target="_top" xlink:title="This file includes a bunch of helper functions for printing out and visualizing information about gri...">
<polygon fill="none" stroke="#000000" points="172,-118 172,-137 249,-137 249,-118 172,-118"/>
<text text-anchor="middle" x="210.5" y="-125" font-family="Helvetica,sans-Serif" font-size="10.00" fill="#000000">debug_tools.h</text>
</a>
</g>
</g>
<!-- Node20&#45;&gt;Node21 -->
<g id="edge27" class="edge">
<title>Node20&#45;&gt;Node21</title>
<path fill="none" stroke="#191970" d="M544.4377,-182.7074C476.4358,-171.4652 334.1922,-147.9491 259.1879,-135.5492"/>
<polygon fill="#191970" stroke="#191970" points="259.5024,-132.0538 249.0654,-133.8757 258.3606,-138.96 259.5024,-132.0538"/>
</g>
<!-- Node24 -->
<g id="node25" class="node">
<title>Node24</title>
<g id="a_node25"><a xlink:href="tree_8h.html" target="_top" xlink:title="Implementation of the classes for binary tree node, general tree node and functions for manipulating ...">
<polygon fill="none" stroke="#000000" points="822,-118 822,-137 863,-137 863,-118 822,-118"/>
<text text-anchor="middle" x="842.5" y="-125" font-family="Helvetica,sans-Serif" font-size="10.00" fill="#000000">tree.h</text>
</a>
</g>
</g>
<!-- Node20&#45;&gt;Node24 -->
<g id="edge35" class="edge">
<title>Node20&#45;&gt;Node24</title>
<path fill="none" stroke="#191970" d="M620.5847,-179.9915C672.3819,-167.7395 764.0375,-146.0594 811.7294,-134.7784"/>
<polygon fill="#191970" stroke="#191970" points="812.8337,-138.1139 821.7595,-132.4059 811.2224,-131.3018 812.8337,-138.1139"/>
</g>
<!-- Node21&#45;&gt;Node1 -->
<g id="edge33" class="edge">
<title>Node21&#45;&gt;Node1</title>
<path fill="none" stroke="#191970" d="M249.4035,-123.2729C353.49,-111.9631 637.3547,-81.1191 739.3685,-70.0346"/>
<polygon fill="#191970" stroke="#191970" points="739.9364,-73.4936 749.4998,-68.9338 739.1802,-66.5345 739.9364,-73.4936"/>
</g>
<!-- Node21&#45;&gt;Node8 -->
<g id="edge34" class="edge">
<title>Node21&#45;&gt;Node8</title>
<path fill="none" stroke="#191970" d="M180.8125,-117.8906C145.4751,-106.4525 86.7695,-87.4504 51.0548,-75.8901"/>
<polygon fill="#191970" stroke="#191970" points="51.7869,-72.4483 41.195,-72.6987 49.6312,-79.1082 51.7869,-72.4483"/>
</g>
<!-- Node21&#45;&gt;Node17 -->
<g id="edge28" class="edge">
<title>Node21&#45;&gt;Node17</title>
<path fill="none" stroke="#191970" d="M187.1292,-117.8907C168.157,-109.1741 141.665,-94.8147 123.5,-76 110.369,-62.3993 100.5724,-43.0608 94.5406,-28.8313"/>
<polygon fill="#191970" stroke="#191970" points="97.7832,-27.5134 90.8201,-19.528 91.2836,-30.1127 97.7832,-27.5134"/>
</g>
<!-- Node21&#45;&gt;Node18 -->
<g id="edge29" class="edge">
<title>Node21&#45;&gt;Node18</title>
<path fill="none" stroke="#191970" d="M185.1271,-117.973C155.2765,-105.3164 112.0905,-81.5609 131.5,-56 143.5614,-40.1161 188.281,-28.2487 228.1246,-20.5495"/>
<polygon fill="#191970" stroke="#191970" points="228.9388,-23.9581 238.1265,-18.682 227.6539,-17.077 228.9388,-23.9581"/>
</g>
<!-- Node21&#45;&gt;Node19 -->
<g id="edge32" class="edge">
<title>Node21&#45;&gt;Node19</title>
<path fill="none" stroke="#191970" d="M196.4962,-117.9119C177.3175,-103.6362 147.1303,-76.2988 164.5,-56 172.0246,-47.2066 313.0977,-28.1812 397.0483,-17.5593"/>
<polygon fill="#191970" stroke="#191970" points="397.5061,-21.0294 406.9902,-16.3069 396.6311,-14.0843 397.5061,-21.0294"/>
</g>
<!-- Node22 -->
<g id="node23" class="node">
<title>Node22</title>
<polygon fill="none" stroke="#bfbfbf" points="173.5,-56.5 173.5,-75.5 247.5,-75.5 247.5,-56.5 173.5,-56.5"/>
<text text-anchor="middle" x="210.5" y="-63.5" font-family="Helvetica,sans-Serif" font-size="10.00" fill="#000000">deal.II/fe/fe.h</text>
</g>
<!-- Node21&#45;&gt;Node22 -->
<g id="edge30" class="edge">
<title>Node21&#45;&gt;Node22</title>
<path fill="none" stroke="#191970" d="M210.5,-117.8906C210.5,-109.3657 210.5,-96.6392 210.5,-85.9235"/>
<polygon fill="#191970" stroke="#191970" points="214.0001,-85.7448 210.5,-75.7449 207.0001,-85.7449 214.0001,-85.7448"/>
</g>
<!-- Node23 -->
<g id="node24" class="node">
<title>Node23</title>
<polygon fill="none" stroke="#bfbfbf" points="265.5,-56.5 265.5,-75.5 377.5,-75.5 377.5,-56.5 265.5,-56.5"/>
<text text-anchor="middle" x="321.5" y="-63.5" font-family="Helvetica,sans-Serif" font-size="10.00" fill="#000000">deal.II/fe/fe_system.h</text>
</g>
<!-- Node21&#45;&gt;Node23 -->
<g id="edge31" class="edge">
<title>Node21&#45;&gt;Node23</title>
<path fill="none" stroke="#191970" d="M227.8438,-117.8906C245.9273,-107.8713 274.4859,-92.0483 295.3165,-80.5071"/>
<polygon fill="#191970" stroke="#191970" points="297.2271,-83.4498 304.278,-75.5419 293.8346,-77.3268 297.2271,-83.4498"/>
</g>
<!-- Node24&#45;&gt;Node1 -->
<g id="edge41" class="edge">
<title>Node24&#45;&gt;Node1</title>
<path fill="none" stroke="#191970" d="M832.1875,-117.8906C822.0758,-108.4683 806.4558,-93.9134 794.3293,-82.6137"/>
<polygon fill="#191970" stroke="#191970" points="796.6601,-80.0015 786.9579,-75.7449 791.888,-85.1228 796.6601,-80.0015"/>
</g>
<!-- Node24&#45;&gt;Node5 -->
<g id="edge37" class="edge">
<title>Node24&#45;&gt;Node5</title>
<path fill="none" stroke="#191970" d="M821.6572,-124.8556C772.2576,-118.4295 644.0631,-100.8251 527.5092,-76.0498"/>
<polygon fill="#191970" stroke="#191970" points="528.2211,-72.623 517.7089,-73.9434 526.7501,-79.4667 528.2211,-72.623"/>
</g>
<!-- Node24&#45;&gt;Node10 -->
<g id="edge43" class="edge">
<title>Node24&#45;&gt;Node10</title>
<path fill="none" stroke="#191970" d="M858.2107,-117.9257C862.6821,-115.6097 867.6568,-113.4009 872.5,-112 985.7407,-79.2459 1842.9303,-23.3277 2020.401,-12.0261"/>
<polygon fill="#191970" stroke="#191970" points="2020.6563,-15.517 2030.4142,-11.3899 2020.2124,-8.5311 2020.6563,-15.517"/>
</g>
<!-- Node25 -->
<g id="node26" class="node">
<title>Node25</title>
<polygon fill="none" stroke="#bfbfbf" points="1581.5,-56.5 1581.5,-75.5 1707.5,-75.5 1707.5,-56.5 1581.5,-56.5"/>
<text text-anchor="middle" x="1644.5" y="-63.5" font-family="Helvetica,sans-Serif" font-size="10.00" fill="#000000">deal.II/base/exceptions.h</text>
</g>
<!-- Node24&#45;&gt;Node25 -->
<g id="edge36" class="edge">
<title>Node24&#45;&gt;Node25</title>
<path fill="none" stroke="#191970" d="M858.1865,-117.8399C862.6578,-115.5237 867.6386,-113.336 872.5,-112 938.659,-93.8179 1391.352,-75.3442 1571.1322,-68.6365"/>
<polygon fill="#191970" stroke="#191970" points="1571.4257,-72.1281 1581.2889,-68.2593 1571.1658,-65.1329 1571.4257,-72.1281"/>
</g>
<!-- Node26 -->
<g id="node27" class="node">
<title>Node26</title>
<polygon fill="none" stroke="#bfbfbf" points="875.5,-56.5 875.5,-75.5 913.5,-75.5 913.5,-56.5 875.5,-56.5"/>
<text text-anchor="middle" x="894.5" y="-63.5" font-family="Helvetica,sans-Serif" font-size="10.00" fill="#000000">array</text>
</g>
<!-- Node24&#45;&gt;Node26 -->
<g id="edge38" class="edge">
<title>Node24&#45;&gt;Node26</title>
<path fill="none" stroke="#191970" d="M850.625,-117.8906C858.3642,-108.7376 870.1987,-94.7409 879.6272,-83.59"/>
<polygon fill="#191970" stroke="#191970" points="882.4765,-85.6409 886.2604,-75.7449 877.1311,-81.1213 882.4765,-85.6409"/>
</g>
<!-- Node27 -->
<g id="node28" class="node">
<title>Node27</title>
<polygon fill="none" stroke="#bfbfbf" points="932,-56.5 932,-75.5 991,-75.5 991,-56.5 932,-56.5"/>
<text text-anchor="middle" x="961.5" y="-63.5" font-family="Helvetica,sans-Serif" font-size="10.00" fill="#000000">exception</text>
</g>
<!-- Node24&#45;&gt;Node27 -->
<g id="edge39" class="edge">
<title>Node24&#45;&gt;Node27</title>
<path fill="none" stroke="#191970" d="M861.0938,-117.8906C880.6553,-107.7811 911.6501,-91.7628 934.0309,-80.1962"/>
<polygon fill="#191970" stroke="#191970" points="935.76,-83.2425 943.0368,-75.5419 932.5461,-77.0238 935.76,-83.2425"/>
</g>
<!-- Node28 -->
<g id="node29" class="node">
<title>Node28</title>
<polygon fill="none" stroke="#bfbfbf" points="1009,-56.5 1009,-75.5 1068,-75.5 1068,-56.5 1009,-56.5"/>
<text text-anchor="middle" x="1038.5" y="-63.5" font-family="Helvetica,sans-Serif" font-size="10.00" fill="#000000">functional</text>
</g>
<!-- Node24&#45;&gt;Node28 -->
<g id="edge40" class="edge">
<title>Node24&#45;&gt;Node28</title>
<path fill="none" stroke="#191970" d="M859.6674,-117.8605C863.7947,-115.7598 868.2427,-113.6689 872.5,-112 884.3423,-107.3576 953.7612,-88.5689 998.9977,-76.4871"/>
<polygon fill="#191970" stroke="#191970" points="1000.0507,-79.8287 1008.8111,-73.87 998.2468,-73.0651 1000.0507,-79.8287"/>
</g>
<!-- Node29 -->
<g id="node30" class="node">
<title>Node29</title>
<polygon fill="none" stroke="#bfbfbf" points="822,-56.5 822,-75.5 857,-75.5 857,-56.5 822,-56.5"/>
<text text-anchor="middle" x="839.5" y="-63.5" font-family="Helvetica,sans-Serif" font-size="10.00" fill="#000000">new</text>
</g>
<!-- Node24&#45;&gt;Node29 -->
<g id="edge42" class="edge">
<title>Node24&#45;&gt;Node29</title>
<path fill="none" stroke="#191970" d="M842.0313,-117.8906C841.6154,-109.3657 840.9946,-96.6392 840.4719,-85.9235"/>
<polygon fill="#191970" stroke="#191970" points="843.9585,-85.5624 839.9754,-75.7449 836.9668,-85.9035 843.9585,-85.5624"/>
</g>
<!-- Node30&#45;&gt;Node11 -->
<g id="edge45" class="edge">
<title>Node30&#45;&gt;Node11</title>
<path fill="none" stroke="#191970" d="M560.75,-302.3906C552.3338,-293.1478 539.4203,-278.966 529.219,-267.7628"/>
<polygon fill="#191970" stroke="#191970" points="531.694,-265.2824 522.3734,-260.2449 526.5182,-269.9953 531.694,-265.2824"/>
</g>
<!-- Node30&#45;&gt;Node20 -->
<g id="edge46" class="edge">
<title>Node30&#45;&gt;Node20</title>
<path fill="none" stroke="#191970" d="M570.5201,-302.3484C572.6465,-282.2295 577.5895,-235.4608 580.4168,-208.7098"/>
<polygon fill="#191970" stroke="#191970" points="583.9141,-208.9193 581.4847,-198.6068 576.9529,-208.1835 583.9141,-208.9193"/>
</g>
<!-- Node30&#45;&gt;Node21 -->
<g id="edge47" class="edge">
<title>Node30&#45;&gt;Node21</title>
<path fill="none" stroke="#191970" d="M545.4028,-302.4192C523.5183,-293.5351 490.481,-279.6644 462.5,-266 377.4834,-224.4827 280.2331,-168.5305 235.4568,-142.27"/>
<polygon fill="#191970" stroke="#191970" points="237.1159,-139.1853 226.7217,-137.1328 233.5673,-145.2192 237.1159,-139.1853"/>
</g>
<!-- Node30&#45;&gt;Node24 -->
<g id="edge65" class="edge">
<title>Node30&#45;&gt;Node24</title>
<path fill="none" stroke="#191970" d="M583.7933,-302.3402C628.3889,-272.2015 765.2373,-179.716 819.7481,-142.8763"/>
<polygon fill="#191970" stroke="#191970" points="822.0227,-145.5635 828.3482,-137.0641 818.1031,-139.7637 822.0227,-145.5635"/>
</g>
<!-- Node30&#45;&gt;Node31 -->
<g id="edge48" class="edge">
<title>Node30&#45;&gt;Node31</title>
<path fill="none" stroke="#191970" d="M621.6913,-303.051C624.667,-302.6633 627.6189,-302.3086 630.5,-302 991.7928,-263.3059 1428.9315,-253.5212 1583.757,-251.1885"/>
<polygon fill="#191970" stroke="#191970" points="1584.0301,-254.685 1593.9778,-251.0392 1583.9278,-247.6857 1584.0301,-254.685"/>
</g>
<!-- Node31&#45;&gt;Node7 -->
<g id="edge50" class="edge">
<title>Node31&#45;&gt;Node7</title>
<path fill="none" stroke="#191970" d="M1689.1181,-242.0954C1754.8967,-230.3688 1870.1309,-209.3732 1911.5,-199 1912.982,-198.6284 1914.4965,-198.2279 1916.0213,-197.8082"/>
<polygon fill="#191970" stroke="#191970" points="1917.3958,-201.052 1925.9974,-194.8662 1915.4157,-194.3379 1917.3958,-201.052"/>
</g>
<!-- Node31&#45;&gt;Node10 -->
<g id="edge51" class="edge">
<title>Node31&#45;&gt;Node10</title>
<path fill="none" stroke="#191970" d="M1689.1593,-236.5127C1690.9616,-235.9994 1692.7467,-235.4936 1694.5,-235 1703.8922,-232.3558 2027.0396,-150.3122 2033.5,-143 2061.3128,-111.5202 2059.3966,-58.5102 2055.815,-29.842"/>
<polygon fill="#191970" stroke="#191970" points="2059.261,-29.216 2054.3663,-19.8195 2052.333,-30.2174 2059.261,-29.216"/>
</g>
<!-- Node32 -->
<g id="node33" class="node">
<title>Node32</title>
<polygon fill="none" stroke="#bfbfbf" points="1509.5,-179.5 1509.5,-198.5 1549.5,-198.5 1549.5,-179.5 1509.5,-179.5"/>
<text text-anchor="middle" x="1529.5" y="-186.5" font-family="Helvetica,sans-Serif" font-size="10.00" fill="#000000">limits</text>
</g>
<!-- Node31&#45;&gt;Node32 -->
<g id="edge49" class="edge">
<title>Node31&#45;&gt;Node32</title>
<path fill="none" stroke="#191970" d="M1614.1017,-235.4554C1596.3978,-225.734 1573.4805,-213.15 1555.9642,-203.5317"/>
<polygon fill="#191970" stroke="#191970" points="1557.3061,-200.2756 1546.856,-198.5303 1553.9369,-206.4115 1557.3061,-200.2756"/>
</g>
<!-- Node33 -->
<g id="node34" class="node">
<title>Node33</title>
<g id="a_node34"><a xlink:href="general__exceptions_8h.html" target="_top" xlink:title="Definition of self&#45;defined general exceptions. ">
<polygon fill="none" stroke="#000000" points="1709,-179.5 1709,-198.5 1818,-198.5 1818,-179.5 1709,-179.5"/>
<text text-anchor="middle" x="1763.5" y="-186.5" font-family="Helvetica,sans-Serif" font-size="10.00" fill="#000000">general_exceptions.h</text>
</a>
</g>
</g>
<!-- Node31&#45;&gt;Node33 -->
<g id="edge52" class="edge">
<title>Node31&#45;&gt;Node33</title>
<path fill="none" stroke="#191970" d="M1671.3446,-235.4554C1690.897,-225.599 1716.2872,-212.7999 1735.4645,-203.1327"/>
<polygon fill="#191970" stroke="#191970" points="1737.2402,-206.1571 1744.5943,-198.5303 1734.0892,-199.9064 1737.2402,-206.1571"/>
</g>
<!-- Node34 -->
<g id="node35" class="node">
<title>Node34</title>
<g id="a_node35"><a xlink:href="lapack__helpers_8h.html" target="_top" xlink:title="Exposes LAPACK helper functions defined in lapack_full_matrix.cc and define new ones by following the...">
<polygon fill="none" stroke="#000000" points="1567.5,-179.5 1567.5,-198.5 1657.5,-198.5 1657.5,-179.5 1567.5,-179.5"/>
<text text-anchor="middle" x="1612.5" y="-186.5" font-family="Helvetica,sans-Serif" font-size="10.00" fill="#000000">lapack_helpers.h</text>
</a>
</g>
</g>
<!-- Node31&#45;&gt;Node34 -->
<g id="edge54" class="edge">
<title>Node31&#45;&gt;Node34</title>
<path fill="none" stroke="#191970" d="M1634.3315,-235.2977C1630.4318,-227.0277 1625.572,-216.7215 1621.4282,-207.9339"/>
<polygon fill="#191970" stroke="#191970" points="1624.5741,-206.399 1617.1433,-198.8469 1618.2427,-209.3846 1624.5741,-206.399"/>
</g>
<!-- Node33&#45;&gt;Node25 -->
<g id="edge53" class="edge">
<title>Node33&#45;&gt;Node25</title>
<path fill="none" stroke="#191970" d="M1769.1604,-179.4879C1777.6246,-163.8895 1791.1051,-132.5563 1776.5,-112 1766.9782,-98.5983 1730.563,-86.4978 1698.3872,-78.0748"/>
<polygon fill="#191970" stroke="#191970" points="1699.1262,-74.6515 1688.5722,-75.5815 1697.4026,-81.436 1699.1262,-74.6515"/>
</g>
<!-- Node34&#45;&gt;Node4 -->
<g id="edge58" class="edge">
<title>Node34&#45;&gt;Node4</title>
<path fill="none" stroke="#191970" d="M1567.4806,-180.2524C1564.4474,-179.7898 1561.4329,-179.3659 1558.5,-179 1314.5368,-148.5633 1249.7305,-178.8244 1006.5,-143 999.7544,-142.0065 992.6841,-140.6848 985.7697,-139.2309"/>
<polygon fill="#191970" stroke="#191970" points="986.3266,-135.7696 975.8069,-137.029 984.8159,-142.6047 986.3266,-135.7696"/>
</g>
<!-- Node35 -->
<g id="node36" class="node">
<title>Node35</title>
<polygon fill="none" stroke="#bfbfbf" points="1361.5,-118 1361.5,-137 1477.5,-137 1477.5,-118 1361.5,-118"/>
<text text-anchor="middle" x="1419.5" y="-125" font-family="Helvetica,sans-Serif" font-size="10.00" fill="#000000">deal.II/base/numbers.h</text>
</g>
<!-- Node34&#45;&gt;Node35 -->
<g id="edge55" class="edge">
<title>Node34&#45;&gt;Node35</title>
<path fill="none" stroke="#191970" d="M1582.3438,-179.3906C1549.2015,-168.8298 1495.8238,-151.8208 1459.2758,-140.1747"/>
<polygon fill="#191970" stroke="#191970" points="1460.0351,-136.7433 1449.4445,-137.0419 1457.9098,-143.4129 1460.0351,-136.7433"/>
</g>
<!-- Node36 -->
<g id="node37" class="node">
<title>Node36</title>
<polygon fill="none" stroke="#bfbfbf" points="1495.5,-112.5 1495.5,-142.5 1623.5,-142.5 1623.5,-112.5 1495.5,-112.5"/>
<text text-anchor="start" x="1503.5" y="-130.5" font-family="Helvetica,sans-Serif" font-size="10.00" fill="#000000">deal.II/lac/blas_extension</text>
<text text-anchor="middle" x="1559.5" y="-119.5" font-family="Helvetica,sans-Serif" font-size="10.00" fill="#000000">_templates.h</text>
</g>
<!-- Node34&#45;&gt;Node36 -->
<g id="edge56" class="edge">
<title>Node34&#45;&gt;Node36</title>
<path fill="none" stroke="#191970" d="M1604.2188,-179.3906C1597.5108,-171.6068 1587.7841,-160.3202 1579.1141,-150.2597"/>
<polygon fill="#191970" stroke="#191970" points="1581.6448,-147.8349 1572.4653,-142.5446 1576.3422,-152.4046 1581.6448,-147.8349"/>
</g>
<!-- Node37 -->
<g id="node38" class="node">
<title>Node37</title>
<polygon fill="none" stroke="#bfbfbf" points="1641.5,-118 1641.5,-137 1767.5,-137 1767.5,-118 1641.5,-118"/>
<text text-anchor="middle" x="1704.5" y="-125" font-family="Helvetica,sans-Serif" font-size="10.00" fill="#000000">deal.II/lac/block_vector.h</text>
</g>
<!-- Node34&#45;&gt;Node37 -->
<g id="edge57" class="edge">
<title>Node34&#45;&gt;Node37</title>
<path fill="none" stroke="#191970" d="M1626.875,-179.3906C1641.5931,-169.5519 1664.6832,-154.1167 1681.8589,-142.6351"/>
<polygon fill="#191970" stroke="#191970" points="1683.8575,-145.5091 1690.2259,-137.0419 1679.9673,-139.6896 1683.8575,-145.5091"/>
</g>
<!-- Node38 -->
<g id="node39" class="node">
<title>Node38</title>
<polygon fill="none" stroke="#bfbfbf" points="1933,-112.5 1933,-142.5 2024,-142.5 2024,-112.5 1933,-112.5"/>
<text text-anchor="start" x="1941" y="-130.5" font-family="Helvetica,sans-Serif" font-size="10.00" fill="#000000">deal.II/lac/lapack</text>
<text text-anchor="middle" x="1978.5" y="-119.5" font-family="Helvetica,sans-Serif" font-size="10.00" fill="#000000">_full_matrix.h</text>
</g>
<!-- Node34&#45;&gt;Node38 -->
<g id="edge59" class="edge">
<title>Node34&#45;&gt;Node38</title>
<path fill="none" stroke="#191970" d="M1657.6701,-183.095C1727.5421,-173.8402 1859.6304,-155.8367 1923.0181,-143.1119"/>
<polygon fill="#191970" stroke="#191970" points="1923.8703,-146.5095 1932.9432,-141.0383 1922.4387,-139.6575 1923.8703,-146.5095"/>
</g>
<!-- Node39 -->
<g id="node40" class="node">
<title>Node39</title>
<polygon fill="none" stroke="#bfbfbf" points="2081,-112.5 2081,-142.5 2172,-142.5 2172,-112.5 2081,-112.5"/>
<text text-anchor="start" x="2089" y="-130.5" font-family="Helvetica,sans-Serif" font-size="10.00" fill="#000000">deal.II/lac/lapack</text>
<text text-anchor="middle" x="2126.5" y="-119.5" font-family="Helvetica,sans-Serif" font-size="10.00" fill="#000000">_support.h</text>
</g>
<!-- Node34&#45;&gt;Node39 -->
<g id="edge60" class="edge">
<title>Node34&#45;&gt;Node39</title>
<path fill="none" stroke="#191970" d="M1657.7149,-183.814C1671.4534,-182.2512 1686.593,-180.5419 1700.5,-179 1848.4558,-162.5959 1886.0207,-163.2448 2033.5,-143 2045.5357,-141.3478 2058.4095,-139.3509 2070.6238,-137.3479"/>
<polygon fill="#191970" stroke="#191970" points="2071.4063,-140.7659 2080.6959,-135.6714 2070.2569,-133.8609 2071.4063,-140.7659"/>
</g>
<!-- Node40 -->
<g id="node41" class="node">
<title>Node40</title>
<polygon fill="none" stroke="#bfbfbf" points="1824,-112.5 1824,-142.5 1915,-142.5 1915,-112.5 1824,-112.5"/>
<text text-anchor="start" x="1832" y="-130.5" font-family="Helvetica,sans-Serif" font-size="10.00" fill="#000000">deal.II/lac/lapack</text>
<text text-anchor="middle" x="1869.5" y="-119.5" font-family="Helvetica,sans-Serif" font-size="10.00" fill="#000000">_templates.h</text>
</g>
<!-- Node34&#45;&gt;Node40 -->
<g id="edge61" class="edge">
<title>Node34&#45;&gt;Node40</title>
<path fill="none" stroke="#191970" d="M1652.3743,-179.4581C1695.7701,-169.0735 1765.4584,-152.3971 1814.144,-140.7467"/>
<polygon fill="#191970" stroke="#191970" points="1814.981,-144.1453 1823.8919,-138.414 1813.3519,-137.3375 1814.981,-144.1453"/>
</g>
<!-- Node41 -->
<g id="node42" class="node">
<title>Node41</title>
<polygon fill="none" stroke="#bfbfbf" points="1015.5,-112.5 1015.5,-142.5 1107.5,-142.5 1107.5,-112.5 1015.5,-112.5"/>
<text text-anchor="start" x="1023.5" y="-130.5" font-family="Helvetica,sans-Serif" font-size="10.00" fill="#000000">deal.II/lac/sparse</text>
<text text-anchor="middle" x="1061.5" y="-119.5" font-family="Helvetica,sans-Serif" font-size="10.00" fill="#000000">_matrix.h</text>
</g>
<!-- Node34&#45;&gt;Node41 -->
<g id="edge62" class="edge">
<title>Node34&#45;&gt;Node41</title>
<path fill="none" stroke="#191970" d="M1567.4735,-180.3072C1564.442,-179.8314 1561.4299,-179.3896 1558.5,-179 1366.3681,-153.4532 1312.2687,-177.0825 1117.5459,-142.9575"/>
<polygon fill="#191970" stroke="#191970" points="1118.0213,-139.4872 1107.5625,-141.1794 1116.7938,-146.3787 1118.0213,-139.4872"/>
</g>
<!-- Node42 -->
<g id="node43" class="node">
<title>Node42</title>
<polygon fill="none" stroke="#bfbfbf" points="1126,-118 1126,-137 1227,-137 1227,-118 1126,-118"/>
<text text-anchor="middle" x="1176.5" y="-125" font-family="Helvetica,sans-Serif" font-size="10.00" fill="#000000">deal.II/lac/utilities.h</text>
</g>
<!-- Node34&#45;&gt;Node42 -->
<g id="edge63" class="edge">
<title>Node34&#45;&gt;Node42</title>
<path fill="none" stroke="#191970" d="M1567.4592,-180.4092C1564.4311,-179.9088 1561.4237,-179.4336 1558.5,-179 1416.0551,-157.8757 1378.1225,-169.0743 1236.5,-143 1231.0773,-142.0016 1225.4212,-140.7818 1219.8423,-139.4691"/>
<polygon fill="#191970" stroke="#191970" points="1220.4978,-136.0261 1209.951,-137.034 1218.8244,-142.8231 1220.4978,-136.0261"/>
</g>
<!-- Node43 -->
<g id="node44" class="node">
<title>Node43</title>
<polygon fill="none" stroke="#bfbfbf" points="1245.5,-118 1245.5,-137 1343.5,-137 1343.5,-118 1245.5,-118"/>
<text text-anchor="middle" x="1294.5" y="-125" font-family="Helvetica,sans-Serif" font-size="10.00" fill="#000000">deal.II/lac/vector.h</text>
</g>
<!-- Node34&#45;&gt;Node43 -->
<g id="edge64" class="edge">
<title>Node34&#45;&gt;Node43</title>
<path fill="none" stroke="#191970" d="M1567.425,-180.6176C1564.4052,-180.0669 1561.4089,-179.5235 1558.5,-179 1467.0264,-162.5378 1443.2619,-163.0175 1352.5,-143 1347.7862,-141.9604 1342.8797,-140.7896 1338.0046,-139.5692"/>
<polygon fill="#191970" stroke="#191970" points="1338.6704,-136.1265 1328.1134,-137.0205 1336.9237,-142.9051 1338.6704,-136.1265"/>
</g>
<!-- Node44&#45;&gt;Node7 -->
<g id="edge68" class="edge">
<title>Node44&#45;&gt;Node7</title>
<path fill="none" stroke="#191970" d="M2191.8851,-240.9581C2130.1486,-228.0438 2021.8955,-205.3991 1971.1832,-194.7909"/>
<polygon fill="#191970" stroke="#191970" points="1971.7774,-191.3395 1961.2726,-192.7177 1970.344,-198.1912 1971.7774,-191.3395"/>
</g>
<!-- Node44&#45;&gt;Node10 -->
<g id="edge69" class="edge">
<title>Node44&#45;&gt;Node10</title>
<path fill="none" stroke="#191970" d="M2242.8277,-240.6586C2258.8335,-209.6102 2302.6842,-112.4466 2257.5,-56 2236.2283,-29.4262 2137.0077,-17.1497 2084.8052,-12.4482"/>
<polygon fill="#191970" stroke="#191970" points="2084.9893,-8.9512 2074.7263,-11.5822 2084.3899,-15.9255 2084.9893,-8.9512"/>
</g>
<!-- Node44&#45;&gt;Node13 -->
<g id="edge67" class="edge">
<title>Node44&#45;&gt;Node13</title>
<path fill="none" stroke="#191970" d="M2236.6069,-240.9486C2234.3362,-218.2586 2227.5748,-159.4686 2214.5,-112 2212.0021,-102.9312 2208.3402,-93.1889 2204.9704,-85.0151"/>
<polygon fill="#191970" stroke="#191970" points="2208.1221,-83.4838 2200.9677,-75.6693 2201.6874,-86.2397 2208.1221,-83.4838"/>
</g>
<!-- Node45&#45;&gt;Node4 -->
<g id="edge73" class="edge">
<title>Node45&#45;&gt;Node4</title>
<path fill="none" stroke="#191970" d="M1959.3872,-309.582C1891.9639,-303.9492 1723.8409,-288.6849 1584.5,-266 1359.1815,-229.3179 1093.7212,-165.7967 987.2178,-139.467"/>
<polygon fill="#191970" stroke="#191970" points="987.9623,-136.0457 977.414,-137.0372 986.2783,-142.8402 987.9623,-136.0457"/>
</g>
<!-- Node45&#45;&gt;Node7 -->
<g id="edge77" class="edge">
<title>Node45&#45;&gt;Node7</title>
<path fill="none" stroke="#191970" d="M1985.8905,-302.3484C1978.2991,-282.0499 1960.5625,-234.6235 1950.605,-207.9981"/>
<polygon fill="#191970" stroke="#191970" points="1953.874,-206.7472 1947.0928,-198.6068 1947.3175,-209.1992 1953.874,-206.7472"/>
</g>
<!-- Node45&#45;&gt;Node10 -->
<g id="edge78" class="edge">
<title>Node45&#45;&gt;Node10</title>
<path fill="none" stroke="#191970" d="M2019.7408,-309.3615C2092.9603,-302.7077 2275.2496,-284.4549 2295.5,-266 2321.5528,-242.2572 2314.5,-224.2487 2314.5,-189 2314.5,-189 2314.5,-189 2314.5,-127.5 2314.5,-91.513 2305.313,-77.5609 2276.5,-56 2246.5515,-33.5893 2139.3246,-19.2472 2084.8128,-13.2379"/>
<polygon fill="#191970" stroke="#191970" points="2084.9683,-9.7346 2074.6518,-12.1473 2084.2211,-16.6946 2084.9683,-9.7346"/>
</g>
<!-- Node45&#45;&gt;Node13 -->
<g id="edge72" class="edge">
<title>Node45&#45;&gt;Node13</title>
<path fill="none" stroke="#191970" d="M2006.8365,-302.4143C2045.3976,-280.0907 2138.2659,-220.58 2181.5,-143 2191.4116,-125.2144 2194.8623,-101.9419 2196.0181,-85.6566"/>
<polygon fill="#191970" stroke="#191970" points="2199.5147,-85.8095 2196.5027,-75.6518 2192.5229,-85.4707 2199.5147,-85.8095"/>
</g>
<!-- Node45&#45;&gt;Node31 -->
<g id="edge79" class="edge">
<title>Node45&#45;&gt;Node31</title>
<path fill="none" stroke="#191970" d="M1959.2261,-306.6499C1901.3428,-296.4205 1774.1008,-273.9338 1699.3907,-260.7307"/>
<polygon fill="#191970" stroke="#191970" points="1699.6666,-257.2253 1689.2101,-258.9315 1698.4484,-264.1185 1699.6666,-257.2253"/>
</g>
<!-- Node45&#45;&gt;Node38 -->
<g id="edge74" class="edge">
<title>Node45&#45;&gt;Node38</title>
<path fill="none" stroke="#191970" d="M1993.3624,-302.3228C1996.8038,-293.1446 2001.5833,-278.8807 2003.5,-266 2009.1911,-227.7544 2012.1631,-216.6837 2003.5,-179 2001.3321,-169.5697 1997.1972,-159.8635 1992.9051,-151.4553"/>
<polygon fill="#191970" stroke="#191970" points="1995.9405,-149.7108 1988.0887,-142.5975 1989.7908,-153.0547 1995.9405,-149.7108"/>
</g>
<!-- Node45&#45;&gt;Node39 -->
<g id="edge75" class="edge">
<title>Node45&#45;&gt;Node39</title>
<path fill="none" stroke="#191970" d="M1996.6728,-302.3402C2017.5489,-274.2261 2078.7092,-191.8605 2109.0366,-151.0183"/>
<polygon fill="#191970" stroke="#191970" points="2112.0347,-152.8516 2115.1863,-142.7363 2106.4146,-148.6784 2112.0347,-152.8516"/>
</g>
<!-- Node45&#45;&gt;Node40 -->
<g id="edge76" class="edge">
<title>Node45&#45;&gt;Node40</title>
<path fill="none" stroke="#191970" d="M1990.9345,-302.2117C1993.8479,-278.5802 1998.0338,-217.5205 1970.5,-179 1959.2976,-163.3276 1941.8978,-152.1112 1924.6768,-144.2344"/>
<polygon fill="#191970" stroke="#191970" points="1925.7409,-140.8838 1915.1685,-140.1949 1923.0038,-147.3265 1925.7409,-140.8838"/>
</g>
</g>
</svg>
