<?xml version="1.0" encoding="UTF-8" standalone="no"?>
<!DOCTYPE svg PUBLIC "-//W3C//DTD SVG 1.1//EN"
 "http://www.w3.org/Graphics/SVG/1.1/DTD/svg11.dtd">
<!-- Generated by graphviz version 2.40.1 (20161225.0304)
 -->
<!-- Title: /home/jihuan/Projects/deal.ii/program/dealii&#45;9.1.1/examples/laplace&#45;bem/tests/hmatrix&#45;vmult/hmatrix&#45;vmult.cc Pages: 1 -->
<svg width="2284pt" height="486pt"
 viewBox="0.00 0.00 2283.50 486.00" xmlns="http://www.w3.org/2000/svg" xmlns:xlink="http://www.w3.org/1999/xlink">
<g id="graph0" class="graph" transform="scale(1 1) rotate(0) translate(4 482)">
<title>/home/jihuan/Projects/deal.ii/program/dealii&#45;9.1.1/examples/laplace&#45;bem/tests/hmatrix&#45;vmult/hmatrix&#45;vmult.cc</title>
<!-- Node0 -->
<g id="node1" class="node">
<title>Node0</title>
<polygon fill="#bfbfbf" stroke="#000000" points="846,-414.5 846,-477.5 971,-477.5 971,-414.5 846,-414.5"/>
<text text-anchor="start" x="854" y="-465.5" font-family="Helvetica,sans-Serif" font-size="10.00" fill="#000000">/home/jihuan/Projects</text>
<text text-anchor="start" x="854" y="-454.5" font-family="Helvetica,sans-Serif" font-size="10.00" fill="#000000">/deal.ii/program/dealii</text>
<text text-anchor="start" x="854" y="-443.5" font-family="Helvetica,sans-Serif" font-size="10.00" fill="#000000">&#45;9.1.1/examples/laplace</text>
<text text-anchor="start" x="854" y="-432.5" font-family="Helvetica,sans-Serif" font-size="10.00" fill="#000000">&#45;bem/tests/hmatrix&#45;vmult</text>
<text text-anchor="middle" x="908.5" y="-421.5" font-family="Helvetica,sans-Serif" font-size="10.00" fill="#000000">/hmatrix&#45;vmult.cc</text>
</g>
<!-- Node1 -->
<g id="node2" class="node">
<title>Node1</title>
<g id="a_node2"><a xlink:href="debug__tools_8h.html" target="_top" xlink:title="This file includes a bunch of helper functions for printing out and visualizing information about gri...">
<polygon fill="none" stroke="#000000" points="228,-118 228,-137 305,-137 305,-118 228,-118"/>
<text text-anchor="middle" x="266.5" y="-125" font-family="Helvetica,sans-Serif" font-size="10.00" fill="#000000">debug_tools.h</text>
</a>
</g>
</g>
<!-- Node0&#45;&gt;Node1 -->
<g id="edge1" class="edge">
<title>Node0&#45;&gt;Node1</title>
<path fill="none" stroke="#191970" d="M845.9765,-440.0891C679.4007,-423.5058 237.5,-373.6983 237.5,-312 237.5,-312 237.5,-312 237.5,-250.5 237.5,-213.0192 250.4145,-170.7872 259.007,-146.8364"/>
<polygon fill="#191970" stroke="#191970" points="262.385,-147.794 262.5889,-137.2011 255.8237,-145.3548 262.385,-147.794"/>
</g>
<!-- Node9 -->
<g id="node10" class="node">
<title>Node9</title>
<g id="a_node10"><a xlink:href="hmatrix_8h.html" target="_top" xlink:title="Definition of hierarchical matrix. ">
<polygon fill="none" stroke="#000000" points="1615,-358.5 1615,-377.5 1672,-377.5 1672,-358.5 1615,-358.5"/>
<text text-anchor="middle" x="1643.5" y="-365.5" font-family="Helvetica,sans-Serif" font-size="10.00" fill="#000000">hmatrix.h</text>
</a>
</g>
</g>
<!-- Node0&#45;&gt;Node9 -->
<g id="edge9" class="edge">
<title>Node0&#45;&gt;Node9</title>
<path fill="none" stroke="#191970" d="M971.1657,-439.3498C1118.765,-423.6862 1484.8541,-384.8359 1604.7817,-372.1089"/>
<polygon fill="#191970" stroke="#191970" points="1605.3801,-375.5651 1614.9549,-371.0293 1604.6414,-368.6042 1605.3801,-375.5651"/>
</g>
<!-- Node2 -->
<g id="node3" class="node">
<title>Node2</title>
<polygon fill="none" stroke="#bfbfbf" points="48,-.5 48,-19.5 175,-19.5 175,-.5 48,-.5"/>
<text text-anchor="middle" x="111.5" y="-7.5" font-family="Helvetica,sans-Serif" font-size="10.00" fill="#000000">deal.II/dofs/dof_handler.h</text>
</g>
<!-- Node1&#45;&gt;Node2 -->
<g id="edge2" class="edge">
<title>Node1&#45;&gt;Node2</title>
<path fill="none" stroke="#191970" d="M234.6115,-117.972C194.5056,-105.7059 129.9497,-84.9124 122.5,-76 111.9186,-63.3411 109.6926,-44.413 109.8078,-30.0688"/>
<polygon fill="#191970" stroke="#191970" points="113.319,-29.9068 110.2871,-19.7551 106.3265,-29.5817 113.319,-29.9068"/>
</g>
<!-- Node3 -->
<g id="node4" class="node">
<title>Node3</title>
<polygon fill="none" stroke="#bfbfbf" points="360.5,-.5 360.5,-19.5 476.5,-19.5 476.5,-.5 360.5,-.5"/>
<text text-anchor="middle" x="418.5" y="-7.5" font-family="Helvetica,sans-Serif" font-size="10.00" fill="#000000">deal.II/dofs/dof_tools.h</text>
</g>
<!-- Node1&#45;&gt;Node3 -->
<g id="edge3" class="edge">
<title>Node1&#45;&gt;Node3</title>
<path fill="none" stroke="#191970" d="M236.0516,-117.9047C198.1782,-105.6669 137.7077,-85.0122 131.5,-76 126.4577,-68.6797 125.7334,-62.7645 131.5,-56 145.549,-39.5199 269.7992,-24.4582 350.1452,-16.3226"/>
<polygon fill="#191970" stroke="#191970" points="350.5992,-19.7948 360.2014,-15.3172 349.9028,-12.8295 350.5992,-19.7948"/>
</g>
<!-- Node4 -->
<g id="node5" class="node">
<title>Node4</title>
<polygon fill="none" stroke="#bfbfbf" points="173.5,-56.5 173.5,-75.5 247.5,-75.5 247.5,-56.5 173.5,-56.5"/>
<text text-anchor="middle" x="210.5" y="-63.5" font-family="Helvetica,sans-Serif" font-size="10.00" fill="#000000">deal.II/fe/fe.h</text>
</g>
<!-- Node1&#45;&gt;Node4 -->
<g id="edge4" class="edge">
<title>Node1&#45;&gt;Node4</title>
<path fill="none" stroke="#191970" d="M257.75,-117.8906C249.3338,-108.6478 236.4203,-94.466 226.219,-83.2628"/>
<polygon fill="#191970" stroke="#191970" points="228.694,-80.7824 219.3734,-75.7449 223.5182,-85.4953 228.694,-80.7824"/>
</g>
<!-- Node5 -->
<g id="node6" class="node">
<title>Node5</title>
<polygon fill="none" stroke="#bfbfbf" points="265.5,-56.5 265.5,-75.5 377.5,-75.5 377.5,-56.5 265.5,-56.5"/>
<text text-anchor="middle" x="321.5" y="-63.5" font-family="Helvetica,sans-Serif" font-size="10.00" fill="#000000">deal.II/fe/fe_system.h</text>
</g>
<!-- Node1&#45;&gt;Node5 -->
<g id="edge5" class="edge">
<title>Node1&#45;&gt;Node5</title>
<path fill="none" stroke="#191970" d="M275.0938,-117.8906C283.3597,-108.6478 296.0426,-94.466 306.0617,-83.2628"/>
<polygon fill="#191970" stroke="#191970" points="308.7278,-85.5321 312.7851,-75.7449 303.51,-80.8657 308.7278,-85.5321"/>
</g>
<!-- Node6 -->
<g id="node7" class="node">
<title>Node6</title>
<polygon fill="none" stroke="#bfbfbf" points="578,-.5 578,-19.5 681,-19.5 681,-.5 578,-.5"/>
<text text-anchor="middle" x="629.5" y="-7.5" font-family="Helvetica,sans-Serif" font-size="10.00" fill="#000000">deal.II/fe/mapping.h</text>
</g>
<!-- Node1&#45;&gt;Node6 -->
<g id="edge6" class="edge">
<title>Node1&#45;&gt;Node6</title>
<path fill="none" stroke="#191970" d="M231.3439,-117.9385C192.8958,-105.8355 139.8168,-83.2454 164.5,-56 171.2049,-48.5991 442.8517,-25.3566 567.786,-15.0301"/>
<polygon fill="#191970" stroke="#191970" points="568.2873,-18.5007 577.9657,-14.1904 567.7118,-11.5244 568.2873,-18.5007"/>
</g>
<!-- Node7 -->
<g id="node8" class="node">
<title>Node7</title>
<polygon fill="none" stroke="#bfbfbf" points="395.5,-56.5 395.5,-75.5 449.5,-75.5 449.5,-56.5 395.5,-56.5"/>
<text text-anchor="middle" x="422.5" y="-63.5" font-family="Helvetica,sans-Serif" font-size="10.00" fill="#000000">iostream</text>
</g>
<!-- Node1&#45;&gt;Node7 -->
<g id="edge7" class="edge">
<title>Node1&#45;&gt;Node7</title>
<path fill="none" stroke="#191970" d="M290.875,-117.8906C317.2056,-107.5103 359.338,-90.9004 388.8229,-79.2766"/>
<polygon fill="#191970" stroke="#191970" points="390.2767,-82.4657 398.2962,-75.5419 387.7093,-75.9534 390.2767,-82.4657"/>
</g>
<!-- Node8 -->
<g id="node9" class="node">
<title>Node8</title>
<polygon fill="none" stroke="#bfbfbf" points="0,-56.5 0,-75.5 41,-75.5 41,-56.5 0,-56.5"/>
<text text-anchor="middle" x="20.5" y="-63.5" font-family="Helvetica,sans-Serif" font-size="10.00" fill="#000000">string</text>
</g>
<!-- Node1&#45;&gt;Node8 -->
<g id="edge8" class="edge">
<title>Node1&#45;&gt;Node8</title>
<path fill="none" stroke="#191970" d="M234.9178,-117.9239C227.8894,-115.8878 220.4589,-113.8086 213.5,-112 143.7938,-93.8836 125.2622,-93.8996 55.5,-76 54.0462,-75.627 52.5609,-75.2371 51.0625,-74.8367"/>
<polygon fill="#191970" stroke="#191970" points="51.7483,-71.3952 41.1775,-72.1089 49.8861,-78.143 51.7483,-71.3952"/>
</g>
<!-- Node9&#45;&gt;Node7 -->
<g id="edge14" class="edge">
<title>Node9&#45;&gt;Node7</title>
<path fill="none" stroke="#191970" d="M1614.9877,-367.4223C1446.2607,-363.9282 584.1886,-344.9988 533.5,-322 493.5641,-303.88 465.5,-294.3544 465.5,-250.5 465.5,-250.5 465.5,-250.5 465.5,-189 465.5,-150.2042 446.2018,-108.1869 433.462,-84.6758"/>
<polygon fill="#191970" stroke="#191970" points="436.425,-82.8039 428.479,-75.7959 430.3205,-86.2295 436.425,-82.8039"/>
</g>
<!-- Node9&#45;&gt;Node8 -->
<g id="edge16" class="edge">
<title>Node9&#45;&gt;Node8</title>
<path fill="none" stroke="#191970" d="M1614.7459,-367.6382C1447.2373,-365.4263 600.8637,-352.79 489.5,-322 300.7415,-269.8118 104.3495,-129.597 41.2874,-82.0353"/>
<polygon fill="#191970" stroke="#191970" points="43.0468,-78.9763 32.9674,-75.7117 38.8111,-84.5493 43.0468,-78.9763"/>
</g>
<!-- Node10 -->
<g id="node11" class="node">
<title>Node10</title>
<polygon fill="none" stroke="#bfbfbf" points="1857.5,-302.5 1857.5,-321.5 1979.5,-321.5 1979.5,-302.5 1857.5,-302.5"/>
<text text-anchor="middle" x="1918.5" y="-309.5" font-family="Helvetica,sans-Serif" font-size="10.00" fill="#000000">deal.II/base/logstream.h</text>
</g>
<!-- Node9&#45;&gt;Node10 -->
<g id="edge10" class="edge">
<title>Node9&#45;&gt;Node10</title>
<path fill="none" stroke="#191970" d="M1672.1516,-362.1655C1716.7942,-353.0746 1803.811,-335.3549 1861.5526,-323.5966"/>
<polygon fill="#191970" stroke="#191970" points="1862.5207,-326.9713 1871.6212,-321.5462 1861.1238,-320.1121 1862.5207,-326.9713"/>
</g>
<!-- Node11 -->
<g id="node12" class="node">
<title>Node11</title>
<polygon fill="none" stroke="#bfbfbf" points="2017.5,-118 2017.5,-137 2133.5,-137 2133.5,-118 2017.5,-118"/>
<text text-anchor="middle" x="2075.5" y="-125" font-family="Helvetica,sans-Serif" font-size="10.00" fill="#000000">deal.II/lac/full_matrix.h</text>
</g>
<!-- Node9&#45;&gt;Node11 -->
<g id="edge11" class="edge">
<title>Node9&#45;&gt;Node11</title>
<path fill="none" stroke="#191970" d="M1672.2585,-366.8573C1761.5263,-363.032 2029.5196,-349.3483 2056.5,-322 2103.0097,-274.856 2089.641,-186.5299 2080.6658,-147.229"/>
<polygon fill="#191970" stroke="#191970" points="2084.018,-146.2021 2078.2511,-137.3143 2077.2168,-147.8585 2084.018,-146.2021"/>
</g>
<!-- Node12 -->
<g id="node13" class="node">
<title>Node12</title>
<polygon fill="none" stroke="#bfbfbf" points="945.5,-56.5 945.5,-75.5 1001.5,-75.5 1001.5,-56.5 945.5,-56.5"/>
<text text-anchor="middle" x="973.5" y="-63.5" font-family="Helvetica,sans-Serif" font-size="10.00" fill="#000000">algorithm</text>
</g>
<!-- Node9&#45;&gt;Node12 -->
<g id="edge12" class="edge">
<title>Node9&#45;&gt;Node12</title>
<path fill="none" stroke="#191970" d="M1614.6534,-367.1978C1464.2156,-362.6422 776.5,-337.0812 776.5,-250.5 776.5,-250.5 776.5,-250.5 776.5,-189 776.5,-153.7513 770.7126,-137.061 795.5,-112 798.0119,-109.4603 884.0961,-87.9681 935.6121,-75.279"/>
<polygon fill="#191970" stroke="#191970" points="936.5448,-78.654 945.4194,-72.8668 934.8729,-71.8566 936.5448,-78.654"/>
</g>
<!-- Node13 -->
<g id="node14" class="node">
<title>Node13</title>
<polygon fill="none" stroke="#bfbfbf" points="1997.5,-302.5 1997.5,-321.5 2047.5,-321.5 2047.5,-302.5 1997.5,-302.5"/>
<text text-anchor="middle" x="2022.5" y="-309.5" font-family="Helvetica,sans-Serif" font-size="10.00" fill="#000000">fstream</text>
</g>
<!-- Node9&#45;&gt;Node13 -->
<g id="edge13" class="edge">
<title>Node9&#45;&gt;Node13</title>
<path fill="none" stroke="#191970" d="M1672.3793,-365.6592C1730.3916,-360.6354 1865.2873,-347.3345 1987.4628,-321.9508"/>
<polygon fill="#191970" stroke="#191970" points="1988.2975,-325.3518 1997.359,-319.8619 1986.8518,-318.5027 1988.2975,-325.3518"/>
</g>
<!-- Node14 -->
<g id="node15" class="node">
<title>Node14</title>
<polygon fill="none" stroke="#bfbfbf" points="1755,-179.5 1755,-198.5 1790,-198.5 1790,-179.5 1755,-179.5"/>
<text text-anchor="middle" x="1772.5" y="-186.5" font-family="Helvetica,sans-Serif" font-size="10.00" fill="#000000">map</text>
</g>
<!-- Node9&#45;&gt;Node14 -->
<g id="edge15" class="edge">
<title>Node9&#45;&gt;Node14</title>
<path fill="none" stroke="#191970" d="M1650.4356,-358.3762C1671.0843,-329.7241 1732.3984,-244.6448 1759.4393,-207.1229"/>
<polygon fill="#191970" stroke="#191970" points="1762.5229,-208.8305 1765.5301,-198.6714 1756.844,-204.7378 1762.5229,-208.8305"/>
</g>
<!-- Node15 -->
<g id="node16" class="node">
<title>Node15</title>
<polygon fill="none" stroke="#bfbfbf" points="1695.5,-.5 1695.5,-19.5 1735.5,-19.5 1735.5,-.5 1695.5,-.5"/>
<text text-anchor="middle" x="1715.5" y="-7.5" font-family="Helvetica,sans-Serif" font-size="10.00" fill="#000000">utility</text>
</g>
<!-- Node9&#45;&gt;Node15 -->
<g id="edge17" class="edge">
<title>Node9&#45;&gt;Node15</title>
<path fill="none" stroke="#191970" d="M1672.1143,-366.4233C1760.9041,-361.3406 2030.8331,-344.4055 2115.5,-322 2190.7966,-302.0741 2275.5,-328.3885 2275.5,-250.5 2275.5,-250.5 2275.5,-250.5 2275.5,-127.5 2275.5,-73.2245 2227.2489,-75.2452 2176.5,-56 2097.0952,-25.8877 1835.0201,-14.154 1745.6597,-10.9677"/>
<polygon fill="#191970" stroke="#191970" points="1745.7573,-7.4691 1735.6421,-10.6209 1745.515,-14.4649 1745.7573,-7.4691"/>
</g>
<!-- Node16 -->
<g id="node17" class="node">
<title>Node16</title>
<polygon fill="none" stroke="#bfbfbf" points="1073.5,-.5 1073.5,-19.5 1117.5,-19.5 1117.5,-.5 1073.5,-.5"/>
<text text-anchor="middle" x="1095.5" y="-7.5" font-family="Helvetica,sans-Serif" font-size="10.00" fill="#000000">vector</text>
</g>
<!-- Node9&#45;&gt;Node16 -->
<g id="edge18" class="edge">
<title>Node9&#45;&gt;Node16</title>
<path fill="none" stroke="#191970" d="M1614.9922,-367.8771C1493.9055,-367.1112 1021.9269,-361.5942 879.5,-322 827.7863,-307.6237 812.9001,-301.3387 772.5,-266 713.3306,-214.2435 634.8265,-172.0995 685.5,-112 746.5409,-39.6045 805.3714,-105.0508 895.5,-76 914.797,-69.7801 917.5808,-63.2887 936.5,-56 979.4486,-39.4538 1030.894,-25.6058 1063.3927,-17.5565"/>
<polygon fill="#191970" stroke="#191970" points="1064.3595,-20.9233 1073.2436,-15.1507 1062.6987,-14.1231 1064.3595,-20.9233"/>
</g>
<!-- Node17 -->
<g id="node18" class="node">
<title>Node17</title>
<g id="a_node18"><a xlink:href="block__cluster_8h.html" target="_top" xlink:title="Implementation of the class BlockCluster. ">
<polygon fill="none" stroke="#000000" points="618,-241 618,-260 701,-260 701,-241 618,-241"/>
<text text-anchor="middle" x="659.5" y="-248" font-family="Helvetica,sans-Serif" font-size="10.00" fill="#000000">block_cluster.h</text>
</a>
</g>
</g>
<!-- Node9&#45;&gt;Node17 -->
<g id="edge19" class="edge">
<title>Node9&#45;&gt;Node17</title>
<path fill="none" stroke="#191970" d="M1614.5919,-367.2419C1462.0763,-363.1572 756.366,-343.169 715.5,-322 693.4974,-310.6025 677.4049,-286.2529 668.2582,-269.149"/>
<polygon fill="#191970" stroke="#191970" points="671.3083,-267.4241 663.6831,-260.0684 665.0569,-270.5738 671.3083,-267.4241"/>
</g>
<!-- Node30 -->
<g id="node31" class="node">
<title>Node30</title>
<g id="a_node31"><a xlink:href="block__cluster__tree_8h.html" target="_top" xlink:title="Implementation of the class BlockClusterTree. ">
<polygon fill="none" stroke="#000000" points="542.5,-302.5 542.5,-321.5 646.5,-321.5 646.5,-302.5 542.5,-302.5"/>
<text text-anchor="middle" x="594.5" y="-309.5" font-family="Helvetica,sans-Serif" font-size="10.00" fill="#000000">block_cluster_tree.h</text>
</a>
</g>
</g>
<!-- Node9&#45;&gt;Node30 -->
<g id="edge44" class="edge">
<title>Node9&#45;&gt;Node30</title>
<path fill="none" stroke="#191970" d="M1614.8169,-367.5002C1497.5796,-365.2762 1043.403,-354.8941 671.5,-322 666.7163,-321.5769 661.7729,-321.0779 656.8068,-320.5323"/>
<polygon fill="#191970" stroke="#191970" points="656.9609,-317.0269 646.6253,-319.3564 656.1577,-323.9807 656.9609,-317.0269"/>
</g>
<!-- Node31 -->
<g id="node32" class="node">
<title>Node31</title>
<g id="a_node32"><a xlink:href="lapack__full__matrix__ext_8h_source.html" target="_top" xlink:title="lapack_full_matrix\l_ext.h">
<polygon fill="none" stroke="#000000" points="1596,-235.5 1596,-265.5 1691,-265.5 1691,-235.5 1596,-235.5"/>
<text text-anchor="start" x="1604" y="-253.5" font-family="Helvetica,sans-Serif" font-size="10.00" fill="#000000">lapack_full_matrix</text>
<text text-anchor="middle" x="1643.5" y="-242.5" font-family="Helvetica,sans-Serif" font-size="10.00" fill="#000000">_ext.h</text>
</a>
</g>
</g>
<!-- Node9&#45;&gt;Node31 -->
<g id="edge70" class="edge">
<title>Node9&#45;&gt;Node31</title>
<path fill="none" stroke="#191970" d="M1643.5,-358.3845C1643.5,-340.544 1643.5,-301.7839 1643.5,-275.9138"/>
<polygon fill="#191970" stroke="#191970" points="1647.0001,-275.7143 1643.5,-265.7143 1640.0001,-275.7143 1647.0001,-275.7143"/>
</g>
<!-- Node44 -->
<g id="node45" class="node">
<title>Node44</title>
<g id="a_node45"><a xlink:href="generic__functors_8h.html" target="_top" xlink:title="This header file contains a set of self&#45;defined generic functors. ">
<polygon fill="none" stroke="#000000" points="2108,-241 2108,-260 2205,-260 2205,-241 2108,-241"/>
<text text-anchor="middle" x="2156.5" y="-248" font-family="Helvetica,sans-Serif" font-size="10.00" fill="#000000">generic_functors.h</text>
</a>
</g>
</g>
<!-- Node9&#45;&gt;Node44 -->
<g id="edge66" class="edge">
<title>Node9&#45;&gt;Node44</title>
<path fill="none" stroke="#191970" d="M1672.2515,-367.6336C1758.8329,-366.1289 2015.6643,-358.6119 2089.5,-322 2113.5469,-310.0762 2133.4031,-285.69 2145.0997,-268.7329"/>
<polygon fill="#191970" stroke="#191970" points="2148.1427,-270.4761 2150.7331,-260.2028 2142.3016,-266.6185 2148.1427,-270.4761"/>
</g>
<!-- Node45 -->
<g id="node46" class="node">
<title>Node45</title>
<g id="a_node46"><a xlink:href="rkmatrix_8h.html" target="_top" xlink:title="Definition of rank&#45;k matrix. ">
<polygon fill="none" stroke="#000000" points="1779.5,-302.5 1779.5,-321.5 1839.5,-321.5 1839.5,-302.5 1779.5,-302.5"/>
<text text-anchor="middle" x="1809.5" y="-309.5" font-family="Helvetica,sans-Serif" font-size="10.00" fill="#000000">rkmatrix.h</text>
</a>
</g>
</g>
<!-- Node9&#45;&gt;Node45 -->
<g id="edge71" class="edge">
<title>Node9&#45;&gt;Node45</title>
<path fill="none" stroke="#191970" d="M1672.0364,-358.3733C1699.5202,-349.1016 1741.2686,-335.0178 1771.5452,-324.804"/>
<polygon fill="#191970" stroke="#191970" points="1772.9794,-328.0141 1781.336,-321.5011 1770.7418,-321.3813 1772.9794,-328.0141"/>
</g>
<!-- Node18 -->
<g id="node19" class="node">
<title>Node18</title>
<g id="a_node19"><a xlink:href="cluster_8h.html" target="_top" xlink:title="Implementation of the class Cluster. ">
<polygon fill="none" stroke="#000000" points="694.5,-118 694.5,-137 748.5,-137 748.5,-118 694.5,-118"/>
<text text-anchor="middle" x="721.5" y="-125" font-family="Helvetica,sans-Serif" font-size="10.00" fill="#000000">cluster.h</text>
</a>
</g>
</g>
<!-- Node17&#45;&gt;Node18 -->
<g id="edge20" class="edge">
<title>Node17&#45;&gt;Node18</title>
<path fill="none" stroke="#191970" d="M664.365,-240.8484C674.6421,-220.4601 698.7146,-172.7033 712.1013,-146.1459"/>
<polygon fill="#191970" stroke="#191970" points="715.2818,-147.6119 716.6576,-137.1068 709.031,-144.4611 715.2818,-147.6119"/>
</g>
<!-- Node23 -->
<g id="node24" class="node">
<title>Node23</title>
<g id="a_node24"><a xlink:href="cluster__tree_8h_source.html" target="_top" xlink:title="cluster_tree.h">
<polygon fill="none" stroke="#000000" points="579.5,-179.5 579.5,-198.5 655.5,-198.5 655.5,-179.5 579.5,-179.5"/>
<text text-anchor="middle" x="617.5" y="-186.5" font-family="Helvetica,sans-Serif" font-size="10.00" fill="#000000">cluster_tree.h</text>
</a>
</g>
</g>
<!-- Node17&#45;&gt;Node23 -->
<g id="edge32" class="edge">
<title>Node17&#45;&gt;Node23</title>
<path fill="none" stroke="#191970" d="M652.9375,-240.8906C646.8092,-231.917 637.5015,-218.2879 629.9628,-207.2491"/>
<polygon fill="#191970" stroke="#191970" points="632.685,-205.029 624.155,-198.7449 626.9044,-208.9768 632.685,-205.029"/>
</g>
<!-- Node18&#45;&gt;Node12 -->
<g id="edge22" class="edge">
<title>Node18&#45;&gt;Node12</title>
<path fill="none" stroke="#191970" d="M745.1408,-117.8659C750.7741,-115.7649 756.8049,-113.6726 762.5,-112 836.1842,-90.3594 856.5851,-92.895 931.5,-76 932.7339,-75.7217 933.9876,-75.4367 935.2531,-75.147"/>
<polygon fill="#191970" stroke="#191970" points="936.1064,-78.5421 945.0549,-72.8696 934.5222,-71.7237 936.1064,-78.5421"/>
</g>
<!-- Node18&#45;&gt;Node16 -->
<g id="edge24" class="edge">
<title>Node18&#45;&gt;Node16</title>
<path fill="none" stroke="#191970" d="M748.8134,-121.2405C762.7372,-118.1868 779.9678,-114.6174 795.5,-112 857.5795,-101.5386 1028.7147,-116.9863 1076.5,-76 1089.6261,-64.7415 1093.9778,-45.0565 1095.284,-30.1062"/>
<polygon fill="#191970" stroke="#191970" points="1098.7945,-29.9726 1095.7841,-19.8145 1091.8028,-29.6328 1098.7945,-29.9726"/>
</g>
<!-- Node19 -->
<g id="node20" class="node">
<title>Node19</title>
<polygon fill="none" stroke="#bfbfbf" points="1980,-56.5 1980,-75.5 2083,-75.5 2083,-56.5 1980,-56.5"/>
<text text-anchor="middle" x="2031.5" y="-63.5" font-family="Helvetica,sans-Serif" font-size="10.00" fill="#000000">deal.II/base/types.h</text>
</g>
<!-- Node18&#45;&gt;Node19 -->
<g id="edge21" class="edge">
<title>Node18&#45;&gt;Node19</title>
<path fill="none" stroke="#191970" d="M748.7269,-120.6452C762.6286,-117.4397 779.8655,-113.9143 795.5,-112 912.3225,-97.6958 1735.5768,-74.154 1969.5918,-67.6882"/>
<polygon fill="#191970" stroke="#191970" points="1969.734,-71.1857 1979.6336,-67.4112 1969.5409,-64.1883 1969.734,-71.1857"/>
</g>
<!-- Node20 -->
<g id="node21" class="node">
<title>Node20</title>
<polygon fill="none" stroke="#bfbfbf" points="1020,-56.5 1020,-75.5 1067,-75.5 1067,-56.5 1020,-56.5"/>
<text text-anchor="middle" x="1043.5" y="-63.5" font-family="Helvetica,sans-Serif" font-size="10.00" fill="#000000">iterator</text>
</g>
<!-- Node18&#45;&gt;Node20 -->
<g id="edge23" class="edge">
<title>Node18&#45;&gt;Node20</title>
<path fill="none" stroke="#191970" d="M748.5108,-121.5677C762.5066,-118.5636 779.892,-114.9401 795.5,-112 887.643,-94.643 914.4539,-97.8574 1010.0245,-75.8605"/>
<polygon fill="#191970" stroke="#191970" points="1010.8629,-79.2589 1019.8056,-73.5775 1009.2717,-72.4422 1010.8629,-79.2589"/>
</g>
<!-- Node21 -->
<g id="node22" class="node">
<title>Node21</title>
<g id="a_node22"><a xlink:href="simple__bounding__box_8h_source.html" target="_top" xlink:title="simple_bounding_box.h">
<polygon fill="none" stroke="#000000" points="732,-56.5 732,-75.5 851,-75.5 851,-56.5 732,-56.5"/>
<text text-anchor="middle" x="791.5" y="-63.5" font-family="Helvetica,sans-Serif" font-size="10.00" fill="#000000">simple_bounding_box.h</text>
</a>
</g>
</g>
<!-- Node18&#45;&gt;Node21 -->
<g id="edge25" class="edge">
<title>Node18&#45;&gt;Node21</title>
<path fill="none" stroke="#191970" d="M732.4375,-117.8906C743.162,-108.4683 759.7287,-93.9134 772.5901,-82.6137"/>
<polygon fill="#191970" stroke="#191970" points="775.2059,-84.9745 780.4083,-75.7449 770.5857,-79.7158 775.2059,-84.9745"/>
</g>
<!-- Node21&#45;&gt;Node2 -->
<g id="edge27" class="edge">
<title>Node21&#45;&gt;Node2</title>
<path fill="none" stroke="#191970" d="M731.8269,-56.9799C729.0142,-56.6317 726.2277,-56.3027 723.5,-56 529.7274,-34.4972 300.2989,-20.2326 185.1788,-13.8444"/>
<polygon fill="#191970" stroke="#191970" points="185.2493,-10.343 175.0719,-13.2875 184.8642,-17.3324 185.2493,-10.343"/>
</g>
<!-- Node21&#45;&gt;Node3 -->
<g id="edge28" class="edge">
<title>Node21&#45;&gt;Node3</title>
<path fill="none" stroke="#191970" d="M731.9846,-57.0647C665.1354,-47.0284 556.8338,-30.7686 486.6453,-20.2309"/>
<polygon fill="#191970" stroke="#191970" points="486.9845,-16.7427 476.5757,-18.7191 485.9452,-23.6651 486.9845,-16.7427"/>
</g>
<!-- Node21&#45;&gt;Node6 -->
<g id="edge29" class="edge">
<title>Node21&#45;&gt;Node6</title>
<path fill="none" stroke="#191970" d="M763.6512,-56.3733C736.8297,-47.1016 696.0873,-33.0178 666.5402,-22.804"/>
<polygon fill="#191970" stroke="#191970" points="667.5802,-19.4603 656.9854,-19.5011 665.2931,-26.0762 667.5802,-19.4603"/>
</g>
<!-- Node21&#45;&gt;Node15 -->
<g id="edge30" class="edge">
<title>Node21&#45;&gt;Node15</title>
<path fill="none" stroke="#191970" d="M851.1035,-61.7563C877.2961,-59.9258 908.4222,-57.7972 936.5,-56 1228.0217,-37.3408 1581.0957,-17.4808 1685.2279,-11.6797"/>
<polygon fill="#191970" stroke="#191970" points="1685.5442,-15.1676 1695.3343,-11.1173 1685.1552,-8.1784 1685.5442,-15.1676"/>
</g>
<!-- Node21&#45;&gt;Node16 -->
<g id="edge31" class="edge">
<title>Node21&#45;&gt;Node16</title>
<path fill="none" stroke="#191970" d="M843.414,-56.4369C906.3989,-44.8344 1010.6577,-25.6289 1063.1647,-15.9565"/>
<polygon fill="#191970" stroke="#191970" points="1064.0492,-19.3525 1073.2496,-14.0988 1062.781,-12.4684 1064.0492,-19.3525"/>
</g>
<!-- Node22 -->
<g id="node23" class="node">
<title>Node22</title>
<polygon fill="none" stroke="#bfbfbf" points="741.5,-.5 741.5,-19.5 841.5,-19.5 841.5,-.5 741.5,-.5"/>
<text text-anchor="middle" x="791.5" y="-7.5" font-family="Helvetica,sans-Serif" font-size="10.00" fill="#000000">deal.II/base/point.h</text>
</g>
<!-- Node21&#45;&gt;Node22 -->
<g id="edge26" class="edge">
<title>Node21&#45;&gt;Node22</title>
<path fill="none" stroke="#191970" d="M791.5,-56.2455C791.5,-48.9382 791.5,-38.6944 791.5,-29.7046"/>
<polygon fill="#191970" stroke="#191970" points="795.0001,-29.6426 791.5,-19.6427 788.0001,-29.6427 795.0001,-29.6426"/>
</g>
<!-- Node23&#45;&gt;Node1 -->
<g id="edge34" class="edge">
<title>Node23&#45;&gt;Node1</title>
<path fill="none" stroke="#191970" d="M579.2687,-182.3013C515.085,-171.0555 385.7788,-148.3993 315.1921,-136.0315"/>
<polygon fill="#191970" stroke="#191970" points="315.6725,-132.5624 305.2185,-134.284 314.4643,-139.4574 315.6725,-132.5624"/>
</g>
<!-- Node23&#45;&gt;Node18 -->
<g id="edge33" class="edge">
<title>Node23&#45;&gt;Node18</title>
<path fill="none" stroke="#191970" d="M633.75,-179.3906C650.6169,-169.4165 677.2099,-153.6908 696.7035,-142.1633"/>
<polygon fill="#191970" stroke="#191970" points="698.538,-145.1447 705.3641,-137.0419 694.9749,-139.1194 698.538,-145.1447"/>
</g>
<!-- Node24 -->
<g id="node25" class="node">
<title>Node24</title>
<g id="a_node25"><a xlink:href="tree_8h.html" target="_top" xlink:title="Implementation of the classes for binary tree node, general tree node and functions for manipulating ...">
<polygon fill="none" stroke="#000000" points="597,-118 597,-137 638,-137 638,-118 597,-118"/>
<text text-anchor="middle" x="617.5" y="-125" font-family="Helvetica,sans-Serif" font-size="10.00" fill="#000000">tree.h</text>
</a>
</g>
</g>
<!-- Node23&#45;&gt;Node24 -->
<g id="edge35" class="edge">
<title>Node23&#45;&gt;Node24</title>
<path fill="none" stroke="#191970" d="M617.5,-179.3906C617.5,-170.8657 617.5,-158.1392 617.5,-147.4235"/>
<polygon fill="#191970" stroke="#191970" points="621.0001,-147.2448 617.5,-137.2449 614.0001,-147.2449 621.0001,-147.2448"/>
</g>
<!-- Node24&#45;&gt;Node7 -->
<g id="edge41" class="edge">
<title>Node24&#45;&gt;Node7</title>
<path fill="none" stroke="#191970" d="M596.6316,-120.9184C563.8646,-110.5842 499.9032,-90.4118 459.2883,-77.6025"/>
<polygon fill="#191970" stroke="#191970" points="460.3383,-74.2637 449.7486,-74.5938 458.2328,-80.9396 460.3383,-74.2637"/>
</g>
<!-- Node24&#45;&gt;Node12 -->
<g id="edge37" class="edge">
<title>Node24&#45;&gt;Node12</title>
<path fill="none" stroke="#191970" d="M638.2579,-122.3959C651.6862,-119.1864 669.5706,-115.0842 685.5,-112 774.465,-94.7751 879.7932,-79.1524 935.127,-71.3099"/>
<polygon fill="#191970" stroke="#191970" points="935.7713,-74.7538 945.1849,-69.8922 934.7943,-67.8223 935.7713,-74.7538"/>
</g>
<!-- Node24&#45;&gt;Node16 -->
<g id="edge43" class="edge">
<title>Node24&#45;&gt;Node16</title>
<path fill="none" stroke="#191970" d="M636.7994,-117.9417C641.8194,-115.7379 647.2847,-113.5799 652.5,-112 742.2895,-84.8005 770.9653,-104.0269 860.5,-76 880.6147,-69.7035 883.5963,-62.9345 903.5,-56 958.3834,-36.8784 1024.7929,-22.9069 1063.3832,-15.6518"/>
<polygon fill="#191970" stroke="#191970" points="1064.2988,-19.042 1073.4973,-13.7849 1063.0281,-12.1583 1064.2988,-19.042"/>
</g>
<!-- Node25 -->
<g id="node26" class="node">
<title>Node25</title>
<polygon fill="none" stroke="#bfbfbf" points="1432.5,-56.5 1432.5,-75.5 1558.5,-75.5 1558.5,-56.5 1432.5,-56.5"/>
<text text-anchor="middle" x="1495.5" y="-63.5" font-family="Helvetica,sans-Serif" font-size="10.00" fill="#000000">deal.II/base/exceptions.h</text>
</g>
<!-- Node24&#45;&gt;Node25 -->
<g id="edge36" class="edge">
<title>Node24&#45;&gt;Node25</title>
<path fill="none" stroke="#191970" d="M638.1651,-121.8417C651.5565,-118.4112 669.4345,-114.2709 685.5,-112 826.5296,-92.0653 1250.267,-74.9184 1422.0066,-68.5962"/>
<polygon fill="#191970" stroke="#191970" points="1422.3465,-72.0861 1432.2117,-68.2223 1422.0902,-65.0908 1422.3465,-72.0861"/>
</g>
<!-- Node26 -->
<g id="node27" class="node">
<title>Node26</title>
<polygon fill="none" stroke="#bfbfbf" points="598.5,-56.5 598.5,-75.5 636.5,-75.5 636.5,-56.5 598.5,-56.5"/>
<text text-anchor="middle" x="617.5" y="-63.5" font-family="Helvetica,sans-Serif" font-size="10.00" fill="#000000">array</text>
</g>
<!-- Node24&#45;&gt;Node26 -->
<g id="edge38" class="edge">
<title>Node24&#45;&gt;Node26</title>
<path fill="none" stroke="#191970" d="M617.5,-117.8906C617.5,-109.3657 617.5,-96.6392 617.5,-85.9235"/>
<polygon fill="#191970" stroke="#191970" points="621.0001,-85.7448 617.5,-75.7449 614.0001,-85.7449 621.0001,-85.7448"/>
</g>
<!-- Node27 -->
<g id="node28" class="node">
<title>Node27</title>
<polygon fill="none" stroke="#bfbfbf" points="655,-56.5 655,-75.5 714,-75.5 714,-56.5 655,-56.5"/>
<text text-anchor="middle" x="684.5" y="-63.5" font-family="Helvetica,sans-Serif" font-size="10.00" fill="#000000">exception</text>
</g>
<!-- Node24&#45;&gt;Node27 -->
<g id="edge39" class="edge">
<title>Node24&#45;&gt;Node27</title>
<path fill="none" stroke="#191970" d="M627.9688,-117.8906C638.2337,-108.4683 654.0903,-93.9134 666.4006,-82.6137"/>
<polygon fill="#191970" stroke="#191970" points="668.8834,-85.0856 673.8837,-75.7449 664.1499,-79.9287 668.8834,-85.0856"/>
</g>
<!-- Node28 -->
<g id="node29" class="node">
<title>Node28</title>
<polygon fill="none" stroke="#bfbfbf" points="468,-56.5 468,-75.5 527,-75.5 527,-56.5 468,-56.5"/>
<text text-anchor="middle" x="497.5" y="-63.5" font-family="Helvetica,sans-Serif" font-size="10.00" fill="#000000">functional</text>
</g>
<!-- Node24&#45;&gt;Node28 -->
<g id="edge40" class="edge">
<title>Node24&#45;&gt;Node28</title>
<path fill="none" stroke="#191970" d="M598.75,-117.8906C579.024,-107.7811 547.7688,-91.7628 525.2,-80.1962"/>
<polygon fill="#191970" stroke="#191970" points="526.614,-76.9881 516.1183,-75.5419 523.4213,-83.2176 526.614,-76.9881"/>
</g>
<!-- Node29 -->
<g id="node30" class="node">
<title>Node29</title>
<polygon fill="none" stroke="#bfbfbf" points="545,-56.5 545,-75.5 580,-75.5 580,-56.5 545,-56.5"/>
<text text-anchor="middle" x="562.5" y="-63.5" font-family="Helvetica,sans-Serif" font-size="10.00" fill="#000000">new</text>
</g>
<!-- Node24&#45;&gt;Node29 -->
<g id="edge42" class="edge">
<title>Node24&#45;&gt;Node29</title>
<path fill="none" stroke="#191970" d="M608.9063,-117.8906C600.6403,-108.6478 587.9574,-94.466 577.9383,-83.2628"/>
<polygon fill="#191970" stroke="#191970" points="580.49,-80.8657 571.2149,-75.7449 575.2722,-85.5321 580.49,-80.8657"/>
</g>
<!-- Node30&#45;&gt;Node1 -->
<g id="edge47" class="edge">
<title>Node30&#45;&gt;Node1</title>
<path fill="none" stroke="#191970" d="M577.3271,-302.3402C523.3042,-271.9524 356.6032,-178.1831 292.2322,-141.9743"/>
<polygon fill="#191970" stroke="#191970" points="293.9346,-138.9163 283.5029,-137.0641 290.5027,-145.0173 293.9346,-138.9163"/>
</g>
<!-- Node30&#45;&gt;Node17 -->
<g id="edge45" class="edge">
<title>Node30&#45;&gt;Node17</title>
<path fill="none" stroke="#191970" d="M604.6563,-302.3906C614.5199,-293.0581 629.7055,-278.6902 641.5987,-267.4374"/>
<polygon fill="#191970" stroke="#191970" points="644.3421,-269.6601 649.2006,-260.2449 639.5311,-264.5753 644.3421,-269.6601"/>
</g>
<!-- Node30&#45;&gt;Node23 -->
<g id="edge46" class="edge">
<title>Node30&#45;&gt;Node23</title>
<path fill="none" stroke="#191970" d="M596.3048,-302.3484C600.0668,-282.2295 608.8122,-235.4608 613.8144,-208.7098"/>
<polygon fill="#191970" stroke="#191970" points="617.3058,-209.0797 615.7036,-198.6068 610.4251,-207.793 617.3058,-209.0797"/>
</g>
<!-- Node30&#45;&gt;Node24 -->
<g id="edge65" class="edge">
<title>Node30&#45;&gt;Node24</title>
<path fill="none" stroke="#191970" d="M589.2919,-302.3098C577.9697,-279.8846 553.4515,-222.9717 570.5,-179 575.8173,-165.2857 586.6763,-152.9874 596.618,-143.8508"/>
<polygon fill="#191970" stroke="#191970" points="598.9951,-146.4224 604.271,-137.2346 594.4171,-141.1269 598.9951,-146.4224"/>
</g>
<!-- Node30&#45;&gt;Node31 -->
<g id="edge48" class="edge">
<title>Node30&#45;&gt;Node31</title>
<path fill="none" stroke="#191970" d="M646.5201,-308.9502C823.3215,-298.5848 1400.3548,-264.7549 1585.6525,-253.8914"/>
<polygon fill="#191970" stroke="#191970" points="1585.9585,-257.3796 1595.7365,-253.3002 1585.5488,-250.3916 1585.9585,-257.3796"/>
</g>
<!-- Node31&#45;&gt;Node14 -->
<g id="edge50" class="edge">
<title>Node31&#45;&gt;Node14</title>
<path fill="none" stroke="#191970" d="M1675.057,-235.4554C1696.6928,-225.1406 1725.0888,-211.603 1745.6412,-201.8048"/>
<polygon fill="#191970" stroke="#191970" points="1747.2372,-204.9214 1754.7577,-197.4586 1744.2248,-198.6027 1747.2372,-204.9214"/>
</g>
<!-- Node31&#45;&gt;Node16 -->
<g id="edge51" class="edge">
<title>Node31&#45;&gt;Node16</title>
<path fill="none" stroke="#191970" d="M1660.3941,-235.4074C1679.7797,-218.9343 1713.2033,-193.0382 1746.5,-179 1827.4646,-144.8646 1989.7262,-178.6757 1932.5,-112 1878.9596,-49.6187 1274.9477,-18.1783 1127.7153,-11.4095"/>
<polygon fill="#191970" stroke="#191970" points="1127.6842,-7.9045 1117.5358,-10.9475 1127.3668,-14.8973 1127.6842,-7.9045"/>
</g>
<!-- Node32 -->
<g id="node33" class="node">
<title>Node32</title>
<polygon fill="none" stroke="#bfbfbf" points="1530.5,-179.5 1530.5,-198.5 1570.5,-198.5 1570.5,-179.5 1530.5,-179.5"/>
<text text-anchor="middle" x="1550.5" y="-186.5" font-family="Helvetica,sans-Serif" font-size="10.00" fill="#000000">limits</text>
</g>
<!-- Node31&#45;&gt;Node32 -->
<g id="edge49" class="edge">
<title>Node31&#45;&gt;Node32</title>
<path fill="none" stroke="#191970" d="M1620.5112,-235.2977C1606.3034,-225.9022 1588.1215,-213.8787 1573.8475,-204.4395"/>
<polygon fill="#191970" stroke="#191970" points="1575.3845,-201.2598 1565.1128,-198.6633 1571.5233,-207.0986 1575.3845,-201.2598"/>
</g>
<!-- Node33 -->
<g id="node34" class="node">
<title>Node33</title>
<g id="a_node34"><a xlink:href="general__exceptions_8h.html" target="_top" xlink:title="Definition of self&#45;defined general exceptions. ">
<polygon fill="none" stroke="#000000" points="1589,-179.5 1589,-198.5 1698,-198.5 1698,-179.5 1589,-179.5"/>
<text text-anchor="middle" x="1643.5" y="-186.5" font-family="Helvetica,sans-Serif" font-size="10.00" fill="#000000">general_exceptions.h</text>
</a>
</g>
</g>
<!-- Node31&#45;&gt;Node33 -->
<g id="edge52" class="edge">
<title>Node31&#45;&gt;Node33</title>
<path fill="none" stroke="#191970" d="M1643.5,-235.2977C1643.5,-227.3834 1643.5,-217.6043 1643.5,-209.0759"/>
<polygon fill="#191970" stroke="#191970" points="1647.0001,-208.8469 1643.5,-198.8469 1640.0001,-208.847 1647.0001,-208.8469"/>
</g>
<!-- Node34 -->
<g id="node35" class="node">
<title>Node34</title>
<g id="a_node35"><a xlink:href="lapack__helpers_8h.html" target="_top" xlink:title="Exposes LAPACK helper functions defined in lapack_full_matrix.cc and define new ones by following the...">
<polygon fill="none" stroke="#000000" points="1422.5,-179.5 1422.5,-198.5 1512.5,-198.5 1512.5,-179.5 1422.5,-179.5"/>
<text text-anchor="middle" x="1467.5" y="-186.5" font-family="Helvetica,sans-Serif" font-size="10.00" fill="#000000">lapack_helpers.h</text>
</a>
</g>
</g>
<!-- Node31&#45;&gt;Node34 -->
<g id="edge54" class="edge">
<title>Node31&#45;&gt;Node34</title>
<path fill="none" stroke="#191970" d="M1600.4456,-235.4554C1571.0795,-225.194 1532.5855,-211.7429 1504.5805,-201.9571"/>
<polygon fill="#191970" stroke="#191970" points="1505.3686,-198.525 1494.7738,-198.5303 1503.0594,-205.1332 1505.3686,-198.525"/>
</g>
<!-- Node33&#45;&gt;Node25 -->
<g id="edge53" class="edge">
<title>Node33&#45;&gt;Node25</title>
<path fill="none" stroke="#191970" d="M1697.9617,-179.4853C1749.1792,-168.2088 1813.9222,-146.4756 1784.5,-112 1770.6035,-95.7167 1649.7394,-80.9357 1568.7786,-72.7367"/>
<polygon fill="#191970" stroke="#191970" points="1568.9196,-69.2334 1558.621,-71.7212 1568.2232,-76.1987 1568.9196,-69.2334"/>
</g>
<!-- Node34&#45;&gt;Node11 -->
<g id="edge58" class="edge">
<title>Node34&#45;&gt;Node11</title>
<path fill="none" stroke="#191970" d="M1512.5293,-180.3279C1515.5601,-179.8471 1518.5713,-179.3985 1521.5,-179 1703.1918,-154.2772 1750.0078,-160.8808 1932.5,-143 1956.9645,-140.6029 1983.7582,-137.7576 2007.4727,-135.163"/>
<polygon fill="#191970" stroke="#191970" points="2007.874,-138.6401 2017.4318,-134.0685 2007.1092,-131.682 2007.874,-138.6401"/>
</g>
<!-- Node35 -->
<g id="node36" class="node">
<title>Node35</title>
<polygon fill="none" stroke="#bfbfbf" points="804.5,-118 804.5,-137 920.5,-137 920.5,-118 804.5,-118"/>
<text text-anchor="middle" x="862.5" y="-125" font-family="Helvetica,sans-Serif" font-size="10.00" fill="#000000">deal.II/base/numbers.h</text>
</g>
<!-- Node34&#45;&gt;Node35 -->
<g id="edge55" class="edge">
<title>Node34&#45;&gt;Node35</title>
<path fill="none" stroke="#191970" d="M1422.248,-187.3027C1329.384,-183.3428 1110.7656,-171.5684 929.5,-143 923.0762,-141.9876 916.3528,-140.7043 909.7482,-139.3112"/>
<polygon fill="#191970" stroke="#191970" points="910.0467,-135.7929 899.5273,-137.0549 908.5377,-142.6284 910.0467,-135.7929"/>
</g>
<!-- Node36 -->
<g id="node37" class="node">
<title>Node36</title>
<polygon fill="none" stroke="#bfbfbf" points="938.5,-112.5 938.5,-142.5 1066.5,-142.5 1066.5,-112.5 938.5,-112.5"/>
<text text-anchor="start" x="946.5" y="-130.5" font-family="Helvetica,sans-Serif" font-size="10.00" fill="#000000">deal.II/lac/blas_extension</text>
<text text-anchor="middle" x="1002.5" y="-119.5" font-family="Helvetica,sans-Serif" font-size="10.00" fill="#000000">_templates.h</text>
</g>
<!-- Node34&#45;&gt;Node36 -->
<g id="edge56" class="edge">
<title>Node34&#45;&gt;Node36</title>
<path fill="none" stroke="#191970" d="M1422.336,-185.0683C1351.053,-178.5639 1207.9234,-164.2947 1076.7565,-143.1147"/>
<polygon fill="#191970" stroke="#191970" points="1076.9641,-139.6023 1066.5308,-141.4452 1075.8362,-146.5108 1076.9641,-139.6023"/>
</g>
<!-- Node37 -->
<g id="node38" class="node">
<title>Node37</title>
<polygon fill="none" stroke="#bfbfbf" points="1084.5,-118 1084.5,-137 1210.5,-137 1210.5,-118 1084.5,-118"/>
<text text-anchor="middle" x="1147.5" y="-125" font-family="Helvetica,sans-Serif" font-size="10.00" fill="#000000">deal.II/lac/block_vector.h</text>
</g>
<!-- Node34&#45;&gt;Node37 -->
<g id="edge57" class="edge">
<title>Node34&#45;&gt;Node37</title>
<path fill="none" stroke="#191970" d="M1422.1709,-180.9943C1372.391,-172.1088 1290.131,-157.1501 1219.5,-143 1213.4116,-141.7803 1207.0422,-140.4655 1200.7174,-139.1357"/>
<polygon fill="#191970" stroke="#191970" points="1201.3708,-135.6965 1190.8622,-137.0451 1199.9182,-142.5441 1201.3708,-135.6965"/>
</g>
<!-- Node38 -->
<g id="node39" class="node">
<title>Node38</title>
<polygon fill="none" stroke="#bfbfbf" points="1684,-112.5 1684,-142.5 1775,-142.5 1775,-112.5 1684,-112.5"/>
<text text-anchor="start" x="1692" y="-130.5" font-family="Helvetica,sans-Serif" font-size="10.00" fill="#000000">deal.II/lac/lapack</text>
<text text-anchor="middle" x="1729.5" y="-119.5" font-family="Helvetica,sans-Serif" font-size="10.00" fill="#000000">_full_matrix.h</text>
</g>
<!-- Node34&#45;&gt;Node38 -->
<g id="edge59" class="edge">
<title>Node34&#45;&gt;Node38</title>
<path fill="none" stroke="#191970" d="M1512.7277,-179.84C1552.8439,-171.5264 1613.2382,-158.551 1674.117,-143.2775"/>
<polygon fill="#191970" stroke="#191970" points="1675.0518,-146.6513 1683.8888,-140.8068 1673.3359,-139.8649 1675.0518,-146.6513"/>
</g>
<!-- Node39 -->
<g id="node40" class="node">
<title>Node39</title>
<polygon fill="none" stroke="#bfbfbf" points="1832,-112.5 1832,-142.5 1923,-142.5 1923,-112.5 1832,-112.5"/>
<text text-anchor="start" x="1840" y="-130.5" font-family="Helvetica,sans-Serif" font-size="10.00" fill="#000000">deal.II/lac/lapack</text>
<text text-anchor="middle" x="1877.5" y="-119.5" font-family="Helvetica,sans-Serif" font-size="10.00" fill="#000000">_support.h</text>
</g>
<!-- Node34&#45;&gt;Node39 -->
<g id="edge60" class="edge">
<title>Node34&#45;&gt;Node39</title>
<path fill="none" stroke="#191970" d="M1512.5537,-180.4928C1515.5787,-179.9722 1518.5819,-179.4696 1521.5,-179 1637.98,-160.2535 1667.8564,-160.6997 1784.5,-143 1796.511,-141.1774 1809.3745,-139.1088 1821.5865,-137.0901"/>
<polygon fill="#191970" stroke="#191970" points="1822.3694,-140.508 1831.6585,-135.4125 1821.2193,-133.6031 1822.3694,-140.508"/>
</g>
<!-- Node40 -->
<g id="node41" class="node">
<title>Node40</title>
<polygon fill="none" stroke="#bfbfbf" points="1575,-112.5 1575,-142.5 1666,-142.5 1666,-112.5 1575,-112.5"/>
<text text-anchor="start" x="1583" y="-130.5" font-family="Helvetica,sans-Serif" font-size="10.00" fill="#000000">deal.II/lac/lapack</text>
<text text-anchor="middle" x="1620.5" y="-119.5" font-family="Helvetica,sans-Serif" font-size="10.00" fill="#000000">_templates.h</text>
</g>
<!-- Node34&#45;&gt;Node40 -->
<g id="edge61" class="edge">
<title>Node34&#45;&gt;Node40</title>
<path fill="none" stroke="#191970" d="M1491.4063,-179.3906C1513.3592,-170.5664 1546.5117,-157.2404 1573.7229,-146.3026"/>
<polygon fill="#191970" stroke="#191970" points="1575.0989,-149.5217 1583.072,-142.5446 1572.4881,-143.0268 1575.0989,-149.5217"/>
</g>
<!-- Node41 -->
<g id="node42" class="node">
<title>Node41</title>
<polygon fill="none" stroke="#bfbfbf" points="1228.5,-112.5 1228.5,-142.5 1320.5,-142.5 1320.5,-112.5 1228.5,-112.5"/>
<text text-anchor="start" x="1236.5" y="-130.5" font-family="Helvetica,sans-Serif" font-size="10.00" fill="#000000">deal.II/lac/sparse</text>
<text text-anchor="middle" x="1274.5" y="-119.5" font-family="Helvetica,sans-Serif" font-size="10.00" fill="#000000">_matrix.h</text>
</g>
<!-- Node34&#45;&gt;Node41 -->
<g id="edge62" class="edge">
<title>Node34&#45;&gt;Node41</title>
<path fill="none" stroke="#191970" d="M1437.3438,-179.3906C1408.7561,-170.2811 1365.1127,-156.374 1330.2012,-145.2493"/>
<polygon fill="#191970" stroke="#191970" points="1331.1963,-141.8931 1320.6057,-142.1917 1329.071,-148.5627 1331.1963,-141.8931"/>
</g>
<!-- Node42 -->
<g id="node43" class="node">
<title>Node42</title>
<polygon fill="none" stroke="#bfbfbf" points="1339,-118 1339,-137 1440,-137 1440,-118 1339,-118"/>
<text text-anchor="middle" x="1389.5" y="-125" font-family="Helvetica,sans-Serif" font-size="10.00" fill="#000000">deal.II/lac/utilities.h</text>
</g>
<!-- Node34&#45;&gt;Node42 -->
<g id="edge63" class="edge">
<title>Node34&#45;&gt;Node42</title>
<path fill="none" stroke="#191970" d="M1455.3125,-179.3906C1443.063,-169.7324 1423.9737,-154.6812 1409.5023,-143.271"/>
<polygon fill="#191970" stroke="#191970" points="1411.6217,-140.485 1401.6019,-137.0419 1407.2876,-145.9819 1411.6217,-140.485"/>
</g>
<!-- Node43 -->
<g id="node44" class="node">
<title>Node43</title>
<polygon fill="none" stroke="#bfbfbf" points="1458.5,-118 1458.5,-137 1556.5,-137 1556.5,-118 1458.5,-118"/>
<text text-anchor="middle" x="1507.5" y="-125" font-family="Helvetica,sans-Serif" font-size="10.00" fill="#000000">deal.II/lac/vector.h</text>
</g>
<!-- Node34&#45;&gt;Node43 -->
<g id="edge64" class="edge">
<title>Node34&#45;&gt;Node43</title>
<path fill="none" stroke="#191970" d="M1473.75,-179.3906C1479.5865,-170.417 1488.4509,-156.7879 1495.6306,-145.7491"/>
<polygon fill="#191970" stroke="#191970" points="1498.6436,-147.5361 1501.1619,-137.2449 1492.7755,-143.7194 1498.6436,-147.5361"/>
</g>
<!-- Node44&#45;&gt;Node14 -->
<g id="edge68" class="edge">
<title>Node44&#45;&gt;Node14</title>
<path fill="none" stroke="#191970" d="M2107.8661,-242.711C2026.404,-229.6643 1864.9451,-203.8057 1800.2562,-193.4453"/>
<polygon fill="#191970" stroke="#191970" points="1800.4627,-189.9339 1790.035,-191.8083 1799.3557,-196.8458 1800.4627,-189.9339"/>
</g>
<!-- Node44&#45;&gt;Node16 -->
<g id="edge69" class="edge">
<title>Node44&#45;&gt;Node16</title>
<path fill="none" stroke="#191970" d="M2161.4519,-240.9459C2166.3896,-230.839 2173.6386,-214.2725 2176.5,-199 2183.6997,-160.5727 2183.8451,-145.3852 2163.5,-112 2142.5857,-77.6809 2130.1561,-70.0437 2092.5,-56 2000.4513,-21.6708 1289.0384,-12.0645 1127.885,-10.3192"/>
<polygon fill="#191970" stroke="#191970" points="1127.6987,-6.8171 1117.6622,-10.2111 1127.6247,-13.8167 1127.6987,-6.8171"/>
</g>
<!-- Node44&#45;&gt;Node19 -->
<g id="edge67" class="edge">
<title>Node44&#45;&gt;Node19</title>
<path fill="none" stroke="#191970" d="M2158.5741,-240.9335C2163.2556,-216.6545 2172.0608,-151.7585 2142.5,-112 2130.4703,-95.8203 2111.7019,-85.3009 2092.998,-78.474"/>
<polygon fill="#191970" stroke="#191970" points="2093.8526,-75.0696 2083.2589,-75.2301 2091.6404,-81.7109 2093.8526,-75.0696"/>
</g>
<!-- Node45&#45;&gt;Node11 -->
<g id="edge73" class="edge">
<title>Node45&#45;&gt;Node11</title>
<path fill="none" stroke="#191970" d="M1839.7166,-304.1797C1842.6823,-303.434 1845.6481,-302.6967 1848.5,-302 1917.2021,-285.216 1947.6211,-309.3501 2003.5,-266 2042.9754,-235.3755 2062.9348,-177.0306 2071.0145,-146.7738"/>
<polygon fill="#191970" stroke="#191970" points="2074.4277,-147.552 2073.4679,-137.0007 2067.6383,-145.8476 2074.4277,-147.552"/>
</g>
<!-- Node45&#45;&gt;Node14 -->
<g id="edge77" class="edge">
<title>Node45&#45;&gt;Node14</title>
<path fill="none" stroke="#191970" d="M1806.5967,-302.3484C1800.5176,-282.1397 1786.3502,-235.0427 1778.3216,-208.3528"/>
<polygon fill="#191970" stroke="#191970" points="1781.6222,-207.1746 1775.3898,-198.6068 1774.9189,-209.1911 1781.6222,-207.1746"/>
</g>
<!-- Node45&#45;&gt;Node16 -->
<g id="edge78" class="edge">
<title>Node45&#45;&gt;Node16</title>
<path fill="none" stroke="#191970" d="M1839.6343,-303.7878C1842.6166,-303.1214 1845.6089,-302.5098 1848.5,-302 1928.9844,-287.8092 2151.4323,-317.9767 2214.5,-266 2242.0622,-243.2849 2237.5,-224.7163 2237.5,-189 2237.5,-189 2237.5,-189 2237.5,-127.5 2237.5,-68.8178 2182.4133,-73.8131 2126.5,-56 2029.6038,-25.1305 1293.6889,-12.8351 1128.391,-10.4479"/>
<polygon fill="#191970" stroke="#191970" points="1127.9641,-6.9415 1117.9153,-10.2989 1127.8645,-13.9408 1127.9641,-6.9415"/>
</g>
<!-- Node45&#45;&gt;Node19 -->
<g id="edge72" class="edge">
<title>Node45&#45;&gt;Node19</title>
<path fill="none" stroke="#191970" d="M1831.8813,-302.3667C1848.9256,-294.3058 1872.3075,-281.6232 1889.5,-266 1951.1212,-210.0036 2001.4493,-122.8733 2021.7879,-84.8339"/>
<polygon fill="#191970" stroke="#191970" points="2024.946,-86.3484 2026.5086,-75.8694 2018.7523,-83.0867 2024.946,-86.3484"/>
</g>
<!-- Node45&#45;&gt;Node31 -->
<g id="edge79" class="edge">
<title>Node45&#45;&gt;Node31</title>
<path fill="none" stroke="#191970" d="M1783.5625,-302.3906C1759.6403,-293.5279 1723.4606,-280.1239 1693.8652,-269.1594"/>
<polygon fill="#191970" stroke="#191970" points="1694.7013,-265.7367 1684.1082,-265.5446 1692.2694,-272.3007 1694.7013,-265.7367"/>
</g>
<!-- Node45&#45;&gt;Node38 -->
<g id="edge74" class="edge">
<title>Node45&#45;&gt;Node38</title>
<path fill="none" stroke="#191970" d="M1816.0397,-302.2849C1821.6594,-293.3105 1829.3408,-279.3824 1832.5,-266 1841.3838,-228.3677 1852.8283,-211.8918 1832.5,-179 1821.7101,-161.5415 1803.0111,-149.8035 1784.4812,-142.0054"/>
<polygon fill="#191970" stroke="#191970" points="1785.7317,-138.7364 1775.1428,-138.3818 1783.1993,-145.2624 1785.7317,-138.7364"/>
</g>
<!-- Node45&#45;&gt;Node39 -->
<g id="edge75" class="edge">
<title>Node45&#45;&gt;Node39</title>
<path fill="none" stroke="#191970" d="M1830.0651,-302.4946C1844.123,-294.7992 1861.7381,-282.5227 1870.5,-266 1889.4032,-230.3534 1886.5565,-182.0226 1882.3357,-152.8919"/>
<polygon fill="#191970" stroke="#191970" points="1885.7446,-152.0469 1880.6932,-142.7338 1878.8343,-153.1643 1885.7446,-152.0469"/>
</g>
<!-- Node45&#45;&gt;Node40 -->
<g id="edge76" class="edge">
<title>Node45&#45;&gt;Node40</title>
<path fill="none" stroke="#191970" d="M1812.151,-302.2767C1818.0631,-278.2584 1829.5628,-215.4359 1799.5,-179 1798.9834,-178.3739 1728.6271,-158.2535 1676.2869,-143.3517"/>
<polygon fill="#191970" stroke="#191970" points="1676.9912,-139.9132 1666.4151,-140.5421 1675.075,-146.6459 1676.9912,-139.9132"/>
</g>
</g>
</svg>
