<?xml version="1.0" encoding="UTF-8" standalone="no"?>
<!DOCTYPE svg PUBLIC "-//W3C//DTD SVG 1.1//EN"
 "http://www.w3.org/Graphics/SVG/1.1/DTD/svg11.dtd">
<!-- Generated by graphviz version 2.40.1 (20161225.0304)
 -->
<!-- Title: /home/jihuan/Projects/deal.ii/program/dealii&#45;9.1.1/examples/laplace&#45;bem/tests/hmatrix&#45;hmatrix&#45;mmult&#45;all&#45;fine&#45;ntp/hmatrix&#45;hmatrix&#45;mmult&#45;all&#45;fine&#45;ntp.cc Pages: 1 -->
<svg width="2645pt" height="497pt"
 viewBox="0.00 0.00 2645.00 497.00" xmlns="http://www.w3.org/2000/svg" xmlns:xlink="http://www.w3.org/1999/xlink">
<g id="graph0" class="graph" transform="scale(1 1) rotate(0) translate(4 493)">
<title>/home/jihuan/Projects/deal.ii/program/dealii&#45;9.1.1/examples/laplace&#45;bem/tests/hmatrix&#45;hmatrix&#45;mmult&#45;all&#45;fine&#45;ntp/hmatrix&#45;hmatrix&#45;mmult&#45;all&#45;fine&#45;ntp.cc</title>
<!-- Node0 -->
<g id="node1" class="node">
<title>Node0</title>
<polygon fill="#bfbfbf" stroke="#000000" points="754.5,-414.5 754.5,-488.5 897.5,-488.5 897.5,-414.5 754.5,-414.5"/>
<text text-anchor="start" x="762.5" y="-476.5" font-family="Helvetica,sans-Serif" font-size="10.00" fill="#000000">/home/jihuan/Projects</text>
<text text-anchor="start" x="762.5" y="-465.5" font-family="Helvetica,sans-Serif" font-size="10.00" fill="#000000">/deal.ii/program/dealii</text>
<text text-anchor="start" x="762.5" y="-454.5" font-family="Helvetica,sans-Serif" font-size="10.00" fill="#000000">&#45;9.1.1/examples/laplace</text>
<text text-anchor="start" x="762.5" y="-443.5" font-family="Helvetica,sans-Serif" font-size="10.00" fill="#000000">&#45;bem/tests/hmatrix&#45;hmatrix</text>
<text text-anchor="start" x="762.5" y="-432.5" font-family="Helvetica,sans-Serif" font-size="10.00" fill="#000000">&#45;mmult&#45;all&#45;fine&#45;ntp/hmatrix</text>
<text text-anchor="middle" x="826" y="-421.5" font-family="Helvetica,sans-Serif" font-size="10.00" fill="#000000">&#45;hmatrix&#45;mmult&#45;all&#45;fine&#45;ntp.cc</text>
</g>
<!-- Node1 -->
<g id="node2" class="node">
<title>Node1</title>
<polygon fill="none" stroke="#bfbfbf" points="0,-241 0,-260 44,-260 44,-241 0,-241"/>
<text text-anchor="middle" x="22" y="-248" font-family="Helvetica,sans-Serif" font-size="10.00" fill="#000000">cmath</text>
</g>
<!-- Node0&#45;&gt;Node1 -->
<g id="edge1" class="edge">
<title>Node0&#45;&gt;Node1</title>
<path fill="none" stroke="#191970" d="M754.1644,-445.5166C564.0905,-428.9417 59.3406,-379.8189 13,-322 1.19,-307.2647 6.435,-285.0499 12.7292,-269.2978"/>
<polygon fill="#191970" stroke="#191970" points="15.988,-270.5831 16.8482,-260.0232 9.5905,-267.7418 15.988,-270.5831"/>
</g>
<!-- Node2 -->
<g id="node3" class="node">
<title>Node2</title>
<polygon fill="none" stroke="#bfbfbf" points="22,-302.5 22,-321.5 72,-321.5 72,-302.5 22,-302.5"/>
<text text-anchor="middle" x="47" y="-309.5" font-family="Helvetica,sans-Serif" font-size="10.00" fill="#000000">fstream</text>
</g>
<!-- Node0&#45;&gt;Node2 -->
<g id="edge2" class="edge">
<title>Node0&#45;&gt;Node2</title>
<path fill="none" stroke="#191970" d="M754.4658,-440.8766C621.9739,-420.7808 329.6868,-374.4814 86,-322 84.7316,-321.7268 83.4421,-321.4407 82.1412,-321.1449"/>
<polygon fill="#191970" stroke="#191970" points="82.6472,-317.6673 72.1072,-318.7436 81.018,-324.475 82.6472,-317.6673"/>
</g>
<!-- Node3 -->
<g id="node4" class="node">
<title>Node3</title>
<polygon fill="none" stroke="#bfbfbf" points="2583,-56.5 2583,-75.5 2637,-75.5 2637,-56.5 2583,-56.5"/>
<text text-anchor="middle" x="2610" y="-63.5" font-family="Helvetica,sans-Serif" font-size="10.00" fill="#000000">iostream</text>
</g>
<!-- Node0&#45;&gt;Node3 -->
<g id="edge3" class="edge">
<title>Node0&#45;&gt;Node3</title>
<path fill="none" stroke="#191970" d="M897.7644,-449.6381C1228.1805,-440.6034 2587,-398.2078 2587,-312 2587,-312 2587,-312 2587,-189 2587,-151.8871 2597.2425,-109.532 2604.0573,-85.4586"/>
<polygon fill="#191970" stroke="#191970" points="2607.4433,-86.3496 2606.8981,-75.7688 2600.7261,-84.3802 2607.4433,-86.3496"/>
</g>
<!-- Node4 -->
<g id="node5" class="node">
<title>Node4</title>
<g id="a_node5"><a xlink:href="hmatrix_8h.html" target="_top" xlink:title="Definition of hierarchical matrix. ">
<polygon fill="none" stroke="#000000" points="1057.5,-358.5 1057.5,-377.5 1114.5,-377.5 1114.5,-358.5 1057.5,-358.5"/>
<text text-anchor="middle" x="1086" y="-365.5" font-family="Helvetica,sans-Serif" font-size="10.00" fill="#000000">hmatrix.h</text>
</a>
</g>
</g>
<!-- Node0&#45;&gt;Node4 -->
<g id="edge4" class="edge">
<title>Node0&#45;&gt;Node4</title>
<path fill="none" stroke="#191970" d="M897.7344,-428.4622C946.1299,-412.9198 1008.1089,-393.015 1047.449,-380.3808"/>
<polygon fill="#191970" stroke="#191970" points="1048.7332,-383.6445 1057.184,-377.2544 1046.5927,-376.9798 1048.7332,-383.6445"/>
</g>
<!-- Node4&#45;&gt;Node2 -->
<g id="edge8" class="edge">
<title>Node4&#45;&gt;Node2</title>
<path fill="none" stroke="#191970" d="M1057.4507,-367.4773C915.0704,-364.7501 280.8716,-351.1501 86,-322 84.7168,-321.808 83.4146,-321.5914 82.103,-321.3545"/>
<polygon fill="#191970" stroke="#191970" points="82.5282,-317.8671 72.0202,-319.2209 81.0789,-324.7154 82.5282,-317.8671"/>
</g>
<!-- Node4&#45;&gt;Node3 -->
<g id="edge9" class="edge">
<title>Node4&#45;&gt;Node3</title>
<path fill="none" stroke="#191970" d="M1114.7645,-367.2087C1317.7181,-361.4423 2526,-324.0248 2526,-250.5 2526,-250.5 2526,-250.5 2526,-189 2526,-144.1614 2564.538,-103.6338 2589.4076,-82.1486"/>
<polygon fill="#191970" stroke="#191970" points="2591.8049,-84.7068 2597.2422,-75.6136 2587.321,-79.3313 2591.8049,-84.7068"/>
</g>
<!-- Node5 -->
<g id="node6" class="node">
<title>Node5</title>
<polygon fill="none" stroke="#bfbfbf" points="128,-302.5 128,-321.5 250,-321.5 250,-302.5 128,-302.5"/>
<text text-anchor="middle" x="189" y="-309.5" font-family="Helvetica,sans-Serif" font-size="10.00" fill="#000000">deal.II/base/logstream.h</text>
</g>
<!-- Node4&#45;&gt;Node5 -->
<g id="edge5" class="edge">
<title>Node4&#45;&gt;Node5</title>
<path fill="none" stroke="#191970" d="M1057.1834,-367.1873C951.3068,-364.0315 573.8529,-351.2833 264,-322 262.8884,-321.8949 261.7679,-321.7858 260.6404,-321.6731"/>
<polygon fill="#191970" stroke="#191970" points="260.6674,-318.156 250.3512,-320.5696 259.921,-325.1161 260.6674,-318.156"/>
</g>
<!-- Node6 -->
<g id="node7" class="node">
<title>Node6</title>
<polygon fill="none" stroke="#bfbfbf" points="128,-118 128,-137 244,-137 244,-118 128,-118"/>
<text text-anchor="middle" x="186" y="-125" font-family="Helvetica,sans-Serif" font-size="10.00" fill="#000000">deal.II/lac/full_matrix.h</text>
</g>
<!-- Node4&#45;&gt;Node6 -->
<g id="edge6" class="edge">
<title>Node4&#45;&gt;Node6</title>
<path fill="none" stroke="#191970" d="M1057.1423,-367.0721C943.7768,-363.2714 528.882,-347.8578 400,-322 324.4838,-306.8491 291.5703,-319.3309 236,-266 202.3088,-233.6665 191.2407,-176.9608 187.6642,-147.1255"/>
<polygon fill="#191970" stroke="#191970" points="191.139,-146.7001 186.6288,-137.1133 184.1761,-147.4203 191.139,-146.7001"/>
</g>
<!-- Node7 -->
<g id="node8" class="node">
<title>Node7</title>
<polygon fill="none" stroke="#bfbfbf" points="1608,-56.5 1608,-75.5 1664,-75.5 1664,-56.5 1608,-56.5"/>
<text text-anchor="middle" x="1636" y="-63.5" font-family="Helvetica,sans-Serif" font-size="10.00" fill="#000000">algorithm</text>
</g>
<!-- Node4&#45;&gt;Node7 -->
<g id="edge7" class="edge">
<title>Node4&#45;&gt;Node7</title>
<path fill="none" stroke="#191970" d="M1114.7341,-367.3034C1218.9145,-364.5336 1572.7509,-352.9098 1612,-322 1638.3343,-301.261 1636,-284.0202 1636,-250.5 1636,-250.5 1636,-250.5 1636,-189 1636,-152.4994 1636,-109.906 1636,-85.6285"/>
<polygon fill="#191970" stroke="#191970" points="1639.5001,-85.5691 1636,-75.5691 1632.5001,-85.5692 1639.5001,-85.5691"/>
</g>
<!-- Node8 -->
<g id="node9" class="node">
<title>Node8</title>
<polygon fill="none" stroke="#bfbfbf" points="1068.5,-179.5 1068.5,-198.5 1103.5,-198.5 1103.5,-179.5 1068.5,-179.5"/>
<text text-anchor="middle" x="1086" y="-186.5" font-family="Helvetica,sans-Serif" font-size="10.00" fill="#000000">map</text>
</g>
<!-- Node4&#45;&gt;Node8 -->
<g id="edge10" class="edge">
<title>Node4&#45;&gt;Node8</title>
<path fill="none" stroke="#191970" d="M1086,-358.3762C1086,-330.2097 1086,-247.5126 1086,-209.0713"/>
<polygon fill="#191970" stroke="#191970" points="1089.5001,-208.6714 1086,-198.6714 1082.5001,-208.6714 1089.5001,-208.6714"/>
</g>
<!-- Node9 -->
<g id="node10" class="node">
<title>Node9</title>
<polygon fill="none" stroke="#bfbfbf" points="2187.5,-56.5 2187.5,-75.5 2228.5,-75.5 2228.5,-56.5 2187.5,-56.5"/>
<text text-anchor="middle" x="2208" y="-63.5" font-family="Helvetica,sans-Serif" font-size="10.00" fill="#000000">string</text>
</g>
<!-- Node4&#45;&gt;Node9 -->
<g id="edge11" class="edge">
<title>Node4&#45;&gt;Node9</title>
<path fill="none" stroke="#191970" d="M1114.7325,-367.8194C1213.9284,-366.8553 1551.002,-360.7436 1826,-322 1971.5928,-301.4879 2149,-397.5307 2149,-250.5 2149,-250.5 2149,-250.5 2149,-189 2149,-148.2288 2175.6795,-106.6711 2193.157,-83.8213"/>
<polygon fill="#191970" stroke="#191970" points="2196.0801,-85.768 2199.5467,-75.7563 2190.5934,-81.421 2196.0801,-85.768"/>
</g>
<!-- Node10 -->
<g id="node11" class="node">
<title>Node10</title>
<polygon fill="none" stroke="#bfbfbf" points="771,-.5 771,-19.5 811,-19.5 811,-.5 771,-.5"/>
<text text-anchor="middle" x="791" y="-7.5" font-family="Helvetica,sans-Serif" font-size="10.00" fill="#000000">utility</text>
</g>
<!-- Node4&#45;&gt;Node10 -->
<g id="edge12" class="edge">
<title>Node4&#45;&gt;Node10</title>
<path fill="none" stroke="#191970" d="M1057.2483,-367.5815C900.6755,-365.1842 156.4306,-352.2254 119,-322 93.4184,-301.3428 100,-283.3806 100,-250.5 100,-250.5 100,-250.5 100,-127.5 100,-76.7455 -129.8627,-142.2412 295,-56 469.0318,-20.674 682.9979,-12.4231 760.8639,-10.541"/>
<polygon fill="#191970" stroke="#191970" points="761.0105,-14.0387 770.9295,-10.3156 760.8536,-7.0405 761.0105,-14.0387"/>
</g>
<!-- Node11 -->
<g id="node12" class="node">
<title>Node11</title>
<polygon fill="none" stroke="#bfbfbf" points="1520,-.5 1520,-19.5 1564,-19.5 1564,-.5 1520,-.5"/>
<text text-anchor="middle" x="1542" y="-7.5" font-family="Helvetica,sans-Serif" font-size="10.00" fill="#000000">vector</text>
</g>
<!-- Node4&#45;&gt;Node11 -->
<g id="edge13" class="edge">
<title>Node4&#45;&gt;Node11</title>
<path fill="none" stroke="#191970" d="M1114.6244,-367.6119C1222.4487,-365.3906 1598,-350.4776 1598,-250.5 1598,-250.5 1598,-250.5 1598,-189 1598,-128.1796 1568.1879,-60.8196 1552.0673,-28.8413"/>
<polygon fill="#191970" stroke="#191970" points="1555.0713,-27.0306 1547.3695,-19.7551 1548.8532,-30.2456 1555.0713,-27.0306"/>
</g>
<!-- Node12 -->
<g id="node13" class="node">
<title>Node12</title>
<g id="a_node13"><a xlink:href="block__cluster_8h.html" target="_top" xlink:title="Implementation of the class BlockCluster. ">
<polygon fill="none" stroke="#000000" points="1664.5,-241 1664.5,-260 1747.5,-260 1747.5,-241 1664.5,-241"/>
<text text-anchor="middle" x="1706" y="-248" font-family="Helvetica,sans-Serif" font-size="10.00" fill="#000000">block_cluster.h</text>
</a>
</g>
</g>
<!-- Node4&#45;&gt;Node12 -->
<g id="edge14" class="edge">
<title>Node4&#45;&gt;Node12</title>
<path fill="none" stroke="#191970" d="M1114.6003,-367.0064C1222.6938,-363.0699 1602.586,-347.5266 1650,-322 1671.7022,-310.316 1687.781,-286.2413 1697.0119,-269.2646"/>
<polygon fill="#191970" stroke="#191970" points="1700.1932,-270.7313 1701.6464,-260.2366 1693.9658,-267.5345 1700.1932,-270.7313"/>
</g>
<!-- Node31 -->
<g id="node32" class="node">
<title>Node31</title>
<g id="a_node32"><a xlink:href="block__cluster__tree_8h.html" target="_top" xlink:title="Implementation of the class BlockClusterTree. ">
<polygon fill="none" stroke="#000000" points="1713,-302.5 1713,-321.5 1817,-321.5 1817,-302.5 1713,-302.5"/>
<text text-anchor="middle" x="1765" y="-309.5" font-family="Helvetica,sans-Serif" font-size="10.00" fill="#000000">block_cluster_tree.h</text>
</a>
</g>
</g>
<!-- Node4&#45;&gt;Node31 -->
<g id="edge46" class="edge">
<title>Node4&#45;&gt;Node31</title>
<path fill="none" stroke="#191970" d="M1114.5499,-366.4953C1201.6186,-361.766 1471.4096,-346.0705 1694,-322 1696.8426,-321.6926 1699.7466,-321.3599 1702.6783,-321.0088"/>
<polygon fill="#191970" stroke="#191970" points="1703.2143,-324.4691 1712.7025,-319.7549 1702.3454,-317.5233 1703.2143,-324.4691"/>
</g>
<!-- Node32 -->
<g id="node33" class="node">
<title>Node32</title>
<g id="a_node33"><a xlink:href="lapack__full__matrix__ext_8h_source.html" target="_top" xlink:title="lapack_full_matrix\l_ext.h">
<polygon fill="none" stroke="#000000" points="854.5,-235.5 854.5,-265.5 949.5,-265.5 949.5,-235.5 854.5,-235.5"/>
<text text-anchor="start" x="862.5" y="-253.5" font-family="Helvetica,sans-Serif" font-size="10.00" fill="#000000">lapack_full_matrix</text>
<text text-anchor="middle" x="902" y="-242.5" font-family="Helvetica,sans-Serif" font-size="10.00" fill="#000000">_ext.h</text>
</a>
</g>
</g>
<!-- Node4&#45;&gt;Node32 -->
<g id="edge72" class="edge">
<title>Node4&#45;&gt;Node32</title>
<path fill="none" stroke="#191970" d="M1070.9425,-358.3845C1041.1792,-339.378 974.2348,-296.6282 934.1273,-271.0161"/>
<polygon fill="#191970" stroke="#191970" points="935.8274,-267.949 925.5155,-265.5167 932.0599,-273.8487 935.8274,-267.949"/>
</g>
<!-- Node45 -->
<g id="node46" class="node">
<title>Node45</title>
<g id="a_node46"><a xlink:href="generic__functors_8h.html" target="_top" xlink:title="This header file contains a set of self&#45;defined generic functors. ">
<polygon fill="none" stroke="#000000" points="1274.5,-241 1274.5,-260 1371.5,-260 1371.5,-241 1274.5,-241"/>
<text text-anchor="middle" x="1323" y="-248" font-family="Helvetica,sans-Serif" font-size="10.00" fill="#000000">generic_functors.h</text>
</a>
</g>
</g>
<!-- Node4&#45;&gt;Node45 -->
<g id="edge68" class="edge">
<title>Node4&#45;&gt;Node45</title>
<path fill="none" stroke="#191970" d="M1105.3947,-358.3845C1147.1626,-337.6768 1245.7783,-288.785 1294.6007,-264.5798"/>
<polygon fill="#191970" stroke="#191970" points="1296.265,-267.6613 1303.6697,-260.0836 1293.1557,-261.3897 1296.265,-267.6613"/>
</g>
<!-- Node46 -->
<g id="node47" class="node">
<title>Node46</title>
<g id="a_node47"><a xlink:href="rkmatrix_8h.html" target="_top" xlink:title="Definition of rank&#45;k matrix. ">
<polygon fill="none" stroke="#000000" points="409,-302.5 409,-321.5 469,-321.5 469,-302.5 409,-302.5"/>
<text text-anchor="middle" x="439" y="-309.5" font-family="Helvetica,sans-Serif" font-size="10.00" fill="#000000">rkmatrix.h</text>
</a>
</g>
</g>
<!-- Node4&#45;&gt;Node46 -->
<g id="edge73" class="edge">
<title>Node4&#45;&gt;Node46</title>
<path fill="none" stroke="#191970" d="M1057.3644,-365.5215C953.9794,-356.5732 599.763,-325.9146 479.4014,-315.4969"/>
<polygon fill="#191970" stroke="#191970" points="479.4204,-311.9855 469.1559,-314.6101 478.8168,-318.9595 479.4204,-311.9855"/>
</g>
<!-- Node13 -->
<g id="node14" class="node">
<title>Node13</title>
<g id="a_node14"><a xlink:href="cluster_8h.html" target="_top" xlink:title="Implementation of the class Cluster. ">
<polygon fill="none" stroke="#000000" points="1679,-118 1679,-137 1733,-137 1733,-118 1679,-118"/>
<text text-anchor="middle" x="1706" y="-125" font-family="Helvetica,sans-Serif" font-size="10.00" fill="#000000">cluster.h</text>
</a>
</g>
</g>
<!-- Node12&#45;&gt;Node13 -->
<g id="edge15" class="edge">
<title>Node12&#45;&gt;Node13</title>
<path fill="none" stroke="#191970" d="M1706,-240.8484C1706,-220.7295 1706,-173.9608 1706,-147.2098"/>
<polygon fill="#191970" stroke="#191970" points="1709.5001,-147.1067 1706,-137.1068 1702.5001,-147.1068 1709.5001,-147.1067"/>
</g>
<!-- Node21 -->
<g id="node22" class="node">
<title>Node21</title>
<g id="a_node22"><a xlink:href="cluster__tree_8h_source.html" target="_top" xlink:title="cluster_tree.h">
<polygon fill="none" stroke="#000000" points="1738,-179.5 1738,-198.5 1814,-198.5 1814,-179.5 1738,-179.5"/>
<text text-anchor="middle" x="1776" y="-186.5" font-family="Helvetica,sans-Serif" font-size="10.00" fill="#000000">cluster_tree.h</text>
</a>
</g>
</g>
<!-- Node12&#45;&gt;Node21 -->
<g id="edge27" class="edge">
<title>Node12&#45;&gt;Node21</title>
<path fill="none" stroke="#191970" d="M1716.9375,-240.8906C1727.662,-231.4683 1744.2287,-216.9134 1757.0901,-205.6137"/>
<polygon fill="#191970" stroke="#191970" points="1759.7059,-207.9745 1764.9083,-198.7449 1755.0857,-202.7158 1759.7059,-207.9745"/>
</g>
<!-- Node13&#45;&gt;Node7 -->
<g id="edge17" class="edge">
<title>Node13&#45;&gt;Node7</title>
<path fill="none" stroke="#191970" d="M1695.0625,-117.8906C1684.338,-108.4683 1667.7713,-93.9134 1654.9099,-82.6137"/>
<polygon fill="#191970" stroke="#191970" points="1656.9143,-79.7158 1647.0917,-75.7449 1652.2941,-84.9745 1656.9143,-79.7158"/>
</g>
<!-- Node13&#45;&gt;Node11 -->
<g id="edge19" class="edge">
<title>Node13&#45;&gt;Node11</title>
<path fill="none" stroke="#191970" d="M1678.7855,-117.9936C1656.0679,-109.2508 1623.5523,-94.8012 1599,-76 1581.251,-62.4085 1565.014,-42.539 1554.4495,-28.1551"/>
<polygon fill="#191970" stroke="#191970" points="1557.0197,-25.7306 1548.3673,-19.6161 1551.3181,-29.7917 1557.0197,-25.7306"/>
</g>
<!-- Node14 -->
<g id="node15" class="node">
<title>Node14</title>
<polygon fill="none" stroke="#bfbfbf" points="1228.5,-56.5 1228.5,-75.5 1331.5,-75.5 1331.5,-56.5 1228.5,-56.5"/>
<text text-anchor="middle" x="1280" y="-63.5" font-family="Helvetica,sans-Serif" font-size="10.00" fill="#000000">deal.II/base/types.h</text>
</g>
<!-- Node13&#45;&gt;Node14 -->
<g id="edge16" class="edge">
<title>Node13&#45;&gt;Node14</title>
<path fill="none" stroke="#191970" d="M1678.7037,-123.5593C1611.286,-113.8265 1435.5598,-88.4576 1341.5099,-74.88"/>
<polygon fill="#191970" stroke="#191970" points="1341.9612,-71.4089 1331.5636,-73.444 1340.9609,-78.3371 1341.9612,-71.4089"/>
</g>
<!-- Node15 -->
<g id="node16" class="node">
<title>Node15</title>
<polygon fill="none" stroke="#bfbfbf" points="1682.5,-56.5 1682.5,-75.5 1729.5,-75.5 1729.5,-56.5 1682.5,-56.5"/>
<text text-anchor="middle" x="1706" y="-63.5" font-family="Helvetica,sans-Serif" font-size="10.00" fill="#000000">iterator</text>
</g>
<!-- Node13&#45;&gt;Node15 -->
<g id="edge18" class="edge">
<title>Node13&#45;&gt;Node15</title>
<path fill="none" stroke="#191970" d="M1706,-117.8906C1706,-109.3657 1706,-96.6392 1706,-85.9235"/>
<polygon fill="#191970" stroke="#191970" points="1709.5001,-85.7448 1706,-75.7449 1702.5001,-85.7449 1709.5001,-85.7448"/>
</g>
<!-- Node16 -->
<g id="node17" class="node">
<title>Node16</title>
<g id="a_node17"><a xlink:href="simple__bounding__box_8h_source.html" target="_top" xlink:title="simple_bounding_box.h">
<polygon fill="none" stroke="#000000" points="1786.5,-56.5 1786.5,-75.5 1905.5,-75.5 1905.5,-56.5 1786.5,-56.5"/>
<text text-anchor="middle" x="1846" y="-63.5" font-family="Helvetica,sans-Serif" font-size="10.00" fill="#000000">simple_bounding_box.h</text>
</a>
</g>
</g>
<!-- Node13&#45;&gt;Node16 -->
<g id="edge20" class="edge">
<title>Node13&#45;&gt;Node16</title>
<path fill="none" stroke="#191970" d="M1727.875,-117.8906C1751.2996,-107.6005 1788.6596,-91.1888 1815.0841,-79.5809"/>
<polygon fill="#191970" stroke="#191970" points="1816.5307,-82.7683 1824.2786,-75.5419 1813.7154,-76.3594 1816.5307,-82.7683"/>
</g>
<!-- Node16&#45;&gt;Node10 -->
<g id="edge25" class="edge">
<title>Node16&#45;&gt;Node10</title>
<path fill="none" stroke="#191970" d="M1786.3384,-60.0048C1770.6269,-58.5551 1753.6842,-57.1065 1738,-56 1377.3561,-30.5567 938.4472,-14.9111 821.0542,-10.9803"/>
<polygon fill="#191970" stroke="#191970" points="821.1227,-7.4808 811.0119,-10.6465 820.8901,-14.4769 821.1227,-7.4808"/>
</g>
<!-- Node16&#45;&gt;Node11 -->
<g id="edge26" class="edge">
<title>Node16&#45;&gt;Node11</title>
<path fill="none" stroke="#191970" d="M1794.086,-56.4369C1731.1011,-44.8344 1626.8423,-25.6289 1574.3353,-15.9565"/>
<polygon fill="#191970" stroke="#191970" points="1574.719,-12.4684 1564.2504,-14.0988 1573.4508,-19.3525 1574.719,-12.4684"/>
</g>
<!-- Node17 -->
<g id="node18" class="node">
<title>Node17</title>
<polygon fill="none" stroke="#bfbfbf" points="1796,-.5 1796,-19.5 1896,-19.5 1896,-.5 1796,-.5"/>
<text text-anchor="middle" x="1846" y="-7.5" font-family="Helvetica,sans-Serif" font-size="10.00" fill="#000000">deal.II/base/point.h</text>
</g>
<!-- Node16&#45;&gt;Node17 -->
<g id="edge21" class="edge">
<title>Node16&#45;&gt;Node17</title>
<path fill="none" stroke="#191970" d="M1846,-56.2455C1846,-48.9382 1846,-38.6944 1846,-29.7046"/>
<polygon fill="#191970" stroke="#191970" points="1849.5001,-29.6426 1846,-19.6427 1842.5001,-29.6427 1849.5001,-29.6426"/>
</g>
<!-- Node18 -->
<g id="node19" class="node">
<title>Node18</title>
<polygon fill="none" stroke="#bfbfbf" points="2450.5,-.5 2450.5,-19.5 2577.5,-19.5 2577.5,-.5 2450.5,-.5"/>
<text text-anchor="middle" x="2514" y="-7.5" font-family="Helvetica,sans-Serif" font-size="10.00" fill="#000000">deal.II/dofs/dof_handler.h</text>
</g>
<!-- Node16&#45;&gt;Node18 -->
<g id="edge22" class="edge">
<title>Node16&#45;&gt;Node18</title>
<path fill="none" stroke="#191970" d="M1905.6726,-56.9752C1908.4854,-56.6283 1911.2721,-56.3008 1914,-56 2130.168,-32.1635 2185.2408,-37.6709 2402,-20 2414.3592,-18.9924 2427.4804,-17.8692 2440.2247,-16.7498"/>
<polygon fill="#191970" stroke="#191970" points="2440.69,-20.2224 2450.3428,-15.8551 2440.0733,-13.2496 2440.69,-20.2224"/>
</g>
<!-- Node19 -->
<g id="node20" class="node">
<title>Node19</title>
<polygon fill="none" stroke="#bfbfbf" points="2075,-.5 2075,-19.5 2191,-19.5 2191,-.5 2075,-.5"/>
<text text-anchor="middle" x="2133" y="-7.5" font-family="Helvetica,sans-Serif" font-size="10.00" fill="#000000">deal.II/dofs/dof_tools.h</text>
</g>
<!-- Node16&#45;&gt;Node19 -->
<g id="edge23" class="edge">
<title>Node16&#45;&gt;Node19</title>
<path fill="none" stroke="#191970" d="M1895.011,-56.4369C1944.6447,-46.7522 2021.4273,-31.7703 2074.2834,-21.4569"/>
<polygon fill="#191970" stroke="#191970" points="2075.0466,-24.8741 2084.1912,-19.5237 2073.706,-18.0036 2075.0466,-24.8741"/>
</g>
<!-- Node20 -->
<g id="node21" class="node">
<title>Node20</title>
<polygon fill="none" stroke="#bfbfbf" points="2289.5,-.5 2289.5,-19.5 2392.5,-19.5 2392.5,-.5 2289.5,-.5"/>
<text text-anchor="middle" x="2341" y="-7.5" font-family="Helvetica,sans-Serif" font-size="10.00" fill="#000000">deal.II/fe/mapping.h</text>
</g>
<!-- Node16&#45;&gt;Node20 -->
<g id="edge24" class="edge">
<title>Node16&#45;&gt;Node20</title>
<path fill="none" stroke="#191970" d="M1905.6861,-57.0892C1908.4953,-56.7118 1911.2775,-56.3467 1914,-56 2043.7564,-39.4762 2196.1983,-23.9971 2279.2981,-15.8907"/>
<polygon fill="#191970" stroke="#191970" points="2279.7133,-19.3669 2289.3275,-14.9153 2279.0357,-12.3998 2279.7133,-19.3669"/>
</g>
<!-- Node21&#45;&gt;Node13 -->
<g id="edge28" class="edge">
<title>Node21&#45;&gt;Node13</title>
<path fill="none" stroke="#191970" d="M1765.0625,-179.3906C1754.338,-169.9683 1737.7713,-155.4134 1724.9099,-144.1137"/>
<polygon fill="#191970" stroke="#191970" points="1726.9143,-141.2158 1717.0917,-137.2449 1722.2941,-146.4745 1726.9143,-141.2158"/>
</g>
<!-- Node22 -->
<g id="node23" class="node">
<title>Node22</title>
<g id="a_node23"><a xlink:href="debug__tools_8h.html" target="_top" xlink:title="This file includes a bunch of helper functions for printing out and visualizing information about gri...">
<polygon fill="none" stroke="#000000" points="2375.5,-118 2375.5,-137 2452.5,-137 2452.5,-118 2375.5,-118"/>
<text text-anchor="middle" x="2414" y="-125" font-family="Helvetica,sans-Serif" font-size="10.00" fill="#000000">debug_tools.h</text>
</a>
</g>
</g>
<!-- Node21&#45;&gt;Node22 -->
<g id="edge29" class="edge">
<title>Node21&#45;&gt;Node22</title>
<path fill="none" stroke="#191970" d="M1814.473,-185.2914C1924.9429,-174.6426 2243.0059,-143.983 2365.2933,-132.1951"/>
<polygon fill="#191970" stroke="#191970" points="2365.8589,-135.6569 2375.4769,-131.2134 2365.1872,-128.6892 2365.8589,-135.6569"/>
</g>
<!-- Node25 -->
<g id="node26" class="node">
<title>Node25</title>
<g id="a_node26"><a xlink:href="tree_8h.html" target="_top" xlink:title="Implementation of the classes for binary tree node, general tree node and functions for manipulating ...">
<polygon fill="none" stroke="#000000" points="1904.5,-118 1904.5,-137 1945.5,-137 1945.5,-118 1904.5,-118"/>
<text text-anchor="middle" x="1925" y="-125" font-family="Helvetica,sans-Serif" font-size="10.00" fill="#000000">tree.h</text>
</a>
</g>
</g>
<!-- Node21&#45;&gt;Node25 -->
<g id="edge37" class="edge">
<title>Node21&#45;&gt;Node25</title>
<path fill="none" stroke="#191970" d="M1799.2813,-179.3906C1825.0532,-168.7532 1866.6746,-151.5739 1894.9037,-139.9223"/>
<polygon fill="#191970" stroke="#191970" points="1896.374,-143.1019 1904.2822,-136.0513 1893.7032,-136.6314 1896.374,-143.1019"/>
</g>
<!-- Node22&#45;&gt;Node3 -->
<g id="edge35" class="edge">
<title>Node22&#45;&gt;Node3</title>
<path fill="none" stroke="#191970" d="M2444.625,-117.8906C2479.2665,-107.021 2535.6774,-89.3206 2572.8169,-77.6671"/>
<polygon fill="#191970" stroke="#191970" points="2574.2536,-80.8847 2582.747,-74.5513 2572.1578,-74.2057 2574.2536,-80.8847"/>
</g>
<!-- Node22&#45;&gt;Node9 -->
<g id="edge36" class="edge">
<title>Node22&#45;&gt;Node9</title>
<path fill="none" stroke="#191970" d="M2380.1476,-117.9973C2346.5701,-108.4828 2293.4361,-93.1886 2238.224,-75.9897"/>
<polygon fill="#191970" stroke="#191970" points="2239.2131,-72.632 2228.6242,-72.9864 2237.123,-79.3126 2239.2131,-72.632"/>
</g>
<!-- Node22&#45;&gt;Node18 -->
<g id="edge30" class="edge">
<title>Node22&#45;&gt;Node18</title>
<path fill="none" stroke="#191970" d="M2448.8502,-117.9348C2469.944,-110.2204 2495.3321,-97.0991 2509,-76 2517.7749,-62.4541 2518.4263,-43.9053 2517.2266,-29.9206"/>
<polygon fill="#191970" stroke="#191970" points="2520.6845,-29.3632 2515.9875,-19.8665 2513.7371,-30.2195 2520.6845,-29.3632"/>
</g>
<!-- Node22&#45;&gt;Node19 -->
<g id="edge31" class="edge">
<title>Node22&#45;&gt;Node19</title>
<path fill="none" stroke="#191970" d="M2428.044,-117.8772C2447.2741,-103.5572 2477.526,-76.164 2460,-56 2443.2966,-36.7825 2292.3001,-22.0847 2201.4421,-14.8883"/>
<polygon fill="#191970" stroke="#191970" points="2201.4585,-11.379 2191.2163,-14.0899 2200.9135,-18.3578 2201.4585,-11.379"/>
</g>
<!-- Node22&#45;&gt;Node20 -->
<g id="edge34" class="edge">
<title>Node22&#45;&gt;Node20</title>
<path fill="none" stroke="#191970" d="M2439.5426,-117.9299C2469.2894,-105.3164 2512.0723,-81.6984 2493,-56 2481.8383,-40.9606 2439.7139,-28.9284 2402.6343,-20.9474"/>
<polygon fill="#191970" stroke="#191970" points="2403.3442,-17.5202 2392.8403,-18.9056 2401.9155,-24.3729 2403.3442,-17.5202"/>
</g>
<!-- Node23 -->
<g id="node24" class="node">
<title>Node23</title>
<polygon fill="none" stroke="#bfbfbf" points="2377,-56.5 2377,-75.5 2451,-75.5 2451,-56.5 2377,-56.5"/>
<text text-anchor="middle" x="2414" y="-63.5" font-family="Helvetica,sans-Serif" font-size="10.00" fill="#000000">deal.II/fe/fe.h</text>
</g>
<!-- Node22&#45;&gt;Node23 -->
<g id="edge32" class="edge">
<title>Node22&#45;&gt;Node23</title>
<path fill="none" stroke="#191970" d="M2414,-117.8906C2414,-109.3657 2414,-96.6392 2414,-85.9235"/>
<polygon fill="#191970" stroke="#191970" points="2417.5001,-85.7448 2414,-75.7449 2410.5001,-85.7449 2417.5001,-85.7448"/>
</g>
<!-- Node24 -->
<g id="node25" class="node">
<title>Node24</title>
<polygon fill="none" stroke="#bfbfbf" points="2247,-56.5 2247,-75.5 2359,-75.5 2359,-56.5 2247,-56.5"/>
<text text-anchor="middle" x="2303" y="-63.5" font-family="Helvetica,sans-Serif" font-size="10.00" fill="#000000">deal.II/fe/fe_system.h</text>
</g>
<!-- Node22&#45;&gt;Node24 -->
<g id="edge33" class="edge">
<title>Node22&#45;&gt;Node24</title>
<path fill="none" stroke="#191970" d="M2396.6563,-117.8906C2378.5727,-107.8713 2350.0141,-92.0483 2329.1835,-80.5071"/>
<polygon fill="#191970" stroke="#191970" points="2330.6654,-77.3268 2320.222,-75.5419 2327.2729,-83.4498 2330.6654,-77.3268"/>
</g>
<!-- Node25&#45;&gt;Node3 -->
<g id="edge43" class="edge">
<title>Node25&#45;&gt;Node3</title>
<path fill="none" stroke="#191970" d="M1945.5007,-125.6594C2041.4316,-117.0466 2446.6239,-80.6681 2572.5198,-69.365"/>
<polygon fill="#191970" stroke="#191970" points="2573.1545,-72.8222 2582.8015,-68.4419 2572.5285,-65.8502 2573.1545,-72.8222"/>
</g>
<!-- Node25&#45;&gt;Node7 -->
<g id="edge39" class="edge">
<title>Node25&#45;&gt;Node7</title>
<path fill="none" stroke="#191970" d="M1904.3254,-123.7274C1862.6779,-116.032 1765.5322,-97.5987 1674.1938,-76.1788"/>
<polygon fill="#191970" stroke="#191970" points="1674.7724,-72.7192 1664.2356,-73.8258 1673.1627,-79.5316 1674.7724,-72.7192"/>
</g>
<!-- Node25&#45;&gt;Node11 -->
<g id="edge45" class="edge">
<title>Node25&#45;&gt;Node11</title>
<path fill="none" stroke="#191970" d="M1904.0642,-121.2263C1875.0735,-112.3119 1821.2705,-94.9452 1777,-76 1759.0913,-68.3361 1756.284,-62.7195 1738,-56 1682.1038,-35.4577 1613.7926,-21.8834 1574.3509,-15.1012"/>
<polygon fill="#191970" stroke="#191970" points="1574.7037,-11.6115 1564.2621,-13.4069 1573.5443,-18.5149 1574.7037,-11.6115"/>
</g>
<!-- Node26 -->
<g id="node27" class="node">
<title>Node26</title>
<polygon fill="none" stroke="#bfbfbf" points="1388,-56.5 1388,-75.5 1514,-75.5 1514,-56.5 1388,-56.5"/>
<text text-anchor="middle" x="1451" y="-63.5" font-family="Helvetica,sans-Serif" font-size="10.00" fill="#000000">deal.II/base/exceptions.h</text>
</g>
<!-- Node25&#45;&gt;Node26 -->
<g id="edge38" class="edge">
<title>Node25&#45;&gt;Node26</title>
<path fill="none" stroke="#191970" d="M1904.328,-124.8179C1839.0127,-116.3434 1634.8634,-89.8557 1524.149,-75.4909"/>
<polygon fill="#191970" stroke="#191970" points="1524.4275,-71.9977 1514.0603,-74.1819 1523.5268,-78.9395 1524.4275,-71.9977"/>
</g>
<!-- Node27 -->
<g id="node28" class="node">
<title>Node27</title>
<polygon fill="none" stroke="#bfbfbf" points="2054,-56.5 2054,-75.5 2092,-75.5 2092,-56.5 2054,-56.5"/>
<text text-anchor="middle" x="2073" y="-63.5" font-family="Helvetica,sans-Serif" font-size="10.00" fill="#000000">array</text>
</g>
<!-- Node25&#45;&gt;Node27 -->
<g id="edge40" class="edge">
<title>Node25&#45;&gt;Node27</title>
<path fill="none" stroke="#191970" d="M1945.5788,-118.9487C1971.1566,-108.3201 2014.967,-90.1151 2043.956,-78.069"/>
<polygon fill="#191970" stroke="#191970" points="2045.6461,-81.1569 2053.5375,-74.0875 2042.9599,-74.6928 2045.6461,-81.1569"/>
</g>
<!-- Node28 -->
<g id="node29" class="node">
<title>Node28</title>
<polygon fill="none" stroke="#bfbfbf" points="2110.5,-56.5 2110.5,-75.5 2169.5,-75.5 2169.5,-56.5 2110.5,-56.5"/>
<text text-anchor="middle" x="2140" y="-63.5" font-family="Helvetica,sans-Serif" font-size="10.00" fill="#000000">exception</text>
</g>
<!-- Node25&#45;&gt;Node28 -->
<g id="edge41" class="edge">
<title>Node25&#45;&gt;Node28</title>
<path fill="none" stroke="#191970" d="M1945.6151,-121.6031C1981.1826,-111.4292 2054.6514,-90.4137 2100.3819,-77.3326"/>
<polygon fill="#191970" stroke="#191970" points="2101.6016,-80.6242 2110.2534,-74.5089 2099.6764,-73.8941 2101.6016,-80.6242"/>
</g>
<!-- Node29 -->
<g id="node30" class="node">
<title>Node29</title>
<polygon fill="none" stroke="#bfbfbf" points="1923.5,-56.5 1923.5,-75.5 1982.5,-75.5 1982.5,-56.5 1923.5,-56.5"/>
<text text-anchor="middle" x="1953" y="-63.5" font-family="Helvetica,sans-Serif" font-size="10.00" fill="#000000">functional</text>
</g>
<!-- Node25&#45;&gt;Node29 -->
<g id="edge42" class="edge">
<title>Node25&#45;&gt;Node29</title>
<path fill="none" stroke="#191970" d="M1929.375,-117.8906C1933.3788,-109.0965 1939.4183,-95.8312 1944.3885,-84.9145"/>
<polygon fill="#191970" stroke="#191970" points="1947.6051,-86.2963 1948.5633,-75.7449 1941.2343,-83.3957 1947.6051,-86.2963"/>
</g>
<!-- Node30 -->
<g id="node31" class="node">
<title>Node30</title>
<polygon fill="none" stroke="#bfbfbf" points="2000.5,-56.5 2000.5,-75.5 2035.5,-75.5 2035.5,-56.5 2000.5,-56.5"/>
<text text-anchor="middle" x="2018" y="-63.5" font-family="Helvetica,sans-Serif" font-size="10.00" fill="#000000">new</text>
</g>
<!-- Node25&#45;&gt;Node30 -->
<g id="edge44" class="edge">
<title>Node25&#45;&gt;Node30</title>
<path fill="none" stroke="#191970" d="M1939.5313,-117.8906C1954.4094,-108.0519 1977.7504,-92.6167 1995.1128,-81.1351"/>
<polygon fill="#191970" stroke="#191970" points="1997.1602,-83.9773 2003.5708,-75.5419 1993.299,-78.1385 1997.1602,-83.9773"/>
</g>
<!-- Node31&#45;&gt;Node12 -->
<g id="edge47" class="edge">
<title>Node31&#45;&gt;Node12</title>
<path fill="none" stroke="#191970" d="M1755.7813,-302.3906C1746.9142,-293.1478 1733.3088,-278.966 1722.5611,-267.7628"/>
<polygon fill="#191970" stroke="#191970" points="1724.7973,-265.0381 1715.3487,-260.2449 1719.7459,-269.8841 1724.7973,-265.0381"/>
</g>
<!-- Node31&#45;&gt;Node21 -->
<g id="edge48" class="edge">
<title>Node31&#45;&gt;Node21</title>
<path fill="none" stroke="#191970" d="M1765.8632,-302.3484C1767.6624,-282.2295 1771.845,-235.4608 1774.2373,-208.7098"/>
<polygon fill="#191970" stroke="#191970" points="1777.7361,-208.8788 1775.1409,-198.6068 1770.7639,-208.2552 1777.7361,-208.8788"/>
</g>
<!-- Node31&#45;&gt;Node22 -->
<g id="edge49" class="edge">
<title>Node31&#45;&gt;Node22</title>
<path fill="none" stroke="#191970" d="M1798.5264,-302.469C1907.0873,-271.6069 2248.9863,-174.4107 2370.5636,-139.8483"/>
<polygon fill="#191970" stroke="#191970" points="2371.6228,-143.1859 2380.2846,-137.0847 2369.7087,-136.4527 2371.6228,-143.1859"/>
</g>
<!-- Node31&#45;&gt;Node25 -->
<g id="edge67" class="edge">
<title>Node31&#45;&gt;Node25</title>
<path fill="none" stroke="#191970" d="M1773.377,-302.3402C1799.0816,-272.6996 1877.0812,-182.7563 1910.0423,-144.7481"/>
<polygon fill="#191970" stroke="#191970" points="1912.7984,-146.9121 1916.7059,-137.0641 1907.51,-142.3259 1912.7984,-146.9121"/>
</g>
<!-- Node31&#45;&gt;Node32 -->
<g id="edge50" class="edge">
<title>Node31&#45;&gt;Node32</title>
<path fill="none" stroke="#191970" d="M1712.959,-308.2914C1560.9634,-297.4597 1118.4345,-265.9238 959.597,-254.6045"/>
<polygon fill="#191970" stroke="#191970" points="959.7745,-251.1084 949.551,-253.8886 959.2768,-258.0907 959.7745,-251.1084"/>
</g>
<!-- Node32&#45;&gt;Node8 -->
<g id="edge52" class="edge">
<title>Node32&#45;&gt;Node8</title>
<path fill="none" stroke="#191970" d="M949.5623,-235.4138C978.5818,-226.0913 1016.6305,-213.6605 1058.703,-199.0181"/>
<polygon fill="#191970" stroke="#191970" points="1060.0305,-202.2618 1068.3157,-195.6584 1057.7209,-195.6538 1060.0305,-202.2618"/>
</g>
<!-- Node32&#45;&gt;Node11 -->
<g id="edge53" class="edge">
<title>Node32&#45;&gt;Node11</title>
<path fill="none" stroke="#191970" d="M854.4352,-246.3229C711.2435,-232.8569 298.1858,-187.0467 367,-112 446.4193,-25.3878 1328.2311,-12.0905 1509.5303,-10.2677"/>
<polygon fill="#191970" stroke="#191970" points="1509.7855,-13.7655 1519.7514,-10.1698 1509.7184,-6.7658 1509.7855,-13.7655"/>
</g>
<!-- Node33 -->
<g id="node34" class="node">
<title>Node33</title>
<polygon fill="none" stroke="#bfbfbf" points="775,-179.5 775,-198.5 815,-198.5 815,-179.5 775,-179.5"/>
<text text-anchor="middle" x="795" y="-186.5" font-family="Helvetica,sans-Serif" font-size="10.00" fill="#000000">limits</text>
</g>
<!-- Node32&#45;&gt;Node33 -->
<g id="edge51" class="edge">
<title>Node32&#45;&gt;Node33</title>
<path fill="none" stroke="#191970" d="M875.8249,-235.4554C858.9113,-225.734 837.0171,-213.15 820.2828,-203.5317"/>
<polygon fill="#191970" stroke="#191970" points="821.9953,-200.4791 811.5812,-198.5303 818.507,-206.548 821.9953,-200.4791"/>
</g>
<!-- Node34 -->
<g id="node35" class="node">
<title>Node34</title>
<g id="a_node35"><a xlink:href="general__exceptions_8h.html" target="_top" xlink:title="Definition of self&#45;defined general exceptions. ">
<polygon fill="none" stroke="#000000" points="941.5,-179.5 941.5,-198.5 1050.5,-198.5 1050.5,-179.5 941.5,-179.5"/>
<text text-anchor="middle" x="996" y="-186.5" font-family="Helvetica,sans-Serif" font-size="10.00" fill="#000000">general_exceptions.h</text>
</a>
</g>
</g>
<!-- Node32&#45;&gt;Node34 -->
<g id="edge54" class="edge">
<title>Node32&#45;&gt;Node34</title>
<path fill="none" stroke="#191970" d="M925.236,-235.2977C939.7334,-225.8127 958.3244,-213.6495 972.8126,-204.1705"/>
<polygon fill="#191970" stroke="#191970" points="974.7782,-207.0671 981.2301,-198.6633 970.9457,-201.2094 974.7782,-207.0671"/>
</g>
<!-- Node35 -->
<g id="node36" class="node">
<title>Node35</title>
<g id="a_node36"><a xlink:href="lapack__helpers_8h.html" target="_top" xlink:title="Exposes LAPACK helper functions defined in lapack_full_matrix.cc and define new ones by following the...">
<polygon fill="none" stroke="#000000" points="833,-179.5 833,-198.5 923,-198.5 923,-179.5 833,-179.5"/>
<text text-anchor="middle" x="878" y="-186.5" font-family="Helvetica,sans-Serif" font-size="10.00" fill="#000000">lapack_helpers.h</text>
</a>
</g>
</g>
<!-- Node32&#45;&gt;Node35 -->
<g id="edge56" class="edge">
<title>Node32&#45;&gt;Node35</title>
<path fill="none" stroke="#191970" d="M896.0674,-235.2977C892.8748,-227.1166 888.9046,-216.943 885.4996,-208.2179"/>
<polygon fill="#191970" stroke="#191970" points="888.7387,-206.8903 881.8427,-198.8469 882.2177,-209.4351 888.7387,-206.8903"/>
</g>
<!-- Node34&#45;&gt;Node26 -->
<g id="edge55" class="edge">
<title>Node34&#45;&gt;Node26</title>
<path fill="none" stroke="#191970" d="M1050.6032,-180.0974C1053.4405,-179.7086 1056.2523,-179.3398 1059,-179 1103.8359,-173.4555 1433.5017,-176.3295 1464,-143 1478.3067,-127.3651 1470.2941,-102.1138 1461.8852,-84.8199"/>
<polygon fill="#191970" stroke="#191970" points="1464.8248,-82.8917 1457.0541,-75.6898 1458.6376,-86.1657 1464.8248,-82.8917"/>
</g>
<!-- Node35&#45;&gt;Node6 -->
<g id="edge60" class="edge">
<title>Node35&#45;&gt;Node6</title>
<path fill="none" stroke="#191970" d="M832.9747,-180.2982C829.9429,-179.8246 826.9304,-179.3857 824,-179 622.0017,-152.4143 570.0554,-159.692 367,-143 329.826,-139.9442 288.3698,-136.4037 254.5215,-133.4786"/>
<polygon fill="#191970" stroke="#191970" points="254.5389,-129.9671 244.2743,-132.5918 253.9353,-136.9411 254.5389,-129.9671"/>
</g>
<!-- Node36 -->
<g id="node37" class="node">
<title>Node36</title>
<polygon fill="none" stroke="#bfbfbf" points="820,-118 820,-137 936,-137 936,-118 820,-118"/>
<text text-anchor="middle" x="878" y="-125" font-family="Helvetica,sans-Serif" font-size="10.00" fill="#000000">deal.II/base/numbers.h</text>
</g>
<!-- Node35&#45;&gt;Node36 -->
<g id="edge57" class="edge">
<title>Node35&#45;&gt;Node36</title>
<path fill="none" stroke="#191970" d="M878,-179.3906C878,-170.8657 878,-158.1392 878,-147.4235"/>
<polygon fill="#191970" stroke="#191970" points="881.5001,-147.2448 878,-137.2449 874.5001,-147.2449 881.5001,-147.2448"/>
</g>
<!-- Node37 -->
<g id="node38" class="node">
<title>Node37</title>
<polygon fill="none" stroke="#bfbfbf" points="954,-112.5 954,-142.5 1082,-142.5 1082,-112.5 954,-112.5"/>
<text text-anchor="start" x="962" y="-130.5" font-family="Helvetica,sans-Serif" font-size="10.00" fill="#000000">deal.II/lac/blas_extension</text>
<text text-anchor="middle" x="1018" y="-119.5" font-family="Helvetica,sans-Serif" font-size="10.00" fill="#000000">_templates.h</text>
</g>
<!-- Node35&#45;&gt;Node37 -->
<g id="edge58" class="edge">
<title>Node35&#45;&gt;Node37</title>
<path fill="none" stroke="#191970" d="M899.875,-179.3906C919.7872,-170.6435 949.7691,-157.4728 974.5438,-146.5897"/>
<polygon fill="#191970" stroke="#191970" points="976.0043,-149.771 983.7521,-142.5446 973.1889,-143.3621 976.0043,-149.771"/>
</g>
<!-- Node38 -->
<g id="node39" class="node">
<title>Node38</title>
<polygon fill="none" stroke="#bfbfbf" points="1100,-118 1100,-137 1226,-137 1226,-118 1100,-118"/>
<text text-anchor="middle" x="1163" y="-125" font-family="Helvetica,sans-Serif" font-size="10.00" fill="#000000">deal.II/lac/block_vector.h</text>
</g>
<!-- Node35&#45;&gt;Node38 -->
<g id="edge59" class="edge">
<title>Node35&#45;&gt;Node38</title>
<path fill="none" stroke="#191970" d="M922.2185,-179.4581C972.4527,-168.6181 1054.4573,-150.9224 1108.5772,-139.2439"/>
<polygon fill="#191970" stroke="#191970" points="1109.641,-142.595 1118.6777,-137.0643 1108.1644,-135.7524 1109.641,-142.595"/>
</g>
<!-- Node39 -->
<g id="node40" class="node">
<title>Node39</title>
<polygon fill="none" stroke="#bfbfbf" points="485.5,-112.5 485.5,-142.5 576.5,-142.5 576.5,-112.5 485.5,-112.5"/>
<text text-anchor="start" x="493.5" y="-130.5" font-family="Helvetica,sans-Serif" font-size="10.00" fill="#000000">deal.II/lac/lapack</text>
<text text-anchor="middle" x="531" y="-119.5" font-family="Helvetica,sans-Serif" font-size="10.00" fill="#000000">_full_matrix.h</text>
</g>
<!-- Node35&#45;&gt;Node39 -->
<g id="edge61" class="edge">
<title>Node35&#45;&gt;Node39</title>
<path fill="none" stroke="#191970" d="M832.9388,-180.5383C829.9157,-180.0067 826.9149,-179.4893 824,-179 721.2687,-161.7558 691.7313,-165.6058 586.628,-143.2043"/>
<polygon fill="#191970" stroke="#191970" points="587.0728,-139.7197 576.5591,-141.0281 585.594,-146.5617 587.0728,-139.7197"/>
</g>
<!-- Node40 -->
<g id="node41" class="node">
<title>Node40</title>
<polygon fill="none" stroke="#bfbfbf" points="594.5,-112.5 594.5,-142.5 685.5,-142.5 685.5,-112.5 594.5,-112.5"/>
<text text-anchor="start" x="602.5" y="-130.5" font-family="Helvetica,sans-Serif" font-size="10.00" fill="#000000">deal.II/lac/lapack</text>
<text text-anchor="middle" x="640" y="-119.5" font-family="Helvetica,sans-Serif" font-size="10.00" fill="#000000">_support.h</text>
</g>
<!-- Node35&#45;&gt;Node40 -->
<g id="edge62" class="edge">
<title>Node35&#45;&gt;Node40</title>
<path fill="none" stroke="#191970" d="M838.6491,-179.4514C803.6355,-170.8787 750.7905,-157.754 695.5616,-143.1097"/>
<polygon fill="#191970" stroke="#191970" points="696.1549,-139.6458 685.5911,-140.4561 694.3545,-146.4103 696.1549,-139.6458"/>
</g>
<!-- Node41 -->
<g id="node42" class="node">
<title>Node41</title>
<polygon fill="none" stroke="#bfbfbf" points="376.5,-112.5 376.5,-142.5 467.5,-142.5 467.5,-112.5 376.5,-112.5"/>
<text text-anchor="start" x="384.5" y="-130.5" font-family="Helvetica,sans-Serif" font-size="10.00" fill="#000000">deal.II/lac/lapack</text>
<text text-anchor="middle" x="422" y="-119.5" font-family="Helvetica,sans-Serif" font-size="10.00" fill="#000000">_templates.h</text>
</g>
<!-- Node35&#45;&gt;Node41 -->
<g id="edge63" class="edge">
<title>Node35&#45;&gt;Node41</title>
<path fill="none" stroke="#191970" d="M832.9633,-180.3812C829.9342,-179.8876 826.9255,-179.4215 824,-179 673.4037,-157.3019 630.4881,-171.906 477.7496,-143.1382"/>
<polygon fill="#191970" stroke="#191970" points="478.0078,-139.6241 467.5279,-141.1798 476.6906,-146.4991 478.0078,-139.6241"/>
</g>
<!-- Node42 -->
<g id="node43" class="node">
<title>Node42</title>
<polygon fill="none" stroke="#bfbfbf" points="1244,-112.5 1244,-142.5 1336,-142.5 1336,-112.5 1244,-112.5"/>
<text text-anchor="start" x="1252" y="-130.5" font-family="Helvetica,sans-Serif" font-size="10.00" fill="#000000">deal.II/lac/sparse</text>
<text text-anchor="middle" x="1290" y="-119.5" font-family="Helvetica,sans-Serif" font-size="10.00" fill="#000000">_matrix.h</text>
</g>
<!-- Node35&#45;&gt;Node42 -->
<g id="edge64" class="edge">
<title>Node35&#45;&gt;Node42</title>
<path fill="none" stroke="#191970" d="M923.0443,-180.4326C926.0715,-179.9266 929.0778,-179.4437 932,-179 1062.8038,-159.1394 1100.183,-168.9634 1233.7057,-143.0654"/>
<polygon fill="#191970" stroke="#191970" points="1234.7794,-146.4211 1243.9135,-141.0529 1233.4254,-139.5533 1234.7794,-146.4211"/>
</g>
<!-- Node43 -->
<g id="node44" class="node">
<title>Node43</title>
<polygon fill="none" stroke="#bfbfbf" points="1354.5,-118 1354.5,-137 1455.5,-137 1455.5,-118 1354.5,-118"/>
<text text-anchor="middle" x="1405" y="-125" font-family="Helvetica,sans-Serif" font-size="10.00" fill="#000000">deal.II/lac/utilities.h</text>
</g>
<!-- Node35&#45;&gt;Node43 -->
<g id="edge65" class="edge">
<title>Node35&#45;&gt;Node43</title>
<path fill="none" stroke="#191970" d="M923.0291,-180.3265C926.06,-179.8461 929.0712,-179.3979 932,-179 1114.5744,-154.1962 1163.4006,-174.1497 1345,-143 1350.567,-142.0451 1356.3741,-140.83 1362.0886,-139.5015"/>
<polygon fill="#191970" stroke="#191970" points="1363.3253,-142.802 1372.2031,-137.0196 1361.657,-136.0036 1363.3253,-142.802"/>
</g>
<!-- Node44 -->
<g id="node45" class="node">
<title>Node44</title>
<polygon fill="none" stroke="#bfbfbf" points="704,-118 704,-137 802,-137 802,-118 704,-118"/>
<text text-anchor="middle" x="753" y="-125" font-family="Helvetica,sans-Serif" font-size="10.00" fill="#000000">deal.II/lac/vector.h</text>
</g>
<!-- Node35&#45;&gt;Node44 -->
<g id="edge66" class="edge">
<title>Node35&#45;&gt;Node44</title>
<path fill="none" stroke="#191970" d="M858.4688,-179.3906C837.8292,-169.2359 805.0724,-153.1196 781.5398,-141.5416"/>
<polygon fill="#191970" stroke="#191970" points="782.912,-138.3161 772.3941,-137.0419 779.8218,-144.5971 782.912,-138.3161"/>
</g>
<!-- Node45&#45;&gt;Node8 -->
<g id="edge70" class="edge">
<title>Node45&#45;&gt;Node8</title>
<path fill="none" stroke="#191970" d="M1286.2288,-240.9581C1238.4235,-228.5529 1156.0185,-207.1694 1113.362,-196.1003"/>
<polygon fill="#191970" stroke="#191970" points="1114.2215,-192.7074 1103.6629,-193.5834 1112.4632,-199.483 1114.2215,-192.7074"/>
</g>
<!-- Node45&#45;&gt;Node11 -->
<g id="edge71" class="edge">
<title>Node45&#45;&gt;Node11</title>
<path fill="none" stroke="#191970" d="M1368.1183,-240.9654C1395.2651,-233.3495 1429.0806,-220.3236 1453,-199 1474.0762,-180.211 1476.1266,-170.386 1483,-143 1486.354,-129.6367 1490.9916,-123.2232 1483,-112 1452.5496,-69.2364 1347.3185,-97.8597 1379,-56 1394.7376,-35.2065 1466.9184,-21.1442 1509.7715,-14.4677"/>
<polygon fill="#191970" stroke="#191970" points="1510.3588,-17.9188 1519.7253,-12.9673 1509.3153,-10.997 1510.3588,-17.9188"/>
</g>
<!-- Node45&#45;&gt;Node14 -->
<g id="edge69" class="edge">
<title>Node45&#45;&gt;Node14</title>
<path fill="none" stroke="#191970" d="M1347.1076,-240.9636C1397.512,-219.6578 1506.0224,-165.8213 1464,-112 1456.2348,-102.0545 1391.8031,-87.5275 1341.3475,-77.4709"/>
<polygon fill="#191970" stroke="#191970" points="1341.9519,-74.0228 1331.4637,-75.5219 1340.5976,-80.8905 1341.9519,-74.0228"/>
</g>
<!-- Node46&#45;&gt;Node1 -->
<g id="edge79" class="edge">
<title>Node46&#45;&gt;Node1</title>
<path fill="none" stroke="#191970" d="M408.6745,-307.5275C332.4203,-296.2814 133.1819,-266.8973 54.5719,-255.3038"/>
<polygon fill="#191970" stroke="#191970" points="54.7094,-251.7863 44.3057,-253.7897 53.688,-258.7114 54.7094,-251.7863"/>
</g>
<!-- Node46&#45;&gt;Node6 -->
<g id="edge75" class="edge">
<title>Node46&#45;&gt;Node6</title>
<path fill="none" stroke="#191970" d="M408.9121,-307.4067C363.7516,-300.0144 281.2509,-284.4256 258,-266 247.7061,-257.8424 211.713,-182.6143 194.8469,-146.5759"/>
<polygon fill="#191970" stroke="#191970" points="197.8512,-144.7368 190.4544,-137.1514 191.5065,-147.6939 197.8512,-144.7368"/>
</g>
<!-- Node46&#45;&gt;Node8 -->
<g id="edge80" class="edge">
<title>Node46&#45;&gt;Node8</title>
<path fill="none" stroke="#191970" d="M469.2321,-311.1021C565.8333,-307.9553 866.08,-295.9505 958,-266 999.7248,-252.4047 1042.2163,-223.1387 1066.2298,-204.8592"/>
<polygon fill="#191970" stroke="#191970" points="1068.45,-207.5666 1074.2052,-198.6711 1064.1589,-202.036 1068.45,-207.5666"/>
</g>
<!-- Node46&#45;&gt;Node11 -->
<g id="edge81" class="edge">
<title>Node46&#45;&gt;Node11</title>
<path fill="none" stroke="#191970" d="M408.7576,-304.5745C360.6327,-290.7437 272,-256.1555 272,-189 272,-189 272,-189 272,-127.5 272,-38.9359 371.2849,-74.0029 458,-56 563.123,-34.1754 1340.7991,-14.739 1509.6932,-10.7475"/>
<polygon fill="#191970" stroke="#191970" points="1510.009,-14.2412 1519.924,-10.5071 1509.8445,-7.2431 1510.009,-14.2412"/>
</g>
<!-- Node46&#45;&gt;Node14 -->
<g id="edge74" class="edge">
<title>Node46&#45;&gt;Node14</title>
<path fill="none" stroke="#191970" d="M429.4276,-302.2378C399.4565,-270.5371 312.5801,-169.2307 367,-112 396.3259,-81.1594 1017.6052,-69.7049 1218.1679,-66.8026"/>
<polygon fill="#191970" stroke="#191970" points="1218.2935,-70.3013 1228.2426,-66.6589 1218.1936,-63.302 1218.2935,-70.3013"/>
</g>
<!-- Node46&#45;&gt;Node32 -->
<g id="edge82" class="edge">
<title>Node46&#45;&gt;Node32</title>
<path fill="none" stroke="#191970" d="M469.022,-308.0122C544.7922,-297.9477 744.7947,-271.3815 844.2099,-258.1762"/>
<polygon fill="#191970" stroke="#191970" points="844.9247,-261.6121 854.3768,-256.8258 844.0029,-254.6731 844.9247,-261.6121"/>
</g>
<!-- Node46&#45;&gt;Node39 -->
<g id="edge76" class="edge">
<title>Node46&#45;&gt;Node39</title>
<path fill="none" stroke="#191970" d="M443.8168,-302.3402C457.7476,-274.4029 498.3914,-192.8944 518.886,-151.7938"/>
<polygon fill="#191970" stroke="#191970" points="522.0722,-153.2473 523.4025,-142.7363 515.8078,-150.1236 522.0722,-153.2473"/>
</g>
<!-- Node46&#45;&gt;Node40 -->
<g id="edge77" class="edge">
<title>Node46&#45;&gt;Node40</title>
<path fill="none" stroke="#191970" d="M449.5236,-302.3402C480.4731,-273.9314 571.7713,-190.1278 615.7627,-149.7477"/>
<polygon fill="#191970" stroke="#191970" points="618.4009,-152.077 623.4011,-142.7363 613.6673,-146.9201 618.4009,-152.077"/>
</g>
<!-- Node46&#45;&gt;Node41 -->
<g id="edge78" class="edge">
<title>Node46&#45;&gt;Node41</title>
<path fill="none" stroke="#191970" d="M438.1099,-302.3402C435.5575,-274.6387 428.1519,-194.2663 424.3351,-152.8429"/>
<polygon fill="#191970" stroke="#191970" points="427.8067,-152.373 423.4039,-142.7363 420.8363,-153.0153 427.8067,-152.373"/>
</g>
</g>
</svg>
