<?xml version="1.0" encoding="UTF-8" standalone="no"?>
<!DOCTYPE svg PUBLIC "-//W3C//DTD SVG 1.1//EN"
 "http://www.w3.org/Graphics/SVG/1.1/DTD/svg11.dtd">
<!-- Generated by graphviz version 2.40.1 (20161225.0304)
 -->
<!-- Title: /home/jihuan/Projects/deal.ii/program/dealii&#45;9.1.1/examples/laplace&#45;bem/tests/hmatrix&#45;add&#45;formatted/hmatrix&#45;add&#45;formatted.cc Pages: 1 -->
<svg width="2078pt" height="486pt"
 viewBox="0.00 0.00 2078.00 486.00" xmlns="http://www.w3.org/2000/svg" xmlns:xlink="http://www.w3.org/1999/xlink">
<g id="graph0" class="graph" transform="scale(1 1) rotate(0) translate(4 482)">
<title>/home/jihuan/Projects/deal.ii/program/dealii&#45;9.1.1/examples/laplace&#45;bem/tests/hmatrix&#45;add&#45;formatted/hmatrix&#45;add&#45;formatted.cc</title>
<!-- Node0 -->
<g id="node1" class="node">
<title>Node0</title>
<polygon fill="#bfbfbf" stroke="#000000" points="1257.5,-414.5 1257.5,-477.5 1418.5,-477.5 1418.5,-414.5 1257.5,-414.5"/>
<text text-anchor="start" x="1265.5" y="-465.5" font-family="Helvetica,sans-Serif" font-size="10.00" fill="#000000">/home/jihuan/Projects</text>
<text text-anchor="start" x="1265.5" y="-454.5" font-family="Helvetica,sans-Serif" font-size="10.00" fill="#000000">/deal.ii/program/dealii</text>
<text text-anchor="start" x="1265.5" y="-443.5" font-family="Helvetica,sans-Serif" font-size="10.00" fill="#000000">&#45;9.1.1/examples/laplace</text>
<text text-anchor="start" x="1265.5" y="-432.5" font-family="Helvetica,sans-Serif" font-size="10.00" fill="#000000">&#45;bem/tests/hmatrix&#45;add&#45;formatted</text>
<text text-anchor="middle" x="1338" y="-421.5" font-family="Helvetica,sans-Serif" font-size="10.00" fill="#000000">/hmatrix&#45;add&#45;formatted.cc</text>
</g>
<!-- Node1 -->
<g id="node2" class="node">
<title>Node1</title>
<polygon fill="none" stroke="#bfbfbf" points="1247,-358.5 1247,-377.5 1291,-377.5 1291,-358.5 1247,-358.5"/>
<text text-anchor="middle" x="1269" y="-365.5" font-family="Helvetica,sans-Serif" font-size="10.00" fill="#000000">cmath</text>
</g>
<!-- Node0&#45;&gt;Node1 -->
<g id="edge1" class="edge">
<title>Node0&#45;&gt;Node1</title>
<path fill="none" stroke="#191970" d="M1309.9351,-414.2744C1301.2044,-404.4049 1291.9037,-393.8911 1284.3776,-385.3834"/>
<polygon fill="#191970" stroke="#191970" points="1286.7772,-382.8135 1277.53,-377.6426 1281.5342,-387.4516 1286.7772,-382.8135"/>
</g>
<!-- Node2 -->
<g id="node3" class="node">
<title>Node2</title>
<polygon fill="none" stroke="#bfbfbf" points="1912,-56.5 1912,-75.5 1966,-75.5 1966,-56.5 1912,-56.5"/>
<text text-anchor="middle" x="1939" y="-63.5" font-family="Helvetica,sans-Serif" font-size="10.00" fill="#000000">iostream</text>
</g>
<!-- Node0&#45;&gt;Node2 -->
<g id="edge2" class="edge">
<title>Node0&#45;&gt;Node2</title>
<path fill="none" stroke="#191970" d="M1418.6284,-438.8036C1601.5048,-421.3975 2032,-373.8543 2032,-312 2032,-312 2032,-312 2032,-189 2032,-142.6192 1989.4059,-102.6814 1961.8695,-81.7083"/>
<polygon fill="#191970" stroke="#191970" points="1963.6621,-78.6823 1953.5313,-75.5812 1959.517,-84.3231 1963.6621,-78.6823"/>
</g>
<!-- Node3 -->
<g id="node4" class="node">
<title>Node3</title>
<g id="a_node4"><a xlink:href="hmatrix_8h.html" target="_top" xlink:title="Definition of hierarchical matrix. ">
<polygon fill="none" stroke="#000000" points="1309.5,-358.5 1309.5,-377.5 1366.5,-377.5 1366.5,-358.5 1309.5,-358.5"/>
<text text-anchor="middle" x="1338" y="-365.5" font-family="Helvetica,sans-Serif" font-size="10.00" fill="#000000">hmatrix.h</text>
</a>
</g>
</g>
<!-- Node0&#45;&gt;Node3 -->
<g id="edge3" class="edge">
<title>Node0&#45;&gt;Node3</title>
<path fill="none" stroke="#191970" d="M1338,-414.2744C1338,-405.3302 1338,-395.8568 1338,-387.8269"/>
<polygon fill="#191970" stroke="#191970" points="1341.5001,-387.6425 1338,-377.6426 1334.5001,-387.6426 1341.5001,-387.6425"/>
</g>
<!-- Node3&#45;&gt;Node2 -->
<g id="edge8" class="edge">
<title>Node3&#45;&gt;Node2</title>
<path fill="none" stroke="#191970" d="M1366.568,-365.6463C1488.1098,-355.2582 1956,-311.3184 1956,-250.5 1956,-250.5 1956,-250.5 1956,-189 1956,-152.1524 1948.4211,-109.6754 1943.3841,-85.5136"/>
<polygon fill="#191970" stroke="#191970" points="1946.7552,-84.5427 1941.2225,-75.5072 1939.9131,-86.0209 1946.7552,-84.5427"/>
</g>
<!-- Node4 -->
<g id="node5" class="node">
<title>Node4</title>
<polygon fill="none" stroke="#bfbfbf" points="40,-302.5 40,-321.5 162,-321.5 162,-302.5 40,-302.5"/>
<text text-anchor="middle" x="101" y="-309.5" font-family="Helvetica,sans-Serif" font-size="10.00" fill="#000000">deal.II/base/logstream.h</text>
</g>
<!-- Node3&#45;&gt;Node4 -->
<g id="edge4" class="edge">
<title>Node3&#45;&gt;Node4</title>
<path fill="none" stroke="#191970" d="M1309.0927,-359.675C1306.042,-359.0121 1302.9703,-358.4327 1300,-358 805.4096,-285.9439 674.1206,-363.0804 176,-322 174.8872,-321.9082 173.7656,-321.8115 172.6371,-321.7103"/>
<polygon fill="#191970" stroke="#191970" points="172.6372,-318.1933 162.3406,-320.6895 171.9465,-325.1591 172.6372,-318.1933"/>
</g>
<!-- Node5 -->
<g id="node6" class="node">
<title>Node5</title>
<polygon fill="none" stroke="#bfbfbf" points="1331,-118 1331,-137 1447,-137 1447,-118 1331,-118"/>
<text text-anchor="middle" x="1389" y="-125" font-family="Helvetica,sans-Serif" font-size="10.00" fill="#000000">deal.II/lac/full_matrix.h</text>
</g>
<!-- Node3&#45;&gt;Node5 -->
<g id="edge5" class="edge">
<title>Node3&#45;&gt;Node5</title>
<path fill="none" stroke="#191970" d="M1345.6835,-358.3212C1358.8734,-341.0168 1385.3364,-303.1023 1395,-266 1405.7699,-224.65 1398.7159,-174.0406 1393.3804,-146.9025"/>
<polygon fill="#191970" stroke="#191970" points="1396.804,-146.1752 1391.324,-137.1077 1389.9534,-147.6135 1396.804,-146.1752"/>
</g>
<!-- Node6 -->
<g id="node7" class="node">
<title>Node6</title>
<polygon fill="none" stroke="#bfbfbf" points="42,-56.5 42,-75.5 98,-75.5 98,-56.5 42,-56.5"/>
<text text-anchor="middle" x="70" y="-63.5" font-family="Helvetica,sans-Serif" font-size="10.00" fill="#000000">algorithm</text>
</g>
<!-- Node3&#45;&gt;Node6 -->
<g id="edge6" class="edge">
<title>Node3&#45;&gt;Node6</title>
<path fill="none" stroke="#191970" d="M1309.0919,-359.6807C1306.0414,-359.0167 1302.9698,-358.4355 1300,-358 1183.1816,-340.8695 341.231,-379.3007 238,-322 204.5352,-303.4246 190,-288.7745 190,-250.5 190,-250.5 190,-250.5 190,-189 190,-137.5142 135.4653,-99.5469 99.9232,-80.2696"/>
<polygon fill="#191970" stroke="#191970" points="101.3859,-77.0849 90.9024,-75.5531 98.1425,-83.2882 101.3859,-77.0849"/>
</g>
<!-- Node7 -->
<g id="node8" class="node">
<title>Node7</title>
<polygon fill="none" stroke="#bfbfbf" points="256,-302.5 256,-321.5 306,-321.5 306,-302.5 256,-302.5"/>
<text text-anchor="middle" x="281" y="-309.5" font-family="Helvetica,sans-Serif" font-size="10.00" fill="#000000">fstream</text>
</g>
<!-- Node3&#45;&gt;Node7 -->
<g id="edge7" class="edge">
<title>Node3&#45;&gt;Node7</title>
<path fill="none" stroke="#191970" d="M1309.0906,-359.6893C1306.0403,-359.0237 1302.9692,-358.4397 1300,-358 868.8527,-294.1516 751.347,-384.4854 320,-322 318.7159,-321.814 317.413,-321.6024 316.1007,-321.3698"/>
<polygon fill="#191970" stroke="#191970" points="316.5204,-317.8818 306.0151,-319.2557 315.0843,-324.7329 316.5204,-317.8818"/>
</g>
<!-- Node8 -->
<g id="node9" class="node">
<title>Node8</title>
<polygon fill="none" stroke="#bfbfbf" points="1464.5,-179.5 1464.5,-198.5 1499.5,-198.5 1499.5,-179.5 1464.5,-179.5"/>
<text text-anchor="middle" x="1482" y="-186.5" font-family="Helvetica,sans-Serif" font-size="10.00" fill="#000000">map</text>
</g>
<!-- Node3&#45;&gt;Node8 -->
<g id="edge9" class="edge">
<title>Node3&#45;&gt;Node8</title>
<path fill="none" stroke="#191970" d="M1366.6288,-361.7123C1389.2324,-355.3349 1420.0246,-343.2864 1439,-322 1467.9527,-289.5212 1477.4425,-237.2968 1480.53,-208.9174"/>
<polygon fill="#191970" stroke="#191970" points="1484.0428,-208.9383 1481.4758,-198.6592 1477.0724,-208.2957 1484.0428,-208.9383"/>
</g>
<!-- Node9 -->
<g id="node10" class="node">
<title>Node9</title>
<polygon fill="none" stroke="#bfbfbf" points="694.5,-56.5 694.5,-75.5 735.5,-75.5 735.5,-56.5 694.5,-56.5"/>
<text text-anchor="middle" x="715" y="-63.5" font-family="Helvetica,sans-Serif" font-size="10.00" fill="#000000">string</text>
</g>
<!-- Node3&#45;&gt;Node9 -->
<g id="edge10" class="edge">
<title>Node3&#45;&gt;Node9</title>
<path fill="none" stroke="#191970" d="M1309.3729,-360.4389C1306.2113,-359.612 1303.0381,-358.7858 1300,-358 924.4073,-260.8557 692.1553,-449.2498 454,-143 445.5421,-132.1238 445.0391,-122.4656 454,-112 486.0078,-74.6176 619.3529,-86.7527 684.2945,-75.4607"/>
<polygon fill="#191970" stroke="#191970" points="685.3968,-78.8065 694.4751,-73.3445 683.9721,-71.953 685.3968,-78.8065"/>
</g>
<!-- Node10 -->
<g id="node11" class="node">
<title>Node10</title>
<polygon fill="none" stroke="#bfbfbf" points="0,-.5 0,-19.5 40,-19.5 40,-.5 0,-.5"/>
<text text-anchor="middle" x="20" y="-7.5" font-family="Helvetica,sans-Serif" font-size="10.00" fill="#000000">utility</text>
</g>
<!-- Node3&#45;&gt;Node10 -->
<g id="edge11" class="edge">
<title>Node3&#45;&gt;Node10</title>
<path fill="none" stroke="#191970" d="M1309.09,-359.6932C1306.0399,-359.0268 1302.9689,-358.4416 1300,-358 1091.6953,-327.0162 555.6036,-379.4686 353,-322 346.9209,-320.2757 259.1704,-269.6326 254,-266 148.0117,-191.5356 98.212,-187.919 33,-76 24.8239,-61.9678 21.6944,-43.7053 20.5415,-29.949"/>
<polygon fill="#191970" stroke="#191970" points="24.0185,-29.4363 19.9705,-19.6453 17.0293,-29.8237 24.0185,-29.4363"/>
</g>
<!-- Node11 -->
<g id="node12" class="node">
<title>Node11</title>
<polygon fill="none" stroke="#bfbfbf" points="1672,-.5 1672,-19.5 1716,-19.5 1716,-.5 1672,-.5"/>
<text text-anchor="middle" x="1694" y="-7.5" font-family="Helvetica,sans-Serif" font-size="10.00" fill="#000000">vector</text>
</g>
<!-- Node3&#45;&gt;Node11 -->
<g id="edge12" class="edge">
<title>Node3&#45;&gt;Node11</title>
<path fill="none" stroke="#191970" d="M1366.6953,-367.2644C1502.0315,-363.0369 2070,-336.5084 2070,-189 2070,-189 2070,-189 2070,-127.5 2070,-79.8133 2033.1088,-76.3876 1990,-56 1943.6847,-34.0959 1793.3224,-18.6601 1726.509,-12.7111"/>
<polygon fill="#191970" stroke="#191970" points="1726.4265,-9.1906 1716.1596,-11.8063 1725.8168,-16.164 1726.4265,-9.1906"/>
</g>
<!-- Node12 -->
<g id="node13" class="node">
<title>Node12</title>
<g id="a_node13"><a xlink:href="block__cluster_8h.html" target="_top" xlink:title="Implementation of the class BlockCluster. ">
<polygon fill="none" stroke="#000000" points="263.5,-241 263.5,-260 346.5,-260 346.5,-241 263.5,-241"/>
<text text-anchor="middle" x="305" y="-248" font-family="Helvetica,sans-Serif" font-size="10.00" fill="#000000">block_cluster.h</text>
</a>
</g>
</g>
<!-- Node3&#45;&gt;Node12 -->
<g id="edge13" class="edge">
<title>Node3&#45;&gt;Node12</title>
<path fill="none" stroke="#191970" d="M1309.0917,-359.6816C1306.0413,-359.0174 1302.9698,-358.4359 1300,-358 1242.0864,-349.4989 287.6767,-364.0911 247,-322 229.3495,-303.7358 255.9589,-280.5966 278.6822,-265.6718"/>
<polygon fill="#191970" stroke="#191970" points="280.8031,-268.473 287.4133,-260.1931 277.0825,-262.5437 280.8031,-268.473"/>
</g>
<!-- Node31 -->
<g id="node32" class="node">
<title>Node31</title>
<g id="a_node32"><a xlink:href="block__cluster__tree_8h.html" target="_top" xlink:title="Implementation of the class BlockClusterTree. ">
<polygon fill="none" stroke="#000000" points="362,-302.5 362,-321.5 466,-321.5 466,-302.5 362,-302.5"/>
<text text-anchor="middle" x="414" y="-309.5" font-family="Helvetica,sans-Serif" font-size="10.00" fill="#000000">block_cluster_tree.h</text>
</a>
</g>
</g>
<!-- Node3&#45;&gt;Node31 -->
<g id="edge45" class="edge">
<title>Node3&#45;&gt;Node31</title>
<path fill="none" stroke="#191970" d="M1309.0873,-359.7112C1306.0377,-359.0413 1302.9676,-358.4503 1300,-358 939.3335,-303.2696 843.0763,-357.3743 480,-322 478.7348,-321.8767 477.4569,-321.7457 476.1696,-321.6077"/>
<polygon fill="#191970" stroke="#191970" points="476.5157,-318.1244 466.1747,-320.4297 475.6963,-325.0762 476.5157,-318.1244"/>
</g>
<!-- Node32 -->
<g id="node33" class="node">
<title>Node32</title>
<g id="a_node33"><a xlink:href="lapack__full__matrix__ext_8h_source.html" target="_top" xlink:title="lapack_full_matrix\l_ext.h">
<polygon fill="none" stroke="#000000" points="1290.5,-235.5 1290.5,-265.5 1385.5,-265.5 1385.5,-235.5 1290.5,-235.5"/>
<text text-anchor="start" x="1298.5" y="-253.5" font-family="Helvetica,sans-Serif" font-size="10.00" fill="#000000">lapack_full_matrix</text>
<text text-anchor="middle" x="1338" y="-242.5" font-family="Helvetica,sans-Serif" font-size="10.00" fill="#000000">_ext.h</text>
</a>
</g>
</g>
<!-- Node3&#45;&gt;Node32 -->
<g id="edge71" class="edge">
<title>Node3&#45;&gt;Node32</title>
<path fill="none" stroke="#191970" d="M1338,-358.3845C1338,-340.544 1338,-301.7839 1338,-275.9138"/>
<polygon fill="#191970" stroke="#191970" points="1341.5001,-275.7143 1338,-265.7143 1334.5001,-275.7143 1341.5001,-275.7143"/>
</g>
<!-- Node45 -->
<g id="node46" class="node">
<title>Node45</title>
<g id="a_node46"><a xlink:href="generic__functors_8h.html" target="_top" xlink:title="This header file contains a set of self&#45;defined generic functors. ">
<polygon fill="none" stroke="#000000" points="1792.5,-241 1792.5,-260 1889.5,-260 1889.5,-241 1792.5,-241"/>
<text text-anchor="middle" x="1841" y="-248" font-family="Helvetica,sans-Serif" font-size="10.00" fill="#000000">generic_functors.h</text>
</a>
</g>
</g>
<!-- Node3&#45;&gt;Node45 -->
<g id="edge67" class="edge">
<title>Node3&#45;&gt;Node45</title>
<path fill="none" stroke="#191970" d="M1366.6854,-364.636C1417.4166,-358.3808 1526.1002,-343.6034 1616,-322 1684.0301,-305.652 1761.3767,-279.3146 1805.3667,-263.5788"/>
<polygon fill="#191970" stroke="#191970" points="1806.7956,-266.7844 1815.0191,-260.1043 1804.4247,-260.1981 1806.7956,-266.7844"/>
</g>
<!-- Node46 -->
<g id="node47" class="node">
<title>Node46</title>
<g id="a_node47"><a xlink:href="rkmatrix_8h.html" target="_top" xlink:title="Definition of rank&#45;k matrix. ">
<polygon fill="none" stroke="#000000" points="1547,-302.5 1547,-321.5 1607,-321.5 1607,-302.5 1547,-302.5"/>
<text text-anchor="middle" x="1577" y="-309.5" font-family="Helvetica,sans-Serif" font-size="10.00" fill="#000000">rkmatrix.h</text>
</a>
</g>
</g>
<!-- Node3&#45;&gt;Node46 -->
<g id="edge72" class="edge">
<title>Node3&#45;&gt;Node46</title>
<path fill="none" stroke="#191970" d="M1366.829,-361.2451C1409.3676,-351.2779 1489.0926,-332.5976 1537.184,-321.3293"/>
<polygon fill="#191970" stroke="#191970" points="1538.0035,-324.7321 1546.9413,-319.043 1536.4065,-317.9167 1538.0035,-324.7321"/>
</g>
<!-- Node13 -->
<g id="node14" class="node">
<title>Node13</title>
<g id="a_node14"><a xlink:href="cluster_8h.html" target="_top" xlink:title="Implementation of the class Cluster. ">
<polygon fill="none" stroke="#000000" points="255,-118 255,-137 309,-137 309,-118 255,-118"/>
<text text-anchor="middle" x="282" y="-125" font-family="Helvetica,sans-Serif" font-size="10.00" fill="#000000">cluster.h</text>
</a>
</g>
</g>
<!-- Node12&#45;&gt;Node13 -->
<g id="edge14" class="edge">
<title>Node12&#45;&gt;Node13</title>
<path fill="none" stroke="#191970" d="M303.1952,-240.8484C299.4332,-220.7295 290.6878,-173.9608 285.6856,-147.2098"/>
<polygon fill="#191970" stroke="#191970" points="289.0749,-146.293 283.7964,-137.1068 282.1942,-147.5797 289.0749,-146.293"/>
</g>
<!-- Node21 -->
<g id="node22" class="node">
<title>Node21</title>
<g id="a_node22"><a xlink:href="cluster__tree_8h_source.html" target="_top" xlink:title="cluster_tree.h">
<polygon fill="none" stroke="#000000" points="310,-179.5 310,-198.5 386,-198.5 386,-179.5 310,-179.5"/>
<text text-anchor="middle" x="348" y="-186.5" font-family="Helvetica,sans-Serif" font-size="10.00" fill="#000000">cluster_tree.h</text>
</a>
</g>
</g>
<!-- Node12&#45;&gt;Node21 -->
<g id="edge26" class="edge">
<title>Node12&#45;&gt;Node21</title>
<path fill="none" stroke="#191970" d="M311.7188,-240.8906C317.993,-231.917 327.5223,-218.2879 335.2404,-207.2491"/>
<polygon fill="#191970" stroke="#191970" points="338.3247,-208.9459 341.1865,-198.7449 332.5879,-204.9348 338.3247,-208.9459"/>
</g>
<!-- Node13&#45;&gt;Node6 -->
<g id="edge16" class="edge">
<title>Node13&#45;&gt;Node6</title>
<path fill="none" stroke="#191970" d="M254.7187,-119.5859C217.3438,-108.7436 150.0567,-89.224 107.8324,-76.975"/>
<polygon fill="#191970" stroke="#191970" points="108.768,-73.6021 98.1888,-74.1774 106.8177,-80.325 108.768,-73.6021"/>
</g>
<!-- Node13&#45;&gt;Node11 -->
<g id="edge18" class="edge">
<title>Node13&#45;&gt;Node11</title>
<path fill="none" stroke="#191970" d="M300.1107,-117.9167C331.9856,-101.6126 400.6498,-68.9835 463,-56 583.2194,-30.9661 1478.568,-13.8256 1661.4391,-10.5651"/>
<polygon fill="#191970" stroke="#191970" points="1661.5713,-14.0634 1671.5077,-10.3868 1661.4473,-7.0645 1661.5713,-14.0634"/>
</g>
<!-- Node14 -->
<g id="node15" class="node">
<title>Node14</title>
<polygon fill="none" stroke="#bfbfbf" points="1752.5,-56.5 1752.5,-75.5 1855.5,-75.5 1855.5,-56.5 1752.5,-56.5"/>
<text text-anchor="middle" x="1804" y="-63.5" font-family="Helvetica,sans-Serif" font-size="10.00" fill="#000000">deal.II/base/types.h</text>
</g>
<!-- Node13&#45;&gt;Node14 -->
<g id="edge15" class="edge">
<title>Node13&#45;&gt;Node14</title>
<path fill="none" stroke="#191970" d="M301.6921,-117.9173C307.4598,-115.5401 313.8667,-113.3018 320,-112 390.4825,-97.0405 1470.2089,-73.1155 1742.1806,-67.3033"/>
<polygon fill="#191970" stroke="#191970" points="1742.3445,-70.8007 1752.2676,-67.0881 1742.1952,-63.8023 1742.3445,-70.8007"/>
</g>
<!-- Node15 -->
<g id="node16" class="node">
<title>Node15</title>
<polygon fill="none" stroke="#bfbfbf" points="116.5,-56.5 116.5,-75.5 163.5,-75.5 163.5,-56.5 116.5,-56.5"/>
<text text-anchor="middle" x="140" y="-63.5" font-family="Helvetica,sans-Serif" font-size="10.00" fill="#000000">iterator</text>
</g>
<!-- Node13&#45;&gt;Node15 -->
<g id="edge17" class="edge">
<title>Node13&#45;&gt;Node15</title>
<path fill="none" stroke="#191970" d="M259.8125,-117.8906C236.0533,-107.6005 198.1595,-91.1888 171.3575,-79.5809"/>
<polygon fill="#191970" stroke="#191970" points="172.5991,-76.3045 162.0317,-75.5419 169.817,-82.7279 172.5991,-76.3045"/>
</g>
<!-- Node16 -->
<g id="node17" class="node">
<title>Node16</title>
<g id="a_node17"><a xlink:href="simple__bounding__box_8h_source.html" target="_top" xlink:title="simple_bounding_box.h">
<polygon fill="none" stroke="#000000" points="220.5,-56.5 220.5,-75.5 339.5,-75.5 339.5,-56.5 220.5,-56.5"/>
<text text-anchor="middle" x="280" y="-63.5" font-family="Helvetica,sans-Serif" font-size="10.00" fill="#000000">simple_bounding_box.h</text>
</a>
</g>
</g>
<!-- Node13&#45;&gt;Node16 -->
<g id="edge19" class="edge">
<title>Node13&#45;&gt;Node16</title>
<path fill="none" stroke="#191970" d="M281.6875,-117.8906C281.4103,-109.3657 280.9964,-96.6392 280.6479,-85.9235"/>
<polygon fill="#191970" stroke="#191970" points="284.1402,-85.6258 280.3169,-75.7449 277.1439,-85.8534 284.1402,-85.6258"/>
</g>
<!-- Node16&#45;&gt;Node10 -->
<g id="edge24" class="edge">
<title>Node16&#45;&gt;Node10</title>
<path fill="none" stroke="#191970" d="M227.4632,-56.4398C181.7011,-47.8315 113.6728,-34.3571 55,-20 53.3541,-19.5973 51.6691,-19.1692 49.9711,-18.7255"/>
<polygon fill="#191970" stroke="#191970" points="50.8568,-15.3393 40.288,-16.0814 49.0128,-22.092 50.8568,-15.3393"/>
</g>
<!-- Node16&#45;&gt;Node11 -->
<g id="edge25" class="edge">
<title>Node16&#45;&gt;Node11</title>
<path fill="none" stroke="#191970" d="M339.5333,-60.0858C356.4728,-58.5656 374.9514,-57.0615 392,-56 897.4375,-24.53 1514.6932,-12.9208 1661.5555,-10.5041"/>
<polygon fill="#191970" stroke="#191970" points="1661.7465,-14.0015 1671.6884,-10.3397 1661.6329,-7.0024 1661.7465,-14.0015"/>
</g>
<!-- Node17 -->
<g id="node18" class="node">
<title>Node17</title>
<polygon fill="none" stroke="#bfbfbf" points="198,-.5 198,-19.5 298,-19.5 298,-.5 198,-.5"/>
<text text-anchor="middle" x="248" y="-7.5" font-family="Helvetica,sans-Serif" font-size="10.00" fill="#000000">deal.II/base/point.h</text>
</g>
<!-- Node16&#45;&gt;Node17 -->
<g id="edge20" class="edge">
<title>Node16&#45;&gt;Node17</title>
<path fill="none" stroke="#191970" d="M274.426,-56.2455C270.0669,-48.617 263.8789,-37.7881 258.5867,-28.5267"/>
<polygon fill="#191970" stroke="#191970" points="261.5104,-26.5886 253.5101,-19.6427 255.4327,-30.0616 261.5104,-26.5886"/>
</g>
<!-- Node18 -->
<g id="node19" class="node">
<title>Node18</title>
<polygon fill="none" stroke="#bfbfbf" points="437.5,-.5 437.5,-19.5 564.5,-19.5 564.5,-.5 437.5,-.5"/>
<text text-anchor="middle" x="501" y="-7.5" font-family="Helvetica,sans-Serif" font-size="10.00" fill="#000000">deal.II/dofs/dof_handler.h</text>
</g>
<!-- Node16&#45;&gt;Node18 -->
<g id="edge21" class="edge">
<title>Node16&#45;&gt;Node18</title>
<path fill="none" stroke="#191970" d="M317.7401,-56.4369C355.2448,-46.9335 412.8799,-32.3291 453.4824,-22.0407"/>
<polygon fill="#191970" stroke="#191970" points="454.5816,-25.3728 463.4155,-19.5237 452.8621,-18.5873 454.5816,-25.3728"/>
</g>
<!-- Node19 -->
<g id="node20" class="node">
<title>Node19</title>
<polygon fill="none" stroke="#bfbfbf" points="64,-.5 64,-19.5 180,-19.5 180,-.5 64,-.5"/>
<text text-anchor="middle" x="122" y="-7.5" font-family="Helvetica,sans-Serif" font-size="10.00" fill="#000000">deal.II/dofs/dof_tools.h</text>
</g>
<!-- Node16&#45;&gt;Node19 -->
<g id="edge22" class="edge">
<title>Node16&#45;&gt;Node19</title>
<path fill="none" stroke="#191970" d="M252.8388,-56.3733C226.7933,-47.1419 187.2884,-33.1402 158.5021,-22.9375"/>
<polygon fill="#191970" stroke="#191970" points="159.4015,-19.5429 148.8067,-19.5011 157.063,-26.1408 159.4015,-19.5429"/>
</g>
<!-- Node20 -->
<g id="node21" class="node">
<title>Node20</title>
<polygon fill="none" stroke="#bfbfbf" points="316.5,-.5 316.5,-19.5 419.5,-19.5 419.5,-.5 316.5,-.5"/>
<text text-anchor="middle" x="368" y="-7.5" font-family="Helvetica,sans-Serif" font-size="10.00" fill="#000000">deal.II/fe/mapping.h</text>
</g>
<!-- Node16&#45;&gt;Node20 -->
<g id="edge23" class="edge">
<title>Node16&#45;&gt;Node20</title>
<path fill="none" stroke="#191970" d="M295.3284,-56.2455C308.8303,-47.6534 328.7122,-35.0014 344.2686,-25.1018"/>
<polygon fill="#191970" stroke="#191970" points="346.2897,-27.9643 352.8472,-19.6427 342.5315,-22.0587 346.2897,-27.9643"/>
</g>
<!-- Node21&#45;&gt;Node13 -->
<g id="edge27" class="edge">
<title>Node21&#45;&gt;Node13</title>
<path fill="none" stroke="#191970" d="M337.6875,-179.3906C327.5758,-169.9683 311.9558,-155.4134 299.8293,-144.1137"/>
<polygon fill="#191970" stroke="#191970" points="302.1601,-141.5015 292.4579,-137.2449 297.388,-146.6228 302.1601,-141.5015"/>
</g>
<!-- Node22 -->
<g id="node23" class="node">
<title>Node22</title>
<g id="a_node23"><a xlink:href="debug__tools_8h.html" target="_top" xlink:title="This file includes a bunch of helper functions for printing out and visualizing information about gri...">
<polygon fill="none" stroke="#000000" points="329.5,-118 329.5,-137 406.5,-137 406.5,-118 329.5,-118"/>
<text text-anchor="middle" x="368" y="-125" font-family="Helvetica,sans-Serif" font-size="10.00" fill="#000000">debug_tools.h</text>
</a>
</g>
</g>
<!-- Node21&#45;&gt;Node22 -->
<g id="edge28" class="edge">
<title>Node21&#45;&gt;Node22</title>
<path fill="none" stroke="#191970" d="M351.125,-179.3906C353.9265,-170.776 358.1233,-157.8708 361.6306,-147.0858"/>
<polygon fill="#191970" stroke="#191970" points="365.0667,-147.8371 364.8309,-137.2449 358.4098,-145.6722 365.0667,-147.8371"/>
</g>
<!-- Node25 -->
<g id="node26" class="node">
<title>Node25</title>
<g id="a_node26"><a xlink:href="tree_8h.html" target="_top" xlink:title="Implementation of the classes for binary tree node, general tree node and functions for manipulating ...">
<polygon fill="none" stroke="#000000" points="463.5,-118 463.5,-137 504.5,-137 504.5,-118 463.5,-118"/>
<text text-anchor="middle" x="484" y="-125" font-family="Helvetica,sans-Serif" font-size="10.00" fill="#000000">tree.h</text>
</a>
</g>
</g>
<!-- Node21&#45;&gt;Node25 -->
<g id="edge36" class="edge">
<title>Node21&#45;&gt;Node25</title>
<path fill="none" stroke="#191970" d="M369.25,-179.3906C392.038,-169.0858 428.4022,-152.6416 454.078,-141.0309"/>
<polygon fill="#191970" stroke="#191970" points="455.675,-144.15 463.3445,-136.8405 452.7907,-137.7718 455.675,-144.15"/>
</g>
<!-- Node22&#45;&gt;Node2 -->
<g id="edge34" class="edge">
<title>Node22&#45;&gt;Node2</title>
<path fill="none" stroke="#191970" d="M406.7796,-119.2119C421.4969,-116.4094 438.4548,-113.5898 454,-112 1078.0603,-48.1789 1239.6869,-126.0785 1865,-76 1876.9938,-75.0395 1890.0176,-73.461 1901.7481,-71.8389"/>
<polygon fill="#191970" stroke="#191970" points="1902.2635,-75.3009 1911.6654,-70.4167 1901.2697,-68.3718 1902.2635,-75.3009"/>
</g>
<!-- Node22&#45;&gt;Node9 -->
<g id="edge35" class="edge">
<title>Node22&#45;&gt;Node9</title>
<path fill="none" stroke="#191970" d="M397.7927,-117.9429C405.3107,-115.7651 413.4053,-113.6189 421,-112 533.6502,-87.9867 567.8043,-102.0209 684.4509,-75.7135"/>
<polygon fill="#191970" stroke="#191970" points="685.5308,-79.0564 694.4877,-73.3975 683.9568,-72.2357 685.5308,-79.0564"/>
</g>
<!-- Node22&#45;&gt;Node18 -->
<g id="edge29" class="edge">
<title>Node22&#45;&gt;Node18</title>
<path fill="none" stroke="#191970" d="M378.8839,-117.8845C401.5832,-97.8306 454.2015,-51.3445 482.3858,-26.4449"/>
<polygon fill="#191970" stroke="#191970" points="484.7887,-28.9923 489.9657,-19.7484 480.1541,-23.7463 484.7887,-28.9923"/>
</g>
<!-- Node22&#45;&gt;Node19 -->
<g id="edge30" class="edge">
<title>Node22&#45;&gt;Node19</title>
<path fill="none" stroke="#191970" d="M337.0276,-117.9265C294.6168,-104.7277 222.4009,-81.8996 211,-76 184.4256,-62.2485 157.2873,-40.8419 140.0812,-26.1595"/>
<polygon fill="#191970" stroke="#191970" points="142.3231,-23.4708 132.4784,-19.5549 137.7324,-28.7553 142.3231,-23.4708"/>
</g>
<!-- Node22&#45;&gt;Node20 -->
<g id="edge33" class="edge">
<title>Node22&#45;&gt;Node20</title>
<path fill="none" stroke="#191970" d="M368,-117.8845C368,-98.6913 368,-55.286 368,-29.7663"/>
<polygon fill="#191970" stroke="#191970" points="371.5001,-29.7483 368,-19.7484 364.5001,-29.7484 371.5001,-29.7483"/>
</g>
<!-- Node23 -->
<g id="node24" class="node">
<title>Node23</title>
<polygon fill="none" stroke="#bfbfbf" points="472,-56.5 472,-75.5 546,-75.5 546,-56.5 472,-56.5"/>
<text text-anchor="middle" x="509" y="-63.5" font-family="Helvetica,sans-Serif" font-size="10.00" fill="#000000">deal.II/fe/fe.h</text>
</g>
<!-- Node22&#45;&gt;Node23 -->
<g id="edge31" class="edge">
<title>Node22&#45;&gt;Node23</title>
<path fill="none" stroke="#191970" d="M390.0313,-117.8906C413.6231,-107.6005 451.2501,-91.1888 477.8633,-79.5809"/>
<polygon fill="#191970" stroke="#191970" points="479.3567,-82.748 487.1235,-75.5419 476.5581,-76.3318 479.3567,-82.748"/>
</g>
<!-- Node24 -->
<g id="node25" class="node">
<title>Node24</title>
<polygon fill="none" stroke="#bfbfbf" points="564,-56.5 564,-75.5 676,-75.5 676,-56.5 564,-56.5"/>
<text text-anchor="middle" x="620" y="-63.5" font-family="Helvetica,sans-Serif" font-size="10.00" fill="#000000">deal.II/fe/fe_system.h</text>
</g>
<!-- Node22&#45;&gt;Node24 -->
<g id="edge32" class="edge">
<title>Node22&#45;&gt;Node24</title>
<path fill="none" stroke="#191970" d="M399.5865,-117.9403C406.6147,-115.9033 414.0439,-113.8195 421,-112 469.703,-99.2605 525.589,-86.5038 565.7129,-77.667"/>
<polygon fill="#191970" stroke="#191970" points="566.5423,-81.0683 575.5603,-75.5071 565.0426,-74.2308 566.5423,-81.0683"/>
</g>
<!-- Node25&#45;&gt;Node2 -->
<g id="edge42" class="edge">
<title>Node25&#45;&gt;Node2</title>
<path fill="none" stroke="#191970" d="M504.6436,-121.6811C518.0264,-118.1865 535.9029,-114.0351 552,-112 1131.1644,-38.7769 1283.1329,-123.1563 1865,-76 1876.9929,-75.0281 1890.0164,-73.4465 1901.747,-71.825"/>
<polygon fill="#191970" stroke="#191970" points="1902.2618,-75.2871 1911.6643,-70.4042 1901.269,-68.3578 1902.2618,-75.2871"/>
</g>
<!-- Node25&#45;&gt;Node6 -->
<g id="edge38" class="edge">
<title>Node25&#45;&gt;Node6</title>
<path fill="none" stroke="#191970" d="M463.2783,-122.2499C449.6344,-118.9406 431.3397,-114.7823 415,-112 282.3192,-89.4071 244.1158,-101.4521 108.1433,-75.9768"/>
<polygon fill="#191970" stroke="#191970" points="108.6604,-72.5124 98.1817,-74.0768 107.3488,-79.3885 108.6604,-72.5124"/>
</g>
<!-- Node25&#45;&gt;Node11 -->
<g id="edge44" class="edge">
<title>Node25&#45;&gt;Node11</title>
<path fill="none" stroke="#191970" d="M504.7348,-120.9647C515.7055,-117.7608 529.4656,-114.1403 542,-112 746.7646,-77.0363 808.407,-133.5644 1008,-76 1026.3378,-70.7112 1027.6458,-61.2316 1046,-56 1163.6824,-22.4562 1547.458,-12.7276 1661.6584,-10.542"/>
<polygon fill="#191970" stroke="#191970" points="1661.917,-14.0379 1671.8506,-10.3535 1661.7875,-7.0391 1661.917,-14.0379"/>
</g>
<!-- Node26 -->
<g id="node27" class="node">
<title>Node26</title>
<polygon fill="none" stroke="#bfbfbf" points="1055,-56.5 1055,-75.5 1181,-75.5 1181,-56.5 1055,-56.5"/>
<text text-anchor="middle" x="1118" y="-63.5" font-family="Helvetica,sans-Serif" font-size="10.00" fill="#000000">deal.II/base/exceptions.h</text>
</g>
<!-- Node25&#45;&gt;Node26 -->
<g id="edge37" class="edge">
<title>Node25&#45;&gt;Node26</title>
<path fill="none" stroke="#191970" d="M502.4652,-117.8908C507.6824,-115.5747 513.4525,-113.3745 519,-112 744.7257,-56.0723 809.5877,-98.9854 1041,-76 1042.1067,-75.8901 1043.222,-75.7769 1044.3443,-75.6607"/>
<polygon fill="#191970" stroke="#191970" points="1045.0242,-79.1073 1054.5857,-74.5434 1044.265,-72.1486 1045.0242,-79.1073"/>
</g>
<!-- Node27 -->
<g id="node28" class="node">
<title>Node27</title>
<polygon fill="none" stroke="#bfbfbf" points="961,-56.5 961,-75.5 999,-75.5 999,-56.5 961,-56.5"/>
<text text-anchor="middle" x="980" y="-63.5" font-family="Helvetica,sans-Serif" font-size="10.00" fill="#000000">array</text>
</g>
<!-- Node25&#45;&gt;Node27 -->
<g id="edge39" class="edge">
<title>Node25&#45;&gt;Node27</title>
<path fill="none" stroke="#191970" d="M502.4784,-117.9432C507.6956,-115.6273 513.4625,-113.4141 519,-112 705.6751,-64.3301 762.4713,-115.7107 951,-76 951.101,-75.9787 951.2021,-75.9572 951.3033,-75.9354"/>
<polygon fill="#191970" stroke="#191970" points="952.1078,-79.3437 960.8455,-73.352 950.2784,-72.587 952.1078,-79.3437"/>
</g>
<!-- Node28 -->
<g id="node29" class="node">
<title>Node28</title>
<polygon fill="none" stroke="#bfbfbf" points="753.5,-56.5 753.5,-75.5 812.5,-75.5 812.5,-56.5 753.5,-56.5"/>
<text text-anchor="middle" x="783" y="-63.5" font-family="Helvetica,sans-Serif" font-size="10.00" fill="#000000">exception</text>
</g>
<!-- Node25&#45;&gt;Node28 -->
<g id="edge40" class="edge">
<title>Node25&#45;&gt;Node28</title>
<path fill="none" stroke="#191970" d="M503.2856,-117.8957C508.3059,-115.6928 513.7747,-113.5466 519,-112 613.0727,-84.1551 642.9822,-95.8059 743.321,-75.9505"/>
<polygon fill="#191970" stroke="#191970" points="744.1546,-79.3527 753.2555,-73.9283 742.7583,-72.4933 744.1546,-79.3527"/>
</g>
<!-- Node29 -->
<g id="node30" class="node">
<title>Node29</title>
<polygon fill="none" stroke="#bfbfbf" points="830.5,-56.5 830.5,-75.5 889.5,-75.5 889.5,-56.5 830.5,-56.5"/>
<text text-anchor="middle" x="860" y="-63.5" font-family="Helvetica,sans-Serif" font-size="10.00" fill="#000000">functional</text>
</g>
<!-- Node25&#45;&gt;Node29 -->
<g id="edge41" class="edge">
<title>Node25&#45;&gt;Node29</title>
<path fill="none" stroke="#191970" d="M502.8776,-117.9115C507.9978,-115.6535 513.6166,-113.477 519,-112 646.1728,-77.1088 686.1818,-99.6757 820.0506,-75.9243"/>
<polygon fill="#191970" stroke="#191970" points="821.0734,-79.2953 830.28,-74.0525 819.8134,-72.4097 821.0734,-79.2953"/>
</g>
<!-- Node30 -->
<g id="node31" class="node">
<title>Node30</title>
<polygon fill="none" stroke="#bfbfbf" points="907.5,-56.5 907.5,-75.5 942.5,-75.5 942.5,-56.5 907.5,-56.5"/>
<text text-anchor="middle" x="925" y="-63.5" font-family="Helvetica,sans-Serif" font-size="10.00" fill="#000000">new</text>
</g>
<!-- Node25&#45;&gt;Node30 -->
<g id="edge43" class="edge">
<title>Node25&#45;&gt;Node30</title>
<path fill="none" stroke="#191970" d="M502.4893,-117.9855C507.7066,-115.6698 513.4708,-113.4461 519,-112 679.4998,-70.0245 731.0409,-111.9959 897.4013,-75.5097"/>
<polygon fill="#191970" stroke="#191970" points="898.4976,-78.8504 907.4816,-73.2346 896.9564,-72.0222 898.4976,-78.8504"/>
</g>
<!-- Node31&#45;&gt;Node12 -->
<g id="edge46" class="edge">
<title>Node31&#45;&gt;Node12</title>
<path fill="none" stroke="#191970" d="M396.9688,-302.3906C379.211,-292.3713 351.167,-276.5483 330.7118,-265.0071"/>
<polygon fill="#191970" stroke="#191970" points="332.3409,-261.9077 321.9117,-260.0419 328.9011,-268.0042 332.3409,-261.9077"/>
</g>
<!-- Node31&#45;&gt;Node21 -->
<g id="edge47" class="edge">
<title>Node31&#45;&gt;Node21</title>
<path fill="none" stroke="#191970" d="M408.8211,-302.3484C397.881,-281.9601 372.2554,-234.2033 358.0051,-207.6459"/>
<polygon fill="#191970" stroke="#191970" points="360.9671,-205.7635 353.1549,-198.6068 354.799,-209.0733 360.9671,-205.7635"/>
</g>
<!-- Node31&#45;&gt;Node22 -->
<g id="edge48" class="edge">
<title>Node31&#45;&gt;Node22</title>
<path fill="none" stroke="#191970" d="M413.741,-302.3987C412.9041,-280.1605 409.4085,-223.6137 395,-179 391.2769,-167.472 385.1116,-155.4356 379.6117,-145.9004"/>
<polygon fill="#191970" stroke="#191970" points="382.6002,-144.0784 374.4487,-137.3104 376.6005,-147.6845 382.6002,-144.0784"/>
</g>
<!-- Node31&#45;&gt;Node25 -->
<g id="edge66" class="edge">
<title>Node31&#45;&gt;Node25</title>
<path fill="none" stroke="#191970" d="M417.6649,-302.3402C428.7217,-273.1978 461.8949,-185.7626 476.7124,-146.708"/>
<polygon fill="#191970" stroke="#191970" points="480.0964,-147.6554 480.3713,-137.0641 473.5516,-145.1722 480.0964,-147.6554"/>
</g>
<!-- Node31&#45;&gt;Node32 -->
<g id="edge49" class="edge">
<title>Node31&#45;&gt;Node32</title>
<path fill="none" stroke="#191970" d="M466.3257,-308.5173C627.0268,-297.8213 1112.6697,-265.4976 1280.337,-254.338"/>
<polygon fill="#191970" stroke="#191970" points="1280.6989,-257.8217 1290.4443,-253.6652 1280.234,-250.8372 1280.6989,-257.8217"/>
</g>
<!-- Node32&#45;&gt;Node8 -->
<g id="edge51" class="edge">
<title>Node32&#45;&gt;Node8</title>
<path fill="none" stroke="#191970" d="M1373.2264,-235.4554C1398.4344,-224.6895 1431.8633,-210.4126 1454.9769,-200.5411"/>
<polygon fill="#191970" stroke="#191970" points="1456.3755,-203.7497 1464.1972,-196.6033 1453.6261,-197.3122 1456.3755,-203.7497"/>
</g>
<!-- Node32&#45;&gt;Node11 -->
<g id="edge52" class="edge">
<title>Node32&#45;&gt;Node11</title>
<path fill="none" stroke="#191970" d="M1357.6683,-235.311C1380.1583,-218.7515 1418.7007,-192.7782 1456,-179 1548.5285,-144.8204 1605.9885,-213.4783 1675,-143 1704.5331,-112.8392 1701.8055,-58.8536 1697.6703,-29.8018"/>
<polygon fill="#191970" stroke="#191970" points="1701.0816,-28.9729 1696.0213,-19.6646 1694.1724,-30.0969 1701.0816,-28.9729"/>
</g>
<!-- Node33 -->
<g id="node34" class="node">
<title>Node33</title>
<polygon fill="none" stroke="#bfbfbf" points="1318,-179.5 1318,-198.5 1358,-198.5 1358,-179.5 1318,-179.5"/>
<text text-anchor="middle" x="1338" y="-186.5" font-family="Helvetica,sans-Serif" font-size="10.00" fill="#000000">limits</text>
</g>
<!-- Node32&#45;&gt;Node33 -->
<g id="edge50" class="edge">
<title>Node32&#45;&gt;Node33</title>
<path fill="none" stroke="#191970" d="M1338,-235.2977C1338,-227.3834 1338,-217.6043 1338,-209.0759"/>
<polygon fill="#191970" stroke="#191970" points="1341.5001,-208.8469 1338,-198.8469 1334.5001,-208.847 1341.5001,-208.8469"/>
</g>
<!-- Node34 -->
<g id="node35" class="node">
<title>Node34</title>
<g id="a_node35"><a xlink:href="general__exceptions_8h.html" target="_top" xlink:title="Definition of self&#45;defined general exceptions. ">
<polygon fill="none" stroke="#000000" points="798.5,-179.5 798.5,-198.5 907.5,-198.5 907.5,-179.5 798.5,-179.5"/>
<text text-anchor="middle" x="853" y="-186.5" font-family="Helvetica,sans-Serif" font-size="10.00" fill="#000000">general_exceptions.h</text>
</a>
</g>
</g>
<!-- Node32&#45;&gt;Node34 -->
<g id="edge53" class="edge">
<title>Node32&#45;&gt;Node34</title>
<path fill="none" stroke="#191970" d="M1290.169,-244.4348C1202.6911,-233.3423 1016.8449,-209.7762 917.9965,-197.2418"/>
<polygon fill="#191970" stroke="#191970" points="918.1979,-193.7394 907.837,-195.9536 917.3173,-200.6838 918.1979,-193.7394"/>
</g>
<!-- Node35 -->
<g id="node36" class="node">
<title>Node35</title>
<g id="a_node36"><a xlink:href="lapack__helpers_8h.html" target="_top" xlink:title="Exposes LAPACK helper functions defined in lapack_full_matrix.cc and define new ones by following the...">
<polygon fill="none" stroke="#000000" points="1205,-179.5 1205,-198.5 1295,-198.5 1295,-179.5 1205,-179.5"/>
<text text-anchor="middle" x="1250" y="-186.5" font-family="Helvetica,sans-Serif" font-size="10.00" fill="#000000">lapack_helpers.h</text>
</a>
</g>
</g>
<!-- Node32&#45;&gt;Node35 -->
<g id="edge55" class="edge">
<title>Node32&#45;&gt;Node35</title>
<path fill="none" stroke="#191970" d="M1316.2472,-235.2977C1302.8032,-225.9022 1285.5989,-213.8787 1272.0922,-204.4395"/>
<polygon fill="#191970" stroke="#191970" points="1274.0288,-201.5228 1263.8271,-198.6633 1270.0189,-207.2605 1274.0288,-201.5228"/>
</g>
<!-- Node34&#45;&gt;Node26 -->
<g id="edge54" class="edge">
<title>Node34&#45;&gt;Node26</title>
<path fill="none" stroke="#191970" d="M798.3879,-184.4785C716.0053,-177.0981 567.8214,-161.423 552,-143 543.0236,-132.5476 542.6221,-122.0937 552,-112 589.0823,-72.0874 986.799,-81.5104 1041,-76 1042.1064,-75.8875 1043.2215,-75.7719 1044.3435,-75.6535"/>
<polygon fill="#191970" stroke="#191970" points="1045.0291,-79.099 1054.5833,-74.5201 1044.2589,-72.1415 1045.0291,-79.099"/>
</g>
<!-- Node35&#45;&gt;Node5 -->
<g id="edge59" class="edge">
<title>Node35&#45;&gt;Node5</title>
<path fill="none" stroke="#191970" d="M1271.7188,-179.3906C1294.874,-169.1457 1331.7441,-152.8326 1357.9591,-141.2339"/>
<polygon fill="#191970" stroke="#191970" points="1359.705,-144.2888 1367.4338,-137.0419 1356.8727,-137.8874 1359.705,-144.2888"/>
</g>
<!-- Node36 -->
<g id="node37" class="node">
<title>Node36</title>
<polygon fill="none" stroke="#bfbfbf" points="907,-118 907,-137 1023,-137 1023,-118 907,-118"/>
<text text-anchor="middle" x="965" y="-125" font-family="Helvetica,sans-Serif" font-size="10.00" fill="#000000">deal.II/base/numbers.h</text>
</g>
<!-- Node35&#45;&gt;Node36 -->
<g id="edge56" class="edge">
<title>Node35&#45;&gt;Node36</title>
<path fill="none" stroke="#191970" d="M1204.8533,-179.7398C1160.7282,-170.6263 1091.6735,-156.1971 1032,-143 1026.6813,-141.8237 1021.1302,-140.5744 1015.5986,-139.3154"/>
<polygon fill="#191970" stroke="#191970" points="1016.2461,-135.8732 1005.7171,-137.0526 1014.6835,-142.6966 1016.2461,-135.8732"/>
</g>
<!-- Node37 -->
<g id="node38" class="node">
<title>Node37</title>
<polygon fill="none" stroke="#bfbfbf" points="1041,-112.5 1041,-142.5 1169,-142.5 1169,-112.5 1041,-112.5"/>
<text text-anchor="start" x="1049" y="-130.5" font-family="Helvetica,sans-Serif" font-size="10.00" fill="#000000">deal.II/lac/blas_extension</text>
<text text-anchor="middle" x="1105" y="-119.5" font-family="Helvetica,sans-Serif" font-size="10.00" fill="#000000">_templates.h</text>
</g>
<!-- Node35&#45;&gt;Node37 -->
<g id="edge57" class="edge">
<title>Node35&#45;&gt;Node37</title>
<path fill="none" stroke="#191970" d="M1227.3438,-179.3906C1206.7204,-170.6435 1175.6677,-157.4728 1150.0082,-146.5897"/>
<polygon fill="#191970" stroke="#191970" points="1151.0438,-143.2272 1140.471,-142.5446 1148.3105,-149.6715 1151.0438,-143.2272"/>
</g>
<!-- Node38 -->
<g id="node39" class="node">
<title>Node38</title>
<polygon fill="none" stroke="#bfbfbf" points="1187,-118 1187,-137 1313,-137 1313,-118 1187,-118"/>
<text text-anchor="middle" x="1250" y="-125" font-family="Helvetica,sans-Serif" font-size="10.00" fill="#000000">deal.II/lac/block_vector.h</text>
</g>
<!-- Node35&#45;&gt;Node38 -->
<g id="edge58" class="edge">
<title>Node35&#45;&gt;Node38</title>
<path fill="none" stroke="#191970" d="M1250,-179.3906C1250,-170.8657 1250,-158.1392 1250,-147.4235"/>
<polygon fill="#191970" stroke="#191970" points="1253.5001,-147.2448 1250,-137.2449 1246.5001,-147.2449 1253.5001,-147.2448"/>
</g>
<!-- Node39 -->
<g id="node40" class="node">
<title>Node39</title>
<polygon fill="none" stroke="#bfbfbf" points="1574.5,-112.5 1574.5,-142.5 1665.5,-142.5 1665.5,-112.5 1574.5,-112.5"/>
<text text-anchor="start" x="1582.5" y="-130.5" font-family="Helvetica,sans-Serif" font-size="10.00" fill="#000000">deal.II/lac/lapack</text>
<text text-anchor="middle" x="1620" y="-119.5" font-family="Helvetica,sans-Serif" font-size="10.00" fill="#000000">_full_matrix.h</text>
</g>
<!-- Node35&#45;&gt;Node39 -->
<g id="edge60" class="edge">
<title>Node35&#45;&gt;Node39</title>
<path fill="none" stroke="#191970" d="M1295.0763,-181.223C1299.7751,-180.4533 1304.4825,-179.6991 1309,-179 1419.7527,-161.8608 1451.403,-166.6706 1564.3603,-143.1883"/>
<polygon fill="#191970" stroke="#191970" points="1565.3852,-146.5493 1574.4482,-141.0618 1563.9413,-139.6998 1565.3852,-146.5493"/>
</g>
<!-- Node40 -->
<g id="node41" class="node">
<title>Node40</title>
<polygon fill="none" stroke="#bfbfbf" points="1722.5,-112.5 1722.5,-142.5 1813.5,-142.5 1813.5,-112.5 1722.5,-112.5"/>
<text text-anchor="start" x="1730.5" y="-130.5" font-family="Helvetica,sans-Serif" font-size="10.00" fill="#000000">deal.II/lac/lapack</text>
<text text-anchor="middle" x="1768" y="-119.5" font-family="Helvetica,sans-Serif" font-size="10.00" fill="#000000">_support.h</text>
</g>
<!-- Node35&#45;&gt;Node40 -->
<g id="edge61" class="edge">
<title>Node35&#45;&gt;Node40</title>
<path fill="none" stroke="#191970" d="M1295.0487,-181.0316C1299.7528,-180.2992 1304.4691,-179.606 1309,-179 1471.0088,-157.3297 1512.9616,-164.4477 1675,-143 1687.0435,-141.4059 1699.9206,-139.4333 1712.1356,-137.4357"/>
<polygon fill="#191970" stroke="#191970" points="1712.918,-140.8537 1722.2077,-135.7595 1711.7688,-133.9487 1712.918,-140.8537"/>
</g>
<!-- Node41 -->
<g id="node42" class="node">
<title>Node41</title>
<polygon fill="none" stroke="#bfbfbf" points="1465.5,-112.5 1465.5,-142.5 1556.5,-142.5 1556.5,-112.5 1465.5,-112.5"/>
<text text-anchor="start" x="1473.5" y="-130.5" font-family="Helvetica,sans-Serif" font-size="10.00" fill="#000000">deal.II/lac/lapack</text>
<text text-anchor="middle" x="1511" y="-119.5" font-family="Helvetica,sans-Serif" font-size="10.00" fill="#000000">_templates.h</text>
</g>
<!-- Node35&#45;&gt;Node41 -->
<g id="edge62" class="edge">
<title>Node35&#45;&gt;Node41</title>
<path fill="none" stroke="#191970" d="M1295.1765,-179.6593C1334.901,-171.278 1394.4942,-158.2997 1455.6136,-143.0213"/>
<polygon fill="#191970" stroke="#191970" points="1456.59,-146.3848 1465.4332,-140.5498 1454.8814,-139.5965 1456.59,-146.3848"/>
</g>
<!-- Node42 -->
<g id="node43" class="node">
<title>Node42</title>
<polygon fill="none" stroke="#bfbfbf" points="561,-112.5 561,-142.5 653,-142.5 653,-112.5 561,-112.5"/>
<text text-anchor="start" x="569" y="-130.5" font-family="Helvetica,sans-Serif" font-size="10.00" fill="#000000">deal.II/lac/sparse</text>
<text text-anchor="middle" x="607" y="-119.5" font-family="Helvetica,sans-Serif" font-size="10.00" fill="#000000">_matrix.h</text>
</g>
<!-- Node35&#45;&gt;Node42 -->
<g id="edge63" class="edge">
<title>Node35&#45;&gt;Node42</title>
<path fill="none" stroke="#191970" d="M1204.9921,-188.4851C1107.6203,-186.727 870.1682,-178.9658 663.2038,-142.9811"/>
<polygon fill="#191970" stroke="#191970" points="663.5168,-139.4823 653.0606,-141.1903 662.2997,-146.3757 663.5168,-139.4823"/>
</g>
<!-- Node43 -->
<g id="node44" class="node">
<title>Node43</title>
<polygon fill="none" stroke="#bfbfbf" points="671.5,-118 671.5,-137 772.5,-137 772.5,-118 671.5,-118"/>
<text text-anchor="middle" x="722" y="-125" font-family="Helvetica,sans-Serif" font-size="10.00" fill="#000000">deal.II/lac/utilities.h</text>
</g>
<!-- Node35&#45;&gt;Node43 -->
<g id="edge64" class="edge">
<title>Node35&#45;&gt;Node43</title>
<path fill="none" stroke="#191970" d="M1204.8331,-186.8892C1120.9702,-182.4555 935.744,-170.2453 782,-143 776.5046,-142.0261 770.7726,-140.8105 765.1256,-139.4911"/>
<polygon fill="#191970" stroke="#191970" points="765.6685,-136.0204 755.1222,-137.0338 763.9985,-142.8184 765.6685,-136.0204"/>
</g>
<!-- Node44 -->
<g id="node45" class="node">
<title>Node44</title>
<polygon fill="none" stroke="#bfbfbf" points="791,-118 791,-137 889,-137 889,-118 791,-118"/>
<text text-anchor="middle" x="840" y="-125" font-family="Helvetica,sans-Serif" font-size="10.00" fill="#000000">deal.II/lac/vector.h</text>
</g>
<!-- Node35&#45;&gt;Node44 -->
<g id="edge65" class="edge">
<title>Node35&#45;&gt;Node44</title>
<path fill="none" stroke="#191970" d="M1204.9305,-183.8579C1123.7005,-174.4658 955.8112,-154.4509 898,-143 892.9534,-142.0004 887.6967,-140.8101 882.4985,-139.5397"/>
<polygon fill="#191970" stroke="#191970" points="883.1996,-136.1065 872.6448,-137.0271 881.47,-142.8895 883.1996,-136.1065"/>
</g>
<!-- Node45&#45;&gt;Node8 -->
<g id="edge69" class="edge">
<title>Node45&#45;&gt;Node8</title>
<path fill="none" stroke="#191970" d="M1792.21,-242.1418C1715.7085,-229.0364 1570.0236,-204.0793 1509.4644,-193.7049"/>
<polygon fill="#191970" stroke="#191970" points="1509.9577,-190.2385 1499.5103,-191.9997 1508.7757,-197.138 1509.9577,-190.2385"/>
</g>
<!-- Node45&#45;&gt;Node11 -->
<g id="edge70" class="edge">
<title>Node45&#45;&gt;Node11</title>
<path fill="none" stroke="#191970" d="M1849.732,-240.7158C1857.8188,-230.9452 1869.2838,-215.1016 1874,-199 1891.9003,-137.8863 1907.2271,-103.6674 1865,-56 1846.7407,-35.3883 1770.303,-21.0985 1726.0497,-14.3758"/>
<polygon fill="#191970" stroke="#191970" points="1726.4771,-10.9011 1716.0737,-12.9055 1725.4564,-17.8263 1726.4771,-10.9011"/>
</g>
<!-- Node45&#45;&gt;Node14 -->
<g id="edge68" class="edge">
<title>Node45&#45;&gt;Node14</title>
<path fill="none" stroke="#191970" d="M1845.2557,-240.9049C1854.9182,-217.6239 1876.1665,-156.7642 1856,-112 1850.4303,-99.6369 1839.7137,-89.2563 1829.4494,-81.5033"/>
<polygon fill="#191970" stroke="#191970" points="1831.2549,-78.4948 1821.0567,-75.623 1827.2382,-84.2277 1831.2549,-78.4948"/>
</g>
<!-- Node46&#45;&gt;Node5 -->
<g id="edge74" class="edge">
<title>Node46&#45;&gt;Node5</title>
<path fill="none" stroke="#191970" d="M1574.5062,-302.2388C1567.8801,-278.1342 1547.6448,-215.1301 1509,-179 1489.3655,-160.6431 1462.1786,-148.2432 1438.6463,-140.22"/>
<polygon fill="#191970" stroke="#191970" points="1439.4092,-136.7884 1428.8174,-137.0448 1437.2573,-143.4495 1439.4092,-136.7884"/>
</g>
<!-- Node46&#45;&gt;Node8 -->
<g id="edge78" class="edge">
<title>Node46&#45;&gt;Node8</title>
<path fill="none" stroke="#191970" d="M1563.9159,-302.4581C1552.668,-293.8109 1536.4904,-280.2696 1525,-266 1510.5056,-247.9998 1498.155,-224.4581 1490.4589,-208.1668"/>
<polygon fill="#191970" stroke="#191970" points="1493.4424,-206.2752 1486.0978,-198.6392 1487.0774,-209.1886 1493.4424,-206.2752"/>
</g>
<!-- Node46&#45;&gt;Node11 -->
<g id="edge79" class="edge">
<title>Node46&#45;&gt;Node11</title>
<path fill="none" stroke="#191970" d="M1607.1579,-311.4487C1678.3002,-309.5697 1853.9902,-301.3739 1899,-266 1970.5082,-209.8006 1957.8008,-165.3084 1975,-76 1976.681,-67.2715 1980.7553,-62.7741 1975,-56 1959.0166,-37.1874 1796.902,-19.7272 1726.427,-12.9622"/>
<polygon fill="#191970" stroke="#191970" points="1726.6157,-9.4645 1716.3302,-12.0061 1725.9557,-16.4333 1726.6157,-9.4645"/>
</g>
<!-- Node46&#45;&gt;Node14 -->
<g id="edge73" class="edge">
<title>Node46&#45;&gt;Node14</title>
<path fill="none" stroke="#191970" d="M1606.5467,-302.372C1661.4569,-282.6571 1777.7536,-231.8922 1823,-143 1832.4655,-124.4039 1824.0658,-100.8409 1815.6356,-84.7085"/>
<polygon fill="#191970" stroke="#191970" points="1818.5223,-82.7038 1810.5421,-75.7348 1812.4346,-86.1593 1818.5223,-82.7038"/>
</g>
<!-- Node46&#45;&gt;Node32 -->
<g id="edge80" class="edge">
<title>Node46&#45;&gt;Node32</title>
<path fill="none" stroke="#191970" d="M1546.7305,-304.211C1508.8531,-294.4643 1443.188,-277.5672 1395.6062,-265.3234"/>
<polygon fill="#191970" stroke="#191970" points="1396.3005,-261.8881 1385.7438,-262.7855 1394.5561,-268.6672 1396.3005,-261.8881"/>
</g>
<!-- Node46&#45;&gt;Node39 -->
<g id="edge75" class="edge">
<title>Node46&#45;&gt;Node39</title>
<path fill="none" stroke="#191970" d="M1580.2596,-302.2011C1583.2751,-292.9368 1587.7665,-278.6147 1591,-266 1601.07,-226.7141 1610.2121,-180.5009 1615.4354,-152.6319"/>
<polygon fill="#191970" stroke="#191970" points="1618.9207,-153.0328 1617.3014,-142.5624 1612.0378,-151.7573 1618.9207,-153.0328"/>
</g>
<!-- Node46&#45;&gt;Node40 -->
<g id="edge76" class="edge">
<title>Node46&#45;&gt;Node40</title>
<path fill="none" stroke="#191970" d="M1587.0001,-302.3402C1616.4098,-273.9314 1703.1658,-190.1278 1744.9685,-149.7477"/>
<polygon fill="#191970" stroke="#191970" points="1747.4661,-152.2013 1752.2269,-142.7363 1742.6028,-147.1666 1747.4661,-152.2013"/>
</g>
<!-- Node46&#45;&gt;Node41 -->
<g id="edge77" class="edge">
<title>Node46&#45;&gt;Node41</title>
<path fill="none" stroke="#191970" d="M1576.8919,-302.4903C1576.3025,-279.9721 1572.8154,-222.0546 1553,-179 1548.248,-168.675 1540.9336,-158.6699 1533.7326,-150.2676"/>
<polygon fill="#191970" stroke="#191970" points="1536.2462,-147.8286 1526.9507,-142.7448 1531.047,-152.5157 1536.2462,-147.8286"/>
</g>
</g>
</svg>
