<?xml version="1.0" encoding="UTF-8" standalone="no"?>
<!DOCTYPE svg PUBLIC "-//W3C//DTD SVG 1.1//EN"
 "http://www.w3.org/Graphics/SVG/1.1/DTD/svg11.dtd">
<!-- Generated by graphviz version 2.40.1 (20161225.0304)
 -->
<!-- Title: /home/jihuan/Projects/deal.ii/program/dealii&#45;9.1.1/examples/laplace&#45;bem/tests/hmatrix&#45;rkmatrix&#45;conversion/hmatrix&#45;rkmatrix&#45;conversion.cc Pages: 1 -->
<svg width="2148pt" height="497pt"
 viewBox="0.00 0.00 2148.00 497.00" xmlns="http://www.w3.org/2000/svg" xmlns:xlink="http://www.w3.org/1999/xlink">
<g id="graph0" class="graph" transform="scale(1 1) rotate(0) translate(4 493)">
<title>/home/jihuan/Projects/deal.ii/program/dealii&#45;9.1.1/examples/laplace&#45;bem/tests/hmatrix&#45;rkmatrix&#45;conversion/hmatrix&#45;rkmatrix&#45;conversion.cc</title>
<!-- Node0 -->
<g id="node1" class="node">
<title>Node0</title>
<polygon fill="#bfbfbf" stroke="#000000" points="487,-414.5 487,-488.5 627,-488.5 627,-414.5 487,-414.5"/>
<text text-anchor="start" x="495" y="-476.5" font-family="Helvetica,sans-Serif" font-size="10.00" fill="#000000">/home/jihuan/Projects</text>
<text text-anchor="start" x="495" y="-465.5" font-family="Helvetica,sans-Serif" font-size="10.00" fill="#000000">/deal.ii/program/dealii</text>
<text text-anchor="start" x="495" y="-454.5" font-family="Helvetica,sans-Serif" font-size="10.00" fill="#000000">&#45;9.1.1/examples/laplace</text>
<text text-anchor="start" x="495" y="-443.5" font-family="Helvetica,sans-Serif" font-size="10.00" fill="#000000">&#45;bem/tests/hmatrix&#45;rkmatrix</text>
<text text-anchor="start" x="495" y="-432.5" font-family="Helvetica,sans-Serif" font-size="10.00" fill="#000000">&#45;conversion/hmatrix&#45;rkmatrix</text>
<text text-anchor="middle" x="557" y="-421.5" font-family="Helvetica,sans-Serif" font-size="10.00" fill="#000000">&#45;conversion.cc</text>
</g>
<!-- Node1 -->
<g id="node2" class="node">
<title>Node1</title>
<polygon fill="none" stroke="#bfbfbf" points="274,-302.5 274,-321.5 324,-321.5 324,-302.5 274,-302.5"/>
<text text-anchor="middle" x="299" y="-309.5" font-family="Helvetica,sans-Serif" font-size="10.00" fill="#000000">fstream</text>
</g>
<!-- Node0&#45;&gt;Node1 -->
<g id="edge1" class="edge">
<title>Node0&#45;&gt;Node1</title>
<path fill="none" stroke="#191970" d="M488.5381,-414.4828C435.1408,-385.611 363.8463,-347.0623 325.7217,-326.4483"/>
<polygon fill="#191970" stroke="#191970" points="327.2359,-323.2883 316.7747,-321.6107 323.9065,-329.4458 327.2359,-323.2883"/>
</g>
<!-- Node2 -->
<g id="node3" class="node">
<title>Node2</title>
<polygon fill="none" stroke="#bfbfbf" points="418,-56.5 418,-75.5 472,-75.5 472,-56.5 418,-56.5"/>
<text text-anchor="middle" x="445" y="-63.5" font-family="Helvetica,sans-Serif" font-size="10.00" fill="#000000">iostream</text>
</g>
<!-- Node0&#45;&gt;Node2 -->
<g id="edge2" class="edge">
<title>Node0&#45;&gt;Node2</title>
<path fill="none" stroke="#191970" d="M486.9996,-442.5315C417.0511,-429.4089 313.1849,-397.6597 265,-322 234.2494,-273.7155 376.0874,-131.4621 427.2171,-82.6574"/>
<polygon fill="#191970" stroke="#191970" points="429.754,-85.0752 434.6039,-75.6556 424.9384,-79.9948 429.754,-85.0752"/>
</g>
<!-- Node3 -->
<g id="node4" class="node">
<title>Node3</title>
<g id="a_node4"><a xlink:href="hmatrix_8h.html" target="_top" xlink:title="Definition of hierarchical matrix. ">
<polygon fill="none" stroke="#000000" points="615.5,-358.5 615.5,-377.5 672.5,-377.5 672.5,-358.5 615.5,-358.5"/>
<text text-anchor="middle" x="644" y="-365.5" font-family="Helvetica,sans-Serif" font-size="10.00" fill="#000000">hmatrix.h</text>
</a>
</g>
</g>
<!-- Node0&#45;&gt;Node3 -->
<g id="edge3" class="edge">
<title>Node0&#45;&gt;Node3</title>
<path fill="none" stroke="#191970" d="M595.6661,-414.3894C606.3677,-404.1183 617.4645,-393.468 626.3224,-384.9665"/>
<polygon fill="#191970" stroke="#191970" points="628.9609,-387.2853 633.7521,-377.8356 624.1138,-382.235 628.9609,-387.2853"/>
</g>
<!-- Node45 -->
<g id="node46" class="node">
<title>Node45</title>
<g id="a_node46"><a xlink:href="rkmatrix_8h.html" target="_top" xlink:title="Definition of rank&#45;k matrix. ">
<polygon fill="none" stroke="#000000" points="1778,-302.5 1778,-321.5 1838,-321.5 1838,-302.5 1778,-302.5"/>
<text text-anchor="middle" x="1808" y="-309.5" font-family="Helvetica,sans-Serif" font-size="10.00" fill="#000000">rkmatrix.h</text>
</a>
</g>
</g>
<!-- Node0&#45;&gt;Node45 -->
<g id="edge81" class="edge">
<title>Node0&#45;&gt;Node45</title>
<path fill="none" stroke="#191970" d="M627.1855,-447.5605C812.6765,-436.3888 1331.0512,-400.237 1767.8817,-321.9844"/>
<polygon fill="#191970" stroke="#191970" points="1768.6401,-325.4042 1777.8612,-320.1867 1767.3991,-318.515 1768.6401,-325.4042"/>
</g>
<!-- Node3&#45;&gt;Node1 -->
<g id="edge7" class="edge">
<title>Node3&#45;&gt;Node1</title>
<path fill="none" stroke="#191970" d="M615.1415,-364.6568C560.6689,-358.1263 439.0878,-342.5027 338,-322 336.7284,-321.7421 335.4362,-321.469 334.1329,-321.1843"/>
<polygon fill="#191970" stroke="#191970" points="334.623,-317.7045 324.0884,-318.8333 333.0276,-324.5203 334.623,-317.7045"/>
</g>
<!-- Node3&#45;&gt;Node2 -->
<g id="edge8" class="edge">
<title>Node3&#45;&gt;Node2</title>
<path fill="none" stroke="#191970" d="M615.2084,-364.5415C567.684,-358.2853 475.7074,-343.6927 452,-322 427.2701,-299.3717 428,-284.0202 428,-250.5 428,-250.5 428,-250.5 428,-189 428,-152.1524 435.5789,-109.6754 440.6159,-85.5136"/>
<polygon fill="#191970" stroke="#191970" points="444.0869,-86.0209 442.7775,-75.5072 437.2448,-84.5427 444.0869,-86.0209"/>
</g>
<!-- Node4 -->
<g id="node5" class="node">
<title>Node4</title>
<polygon fill="none" stroke="#bfbfbf" points="1638,-302.5 1638,-321.5 1760,-321.5 1760,-302.5 1638,-302.5"/>
<text text-anchor="middle" x="1699" y="-309.5" font-family="Helvetica,sans-Serif" font-size="10.00" fill="#000000">deal.II/base/logstream.h</text>
</g>
<!-- Node3&#45;&gt;Node4 -->
<g id="edge4" class="edge">
<title>Node3&#45;&gt;Node4</title>
<path fill="none" stroke="#191970" d="M672.5225,-367.554C790.1008,-365.5269 1248.6692,-355.7683 1624,-322 1625.1121,-321.8999 1626.233,-321.7955 1627.3609,-321.6871"/>
<polygon fill="#191970" stroke="#191970" points="1628.0695,-325.1323 1637.6529,-320.6148 1627.3441,-318.17 1628.0695,-325.1323"/>
</g>
<!-- Node5 -->
<g id="node6" class="node">
<title>Node5</title>
<polygon fill="none" stroke="#bfbfbf" points="1439,-118 1439,-137 1555,-137 1555,-118 1439,-118"/>
<text text-anchor="middle" x="1497" y="-125" font-family="Helvetica,sans-Serif" font-size="10.00" fill="#000000">deal.II/lac/full_matrix.h</text>
</g>
<!-- Node3&#45;&gt;Node5 -->
<g id="edge5" class="edge">
<title>Node3&#45;&gt;Node5</title>
<path fill="none" stroke="#191970" d="M672.5037,-365.9367C775.3204,-357.622 1135.0736,-320.9284 1401,-199 1431.4696,-185.0296 1461.6539,-160.2794 1479.8164,-143.8795"/>
<polygon fill="#191970" stroke="#191970" points="1482.2962,-146.3537 1487.2733,-137.0006 1477.5499,-141.2085 1482.2962,-146.3537"/>
</g>
<!-- Node6 -->
<g id="node7" class="node">
<title>Node6</title>
<polygon fill="none" stroke="#bfbfbf" points="755,-56.5 755,-75.5 811,-75.5 811,-56.5 755,-56.5"/>
<text text-anchor="middle" x="783" y="-63.5" font-family="Helvetica,sans-Serif" font-size="10.00" fill="#000000">algorithm</text>
</g>
<!-- Node3&#45;&gt;Node6 -->
<g id="edge6" class="edge">
<title>Node3&#45;&gt;Node6</title>
<path fill="none" stroke="#191970" d="M643.4282,-358.4911C641.9334,-336.4473 637.1495,-280.2811 625,-235 610.2063,-179.8637 552.3988,-156.6253 588,-112 630.9856,-58.1186 672.396,-90.3328 744.805,-75.9861"/>
<polygon fill="#191970" stroke="#191970" points="745.7546,-79.3603 754.7485,-73.7601 744.2254,-72.5293 745.7546,-79.3603"/>
</g>
<!-- Node7 -->
<g id="node8" class="node">
<title>Node7</title>
<polygon fill="none" stroke="#bfbfbf" points="1744.5,-179.5 1744.5,-198.5 1779.5,-198.5 1779.5,-179.5 1744.5,-179.5"/>
<text text-anchor="middle" x="1762" y="-186.5" font-family="Helvetica,sans-Serif" font-size="10.00" fill="#000000">map</text>
</g>
<!-- Node3&#45;&gt;Node7 -->
<g id="edge9" class="edge">
<title>Node3&#45;&gt;Node7</title>
<path fill="none" stroke="#191970" d="M672.9139,-367.7998C800.2567,-366.7016 1311.6523,-359.9662 1467,-322 1573.3838,-296.0003 1688.8035,-232.4782 1737.8125,-203.6537"/>
<polygon fill="#191970" stroke="#191970" points="1739.6279,-206.6464 1746.4405,-198.5323 1736.0548,-200.6269 1739.6279,-206.6464"/>
</g>
<!-- Node8 -->
<g id="node9" class="node">
<title>Node8</title>
<polygon fill="none" stroke="#bfbfbf" points="22.5,-56.5 22.5,-75.5 63.5,-75.5 63.5,-56.5 22.5,-56.5"/>
<text text-anchor="middle" x="43" y="-63.5" font-family="Helvetica,sans-Serif" font-size="10.00" fill="#000000">string</text>
</g>
<!-- Node3&#45;&gt;Node8 -->
<g id="edge10" class="edge">
<title>Node3&#45;&gt;Node8</title>
<path fill="none" stroke="#191970" d="M615.4263,-365.2223C573.5769,-360.411 493.7754,-348.3904 431,-322 420.8816,-317.7463 147.6013,-135.7417 65.8731,-81.2549"/>
<polygon fill="#191970" stroke="#191970" points="67.5651,-78.1765 57.3033,-75.5409 63.6818,-84.0006 67.5651,-78.1765"/>
</g>
<!-- Node9 -->
<g id="node10" class="node">
<title>Node9</title>
<polygon fill="none" stroke="#bfbfbf" points="0,-.5 0,-19.5 40,-19.5 40,-.5 0,-.5"/>
<text text-anchor="middle" x="20" y="-7.5" font-family="Helvetica,sans-Serif" font-size="10.00" fill="#000000">utility</text>
</g>
<!-- Node3&#45;&gt;Node9 -->
<g id="edge11" class="edge">
<title>Node3&#45;&gt;Node9</title>
<path fill="none" stroke="#191970" d="M615.1942,-365.5941C568.4506,-361.0374 473.6849,-349.0687 398,-322 276.9055,-278.6905 25.4062,-99.2721 13,-76 5.3114,-61.5773 8.2919,-42.8751 12.479,-29.0635"/>
<polygon fill="#191970" stroke="#191970" points="15.7887,-30.2017 15.7593,-19.6069 9.1753,-27.9076 15.7887,-30.2017"/>
</g>
<!-- Node10 -->
<g id="node11" class="node">
<title>Node10</title>
<polygon fill="none" stroke="#bfbfbf" points="1709,-.5 1709,-19.5 1753,-19.5 1753,-.5 1709,-.5"/>
<text text-anchor="middle" x="1731" y="-7.5" font-family="Helvetica,sans-Serif" font-size="10.00" fill="#000000">vector</text>
</g>
<!-- Node3&#45;&gt;Node10 -->
<g id="edge12" class="edge">
<title>Node3&#45;&gt;Node10</title>
<path fill="none" stroke="#191970" d="M672.6597,-367.8015C835.5611,-366.5438 1646.2883,-358.5182 1893,-322 2006.0529,-305.2659 2140,-364.7847 2140,-250.5 2140,-250.5 2140,-250.5 2140,-127.5 2140,-88.4666 2122.4893,-76.0517 2089,-56 2034.3142,-23.2568 1840.4725,-13.5048 1763.1696,-10.8804"/>
<polygon fill="#191970" stroke="#191970" points="1763.1691,-7.3787 1753.0618,-10.5557 1762.9443,-14.3751 1763.1691,-7.3787"/>
</g>
<!-- Node11 -->
<g id="node12" class="node">
<title>Node11</title>
<g id="a_node12"><a xlink:href="block__cluster_8h.html" target="_top" xlink:title="Implementation of the class BlockCluster. ">
<polygon fill="none" stroke="#000000" points="532.5,-241 532.5,-260 615.5,-260 615.5,-241 532.5,-241"/>
<text text-anchor="middle" x="574" y="-248" font-family="Helvetica,sans-Serif" font-size="10.00" fill="#000000">block_cluster.h</text>
</a>
</g>
</g>
<!-- Node3&#45;&gt;Node11 -->
<g id="edge13" class="edge">
<title>Node3&#45;&gt;Node11</title>
<path fill="none" stroke="#191970" d="M638.2716,-358.3845C626.6323,-338.8471 600.0466,-294.2211 584.968,-268.9106"/>
<polygon fill="#191970" stroke="#191970" points="587.9325,-267.0481 579.8075,-260.2484 581.9188,-270.6307 587.9325,-267.0481"/>
</g>
<!-- Node30 -->
<g id="node31" class="node">
<title>Node30</title>
<g id="a_node31"><a xlink:href="block__cluster__tree_8h.html" target="_top" xlink:title="Implementation of the class BlockClusterTree. ">
<polygon fill="none" stroke="#000000" points="461,-302.5 461,-321.5 565,-321.5 565,-302.5 461,-302.5"/>
<text text-anchor="middle" x="513" y="-309.5" font-family="Helvetica,sans-Serif" font-size="10.00" fill="#000000">block_cluster_tree.h</text>
</a>
</g>
</g>
<!-- Node3&#45;&gt;Node30 -->
<g id="edge45" class="edge">
<title>Node3&#45;&gt;Node30</title>
<path fill="none" stroke="#191970" d="M621.4803,-358.3733C600.2628,-349.3032 568.2724,-335.6279 544.5231,-325.4755"/>
<polygon fill="#191970" stroke="#191970" points="545.7967,-322.2136 535.2258,-321.5011 543.0452,-328.6502 545.7967,-322.2136"/>
</g>
<!-- Node31 -->
<g id="node32" class="node">
<title>Node31</title>
<g id="a_node32"><a xlink:href="lapack__full__matrix__ext_8h_source.html" target="_top" xlink:title="lapack_full_matrix\l_ext.h">
<polygon fill="none" stroke="#000000" points="1486.5,-235.5 1486.5,-265.5 1581.5,-265.5 1581.5,-235.5 1486.5,-235.5"/>
<text text-anchor="start" x="1494.5" y="-253.5" font-family="Helvetica,sans-Serif" font-size="10.00" fill="#000000">lapack_full_matrix</text>
<text text-anchor="middle" x="1534" y="-242.5" font-family="Helvetica,sans-Serif" font-size="10.00" fill="#000000">_ext.h</text>
</a>
</g>
</g>
<!-- Node3&#45;&gt;Node31 -->
<g id="edge71" class="edge">
<title>Node3&#45;&gt;Node31</title>
<path fill="none" stroke="#191970" d="M672.7418,-367.2717C806.0957,-363.7656 1361.1304,-347.7309 1434,-322 1463.5831,-311.5539 1492.1646,-289.529 1511.1404,-272.6672"/>
<polygon fill="#191970" stroke="#191970" points="1513.6321,-275.1317 1518.6597,-265.8056 1508.9137,-269.9609 1513.6321,-275.1317"/>
</g>
<!-- Node44 -->
<g id="node45" class="node">
<title>Node44</title>
<g id="a_node45"><a xlink:href="generic__functors_8h.html" target="_top" xlink:title="This header file contains a set of self&#45;defined generic functors. ">
<polygon fill="none" stroke="#000000" points="1976.5,-241 1976.5,-260 2073.5,-260 2073.5,-241 1976.5,-241"/>
<text text-anchor="middle" x="2025" y="-248" font-family="Helvetica,sans-Serif" font-size="10.00" fill="#000000">generic_functors.h</text>
</a>
</g>
</g>
<!-- Node3&#45;&gt;Node44 -->
<g id="edge67" class="edge">
<title>Node3&#45;&gt;Node44</title>
<path fill="none" stroke="#191970" d="M672.522,-367.4948C843.4746,-364.3893 1728.8886,-347.1855 1847,-322 1902.7311,-310.1162 1963.4834,-282.1757 1997.6465,-264.9521"/>
<polygon fill="#191970" stroke="#191970" points="1999.6466,-267.8604 2006.9558,-260.1906 1996.459,-261.6283 1999.6466,-267.8604"/>
</g>
<!-- Node3&#45;&gt;Node45 -->
<g id="edge72" class="edge">
<title>Node3&#45;&gt;Node45</title>
<path fill="none" stroke="#191970" d="M672.5074,-367.6459C823.0833,-365.6539 1527.6874,-354.79 1767.8361,-321.8203"/>
<polygon fill="#191970" stroke="#191970" points="1768.4882,-325.2628 1777.8938,-320.3859 1767.4998,-318.3329 1768.4882,-325.2628"/>
</g>
<!-- Node12 -->
<g id="node13" class="node">
<title>Node12</title>
<g id="a_node13"><a xlink:href="cluster_8h.html" target="_top" xlink:title="Implementation of the class Cluster. ">
<polygon fill="none" stroke="#000000" points="597,-118 597,-137 651,-137 651,-118 597,-118"/>
<text text-anchor="middle" x="624" y="-125" font-family="Helvetica,sans-Serif" font-size="10.00" fill="#000000">cluster.h</text>
</a>
</g>
</g>
<!-- Node11&#45;&gt;Node12 -->
<g id="edge14" class="edge">
<title>Node11&#45;&gt;Node12</title>
<path fill="none" stroke="#191970" d="M577.9234,-240.8484C586.1748,-220.5499 605.4538,-173.1235 616.2772,-146.4981"/>
<polygon fill="#191970" stroke="#191970" points="619.5713,-147.6887 620.0948,-137.1068 613.0866,-145.0526 619.5713,-147.6887"/>
</g>
<!-- Node20 -->
<g id="node21" class="node">
<title>Node20</title>
<g id="a_node21"><a xlink:href="cluster__tree_8h_source.html" target="_top" xlink:title="cluster_tree.h">
<polygon fill="none" stroke="#000000" points="494,-179.5 494,-198.5 570,-198.5 570,-179.5 494,-179.5"/>
<text text-anchor="middle" x="532" y="-186.5" font-family="Helvetica,sans-Serif" font-size="10.00" fill="#000000">cluster_tree.h</text>
</a>
</g>
</g>
<!-- Node11&#45;&gt;Node20 -->
<g id="edge26" class="edge">
<title>Node11&#45;&gt;Node20</title>
<path fill="none" stroke="#191970" d="M567.4375,-240.8906C561.3092,-231.917 552.0015,-218.2879 544.4628,-207.2491"/>
<polygon fill="#191970" stroke="#191970" points="547.185,-205.029 538.655,-198.7449 541.4044,-208.9768 547.185,-205.029"/>
</g>
<!-- Node12&#45;&gt;Node6 -->
<g id="edge16" class="edge">
<title>Node12&#45;&gt;Node6</title>
<path fill="none" stroke="#191970" d="M646.6451,-117.8613C651.3756,-115.8906 656.3407,-113.8536 661,-112 689.8379,-100.5273 722.7813,-88.1487 747.1603,-79.1255"/>
<polygon fill="#191970" stroke="#191970" points="748.5469,-82.3446 756.7161,-75.5981 746.1228,-75.7777 748.5469,-82.3446"/>
</g>
<!-- Node12&#45;&gt;Node10 -->
<g id="edge18" class="edge">
<title>Node12&#45;&gt;Node10</title>
<path fill="none" stroke="#191970" d="M643.1655,-117.9783C648.7812,-115.6021 655.0216,-113.349 661,-112 992.1624,-37.275 1087.3523,-119.8254 1424,-76 1525.5741,-62.7769 1643.4226,-33.4111 1698.9405,-18.7214"/>
<polygon fill="#191970" stroke="#191970" points="1700.1161,-22.0303 1708.877,-16.0723 1698.3128,-15.2665 1700.1161,-22.0303"/>
</g>
<!-- Node13 -->
<g id="node14" class="node">
<title>Node13</title>
<polygon fill="none" stroke="#bfbfbf" points="1932.5,-56.5 1932.5,-75.5 2035.5,-75.5 2035.5,-56.5 1932.5,-56.5"/>
<text text-anchor="middle" x="1984" y="-63.5" font-family="Helvetica,sans-Serif" font-size="10.00" fill="#000000">deal.II/base/types.h</text>
</g>
<!-- Node12&#45;&gt;Node13 -->
<g id="edge15" class="edge">
<title>Node12&#45;&gt;Node13</title>
<path fill="none" stroke="#191970" d="M643.1548,-117.9305C648.7704,-115.5535 655.0133,-113.3119 661,-112 723.2079,-98.3676 1669.7048,-73.8524 1922.3864,-67.5238"/>
<polygon fill="#191970" stroke="#191970" points="1922.5804,-71.0201 1932.4898,-67.2712 1922.4054,-64.0223 1922.5804,-71.0201"/>
</g>
<!-- Node14 -->
<g id="node15" class="node">
<title>Node14</title>
<polygon fill="none" stroke="#bfbfbf" points="1005.5,-56.5 1005.5,-75.5 1052.5,-75.5 1052.5,-56.5 1005.5,-56.5"/>
<text text-anchor="middle" x="1029" y="-63.5" font-family="Helvetica,sans-Serif" font-size="10.00" fill="#000000">iterator</text>
</g>
<!-- Node12&#45;&gt;Node14 -->
<g id="edge17" class="edge">
<title>Node12&#45;&gt;Node14</title>
<path fill="none" stroke="#191970" d="M643.9923,-117.892C649.4048,-115.6342 655.3356,-113.4626 661,-112 803.8517,-75.1151 845.9265,-102.8477 991,-76 992.4674,-75.7284 993.9614,-75.4303 995.4669,-75.112"/>
<polygon fill="#191970" stroke="#191970" points="996.4647,-78.4733 1005.406,-72.7897 994.8719,-71.6569 996.4647,-78.4733"/>
</g>
<!-- Node15 -->
<g id="node16" class="node">
<title>Node15</title>
<g id="a_node16"><a xlink:href="simple__bounding__box_8h_source.html" target="_top" xlink:title="simple_bounding_box.h">
<polygon fill="none" stroke="#000000" points="829.5,-56.5 829.5,-75.5 948.5,-75.5 948.5,-56.5 829.5,-56.5"/>
<text text-anchor="middle" x="889" y="-63.5" font-family="Helvetica,sans-Serif" font-size="10.00" fill="#000000">simple_bounding_box.h</text>
</a>
</g>
</g>
<!-- Node12&#45;&gt;Node15 -->
<g id="edge19" class="edge">
<title>Node12&#45;&gt;Node15</title>
<path fill="none" stroke="#191970" d="M644.8661,-117.9138C650.0632,-115.7622 655.6738,-113.6353 661,-112 713.0378,-96.0227 773.4929,-84.1169 819.0711,-76.4249"/>
<polygon fill="#191970" stroke="#191970" points="819.8553,-79.8427 829.147,-74.752 818.7088,-72.9372 819.8553,-79.8427"/>
</g>
<!-- Node15&#45;&gt;Node9 -->
<g id="edge24" class="edge">
<title>Node15&#45;&gt;Node9</title>
<path fill="none" stroke="#191970" d="M829.1999,-57.0104C826.0915,-56.6443 823.0108,-56.3042 820,-56 666.3407,-40.4769 177.4514,-17.2785 50.406,-11.395"/>
<polygon fill="#191970" stroke="#191970" points="50.3878,-7.8906 40.2369,-10.9254 50.0647,-14.8831 50.3878,-7.8906"/>
</g>
<!-- Node15&#45;&gt;Node10 -->
<g id="edge25" class="edge">
<title>Node15&#45;&gt;Node10</title>
<path fill="none" stroke="#191970" d="M948.7299,-57.5398C953.5529,-56.9752 958.3549,-56.4523 963,-56 1247.6924,-28.2769 1593.493,-14.7468 1698.9558,-11.0636"/>
<polygon fill="#191970" stroke="#191970" points="1699.0856,-14.5613 1708.959,-10.7188 1698.8444,-7.5654 1699.0856,-14.5613"/>
</g>
<!-- Node16 -->
<g id="node17" class="node">
<title>Node16</title>
<polygon fill="none" stroke="#bfbfbf" points="839,-.5 839,-19.5 939,-19.5 939,-.5 839,-.5"/>
<text text-anchor="middle" x="889" y="-7.5" font-family="Helvetica,sans-Serif" font-size="10.00" fill="#000000">deal.II/base/point.h</text>
</g>
<!-- Node15&#45;&gt;Node16 -->
<g id="edge20" class="edge">
<title>Node15&#45;&gt;Node16</title>
<path fill="none" stroke="#191970" d="M889,-56.2455C889,-48.9382 889,-38.6944 889,-29.7046"/>
<polygon fill="#191970" stroke="#191970" points="892.5001,-29.6426 889,-19.6427 885.5001,-29.6427 892.5001,-29.6426"/>
</g>
<!-- Node17 -->
<g id="node18" class="node">
<title>Node17</title>
<polygon fill="none" stroke="#bfbfbf" points="483.5,-.5 483.5,-19.5 610.5,-19.5 610.5,-.5 483.5,-.5"/>
<text text-anchor="middle" x="547" y="-7.5" font-family="Helvetica,sans-Serif" font-size="10.00" fill="#000000">deal.II/dofs/dof_handler.h</text>
</g>
<!-- Node15&#45;&gt;Node17 -->
<g id="edge21" class="edge">
<title>Node15&#45;&gt;Node17</title>
<path fill="none" stroke="#191970" d="M830.5967,-56.4369C770.9594,-46.6717 678.4302,-31.5207 615.4035,-21.2006"/>
<polygon fill="#191970" stroke="#191970" points="615.5966,-17.6857 605.1624,-19.5237 614.4654,-24.5937 615.5966,-17.6857"/>
</g>
<!-- Node18 -->
<g id="node19" class="node">
<title>Node18</title>
<polygon fill="none" stroke="#bfbfbf" points="680,-.5 680,-19.5 796,-19.5 796,-.5 680,-.5"/>
<text text-anchor="middle" x="738" y="-7.5" font-family="Helvetica,sans-Serif" font-size="10.00" fill="#000000">deal.II/dofs/dof_tools.h</text>
</g>
<!-- Node15&#45;&gt;Node18 -->
<g id="edge22" class="edge">
<title>Node15&#45;&gt;Node18</title>
<path fill="none" stroke="#191970" d="M863.0422,-56.3733C838.2593,-47.1822 800.7254,-33.2624 773.246,-23.0713"/>
<polygon fill="#191970" stroke="#191970" points="774.2121,-19.6968 763.6191,-19.5011 771.7781,-26.26 774.2121,-19.6968"/>
</g>
<!-- Node19 -->
<g id="node20" class="node">
<title>Node19</title>
<polygon fill="none" stroke="#bfbfbf" points="261.5,-.5 261.5,-19.5 364.5,-19.5 364.5,-.5 261.5,-.5"/>
<text text-anchor="middle" x="313" y="-7.5" font-family="Helvetica,sans-Serif" font-size="10.00" fill="#000000">deal.II/fe/mapping.h</text>
</g>
<!-- Node15&#45;&gt;Node19 -->
<g id="edge23" class="edge">
<title>Node15&#45;&gt;Node19</title>
<path fill="none" stroke="#191970" d="M829.1866,-57.1318C826.0817,-56.734 823.0053,-56.3539 820,-56 659.7239,-37.1285 470.1504,-21.7753 374.6141,-14.5223"/>
<polygon fill="#191970" stroke="#191970" points="374.7867,-11.0255 364.5514,-13.762 374.2592,-18.0056 374.7867,-11.0255"/>
</g>
<!-- Node20&#45;&gt;Node12 -->
<g id="edge27" class="edge">
<title>Node20&#45;&gt;Node12</title>
<path fill="none" stroke="#191970" d="M546.375,-179.3906C561.0931,-169.5519 584.1832,-154.1167 601.3589,-142.6351"/>
<polygon fill="#191970" stroke="#191970" points="603.3575,-145.5091 609.7259,-137.0419 599.4673,-139.6896 603.3575,-145.5091"/>
</g>
<!-- Node21 -->
<g id="node22" class="node">
<title>Node21</title>
<g id="a_node22"><a xlink:href="debug__tools_8h.html" target="_top" xlink:title="This file includes a bunch of helper functions for printing out and visualizing information about gri...">
<polygon fill="none" stroke="#000000" points="267.5,-118 267.5,-137 344.5,-137 344.5,-118 267.5,-118"/>
<text text-anchor="middle" x="306" y="-125" font-family="Helvetica,sans-Serif" font-size="10.00" fill="#000000">debug_tools.h</text>
</a>
</g>
</g>
<!-- Node20&#45;&gt;Node21 -->
<g id="edge28" class="edge">
<title>Node20&#45;&gt;Node21</title>
<path fill="none" stroke="#191970" d="M496.6875,-179.3906C457.3809,-168.6944 393.7674,-151.3836 350.9406,-139.7294"/>
<polygon fill="#191970" stroke="#191970" points="351.6327,-136.2905 341.0645,-137.0419 349.7946,-143.0449 351.6327,-136.2905"/>
</g>
<!-- Node24 -->
<g id="node25" class="node">
<title>Node24</title>
<g id="a_node25"><a xlink:href="tree_8h.html" target="_top" xlink:title="Implementation of the classes for binary tree node, general tree node and functions for manipulating ...">
<polygon fill="none" stroke="#000000" points="499.5,-118 499.5,-137 540.5,-137 540.5,-118 499.5,-118"/>
<text text-anchor="middle" x="520" y="-125" font-family="Helvetica,sans-Serif" font-size="10.00" fill="#000000">tree.h</text>
</a>
</g>
</g>
<!-- Node20&#45;&gt;Node24 -->
<g id="edge36" class="edge">
<title>Node20&#45;&gt;Node24</title>
<path fill="none" stroke="#191970" d="M530.125,-179.3906C528.4441,-170.776 525.926,-157.8708 523.8216,-147.0858"/>
<polygon fill="#191970" stroke="#191970" points="527.2518,-146.3895 521.9014,-137.2449 520.3814,-147.7301 527.2518,-146.3895"/>
</g>
<!-- Node21&#45;&gt;Node2 -->
<g id="edge34" class="edge">
<title>Node21&#45;&gt;Node2</title>
<path fill="none" stroke="#191970" d="M327.7188,-117.8906C350.874,-107.6457 387.7441,-91.3326 413.9591,-79.7339"/>
<polygon fill="#191970" stroke="#191970" points="415.705,-82.7888 423.4338,-75.5419 412.8727,-76.3874 415.705,-82.7888"/>
</g>
<!-- Node21&#45;&gt;Node8 -->
<g id="edge35" class="edge">
<title>Node21&#45;&gt;Node8</title>
<path fill="none" stroke="#191970" d="M275.0074,-117.9758C267.8129,-115.8932 260.1637,-113.7812 253,-112 175.9399,-92.8395 155.1193,-94.9208 78,-76 76.5423,-75.6424 75.0539,-75.265 73.5529,-74.8747"/>
<polygon fill="#191970" stroke="#191970" points="74.2274,-71.431 63.6592,-72.1819 72.389,-78.1853 74.2274,-71.431"/>
</g>
<!-- Node21&#45;&gt;Node17 -->
<g id="edge29" class="edge">
<title>Node21&#45;&gt;Node17</title>
<path fill="none" stroke="#191970" d="M273.7055,-117.9602C228.8666,-104.5643 152.7864,-81.227 149,-76 143.7853,-68.8014 143.0864,-62.6364 149,-56 159.6575,-44.0397 361.1364,-25.4677 473.2405,-15.9966"/>
<polygon fill="#191970" stroke="#191970" points="473.7983,-19.4621 483.4699,-15.1366 473.2118,-12.4867 473.7983,-19.4621"/>
</g>
<!-- Node21&#45;&gt;Node18 -->
<g id="edge30" class="edge">
<title>Node21&#45;&gt;Node18</title>
<path fill="none" stroke="#191970" d="M318.4447,-117.7555C341.3317,-100.025 389.5385,-63.6125 409,-56 455.2109,-37.9242 587.9415,-23.3653 670.0036,-15.7621"/>
<polygon fill="#191970" stroke="#191970" points="670.3581,-19.2444 679.9974,-14.8473 669.7199,-12.2735 670.3581,-19.2444"/>
</g>
<!-- Node21&#45;&gt;Node19 -->
<g id="edge33" class="edge">
<title>Node21&#45;&gt;Node19</title>
<path fill="none" stroke="#191970" d="M273.8088,-117.9316C266.9507,-115.9363 259.7434,-113.8717 253,-112 189.6169,-94.4076 75.1158,-107.5305 116,-56 132.73,-34.9134 200.0517,-22.5869 251.3831,-16.0898"/>
<polygon fill="#191970" stroke="#191970" points="251.9132,-19.5512 261.4165,-14.8673 251.0665,-12.6026 251.9132,-19.5512"/>
</g>
<!-- Node22 -->
<g id="node23" class="node">
<title>Node22</title>
<polygon fill="none" stroke="#bfbfbf" points="158,-56.5 158,-75.5 232,-75.5 232,-56.5 158,-56.5"/>
<text text-anchor="middle" x="195" y="-63.5" font-family="Helvetica,sans-Serif" font-size="10.00" fill="#000000">deal.II/fe/fe.h</text>
</g>
<!-- Node21&#45;&gt;Node22 -->
<g id="edge31" class="edge">
<title>Node21&#45;&gt;Node22</title>
<path fill="none" stroke="#191970" d="M288.6563,-117.8906C270.5727,-107.8713 242.0141,-92.0483 221.1835,-80.5071"/>
<polygon fill="#191970" stroke="#191970" points="222.6654,-77.3268 212.222,-75.5419 219.2729,-83.4498 222.6654,-77.3268"/>
</g>
<!-- Node23 -->
<g id="node24" class="node">
<title>Node23</title>
<polygon fill="none" stroke="#bfbfbf" points="250,-56.5 250,-75.5 362,-75.5 362,-56.5 250,-56.5"/>
<text text-anchor="middle" x="306" y="-63.5" font-family="Helvetica,sans-Serif" font-size="10.00" fill="#000000">deal.II/fe/fe_system.h</text>
</g>
<!-- Node21&#45;&gt;Node23 -->
<g id="edge32" class="edge">
<title>Node21&#45;&gt;Node23</title>
<path fill="none" stroke="#191970" d="M306,-117.8906C306,-109.3657 306,-96.6392 306,-85.9235"/>
<polygon fill="#191970" stroke="#191970" points="309.5001,-85.7448 306,-75.7449 302.5001,-85.7449 309.5001,-85.7448"/>
</g>
<!-- Node24&#45;&gt;Node2 -->
<g id="edge42" class="edge">
<title>Node24&#45;&gt;Node2</title>
<path fill="none" stroke="#191970" d="M508.2813,-117.8906C496.6812,-108.3786 478.7021,-93.6357 464.8679,-82.2917"/>
<polygon fill="#191970" stroke="#191970" points="466.836,-79.3792 456.884,-75.7449 462.3974,-84.7921 466.836,-79.3792"/>
</g>
<!-- Node24&#45;&gt;Node6 -->
<g id="edge38" class="edge">
<title>Node24&#45;&gt;Node6</title>
<path fill="none" stroke="#191970" d="M539.3159,-117.9955C544.3356,-115.7907 549.7966,-113.6187 555,-112 634.5041,-87.2673 659.9634,-94.6825 744.9591,-76.076"/>
<polygon fill="#191970" stroke="#191970" points="745.7854,-79.4777 754.7749,-73.8707 744.2509,-72.6479 745.7854,-79.4777"/>
</g>
<!-- Node24&#45;&gt;Node10 -->
<g id="edge44" class="edge">
<title>Node24&#45;&gt;Node10</title>
<path fill="none" stroke="#191970" d="M540.6985,-122.0618C554.1031,-118.719 571.9835,-114.5938 588,-112 751.0961,-85.5872 799.4634,-122.52 958,-76 976.6916,-70.5153 978.2169,-61.1624 997,-56 1132.0444,-18.884 1574.6577,-11.6004 1698.5269,-10.2761"/>
<polygon fill="#191970" stroke="#191970" points="1698.8901,-13.7727 1708.8542,-10.1718 1698.8193,-6.773 1698.8901,-13.7727"/>
</g>
<!-- Node25 -->
<g id="node26" class="node">
<title>Node25</title>
<polygon fill="none" stroke="#bfbfbf" points="1289,-56.5 1289,-75.5 1415,-75.5 1415,-56.5 1289,-56.5"/>
<text text-anchor="middle" x="1352" y="-63.5" font-family="Helvetica,sans-Serif" font-size="10.00" fill="#000000">deal.II/base/exceptions.h</text>
</g>
<!-- Node24&#45;&gt;Node25 -->
<g id="edge37" class="edge">
<title>Node24&#45;&gt;Node25</title>
<path fill="none" stroke="#191970" d="M540.6678,-121.8604C554.0602,-118.4373 571.9384,-114.2982 588,-112 719.9822,-93.1148 1114.5021,-75.5715 1278.8642,-68.8707"/>
<polygon fill="#191970" stroke="#191970" points="1279.0311,-72.3669 1288.8809,-68.4642 1278.7471,-65.3727 1279.0311,-72.3669"/>
</g>
<!-- Node26 -->
<g id="node27" class="node">
<title>Node26</title>
<polygon fill="none" stroke="#bfbfbf" points="544,-56.5 544,-75.5 582,-75.5 582,-56.5 544,-56.5"/>
<text text-anchor="middle" x="563" y="-63.5" font-family="Helvetica,sans-Serif" font-size="10.00" fill="#000000">array</text>
</g>
<!-- Node24&#45;&gt;Node26 -->
<g id="edge39" class="edge">
<title>Node24&#45;&gt;Node26</title>
<path fill="none" stroke="#191970" d="M526.7188,-117.8906C532.993,-108.917 542.5223,-95.2879 550.2404,-84.2491"/>
<polygon fill="#191970" stroke="#191970" points="553.3247,-85.9459 556.1865,-75.7449 547.5879,-81.9348 553.3247,-85.9459"/>
</g>
<!-- Node27 -->
<g id="node28" class="node">
<title>Node27</title>
<polygon fill="none" stroke="#bfbfbf" points="600.5,-56.5 600.5,-75.5 659.5,-75.5 659.5,-56.5 600.5,-56.5"/>
<text text-anchor="middle" x="630" y="-63.5" font-family="Helvetica,sans-Serif" font-size="10.00" fill="#000000">exception</text>
</g>
<!-- Node24&#45;&gt;Node27 -->
<g id="edge40" class="edge">
<title>Node24&#45;&gt;Node27</title>
<path fill="none" stroke="#191970" d="M537.1875,-117.8906C555.1082,-107.8713 583.4095,-92.0483 604.0523,-80.5071"/>
<polygon fill="#191970" stroke="#191970" points="605.9128,-83.4769 612.9332,-75.5419 602.4967,-77.367 605.9128,-83.4769"/>
</g>
<!-- Node28 -->
<g id="node29" class="node">
<title>Node28</title>
<polygon fill="none" stroke="#bfbfbf" points="677.5,-56.5 677.5,-75.5 736.5,-75.5 736.5,-56.5 677.5,-56.5"/>
<text text-anchor="middle" x="707" y="-63.5" font-family="Helvetica,sans-Serif" font-size="10.00" fill="#000000">functional</text>
</g>
<!-- Node24&#45;&gt;Node28 -->
<g id="edge41" class="edge">
<title>Node24&#45;&gt;Node28</title>
<path fill="none" stroke="#191970" d="M540.5546,-117.8936C545.2566,-115.8374 550.265,-113.7574 555,-112 592.5049,-98.0804 636.3249,-85.1623 667.253,-76.582"/>
<polygon fill="#191970" stroke="#191970" points="668.5045,-79.868 677.2197,-73.8434 666.6497,-73.1182 668.5045,-79.868"/>
</g>
<!-- Node29 -->
<g id="node30" class="node">
<title>Node29</title>
<polygon fill="none" stroke="#bfbfbf" points="490.5,-56.5 490.5,-75.5 525.5,-75.5 525.5,-56.5 490.5,-56.5"/>
<text text-anchor="middle" x="508" y="-63.5" font-family="Helvetica,sans-Serif" font-size="10.00" fill="#000000">new</text>
</g>
<!-- Node24&#45;&gt;Node29 -->
<g id="edge43" class="edge">
<title>Node24&#45;&gt;Node29</title>
<path fill="none" stroke="#191970" d="M518.125,-117.8906C516.4441,-109.276 513.926,-96.3708 511.8216,-85.5858"/>
<polygon fill="#191970" stroke="#191970" points="515.2518,-84.8895 509.9014,-75.7449 508.3814,-86.2301 515.2518,-84.8895"/>
</g>
<!-- Node30&#45;&gt;Node11 -->
<g id="edge46" class="edge">
<title>Node30&#45;&gt;Node11</title>
<path fill="none" stroke="#191970" d="M522.5313,-302.3906C531.7879,-293.0581 546.039,-278.6902 557.2003,-267.4374"/>
<polygon fill="#191970" stroke="#191970" points="559.7772,-269.8095 564.3344,-260.2449 554.8072,-264.88 559.7772,-269.8095"/>
</g>
<!-- Node30&#45;&gt;Node20 -->
<g id="edge47" class="edge">
<title>Node30&#45;&gt;Node20</title>
<path fill="none" stroke="#191970" d="M514.3277,-302.018C516.3046,-287.3222 520.1984,-259.0077 524,-235 525.3771,-226.3032 527.0259,-216.7048 528.4679,-208.5357"/>
<polygon fill="#191970" stroke="#191970" points="531.9473,-208.9606 530.2611,-198.5008 525.0565,-207.7291 531.9473,-208.9606"/>
</g>
<!-- Node30&#45;&gt;Node21 -->
<g id="edge48" class="edge">
<title>Node30&#45;&gt;Node21</title>
<path fill="none" stroke="#191970" d="M502.1622,-302.3402C468.6274,-272.4505 366.2941,-181.2404 324.2889,-143.801"/>
<polygon fill="#191970" stroke="#191970" points="326.5245,-141.1051 316.7305,-137.0641 321.8668,-146.3307 326.5245,-141.1051"/>
</g>
<!-- Node30&#45;&gt;Node24 -->
<g id="edge66" class="edge">
<title>Node30&#45;&gt;Node24</title>
<path fill="none" stroke="#191970" d="M507.7469,-302.4982C496.2687,-280.4692 471.0538,-224.3321 485,-179 488.8453,-166.501 496.8716,-154.315 504.269,-144.9372"/>
<polygon fill="#191970" stroke="#191970" points="507.02,-147.1033 510.7477,-137.1859 501.6491,-142.6141 507.02,-147.1033"/>
</g>
<!-- Node30&#45;&gt;Node31 -->
<g id="edge49" class="edge">
<title>Node30&#45;&gt;Node31</title>
<path fill="none" stroke="#191970" d="M565.0352,-308.8657C738.2393,-298.4327 1294.5706,-264.922 1476.1113,-253.9869"/>
<polygon fill="#191970" stroke="#191970" points="1476.4832,-257.471 1486.2546,-253.3759 1476.0623,-250.4836 1476.4832,-257.471"/>
</g>
<!-- Node31&#45;&gt;Node7 -->
<g id="edge51" class="edge">
<title>Node31&#45;&gt;Node7</title>
<path fill="none" stroke="#191970" d="M1581.6943,-238.6205C1621.4867,-228.553 1679.618,-213.483 1730,-199 1731.4684,-198.5779 1732.9721,-198.1372 1734.4885,-197.6862"/>
<polygon fill="#191970" stroke="#191970" points="1735.8969,-200.9157 1744.4385,-194.6473 1733.8522,-194.221 1735.8969,-200.9157"/>
</g>
<!-- Node31&#45;&gt;Node10 -->
<g id="edge52" class="edge">
<title>Node31&#45;&gt;Node10</title>
<path fill="none" stroke="#191970" d="M1581.7464,-237.4232C1607.3134,-228.9987 1638.4939,-216.344 1663,-199 1689.9948,-179.8947 1698.2025,-173.0559 1712,-143 1729.1997,-105.5329 1731.7062,-56.4024 1731.6098,-29.5743"/>
<polygon fill="#191970" stroke="#191970" points="1735.1088,-29.482 1731.4443,-19.5411 1728.1098,-29.5974 1735.1088,-29.482"/>
</g>
<!-- Node32 -->
<g id="node33" class="node">
<title>Node32</title>
<polygon fill="none" stroke="#bfbfbf" points="1486,-179.5 1486,-198.5 1526,-198.5 1526,-179.5 1486,-179.5"/>
<text text-anchor="middle" x="1506" y="-186.5" font-family="Helvetica,sans-Serif" font-size="10.00" fill="#000000">limits</text>
</g>
<!-- Node31&#45;&gt;Node32 -->
<g id="edge50" class="edge">
<title>Node31&#45;&gt;Node32</title>
<path fill="none" stroke="#191970" d="M1527.0786,-235.2977C1523.3539,-227.1166 1518.722,-216.943 1514.7496,-208.2179"/>
<polygon fill="#191970" stroke="#191970" points="1517.8122,-206.4978 1510.4832,-198.8469 1511.4414,-209.3983 1517.8122,-206.4978"/>
</g>
<!-- Node33 -->
<g id="node34" class="node">
<title>Node33</title>
<g id="a_node34"><a xlink:href="general__exceptions_8h.html" target="_top" xlink:title="Definition of self&#45;defined general exceptions. ">
<polygon fill="none" stroke="#000000" points="1544.5,-179.5 1544.5,-198.5 1653.5,-198.5 1653.5,-179.5 1544.5,-179.5"/>
<text text-anchor="middle" x="1599" y="-186.5" font-family="Helvetica,sans-Serif" font-size="10.00" fill="#000000">general_exceptions.h</text>
</a>
</g>
</g>
<!-- Node31&#45;&gt;Node33 -->
<g id="edge53" class="edge">
<title>Node31&#45;&gt;Node33</title>
<path fill="none" stroke="#191970" d="M1550.0674,-235.2977C1559.466,-226.4052 1571.3527,-215.1586 1581.057,-205.9769"/>
<polygon fill="#191970" stroke="#191970" points="1583.7342,-208.2621 1588.5927,-198.8469 1578.9232,-203.1774 1583.7342,-208.2621"/>
</g>
<!-- Node34 -->
<g id="node35" class="node">
<title>Node34</title>
<g id="a_node35"><a xlink:href="lapack__helpers_8h.html" target="_top" xlink:title="Exposes LAPACK helper functions defined in lapack_full_matrix.cc and define new ones by following the...">
<polygon fill="none" stroke="#000000" points="1302,-179.5 1302,-198.5 1392,-198.5 1392,-179.5 1302,-179.5"/>
<text text-anchor="middle" x="1347" y="-186.5" font-family="Helvetica,sans-Serif" font-size="10.00" fill="#000000">lapack_helpers.h</text>
</a>
</g>
</g>
<!-- Node31&#45;&gt;Node34 -->
<g id="edge55" class="edge">
<title>Node31&#45;&gt;Node34</title>
<path fill="none" stroke="#191970" d="M1488.2547,-235.4554C1456.7795,-225.104 1415.4351,-211.5067 1385.6176,-201.7004"/>
<polygon fill="#191970" stroke="#191970" points="1386.5713,-198.3297 1375.9784,-198.5303 1384.3843,-204.9793 1386.5713,-198.3297"/>
</g>
<!-- Node33&#45;&gt;Node25 -->
<g id="edge54" class="edge">
<title>Node33&#45;&gt;Node25</title>
<path fill="none" stroke="#191970" d="M1597.4511,-179.257C1594.2895,-162.7361 1585.4847,-129.3355 1564,-112 1542.763,-94.8644 1477.6395,-82.3889 1425.1188,-74.7883"/>
<polygon fill="#191970" stroke="#191970" points="1425.5273,-71.3114 1415.1363,-73.3796 1424.549,-78.2427 1425.5273,-71.3114"/>
</g>
<!-- Node34&#45;&gt;Node5 -->
<g id="edge59" class="edge">
<title>Node34&#45;&gt;Node5</title>
<path fill="none" stroke="#191970" d="M1370.4375,-179.3906C1395.6453,-169.0554 1435.9153,-152.5447 1464.2477,-140.9284"/>
<polygon fill="#191970" stroke="#191970" points="1465.8023,-144.0739 1473.7271,-137.0419 1463.1468,-137.5971 1465.8023,-144.0739"/>
</g>
<!-- Node35 -->
<g id="node36" class="node">
<title>Node35</title>
<polygon fill="none" stroke="#bfbfbf" points="905,-118 905,-137 1021,-137 1021,-118 905,-118"/>
<text text-anchor="middle" x="963" y="-125" font-family="Helvetica,sans-Serif" font-size="10.00" fill="#000000">deal.II/base/numbers.h</text>
</g>
<!-- Node34&#45;&gt;Node35 -->
<g id="edge56" class="edge">
<title>Node34&#45;&gt;Node35</title>
<path fill="none" stroke="#191970" d="M1301.9211,-183.6583C1240.2755,-176.0807 1126.3291,-161.0992 1030,-143 1024.1367,-141.8984 1018.0097,-140.6362 1011.9453,-139.3183"/>
<polygon fill="#191970" stroke="#191970" points="1012.3785,-135.8289 1001.8561,-137.0659 1010.8533,-142.6607 1012.3785,-135.8289"/>
</g>
<!-- Node36 -->
<g id="node37" class="node">
<title>Node36</title>
<polygon fill="none" stroke="#bfbfbf" points="1039,-112.5 1039,-142.5 1167,-142.5 1167,-112.5 1039,-112.5"/>
<text text-anchor="start" x="1047" y="-130.5" font-family="Helvetica,sans-Serif" font-size="10.00" fill="#000000">deal.II/lac/blas_extension</text>
<text text-anchor="middle" x="1103" y="-119.5" font-family="Helvetica,sans-Serif" font-size="10.00" fill="#000000">_templates.h</text>
</g>
<!-- Node34&#45;&gt;Node36 -->
<g id="edge57" class="edge">
<title>Node34&#45;&gt;Node36</title>
<path fill="none" stroke="#191970" d="M1309.1427,-179.4581C1272.8046,-170.2991 1217.0484,-156.2458 1172.6811,-145.0631"/>
<polygon fill="#191970" stroke="#191970" points="1173.3755,-141.6287 1162.8233,-142.5784 1171.6646,-148.4164 1173.3755,-141.6287"/>
</g>
<!-- Node37 -->
<g id="node38" class="node">
<title>Node37</title>
<polygon fill="none" stroke="#bfbfbf" points="1185,-118 1185,-137 1311,-137 1311,-118 1185,-118"/>
<text text-anchor="middle" x="1248" y="-125" font-family="Helvetica,sans-Serif" font-size="10.00" fill="#000000">deal.II/lac/block_vector.h</text>
</g>
<!-- Node34&#45;&gt;Node37 -->
<g id="edge58" class="edge">
<title>Node34&#45;&gt;Node37</title>
<path fill="none" stroke="#191970" d="M1331.5313,-179.3906C1315.5479,-169.4616 1290.3897,-153.833 1271.8567,-142.3201"/>
<polygon fill="#191970" stroke="#191970" points="1273.7015,-139.3457 1263.3601,-137.0419 1270.0076,-145.2918 1273.7015,-139.3457"/>
</g>
<!-- Node38 -->
<g id="node39" class="node">
<title>Node38</title>
<polygon fill="none" stroke="#bfbfbf" points="1611.5,-112.5 1611.5,-142.5 1702.5,-142.5 1702.5,-112.5 1611.5,-112.5"/>
<text text-anchor="start" x="1619.5" y="-130.5" font-family="Helvetica,sans-Serif" font-size="10.00" fill="#000000">deal.II/lac/lapack</text>
<text text-anchor="middle" x="1657" y="-119.5" font-family="Helvetica,sans-Serif" font-size="10.00" fill="#000000">_full_matrix.h</text>
</g>
<!-- Node34&#45;&gt;Node38 -->
<g id="edge60" class="edge">
<title>Node34&#45;&gt;Node38</title>
<path fill="none" stroke="#191970" d="M1392.0767,-180.0574C1447.4776,-169.0665 1541.4791,-150.4178 1601.333,-138.5436"/>
<polygon fill="#191970" stroke="#191970" points="1602.2361,-141.9327 1611.3639,-136.5536 1600.8739,-135.0666 1602.2361,-141.9327"/>
</g>
<!-- Node39 -->
<g id="node40" class="node">
<title>Node39</title>
<polygon fill="none" stroke="#bfbfbf" points="1759.5,-112.5 1759.5,-142.5 1850.5,-142.5 1850.5,-112.5 1759.5,-112.5"/>
<text text-anchor="start" x="1767.5" y="-130.5" font-family="Helvetica,sans-Serif" font-size="10.00" fill="#000000">deal.II/lac/lapack</text>
<text text-anchor="middle" x="1805" y="-119.5" font-family="Helvetica,sans-Serif" font-size="10.00" fill="#000000">_support.h</text>
</g>
<!-- Node34&#45;&gt;Node39 -->
<g id="edge61" class="edge">
<title>Node34&#45;&gt;Node39</title>
<path fill="none" stroke="#191970" d="M1392.0315,-183.9089C1461.0225,-175.9773 1596.982,-159.8257 1712,-143 1724.0206,-141.2415 1736.8881,-139.1999 1749.101,-137.187"/>
<polygon fill="#191970" stroke="#191970" points="1749.8837,-140.605 1759.173,-135.5099 1748.7339,-133.7001 1749.8837,-140.605"/>
</g>
<!-- Node40 -->
<g id="node41" class="node">
<title>Node40</title>
<polygon fill="none" stroke="#bfbfbf" points="1868.5,-112.5 1868.5,-142.5 1959.5,-142.5 1959.5,-112.5 1868.5,-112.5"/>
<text text-anchor="start" x="1876.5" y="-130.5" font-family="Helvetica,sans-Serif" font-size="10.00" fill="#000000">deal.II/lac/lapack</text>
<text text-anchor="middle" x="1914" y="-119.5" font-family="Helvetica,sans-Serif" font-size="10.00" fill="#000000">_templates.h</text>
</g>
<!-- Node34&#45;&gt;Node40 -->
<g id="edge62" class="edge">
<title>Node34&#45;&gt;Node40</title>
<path fill="none" stroke="#191970" d="M1392.0327,-185.4553C1502.7352,-176.6751 1784.0342,-153.9402 1858.3829,-142.8932"/>
<polygon fill="#191970" stroke="#191970" points="1859.1851,-146.3082 1868.4807,-141.2245 1858.0438,-139.4018 1859.1851,-146.3082"/>
</g>
<!-- Node41 -->
<g id="node42" class="node">
<title>Node41</title>
<polygon fill="none" stroke="#bfbfbf" points="1329,-112.5 1329,-142.5 1421,-142.5 1421,-112.5 1329,-112.5"/>
<text text-anchor="start" x="1337" y="-130.5" font-family="Helvetica,sans-Serif" font-size="10.00" fill="#000000">deal.II/lac/sparse</text>
<text text-anchor="middle" x="1375" y="-119.5" font-family="Helvetica,sans-Serif" font-size="10.00" fill="#000000">_matrix.h</text>
</g>
<!-- Node34&#45;&gt;Node41 -->
<g id="edge63" class="edge">
<title>Node34&#45;&gt;Node41</title>
<path fill="none" stroke="#191970" d="M1351.375,-179.3906C1354.7434,-171.9922 1359.5526,-161.4291 1363.9538,-151.7623"/>
<polygon fill="#191970" stroke="#191970" points="1367.1922,-153.096 1368.1504,-142.5446 1360.8214,-150.1954 1367.1922,-153.096"/>
</g>
<!-- Node42 -->
<g id="node43" class="node">
<title>Node42</title>
<polygon fill="none" stroke="#bfbfbf" points="669.5,-118 669.5,-137 770.5,-137 770.5,-118 669.5,-118"/>
<text text-anchor="middle" x="720" y="-125" font-family="Helvetica,sans-Serif" font-size="10.00" fill="#000000">deal.II/lac/utilities.h</text>
</g>
<!-- Node34&#45;&gt;Node42 -->
<g id="edge64" class="edge">
<title>Node34&#45;&gt;Node42</title>
<path fill="none" stroke="#191970" d="M1301.8389,-187.9672C1205.3785,-185.1862 972.3431,-175.3993 780,-143 774.4302,-142.0618 768.6214,-140.8565 762.906,-139.5332"/>
<polygon fill="#191970" stroke="#191970" points="763.3364,-136.0352 752.7908,-137.0558 761.6711,-142.8342 763.3364,-136.0352"/>
</g>
<!-- Node43 -->
<g id="node44" class="node">
<title>Node43</title>
<polygon fill="none" stroke="#bfbfbf" points="789,-118 789,-137 887,-137 887,-118 789,-118"/>
<text text-anchor="middle" x="838" y="-125" font-family="Helvetica,sans-Serif" font-size="10.00" fill="#000000">deal.II/lac/vector.h</text>
</g>
<!-- Node34&#45;&gt;Node43 -->
<g id="edge65" class="edge">
<title>Node34&#45;&gt;Node43</title>
<path fill="none" stroke="#191970" d="M1301.8557,-186.7832C1220.271,-182.2486 1043.0858,-169.9766 896,-143 890.8148,-142.049 885.4145,-140.8687 880.0866,-139.587"/>
<polygon fill="#191970" stroke="#191970" points="880.5588,-136.096 870.0052,-137.0304 878.8381,-142.8812 880.5588,-136.096"/>
</g>
<!-- Node44&#45;&gt;Node7 -->
<g id="edge69" class="edge">
<title>Node44&#45;&gt;Node7</title>
<path fill="none" stroke="#191970" d="M1984.1948,-240.9581C1930.1177,-228.3127 1836.1434,-206.3377 1789.6636,-195.4689"/>
<polygon fill="#191970" stroke="#191970" points="1790.2422,-192.0098 1779.7079,-193.1408 1788.6482,-198.8259 1790.2422,-192.0098"/>
</g>
<!-- Node44&#45;&gt;Node10 -->
<g id="edge70" class="edge">
<title>Node44&#45;&gt;Node10</title>
<path fill="none" stroke="#191970" d="M2030.2738,-240.9503C2046.6095,-209.9498 2092.498,-110.9633 2045,-56 2026.7217,-34.8488 1840.0713,-18.3228 1763.5043,-12.3822"/>
<polygon fill="#191970" stroke="#191970" points="1763.6975,-8.8869 1753.4599,-11.6149 1763.1642,-15.8665 1763.6975,-8.8869"/>
</g>
<!-- Node44&#45;&gt;Node13 -->
<g id="edge68" class="edge">
<title>Node44&#45;&gt;Node13</title>
<path fill="none" stroke="#191970" d="M2024.1069,-240.9486C2021.8362,-218.2586 2015.0748,-159.4686 2002,-112 1999.5021,-102.9312 1995.8402,-93.1889 1992.4704,-85.0151"/>
<polygon fill="#191970" stroke="#191970" points="1995.6221,-83.4838 1988.4677,-75.6693 1989.1874,-86.2397 1995.6221,-83.4838"/>
</g>
<!-- Node45&#45;&gt;Node5 -->
<g id="edge74" class="edge">
<title>Node45&#45;&gt;Node5</title>
<path fill="none" stroke="#191970" d="M1777.8519,-303.8636C1774.8723,-303.1819 1771.8845,-302.5459 1769,-302 1704.9769,-289.8832 1521.5169,-314.498 1478,-266 1448.1312,-232.7123 1471.1072,-175.5846 1486.3269,-146.1855"/>
<polygon fill="#191970" stroke="#191970" points="1489.6021,-147.4876 1491.2875,-137.0276 1483.4471,-144.1535 1489.6021,-147.4876"/>
</g>
<!-- Node45&#45;&gt;Node7 -->
<g id="edge78" class="edge">
<title>Node45&#45;&gt;Node7</title>
<path fill="none" stroke="#191970" d="M1804.3905,-302.3484C1796.7991,-282.0499 1779.0625,-234.6235 1769.105,-207.9981"/>
<polygon fill="#191970" stroke="#191970" points="1772.374,-206.7472 1765.5928,-198.6068 1765.8175,-209.1992 1772.374,-206.7472"/>
</g>
<!-- Node45&#45;&gt;Node10 -->
<g id="edge79" class="edge">
<title>Node45&#45;&gt;Node10</title>
<path fill="none" stroke="#191970" d="M1838.0548,-311.0225C1901.8307,-308.3251 2047.7592,-298.6534 2083,-266 2108.8557,-242.0427 2102,-224.2487 2102,-189 2102,-189 2102,-189 2102,-127.5 2102,-91.7195 2094.2233,-76.6457 2065,-56 2016.8144,-21.9578 1837.4125,-13.0051 1763.324,-10.7373"/>
<polygon fill="#191970" stroke="#191970" points="1763.2807,-7.2347 1753.1853,-10.449 1763.0817,-14.2319 1763.2807,-7.2347"/>
</g>
<!-- Node45&#45;&gt;Node13 -->
<g id="edge73" class="edge">
<title>Node45&#45;&gt;Node13</title>
<path fill="none" stroke="#191970" d="M1821.6078,-302.3993C1853.3954,-279.1507 1932.5843,-216.3107 1969,-143 1977.9709,-124.9402 1981.5824,-102.0135 1983.0332,-85.8909"/>
<polygon fill="#191970" stroke="#191970" points="1986.5521,-85.739 1983.7534,-75.5205 1979.5689,-85.2539 1986.5521,-85.739"/>
</g>
<!-- Node45&#45;&gt;Node31 -->
<g id="edge80" class="edge">
<title>Node45&#45;&gt;Node31</title>
<path fill="none" stroke="#191970" d="M1777.7924,-304.1424C1774.8249,-303.4042 1771.8562,-302.6789 1769,-302 1708.6814,-287.6622 1639.3013,-272.6363 1591.6489,-262.5411"/>
<polygon fill="#191970" stroke="#191970" points="1592.3289,-259.1075 1581.8213,-260.4637 1590.8812,-265.9562 1592.3289,-259.1075"/>
</g>
<!-- Node45&#45;&gt;Node38 -->
<g id="edge75" class="edge">
<title>Node45&#45;&gt;Node38</title>
<path fill="none" stroke="#191970" d="M1809.6257,-302.3819C1813.0744,-278.6036 1818.5612,-216.2857 1789,-179 1770.421,-155.5662 1739.7198,-142.7751 1712.5995,-135.8032"/>
<polygon fill="#191970" stroke="#191970" points="1713.3356,-132.3809 1702.7989,-133.489 1711.7269,-139.1935 1713.3356,-132.3809"/>
</g>
<!-- Node45&#45;&gt;Node39 -->
<g id="edge76" class="edge">
<title>Node45&#45;&gt;Node39</title>
<path fill="none" stroke="#191970" d="M1811.8624,-302.3228C1815.3038,-293.1446 1820.0833,-278.8807 1822,-266 1827.6911,-227.7544 1828.1381,-217.1764 1822,-179 1820.5549,-170.0118 1817.7764,-160.4668 1814.8778,-152.0676"/>
<polygon fill="#191970" stroke="#191970" points="1818.0985,-150.6845 1811.3642,-142.5053 1811.528,-153.0988 1818.0985,-150.6845"/>
</g>
<!-- Node45&#45;&gt;Node40 -->
<g id="edge77" class="edge">
<title>Node45&#45;&gt;Node40</title>
<path fill="none" stroke="#191970" d="M1814.3812,-302.2263C1820.3655,-292.9799 1829.492,-278.6699 1837,-266 1860.4611,-226.4091 1886.1384,-179.4228 1901.1186,-151.6098"/>
<polygon fill="#191970" stroke="#191970" points="1904.3013,-153.081 1905.9499,-142.6152 1898.1346,-149.7686 1904.3013,-153.081"/>
</g>
</g>
</svg>
