<?xml version="1.0" encoding="UTF-8" standalone="no"?>
<!DOCTYPE svg PUBLIC "-//W3C//DTD SVG 1.1//EN"
 "http://www.w3.org/Graphics/SVG/1.1/DTD/svg11.dtd">
<!-- Generated by graphviz version 2.40.1 (20161225.0304)
 -->
<!-- Title: /home/jihuan/Projects/deal.ii/program/dealii&#45;9.1.1/examples/laplace&#45;bem/tests/hmatrix&#45;truncate&#45;to&#45;fixed&#45;rank/hmatrix&#45;truncate&#45;to&#45;fixed&#45;rank.cc Pages: 1 -->
<svg width="2616pt" height="497pt"
 viewBox="0.00 0.00 2616.00 497.00" xmlns="http://www.w3.org/2000/svg" xmlns:xlink="http://www.w3.org/1999/xlink">
<g id="graph0" class="graph" transform="scale(1 1) rotate(0) translate(4 493)">
<title>/home/jihuan/Projects/deal.ii/program/dealii&#45;9.1.1/examples/laplace&#45;bem/tests/hmatrix&#45;truncate&#45;to&#45;fixed&#45;rank/hmatrix&#45;truncate&#45;to&#45;fixed&#45;rank.cc</title>
<!-- Node0 -->
<g id="node1" class="node">
<title>Node0</title>
<polygon fill="#bfbfbf" stroke="#000000" points="1498.5,-414.5 1498.5,-488.5 1645.5,-488.5 1645.5,-414.5 1498.5,-414.5"/>
<text text-anchor="start" x="1506.5" y="-476.5" font-family="Helvetica,sans-Serif" font-size="10.00" fill="#000000">/home/jihuan/Projects</text>
<text text-anchor="start" x="1506.5" y="-465.5" font-family="Helvetica,sans-Serif" font-size="10.00" fill="#000000">/deal.ii/program/dealii</text>
<text text-anchor="start" x="1506.5" y="-454.5" font-family="Helvetica,sans-Serif" font-size="10.00" fill="#000000">&#45;9.1.1/examples/laplace</text>
<text text-anchor="start" x="1506.5" y="-443.5" font-family="Helvetica,sans-Serif" font-size="10.00" fill="#000000">&#45;bem/tests/hmatrix&#45;truncate</text>
<text text-anchor="start" x="1506.5" y="-432.5" font-family="Helvetica,sans-Serif" font-size="10.00" fill="#000000">&#45;to&#45;fixed&#45;rank/hmatrix&#45;truncate</text>
<text text-anchor="middle" x="1572" y="-421.5" font-family="Helvetica,sans-Serif" font-size="10.00" fill="#000000">&#45;to&#45;fixed&#45;rank.cc</text>
</g>
<!-- Node1 -->
<g id="node2" class="node">
<title>Node1</title>
<g id="a_node2"><a xlink:href="hmatrix_8h.html" target="_top" xlink:title="Definition of hierarchical matrix. ">
<polygon fill="none" stroke="#000000" points="1543.5,-358.5 1543.5,-377.5 1600.5,-377.5 1600.5,-358.5 1543.5,-358.5"/>
<text text-anchor="middle" x="1572" y="-365.5" font-family="Helvetica,sans-Serif" font-size="10.00" fill="#000000">hmatrix.h</text>
</a>
</g>
</g>
<!-- Node0&#45;&gt;Node1 -->
<g id="edge1" class="edge">
<title>Node0&#45;&gt;Node1</title>
<path fill="none" stroke="#191970" d="M1572,-414.1461C1572,-405.0558 1572,-395.6845 1572,-387.7816"/>
<polygon fill="#191970" stroke="#191970" points="1575.5001,-387.7701 1572,-377.7701 1568.5001,-387.7702 1575.5001,-387.7701"/>
</g>
<!-- Node2 -->
<g id="node3" class="node">
<title>Node2</title>
<polygon fill="none" stroke="#bfbfbf" points="0,-302.5 0,-321.5 122,-321.5 122,-302.5 0,-302.5"/>
<text text-anchor="middle" x="61" y="-309.5" font-family="Helvetica,sans-Serif" font-size="10.00" fill="#000000">deal.II/base/logstream.h</text>
</g>
<!-- Node1&#45;&gt;Node2 -->
<g id="edge2" class="edge">
<title>Node1&#45;&gt;Node2</title>
<path fill="none" stroke="#191970" d="M1543.2535,-367.4741C1366.3858,-364.1788 423.8976,-345.7438 136,-322 134.8872,-321.9082 133.7656,-321.8115 132.6371,-321.7103"/>
<polygon fill="#191970" stroke="#191970" points="132.6372,-318.1932 122.3406,-320.6895 131.9465,-325.1591 132.6372,-318.1932"/>
</g>
<!-- Node3 -->
<g id="node4" class="node">
<title>Node3</title>
<polygon fill="none" stroke="#bfbfbf" points="299,-118 299,-137 415,-137 415,-118 299,-118"/>
<text text-anchor="middle" x="357" y="-125" font-family="Helvetica,sans-Serif" font-size="10.00" fill="#000000">deal.II/lac/full_matrix.h</text>
</g>
<!-- Node1&#45;&gt;Node3 -->
<g id="edge3" class="edge">
<title>Node1&#45;&gt;Node3</title>
<path fill="none" stroke="#191970" d="M1543.4336,-367.5045C1360.9805,-364.2719 364.464,-345.5826 305,-322 234.7503,-294.1399 169.4801,-240.7837 213,-179 223.971,-163.4249 267.8934,-149.1281 304.3759,-139.571"/>
<polygon fill="#191970" stroke="#191970" points="305.611,-142.868 314.435,-137.0039 303.8801,-136.0854 305.611,-142.868"/>
</g>
<!-- Node4 -->
<g id="node5" class="node">
<title>Node4</title>
<polygon fill="none" stroke="#bfbfbf" points="1538,-56.5 1538,-75.5 1594,-75.5 1594,-56.5 1538,-56.5"/>
<text text-anchor="middle" x="1566" y="-63.5" font-family="Helvetica,sans-Serif" font-size="10.00" fill="#000000">algorithm</text>
</g>
<!-- Node1&#45;&gt;Node4 -->
<g id="edge4" class="edge">
<title>Node1&#45;&gt;Node4</title>
<path fill="none" stroke="#191970" d="M1585.3354,-358.3476C1608.7976,-340.1313 1655,-298.2031 1655,-250.5 1655,-250.5 1655,-250.5 1655,-189 1655,-143.3347 1614.2379,-103.144 1587.8858,-81.9326"/>
<polygon fill="#191970" stroke="#191970" points="1589.9495,-79.1038 1579.9063,-75.7299 1585.6535,-84.6304 1589.9495,-79.1038"/>
</g>
<!-- Node5 -->
<g id="node6" class="node">
<title>Node5</title>
<polygon fill="none" stroke="#bfbfbf" points="2558,-302.5 2558,-321.5 2608,-321.5 2608,-302.5 2558,-302.5"/>
<text text-anchor="middle" x="2583" y="-309.5" font-family="Helvetica,sans-Serif" font-size="10.00" fill="#000000">fstream</text>
</g>
<!-- Node1&#45;&gt;Node5 -->
<g id="edge5" class="edge">
<title>Node1&#45;&gt;Node5</title>
<path fill="none" stroke="#191970" d="M1600.6726,-367.4312C1740.8617,-364.5302 2355.0096,-350.3981 2544,-322 2545.2831,-321.8072 2546.5852,-321.5898 2547.8967,-321.3523"/>
<polygon fill="#191970" stroke="#191970" points="2548.9218,-324.7129 2557.979,-319.2159 2547.4707,-317.865 2548.9218,-324.7129"/>
</g>
<!-- Node6 -->
<g id="node7" class="node">
<title>Node6</title>
<polygon fill="none" stroke="#bfbfbf" points="2052,-56.5 2052,-75.5 2106,-75.5 2106,-56.5 2052,-56.5"/>
<text text-anchor="middle" x="2079" y="-63.5" font-family="Helvetica,sans-Serif" font-size="10.00" fill="#000000">iostream</text>
</g>
<!-- Node1&#45;&gt;Node6 -->
<g id="edge6" class="edge">
<title>Node1&#45;&gt;Node6</title>
<path fill="none" stroke="#191970" d="M1600.7987,-366.9682C1702.3972,-362.5581 2038,-341.1312 2038,-250.5 2038,-250.5 2038,-250.5 2038,-189 2038,-150.1996 2056.5888,-107.8844 2068.7333,-84.3792"/>
<polygon fill="#191970" stroke="#191970" points="2071.8404,-85.991 2073.4706,-75.5223 2065.6678,-82.6895 2071.8404,-85.991"/>
</g>
<!-- Node7 -->
<g id="node8" class="node">
<title>Node7</title>
<polygon fill="none" stroke="#bfbfbf" points="222.5,-179.5 222.5,-198.5 257.5,-198.5 257.5,-179.5 222.5,-179.5"/>
<text text-anchor="middle" x="240" y="-186.5" font-family="Helvetica,sans-Serif" font-size="10.00" fill="#000000">map</text>
</g>
<!-- Node1&#45;&gt;Node7 -->
<g id="edge7" class="edge">
<title>Node1&#45;&gt;Node7</title>
<path fill="none" stroke="#191970" d="M1543.3598,-367.3611C1376.5065,-363.5716 533.3241,-343.4801 420,-322 345.5648,-307.8912 310.0279,-321.9983 259,-266 244.7738,-250.3881 240.7746,-225.8386 239.8541,-208.6681"/>
<polygon fill="#191970" stroke="#191970" points="243.352,-208.533 239.6172,-198.6183 236.3539,-208.698 243.352,-208.533"/>
</g>
<!-- Node8 -->
<g id="node9" class="node">
<title>Node8</title>
<polygon fill="none" stroke="#bfbfbf" points="2460.5,-56.5 2460.5,-75.5 2501.5,-75.5 2501.5,-56.5 2460.5,-56.5"/>
<text text-anchor="middle" x="2481" y="-63.5" font-family="Helvetica,sans-Serif" font-size="10.00" fill="#000000">string</text>
</g>
<!-- Node1&#45;&gt;Node8 -->
<g id="edge8" class="edge">
<title>Node1&#45;&gt;Node8</title>
<path fill="none" stroke="#191970" d="M1600.5109,-366.8196C1741.7831,-360.6011 2360,-328.9091 2360,-250.5 2360,-250.5 2360,-250.5 2360,-189 2360,-137.0295 2415.5757,-99.0075 2451.3977,-79.8979"/>
<polygon fill="#191970" stroke="#191970" points="2453.1809,-82.9166 2460.474,-75.2315 2449.9802,-76.6912 2453.1809,-82.9166"/>
</g>
<!-- Node9 -->
<g id="node10" class="node">
<title>Node9</title>
<polygon fill="none" stroke="#bfbfbf" points="2461,-.5 2461,-19.5 2501,-19.5 2501,-.5 2461,-.5"/>
<text text-anchor="middle" x="2481" y="-7.5" font-family="Helvetica,sans-Serif" font-size="10.00" fill="#000000">utility</text>
</g>
<!-- Node1&#45;&gt;Node9 -->
<g id="edge9" class="edge">
<title>Node1&#45;&gt;Node9</title>
<path fill="none" stroke="#191970" d="M1600.671,-367.574C1760.0705,-364.8371 2530,-346.6409 2530,-250.5 2530,-250.5 2530,-250.5 2530,-127.5 2530,-94.6194 2524.3719,-86.0388 2511,-56 2506.6615,-46.2539 2500.3845,-36.2399 2494.6923,-28.0539"/>
<polygon fill="#191970" stroke="#191970" points="2497.3459,-25.7506 2488.6487,-19.7001 2491.6745,-29.8537 2497.3459,-25.7506"/>
</g>
<!-- Node10 -->
<g id="node11" class="node">
<title>Node10</title>
<polygon fill="none" stroke="#bfbfbf" points="1240,-.5 1240,-19.5 1284,-19.5 1284,-.5 1240,-.5"/>
<text text-anchor="middle" x="1262" y="-7.5" font-family="Helvetica,sans-Serif" font-size="10.00" fill="#000000">vector</text>
</g>
<!-- Node1&#45;&gt;Node10 -->
<g id="edge10" class="edge">
<title>Node1&#45;&gt;Node10</title>
<path fill="none" stroke="#191970" d="M1567.039,-358.4425C1554.2655,-333.2281 1520.4473,-262.4801 1509,-199 1507.4225,-190.2522 1504.9105,-186.8923 1509,-179 1521.7644,-154.3657 1547.2356,-167.6343 1560,-143 1566.3387,-130.7669 1569.0732,-122.3684 1560,-112 1480.5658,-21.227 1387.3945,-148.5095 1291,-76 1276.3519,-64.9815 1268.9726,-44.9696 1265.3394,-29.8604"/>
<polygon fill="#191970" stroke="#191970" points="1268.7397,-29.0187 1263.3055,-19.9237 1261.8819,-30.4224 1268.7397,-29.0187"/>
</g>
<!-- Node11 -->
<g id="node12" class="node">
<title>Node11</title>
<g id="a_node12"><a xlink:href="block__cluster_8h.html" target="_top" xlink:title="Implementation of the class BlockCluster. ">
<polygon fill="none" stroke="#000000" points="1683.5,-241 1683.5,-260 1766.5,-260 1766.5,-241 1683.5,-241"/>
<text text-anchor="middle" x="1725" y="-248" font-family="Helvetica,sans-Serif" font-size="10.00" fill="#000000">block_cluster.h</text>
</a>
</g>
</g>
<!-- Node1&#45;&gt;Node11 -->
<g id="edge11" class="edge">
<title>Node1&#45;&gt;Node11</title>
<path fill="none" stroke="#191970" d="M1600.7121,-358.4286C1621.1352,-350.7012 1648.4768,-338.4137 1669,-322 1687.661,-307.0757 1703.8528,-284.7647 1713.9592,-269.0426"/>
<polygon fill="#191970" stroke="#191970" points="1717.1299,-270.5713 1719.4332,-260.2298 1711.1836,-266.8778 1717.1299,-270.5713"/>
</g>
<!-- Node30 -->
<g id="node31" class="node">
<title>Node30</title>
<g id="a_node31"><a xlink:href="block__cluster__tree_8h.html" target="_top" xlink:title="Implementation of the class BlockClusterTree. ">
<polygon fill="none" stroke="#000000" points="1732,-302.5 1732,-321.5 1836,-321.5 1836,-302.5 1732,-302.5"/>
<text text-anchor="middle" x="1784" y="-309.5" font-family="Helvetica,sans-Serif" font-size="10.00" fill="#000000">block_cluster_tree.h</text>
</a>
</g>
</g>
<!-- Node1&#45;&gt;Node30 -->
<g id="edge43" class="edge">
<title>Node1&#45;&gt;Node30</title>
<path fill="none" stroke="#191970" d="M1600.5913,-360.4476C1635.8526,-351.1333 1696.2423,-335.1813 1738.0434,-324.1395"/>
<polygon fill="#191970" stroke="#191970" points="1738.9414,-327.5224 1747.7159,-321.5845 1737.1536,-320.7545 1738.9414,-327.5224"/>
</g>
<!-- Node31 -->
<g id="node32" class="node">
<title>Node31</title>
<g id="a_node32"><a xlink:href="lapack__full__matrix__ext_8h_source.html" target="_top" xlink:title="lapack_full_matrix\l_ext.h">
<polygon fill="none" stroke="#000000" points="848.5,-235.5 848.5,-265.5 943.5,-265.5 943.5,-235.5 848.5,-235.5"/>
<text text-anchor="start" x="856.5" y="-253.5" font-family="Helvetica,sans-Serif" font-size="10.00" fill="#000000">lapack_full_matrix</text>
<text text-anchor="middle" x="896" y="-242.5" font-family="Helvetica,sans-Serif" font-size="10.00" fill="#000000">_ext.h</text>
</a>
</g>
</g>
<!-- Node1&#45;&gt;Node31 -->
<g id="edge69" class="edge">
<title>Node1&#45;&gt;Node31</title>
<path fill="none" stroke="#191970" d="M1543.3849,-363.0262C1441.1505,-345.2562 1092.6607,-284.6829 953.794,-260.5456"/>
<polygon fill="#191970" stroke="#191970" points="954.2213,-257.0674 943.7696,-258.8031 953.0225,-263.964 954.2213,-257.0674"/>
</g>
<!-- Node44 -->
<g id="node45" class="node">
<title>Node44</title>
<g id="a_node45"><a xlink:href="generic__functors_8h.html" target="_top" xlink:title="This header file contains a set of self&#45;defined generic functors. ">
<polygon fill="none" stroke="#000000" points="62.5,-241 62.5,-260 159.5,-260 159.5,-241 62.5,-241"/>
<text text-anchor="middle" x="111" y="-248" font-family="Helvetica,sans-Serif" font-size="10.00" fill="#000000">generic_functors.h</text>
</a>
</g>
</g>
<!-- Node1&#45;&gt;Node44 -->
<g id="edge65" class="edge">
<title>Node1&#45;&gt;Node44</title>
<path fill="none" stroke="#191970" d="M1543.2981,-367.7005C1349.5147,-365.5985 238.1409,-352.2513 174,-322 150.264,-310.8052 131.7548,-286.0319 121.1082,-268.8056"/>
<polygon fill="#191970" stroke="#191970" points="124.1034,-266.994 116.0192,-260.1459 118.0683,-270.5407 124.1034,-266.994"/>
</g>
<!-- Node45 -->
<g id="node46" class="node">
<title>Node45</title>
<g id="a_node46"><a xlink:href="rkmatrix_8h.html" target="_top" xlink:title="Definition of rank&#45;k matrix. ">
<polygon fill="none" stroke="#000000" points="429,-302.5 429,-321.5 489,-321.5 489,-302.5 429,-302.5"/>
<text text-anchor="middle" x="459" y="-309.5" font-family="Helvetica,sans-Serif" font-size="10.00" fill="#000000">rkmatrix.h</text>
</a>
</g>
</g>
<!-- Node1&#45;&gt;Node45 -->
<g id="edge70" class="edge">
<title>Node1&#45;&gt;Node45</title>
<path fill="none" stroke="#191970" d="M1543.369,-366.5594C1391.2359,-358.905 677.8633,-323.012 499.5002,-314.0377"/>
<polygon fill="#191970" stroke="#191970" points="499.4116,-310.5289 489.2483,-313.5219 499.0597,-317.5201 499.4116,-310.5289"/>
</g>
<!-- Node12 -->
<g id="node13" class="node">
<title>Node12</title>
<g id="a_node13"><a xlink:href="cluster_8h.html" target="_top" xlink:title="Implementation of the class Cluster. ">
<polygon fill="none" stroke="#000000" points="1683,-118 1683,-137 1737,-137 1737,-118 1683,-118"/>
<text text-anchor="middle" x="1710" y="-125" font-family="Helvetica,sans-Serif" font-size="10.00" fill="#000000">cluster.h</text>
</a>
</g>
</g>
<!-- Node11&#45;&gt;Node12 -->
<g id="edge12" class="edge">
<title>Node11&#45;&gt;Node12</title>
<path fill="none" stroke="#191970" d="M1723.823,-240.8484C1721.3695,-220.7295 1715.666,-173.9608 1712.4036,-147.2098"/>
<polygon fill="#191970" stroke="#191970" points="1715.8564,-146.6095 1711.1716,-137.1068 1708.9079,-147.4569 1715.8564,-146.6095"/>
</g>
<!-- Node20 -->
<g id="node21" class="node">
<title>Node20</title>
<g id="a_node21"><a xlink:href="cluster__tree_8h_source.html" target="_top" xlink:title="cluster_tree.h">
<polygon fill="none" stroke="#000000" points="1738,-179.5 1738,-198.5 1814,-198.5 1814,-179.5 1738,-179.5"/>
<text text-anchor="middle" x="1776" y="-186.5" font-family="Helvetica,sans-Serif" font-size="10.00" fill="#000000">cluster_tree.h</text>
</a>
</g>
</g>
<!-- Node11&#45;&gt;Node20 -->
<g id="edge24" class="edge">
<title>Node11&#45;&gt;Node20</title>
<path fill="none" stroke="#191970" d="M1732.9688,-240.8906C1740.5591,-231.7376 1752.1661,-217.7409 1761.4132,-206.59"/>
<polygon fill="#191970" stroke="#191970" points="1764.2297,-208.6766 1767.9189,-198.7449 1758.8413,-204.2083 1764.2297,-208.6766"/>
</g>
<!-- Node12&#45;&gt;Node4 -->
<g id="edge14" class="edge">
<title>Node12&#45;&gt;Node4</title>
<path fill="none" stroke="#191970" d="M1687.5,-117.8906C1663.4062,-107.6005 1624.9787,-91.1888 1597.7992,-79.5809"/>
<polygon fill="#191970" stroke="#191970" points="1598.9131,-76.2508 1588.342,-75.5419 1596.1637,-82.6883 1598.9131,-76.2508"/>
</g>
<!-- Node12&#45;&gt;Node10 -->
<g id="edge16" class="edge">
<title>Node12&#45;&gt;Node10</title>
<path fill="none" stroke="#191970" d="M1682.5781,-123.8625C1658.8677,-120.7184 1623.6731,-116.0542 1593,-112 1471.6715,-95.9636 1427.9562,-133.6475 1320,-76 1299.4967,-65.0514 1282.8529,-43.7538 1272.738,-28.3059"/>
<polygon fill="#191970" stroke="#191970" points="1275.5657,-26.2255 1267.3076,-19.5881 1269.6241,-29.9266 1275.5657,-26.2255"/>
</g>
<!-- Node13 -->
<g id="node14" class="node">
<title>Node13</title>
<polygon fill="none" stroke="#bfbfbf" points="139.5,-56.5 139.5,-75.5 242.5,-75.5 242.5,-56.5 139.5,-56.5"/>
<text text-anchor="middle" x="191" y="-63.5" font-family="Helvetica,sans-Serif" font-size="10.00" fill="#000000">deal.II/base/types.h</text>
</g>
<!-- Node12&#45;&gt;Node13 -->
<g id="edge13" class="edge">
<title>Node12&#45;&gt;Node13</title>
<path fill="none" stroke="#191970" d="M1682.9507,-124.1339C1652.9523,-120.5343 1603.0969,-114.9472 1560,-112 1056.2082,-77.5484 446.2825,-68.601 252.907,-66.5513"/>
<polygon fill="#191970" stroke="#191970" points="252.6954,-63.049 242.6596,-66.445 252.6228,-70.0486 252.6954,-63.049"/>
</g>
<!-- Node14 -->
<g id="node15" class="node">
<title>Node14</title>
<polygon fill="none" stroke="#bfbfbf" points="1328.5,-56.5 1328.5,-75.5 1375.5,-75.5 1375.5,-56.5 1328.5,-56.5"/>
<text text-anchor="middle" x="1352" y="-63.5" font-family="Helvetica,sans-Serif" font-size="10.00" fill="#000000">iterator</text>
</g>
<!-- Node12&#45;&gt;Node14 -->
<g id="edge15" class="edge">
<title>Node12&#45;&gt;Node14</title>
<path fill="none" stroke="#191970" d="M1682.7457,-123.673C1618.4588,-114.5706 1457.9519,-91.3863 1385.6882,-75.8387"/>
<polygon fill="#191970" stroke="#191970" points="1386.2113,-72.3693 1375.6886,-73.6027 1384.6838,-79.2006 1386.2113,-72.3693"/>
</g>
<!-- Node15 -->
<g id="node16" class="node">
<title>Node15</title>
<g id="a_node16"><a xlink:href="simple__bounding__box_8h_source.html" target="_top" xlink:title="simple_bounding_box.h">
<polygon fill="none" stroke="#000000" points="1650.5,-56.5 1650.5,-75.5 1769.5,-75.5 1769.5,-56.5 1650.5,-56.5"/>
<text text-anchor="middle" x="1710" y="-63.5" font-family="Helvetica,sans-Serif" font-size="10.00" fill="#000000">simple_bounding_box.h</text>
</a>
</g>
</g>
<!-- Node12&#45;&gt;Node15 -->
<g id="edge17" class="edge">
<title>Node12&#45;&gt;Node15</title>
<path fill="none" stroke="#191970" d="M1710,-117.8906C1710,-109.3657 1710,-96.6392 1710,-85.9235"/>
<polygon fill="#191970" stroke="#191970" points="1713.5001,-85.7448 1710,-75.7449 1706.5001,-85.7449 1713.5001,-85.7448"/>
</g>
<!-- Node15&#45;&gt;Node9 -->
<g id="edge22" class="edge">
<title>Node15&#45;&gt;Node9</title>
<path fill="none" stroke="#191970" d="M1769.8002,-57.0111C1772.9085,-56.6448 1775.9893,-56.3044 1779,-56 2055.385,-28.0521 2126.3949,-45.6784 2403,-20 2418.8615,-18.5275 2436.4676,-16.3199 2450.9331,-14.3532"/>
<polygon fill="#191970" stroke="#191970" points="2451.4176,-17.8196 2460.8413,-12.9777 2450.455,-10.8861 2451.4176,-17.8196"/>
</g>
<!-- Node15&#45;&gt;Node10 -->
<g id="edge23" class="edge">
<title>Node15&#45;&gt;Node10</title>
<path fill="none" stroke="#191970" d="M1650.2337,-57.8612C1645.4189,-57.2245 1640.6286,-56.5974 1636,-56 1509.6993,-39.6996 1359.226,-21.5912 1294.3705,-13.8495"/>
<polygon fill="#191970" stroke="#191970" points="1294.6981,-10.3638 1284.354,-12.655 1293.8692,-17.3146 1294.6981,-10.3638"/>
</g>
<!-- Node16 -->
<g id="node17" class="node">
<title>Node16</title>
<polygon fill="none" stroke="#bfbfbf" points="1660,-.5 1660,-19.5 1760,-19.5 1760,-.5 1660,-.5"/>
<text text-anchor="middle" x="1710" y="-7.5" font-family="Helvetica,sans-Serif" font-size="10.00" fill="#000000">deal.II/base/point.h</text>
</g>
<!-- Node15&#45;&gt;Node16 -->
<g id="edge18" class="edge">
<title>Node15&#45;&gt;Node16</title>
<path fill="none" stroke="#191970" d="M1710,-56.2455C1710,-48.9382 1710,-38.6944 1710,-29.7046"/>
<polygon fill="#191970" stroke="#191970" points="1713.5001,-29.6426 1710,-19.6427 1706.5001,-29.6427 1713.5001,-29.6426"/>
</g>
<!-- Node17 -->
<g id="node18" class="node">
<title>Node17</title>
<polygon fill="none" stroke="#bfbfbf" points="1873.5,-.5 1873.5,-19.5 2000.5,-19.5 2000.5,-.5 1873.5,-.5"/>
<text text-anchor="middle" x="1937" y="-7.5" font-family="Helvetica,sans-Serif" font-size="10.00" fill="#000000">deal.II/dofs/dof_handler.h</text>
</g>
<!-- Node15&#45;&gt;Node17 -->
<g id="edge19" class="edge">
<title>Node15&#45;&gt;Node17</title>
<path fill="none" stroke="#191970" d="M1748.7648,-56.4369C1787.3692,-46.9133 1846.7384,-32.2672 1888.4572,-21.9753"/>
<polygon fill="#191970" stroke="#191970" points="1889.5245,-25.317 1898.3951,-19.5237 1887.8479,-18.5208 1889.5245,-25.317"/>
</g>
<!-- Node18 -->
<g id="node19" class="node">
<title>Node18</title>
<polygon fill="none" stroke="#bfbfbf" points="2066,-.5 2066,-19.5 2182,-19.5 2182,-.5 2066,-.5"/>
<text text-anchor="middle" x="2124" y="-7.5" font-family="Helvetica,sans-Serif" font-size="10.00" fill="#000000">deal.II/dofs/dof_tools.h</text>
</g>
<!-- Node15&#45;&gt;Node18 -->
<g id="edge20" class="edge">
<title>Node15&#45;&gt;Node18</title>
<path fill="none" stroke="#191970" d="M1769.8332,-57.286C1772.9329,-56.8479 1776.0028,-56.417 1779,-56 1875.1191,-42.6273 1986.4185,-27.9292 2056.0221,-18.8318"/>
<polygon fill="#191970" stroke="#191970" points="2056.5197,-22.2966 2065.9822,-17.531 2055.6131,-15.3555 2056.5197,-22.2966"/>
</g>
<!-- Node19 -->
<g id="node20" class="node">
<title>Node19</title>
<polygon fill="none" stroke="#bfbfbf" points="2290.5,-.5 2290.5,-19.5 2393.5,-19.5 2393.5,-.5 2290.5,-.5"/>
<text text-anchor="middle" x="2342" y="-7.5" font-family="Helvetica,sans-Serif" font-size="10.00" fill="#000000">deal.II/fe/mapping.h</text>
</g>
<!-- Node15&#45;&gt;Node19 -->
<g id="edge21" class="edge">
<title>Node15&#45;&gt;Node19</title>
<path fill="none" stroke="#191970" d="M1769.8096,-57.0989C1772.9155,-56.7097 1775.9931,-56.3404 1779,-56 1874.6111,-45.1764 2154.4501,-23.9175 2279.903,-14.5812"/>
<polygon fill="#191970" stroke="#191970" points="2280.3968,-18.0542 2290.1099,-13.8225 2279.8779,-11.0735 2280.3968,-18.0542"/>
</g>
<!-- Node20&#45;&gt;Node12 -->
<g id="edge25" class="edge">
<title>Node20&#45;&gt;Node12</title>
<path fill="none" stroke="#191970" d="M1765.6875,-179.3906C1755.5758,-169.9683 1739.9558,-155.4134 1727.8293,-144.1137"/>
<polygon fill="#191970" stroke="#191970" points="1730.1601,-141.5015 1720.4579,-137.2449 1725.388,-146.6228 1730.1601,-141.5015"/>
</g>
<!-- Node21 -->
<g id="node22" class="node">
<title>Node21</title>
<g id="a_node22"><a xlink:href="debug__tools_8h.html" target="_top" xlink:title="This file includes a bunch of helper functions for printing out and visualizing information about gri...">
<polygon fill="none" stroke="#000000" points="2133.5,-118 2133.5,-137 2210.5,-137 2210.5,-118 2133.5,-118"/>
<text text-anchor="middle" x="2172" y="-125" font-family="Helvetica,sans-Serif" font-size="10.00" fill="#000000">debug_tools.h</text>
</a>
</g>
</g>
<!-- Node20&#45;&gt;Node21 -->
<g id="edge26" class="edge">
<title>Node20&#45;&gt;Node21</title>
<path fill="none" stroke="#191970" d="M1814.33,-183.0472C1886.6846,-171.8104 2043.2706,-147.4921 2123.0855,-135.0966"/>
<polygon fill="#191970" stroke="#191970" points="2124.0128,-138.4946 2133.3572,-133.5013 2122.9385,-131.5775 2124.0128,-138.4946"/>
</g>
<!-- Node24 -->
<g id="node25" class="node">
<title>Node24</title>
<g id="a_node25"><a xlink:href="tree_8h.html" target="_top" xlink:title="Implementation of the classes for binary tree node, general tree node and functions for manipulating ...">
<polygon fill="none" stroke="#000000" points="1802.5,-118 1802.5,-137 1843.5,-137 1843.5,-118 1802.5,-118"/>
<text text-anchor="middle" x="1823" y="-125" font-family="Helvetica,sans-Serif" font-size="10.00" fill="#000000">tree.h</text>
</a>
</g>
</g>
<!-- Node20&#45;&gt;Node24 -->
<g id="edge34" class="edge">
<title>Node20&#45;&gt;Node24</title>
<path fill="none" stroke="#191970" d="M1783.3438,-179.3906C1790.2702,-170.3273 1800.826,-156.5149 1809.306,-145.4188"/>
<polygon fill="#191970" stroke="#191970" points="1812.2615,-147.3155 1815.5527,-137.2449 1806.6997,-143.065 1812.2615,-147.3155"/>
</g>
<!-- Node21&#45;&gt;Node6 -->
<g id="edge32" class="edge">
<title>Node21&#45;&gt;Node6</title>
<path fill="none" stroke="#191970" d="M2157.4688,-117.8906C2142.5906,-108.0519 2119.2496,-92.6167 2101.8872,-81.1351"/>
<polygon fill="#191970" stroke="#191970" points="2103.701,-78.1385 2093.4292,-75.5419 2099.8398,-83.9773 2103.701,-78.1385"/>
</g>
<!-- Node21&#45;&gt;Node8 -->
<g id="edge33" class="edge">
<title>Node21&#45;&gt;Node8</title>
<path fill="none" stroke="#191970" d="M2210.8071,-121.3689C2264.1172,-112.6824 2362.8594,-95.6462 2446,-76 2447.4607,-75.6548 2448.9515,-75.2877 2450.4545,-74.9055"/>
<polygon fill="#191970" stroke="#191970" points="2451.6082,-78.2196 2460.355,-72.2411 2449.789,-71.4601 2451.6082,-78.2196"/>
</g>
<!-- Node21&#45;&gt;Node17 -->
<g id="edge27" class="edge">
<title>Node21&#45;&gt;Node17</title>
<path fill="none" stroke="#191970" d="M2167.1022,-117.9895C2158.6382,-102.5306 2139.7739,-72.0662 2115,-56 2083.9236,-35.8466 2044.4454,-24.5121 2010.5681,-18.1425"/>
<polygon fill="#191970" stroke="#191970" points="2011.1701,-14.6947 2000.713,-16.3976 2009.9496,-21.5875 2011.1701,-14.6947"/>
</g>
<!-- Node21&#45;&gt;Node18 -->
<g id="edge28" class="edge">
<title>Node21&#45;&gt;Node18</title>
<path fill="none" stroke="#191970" d="M2169.2155,-117.6045C2165.1648,-103.6358 2157.127,-77.4456 2148,-56 2144.0449,-46.7067 2138.9504,-36.7298 2134.4732,-28.4508"/>
<polygon fill="#191970" stroke="#191970" points="2137.5102,-26.7102 2129.6063,-19.6547 2131.3853,-30.0991 2137.5102,-26.7102"/>
</g>
<!-- Node21&#45;&gt;Node19 -->
<g id="edge31" class="edge">
<title>Node21&#45;&gt;Node19</title>
<path fill="none" stroke="#191970" d="M2210.5902,-124.9932C2272.0929,-120.1047 2387.9762,-106.9362 2413,-76 2429.1192,-56.0723 2400.9313,-36.4964 2375.4489,-23.9065"/>
<polygon fill="#191970" stroke="#191970" points="2376.8096,-20.6788 2366.2701,-19.5965 2373.8342,-27.015 2376.8096,-20.6788"/>
</g>
<!-- Node22 -->
<g id="node23" class="node">
<title>Node22</title>
<polygon fill="none" stroke="#bfbfbf" points="2200,-56.5 2200,-75.5 2274,-75.5 2274,-56.5 2200,-56.5"/>
<text text-anchor="middle" x="2237" y="-63.5" font-family="Helvetica,sans-Serif" font-size="10.00" fill="#000000">deal.II/fe/fe.h</text>
</g>
<!-- Node21&#45;&gt;Node22 -->
<g id="edge29" class="edge">
<title>Node21&#45;&gt;Node22</title>
<path fill="none" stroke="#191970" d="M2182.1563,-117.8906C2192.0199,-108.5581 2207.2055,-94.1902 2219.0987,-82.9374"/>
<polygon fill="#191970" stroke="#191970" points="2221.8421,-85.1601 2226.7006,-75.7449 2217.0311,-80.0753 2221.8421,-85.1601"/>
</g>
<!-- Node23 -->
<g id="node24" class="node">
<title>Node23</title>
<polygon fill="none" stroke="#bfbfbf" points="2292,-56.5 2292,-75.5 2404,-75.5 2404,-56.5 2292,-56.5"/>
<text text-anchor="middle" x="2348" y="-63.5" font-family="Helvetica,sans-Serif" font-size="10.00" fill="#000000">deal.II/fe/fe_system.h</text>
</g>
<!-- Node21&#45;&gt;Node23 -->
<g id="edge30" class="edge">
<title>Node21&#45;&gt;Node23</title>
<path fill="none" stroke="#191970" d="M2199.5,-117.8906C2229.4647,-107.42 2277.5683,-90.6111 2310.8698,-78.9745"/>
<polygon fill="#191970" stroke="#191970" points="2312.4074,-82.1448 2320.6931,-75.5419 2310.0983,-75.5366 2312.4074,-82.1448"/>
</g>
<!-- Node24&#45;&gt;Node4 -->
<g id="edge36" class="edge">
<title>Node24&#45;&gt;Node4</title>
<path fill="none" stroke="#191970" d="M1802.403,-122.5712C1759.3442,-112.2672 1659.2391,-88.3121 1604.1087,-75.1194"/>
<polygon fill="#191970" stroke="#191970" points="1604.9019,-71.7105 1594.3619,-72.787 1603.2728,-78.5183 1604.9019,-71.7105"/>
</g>
<!-- Node24&#45;&gt;Node6 -->
<g id="edge40" class="edge">
<title>Node24&#45;&gt;Node6</title>
<path fill="none" stroke="#191970" d="M1843.6939,-122.953C1881.1644,-114.6567 1962.9564,-96.2584 2041.8075,-76.2323"/>
<polygon fill="#191970" stroke="#191970" points="2043.0816,-79.5194 2051.905,-73.6545 2041.35,-72.7369 2043.0816,-79.5194"/>
</g>
<!-- Node24&#45;&gt;Node10 -->
<g id="edge42" class="edge">
<title>Node24&#45;&gt;Node10</title>
<path fill="none" stroke="#191970" d="M1802.4824,-123.0533C1768.4652,-115.3749 1698.5331,-98.2874 1642,-76 1623.8778,-68.8556 1621.5866,-61.8305 1603,-56 1493.3081,-21.5906 1355.8324,-12.9199 1294.3335,-10.7354"/>
<polygon fill="#191970" stroke="#191970" points="1294.207,-7.2297 1284.1002,-10.4079 1293.9831,-14.2261 1294.207,-7.2297"/>
</g>
<!-- Node25 -->
<g id="node26" class="node">
<title>Node25</title>
<polygon fill="none" stroke="#bfbfbf" points="1394,-56.5 1394,-75.5 1520,-75.5 1520,-56.5 1394,-56.5"/>
<text text-anchor="middle" x="1457" y="-63.5" font-family="Helvetica,sans-Serif" font-size="10.00" fill="#000000">deal.II/base/exceptions.h</text>
</g>
<!-- Node24&#45;&gt;Node25 -->
<g id="edge35" class="edge">
<title>Node24&#45;&gt;Node25</title>
<path fill="none" stroke="#191970" d="M1802.454,-123.127C1786.968,-119.8886 1765.1908,-115.4574 1746,-112 1672.7379,-98.8013 1588.6657,-85.6421 1530.158,-76.801"/>
<polygon fill="#191970" stroke="#191970" points="1530.6773,-73.3398 1520.2674,-75.3107 1529.6343,-80.2617 1530.6773,-73.3398"/>
</g>
<!-- Node26 -->
<g id="node27" class="node">
<title>Node26</title>
<polygon fill="none" stroke="#bfbfbf" points="1841,-56.5 1841,-75.5 1879,-75.5 1879,-56.5 1841,-56.5"/>
<text text-anchor="middle" x="1860" y="-63.5" font-family="Helvetica,sans-Serif" font-size="10.00" fill="#000000">array</text>
</g>
<!-- Node24&#45;&gt;Node26 -->
<g id="edge37" class="edge">
<title>Node24&#45;&gt;Node26</title>
<path fill="none" stroke="#191970" d="M1828.7813,-117.8906C1834.126,-109.0068 1842.2159,-95.5601 1848.8211,-84.5811"/>
<polygon fill="#191970" stroke="#191970" points="1851.9811,-86.118 1854.1372,-75.7449 1845.9829,-82.5093 1851.9811,-86.118"/>
</g>
<!-- Node27 -->
<g id="node28" class="node">
<title>Node27</title>
<polygon fill="none" stroke="#bfbfbf" points="1897.5,-56.5 1897.5,-75.5 1956.5,-75.5 1956.5,-56.5 1897.5,-56.5"/>
<text text-anchor="middle" x="1927" y="-63.5" font-family="Helvetica,sans-Serif" font-size="10.00" fill="#000000">exception</text>
</g>
<!-- Node24&#45;&gt;Node27 -->
<g id="edge38" class="edge">
<title>Node24&#45;&gt;Node27</title>
<path fill="none" stroke="#191970" d="M1839.25,-117.8906C1856.1169,-107.9165 1882.7099,-92.1908 1902.2035,-80.6633"/>
<polygon fill="#191970" stroke="#191970" points="1904.038,-83.6447 1910.8641,-75.5419 1900.4749,-77.6194 1904.038,-83.6447"/>
</g>
<!-- Node28 -->
<g id="node29" class="node">
<title>Node28</title>
<polygon fill="none" stroke="#bfbfbf" points="1974.5,-56.5 1974.5,-75.5 2033.5,-75.5 2033.5,-56.5 1974.5,-56.5"/>
<text text-anchor="middle" x="2004" y="-63.5" font-family="Helvetica,sans-Serif" font-size="10.00" fill="#000000">functional</text>
</g>
<!-- Node24&#45;&gt;Node28 -->
<g id="edge39" class="edge">
<title>Node24&#45;&gt;Node28</title>
<path fill="none" stroke="#191970" d="M1843.763,-120.4452C1873.597,-110.3082 1929.0861,-91.4542 1966.2843,-78.815"/>
<polygon fill="#191970" stroke="#191970" points="1967.4447,-82.1173 1975.7871,-75.5862 1965.1927,-75.4894 1967.4447,-82.1173"/>
</g>
<!-- Node29 -->
<g id="node30" class="node">
<title>Node29</title>
<polygon fill="none" stroke="#bfbfbf" points="1787.5,-56.5 1787.5,-75.5 1822.5,-75.5 1822.5,-56.5 1787.5,-56.5"/>
<text text-anchor="middle" x="1805" y="-63.5" font-family="Helvetica,sans-Serif" font-size="10.00" fill="#000000">new</text>
</g>
<!-- Node24&#45;&gt;Node29 -->
<g id="edge41" class="edge">
<title>Node24&#45;&gt;Node29</title>
<path fill="none" stroke="#191970" d="M1820.1875,-117.8906C1817.6661,-109.276 1813.889,-96.3708 1810.7324,-85.5858"/>
<polygon fill="#191970" stroke="#191970" points="1814.0203,-84.3591 1807.8522,-75.7449 1807.3021,-86.3254 1814.0203,-84.3591"/>
</g>
<!-- Node30&#45;&gt;Node11 -->
<g id="edge44" class="edge">
<title>Node30&#45;&gt;Node11</title>
<path fill="none" stroke="#191970" d="M1774.7813,-302.3906C1765.9142,-293.1478 1752.3088,-278.966 1741.5611,-267.7628"/>
<polygon fill="#191970" stroke="#191970" points="1743.7973,-265.0381 1734.3487,-260.2449 1738.7459,-269.8841 1743.7973,-265.0381"/>
</g>
<!-- Node30&#45;&gt;Node20 -->
<g id="edge45" class="edge">
<title>Node30&#45;&gt;Node20</title>
<path fill="none" stroke="#191970" d="M1783.3723,-302.3484C1782.0637,-282.2295 1779.0218,-235.4608 1777.2819,-208.7098"/>
<polygon fill="#191970" stroke="#191970" points="1780.7666,-208.3585 1776.6248,-198.6068 1773.7813,-208.8129 1780.7666,-208.3585"/>
</g>
<!-- Node30&#45;&gt;Node21 -->
<g id="edge46" class="edge">
<title>Node30&#45;&gt;Node21</title>
<path fill="none" stroke="#191970" d="M1804.0435,-302.469C1867.9032,-272.1027 2066.8166,-177.5163 2142.4281,-141.5619"/>
<polygon fill="#191970" stroke="#191970" points="2144.3156,-144.54 2151.8435,-137.0847 2141.3095,-138.2183 2144.3156,-144.54"/>
</g>
<!-- Node30&#45;&gt;Node24 -->
<g id="edge64" class="edge">
<title>Node30&#45;&gt;Node24</title>
<path fill="none" stroke="#191970" d="M1788.5828,-302.3136C1797.3774,-283.1269 1816.3406,-238.7074 1823,-199 1825.8837,-181.8054 1825.6032,-161.956 1824.7624,-147.5406"/>
<polygon fill="#191970" stroke="#191970" points="1828.2339,-147.0191 1824.0178,-137.2993 1821.2523,-147.5268 1828.2339,-147.0191"/>
</g>
<!-- Node30&#45;&gt;Node31 -->
<g id="edge47" class="edge">
<title>Node30&#45;&gt;Node31</title>
<path fill="none" stroke="#191970" d="M1731.7668,-308.3825C1576.1572,-297.6055 1116.421,-265.7656 953.8002,-254.5031"/>
<polygon fill="#191970" stroke="#191970" points="953.7426,-250.9908 943.5247,-253.7914 953.2589,-257.974 953.7426,-250.9908"/>
</g>
<!-- Node31&#45;&gt;Node7 -->
<g id="edge49" class="edge">
<title>Node31&#45;&gt;Node7</title>
<path fill="none" stroke="#191970" d="M848.2937,-246.0275C719.7122,-233.973 368.8452,-201.0792 267.6564,-191.5928"/>
<polygon fill="#191970" stroke="#191970" points="267.8957,-188.1 257.6126,-190.6512 267.2422,-195.0694 267.8957,-188.1"/>
</g>
<!-- Node31&#45;&gt;Node10 -->
<g id="edge50" class="edge">
<title>Node31&#45;&gt;Node10</title>
<path fill="none" stroke="#191970" d="M848.499,-245.9725C746.0392,-235.1234 509.6578,-203.9027 462,-143 453.5092,-132.1495 452.8945,-122.3401 462,-112 513.7422,-53.2418 1085.78,-19.2945 1229.4264,-11.6578"/>
<polygon fill="#191970" stroke="#191970" points="1229.9617,-15.1346 1239.7643,-11.1146 1229.5943,-8.1443 1229.9617,-15.1346"/>
</g>
<!-- Node32 -->
<g id="node33" class="node">
<title>Node32</title>
<polygon fill="none" stroke="#bfbfbf" points="834,-179.5 834,-198.5 874,-198.5 874,-179.5 834,-179.5"/>
<text text-anchor="middle" x="854" y="-186.5" font-family="Helvetica,sans-Serif" font-size="10.00" fill="#000000">limits</text>
</g>
<!-- Node31&#45;&gt;Node32 -->
<g id="edge48" class="edge">
<title>Node31&#45;&gt;Node32</title>
<path fill="none" stroke="#191970" d="M885.618,-235.2977C879.8487,-226.8498 872.6284,-216.2773 866.5447,-207.369"/>
<polygon fill="#191970" stroke="#191970" points="869.2547,-205.1311 860.7247,-198.8469 863.4741,-209.0788 869.2547,-205.1311"/>
</g>
<!-- Node33 -->
<g id="node34" class="node">
<title>Node33</title>
<g id="a_node34"><a xlink:href="general__exceptions_8h.html" target="_top" xlink:title="Definition of self&#45;defined general exceptions. ">
<polygon fill="none" stroke="#000000" points="1517.5,-179.5 1517.5,-198.5 1626.5,-198.5 1626.5,-179.5 1517.5,-179.5"/>
<text text-anchor="middle" x="1572" y="-186.5" font-family="Helvetica,sans-Serif" font-size="10.00" fill="#000000">general_exceptions.h</text>
</a>
</g>
</g>
<!-- Node31&#45;&gt;Node33 -->
<g id="edge51" class="edge">
<title>Node31&#45;&gt;Node33</title>
<path fill="none" stroke="#191970" d="M943.535,-246.1754C1062.1597,-235.3834 1371.4002,-207.2498 1506.8503,-194.9271"/>
<polygon fill="#191970" stroke="#191970" points="1507.4345,-198.3885 1517.0763,-193.9968 1506.8002,-191.4173 1507.4345,-198.3885"/>
</g>
<!-- Node34 -->
<g id="node35" class="node">
<title>Node34</title>
<g id="a_node35"><a xlink:href="lapack__helpers_8h.html" target="_top" xlink:title="Exposes LAPACK helper functions defined in lapack_full_matrix.cc and define new ones by following the...">
<polygon fill="none" stroke="#000000" points="892,-179.5 892,-198.5 982,-198.5 982,-179.5 892,-179.5"/>
<text text-anchor="middle" x="937" y="-186.5" font-family="Helvetica,sans-Serif" font-size="10.00" fill="#000000">lapack_helpers.h</text>
</a>
</g>
</g>
<!-- Node31&#45;&gt;Node34 -->
<g id="edge53" class="edge">
<title>Node31&#45;&gt;Node34</title>
<path fill="none" stroke="#191970" d="M906.1348,-235.2977C911.7668,-226.8498 918.8151,-216.2773 924.754,-207.369"/>
<polygon fill="#191970" stroke="#191970" points="927.8005,-209.1089 930.4354,-198.8469 921.9762,-205.226 927.8005,-209.1089"/>
</g>
<!-- Node33&#45;&gt;Node25 -->
<g id="edge52" class="edge">
<title>Node33&#45;&gt;Node25</title>
<path fill="none" stroke="#191970" d="M1579.5758,-179.0696C1590.5112,-163.431 1607.8619,-132.7159 1593,-112 1583.2233,-98.3724 1546.1413,-86.3603 1513.1644,-78.0314"/>
<polygon fill="#191970" stroke="#191970" points="1513.6422,-74.545 1503.0968,-75.567 1511.9779,-81.3443 1513.6422,-74.545"/>
</g>
<!-- Node34&#45;&gt;Node3 -->
<g id="edge57" class="edge">
<title>Node34&#45;&gt;Node3</title>
<path fill="none" stroke="#191970" d="M891.9717,-180.3209C888.9406,-179.8418 885.9291,-179.3955 883,-179 696.8947,-153.8723 648.5334,-164.7226 462,-143 450.1316,-141.6179 437.539,-139.9415 425.3505,-138.2085"/>
<polygon fill="#191970" stroke="#191970" points="425.6301,-134.7126 415.2319,-136.7448 424.6278,-141.6405 425.6301,-134.7126"/>
</g>
<!-- Node35 -->
<g id="node36" class="node">
<title>Node35</title>
<polygon fill="none" stroke="#bfbfbf" points="1435,-118 1435,-137 1551,-137 1551,-118 1435,-118"/>
<text text-anchor="middle" x="1493" y="-125" font-family="Helvetica,sans-Serif" font-size="10.00" fill="#000000">deal.II/base/numbers.h</text>
</g>
<!-- Node34&#45;&gt;Node35 -->
<g id="edge54" class="edge">
<title>Node34&#45;&gt;Node35</title>
<path fill="none" stroke="#191970" d="M982.0888,-186.7758C1068.6126,-182.0624 1263.7551,-169.2777 1426,-143 1432.3421,-141.9728 1438.9784,-140.6926 1445.505,-139.3111"/>
<polygon fill="#191970" stroke="#191970" points="1446.6029,-142.653 1455.6127,-137.0786 1445.0931,-135.8178 1446.6029,-142.653"/>
</g>
<!-- Node36 -->
<g id="node37" class="node">
<title>Node36</title>
<polygon fill="none" stroke="#bfbfbf" points="799,-112.5 799,-142.5 927,-142.5 927,-112.5 799,-112.5"/>
<text text-anchor="start" x="807" y="-130.5" font-family="Helvetica,sans-Serif" font-size="10.00" fill="#000000">deal.II/lac/blas_extension</text>
<text text-anchor="middle" x="863" y="-119.5" font-family="Helvetica,sans-Serif" font-size="10.00" fill="#000000">_templates.h</text>
</g>
<!-- Node34&#45;&gt;Node36 -->
<g id="edge55" class="edge">
<title>Node34&#45;&gt;Node36</title>
<path fill="none" stroke="#191970" d="M925.4375,-179.3906C915.7007,-171.2986 901.4087,-159.4207 888.9547,-149.0705"/>
<polygon fill="#191970" stroke="#191970" points="891.0303,-146.2445 881.1024,-142.5446 886.5561,-151.628 891.0303,-146.2445"/>
</g>
<!-- Node37 -->
<g id="node38" class="node">
<title>Node37</title>
<polygon fill="none" stroke="#bfbfbf" points="945,-118 945,-137 1071,-137 1071,-118 945,-118"/>
<text text-anchor="middle" x="1008" y="-125" font-family="Helvetica,sans-Serif" font-size="10.00" fill="#000000">deal.II/lac/block_vector.h</text>
</g>
<!-- Node34&#45;&gt;Node37 -->
<g id="edge56" class="edge">
<title>Node34&#45;&gt;Node37</title>
<path fill="none" stroke="#191970" d="M948.0938,-179.3906C958.9715,-169.9683 975.7748,-155.4134 988.82,-144.1137"/>
<polygon fill="#191970" stroke="#191970" points="991.4827,-146.4377 996.7498,-137.2449 986.8996,-141.1466 991.4827,-146.4377"/>
</g>
<!-- Node38 -->
<g id="node39" class="node">
<title>Node38</title>
<polygon fill="none" stroke="#bfbfbf" points="689.5,-112.5 689.5,-142.5 780.5,-142.5 780.5,-112.5 689.5,-112.5"/>
<text text-anchor="start" x="697.5" y="-130.5" font-family="Helvetica,sans-Serif" font-size="10.00" fill="#000000">deal.II/lac/lapack</text>
<text text-anchor="middle" x="735" y="-119.5" font-family="Helvetica,sans-Serif" font-size="10.00" fill="#000000">_full_matrix.h</text>
</g>
<!-- Node34&#45;&gt;Node38 -->
<g id="edge58" class="edge">
<title>Node34&#45;&gt;Node38</title>
<path fill="none" stroke="#191970" d="M905.4375,-179.3906C874.6759,-170.0251 827.2582,-155.5885 790.2402,-144.3182"/>
<polygon fill="#191970" stroke="#191970" points="791.1705,-140.9429 780.5846,-141.3785 789.1316,-147.6394 791.1705,-140.9429"/>
</g>
<!-- Node39 -->
<g id="node40" class="node">
<title>Node39</title>
<polygon fill="none" stroke="#bfbfbf" points="471.5,-112.5 471.5,-142.5 562.5,-142.5 562.5,-112.5 471.5,-112.5"/>
<text text-anchor="start" x="479.5" y="-130.5" font-family="Helvetica,sans-Serif" font-size="10.00" fill="#000000">deal.II/lac/lapack</text>
<text text-anchor="middle" x="517" y="-119.5" font-family="Helvetica,sans-Serif" font-size="10.00" fill="#000000">_support.h</text>
</g>
<!-- Node34&#45;&gt;Node39 -->
<g id="edge59" class="edge">
<title>Node34&#45;&gt;Node39</title>
<path fill="none" stroke="#191970" d="M891.9572,-180.4224C888.9296,-179.9188 885.9228,-179.4393 883,-179 748.6252,-158.8044 710.2935,-169.4296 572.8535,-142.9631"/>
<polygon fill="#191970" stroke="#191970" points="573.27,-139.4782 562.7839,-140.9924 571.9255,-146.3479 573.27,-139.4782"/>
</g>
<!-- Node40 -->
<g id="node41" class="node">
<title>Node40</title>
<polygon fill="none" stroke="#bfbfbf" points="580.5,-112.5 580.5,-142.5 671.5,-142.5 671.5,-112.5 580.5,-112.5"/>
<text text-anchor="start" x="588.5" y="-130.5" font-family="Helvetica,sans-Serif" font-size="10.00" fill="#000000">deal.II/lac/lapack</text>
<text text-anchor="middle" x="626" y="-119.5" font-family="Helvetica,sans-Serif" font-size="10.00" fill="#000000">_templates.h</text>
</g>
<!-- Node34&#45;&gt;Node40 -->
<g id="edge60" class="edge">
<title>Node34&#45;&gt;Node40</title>
<path fill="none" stroke="#191970" d="M891.9229,-180.6289C888.9036,-180.0754 885.908,-179.5284 883,-179 796.3434,-163.2546 771.5597,-163.365 681.3577,-142.9496"/>
<polygon fill="#191970" stroke="#191970" points="682.0582,-139.5195 671.5298,-140.7034 680.4986,-146.3436 682.0582,-139.5195"/>
</g>
<!-- Node41 -->
<g id="node42" class="node">
<title>Node41</title>
<polygon fill="none" stroke="#bfbfbf" points="1089,-112.5 1089,-142.5 1181,-142.5 1181,-112.5 1089,-112.5"/>
<text text-anchor="start" x="1097" y="-130.5" font-family="Helvetica,sans-Serif" font-size="10.00" fill="#000000">deal.II/lac/sparse</text>
<text text-anchor="middle" x="1135" y="-119.5" font-family="Helvetica,sans-Serif" font-size="10.00" fill="#000000">_matrix.h</text>
</g>
<!-- Node34&#45;&gt;Node41 -->
<g id="edge61" class="edge">
<title>Node34&#45;&gt;Node41</title>
<path fill="none" stroke="#191970" d="M967.9375,-179.3906C997.564,-170.1885 1042.9521,-156.0906 1078.9457,-144.9108"/>
<polygon fill="#191970" stroke="#191970" points="1080.316,-148.1502 1088.8277,-141.8414 1078.2395,-141.4653 1080.316,-148.1502"/>
</g>
<!-- Node42 -->
<g id="node43" class="node">
<title>Node42</title>
<polygon fill="none" stroke="#bfbfbf" points="1199.5,-118 1199.5,-137 1300.5,-137 1300.5,-118 1199.5,-118"/>
<text text-anchor="middle" x="1250" y="-125" font-family="Helvetica,sans-Serif" font-size="10.00" fill="#000000">deal.II/lac/utilities.h</text>
</g>
<!-- Node34&#45;&gt;Node42 -->
<g id="edge62" class="edge">
<title>Node34&#45;&gt;Node42</title>
<path fill="none" stroke="#191970" d="M982.4442,-181.7642C1033.239,-173.4383 1117.8368,-158.8592 1190,-143 1194.9305,-141.9164 1200.0693,-140.7094 1205.1743,-139.4605"/>
<polygon fill="#191970" stroke="#191970" points="1206.036,-142.8528 1214.8864,-137.0287 1204.3358,-136.0624 1206.036,-142.8528"/>
</g>
<!-- Node43 -->
<g id="node44" class="node">
<title>Node43</title>
<polygon fill="none" stroke="#bfbfbf" points="1319,-118 1319,-137 1417,-137 1417,-118 1319,-118"/>
<text text-anchor="middle" x="1368" y="-125" font-family="Helvetica,sans-Serif" font-size="10.00" fill="#000000">deal.II/lac/vector.h</text>
</g>
<!-- Node34&#45;&gt;Node43 -->
<g id="edge63" class="edge">
<title>Node34&#45;&gt;Node43</title>
<path fill="none" stroke="#191970" d="M982.1002,-185.4678C1052.5497,-179.4953 1192.7893,-165.7756 1310,-143 1315.0502,-142.0187 1320.3091,-140.8396 1325.5085,-139.5754"/>
<polygon fill="#191970" stroke="#191970" points="1326.5346,-142.9259 1335.3634,-137.0691 1324.8092,-136.1419 1326.5346,-142.9259"/>
</g>
<!-- Node44&#45;&gt;Node7 -->
<g id="edge67" class="edge">
<title>Node44&#45;&gt;Node7</title>
<path fill="none" stroke="#191970" d="M131.1563,-240.8906C153.3017,-230.3329 188.9643,-213.331 213.3921,-201.6852"/>
<polygon fill="#191970" stroke="#191970" points="214.9478,-204.821 222.4682,-197.3582 211.9353,-198.5023 214.9478,-204.821"/>
</g>
<!-- Node44&#45;&gt;Node10 -->
<g id="edge68" class="edge">
<title>Node44&#45;&gt;Node10</title>
<path fill="none" stroke="#191970" d="M108.2258,-240.9861C99.6146,-209.2344 76.9768,-106.0957 130,-56 171.0258,-17.2393 1048.7239,-11.0047 1229.5829,-10.1303"/>
<polygon fill="#191970" stroke="#191970" points="1229.7978,-13.6294 1239.7815,-10.0832 1229.7654,-6.6295 1229.7978,-13.6294"/>
</g>
<!-- Node44&#45;&gt;Node13 -->
<g id="edge66" class="edge">
<title>Node44&#45;&gt;Node13</title>
<path fill="none" stroke="#191970" d="M115.1885,-240.8402C127.8248,-211.6978 165.7371,-124.2626 182.6713,-85.208"/>
<polygon fill="#191970" stroke="#191970" points="186.0859,-86.1312 186.853,-75.5641 179.6636,-83.3464 186.0859,-86.1312"/>
</g>
<!-- Node45&#45;&gt;Node3 -->
<g id="edge72" class="edge">
<title>Node45&#45;&gt;Node3</title>
<path fill="none" stroke="#191970" d="M454.5571,-302.3938C447.6949,-287.7006 433.953,-258.8396 421,-235 403.6445,-203.0578 381.6271,-166.9336 368.4616,-145.7484"/>
<polygon fill="#191970" stroke="#191970" points="371.3487,-143.7638 363.084,-137.1347 365.4108,-147.4708 371.3487,-143.7638"/>
</g>
<!-- Node45&#45;&gt;Node7 -->
<g id="edge77" class="edge">
<title>Node45&#45;&gt;Node7</title>
<path fill="none" stroke="#191970" d="M428.9681,-306.6693C386.1556,-298.6163 310.2864,-282.5266 288,-266 268.1145,-251.2538 254.5547,-225.5943 247.0481,-207.978"/>
<polygon fill="#191970" stroke="#191970" points="250.2912,-206.6617 243.3257,-198.6785 243.7925,-209.263 250.2912,-206.6617"/>
</g>
<!-- Node45&#45;&gt;Node10 -->
<g id="edge78" class="edge">
<title>Node45&#45;&gt;Node10</title>
<path fill="none" stroke="#191970" d="M428.578,-303.5553C407.1254,-296.3734 378.8004,-284.2748 359,-266 331.4429,-240.5662 266.2967,-141.059 290,-112 350.8076,-37.4529 1066.7118,-14.937 1229.2969,-10.7692"/>
<polygon fill="#191970" stroke="#191970" points="1229.704,-14.2602 1239.6131,-10.5106 1229.5285,-7.2624 1229.704,-14.2602"/>
</g>
<!-- Node45&#45;&gt;Node13 -->
<g id="edge71" class="edge">
<title>Node45&#45;&gt;Node13</title>
<path fill="none" stroke="#191970" d="M428.9097,-307.2763C400.101,-301.5267 356.6137,-289.5159 326,-266 321.6883,-262.6879 235.5448,-133.1539 203.1634,-84.3488"/>
<polygon fill="#191970" stroke="#191970" points="205.8881,-82.1247 197.4441,-75.7255 200.0545,-85.9938 205.8881,-82.1247"/>
</g>
<!-- Node45&#45;&gt;Node31 -->
<g id="edge79" class="edge">
<title>Node45&#45;&gt;Node31</title>
<path fill="none" stroke="#191970" d="M489.0368,-307.7729C561.0397,-297.6397 744.468,-271.8254 838.5043,-258.5915"/>
<polygon fill="#191970" stroke="#191970" points="839.0031,-262.0559 848.4178,-257.1964 838.0276,-255.1242 839.0031,-262.0559"/>
</g>
<!-- Node45&#45;&gt;Node38 -->
<g id="edge73" class="edge">
<title>Node45&#45;&gt;Node38</title>
<path fill="none" stroke="#191970" d="M473.7785,-302.353C487.9662,-293.0763 509.9864,-278.6385 529,-266 591.5265,-224.438 664.3543,-175.3017 704.5049,-148.1487"/>
<polygon fill="#191970" stroke="#191970" points="706.4766,-151.0405 712.7983,-142.5383 702.5544,-145.2425 706.4766,-151.0405"/>
</g>
<!-- Node45&#45;&gt;Node39 -->
<g id="edge74" class="edge">
<title>Node45&#45;&gt;Node39</title>
<path fill="none" stroke="#191970" d="M462.0367,-302.3402C470.7821,-274.5208 496.2265,-193.5813 509.1987,-152.3162"/>
<polygon fill="#191970" stroke="#191970" points="512.5502,-153.3257 512.2103,-142.7363 505.8723,-151.2264 512.5502,-153.3257"/>
</g>
<!-- Node45&#45;&gt;Node40 -->
<g id="edge75" class="edge">
<title>Node45&#45;&gt;Node40</title>
<path fill="none" stroke="#191970" d="M467.7435,-302.3402C493.3511,-274.0493 568.6838,-190.8223 605.4055,-150.2526"/>
<polygon fill="#191970" stroke="#191970" points="608.093,-152.499 612.2088,-142.7363 602.9032,-147.8015 608.093,-152.499"/>
</g>
<!-- Node46 -->
<g id="node47" class="node">
<title>Node46</title>
<polygon fill="none" stroke="#bfbfbf" points="368,-241 368,-260 412,-260 412,-241 368,-241"/>
<text text-anchor="middle" x="390" y="-248" font-family="Helvetica,sans-Serif" font-size="10.00" fill="#000000">cmath</text>
</g>
<!-- Node45&#45;&gt;Node46 -->
<g id="edge76" class="edge">
<title>Node45&#45;&gt;Node46</title>
<path fill="none" stroke="#191970" d="M448.2188,-302.3906C437.6474,-292.9683 421.3175,-278.4134 408.6397,-267.1137"/>
<polygon fill="#191970" stroke="#191970" points="410.7272,-264.2858 400.9333,-260.2449 406.0696,-269.5114 410.7272,-264.2858"/>
</g>
</g>
</svg>
