<?xml version="1.0" encoding="UTF-8" standalone="no"?>
<!DOCTYPE svg PUBLIC "-//W3C//DTD SVG 1.1//EN"
 "http://www.w3.org/Graphics/SVG/1.1/DTD/svg11.dtd">
<!-- Generated by graphviz version 2.40.1 (20161225.0304)
 -->
<!-- Title: Graphical Class Hierarchy Pages: 1 -->
<svg width="262pt" height="100pt"
 viewBox="0.00 0.00 262.00 99.50" xmlns="http://www.w3.org/2000/svg" xmlns:xlink="http://www.w3.org/1999/xlink">
<g id="graph0" class="graph" transform="scale(1 1) rotate(0) translate(4 95.5)">
<title>Graphical Class Hierarchy</title>
<!-- Node22 -->
<g id="node1" class="node">
<title>Node22</title>
<polygon fill="none" stroke="#bfbfbf" points="0,-33 0,-52 54,-52 54,-33 0,-33"/>
<text text-anchor="middle" x="27" y="-40" font-family="Helvetica,sans-Serif" font-size="10.00" fill="#000000">Function</text>
</g>
<!-- Node0 -->
<g id="node2" class="node">
<title>Node0</title>
<g id="a_node2"><a xlink:href="classLaplaceBEM_1_1Erichsen1996Efficient_1_1Example2_1_1AnalyticalSolution.html" target="_top" xlink:title="LaplaceBEM::Erichsen1996\lEfficient::Example2::Analytical\lSolution">
<polygon fill="none" stroke="#000000" points="96.5,-50 96.5,-91 247.5,-91 247.5,-50 96.5,-50"/>
<text text-anchor="start" x="104.5" y="-79" font-family="Helvetica,sans-Serif" font-size="10.00" fill="#000000">LaplaceBEM::Erichsen1996</text>
<text text-anchor="start" x="104.5" y="-68" font-family="Helvetica,sans-Serif" font-size="10.00" fill="#000000">Efficient::Example2::Analytical</text>
<text text-anchor="middle" x="172" y="-57" font-family="Helvetica,sans-Serif" font-size="10.00" fill="#000000">Solution</text>
</a>
</g>
</g>
<!-- Node22&#45;&gt;Node0 -->
<g id="edge1" class="edge">
<title>Node22&#45;&gt;Node0</title>
<path fill="none" stroke="#191970" d="M64.1105,-49.6662C73.9968,-51.5753 85.0465,-53.709 96.2005,-55.8629"/>
<polygon fill="#191970" stroke="#191970" points="64.7556,-46.2262 54.2734,-47.7666 63.4284,-53.0992 64.7556,-46.2262"/>
</g>
<!-- Node24 -->
<g id="node3" class="node">
<title>Node24</title>
<g id="a_node3"><a xlink:href="classLaplaceBEM_1_1Erichsen1996Efficient_1_1Example2_1_1NeumannBC.html" target="_top" xlink:title="LaplaceBEM::Erichsen1996\lEfficient::Example2::NeumannBC">
<polygon fill="none" stroke="#000000" points="90,-.5 90,-30.5 254,-30.5 254,-.5 90,-.5"/>
<text text-anchor="start" x="98" y="-18.5" font-family="Helvetica,sans-Serif" font-size="10.00" fill="#000000">LaplaceBEM::Erichsen1996</text>
<text text-anchor="middle" x="172" y="-7.5" font-family="Helvetica,sans-Serif" font-size="10.00" fill="#000000">Efficient::Example2::NeumannBC</text>
</a>
</g>
</g>
<!-- Node22&#45;&gt;Node24 -->
<g id="edge2" class="edge">
<title>Node22&#45;&gt;Node24</title>
<path fill="none" stroke="#191970" d="M64.3805,-35.5395C72.7449,-33.982 81.9315,-32.2714 91.3033,-30.5263"/>
<polygon fill="#191970" stroke="#191970" points="63.4637,-32.15 54.2734,-37.4215 64.7451,-39.0317 63.4637,-32.15"/>
</g>
</g>
</svg>
