<?xml version="1.0" encoding="UTF-8" standalone="no"?>
<!DOCTYPE svg PUBLIC "-//W3C//DTD SVG 1.1//EN"
 "http://www.w3.org/Graphics/SVG/1.1/DTD/svg11.dtd">
<!-- Generated by graphviz version 2.40.1 (20161225.0304)
 -->
<!-- Title: Graphical Class Hierarchy Pages: 1 -->
<svg width="521pt" height="380pt"
 viewBox="0.00 0.00 521.00 380.00" xmlns="http://www.w3.org/2000/svg" xmlns:xlink="http://www.w3.org/1999/xlink">
<g id="graph0" class="graph" transform="scale(1 1) rotate(0) translate(4 376)">
<title>Graphical Class Hierarchy</title>
<!-- Node2 -->
<g id="node1" class="node">
<title>Node2</title>
<g id="a_node1"><a xlink:href="classLaplaceBEM_1_1LaplaceKernel_1_1SingleLayerKernel.html" target="_top" xlink:title="LaplaceBEM::LaplaceKernel\l::SingleLayerKernel\&lt; 3 \&gt;">
<polygon fill="none" stroke="#000000" points="0,-246 0,-276 140,-276 140,-246 0,-246"/>
<text text-anchor="start" x="8" y="-264" font-family="Helvetica,sans-Serif" font-size="10.00" fill="#000000">LaplaceBEM::LaplaceKernel</text>
<text text-anchor="middle" x="70" y="-253" font-family="Helvetica,sans-Serif" font-size="10.00" fill="#000000">::SingleLayerKernel&lt; 3 &gt;</text>
</a>
</g>
</g>
<!-- Node0 -->
<g id="node2" class="node">
<title>Node0</title>
<g id="a_node2"><a xlink:href="classLaplaceBEM_1_1LaplaceKernel_1_1KernelFunction.html" target="_top" xlink:title="LaplaceBEM::LaplaceKernel\l::KernelFunction\&lt; dim,\l double \&gt;">
<polygon fill="none" stroke="#000000" points="186,-330.5 186,-371.5 326,-371.5 326,-330.5 186,-330.5"/>
<text text-anchor="start" x="194" y="-359.5" font-family="Helvetica,sans-Serif" font-size="10.00" fill="#000000">LaplaceBEM::LaplaceKernel</text>
<text text-anchor="start" x="194" y="-348.5" font-family="Helvetica,sans-Serif" font-size="10.00" fill="#000000">::KernelFunction&lt; dim,</text>
<text text-anchor="middle" x="256" y="-337.5" font-family="Helvetica,sans-Serif" font-size="10.00" fill="#000000"> double &gt;</text>
</a>
</g>
</g>
<!-- Node2&#45;&gt;Node0 -->
<g id="edge1" class="edge">
<title>Node2&#45;&gt;Node0</title>
<path fill="none" stroke="#191970" d="M116.7146,-281.1312C134.8881,-291.0712 156.0947,-302.7037 176,-312 189.9775,-318.5278 205.8014,-324.703 219.6646,-330.3381"/>
<polygon fill="#191970" stroke="#191970" points="117.9652,-277.8264 107.5105,-276.1088 114.6122,-283.9712 117.9652,-277.8264"/>
</g>
<!-- Node6 -->
<g id="node4" class="node">
<title>Node6</title>
<g id="a_node4"><a xlink:href="classLaplaceBEM_1_1LaplaceKernel_1_1KernelFunction.html" target="_top" xlink:title="LaplaceBEM::LaplaceKernel\l::KernelFunction\&lt; spacedim,\l RangeNumberType \&gt;">
<polygon fill="none" stroke="#000000" points="185,-270.5 185,-311.5 327,-311.5 327,-270.5 185,-270.5"/>
<text text-anchor="start" x="193" y="-299.5" font-family="Helvetica,sans-Serif" font-size="10.00" fill="#000000">LaplaceBEM::LaplaceKernel</text>
<text text-anchor="start" x="193" y="-288.5" font-family="Helvetica,sans-Serif" font-size="10.00" fill="#000000">::KernelFunction&lt; spacedim,</text>
<text text-anchor="middle" x="256" y="-277.5" font-family="Helvetica,sans-Serif" font-size="10.00" fill="#000000"> RangeNumberType &gt;</text>
</a>
</g>
</g>
<!-- Node2&#45;&gt;Node6 -->
<g id="edge4" class="edge">
<title>Node2&#45;&gt;Node6</title>
<path fill="none" stroke="#191970" d="M150.0987,-273.9191C161.6292,-275.7789 173.4296,-277.6822 184.7721,-279.5116"/>
<polygon fill="#191970" stroke="#191970" points="150.4833,-270.436 140.0536,-272.299 149.3687,-277.3467 150.4833,-270.436"/>
</g>
<!-- Node7 -->
<g id="node5" class="node">
<title>Node7</title>
<g id="a_node5"><a xlink:href="classLaplaceBEM_1_1KernelPulledbackToSauterSpace.html" target="_top" xlink:title="LaplaceBEM::KernelPulledback\lToSauterSpace\&lt; dim, spacedim,\l RangeNumberType \&gt;">
<polygon fill="none" stroke="#000000" points="176,-210.5 176,-251.5 336,-251.5 336,-210.5 176,-210.5"/>
<text text-anchor="start" x="184" y="-239.5" font-family="Helvetica,sans-Serif" font-size="10.00" fill="#000000">LaplaceBEM::KernelPulledback</text>
<text text-anchor="start" x="184" y="-228.5" font-family="Helvetica,sans-Serif" font-size="10.00" fill="#000000">ToSauterSpace&lt; dim, spacedim,</text>
<text text-anchor="middle" x="256" y="-217.5" font-family="Helvetica,sans-Serif" font-size="10.00" fill="#000000"> RangeNumberType &gt;</text>
</a>
</g>
</g>
<!-- Node2&#45;&gt;Node7 -->
<g id="edge5" class="edge">
<title>Node2&#45;&gt;Node7</title>
<path fill="none" stroke="#191970" d="M149.9757,-248.1007C158.5012,-246.7256 167.1756,-245.3265 175.7048,-243.9508"/>
<polygon fill="#191970" stroke="#191970" points="149.3687,-244.6533 140.0536,-249.701 150.4833,-251.564 149.3687,-244.6533"/>
</g>
<!-- Node8 -->
<g id="node6" class="node">
<title>Node8</title>
<g id="a_node6"><a xlink:href="classLaplaceBEM_1_1KernelPulledbackToUnitCell.html" target="_top" xlink:title="LaplaceBEM::KernelPulledback\lToUnitCell\&lt; dim, spacedim,\l RangeNumberType \&gt;">
<polygon fill="none" stroke="#000000" points="179,-150.5 179,-191.5 333,-191.5 333,-150.5 179,-150.5"/>
<text text-anchor="start" x="187" y="-179.5" font-family="Helvetica,sans-Serif" font-size="10.00" fill="#000000">LaplaceBEM::KernelPulledback</text>
<text text-anchor="start" x="187" y="-168.5" font-family="Helvetica,sans-Serif" font-size="10.00" fill="#000000">ToUnitCell&lt; dim, spacedim,</text>
<text text-anchor="middle" x="256" y="-157.5" font-family="Helvetica,sans-Serif" font-size="10.00" fill="#000000"> RangeNumberType &gt;</text>
</a>
</g>
</g>
<!-- Node2&#45;&gt;Node8 -->
<g id="edge6" class="edge">
<title>Node2&#45;&gt;Node8</title>
<path fill="none" stroke="#191970" d="M102.9331,-240.5891C123.5101,-228.2849 150.7981,-212.7699 176,-201 182.9887,-197.7361 190.4391,-194.5603 197.8751,-191.5716"/>
<polygon fill="#191970" stroke="#191970" points="101.0212,-237.6549 94.2674,-245.8181 104.6377,-243.6483 101.0212,-237.6549"/>
</g>
<!-- Node9 -->
<g id="node7" class="node">
<title>Node9</title>
<g id="a_node7"><a xlink:href="classLaplaceBEM_1_1LaplaceKernel_1_1KernelFunction.html" target="_top" xlink:title="LaplaceBEM::LaplaceKernel\l::KernelFunction\&lt; dim,\l RangeNumberType \&gt;">
<polygon fill="none" stroke="#000000" points="186,-90.5 186,-131.5 326,-131.5 326,-90.5 186,-90.5"/>
<text text-anchor="start" x="194" y="-119.5" font-family="Helvetica,sans-Serif" font-size="10.00" fill="#000000">LaplaceBEM::LaplaceKernel</text>
<text text-anchor="start" x="194" y="-108.5" font-family="Helvetica,sans-Serif" font-size="10.00" fill="#000000">::KernelFunction&lt; dim,</text>
<text text-anchor="middle" x="256" y="-97.5" font-family="Helvetica,sans-Serif" font-size="10.00" fill="#000000"> RangeNumberType &gt;</text>
</a>
</g>
</g>
<!-- Node2&#45;&gt;Node9 -->
<g id="edge7" class="edge">
<title>Node2&#45;&gt;Node9</title>
<path fill="none" stroke="#191970" d="M85.3276,-237.6018C103.9032,-210.892 137.5352,-167.4859 176,-141 181.009,-137.5509 186.4656,-134.4371 192.0979,-131.6396"/>
<polygon fill="#191970" stroke="#191970" points="82.3625,-235.7376 79.62,-245.9713 88.1458,-239.6815 82.3625,-235.7376"/>
</g>
<!-- Node0&#45;&gt;Node2 -->
<g id="edge3" class="edge">
<title>Node0&#45;&gt;Node2</title>
<path fill="none" stroke="#191970" d="M176.6059,-330.2822C176.4036,-330.1882 176.2016,-330.0942 176,-330 142.0871,-314.1618 104.3968,-291.5423 84.3644,-276.1154"/>
<polygon fill="#191970" stroke="#191970" points="175.367,-333.5621 185.9249,-334.4458 178.2225,-327.171 175.367,-333.5621"/>
</g>
<!-- Node1 -->
<g id="node3" class="node">
<title>Node1</title>
<g id="a_node3"><a xlink:href="classLaplaceBEM_1_1LaplaceKernel_1_1DoubleLayerKernel.html" target="_top" xlink:title="LaplaceBEM::LaplaceKernel\l::DoubleLayerKernel\&lt; 3 \&gt;">
<polygon fill="none" stroke="#000000" points="372.5,-336 372.5,-366 512.5,-366 512.5,-336 372.5,-336"/>
<text text-anchor="start" x="380.5" y="-354" font-family="Helvetica,sans-Serif" font-size="10.00" fill="#000000">LaplaceBEM::LaplaceKernel</text>
<text text-anchor="middle" x="442.5" y="-343" font-family="Helvetica,sans-Serif" font-size="10.00" fill="#000000">::DoubleLayerKernel&lt; 3 &gt;</text>
</a>
</g>
</g>
<!-- Node0&#45;&gt;Node1 -->
<g id="edge2" class="edge">
<title>Node0&#45;&gt;Node1</title>
<path fill="none" stroke="#191970" d="M336.6003,-351C348.492,-351 360.6634,-351 372.3214,-351"/>
<polygon fill="#191970" stroke="#191970" points="336.2419,-347.5001 326.2419,-351 336.2419,-354.5001 336.2419,-347.5001"/>
</g>
<!-- Node10 -->
<g id="node8" class="node">
<title>Node10</title>
<g id="a_node8"><a xlink:href="classLaplaceBEM_1_1LaplaceKernel_1_1AdjointDoubleLayerKernel.html" target="_top" xlink:title="LaplaceBEM::LaplaceKernel\l::AdjointDoubleLayerKernel\l\&lt; dim, RangeNumberType \&gt;">
<polygon fill="none" stroke="#000000" points="372,-180.5 372,-221.5 513,-221.5 513,-180.5 372,-180.5"/>
<text text-anchor="start" x="380" y="-209.5" font-family="Helvetica,sans-Serif" font-size="10.00" fill="#000000">LaplaceBEM::LaplaceKernel</text>
<text text-anchor="start" x="380" y="-198.5" font-family="Helvetica,sans-Serif" font-size="10.00" fill="#000000">::AdjointDoubleLayerKernel</text>
<text text-anchor="middle" x="442.5" y="-187.5" font-family="Helvetica,sans-Serif" font-size="10.00" fill="#000000">&lt; dim, RangeNumberType &gt;</text>
</a>
</g>
</g>
<!-- Node9&#45;&gt;Node10 -->
<g id="edge8" class="edge">
<title>Node9&#45;&gt;Node10</title>
<path fill="none" stroke="#191970" d="M326.5554,-135.9066C329.7941,-137.5327 332.9586,-139.2313 336,-141 354.004,-151.4705 354.2282,-160.1399 372,-171 377.4481,-174.3292 383.3317,-177.4647 389.2959,-180.362"/>
<polygon fill="#191970" stroke="#191970" points="327.8085,-132.6276 317.2719,-131.5173 324.8163,-138.9559 327.8085,-132.6276"/>
</g>
<!-- Node11 -->
<g id="node9" class="node">
<title>Node11</title>
<g id="a_node9"><a xlink:href="classLaplaceBEM_1_1LaplaceKernel_1_1DoubleLayerKernel.html" target="_top" xlink:title="LaplaceBEM::LaplaceKernel\l::DoubleLayerKernel\&lt; dim,\l RangeNumberType \&gt;">
<polygon fill="none" stroke="#000000" points="372.5,-120.5 372.5,-161.5 512.5,-161.5 512.5,-120.5 372.5,-120.5"/>
<text text-anchor="start" x="380.5" y="-149.5" font-family="Helvetica,sans-Serif" font-size="10.00" fill="#000000">LaplaceBEM::LaplaceKernel</text>
<text text-anchor="start" x="380.5" y="-138.5" font-family="Helvetica,sans-Serif" font-size="10.00" fill="#000000">::DoubleLayerKernel&lt; dim,</text>
<text text-anchor="middle" x="442.5" y="-127.5" font-family="Helvetica,sans-Serif" font-size="10.00" fill="#000000"> RangeNumberType &gt;</text>
</a>
</g>
</g>
<!-- Node9&#45;&gt;Node11 -->
<g id="edge9" class="edge">
<title>Node9&#45;&gt;Node11</title>
<path fill="none" stroke="#191970" d="M336.24,-123.9072C348.2461,-125.8385 360.5456,-127.817 372.3214,-129.7112"/>
<polygon fill="#191970" stroke="#191970" points="336.6709,-120.4316 326.2419,-122.299 335.5591,-127.3428 336.6709,-120.4316"/>
</g>
<!-- Node12 -->
<g id="node10" class="node">
<title>Node12</title>
<g id="a_node10"><a xlink:href="classLaplaceBEM_1_1LaplaceKernel_1_1HyperSingularKernel.html" target="_top" xlink:title="LaplaceBEM::LaplaceKernel\l::HyperSingularKernel\&lt;\l dim, RangeNumberType \&gt;">
<polygon fill="none" stroke="#000000" points="372.5,-60.5 372.5,-101.5 512.5,-101.5 512.5,-60.5 372.5,-60.5"/>
<text text-anchor="start" x="380.5" y="-89.5" font-family="Helvetica,sans-Serif" font-size="10.00" fill="#000000">LaplaceBEM::LaplaceKernel</text>
<text text-anchor="start" x="380.5" y="-78.5" font-family="Helvetica,sans-Serif" font-size="10.00" fill="#000000">::HyperSingularKernel&lt;</text>
<text text-anchor="middle" x="442.5" y="-67.5" font-family="Helvetica,sans-Serif" font-size="10.00" fill="#000000"> dim, RangeNumberType &gt;</text>
</a>
</g>
</g>
<!-- Node9&#45;&gt;Node12 -->
<g id="edge10" class="edge">
<title>Node9&#45;&gt;Node12</title>
<path fill="none" stroke="#191970" d="M336.24,-98.0928C348.2461,-96.1615 360.5456,-94.183 372.3214,-92.2888"/>
<polygon fill="#191970" stroke="#191970" points="335.5591,-94.6572 326.2419,-99.701 336.6709,-101.5684 335.5591,-94.6572"/>
</g>
<!-- Node13 -->
<g id="node11" class="node">
<title>Node13</title>
<g id="a_node11"><a xlink:href="classLaplaceBEM_1_1LaplaceKernel_1_1SingleLayerKernel.html" target="_top" xlink:title="LaplaceBEM::LaplaceKernel\l::SingleLayerKernel\&lt; dim,\l RangeNumberType \&gt;">
<polygon fill="none" stroke="#000000" points="372.5,-.5 372.5,-41.5 512.5,-41.5 512.5,-.5 372.5,-.5"/>
<text text-anchor="start" x="380.5" y="-29.5" font-family="Helvetica,sans-Serif" font-size="10.00" fill="#000000">LaplaceBEM::LaplaceKernel</text>
<text text-anchor="start" x="380.5" y="-18.5" font-family="Helvetica,sans-Serif" font-size="10.00" fill="#000000">::SingleLayerKernel&lt; dim,</text>
<text text-anchor="middle" x="442.5" y="-7.5" font-family="Helvetica,sans-Serif" font-size="10.00" fill="#000000"> RangeNumberType &gt;</text>
</a>
</g>
</g>
<!-- Node9&#45;&gt;Node13 -->
<g id="edge11" class="edge">
<title>Node9&#45;&gt;Node13</title>
<path fill="none" stroke="#191970" d="M303.0441,-85.6487C323.9764,-74.6337 349.036,-61.8063 372,-51 378.74,-47.8283 385.9047,-44.6087 392.9859,-41.5139"/>
<polygon fill="#191970" stroke="#191970" points="301.2475,-82.6395 294.0426,-90.4073 304.5191,-88.8279 301.2475,-82.6395"/>
</g>
</g>
</svg>
