<?xml version="1.0" encoding="UTF-8" standalone="no"?>
<!DOCTYPE svg PUBLIC "-//W3C//DTD SVG 1.1//EN"
 "http://www.w3.org/Graphics/SVG/1.1/DTD/svg11.dtd">
<!-- Generated by graphviz version 2.40.1 (20161225.0304)
 -->
<!-- Title: Graphical Class Hierarchy Pages: 1 -->
<svg width="441pt" height="347pt"
 viewBox="0.00 0.00 441.00 346.50" xmlns="http://www.w3.org/2000/svg" xmlns:xlink="http://www.w3.org/1999/xlink">
<g id="graph0" class="graph" transform="scale(1 1) rotate(0) translate(4 342.5)">
<title>Graphical Class Hierarchy</title>
<!-- Node3 -->
<g id="node1" class="node">
<title>Node3</title>
<polygon fill="none" stroke="#bfbfbf" points="0,-191.5 0,-210.5 66,-210.5 66,-191.5 0,-191.5"/>
<text text-anchor="middle" x="33" y="-198.5" font-family="Helvetica,sans-Serif" font-size="10.00" fill="#000000">Subscriptor</text>
</g>
<!-- Node0 -->
<g id="node2" class="node">
<title>Node0</title>
<g id="a_node2"><a xlink:href="classLaplaceBEM_1_1LaplaceKernel_1_1KernelFunction.html" target="_top" xlink:title="LaplaceBEM::LaplaceKernel\l::KernelFunction\&lt; dim,\l double \&gt;">
<polygon fill="none" stroke="#000000" points="109,-270.5 109,-311.5 249,-311.5 249,-270.5 109,-270.5"/>
<text text-anchor="start" x="117" y="-299.5" font-family="Helvetica,sans-Serif" font-size="10.00" fill="#000000">LaplaceBEM::LaplaceKernel</text>
<text text-anchor="start" x="117" y="-288.5" font-family="Helvetica,sans-Serif" font-size="10.00" fill="#000000">::KernelFunction&lt; dim,</text>
<text text-anchor="middle" x="179" y="-277.5" font-family="Helvetica,sans-Serif" font-size="10.00" fill="#000000"> double &gt;</text>
</a>
</g>
</g>
<!-- Node3&#45;&gt;Node0 -->
<g id="edge1" class="edge">
<title>Node3&#45;&gt;Node0</title>
<path fill="none" stroke="#191970" d="M49.3517,-218.1407C62.5782,-231.2432 82.1981,-249.0322 102,-261 107.6481,-264.4136 113.7526,-267.5691 119.9671,-270.4489"/>
<polygon fill="#191970" stroke="#191970" points="51.5112,-215.3459 41.998,-210.6821 46.5265,-220.2604 51.5112,-215.3459"/>
</g>
<!-- Node7 -->
<g id="node5" class="node">
<title>Node7</title>
<g id="a_node5"><a xlink:href="classLaplaceBEM_1_1LaplaceKernel_1_1KernelFunction.html" target="_top" xlink:title="LaplaceBEM::LaplaceKernel\l::KernelFunction\&lt; spacedim,\l RangeNumberType \&gt;">
<polygon fill="none" stroke="#000000" points="108,-210.5 108,-251.5 250,-251.5 250,-210.5 108,-210.5"/>
<text text-anchor="start" x="116" y="-239.5" font-family="Helvetica,sans-Serif" font-size="10.00" fill="#000000">LaplaceBEM::LaplaceKernel</text>
<text text-anchor="start" x="116" y="-228.5" font-family="Helvetica,sans-Serif" font-size="10.00" fill="#000000">::KernelFunction&lt; spacedim,</text>
<text text-anchor="middle" x="179" y="-217.5" font-family="Helvetica,sans-Serif" font-size="10.00" fill="#000000"> RangeNumberType &gt;</text>
</a>
</g>
</g>
<!-- Node3&#45;&gt;Node7 -->
<g id="edge4" class="edge">
<title>Node3&#45;&gt;Node7</title>
<path fill="none" stroke="#191970" d="M76.1655,-209.8696C86.1463,-211.9205 97.0259,-214.156 107.8511,-216.3804"/>
<polygon fill="#191970" stroke="#191970" points="76.6295,-206.3919 66.1297,-207.8075 75.2205,-213.2487 76.6295,-206.3919"/>
</g>
<!-- Node8 -->
<g id="node6" class="node">
<title>Node8</title>
<g id="a_node6"><a xlink:href="classLaplaceBEM_1_1KernelPulledbackToUnitCell.html" target="_top" xlink:title="LaplaceBEM::KernelPulledback\lToUnitCell\&lt; dim, spacedim,\l RangeNumberType \&gt;">
<polygon fill="none" stroke="#000000" points="102,-150.5 102,-191.5 256,-191.5 256,-150.5 102,-150.5"/>
<text text-anchor="start" x="110" y="-179.5" font-family="Helvetica,sans-Serif" font-size="10.00" fill="#000000">LaplaceBEM::KernelPulledback</text>
<text text-anchor="start" x="110" y="-168.5" font-family="Helvetica,sans-Serif" font-size="10.00" fill="#000000">ToUnitCell&lt; dim, spacedim,</text>
<text text-anchor="middle" x="179" y="-157.5" font-family="Helvetica,sans-Serif" font-size="10.00" fill="#000000"> RangeNumberType &gt;</text>
</a>
</g>
</g>
<!-- Node3&#45;&gt;Node8 -->
<g id="edge5" class="edge">
<title>Node3&#45;&gt;Node8</title>
<path fill="none" stroke="#191970" d="M76.1229,-192.1391C84.2986,-190.4592 93.0785,-188.6551 101.9384,-186.8346"/>
<polygon fill="#191970" stroke="#191970" points="75.2205,-188.7513 66.1297,-194.1925 76.6295,-195.6081 75.2205,-188.7513"/>
</g>
<!-- Node9 -->
<g id="node7" class="node">
<title>Node9</title>
<g id="a_node7"><a xlink:href="classLaplaceBEM_1_1LaplaceKernel_1_1KernelFunction.html" target="_top" xlink:title="LaplaceBEM::LaplaceKernel\l::KernelFunction\&lt; dim,\l RangeNumberType \&gt;">
<polygon fill="none" stroke="#000000" points="109,-90.5 109,-131.5 249,-131.5 249,-90.5 109,-90.5"/>
<text text-anchor="start" x="117" y="-119.5" font-family="Helvetica,sans-Serif" font-size="10.00" fill="#000000">LaplaceBEM::LaplaceKernel</text>
<text text-anchor="start" x="117" y="-108.5" font-family="Helvetica,sans-Serif" font-size="10.00" fill="#000000">::KernelFunction&lt; dim,</text>
<text text-anchor="middle" x="179" y="-97.5" font-family="Helvetica,sans-Serif" font-size="10.00" fill="#000000"> RangeNumberType &gt;</text>
</a>
</g>
</g>
<!-- Node3&#45;&gt;Node9 -->
<g id="edge6" class="edge">
<title>Node3&#45;&gt;Node9</title>
<path fill="none" stroke="#191970" d="M49.3517,-183.8593C62.5782,-170.7568 82.1981,-152.9678 102,-141 107.6481,-137.5864 113.7526,-134.4309 119.9671,-131.5511"/>
<polygon fill="#191970" stroke="#191970" points="46.5265,-181.7396 41.998,-191.3179 51.5112,-186.6541 46.5265,-181.7396"/>
</g>
<!-- Node1 -->
<g id="node3" class="node">
<title>Node1</title>
<g id="a_node3"><a xlink:href="classLaplaceBEM_1_1LaplaceKernel_1_1DoubleLayerKernel.html" target="_top" xlink:title="LaplaceBEM::LaplaceKernel\l::DoubleLayerKernel\&lt; 3 \&gt;">
<polygon fill="none" stroke="#000000" points="292.5,-308 292.5,-338 432.5,-338 432.5,-308 292.5,-308"/>
<text text-anchor="start" x="300.5" y="-326" font-family="Helvetica,sans-Serif" font-size="10.00" fill="#000000">LaplaceBEM::LaplaceKernel</text>
<text text-anchor="middle" x="362.5" y="-315" font-family="Helvetica,sans-Serif" font-size="10.00" fill="#000000">::DoubleLayerKernel&lt; 3 &gt;</text>
</a>
</g>
</g>
<!-- Node0&#45;&gt;Node1 -->
<g id="edge2" class="edge">
<title>Node0&#45;&gt;Node1</title>
<path fill="none" stroke="#191970" d="M259.2198,-304.9893C270.2647,-306.9154 281.536,-308.8809 292.38,-310.772"/>
<polygon fill="#191970" stroke="#191970" points="259.6116,-301.5049 249.1589,-303.2348 258.409,-308.4008 259.6116,-301.5049"/>
</g>
<!-- Node2 -->
<g id="node4" class="node">
<title>Node2</title>
<g id="a_node4"><a xlink:href="classLaplaceBEM_1_1LaplaceKernel_1_1SingleLayerKernel.html" target="_top" xlink:title="LaplaceBEM::LaplaceKernel\l::SingleLayerKernel\&lt; 3 \&gt;">
<polygon fill="none" stroke="#000000" points="292.5,-259 292.5,-289 432.5,-289 432.5,-259 292.5,-259"/>
<text text-anchor="start" x="300.5" y="-277" font-family="Helvetica,sans-Serif" font-size="10.00" fill="#000000">LaplaceBEM::LaplaceKernel</text>
<text text-anchor="middle" x="362.5" y="-266" font-family="Helvetica,sans-Serif" font-size="10.00" fill="#000000">::SingleLayerKernel&lt; 3 &gt;</text>
</a>
</g>
</g>
<!-- Node0&#45;&gt;Node2 -->
<g id="edge3" class="edge">
<title>Node0&#45;&gt;Node2</title>
<path fill="none" stroke="#191970" d="M259.2198,-283.5682C270.2647,-282.545 281.536,-281.5007 292.38,-280.4961"/>
<polygon fill="#191970" stroke="#191970" points="258.7934,-280.0926 249.1589,-284.5003 259.4392,-287.0628 258.7934,-280.0926"/>
</g>
<!-- Node10 -->
<g id="node8" class="node">
<title>Node10</title>
<g id="a_node8"><a xlink:href="classLaplaceBEM_1_1LaplaceKernel_1_1AdjointDoubleLayerKernel.html" target="_top" xlink:title="LaplaceBEM::LaplaceKernel\l::AdjointDoubleLayerKernel\l\&lt; dim, RangeNumberType \&gt;">
<polygon fill="none" stroke="#000000" points="292,-180.5 292,-221.5 433,-221.5 433,-180.5 292,-180.5"/>
<text text-anchor="start" x="300" y="-209.5" font-family="Helvetica,sans-Serif" font-size="10.00" fill="#000000">LaplaceBEM::LaplaceKernel</text>
<text text-anchor="start" x="300" y="-198.5" font-family="Helvetica,sans-Serif" font-size="10.00" fill="#000000">::AdjointDoubleLayerKernel</text>
<text text-anchor="middle" x="362.5" y="-187.5" font-family="Helvetica,sans-Serif" font-size="10.00" fill="#000000">&lt; dim, RangeNumberType &gt;</text>
</a>
</g>
</g>
<!-- Node9&#45;&gt;Node10 -->
<g id="edge7" class="edge">
<title>Node9&#45;&gt;Node10</title>
<path fill="none" stroke="#191970" d="M247.1847,-136.1493C250.2054,-137.7051 253.1582,-139.323 256,-141 273.9369,-151.5851 274.2282,-160.1399 292,-171 297.4481,-174.3292 303.3317,-177.4647 309.2959,-180.362"/>
<polygon fill="#191970" stroke="#191970" points="248.4857,-132.8903 237.9612,-131.6712 245.4283,-139.1874 248.4857,-132.8903"/>
</g>
<!-- Node11 -->
<g id="node9" class="node">
<title>Node11</title>
<g id="a_node9"><a xlink:href="classLaplaceBEM_1_1LaplaceKernel_1_1DoubleLayerKernel.html" target="_top" xlink:title="LaplaceBEM::LaplaceKernel\l::DoubleLayerKernel\&lt; dim,\l RangeNumberType \&gt;">
<polygon fill="none" stroke="#000000" points="292.5,-120.5 292.5,-161.5 432.5,-161.5 432.5,-120.5 292.5,-120.5"/>
<text text-anchor="start" x="300.5" y="-149.5" font-family="Helvetica,sans-Serif" font-size="10.00" fill="#000000">LaplaceBEM::LaplaceKernel</text>
<text text-anchor="start" x="300.5" y="-138.5" font-family="Helvetica,sans-Serif" font-size="10.00" fill="#000000">::DoubleLayerKernel&lt; dim,</text>
<text text-anchor="middle" x="362.5" y="-127.5" font-family="Helvetica,sans-Serif" font-size="10.00" fill="#000000"> RangeNumberType &gt;</text>
</a>
</g>
</g>
<!-- Node9&#45;&gt;Node11 -->
<g id="edge8" class="edge">
<title>Node9&#45;&gt;Node11</title>
<path fill="none" stroke="#191970" d="M259.2198,-124.1149C270.2647,-125.9207 281.536,-127.7634 292.38,-129.5362"/>
<polygon fill="#191970" stroke="#191970" points="259.5927,-120.6295 249.1589,-122.4701 258.4632,-127.5378 259.5927,-120.6295"/>
</g>
<!-- Node12 -->
<g id="node10" class="node">
<title>Node12</title>
<g id="a_node10"><a xlink:href="classLaplaceBEM_1_1LaplaceKernel_1_1HyperSingularKernel.html" target="_top" xlink:title="LaplaceBEM::LaplaceKernel\l::HyperSingularKernel\&lt;\l dim, RangeNumberType \&gt;">
<polygon fill="none" stroke="#000000" points="292.5,-60.5 292.5,-101.5 432.5,-101.5 432.5,-60.5 292.5,-60.5"/>
<text text-anchor="start" x="300.5" y="-89.5" font-family="Helvetica,sans-Serif" font-size="10.00" fill="#000000">LaplaceBEM::LaplaceKernel</text>
<text text-anchor="start" x="300.5" y="-78.5" font-family="Helvetica,sans-Serif" font-size="10.00" fill="#000000">::HyperSingularKernel&lt;</text>
<text text-anchor="middle" x="362.5" y="-67.5" font-family="Helvetica,sans-Serif" font-size="10.00" fill="#000000"> dim, RangeNumberType &gt;</text>
</a>
</g>
</g>
<!-- Node9&#45;&gt;Node12 -->
<g id="edge9" class="edge">
<title>Node9&#45;&gt;Node12</title>
<path fill="none" stroke="#191970" d="M259.2198,-97.8851C270.2647,-96.0793 281.536,-94.2366 292.38,-92.4638"/>
<polygon fill="#191970" stroke="#191970" points="258.4632,-94.4622 249.1589,-99.5299 259.5927,-101.3705 258.4632,-94.4622"/>
</g>
<!-- Node13 -->
<g id="node11" class="node">
<title>Node13</title>
<g id="a_node11"><a xlink:href="classLaplaceBEM_1_1LaplaceKernel_1_1SingleLayerKernel.html" target="_top" xlink:title="LaplaceBEM::LaplaceKernel\l::SingleLayerKernel\&lt; dim,\l RangeNumberType \&gt;">
<polygon fill="none" stroke="#000000" points="292.5,-.5 292.5,-41.5 432.5,-41.5 432.5,-.5 292.5,-.5"/>
<text text-anchor="start" x="300.5" y="-29.5" font-family="Helvetica,sans-Serif" font-size="10.00" fill="#000000">LaplaceBEM::LaplaceKernel</text>
<text text-anchor="start" x="300.5" y="-18.5" font-family="Helvetica,sans-Serif" font-size="10.00" fill="#000000">::SingleLayerKernel&lt; dim,</text>
<text text-anchor="middle" x="362.5" y="-7.5" font-family="Helvetica,sans-Serif" font-size="10.00" fill="#000000"> RangeNumberType &gt;</text>
</a>
</g>
</g>
<!-- Node9&#45;&gt;Node13 -->
<g id="edge10" class="edge">
<title>Node9&#45;&gt;Node13</title>
<path fill="none" stroke="#191970" d="M224.7989,-85.5346C245.1702,-74.5068 269.5743,-61.7009 292,-51 298.6027,-47.8494 305.6225,-44.6678 312.5753,-41.614"/>
<polygon fill="#191970" stroke="#191970" points="222.8549,-82.6078 215.7446,-90.4624 226.2011,-88.7562 222.8549,-82.6078"/>
</g>
</g>
</svg>
