<?xml version="1.0" encoding="UTF-8" standalone="no"?>
<!DOCTYPE svg PUBLIC "-//W3C//DTD SVG 1.1//EN"
 "http://www.w3.org/Graphics/SVG/1.1/DTD/svg11.dtd">
<!-- Generated by graphviz version 2.40.1 (20161225.0304)
 -->
<!-- Title: /home/jihuan/Projects/deal.ii/program/dealii&#45;9.1.1/examples/laplace&#45;bem/tests/lapack&#45;matrix&#45;agglomeration&#45;of&#45;two&#45;submatrices&#45;interwoven&#45;indices/lapack&#45;matrix&#45;agglomeration&#45;of&#45;two&#45;submatrices&#45;interwoven&#45;indices.cc Pages: 1 -->
<!--zoomable 295 -->
<svg id="main" version="1.1" xmlns="http://www.w3.org/2000/svg" xmlns:xlink="http://www.w3.org/1999/xlink" xml:space="preserve" onload="init(evt)">
<style type="text/css"><![CDATA[
.edge:hover path { stroke: red; }
.edge:hover polygon { stroke: red; fill: red; }
]]></style>
<script type="text/javascript"><![CDATA[
var edges = document.getElementsByTagName('g');
if (edges && edges.length) {
  for (var i=0;i<edges.length;i++) {
    if (edges[i].id.substr(0,4)=='edge') {
      edges[i].setAttribute('class','edge');
    }
  }
}
]]></script>
        <defs>
                <circle id="rim" cx="0" cy="0" r="7"/>
                <circle id="rim2" cx="0" cy="0" r="3.5"/>
                <g id="zoomPlus">
                        <use xlink:href="#rim" fill="#404040">
                                <set attributeName="fill" to="#808080" begin="zoomplus.mouseover" end="zoomplus.mouseout"/>
                        </use>
                        <path d="M-4,0h8M0,-4v8" fill="none" stroke="white" stroke-width="1.5" pointer-events="none"/>
                </g>
                <g id="zoomMin">
                        <use xlink:href="#rim" fill="#404040">
                                <set attributeName="fill" to="#808080" begin="zoomminus.mouseover" end="zoomminus.mouseout"/>
                        </use>
                        <path d="M-4,0h8" fill="none" stroke="white" stroke-width="1.5" pointer-events="none"/>
                </g>
                <g id="dirArrow">
                        <path fill="none" stroke="white" stroke-width="1.5" d="M0,-3.0v7 M-2.5,-0.5L0,-3.0L2.5,-0.5"/>
                </g>
               <g id="resetDef">
                       <use xlink:href="#rim2" fill="#404040">
                               <set attributeName="fill" to="#808080" begin="reset.mouseover" end="reset.mouseout"/>
                       </use>
               </g>
        </defs>

<script type="text/javascript">
var viewWidth = 1418;
var viewHeight = 295;
var sectionId = 'dynsection-0';
</script>
<script xlink:href="svgpan.js"/>
<svg id="graph" class="graph">
<g id="viewport">
<title>/home/jihuan/Projects/deal.ii/program/dealii&#45;9.1.1/examples/laplace&#45;bem/tests/lapack&#45;matrix&#45;agglomeration&#45;of&#45;two&#45;submatrices&#45;interwoven&#45;indices/lapack&#45;matrix&#45;agglomeration&#45;of&#45;two&#45;submatrices&#45;interwoven&#45;indices.cc</title>
<!-- Node0 -->
<g id="node1" class="node">
<title>Node0</title>
<polygon fill="#bfbfbf" stroke="#000000" points="56,-190.5 56,-286.5 223,-286.5 223,-190.5 56,-190.5"/>
<text text-anchor="start" x="64" y="-274.5" font-family="Helvetica,sans-Serif" font-size="10.00" fill="#000000">/home/jihuan/Projects</text>
<text text-anchor="start" x="64" y="-263.5" font-family="Helvetica,sans-Serif" font-size="10.00" fill="#000000">/deal.ii/program/dealii</text>
<text text-anchor="start" x="64" y="-252.5" font-family="Helvetica,sans-Serif" font-size="10.00" fill="#000000">&#45;9.1.1/examples/laplace</text>
<text text-anchor="start" x="64" y="-241.5" font-family="Helvetica,sans-Serif" font-size="10.00" fill="#000000">&#45;bem/tests/lapack&#45;matrix</text>
<text text-anchor="start" x="64" y="-230.5" font-family="Helvetica,sans-Serif" font-size="10.00" fill="#000000">&#45;agglomeration&#45;of&#45;two&#45;submatrices</text>
<text text-anchor="start" x="64" y="-219.5" font-family="Helvetica,sans-Serif" font-size="10.00" fill="#000000">&#45;interwoven&#45;indices/lapack&#45;matrix</text>
<text text-anchor="start" x="64" y="-208.5" font-family="Helvetica,sans-Serif" font-size="10.00" fill="#000000">&#45;agglomeration&#45;of&#45;two&#45;submatrices</text>
<text text-anchor="middle" x="139.5" y="-197.5" font-family="Helvetica,sans-Serif" font-size="10.00" fill="#000000">&#45;interwoven&#45;indices.cc</text>
</g>
<!-- Node1 -->
<g id="node2" class="node">
<title>Node1</title>
<polygon fill="none" stroke="#bfbfbf" points="18.5,-129 18.5,-148 72.5,-148 72.5,-129 18.5,-129"/>
<text text-anchor="middle" x="45.5" y="-136" font-family="Helvetica,sans-Serif" font-size="10.00" fill="#000000">iostream</text>
</g>
<!-- Node0&#45;&gt;Node1 -->
<g id="edge1" class="edge">
<title>Node0&#45;&gt;Node1</title>
<path fill="none" stroke="#191970" d="M94.152,-190.2575C82.4149,-177.7712 70.5403,-165.1386 61.4608,-155.4796"/>
<polygon fill="#191970" stroke="#191970" points="63.9551,-153.0229 54.5558,-148.1338 58.8547,-157.8173 63.9551,-153.0229"/>
</g>
<!-- Node2 -->
<g id="node3" class="node">
<title>Node2</title>
<g id="a_node3"><a xlink:href="generic__functors_8h.html" target="_top" xlink:title="This header file contains a set of self&#45;defined generic functors. ">
<polygon fill="none" stroke="#000000" points="91,-129 91,-148 188,-148 188,-129 91,-129"/>
<text text-anchor="middle" x="139.5" y="-136" font-family="Helvetica,sans-Serif" font-size="10.00" fill="#000000">generic_functors.h</text>
</a>
</g>
</g>
<!-- Node0&#45;&gt;Node2 -->
<g id="edge2" class="edge">
<title>Node0&#45;&gt;Node2</title>
<path fill="none" stroke="#191970" d="M139.5,-190.2575C139.5,-178.895 139.5,-167.4113 139.5,-158.1575"/>
<polygon fill="#191970" stroke="#191970" points="143.0001,-158.1338 139.5,-148.1338 136.0001,-158.1338 143.0001,-158.1338"/>
</g>
<!-- Node6 -->
<g id="node7" class="node">
<title>Node6</title>
<g id="a_node7"><a xlink:href="lapack__full__matrix__ext_8h_source.html" target="_top" xlink:title="lapack_full_matrix\l_ext.h">
<polygon fill="none" stroke="#000000" points="208,-123.5 208,-153.5 303,-153.5 303,-123.5 208,-123.5"/>
<text text-anchor="start" x="216" y="-141.5" font-family="Helvetica,sans-Serif" font-size="10.00" fill="#000000">lapack_full_matrix</text>
<text text-anchor="middle" x="255.5" y="-130.5" font-family="Helvetica,sans-Serif" font-size="10.00" fill="#000000">_ext.h</text>
</a>
</g>
</g>
<!-- Node0&#45;&gt;Node6 -->
<g id="edge6" class="edge">
<title>Node0&#45;&gt;Node6</title>
<path fill="none" stroke="#191970" d="M195.4613,-190.2575C207.6216,-179.7745 219.9015,-169.1883 230.1594,-160.3453"/>
<polygon fill="#191970" stroke="#191970" points="232.6228,-162.8427 237.9116,-153.6624 228.0522,-157.5409 232.6228,-162.8427"/>
</g>
<!-- Node3 -->
<g id="node4" class="node">
<title>Node3</title>
<polygon fill="none" stroke="#bfbfbf" points="0,-67.5 0,-86.5 103,-86.5 103,-67.5 0,-67.5"/>
<text text-anchor="middle" x="51.5" y="-74.5" font-family="Helvetica,sans-Serif" font-size="10.00" fill="#000000">deal.II/base/types.h</text>
</g>
<!-- Node2&#45;&gt;Node3 -->
<g id="edge3" class="edge">
<title>Node2&#45;&gt;Node3</title>
<path fill="none" stroke="#191970" d="M125.75,-128.8906C111.8009,-119.1421 89.9902,-103.8994 73.6103,-92.4521"/>
<polygon fill="#191970" stroke="#191970" points="75.3551,-89.4015 65.1534,-86.5419 71.3452,-95.1392 75.3551,-89.4015"/>
</g>
<!-- Node4 -->
<g id="node5" class="node">
<title>Node4</title>
<polygon fill="none" stroke="#bfbfbf" points="121,-67.5 121,-86.5 156,-86.5 156,-67.5 121,-67.5"/>
<text text-anchor="middle" x="138.5" y="-74.5" font-family="Helvetica,sans-Serif" font-size="10.00" fill="#000000">map</text>
</g>
<!-- Node2&#45;&gt;Node4 -->
<g id="edge4" class="edge">
<title>Node2&#45;&gt;Node4</title>
<path fill="none" stroke="#191970" d="M139.3438,-128.8906C139.2051,-120.3657 138.9982,-107.6392 138.824,-96.9235"/>
<polygon fill="#191970" stroke="#191970" points="142.3207,-96.6866 138.6585,-86.7449 135.3216,-96.8005 142.3207,-96.6866"/>
</g>
<!-- Node5 -->
<g id="node6" class="node">
<title>Node5</title>
<polygon fill="none" stroke="#bfbfbf" points="174.5,-67.5 174.5,-86.5 218.5,-86.5 218.5,-67.5 174.5,-67.5"/>
<text text-anchor="middle" x="196.5" y="-74.5" font-family="Helvetica,sans-Serif" font-size="10.00" fill="#000000">vector</text>
</g>
<!-- Node2&#45;&gt;Node5 -->
<g id="edge5" class="edge">
<title>Node2&#45;&gt;Node5</title>
<path fill="none" stroke="#191970" d="M148.4063,-128.8906C156.9728,-119.6478 170.1169,-105.466 180.5003,-94.2628"/>
<polygon fill="#191970" stroke="#191970" points="183.2375,-96.4584 187.4682,-86.7449 178.1035,-91.7 183.2375,-96.4584"/>
</g>
<!-- Node6&#45;&gt;Node4 -->
<g id="edge8" class="edge">
<title>Node6&#45;&gt;Node4</title>
<path fill="none" stroke="#191970" d="M226.8786,-123.4554C208.0978,-113.5835 183.701,-100.7595 165.2995,-91.0869"/>
<polygon fill="#191970" stroke="#191970" points="166.7648,-87.9031 156.2847,-86.3484 163.5078,-94.0993 166.7648,-87.9031"/>
</g>
<!-- Node6&#45;&gt;Node5 -->
<g id="edge9" class="edge">
<title>Node6&#45;&gt;Node5</title>
<path fill="none" stroke="#191970" d="M240.9157,-123.2977C232.47,-114.4941 221.8108,-103.3833 213.0516,-94.2529"/>
<polygon fill="#191970" stroke="#191970" points="215.3952,-91.6402 205.9466,-86.8469 210.3439,-96.4862 215.3952,-91.6402"/>
</g>
<!-- Node7 -->
<g id="node8" class="node">
<title>Node7</title>
<polygon fill="none" stroke="#bfbfbf" points="236.5,-67.5 236.5,-86.5 276.5,-86.5 276.5,-67.5 236.5,-67.5"/>
<text text-anchor="middle" x="256.5" y="-74.5" font-family="Helvetica,sans-Serif" font-size="10.00" fill="#000000">limits</text>
</g>
<!-- Node6&#45;&gt;Node7 -->
<g id="edge7" class="edge">
<title>Node6&#45;&gt;Node7</title>
<path fill="none" stroke="#191970" d="M255.7472,-123.2977C255.8759,-115.3834 256.0349,-105.6043 256.1736,-97.0759"/>
<polygon fill="#191970" stroke="#191970" points="259.6767,-96.9025 256.3399,-86.8469 252.6777,-96.7887 259.6767,-96.9025"/>
</g>
<!-- Node8 -->
<g id="node9" class="node">
<title>Node8</title>
<g id="a_node9"><a xlink:href="general__exceptions_8h.html" target="_top" xlink:title="Definition of self&#45;defined general exceptions. ">
<polygon fill="none" stroke="#000000" points="295,-67.5 295,-86.5 404,-86.5 404,-67.5 295,-67.5"/>
<text text-anchor="middle" x="349.5" y="-74.5" font-family="Helvetica,sans-Serif" font-size="10.00" fill="#000000">general_exceptions.h</text>
</a>
</g>
</g>
<!-- Node6&#45;&gt;Node8 -->
<g id="edge10" class="edge">
<title>Node6&#45;&gt;Node8</title>
<path fill="none" stroke="#191970" d="M278.736,-123.2977C293.2334,-113.8127 311.8244,-101.6495 326.3126,-92.1705"/>
<polygon fill="#191970" stroke="#191970" points="328.2782,-95.0671 334.7301,-86.6633 324.4457,-89.2094 328.2782,-95.0671"/>
</g>
<!-- Node10 -->
<g id="node11" class="node">
<title>Node10</title>
<g id="a_node11"><a xlink:href="lapack__helpers_8h.html" target="_top" xlink:title="Exposes LAPACK helper functions defined in lapack_full_matrix.cc and define new ones by following the...">
<polygon fill="none" stroke="#000000" points="658.5,-67.5 658.5,-86.5 748.5,-86.5 748.5,-67.5 658.5,-67.5"/>
<text text-anchor="middle" x="703.5" y="-74.5" font-family="Helvetica,sans-Serif" font-size="10.00" fill="#000000">lapack_helpers.h</text>
</a>
</g>
</g>
<!-- Node6&#45;&gt;Node10 -->
<g id="edge12" class="edge">
<title>Node6&#45;&gt;Node10</title>
<path fill="none" stroke="#191970" d="M303.0197,-131.9766C386.6332,-120.4985 559.5894,-96.7556 648.3341,-84.573"/>
<polygon fill="#191970" stroke="#191970" points="649.0375,-88.0093 658.4686,-83.1818 648.0855,-81.0744 649.0375,-88.0093"/>
</g>
<!-- Node9 -->
<g id="node10" class="node">
<title>Node9</title>
<polygon fill="none" stroke="#bfbfbf" points="51.5,-6 51.5,-25 177.5,-25 177.5,-6 51.5,-6"/>
<text text-anchor="middle" x="114.5" y="-13" font-family="Helvetica,sans-Serif" font-size="10.00" fill="#000000">deal.II/base/exceptions.h</text>
</g>
<!-- Node8&#45;&gt;Node9 -->
<g id="edge11" class="edge">
<title>Node8&#45;&gt;Node9</title>
<path fill="none" stroke="#191970" d="M313.0391,-67.4581C272.0485,-56.7308 205.4031,-39.2895 160.774,-27.61"/>
<polygon fill="#191970" stroke="#191970" points="161.6068,-24.2101 151.0464,-25.0643 159.8345,-30.9821 161.6068,-24.2101"/>
</g>
<!-- Node11 -->
<g id="node12" class="node">
<title>Node11</title>
<polygon fill="none" stroke="#bfbfbf" points="1003.5,-6 1003.5,-25 1119.5,-25 1119.5,-6 1003.5,-6"/>
<text text-anchor="middle" x="1061.5" y="-13" font-family="Helvetica,sans-Serif" font-size="10.00" fill="#000000">deal.II/base/numbers.h</text>
</g>
<!-- Node10&#45;&gt;Node11 -->
<g id="edge13" class="edge">
<title>Node10&#45;&gt;Node11</title>
<path fill="none" stroke="#191970" d="M748.5387,-70.8862C805.8748,-62.8726 907.8918,-47.8417 994.5,-31 1000.2811,-29.8758 1006.3219,-28.6094 1012.3077,-27.2972"/>
<polygon fill="#191970" stroke="#191970" points="1013.2818,-30.6658 1022.2739,-25.0629 1011.7504,-23.8354 1013.2818,-30.6658"/>
</g>
<!-- Node12 -->
<g id="node13" class="node">
<title>Node12</title>
<polygon fill="none" stroke="#bfbfbf" points="1137.5,-.5 1137.5,-30.5 1265.5,-30.5 1265.5,-.5 1137.5,-.5"/>
<text text-anchor="start" x="1145.5" y="-18.5" font-family="Helvetica,sans-Serif" font-size="10.00" fill="#000000">deal.II/lac/blas_extension</text>
<text text-anchor="middle" x="1201.5" y="-7.5" font-family="Helvetica,sans-Serif" font-size="10.00" fill="#000000">_templates.h</text>
</g>
<!-- Node10&#45;&gt;Node12 -->
<g id="edge14" class="edge">
<title>Node10&#45;&gt;Node12</title>
<path fill="none" stroke="#191970" d="M748.6769,-73.6249C824.7901,-67.6085 983.567,-53.6416 1127.5727,-31.0491"/>
<polygon fill="#191970" stroke="#191970" points="1128.1466,-34.5019 1137.4746,-29.4781 1127.0496,-27.5884 1128.1466,-34.5019"/>
</g>
<!-- Node13 -->
<g id="node14" class="node">
<title>Node13</title>
<polygon fill="none" stroke="#bfbfbf" points="1283.5,-6 1283.5,-25 1409.5,-25 1409.5,-6 1283.5,-6"/>
<text text-anchor="middle" x="1346.5" y="-13" font-family="Helvetica,sans-Serif" font-size="10.00" fill="#000000">deal.II/lac/block_vector.h</text>
</g>
<!-- Node10&#45;&gt;Node13 -->
<g id="edge15" class="edge">
<title>Node10&#45;&gt;Node13</title>
<path fill="none" stroke="#191970" d="M748.5144,-75.3895C845.2421,-71.4875 1079.93,-59.6534 1274.5,-31 1281.7184,-29.937 1289.2961,-28.5778 1296.7143,-27.1072"/>
<polygon fill="#191970" stroke="#191970" points="1297.5962,-30.499 1306.6824,-25.0502 1296.1814,-23.6435 1297.5962,-30.499"/>
</g>
<!-- Node14 -->
<g id="node15" class="node">
<title>Node14</title>
<polygon fill="none" stroke="#bfbfbf" points="195.5,-6 195.5,-25 311.5,-25 311.5,-6 195.5,-6"/>
<text text-anchor="middle" x="253.5" y="-13" font-family="Helvetica,sans-Serif" font-size="10.00" fill="#000000">deal.II/lac/full_matrix.h</text>
</g>
<!-- Node10&#45;&gt;Node14 -->
<g id="edge16" class="edge">
<title>Node10&#45;&gt;Node14</title>
<path fill="none" stroke="#191970" d="M658.4573,-73.1771C586.6334,-66.7253 441.8778,-52.2652 320.5,-31 314.326,-29.9183 307.8665,-28.6284 301.4982,-27.2612"/>
<polygon fill="#191970" stroke="#191970" points="302.1411,-23.8188 291.6202,-25.0678 300.6237,-30.6523 302.1411,-23.8188"/>
</g>
<!-- Node15 -->
<g id="node16" class="node">
<title>Node15</title>
<polygon fill="none" stroke="#bfbfbf" points="330,-.5 330,-30.5 421,-30.5 421,-.5 330,-.5"/>
<text text-anchor="start" x="338" y="-18.5" font-family="Helvetica,sans-Serif" font-size="10.00" fill="#000000">deal.II/lac/lapack</text>
<text text-anchor="middle" x="375.5" y="-7.5" font-family="Helvetica,sans-Serif" font-size="10.00" fill="#000000">_full_matrix.h</text>
</g>
<!-- Node10&#45;&gt;Node15 -->
<g id="edge17" class="edge">
<title>Node10&#45;&gt;Node15</title>
<path fill="none" stroke="#191970" d="M658.1026,-70.9847C605.5284,-63.6632 516.1772,-50.1281 430.9093,-31.1872"/>
<polygon fill="#191970" stroke="#191970" points="431.5957,-27.7542 421.0712,-28.9733 430.0588,-34.5835 431.5957,-27.7542"/>
</g>
<!-- Node16 -->
<g id="node17" class="node">
<title>Node16</title>
<polygon fill="none" stroke="#bfbfbf" points="439,-.5 439,-30.5 530,-30.5 530,-.5 439,-.5"/>
<text text-anchor="start" x="447" y="-18.5" font-family="Helvetica,sans-Serif" font-size="10.00" fill="#000000">deal.II/lac/lapack</text>
<text text-anchor="middle" x="484.5" y="-7.5" font-family="Helvetica,sans-Serif" font-size="10.00" fill="#000000">_support.h</text>
</g>
<!-- Node10&#45;&gt;Node16 -->
<g id="edge18" class="edge">
<title>Node10&#45;&gt;Node16</title>
<path fill="none" stroke="#191970" d="M669.0321,-67.4732C637.6586,-58.7834 589.8055,-45.4838 539.8411,-31.3701"/>
<polygon fill="#191970" stroke="#191970" points="540.7332,-27.9851 530.1581,-28.6321 538.8285,-34.721 540.7332,-27.9851"/>
</g>
<!-- Node17 -->
<g id="node18" class="node">
<title>Node17</title>
<polygon fill="none" stroke="#bfbfbf" points="548,-.5 548,-30.5 639,-30.5 639,-.5 548,-.5"/>
<text text-anchor="start" x="556" y="-18.5" font-family="Helvetica,sans-Serif" font-size="10.00" fill="#000000">deal.II/lac/lapack</text>
<text text-anchor="middle" x="593.5" y="-7.5" font-family="Helvetica,sans-Serif" font-size="10.00" fill="#000000">_templates.h</text>
</g>
<!-- Node10&#45;&gt;Node17 -->
<g id="edge19" class="edge">
<title>Node10&#45;&gt;Node17</title>
<path fill="none" stroke="#191970" d="M686.3125,-67.3906C671.0807,-58.8747 648.3497,-46.166 629.196,-35.4573"/>
<polygon fill="#191970" stroke="#191970" points="630.8455,-32.3697 620.409,-30.5446 627.4295,-38.4796 630.8455,-32.3697"/>
</g>
<!-- Node18 -->
<g id="node19" class="node">
<title>Node18</title>
<polygon fill="none" stroke="#bfbfbf" points="657.5,-.5 657.5,-30.5 749.5,-30.5 749.5,-.5 657.5,-.5"/>
<text text-anchor="start" x="665.5" y="-18.5" font-family="Helvetica,sans-Serif" font-size="10.00" fill="#000000">deal.II/lac/sparse</text>
<text text-anchor="middle" x="703.5" y="-7.5" font-family="Helvetica,sans-Serif" font-size="10.00" fill="#000000">_matrix.h</text>
</g>
<!-- Node10&#45;&gt;Node18 -->
<g id="edge20" class="edge">
<title>Node10&#45;&gt;Node18</title>
<path fill="none" stroke="#191970" d="M703.5,-67.3906C703.5,-60.2234 703.5,-50.0862 703.5,-40.671"/>
<polygon fill="#191970" stroke="#191970" points="707.0001,-40.5446 703.5,-30.5446 700.0001,-40.5446 707.0001,-40.5446"/>
</g>
<!-- Node19 -->
<g id="node20" class="node">
<title>Node19</title>
<polygon fill="none" stroke="#bfbfbf" points="768,-6 768,-25 869,-25 869,-6 768,-6"/>
<text text-anchor="middle" x="818.5" y="-13" font-family="Helvetica,sans-Serif" font-size="10.00" fill="#000000">deal.II/lac/utilities.h</text>
</g>
<!-- Node10&#45;&gt;Node19 -->
<g id="edge21" class="edge">
<title>Node10&#45;&gt;Node19</title>
<path fill="none" stroke="#191970" d="M721.4688,-67.3906C740.2884,-57.3262 770.0585,-41.4057 791.6641,-29.8514"/>
<polygon fill="#191970" stroke="#191970" points="793.4898,-32.8442 800.6574,-25.0419 790.1886,-26.6714 793.4898,-32.8442"/>
</g>
<!-- Node20 -->
<g id="node21" class="node">
<title>Node20</title>
<polygon fill="none" stroke="#bfbfbf" points="887.5,-6 887.5,-25 985.5,-25 985.5,-6 887.5,-6"/>
<text text-anchor="middle" x="936.5" y="-13" font-family="Helvetica,sans-Serif" font-size="10.00" fill="#000000">deal.II/lac/vector.h</text>
</g>
<!-- Node10&#45;&gt;Node20 -->
<g id="edge22" class="edge">
<title>Node10&#45;&gt;Node20</title>
<path fill="none" stroke="#191970" d="M740.0455,-67.4403C775.4568,-58.1663 830.6743,-43.6761 878.5,-31 882.5803,-29.9185 886.8213,-28.7913 891.0699,-27.6598"/>
<polygon fill="#191970" stroke="#191970" points="892.1647,-30.9903 900.9252,-25.0317 890.361,-24.2266 892.1647,-30.9903"/>
</g>
</g>
</svg>
        <g id="navigator" transform="translate(0 0)" fill="#404254">
                <rect fill="#f2f5e9" fill-opacity="0.5" stroke="#606060" stroke-width=".5" x="0" y="0" width="60" height="60"/>
                <use id="zoomplus" xlink:href="#zoomPlus" x="17" y="9" onmousedown="handleZoom(evt,'in')"/>
                <use id="zoomminus" xlink:href="#zoomMin" x="42" y="9" onmousedown="handleZoom(evt,'out')"/>
                <use id="reset" xlink:href="#resetDef" x="30" y="36" onmousedown="handleReset()"/>
                <g id="arrowUp" xlink:href="#dirArrow" transform="translate(30 24)" onmousedown="handlePan(0,-1)">
                  <use xlink:href="#rim" fill="#404040">
                        <set attributeName="fill" to="#808080" begin="arrowUp.mouseover" end="arrowUp.mouseout"/>
                  </use>
                  <path fill="none" stroke="white" stroke-width="1.5" d="M0,-3.0v7 M-2.5,-0.5L0,-3.0L2.5,-0.5"/>
                </g>
                <g id="arrowRight" xlink:href="#dirArrow" transform="rotate(90) translate(36 -43)" onmousedown="handlePan(1,0)">
                  <use xlink:href="#rim" fill="#404040">
                        <set attributeName="fill" to="#808080" begin="arrowRight.mouseover" end="arrowRight.mouseout"/>
                  </use>
                  <path fill="none" stroke="white" stroke-width="1.5" d="M0,-3.0v7 M-2.5,-0.5L0,-3.0L2.5,-0.5"/>
                </g>
                <g id="arrowDown" xlink:href="#dirArrow" transform="rotate(180) translate(-30 -48)" onmousedown="handlePan(0,1)">
                  <use xlink:href="#rim" fill="#404040">
                        <set attributeName="fill" to="#808080" begin="arrowDown.mouseover" end="arrowDown.mouseout"/>
                  </use>
                  <path fill="none" stroke="white" stroke-width="1.5" d="M0,-3.0v7 M-2.5,-0.5L0,-3.0L2.5,-0.5"/>
                </g>
                <g id="arrowLeft" xlink:href="#dirArrow" transform="rotate(270) translate(-36 17)" onmousedown="handlePan(-1,0)">
                  <use xlink:href="#rim" fill="#404040">
                        <set attributeName="fill" to="#808080" begin="arrowLeft.mouseover" end="arrowLeft.mouseout"/>
                  </use>
                  <path fill="none" stroke="white" stroke-width="1.5" d="M0,-3.0v7 M-2.5,-0.5L0,-3.0L2.5,-0.5"/>
                </g>
        </g>
        <svg viewBox="0 0 15 15" width="100%" height="30px" preserveAspectRatio="xMaxYMin meet">
         <g id="arrow_out" transform="scale(0.3 0.3)">
          <a xlink:href="lapack-matrix-agglomeration-of-two-submatrices-interwoven-indices_8cc__incl_org.svg" target="_base">
           <rect id="button" ry="5" rx="5" y="6" x="6" height="38" width="38"
                fill="#f2f5e9" fill-opacity="0.5" stroke="#606060" stroke-width="1.0"/>
           <path id="arrow"
             d="M 11.500037,31.436501 C 11.940474,20.09759 22.043105,11.32322 32.158766,21.979434 L 37.068811,17.246167 C 37.068811,17.246167 37.088388,32 37.088388,32 L 22.160133,31.978069 C 22.160133,31.978069 26.997745,27.140456 26.997745,27.140456 C 18.528582,18.264221 13.291696,25.230495 11.500037,31.436501 z"
             style="fill:#404040;"/>
          </a>
         </g>
        </svg>
</svg>
