<?xml version="1.0" encoding="UTF-8" standalone="no"?>
<!DOCTYPE svg PUBLIC "-//W3C//DTD SVG 1.1//EN"
 "http://www.w3.org/Graphics/SVG/1.1/DTD/svg11.dtd">
<!-- Generated by graphviz version 2.40.1 (20161225.0304)
 -->
<!-- Title: /home/jihuan/Projects/deal.ii/program/dealii&#45;9.1.1/examples/laplace&#45;bem/tests/lapack&#45;matrix&#45;mmult/lapack&#45;matrix&#45;mmult.cc Pages: 1 -->
<svg width="1858pt" height="329pt"
 viewBox="0.00 0.00 1858.00 329.00" xmlns="http://www.w3.org/2000/svg" xmlns:xlink="http://www.w3.org/1999/xlink">
<g id="graph0" class="graph" transform="scale(1 1) rotate(0) translate(4 325)">
<title>/home/jihuan/Projects/deal.ii/program/dealii&#45;9.1.1/examples/laplace&#45;bem/tests/lapack&#45;matrix&#45;mmult/lapack&#45;matrix&#45;mmult.cc</title>
<!-- Node0 -->
<g id="node1" class="node">
<title>Node0</title>
<polygon fill="#bfbfbf" stroke="#000000" points="210.5,-257.5 210.5,-320.5 362.5,-320.5 362.5,-257.5 210.5,-257.5"/>
<text text-anchor="start" x="218.5" y="-308.5" font-family="Helvetica,sans-Serif" font-size="10.00" fill="#000000">/home/jihuan/Projects</text>
<text text-anchor="start" x="218.5" y="-297.5" font-family="Helvetica,sans-Serif" font-size="10.00" fill="#000000">/deal.ii/program/dealii</text>
<text text-anchor="start" x="218.5" y="-286.5" font-family="Helvetica,sans-Serif" font-size="10.00" fill="#000000">&#45;9.1.1/examples/laplace</text>
<text text-anchor="start" x="218.5" y="-275.5" font-family="Helvetica,sans-Serif" font-size="10.00" fill="#000000">&#45;bem/tests/lapack&#45;matrix</text>
<text text-anchor="middle" x="286.5" y="-264.5" font-family="Helvetica,sans-Serif" font-size="10.00" fill="#000000">&#45;mmult/lapack&#45;matrix&#45;mmult.cc</text>
</g>
<!-- Node1 -->
<g id="node2" class="node">
<title>Node1</title>
<polygon fill="none" stroke="#bfbfbf" points="213.5,-196 213.5,-215 267.5,-215 267.5,-196 213.5,-196"/>
<text text-anchor="middle" x="240.5" y="-203" font-family="Helvetica,sans-Serif" font-size="10.00" fill="#000000">iostream</text>
</g>
<!-- Node0&#45;&gt;Node1 -->
<g id="edge1" class="edge">
<title>Node0&#45;&gt;Node1</title>
<path fill="none" stroke="#191970" d="M269.1094,-257.4322C262.9269,-246.2097 256.1686,-233.9419 250.7736,-224.1489"/>
<polygon fill="#191970" stroke="#191970" points="253.7958,-222.3812 245.905,-215.3112 247.6647,-225.7589 253.7958,-222.3812"/>
</g>
<!-- Node2 -->
<g id="node3" class="node">
<title>Node2</title>
<g id="a_node3"><a xlink:href="lapack__full__matrix__ext_8h_source.html" target="_top" xlink:title="lapack_full_matrix\l_ext.h">
<polygon fill="none" stroke="#000000" points="286,-190.5 286,-220.5 381,-220.5 381,-190.5 286,-190.5"/>
<text text-anchor="start" x="294" y="-208.5" font-family="Helvetica,sans-Serif" font-size="10.00" fill="#000000">lapack_full_matrix</text>
<text text-anchor="middle" x="333.5" y="-197.5" font-family="Helvetica,sans-Serif" font-size="10.00" fill="#000000">_ext.h</text>
</a>
</g>
</g>
<!-- Node0&#45;&gt;Node2 -->
<g id="edge2" class="edge">
<title>Node0&#45;&gt;Node2</title>
<path fill="none" stroke="#191970" d="M304.2687,-257.4322C309.4612,-248.2072 315.0514,-238.2757 319.9385,-229.5932"/>
<polygon fill="#191970" stroke="#191970" points="323.0585,-231.1857 324.9136,-220.7545 316.9585,-227.7521 323.0585,-231.1857"/>
</g>
<!-- Node3 -->
<g id="node4" class="node">
<title>Node3</title>
<polygon fill="none" stroke="#bfbfbf" points="23.5,-134.5 23.5,-153.5 63.5,-153.5 63.5,-134.5 23.5,-134.5"/>
<text text-anchor="middle" x="43.5" y="-141.5" font-family="Helvetica,sans-Serif" font-size="10.00" fill="#000000">limits</text>
</g>
<!-- Node2&#45;&gt;Node3 -->
<g id="edge3" class="edge">
<title>Node2&#45;&gt;Node3</title>
<path fill="none" stroke="#191970" d="M285.9912,-192.2507C282.7867,-191.459 279.6009,-190.7007 276.5,-190 188.8305,-170.1891 164.9615,-174.7102 77.5,-154 76.2202,-153.697 74.9171,-153.3748 73.6035,-153.0389"/>
<polygon fill="#191970" stroke="#191970" points="74.1102,-149.5487 63.5407,-150.2812 72.26,-156.2998 74.1102,-149.5487"/>
</g>
<!-- Node4 -->
<g id="node5" class="node">
<title>Node4</title>
<polygon fill="none" stroke="#bfbfbf" points="0,-73 0,-92 35,-92 35,-73 0,-73"/>
<text text-anchor="middle" x="17.5" y="-80" font-family="Helvetica,sans-Serif" font-size="10.00" fill="#000000">map</text>
</g>
<!-- Node2&#45;&gt;Node4 -->
<g id="edge4" class="edge">
<title>Node2&#45;&gt;Node4</title>
<path fill="none" stroke="#191970" d="M285.9528,-192.4121C282.7575,-191.5815 279.5844,-190.7704 276.5,-190 206.6247,-172.5469 184.2618,-183.3692 118.5,-154 86.8877,-139.8819 55.0519,-115.2051 35.8011,-98.8576"/>
<polygon fill="#191970" stroke="#191970" points="37.9737,-96.1092 28.123,-92.2086 33.3913,-101.4008 37.9737,-96.1092"/>
</g>
<!-- Node5 -->
<g id="node6" class="node">
<title>Node5</title>
<polygon fill="none" stroke="#bfbfbf" points="983,-134.5 983,-153.5 1024,-153.5 1024,-134.5 983,-134.5"/>
<text text-anchor="middle" x="1003.5" y="-141.5" font-family="Helvetica,sans-Serif" font-size="10.00" fill="#000000">regex</text>
</g>
<!-- Node2&#45;&gt;Node5 -->
<g id="edge5" class="edge">
<title>Node2&#45;&gt;Node5</title>
<path fill="none" stroke="#191970" d="M381.0437,-203.1652C505.8663,-196.8038 841.6977,-178.1399 972.5251,-153.6519"/>
<polygon fill="#191970" stroke="#191970" points="973.5592,-157.0156 982.6947,-151.6498 972.2069,-150.1475 973.5592,-157.0156"/>
</g>
<!-- Node6 -->
<g id="node7" class="node">
<title>Node6</title>
<polygon fill="none" stroke="#bfbfbf" points="1042.5,-134.5 1042.5,-153.5 1094.5,-153.5 1094.5,-134.5 1042.5,-134.5"/>
<text text-anchor="middle" x="1068.5" y="-141.5" font-family="Helvetica,sans-Serif" font-size="10.00" fill="#000000">sstream</text>
</g>
<!-- Node2&#45;&gt;Node6 -->
<g id="edge6" class="edge">
<title>Node2&#45;&gt;Node6</title>
<path fill="none" stroke="#191970" d="M381.4668,-203.254C514.915,-196.8065 889.553,-177.3035 1032.3852,-153.8183"/>
<polygon fill="#191970" stroke="#191970" points="1032.9995,-157.2642 1042.262,-152.1206 1031.8136,-150.3653 1032.9995,-157.2642"/>
</g>
<!-- Node7 -->
<g id="node8" class="node">
<title>Node7</title>
<polygon fill="none" stroke="#bfbfbf" points="1113,-134.5 1113,-153.5 1154,-153.5 1154,-134.5 1113,-134.5"/>
<text text-anchor="middle" x="1133.5" y="-141.5" font-family="Helvetica,sans-Serif" font-size="10.00" fill="#000000">string</text>
</g>
<!-- Node2&#45;&gt;Node7 -->
<g id="edge7" class="edge">
<title>Node2&#45;&gt;Node7</title>
<path fill="none" stroke="#191970" d="M381.0561,-203.9067C523.3854,-198.8935 945.326,-182.1878 1102.723,-153.5881"/>
<polygon fill="#191970" stroke="#191970" points="1103.5338,-156.9966 1112.7022,-151.6871 1102.2238,-150.1203 1103.5338,-156.9966"/>
</g>
<!-- Node8 -->
<g id="node9" class="node">
<title>Node8</title>
<polygon fill="none" stroke="#bfbfbf" points="53.5,-73 53.5,-92 97.5,-92 97.5,-73 53.5,-73"/>
<text text-anchor="middle" x="75.5" y="-80" font-family="Helvetica,sans-Serif" font-size="10.00" fill="#000000">vector</text>
</g>
<!-- Node2&#45;&gt;Node8 -->
<g id="edge8" class="edge">
<title>Node2&#45;&gt;Node8</title>
<path fill="none" stroke="#191970" d="M285.9322,-192.5683C232.1426,-177.8997 151.5683,-155.7701 148.5,-154 124.6438,-140.2374 102.8749,-116.8713 89.4354,-100.6113"/>
<polygon fill="#191970" stroke="#191970" points="91.851,-98.0288 82.8656,-92.4152 86.3891,-102.407 91.851,-98.0288"/>
</g>
<!-- Node9 -->
<g id="node10" class="node">
<title>Node9</title>
<g id="a_node10"><a xlink:href="general__exceptions_8h.html" target="_top" xlink:title="Definition of self&#45;defined general exceptions. ">
<polygon fill="none" stroke="#000000" points="158,-134.5 158,-153.5 267,-153.5 267,-134.5 158,-134.5"/>
<text text-anchor="middle" x="212.5" y="-141.5" font-family="Helvetica,sans-Serif" font-size="10.00" fill="#000000">general_exceptions.h</text>
</a>
</g>
</g>
<!-- Node2&#45;&gt;Node9 -->
<g id="edge9" class="edge">
<title>Node2&#45;&gt;Node9</title>
<path fill="none" stroke="#191970" d="M303.9001,-190.4554C284.5078,-180.599 259.3258,-167.7999 240.3057,-158.1327"/>
<polygon fill="#191970" stroke="#191970" points="241.7512,-154.9412 231.2507,-153.5303 238.5795,-161.1815 241.7512,-154.9412"/>
</g>
<!-- Node11 -->
<g id="node12" class="node">
<title>Node11</title>
<g id="a_node12"><a xlink:href="generic__functors_8h.html" target="_top" xlink:title="This header file contains a set of self&#45;defined generic functors. ">
<polygon fill="none" stroke="#000000" points="285,-134.5 285,-153.5 382,-153.5 382,-134.5 285,-134.5"/>
<text text-anchor="middle" x="333.5" y="-141.5" font-family="Helvetica,sans-Serif" font-size="10.00" fill="#000000">generic_functors.h</text>
</a>
</g>
</g>
<!-- Node2&#45;&gt;Node11 -->
<g id="edge11" class="edge">
<title>Node2&#45;&gt;Node11</title>
<path fill="none" stroke="#191970" d="M333.5,-190.2977C333.5,-182.3834 333.5,-172.6043 333.5,-164.0759"/>
<polygon fill="#191970" stroke="#191970" points="337.0001,-163.8469 333.5,-153.8469 330.0001,-163.847 337.0001,-163.8469"/>
</g>
<!-- Node16 -->
<g id="node17" class="node">
<title>Node16</title>
<g id="a_node17"><a xlink:href="lapack__helpers_8h.html" target="_top" xlink:title="Exposes LAPACK helper functions defined in lapack_full_matrix.cc and define new ones by following the...">
<polygon fill="none" stroke="#000000" points="874.5,-134.5 874.5,-153.5 964.5,-153.5 964.5,-134.5 874.5,-134.5"/>
<text text-anchor="middle" x="919.5" y="-141.5" font-family="Helvetica,sans-Serif" font-size="10.00" fill="#000000">lapack_helpers.h</text>
</a>
</g>
</g>
<!-- Node2&#45;&gt;Node16 -->
<g id="edge19" class="edge">
<title>Node2&#45;&gt;Node16</title>
<path fill="none" stroke="#191970" d="M381.4548,-200.4672C489.0742,-189.1727 749.3312,-161.859 863.8447,-149.841"/>
<polygon fill="#191970" stroke="#191970" points="864.5543,-153.2858 874.1343,-148.7611 863.8236,-146.324 864.5543,-153.2858"/>
</g>
<!-- Node10 -->
<g id="node11" class="node">
<title>Node10</title>
<polygon fill="none" stroke="#bfbfbf" points="115.5,-73 115.5,-92 241.5,-92 241.5,-73 115.5,-73"/>
<text text-anchor="middle" x="178.5" y="-80" font-family="Helvetica,sans-Serif" font-size="10.00" fill="#000000">deal.II/base/exceptions.h</text>
</g>
<!-- Node9&#45;&gt;Node10 -->
<g id="edge10" class="edge">
<title>Node9&#45;&gt;Node10</title>
<path fill="none" stroke="#191970" d="M207.1875,-134.3906C202.2761,-125.5068 194.8421,-112.0601 188.7725,-101.0811"/>
<polygon fill="#191970" stroke="#191970" points="191.7888,-99.3031 183.8874,-92.2449 185.6627,-102.6899 191.7888,-99.3031"/>
</g>
<!-- Node11&#45;&gt;Node4 -->
<g id="edge17" class="edge">
<title>Node11&#45;&gt;Node4</title>
<path fill="none" stroke="#191970" d="M284.7754,-135.5405C281.6374,-135.0139 278.5249,-134.4964 275.5,-134 172.9658,-117.1723 142.5314,-132.4425 44.5,-98 43.2953,-97.5767 42.0829,-97.0996 40.8747,-96.5821"/>
<polygon fill="#191970" stroke="#191970" points="42.3909,-93.4269 31.8858,-92.0506 39.2398,-99.6775 42.3909,-93.4269"/>
</g>
<!-- Node11&#45;&gt;Node8 -->
<g id="edge18" class="edge">
<title>Node11&#45;&gt;Node8</title>
<path fill="none" stroke="#191970" d="M284.9634,-134.8698C223.3884,-123.1775 123.1565,-103.7386 106.5,-98 104.8964,-97.4475 103.2701,-96.8288 101.6456,-96.1651"/>
<polygon fill="#191970" stroke="#191970" points="103.0823,-92.9736 92.5304,-92.0204 100.1848,-99.3458 103.0823,-92.9736"/>
</g>
<!-- Node11&#45;&gt;Node10 -->
<g id="edge12" class="edge">
<title>Node11&#45;&gt;Node10</title>
<path fill="none" stroke="#191970" d="M309.2813,-134.3906C283.1194,-124.0103 241.2571,-107.4004 211.9612,-95.7766"/>
<polygon fill="#191970" stroke="#191970" points="213.1346,-92.4767 202.5487,-92.0419 210.5529,-98.9833 213.1346,-92.4767"/>
</g>
<!-- Node12 -->
<g id="node13" class="node">
<title>Node12</title>
<polygon fill="none" stroke="#bfbfbf" points="410,-73 410,-92 513,-92 513,-73 410,-73"/>
<text text-anchor="middle" x="461.5" y="-80" font-family="Helvetica,sans-Serif" font-size="10.00" fill="#000000">deal.II/base/types.h</text>
</g>
<!-- Node11&#45;&gt;Node12 -->
<g id="edge13" class="edge">
<title>Node11&#45;&gt;Node12</title>
<path fill="none" stroke="#191970" d="M353.5,-134.3906C374.7289,-124.1908 408.4762,-107.9763 432.596,-96.3875"/>
<polygon fill="#191970" stroke="#191970" points="434.1426,-99.5275 441.6404,-92.0419 431.1111,-93.2179 434.1426,-99.5275"/>
</g>
<!-- Node13 -->
<g id="node14" class="node">
<title>Node13</title>
<polygon fill="none" stroke="#bfbfbf" points="650,-.5 650,-30.5 741,-30.5 741,-.5 650,-.5"/>
<text text-anchor="start" x="658" y="-18.5" font-family="Helvetica,sans-Serif" font-size="10.00" fill="#000000">deal.II/lac/lapack</text>
<text text-anchor="middle" x="695.5" y="-7.5" font-family="Helvetica,sans-Serif" font-size="10.00" fill="#000000">_support.h</text>
</g>
<!-- Node11&#45;&gt;Node13 -->
<g id="edge14" class="edge">
<title>Node11&#45;&gt;Node13</title>
<path fill="none" stroke="#191970" d="M382.2035,-137.9716C421.3657,-131.7632 476.9971,-119.8159 521.5,-98 541.3817,-88.2538 541.263,-77.964 560.5,-67 585.4156,-52.7996 615.0011,-41.0116 640.1165,-32.3134"/>
<polygon fill="#191970" stroke="#191970" points="641.5111,-35.5364 649.8605,-29.0144 639.2663,-28.9061 641.5111,-35.5364"/>
</g>
<!-- Node14 -->
<g id="node15" class="node">
<title>Node14</title>
<polygon fill="none" stroke="#bfbfbf" points="260,-73 260,-92 327,-92 327,-73 260,-73"/>
<text text-anchor="middle" x="293.5" y="-80" font-family="Helvetica,sans-Serif" font-size="10.00" fill="#000000">forward_list</text>
</g>
<!-- Node11&#45;&gt;Node14 -->
<g id="edge15" class="edge">
<title>Node11&#45;&gt;Node14</title>
<path fill="none" stroke="#191970" d="M327.25,-134.3906C321.4135,-125.417 312.5491,-111.7879 305.3694,-100.7491"/>
<polygon fill="#191970" stroke="#191970" points="308.2245,-98.7194 299.8381,-92.2449 302.3564,-102.5361 308.2245,-98.7194"/>
</g>
<!-- Node15 -->
<g id="node16" class="node">
<title>Node15</title>
<polygon fill="none" stroke="#bfbfbf" points="345,-73 345,-92 392,-92 392,-73 345,-73"/>
<text text-anchor="middle" x="368.5" y="-80" font-family="Helvetica,sans-Serif" font-size="10.00" fill="#000000">iterator</text>
</g>
<!-- Node11&#45;&gt;Node15 -->
<g id="edge16" class="edge">
<title>Node11&#45;&gt;Node15</title>
<path fill="none" stroke="#191970" d="M338.9688,-134.3906C344.0246,-125.5068 351.6772,-112.0601 357.9254,-101.0811"/>
<polygon fill="#191970" stroke="#191970" points="361.0498,-102.6672 362.9541,-92.2449 354.966,-99.2048 361.0498,-102.6672"/>
</g>
<!-- Node16&#45;&gt;Node13 -->
<g id="edge25" class="edge">
<title>Node16&#45;&gt;Node13</title>
<path fill="none" stroke="#191970" d="M874.4886,-139.4818C821.1444,-133.2039 736.6787,-120.0543 714.5,-98 699.5149,-83.099 695.369,-58.9119 694.6137,-40.5701"/>
<polygon fill="#191970" stroke="#191970" points="698.1134,-40.5218 694.5044,-30.5606 691.1139,-40.5982 698.1134,-40.5218"/>
</g>
<!-- Node17 -->
<g id="node18" class="node">
<title>Node17</title>
<polygon fill="none" stroke="#bfbfbf" points="861.5,-73 861.5,-92 977.5,-92 977.5,-73 861.5,-73"/>
<text text-anchor="middle" x="919.5" y="-80" font-family="Helvetica,sans-Serif" font-size="10.00" fill="#000000">deal.II/base/numbers.h</text>
</g>
<!-- Node16&#45;&gt;Node17 -->
<g id="edge20" class="edge">
<title>Node16&#45;&gt;Node17</title>
<path fill="none" stroke="#191970" d="M919.5,-134.3906C919.5,-125.8657 919.5,-113.1392 919.5,-102.4235"/>
<polygon fill="#191970" stroke="#191970" points="923.0001,-102.2448 919.5,-92.2449 916.0001,-102.2449 923.0001,-102.2448"/>
</g>
<!-- Node18 -->
<g id="node19" class="node">
<title>Node18</title>
<polygon fill="none" stroke="#bfbfbf" points="995.5,-67.5 995.5,-97.5 1123.5,-97.5 1123.5,-67.5 995.5,-67.5"/>
<text text-anchor="start" x="1003.5" y="-85.5" font-family="Helvetica,sans-Serif" font-size="10.00" fill="#000000">deal.II/lac/blas_extension</text>
<text text-anchor="middle" x="1059.5" y="-74.5" font-family="Helvetica,sans-Serif" font-size="10.00" fill="#000000">_templates.h</text>
</g>
<!-- Node16&#45;&gt;Node18 -->
<g id="edge21" class="edge">
<title>Node16&#45;&gt;Node18</title>
<path fill="none" stroke="#191970" d="M941.375,-134.3906C961.2872,-125.6435 991.2691,-112.4728 1016.0438,-101.5897"/>
<polygon fill="#191970" stroke="#191970" points="1017.5043,-104.771 1025.2521,-97.5446 1014.6889,-98.3621 1017.5043,-104.771"/>
</g>
<!-- Node19 -->
<g id="node20" class="node">
<title>Node19</title>
<polygon fill="none" stroke="#bfbfbf" points="1141.5,-73 1141.5,-92 1267.5,-92 1267.5,-73 1141.5,-73"/>
<text text-anchor="middle" x="1204.5" y="-80" font-family="Helvetica,sans-Serif" font-size="10.00" fill="#000000">deal.II/lac/block_vector.h</text>
</g>
<!-- Node16&#45;&gt;Node19 -->
<g id="edge22" class="edge">
<title>Node16&#45;&gt;Node19</title>
<path fill="none" stroke="#191970" d="M963.7185,-134.4581C1013.9527,-123.6181 1095.9573,-105.9224 1150.0772,-94.2439"/>
<polygon fill="#191970" stroke="#191970" points="1151.141,-97.595 1160.1777,-92.0643 1149.6644,-90.7524 1151.141,-97.595"/>
</g>
<!-- Node20 -->
<g id="node21" class="node">
<title>Node20</title>
<polygon fill="none" stroke="#bfbfbf" points="1285.5,-73 1285.5,-92 1401.5,-92 1401.5,-73 1285.5,-73"/>
<text text-anchor="middle" x="1343.5" y="-80" font-family="Helvetica,sans-Serif" font-size="10.00" fill="#000000">deal.II/lac/full_matrix.h</text>
</g>
<!-- Node16&#45;&gt;Node20 -->
<g id="edge23" class="edge">
<title>Node16&#45;&gt;Node20</title>
<path fill="none" stroke="#191970" d="M964.7842,-135.5398C968.0684,-134.9958 971.3329,-134.4762 974.5,-134 1108.1698,-113.9004 1143.3451,-121.2677 1276.5,-98 1282.6745,-96.9211 1289.1343,-95.6328 1295.5027,-94.2664"/>
<polygon fill="#191970" stroke="#191970" points="1296.3769,-97.6576 1305.3809,-92.0737 1294.86,-90.8239 1296.3769,-97.6576"/>
</g>
<!-- Node21 -->
<g id="node22" class="node">
<title>Node21</title>
<polygon fill="none" stroke="#bfbfbf" points="1420,-67.5 1420,-97.5 1511,-97.5 1511,-67.5 1420,-67.5"/>
<text text-anchor="start" x="1428" y="-85.5" font-family="Helvetica,sans-Serif" font-size="10.00" fill="#000000">deal.II/lac/lapack</text>
<text text-anchor="middle" x="1465.5" y="-74.5" font-family="Helvetica,sans-Serif" font-size="10.00" fill="#000000">_full_matrix.h</text>
</g>
<!-- Node16&#45;&gt;Node21 -->
<g id="edge24" class="edge">
<title>Node16&#45;&gt;Node21</title>
<path fill="none" stroke="#191970" d="M964.7658,-135.4089C968.0543,-134.8957 971.3248,-134.4187 974.5,-134 1164.068,-109.0009 1217.3919,-131.7486 1409.8694,-97.8721"/>
<polygon fill="#191970" stroke="#191970" points="1410.5101,-101.3132 1419.7378,-96.1075 1409.2779,-94.4224 1410.5101,-101.3132"/>
</g>
<!-- Node22 -->
<g id="node23" class="node">
<title>Node22</title>
<polygon fill="none" stroke="#bfbfbf" points="1529,-67.5 1529,-97.5 1620,-97.5 1620,-67.5 1529,-67.5"/>
<text text-anchor="start" x="1537" y="-85.5" font-family="Helvetica,sans-Serif" font-size="10.00" fill="#000000">deal.II/lac/lapack</text>
<text text-anchor="middle" x="1574.5" y="-74.5" font-family="Helvetica,sans-Serif" font-size="10.00" fill="#000000">_templates.h</text>
</g>
<!-- Node16&#45;&gt;Node22 -->
<g id="edge26" class="edge">
<title>Node16&#45;&gt;Node22</title>
<path fill="none" stroke="#191970" d="M964.7581,-135.349C968.0484,-134.8499 971.3214,-134.3925 974.5,-134 1212.561,-104.6071 1279.1113,-138.8255 1518.9215,-98.0415"/>
<polygon fill="#191970" stroke="#191970" points="1519.7361,-101.4527 1528.9946,-96.3019 1518.5449,-94.5548 1519.7361,-101.4527"/>
</g>
<!-- Node23 -->
<g id="node24" class="node">
<title>Node23</title>
<polygon fill="none" stroke="#bfbfbf" points="1638.5,-67.5 1638.5,-97.5 1730.5,-97.5 1730.5,-67.5 1638.5,-67.5"/>
<text text-anchor="start" x="1646.5" y="-85.5" font-family="Helvetica,sans-Serif" font-size="10.00" fill="#000000">deal.II/lac/sparse</text>
<text text-anchor="middle" x="1684.5" y="-74.5" font-family="Helvetica,sans-Serif" font-size="10.00" fill="#000000">_matrix.h</text>
</g>
<!-- Node16&#45;&gt;Node23 -->
<g id="edge27" class="edge">
<title>Node16&#45;&gt;Node23</title>
<path fill="none" stroke="#191970" d="M964.7533,-135.3095C968.0448,-134.8196 971.3193,-134.3751 974.5,-134 1260.7926,-100.2398 1340.1243,-144.8079 1628.544,-97.9036"/>
<polygon fill="#191970" stroke="#191970" points="1629.1558,-101.3501 1638.4531,-96.2697 1628.0169,-94.4433 1629.1558,-101.3501"/>
</g>
<!-- Node24 -->
<g id="node25" class="node">
<title>Node24</title>
<polygon fill="none" stroke="#bfbfbf" points="1749,-73 1749,-92 1850,-92 1850,-73 1749,-73"/>
<text text-anchor="middle" x="1799.5" y="-80" font-family="Helvetica,sans-Serif" font-size="10.00" fill="#000000">deal.II/lac/utilities.h</text>
</g>
<!-- Node16&#45;&gt;Node24 -->
<g id="edge28" class="edge">
<title>Node16&#45;&gt;Node24</title>
<path fill="none" stroke="#191970" d="M964.75,-135.2809C968.0422,-134.7978 971.3179,-134.3625 974.5,-134 1312.6886,-95.4709 1402.9415,-148.8367 1739.5,-98 1745.429,-97.1044 1751.6203,-95.8641 1757.6786,-94.4717"/>
<polygon fill="#191970" stroke="#191970" points="1758.8009,-97.8002 1767.6791,-92.0186 1757.1332,-91.0018 1758.8009,-97.8002"/>
</g>
<!-- Node25 -->
<g id="node26" class="node">
<title>Node25</title>
<polygon fill="none" stroke="#bfbfbf" points="569.5,-73 569.5,-92 667.5,-92 667.5,-73 569.5,-73"/>
<text text-anchor="middle" x="618.5" y="-80" font-family="Helvetica,sans-Serif" font-size="10.00" fill="#000000">deal.II/lac/vector.h</text>
</g>
<!-- Node16&#45;&gt;Node25 -->
<g id="edge29" class="edge">
<title>Node16&#45;&gt;Node25</title>
<path fill="none" stroke="#191970" d="M874.1774,-135.9414C826.1894,-127.2451 748.2964,-112.6624 681.5,-98 676.4719,-96.8963 671.2311,-95.6926 666.0139,-94.4599"/>
<polygon fill="#191970" stroke="#191970" points="666.6129,-91.0043 656.0721,-92.0721 664.9781,-97.8108 666.6129,-91.0043"/>
</g>
<!-- Node26 -->
<g id="node27" class="node">
<title>Node26</title>
<g id="a_node27"><a xlink:href="lapack__templates__ext_8h.html" target="_top" xlink:title="Append more template based LAPACK functions to those existing in deal.ii. ">
<polygon fill="none" stroke="#000000" points="723.5,-73 723.5,-92 843.5,-92 843.5,-73 723.5,-73"/>
<text text-anchor="middle" x="783.5" y="-80" font-family="Helvetica,sans-Serif" font-size="10.00" fill="#000000">lapack_templates_ext.h</text>
</a>
</g>
</g>
<!-- Node16&#45;&gt;Node26 -->
<g id="edge30" class="edge">
<title>Node16&#45;&gt;Node26</title>
<path fill="none" stroke="#191970" d="M898.25,-134.3906C875.5945,-124.1457 839.5202,-107.8326 813.8709,-96.2339"/>
<polygon fill="#191970" stroke="#191970" points="815.1546,-92.9732 804.6008,-92.0419 812.2703,-99.3514 815.1546,-92.9732"/>
</g>
<!-- Node26&#45;&gt;Node13 -->
<g id="edge31" class="edge">
<title>Node26&#45;&gt;Node13</title>
<path fill="none" stroke="#191970" d="M770.8917,-72.9005C758.5078,-63.4718 739.2012,-48.7725 723.226,-36.6096"/>
<polygon fill="#191970" stroke="#191970" points="725.3067,-33.7948 715.2301,-30.5218 721.0663,-39.3643 725.3067,-33.7948"/>
</g>
</g>
</svg>
