<?xml version="1.0" encoding="UTF-8" standalone="no"?>
<!DOCTYPE svg PUBLIC "-//W3C//DTD SVG 1.1//EN"
 "http://www.w3.org/Graphics/SVG/1.1/DTD/svg11.dtd">
<!-- Generated by graphviz version 2.40.1 (20161225.0304)
 -->
<!-- Title: /home/jihuan/Projects/deal.ii/program/dealii&#45;9.1.1/examples/laplace&#45;bem/tests/lapack&#45;matrix&#45;inverse/lapack&#45;matrix&#45;inverse.cc Pages: 1 -->
<svg width="1709pt" height="329pt"
 viewBox="0.00 0.00 1708.50 329.00" xmlns="http://www.w3.org/2000/svg" xmlns:xlink="http://www.w3.org/1999/xlink">
<g id="graph0" class="graph" transform="scale(1 1) rotate(0) translate(4 325)">
<title>/home/jihuan/Projects/deal.ii/program/dealii&#45;9.1.1/examples/laplace&#45;bem/tests/lapack&#45;matrix&#45;inverse/lapack&#45;matrix&#45;inverse.cc</title>
<!-- Node0 -->
<g id="node1" class="node">
<title>Node0</title>
<polygon fill="#bfbfbf" stroke="#000000" points="145,-257.5 145,-320.5 306,-320.5 306,-257.5 145,-257.5"/>
<text text-anchor="start" x="153" y="-308.5" font-family="Helvetica,sans-Serif" font-size="10.00" fill="#000000">/home/jihuan/Projects</text>
<text text-anchor="start" x="153" y="-297.5" font-family="Helvetica,sans-Serif" font-size="10.00" fill="#000000">/deal.ii/program/dealii</text>
<text text-anchor="start" x="153" y="-286.5" font-family="Helvetica,sans-Serif" font-size="10.00" fill="#000000">&#45;9.1.1/examples/laplace</text>
<text text-anchor="start" x="153" y="-275.5" font-family="Helvetica,sans-Serif" font-size="10.00" fill="#000000">&#45;bem/tests/lapack&#45;matrix</text>
<text text-anchor="middle" x="225.5" y="-264.5" font-family="Helvetica,sans-Serif" font-size="10.00" fill="#000000">&#45;inverse/lapack&#45;matrix&#45;inverse.cc</text>
</g>
<!-- Node1 -->
<g id="node2" class="node">
<title>Node1</title>
<polygon fill="none" stroke="#bfbfbf" points="103.5,-196 103.5,-215 147.5,-215 147.5,-196 103.5,-196"/>
<text text-anchor="middle" x="125.5" y="-203" font-family="Helvetica,sans-Serif" font-size="10.00" fill="#000000">cmath</text>
</g>
<!-- Node0&#45;&gt;Node1 -->
<g id="edge1" class="edge">
<title>Node0&#45;&gt;Node1</title>
<path fill="none" stroke="#191970" d="M187.6943,-257.4322C173.1342,-245.2745 157.1048,-231.89 144.9662,-221.7542"/>
<polygon fill="#191970" stroke="#191970" points="147.1692,-219.034 137.2499,-215.3112 142.6826,-224.4072 147.1692,-219.034"/>
</g>
<!-- Node2 -->
<g id="node3" class="node">
<title>Node2</title>
<polygon fill="none" stroke="#bfbfbf" points="165.5,-196 165.5,-215 215.5,-215 215.5,-196 165.5,-196"/>
<text text-anchor="middle" x="190.5" y="-203" font-family="Helvetica,sans-Serif" font-size="10.00" fill="#000000">fstream</text>
</g>
<!-- Node0&#45;&gt;Node2 -->
<g id="edge2" class="edge">
<title>Node0&#45;&gt;Node2</title>
<path fill="none" stroke="#191970" d="M212.268,-257.4322C207.662,-246.4435 202.6358,-234.4526 198.5748,-224.7641"/>
<polygon fill="#191970" stroke="#191970" points="201.7062,-223.1808 194.6125,-215.3112 195.2504,-225.8868 201.7062,-223.1808"/>
</g>
<!-- Node3 -->
<g id="node4" class="node">
<title>Node3</title>
<polygon fill="none" stroke="#bfbfbf" points="233.5,-196 233.5,-215 287.5,-215 287.5,-196 233.5,-196"/>
<text text-anchor="middle" x="260.5" y="-203" font-family="Helvetica,sans-Serif" font-size="10.00" fill="#000000">iostream</text>
</g>
<!-- Node0&#45;&gt;Node3 -->
<g id="edge3" class="edge">
<title>Node0&#45;&gt;Node3</title>
<path fill="none" stroke="#191970" d="M238.732,-257.4322C243.338,-246.4435 248.3642,-234.4526 252.4252,-224.7641"/>
<polygon fill="#191970" stroke="#191970" points="255.7496,-225.8868 256.3875,-215.3112 249.2938,-223.1808 255.7496,-225.8868"/>
</g>
<!-- Node4 -->
<g id="node5" class="node">
<title>Node4</title>
<g id="a_node5"><a xlink:href="lapack__full__matrix__ext_8h_source.html" target="_top" xlink:title="lapack_full_matrix\l_ext.h">
<polygon fill="none" stroke="#000000" points="306,-190.5 306,-220.5 401,-220.5 401,-190.5 306,-190.5"/>
<text text-anchor="start" x="314" y="-208.5" font-family="Helvetica,sans-Serif" font-size="10.00" fill="#000000">lapack_full_matrix</text>
<text text-anchor="middle" x="353.5" y="-197.5" font-family="Helvetica,sans-Serif" font-size="10.00" fill="#000000">_ext.h</text>
</a>
</g>
</g>
<!-- Node0&#45;&gt;Node4 -->
<g id="edge4" class="edge">
<title>Node0&#45;&gt;Node4</title>
<path fill="none" stroke="#191970" d="M273.8913,-257.4322C289.9553,-246.953 307.4165,-235.5623 321.8814,-226.1262"/>
<polygon fill="#191970" stroke="#191970" points="323.9982,-228.9242 330.4614,-220.5291 320.1736,-223.0614 323.9982,-228.9242"/>
</g>
<!-- Node5 -->
<g id="node6" class="node">
<title>Node5</title>
<polygon fill="none" stroke="#bfbfbf" points="49.5,-134.5 49.5,-153.5 89.5,-153.5 89.5,-134.5 49.5,-134.5"/>
<text text-anchor="middle" x="69.5" y="-141.5" font-family="Helvetica,sans-Serif" font-size="10.00" fill="#000000">limits</text>
</g>
<!-- Node4&#45;&gt;Node5 -->
<g id="edge5" class="edge">
<title>Node4&#45;&gt;Node5</title>
<path fill="none" stroke="#191970" d="M305.9868,-192.2702C302.7833,-191.4738 299.599,-190.7092 296.5,-190 211.4414,-170.5358 188.3542,-174.3368 103.5,-154 102.2211,-153.6935 100.9187,-153.3684 99.6056,-153.0301"/>
<polygon fill="#191970" stroke="#191970" points="100.1152,-149.5403 89.5451,-150.2628 98.2587,-156.2897 100.1152,-149.5403"/>
</g>
<!-- Node6 -->
<g id="node7" class="node">
<title>Node6</title>
<polygon fill="none" stroke="#bfbfbf" points="0,-73 0,-92 35,-92 35,-73 0,-73"/>
<text text-anchor="middle" x="17.5" y="-80" font-family="Helvetica,sans-Serif" font-size="10.00" fill="#000000">map</text>
</g>
<!-- Node4&#45;&gt;Node6 -->
<g id="edge6" class="edge">
<title>Node4&#45;&gt;Node6</title>
<path fill="none" stroke="#191970" d="M305.9516,-192.4171C302.7566,-191.5852 299.5838,-190.7725 296.5,-190 227.0571,-172.604 206.0413,-180.4045 139.5,-154 119.6474,-146.1222 70.421,-115.9221 40.9222,-97.3834"/>
<polygon fill="#191970" stroke="#191970" points="42.7802,-94.4173 32.4551,-92.042 39.0454,-100.3377 42.7802,-94.4173"/>
</g>
<!-- Node7 -->
<g id="node8" class="node">
<title>Node7</title>
<polygon fill="none" stroke="#bfbfbf" points="969,-134.5 969,-153.5 1010,-153.5 1010,-134.5 969,-134.5"/>
<text text-anchor="middle" x="989.5" y="-141.5" font-family="Helvetica,sans-Serif" font-size="10.00" fill="#000000">regex</text>
</g>
<!-- Node4&#45;&gt;Node7 -->
<g id="edge7" class="edge">
<title>Node4&#45;&gt;Node7</title>
<path fill="none" stroke="#191970" d="M401.1812,-202.9115C521.3212,-196.1615 835.0615,-177.0644 958.7221,-153.6244"/>
<polygon fill="#191970" stroke="#191970" points="959.5691,-157.0245 968.6922,-151.6374 958.2009,-150.1595 959.5691,-157.0245"/>
</g>
<!-- Node8 -->
<g id="node9" class="node">
<title>Node8</title>
<polygon fill="none" stroke="#bfbfbf" points="1028.5,-134.5 1028.5,-153.5 1080.5,-153.5 1080.5,-134.5 1028.5,-134.5"/>
<text text-anchor="middle" x="1054.5" y="-141.5" font-family="Helvetica,sans-Serif" font-size="10.00" fill="#000000">sstream</text>
</g>
<!-- Node4&#45;&gt;Node8 -->
<g id="edge8" class="edge">
<title>Node4&#45;&gt;Node8</title>
<path fill="none" stroke="#191970" d="M401.0135,-203.0715C529.3381,-196.3195 881.8438,-176.4453 1018.062,-153.8789"/>
<polygon fill="#191970" stroke="#191970" points="1019.0054,-157.2675 1028.2601,-152.1099 1017.809,-150.3705 1019.0054,-157.2675"/>
</g>
<!-- Node9 -->
<g id="node10" class="node">
<title>Node9</title>
<polygon fill="none" stroke="#bfbfbf" points="1099,-134.5 1099,-153.5 1140,-153.5 1140,-134.5 1099,-134.5"/>
<text text-anchor="middle" x="1119.5" y="-141.5" font-family="Helvetica,sans-Serif" font-size="10.00" fill="#000000">string</text>
</g>
<!-- Node4&#45;&gt;Node9 -->
<g id="edge9" class="edge">
<title>Node4&#45;&gt;Node9</title>
<path fill="none" stroke="#191970" d="M401.4427,-203.7227C539.7302,-198.3523 938.4852,-181.0909 1088.7428,-153.5904"/>
<polygon fill="#191970" stroke="#191970" points="1089.5398,-157.0014 1098.7005,-151.6786 1088.2199,-150.1269 1089.5398,-157.0014"/>
</g>
<!-- Node10 -->
<g id="node11" class="node">
<title>Node10</title>
<polygon fill="none" stroke="#bfbfbf" points="53.5,-73 53.5,-92 97.5,-92 97.5,-73 53.5,-73"/>
<text text-anchor="middle" x="75.5" y="-80" font-family="Helvetica,sans-Serif" font-size="10.00" fill="#000000">vector</text>
</g>
<!-- Node4&#45;&gt;Node10 -->
<g id="edge10" class="edge">
<title>Node4&#45;&gt;Node10</title>
<path fill="none" stroke="#191970" d="M305.8395,-192.2252C254.8945,-177.9694 180.57,-156.9533 174.5,-154 143.9429,-139.133 112.8414,-114.8545 93.8555,-98.7773"/>
<polygon fill="#191970" stroke="#191970" points="96.1241,-96.112 86.2638,-92.2358 91.5547,-101.415 96.1241,-96.112"/>
</g>
<!-- Node11 -->
<g id="node12" class="node">
<title>Node11</title>
<g id="a_node12"><a xlink:href="general__exceptions_8h.html" target="_top" xlink:title="Definition of self&#45;defined general exceptions. ">
<polygon fill="none" stroke="#000000" points="299,-134.5 299,-153.5 408,-153.5 408,-134.5 299,-134.5"/>
<text text-anchor="middle" x="353.5" y="-141.5" font-family="Helvetica,sans-Serif" font-size="10.00" fill="#000000">general_exceptions.h</text>
</a>
</g>
</g>
<!-- Node4&#45;&gt;Node11 -->
<g id="edge11" class="edge">
<title>Node4&#45;&gt;Node11</title>
<path fill="none" stroke="#191970" d="M353.5,-190.2977C353.5,-182.3834 353.5,-172.6043 353.5,-164.0759"/>
<polygon fill="#191970" stroke="#191970" points="357.0001,-163.8469 353.5,-153.8469 350.0001,-163.847 357.0001,-163.8469"/>
</g>
<!-- Node13 -->
<g id="node14" class="node">
<title>Node13</title>
<g id="a_node14"><a xlink:href="generic__functors_8h.html" target="_top" xlink:title="This header file contains a set of self&#45;defined generic functors. ">
<polygon fill="none" stroke="#000000" points="184,-134.5 184,-153.5 281,-153.5 281,-134.5 184,-134.5"/>
<text text-anchor="middle" x="232.5" y="-141.5" font-family="Helvetica,sans-Serif" font-size="10.00" fill="#000000">generic_functors.h</text>
</a>
</g>
</g>
<!-- Node4&#45;&gt;Node13 -->
<g id="edge13" class="edge">
<title>Node4&#45;&gt;Node13</title>
<path fill="none" stroke="#191970" d="M323.9001,-190.4554C304.5078,-180.599 279.3258,-167.7999 260.3057,-158.1327"/>
<polygon fill="#191970" stroke="#191970" points="261.7512,-154.9412 251.2507,-153.5303 258.5795,-161.1815 261.7512,-154.9412"/>
</g>
<!-- Node16 -->
<g id="node17" class="node">
<title>Node16</title>
<g id="a_node17"><a xlink:href="lapack__helpers_8h.html" target="_top" xlink:title="Exposes LAPACK helper functions defined in lapack_full_matrix.cc and define new ones by following the...">
<polygon fill="none" stroke="#000000" points="860.5,-134.5 860.5,-153.5 950.5,-153.5 950.5,-134.5 860.5,-134.5"/>
<text text-anchor="middle" x="905.5" y="-141.5" font-family="Helvetica,sans-Serif" font-size="10.00" fill="#000000">lapack_helpers.h</text>
</a>
</g>
</g>
<!-- Node4&#45;&gt;Node16 -->
<g id="edge19" class="edge">
<title>Node4&#45;&gt;Node16</title>
<path fill="none" stroke="#191970" d="M401.041,-200.2033C502.8843,-188.8566 741.6507,-162.255 850.1265,-150.1693"/>
<polygon fill="#191970" stroke="#191970" points="850.6575,-153.6319 860.2085,-149.0461 849.8824,-146.675 850.6575,-153.6319"/>
</g>
<!-- Node12 -->
<g id="node13" class="node">
<title>Node12</title>
<polygon fill="none" stroke="#bfbfbf" points="275.5,-73 275.5,-92 401.5,-92 401.5,-73 275.5,-73"/>
<text text-anchor="middle" x="338.5" y="-80" font-family="Helvetica,sans-Serif" font-size="10.00" fill="#000000">deal.II/base/exceptions.h</text>
</g>
<!-- Node11&#45;&gt;Node12 -->
<g id="edge12" class="edge">
<title>Node11&#45;&gt;Node12</title>
<path fill="none" stroke="#191970" d="M351.1563,-134.3906C349.0551,-125.776 345.9075,-112.8708 343.277,-102.0858"/>
<polygon fill="#191970" stroke="#191970" points="346.6468,-101.1307 340.8768,-92.2449 339.8461,-102.7894 346.6468,-101.1307"/>
</g>
<!-- Node13&#45;&gt;Node6 -->
<g id="edge17" class="edge">
<title>Node13&#45;&gt;Node6</title>
<path fill="none" stroke="#191970" d="M183.823,-135.9873C145.1668,-128.7061 90.2048,-116.2844 44.5,-98 43.4963,-97.5985 42.4847,-97.1651 41.4725,-96.7073"/>
<polygon fill="#191970" stroke="#191970" points="43.0403,-93.5779 32.5451,-92.1277 39.8452,-99.8062 43.0403,-93.5779"/>
</g>
<!-- Node13&#45;&gt;Node10 -->
<g id="edge18" class="edge">
<title>Node13&#45;&gt;Node10</title>
<path fill="none" stroke="#191970" d="M203.6131,-134.4997C177.8366,-125.7762 139.2211,-112.0991 106.5,-98 105.3188,-97.491 104.1188,-96.959 102.9112,-96.4113"/>
<polygon fill="#191970" stroke="#191970" points="104.2307,-93.1632 93.6968,-92.0289 101.2242,-99.4847 104.2307,-93.1632"/>
</g>
<!-- Node13&#45;&gt;Node12 -->
<g id="edge14" class="edge">
<title>Node13&#45;&gt;Node12</title>
<path fill="none" stroke="#191970" d="M249.0625,-134.3906C266.2537,-124.4165 293.3582,-108.6908 313.2266,-97.1633"/>
<polygon fill="#191970" stroke="#191970" points="315.1606,-100.0877 322.0538,-92.0419 311.6477,-94.033 315.1606,-100.0877"/>
</g>
<!-- Node14 -->
<g id="node15" class="node">
<title>Node14</title>
<polygon fill="none" stroke="#bfbfbf" points="116,-73 116,-92 219,-92 219,-73 116,-73"/>
<text text-anchor="middle" x="167.5" y="-80" font-family="Helvetica,sans-Serif" font-size="10.00" fill="#000000">deal.II/base/types.h</text>
</g>
<!-- Node13&#45;&gt;Node14 -->
<g id="edge15" class="edge">
<title>Node13&#45;&gt;Node14</title>
<path fill="none" stroke="#191970" d="M222.3438,-134.3906C212.4801,-125.0581 197.2945,-110.6902 185.4013,-99.4374"/>
<polygon fill="#191970" stroke="#191970" points="187.4689,-96.5753 177.7994,-92.2449 182.6579,-101.6601 187.4689,-96.5753"/>
</g>
<!-- Node15 -->
<g id="node16" class="node">
<title>Node15</title>
<polygon fill="none" stroke="#bfbfbf" points="434,-.5 434,-30.5 525,-30.5 525,-.5 434,-.5"/>
<text text-anchor="start" x="442" y="-18.5" font-family="Helvetica,sans-Serif" font-size="10.00" fill="#000000">deal.II/lac/lapack</text>
<text text-anchor="middle" x="479.5" y="-7.5" font-family="Helvetica,sans-Serif" font-size="10.00" fill="#000000">_support.h</text>
</g>
<!-- Node13&#45;&gt;Node15 -->
<g id="edge16" class="edge">
<title>Node13&#45;&gt;Node15</title>
<path fill="none" stroke="#191970" d="M233.9601,-134.3165C236.9642,-117.8855 245.4188,-84.6166 266.5,-67 290.1352,-47.2491 369.0855,-31.88 423.9208,-23.2513"/>
<polygon fill="#191970" stroke="#191970" points="424.5104,-26.7018 433.8604,-21.719 423.4439,-19.7836 424.5104,-26.7018"/>
</g>
<!-- Node16&#45;&gt;Node15 -->
<g id="edge25" class="edge">
<title>Node16&#45;&gt;Node15</title>
<path fill="none" stroke="#191970" d="M950.7771,-135.4912C954.0629,-134.9587 957.3298,-134.4549 960.5,-134 1035.9264,-123.177 1250.5261,-154.6386 1301.5,-98 1310.7168,-87.759 1310.9329,-77.0423 1301.5,-67 1275.2564,-39.0607 716.0955,-21.79 535.3288,-16.9209"/>
<polygon fill="#191970" stroke="#191970" points="535.3257,-13.4197 525.2358,-16.6514 535.1388,-20.4172 535.3257,-13.4197"/>
</g>
<!-- Node17 -->
<g id="node18" class="node">
<title>Node17</title>
<polygon fill="none" stroke="#bfbfbf" points="1584.5,-73 1584.5,-92 1700.5,-92 1700.5,-73 1584.5,-73"/>
<text text-anchor="middle" x="1642.5" y="-80" font-family="Helvetica,sans-Serif" font-size="10.00" fill="#000000">deal.II/base/numbers.h</text>
</g>
<!-- Node16&#45;&gt;Node17 -->
<g id="edge20" class="edge">
<title>Node16&#45;&gt;Node17</title>
<path fill="none" stroke="#191970" d="M950.7549,-135.3224C954.0459,-134.8295 957.32,-134.3807 960.5,-134 1232.3596,-101.4505 1304.4899,-136.995 1575.5,-98 1582.2489,-97.0289 1589.321,-95.7197 1596.2362,-94.2716"/>
<polygon fill="#191970" stroke="#191970" points="1597.1884,-97.6458 1606.1996,-92.0737 1595.6804,-90.8101 1597.1884,-97.6458"/>
</g>
<!-- Node18 -->
<g id="node19" class="node">
<title>Node18</title>
<polygon fill="none" stroke="#bfbfbf" points="557.5,-67.5 557.5,-97.5 685.5,-97.5 685.5,-67.5 557.5,-67.5"/>
<text text-anchor="start" x="565.5" y="-85.5" font-family="Helvetica,sans-Serif" font-size="10.00" fill="#000000">deal.II/lac/blas_extension</text>
<text text-anchor="middle" x="621.5" y="-74.5" font-family="Helvetica,sans-Serif" font-size="10.00" fill="#000000">_templates.h</text>
</g>
<!-- Node16&#45;&gt;Node18 -->
<g id="edge21" class="edge">
<title>Node16&#45;&gt;Node18</title>
<path fill="none" stroke="#191970" d="M861.4366,-134.4581C817.2334,-124.8859 748.3438,-109.9679 695.6998,-98.5679"/>
<polygon fill="#191970" stroke="#191970" points="696.2489,-95.1058 685.7347,-96.41 694.7674,-101.9472 696.2489,-95.1058"/>
</g>
<!-- Node19 -->
<g id="node20" class="node">
<title>Node19</title>
<polygon fill="none" stroke="#bfbfbf" points="703.5,-73 703.5,-92 829.5,-92 829.5,-73 703.5,-73"/>
<text text-anchor="middle" x="766.5" y="-80" font-family="Helvetica,sans-Serif" font-size="10.00" fill="#000000">deal.II/lac/block_vector.h</text>
</g>
<!-- Node16&#45;&gt;Node19 -->
<g id="edge22" class="edge">
<title>Node16&#45;&gt;Node19</title>
<path fill="none" stroke="#191970" d="M883.7813,-134.3906C860.626,-124.1457 823.7559,-107.8326 797.5409,-96.2339"/>
<polygon fill="#191970" stroke="#191970" points="798.6273,-92.8874 788.0662,-92.0419 795.795,-99.2888 798.6273,-92.8874"/>
</g>
<!-- Node20 -->
<g id="node21" class="node">
<title>Node20</title>
<polygon fill="none" stroke="#bfbfbf" points="847.5,-73 847.5,-92 963.5,-92 963.5,-73 847.5,-73"/>
<text text-anchor="middle" x="905.5" y="-80" font-family="Helvetica,sans-Serif" font-size="10.00" fill="#000000">deal.II/lac/full_matrix.h</text>
</g>
<!-- Node16&#45;&gt;Node20 -->
<g id="edge23" class="edge">
<title>Node16&#45;&gt;Node20</title>
<path fill="none" stroke="#191970" d="M905.5,-134.3906C905.5,-125.8657 905.5,-113.1392 905.5,-102.4235"/>
<polygon fill="#191970" stroke="#191970" points="909.0001,-102.2448 905.5,-92.2449 902.0001,-102.2449 909.0001,-102.2448"/>
</g>
<!-- Node21 -->
<g id="node22" class="node">
<title>Node21</title>
<polygon fill="none" stroke="#bfbfbf" points="982,-67.5 982,-97.5 1073,-97.5 1073,-67.5 982,-67.5"/>
<text text-anchor="start" x="990" y="-85.5" font-family="Helvetica,sans-Serif" font-size="10.00" fill="#000000">deal.II/lac/lapack</text>
<text text-anchor="middle" x="1027.5" y="-74.5" font-family="Helvetica,sans-Serif" font-size="10.00" fill="#000000">_full_matrix.h</text>
</g>
<!-- Node16&#45;&gt;Node21 -->
<g id="edge24" class="edge">
<title>Node16&#45;&gt;Node21</title>
<path fill="none" stroke="#191970" d="M924.5625,-134.3906C941.6088,-125.7976 967.1236,-112.9356 988.4856,-102.1671"/>
<polygon fill="#191970" stroke="#191970" points="990.3014,-105.1714 997.6554,-97.5446 987.1503,-98.9207 990.3014,-105.1714"/>
</g>
<!-- Node22 -->
<g id="node23" class="node">
<title>Node22</title>
<polygon fill="none" stroke="#bfbfbf" points="1091,-67.5 1091,-97.5 1182,-97.5 1182,-67.5 1091,-67.5"/>
<text text-anchor="start" x="1099" y="-85.5" font-family="Helvetica,sans-Serif" font-size="10.00" fill="#000000">deal.II/lac/lapack</text>
<text text-anchor="middle" x="1136.5" y="-74.5" font-family="Helvetica,sans-Serif" font-size="10.00" fill="#000000">_templates.h</text>
</g>
<!-- Node16&#45;&gt;Node22 -->
<g id="edge26" class="edge">
<title>Node16&#45;&gt;Node22</title>
<path fill="none" stroke="#191970" d="M943.2093,-134.4937C976.9909,-125.9121 1028.1366,-112.7596 1080.9755,-98.386"/>
<polygon fill="#191970" stroke="#191970" points="1082.1321,-101.6984 1090.8576,-95.6887 1080.2889,-94.9454 1082.1321,-101.6984"/>
</g>
<!-- Node23 -->
<g id="node24" class="node">
<title>Node23</title>
<polygon fill="none" stroke="#bfbfbf" points="1200.5,-67.5 1200.5,-97.5 1292.5,-97.5 1292.5,-67.5 1200.5,-67.5"/>
<text text-anchor="start" x="1208.5" y="-85.5" font-family="Helvetica,sans-Serif" font-size="10.00" fill="#000000">deal.II/lac/sparse</text>
<text text-anchor="middle" x="1246.5" y="-74.5" font-family="Helvetica,sans-Serif" font-size="10.00" fill="#000000">_matrix.h</text>
</g>
<!-- Node16&#45;&gt;Node23 -->
<g id="edge27" class="edge">
<title>Node16&#45;&gt;Node23</title>
<path fill="none" stroke="#191970" d="M950.5067,-135.7214C953.8867,-135.129 957.2463,-134.5492 960.5,-134 1059.8548,-117.2286 1088.2733,-119.9437 1190.5852,-98.0526"/>
<polygon fill="#191970" stroke="#191970" points="1191.3554,-101.467 1200.3877,-95.9291 1189.8734,-94.6257 1191.3554,-101.467"/>
</g>
<!-- Node24 -->
<g id="node25" class="node">
<title>Node24</title>
<polygon fill="none" stroke="#bfbfbf" points="1349,-73 1349,-92 1450,-92 1450,-73 1349,-73"/>
<text text-anchor="middle" x="1399.5" y="-80" font-family="Helvetica,sans-Serif" font-size="10.00" fill="#000000">deal.II/lac/utilities.h</text>
</g>
<!-- Node16&#45;&gt;Node24 -->
<g id="edge28" class="edge">
<title>Node16&#45;&gt;Node24</title>
<path fill="none" stroke="#191970" d="M950.7724,-135.4579C954.0593,-134.9332 957.3277,-134.4403 960.5,-134 1125.9051,-111.0437 1169.7782,-125.4328 1334.5,-98 1340.7331,-96.9619 1347.2564,-95.6639 1353.6642,-94.2635"/>
<polygon fill="#191970" stroke="#191970" points="1354.6092,-97.638 1363.5802,-92.0014 1353.0522,-90.8133 1354.6092,-97.638"/>
</g>
<!-- Node25 -->
<g id="node26" class="node">
<title>Node25</title>
<polygon fill="none" stroke="#bfbfbf" points="1468.5,-73 1468.5,-92 1566.5,-92 1566.5,-73 1468.5,-73"/>
<text text-anchor="middle" x="1517.5" y="-80" font-family="Helvetica,sans-Serif" font-size="10.00" fill="#000000">deal.II/lac/vector.h</text>
</g>
<!-- Node16&#45;&gt;Node25 -->
<g id="edge29" class="edge">
<title>Node16&#45;&gt;Node25</title>
<path fill="none" stroke="#191970" d="M950.7609,-135.3714C954.0506,-134.867 957.3227,-134.4023 960.5,-134 1181.0932,-106.0715 1240.2237,-134.8685 1459.5,-98 1464.9605,-97.0819 1470.6524,-95.8773 1476.2445,-94.5448"/>
<polygon fill="#191970" stroke="#191970" points="1477.2957,-97.8891 1486.131,-92.0421 1475.5779,-91.1032 1477.2957,-97.8891"/>
</g>
<!-- Node26 -->
<g id="node27" class="node">
<title>Node26</title>
<g id="a_node27"><a xlink:href="lapack__templates__ext_8h.html" target="_top" xlink:title="Append more template based LAPACK functions to those existing in deal.ii. ">
<polygon fill="none" stroke="#000000" points="419.5,-73 419.5,-92 539.5,-92 539.5,-73 419.5,-73"/>
<text text-anchor="middle" x="479.5" y="-80" font-family="Helvetica,sans-Serif" font-size="10.00" fill="#000000">lapack_templates_ext.h</text>
</a>
</g>
</g>
<!-- Node16&#45;&gt;Node26 -->
<g id="edge30" class="edge">
<title>Node16&#45;&gt;Node26</title>
<path fill="none" stroke="#191970" d="M860.493,-139.556C792.5956,-132.5463 660.0447,-117.6712 548.5,-98 542.2315,-96.8945 535.6721,-95.6011 529.1967,-94.2412"/>
<polygon fill="#191970" stroke="#191970" points="529.658,-90.7602 519.1441,-92.067 528.1782,-97.602 529.658,-90.7602"/>
</g>
<!-- Node26&#45;&gt;Node15 -->
<g id="edge31" class="edge">
<title>Node26&#45;&gt;Node15</title>
<path fill="none" stroke="#191970" d="M479.5,-72.9005C479.5,-64.5099 479.5,-51.9451 479.5,-40.7085"/>
<polygon fill="#191970" stroke="#191970" points="483.0001,-40.5217 479.5,-30.5218 476.0001,-40.5218 483.0001,-40.5217"/>
</g>
</g>
</svg>
