<?xml version="1.0" encoding="UTF-8" standalone="no"?>
<!DOCTYPE svg PUBLIC "-//W3C//DTD SVG 1.1//EN"
 "http://www.w3.org/Graphics/SVG/1.1/DTD/svg11.dtd">
<!-- Generated by graphviz version 2.40.1 (20161225.0304)
 -->
<!-- Title: /home/jihuan/Projects/deal.ii/program/dealii&#45;9.1.1/examples/laplace&#45;bem/tests/lapack&#45;matrix&#45;global&#45;to&#45;submatrix/lapack&#45;matrix&#45;global&#45;to&#45;submatrix.cc Pages: 1 -->
<svg width="1781pt" height="340pt"
 viewBox="0.00 0.00 1781.27 340.00" xmlns="http://www.w3.org/2000/svg" xmlns:xlink="http://www.w3.org/1999/xlink">
<g id="graph0" class="graph" transform="scale(1 1) rotate(0) translate(4 336)">
<title>/home/jihuan/Projects/deal.ii/program/dealii&#45;9.1.1/examples/laplace&#45;bem/tests/lapack&#45;matrix&#45;global&#45;to&#45;submatrix/lapack&#45;matrix&#45;global&#45;to&#45;submatrix.cc</title>
<!-- Node0 -->
<g id="node1" class="node">
<title>Node0</title>
<polygon fill="#bfbfbf" stroke="#000000" points="244.2715,-257.5 244.2715,-331.5 390.2715,-331.5 390.2715,-257.5 244.2715,-257.5"/>
<text text-anchor="start" x="252.2715" y="-319.5" font-family="Helvetica,sans-Serif" font-size="10.00" fill="#000000">/home/jihuan/Projects</text>
<text text-anchor="start" x="252.2715" y="-308.5" font-family="Helvetica,sans-Serif" font-size="10.00" fill="#000000">/deal.ii/program/dealii</text>
<text text-anchor="start" x="252.2715" y="-297.5" font-family="Helvetica,sans-Serif" font-size="10.00" fill="#000000">&#45;9.1.1/examples/laplace</text>
<text text-anchor="start" x="252.2715" y="-286.5" font-family="Helvetica,sans-Serif" font-size="10.00" fill="#000000">&#45;bem/tests/lapack&#45;matrix</text>
<text text-anchor="start" x="252.2715" y="-275.5" font-family="Helvetica,sans-Serif" font-size="10.00" fill="#000000">&#45;global&#45;to&#45;submatrix/lapack</text>
<text text-anchor="middle" x="317.2715" y="-264.5" font-family="Helvetica,sans-Serif" font-size="10.00" fill="#000000">&#45;matrix&#45;global&#45;to&#45;submatrix.cc</text>
</g>
<!-- Node1 -->
<g id="node2" class="node">
<title>Node1</title>
<polygon fill="none" stroke="#bfbfbf" points="3.7715,-73 3.7715,-92 106.7715,-92 106.7715,-73 3.7715,-73"/>
<text text-anchor="middle" x="55.2715" y="-80" font-family="Helvetica,sans-Serif" font-size="10.00" fill="#000000">deal.II/base/types.h</text>
</g>
<!-- Node0&#45;&gt;Node1 -->
<g id="edge1" class="edge">
<title>Node0&#45;&gt;Node1</title>
<path fill="none" stroke="#191970" d="M244.2477,-284.6153C169.4945,-270.1795 57.026,-235.5062 4.2715,-154 -8.517,-134.2417 12.6586,-112.3155 31.4893,-98.0191"/>
<polygon fill="#191970" stroke="#191970" points="33.7617,-100.6964 39.8458,-92.0227 29.6806,-95.0092 33.7617,-100.6964"/>
</g>
<!-- Node2 -->
<g id="node3" class="node">
<title>Node2</title>
<polygon fill="none" stroke="#bfbfbf" points="383.2715,-196 383.2715,-215 437.2715,-215 437.2715,-196 383.2715,-196"/>
<text text-anchor="middle" x="410.2715" y="-203" font-family="Helvetica,sans-Serif" font-size="10.00" fill="#000000">iostream</text>
</g>
<!-- Node0&#45;&gt;Node2 -->
<g id="edge2" class="edge">
<title>Node0&#45;&gt;Node2</title>
<path fill="none" stroke="#191970" d="M356.173,-257.2717C369.0241,-244.9733 382.671,-231.9134 393.0432,-221.9872"/>
<polygon fill="#191970" stroke="#191970" points="395.4643,-224.5148 400.2692,-215.0721 390.6245,-219.4574 395.4643,-224.5148"/>
</g>
<!-- Node3 -->
<g id="node4" class="node">
<title>Node3</title>
<g id="a_node4"><a xlink:href="lapack__full__matrix__ext_8h_source.html" target="_top" xlink:title="lapack_full_matrix\l_ext.h">
<polygon fill="none" stroke="#000000" points="269.7715,-190.5 269.7715,-220.5 364.7715,-220.5 364.7715,-190.5 269.7715,-190.5"/>
<text text-anchor="start" x="277.7715" y="-208.5" font-family="Helvetica,sans-Serif" font-size="10.00" fill="#000000">lapack_full_matrix</text>
<text text-anchor="middle" x="317.2715" y="-197.5" font-family="Helvetica,sans-Serif" font-size="10.00" fill="#000000">_ext.h</text>
</a>
</g>
</g>
<!-- Node0&#45;&gt;Node3 -->
<g id="edge3" class="edge">
<title>Node0&#45;&gt;Node3</title>
<path fill="none" stroke="#191970" d="M317.2715,-257.2717C317.2715,-248.3955 317.2715,-239.1226 317.2715,-230.9174"/>
<polygon fill="#191970" stroke="#191970" points="320.7716,-230.8693 317.2715,-220.8693 313.7716,-230.8693 320.7716,-230.8693"/>
</g>
<!-- Node4 -->
<g id="node5" class="node">
<title>Node4</title>
<polygon fill="none" stroke="#bfbfbf" points="1163.2715,-134.5 1163.2715,-153.5 1203.2715,-153.5 1203.2715,-134.5 1163.2715,-134.5"/>
<text text-anchor="middle" x="1183.2715" y="-141.5" font-family="Helvetica,sans-Serif" font-size="10.00" fill="#000000">limits</text>
</g>
<!-- Node3&#45;&gt;Node4 -->
<g id="edge4" class="edge">
<title>Node3&#45;&gt;Node4</title>
<path fill="none" stroke="#191970" d="M365.0005,-191.705C368.1225,-191.0558 371.2322,-190.4774 374.2715,-190 713.8387,-136.6578 811.5649,-217.6609 1153.2685,-153.6343"/>
<polygon fill="#191970" stroke="#191970" points="1154.0209,-157.054 1163.191,-151.7473 1152.7131,-150.1772 1154.0209,-157.054"/>
</g>
<!-- Node5 -->
<g id="node6" class="node">
<title>Node5</title>
<polygon fill="none" stroke="#bfbfbf" points="376.7715,-73 376.7715,-92 411.7715,-92 411.7715,-73 376.7715,-73"/>
<text text-anchor="middle" x="394.2715" y="-80" font-family="Helvetica,sans-Serif" font-size="10.00" fill="#000000">map</text>
</g>
<!-- Node3&#45;&gt;Node5 -->
<g id="edge5" class="edge">
<title>Node3&#45;&gt;Node5</title>
<path fill="none" stroke="#191970" d="M364.9411,-190.6547C393.9226,-180.5577 426.9158,-166.7636 435.2715,-154 447.2181,-135.7512 430.4021,-113.8848 414.8401,-99.1788"/>
<polygon fill="#191970" stroke="#191970" points="416.7778,-96.2188 406.9755,-92.1982 412.131,-101.4541 416.7778,-96.2188"/>
</g>
<!-- Node6 -->
<g id="node7" class="node">
<title>Node6</title>
<polygon fill="none" stroke="#bfbfbf" points="13.7715,-134.5 13.7715,-153.5 54.7715,-153.5 54.7715,-134.5 13.7715,-134.5"/>
<text text-anchor="middle" x="34.2715" y="-141.5" font-family="Helvetica,sans-Serif" font-size="10.00" fill="#000000">regex</text>
</g>
<!-- Node3&#45;&gt;Node6 -->
<g id="edge6" class="edge">
<title>Node3&#45;&gt;Node6</title>
<path fill="none" stroke="#191970" d="M269.3087,-197.5208C220.2234,-188.9579 141.6321,-174.1517 64.6899,-153.8513"/>
<polygon fill="#191970" stroke="#191970" points="65.3936,-150.4166 54.829,-151.2165 63.5865,-157.1794 65.3936,-150.4166"/>
</g>
<!-- Node7 -->
<g id="node8" class="node">
<title>Node7</title>
<polygon fill="none" stroke="#bfbfbf" points="73.2715,-134.5 73.2715,-153.5 125.2715,-153.5 125.2715,-134.5 73.2715,-134.5"/>
<text text-anchor="middle" x="99.2715" y="-141.5" font-family="Helvetica,sans-Serif" font-size="10.00" fill="#000000">sstream</text>
</g>
<!-- Node3&#45;&gt;Node7 -->
<g id="edge7" class="edge">
<title>Node3&#45;&gt;Node7</title>
<path fill="none" stroke="#191970" d="M269.4781,-192.106C234.7813,-182.3695 186.4421,-168.7787 135.517,-154.3465"/>
<polygon fill="#191970" stroke="#191970" points="136.2171,-150.9071 125.6416,-151.5464 134.3075,-157.6416 136.2171,-150.9071"/>
</g>
<!-- Node8 -->
<g id="node9" class="node">
<title>Node8</title>
<polygon fill="none" stroke="#bfbfbf" points="143.7715,-134.5 143.7715,-153.5 184.7715,-153.5 184.7715,-134.5 143.7715,-134.5"/>
<text text-anchor="middle" x="164.2715" y="-141.5" font-family="Helvetica,sans-Serif" font-size="10.00" fill="#000000">string</text>
</g>
<!-- Node3&#45;&gt;Node8 -->
<g id="edge8" class="edge">
<title>Node3&#45;&gt;Node8</title>
<path fill="none" stroke="#191970" d="M279.8435,-190.4554C253.5624,-179.8914 218.8714,-165.947 194.3771,-156.1013"/>
<polygon fill="#191970" stroke="#191970" points="195.466,-152.7669 184.8821,-152.2847 192.8553,-159.2618 195.466,-152.7669"/>
</g>
<!-- Node9 -->
<g id="node10" class="node">
<title>Node9</title>
<polygon fill="none" stroke="#bfbfbf" points="430.2715,-73 430.2715,-92 474.2715,-92 474.2715,-73 430.2715,-73"/>
<text text-anchor="middle" x="452.2715" y="-80" font-family="Helvetica,sans-Serif" font-size="10.00" fill="#000000">vector</text>
</g>
<!-- Node3&#45;&gt;Node9 -->
<g id="edge9" class="edge">
<title>Node3&#45;&gt;Node9</title>
<path fill="none" stroke="#191970" d="M364.4291,-190.4298C401.2006,-178.2056 446.9175,-161.7727 452.2715,-154 462.584,-139.0285 461.0973,-117.7865 457.9366,-102.3483"/>
<polygon fill="#191970" stroke="#191970" points="461.2565,-101.1894 455.484,-92.3053 454.4564,-102.8501 461.2565,-101.1894"/>
</g>
<!-- Node10 -->
<g id="node11" class="node">
<title>Node10</title>
<g id="a_node11"><a xlink:href="general__exceptions_8h.html" target="_top" xlink:title="Definition of self&#45;defined general exceptions. ">
<polygon fill="none" stroke="#000000" points="202.7715,-134.5 202.7715,-153.5 311.7715,-153.5 311.7715,-134.5 202.7715,-134.5"/>
<text text-anchor="middle" x="257.2715" y="-141.5" font-family="Helvetica,sans-Serif" font-size="10.00" fill="#000000">general_exceptions.h</text>
</a>
</g>
</g>
<!-- Node3&#45;&gt;Node10 -->
<g id="edge10" class="edge">
<title>Node3&#45;&gt;Node10</title>
<path fill="none" stroke="#191970" d="M302.44,-190.2977C293.8511,-181.4941 283.0112,-170.3833 274.1036,-161.2529"/>
<polygon fill="#191970" stroke="#191970" points="276.3668,-158.5606 266.8782,-153.8469 271.3563,-163.4489 276.3668,-158.5606"/>
</g>
<!-- Node12 -->
<g id="node13" class="node">
<title>Node12</title>
<g id="a_node13"><a xlink:href="generic__functors_8h.html" target="_top" xlink:title="This header file contains a set of self&#45;defined generic functors. ">
<polygon fill="none" stroke="#000000" points="329.7715,-134.5 329.7715,-153.5 426.7715,-153.5 426.7715,-134.5 329.7715,-134.5"/>
<text text-anchor="middle" x="378.2715" y="-141.5" font-family="Helvetica,sans-Serif" font-size="10.00" fill="#000000">generic_functors.h</text>
</a>
</g>
</g>
<!-- Node3&#45;&gt;Node12 -->
<g id="edge12" class="edge">
<title>Node3&#45;&gt;Node12</title>
<path fill="none" stroke="#191970" d="M332.3501,-190.2977C341.1704,-181.4052 352.3256,-170.1586 361.4326,-160.9769"/>
<polygon fill="#191970" stroke="#191970" points="363.9474,-163.4116 368.5046,-153.8469 358.9775,-158.4821 363.9474,-163.4116"/>
</g>
<!-- Node14 -->
<g id="node15" class="node">
<title>Node14</title>
<g id="a_node15"><a xlink:href="lapack__helpers_8h.html" target="_top" xlink:title="Exposes LAPACK helper functions defined in lapack_full_matrix.cc and define new ones by following the...">
<polygon fill="none" stroke="#000000" points="1055.2715,-134.5 1055.2715,-153.5 1145.2715,-153.5 1145.2715,-134.5 1055.2715,-134.5"/>
<text text-anchor="middle" x="1100.2715" y="-141.5" font-family="Helvetica,sans-Serif" font-size="10.00" fill="#000000">lapack_helpers.h</text>
</a>
</g>
</g>
<!-- Node3&#45;&gt;Node14 -->
<g id="edge18" class="edge">
<title>Node3&#45;&gt;Node14</title>
<path fill="none" stroke="#191970" d="M365.0104,-191.7659C368.1299,-191.1018 371.2364,-190.5035 374.2715,-190 503.2434,-168.6048 898.4315,-151.7299 1044.8989,-146.0569"/>
<polygon fill="#191970" stroke="#191970" points="1045.1497,-149.55 1055.0077,-145.6679 1044.8805,-142.5552 1045.1497,-149.55"/>
</g>
<!-- Node11 -->
<g id="node12" class="node">
<title>Node11</title>
<polygon fill="none" stroke="#bfbfbf" points="194.2715,-73 194.2715,-92 320.2715,-92 320.2715,-73 194.2715,-73"/>
<text text-anchor="middle" x="257.2715" y="-80" font-family="Helvetica,sans-Serif" font-size="10.00" fill="#000000">deal.II/base/exceptions.h</text>
</g>
<!-- Node10&#45;&gt;Node11 -->
<g id="edge11" class="edge">
<title>Node10&#45;&gt;Node11</title>
<path fill="none" stroke="#191970" d="M257.2715,-134.3906C257.2715,-125.8657 257.2715,-113.1392 257.2715,-102.4235"/>
<polygon fill="#191970" stroke="#191970" points="260.7716,-102.2448 257.2715,-92.2449 253.7716,-102.2449 260.7716,-102.2448"/>
</g>
<!-- Node12&#45;&gt;Node1 -->
<g id="edge14" class="edge">
<title>Node12&#45;&gt;Node1</title>
<path fill="none" stroke="#191970" d="M329.5654,-134.7262C272.2206,-123.8077 176.9802,-105.6736 115.1716,-93.9051"/>
<polygon fill="#191970" stroke="#191970" points="115.6503,-90.4335 105.1721,-92.0012 114.3409,-97.3099 115.6503,-90.4335"/>
</g>
<!-- Node12&#45;&gt;Node5 -->
<g id="edge16" class="edge">
<title>Node12&#45;&gt;Node5</title>
<path fill="none" stroke="#191970" d="M380.7715,-134.3906C383.0127,-125.776 386.3701,-112.8708 389.176,-102.0858"/>
<polygon fill="#191970" stroke="#191970" points="392.6056,-102.804 391.7362,-92.2449 385.8311,-101.0414 392.6056,-102.804"/>
</g>
<!-- Node12&#45;&gt;Node9 -->
<g id="edge17" class="edge">
<title>Node12&#45;&gt;Node9</title>
<path fill="none" stroke="#191970" d="M389.834,-134.3906C401.2793,-124.8786 419.0188,-110.1357 432.6685,-98.7917"/>
<polygon fill="#191970" stroke="#191970" points="435.0923,-101.3283 440.546,-92.2449 430.6181,-95.9447 435.0923,-101.3283"/>
</g>
<!-- Node12&#45;&gt;Node11 -->
<g id="edge13" class="edge">
<title>Node12&#45;&gt;Node11</title>
<path fill="none" stroke="#191970" d="M359.3652,-134.3906C339.4749,-124.2811 307.9592,-108.2628 285.2023,-96.6962"/>
<polygon fill="#191970" stroke="#191970" points="286.5454,-93.4528 276.045,-92.0419 283.3737,-99.693 286.5454,-93.4528"/>
</g>
<!-- Node13 -->
<g id="node14" class="node">
<title>Node13</title>
<polygon fill="none" stroke="#bfbfbf" points="506.7715,-.5 506.7715,-30.5 597.7715,-30.5 597.7715,-.5 506.7715,-.5"/>
<text text-anchor="start" x="514.7715" y="-18.5" font-family="Helvetica,sans-Serif" font-size="10.00" fill="#000000">deal.II/lac/lapack</text>
<text text-anchor="middle" x="552.2715" y="-7.5" font-family="Helvetica,sans-Serif" font-size="10.00" fill="#000000">_support.h</text>
</g>
<!-- Node12&#45;&gt;Node13 -->
<g id="edge15" class="edge">
<title>Node12&#45;&gt;Node13</title>
<path fill="none" stroke="#191970" d="M372.846,-134.3632C364.7694,-118.5856 352.0781,-87.0006 367.2715,-67 382.9457,-46.3664 447.7933,-31.8026 496.319,-23.5449"/>
<polygon fill="#191970" stroke="#191970" points="497.107,-26.9622 506.4026,-21.8786 495.9657,-20.0559 497.107,-26.9622"/>
</g>
<!-- Node14&#45;&gt;Node13 -->
<g id="edge24" class="edge">
<title>Node14&#45;&gt;Node13</title>
<path fill="none" stroke="#191970" d="M1145.34,-135.5811C1148.3614,-135.0392 1151.3598,-134.5078 1154.2715,-134 1254.9634,-116.4402 1444.2499,-141.4999 1374.2715,-67 1348.0279,-39.0607 788.867,-21.79 608.1003,-16.9209"/>
<polygon fill="#191970" stroke="#191970" points="608.0972,-13.4197 598.0073,-16.6514 607.9102,-20.4172 608.0972,-13.4197"/>
</g>
<!-- Node15 -->
<g id="node16" class="node">
<title>Node15</title>
<polygon fill="none" stroke="#bfbfbf" points="1657.2715,-73 1657.2715,-92 1773.2715,-92 1773.2715,-73 1657.2715,-73"/>
<text text-anchor="middle" x="1715.2715" y="-80" font-family="Helvetica,sans-Serif" font-size="10.00" fill="#000000">deal.II/base/numbers.h</text>
</g>
<!-- Node14&#45;&gt;Node15 -->
<g id="edge19" class="edge">
<title>Node14&#45;&gt;Node15</title>
<path fill="none" stroke="#191970" d="M1145.2942,-135.2783C1148.3266,-134.8095 1151.34,-134.3771 1154.2715,-134 1372.6104,-105.9149 1430.6071,-130.9067 1648.2715,-98 1654.9339,-96.9928 1661.9151,-95.6763 1668.7507,-94.2359"/>
<polygon fill="#191970" stroke="#191970" points="1669.5978,-97.6332 1678.6074,-92.0585 1668.0878,-90.798 1669.5978,-97.6332"/>
</g>
<!-- Node16 -->
<g id="node17" class="node">
<title>Node16</title>
<polygon fill="none" stroke="#bfbfbf" points="630.2715,-67.5 630.2715,-97.5 758.2715,-97.5 758.2715,-67.5 630.2715,-67.5"/>
<text text-anchor="start" x="638.2715" y="-85.5" font-family="Helvetica,sans-Serif" font-size="10.00" fill="#000000">deal.II/lac/blas_extension</text>
<text text-anchor="middle" x="694.2715" y="-74.5" font-family="Helvetica,sans-Serif" font-size="10.00" fill="#000000">_templates.h</text>
</g>
<!-- Node14&#45;&gt;Node16 -->
<g id="edge20" class="edge">
<title>Node14&#45;&gt;Node16</title>
<path fill="none" stroke="#191970" d="M1055.1372,-138.8105C992.9027,-131.4249 877.0306,-116.8496 768.46,-98.1353"/>
<polygon fill="#191970" stroke="#191970" points="768.7668,-94.6362 758.3149,-96.3706 767.5671,-101.5326 768.7668,-94.6362"/>
</g>
<!-- Node17 -->
<g id="node18" class="node">
<title>Node17</title>
<polygon fill="none" stroke="#bfbfbf" points="776.2715,-73 776.2715,-92 902.2715,-92 902.2715,-73 776.2715,-73"/>
<text text-anchor="middle" x="839.2715" y="-80" font-family="Helvetica,sans-Serif" font-size="10.00" fill="#000000">deal.II/lac/block_vector.h</text>
</g>
<!-- Node14&#45;&gt;Node17 -->
<g id="edge21" class="edge">
<title>Node14&#45;&gt;Node17</title>
<path fill="none" stroke="#191970" d="M1059.7766,-134.4581C1013.964,-123.6632 939.2978,-106.0694 889.7308,-94.3899"/>
<polygon fill="#191970" stroke="#191970" points="890.3976,-90.9512 879.8614,-92.0643 888.792,-97.7646 890.3976,-90.9512"/>
</g>
<!-- Node18 -->
<g id="node19" class="node">
<title>Node18</title>
<polygon fill="none" stroke="#bfbfbf" points="920.2715,-73 920.2715,-92 1036.2715,-92 1036.2715,-73 920.2715,-73"/>
<text text-anchor="middle" x="978.2715" y="-80" font-family="Helvetica,sans-Serif" font-size="10.00" fill="#000000">deal.II/lac/full_matrix.h</text>
</g>
<!-- Node14&#45;&gt;Node18 -->
<g id="edge22" class="edge">
<title>Node14&#45;&gt;Node18</title>
<path fill="none" stroke="#191970" d="M1081.209,-134.3906C1061.1543,-124.2811 1029.3781,-108.2628 1006.4331,-96.6962"/>
<polygon fill="#191970" stroke="#191970" points="1007.7052,-93.418 997.2001,-92.0419 1004.5542,-99.6687 1007.7052,-93.418"/>
</g>
<!-- Node19 -->
<g id="node20" class="node">
<title>Node19</title>
<polygon fill="none" stroke="#bfbfbf" points="1054.7715,-67.5 1054.7715,-97.5 1145.7715,-97.5 1145.7715,-67.5 1054.7715,-67.5"/>
<text text-anchor="start" x="1062.7715" y="-85.5" font-family="Helvetica,sans-Serif" font-size="10.00" fill="#000000">deal.II/lac/lapack</text>
<text text-anchor="middle" x="1100.2715" y="-74.5" font-family="Helvetica,sans-Serif" font-size="10.00" fill="#000000">_full_matrix.h</text>
</g>
<!-- Node14&#45;&gt;Node19 -->
<g id="edge23" class="edge">
<title>Node14&#45;&gt;Node19</title>
<path fill="none" stroke="#191970" d="M1100.2715,-134.3906C1100.2715,-127.2234 1100.2715,-117.0862 1100.2715,-107.671"/>
<polygon fill="#191970" stroke="#191970" points="1103.7716,-107.5446 1100.2715,-97.5446 1096.7716,-107.5446 1103.7716,-107.5446"/>
</g>
<!-- Node20 -->
<g id="node21" class="node">
<title>Node20</title>
<polygon fill="none" stroke="#bfbfbf" points="1163.7715,-67.5 1163.7715,-97.5 1254.7715,-97.5 1254.7715,-67.5 1163.7715,-67.5"/>
<text text-anchor="start" x="1171.7715" y="-85.5" font-family="Helvetica,sans-Serif" font-size="10.00" fill="#000000">deal.II/lac/lapack</text>
<text text-anchor="middle" x="1209.2715" y="-74.5" font-family="Helvetica,sans-Serif" font-size="10.00" fill="#000000">_templates.h</text>
</g>
<!-- Node14&#45;&gt;Node20 -->
<g id="edge25" class="edge">
<title>Node14&#45;&gt;Node20</title>
<path fill="none" stroke="#191970" d="M1117.3027,-134.3906C1132.3277,-125.9132 1154.7167,-113.2809 1173.6421,-102.6028"/>
<polygon fill="#191970" stroke="#191970" points="1175.6176,-105.5069 1182.6071,-97.5446 1172.1778,-99.4104 1175.6176,-105.5069"/>
</g>
<!-- Node21 -->
<g id="node22" class="node">
<title>Node21</title>
<polygon fill="none" stroke="#bfbfbf" points="1273.2715,-67.5 1273.2715,-97.5 1365.2715,-97.5 1365.2715,-67.5 1273.2715,-67.5"/>
<text text-anchor="start" x="1281.2715" y="-85.5" font-family="Helvetica,sans-Serif" font-size="10.00" fill="#000000">deal.II/lac/sparse</text>
<text text-anchor="middle" x="1319.2715" y="-74.5" font-family="Helvetica,sans-Serif" font-size="10.00" fill="#000000">_matrix.h</text>
</g>
<!-- Node14&#45;&gt;Node21 -->
<g id="edge26" class="edge">
<title>Node14&#45;&gt;Node21</title>
<path fill="none" stroke="#191970" d="M1134.1971,-134.4974C1165.3559,-125.7669 1213.0736,-112.3894 1263.317,-98.2668"/>
<polygon fill="#191970" stroke="#191970" points="1264.3796,-101.6038 1273.0592,-95.5279 1262.4851,-94.865 1264.3796,-101.6038"/>
</g>
<!-- Node22 -->
<g id="node23" class="node">
<title>Node22</title>
<polygon fill="none" stroke="#bfbfbf" points="1421.7715,-73 1421.7715,-92 1522.7715,-92 1522.7715,-73 1421.7715,-73"/>
<text text-anchor="middle" x="1472.2715" y="-80" font-family="Helvetica,sans-Serif" font-size="10.00" fill="#000000">deal.II/lac/utilities.h</text>
</g>
<!-- Node14&#45;&gt;Node22 -->
<g id="edge27" class="edge">
<title>Node14&#45;&gt;Node22</title>
<path fill="none" stroke="#191970" d="M1145.3281,-135.5107C1148.3524,-134.9858 1151.3546,-134.4774 1154.2715,-134 1266.3573,-115.6554 1295.6896,-119.1953 1407.2715,-98 1413.0396,-96.9043 1419.0674,-95.6361 1425.0269,-94.3063"/>
<polygon fill="#191970" stroke="#191970" points="1425.9715,-97.6806 1434.9337,-92.03 1424.4039,-90.8584 1425.9715,-97.6806"/>
</g>
<!-- Node23 -->
<g id="node24" class="node">
<title>Node23</title>
<polygon fill="none" stroke="#bfbfbf" points="1541.2715,-73 1541.2715,-92 1639.2715,-92 1639.2715,-73 1541.2715,-73"/>
<text text-anchor="middle" x="1590.2715" y="-80" font-family="Helvetica,sans-Serif" font-size="10.00" fill="#000000">deal.II/lac/vector.h</text>
</g>
<!-- Node14&#45;&gt;Node23 -->
<g id="edge28" class="edge">
<title>Node14&#45;&gt;Node23</title>
<path fill="none" stroke="#191970" d="M1145.3043,-135.3536C1148.3343,-134.8666 1151.3443,-134.4096 1154.2715,-134 1321.4032,-110.6126 1366.1791,-127.8885 1532.2715,-98 1537.4598,-97.0664 1542.862,-95.8966 1548.191,-94.6205"/>
<polygon fill="#191970" stroke="#191970" points="1549.4374,-97.9155 1558.2733,-92.0695 1547.7203,-91.1294 1549.4374,-97.9155"/>
</g>
<!-- Node24 -->
<g id="node25" class="node">
<title>Node24</title>
<g id="a_node25"><a xlink:href="lapack__templates__ext_8h.html" target="_top" xlink:title="Append more template based LAPACK functions to those existing in deal.ii. ">
<polygon fill="none" stroke="#000000" points="492.2715,-73 492.2715,-92 612.2715,-92 612.2715,-73 492.2715,-73"/>
<text text-anchor="middle" x="552.2715" y="-80" font-family="Helvetica,sans-Serif" font-size="10.00" fill="#000000">lapack_templates_ext.h</text>
</a>
</g>
</g>
<!-- Node14&#45;&gt;Node24 -->
<g id="edge29" class="edge">
<title>Node14&#45;&gt;Node24</title>
<path fill="none" stroke="#191970" d="M1055.1267,-141.5552C969.9061,-136.5221 779.6658,-123.2943 621.2715,-98 614.5919,-96.9333 607.5915,-95.6079 600.7179,-94.1844"/>
<polygon fill="#191970" stroke="#191970" points="601.3026,-90.7302 590.79,-92.0476 599.8296,-97.5735 601.3026,-90.7302"/>
</g>
<!-- Node24&#45;&gt;Node13 -->
<g id="edge30" class="edge">
<title>Node24&#45;&gt;Node13</title>
<path fill="none" stroke="#191970" d="M552.2715,-72.9005C552.2715,-64.5099 552.2715,-51.9451 552.2715,-40.7085"/>
<polygon fill="#191970" stroke="#191970" points="555.7716,-40.5217 552.2715,-30.5218 548.7716,-40.5218 555.7716,-40.5217"/>
</g>
</g>
</svg>
