<?xml version="1.0" encoding="UTF-8" standalone="no"?>
<!DOCTYPE svg PUBLIC "-//W3C//DTD SVG 1.1//EN"
 "http://www.w3.org/Graphics/SVG/1.1/DTD/svg11.dtd">
<!-- Generated by graphviz version 2.40.1 (20161225.0304)
 -->
<!-- Title: /home/jihuan/Projects/deal.ii/program/dealii&#45;9.1.1/examples/laplace&#45;bem/tests/lapack&#45;matrix&#45;agglomeration/lapack&#45;matrix&#45;agglomeration.cc Pages: 1 -->
<!--zoomable 273 -->
<svg id="main" version="1.1" xmlns="http://www.w3.org/2000/svg" xmlns:xlink="http://www.w3.org/1999/xlink" xml:space="preserve" onload="init(evt)">
<style type="text/css"><![CDATA[
.edge:hover path { stroke: red; }
.edge:hover polygon { stroke: red; fill: red; }
]]></style>
<script type="text/javascript"><![CDATA[
var edges = document.getElementsByTagName('g');
if (edges && edges.length) {
  for (var i=0;i<edges.length;i++) {
    if (edges[i].id.substr(0,4)=='edge') {
      edges[i].setAttribute('class','edge');
    }
  }
}
]]></script>
        <defs>
                <circle id="rim" cx="0" cy="0" r="7"/>
                <circle id="rim2" cx="0" cy="0" r="3.5"/>
                <g id="zoomPlus">
                        <use xlink:href="#rim" fill="#404040">
                                <set attributeName="fill" to="#808080" begin="zoomplus.mouseover" end="zoomplus.mouseout"/>
                        </use>
                        <path d="M-4,0h8M0,-4v8" fill="none" stroke="white" stroke-width="1.5" pointer-events="none"/>
                </g>
                <g id="zoomMin">
                        <use xlink:href="#rim" fill="#404040">
                                <set attributeName="fill" to="#808080" begin="zoomminus.mouseover" end="zoomminus.mouseout"/>
                        </use>
                        <path d="M-4,0h8" fill="none" stroke="white" stroke-width="1.5" pointer-events="none"/>
                </g>
                <g id="dirArrow">
                        <path fill="none" stroke="white" stroke-width="1.5" d="M0,-3.0v7 M-2.5,-0.5L0,-3.0L2.5,-0.5"/>
                </g>
               <g id="resetDef">
                       <use xlink:href="#rim2" fill="#404040">
                               <set attributeName="fill" to="#808080" begin="reset.mouseover" end="reset.mouseout"/>
                       </use>
               </g>
        </defs>

<script type="text/javascript">
var viewWidth = 1366;
var viewHeight = 273;
var sectionId = 'dynsection-0';
</script>
<script xlink:href="svgpan.js"/>
<svg id="graph" class="graph">
<g id="viewport">
<title>/home/jihuan/Projects/deal.ii/program/dealii&#45;9.1.1/examples/laplace&#45;bem/tests/lapack&#45;matrix&#45;agglomeration/lapack&#45;matrix&#45;agglomeration.cc</title>
<!-- Node0 -->
<g id="node1" class="node">
<title>Node0</title>
<polygon fill="#bfbfbf" stroke="#000000" points="133,-190.5 133,-264.5 275,-264.5 275,-190.5 133,-190.5"/>
<text text-anchor="start" x="141" y="-252.5" font-family="Helvetica,sans-Serif" font-size="10.00" fill="#000000">/home/jihuan/Projects</text>
<text text-anchor="start" x="141" y="-241.5" font-family="Helvetica,sans-Serif" font-size="10.00" fill="#000000">/deal.ii/program/dealii</text>
<text text-anchor="start" x="141" y="-230.5" font-family="Helvetica,sans-Serif" font-size="10.00" fill="#000000">&#45;9.1.1/examples/laplace</text>
<text text-anchor="start" x="141" y="-219.5" font-family="Helvetica,sans-Serif" font-size="10.00" fill="#000000">&#45;bem/tests/lapack&#45;matrix</text>
<text text-anchor="start" x="141" y="-208.5" font-family="Helvetica,sans-Serif" font-size="10.00" fill="#000000">&#45;agglomeration/lapack&#45;matrix</text>
<text text-anchor="middle" x="204" y="-197.5" font-family="Helvetica,sans-Serif" font-size="10.00" fill="#000000">&#45;agglomeration.cc</text>
</g>
<!-- Node1 -->
<g id="node2" class="node">
<title>Node1</title>
<polygon fill="none" stroke="#bfbfbf" points="131,-129 131,-148 185,-148 185,-129 131,-129"/>
<text text-anchor="middle" x="158" y="-136" font-family="Helvetica,sans-Serif" font-size="10.00" fill="#000000">iostream</text>
</g>
<!-- Node0&#45;&gt;Node1 -->
<g id="edge1" class="edge">
<title>Node0&#45;&gt;Node1</title>
<path fill="none" stroke="#191970" d="M184.7584,-190.2717C178.8382,-178.8173 172.5765,-166.7023 167.6,-157.0739"/>
<polygon fill="#191970" stroke="#191970" points="170.6482,-155.3486 162.9474,-148.0721 164.4297,-158.5627 170.6482,-155.3486"/>
</g>
<!-- Node2 -->
<g id="node3" class="node">
<title>Node2</title>
<g id="a_node3"><a xlink:href="lapack__full__matrix__ext_8h_source.html" target="_top" xlink:title="lapack_full_matrix\l_ext.h">
<polygon fill="none" stroke="#000000" points="203.5,-123.5 203.5,-153.5 298.5,-153.5 298.5,-123.5 203.5,-123.5"/>
<text text-anchor="start" x="211.5" y="-141.5" font-family="Helvetica,sans-Serif" font-size="10.00" fill="#000000">lapack_full_matrix</text>
<text text-anchor="middle" x="251" y="-130.5" font-family="Helvetica,sans-Serif" font-size="10.00" fill="#000000">_ext.h</text>
</a>
</g>
</g>
<!-- Node0&#45;&gt;Node2 -->
<g id="edge2" class="edge">
<title>Node0&#45;&gt;Node2</title>
<path fill="none" stroke="#191970" d="M223.6599,-190.2717C228.558,-180.9966 233.6849,-171.2882 238.158,-162.8177"/>
<polygon fill="#191970" stroke="#191970" points="241.3088,-164.3465 242.8836,-153.8693 235.1189,-161.0776 241.3088,-164.3465"/>
</g>
<!-- Node3 -->
<g id="node4" class="node">
<title>Node3</title>
<polygon fill="none" stroke="#bfbfbf" points="117,-67.5 117,-86.5 157,-86.5 157,-67.5 117,-67.5"/>
<text text-anchor="middle" x="137" y="-74.5" font-family="Helvetica,sans-Serif" font-size="10.00" fill="#000000">limits</text>
</g>
<!-- Node2&#45;&gt;Node3 -->
<g id="edge3" class="edge">
<title>Node2&#45;&gt;Node3</title>
<path fill="none" stroke="#191970" d="M223.1125,-123.4554C205.0924,-113.734 181.7659,-101.15 163.9368,-91.5317"/>
<polygon fill="#191970" stroke="#191970" points="165.1287,-88.1979 154.666,-86.5303 161.8052,-94.3586 165.1287,-88.1979"/>
</g>
<!-- Node4 -->
<g id="node5" class="node">
<title>Node4</title>
<polygon fill="none" stroke="#bfbfbf" points="175.5,-67.5 175.5,-86.5 210.5,-86.5 210.5,-67.5 175.5,-67.5"/>
<text text-anchor="middle" x="193" y="-74.5" font-family="Helvetica,sans-Serif" font-size="10.00" fill="#000000">map</text>
</g>
<!-- Node2&#45;&gt;Node4 -->
<g id="edge4" class="edge">
<title>Node2&#45;&gt;Node4</title>
<path fill="none" stroke="#191970" d="M236.6629,-123.2977C228.3603,-114.4941 217.8818,-103.3833 209.2711,-94.2529"/>
<polygon fill="#191970" stroke="#191970" points="211.6939,-91.7206 202.2865,-86.8469 206.6013,-96.5234 211.6939,-91.7206"/>
</g>
<!-- Node5 -->
<g id="node6" class="node">
<title>Node5</title>
<polygon fill="none" stroke="#bfbfbf" points="229,-67.5 229,-86.5 273,-86.5 273,-67.5 229,-67.5"/>
<text text-anchor="middle" x="251" y="-74.5" font-family="Helvetica,sans-Serif" font-size="10.00" fill="#000000">vector</text>
</g>
<!-- Node2&#45;&gt;Node5 -->
<g id="edge5" class="edge">
<title>Node2&#45;&gt;Node5</title>
<path fill="none" stroke="#191970" d="M251,-123.2977C251,-115.3834 251,-105.6043 251,-97.0759"/>
<polygon fill="#191970" stroke="#191970" points="254.5001,-96.8469 251,-86.8469 247.5001,-96.847 254.5001,-96.8469"/>
</g>
<!-- Node6 -->
<g id="node7" class="node">
<title>Node6</title>
<g id="a_node7"><a xlink:href="general__exceptions_8h.html" target="_top" xlink:title="Definition of self&#45;defined general exceptions. ">
<polygon fill="none" stroke="#000000" points="291.5,-67.5 291.5,-86.5 400.5,-86.5 400.5,-67.5 291.5,-67.5"/>
<text text-anchor="middle" x="346" y="-74.5" font-family="Helvetica,sans-Serif" font-size="10.00" fill="#000000">general_exceptions.h</text>
</a>
</g>
</g>
<!-- Node2&#45;&gt;Node6 -->
<g id="edge6" class="edge">
<title>Node2&#45;&gt;Node6</title>
<path fill="none" stroke="#191970" d="M274.4832,-123.2977C289.1348,-113.8127 307.9236,-101.6495 322.5659,-92.1705"/>
<polygon fill="#191970" stroke="#191970" points="324.5805,-95.0357 331.073,-86.6633 320.7764,-89.1596 324.5805,-95.0357"/>
</g>
<!-- Node8 -->
<g id="node9" class="node">
<title>Node8</title>
<g id="a_node9"><a xlink:href="lapack__helpers_8h.html" target="_top" xlink:title="Exposes LAPACK helper functions defined in lapack_full_matrix.cc and define new ones by following the...">
<polygon fill="none" stroke="#000000" points="703,-67.5 703,-86.5 793,-86.5 793,-67.5 703,-67.5"/>
<text text-anchor="middle" x="748" y="-74.5" font-family="Helvetica,sans-Serif" font-size="10.00" fill="#000000">lapack_helpers.h</text>
</a>
</g>
</g>
<!-- Node2&#45;&gt;Node8 -->
<g id="edge8" class="edge">
<title>Node2&#45;&gt;Node8</title>
<path fill="none" stroke="#191970" d="M298.6544,-132.6031C391.1085,-121.1626 594.3471,-96.0134 692.6231,-83.8525"/>
<polygon fill="#191970" stroke="#191970" points="693.1585,-87.313 702.6529,-82.6114 692.2988,-80.366 693.1585,-87.313"/>
</g>
<!-- Node7 -->
<g id="node8" class="node">
<title>Node7</title>
<polygon fill="none" stroke="#bfbfbf" points="0,-6 0,-25 126,-25 126,-6 0,-6"/>
<text text-anchor="middle" x="63" y="-13" font-family="Helvetica,sans-Serif" font-size="10.00" fill="#000000">deal.II/base/exceptions.h</text>
</g>
<!-- Node6&#45;&gt;Node7 -->
<g id="edge7" class="edge">
<title>Node6&#45;&gt;Node7</title>
<path fill="none" stroke="#191970" d="M302.0918,-67.4581C252.2101,-56.6181 170.781,-38.9224 117.0409,-27.2439"/>
<polygon fill="#191970" stroke="#191970" points="117.5265,-23.7678 107.0113,-25.0643 116.0399,-30.6081 117.5265,-23.7678"/>
</g>
<!-- Node9 -->
<g id="node10" class="node">
<title>Node9</title>
<polygon fill="none" stroke="#bfbfbf" points="144,-6 144,-25 260,-25 260,-6 144,-6"/>
<text text-anchor="middle" x="202" y="-13" font-family="Helvetica,sans-Serif" font-size="10.00" fill="#000000">deal.II/base/numbers.h</text>
</g>
<!-- Node8&#45;&gt;Node9 -->
<g id="edge9" class="edge">
<title>Node8&#45;&gt;Node9</title>
<path fill="none" stroke="#191970" d="M702.8399,-74.6498C617.5939,-69.7745 427.3129,-56.799 269,-31 262.6589,-29.9666 256.0232,-28.6828 249.4969,-27.2995"/>
<polygon fill="#191970" stroke="#191970" points="249.9092,-23.8062 239.3895,-25.0655 248.3984,-30.6413 249.9092,-23.8062"/>
</g>
<!-- Node10 -->
<g id="node11" class="node">
<title>Node10</title>
<polygon fill="none" stroke="#bfbfbf" points="278,-.5 278,-30.5 406,-30.5 406,-.5 278,-.5"/>
<text text-anchor="start" x="286" y="-18.5" font-family="Helvetica,sans-Serif" font-size="10.00" fill="#000000">deal.II/lac/blas_extension</text>
<text text-anchor="middle" x="342" y="-7.5" font-family="Helvetica,sans-Serif" font-size="10.00" fill="#000000">_templates.h</text>
</g>
<!-- Node8&#45;&gt;Node10 -->
<g id="edge10" class="edge">
<title>Node8&#45;&gt;Node10</title>
<path fill="none" stroke="#191970" d="M702.8657,-71.8105C640.6312,-64.4249 524.7591,-49.8496 416.1885,-31.1353"/>
<polygon fill="#191970" stroke="#191970" points="416.4954,-27.6362 406.0434,-29.3706 415.2957,-34.5326 416.4954,-27.6362"/>
</g>
<!-- Node11 -->
<g id="node12" class="node">
<title>Node11</title>
<polygon fill="none" stroke="#bfbfbf" points="424,-6 424,-25 550,-25 550,-6 424,-6"/>
<text text-anchor="middle" x="487" y="-13" font-family="Helvetica,sans-Serif" font-size="10.00" fill="#000000">deal.II/lac/block_vector.h</text>
</g>
<!-- Node8&#45;&gt;Node11 -->
<g id="edge11" class="edge">
<title>Node8&#45;&gt;Node11</title>
<path fill="none" stroke="#191970" d="M707.5051,-67.4581C661.6925,-56.6632 587.0263,-39.0694 537.4594,-27.3899"/>
<polygon fill="#191970" stroke="#191970" points="538.1261,-23.9512 527.5899,-25.0643 536.5206,-30.7646 538.1261,-23.9512"/>
</g>
<!-- Node12 -->
<g id="node13" class="node">
<title>Node12</title>
<polygon fill="none" stroke="#bfbfbf" points="568,-6 568,-25 684,-25 684,-6 568,-6"/>
<text text-anchor="middle" x="626" y="-13" font-family="Helvetica,sans-Serif" font-size="10.00" fill="#000000">deal.II/lac/full_matrix.h</text>
</g>
<!-- Node8&#45;&gt;Node12 -->
<g id="edge12" class="edge">
<title>Node8&#45;&gt;Node12</title>
<path fill="none" stroke="#191970" d="M728.9375,-67.3906C708.8828,-57.2811 677.1066,-41.2628 654.1616,-29.6962"/>
<polygon fill="#191970" stroke="#191970" points="655.4337,-26.418 644.9286,-25.0419 652.2827,-32.6687 655.4337,-26.418"/>
</g>
<!-- Node13 -->
<g id="node14" class="node">
<title>Node13</title>
<polygon fill="none" stroke="#bfbfbf" points="702.5,-.5 702.5,-30.5 793.5,-30.5 793.5,-.5 702.5,-.5"/>
<text text-anchor="start" x="710.5" y="-18.5" font-family="Helvetica,sans-Serif" font-size="10.00" fill="#000000">deal.II/lac/lapack</text>
<text text-anchor="middle" x="748" y="-7.5" font-family="Helvetica,sans-Serif" font-size="10.00" fill="#000000">_full_matrix.h</text>
</g>
<!-- Node8&#45;&gt;Node13 -->
<g id="edge13" class="edge">
<title>Node8&#45;&gt;Node13</title>
<path fill="none" stroke="#191970" d="M748,-67.3906C748,-60.2234 748,-50.0862 748,-40.671"/>
<polygon fill="#191970" stroke="#191970" points="751.5001,-40.5446 748,-30.5446 744.5001,-40.5446 751.5001,-40.5446"/>
</g>
<!-- Node14 -->
<g id="node15" class="node">
<title>Node14</title>
<polygon fill="none" stroke="#bfbfbf" points="811.5,-.5 811.5,-30.5 902.5,-30.5 902.5,-.5 811.5,-.5"/>
<text text-anchor="start" x="819.5" y="-18.5" font-family="Helvetica,sans-Serif" font-size="10.00" fill="#000000">deal.II/lac/lapack</text>
<text text-anchor="middle" x="857" y="-7.5" font-family="Helvetica,sans-Serif" font-size="10.00" fill="#000000">_support.h</text>
</g>
<!-- Node8&#45;&gt;Node14 -->
<g id="edge14" class="edge">
<title>Node8&#45;&gt;Node14</title>
<path fill="none" stroke="#191970" d="M765.0313,-67.3906C780.0563,-58.9132 802.4452,-46.2809 821.3706,-35.6028"/>
<polygon fill="#191970" stroke="#191970" points="823.3462,-38.5069 830.3356,-30.5446 819.9063,-32.4104 823.3462,-38.5069"/>
</g>
<!-- Node15 -->
<g id="node16" class="node">
<title>Node15</title>
<polygon fill="none" stroke="#bfbfbf" points="920.5,-.5 920.5,-30.5 1011.5,-30.5 1011.5,-.5 920.5,-.5"/>
<text text-anchor="start" x="928.5" y="-18.5" font-family="Helvetica,sans-Serif" font-size="10.00" fill="#000000">deal.II/lac/lapack</text>
<text text-anchor="middle" x="966" y="-7.5" font-family="Helvetica,sans-Serif" font-size="10.00" fill="#000000">_templates.h</text>
</g>
<!-- Node8&#45;&gt;Node15 -->
<g id="edge15" class="edge">
<title>Node8&#45;&gt;Node15</title>
<path fill="none" stroke="#191970" d="M782.2546,-67.4571C813.4351,-58.7562 860.996,-45.4484 910.7062,-31.3597"/>
<polygon fill="#191970" stroke="#191970" points="911.6751,-34.7231 920.3405,-28.627 909.7649,-27.9887 911.6751,-34.7231"/>
</g>
<!-- Node16 -->
<g id="node17" class="node">
<title>Node16</title>
<polygon fill="none" stroke="#bfbfbf" points="1030,-.5 1030,-30.5 1122,-30.5 1122,-.5 1030,-.5"/>
<text text-anchor="start" x="1038" y="-18.5" font-family="Helvetica,sans-Serif" font-size="10.00" fill="#000000">deal.II/lac/sparse</text>
<text text-anchor="middle" x="1076" y="-7.5" font-family="Helvetica,sans-Serif" font-size="10.00" fill="#000000">_matrix.h</text>
</g>
<!-- Node8&#45;&gt;Node16 -->
<g id="edge16" class="edge">
<title>Node8&#45;&gt;Node16</title>
<path fill="none" stroke="#191970" d="M793.216,-70.9052C845.5836,-63.5091 934.5944,-49.9015 1020.0199,-31.0858"/>
<polygon fill="#191970" stroke="#191970" points="1020.8801,-34.4801 1029.8784,-28.8872 1019.3563,-27.6479 1020.8801,-34.4801"/>
</g>
<!-- Node17 -->
<g id="node18" class="node">
<title>Node17</title>
<polygon fill="none" stroke="#bfbfbf" points="1140.5,-6 1140.5,-25 1241.5,-25 1241.5,-6 1140.5,-6"/>
<text text-anchor="middle" x="1191" y="-13" font-family="Helvetica,sans-Serif" font-size="10.00" fill="#000000">deal.II/lac/utilities.h</text>
</g>
<!-- Node8&#45;&gt;Node17 -->
<g id="edge17" class="edge">
<title>Node8&#45;&gt;Node17</title>
<path fill="none" stroke="#191970" d="M793.1093,-73.5433C865.0244,-67.5936 1009.9028,-53.8087 1131,-31 1136.3524,-29.9919 1141.9344,-28.7763 1147.4457,-27.4748"/>
<polygon fill="#191970" stroke="#191970" points="1148.3526,-30.8561 1157.2249,-25.0654 1146.678,-24.0593 1148.3526,-30.8561"/>
</g>
<!-- Node18 -->
<g id="node19" class="node">
<title>Node18</title>
<polygon fill="none" stroke="#bfbfbf" points="1260,-6 1260,-25 1358,-25 1358,-6 1260,-6"/>
<text text-anchor="middle" x="1309" y="-13" font-family="Helvetica,sans-Serif" font-size="10.00" fill="#000000">deal.II/lac/vector.h</text>
</g>
<!-- Node8&#45;&gt;Node18 -->
<g id="edge18" class="edge">
<title>Node8&#45;&gt;Node18</title>
<path fill="none" stroke="#191970" d="M793.0894,-75.445C881.5326,-71.83 1083.7287,-60.7766 1251,-31 1256.3873,-30.041 1262.0042,-28.8234 1267.5301,-27.4937"/>
<polygon fill="#191970" stroke="#191970" points="1268.478,-30.8642 1277.309,-25.0107 1266.7552,-24.0795 1268.478,-30.8642"/>
</g>
</g>
</svg>
        <g id="navigator" transform="translate(0 0)" fill="#404254">
                <rect fill="#f2f5e9" fill-opacity="0.5" stroke="#606060" stroke-width=".5" x="0" y="0" width="60" height="60"/>
                <use id="zoomplus" xlink:href="#zoomPlus" x="17" y="9" onmousedown="handleZoom(evt,'in')"/>
                <use id="zoomminus" xlink:href="#zoomMin" x="42" y="9" onmousedown="handleZoom(evt,'out')"/>
                <use id="reset" xlink:href="#resetDef" x="30" y="36" onmousedown="handleReset()"/>
                <g id="arrowUp" xlink:href="#dirArrow" transform="translate(30 24)" onmousedown="handlePan(0,-1)">
                  <use xlink:href="#rim" fill="#404040">
                        <set attributeName="fill" to="#808080" begin="arrowUp.mouseover" end="arrowUp.mouseout"/>
                  </use>
                  <path fill="none" stroke="white" stroke-width="1.5" d="M0,-3.0v7 M-2.5,-0.5L0,-3.0L2.5,-0.5"/>
                </g>
                <g id="arrowRight" xlink:href="#dirArrow" transform="rotate(90) translate(36 -43)" onmousedown="handlePan(1,0)">
                  <use xlink:href="#rim" fill="#404040">
                        <set attributeName="fill" to="#808080" begin="arrowRight.mouseover" end="arrowRight.mouseout"/>
                  </use>
                  <path fill="none" stroke="white" stroke-width="1.5" d="M0,-3.0v7 M-2.5,-0.5L0,-3.0L2.5,-0.5"/>
                </g>
                <g id="arrowDown" xlink:href="#dirArrow" transform="rotate(180) translate(-30 -48)" onmousedown="handlePan(0,1)">
                  <use xlink:href="#rim" fill="#404040">
                        <set attributeName="fill" to="#808080" begin="arrowDown.mouseover" end="arrowDown.mouseout"/>
                  </use>
                  <path fill="none" stroke="white" stroke-width="1.5" d="M0,-3.0v7 M-2.5,-0.5L0,-3.0L2.5,-0.5"/>
                </g>
                <g id="arrowLeft" xlink:href="#dirArrow" transform="rotate(270) translate(-36 17)" onmousedown="handlePan(-1,0)">
                  <use xlink:href="#rim" fill="#404040">
                        <set attributeName="fill" to="#808080" begin="arrowLeft.mouseover" end="arrowLeft.mouseout"/>
                  </use>
                  <path fill="none" stroke="white" stroke-width="1.5" d="M0,-3.0v7 M-2.5,-0.5L0,-3.0L2.5,-0.5"/>
                </g>
        </g>
        <svg viewBox="0 0 15 15" width="100%" height="30px" preserveAspectRatio="xMaxYMin meet">
         <g id="arrow_out" transform="scale(0.3 0.3)">
          <a xlink:href="lapack-matrix-agglomeration_8cc__incl_org.svg" target="_base">
           <rect id="button" ry="5" rx="5" y="6" x="6" height="38" width="38"
                fill="#f2f5e9" fill-opacity="0.5" stroke="#606060" stroke-width="1.0"/>
           <path id="arrow"
             d="M 11.500037,31.436501 C 11.940474,20.09759 22.043105,11.32322 32.158766,21.979434 L 37.068811,17.246167 C 37.068811,17.246167 37.088388,32 37.088388,32 L 22.160133,31.978069 C 22.160133,31.978069 26.997745,27.140456 26.997745,27.140456 C 18.528582,18.264221 13.291696,25.230495 11.500037,31.436501 z"
             style="fill:#404040;"/>
          </a>
         </g>
        </svg>
</svg>
