<?xml version="1.0" encoding="UTF-8" standalone="no"?>
<!DOCTYPE svg PUBLIC "-//W3C//DTD SVG 1.1//EN"
 "http://www.w3.org/Graphics/SVG/1.1/DTD/svg11.dtd">
<!-- Generated by graphviz version 2.40.1 (20161225.0304)
 -->
<!-- Title: /home/jihuan/Projects/deal.ii/program/dealii&#45;9.1.1/examples/laplace&#45;bem/include/lapack_helpers.h Pages: 1 -->
<!--zoomable 195 -->
<svg id="main" version="1.1" xmlns="http://www.w3.org/2000/svg" xmlns:xlink="http://www.w3.org/1999/xlink" xml:space="preserve" onload="init(evt)">
<style type="text/css"><![CDATA[
.edge:hover path { stroke: red; }
.edge:hover polygon { stroke: red; fill: red; }
]]></style>
<script type="text/javascript"><![CDATA[
var edges = document.getElementsByTagName('g');
if (edges && edges.length) {
  for (var i=0;i<edges.length;i++) {
    if (edges[i].id.substr(0,4)=='edge') {
      edges[i].setAttribute('class','edge');
    }
  }
}
]]></script>
        <defs>
                <circle id="rim" cx="0" cy="0" r="7"/>
                <circle id="rim2" cx="0" cy="0" r="3.5"/>
                <g id="zoomPlus">
                        <use xlink:href="#rim" fill="#404040">
                                <set attributeName="fill" to="#808080" begin="zoomplus.mouseover" end="zoomplus.mouseout"/>
                        </use>
                        <path d="M-4,0h8M0,-4v8" fill="none" stroke="white" stroke-width="1.5" pointer-events="none"/>
                </g>
                <g id="zoomMin">
                        <use xlink:href="#rim" fill="#404040">
                                <set attributeName="fill" to="#808080" begin="zoomminus.mouseover" end="zoomminus.mouseout"/>
                        </use>
                        <path d="M-4,0h8" fill="none" stroke="white" stroke-width="1.5" pointer-events="none"/>
                </g>
                <g id="dirArrow">
                        <path fill="none" stroke="white" stroke-width="1.5" d="M0,-3.0v7 M-2.5,-0.5L0,-3.0L2.5,-0.5"/>
                </g>
               <g id="resetDef">
                       <use xlink:href="#rim2" fill="#404040">
                               <set attributeName="fill" to="#808080" begin="reset.mouseover" end="reset.mouseout"/>
                       </use>
               </g>
        </defs>

<script type="text/javascript">
var viewWidth = 1290;
var viewHeight = 195;
var sectionId = 'dynsection-0';
</script>
<script xlink:href="svgpan.js"/>
<svg id="graph" class="graph">
<g id="viewport">
<title>/home/jihuan/Projects/deal.ii/program/dealii&#45;9.1.1/examples/laplace&#45;bem/include/lapack_helpers.h</title>
<!-- Node0 -->
<g id="node1" class="node">
<title>Node0</title>
<polygon fill="#bfbfbf" stroke="#000000" points="603.5,-134.5 603.5,-186.5 752.5,-186.5 752.5,-134.5 603.5,-134.5"/>
<text text-anchor="start" x="611.5" y="-174.5" font-family="Helvetica,sans-Serif" font-size="10.00" fill="#000000">/home/jihuan/Projects</text>
<text text-anchor="start" x="611.5" y="-163.5" font-family="Helvetica,sans-Serif" font-size="10.00" fill="#000000">/deal.ii/program/dealii</text>
<text text-anchor="start" x="611.5" y="-152.5" font-family="Helvetica,sans-Serif" font-size="10.00" fill="#000000">&#45;9.1.1/examples/laplace</text>
<text text-anchor="middle" x="678" y="-141.5" font-family="Helvetica,sans-Serif" font-size="10.00" fill="#000000">&#45;bem/include/lapack_helpers.h</text>
</g>
<!-- Node1 -->
<g id="node2" class="node">
<title>Node1</title>
<polygon fill="none" stroke="#bfbfbf" points="0,-73 0,-92 116,-92 116,-73 0,-73"/>
<text text-anchor="middle" x="58" y="-80" font-family="Helvetica,sans-Serif" font-size="10.00" fill="#000000">deal.II/base/numbers.h</text>
</g>
<!-- Node0&#45;&gt;Node1 -->
<g id="edge1" class="edge">
<title>Node0&#45;&gt;Node1</title>
<path fill="none" stroke="#191970" d="M603.3766,-154.8037C496.7742,-146.0466 294.979,-127.1681 125,-98 118.745,-96.9267 112.1989,-95.6308 105.7523,-94.251"/>
<polygon fill="#191970" stroke="#191970" points="106.2806,-90.7832 95.7598,-92.0338 104.7642,-97.617 106.2806,-90.7832"/>
</g>
<!-- Node2 -->
<g id="node3" class="node">
<title>Node2</title>
<polygon fill="none" stroke="#bfbfbf" points="134,-67.5 134,-97.5 262,-97.5 262,-67.5 134,-67.5"/>
<text text-anchor="start" x="142" y="-85.5" font-family="Helvetica,sans-Serif" font-size="10.00" fill="#000000">deal.II/lac/blas_extension</text>
<text text-anchor="middle" x="198" y="-74.5" font-family="Helvetica,sans-Serif" font-size="10.00" fill="#000000">_templates.h</text>
</g>
<!-- Node0&#45;&gt;Node2 -->
<g id="edge2" class="edge">
<title>Node0&#45;&gt;Node2</title>
<path fill="none" stroke="#191970" d="M603.1463,-150.3063C523.4935,-139.1641 393.5786,-120.1492 271.9181,-98.1124"/>
<polygon fill="#191970" stroke="#191970" points="272.5187,-94.6643 262.0533,-96.3155 271.2642,-101.551 272.5187,-94.6643"/>
</g>
<!-- Node3 -->
<g id="node4" class="node">
<title>Node3</title>
<polygon fill="none" stroke="#bfbfbf" points="280,-73 280,-92 406,-92 406,-73 280,-73"/>
<text text-anchor="middle" x="343" y="-80" font-family="Helvetica,sans-Serif" font-size="10.00" fill="#000000">deal.II/lac/block_vector.h</text>
</g>
<!-- Node0&#45;&gt;Node3 -->
<g id="edge3" class="edge">
<title>Node0&#45;&gt;Node3</title>
<path fill="none" stroke="#191970" d="M603.2364,-143.0924C539.5169,-128.2562 449.6519,-107.3324 393.9289,-94.3581"/>
<polygon fill="#191970" stroke="#191970" points="394.4687,-90.8902 383.9355,-92.0313 392.8813,-97.7078 394.4687,-90.8902"/>
</g>
<!-- Node4 -->
<g id="node5" class="node">
<title>Node4</title>
<polygon fill="none" stroke="#bfbfbf" points="424,-73 424,-92 540,-92 540,-73 424,-73"/>
<text text-anchor="middle" x="482" y="-80" font-family="Helvetica,sans-Serif" font-size="10.00" fill="#000000">deal.II/lac/full_matrix.h</text>
</g>
<!-- Node0&#45;&gt;Node4 -->
<g id="edge4" class="edge">
<title>Node0&#45;&gt;Node4</title>
<path fill="none" stroke="#191970" d="M612.4623,-134.4187C580.0954,-121.538 542.4025,-106.5377 515.8789,-95.9824"/>
<polygon fill="#191970" stroke="#191970" points="516.8801,-92.6139 506.2947,-92.1683 514.2918,-99.1179 516.8801,-92.6139"/>
</g>
<!-- Node5 -->
<g id="node6" class="node">
<title>Node5</title>
<polygon fill="none" stroke="#bfbfbf" points="558.5,-67.5 558.5,-97.5 649.5,-97.5 649.5,-67.5 558.5,-67.5"/>
<text text-anchor="start" x="566.5" y="-85.5" font-family="Helvetica,sans-Serif" font-size="10.00" fill="#000000">deal.II/lac/lapack</text>
<text text-anchor="middle" x="604" y="-74.5" font-family="Helvetica,sans-Serif" font-size="10.00" fill="#000000">_full_matrix.h</text>
</g>
<!-- Node0&#45;&gt;Node5 -->
<g id="edge5" class="edge">
<title>Node0&#45;&gt;Node5</title>
<path fill="none" stroke="#191970" d="M652.947,-134.0928C643.9059,-124.563 633.7987,-113.9094 625.1269,-104.7689"/>
<polygon fill="#191970" stroke="#191970" points="627.6569,-102.3503 618.2351,-97.5046 622.5786,-107.1681 627.6569,-102.3503"/>
</g>
<!-- Node6 -->
<g id="node7" class="node">
<title>Node6</title>
<polygon fill="none" stroke="#bfbfbf" points="904.5,-.5 904.5,-30.5 995.5,-30.5 995.5,-.5 904.5,-.5"/>
<text text-anchor="start" x="912.5" y="-18.5" font-family="Helvetica,sans-Serif" font-size="10.00" fill="#000000">deal.II/lac/lapack</text>
<text text-anchor="middle" x="950" y="-7.5" font-family="Helvetica,sans-Serif" font-size="10.00" fill="#000000">_support.h</text>
</g>
<!-- Node0&#45;&gt;Node6 -->
<g id="edge6" class="edge">
<title>Node0&#45;&gt;Node6</title>
<path fill="none" stroke="#191970" d="M676.3533,-134.2758C676.5381,-113.2272 680.4308,-84.4093 698,-67 725.1353,-40.1115 828.5642,-26.1603 894.1845,-19.8639"/>
<polygon fill="#191970" stroke="#191970" points="894.7403,-23.3275 904.3741,-18.9183 894.0934,-16.3574 894.7403,-23.3275"/>
</g>
<!-- Node7 -->
<g id="node8" class="node">
<title>Node7</title>
<polygon fill="none" stroke="#bfbfbf" points="706.5,-67.5 706.5,-97.5 797.5,-97.5 797.5,-67.5 706.5,-67.5"/>
<text text-anchor="start" x="714.5" y="-85.5" font-family="Helvetica,sans-Serif" font-size="10.00" fill="#000000">deal.II/lac/lapack</text>
<text text-anchor="middle" x="752" y="-74.5" font-family="Helvetica,sans-Serif" font-size="10.00" fill="#000000">_templates.h</text>
</g>
<!-- Node0&#45;&gt;Node7 -->
<g id="edge7" class="edge">
<title>Node0&#45;&gt;Node7</title>
<path fill="none" stroke="#191970" d="M703.053,-134.0928C712.0941,-124.563 722.2013,-113.9094 730.8731,-104.7689"/>
<polygon fill="#191970" stroke="#191970" points="733.4214,-107.1681 737.7649,-97.5046 728.3431,-102.3503 733.4214,-107.1681"/>
</g>
<!-- Node8 -->
<g id="node9" class="node">
<title>Node8</title>
<polygon fill="none" stroke="#bfbfbf" points="816,-67.5 816,-97.5 908,-97.5 908,-67.5 816,-67.5"/>
<text text-anchor="start" x="824" y="-85.5" font-family="Helvetica,sans-Serif" font-size="10.00" fill="#000000">deal.II/lac/sparse</text>
<text text-anchor="middle" x="862" y="-74.5" font-family="Helvetica,sans-Serif" font-size="10.00" fill="#000000">_matrix.h</text>
</g>
<!-- Node0&#45;&gt;Node8 -->
<g id="edge8" class="edge">
<title>Node0&#45;&gt;Node8</title>
<path fill="none" stroke="#191970" d="M739.5252,-134.4187C764.9598,-123.6366 793.8978,-111.3694 817.2567,-101.4673"/>
<polygon fill="#191970" stroke="#191970" points="818.7293,-104.6446 826.5702,-97.5192 815.9972,-98.1997 818.7293,-104.6446"/>
</g>
<!-- Node9 -->
<g id="node10" class="node">
<title>Node9</title>
<polygon fill="none" stroke="#bfbfbf" points="926.5,-73 926.5,-92 1027.5,-92 1027.5,-73 926.5,-73"/>
<text text-anchor="middle" x="977" y="-80" font-family="Helvetica,sans-Serif" font-size="10.00" fill="#000000">deal.II/lac/utilities.h</text>
</g>
<!-- Node0&#45;&gt;Node9 -->
<g id="edge9" class="edge">
<title>Node0&#45;&gt;Node9</title>
<path fill="none" stroke="#191970" d="M752.679,-141.0185C808.5531,-126.4427 883.2137,-106.966 930.7156,-94.5742"/>
<polygon fill="#191970" stroke="#191970" points="931.6306,-97.9527 940.4232,-92.0418 929.8636,-91.1794 931.6306,-97.9527"/>
</g>
<!-- Node10 -->
<g id="node11" class="node">
<title>Node10</title>
<polygon fill="none" stroke="#bfbfbf" points="1046,-73 1046,-92 1144,-92 1144,-73 1046,-73"/>
<text text-anchor="middle" x="1095" y="-80" font-family="Helvetica,sans-Serif" font-size="10.00" fill="#000000">deal.II/lac/vector.h</text>
</g>
<!-- Node0&#45;&gt;Node10 -->
<g id="edge10" class="edge">
<title>Node0&#45;&gt;Node10</title>
<path fill="none" stroke="#191970" d="M752.6336,-149.4859C825.5108,-138.2659 939.382,-119.4967 1037,-98 1041.7141,-96.9619 1046.6208,-95.7921 1051.4961,-94.5723"/>
<polygon fill="#191970" stroke="#191970" points="1052.5767,-97.9082 1061.3875,-92.0242 1050.8305,-91.1295 1052.5767,-97.9082"/>
</g>
<!-- Node11 -->
<g id="node12" class="node">
<title>Node11</title>
<g id="a_node12"><a xlink:href="lapack__templates__ext_8h.html" target="_top" xlink:title="Append more template based LAPACK functions to those existing in deal.ii. ">
<polygon fill="none" stroke="#000000" points="1162,-73 1162,-92 1282,-92 1282,-73 1162,-73"/>
<text text-anchor="middle" x="1222" y="-80" font-family="Helvetica,sans-Serif" font-size="10.00" fill="#000000">lapack_templates_ext.h</text>
</a>
</g>
</g>
<!-- Node0&#45;&gt;Node11 -->
<g id="edge11" class="edge">
<title>Node0&#45;&gt;Node11</title>
<path fill="none" stroke="#191970" d="M752.7759,-152.7704C846.6236,-142.5857 1012.3494,-122.9986 1153,-98 1159.267,-96.8861 1165.8255,-95.5877 1172.3005,-94.2252"/>
<polygon fill="#191970" stroke="#191970" points="1173.3199,-97.5857 1182.3527,-92.0486 1171.8385,-90.7442 1173.3199,-97.5857"/>
</g>
<!-- Node11&#45;&gt;Node6 -->
<g id="edge12" class="edge">
<title>Node11&#45;&gt;Node6</title>
<path fill="none" stroke="#191970" d="M1183.3179,-72.9717C1136.8832,-61.5337 1058.6634,-42.2664 1005.7219,-29.2256"/>
<polygon fill="#191970" stroke="#191970" points="1006.363,-25.779 995.8161,-26.7856 1004.6887,-32.5758 1006.363,-25.779"/>
</g>
</g>
</svg>
        <g id="navigator" transform="translate(0 0)" fill="#404254">
                <rect fill="#f2f5e9" fill-opacity="0.5" stroke="#606060" stroke-width=".5" x="0" y="0" width="60" height="60"/>
                <use id="zoomplus" xlink:href="#zoomPlus" x="17" y="9" onmousedown="handleZoom(evt,'in')"/>
                <use id="zoomminus" xlink:href="#zoomMin" x="42" y="9" onmousedown="handleZoom(evt,'out')"/>
                <use id="reset" xlink:href="#resetDef" x="30" y="36" onmousedown="handleReset()"/>
                <g id="arrowUp" xlink:href="#dirArrow" transform="translate(30 24)" onmousedown="handlePan(0,-1)">
                  <use xlink:href="#rim" fill="#404040">
                        <set attributeName="fill" to="#808080" begin="arrowUp.mouseover" end="arrowUp.mouseout"/>
                  </use>
                  <path fill="none" stroke="white" stroke-width="1.5" d="M0,-3.0v7 M-2.5,-0.5L0,-3.0L2.5,-0.5"/>
                </g>
                <g id="arrowRight" xlink:href="#dirArrow" transform="rotate(90) translate(36 -43)" onmousedown="handlePan(1,0)">
                  <use xlink:href="#rim" fill="#404040">
                        <set attributeName="fill" to="#808080" begin="arrowRight.mouseover" end="arrowRight.mouseout"/>
                  </use>
                  <path fill="none" stroke="white" stroke-width="1.5" d="M0,-3.0v7 M-2.5,-0.5L0,-3.0L2.5,-0.5"/>
                </g>
                <g id="arrowDown" xlink:href="#dirArrow" transform="rotate(180) translate(-30 -48)" onmousedown="handlePan(0,1)">
                  <use xlink:href="#rim" fill="#404040">
                        <set attributeName="fill" to="#808080" begin="arrowDown.mouseover" end="arrowDown.mouseout"/>
                  </use>
                  <path fill="none" stroke="white" stroke-width="1.5" d="M0,-3.0v7 M-2.5,-0.5L0,-3.0L2.5,-0.5"/>
                </g>
                <g id="arrowLeft" xlink:href="#dirArrow" transform="rotate(270) translate(-36 17)" onmousedown="handlePan(-1,0)">
                  <use xlink:href="#rim" fill="#404040">
                        <set attributeName="fill" to="#808080" begin="arrowLeft.mouseover" end="arrowLeft.mouseout"/>
                  </use>
                  <path fill="none" stroke="white" stroke-width="1.5" d="M0,-3.0v7 M-2.5,-0.5L0,-3.0L2.5,-0.5"/>
                </g>
        </g>
        <svg viewBox="0 0 15 15" width="100%" height="30px" preserveAspectRatio="xMaxYMin meet">
         <g id="arrow_out" transform="scale(0.3 0.3)">
          <a xlink:href="lapack__helpers_8h__incl_org.svg" target="_base">
           <rect id="button" ry="5" rx="5" y="6" x="6" height="38" width="38"
                fill="#f2f5e9" fill-opacity="0.5" stroke="#606060" stroke-width="1.0"/>
           <path id="arrow"
             d="M 11.500037,31.436501 C 11.940474,20.09759 22.043105,11.32322 32.158766,21.979434 L 37.068811,17.246167 C 37.068811,17.246167 37.088388,32 37.088388,32 L 22.160133,31.978069 C 22.160133,31.978069 26.997745,27.140456 26.997745,27.140456 C 18.528582,18.264221 13.291696,25.230495 11.500037,31.436501 z"
             style="fill:#404040;"/>
          </a>
         </g>
        </svg>
</svg>
