<?xml version="1.0" encoding="UTF-8" standalone="no"?>
<!DOCTYPE svg PUBLIC "-//W3C//DTD SVG 1.1//EN"
 "http://www.w3.org/Graphics/SVG/1.1/DTD/svg11.dtd">
<!-- Generated by graphviz version 2.40.1 (20161225.0304)
 -->
<!-- Title: /home/jihuan/Projects/deal.ii/program/dealii&#45;9.1.1/examples/laplace&#45;bem/include/lapack_helpers.h Pages: 1 -->
<svg width="1222pt" height="128pt"
 viewBox="0.00 0.00 1222.00 128.00" xmlns="http://www.w3.org/2000/svg" xmlns:xlink="http://www.w3.org/1999/xlink">
<g id="graph0" class="graph" transform="scale(1 1) rotate(0) translate(4 124)">
<title>/home/jihuan/Projects/deal.ii/program/dealii&#45;9.1.1/examples/laplace&#45;bem/include/lapack_helpers.h</title>
<!-- Node0 -->
<g id="node1" class="node">
<title>Node0</title>
<polygon fill="#bfbfbf" stroke="#000000" points="583.5,-67.5 583.5,-119.5 732.5,-119.5 732.5,-67.5 583.5,-67.5"/>
<text text-anchor="start" x="591.5" y="-107.5" font-family="Helvetica,sans-Serif" font-size="10.00" fill="#000000">/home/jihuan/Projects</text>
<text text-anchor="start" x="591.5" y="-96.5" font-family="Helvetica,sans-Serif" font-size="10.00" fill="#000000">/deal.ii/program/dealii</text>
<text text-anchor="start" x="591.5" y="-85.5" font-family="Helvetica,sans-Serif" font-size="10.00" fill="#000000">&#45;9.1.1/examples/laplace</text>
<text text-anchor="middle" x="658" y="-74.5" font-family="Helvetica,sans-Serif" font-size="10.00" fill="#000000">&#45;bem/include/lapack_helpers.h</text>
</g>
<!-- Node1 -->
<g id="node2" class="node">
<title>Node1</title>
<polygon fill="none" stroke="#bfbfbf" points="0,-6 0,-25 116,-25 116,-6 0,-6"/>
<text text-anchor="middle" x="58" y="-13" font-family="Helvetica,sans-Serif" font-size="10.00" fill="#000000">deal.II/base/numbers.h</text>
</g>
<!-- Node0&#45;&gt;Node1 -->
<g id="edge1" class="edge">
<title>Node0&#45;&gt;Node1</title>
<path fill="none" stroke="#191970" d="M583.4714,-87.3829C480.0738,-78.3011 287.4743,-59.2305 125,-31 118.7473,-29.9136 112.2025,-28.61 105.7565,-27.2264"/>
<polygon fill="#191970" stroke="#191970" points="106.2858,-23.7587 95.7647,-25.0058 104.7672,-30.592 106.2858,-23.7587"/>
</g>
<!-- Node2 -->
<g id="node3" class="node">
<title>Node2</title>
<polygon fill="none" stroke="#bfbfbf" points="134,-.5 134,-30.5 262,-30.5 262,-.5 134,-.5"/>
<text text-anchor="start" x="142" y="-18.5" font-family="Helvetica,sans-Serif" font-size="10.00" fill="#000000">deal.II/lac/blas_extension</text>
<text text-anchor="middle" x="198" y="-7.5" font-family="Helvetica,sans-Serif" font-size="10.00" fill="#000000">_templates.h</text>
</g>
<!-- Node0&#45;&gt;Node2 -->
<g id="edge2" class="edge">
<title>Node0&#45;&gt;Node2</title>
<path fill="none" stroke="#191970" d="M583.26,-82.5428C507.3878,-71.1665 386.3084,-52.3187 272.0319,-31.1445"/>
<polygon fill="#191970" stroke="#191970" points="272.5303,-27.6773 262.0585,-29.2873 271.2487,-34.559 272.5303,-27.6773"/>
</g>
<!-- Node3 -->
<g id="node4" class="node">
<title>Node3</title>
<polygon fill="none" stroke="#bfbfbf" points="280,-6 280,-25 406,-25 406,-6 280,-6"/>
<text text-anchor="middle" x="343" y="-13" font-family="Helvetica,sans-Serif" font-size="10.00" fill="#000000">deal.II/lac/block_vector.h</text>
</g>
<!-- Node0&#45;&gt;Node3 -->
<g id="edge3" class="edge">
<title>Node0&#45;&gt;Node3</title>
<path fill="none" stroke="#191970" d="M583.3494,-75.0151C523.9937,-60.3175 442.692,-40.1856 391.513,-27.5127"/>
<polygon fill="#191970" stroke="#191970" points="392.2423,-24.0877 381.6942,-25.0814 390.5598,-30.8825 392.2423,-24.0877"/>
</g>
<!-- Node4 -->
<g id="node5" class="node">
<title>Node4</title>
<polygon fill="none" stroke="#bfbfbf" points="424,-6 424,-25 540,-25 540,-6 424,-6"/>
<text text-anchor="middle" x="482" y="-13" font-family="Helvetica,sans-Serif" font-size="10.00" fill="#000000">deal.II/lac/full_matrix.h</text>
</g>
<!-- Node0&#45;&gt;Node4 -->
<g id="edge4" class="edge">
<title>Node0&#45;&gt;Node4</title>
<path fill="none" stroke="#191970" d="M598.9049,-67.3101C570.1163,-54.5515 536.6848,-39.7353 512.9654,-29.2233"/>
<polygon fill="#191970" stroke="#191970" points="514.3126,-25.9921 503.7521,-25.1401 511.4763,-32.3918 514.3126,-25.9921"/>
</g>
<!-- Node5 -->
<g id="node6" class="node">
<title>Node5</title>
<polygon fill="none" stroke="#bfbfbf" points="558.5,-.5 558.5,-30.5 649.5,-30.5 649.5,-.5 558.5,-.5"/>
<text text-anchor="start" x="566.5" y="-18.5" font-family="Helvetica,sans-Serif" font-size="10.00" fill="#000000">deal.II/lac/lapack</text>
<text text-anchor="middle" x="604" y="-7.5" font-family="Helvetica,sans-Serif" font-size="10.00" fill="#000000">_full_matrix.h</text>
</g>
<!-- Node0&#45;&gt;Node5 -->
<g id="edge5" class="edge">
<title>Node0&#45;&gt;Node5</title>
<path fill="none" stroke="#191970" d="M639.7181,-67.0928C633.3844,-57.9442 626.3338,-47.7599 620.1812,-38.8728"/>
<polygon fill="#191970" stroke="#191970" points="622.9576,-36.7342 614.3878,-30.5046 617.2022,-40.7187 622.9576,-36.7342"/>
</g>
<!-- Node6 -->
<g id="node7" class="node">
<title>Node6</title>
<polygon fill="none" stroke="#bfbfbf" points="667.5,-.5 667.5,-30.5 758.5,-30.5 758.5,-.5 667.5,-.5"/>
<text text-anchor="start" x="675.5" y="-18.5" font-family="Helvetica,sans-Serif" font-size="10.00" fill="#000000">deal.II/lac/lapack</text>
<text text-anchor="middle" x="713" y="-7.5" font-family="Helvetica,sans-Serif" font-size="10.00" fill="#000000">_support.h</text>
</g>
<!-- Node0&#45;&gt;Node6 -->
<g id="edge6" class="edge">
<title>Node0&#45;&gt;Node6</title>
<path fill="none" stroke="#191970" d="M676.6205,-67.0928C683.0714,-57.9442 690.2526,-47.7599 696.5191,-38.8728"/>
<polygon fill="#191970" stroke="#191970" points="699.5175,-40.6941 702.4199,-30.5046 693.7967,-36.6602 699.5175,-40.6941"/>
</g>
<!-- Node7 -->
<g id="node8" class="node">
<title>Node7</title>
<polygon fill="none" stroke="#bfbfbf" points="776.5,-.5 776.5,-30.5 867.5,-30.5 867.5,-.5 776.5,-.5"/>
<text text-anchor="start" x="784.5" y="-18.5" font-family="Helvetica,sans-Serif" font-size="10.00" fill="#000000">deal.II/lac/lapack</text>
<text text-anchor="middle" x="822" y="-7.5" font-family="Helvetica,sans-Serif" font-size="10.00" fill="#000000">_templates.h</text>
</g>
<!-- Node0&#45;&gt;Node7 -->
<g id="edge7" class="edge">
<title>Node0&#45;&gt;Node7</title>
<path fill="none" stroke="#191970" d="M713.0659,-67.3101C735.3378,-56.7174 760.5919,-44.7063 781.173,-34.9177"/>
<polygon fill="#191970" stroke="#191970" points="782.7455,-38.0456 790.2729,-30.5897 779.7389,-31.7241 782.7455,-38.0456"/>
</g>
<!-- Node8 -->
<g id="node9" class="node">
<title>Node8</title>
<polygon fill="none" stroke="#bfbfbf" points="886,-.5 886,-30.5 978,-30.5 978,-.5 886,-.5"/>
<text text-anchor="start" x="894" y="-18.5" font-family="Helvetica,sans-Serif" font-size="10.00" fill="#000000">deal.II/lac/sparse</text>
<text text-anchor="middle" x="932" y="-7.5" font-family="Helvetica,sans-Serif" font-size="10.00" fill="#000000">_matrix.h</text>
</g>
<!-- Node0&#45;&gt;Node8 -->
<g id="edge8" class="edge">
<title>Node0&#45;&gt;Node8</title>
<path fill="none" stroke="#191970" d="M732.5098,-72.2892C777.8428,-59.3842 834.7938,-43.1718 876.2287,-31.3765"/>
<polygon fill="#191970" stroke="#191970" points="877.2213,-34.7331 885.8808,-28.6288 875.3046,-28.0006 877.2213,-34.7331"/>
</g>
<!-- Node9 -->
<g id="node10" class="node">
<title>Node9</title>
<polygon fill="none" stroke="#bfbfbf" points="996.5,-6 996.5,-25 1097.5,-25 1097.5,-6 996.5,-6"/>
<text text-anchor="middle" x="1047" y="-13" font-family="Helvetica,sans-Serif" font-size="10.00" fill="#000000">deal.II/lac/utilities.h</text>
</g>
<!-- Node0&#45;&gt;Node9 -->
<g id="edge9" class="edge">
<title>Node0&#45;&gt;Node9</title>
<path fill="none" stroke="#191970" d="M732.7637,-80.7276C799.6332,-68.9642 900.1957,-50.4357 987,-31 991.7375,-29.9393 996.6692,-28.7709 1001.5793,-27.5657"/>
<polygon fill="#191970" stroke="#191970" points="1002.7103,-30.8906 1011.5586,-25.0632 1001.0075,-24.1008 1002.7103,-30.8906"/>
</g>
<!-- Node10 -->
<g id="node11" class="node">
<title>Node10</title>
<polygon fill="none" stroke="#bfbfbf" points="1116,-6 1116,-25 1214,-25 1214,-6 1116,-6"/>
<text text-anchor="middle" x="1165" y="-13" font-family="Helvetica,sans-Serif" font-size="10.00" fill="#000000">deal.II/lac/vector.h</text>
</g>
<!-- Node0&#45;&gt;Node10 -->
<g id="edge10" class="edge">
<title>Node0&#45;&gt;Node10</title>
<path fill="none" stroke="#191970" d="M732.758,-85.9374C822.2608,-76.2295 976.4432,-57.4277 1107,-31 1111.9801,-29.9919 1117.1668,-28.8057 1122.3008,-27.5457"/>
<polygon fill="#191970" stroke="#191970" points="1123.217,-30.9241 1132.0405,-25.0593 1121.4855,-24.1417 1123.217,-30.9241"/>
</g>
</g>
</svg>
