<?xml version="1.0" encoding="UTF-8" standalone="no"?>
<!DOCTYPE svg PUBLIC "-//W3C//DTD SVG 1.1//EN"
 "http://www.w3.org/Graphics/SVG/1.1/DTD/svg11.dtd">
<!-- Generated by graphviz version 2.40.1 (20161225.0304)
 -->
<!-- Title: /home/jihuan/Projects/deal.ii/program/dealii&#45;9.1.1/examples/laplace&#45;bem/tests/lapack&#45;matrix&#45;agglomeration&#45;interwoven&#45;indices/lapack&#45;matrix&#45;agglomeration&#45;interwoven&#45;indices.cc Pages: 1 -->
<svg width="1418pt" height="284pt"
 viewBox="0.00 0.00 1417.50 284.00" xmlns="http://www.w3.org/2000/svg" xmlns:xlink="http://www.w3.org/1999/xlink">
<g id="graph0" class="graph" transform="scale(1 1) rotate(0) translate(4 280)">
<title>/home/jihuan/Projects/deal.ii/program/dealii&#45;9.1.1/examples/laplace&#45;bem/tests/lapack&#45;matrix&#45;agglomeration&#45;interwoven&#45;indices/lapack&#45;matrix&#45;agglomeration&#45;interwoven&#45;indices.cc</title>
<!-- Node0 -->
<g id="node1" class="node">
<title>Node0</title>
<polygon fill="#bfbfbf" stroke="#000000" points="107.5,-190.5 107.5,-275.5 283.5,-275.5 283.5,-190.5 107.5,-190.5"/>
<text text-anchor="start" x="115.5" y="-263.5" font-family="Helvetica,sans-Serif" font-size="10.00" fill="#000000">/home/jihuan/Projects</text>
<text text-anchor="start" x="115.5" y="-252.5" font-family="Helvetica,sans-Serif" font-size="10.00" fill="#000000">/deal.ii/program/dealii</text>
<text text-anchor="start" x="115.5" y="-241.5" font-family="Helvetica,sans-Serif" font-size="10.00" fill="#000000">&#45;9.1.1/examples/laplace</text>
<text text-anchor="start" x="115.5" y="-230.5" font-family="Helvetica,sans-Serif" font-size="10.00" fill="#000000">&#45;bem/tests/lapack&#45;matrix</text>
<text text-anchor="start" x="115.5" y="-219.5" font-family="Helvetica,sans-Serif" font-size="10.00" fill="#000000">&#45;agglomeration&#45;interwoven</text>
<text text-anchor="start" x="115.5" y="-208.5" font-family="Helvetica,sans-Serif" font-size="10.00" fill="#000000">&#45;indices/lapack&#45;matrix&#45;agglomeration</text>
<text text-anchor="middle" x="195.5" y="-197.5" font-family="Helvetica,sans-Serif" font-size="10.00" fill="#000000">&#45;interwoven&#45;indices.cc</text>
</g>
<!-- Node1 -->
<g id="node2" class="node">
<title>Node1</title>
<polygon fill="none" stroke="#bfbfbf" points="0,-67.5 0,-86.5 103,-86.5 103,-67.5 0,-67.5"/>
<text text-anchor="middle" x="51.5" y="-74.5" font-family="Helvetica,sans-Serif" font-size="10.00" fill="#000000">deal.II/base/types.h</text>
</g>
<!-- Node0&#45;&gt;Node1 -->
<g id="edge1" class="edge">
<title>Node0&#45;&gt;Node1</title>
<path fill="none" stroke="#191970" d="M119.0441,-190.2896C104.8657,-179.814 91.1805,-167.6335 80.5,-154 67.3301,-137.1888 59.6521,-113.7526 55.5431,-97.1625"/>
<polygon fill="#191970" stroke="#191970" points="58.8525,-95.9256 53.245,-86.9364 52.0229,-97.4605 58.8525,-95.9256"/>
</g>
<!-- Node2 -->
<g id="node3" class="node">
<title>Node2</title>
<polygon fill="none" stroke="#bfbfbf" points="318.5,-129 318.5,-148 372.5,-148 372.5,-129 318.5,-129"/>
<text text-anchor="middle" x="345.5" y="-136" font-family="Helvetica,sans-Serif" font-size="10.00" fill="#000000">iostream</text>
</g>
<!-- Node0&#45;&gt;Node2 -->
<g id="edge2" class="edge">
<title>Node0&#45;&gt;Node2</title>
<path fill="none" stroke="#191970" d="M263.0403,-190.4496C283.9715,-177.263 305.6854,-163.5832 321.5739,-153.5734"/>
<polygon fill="#191970" stroke="#191970" points="323.6104,-156.4271 330.2057,-148.1354 319.8792,-150.5045 323.6104,-156.4271"/>
</g>
<!-- Node3 -->
<g id="node4" class="node">
<title>Node3</title>
<g id="a_node4"><a xlink:href="generic__functors_8h.html" target="_top" xlink:title="This header file contains a set of self&#45;defined generic functors. ">
<polygon fill="none" stroke="#000000" points="90,-129 90,-148 187,-148 187,-129 90,-129"/>
<text text-anchor="middle" x="138.5" y="-136" font-family="Helvetica,sans-Serif" font-size="10.00" fill="#000000">generic_functors.h</text>
</a>
</g>
</g>
<!-- Node0&#45;&gt;Node3 -->
<g id="edge3" class="edge">
<title>Node0&#45;&gt;Node3</title>
<path fill="none" stroke="#191970" d="M169.8347,-190.4496C162.7428,-178.6921 155.4145,-166.5425 149.6297,-156.9519"/>
<polygon fill="#191970" stroke="#191970" points="152.5873,-155.0788 144.4253,-148.3236 146.5933,-158.6942 152.5873,-155.0788"/>
</g>
<!-- Node6 -->
<g id="node7" class="node">
<title>Node6</title>
<g id="a_node7"><a xlink:href="lapack__full__matrix__ext_8h_source.html" target="_top" xlink:title="lapack_full_matrix\l_ext.h">
<polygon fill="none" stroke="#000000" points="205,-123.5 205,-153.5 300,-153.5 300,-123.5 205,-123.5"/>
<text text-anchor="start" x="213" y="-141.5" font-family="Helvetica,sans-Serif" font-size="10.00" fill="#000000">lapack_full_matrix</text>
<text text-anchor="middle" x="252.5" y="-130.5" font-family="Helvetica,sans-Serif" font-size="10.00" fill="#000000">_ext.h</text>
</a>
</g>
</g>
<!-- Node0&#45;&gt;Node6 -->
<g id="edge7" class="edge">
<title>Node0&#45;&gt;Node6</title>
<path fill="none" stroke="#191970" d="M221.1653,-190.4496C226.981,-180.8078 232.9557,-170.9024 238.1078,-162.3607"/>
<polygon fill="#191970" stroke="#191970" points="241.1612,-164.075 243.3291,-153.7044 235.1671,-160.4596 241.1612,-164.075"/>
</g>
<!-- Node3&#45;&gt;Node1 -->
<g id="edge4" class="edge">
<title>Node3&#45;&gt;Node1</title>
<path fill="none" stroke="#191970" d="M124.9063,-128.8906C111.1157,-119.1421 89.5528,-103.8994 73.359,-92.4521"/>
<polygon fill="#191970" stroke="#191970" points="75.1844,-89.4563 64.9983,-86.5419 71.1437,-95.1723 75.1844,-89.4563"/>
</g>
<!-- Node4 -->
<g id="node5" class="node">
<title>Node4</title>
<polygon fill="none" stroke="#bfbfbf" points="121,-67.5 121,-86.5 156,-86.5 156,-67.5 121,-67.5"/>
<text text-anchor="middle" x="138.5" y="-74.5" font-family="Helvetica,sans-Serif" font-size="10.00" fill="#000000">map</text>
</g>
<!-- Node3&#45;&gt;Node4 -->
<g id="edge5" class="edge">
<title>Node3&#45;&gt;Node4</title>
<path fill="none" stroke="#191970" d="M138.5,-128.8906C138.5,-120.3657 138.5,-107.6392 138.5,-96.9235"/>
<polygon fill="#191970" stroke="#191970" points="142.0001,-96.7448 138.5,-86.7449 135.0001,-96.7449 142.0001,-96.7448"/>
</g>
<!-- Node5 -->
<g id="node6" class="node">
<title>Node5</title>
<polygon fill="none" stroke="#bfbfbf" points="174.5,-67.5 174.5,-86.5 218.5,-86.5 218.5,-67.5 174.5,-67.5"/>
<text text-anchor="middle" x="196.5" y="-74.5" font-family="Helvetica,sans-Serif" font-size="10.00" fill="#000000">vector</text>
</g>
<!-- Node3&#45;&gt;Node5 -->
<g id="edge6" class="edge">
<title>Node3&#45;&gt;Node5</title>
<path fill="none" stroke="#191970" d="M147.5625,-128.8906C156.2793,-119.6478 169.654,-105.466 180.2196,-94.2628"/>
<polygon fill="#191970" stroke="#191970" points="182.995,-96.4213 187.3097,-86.7449 177.9024,-91.6186 182.995,-96.4213"/>
</g>
<!-- Node6&#45;&gt;Node4 -->
<g id="edge9" class="edge">
<title>Node6&#45;&gt;Node4</title>
<path fill="none" stroke="#191970" d="M224.6125,-123.4554C206.5924,-113.734 183.2659,-101.15 165.4368,-91.5317"/>
<polygon fill="#191970" stroke="#191970" points="166.6287,-88.1979 156.166,-86.5303 163.3052,-94.3586 166.6287,-88.1979"/>
</g>
<!-- Node6&#45;&gt;Node5 -->
<g id="edge10" class="edge">
<title>Node6&#45;&gt;Node5</title>
<path fill="none" stroke="#191970" d="M238.6573,-123.2977C230.641,-114.4941 220.5238,-103.3833 212.21,-94.2529"/>
<polygon fill="#191970" stroke="#191970" points="214.7869,-91.8845 205.4663,-86.8469 209.6112,-96.5974 214.7869,-91.8845"/>
</g>
<!-- Node7 -->
<g id="node8" class="node">
<title>Node7</title>
<polygon fill="none" stroke="#bfbfbf" points="236.5,-67.5 236.5,-86.5 276.5,-86.5 276.5,-67.5 236.5,-67.5"/>
<text text-anchor="middle" x="256.5" y="-74.5" font-family="Helvetica,sans-Serif" font-size="10.00" fill="#000000">limits</text>
</g>
<!-- Node6&#45;&gt;Node7 -->
<g id="edge8" class="edge">
<title>Node6&#45;&gt;Node7</title>
<path fill="none" stroke="#191970" d="M253.4888,-123.2977C254.0035,-115.3834 254.6396,-105.6043 255.1943,-97.0759"/>
<polygon fill="#191970" stroke="#191970" points="258.703,-97.053 255.8595,-86.8469 251.7178,-96.5986 258.703,-97.053"/>
</g>
<!-- Node8 -->
<g id="node9" class="node">
<title>Node8</title>
<g id="a_node9"><a xlink:href="general__exceptions_8h.html" target="_top" xlink:title="Definition of self&#45;defined general exceptions. ">
<polygon fill="none" stroke="#000000" points="295,-67.5 295,-86.5 404,-86.5 404,-67.5 295,-67.5"/>
<text text-anchor="middle" x="349.5" y="-74.5" font-family="Helvetica,sans-Serif" font-size="10.00" fill="#000000">general_exceptions.h</text>
</a>
</g>
</g>
<!-- Node6&#45;&gt;Node8 -->
<g id="edge11" class="edge">
<title>Node6&#45;&gt;Node8</title>
<path fill="none" stroke="#191970" d="M276.4775,-123.2977C291.4376,-113.8127 310.622,-101.6495 325.5726,-92.1705"/>
<polygon fill="#191970" stroke="#191970" points="327.6873,-94.9739 334.2587,-86.6633 323.939,-89.062 327.6873,-94.9739"/>
</g>
<!-- Node10 -->
<g id="node11" class="node">
<title>Node10</title>
<g id="a_node11"><a xlink:href="lapack__helpers_8h.html" target="_top" xlink:title="Exposes LAPACK helper functions defined in lapack_full_matrix.cc and define new ones by following the...">
<polygon fill="none" stroke="#000000" points="658.5,-67.5 658.5,-86.5 748.5,-86.5 748.5,-67.5 658.5,-67.5"/>
<text text-anchor="middle" x="703.5" y="-74.5" font-family="Helvetica,sans-Serif" font-size="10.00" fill="#000000">lapack_helpers.h</text>
</a>
</g>
</g>
<!-- Node6&#45;&gt;Node10 -->
<g id="edge13" class="edge">
<title>Node6&#45;&gt;Node10</title>
<path fill="none" stroke="#191970" d="M300.2725,-124.9533C303.3838,-124.2434 306.4793,-123.5837 309.5,-123 428.9717,-99.9157 571.2147,-86.7838 647.8835,-80.8627"/>
<polygon fill="#191970" stroke="#191970" points="648.5513,-84.3222 658.2575,-80.0748 648.0211,-77.3423 648.5513,-84.3222"/>
</g>
<!-- Node9 -->
<g id="node10" class="node">
<title>Node9</title>
<polygon fill="none" stroke="#bfbfbf" points="51.5,-6 51.5,-25 177.5,-25 177.5,-6 51.5,-6"/>
<text text-anchor="middle" x="114.5" y="-13" font-family="Helvetica,sans-Serif" font-size="10.00" fill="#000000">deal.II/base/exceptions.h</text>
</g>
<!-- Node8&#45;&gt;Node9 -->
<g id="edge12" class="edge">
<title>Node8&#45;&gt;Node9</title>
<path fill="none" stroke="#191970" d="M313.0391,-67.4581C272.0485,-56.7308 205.4031,-39.2895 160.774,-27.61"/>
<polygon fill="#191970" stroke="#191970" points="161.6068,-24.2101 151.0464,-25.0643 159.8345,-30.9821 161.6068,-24.2101"/>
</g>
<!-- Node11 -->
<g id="node12" class="node">
<title>Node11</title>
<polygon fill="none" stroke="#bfbfbf" points="1003.5,-6 1003.5,-25 1119.5,-25 1119.5,-6 1003.5,-6"/>
<text text-anchor="middle" x="1061.5" y="-13" font-family="Helvetica,sans-Serif" font-size="10.00" fill="#000000">deal.II/base/numbers.h</text>
</g>
<!-- Node10&#45;&gt;Node11 -->
<g id="edge14" class="edge">
<title>Node10&#45;&gt;Node11</title>
<path fill="none" stroke="#191970" d="M748.5387,-70.8862C805.8748,-62.8726 907.8918,-47.8417 994.5,-31 1000.2811,-29.8758 1006.3219,-28.6094 1012.3077,-27.2972"/>
<polygon fill="#191970" stroke="#191970" points="1013.2818,-30.6658 1022.2739,-25.0629 1011.7504,-23.8354 1013.2818,-30.6658"/>
</g>
<!-- Node12 -->
<g id="node13" class="node">
<title>Node12</title>
<polygon fill="none" stroke="#bfbfbf" points="1137.5,-.5 1137.5,-30.5 1265.5,-30.5 1265.5,-.5 1137.5,-.5"/>
<text text-anchor="start" x="1145.5" y="-18.5" font-family="Helvetica,sans-Serif" font-size="10.00" fill="#000000">deal.II/lac/blas_extension</text>
<text text-anchor="middle" x="1201.5" y="-7.5" font-family="Helvetica,sans-Serif" font-size="10.00" fill="#000000">_templates.h</text>
</g>
<!-- Node10&#45;&gt;Node12 -->
<g id="edge15" class="edge">
<title>Node10&#45;&gt;Node12</title>
<path fill="none" stroke="#191970" d="M748.6769,-73.6249C824.7901,-67.6085 983.567,-53.6416 1127.5727,-31.0491"/>
<polygon fill="#191970" stroke="#191970" points="1128.1466,-34.5019 1137.4746,-29.4781 1127.0496,-27.5884 1128.1466,-34.5019"/>
</g>
<!-- Node13 -->
<g id="node14" class="node">
<title>Node13</title>
<polygon fill="none" stroke="#bfbfbf" points="1283.5,-6 1283.5,-25 1409.5,-25 1409.5,-6 1283.5,-6"/>
<text text-anchor="middle" x="1346.5" y="-13" font-family="Helvetica,sans-Serif" font-size="10.00" fill="#000000">deal.II/lac/block_vector.h</text>
</g>
<!-- Node10&#45;&gt;Node13 -->
<g id="edge16" class="edge">
<title>Node10&#45;&gt;Node13</title>
<path fill="none" stroke="#191970" d="M748.5144,-75.3895C845.2421,-71.4875 1079.93,-59.6534 1274.5,-31 1281.7184,-29.937 1289.2961,-28.5778 1296.7143,-27.1072"/>
<polygon fill="#191970" stroke="#191970" points="1297.5962,-30.499 1306.6824,-25.0502 1296.1814,-23.6435 1297.5962,-30.499"/>
</g>
<!-- Node14 -->
<g id="node15" class="node">
<title>Node14</title>
<polygon fill="none" stroke="#bfbfbf" points="195.5,-6 195.5,-25 311.5,-25 311.5,-6 195.5,-6"/>
<text text-anchor="middle" x="253.5" y="-13" font-family="Helvetica,sans-Serif" font-size="10.00" fill="#000000">deal.II/lac/full_matrix.h</text>
</g>
<!-- Node10&#45;&gt;Node14 -->
<g id="edge17" class="edge">
<title>Node10&#45;&gt;Node14</title>
<path fill="none" stroke="#191970" d="M658.4573,-73.1771C586.6334,-66.7253 441.8778,-52.2652 320.5,-31 314.326,-29.9183 307.8665,-28.6284 301.4982,-27.2612"/>
<polygon fill="#191970" stroke="#191970" points="302.1411,-23.8188 291.6202,-25.0678 300.6237,-30.6523 302.1411,-23.8188"/>
</g>
<!-- Node15 -->
<g id="node16" class="node">
<title>Node15</title>
<polygon fill="none" stroke="#bfbfbf" points="330,-.5 330,-30.5 421,-30.5 421,-.5 330,-.5"/>
<text text-anchor="start" x="338" y="-18.5" font-family="Helvetica,sans-Serif" font-size="10.00" fill="#000000">deal.II/lac/lapack</text>
<text text-anchor="middle" x="375.5" y="-7.5" font-family="Helvetica,sans-Serif" font-size="10.00" fill="#000000">_full_matrix.h</text>
</g>
<!-- Node10&#45;&gt;Node15 -->
<g id="edge18" class="edge">
<title>Node10&#45;&gt;Node15</title>
<path fill="none" stroke="#191970" d="M658.1026,-70.9847C605.5284,-63.6632 516.1772,-50.1281 430.9093,-31.1872"/>
<polygon fill="#191970" stroke="#191970" points="431.5957,-27.7542 421.0712,-28.9733 430.0588,-34.5835 431.5957,-27.7542"/>
</g>
<!-- Node16 -->
<g id="node17" class="node">
<title>Node16</title>
<polygon fill="none" stroke="#bfbfbf" points="439,-.5 439,-30.5 530,-30.5 530,-.5 439,-.5"/>
<text text-anchor="start" x="447" y="-18.5" font-family="Helvetica,sans-Serif" font-size="10.00" fill="#000000">deal.II/lac/lapack</text>
<text text-anchor="middle" x="484.5" y="-7.5" font-family="Helvetica,sans-Serif" font-size="10.00" fill="#000000">_support.h</text>
</g>
<!-- Node10&#45;&gt;Node16 -->
<g id="edge19" class="edge">
<title>Node10&#45;&gt;Node16</title>
<path fill="none" stroke="#191970" d="M669.0321,-67.4732C637.6586,-58.7834 589.8055,-45.4838 539.8411,-31.3701"/>
<polygon fill="#191970" stroke="#191970" points="540.7332,-27.9851 530.1581,-28.6321 538.8285,-34.721 540.7332,-27.9851"/>
</g>
<!-- Node17 -->
<g id="node18" class="node">
<title>Node17</title>
<polygon fill="none" stroke="#bfbfbf" points="548,-.5 548,-30.5 639,-30.5 639,-.5 548,-.5"/>
<text text-anchor="start" x="556" y="-18.5" font-family="Helvetica,sans-Serif" font-size="10.00" fill="#000000">deal.II/lac/lapack</text>
<text text-anchor="middle" x="593.5" y="-7.5" font-family="Helvetica,sans-Serif" font-size="10.00" fill="#000000">_templates.h</text>
</g>
<!-- Node10&#45;&gt;Node17 -->
<g id="edge20" class="edge">
<title>Node10&#45;&gt;Node17</title>
<path fill="none" stroke="#191970" d="M686.3125,-67.3906C671.0807,-58.8747 648.3497,-46.166 629.196,-35.4573"/>
<polygon fill="#191970" stroke="#191970" points="630.8455,-32.3697 620.409,-30.5446 627.4295,-38.4796 630.8455,-32.3697"/>
</g>
<!-- Node18 -->
<g id="node19" class="node">
<title>Node18</title>
<polygon fill="none" stroke="#bfbfbf" points="657.5,-.5 657.5,-30.5 749.5,-30.5 749.5,-.5 657.5,-.5"/>
<text text-anchor="start" x="665.5" y="-18.5" font-family="Helvetica,sans-Serif" font-size="10.00" fill="#000000">deal.II/lac/sparse</text>
<text text-anchor="middle" x="703.5" y="-7.5" font-family="Helvetica,sans-Serif" font-size="10.00" fill="#000000">_matrix.h</text>
</g>
<!-- Node10&#45;&gt;Node18 -->
<g id="edge21" class="edge">
<title>Node10&#45;&gt;Node18</title>
<path fill="none" stroke="#191970" d="M703.5,-67.3906C703.5,-60.2234 703.5,-50.0862 703.5,-40.671"/>
<polygon fill="#191970" stroke="#191970" points="707.0001,-40.5446 703.5,-30.5446 700.0001,-40.5446 707.0001,-40.5446"/>
</g>
<!-- Node19 -->
<g id="node20" class="node">
<title>Node19</title>
<polygon fill="none" stroke="#bfbfbf" points="768,-6 768,-25 869,-25 869,-6 768,-6"/>
<text text-anchor="middle" x="818.5" y="-13" font-family="Helvetica,sans-Serif" font-size="10.00" fill="#000000">deal.II/lac/utilities.h</text>
</g>
<!-- Node10&#45;&gt;Node19 -->
<g id="edge22" class="edge">
<title>Node10&#45;&gt;Node19</title>
<path fill="none" stroke="#191970" d="M721.4688,-67.3906C740.2884,-57.3262 770.0585,-41.4057 791.6641,-29.8514"/>
<polygon fill="#191970" stroke="#191970" points="793.4898,-32.8442 800.6574,-25.0419 790.1886,-26.6714 793.4898,-32.8442"/>
</g>
<!-- Node20 -->
<g id="node21" class="node">
<title>Node20</title>
<polygon fill="none" stroke="#bfbfbf" points="887.5,-6 887.5,-25 985.5,-25 985.5,-6 887.5,-6"/>
<text text-anchor="middle" x="936.5" y="-13" font-family="Helvetica,sans-Serif" font-size="10.00" fill="#000000">deal.II/lac/vector.h</text>
</g>
<!-- Node10&#45;&gt;Node20 -->
<g id="edge23" class="edge">
<title>Node10&#45;&gt;Node20</title>
<path fill="none" stroke="#191970" d="M740.0455,-67.4403C775.4568,-58.1663 830.6743,-43.6761 878.5,-31 882.5803,-29.9185 886.8213,-28.7913 891.0699,-27.6598"/>
<polygon fill="#191970" stroke="#191970" points="892.1647,-30.9903 900.9252,-25.0317 890.361,-24.2266 892.1647,-30.9903"/>
</g>
</g>
</svg>
