<?xml version="1.0" encoding="UTF-8" standalone="no"?>
<!DOCTYPE svg PUBLIC "-//W3C//DTD SVG 1.1//EN"
 "http://www.w3.org/Graphics/SVG/1.1/DTD/svg11.dtd">
<!-- Generated by graphviz version 2.40.1 (20161225.0304)
 -->
<!-- Title: /home/jihuan/Projects/deal.ii/program/dealii&#45;9.1.1/examples/laplace&#45;bem/tests/lapack&#45;matrix&#45;agglomeration&#45;interwoven&#45;indices/lapack&#45;matrix&#45;agglomeration&#45;interwoven&#45;indices.cc Pages: 1 -->
<svg width="1858pt" height="351pt"
 viewBox="0.00 0.00 1858.00 351.00" xmlns="http://www.w3.org/2000/svg" xmlns:xlink="http://www.w3.org/1999/xlink">
<g id="graph0" class="graph" transform="scale(1 1) rotate(0) translate(4 347)">
<title>/home/jihuan/Projects/deal.ii/program/dealii&#45;9.1.1/examples/laplace&#45;bem/tests/lapack&#45;matrix&#45;agglomeration&#45;interwoven&#45;indices/lapack&#45;matrix&#45;agglomeration&#45;interwoven&#45;indices.cc</title>
<!-- Node0 -->
<g id="node1" class="node">
<title>Node0</title>
<polygon fill="#bfbfbf" stroke="#000000" points="390.5,-257.5 390.5,-342.5 566.5,-342.5 566.5,-257.5 390.5,-257.5"/>
<text text-anchor="start" x="398.5" y="-330.5" font-family="Helvetica,sans-Serif" font-size="10.00" fill="#000000">/home/jihuan/Projects</text>
<text text-anchor="start" x="398.5" y="-319.5" font-family="Helvetica,sans-Serif" font-size="10.00" fill="#000000">/deal.ii/program/dealii</text>
<text text-anchor="start" x="398.5" y="-308.5" font-family="Helvetica,sans-Serif" font-size="10.00" fill="#000000">&#45;9.1.1/examples/laplace</text>
<text text-anchor="start" x="398.5" y="-297.5" font-family="Helvetica,sans-Serif" font-size="10.00" fill="#000000">&#45;bem/tests/lapack&#45;matrix</text>
<text text-anchor="start" x="398.5" y="-286.5" font-family="Helvetica,sans-Serif" font-size="10.00" fill="#000000">&#45;agglomeration&#45;interwoven</text>
<text text-anchor="start" x="398.5" y="-275.5" font-family="Helvetica,sans-Serif" font-size="10.00" fill="#000000">&#45;indices/lapack&#45;matrix&#45;agglomeration</text>
<text text-anchor="middle" x="478.5" y="-264.5" font-family="Helvetica,sans-Serif" font-size="10.00" fill="#000000">&#45;interwoven&#45;indices.cc</text>
</g>
<!-- Node1 -->
<g id="node2" class="node">
<title>Node1</title>
<polygon fill="none" stroke="#bfbfbf" points="0,-73 0,-92 103,-92 103,-73 0,-73"/>
<text text-anchor="middle" x="51.5" y="-80" font-family="Helvetica,sans-Serif" font-size="10.00" fill="#000000">deal.II/base/types.h</text>
</g>
<!-- Node0&#45;&gt;Node1 -->
<g id="edge1" class="edge">
<title>Node0&#45;&gt;Node1</title>
<path fill="none" stroke="#191970" d="M394.9024,-257.4181C297.6779,-207.8951 142.474,-128.8392 79.4566,-96.7402"/>
<polygon fill="#191970" stroke="#191970" points="81.0001,-93.5985 70.5008,-92.1784 77.8229,-99.836 81.0001,-93.5985"/>
</g>
<!-- Node2 -->
<g id="node3" class="node">
<title>Node2</title>
<polygon fill="none" stroke="#bfbfbf" points="610.5,-196 610.5,-215 664.5,-215 664.5,-196 610.5,-196"/>
<text text-anchor="middle" x="637.5" y="-203" font-family="Helvetica,sans-Serif" font-size="10.00" fill="#000000">iostream</text>
</g>
<!-- Node0&#45;&gt;Node2 -->
<g id="edge2" class="edge">
<title>Node0&#45;&gt;Node2</title>
<path fill="none" stroke="#191970" d="M550.0927,-257.4496C572.4871,-244.1397 595.7268,-230.3275 612.6089,-220.2937"/>
<polygon fill="#191970" stroke="#191970" points="614.48,-223.2533 621.2881,-215.1354 610.9035,-217.2359 614.48,-223.2533"/>
</g>
<!-- Node3 -->
<g id="node4" class="node">
<title>Node3</title>
<g id="a_node4"><a xlink:href="generic__functors_8h.html" target="_top" xlink:title="This header file contains a set of self&#45;defined generic functors. ">
<polygon fill="none" stroke="#000000" points="233,-134.5 233,-153.5 330,-153.5 330,-134.5 233,-134.5"/>
<text text-anchor="middle" x="281.5" y="-141.5" font-family="Helvetica,sans-Serif" font-size="10.00" fill="#000000">generic_functors.h</text>
</a>
</g>
</g>
<!-- Node0&#45;&gt;Node3 -->
<g id="edge3" class="edge">
<title>Node0&#45;&gt;Node3</title>
<path fill="none" stroke="#191970" d="M424.6689,-257.3723C383.9916,-225.1609 330.4199,-182.7386 301.7219,-160.0133"/>
<polygon fill="#191970" stroke="#191970" points="303.6685,-157.0903 293.656,-153.6261 299.3229,-162.5781 303.6685,-157.0903"/>
</g>
<!-- Node10 -->
<g id="node11" class="node">
<title>Node10</title>
<g id="a_node11"><a xlink:href="lapack__full__matrix__ext_8h_source.html" target="_top" xlink:title="lapack_full_matrix\l_ext.h">
<polygon fill="none" stroke="#000000" points="497,-190.5 497,-220.5 592,-220.5 592,-190.5 497,-190.5"/>
<text text-anchor="start" x="505" y="-208.5" font-family="Helvetica,sans-Serif" font-size="10.00" fill="#000000">lapack_full_matrix</text>
<text text-anchor="middle" x="544.5" y="-197.5" font-family="Helvetica,sans-Serif" font-size="10.00" fill="#000000">_ext.h</text>
</a>
</g>
</g>
<!-- Node0&#45;&gt;Node10 -->
<g id="edge11" class="edge">
<title>Node0&#45;&gt;Node10</title>
<path fill="none" stroke="#191970" d="M508.2177,-257.4496C515.0233,-247.7053 522.017,-237.6916 528.0254,-229.0886"/>
<polygon fill="#191970" stroke="#191970" points="531.0246,-230.9069 533.8811,-220.7044 525.2857,-226.8987 531.0246,-230.9069"/>
</g>
<!-- Node3&#45;&gt;Node1 -->
<g id="edge5" class="edge">
<title>Node3&#45;&gt;Node1</title>
<path fill="none" stroke="#191970" d="M245.8149,-134.4581C205.7807,-123.7533 140.7429,-106.3628 97.065,-94.6837"/>
<polygon fill="#191970" stroke="#191970" points="97.8336,-91.2663 87.2689,-92.0643 96.0253,-98.0287 97.8336,-91.2663"/>
</g>
<!-- Node4 -->
<g id="node5" class="node">
<title>Node4</title>
<polygon fill="none" stroke="#bfbfbf" points="309.5,-73 309.5,-92 435.5,-92 435.5,-73 309.5,-73"/>
<text text-anchor="middle" x="372.5" y="-80" font-family="Helvetica,sans-Serif" font-size="10.00" fill="#000000">deal.II/base/exceptions.h</text>
</g>
<!-- Node3&#45;&gt;Node4 -->
<g id="edge4" class="edge">
<title>Node3&#45;&gt;Node4</title>
<path fill="none" stroke="#191970" d="M295.7188,-134.3906C310.1434,-124.6421 332.6976,-109.3994 349.636,-97.9521"/>
<polygon fill="#191970" stroke="#191970" points="352.0556,-100.5412 358.3811,-92.0419 348.1359,-94.7415 352.0556,-100.5412"/>
</g>
<!-- Node5 -->
<g id="node6" class="node">
<title>Node5</title>
<polygon fill="none" stroke="#bfbfbf" points="650,-.5 650,-30.5 741,-30.5 741,-.5 650,-.5"/>
<text text-anchor="start" x="658" y="-18.5" font-family="Helvetica,sans-Serif" font-size="10.00" fill="#000000">deal.II/lac/lapack</text>
<text text-anchor="middle" x="695.5" y="-7.5" font-family="Helvetica,sans-Serif" font-size="10.00" fill="#000000">_support.h</text>
</g>
<!-- Node3&#45;&gt;Node5 -->
<g id="edge6" class="edge">
<title>Node3&#45;&gt;Node5</title>
<path fill="none" stroke="#191970" d="M280.7239,-134.2385C279.9989,-117.6897 281.1979,-84.2482 300.5,-67 325.3344,-44.8083 536.452,-26.8536 639.4432,-19.3249"/>
<polygon fill="#191970" stroke="#191970" points="639.9383,-22.7984 649.6599,-18.5864 639.4335,-15.8166 639.9383,-22.7984"/>
</g>
<!-- Node6 -->
<g id="node7" class="node">
<title>Node6</title>
<polygon fill="none" stroke="#bfbfbf" points="121,-73 121,-92 188,-92 188,-73 121,-73"/>
<text text-anchor="middle" x="154.5" y="-80" font-family="Helvetica,sans-Serif" font-size="10.00" fill="#000000">forward_list</text>
</g>
<!-- Node3&#45;&gt;Node6 -->
<g id="edge7" class="edge">
<title>Node3&#45;&gt;Node6</title>
<path fill="none" stroke="#191970" d="M261.6563,-134.3906C240.6864,-124.2359 207.4056,-108.1196 183.4964,-96.5416"/>
<polygon fill="#191970" stroke="#191970" points="184.7301,-93.2502 174.2044,-92.0419 181.6792,-99.5504 184.7301,-93.2502"/>
</g>
<!-- Node7 -->
<g id="node8" class="node">
<title>Node7</title>
<polygon fill="none" stroke="#bfbfbf" points="206,-73 206,-92 253,-92 253,-73 206,-73"/>
<text text-anchor="middle" x="229.5" y="-80" font-family="Helvetica,sans-Serif" font-size="10.00" fill="#000000">iterator</text>
</g>
<!-- Node3&#45;&gt;Node7 -->
<g id="edge8" class="edge">
<title>Node3&#45;&gt;Node7</title>
<path fill="none" stroke="#191970" d="M273.375,-134.3906C265.6358,-125.2376 253.8013,-111.2409 244.3728,-100.09"/>
<polygon fill="#191970" stroke="#191970" points="246.8689,-97.6213 237.7396,-92.2449 241.5235,-102.1409 246.8689,-97.6213"/>
</g>
<!-- Node8 -->
<g id="node9" class="node">
<title>Node8</title>
<polygon fill="none" stroke="#bfbfbf" points="454,-73 454,-92 489,-92 489,-73 454,-73"/>
<text text-anchor="middle" x="471.5" y="-80" font-family="Helvetica,sans-Serif" font-size="10.00" fill="#000000">map</text>
</g>
<!-- Node3&#45;&gt;Node8 -->
<g id="edge9" class="edge">
<title>Node3&#45;&gt;Node8</title>
<path fill="none" stroke="#191970" d="M326.434,-134.4702C359.7461,-126.6563 405.876,-114.2434 444.5,-98 445.4965,-97.5809 446.502,-97.1327 447.5092,-96.6625"/>
<polygon fill="#191970" stroke="#191970" points="449.1593,-99.7495 456.414,-92.0281 445.9276,-93.54 449.1593,-99.7495"/>
</g>
<!-- Node9 -->
<g id="node10" class="node">
<title>Node9</title>
<polygon fill="none" stroke="#bfbfbf" points="507.5,-73 507.5,-92 551.5,-92 551.5,-73 507.5,-73"/>
<text text-anchor="middle" x="529.5" y="-80" font-family="Helvetica,sans-Serif" font-size="10.00" fill="#000000">vector</text>
</g>
<!-- Node3&#45;&gt;Node9 -->
<g id="edge10" class="edge">
<title>Node3&#45;&gt;Node9</title>
<path fill="none" stroke="#191970" d="M330.4546,-135.1241C384.5505,-125.051 468.0536,-108.6423 498.5,-98 499.92,-97.5036 501.3584,-96.9564 502.7979,-96.3729"/>
<polygon fill="#191970" stroke="#191970" points="504.463,-99.4613 512.1334,-92.1528 501.5795,-93.0828 504.463,-99.4613"/>
</g>
<!-- Node10&#45;&gt;Node3 -->
<g id="edge20" class="edge">
<title>Node10&#45;&gt;Node3</title>
<path fill="none" stroke="#191970" d="M496.8727,-194.3628C450.3005,-183.4724 379.6396,-166.949 332.0805,-155.8278"/>
<polygon fill="#191970" stroke="#191970" points="332.8338,-152.4096 322.2996,-153.5406 331.2399,-159.2257 332.8338,-152.4096"/>
</g>
<!-- Node10&#45;&gt;Node8 -->
<g id="edge13" class="edge">
<title>Node10&#45;&gt;Node8</title>
<path fill="none" stroke="#191970" d="M542.9041,-190.3378C540.7721,-175.1935 535.967,-151.685 525.5,-134 517.4025,-120.3185 504.6594,-107.9195 493.5855,-98.7174"/>
<polygon fill="#191970" stroke="#191970" points="495.5552,-95.8123 485.5471,-92.3354 491.2025,-101.2945 495.5552,-95.8123"/>
</g>
<!-- Node10&#45;&gt;Node9 -->
<g id="edge17" class="edge">
<title>Node10&#45;&gt;Node9</title>
<path fill="none" stroke="#191970" d="M551.4215,-190.3099C557.13,-175.7495 563.5367,-153.2095 558.5,-134 555.3771,-122.0893 548.8098,-110.029 542.7135,-100.5764"/>
<polygon fill="#191970" stroke="#191970" points="545.4502,-98.3777 536.9191,-92.0952 539.6704,-102.3266 545.4502,-98.3777"/>
</g>
<!-- Node11 -->
<g id="node12" class="node">
<title>Node11</title>
<polygon fill="none" stroke="#bfbfbf" points="982.5,-134.5 982.5,-153.5 1022.5,-153.5 1022.5,-134.5 982.5,-134.5"/>
<text text-anchor="middle" x="1002.5" y="-141.5" font-family="Helvetica,sans-Serif" font-size="10.00" fill="#000000">limits</text>
</g>
<!-- Node10&#45;&gt;Node11 -->
<g id="edge12" class="edge">
<title>Node10&#45;&gt;Node11</title>
<path fill="none" stroke="#191970" d="M592.2594,-191.8835C595.3739,-191.1907 598.4737,-190.5538 601.5,-190 761.7012,-160.6841 809.3394,-188.2004 972.5019,-153.7464"/>
<polygon fill="#191970" stroke="#191970" points="973.355,-157.1429 982.392,-151.6127 971.8787,-150.3004 973.355,-157.1429"/>
</g>
<!-- Node12 -->
<g id="node13" class="node">
<title>Node12</title>
<polygon fill="none" stroke="#bfbfbf" points="1041,-134.5 1041,-153.5 1082,-153.5 1082,-134.5 1041,-134.5"/>
<text text-anchor="middle" x="1061.5" y="-141.5" font-family="Helvetica,sans-Serif" font-size="10.00" fill="#000000">regex</text>
</g>
<!-- Node10&#45;&gt;Node12 -->
<g id="edge14" class="edge">
<title>Node10&#45;&gt;Node12</title>
<path fill="none" stroke="#191970" d="M592.2512,-191.8377C595.3677,-191.156 598.4702,-190.5342 601.5,-190 787.1389,-157.2697 841.7837,-191.3898 1030.7149,-153.674"/>
<polygon fill="#191970" stroke="#191970" points="1031.5931,-157.0671 1040.6929,-151.6408 1030.1954,-150.208 1031.5931,-157.0671"/>
</g>
<!-- Node13 -->
<g id="node14" class="node">
<title>Node13</title>
<polygon fill="none" stroke="#bfbfbf" points="1100.5,-134.5 1100.5,-153.5 1152.5,-153.5 1152.5,-134.5 1100.5,-134.5"/>
<text text-anchor="middle" x="1126.5" y="-141.5" font-family="Helvetica,sans-Serif" font-size="10.00" fill="#000000">sstream</text>
</g>
<!-- Node10&#45;&gt;Node13 -->
<g id="edge15" class="edge">
<title>Node10&#45;&gt;Node13</title>
<path fill="none" stroke="#191970" d="M592.2449,-191.8016C595.363,-191.1288 598.4675,-190.5188 601.5,-190 813.4802,-153.7379 874.6568,-191.0314 1090.2127,-153.8869"/>
<polygon fill="#191970" stroke="#191970" points="1091.0188,-157.2989 1100.2621,-152.1209 1089.8072,-150.4046 1091.0188,-157.2989"/>
</g>
<!-- Node14 -->
<g id="node15" class="node">
<title>Node14</title>
<polygon fill="none" stroke="#bfbfbf" points="348,-134.5 348,-153.5 389,-153.5 389,-134.5 348,-134.5"/>
<text text-anchor="middle" x="368.5" y="-141.5" font-family="Helvetica,sans-Serif" font-size="10.00" fill="#000000">string</text>
</g>
<!-- Node10&#45;&gt;Node14 -->
<g id="edge16" class="edge">
<title>Node10&#45;&gt;Node14</title>
<path fill="none" stroke="#191970" d="M501.4456,-190.4554C469.723,-179.3705 427.3487,-164.5636 399.0513,-154.6756"/>
<polygon fill="#191970" stroke="#191970" points="399.9035,-151.2659 389.3087,-151.2712 397.5944,-157.8741 399.9035,-151.2659"/>
</g>
<!-- Node15 -->
<g id="node16" class="node">
<title>Node15</title>
<g id="a_node16"><a xlink:href="general__exceptions_8h.html" target="_top" xlink:title="Definition of self&#45;defined general exceptions. ">
<polygon fill="none" stroke="#000000" points="407,-134.5 407,-153.5 516,-153.5 516,-134.5 407,-134.5"/>
<text text-anchor="middle" x="461.5" y="-141.5" font-family="Helvetica,sans-Serif" font-size="10.00" fill="#000000">general_exceptions.h</text>
</a>
</g>
</g>
<!-- Node10&#45;&gt;Node15 -->
<g id="edge18" class="edge">
<title>Node10&#45;&gt;Node15</title>
<path fill="none" stroke="#191970" d="M523.9831,-190.2977C511.5018,-181.0495 495.5841,-169.2551 482.9386,-159.8853"/>
<polygon fill="#191970" stroke="#191970" points="484.9078,-156.9882 474.7894,-153.8469 480.7404,-162.6126 484.9078,-156.9882"/>
</g>
<!-- Node16 -->
<g id="node17" class="node">
<title>Node16</title>
<g id="a_node17"><a xlink:href="lapack__helpers_8h.html" target="_top" xlink:title="Exposes LAPACK helper functions defined in lapack_full_matrix.cc and define new ones by following the...">
<polygon fill="none" stroke="#000000" points="874.5,-134.5 874.5,-153.5 964.5,-153.5 964.5,-134.5 874.5,-134.5"/>
<text text-anchor="middle" x="919.5" y="-141.5" font-family="Helvetica,sans-Serif" font-size="10.00" fill="#000000">lapack_helpers.h</text>
</a>
</g>
</g>
<!-- Node10&#45;&gt;Node16 -->
<g id="edge21" class="edge">
<title>Node10&#45;&gt;Node16</title>
<path fill="none" stroke="#191970" d="M592.2919,-192.0501C595.3985,-191.3164 598.4876,-190.625 601.5,-190 692.8199,-171.0524 800.4962,-157.2334 864.2134,-149.9259"/>
<polygon fill="#191970" stroke="#191970" points="864.894,-153.3712 874.4357,-148.7663 864.1049,-146.4158 864.894,-153.3712"/>
</g>
<!-- Node15&#45;&gt;Node4 -->
<g id="edge19" class="edge">
<title>Node15&#45;&gt;Node4</title>
<path fill="none" stroke="#191970" d="M447.5938,-134.3906C433.4862,-124.6421 411.4276,-109.3994 394.8615,-97.9521"/>
<polygon fill="#191970" stroke="#191970" points="396.5253,-94.8474 386.3086,-92.0419 392.5458,-100.6063 396.5253,-94.8474"/>
</g>
<!-- Node16&#45;&gt;Node5 -->
<g id="edge27" class="edge">
<title>Node16&#45;&gt;Node5</title>
<path fill="none" stroke="#191970" d="M874.4886,-139.4818C821.1444,-133.2039 736.6787,-120.0543 714.5,-98 699.5149,-83.099 695.369,-58.9119 694.6137,-40.5701"/>
<polygon fill="#191970" stroke="#191970" points="698.1134,-40.5218 694.5044,-30.5606 691.1139,-40.5982 698.1134,-40.5218"/>
</g>
<!-- Node17 -->
<g id="node18" class="node">
<title>Node17</title>
<polygon fill="none" stroke="#bfbfbf" points="861.5,-73 861.5,-92 977.5,-92 977.5,-73 861.5,-73"/>
<text text-anchor="middle" x="919.5" y="-80" font-family="Helvetica,sans-Serif" font-size="10.00" fill="#000000">deal.II/base/numbers.h</text>
</g>
<!-- Node16&#45;&gt;Node17 -->
<g id="edge22" class="edge">
<title>Node16&#45;&gt;Node17</title>
<path fill="none" stroke="#191970" d="M919.5,-134.3906C919.5,-125.8657 919.5,-113.1392 919.5,-102.4235"/>
<polygon fill="#191970" stroke="#191970" points="923.0001,-102.2448 919.5,-92.2449 916.0001,-102.2449 923.0001,-102.2448"/>
</g>
<!-- Node18 -->
<g id="node19" class="node">
<title>Node18</title>
<polygon fill="none" stroke="#bfbfbf" points="995.5,-67.5 995.5,-97.5 1123.5,-97.5 1123.5,-67.5 995.5,-67.5"/>
<text text-anchor="start" x="1003.5" y="-85.5" font-family="Helvetica,sans-Serif" font-size="10.00" fill="#000000">deal.II/lac/blas_extension</text>
<text text-anchor="middle" x="1059.5" y="-74.5" font-family="Helvetica,sans-Serif" font-size="10.00" fill="#000000">_templates.h</text>
</g>
<!-- Node16&#45;&gt;Node18 -->
<g id="edge23" class="edge">
<title>Node16&#45;&gt;Node18</title>
<path fill="none" stroke="#191970" d="M941.375,-134.3906C961.2872,-125.6435 991.2691,-112.4728 1016.0438,-101.5897"/>
<polygon fill="#191970" stroke="#191970" points="1017.5043,-104.771 1025.2521,-97.5446 1014.6889,-98.3621 1017.5043,-104.771"/>
</g>
<!-- Node19 -->
<g id="node20" class="node">
<title>Node19</title>
<polygon fill="none" stroke="#bfbfbf" points="1141.5,-73 1141.5,-92 1267.5,-92 1267.5,-73 1141.5,-73"/>
<text text-anchor="middle" x="1204.5" y="-80" font-family="Helvetica,sans-Serif" font-size="10.00" fill="#000000">deal.II/lac/block_vector.h</text>
</g>
<!-- Node16&#45;&gt;Node19 -->
<g id="edge24" class="edge">
<title>Node16&#45;&gt;Node19</title>
<path fill="none" stroke="#191970" d="M963.7185,-134.4581C1013.9527,-123.6181 1095.9573,-105.9224 1150.0772,-94.2439"/>
<polygon fill="#191970" stroke="#191970" points="1151.141,-97.595 1160.1777,-92.0643 1149.6644,-90.7524 1151.141,-97.595"/>
</g>
<!-- Node20 -->
<g id="node21" class="node">
<title>Node20</title>
<polygon fill="none" stroke="#bfbfbf" points="1285.5,-73 1285.5,-92 1401.5,-92 1401.5,-73 1285.5,-73"/>
<text text-anchor="middle" x="1343.5" y="-80" font-family="Helvetica,sans-Serif" font-size="10.00" fill="#000000">deal.II/lac/full_matrix.h</text>
</g>
<!-- Node16&#45;&gt;Node20 -->
<g id="edge25" class="edge">
<title>Node16&#45;&gt;Node20</title>
<path fill="none" stroke="#191970" d="M964.5443,-135.4326C967.5715,-134.9266 970.5778,-134.4437 973.5,-134 1107.5771,-113.6424 1142.9059,-121.3177 1276.5,-98 1282.6747,-96.9223 1289.1346,-95.6347 1295.5031,-94.2686"/>
<polygon fill="#191970" stroke="#191970" points="1296.3772,-97.6599 1305.3813,-92.0763 1294.8605,-90.8262 1296.3772,-97.6599"/>
</g>
<!-- Node21 -->
<g id="node22" class="node">
<title>Node21</title>
<polygon fill="none" stroke="#bfbfbf" points="1420,-67.5 1420,-97.5 1511,-97.5 1511,-67.5 1420,-67.5"/>
<text text-anchor="start" x="1428" y="-85.5" font-family="Helvetica,sans-Serif" font-size="10.00" fill="#000000">deal.II/lac/lapack</text>
<text text-anchor="middle" x="1465.5" y="-74.5" font-family="Helvetica,sans-Serif" font-size="10.00" fill="#000000">_full_matrix.h</text>
</g>
<!-- Node16&#45;&gt;Node21 -->
<g id="edge26" class="edge">
<title>Node16&#45;&gt;Node21</title>
<path fill="none" stroke="#191970" d="M964.5269,-135.3103C967.5583,-134.8338 970.5703,-134.3909 973.5,-134 1163.4611,-108.6523 1216.9473,-131.7957 1409.8479,-97.8754"/>
<polygon fill="#191970" stroke="#191970" points="1410.5096,-101.3127 1419.738,-96.1082 1409.2782,-94.4218 1410.5096,-101.3127"/>
</g>
<!-- Node22 -->
<g id="node23" class="node">
<title>Node22</title>
<polygon fill="none" stroke="#bfbfbf" points="1529,-67.5 1529,-97.5 1620,-97.5 1620,-67.5 1529,-67.5"/>
<text text-anchor="start" x="1537" y="-85.5" font-family="Helvetica,sans-Serif" font-size="10.00" fill="#000000">deal.II/lac/lapack</text>
<text text-anchor="middle" x="1574.5" y="-74.5" font-family="Helvetica,sans-Serif" font-size="10.00" fill="#000000">_templates.h</text>
</g>
<!-- Node16&#45;&gt;Node22 -->
<g id="edge28" class="edge">
<title>Node16&#45;&gt;Node22</title>
<path fill="none" stroke="#191970" d="M964.5197,-135.2544C967.5528,-134.7914 970.5672,-134.3668 973.5,-134 1211.9486,-104.1794 1278.6672,-138.874 1518.9037,-98.0441"/>
<polygon fill="#191970" stroke="#191970" points="1519.7358,-101.4523 1528.9947,-96.3023 1518.5451,-94.5543 1519.7358,-101.4523"/>
</g>
<!-- Node23 -->
<g id="node24" class="node">
<title>Node23</title>
<polygon fill="none" stroke="#bfbfbf" points="1638.5,-67.5 1638.5,-97.5 1730.5,-97.5 1730.5,-67.5 1638.5,-67.5"/>
<text text-anchor="start" x="1646.5" y="-85.5" font-family="Helvetica,sans-Serif" font-size="10.00" fill="#000000">deal.II/lac/sparse</text>
<text text-anchor="middle" x="1684.5" y="-74.5" font-family="Helvetica,sans-Serif" font-size="10.00" fill="#000000">_matrix.h</text>
</g>
<!-- Node16&#45;&gt;Node23 -->
<g id="edge29" class="edge">
<title>Node16&#45;&gt;Node23</title>
<path fill="none" stroke="#191970" d="M964.5151,-135.2173C967.5494,-134.7633 970.5652,-134.3508 973.5,-134 1260.1743,-99.7334 1339.6806,-144.8559 1628.5293,-97.9057"/>
<polygon fill="#191970" stroke="#191970" points="1629.1555,-101.3498 1638.4532,-96.27 1628.0171,-94.443 1629.1555,-101.3498"/>
</g>
<!-- Node24 -->
<g id="node25" class="node">
<title>Node24</title>
<polygon fill="none" stroke="#bfbfbf" points="1749,-73 1749,-92 1850,-92 1850,-73 1749,-73"/>
<text text-anchor="middle" x="1799.5" y="-80" font-family="Helvetica,sans-Serif" font-size="10.00" fill="#000000">deal.II/lac/utilities.h</text>
</g>
<!-- Node16&#45;&gt;Node24 -->
<g id="edge30" class="edge">
<title>Node16&#45;&gt;Node24</title>
<path fill="none" stroke="#191970" d="M964.512,-135.1906C967.547,-134.743 970.5639,-134.3393 973.5,-134 1312.0676,-94.8795 1402.501,-148.8926 1739.5,-98 1745.429,-97.1046 1751.6203,-95.8644 1757.6787,-94.472"/>
<polygon fill="#191970" stroke="#191970" points="1758.8009,-97.8006 1767.6792,-92.0189 1757.1332,-91.0021 1758.8009,-97.8006"/>
</g>
<!-- Node25 -->
<g id="node26" class="node">
<title>Node25</title>
<polygon fill="none" stroke="#bfbfbf" points="569.5,-73 569.5,-92 667.5,-92 667.5,-73 569.5,-73"/>
<text text-anchor="middle" x="618.5" y="-80" font-family="Helvetica,sans-Serif" font-size="10.00" fill="#000000">deal.II/lac/vector.h</text>
</g>
<!-- Node16&#45;&gt;Node25 -->
<g id="edge31" class="edge">
<title>Node16&#45;&gt;Node25</title>
<path fill="none" stroke="#191970" d="M874.1774,-135.9414C826.1894,-127.2451 748.2964,-112.6624 681.5,-98 676.4719,-96.8963 671.2311,-95.6926 666.0139,-94.4599"/>
<polygon fill="#191970" stroke="#191970" points="666.6129,-91.0043 656.0721,-92.0721 664.9781,-97.8108 666.6129,-91.0043"/>
</g>
<!-- Node26 -->
<g id="node27" class="node">
<title>Node26</title>
<g id="a_node27"><a xlink:href="lapack__templates__ext_8h.html" target="_top" xlink:title="Append more template based LAPACK functions to those existing in deal.ii. ">
<polygon fill="none" stroke="#000000" points="723.5,-73 723.5,-92 843.5,-92 843.5,-73 723.5,-73"/>
<text text-anchor="middle" x="783.5" y="-80" font-family="Helvetica,sans-Serif" font-size="10.00" fill="#000000">lapack_templates_ext.h</text>
</a>
</g>
</g>
<!-- Node16&#45;&gt;Node26 -->
<g id="edge32" class="edge">
<title>Node16&#45;&gt;Node26</title>
<path fill="none" stroke="#191970" d="M898.25,-134.3906C875.5945,-124.1457 839.5202,-107.8326 813.8709,-96.2339"/>
<polygon fill="#191970" stroke="#191970" points="815.1546,-92.9732 804.6008,-92.0419 812.2703,-99.3514 815.1546,-92.9732"/>
</g>
<!-- Node26&#45;&gt;Node5 -->
<g id="edge33" class="edge">
<title>Node26&#45;&gt;Node5</title>
<path fill="none" stroke="#191970" d="M770.8917,-72.9005C758.5078,-63.4718 739.2012,-48.7725 723.226,-36.6096"/>
<polygon fill="#191970" stroke="#191970" points="725.3067,-33.7948 715.2301,-30.5218 721.0663,-39.3643 725.3067,-33.7948"/>
</g>
</g>
</svg>
