<?xml version="1.0" encoding="UTF-8" standalone="no"?>
<!DOCTYPE svg PUBLIC "-//W3C//DTD SVG 1.1//EN"
 "http://www.w3.org/Graphics/SVG/1.1/DTD/svg11.dtd">
<!-- Generated by graphviz version 2.40.1 (20161225.0304)
 -->
<!-- Title: /home/jihuan/Projects/deal.ii/program/dealii&#45;9.1.1/examples/laplace&#45;bem/tests/lapack&#45;matrix&#45;agglomeration&#45;interwoven&#45;indices/lapack&#45;matrix&#45;agglomeration&#45;interwoven&#45;indices.cc Pages: 1 -->
<!--zoomable 351 -->
<svg id="main" version="1.1" xmlns="http://www.w3.org/2000/svg" xmlns:xlink="http://www.w3.org/1999/xlink" xml:space="preserve" onload="init(evt)">
<style type="text/css"><![CDATA[
.edge:hover path { stroke: red; }
.edge:hover polygon { stroke: red; fill: red; }
]]></style>
<script type="text/javascript"><![CDATA[
var edges = document.getElementsByTagName('g');
if (edges && edges.length) {
  for (var i=0;i<edges.length;i++) {
    if (edges[i].id.substr(0,4)=='edge') {
      edges[i].setAttribute('class','edge');
    }
  }
}
]]></script>
        <defs>
                <circle id="rim" cx="0" cy="0" r="7"/>
                <circle id="rim2" cx="0" cy="0" r="3.5"/>
                <g id="zoomPlus">
                        <use xlink:href="#rim" fill="#404040">
                                <set attributeName="fill" to="#808080" begin="zoomplus.mouseover" end="zoomplus.mouseout"/>
                        </use>
                        <path d="M-4,0h8M0,-4v8" fill="none" stroke="white" stroke-width="1.5" pointer-events="none"/>
                </g>
                <g id="zoomMin">
                        <use xlink:href="#rim" fill="#404040">
                                <set attributeName="fill" to="#808080" begin="zoomminus.mouseover" end="zoomminus.mouseout"/>
                        </use>
                        <path d="M-4,0h8" fill="none" stroke="white" stroke-width="1.5" pointer-events="none"/>
                </g>
                <g id="dirArrow">
                        <path fill="none" stroke="white" stroke-width="1.5" d="M0,-3.0v7 M-2.5,-0.5L0,-3.0L2.5,-0.5"/>
                </g>
               <g id="resetDef">
                       <use xlink:href="#rim2" fill="#404040">
                               <set attributeName="fill" to="#808080" begin="reset.mouseover" end="reset.mouseout"/>
                       </use>
               </g>
        </defs>

<script type="text/javascript">
var viewWidth = 1709;
var viewHeight = 351;
var sectionId = 'dynsection-0';
</script>
<script xlink:href="svgpan.js"/>
<svg id="graph" class="graph">
<g id="viewport">
<title>/home/jihuan/Projects/deal.ii/program/dealii&#45;9.1.1/examples/laplace&#45;bem/tests/lapack&#45;matrix&#45;agglomeration&#45;interwoven&#45;indices/lapack&#45;matrix&#45;agglomeration&#45;interwoven&#45;indices.cc</title>
<!-- Node0 -->
<g id="node1" class="node">
<title>Node0</title>
<polygon fill="#bfbfbf" stroke="#000000" points="190.5,-257.5 190.5,-342.5 366.5,-342.5 366.5,-257.5 190.5,-257.5"/>
<text text-anchor="start" x="198.5" y="-330.5" font-family="Helvetica,sans-Serif" font-size="10.00" fill="#000000">/home/jihuan/Projects</text>
<text text-anchor="start" x="198.5" y="-319.5" font-family="Helvetica,sans-Serif" font-size="10.00" fill="#000000">/deal.ii/program/dealii</text>
<text text-anchor="start" x="198.5" y="-308.5" font-family="Helvetica,sans-Serif" font-size="10.00" fill="#000000">&#45;9.1.1/examples/laplace</text>
<text text-anchor="start" x="198.5" y="-297.5" font-family="Helvetica,sans-Serif" font-size="10.00" fill="#000000">&#45;bem/tests/lapack&#45;matrix</text>
<text text-anchor="start" x="198.5" y="-286.5" font-family="Helvetica,sans-Serif" font-size="10.00" fill="#000000">&#45;agglomeration&#45;interwoven</text>
<text text-anchor="start" x="198.5" y="-275.5" font-family="Helvetica,sans-Serif" font-size="10.00" fill="#000000">&#45;indices/lapack&#45;matrix&#45;agglomeration</text>
<text text-anchor="middle" x="278.5" y="-264.5" font-family="Helvetica,sans-Serif" font-size="10.00" fill="#000000">&#45;interwoven&#45;indices.cc</text>
</g>
<!-- Node1 -->
<g id="node2" class="node">
<title>Node1</title>
<polygon fill="none" stroke="#bfbfbf" points="0,-73 0,-92 103,-92 103,-73 0,-73"/>
<text text-anchor="middle" x="51.5" y="-80" font-family="Helvetica,sans-Serif" font-size="10.00" fill="#000000">deal.II/base/types.h</text>
</g>
<!-- Node0&#45;&gt;Node1 -->
<g id="edge1" class="edge">
<title>Node0&#45;&gt;Node1</title>
<path fill="none" stroke="#191970" d="M194.4424,-257.3984C152.7192,-232.4072 104.6988,-197.2228 73.5,-154 62.3678,-138.5774 56.7725,-117.4004 54.0224,-102.1004"/>
<polygon fill="#191970" stroke="#191970" points="57.473,-101.5115 52.4842,-92.1647 50.5554,-102.5825 57.473,-101.5115"/>
</g>
<!-- Node2 -->
<g id="node3" class="node">
<title>Node2</title>
<polygon fill="none" stroke="#bfbfbf" points="393.5,-196 393.5,-215 447.5,-215 447.5,-196 393.5,-196"/>
<text text-anchor="middle" x="420.5" y="-203" font-family="Helvetica,sans-Serif" font-size="10.00" fill="#000000">iostream</text>
</g>
<!-- Node0&#45;&gt;Node2 -->
<g id="edge2" class="edge">
<title>Node0&#45;&gt;Node2</title>
<path fill="none" stroke="#191970" d="M342.4381,-257.4496C362.0678,-244.3862 382.4247,-230.8388 397.4268,-220.855"/>
<polygon fill="#191970" stroke="#191970" points="399.6355,-223.5894 406.0214,-215.1354 395.7573,-217.7619 399.6355,-223.5894"/>
</g>
<!-- Node3 -->
<g id="node4" class="node">
<title>Node3</title>
<g id="a_node4"><a xlink:href="generic__functors_8h.html" target="_top" xlink:title="This header file contains a set of self&#45;defined generic functors. ">
<polygon fill="none" stroke="#000000" points="83,-134.5 83,-153.5 180,-153.5 180,-134.5 83,-134.5"/>
<text text-anchor="middle" x="131.5" y="-141.5" font-family="Helvetica,sans-Serif" font-size="10.00" fill="#000000">generic_functors.h</text>
</a>
</g>
</g>
<!-- Node0&#45;&gt;Node3 -->
<g id="edge3" class="edge">
<title>Node0&#45;&gt;Node3</title>
<path fill="none" stroke="#191970" d="M238.3316,-257.3723C208.371,-225.5774 169.0359,-183.834 147.4294,-160.9047"/>
<polygon fill="#191970" stroke="#191970" points="149.9761,-158.5037 140.5707,-153.6261 144.8815,-163.3043 149.9761,-158.5037"/>
</g>
<!-- Node8 -->
<g id="node9" class="node">
<title>Node8</title>
<g id="a_node9"><a xlink:href="lapack__full__matrix__ext_8h_source.html" target="_top" xlink:title="lapack_full_matrix\l_ext.h">
<polygon fill="none" stroke="#000000" points="280,-190.5 280,-220.5 375,-220.5 375,-190.5 280,-190.5"/>
<text text-anchor="start" x="288" y="-208.5" font-family="Helvetica,sans-Serif" font-size="10.00" fill="#000000">lapack_full_matrix</text>
<text text-anchor="middle" x="327.5" y="-197.5" font-family="Helvetica,sans-Serif" font-size="10.00" fill="#000000">_ext.h</text>
</a>
</g>
</g>
<!-- Node0&#45;&gt;Node8 -->
<g id="edge9" class="edge">
<title>Node0&#45;&gt;Node8</title>
<path fill="none" stroke="#191970" d="M300.5632,-257.4496C305.5094,-247.9104 310.5895,-238.1131 314.9862,-229.6338"/>
<polygon fill="#191970" stroke="#191970" points="318.1202,-231.1931 319.6163,-220.7044 311.9059,-227.9708 318.1202,-231.1931"/>
</g>
<!-- Node3&#45;&gt;Node1 -->
<g id="edge5" class="edge">
<title>Node3&#45;&gt;Node1</title>
<path fill="none" stroke="#191970" d="M119,-134.3906C106.4364,-124.7324 86.8577,-109.6812 72.0151,-98.271"/>
<polygon fill="#191970" stroke="#191970" points="73.9735,-95.3618 63.9122,-92.0419 69.7072,-100.9115 73.9735,-95.3618"/>
</g>
<!-- Node4 -->
<g id="node5" class="node">
<title>Node4</title>
<polygon fill="none" stroke="#bfbfbf" points="275.5,-73 275.5,-92 401.5,-92 401.5,-73 275.5,-73"/>
<text text-anchor="middle" x="338.5" y="-80" font-family="Helvetica,sans-Serif" font-size="10.00" fill="#000000">deal.II/base/exceptions.h</text>
</g>
<!-- Node3&#45;&gt;Node4 -->
<g id="edge4" class="edge">
<title>Node3&#45;&gt;Node4</title>
<path fill="none" stroke="#191970" d="M163.8438,-134.3906C199.618,-123.7621 257.3747,-106.6025 296.5905,-94.9514"/>
<polygon fill="#191970" stroke="#191970" points="297.7943,-98.245 306.3834,-92.0419 295.8007,-91.5349 297.7943,-98.245"/>
</g>
<!-- Node5 -->
<g id="node6" class="node">
<title>Node5</title>
<polygon fill="none" stroke="#bfbfbf" points="434,-.5 434,-30.5 525,-30.5 525,-.5 434,-.5"/>
<text text-anchor="start" x="442" y="-18.5" font-family="Helvetica,sans-Serif" font-size="10.00" fill="#000000">deal.II/lac/lapack</text>
<text text-anchor="middle" x="479.5" y="-7.5" font-family="Helvetica,sans-Serif" font-size="10.00" fill="#000000">_support.h</text>
</g>
<!-- Node3&#45;&gt;Node5 -->
<g id="edge6" class="edge">
<title>Node3&#45;&gt;Node5</title>
<path fill="none" stroke="#191970" d="M130.771,-134.2906C130.1172,-117.8203 131.4205,-84.4941 150.5,-67 189.4633,-31.2744 340.6455,-20.3098 423.8378,-16.9607"/>
<polygon fill="#191970" stroke="#191970" points="424.0192,-20.4564 433.8795,-16.5801 423.7541,-13.4614 424.0192,-20.4564"/>
</g>
<!-- Node6 -->
<g id="node7" class="node">
<title>Node6</title>
<polygon fill="none" stroke="#bfbfbf" points="160,-73 160,-92 195,-92 195,-73 160,-73"/>
<text text-anchor="middle" x="177.5" y="-80" font-family="Helvetica,sans-Serif" font-size="10.00" fill="#000000">map</text>
</g>
<!-- Node3&#45;&gt;Node6 -->
<g id="edge7" class="edge">
<title>Node3&#45;&gt;Node6</title>
<path fill="none" stroke="#191970" d="M138.6875,-134.3906C145.4666,-125.3273 155.7978,-111.5149 164.0973,-100.4188"/>
<polygon fill="#191970" stroke="#191970" points="167.0243,-102.349 170.2112,-92.2449 161.4188,-98.1563 167.0243,-102.349"/>
</g>
<!-- Node7 -->
<g id="node8" class="node">
<title>Node7</title>
<polygon fill="none" stroke="#bfbfbf" points="213.5,-73 213.5,-92 257.5,-92 257.5,-73 213.5,-73"/>
<text text-anchor="middle" x="235.5" y="-80" font-family="Helvetica,sans-Serif" font-size="10.00" fill="#000000">vector</text>
</g>
<!-- Node3&#45;&gt;Node7 -->
<g id="edge8" class="edge">
<title>Node3&#45;&gt;Node7</title>
<path fill="none" stroke="#191970" d="M147.75,-134.3906C164.6169,-124.4165 191.2099,-108.6908 210.7035,-97.1633"/>
<polygon fill="#191970" stroke="#191970" points="212.538,-100.1447 219.3641,-92.0419 208.9749,-94.1194 212.538,-100.1447"/>
</g>
<!-- Node8&#45;&gt;Node3 -->
<g id="edge18" class="edge">
<title>Node8&#45;&gt;Node3</title>
<path fill="none" stroke="#191970" d="M279.8036,-190.534C246.6754,-180.1392 203.025,-166.4428 171.6708,-156.6046"/>
<polygon fill="#191970" stroke="#191970" points="172.5411,-153.2095 161.9519,-153.5551 170.4454,-159.8884 172.5411,-153.2095"/>
</g>
<!-- Node8&#45;&gt;Node6 -->
<g id="edge11" class="edge">
<title>Node8&#45;&gt;Node6</title>
<path fill="none" stroke="#191970" d="M287.7605,-190.3929C268.2233,-181.6972 245.1476,-169.4176 227.5,-154 210.3072,-138.9798 196.0278,-116.8623 187.1905,-101.2109"/>
<polygon fill="#191970" stroke="#191970" points="190.2645,-99.5373 182.414,-92.4225 184.1142,-102.88 190.2645,-99.5373"/>
</g>
<!-- Node8&#45;&gt;Node7 -->
<g id="edge15" class="edge">
<title>Node8&#45;&gt;Node7</title>
<path fill="none" stroke="#191970" d="M342.1006,-190.3916C354.863,-175.289 369.6089,-151.8124 357.5,-134 333.0476,-98.0301 306.211,-115.7424 266.5,-98 265.4836,-97.5459 264.4523,-97.0765 263.4134,-96.5964"/>
<polygon fill="#191970" stroke="#191970" points="264.5923,-93.28 254.0623,-92.1092 261.5639,-99.591 264.5923,-93.28"/>
</g>
<!-- Node9 -->
<g id="node10" class="node">
<title>Node9</title>
<polygon fill="none" stroke="#bfbfbf" points="532.5,-134.5 532.5,-153.5 572.5,-153.5 572.5,-134.5 532.5,-134.5"/>
<text text-anchor="middle" x="552.5" y="-141.5" font-family="Helvetica,sans-Serif" font-size="10.00" fill="#000000">limits</text>
</g>
<!-- Node8&#45;&gt;Node9 -->
<g id="edge10" class="edge">
<title>Node8&#45;&gt;Node9</title>
<path fill="none" stroke="#191970" d="M375.0742,-192.517C378.263,-191.661 381.4273,-190.8156 384.5,-190 443.1683,-174.4265 460.7066,-172.5704 522.4197,-154.167"/>
<polygon fill="#191970" stroke="#191970" points="523.7176,-157.4315 532.2845,-151.1979 521.7001,-150.7286 523.7176,-157.4315"/>
</g>
<!-- Node10 -->
<g id="node11" class="node">
<title>Node10</title>
<polygon fill="none" stroke="#bfbfbf" points="1091,-134.5 1091,-153.5 1132,-153.5 1132,-134.5 1091,-134.5"/>
<text text-anchor="middle" x="1111.5" y="-141.5" font-family="Helvetica,sans-Serif" font-size="10.00" fill="#000000">regex</text>
</g>
<!-- Node8&#45;&gt;Node10 -->
<g id="edge12" class="edge">
<title>Node8&#45;&gt;Node10</title>
<path fill="none" stroke="#191970" d="M375.2322,-191.7245C378.3533,-191.0705 381.462,-190.4858 384.5,-190 687.5094,-141.5491 774.8275,-210.068 1080.6691,-153.6126"/>
<polygon fill="#191970" stroke="#191970" points="1081.527,-157.0128 1090.7102,-151.729 1080.2363,-150.1329 1081.527,-157.0128"/>
</g>
<!-- Node11 -->
<g id="node12" class="node">
<title>Node11</title>
<polygon fill="none" stroke="#bfbfbf" points="236.5,-134.5 236.5,-153.5 288.5,-153.5 288.5,-134.5 236.5,-134.5"/>
<text text-anchor="middle" x="262.5" y="-141.5" font-family="Helvetica,sans-Serif" font-size="10.00" fill="#000000">sstream</text>
</g>
<!-- Node8&#45;&gt;Node11 -->
<g id="edge13" class="edge">
<title>Node8&#45;&gt;Node11</title>
<path fill="none" stroke="#191970" d="M311.4326,-190.2977C302.034,-181.4052 290.1473,-170.1586 280.443,-160.9769"/>
<polygon fill="#191970" stroke="#191970" points="282.5768,-158.1774 272.9073,-153.8469 277.7658,-163.2621 282.5768,-158.1774"/>
</g>
<!-- Node12 -->
<g id="node13" class="node">
<title>Node12</title>
<polygon fill="none" stroke="#bfbfbf" points="307,-134.5 307,-153.5 348,-153.5 348,-134.5 307,-134.5"/>
<text text-anchor="middle" x="327.5" y="-141.5" font-family="Helvetica,sans-Serif" font-size="10.00" fill="#000000">string</text>
</g>
<!-- Node8&#45;&gt;Node12 -->
<g id="edge14" class="edge">
<title>Node8&#45;&gt;Node12</title>
<path fill="none" stroke="#191970" d="M327.5,-190.2977C327.5,-182.3834 327.5,-172.6043 327.5,-164.0759"/>
<polygon fill="#191970" stroke="#191970" points="331.0001,-163.8469 327.5,-153.8469 324.0001,-163.847 331.0001,-163.8469"/>
</g>
<!-- Node13 -->
<g id="node14" class="node">
<title>Node13</title>
<g id="a_node14"><a xlink:href="general__exceptions_8h.html" target="_top" xlink:title="Definition of self&#45;defined general exceptions. ">
<polygon fill="none" stroke="#000000" points="405,-134.5 405,-153.5 514,-153.5 514,-134.5 405,-134.5"/>
<text text-anchor="middle" x="459.5" y="-141.5" font-family="Helvetica,sans-Serif" font-size="10.00" fill="#000000">general_exceptions.h</text>
</a>
</g>
</g>
<!-- Node8&#45;&gt;Node13 -->
<g id="edge16" class="edge">
<title>Node8&#45;&gt;Node13</title>
<path fill="none" stroke="#191970" d="M359.7908,-190.4554C381.1392,-180.509 408.9196,-167.5659 429.7333,-157.8686"/>
<polygon fill="#191970" stroke="#191970" points="431.4584,-160.9262 439.0447,-153.5303 428.5021,-154.581 431.4584,-160.9262"/>
</g>
<!-- Node14 -->
<g id="node15" class="node">
<title>Node14</title>
<g id="a_node15"><a xlink:href="lapack__helpers_8h.html" target="_top" xlink:title="Exposes LAPACK helper functions defined in lapack_full_matrix.cc and define new ones by following the...">
<polygon fill="none" stroke="#000000" points="982.5,-134.5 982.5,-153.5 1072.5,-153.5 1072.5,-134.5 982.5,-134.5"/>
<text text-anchor="middle" x="1027.5" y="-141.5" font-family="Helvetica,sans-Serif" font-size="10.00" fill="#000000">lapack_helpers.h</text>
</a>
</g>
</g>
<!-- Node8&#45;&gt;Node14 -->
<g id="edge19" class="edge">
<title>Node8&#45;&gt;Node14</title>
<path fill="none" stroke="#191970" d="M375.2438,-191.7948C378.3621,-191.1236 381.467,-190.5158 384.5,-190 496.8704,-170.8885 837.5044,-153.0675 972.0117,-146.5828"/>
<polygon fill="#191970" stroke="#191970" points="972.2761,-150.0743 982.097,-146.0993 971.9408,-143.0823 972.2761,-150.0743"/>
</g>
<!-- Node13&#45;&gt;Node4 -->
<g id="edge17" class="edge">
<title>Node13&#45;&gt;Node4</title>
<path fill="none" stroke="#191970" d="M440.5938,-134.3906C420.7034,-124.2811 389.1877,-108.2628 366.4308,-96.6962"/>
<polygon fill="#191970" stroke="#191970" points="367.774,-93.4528 357.2735,-92.0419 364.6022,-99.693 367.774,-93.4528"/>
</g>
<!-- Node14&#45;&gt;Node5 -->
<g id="edge25" class="edge">
<title>Node14&#45;&gt;Node5</title>
<path fill="none" stroke="#191970" d="M1072.5119,-135.752C1075.8907,-135.1525 1079.2486,-134.5628 1082.5,-134 1182.7952,-116.6401 1371.1874,-141.1901 1301.5,-67 1275.2564,-39.0607 716.0955,-21.79 535.3288,-16.9209"/>
<polygon fill="#191970" stroke="#191970" points="535.3257,-13.4197 525.2358,-16.6514 535.1388,-20.4172 535.3257,-13.4197"/>
</g>
<!-- Node15 -->
<g id="node16" class="node">
<title>Node15</title>
<polygon fill="none" stroke="#bfbfbf" points="1584.5,-73 1584.5,-92 1700.5,-92 1700.5,-73 1584.5,-73"/>
<text text-anchor="middle" x="1642.5" y="-80" font-family="Helvetica,sans-Serif" font-size="10.00" fill="#000000">deal.II/base/numbers.h</text>
</g>
<!-- Node14&#45;&gt;Node15 -->
<g id="edge20" class="edge">
<title>Node14&#45;&gt;Node15</title>
<path fill="none" stroke="#191970" d="M1072.7613,-135.3746C1076.0509,-134.8694 1079.3228,-134.4037 1082.5,-134 1300.4426,-106.3103 1358.2763,-130.8565 1575.5,-98 1582.1624,-96.9923 1589.1435,-95.6755 1595.9791,-94.235"/>
<polygon fill="#191970" stroke="#191970" points="1596.8263,-97.6323 1605.8358,-92.0575 1595.3162,-90.7972 1596.8263,-97.6323"/>
</g>
<!-- Node16 -->
<g id="node17" class="node">
<title>Node16</title>
<polygon fill="none" stroke="#bfbfbf" points="557.5,-67.5 557.5,-97.5 685.5,-97.5 685.5,-67.5 557.5,-67.5"/>
<text text-anchor="start" x="565.5" y="-85.5" font-family="Helvetica,sans-Serif" font-size="10.00" fill="#000000">deal.II/lac/blas_extension</text>
<text text-anchor="middle" x="621.5" y="-74.5" font-family="Helvetica,sans-Serif" font-size="10.00" fill="#000000">_templates.h</text>
</g>
<!-- Node14&#45;&gt;Node16 -->
<g id="edge21" class="edge">
<title>Node14&#45;&gt;Node16</title>
<path fill="none" stroke="#191970" d="M982.3657,-138.8105C920.1312,-131.4249 804.2591,-116.8496 695.6885,-98.1353"/>
<polygon fill="#191970" stroke="#191970" points="695.9954,-94.6362 685.5434,-96.3706 694.7957,-101.5326 695.9954,-94.6362"/>
</g>
<!-- Node17 -->
<g id="node18" class="node">
<title>Node17</title>
<polygon fill="none" stroke="#bfbfbf" points="703.5,-73 703.5,-92 829.5,-92 829.5,-73 703.5,-73"/>
<text text-anchor="middle" x="766.5" y="-80" font-family="Helvetica,sans-Serif" font-size="10.00" fill="#000000">deal.II/lac/block_vector.h</text>
</g>
<!-- Node14&#45;&gt;Node17 -->
<g id="edge22" class="edge">
<title>Node14&#45;&gt;Node17</title>
<path fill="none" stroke="#191970" d="M987.0051,-134.4581C941.1925,-123.6632 866.5263,-106.0694 816.9594,-94.3899"/>
<polygon fill="#191970" stroke="#191970" points="817.6261,-90.9512 807.0899,-92.0643 816.0206,-97.7646 817.6261,-90.9512"/>
</g>
<!-- Node18 -->
<g id="node19" class="node">
<title>Node18</title>
<polygon fill="none" stroke="#bfbfbf" points="847.5,-73 847.5,-92 963.5,-92 963.5,-73 847.5,-73"/>
<text text-anchor="middle" x="905.5" y="-80" font-family="Helvetica,sans-Serif" font-size="10.00" fill="#000000">deal.II/lac/full_matrix.h</text>
</g>
<!-- Node14&#45;&gt;Node18 -->
<g id="edge23" class="edge">
<title>Node14&#45;&gt;Node18</title>
<path fill="none" stroke="#191970" d="M1008.4375,-134.3906C988.3828,-124.2811 956.6066,-108.2628 933.6616,-96.6962"/>
<polygon fill="#191970" stroke="#191970" points="934.9337,-93.418 924.4286,-92.0419 931.7827,-99.6687 934.9337,-93.418"/>
</g>
<!-- Node19 -->
<g id="node20" class="node">
<title>Node19</title>
<polygon fill="none" stroke="#bfbfbf" points="982,-67.5 982,-97.5 1073,-97.5 1073,-67.5 982,-67.5"/>
<text text-anchor="start" x="990" y="-85.5" font-family="Helvetica,sans-Serif" font-size="10.00" fill="#000000">deal.II/lac/lapack</text>
<text text-anchor="middle" x="1027.5" y="-74.5" font-family="Helvetica,sans-Serif" font-size="10.00" fill="#000000">_full_matrix.h</text>
</g>
<!-- Node14&#45;&gt;Node19 -->
<g id="edge24" class="edge">
<title>Node14&#45;&gt;Node19</title>
<path fill="none" stroke="#191970" d="M1027.5,-134.3906C1027.5,-127.2234 1027.5,-117.0862 1027.5,-107.671"/>
<polygon fill="#191970" stroke="#191970" points="1031.0001,-107.5446 1027.5,-97.5446 1024.0001,-107.5446 1031.0001,-107.5446"/>
</g>
<!-- Node20 -->
<g id="node21" class="node">
<title>Node20</title>
<polygon fill="none" stroke="#bfbfbf" points="1091,-67.5 1091,-97.5 1182,-97.5 1182,-67.5 1091,-67.5"/>
<text text-anchor="start" x="1099" y="-85.5" font-family="Helvetica,sans-Serif" font-size="10.00" fill="#000000">deal.II/lac/lapack</text>
<text text-anchor="middle" x="1136.5" y="-74.5" font-family="Helvetica,sans-Serif" font-size="10.00" fill="#000000">_templates.h</text>
</g>
<!-- Node14&#45;&gt;Node20 -->
<g id="edge26" class="edge">
<title>Node14&#45;&gt;Node20</title>
<path fill="none" stroke="#191970" d="M1044.5313,-134.3906C1059.5563,-125.9132 1081.9452,-113.2809 1100.8706,-102.6028"/>
<polygon fill="#191970" stroke="#191970" points="1102.8462,-105.5069 1109.8356,-97.5446 1099.4063,-99.4104 1102.8462,-105.5069"/>
</g>
<!-- Node21 -->
<g id="node22" class="node">
<title>Node21</title>
<polygon fill="none" stroke="#bfbfbf" points="1200.5,-67.5 1200.5,-97.5 1292.5,-97.5 1292.5,-67.5 1200.5,-67.5"/>
<text text-anchor="start" x="1208.5" y="-85.5" font-family="Helvetica,sans-Serif" font-size="10.00" fill="#000000">deal.II/lac/sparse</text>
<text text-anchor="middle" x="1246.5" y="-74.5" font-family="Helvetica,sans-Serif" font-size="10.00" fill="#000000">_matrix.h</text>
</g>
<!-- Node14&#45;&gt;Node21 -->
<g id="edge27" class="edge">
<title>Node14&#45;&gt;Node21</title>
<path fill="none" stroke="#191970" d="M1061.4256,-134.4974C1092.5844,-125.7669 1140.3022,-112.3894 1190.5455,-98.2668"/>
<polygon fill="#191970" stroke="#191970" points="1191.6081,-101.6038 1200.2877,-95.5279 1189.7136,-94.865 1191.6081,-101.6038"/>
</g>
<!-- Node22 -->
<g id="node23" class="node">
<title>Node22</title>
<polygon fill="none" stroke="#bfbfbf" points="1349,-73 1349,-92 1450,-92 1450,-73 1349,-73"/>
<text text-anchor="middle" x="1399.5" y="-80" font-family="Helvetica,sans-Serif" font-size="10.00" fill="#000000">deal.II/lac/utilities.h</text>
</g>
<!-- Node14&#45;&gt;Node22 -->
<g id="edge28" class="edge">
<title>Node14&#45;&gt;Node22</title>
<path fill="none" stroke="#191970" d="M1072.7973,-135.6235C1076.0784,-135.0599 1079.3387,-134.513 1082.5,-134 1194.1762,-115.8774 1223.3563,-119.144 1334.5,-98 1340.2678,-96.9027 1346.2955,-95.6335 1352.2548,-94.3033"/>
<polygon fill="#191970" stroke="#191970" points="1353.1996,-97.6774 1362.1616,-92.0264 1351.6317,-90.8553 1353.1996,-97.6774"/>
</g>
<!-- Node23 -->
<g id="node24" class="node">
<title>Node23</title>
<polygon fill="none" stroke="#bfbfbf" points="1468.5,-73 1468.5,-92 1566.5,-92 1566.5,-73 1468.5,-73"/>
<text text-anchor="middle" x="1517.5" y="-80" font-family="Helvetica,sans-Serif" font-size="10.00" fill="#000000">deal.II/lac/vector.h</text>
</g>
<!-- Node14&#45;&gt;Node23 -->
<g id="edge29" class="edge">
<title>Node14&#45;&gt;Node23</title>
<path fill="none" stroke="#191970" d="M1072.772,-135.4552C1076.0591,-134.9311 1079.3275,-134.4391 1082.5,-134 1249.2285,-110.9245 1293.8468,-127.8308 1459.5,-98 1464.6882,-97.0657 1470.0903,-95.8956 1475.4193,-94.6192"/>
<polygon fill="#191970" stroke="#191970" points="1476.6658,-97.9142 1485.5016,-92.068 1474.9485,-91.1281 1476.6658,-97.9142"/>
</g>
<!-- Node24 -->
<g id="node25" class="node">
<title>Node24</title>
<g id="a_node25"><a xlink:href="lapack__templates__ext_8h.html" target="_top" xlink:title="Append more template based LAPACK functions to those existing in deal.ii. ">
<polygon fill="none" stroke="#000000" points="419.5,-73 419.5,-92 539.5,-92 539.5,-73 419.5,-73"/>
<text text-anchor="middle" x="479.5" y="-80" font-family="Helvetica,sans-Serif" font-size="10.00" fill="#000000">lapack_templates_ext.h</text>
</a>
</g>
</g>
<!-- Node14&#45;&gt;Node24 -->
<g id="edge30" class="edge">
<title>Node14&#45;&gt;Node24</title>
<path fill="none" stroke="#191970" d="M982.3552,-141.5552C897.1347,-136.5221 706.8943,-123.2943 548.5,-98 541.8204,-96.9333 534.8201,-95.6079 527.9464,-94.1844"/>
<polygon fill="#191970" stroke="#191970" points="528.5311,-90.7302 518.0185,-92.0476 527.0581,-97.5735 528.5311,-90.7302"/>
</g>
<!-- Node24&#45;&gt;Node5 -->
<g id="edge31" class="edge">
<title>Node24&#45;&gt;Node5</title>
<path fill="none" stroke="#191970" d="M479.5,-72.9005C479.5,-64.5099 479.5,-51.9451 479.5,-40.7085"/>
<polygon fill="#191970" stroke="#191970" points="483.0001,-40.5217 479.5,-30.5218 476.0001,-40.5218 483.0001,-40.5217"/>
</g>
</g>
</svg>
        <g id="navigator" transform="translate(0 0)" fill="#404254">
                <rect fill="#f2f5e9" fill-opacity="0.5" stroke="#606060" stroke-width=".5" x="0" y="0" width="60" height="60"/>
                <use id="zoomplus" xlink:href="#zoomPlus" x="17" y="9" onmousedown="handleZoom(evt,'in')"/>
                <use id="zoomminus" xlink:href="#zoomMin" x="42" y="9" onmousedown="handleZoom(evt,'out')"/>
                <use id="reset" xlink:href="#resetDef" x="30" y="36" onmousedown="handleReset()"/>
                <g id="arrowUp" xlink:href="#dirArrow" transform="translate(30 24)" onmousedown="handlePan(0,-1)">
                  <use xlink:href="#rim" fill="#404040">
                        <set attributeName="fill" to="#808080" begin="arrowUp.mouseover" end="arrowUp.mouseout"/>
                  </use>
                  <path fill="none" stroke="white" stroke-width="1.5" d="M0,-3.0v7 M-2.5,-0.5L0,-3.0L2.5,-0.5"/>
                </g>
                <g id="arrowRight" xlink:href="#dirArrow" transform="rotate(90) translate(36 -43)" onmousedown="handlePan(1,0)">
                  <use xlink:href="#rim" fill="#404040">
                        <set attributeName="fill" to="#808080" begin="arrowRight.mouseover" end="arrowRight.mouseout"/>
                  </use>
                  <path fill="none" stroke="white" stroke-width="1.5" d="M0,-3.0v7 M-2.5,-0.5L0,-3.0L2.5,-0.5"/>
                </g>
                <g id="arrowDown" xlink:href="#dirArrow" transform="rotate(180) translate(-30 -48)" onmousedown="handlePan(0,1)">
                  <use xlink:href="#rim" fill="#404040">
                        <set attributeName="fill" to="#808080" begin="arrowDown.mouseover" end="arrowDown.mouseout"/>
                  </use>
                  <path fill="none" stroke="white" stroke-width="1.5" d="M0,-3.0v7 M-2.5,-0.5L0,-3.0L2.5,-0.5"/>
                </g>
                <g id="arrowLeft" xlink:href="#dirArrow" transform="rotate(270) translate(-36 17)" onmousedown="handlePan(-1,0)">
                  <use xlink:href="#rim" fill="#404040">
                        <set attributeName="fill" to="#808080" begin="arrowLeft.mouseover" end="arrowLeft.mouseout"/>
                  </use>
                  <path fill="none" stroke="white" stroke-width="1.5" d="M0,-3.0v7 M-2.5,-0.5L0,-3.0L2.5,-0.5"/>
                </g>
        </g>
        <svg viewBox="0 0 15 15" width="100%" height="30px" preserveAspectRatio="xMaxYMin meet">
         <g id="arrow_out" transform="scale(0.3 0.3)">
          <a xlink:href="lapack-matrix-agglomeration-interwoven-indices_8cc__incl_org.svg" target="_base">
           <rect id="button" ry="5" rx="5" y="6" x="6" height="38" width="38"
                fill="#f2f5e9" fill-opacity="0.5" stroke="#606060" stroke-width="1.0"/>
           <path id="arrow"
             d="M 11.500037,31.436501 C 11.940474,20.09759 22.043105,11.32322 32.158766,21.979434 L 37.068811,17.246167 C 37.068811,17.246167 37.088388,32 37.088388,32 L 22.160133,31.978069 C 22.160133,31.978069 26.997745,27.140456 26.997745,27.140456 C 18.528582,18.264221 13.291696,25.230495 11.500037,31.436501 z"
             style="fill:#404040;"/>
          </a>
         </g>
        </svg>
</svg>
