<?xml version="1.0" encoding="UTF-8" standalone="no"?>
<!DOCTYPE svg PUBLIC "-//W3C//DTD SVG 1.1//EN"
 "http://www.w3.org/Graphics/SVG/1.1/DTD/svg11.dtd">
<!-- Generated by graphviz version 2.40.1 (20161225.0304)
 -->
<!-- Title: /home/jihuan/Projects/deal.ii/program/dealii&#45;9.1.1/examples/laplace&#45;bem/tests/lapack&#45;matrix&#45;agglomeration&#45;of&#45;two&#45;submatrices&#45;interwoven&#45;indices/lapack&#45;matrix&#45;agglomeration&#45;of&#45;two&#45;submatrices&#45;interwoven&#45;indices.cc Pages: 1 -->
<!--zoomable 362 -->
<svg id="main" version="1.1" xmlns="http://www.w3.org/2000/svg" xmlns:xlink="http://www.w3.org/1999/xlink" xml:space="preserve" onload="init(evt)">
<style type="text/css"><![CDATA[
.edge:hover path { stroke: red; }
.edge:hover polygon { stroke: red; fill: red; }
]]></style>
<script type="text/javascript"><![CDATA[
var edges = document.getElementsByTagName('g');
if (edges && edges.length) {
  for (var i=0;i<edges.length;i++) {
    if (edges[i].id.substr(0,4)=='edge') {
      edges[i].setAttribute('class','edge');
    }
  }
}
]]></script>
        <defs>
                <circle id="rim" cx="0" cy="0" r="7"/>
                <circle id="rim2" cx="0" cy="0" r="3.5"/>
                <g id="zoomPlus">
                        <use xlink:href="#rim" fill="#404040">
                                <set attributeName="fill" to="#808080" begin="zoomplus.mouseover" end="zoomplus.mouseout"/>
                        </use>
                        <path d="M-4,0h8M0,-4v8" fill="none" stroke="white" stroke-width="1.5" pointer-events="none"/>
                </g>
                <g id="zoomMin">
                        <use xlink:href="#rim" fill="#404040">
                                <set attributeName="fill" to="#808080" begin="zoomminus.mouseover" end="zoomminus.mouseout"/>
                        </use>
                        <path d="M-4,0h8" fill="none" stroke="white" stroke-width="1.5" pointer-events="none"/>
                </g>
                <g id="dirArrow">
                        <path fill="none" stroke="white" stroke-width="1.5" d="M0,-3.0v7 M-2.5,-0.5L0,-3.0L2.5,-0.5"/>
                </g>
               <g id="resetDef">
                       <use xlink:href="#rim2" fill="#404040">
                               <set attributeName="fill" to="#808080" begin="reset.mouseover" end="reset.mouseout"/>
                       </use>
               </g>
        </defs>

<script type="text/javascript">
var viewWidth = 1708;
var viewHeight = 362;
var sectionId = 'dynsection-0';
</script>
<script xlink:href="svgpan.js"/>
<svg id="graph" class="graph">
<g id="viewport">
<title>/home/jihuan/Projects/deal.ii/program/dealii&#45;9.1.1/examples/laplace&#45;bem/tests/lapack&#45;matrix&#45;agglomeration&#45;of&#45;two&#45;submatrices&#45;interwoven&#45;indices/lapack&#45;matrix&#45;agglomeration&#45;of&#45;two&#45;submatrices&#45;interwoven&#45;indices.cc</title>
<!-- Node0 -->
<g id="node1" class="node">
<title>Node0</title>
<polygon fill="#bfbfbf" stroke="#000000" points="98,-257.5 98,-353.5 265,-353.5 265,-257.5 98,-257.5"/>
<text text-anchor="start" x="106" y="-341.5" font-family="Helvetica,sans-Serif" font-size="10.00" fill="#000000">/home/jihuan/Projects</text>
<text text-anchor="start" x="106" y="-330.5" font-family="Helvetica,sans-Serif" font-size="10.00" fill="#000000">/deal.ii/program/dealii</text>
<text text-anchor="start" x="106" y="-319.5" font-family="Helvetica,sans-Serif" font-size="10.00" fill="#000000">&#45;9.1.1/examples/laplace</text>
<text text-anchor="start" x="106" y="-308.5" font-family="Helvetica,sans-Serif" font-size="10.00" fill="#000000">&#45;bem/tests/lapack&#45;matrix</text>
<text text-anchor="start" x="106" y="-297.5" font-family="Helvetica,sans-Serif" font-size="10.00" fill="#000000">&#45;agglomeration&#45;of&#45;two&#45;submatrices</text>
<text text-anchor="start" x="106" y="-286.5" font-family="Helvetica,sans-Serif" font-size="10.00" fill="#000000">&#45;interwoven&#45;indices/lapack&#45;matrix</text>
<text text-anchor="start" x="106" y="-275.5" font-family="Helvetica,sans-Serif" font-size="10.00" fill="#000000">&#45;agglomeration&#45;of&#45;two&#45;submatrices</text>
<text text-anchor="middle" x="181.5" y="-264.5" font-family="Helvetica,sans-Serif" font-size="10.00" fill="#000000">&#45;interwoven&#45;indices.cc</text>
</g>
<!-- Node1 -->
<g id="node2" class="node">
<title>Node1</title>
<polygon fill="none" stroke="#bfbfbf" points="99.5,-196 99.5,-215 153.5,-215 153.5,-196 99.5,-196"/>
<text text-anchor="middle" x="126.5" y="-203" font-family="Helvetica,sans-Serif" font-size="10.00" fill="#000000">iostream</text>
</g>
<!-- Node0&#45;&gt;Node1 -->
<g id="edge1" class="edge">
<title>Node0&#45;&gt;Node1</title>
<path fill="none" stroke="#191970" d="M154.9666,-257.2575C148.4425,-245.3955 141.8458,-233.4015 136.6477,-223.9503"/>
<polygon fill="#191970" stroke="#191970" points="139.6846,-222.2092 131.7986,-215.1338 133.5511,-225.5827 139.6846,-222.2092"/>
</g>
<!-- Node2 -->
<g id="node3" class="node">
<title>Node2</title>
<g id="a_node3"><a xlink:href="generic__functors_8h.html" target="_top" xlink:title="This header file contains a set of self&#45;defined generic functors. ">
<polygon fill="none" stroke="#000000" points="109,-134.5 109,-153.5 206,-153.5 206,-134.5 109,-134.5"/>
<text text-anchor="middle" x="157.5" y="-141.5" font-family="Helvetica,sans-Serif" font-size="10.00" fill="#000000">generic_functors.h</text>
</a>
</g>
</g>
<!-- Node0&#45;&gt;Node2 -->
<g id="edge2" class="edge">
<title>Node0&#45;&gt;Node2</title>
<path fill="none" stroke="#191970" d="M174.3642,-257.4819C169.7094,-226.1593 163.8793,-186.9272 160.4355,-163.7537"/>
<polygon fill="#191970" stroke="#191970" points="163.8843,-163.1496 158.9523,-153.7727 156.9603,-164.1786 163.8843,-163.1496"/>
</g>
<!-- Node8 -->
<g id="node9" class="node">
<title>Node8</title>
<g id="a_node9"><a xlink:href="lapack__full__matrix__ext_8h_source.html" target="_top" xlink:title="lapack_full_matrix\l_ext.h">
<polygon fill="none" stroke="#000000" points="264,-190.5 264,-220.5 359,-220.5 359,-190.5 264,-190.5"/>
<text text-anchor="start" x="272" y="-208.5" font-family="Helvetica,sans-Serif" font-size="10.00" fill="#000000">lapack_full_matrix</text>
<text text-anchor="middle" x="311.5" y="-197.5" font-family="Helvetica,sans-Serif" font-size="10.00" fill="#000000">_ext.h</text>
</a>
</g>
</g>
<!-- Node0&#45;&gt;Node8 -->
<g id="edge8" class="edge">
<title>Node0&#45;&gt;Node8</title>
<path fill="none" stroke="#191970" d="M244.2153,-257.2575C258.113,-246.5669 272.1502,-235.769 283.7813,-226.8221"/>
<polygon fill="#191970" stroke="#191970" points="285.9967,-229.5337 291.7889,-220.6624 281.7286,-223.9853 285.9967,-229.5337"/>
</g>
<!-- Node3 -->
<g id="node4" class="node">
<title>Node3</title>
<polygon fill="none" stroke="#bfbfbf" points="274.5,-73 274.5,-92 400.5,-92 400.5,-73 274.5,-73"/>
<text text-anchor="middle" x="337.5" y="-80" font-family="Helvetica,sans-Serif" font-size="10.00" fill="#000000">deal.II/base/exceptions.h</text>
</g>
<!-- Node2&#45;&gt;Node3 -->
<g id="edge3" class="edge">
<title>Node2&#45;&gt;Node3</title>
<path fill="none" stroke="#191970" d="M185.625,-134.3906C216.4028,-123.8749 265.8921,-106.966 299.9655,-95.3243"/>
<polygon fill="#191970" stroke="#191970" points="301.2412,-98.5871 309.5725,-92.0419 298.978,-91.9631 301.2412,-98.5871"/>
</g>
<!-- Node4 -->
<g id="node5" class="node">
<title>Node4</title>
<polygon fill="none" stroke="#bfbfbf" points="53,-73 53,-92 156,-92 156,-73 53,-73"/>
<text text-anchor="middle" x="104.5" y="-80" font-family="Helvetica,sans-Serif" font-size="10.00" fill="#000000">deal.II/base/types.h</text>
</g>
<!-- Node2&#45;&gt;Node4 -->
<g id="edge4" class="edge">
<title>Node2&#45;&gt;Node4</title>
<path fill="none" stroke="#191970" d="M149.2188,-134.3906C141.3307,-125.2376 129.2686,-111.2409 119.6588,-100.09"/>
<polygon fill="#191970" stroke="#191970" points="122.0775,-97.5352 112.898,-92.2449 116.7749,-102.1049 122.0775,-97.5352"/>
</g>
<!-- Node5 -->
<g id="node6" class="node">
<title>Node5</title>
<polygon fill="none" stroke="#bfbfbf" points="383,-.5 383,-30.5 474,-30.5 474,-.5 383,-.5"/>
<text text-anchor="start" x="391" y="-18.5" font-family="Helvetica,sans-Serif" font-size="10.00" fill="#000000">deal.II/lac/lapack</text>
<text text-anchor="middle" x="428.5" y="-7.5" font-family="Helvetica,sans-Serif" font-size="10.00" fill="#000000">_support.h</text>
</g>
<!-- Node2&#45;&gt;Node5 -->
<g id="edge5" class="edge">
<title>Node2&#45;&gt;Node5</title>
<path fill="none" stroke="#191970" d="M160.4117,-134.4944C165.9672,-118.0286 179.6957,-84.3069 203.5,-67 230.101,-47.6597 315.0923,-31.9481 372.6592,-23.1631"/>
<polygon fill="#191970" stroke="#191970" points="373.3424,-26.5999 382.7132,-21.6564 372.3048,-19.6772 373.3424,-26.5999"/>
</g>
<!-- Node6 -->
<g id="node7" class="node">
<title>Node6</title>
<polygon fill="none" stroke="#bfbfbf" points="0,-73 0,-92 35,-92 35,-73 0,-73"/>
<text text-anchor="middle" x="17.5" y="-80" font-family="Helvetica,sans-Serif" font-size="10.00" fill="#000000">map</text>
</g>
<!-- Node2&#45;&gt;Node6 -->
<g id="edge6" class="edge">
<title>Node2&#45;&gt;Node6</title>
<path fill="none" stroke="#191970" d="M130.2676,-134.3611C106.8438,-125.7535 72.3688,-112.3231 43.5,-98 42.8292,-97.6672 42.1525,-97.3234 41.4726,-96.9708"/>
<polygon fill="#191970" stroke="#191970" points="43.1201,-93.8823 32.6797,-92.0801 39.7175,-99.9997 43.1201,-93.8823"/>
</g>
<!-- Node7 -->
<g id="node8" class="node">
<title>Node7</title>
<polygon fill="none" stroke="#bfbfbf" points="212.5,-73 212.5,-92 256.5,-92 256.5,-73 212.5,-73"/>
<text text-anchor="middle" x="234.5" y="-80" font-family="Helvetica,sans-Serif" font-size="10.00" fill="#000000">vector</text>
</g>
<!-- Node2&#45;&gt;Node7 -->
<g id="edge7" class="edge">
<title>Node2&#45;&gt;Node7</title>
<path fill="none" stroke="#191970" d="M169.5313,-134.3906C181.5107,-124.8227 200.1166,-109.9621 214.3525,-98.5919"/>
<polygon fill="#191970" stroke="#191970" points="216.9239,-101.0175 222.5532,-92.0419 212.5553,-95.5479 216.9239,-101.0175"/>
</g>
<!-- Node8&#45;&gt;Node2 -->
<g id="edge17" class="edge">
<title>Node8&#45;&gt;Node2</title>
<path fill="none" stroke="#191970" d="M273.8274,-190.4554C248.4702,-180.329 215.3348,-167.0964 190.9174,-157.3453"/>
<polygon fill="#191970" stroke="#191970" points="191.9495,-153.9887 181.3645,-153.5303 189.3533,-160.4895 191.9495,-153.9887"/>
</g>
<!-- Node8&#45;&gt;Node6 -->
<g id="edge10" class="edge">
<title>Node8&#45;&gt;Node6</title>
<path fill="none" stroke="#191970" d="M263.7462,-200.4994C219.2173,-194.3462 151.9719,-181.1646 99.5,-154 73.218,-140.3939 48.3897,-116.6581 33.0813,-100.2897"/>
<polygon fill="#191970" stroke="#191970" points="35.3059,-97.5341 25.9864,-92.4943 30.1289,-102.2458 35.3059,-97.5341"/>
</g>
<!-- Node8&#45;&gt;Node7 -->
<g id="edge14" class="edge">
<title>Node8&#45;&gt;Node7</title>
<path fill="none" stroke="#191970" d="M288.706,-190.3217C276.59,-181.1469 262.4005,-168.4453 253.5,-154 243.8358,-138.3152 239.0365,-117.7602 236.6844,-102.7167"/>
<polygon fill="#191970" stroke="#191970" points="240.1084,-101.9115 235.3228,-92.4591 233.1692,-102.8327 240.1084,-101.9115"/>
</g>
<!-- Node9 -->
<g id="node10" class="node">
<title>Node9</title>
<polygon fill="none" stroke="#bfbfbf" points="262.5,-134.5 262.5,-153.5 302.5,-153.5 302.5,-134.5 262.5,-134.5"/>
<text text-anchor="middle" x="282.5" y="-141.5" font-family="Helvetica,sans-Serif" font-size="10.00" fill="#000000">limits</text>
</g>
<!-- Node8&#45;&gt;Node9 -->
<g id="edge9" class="edge">
<title>Node8&#45;&gt;Node9</title>
<path fill="none" stroke="#191970" d="M304.3315,-190.2977C300.4318,-182.0277 295.572,-171.7215 291.4282,-162.9339"/>
<polygon fill="#191970" stroke="#191970" points="294.5741,-161.399 287.1433,-153.8469 288.2427,-164.3846 294.5741,-161.399"/>
</g>
<!-- Node10 -->
<g id="node11" class="node">
<title>Node10</title>
<polygon fill="none" stroke="#bfbfbf" points="321,-134.5 321,-153.5 362,-153.5 362,-134.5 321,-134.5"/>
<text text-anchor="middle" x="341.5" y="-141.5" font-family="Helvetica,sans-Serif" font-size="10.00" fill="#000000">regex</text>
</g>
<!-- Node8&#45;&gt;Node10 -->
<g id="edge11" class="edge">
<title>Node8&#45;&gt;Node10</title>
<path fill="none" stroke="#191970" d="M318.9157,-190.2977C322.9499,-182.0277 327.9773,-171.7215 332.264,-162.9339"/>
<polygon fill="#191970" stroke="#191970" points="335.458,-164.3691 336.6966,-153.8469 329.1666,-161.3001 335.458,-164.3691"/>
</g>
<!-- Node11 -->
<g id="node12" class="node">
<title>Node11</title>
<polygon fill="none" stroke="#bfbfbf" points="380.5,-134.5 380.5,-153.5 432.5,-153.5 432.5,-134.5 380.5,-134.5"/>
<text text-anchor="middle" x="406.5" y="-141.5" font-family="Helvetica,sans-Serif" font-size="10.00" fill="#000000">sstream</text>
</g>
<!-- Node8&#45;&gt;Node11 -->
<g id="edge12" class="edge">
<title>Node8&#45;&gt;Node11</title>
<path fill="none" stroke="#191970" d="M334.9832,-190.2977C349.6348,-180.8127 368.4236,-168.6495 383.0659,-159.1705"/>
<polygon fill="#191970" stroke="#191970" points="385.0805,-162.0357 391.573,-153.6633 381.2764,-156.1596 385.0805,-162.0357"/>
</g>
<!-- Node12 -->
<g id="node13" class="node">
<title>Node12</title>
<polygon fill="none" stroke="#bfbfbf" points="451,-134.5 451,-153.5 492,-153.5 492,-134.5 451,-134.5"/>
<text text-anchor="middle" x="471.5" y="-141.5" font-family="Helvetica,sans-Serif" font-size="10.00" fill="#000000">string</text>
</g>
<!-- Node8&#45;&gt;Node12 -->
<g id="edge13" class="edge">
<title>Node8&#45;&gt;Node12</title>
<path fill="none" stroke="#191970" d="M350.6404,-190.4554C378.5728,-179.7189 415.5894,-165.4906 441.2634,-155.6222"/>
<polygon fill="#191970" stroke="#191970" points="442.7617,-158.796 450.8401,-151.9411 440.2502,-152.2621 442.7617,-158.796"/>
</g>
<!-- Node13 -->
<g id="node14" class="node">
<title>Node13</title>
<g id="a_node14"><a xlink:href="general__exceptions_8h.html" target="_top" xlink:title="Definition of self&#45;defined general exceptions. ">
<polygon fill="none" stroke="#000000" points="510,-134.5 510,-153.5 619,-153.5 619,-134.5 510,-134.5"/>
<text text-anchor="middle" x="564.5" y="-141.5" font-family="Helvetica,sans-Serif" font-size="10.00" fill="#000000">general_exceptions.h</text>
</a>
</g>
</g>
<!-- Node8&#45;&gt;Node13 -->
<g id="edge15" class="edge">
<title>Node8&#45;&gt;Node13</title>
<path fill="none" stroke="#191970" d="M359.0874,-193.9323C403.6678,-183.0956 470.0189,-166.9667 515.1593,-155.9939"/>
<polygon fill="#191970" stroke="#191970" points="516.1284,-159.3603 525.0187,-153.5972 514.4749,-152.5584 516.1284,-159.3603"/>
</g>
<!-- Node14 -->
<g id="node15" class="node">
<title>Node14</title>
<g id="a_node15"><a xlink:href="lapack__helpers_8h.html" target="_top" xlink:title="Exposes LAPACK helper functions defined in lapack_full_matrix.cc and define new ones by following the...">
<polygon fill="none" stroke="#000000" points="867.5,-134.5 867.5,-153.5 957.5,-153.5 957.5,-134.5 867.5,-134.5"/>
<text text-anchor="middle" x="912.5" y="-141.5" font-family="Helvetica,sans-Serif" font-size="10.00" fill="#000000">lapack_helpers.h</text>
</a>
</g>
</g>
<!-- Node8&#45;&gt;Node14 -->
<g id="edge18" class="edge">
<title>Node8&#45;&gt;Node14</title>
<path fill="none" stroke="#191970" d="M359.1618,-200.6228C469.1184,-189.371 740.0541,-161.6463 857.1327,-149.6657"/>
<polygon fill="#191970" stroke="#191970" points="857.7125,-153.1247 867.3042,-148.6249 856.9999,-146.1611 857.7125,-153.1247"/>
</g>
<!-- Node13&#45;&gt;Node3 -->
<g id="edge16" class="edge">
<title>Node13&#45;&gt;Node3</title>
<path fill="none" stroke="#191970" d="M529.0313,-134.3906C489.5507,-123.6944 425.6557,-106.3836 382.6395,-94.7294"/>
<polygon fill="#191970" stroke="#191970" points="383.287,-91.2787 372.7197,-92.0419 381.4565,-98.0352 383.287,-91.2787"/>
</g>
<!-- Node14&#45;&gt;Node5 -->
<g id="edge24" class="edge">
<title>Node14&#45;&gt;Node5</title>
<path fill="none" stroke="#191970" d="M867.3963,-142.4902C756.7573,-138.376 478.6389,-125.3949 447.5,-98 431.5413,-83.9601 427.5497,-59.455 427.0973,-40.789"/>
<polygon fill="#191970" stroke="#191970" points="430.5986,-40.6236 427.1763,-30.5968 423.5988,-40.5693 430.5986,-40.6236"/>
</g>
<!-- Node15 -->
<g id="node16" class="node">
<title>Node15</title>
<polygon fill="none" stroke="#bfbfbf" points="1293.5,-73 1293.5,-92 1409.5,-92 1409.5,-73 1293.5,-73"/>
<text text-anchor="middle" x="1351.5" y="-80" font-family="Helvetica,sans-Serif" font-size="10.00" fill="#000000">deal.II/base/numbers.h</text>
</g>
<!-- Node14&#45;&gt;Node15 -->
<g id="edge19" class="edge">
<title>Node14&#45;&gt;Node15</title>
<path fill="none" stroke="#191970" d="M957.6772,-139.948C1027.9114,-133.3037 1167.3953,-118.7278 1284.5,-98 1290.6721,-96.9075 1297.1305,-95.6112 1303.4982,-94.2407"/>
<polygon fill="#191970" stroke="#191970" points="1304.3738,-97.6316 1313.3757,-92.0445 1302.8544,-90.7985 1304.3738,-97.6316"/>
</g>
<!-- Node16 -->
<g id="node17" class="node">
<title>Node16</title>
<polygon fill="none" stroke="#bfbfbf" points="1427.5,-67.5 1427.5,-97.5 1555.5,-97.5 1555.5,-67.5 1427.5,-67.5"/>
<text text-anchor="start" x="1435.5" y="-85.5" font-family="Helvetica,sans-Serif" font-size="10.00" fill="#000000">deal.II/lac/blas_extension</text>
<text text-anchor="middle" x="1491.5" y="-74.5" font-family="Helvetica,sans-Serif" font-size="10.00" fill="#000000">_templates.h</text>
</g>
<!-- Node14&#45;&gt;Node16 -->
<g id="edge20" class="edge">
<title>Node14&#45;&gt;Node16</title>
<path fill="none" stroke="#191970" d="M957.7307,-141.6916C1044.8324,-136.8561 1242.0166,-124.0181 1417.5526,-98.029"/>
<polygon fill="#191970" stroke="#191970" points="1418.1134,-101.4842 1427.4843,-96.5409 1417.076,-94.5615 1418.1134,-101.4842"/>
</g>
<!-- Node17 -->
<g id="node18" class="node">
<title>Node17</title>
<polygon fill="none" stroke="#bfbfbf" points="1573.5,-73 1573.5,-92 1699.5,-92 1699.5,-73 1573.5,-73"/>
<text text-anchor="middle" x="1636.5" y="-80" font-family="Helvetica,sans-Serif" font-size="10.00" fill="#000000">deal.II/lac/block_vector.h</text>
</g>
<!-- Node14&#45;&gt;Node17 -->
<g id="edge21" class="edge">
<title>Node14&#45;&gt;Node17</title>
<path fill="none" stroke="#191970" d="M957.7889,-143.0096C1064.1721,-140.2037 1338.1231,-130.1875 1564.5,-98 1571.8937,-96.9487 1579.6614,-95.5703 1587.2476,-94.0688"/>
<polygon fill="#191970" stroke="#191970" points="1587.9834,-97.4908 1597.0692,-92.0412 1586.568,-90.6354 1587.9834,-97.4908"/>
</g>
<!-- Node18 -->
<g id="node19" class="node">
<title>Node18</title>
<polygon fill="none" stroke="#bfbfbf" points="456.5,-73 456.5,-92 572.5,-92 572.5,-73 456.5,-73"/>
<text text-anchor="middle" x="514.5" y="-80" font-family="Helvetica,sans-Serif" font-size="10.00" fill="#000000">deal.II/lac/full_matrix.h</text>
</g>
<!-- Node14&#45;&gt;Node18 -->
<g id="edge22" class="edge">
<title>Node14&#45;&gt;Node18</title>
<path fill="none" stroke="#191970" d="M867.323,-139.0171C803.4084,-131.6738 683.0522,-116.7645 581.5,-98 575.4133,-96.8753 569.0441,-95.5705 562.7564,-94.2046"/>
<polygon fill="#191970" stroke="#191970" points="563.5176,-90.7884 552.9952,-92.025 561.9921,-97.6202 563.5176,-90.7884"/>
</g>
<!-- Node19 -->
<g id="node20" class="node">
<title>Node19</title>
<polygon fill="none" stroke="#bfbfbf" points="591,-67.5 591,-97.5 682,-97.5 682,-67.5 591,-67.5"/>
<text text-anchor="start" x="599" y="-85.5" font-family="Helvetica,sans-Serif" font-size="10.00" fill="#000000">deal.II/lac/lapack</text>
<text text-anchor="middle" x="636.5" y="-74.5" font-family="Helvetica,sans-Serif" font-size="10.00" fill="#000000">_full_matrix.h</text>
</g>
<!-- Node14&#45;&gt;Node19 -->
<g id="edge23" class="edge">
<title>Node14&#45;&gt;Node19</title>
<path fill="none" stroke="#191970" d="M867.206,-135.6496C824.2937,-127.507 757.8527,-114.3037 691.8348,-98.2404"/>
<polygon fill="#191970" stroke="#191970" points="692.6466,-94.8359 682.1004,-95.85 690.9772,-101.6339 692.6466,-94.8359"/>
</g>
<!-- Node20 -->
<g id="node21" class="node">
<title>Node20</title>
<polygon fill="none" stroke="#bfbfbf" points="700,-67.5 700,-97.5 791,-97.5 791,-67.5 700,-67.5"/>
<text text-anchor="start" x="708" y="-85.5" font-family="Helvetica,sans-Serif" font-size="10.00" fill="#000000">deal.II/lac/lapack</text>
<text text-anchor="middle" x="745.5" y="-74.5" font-family="Helvetica,sans-Serif" font-size="10.00" fill="#000000">_templates.h</text>
</g>
<!-- Node14&#45;&gt;Node20 -->
<g id="edge25" class="edge">
<title>Node14&#45;&gt;Node20</title>
<path fill="none" stroke="#191970" d="M886.4063,-134.3906C862.2353,-125.4893 825.6255,-112.0073 795.7806,-101.0165"/>
<polygon fill="#191970" stroke="#191970" points="796.9462,-97.716 786.3528,-97.5446 794.5272,-104.2848 796.9462,-97.716"/>
</g>
<!-- Node21 -->
<g id="node22" class="node">
<title>Node21</title>
<polygon fill="none" stroke="#bfbfbf" points="809.5,-67.5 809.5,-97.5 901.5,-97.5 901.5,-67.5 809.5,-67.5"/>
<text text-anchor="start" x="817.5" y="-85.5" font-family="Helvetica,sans-Serif" font-size="10.00" fill="#000000">deal.II/lac/sparse</text>
<text text-anchor="middle" x="855.5" y="-74.5" font-family="Helvetica,sans-Serif" font-size="10.00" fill="#000000">_matrix.h</text>
</g>
<!-- Node14&#45;&gt;Node21 -->
<g id="edge26" class="edge">
<title>Node14&#45;&gt;Node21</title>
<path fill="none" stroke="#191970" d="M903.5938,-134.3906C896.3081,-126.5298 885.7113,-115.0964 876.3177,-104.9612"/>
<polygon fill="#191970" stroke="#191970" points="878.8085,-102.4997 869.4438,-97.5446 873.6744,-107.2581 878.8085,-102.4997"/>
</g>
<!-- Node22 -->
<g id="node23" class="node">
<title>Node22</title>
<polygon fill="none" stroke="#bfbfbf" points="920,-73 920,-92 1021,-92 1021,-73 920,-73"/>
<text text-anchor="middle" x="970.5" y="-80" font-family="Helvetica,sans-Serif" font-size="10.00" fill="#000000">deal.II/lac/utilities.h</text>
</g>
<!-- Node14&#45;&gt;Node22 -->
<g id="edge27" class="edge">
<title>Node14&#45;&gt;Node22</title>
<path fill="none" stroke="#191970" d="M921.5625,-134.3906C930.2793,-125.1478 943.654,-110.966 954.2196,-99.7628"/>
<polygon fill="#191970" stroke="#191970" points="956.995,-101.9213 961.3097,-92.2449 951.9024,-97.1186 956.995,-101.9213"/>
</g>
<!-- Node23 -->
<g id="node24" class="node">
<title>Node23</title>
<polygon fill="none" stroke="#bfbfbf" points="1039.5,-73 1039.5,-92 1137.5,-92 1137.5,-73 1039.5,-73"/>
<text text-anchor="middle" x="1088.5" y="-80" font-family="Helvetica,sans-Serif" font-size="10.00" fill="#000000">deal.II/lac/vector.h</text>
</g>
<!-- Node14&#45;&gt;Node23 -->
<g id="edge28" class="edge">
<title>Node14&#45;&gt;Node23</title>
<path fill="none" stroke="#191970" d="M940,-134.3906C969.9647,-123.92 1018.0683,-107.1111 1051.3698,-95.4745"/>
<polygon fill="#191970" stroke="#191970" points="1052.9074,-98.6448 1061.1931,-92.0419 1050.5983,-92.0366 1052.9074,-98.6448"/>
</g>
<!-- Node24 -->
<g id="node25" class="node">
<title>Node24</title>
<g id="a_node25"><a xlink:href="lapack__templates__ext_8h.html" target="_top" xlink:title="Append more template based LAPACK functions to those existing in deal.ii. ">
<polygon fill="none" stroke="#000000" points="1155.5,-73 1155.5,-92 1275.5,-92 1275.5,-73 1155.5,-73"/>
<text text-anchor="middle" x="1215.5" y="-80" font-family="Helvetica,sans-Serif" font-size="10.00" fill="#000000">lapack_templates_ext.h</text>
</a>
</g>
</g>
<!-- Node14&#45;&gt;Node24 -->
<g id="edge29" class="edge">
<title>Node14&#45;&gt;Node24</title>
<path fill="none" stroke="#191970" d="M957.8696,-135.4554C1005.0659,-126.479 1081.0698,-111.7776 1146.5,-98 1152.1955,-96.8007 1158.1477,-95.5141 1164.0663,-94.2135"/>
<polygon fill="#191970" stroke="#191970" points="1164.9379,-97.6054 1173.9439,-92.0247 1163.4234,-90.7712 1164.9379,-97.6054"/>
</g>
<!-- Node24&#45;&gt;Node5 -->
<g id="edge30" class="edge">
<title>Node24&#45;&gt;Node5</title>
<path fill="none" stroke="#191970" d="M1177.7292,-72.9472C1167.6394,-70.6889 1156.7031,-68.5033 1146.5,-67 901.4211,-30.8902 605.3968,-19.8236 484.2594,-16.6677"/>
<polygon fill="#191970" stroke="#191970" points="484.204,-13.1653 474.1187,-16.4115 484.0271,-20.163 484.204,-13.1653"/>
</g>
</g>
</svg>
        <g id="navigator" transform="translate(0 0)" fill="#404254">
                <rect fill="#f2f5e9" fill-opacity="0.5" stroke="#606060" stroke-width=".5" x="0" y="0" width="60" height="60"/>
                <use id="zoomplus" xlink:href="#zoomPlus" x="17" y="9" onmousedown="handleZoom(evt,'in')"/>
                <use id="zoomminus" xlink:href="#zoomMin" x="42" y="9" onmousedown="handleZoom(evt,'out')"/>
                <use id="reset" xlink:href="#resetDef" x="30" y="36" onmousedown="handleReset()"/>
                <g id="arrowUp" xlink:href="#dirArrow" transform="translate(30 24)" onmousedown="handlePan(0,-1)">
                  <use xlink:href="#rim" fill="#404040">
                        <set attributeName="fill" to="#808080" begin="arrowUp.mouseover" end="arrowUp.mouseout"/>
                  </use>
                  <path fill="none" stroke="white" stroke-width="1.5" d="M0,-3.0v7 M-2.5,-0.5L0,-3.0L2.5,-0.5"/>
                </g>
                <g id="arrowRight" xlink:href="#dirArrow" transform="rotate(90) translate(36 -43)" onmousedown="handlePan(1,0)">
                  <use xlink:href="#rim" fill="#404040">
                        <set attributeName="fill" to="#808080" begin="arrowRight.mouseover" end="arrowRight.mouseout"/>
                  </use>
                  <path fill="none" stroke="white" stroke-width="1.5" d="M0,-3.0v7 M-2.5,-0.5L0,-3.0L2.5,-0.5"/>
                </g>
                <g id="arrowDown" xlink:href="#dirArrow" transform="rotate(180) translate(-30 -48)" onmousedown="handlePan(0,1)">
                  <use xlink:href="#rim" fill="#404040">
                        <set attributeName="fill" to="#808080" begin="arrowDown.mouseover" end="arrowDown.mouseout"/>
                  </use>
                  <path fill="none" stroke="white" stroke-width="1.5" d="M0,-3.0v7 M-2.5,-0.5L0,-3.0L2.5,-0.5"/>
                </g>
                <g id="arrowLeft" xlink:href="#dirArrow" transform="rotate(270) translate(-36 17)" onmousedown="handlePan(-1,0)">
                  <use xlink:href="#rim" fill="#404040">
                        <set attributeName="fill" to="#808080" begin="arrowLeft.mouseover" end="arrowLeft.mouseout"/>
                  </use>
                  <path fill="none" stroke="white" stroke-width="1.5" d="M0,-3.0v7 M-2.5,-0.5L0,-3.0L2.5,-0.5"/>
                </g>
        </g>
        <svg viewBox="0 0 15 15" width="100%" height="30px" preserveAspectRatio="xMaxYMin meet">
         <g id="arrow_out" transform="scale(0.3 0.3)">
          <a xlink:href="lapack-matrix-agglomeration-of-two-submatrices-interwoven-indices_8cc__incl_org.svg" target="_base">
           <rect id="button" ry="5" rx="5" y="6" x="6" height="38" width="38"
                fill="#f2f5e9" fill-opacity="0.5" stroke="#606060" stroke-width="1.0"/>
           <path id="arrow"
             d="M 11.500037,31.436501 C 11.940474,20.09759 22.043105,11.32322 32.158766,21.979434 L 37.068811,17.246167 C 37.068811,17.246167 37.088388,32 37.088388,32 L 22.160133,31.978069 C 22.160133,31.978069 26.997745,27.140456 26.997745,27.140456 C 18.528582,18.264221 13.291696,25.230495 11.500037,31.436501 z"
             style="fill:#404040;"/>
          </a>
         </g>
        </svg>
</svg>
