<?xml version="1.0" encoding="UTF-8" standalone="no"?>
<!DOCTYPE svg PUBLIC "-//W3C//DTD SVG 1.1//EN"
 "http://www.w3.org/Graphics/SVG/1.1/DTD/svg11.dtd">
<!-- Generated by graphviz version 2.40.1 (20161225.0304)
 -->
<!-- Title: /home/jihuan/Projects/deal.ii/program/dealii&#45;9.1.1/examples/laplace&#45;bem/tests/lapack&#45;matrix&#45;global&#45;to&#45;submatrix/lapack&#45;matrix&#45;global&#45;to&#45;submatrix.cc Pages: 1 -->
<!--zoomable 340 -->
<svg id="main" version="1.1" xmlns="http://www.w3.org/2000/svg" xmlns:xlink="http://www.w3.org/1999/xlink" xml:space="preserve" onload="init(evt)">
<style type="text/css"><![CDATA[
.edge:hover path { stroke: red; }
.edge:hover polygon { stroke: red; fill: red; }
]]></style>
<script type="text/javascript"><![CDATA[
var edges = document.getElementsByTagName('g');
if (edges && edges.length) {
  for (var i=0;i<edges.length;i++) {
    if (edges[i].id.substr(0,4)=='edge') {
      edges[i].setAttribute('class','edge');
    }
  }
}
]]></script>
        <defs>
                <circle id="rim" cx="0" cy="0" r="7"/>
                <circle id="rim2" cx="0" cy="0" r="3.5"/>
                <g id="zoomPlus">
                        <use xlink:href="#rim" fill="#404040">
                                <set attributeName="fill" to="#808080" begin="zoomplus.mouseover" end="zoomplus.mouseout"/>
                        </use>
                        <path d="M-4,0h8M0,-4v8" fill="none" stroke="white" stroke-width="1.5" pointer-events="none"/>
                </g>
                <g id="zoomMin">
                        <use xlink:href="#rim" fill="#404040">
                                <set attributeName="fill" to="#808080" begin="zoomminus.mouseover" end="zoomminus.mouseout"/>
                        </use>
                        <path d="M-4,0h8" fill="none" stroke="white" stroke-width="1.5" pointer-events="none"/>
                </g>
                <g id="dirArrow">
                        <path fill="none" stroke="white" stroke-width="1.5" d="M0,-3.0v7 M-2.5,-0.5L0,-3.0L2.5,-0.5"/>
                </g>
               <g id="resetDef">
                       <use xlink:href="#rim2" fill="#404040">
                               <set attributeName="fill" to="#808080" begin="reset.mouseover" end="reset.mouseout"/>
                       </use>
               </g>
        </defs>

<script type="text/javascript">
var viewWidth = 1859;
var viewHeight = 340;
var sectionId = 'dynsection-0';
</script>
<script xlink:href="svgpan.js"/>
<svg id="graph" class="graph">
<g id="viewport">
<title>/home/jihuan/Projects/deal.ii/program/dealii&#45;9.1.1/examples/laplace&#45;bem/tests/lapack&#45;matrix&#45;global&#45;to&#45;submatrix/lapack&#45;matrix&#45;global&#45;to&#45;submatrix.cc</title>
<!-- Node0 -->
<g id="node1" class="node">
<title>Node0</title>
<polygon fill="#bfbfbf" stroke="#000000" points="304.5,-257.5 304.5,-331.5 450.5,-331.5 450.5,-257.5 304.5,-257.5"/>
<text text-anchor="start" x="312.5" y="-319.5" font-family="Helvetica,sans-Serif" font-size="10.00" fill="#000000">/home/jihuan/Projects</text>
<text text-anchor="start" x="312.5" y="-308.5" font-family="Helvetica,sans-Serif" font-size="10.00" fill="#000000">/deal.ii/program/dealii</text>
<text text-anchor="start" x="312.5" y="-297.5" font-family="Helvetica,sans-Serif" font-size="10.00" fill="#000000">&#45;9.1.1/examples/laplace</text>
<text text-anchor="start" x="312.5" y="-286.5" font-family="Helvetica,sans-Serif" font-size="10.00" fill="#000000">&#45;bem/tests/lapack&#45;matrix</text>
<text text-anchor="start" x="312.5" y="-275.5" font-family="Helvetica,sans-Serif" font-size="10.00" fill="#000000">&#45;global&#45;to&#45;submatrix/lapack</text>
<text text-anchor="middle" x="377.5" y="-264.5" font-family="Helvetica,sans-Serif" font-size="10.00" fill="#000000">&#45;matrix&#45;global&#45;to&#45;submatrix.cc</text>
</g>
<!-- Node1 -->
<g id="node2" class="node">
<title>Node1</title>
<polygon fill="none" stroke="#bfbfbf" points="0,-73 0,-92 103,-92 103,-73 0,-73"/>
<text text-anchor="middle" x="51.5" y="-80" font-family="Helvetica,sans-Serif" font-size="10.00" fill="#000000">deal.II/base/types.h</text>
</g>
<!-- Node0&#45;&gt;Node1 -->
<g id="edge1" class="edge">
<title>Node0&#45;&gt;Node1</title>
<path fill="none" stroke="#191970" d="M304.306,-258.6315C253.4655,-232.3966 185.1323,-194.4514 129.5,-154 106.4729,-137.2565 82.7389,-114.5802 67.5938,-99.2914"/>
<polygon fill="#191970" stroke="#191970" points="69.9991,-96.745 60.5061,-92.0404 64.9932,-101.6381 69.9991,-96.745"/>
</g>
<!-- Node2 -->
<g id="node3" class="node">
<title>Node2</title>
<polygon fill="none" stroke="#bfbfbf" points="443.5,-196 443.5,-215 497.5,-215 497.5,-196 443.5,-196"/>
<text text-anchor="middle" x="470.5" y="-203" font-family="Helvetica,sans-Serif" font-size="10.00" fill="#000000">iostream</text>
</g>
<!-- Node0&#45;&gt;Node2 -->
<g id="edge2" class="edge">
<title>Node0&#45;&gt;Node2</title>
<path fill="none" stroke="#191970" d="M416.4015,-257.2717C429.2526,-244.9733 442.8995,-231.9134 453.2718,-221.9872"/>
<polygon fill="#191970" stroke="#191970" points="455.6929,-224.5148 460.4977,-215.0721 450.853,-219.4574 455.6929,-224.5148"/>
</g>
<!-- Node3 -->
<g id="node4" class="node">
<title>Node3</title>
<g id="a_node4"><a xlink:href="lapack__full__matrix__ext_8h_source.html" target="_top" xlink:title="lapack_full_matrix\l_ext.h">
<polygon fill="none" stroke="#000000" points="330,-190.5 330,-220.5 425,-220.5 425,-190.5 330,-190.5"/>
<text text-anchor="start" x="338" y="-208.5" font-family="Helvetica,sans-Serif" font-size="10.00" fill="#000000">lapack_full_matrix</text>
<text text-anchor="middle" x="377.5" y="-197.5" font-family="Helvetica,sans-Serif" font-size="10.00" fill="#000000">_ext.h</text>
</a>
</g>
</g>
<!-- Node0&#45;&gt;Node3 -->
<g id="edge3" class="edge">
<title>Node0&#45;&gt;Node3</title>
<path fill="none" stroke="#191970" d="M377.5,-257.2717C377.5,-248.3955 377.5,-239.1226 377.5,-230.9174"/>
<polygon fill="#191970" stroke="#191970" points="381.0001,-230.8693 377.5,-220.8693 374.0001,-230.8693 381.0001,-230.8693"/>
</g>
<!-- Node4 -->
<g id="node5" class="node">
<title>Node4</title>
<polygon fill="none" stroke="#bfbfbf" points="266.5,-134.5 266.5,-153.5 306.5,-153.5 306.5,-134.5 266.5,-134.5"/>
<text text-anchor="middle" x="286.5" y="-141.5" font-family="Helvetica,sans-Serif" font-size="10.00" fill="#000000">limits</text>
</g>
<!-- Node3&#45;&gt;Node4 -->
<g id="edge4" class="edge">
<title>Node3&#45;&gt;Node4</title>
<path fill="none" stroke="#191970" d="M355.0056,-190.2977C341.1033,-180.9022 323.3124,-168.8787 309.3454,-159.4395"/>
<polygon fill="#191970" stroke="#191970" points="311.0436,-156.3629 300.7985,-153.6633 307.124,-162.1626 311.0436,-156.3629"/>
</g>
<!-- Node5 -->
<g id="node6" class="node">
<title>Node5</title>
<polygon fill="none" stroke="#bfbfbf" points="121,-73 121,-92 156,-92 156,-73 121,-73"/>
<text text-anchor="middle" x="138.5" y="-80" font-family="Helvetica,sans-Serif" font-size="10.00" fill="#000000">map</text>
</g>
<!-- Node3&#45;&gt;Node5 -->
<g id="edge5" class="edge">
<title>Node3&#45;&gt;Node5</title>
<path fill="none" stroke="#191970" d="M329.9832,-201.8569C268.1788,-196.0377 165.278,-182.2911 141.5,-154 129.5493,-139.7811 130.5336,-117.7852 133.4208,-101.9448"/>
<polygon fill="#191970" stroke="#191970" points="136.8487,-102.6526 135.588,-92.133 130.0135,-101.1427 136.8487,-102.6526"/>
</g>
<!-- Node6 -->
<g id="node7" class="node">
<title>Node6</title>
<polygon fill="none" stroke="#bfbfbf" points="325,-134.5 325,-153.5 366,-153.5 366,-134.5 325,-134.5"/>
<text text-anchor="middle" x="345.5" y="-141.5" font-family="Helvetica,sans-Serif" font-size="10.00" fill="#000000">regex</text>
</g>
<!-- Node3&#45;&gt;Node6 -->
<g id="edge6" class="edge">
<title>Node3&#45;&gt;Node6</title>
<path fill="none" stroke="#191970" d="M369.5899,-190.2977C365.2868,-182.0277 359.9242,-171.7215 355.3518,-162.9339"/>
<polygon fill="#191970" stroke="#191970" points="358.3443,-161.1024 350.6236,-153.8469 352.1346,-164.3335 358.3443,-161.1024"/>
</g>
<!-- Node7 -->
<g id="node8" class="node">
<title>Node7</title>
<polygon fill="none" stroke="#bfbfbf" points="384.5,-134.5 384.5,-153.5 436.5,-153.5 436.5,-134.5 384.5,-134.5"/>
<text text-anchor="middle" x="410.5" y="-141.5" font-family="Helvetica,sans-Serif" font-size="10.00" fill="#000000">sstream</text>
</g>
<!-- Node3&#45;&gt;Node7 -->
<g id="edge7" class="edge">
<title>Node3&#45;&gt;Node7</title>
<path fill="none" stroke="#191970" d="M385.6573,-190.2977C390.0949,-182.0277 395.625,-171.7215 400.3404,-162.9339"/>
<polygon fill="#191970" stroke="#191970" points="403.5721,-164.3134 405.2163,-153.8469 397.404,-161.0037 403.5721,-164.3134"/>
</g>
<!-- Node8 -->
<g id="node9" class="node">
<title>Node8</title>
<polygon fill="none" stroke="#bfbfbf" points="455,-134.5 455,-153.5 496,-153.5 496,-134.5 455,-134.5"/>
<text text-anchor="middle" x="475.5" y="-141.5" font-family="Helvetica,sans-Serif" font-size="10.00" fill="#000000">string</text>
</g>
<!-- Node3&#45;&gt;Node8 -->
<g id="edge8" class="edge">
<title>Node3&#45;&gt;Node8</title>
<path fill="none" stroke="#191970" d="M401.4735,-190.4554C416.6776,-180.9141 436.2759,-168.6151 451.4875,-159.0691"/>
<polygon fill="#191970" stroke="#191970" points="453.7037,-161.8105 460.3135,-153.5303 449.9828,-155.8813 453.7037,-161.8105"/>
</g>
<!-- Node9 -->
<g id="node10" class="node">
<title>Node9</title>
<polygon fill="none" stroke="#bfbfbf" points="363.5,-73 363.5,-92 407.5,-92 407.5,-73 363.5,-73"/>
<text text-anchor="middle" x="385.5" y="-80" font-family="Helvetica,sans-Serif" font-size="10.00" fill="#000000">vector</text>
</g>
<!-- Node3&#45;&gt;Node9 -->
<g id="edge9" class="edge">
<title>Node3&#45;&gt;Node9</title>
<path fill="none" stroke="#191970" d="M425.0092,-192.2929C457.0198,-182.3237 495.0627,-168.0107 504.5,-154 540.6664,-100.3072 462.8728,-119.0425 416.5,-98 415.4863,-97.54 414.4572,-97.0656 413.4203,-96.5811"/>
<polygon fill="#191970" stroke="#191970" points="414.6058,-93.2671 404.0784,-92.0735 411.5637,-99.5715 414.6058,-93.2671"/>
</g>
<!-- Node10 -->
<g id="node11" class="node">
<title>Node10</title>
<g id="a_node11"><a xlink:href="general__exceptions_8h.html" target="_top" xlink:title="Definition of self&#45;defined general exceptions. ">
<polygon fill="none" stroke="#000000" points="553,-134.5 553,-153.5 662,-153.5 662,-134.5 553,-134.5"/>
<text text-anchor="middle" x="607.5" y="-141.5" font-family="Helvetica,sans-Serif" font-size="10.00" fill="#000000">general_exceptions.h</text>
</a>
</g>
</g>
<!-- Node3&#45;&gt;Node10 -->
<g id="edge10" class="edge">
<title>Node3&#45;&gt;Node10</title>
<path fill="none" stroke="#191970" d="M425.0803,-192.54C428.2676,-191.6785 431.43,-190.8256 434.5,-190 477.5223,-178.4309 526.608,-165.3947 561.4768,-156.162"/>
<polygon fill="#191970" stroke="#191970" points="562.5961,-159.4864 571.3677,-153.5441 560.805,-152.7194 562.5961,-159.4864"/>
</g>
<!-- Node12 -->
<g id="node13" class="node">
<title>Node12</title>
<g id="a_node13"><a xlink:href="generic__functors_8h.html" target="_top" xlink:title="This header file contains a set of self&#45;defined generic functors. ">
<polygon fill="none" stroke="#000000" points="151,-134.5 151,-153.5 248,-153.5 248,-134.5 151,-134.5"/>
<text text-anchor="middle" x="199.5" y="-141.5" font-family="Helvetica,sans-Serif" font-size="10.00" fill="#000000">generic_functors.h</text>
</a>
</g>
</g>
<!-- Node3&#45;&gt;Node12 -->
<g id="edge12" class="edge">
<title>Node3&#45;&gt;Node12</title>
<path fill="none" stroke="#191970" d="M333.9563,-190.4554C304.1263,-180.149 264.9834,-166.6249 236.6298,-156.8286"/>
<polygon fill="#191970" stroke="#191970" points="237.6784,-153.4879 227.0837,-153.5303 235.3924,-160.1041 237.6784,-153.4879"/>
</g>
<!-- Node16 -->
<g id="node17" class="node">
<title>Node16</title>
<g id="a_node17"><a xlink:href="lapack__helpers_8h.html" target="_top" xlink:title="Exposes LAPACK helper functions defined in lapack_full_matrix.cc and define new ones by following the...">
<polygon fill="none" stroke="#000000" points="1112.5,-134.5 1112.5,-153.5 1202.5,-153.5 1202.5,-134.5 1112.5,-134.5"/>
<text text-anchor="middle" x="1157.5" y="-141.5" font-family="Helvetica,sans-Serif" font-size="10.00" fill="#000000">lapack_helpers.h</text>
</a>
</g>
</g>
<!-- Node3&#45;&gt;Node16 -->
<g id="edge20" class="edge">
<title>Node3&#45;&gt;Node16</title>
<path fill="none" stroke="#191970" d="M425.2391,-191.7668C428.3585,-191.1025 431.465,-190.5039 434.5,-190 562.9383,-168.6761 956.4938,-151.7572 1102.3562,-146.0648"/>
<polygon fill="#191970" stroke="#191970" points="1102.5663,-149.5593 1112.4232,-145.6744 1102.295,-142.5646 1102.5663,-149.5593"/>
</g>
<!-- Node11 -->
<g id="node12" class="node">
<title>Node11</title>
<polygon fill="none" stroke="#bfbfbf" points="425.5,-73 425.5,-92 551.5,-92 551.5,-73 425.5,-73"/>
<text text-anchor="middle" x="488.5" y="-80" font-family="Helvetica,sans-Serif" font-size="10.00" fill="#000000">deal.II/base/exceptions.h</text>
</g>
<!-- Node10&#45;&gt;Node11 -->
<g id="edge11" class="edge">
<title>Node10&#45;&gt;Node11</title>
<path fill="none" stroke="#191970" d="M588.9063,-134.3906C569.3447,-124.2811 538.3499,-108.2628 515.9691,-96.6962"/>
<polygon fill="#191970" stroke="#191970" points="517.4539,-93.5238 506.9632,-92.0419 514.24,-99.7425 517.4539,-93.5238"/>
</g>
<!-- Node12&#45;&gt;Node1 -->
<g id="edge14" class="edge">
<title>Node12&#45;&gt;Node1</title>
<path fill="none" stroke="#191970" d="M176.375,-134.3906C151.5033,-124.0554 111.7702,-107.5447 83.8156,-95.9284"/>
<polygon fill="#191970" stroke="#191970" points="85.0402,-92.6472 74.4626,-92.0419 82.354,-99.1113 85.0402,-92.6472"/>
</g>
<!-- Node12&#45;&gt;Node5 -->
<g id="edge18" class="edge">
<title>Node12&#45;&gt;Node5</title>
<path fill="none" stroke="#191970" d="M189.9688,-134.3906C180.7121,-125.0581 166.461,-110.6902 155.2997,-99.4374"/>
<polygon fill="#191970" stroke="#191970" points="157.6928,-96.88 148.1656,-92.2449 152.7228,-101.8095 157.6928,-96.88"/>
</g>
<!-- Node12&#45;&gt;Node9 -->
<g id="edge19" class="edge">
<title>Node12&#45;&gt;Node9</title>
<path fill="none" stroke="#191970" d="M237.7288,-134.4184C269.2437,-126.0845 314.8776,-113.0099 353.5,-98 354.9025,-97.455 356.328,-96.8732 357.7594,-96.2666"/>
<polygon fill="#191970" stroke="#191970" points="359.4463,-99.3449 367.111,-92.0304 356.5578,-92.9686 359.4463,-99.3449"/>
</g>
<!-- Node12&#45;&gt;Node11 -->
<g id="edge13" class="edge">
<title>Node12&#45;&gt;Node11</title>
<path fill="none" stroke="#191970" d="M244.8111,-134.4383C288.7171,-125.1628 357.184,-110.6716 416.5,-98 422.2676,-96.7679 428.2942,-95.4766 434.2992,-94.1874"/>
<polygon fill="#191970" stroke="#191970" points="435.2939,-97.5536 444.3353,-92.0307 433.8231,-90.7099 435.2939,-97.5536"/>
</g>
<!-- Node13 -->
<g id="node14" class="node">
<title>Node13</title>
<polygon fill="none" stroke="#bfbfbf" points="534,-.5 534,-30.5 625,-30.5 625,-.5 534,-.5"/>
<text text-anchor="start" x="542" y="-18.5" font-family="Helvetica,sans-Serif" font-size="10.00" fill="#000000">deal.II/lac/lapack</text>
<text text-anchor="middle" x="579.5" y="-7.5" font-family="Helvetica,sans-Serif" font-size="10.00" fill="#000000">_support.h</text>
</g>
<!-- Node12&#45;&gt;Node13 -->
<g id="edge15" class="edge">
<title>Node12&#45;&gt;Node13</title>
<path fill="none" stroke="#191970" d="M196.5233,-134.2505C192.2342,-118.0208 186.5605,-85.4297 203.5,-67 224.8161,-43.8086 424.0982,-26.5276 523.5699,-19.268"/>
<polygon fill="#191970" stroke="#191970" points="524.0206,-22.7447 533.7432,-18.5351 523.5176,-15.7628 524.0206,-22.7447"/>
</g>
<!-- Node14 -->
<g id="node15" class="node">
<title>Node14</title>
<polygon fill="none" stroke="#bfbfbf" points="213,-73 213,-92 280,-92 280,-73 213,-73"/>
<text text-anchor="middle" x="246.5" y="-80" font-family="Helvetica,sans-Serif" font-size="10.00" fill="#000000">forward_list</text>
</g>
<!-- Node12&#45;&gt;Node14 -->
<g id="edge16" class="edge">
<title>Node12&#45;&gt;Node14</title>
<path fill="none" stroke="#191970" d="M206.8438,-134.3906C213.7702,-125.3273 224.326,-111.5149 232.806,-100.4188"/>
<polygon fill="#191970" stroke="#191970" points="235.7615,-102.3155 239.0527,-92.2449 230.1997,-98.065 235.7615,-102.3155"/>
</g>
<!-- Node15 -->
<g id="node16" class="node">
<title>Node15</title>
<polygon fill="none" stroke="#bfbfbf" points="298,-73 298,-92 345,-92 345,-73 298,-73"/>
<text text-anchor="middle" x="321.5" y="-80" font-family="Helvetica,sans-Serif" font-size="10.00" fill="#000000">iterator</text>
</g>
<!-- Node12&#45;&gt;Node15 -->
<g id="edge17" class="edge">
<title>Node12&#45;&gt;Node15</title>
<path fill="none" stroke="#191970" d="M218.5625,-134.3906C238.6172,-124.2811 270.3934,-108.2628 293.3384,-96.6962"/>
<polygon fill="#191970" stroke="#191970" points="295.2173,-99.6687 302.5714,-92.0419 292.0663,-93.418 295.2173,-99.6687"/>
</g>
<!-- Node16&#45;&gt;Node13 -->
<g id="edge26" class="edge">
<title>Node16&#45;&gt;Node13</title>
<path fill="none" stroke="#191970" d="M1112.2364,-143.2928C986.0457,-140.9068 637.0222,-131.3308 598.5,-98 582.426,-84.0922 578.4494,-59.57 578.0319,-40.8641"/>
<polygon fill="#191970" stroke="#191970" points="581.5338,-40.6807 578.1328,-30.6466 574.5341,-40.6115 581.5338,-40.6807"/>
</g>
<!-- Node17 -->
<g id="node18" class="node">
<title>Node17</title>
<polygon fill="none" stroke="#bfbfbf" points="745.5,-73 745.5,-92 861.5,-92 861.5,-73 745.5,-73"/>
<text text-anchor="middle" x="803.5" y="-80" font-family="Helvetica,sans-Serif" font-size="10.00" fill="#000000">deal.II/base/numbers.h</text>
</g>
<!-- Node16&#45;&gt;Node17 -->
<g id="edge21" class="edge">
<title>Node16&#45;&gt;Node17</title>
<path fill="none" stroke="#191970" d="M1112.0962,-137.7025C1055.3739,-129.6103 955.4338,-114.6108 870.5,-98 864.7201,-96.8696 858.6801,-95.5994 852.6947,-94.2851"/>
<polygon fill="#191970" stroke="#191970" points="853.2526,-90.8233 842.7289,-92.0487 851.7199,-97.6535 853.2526,-90.8233"/>
</g>
<!-- Node18 -->
<g id="node19" class="node">
<title>Node18</title>
<polygon fill="none" stroke="#bfbfbf" points="879.5,-67.5 879.5,-97.5 1007.5,-97.5 1007.5,-67.5 879.5,-67.5"/>
<text text-anchor="start" x="887.5" y="-85.5" font-family="Helvetica,sans-Serif" font-size="10.00" fill="#000000">deal.II/lac/blas_extension</text>
<text text-anchor="middle" x="943.5" y="-74.5" font-family="Helvetica,sans-Serif" font-size="10.00" fill="#000000">_templates.h</text>
</g>
<!-- Node16&#45;&gt;Node18 -->
<g id="edge22" class="edge">
<title>Node16&#45;&gt;Node18</title>
<path fill="none" stroke="#191970" d="M1124.0625,-134.3906C1092.5526,-125.3352 1044.5463,-111.539 1005.9527,-100.4479"/>
<polygon fill="#191970" stroke="#191970" points="1006.428,-96.9429 995.8503,-97.5446 1004.4945,-103.6705 1006.428,-96.9429"/>
</g>
<!-- Node19 -->
<g id="node20" class="node">
<title>Node19</title>
<polygon fill="none" stroke="#bfbfbf" points="1025.5,-73 1025.5,-92 1151.5,-92 1151.5,-73 1025.5,-73"/>
<text text-anchor="middle" x="1088.5" y="-80" font-family="Helvetica,sans-Serif" font-size="10.00" fill="#000000">deal.II/lac/block_vector.h</text>
</g>
<!-- Node16&#45;&gt;Node19 -->
<g id="edge23" class="edge">
<title>Node16&#45;&gt;Node19</title>
<path fill="none" stroke="#191970" d="M1146.7188,-134.3906C1136.1474,-124.9683 1119.8175,-110.4134 1107.1397,-99.1137"/>
<polygon fill="#191970" stroke="#191970" points="1109.2272,-96.2858 1099.4333,-92.2449 1104.5696,-101.5114 1109.2272,-96.2858"/>
</g>
<!-- Node20 -->
<g id="node21" class="node">
<title>Node20</title>
<polygon fill="none" stroke="#bfbfbf" points="1169.5,-73 1169.5,-92 1285.5,-92 1285.5,-73 1169.5,-73"/>
<text text-anchor="middle" x="1227.5" y="-80" font-family="Helvetica,sans-Serif" font-size="10.00" fill="#000000">deal.II/lac/full_matrix.h</text>
</g>
<!-- Node16&#45;&gt;Node20 -->
<g id="edge24" class="edge">
<title>Node16&#45;&gt;Node20</title>
<path fill="none" stroke="#191970" d="M1168.4375,-134.3906C1179.162,-124.9683 1195.7287,-110.4134 1208.5901,-99.1137"/>
<polygon fill="#191970" stroke="#191970" points="1211.2059,-101.4745 1216.4083,-92.2449 1206.5857,-96.2158 1211.2059,-101.4745"/>
</g>
<!-- Node21 -->
<g id="node22" class="node">
<title>Node21</title>
<polygon fill="none" stroke="#bfbfbf" points="1304,-67.5 1304,-97.5 1395,-97.5 1395,-67.5 1304,-67.5"/>
<text text-anchor="start" x="1312" y="-85.5" font-family="Helvetica,sans-Serif" font-size="10.00" fill="#000000">deal.II/lac/lapack</text>
<text text-anchor="middle" x="1349.5" y="-74.5" font-family="Helvetica,sans-Serif" font-size="10.00" fill="#000000">_full_matrix.h</text>
</g>
<!-- Node16&#45;&gt;Node21 -->
<g id="edge25" class="edge">
<title>Node16&#45;&gt;Node21</title>
<path fill="none" stroke="#191970" d="M1187.5,-134.3906C1216.0359,-125.2502 1259.6514,-111.2796 1294.4403,-100.1363"/>
<polygon fill="#191970" stroke="#191970" points="1295.543,-103.4584 1303.9987,-97.0746 1293.4076,-96.792 1295.543,-103.4584"/>
</g>
<!-- Node22 -->
<g id="node23" class="node">
<title>Node22</title>
<polygon fill="none" stroke="#bfbfbf" points="1413,-67.5 1413,-97.5 1504,-97.5 1504,-67.5 1413,-67.5"/>
<text text-anchor="start" x="1421" y="-85.5" font-family="Helvetica,sans-Serif" font-size="10.00" fill="#000000">deal.II/lac/lapack</text>
<text text-anchor="middle" x="1458.5" y="-74.5" font-family="Helvetica,sans-Serif" font-size="10.00" fill="#000000">_templates.h</text>
</g>
<!-- Node16&#45;&gt;Node22 -->
<g id="edge27" class="edge">
<title>Node16&#45;&gt;Node22</title>
<path fill="none" stroke="#191970" d="M1202.8426,-136.8894C1250.4539,-129.1269 1327.6722,-115.7025 1402.8102,-98.2854"/>
<polygon fill="#191970" stroke="#191970" points="1403.9787,-101.6064 1412.9154,-95.9154 1402.3804,-94.7913 1403.9787,-101.6064"/>
</g>
<!-- Node23 -->
<g id="node24" class="node">
<title>Node23</title>
<polygon fill="none" stroke="#bfbfbf" points="1522.5,-67.5 1522.5,-97.5 1614.5,-97.5 1614.5,-67.5 1522.5,-67.5"/>
<text text-anchor="start" x="1530.5" y="-85.5" font-family="Helvetica,sans-Serif" font-size="10.00" fill="#000000">deal.II/lac/sparse</text>
<text text-anchor="middle" x="1568.5" y="-74.5" font-family="Helvetica,sans-Serif" font-size="10.00" fill="#000000">_matrix.h</text>
</g>
<!-- Node16&#45;&gt;Node23 -->
<g id="edge28" class="edge">
<title>Node16&#45;&gt;Node23</title>
<path fill="none" stroke="#191970" d="M1202.5257,-140.3096C1268.5622,-134.432 1395.6405,-121.3581 1512.5705,-98.0114"/>
<polygon fill="#191970" stroke="#191970" points="1513.301,-101.4346 1522.4065,-96.018 1511.9105,-94.5741 1513.301,-101.4346"/>
</g>
<!-- Node24 -->
<g id="node25" class="node">
<title>Node24</title>
<polygon fill="none" stroke="#bfbfbf" points="1633,-73 1633,-92 1734,-92 1734,-73 1633,-73"/>
<text text-anchor="middle" x="1683.5" y="-80" font-family="Helvetica,sans-Serif" font-size="10.00" fill="#000000">deal.II/lac/utilities.h</text>
</g>
<!-- Node16&#45;&gt;Node24 -->
<g id="edge29" class="edge">
<title>Node16&#45;&gt;Node24</title>
<path fill="none" stroke="#191970" d="M1202.8017,-141.8557C1286.4602,-137.3813 1470.6125,-125.1264 1623.5,-98 1628.9952,-97.025 1634.7271,-95.8087 1640.374,-94.4889"/>
<polygon fill="#191970" stroke="#191970" points="1641.5012,-97.8161 1650.3773,-92.0313 1639.831,-91.0183 1641.5012,-97.8161"/>
</g>
<!-- Node25 -->
<g id="node26" class="node">
<title>Node25</title>
<polygon fill="none" stroke="#bfbfbf" points="1752.5,-73 1752.5,-92 1850.5,-92 1850.5,-73 1752.5,-73"/>
<text text-anchor="middle" x="1801.5" y="-80" font-family="Helvetica,sans-Serif" font-size="10.00" fill="#000000">deal.II/lac/vector.h</text>
</g>
<!-- Node16&#45;&gt;Node25 -->
<g id="edge30" class="edge">
<title>Node16&#45;&gt;Node25</title>
<path fill="none" stroke="#191970" d="M1202.692,-143.2594C1301.4895,-141.0282 1543.8437,-132.2186 1743.5,-98 1748.9575,-97.0646 1754.6477,-95.85 1760.239,-94.5123"/>
<polygon fill="#191970" stroke="#191970" points="1761.292,-97.8561 1770.1247,-92.0051 1759.5712,-91.0709 1761.292,-97.8561"/>
</g>
<!-- Node26 -->
<g id="node27" class="node">
<title>Node26</title>
<g id="a_node27"><a xlink:href="lapack__templates__ext_8h.html" target="_top" xlink:title="Append more template based LAPACK functions to those existing in deal.ii. ">
<polygon fill="none" stroke="#000000" points="607.5,-73 607.5,-92 727.5,-92 727.5,-73 607.5,-73"/>
<text text-anchor="middle" x="667.5" y="-80" font-family="Helvetica,sans-Serif" font-size="10.00" fill="#000000">lapack_templates_ext.h</text>
</a>
</g>
</g>
<!-- Node16&#45;&gt;Node26 -->
<g id="edge31" class="edge">
<title>Node16&#45;&gt;Node26</title>
<path fill="none" stroke="#191970" d="M1112.4126,-140.7429C1035.1178,-134.7871 872.4898,-120.6303 736.5,-98 729.9089,-96.9032 723.0018,-95.5722 716.211,-94.1562"/>
<polygon fill="#191970" stroke="#191970" points="716.9086,-90.7262 706.3953,-92.0381 715.432,-97.5687 716.9086,-90.7262"/>
</g>
<!-- Node26&#45;&gt;Node13 -->
<g id="edge32" class="edge">
<title>Node26&#45;&gt;Node13</title>
<path fill="none" stroke="#191970" d="M654.8917,-72.9005C642.5078,-63.4718 623.2012,-48.7725 607.226,-36.6096"/>
<polygon fill="#191970" stroke="#191970" points="609.3067,-33.7948 599.2301,-30.5218 605.0663,-39.3643 609.3067,-33.7948"/>
</g>
</g>
</svg>
        <g id="navigator" transform="translate(0 0)" fill="#404254">
                <rect fill="#f2f5e9" fill-opacity="0.5" stroke="#606060" stroke-width=".5" x="0" y="0" width="60" height="60"/>
                <use id="zoomplus" xlink:href="#zoomPlus" x="17" y="9" onmousedown="handleZoom(evt,'in')"/>
                <use id="zoomminus" xlink:href="#zoomMin" x="42" y="9" onmousedown="handleZoom(evt,'out')"/>
                <use id="reset" xlink:href="#resetDef" x="30" y="36" onmousedown="handleReset()"/>
                <g id="arrowUp" xlink:href="#dirArrow" transform="translate(30 24)" onmousedown="handlePan(0,-1)">
                  <use xlink:href="#rim" fill="#404040">
                        <set attributeName="fill" to="#808080" begin="arrowUp.mouseover" end="arrowUp.mouseout"/>
                  </use>
                  <path fill="none" stroke="white" stroke-width="1.5" d="M0,-3.0v7 M-2.5,-0.5L0,-3.0L2.5,-0.5"/>
                </g>
                <g id="arrowRight" xlink:href="#dirArrow" transform="rotate(90) translate(36 -43)" onmousedown="handlePan(1,0)">
                  <use xlink:href="#rim" fill="#404040">
                        <set attributeName="fill" to="#808080" begin="arrowRight.mouseover" end="arrowRight.mouseout"/>
                  </use>
                  <path fill="none" stroke="white" stroke-width="1.5" d="M0,-3.0v7 M-2.5,-0.5L0,-3.0L2.5,-0.5"/>
                </g>
                <g id="arrowDown" xlink:href="#dirArrow" transform="rotate(180) translate(-30 -48)" onmousedown="handlePan(0,1)">
                  <use xlink:href="#rim" fill="#404040">
                        <set attributeName="fill" to="#808080" begin="arrowDown.mouseover" end="arrowDown.mouseout"/>
                  </use>
                  <path fill="none" stroke="white" stroke-width="1.5" d="M0,-3.0v7 M-2.5,-0.5L0,-3.0L2.5,-0.5"/>
                </g>
                <g id="arrowLeft" xlink:href="#dirArrow" transform="rotate(270) translate(-36 17)" onmousedown="handlePan(-1,0)">
                  <use xlink:href="#rim" fill="#404040">
                        <set attributeName="fill" to="#808080" begin="arrowLeft.mouseover" end="arrowLeft.mouseout"/>
                  </use>
                  <path fill="none" stroke="white" stroke-width="1.5" d="M0,-3.0v7 M-2.5,-0.5L0,-3.0L2.5,-0.5"/>
                </g>
        </g>
        <svg viewBox="0 0 15 15" width="100%" height="30px" preserveAspectRatio="xMaxYMin meet">
         <g id="arrow_out" transform="scale(0.3 0.3)">
          <a xlink:href="lapack-matrix-global-to-submatrix_8cc__incl_org.svg" target="_base">
           <rect id="button" ry="5" rx="5" y="6" x="6" height="38" width="38"
                fill="#f2f5e9" fill-opacity="0.5" stroke="#606060" stroke-width="1.0"/>
           <path id="arrow"
             d="M 11.500037,31.436501 C 11.940474,20.09759 22.043105,11.32322 32.158766,21.979434 L 37.068811,17.246167 C 37.068811,17.246167 37.088388,32 37.088388,32 L 22.160133,31.978069 C 22.160133,31.978069 26.997745,27.140456 26.997745,27.140456 C 18.528582,18.264221 13.291696,25.230495 11.500037,31.436501 z"
             style="fill:#404040;"/>
          </a>
         </g>
        </svg>
</svg>
