<?xml version="1.0" encoding="UTF-8" standalone="no"?>
<!DOCTYPE svg PUBLIC "-//W3C//DTD SVG 1.1//EN"
 "http://www.w3.org/Graphics/SVG/1.1/DTD/svg11.dtd">
<!-- Generated by graphviz version 2.40.1 (20161225.0304)
 -->
<!-- Title: /home/jihuan/Projects/deal.ii/program/dealii&#45;9.1.1/examples/laplace&#45;bem/tests/lapack&#45;matrix&#45;agglomeration&#45;of&#45;two&#45;submatrices&#45;interwoven&#45;indices/lapack&#45;matrix&#45;agglomeration&#45;of&#45;two&#45;submatrices&#45;interwoven&#45;indices.cc Pages: 1 -->
<svg width="1859pt" height="362pt"
 viewBox="0.00 0.00 1859.00 362.00" xmlns="http://www.w3.org/2000/svg" xmlns:xlink="http://www.w3.org/1999/xlink">
<g id="graph0" class="graph" transform="scale(1 1) rotate(0) translate(4 358)">
<title>/home/jihuan/Projects/deal.ii/program/dealii&#45;9.1.1/examples/laplace&#45;bem/tests/lapack&#45;matrix&#45;agglomeration&#45;of&#45;two&#45;submatrices&#45;interwoven&#45;indices/lapack&#45;matrix&#45;agglomeration&#45;of&#45;two&#45;submatrices&#45;interwoven&#45;indices.cc</title>
<!-- Node0 -->
<g id="node1" class="node">
<title>Node0</title>
<polygon fill="#bfbfbf" stroke="#000000" points="139,-257.5 139,-353.5 306,-353.5 306,-257.5 139,-257.5"/>
<text text-anchor="start" x="147" y="-341.5" font-family="Helvetica,sans-Serif" font-size="10.00" fill="#000000">/home/jihuan/Projects</text>
<text text-anchor="start" x="147" y="-330.5" font-family="Helvetica,sans-Serif" font-size="10.00" fill="#000000">/deal.ii/program/dealii</text>
<text text-anchor="start" x="147" y="-319.5" font-family="Helvetica,sans-Serif" font-size="10.00" fill="#000000">&#45;9.1.1/examples/laplace</text>
<text text-anchor="start" x="147" y="-308.5" font-family="Helvetica,sans-Serif" font-size="10.00" fill="#000000">&#45;bem/tests/lapack&#45;matrix</text>
<text text-anchor="start" x="147" y="-297.5" font-family="Helvetica,sans-Serif" font-size="10.00" fill="#000000">&#45;agglomeration&#45;of&#45;two&#45;submatrices</text>
<text text-anchor="start" x="147" y="-286.5" font-family="Helvetica,sans-Serif" font-size="10.00" fill="#000000">&#45;interwoven&#45;indices/lapack&#45;matrix</text>
<text text-anchor="start" x="147" y="-275.5" font-family="Helvetica,sans-Serif" font-size="10.00" fill="#000000">&#45;agglomeration&#45;of&#45;two&#45;submatrices</text>
<text text-anchor="middle" x="222.5" y="-264.5" font-family="Helvetica,sans-Serif" font-size="10.00" fill="#000000">&#45;interwoven&#45;indices.cc</text>
</g>
<!-- Node1 -->
<g id="node2" class="node">
<title>Node1</title>
<polygon fill="none" stroke="#bfbfbf" points="140.5,-196 140.5,-215 194.5,-215 194.5,-196 140.5,-196"/>
<text text-anchor="middle" x="167.5" y="-203" font-family="Helvetica,sans-Serif" font-size="10.00" fill="#000000">iostream</text>
</g>
<!-- Node0&#45;&gt;Node1 -->
<g id="edge1" class="edge">
<title>Node0&#45;&gt;Node1</title>
<path fill="none" stroke="#191970" d="M195.9666,-257.2575C189.4425,-245.3955 182.8458,-233.4015 177.6477,-223.9503"/>
<polygon fill="#191970" stroke="#191970" points="180.6846,-222.2092 172.7986,-215.1338 174.5511,-225.5827 180.6846,-222.2092"/>
</g>
<!-- Node2 -->
<g id="node3" class="node">
<title>Node2</title>
<g id="a_node3"><a xlink:href="generic__functors_8h.html" target="_top" xlink:title="This header file contains a set of self&#45;defined generic functors. ">
<polygon fill="none" stroke="#000000" points="107,-134.5 107,-153.5 204,-153.5 204,-134.5 107,-134.5"/>
<text text-anchor="middle" x="155.5" y="-141.5" font-family="Helvetica,sans-Serif" font-size="10.00" fill="#000000">generic_functors.h</text>
</a>
</g>
</g>
<!-- Node0&#45;&gt;Node2 -->
<g id="edge2" class="edge">
<title>Node0&#45;&gt;Node2</title>
<path fill="none" stroke="#191970" d="M221.4141,-257.2321C219.2463,-235.6423 214.2975,-210.4965 203.5,-190 197.342,-178.3106 187.0941,-167.8778 177.6449,-159.9149"/>
<polygon fill="#191970" stroke="#191970" points="179.6779,-157.06 169.6697,-153.5836 175.3256,-162.5425 179.6779,-157.06"/>
</g>
<!-- Node10 -->
<g id="node11" class="node">
<title>Node10</title>
<g id="a_node11"><a xlink:href="lapack__full__matrix__ext_8h_source.html" target="_top" xlink:title="lapack_full_matrix\l_ext.h">
<polygon fill="none" stroke="#000000" points="351,-190.5 351,-220.5 446,-220.5 446,-190.5 351,-190.5"/>
<text text-anchor="start" x="359" y="-208.5" font-family="Helvetica,sans-Serif" font-size="10.00" fill="#000000">lapack_full_matrix</text>
<text text-anchor="middle" x="398.5" y="-197.5" font-family="Helvetica,sans-Serif" font-size="10.00" fill="#000000">_ext.h</text>
</a>
</g>
</g>
<!-- Node0&#45;&gt;Node10 -->
<g id="edge10" class="edge">
<title>Node0&#45;&gt;Node10</title>
<path fill="none" stroke="#191970" d="M306.1188,-257.9893C326.1745,-246.594 346.5344,-235.0259 363.0179,-225.6603"/>
<polygon fill="#191970" stroke="#191970" points="364.7844,-228.6821 371.75,-220.6989 361.3263,-222.5959 364.7844,-228.6821"/>
</g>
<!-- Node3 -->
<g id="node4" class="node">
<title>Node3</title>
<polygon fill="none" stroke="#bfbfbf" points="310.5,-73 310.5,-92 436.5,-92 436.5,-73 310.5,-73"/>
<text text-anchor="middle" x="373.5" y="-80" font-family="Helvetica,sans-Serif" font-size="10.00" fill="#000000">deal.II/base/exceptions.h</text>
</g>
<!-- Node2&#45;&gt;Node3 -->
<g id="edge3" class="edge">
<title>Node2&#45;&gt;Node3</title>
<path fill="none" stroke="#191970" d="M189.5625,-134.3906C227.3977,-123.7169 288.5806,-106.4566 329.8885,-94.8033"/>
<polygon fill="#191970" stroke="#191970" points="331.0027,-98.1256 339.6767,-92.0419 329.102,-91.3886 331.0027,-98.1256"/>
</g>
<!-- Node4 -->
<g id="node5" class="node">
<title>Node4</title>
<polygon fill="none" stroke="#bfbfbf" points="104,-73 104,-92 207,-92 207,-73 104,-73"/>
<text text-anchor="middle" x="155.5" y="-80" font-family="Helvetica,sans-Serif" font-size="10.00" fill="#000000">deal.II/base/types.h</text>
</g>
<!-- Node2&#45;&gt;Node4 -->
<g id="edge4" class="edge">
<title>Node2&#45;&gt;Node4</title>
<path fill="none" stroke="#191970" d="M155.5,-134.3906C155.5,-125.8657 155.5,-113.1392 155.5,-102.4235"/>
<polygon fill="#191970" stroke="#191970" points="159.0001,-102.2448 155.5,-92.2449 152.0001,-102.2449 159.0001,-102.2448"/>
</g>
<!-- Node5 -->
<g id="node6" class="node">
<title>Node5</title>
<polygon fill="none" stroke="#bfbfbf" points="651,-.5 651,-30.5 742,-30.5 742,-.5 651,-.5"/>
<text text-anchor="start" x="659" y="-18.5" font-family="Helvetica,sans-Serif" font-size="10.00" fill="#000000">deal.II/lac/lapack</text>
<text text-anchor="middle" x="696.5" y="-7.5" font-family="Helvetica,sans-Serif" font-size="10.00" fill="#000000">_support.h</text>
</g>
<!-- Node2&#45;&gt;Node5 -->
<g id="edge5" class="edge">
<title>Node2&#45;&gt;Node5</title>
<path fill="none" stroke="#191970" d="M134.3784,-134.4622C120.2497,-126.8191 102.7828,-114.6199 94.5,-98 88.3545,-85.6687 85.1821,-77.1491 94.5,-67 131.0077,-27.2358 498.0396,-18.1217 640.4443,-16.0768"/>
<polygon fill="#191970" stroke="#191970" points="640.7536,-19.573 650.7047,-15.9362 640.6576,-12.5736 640.7536,-19.573"/>
</g>
<!-- Node6 -->
<g id="node7" class="node">
<title>Node6</title>
<polygon fill="none" stroke="#bfbfbf" points="225,-73 225,-92 292,-92 292,-73 225,-73"/>
<text text-anchor="middle" x="258.5" y="-80" font-family="Helvetica,sans-Serif" font-size="10.00" fill="#000000">forward_list</text>
</g>
<!-- Node2&#45;&gt;Node6 -->
<g id="edge6" class="edge">
<title>Node2&#45;&gt;Node6</title>
<path fill="none" stroke="#191970" d="M171.5938,-134.3906C188.2228,-124.4616 214.3976,-108.833 233.6794,-97.3201"/>
<polygon fill="#191970" stroke="#191970" points="235.7276,-100.1736 242.5193,-92.0419 232.139,-94.1634 235.7276,-100.1736"/>
</g>
<!-- Node7 -->
<g id="node8" class="node">
<title>Node7</title>
<polygon fill="none" stroke="#bfbfbf" points="0,-73 0,-92 47,-92 47,-73 0,-73"/>
<text text-anchor="middle" x="23.5" y="-80" font-family="Helvetica,sans-Serif" font-size="10.00" fill="#000000">iterator</text>
</g>
<!-- Node2&#45;&gt;Node7 -->
<g id="edge7" class="edge">
<title>Node2&#45;&gt;Node7</title>
<path fill="none" stroke="#191970" d="M134.875,-134.3906C112.9827,-124.1908 78.1807,-107.9763 53.3073,-96.3875"/>
<polygon fill="#191970" stroke="#191970" points="54.5228,-93.0926 43.9802,-92.0419 51.5665,-99.4377 54.5228,-93.0926"/>
</g>
<!-- Node8 -->
<g id="node9" class="node">
<title>Node8</title>
<polygon fill="none" stroke="#bfbfbf" points="455,-73 455,-92 490,-92 490,-73 455,-73"/>
<text text-anchor="middle" x="472.5" y="-80" font-family="Helvetica,sans-Serif" font-size="10.00" fill="#000000">map</text>
</g>
<!-- Node2&#45;&gt;Node8 -->
<g id="edge8" class="edge">
<title>Node2&#45;&gt;Node8</title>
<path fill="none" stroke="#191970" d="M204.2243,-135.5382C207.3623,-135.0121 210.4749,-134.4955 213.5,-134 316.4732,-117.1349 347.0429,-132.5558 445.5,-98 446.7049,-97.5771 447.9173,-97.1003 449.1257,-96.5831"/>
<polygon fill="#191970" stroke="#191970" points="450.7602,-99.6787 458.1148,-92.0525 447.6096,-93.4278 450.7602,-99.6787"/>
</g>
<!-- Node9 -->
<g id="node10" class="node">
<title>Node9</title>
<polygon fill="none" stroke="#bfbfbf" points="508.5,-73 508.5,-92 552.5,-92 552.5,-73 508.5,-73"/>
<text text-anchor="middle" x="530.5" y="-80" font-family="Helvetica,sans-Serif" font-size="10.00" fill="#000000">vector</text>
</g>
<!-- Node2&#45;&gt;Node9 -->
<g id="edge9" class="edge">
<title>Node2&#45;&gt;Node9</title>
<path fill="none" stroke="#191970" d="M204.2086,-135.438C207.3505,-134.9365 210.4682,-134.4526 213.5,-134 339.7738,-115.1489 376.0982,-134.3077 498.5,-98 500.3642,-97.447 502.2541,-96.7955 504.1352,-96.0779"/>
<polygon fill="#191970" stroke="#191970" points="505.531,-99.2877 513.3072,-92.0917 502.7408,-92.8677 505.531,-99.2877"/>
</g>
<!-- Node10&#45;&gt;Node2 -->
<g id="edge19" class="edge">
<title>Node10&#45;&gt;Node2</title>
<path fill="none" stroke="#191970" d="M350.781,-193.423C308.0422,-182.6064 245.7011,-166.8287 203.0225,-156.0273"/>
<polygon fill="#191970" stroke="#191970" points="203.7105,-152.5911 193.1574,-153.5306 201.993,-159.3772 203.7105,-152.5911"/>
</g>
<!-- Node10&#45;&gt;Node8 -->
<g id="edge12" class="edge">
<title>Node10&#45;&gt;Node8</title>
<path fill="none" stroke="#191970" d="M446.2544,-199.1265C496.4295,-191.3353 570.4153,-176.363 587.5,-154 627.0094,-102.2843 561.7652,-128.4415 499.5,-98 498.8081,-97.6617 498.1095,-97.3131 497.4072,-96.9562"/>
<polygon fill="#191970" stroke="#191970" points="498.7625,-93.7104 488.3006,-92.0369 495.4355,-99.8692 498.7625,-93.7104"/>
</g>
<!-- Node10&#45;&gt;Node9 -->
<g id="edge16" class="edge">
<title>Node10&#45;&gt;Node9</title>
<path fill="none" stroke="#191970" d="M446.2917,-200.4953C501.6681,-193.5952 587.8518,-179.0775 607.5,-154 612.9822,-147.003 611.6884,-141.8402 607.5,-134 601.972,-123.6523 577.7363,-108.3724 557.9113,-97.1428"/>
<polygon fill="#191970" stroke="#191970" points="559.3577,-93.9426 548.9159,-92.148 555.9595,-100.0625 559.3577,-93.9426"/>
</g>
<!-- Node11 -->
<g id="node12" class="node">
<title>Node11</title>
<polygon fill="none" stroke="#bfbfbf" points="222.5,-134.5 222.5,-153.5 262.5,-153.5 262.5,-134.5 222.5,-134.5"/>
<text text-anchor="middle" x="242.5" y="-141.5" font-family="Helvetica,sans-Serif" font-size="10.00" fill="#000000">limits</text>
</g>
<!-- Node10&#45;&gt;Node11 -->
<g id="edge11" class="edge">
<title>Node10&#45;&gt;Node11</title>
<path fill="none" stroke="#191970" d="M360.3381,-190.4554C333.1041,-179.7189 297.0129,-165.4906 271.9807,-155.6222"/>
<polygon fill="#191970" stroke="#191970" points="273.2302,-152.3527 262.6434,-151.9411 270.6628,-158.8649 273.2302,-152.3527"/>
</g>
<!-- Node12 -->
<g id="node13" class="node">
<title>Node12</title>
<polygon fill="none" stroke="#bfbfbf" points="281,-134.5 281,-153.5 322,-153.5 322,-134.5 281,-134.5"/>
<text text-anchor="middle" x="301.5" y="-141.5" font-family="Helvetica,sans-Serif" font-size="10.00" fill="#000000">regex</text>
</g>
<!-- Node10&#45;&gt;Node12 -->
<g id="edge13" class="edge">
<title>Node10&#45;&gt;Node12</title>
<path fill="none" stroke="#191970" d="M374.5225,-190.2977C359.5624,-180.8127 340.378,-168.6495 325.4274,-159.1705"/>
<polygon fill="#191970" stroke="#191970" points="327.061,-156.062 316.7413,-153.6633 323.3127,-161.9739 327.061,-156.062"/>
</g>
<!-- Node13 -->
<g id="node14" class="node">
<title>Node13</title>
<polygon fill="none" stroke="#bfbfbf" points="340.5,-134.5 340.5,-153.5 392.5,-153.5 392.5,-134.5 340.5,-134.5"/>
<text text-anchor="middle" x="366.5" y="-141.5" font-family="Helvetica,sans-Serif" font-size="10.00" fill="#000000">sstream</text>
</g>
<!-- Node10&#45;&gt;Node13 -->
<g id="edge14" class="edge">
<title>Node10&#45;&gt;Node13</title>
<path fill="none" stroke="#191970" d="M390.5899,-190.2977C386.2868,-182.0277 380.9242,-171.7215 376.3518,-162.9339"/>
<polygon fill="#191970" stroke="#191970" points="379.3443,-161.1024 371.6236,-153.8469 373.1346,-164.3335 379.3443,-161.1024"/>
</g>
<!-- Node14 -->
<g id="node15" class="node">
<title>Node14</title>
<polygon fill="none" stroke="#bfbfbf" points="411,-134.5 411,-153.5 452,-153.5 452,-134.5 411,-134.5"/>
<text text-anchor="middle" x="431.5" y="-141.5" font-family="Helvetica,sans-Serif" font-size="10.00" fill="#000000">string</text>
</g>
<!-- Node10&#45;&gt;Node14 -->
<g id="edge15" class="edge">
<title>Node10&#45;&gt;Node14</title>
<path fill="none" stroke="#191970" d="M406.6573,-190.2977C411.0949,-182.0277 416.625,-171.7215 421.3404,-162.9339"/>
<polygon fill="#191970" stroke="#191970" points="424.5721,-164.3134 426.2163,-153.8469 418.404,-161.0037 424.5721,-164.3134"/>
</g>
<!-- Node15 -->
<g id="node16" class="node">
<title>Node15</title>
<g id="a_node16"><a xlink:href="general__exceptions_8h.html" target="_top" xlink:title="Definition of self&#45;defined general exceptions. ">
<polygon fill="none" stroke="#000000" points="470,-134.5 470,-153.5 579,-153.5 579,-134.5 470,-134.5"/>
<text text-anchor="middle" x="524.5" y="-141.5" font-family="Helvetica,sans-Serif" font-size="10.00" fill="#000000">general_exceptions.h</text>
</a>
</g>
</g>
<!-- Node10&#45;&gt;Node15 -->
<g id="edge17" class="edge">
<title>Node10&#45;&gt;Node15</title>
<path fill="none" stroke="#191970" d="M429.3231,-190.4554C449.6088,-180.554 475.9788,-167.683 495.8162,-158.0004"/>
<polygon fill="#191970" stroke="#191970" points="497.523,-161.062 504.9745,-153.5303 494.4526,-154.7714 497.523,-161.062"/>
</g>
<!-- Node16 -->
<g id="node17" class="node">
<title>Node16</title>
<g id="a_node17"><a xlink:href="lapack__helpers_8h.html" target="_top" xlink:title="Exposes LAPACK helper functions defined in lapack_full_matrix.cc and define new ones by following the...">
<polygon fill="none" stroke="#000000" points="1087.5,-134.5 1087.5,-153.5 1177.5,-153.5 1177.5,-134.5 1087.5,-134.5"/>
<text text-anchor="middle" x="1132.5" y="-141.5" font-family="Helvetica,sans-Serif" font-size="10.00" fill="#000000">lapack_helpers.h</text>
</a>
</g>
</g>
<!-- Node10&#45;&gt;Node16 -->
<g id="edge20" class="edge">
<title>Node10&#45;&gt;Node16</title>
<path fill="none" stroke="#191970" d="M446.0942,-201.5122C576.416,-190.5929 938.5607,-160.2497 1077.3733,-148.6189"/>
<polygon fill="#191970" stroke="#191970" points="1077.6952,-152.1043 1087.368,-147.7815 1077.1106,-145.1288 1077.6952,-152.1043"/>
</g>
<!-- Node15&#45;&gt;Node3 -->
<g id="edge18" class="edge">
<title>Node15&#45;&gt;Node3</title>
<path fill="none" stroke="#191970" d="M500.9063,-134.3906C475.5304,-124.0554 434.9919,-107.5447 406.4707,-95.9284"/>
<polygon fill="#191970" stroke="#191970" points="407.5096,-92.5725 396.9281,-92.0419 404.8692,-99.0554 407.5096,-92.5725"/>
</g>
<!-- Node16&#45;&gt;Node5 -->
<g id="edge26" class="edge">
<title>Node16&#45;&gt;Node5</title>
<path fill="none" stroke="#191970" d="M1087.1951,-141.9305C984.9178,-136.8477 742.8764,-122.3597 715.5,-98 699.6206,-83.8704 695.6187,-59.377 695.1424,-40.7381"/>
<polygon fill="#191970" stroke="#191970" points="698.6433,-40.5847 695.2062,-30.5629 691.6435,-40.5408 698.6433,-40.5847"/>
</g>
<!-- Node17 -->
<g id="node18" class="node">
<title>Node17</title>
<polygon fill="none" stroke="#bfbfbf" points="862.5,-73 862.5,-92 978.5,-92 978.5,-73 862.5,-73"/>
<text text-anchor="middle" x="920.5" y="-80" font-family="Helvetica,sans-Serif" font-size="10.00" fill="#000000">deal.II/base/numbers.h</text>
</g>
<!-- Node16&#45;&gt;Node17 -->
<g id="edge21" class="edge">
<title>Node16&#45;&gt;Node17</title>
<path fill="none" stroke="#191970" d="M1099.375,-134.3906C1062.6589,-123.7395 1003.3336,-106.5296 963.1662,-94.8772"/>
<polygon fill="#191970" stroke="#191970" points="963.9716,-91.4666 953.3924,-92.0419 962.0213,-98.1895 963.9716,-91.4666"/>
</g>
<!-- Node18 -->
<g id="node19" class="node">
<title>Node18</title>
<polygon fill="none" stroke="#bfbfbf" points="996.5,-67.5 996.5,-97.5 1124.5,-97.5 1124.5,-67.5 996.5,-67.5"/>
<text text-anchor="start" x="1004.5" y="-85.5" font-family="Helvetica,sans-Serif" font-size="10.00" fill="#000000">deal.II/lac/blas_extension</text>
<text text-anchor="middle" x="1060.5" y="-74.5" font-family="Helvetica,sans-Serif" font-size="10.00" fill="#000000">_templates.h</text>
</g>
<!-- Node16&#45;&gt;Node18 -->
<g id="edge22" class="edge">
<title>Node16&#45;&gt;Node18</title>
<path fill="none" stroke="#191970" d="M1121.25,-134.3906C1111.7764,-126.2986 1097.8706,-114.4207 1085.7532,-104.0705"/>
<polygon fill="#191970" stroke="#191970" points="1087.9902,-101.3782 1078.1132,-97.5446 1083.4437,-106.7008 1087.9902,-101.3782"/>
</g>
<!-- Node19 -->
<g id="node20" class="node">
<title>Node19</title>
<polygon fill="none" stroke="#bfbfbf" points="1142.5,-73 1142.5,-92 1268.5,-92 1268.5,-73 1142.5,-73"/>
<text text-anchor="middle" x="1205.5" y="-80" font-family="Helvetica,sans-Serif" font-size="10.00" fill="#000000">deal.II/lac/block_vector.h</text>
</g>
<!-- Node16&#45;&gt;Node19 -->
<g id="edge23" class="edge">
<title>Node16&#45;&gt;Node19</title>
<path fill="none" stroke="#191970" d="M1143.9063,-134.3906C1155.1969,-124.8786 1172.6967,-110.1357 1186.1619,-98.7917"/>
<polygon fill="#191970" stroke="#191970" points="1188.5402,-101.3646 1193.9329,-92.2449 1184.0301,-96.0111 1188.5402,-101.3646"/>
</g>
<!-- Node20 -->
<g id="node21" class="node">
<title>Node20</title>
<polygon fill="none" stroke="#bfbfbf" points="1286.5,-73 1286.5,-92 1402.5,-92 1402.5,-73 1286.5,-73"/>
<text text-anchor="middle" x="1344.5" y="-80" font-family="Helvetica,sans-Serif" font-size="10.00" fill="#000000">deal.II/lac/full_matrix.h</text>
</g>
<!-- Node16&#45;&gt;Node20 -->
<g id="edge24" class="edge">
<title>Node16&#45;&gt;Node20</title>
<path fill="none" stroke="#191970" d="M1165.625,-134.3906C1202.3411,-123.7395 1261.6664,-106.5296 1301.8338,-94.8772"/>
<polygon fill="#191970" stroke="#191970" points="1302.9787,-98.1895 1311.6076,-92.0419 1301.0284,-91.4666 1302.9787,-98.1895"/>
</g>
<!-- Node21 -->
<g id="node22" class="node">
<title>Node21</title>
<polygon fill="none" stroke="#bfbfbf" points="1421,-67.5 1421,-97.5 1512,-97.5 1512,-67.5 1421,-67.5"/>
<text text-anchor="start" x="1429" y="-85.5" font-family="Helvetica,sans-Serif" font-size="10.00" fill="#000000">deal.II/lac/lapack</text>
<text text-anchor="middle" x="1466.5" y="-74.5" font-family="Helvetica,sans-Serif" font-size="10.00" fill="#000000">_full_matrix.h</text>
</g>
<!-- Node16&#45;&gt;Node21 -->
<g id="edge25" class="edge">
<title>Node16&#45;&gt;Node21</title>
<path fill="none" stroke="#191970" d="M1177.7355,-138.1206C1231.1655,-130.8272 1322.8699,-117.2176 1411.0776,-97.9412"/>
<polygon fill="#191970" stroke="#191970" points="1411.9732,-101.3278 1420.9806,-95.7495 1410.4606,-94.4932 1411.9732,-101.3278"/>
</g>
<!-- Node22 -->
<g id="node23" class="node">
<title>Node22</title>
<polygon fill="none" stroke="#bfbfbf" points="1530,-67.5 1530,-97.5 1621,-97.5 1621,-67.5 1530,-67.5"/>
<text text-anchor="start" x="1538" y="-85.5" font-family="Helvetica,sans-Serif" font-size="10.00" fill="#000000">deal.II/lac/lapack</text>
<text text-anchor="middle" x="1575.5" y="-74.5" font-family="Helvetica,sans-Serif" font-size="10.00" fill="#000000">_templates.h</text>
</g>
<!-- Node16&#45;&gt;Node22 -->
<g id="edge27" class="edge">
<title>Node16&#45;&gt;Node22</title>
<path fill="none" stroke="#191970" d="M1177.5022,-141.0545C1248.4897,-135.8914 1390.8635,-123.4436 1519.9059,-98.1361"/>
<polygon fill="#191970" stroke="#191970" points="1520.8396,-101.5189 1529.9627,-96.1319 1519.4715,-94.6539 1520.8396,-101.5189"/>
</g>
<!-- Node23 -->
<g id="node24" class="node">
<title>Node23</title>
<polygon fill="none" stroke="#bfbfbf" points="1639.5,-67.5 1639.5,-97.5 1731.5,-97.5 1731.5,-67.5 1639.5,-67.5"/>
<text text-anchor="start" x="1647.5" y="-85.5" font-family="Helvetica,sans-Serif" font-size="10.00" fill="#000000">deal.II/lac/sparse</text>
<text text-anchor="middle" x="1685.5" y="-74.5" font-family="Helvetica,sans-Serif" font-size="10.00" fill="#000000">_matrix.h</text>
</g>
<!-- Node16&#45;&gt;Node23 -->
<g id="edge28" class="edge">
<title>Node16&#45;&gt;Node23</title>
<path fill="none" stroke="#191970" d="M1177.5171,-142.5923C1263.649,-139.3059 1457.7326,-129.0417 1629.4561,-97.9751"/>
<polygon fill="#191970" stroke="#191970" points="1630.2279,-101.392 1639.4307,-96.1423 1628.9628,-94.5073 1630.2279,-101.392"/>
</g>
<!-- Node24 -->
<g id="node25" class="node">
<title>Node24</title>
<polygon fill="none" stroke="#bfbfbf" points="1750,-73 1750,-92 1851,-92 1851,-73 1750,-73"/>
<text text-anchor="middle" x="1800.5" y="-80" font-family="Helvetica,sans-Serif" font-size="10.00" fill="#000000">deal.II/lac/utilities.h</text>
</g>
<!-- Node16&#45;&gt;Node24 -->
<g id="edge29" class="edge">
<title>Node16&#45;&gt;Node24</title>
<path fill="none" stroke="#191970" d="M1177.8288,-143.3104C1279.2942,-141.1701 1532.154,-132.5127 1740.5,-98 1746.2797,-97.0426 1752.3152,-95.7912 1758.2363,-94.4142"/>
<polygon fill="#191970" stroke="#191970" points="1759.152,-97.7934 1768.0277,-92.0079 1757.4814,-90.9957 1759.152,-97.7934"/>
</g>
<!-- Node25 -->
<g id="node26" class="node">
<title>Node25</title>
<polygon fill="none" stroke="#bfbfbf" points="570.5,-73 570.5,-92 668.5,-92 668.5,-73 570.5,-73"/>
<text text-anchor="middle" x="619.5" y="-80" font-family="Helvetica,sans-Serif" font-size="10.00" fill="#000000">deal.II/lac/vector.h</text>
</g>
<!-- Node16&#45;&gt;Node25 -->
<g id="edge30" class="edge">
<title>Node16&#45;&gt;Node25</title>
<path fill="none" stroke="#191970" d="M1087.1864,-141.4635C1005.7217,-136.4387 829.3272,-123.4389 682.5,-98 676.6699,-96.9899 670.5797,-95.7417 664.5817,-94.3956"/>
<polygon fill="#191970" stroke="#191970" points="665.1718,-90.9391 654.6367,-92.0626 663.573,-97.7541 665.1718,-90.9391"/>
</g>
<!-- Node26 -->
<g id="node27" class="node">
<title>Node26</title>
<g id="a_node27"><a xlink:href="lapack__templates__ext_8h.html" target="_top" xlink:title="Append more template based LAPACK functions to those existing in deal.ii. ">
<polygon fill="none" stroke="#000000" points="724.5,-73 724.5,-92 844.5,-92 844.5,-73 724.5,-73"/>
<text text-anchor="middle" x="784.5" y="-80" font-family="Helvetica,sans-Serif" font-size="10.00" fill="#000000">lapack_templates_ext.h</text>
</a>
</g>
</g>
<!-- Node16&#45;&gt;Node26 -->
<g id="edge31" class="edge">
<title>Node16&#45;&gt;Node26</title>
<path fill="none" stroke="#191970" d="M1087.4181,-137.3841C1032.1382,-129.0836 935.6599,-113.9874 853.5,-98 847.6324,-96.8582 841.5008,-95.5901 835.418,-94.285"/>
<polygon fill="#191970" stroke="#191970" points="835.7991,-90.7857 825.2823,-92.0694 834.3042,-97.6242 835.7991,-90.7857"/>
</g>
<!-- Node26&#45;&gt;Node5 -->
<g id="edge32" class="edge">
<title>Node26&#45;&gt;Node5</title>
<path fill="none" stroke="#191970" d="M771.8917,-72.9005C759.5078,-63.4718 740.2012,-48.7725 724.226,-36.6096"/>
<polygon fill="#191970" stroke="#191970" points="726.3067,-33.7948 716.2301,-30.5218 722.0663,-39.3643 726.3067,-33.7948"/>
</g>
</g>
</svg>
