<?xml version="1.0" encoding="UTF-8" standalone="no"?>
<!DOCTYPE svg PUBLIC "-//W3C//DTD SVG 1.1//EN"
 "http://www.w3.org/Graphics/SVG/1.1/DTD/svg11.dtd">
<!-- Generated by graphviz version 2.40.1 (20161225.0304)
 -->
<!-- Title: /home/jihuan/Projects/deal.ii/program/dealii&#45;9.1.1/examples/laplace&#45;bem/include/laplace_bem.h Pages: 1 -->
<svg width="2410pt" height="195pt"
 viewBox="0.00 0.00 2409.50 195.00" xmlns="http://www.w3.org/2000/svg" xmlns:xlink="http://www.w3.org/1999/xlink">
<g id="graph0" class="graph" transform="scale(1 1) rotate(0) translate(4 191)">
<title>/home/jihuan/Projects/deal.ii/program/dealii&#45;9.1.1/examples/laplace&#45;bem/include/laplace_bem.h</title>
<!-- Node0 -->
<g id="node1" class="node">
<title>Node0</title>
<polygon fill="#bfbfbf" stroke="#000000" points="1033,-134.5 1033,-186.5 1171,-186.5 1171,-134.5 1033,-134.5"/>
<text text-anchor="start" x="1041" y="-174.5" font-family="Helvetica,sans-Serif" font-size="10.00" fill="#000000">/home/jihuan/Projects</text>
<text text-anchor="start" x="1041" y="-163.5" font-family="Helvetica,sans-Serif" font-size="10.00" fill="#000000">/deal.ii/program/dealii</text>
<text text-anchor="start" x="1041" y="-152.5" font-family="Helvetica,sans-Serif" font-size="10.00" fill="#000000">&#45;9.1.1/examples/laplace</text>
<text text-anchor="middle" x="1102" y="-141.5" font-family="Helvetica,sans-Serif" font-size="10.00" fill="#000000">&#45;bem/include/laplace_bem.h</text>
</g>
<!-- Node1 -->
<g id="node2" class="node">
<title>Node1</title>
<polygon fill="none" stroke="#bfbfbf" points="0,-73 0,-92 100,-92 100,-73 0,-73"/>
<text text-anchor="middle" x="50" y="-80" font-family="Helvetica,sans-Serif" font-size="10.00" fill="#000000">deal.II/base/point.h</text>
</g>
<!-- Node0&#45;&gt;Node1 -->
<g id="edge1" class="edge">
<title>Node0&#45;&gt;Node1</title>
<path fill="none" stroke="#191970" d="M1032.9478,-157.9005C838.2608,-150.2937 287.5277,-126.7891 109,-98 103.2396,-97.0711 97.226,-95.8241 91.335,-94.439"/>
<polygon fill="#191970" stroke="#191970" points="92.1529,-91.0358 81.6029,-92.0093 90.4573,-97.8274 92.1529,-91.0358"/>
</g>
<!-- Node2 -->
<g id="node3" class="node">
<title>Node2</title>
<polygon fill="none" stroke="#bfbfbf" points="118.5,-73 118.5,-92 245.5,-92 245.5,-73 118.5,-73"/>
<text text-anchor="middle" x="182" y="-80" font-family="Helvetica,sans-Serif" font-size="10.00" fill="#000000">deal.II/base/subscriptor.h</text>
</g>
<!-- Node0&#45;&gt;Node2 -->
<g id="edge2" class="edge">
<title>Node0&#45;&gt;Node2</title>
<path fill="none" stroke="#191970" d="M1032.7666,-158.5688C887.809,-153.8284 542.0253,-138.8695 255,-98 247.5084,-96.9333 239.6353,-95.5465 231.9449,-94.0412"/>
<polygon fill="#191970" stroke="#191970" points="232.4854,-90.5794 221.9877,-92.011 231.0869,-97.4383 232.4854,-90.5794"/>
</g>
<!-- Node3 -->
<g id="node4" class="node">
<title>Node3</title>
<polygon fill="none" stroke="#bfbfbf" points="264,-73 264,-92 364,-92 364,-73 264,-73"/>
<text text-anchor="middle" x="314" y="-80" font-family="Helvetica,sans-Serif" font-size="10.00" fill="#000000">deal.II/base/table.h</text>
</g>
<!-- Node0&#45;&gt;Node3 -->
<g id="edge3" class="edge">
<title>Node0&#45;&gt;Node3</title>
<path fill="none" stroke="#191970" d="M1032.9008,-158.5168C902.8477,-153.9147 613.1689,-139.5272 373,-98 367.5212,-97.0527 361.8082,-95.842 356.1875,-94.5159"/>
<polygon fill="#191970" stroke="#191970" points="356.7901,-91.059 346.2404,-92.036 355.0967,-97.8511 356.7901,-91.059"/>
</g>
<!-- Node4 -->
<g id="node5" class="node">
<title>Node4</title>
<polygon fill="none" stroke="#bfbfbf" points="382,-67.5 382,-97.5 474,-97.5 474,-67.5 382,-67.5"/>
<text text-anchor="start" x="390" y="-85.5" font-family="Helvetica,sans-Serif" font-size="10.00" fill="#000000">deal.II/base/table</text>
<text text-anchor="middle" x="428" y="-74.5" font-family="Helvetica,sans-Serif" font-size="10.00" fill="#000000">_indices.h</text>
</g>
<!-- Node0&#45;&gt;Node4 -->
<g id="edge4" class="edge">
<title>Node0&#45;&gt;Node4</title>
<path fill="none" stroke="#191970" d="M1032.7378,-157.4436C919.5586,-151.5864 687.9911,-135.9939 484.0708,-97.998"/>
<polygon fill="#191970" stroke="#191970" points="484.5502,-94.5268 474.0748,-96.1131 483.253,-101.4056 484.5502,-94.5268"/>
</g>
<!-- Node5 -->
<g id="node6" class="node">
<title>Node5</title>
<polygon fill="none" stroke="#bfbfbf" points="492.5,-73 492.5,-92 627.5,-92 627.5,-73 492.5,-73"/>
<text text-anchor="middle" x="560" y="-80" font-family="Helvetica,sans-Serif" font-size="10.00" fill="#000000">deal.II/dofs/dof_accessor.h</text>
</g>
<!-- Node0&#45;&gt;Node5 -->
<g id="edge5" class="edge">
<title>Node0&#45;&gt;Node5</title>
<path fill="none" stroke="#191970" d="M1032.6947,-152.6942C941.4735,-142.0796 776.2505,-121.679 636,-98 628.8796,-96.7978 621.4075,-95.4192 614.0434,-93.9908"/>
<polygon fill="#191970" stroke="#191970" points="614.6011,-90.5333 604.1116,-92.0239 613.2412,-97.3999 614.6011,-90.5333"/>
</g>
<!-- Node6 -->
<g id="node7" class="node">
<title>Node6</title>
<polygon fill="none" stroke="#bfbfbf" points="645.5,-73 645.5,-92 772.5,-92 772.5,-73 645.5,-73"/>
<text text-anchor="middle" x="709" y="-80" font-family="Helvetica,sans-Serif" font-size="10.00" fill="#000000">deal.II/dofs/dof_handler.h</text>
</g>
<!-- Node0&#45;&gt;Node6 -->
<g id="edge6" class="edge">
<title>Node0&#45;&gt;Node6</title>
<path fill="none" stroke="#191970" d="M1032.9588,-147.353C968.106,-134.9235 868.3868,-115.6062 782,-98 775.9182,-96.7605 769.5563,-95.4421 763.232,-94.1177"/>
<polygon fill="#191970" stroke="#191970" points="763.877,-90.6769 753.3705,-92.0422 762.4352,-97.5268 763.877,-90.6769"/>
</g>
<!-- Node7 -->
<g id="node8" class="node">
<title>Node7</title>
<polygon fill="none" stroke="#bfbfbf" points="791,-73 791,-92 865,-92 865,-73 791,-73"/>
<text text-anchor="middle" x="828" y="-80" font-family="Helvetica,sans-Serif" font-size="10.00" fill="#000000">deal.II/fe/fe.h</text>
</g>
<!-- Node0&#45;&gt;Node7 -->
<g id="edge7" class="edge">
<title>Node0&#45;&gt;Node7</title>
<path fill="none" stroke="#191970" d="M1032.8599,-142.6532C987.5014,-130.6734 926.9947,-114.1774 874,-98 871.2041,-97.1465 868.3214,-96.2398 865.4267,-95.3098"/>
<polygon fill="#191970" stroke="#191970" points="866.2401,-91.8932 855.6473,-92.1026 864.0586,-98.5446 866.2401,-91.8932"/>
</g>
<!-- Node8 -->
<g id="node9" class="node">
<title>Node8</title>
<polygon fill="none" stroke="#bfbfbf" points="883.5,-73 883.5,-92 984.5,-92 984.5,-73 883.5,-73"/>
<text text-anchor="middle" x="934" y="-80" font-family="Helvetica,sans-Serif" font-size="10.00" fill="#000000">deal.II/fe/fe_base.h</text>
</g>
<!-- Node0&#45;&gt;Node8 -->
<g id="edge8" class="edge">
<title>Node0&#45;&gt;Node8</title>
<path fill="none" stroke="#191970" d="M1045.5911,-134.3101C1018.2332,-121.6083 986.4827,-106.867 963.8603,-96.3637"/>
<polygon fill="#191970" stroke="#191970" points="965.3073,-93.1767 954.7633,-92.1401 962.3595,-99.5258 965.3073,-93.1767"/>
</g>
<!-- Node9 -->
<g id="node10" class="node">
<title>Node9</title>
<polygon fill="none" stroke="#bfbfbf" points="1002.5,-73 1002.5,-92 1087.5,-92 1087.5,-73 1002.5,-73"/>
<text text-anchor="middle" x="1045" y="-80" font-family="Helvetica,sans-Serif" font-size="10.00" fill="#000000">deal.II/fe/fe_q.h</text>
</g>
<!-- Node0&#45;&gt;Node9 -->
<g id="edge9" class="edge">
<title>Node0&#45;&gt;Node9</title>
<path fill="none" stroke="#191970" d="M1082.7024,-134.0928C1074.5918,-122.994 1065.3673,-110.371 1058.0728,-100.389"/>
<polygon fill="#191970" stroke="#191970" points="1060.7297,-98.0927 1052.0036,-92.0839 1055.0779,-102.2229 1060.7297,-98.0927"/>
</g>
<!-- Node10 -->
<g id="node11" class="node">
<title>Node10</title>
<polygon fill="none" stroke="#bfbfbf" points="1106,-73 1106,-92 1214,-92 1214,-73 1106,-73"/>
<text text-anchor="middle" x="1160" y="-80" font-family="Helvetica,sans-Serif" font-size="10.00" fill="#000000">deal.II/fe/fe_values.h</text>
</g>
<!-- Node0&#45;&gt;Node10 -->
<g id="edge10" class="edge">
<title>Node0&#45;&gt;Node10</title>
<path fill="none" stroke="#191970" d="M1121.6362,-134.0928C1129.8891,-122.994 1139.2754,-110.371 1146.6979,-100.389"/>
<polygon fill="#191970" stroke="#191970" points="1149.7151,-102.197 1152.8735,-92.0839 1144.0978,-98.02 1149.7151,-102.197"/>
</g>
<!-- Node11 -->
<g id="node12" class="node">
<title>Node11</title>
<polygon fill="none" stroke="#bfbfbf" points="1232.5,-67.5 1232.5,-97.5 1327.5,-97.5 1327.5,-67.5 1232.5,-67.5"/>
<text text-anchor="start" x="1240.5" y="-85.5" font-family="Helvetica,sans-Serif" font-size="10.00" fill="#000000">deal.II/fe/mapping</text>
<text text-anchor="middle" x="1280" y="-74.5" font-family="Helvetica,sans-Serif" font-size="10.00" fill="#000000">_q_generic.h</text>
</g>
<!-- Node0&#45;&gt;Node11 -->
<g id="edge11" class="edge">
<title>Node0&#45;&gt;Node11</title>
<path fill="none" stroke="#191970" d="M1161.7666,-134.3101C1186.1576,-123.622 1213.8439,-111.4898 1236.2903,-101.6537"/>
<polygon fill="#191970" stroke="#191970" points="1237.81,-104.8091 1245.5644,-97.5897 1235.0004,-98.3977 1237.81,-104.8091"/>
</g>
<!-- Node12 -->
<g id="node13" class="node">
<title>Node12</title>
<polygon fill="none" stroke="#bfbfbf" points="1345.5,-73 1345.5,-92 1506.5,-92 1506.5,-73 1345.5,-73"/>
<text text-anchor="middle" x="1426" y="-80" font-family="Helvetica,sans-Serif" font-size="10.00" fill="#000000">deal.II/lac/full_matrix.templates.h</text>
</g>
<!-- Node0&#45;&gt;Node12 -->
<g id="edge12" class="edge">
<title>Node0&#45;&gt;Node12</title>
<path fill="none" stroke="#191970" d="M1171.1087,-143.8627C1232.8698,-128.9943 1321.8369,-107.5763 1376.6754,-94.3744"/>
<polygon fill="#191970" stroke="#191970" points="1377.6005,-97.7518 1386.5035,-92.0084 1375.9621,-90.9462 1377.6005,-97.7518"/>
</g>
<!-- Node13 -->
<g id="node14" class="node">
<title>Node13</title>
<polygon fill="none" stroke="#bfbfbf" points="1524.5,-73 1524.5,-92 1611.5,-92 1611.5,-73 1524.5,-73"/>
<text text-anchor="middle" x="1568" y="-80" font-family="Helvetica,sans-Serif" font-size="10.00" fill="#000000">deal.II/grid/tria.h</text>
</g>
<!-- Node0&#45;&gt;Node13 -->
<g id="edge13" class="edge">
<title>Node0&#45;&gt;Node13</title>
<path fill="none" stroke="#191970" d="M1171.2125,-152.9082C1253.6728,-143.2012 1395.3285,-124.4287 1515,-98 1519.2126,-97.0697 1523.5818,-95.9875 1527.9224,-94.8356"/>
<polygon fill="#191970" stroke="#191970" points="1529.2138,-98.1094 1537.9116,-92.0599 1527.3396,-91.365 1529.2138,-98.1094"/>
</g>
<!-- Node14 -->
<g id="node15" class="node">
<title>Node14</title>
<polygon fill="none" stroke="#bfbfbf" points="1630,-73 1630,-92 1686,-92 1686,-73 1630,-73"/>
<text text-anchor="middle" x="1658" y="-80" font-family="Helvetica,sans-Serif" font-size="10.00" fill="#000000">algorithm</text>
</g>
<!-- Node0&#45;&gt;Node14 -->
<g id="edge14" class="edge">
<title>Node0&#45;&gt;Node14</title>
<path fill="none" stroke="#191970" d="M1171.3791,-158.0036C1271.796,-153.0764 1462.8271,-138.7503 1620,-98 1622.6251,-97.3194 1625.3097,-96.4985 1627.9779,-95.5941"/>
<polygon fill="#191970" stroke="#191970" points="1629.2961,-98.8379 1637.4347,-92.0545 1626.8423,-92.2821 1629.2961,-98.8379"/>
</g>
<!-- Node15 -->
<g id="node16" class="node">
<title>Node15</title>
<polygon fill="none" stroke="#bfbfbf" points="1704,-73 1704,-92 1742,-92 1742,-73 1704,-73"/>
<text text-anchor="middle" x="1723" y="-80" font-family="Helvetica,sans-Serif" font-size="10.00" fill="#000000">array</text>
</g>
<!-- Node0&#45;&gt;Node15 -->
<g id="edge15" class="edge">
<title>Node0&#45;&gt;Node15</title>
<path fill="none" stroke="#191970" d="M1171.0831,-156.6821C1305.808,-148.6692 1598.8572,-128.2992 1695,-98 1696.4242,-97.5512 1697.8579,-97.0258 1699.2835,-96.4448"/>
<polygon fill="#191970" stroke="#191970" points="1700.9174,-99.5423 1708.3858,-92.0275 1697.8611,-93.2447 1700.9174,-99.5423"/>
</g>
<!-- Node16 -->
<g id="node17" class="node">
<title>Node16</title>
<polygon fill="none" stroke="#bfbfbf" points="1693,-6 1693,-25 1737,-25 1737,-6 1693,-6"/>
<text text-anchor="middle" x="1715" y="-13" font-family="Helvetica,sans-Serif" font-size="10.00" fill="#000000">cmath</text>
</g>
<!-- Node0&#45;&gt;Node16 -->
<g id="edge16" class="edge">
<title>Node0&#45;&gt;Node16</title>
<path fill="none" stroke="#191970" d="M1171.0225,-158.9865C1330.2326,-154.7827 1712.5417,-140.3398 1751,-98 1768.221,-79.0409 1748.6351,-50.542 1732.3132,-32.4898"/>
<polygon fill="#191970" stroke="#191970" points="1734.6169,-29.8335 1725.1876,-25.0024 1729.5462,-34.6592 1734.6169,-29.8335"/>
</g>
<!-- Node17 -->
<g id="node18" class="node">
<title>Node17</title>
<polygon fill="none" stroke="#bfbfbf" points="1798,-73 1798,-92 1842,-92 1842,-73 1798,-73"/>
<text text-anchor="middle" x="1820" y="-80" font-family="Helvetica,sans-Serif" font-size="10.00" fill="#000000">vector</text>
</g>
<!-- Node0&#45;&gt;Node17 -->
<g id="edge17" class="edge">
<title>Node0&#45;&gt;Node17</title>
<path fill="none" stroke="#191970" d="M1171.0417,-156.9354C1320.3965,-148.7752 1669.2715,-127.17 1784,-98 1786.4813,-97.3691 1789.0109,-96.5889 1791.521,-95.7168"/>
<polygon fill="#191970" stroke="#191970" points="1792.9264,-98.9253 1800.9617,-92.0199 1790.374,-92.4072 1792.9264,-98.9253"/>
</g>
<!-- Node18 -->
<g id="node19" class="node">
<title>Node18</title>
<g id="a_node19"><a xlink:href="quadrature_8templates_8h_source.html" target="_top" xlink:title="quadrature.templates.h">
<polygon fill="none" stroke="#000000" points="1969,-73 1969,-92 2085,-92 2085,-73 1969,-73"/>
<text text-anchor="middle" x="2027" y="-80" font-family="Helvetica,sans-Serif" font-size="10.00" fill="#000000">quadrature.templates.h</text>
</a>
</g>
</g>
<!-- Node0&#45;&gt;Node18 -->
<g id="edge18" class="edge">
<title>Node0&#45;&gt;Node18</title>
<path fill="none" stroke="#191970" d="M1171.1948,-154.8328C1303.3338,-143.9868 1600.7318,-119.462 1851,-98 1886.4366,-94.9611 1925.8786,-91.4952 1958.4278,-88.6126"/>
<polygon fill="#191970" stroke="#191970" points="1959.0879,-92.0679 1968.7398,-87.6984 1958.4697,-85.0952 1959.0879,-92.0679"/>
</g>
<!-- Node18&#45;&gt;Node16 -->
<g id="edge23" class="edge">
<title>Node18&#45;&gt;Node16</title>
<path fill="none" stroke="#191970" d="M1968.7581,-76.6852C1911.0786,-69.8045 1820.7953,-55.9903 1746,-31 1744.3913,-30.4625 1742.7611,-29.8555 1741.1335,-29.2007"/>
<polygon fill="#191970" stroke="#191970" points="1742.5642,-26.0065 1732.0099,-25.0809 1739.6834,-32.3863 1742.5642,-26.0065"/>
</g>
<!-- Node19 -->
<g id="node20" class="node">
<title>Node19</title>
<polygon fill="none" stroke="#bfbfbf" points="1755,-.5 1755,-30.5 1861,-30.5 1861,-.5 1755,-.5"/>
<text text-anchor="start" x="1763" y="-18.5" font-family="Helvetica,sans-Serif" font-size="10.00" fill="#000000">deal.II/base/memory</text>
<text text-anchor="middle" x="1808" y="-7.5" font-family="Helvetica,sans-Serif" font-size="10.00" fill="#000000">_consumption.h</text>
</g>
<!-- Node18&#45;&gt;Node19 -->
<g id="edge19" class="edge">
<title>Node18&#45;&gt;Node19</title>
<path fill="none" stroke="#191970" d="M1995.6226,-72.9005C1962.1174,-62.6501 1908.2502,-46.1702 1866.8109,-33.4924"/>
<polygon fill="#191970" stroke="#191970" points="1867.6874,-30.1005 1857.101,-30.5218 1865.6395,-36.7942 1867.6874,-30.1005"/>
</g>
<!-- Node20 -->
<g id="node21" class="node">
<title>Node20</title>
<polygon fill="none" stroke="#bfbfbf" points="1879.5,-6 1879.5,-25 2004.5,-25 2004.5,-6 1879.5,-6"/>
<text text-anchor="middle" x="1942" y="-13" font-family="Helvetica,sans-Serif" font-size="10.00" fill="#000000">deal.II/base/quadrature.h</text>
</g>
<!-- Node18&#45;&gt;Node20 -->
<g id="edge20" class="edge">
<title>Node18&#45;&gt;Node20</title>
<path fill="none" stroke="#191970" d="M2014.8216,-72.9005C2001.0616,-62.0544 1978.4535,-44.2339 1962.0738,-31.3229"/>
<polygon fill="#191970" stroke="#191970" points="1964.1761,-28.5234 1954.1558,-25.0817 1959.8427,-34.0209 1964.1761,-28.5234"/>
</g>
<!-- Node21 -->
<g id="node22" class="node">
<title>Node21</title>
<polygon fill="none" stroke="#bfbfbf" points="2023,-.5 2023,-30.5 2139,-30.5 2139,-.5 2023,-.5"/>
<text text-anchor="start" x="2031" y="-18.5" font-family="Helvetica,sans-Serif" font-size="10.00" fill="#000000">deal.II/base/quadrature</text>
<text text-anchor="middle" x="2081" y="-7.5" font-family="Helvetica,sans-Serif" font-size="10.00" fill="#000000">_lib.h</text>
</g>
<!-- Node18&#45;&gt;Node21 -->
<g id="edge21" class="edge">
<title>Node18&#45;&gt;Node21</title>
<path fill="none" stroke="#191970" d="M2034.7369,-72.9005C2041.9178,-63.9908 2052.892,-50.3748 2062.3499,-38.6399"/>
<polygon fill="#191970" stroke="#191970" points="2065.3427,-40.5041 2068.8929,-30.5218 2059.8925,-36.1114 2065.3427,-40.5041"/>
</g>
<!-- Node22 -->
<g id="node23" class="node">
<title>Node22</title>
<polygon fill="none" stroke="#bfbfbf" points="2157,-.5 2157,-30.5 2273,-30.5 2273,-.5 2157,-.5"/>
<text text-anchor="start" x="2165" y="-18.5" font-family="Helvetica,sans-Serif" font-size="10.00" fill="#000000">deal.II/base/std_cxx14</text>
<text text-anchor="middle" x="2215" y="-7.5" font-family="Helvetica,sans-Serif" font-size="10.00" fill="#000000">/memory.h</text>
</g>
<!-- Node18&#45;&gt;Node22 -->
<g id="edge22" class="edge">
<title>Node18&#45;&gt;Node22</title>
<path fill="none" stroke="#191970" d="M2053.9358,-72.9005C2082.3342,-62.7798 2127.7726,-46.5864 2163.158,-33.9756"/>
<polygon fill="#191970" stroke="#191970" points="2164.6047,-37.1757 2172.8494,-30.5218 2162.2547,-30.582 2164.6047,-37.1757"/>
</g>
<!-- Node23 -->
<g id="node24" class="node">
<title>Node23</title>
<polygon fill="none" stroke="#bfbfbf" points="2291.5,-6 2291.5,-25 2336.5,-25 2336.5,-6 2291.5,-6"/>
<text text-anchor="middle" x="2314" y="-13" font-family="Helvetica,sans-Serif" font-size="10.00" fill="#000000">cstdlib</text>
</g>
<!-- Node18&#45;&gt;Node23 -->
<g id="edge24" class="edge">
<title>Node18&#45;&gt;Node23</title>
<path fill="none" stroke="#191970" d="M2085.0526,-75.0328C2137.4564,-67.2979 2216.1984,-53.1845 2282,-31 2283.6488,-30.4441 2285.3225,-29.8227 2286.9956,-29.157"/>
<polygon fill="#191970" stroke="#191970" points="2288.6601,-32.2481 2296.394,-25.0067 2285.8323,-25.8446 2288.6601,-32.2481"/>
</g>
<!-- Node24 -->
<g id="node25" class="node">
<title>Node24</title>
<polygon fill="none" stroke="#bfbfbf" points="2354.5,-6 2354.5,-25 2401.5,-25 2401.5,-6 2354.5,-6"/>
<text text-anchor="middle" x="2378" y="-13" font-family="Helvetica,sans-Serif" font-size="10.00" fill="#000000">iterator</text>
</g>
<!-- Node18&#45;&gt;Node24 -->
<g id="edge25" class="edge">
<title>Node18&#45;&gt;Node24</title>
<path fill="none" stroke="#191970" d="M2085.216,-78.2138C2150.0738,-72.2717 2257.4569,-58.9304 2346,-31 2347.6594,-30.4766 2349.3413,-29.8805 2351.0207,-29.2341"/>
<polygon fill="#191970" stroke="#191970" points="2352.6633,-32.3364 2360.4367,-25.1374 2349.8706,-25.9176 2352.6633,-32.3364"/>
</g>
</g>
</svg>
