<?xml version="1.0" encoding="UTF-8" standalone="no"?>
<!DOCTYPE svg PUBLIC "-//W3C//DTD SVG 1.1//EN"
 "http://www.w3.org/Graphics/SVG/1.1/DTD/svg11.dtd">
<!-- Generated by graphviz version 2.40.1 (20161225.0304)
 -->
<!-- Title: /home/jihuan/Projects/deal.ii/program/dealii&#45;9.1.1/examples/laplace&#45;bem/include/laplace_bem.h Pages: 1 -->
<!--zoomable 195 -->
<svg id="main" version="1.1" xmlns="http://www.w3.org/2000/svg" xmlns:xlink="http://www.w3.org/1999/xlink" xml:space="preserve" onload="init(evt)">
<style type="text/css"><![CDATA[
.edge:hover path { stroke: red; }
.edge:hover polygon { stroke: red; fill: red; }
]]></style>
<script type="text/javascript"><![CDATA[
var edges = document.getElementsByTagName('g');
if (edges && edges.length) {
  for (var i=0;i<edges.length;i++) {
    if (edges[i].id.substr(0,4)=='edge') {
      edges[i].setAttribute('class','edge');
    }
  }
}
]]></script>
        <defs>
                <circle id="rim" cx="0" cy="0" r="7"/>
                <circle id="rim2" cx="0" cy="0" r="3.5"/>
                <g id="zoomPlus">
                        <use xlink:href="#rim" fill="#404040">
                                <set attributeName="fill" to="#808080" begin="zoomplus.mouseover" end="zoomplus.mouseout"/>
                        </use>
                        <path d="M-4,0h8M0,-4v8" fill="none" stroke="white" stroke-width="1.5" pointer-events="none"/>
                </g>
                <g id="zoomMin">
                        <use xlink:href="#rim" fill="#404040">
                                <set attributeName="fill" to="#808080" begin="zoomminus.mouseover" end="zoomminus.mouseout"/>
                        </use>
                        <path d="M-4,0h8" fill="none" stroke="white" stroke-width="1.5" pointer-events="none"/>
                </g>
                <g id="dirArrow">
                        <path fill="none" stroke="white" stroke-width="1.5" d="M0,-3.0v7 M-2.5,-0.5L0,-3.0L2.5,-0.5"/>
                </g>
               <g id="resetDef">
                       <use xlink:href="#rim2" fill="#404040">
                               <set attributeName="fill" to="#808080" begin="reset.mouseover" end="reset.mouseout"/>
                       </use>
               </g>
        </defs>

<script type="text/javascript">
var viewWidth = 2529;
var viewHeight = 195;
var sectionId = 'dynsection-0';
</script>
<script xlink:href="svgpan.js"/>
<svg id="graph" class="graph">
<g id="viewport">
<title>/home/jihuan/Projects/deal.ii/program/dealii&#45;9.1.1/examples/laplace&#45;bem/include/laplace_bem.h</title>
<!-- Node0 -->
<g id="node1" class="node">
<title>Node0</title>
<polygon fill="#bfbfbf" stroke="#000000" points="1087,-134.5 1087,-186.5 1225,-186.5 1225,-134.5 1087,-134.5"/>
<text text-anchor="start" x="1095" y="-174.5" font-family="Helvetica,sans-Serif" font-size="10.00" fill="#000000">/home/jihuan/Projects</text>
<text text-anchor="start" x="1095" y="-163.5" font-family="Helvetica,sans-Serif" font-size="10.00" fill="#000000">/deal.ii/program/dealii</text>
<text text-anchor="start" x="1095" y="-152.5" font-family="Helvetica,sans-Serif" font-size="10.00" fill="#000000">&#45;9.1.1/examples/laplace</text>
<text text-anchor="middle" x="1156" y="-141.5" font-family="Helvetica,sans-Serif" font-size="10.00" fill="#000000">&#45;bem/include/laplace_bem.h</text>
</g>
<!-- Node1 -->
<g id="node2" class="node">
<title>Node1</title>
<polygon fill="none" stroke="#bfbfbf" points="0,-73 0,-92 100,-92 100,-73 0,-73"/>
<text text-anchor="middle" x="50" y="-80" font-family="Helvetica,sans-Serif" font-size="10.00" fill="#000000">deal.II/base/point.h</text>
</g>
<!-- Node0&#45;&gt;Node1 -->
<g id="edge1" class="edge">
<title>Node0&#45;&gt;Node1</title>
<path fill="none" stroke="#191970" d="M1086.83,-158.1541C884.8701,-151.0218 298.3715,-128.2237 109,-98 103.2381,-97.0804 97.2237,-95.8387 91.3323,-94.4562"/>
<polygon fill="#191970" stroke="#191970" points="92.1496,-91.0529 81.5998,-92.0285 90.4554,-97.8448 92.1496,-91.0529"/>
</g>
<!-- Node2 -->
<g id="node3" class="node">
<title>Node2</title>
<polygon fill="none" stroke="#bfbfbf" points="118.5,-73 118.5,-92 245.5,-92 245.5,-73 118.5,-73"/>
<text text-anchor="middle" x="182" y="-80" font-family="Helvetica,sans-Serif" font-size="10.00" fill="#000000">deal.II/base/subscriptor.h</text>
</g>
<!-- Node0&#45;&gt;Node2 -->
<g id="edge2" class="edge">
<title>Node0&#45;&gt;Node2</title>
<path fill="none" stroke="#191970" d="M1086.9913,-159.0026C935.6421,-154.9995 563.4288,-141.225 255,-98 247.506,-96.9498 239.6318,-95.5719 231.9408,-94.0707"/>
<polygon fill="#191970" stroke="#191970" points="232.4804,-90.6088 221.9832,-92.0431 231.0837,-97.4681 232.4804,-90.6088"/>
</g>
<!-- Node3 -->
<g id="node4" class="node">
<title>Node3</title>
<polygon fill="none" stroke="#bfbfbf" points="264,-73 264,-92 364,-92 364,-73 264,-73"/>
<text text-anchor="middle" x="314" y="-80" font-family="Helvetica,sans-Serif" font-size="10.00" fill="#000000">deal.II/base/table.h</text>
</g>
<!-- Node0&#45;&gt;Node3 -->
<g id="edge3" class="edge">
<title>Node0&#45;&gt;Node3</title>
<path fill="none" stroke="#191970" d="M1086.8909,-159.0892C949.8084,-155.3886 634.1566,-142.3669 373,-98 367.5185,-97.0688 361.8038,-95.8676 356.1823,-94.5464"/>
<polygon fill="#191970" stroke="#191970" points="356.7837,-91.0894 346.2344,-92.0709 355.0933,-97.8822 356.7837,-91.0894"/>
</g>
<!-- Node4 -->
<g id="node5" class="node">
<title>Node4</title>
<polygon fill="none" stroke="#bfbfbf" points="382,-67.5 382,-97.5 474,-97.5 474,-67.5 382,-67.5"/>
<text text-anchor="start" x="390" y="-85.5" font-family="Helvetica,sans-Serif" font-size="10.00" fill="#000000">deal.II/base/table</text>
<text text-anchor="middle" x="428" y="-74.5" font-family="Helvetica,sans-Serif" font-size="10.00" fill="#000000">_indices.h</text>
</g>
<!-- Node0&#45;&gt;Node4 -->
<g id="edge4" class="edge">
<title>Node0&#45;&gt;Node4</title>
<path fill="none" stroke="#191970" d="M1086.6416,-158.2202C965.7569,-153.3383 708.7213,-138.9311 484.0669,-97.9844"/>
<polygon fill="#191970" stroke="#191970" points="484.5386,-94.5124 474.0696,-96.1406 483.2689,-101.3963 484.5386,-94.5124"/>
</g>
<!-- Node5 -->
<g id="node6" class="node">
<title>Node5</title>
<polygon fill="none" stroke="#bfbfbf" points="492.5,-73 492.5,-92 627.5,-92 627.5,-73 492.5,-73"/>
<text text-anchor="middle" x="560" y="-80" font-family="Helvetica,sans-Serif" font-size="10.00" fill="#000000">deal.II/dofs/dof_accessor.h</text>
</g>
<!-- Node0&#45;&gt;Node5 -->
<g id="edge5" class="edge">
<title>Node0&#45;&gt;Node5</title>
<path fill="none" stroke="#191970" d="M1086.7751,-153.9938C986.8852,-144.1946 796.6709,-123.9955 636,-98 628.7801,-96.8319 621.2029,-95.4617 613.745,-94.0279"/>
<polygon fill="#191970" stroke="#191970" points="614.182,-90.5467 603.6938,-92.0461 612.8278,-97.4145 614.182,-90.5467"/>
</g>
<!-- Node6 -->
<g id="node7" class="node">
<title>Node6</title>
<polygon fill="none" stroke="#bfbfbf" points="645.5,-73 645.5,-92 772.5,-92 772.5,-73 645.5,-73"/>
<text text-anchor="middle" x="709" y="-80" font-family="Helvetica,sans-Serif" font-size="10.00" fill="#000000">deal.II/dofs/dof_handler.h</text>
</g>
<!-- Node0&#45;&gt;Node6 -->
<g id="edge6" class="edge">
<title>Node0&#45;&gt;Node6</title>
<path fill="none" stroke="#191970" d="M1086.9084,-149.8793C1011.7294,-138.1071 888.0725,-118.1142 782,-98 775.7348,-96.8119 769.1803,-95.5078 762.6794,-94.1761"/>
<polygon fill="#191970" stroke="#191970" points="763.0598,-90.6804 752.5569,-92.0734 761.6361,-97.5342 763.0598,-90.6804"/>
</g>
<!-- Node7 -->
<g id="node8" class="node">
<title>Node7</title>
<polygon fill="none" stroke="#bfbfbf" points="791,-73 791,-92 865,-92 865,-73 791,-73"/>
<text text-anchor="middle" x="828" y="-80" font-family="Helvetica,sans-Serif" font-size="10.00" fill="#000000">deal.II/fe/fe.h</text>
</g>
<!-- Node0&#45;&gt;Node7 -->
<g id="edge7" class="edge">
<title>Node0&#45;&gt;Node7</title>
<path fill="none" stroke="#191970" d="M1086.8229,-147.3175C1029.4203,-135.8661 945.8592,-118.0081 874,-98 870.8338,-97.1184 867.5647,-96.1457 864.2975,-95.1301"/>
<polygon fill="#191970" stroke="#191970" points="865.1984,-91.7431 854.6067,-92.0028 863.0485,-98.4048 865.1984,-91.7431"/>
</g>
<!-- Node8 -->
<g id="node9" class="node">
<title>Node8</title>
<polygon fill="none" stroke="#bfbfbf" points="883.5,-73 883.5,-92 984.5,-92 984.5,-73 883.5,-73"/>
<text text-anchor="middle" x="934" y="-80" font-family="Helvetica,sans-Serif" font-size="10.00" fill="#000000">deal.II/fe/fe_base.h</text>
</g>
<!-- Node0&#45;&gt;Node8 -->
<g id="edge8" class="edge">
<title>Node0&#45;&gt;Node8</title>
<path fill="none" stroke="#191970" d="M1086.9747,-136.2479C1048.614,-122.7698 1002.4095,-106.5358 970.8873,-95.4604"/>
<polygon fill="#191970" stroke="#191970" points="971.7921,-92.0686 961.1972,-92.0558 969.4716,-98.6728 971.7921,-92.0686"/>
</g>
<!-- Node9 -->
<g id="node10" class="node">
<title>Node9</title>
<polygon fill="none" stroke="#bfbfbf" points="1002.5,-73 1002.5,-92 1087.5,-92 1087.5,-73 1002.5,-73"/>
<text text-anchor="middle" x="1045" y="-80" font-family="Helvetica,sans-Serif" font-size="10.00" fill="#000000">deal.II/fe/fe_q.h</text>
</g>
<!-- Node0&#45;&gt;Node9 -->
<g id="edge9" class="edge">
<title>Node0&#45;&gt;Node9</title>
<path fill="none" stroke="#191970" d="M1118.7298,-134.3101C1101.6224,-122.2887 1081.9154,-108.4405 1067.1819,-98.0873"/>
<polygon fill="#191970" stroke="#191970" points="1068.9129,-95.0259 1058.7186,-92.1401 1064.8882,-100.7533 1068.9129,-95.0259"/>
</g>
<!-- Node10 -->
<g id="node11" class="node">
<title>Node10</title>
<polygon fill="none" stroke="#bfbfbf" points="1105.5,-73 1105.5,-92 1206.5,-92 1206.5,-73 1105.5,-73"/>
<text text-anchor="middle" x="1156" y="-80" font-family="Helvetica,sans-Serif" font-size="10.00" fill="#000000">deal.II/fe/fe_tools.h</text>
</g>
<!-- Node0&#45;&gt;Node10 -->
<g id="edge10" class="edge">
<title>Node0&#45;&gt;Node10</title>
<path fill="none" stroke="#191970" d="M1156,-134.0928C1156,-123.6735 1156,-111.911 1156,-102.2512"/>
<polygon fill="#191970" stroke="#191970" points="1159.5001,-102.0838 1156,-92.0839 1152.5001,-102.0839 1159.5001,-102.0838"/>
</g>
<!-- Node11 -->
<g id="node12" class="node">
<title>Node11</title>
<polygon fill="none" stroke="#bfbfbf" points="1225,-73 1225,-92 1333,-92 1333,-73 1225,-73"/>
<text text-anchor="middle" x="1279" y="-80" font-family="Helvetica,sans-Serif" font-size="10.00" fill="#000000">deal.II/fe/fe_values.h</text>
</g>
<!-- Node0&#45;&gt;Node11 -->
<g id="edge11" class="edge">
<title>Node0&#45;&gt;Node11</title>
<path fill="none" stroke="#191970" d="M1197.2994,-134.3101C1216.6139,-122.0619 1238.9189,-107.9173 1255.3383,-97.505"/>
<polygon fill="#191970" stroke="#191970" points="1257.2276,-100.4514 1263.7983,-92.1401 1253.4788,-94.5398 1257.2276,-100.4514"/>
</g>
<!-- Node12 -->
<g id="node13" class="node">
<title>Node12</title>
<polygon fill="none" stroke="#bfbfbf" points="1351.5,-67.5 1351.5,-97.5 1446.5,-97.5 1446.5,-67.5 1351.5,-67.5"/>
<text text-anchor="start" x="1359.5" y="-85.5" font-family="Helvetica,sans-Serif" font-size="10.00" fill="#000000">deal.II/fe/mapping</text>
<text text-anchor="middle" x="1399" y="-74.5" font-family="Helvetica,sans-Serif" font-size="10.00" fill="#000000">_q_generic.h</text>
</g>
<!-- Node0&#45;&gt;Node12 -->
<g id="edge12" class="edge">
<title>Node0&#45;&gt;Node12</title>
<path fill="none" stroke="#191970" d="M1225.3088,-138.2527C1262.3662,-126.3578 1307.4209,-111.8957 1342.356,-100.682"/>
<polygon fill="#191970" stroke="#191970" points="1343.4743,-103.999 1351.926,-97.6102 1341.3348,-97.334 1343.4743,-103.999"/>
</g>
<!-- Node13 -->
<g id="node14" class="node">
<title>Node13</title>
<polygon fill="none" stroke="#bfbfbf" points="1464.5,-73 1464.5,-92 1625.5,-92 1625.5,-73 1464.5,-73"/>
<text text-anchor="middle" x="1545" y="-80" font-family="Helvetica,sans-Serif" font-size="10.00" fill="#000000">deal.II/lac/full_matrix.templates.h</text>
</g>
<!-- Node0&#45;&gt;Node13 -->
<g id="edge13" class="edge">
<title>Node0&#45;&gt;Node13</title>
<path fill="none" stroke="#191970" d="M1225.0972,-146.645C1299.8023,-131.6656 1417.5343,-108.0587 1487.4175,-94.0461"/>
<polygon fill="#191970" stroke="#191970" points="1488.2535,-97.4482 1497.3702,-92.0505 1486.8772,-90.5848 1488.2535,-97.4482"/>
</g>
<!-- Node14 -->
<g id="node15" class="node">
<title>Node14</title>
<polygon fill="none" stroke="#bfbfbf" points="1643.5,-73 1643.5,-92 1730.5,-92 1730.5,-73 1643.5,-73"/>
<text text-anchor="middle" x="1687" y="-80" font-family="Helvetica,sans-Serif" font-size="10.00" fill="#000000">deal.II/grid/tria.h</text>
</g>
<!-- Node0&#45;&gt;Node14 -->
<g id="edge14" class="edge">
<title>Node0&#45;&gt;Node14</title>
<path fill="none" stroke="#191970" d="M1225.0322,-154.8488C1318.4672,-146.4344 1490.0586,-128.269 1634,-98 1638.4475,-97.0648 1643.0652,-95.9444 1647.6377,-94.7395"/>
<polygon fill="#191970" stroke="#191970" points="1648.7912,-98.0517 1657.4916,-92.0058 1646.9199,-91.3065 1648.7912,-98.0517"/>
</g>
<!-- Node15 -->
<g id="node16" class="node">
<title>Node15</title>
<polygon fill="none" stroke="#bfbfbf" points="1749,-73 1749,-92 1805,-92 1805,-73 1749,-73"/>
<text text-anchor="middle" x="1777" y="-80" font-family="Helvetica,sans-Serif" font-size="10.00" fill="#000000">algorithm</text>
</g>
<!-- Node0&#45;&gt;Node15 -->
<g id="edge15" class="edge">
<title>Node0&#45;&gt;Node15</title>
<path fill="none" stroke="#191970" d="M1225.1762,-155.5268C1357.8191,-145.5883 1643.2565,-122.1462 1739,-98 1741.6296,-97.3368 1744.3173,-96.5282 1746.9876,-95.6321"/>
<polygon fill="#191970" stroke="#191970" points="1748.2997,-98.8783 1756.448,-92.1067 1745.8553,-92.319 1748.2997,-98.8783"/>
</g>
<!-- Node16 -->
<g id="node17" class="node">
<title>Node16</title>
<polygon fill="none" stroke="#bfbfbf" points="1823,-73 1823,-92 1861,-92 1861,-73 1823,-73"/>
<text text-anchor="middle" x="1842" y="-80" font-family="Helvetica,sans-Serif" font-size="10.00" fill="#000000">array</text>
</g>
<!-- Node0&#45;&gt;Node16 -->
<g id="edge16" class="edge">
<title>Node0&#45;&gt;Node16</title>
<path fill="none" stroke="#191970" d="M1225.0341,-157.5144C1370.7836,-150.6311 1705.4073,-131.6084 1814,-98 1815.4265,-97.5585 1816.862,-97.0389 1818.2891,-96.4624"/>
<polygon fill="#191970" stroke="#191970" points="1819.9167,-99.5631 1827.3955,-92.0586 1816.8692,-93.2613 1819.9167,-99.5631"/>
</g>
<!-- Node17 -->
<g id="node18" class="node">
<title>Node17</title>
<polygon fill="none" stroke="#bfbfbf" points="1812,-6 1812,-25 1856,-25 1856,-6 1812,-6"/>
<text text-anchor="middle" x="1834" y="-13" font-family="Helvetica,sans-Serif" font-size="10.00" fill="#000000">cmath</text>
</g>
<!-- Node0&#45;&gt;Node17 -->
<g id="edge17" class="edge">
<title>Node0&#45;&gt;Node17</title>
<path fill="none" stroke="#191970" d="M1225.2163,-159.6346C1396.0344,-156.7832 1826.9702,-144.961 1870,-98 1887.3032,-79.1159 1867.6943,-50.596 1851.3452,-32.5189"/>
<polygon fill="#191970" stroke="#191970" points="1853.637,-29.8502 1844.2071,-25.0202 1848.5668,-34.6765 1853.637,-29.8502"/>
</g>
<!-- Node18 -->
<g id="node19" class="node">
<title>Node18</title>
<polygon fill="none" stroke="#bfbfbf" points="1917,-73 1917,-92 1961,-92 1961,-73 1917,-73"/>
<text text-anchor="middle" x="1939" y="-80" font-family="Helvetica,sans-Serif" font-size="10.00" fill="#000000">vector</text>
</g>
<!-- Node0&#45;&gt;Node18 -->
<g id="edge18" class="edge">
<title>Node0&#45;&gt;Node18</title>
<path fill="none" stroke="#191970" d="M1225.2621,-157.5597C1385.0756,-150.3144 1775.6416,-129.8452 1903,-98 1905.4838,-97.3789 1908.0151,-96.6056 1910.5264,-95.7382"/>
<polygon fill="#191970" stroke="#191970" points="1911.9282,-98.9483 1919.9692,-92.0496 1909.3811,-92.4281 1911.9282,-98.9483"/>
</g>
<!-- Node19 -->
<g id="node20" class="node">
<title>Node19</title>
<g id="a_node20"><a xlink:href="quadrature_8templates_8h_source.html" target="_top" xlink:title="quadrature.templates.h">
<polygon fill="none" stroke="#000000" points="2088,-73 2088,-92 2204,-92 2204,-73 2088,-73"/>
<text text-anchor="middle" x="2146" y="-80" font-family="Helvetica,sans-Serif" font-size="10.00" fill="#000000">quadrature.templates.h</text>
</a>
</g>
</g>
<!-- Node0&#45;&gt;Node19 -->
<g id="edge19" class="edge">
<title>Node0&#45;&gt;Node19</title>
<path fill="none" stroke="#191970" d="M1225.1676,-155.4521C1365.5941,-145.1455 1694.1969,-120.7323 1970,-98 2005.4465,-95.0784 2044.8894,-91.6236 2077.4367,-88.7179"/>
<polygon fill="#191970" stroke="#191970" points="2078.0997,-92.1727 2087.7479,-87.7952 2077.4757,-85.2005 2078.0997,-92.1727"/>
</g>
<!-- Node19&#45;&gt;Node17 -->
<g id="edge24" class="edge">
<title>Node19&#45;&gt;Node17</title>
<path fill="none" stroke="#191970" d="M2087.7581,-76.6852C2030.0786,-69.8045 1939.7953,-55.9903 1865,-31 1863.3913,-30.4625 1861.7611,-29.8555 1860.1335,-29.2007"/>
<polygon fill="#191970" stroke="#191970" points="1861.5642,-26.0065 1851.0099,-25.0809 1858.6834,-32.3863 1861.5642,-26.0065"/>
</g>
<!-- Node20 -->
<g id="node21" class="node">
<title>Node20</title>
<polygon fill="none" stroke="#bfbfbf" points="1874,-.5 1874,-30.5 1980,-30.5 1980,-.5 1874,-.5"/>
<text text-anchor="start" x="1882" y="-18.5" font-family="Helvetica,sans-Serif" font-size="10.00" fill="#000000">deal.II/base/memory</text>
<text text-anchor="middle" x="1927" y="-7.5" font-family="Helvetica,sans-Serif" font-size="10.00" fill="#000000">_consumption.h</text>
</g>
<!-- Node19&#45;&gt;Node20 -->
<g id="edge20" class="edge">
<title>Node19&#45;&gt;Node20</title>
<path fill="none" stroke="#191970" d="M2114.6226,-72.9005C2081.1174,-62.6501 2027.2502,-46.1702 1985.8109,-33.4924"/>
<polygon fill="#191970" stroke="#191970" points="1986.6874,-30.1005 1976.101,-30.5218 1984.6395,-36.7942 1986.6874,-30.1005"/>
</g>
<!-- Node21 -->
<g id="node22" class="node">
<title>Node21</title>
<polygon fill="none" stroke="#bfbfbf" points="1998.5,-6 1998.5,-25 2123.5,-25 2123.5,-6 1998.5,-6"/>
<text text-anchor="middle" x="2061" y="-13" font-family="Helvetica,sans-Serif" font-size="10.00" fill="#000000">deal.II/base/quadrature.h</text>
</g>
<!-- Node19&#45;&gt;Node21 -->
<g id="edge21" class="edge">
<title>Node19&#45;&gt;Node21</title>
<path fill="none" stroke="#191970" d="M2133.8216,-72.9005C2120.0616,-62.0544 2097.4535,-44.2339 2081.0738,-31.3229"/>
<polygon fill="#191970" stroke="#191970" points="2083.1761,-28.5234 2073.1558,-25.0817 2078.8427,-34.0209 2083.1761,-28.5234"/>
</g>
<!-- Node22 -->
<g id="node23" class="node">
<title>Node22</title>
<polygon fill="none" stroke="#bfbfbf" points="2142,-.5 2142,-30.5 2258,-30.5 2258,-.5 2142,-.5"/>
<text text-anchor="start" x="2150" y="-18.5" font-family="Helvetica,sans-Serif" font-size="10.00" fill="#000000">deal.II/base/quadrature</text>
<text text-anchor="middle" x="2200" y="-7.5" font-family="Helvetica,sans-Serif" font-size="10.00" fill="#000000">_lib.h</text>
</g>
<!-- Node19&#45;&gt;Node22 -->
<g id="edge22" class="edge">
<title>Node19&#45;&gt;Node22</title>
<path fill="none" stroke="#191970" d="M2153.7369,-72.9005C2160.9178,-63.9908 2171.892,-50.3748 2181.3499,-38.6399"/>
<polygon fill="#191970" stroke="#191970" points="2184.3427,-40.5041 2187.8929,-30.5218 2178.8925,-36.1114 2184.3427,-40.5041"/>
</g>
<!-- Node23 -->
<g id="node24" class="node">
<title>Node23</title>
<polygon fill="none" stroke="#bfbfbf" points="2276,-.5 2276,-30.5 2392,-30.5 2392,-.5 2276,-.5"/>
<text text-anchor="start" x="2284" y="-18.5" font-family="Helvetica,sans-Serif" font-size="10.00" fill="#000000">deal.II/base/std_cxx14</text>
<text text-anchor="middle" x="2334" y="-7.5" font-family="Helvetica,sans-Serif" font-size="10.00" fill="#000000">/memory.h</text>
</g>
<!-- Node19&#45;&gt;Node23 -->
<g id="edge23" class="edge">
<title>Node19&#45;&gt;Node23</title>
<path fill="none" stroke="#191970" d="M2172.9358,-72.9005C2201.3342,-62.7798 2246.7726,-46.5864 2282.158,-33.9756"/>
<polygon fill="#191970" stroke="#191970" points="2283.6047,-37.1757 2291.8494,-30.5218 2281.2547,-30.582 2283.6047,-37.1757"/>
</g>
<!-- Node24 -->
<g id="node25" class="node">
<title>Node24</title>
<polygon fill="none" stroke="#bfbfbf" points="2410.5,-6 2410.5,-25 2455.5,-25 2455.5,-6 2410.5,-6"/>
<text text-anchor="middle" x="2433" y="-13" font-family="Helvetica,sans-Serif" font-size="10.00" fill="#000000">cstdlib</text>
</g>
<!-- Node19&#45;&gt;Node24 -->
<g id="edge25" class="edge">
<title>Node19&#45;&gt;Node24</title>
<path fill="none" stroke="#191970" d="M2204.0526,-75.0328C2256.4564,-67.2979 2335.1984,-53.1845 2401,-31 2402.6488,-30.4441 2404.3225,-29.8227 2405.9956,-29.157"/>
<polygon fill="#191970" stroke="#191970" points="2407.6601,-32.2481 2415.394,-25.0067 2404.8323,-25.8446 2407.6601,-32.2481"/>
</g>
<!-- Node25 -->
<g id="node26" class="node">
<title>Node25</title>
<polygon fill="none" stroke="#bfbfbf" points="2473.5,-6 2473.5,-25 2520.5,-25 2520.5,-6 2473.5,-6"/>
<text text-anchor="middle" x="2497" y="-13" font-family="Helvetica,sans-Serif" font-size="10.00" fill="#000000">iterator</text>
</g>
<!-- Node19&#45;&gt;Node25 -->
<g id="edge26" class="edge">
<title>Node19&#45;&gt;Node25</title>
<path fill="none" stroke="#191970" d="M2204.216,-78.2138C2269.0738,-72.2717 2376.4569,-58.9304 2465,-31 2466.6594,-30.4766 2468.3413,-29.8805 2470.0207,-29.2341"/>
<polygon fill="#191970" stroke="#191970" points="2471.6633,-32.3364 2479.4367,-25.1374 2468.8706,-25.9176 2471.6633,-32.3364"/>
</g>
</g>
</svg>
        <g id="navigator" transform="translate(0 0)" fill="#404254">
                <rect fill="#f2f5e9" fill-opacity="0.5" stroke="#606060" stroke-width=".5" x="0" y="0" width="60" height="60"/>
                <use id="zoomplus" xlink:href="#zoomPlus" x="17" y="9" onmousedown="handleZoom(evt,'in')"/>
                <use id="zoomminus" xlink:href="#zoomMin" x="42" y="9" onmousedown="handleZoom(evt,'out')"/>
                <use id="reset" xlink:href="#resetDef" x="30" y="36" onmousedown="handleReset()"/>
                <g id="arrowUp" xlink:href="#dirArrow" transform="translate(30 24)" onmousedown="handlePan(0,-1)">
                  <use xlink:href="#rim" fill="#404040">
                        <set attributeName="fill" to="#808080" begin="arrowUp.mouseover" end="arrowUp.mouseout"/>
                  </use>
                  <path fill="none" stroke="white" stroke-width="1.5" d="M0,-3.0v7 M-2.5,-0.5L0,-3.0L2.5,-0.5"/>
                </g>
                <g id="arrowRight" xlink:href="#dirArrow" transform="rotate(90) translate(36 -43)" onmousedown="handlePan(1,0)">
                  <use xlink:href="#rim" fill="#404040">
                        <set attributeName="fill" to="#808080" begin="arrowRight.mouseover" end="arrowRight.mouseout"/>
                  </use>
                  <path fill="none" stroke="white" stroke-width="1.5" d="M0,-3.0v7 M-2.5,-0.5L0,-3.0L2.5,-0.5"/>
                </g>
                <g id="arrowDown" xlink:href="#dirArrow" transform="rotate(180) translate(-30 -48)" onmousedown="handlePan(0,1)">
                  <use xlink:href="#rim" fill="#404040">
                        <set attributeName="fill" to="#808080" begin="arrowDown.mouseover" end="arrowDown.mouseout"/>
                  </use>
                  <path fill="none" stroke="white" stroke-width="1.5" d="M0,-3.0v7 M-2.5,-0.5L0,-3.0L2.5,-0.5"/>
                </g>
                <g id="arrowLeft" xlink:href="#dirArrow" transform="rotate(270) translate(-36 17)" onmousedown="handlePan(-1,0)">
                  <use xlink:href="#rim" fill="#404040">
                        <set attributeName="fill" to="#808080" begin="arrowLeft.mouseover" end="arrowLeft.mouseout"/>
                  </use>
                  <path fill="none" stroke="white" stroke-width="1.5" d="M0,-3.0v7 M-2.5,-0.5L0,-3.0L2.5,-0.5"/>
                </g>
        </g>
        <svg viewBox="0 0 15 15" width="100%" height="30px" preserveAspectRatio="xMaxYMin meet">
         <g id="arrow_out" transform="scale(0.3 0.3)">
          <a xlink:href="laplace__bem_8h__incl_org.svg" target="_base">
           <rect id="button" ry="5" rx="5" y="6" x="6" height="38" width="38"
                fill="#f2f5e9" fill-opacity="0.5" stroke="#606060" stroke-width="1.0"/>
           <path id="arrow"
             d="M 11.500037,31.436501 C 11.940474,20.09759 22.043105,11.32322 32.158766,21.979434 L 37.068811,17.246167 C 37.068811,17.246167 37.088388,32 37.088388,32 L 22.160133,31.978069 C 22.160133,31.978069 26.997745,27.140456 26.997745,27.140456 C 18.528582,18.264221 13.291696,25.230495 11.500037,31.436501 z"
             style="fill:#404040;"/>
          </a>
         </g>
        </svg>
</svg>
