<?xml version="1.0" encoding="UTF-8" standalone="no"?>
<!DOCTYPE svg PUBLIC "-//W3C//DTD SVG 1.1//EN"
 "http://www.w3.org/Graphics/SVG/1.1/DTD/svg11.dtd">
<!-- Generated by graphviz version 2.40.1 (20161225.0304)
 -->
<!-- Title: /home/jihuan/Projects/deal.ii/program/dealii&#45;9.1.1/examples/laplace&#45;bem/tests/quad&#45;tree&#45;copy/quad&#45;tree&#45;copy.cc Pages: 1 -->
<svg width="606pt" height="184pt"
 viewBox="0.00 0.00 606.00 184.00" xmlns="http://www.w3.org/2000/svg" xmlns:xlink="http://www.w3.org/1999/xlink">
<g id="graph0" class="graph" transform="scale(1 1) rotate(0) translate(4 180)">
<title>/home/jihuan/Projects/deal.ii/program/dealii&#45;9.1.1/examples/laplace&#45;bem/tests/quad&#45;tree&#45;copy/quad&#45;tree&#45;copy.cc</title>
<!-- Node0 -->
<g id="node1" class="node">
<title>Node0</title>
<polygon fill="#bfbfbf" stroke="#000000" points="102.5,-112.5 102.5,-175.5 233.5,-175.5 233.5,-112.5 102.5,-112.5"/>
<text text-anchor="start" x="110.5" y="-163.5" font-family="Helvetica,sans-Serif" font-size="10.00" fill="#000000">/home/jihuan/Projects</text>
<text text-anchor="start" x="110.5" y="-152.5" font-family="Helvetica,sans-Serif" font-size="10.00" fill="#000000">/deal.ii/program/dealii</text>
<text text-anchor="start" x="110.5" y="-141.5" font-family="Helvetica,sans-Serif" font-size="10.00" fill="#000000">&#45;9.1.1/examples/laplace</text>
<text text-anchor="start" x="110.5" y="-130.5" font-family="Helvetica,sans-Serif" font-size="10.00" fill="#000000">&#45;bem/tests/quad&#45;tree&#45;copy</text>
<text text-anchor="middle" x="168" y="-119.5" font-family="Helvetica,sans-Serif" font-size="10.00" fill="#000000">/quad&#45;tree&#45;copy.cc</text>
</g>
<!-- Node1 -->
<g id="node2" class="node">
<title>Node1</title>
<polygon fill="none" stroke="#bfbfbf" points="0,-.5 0,-19.5 54,-19.5 54,-.5 0,-.5"/>
<text text-anchor="middle" x="27" y="-7.5" font-family="Helvetica,sans-Serif" font-size="10.00" fill="#000000">iostream</text>
</g>
<!-- Node0&#45;&gt;Node1 -->
<g id="edge1" class="edge">
<title>Node0&#45;&gt;Node1</title>
<path fill="none" stroke="#191970" d="M134.585,-112.2439C106.2984,-85.3616 66.8771,-47.8974 44.4472,-26.581"/>
<polygon fill="#191970" stroke="#191970" points="46.6643,-23.8596 37.0044,-19.5078 41.8421,-28.9337 46.6643,-23.8596"/>
</g>
<!-- Node2 -->
<g id="node3" class="node">
<title>Node2</title>
<g id="a_node3"><a xlink:href="tree_8h.html" target="_top" xlink:title="Implementation of the classes for binary tree node, general tree node and functions for manipulating ...">
<polygon fill="none" stroke="#000000" points="288.5,-56.5 288.5,-75.5 329.5,-75.5 329.5,-56.5 288.5,-56.5"/>
<text text-anchor="middle" x="309" y="-63.5" font-family="Helvetica,sans-Serif" font-size="10.00" fill="#000000">tree.h</text>
</a>
</g>
</g>
<!-- Node0&#45;&gt;Node2 -->
<g id="edge2" class="edge">
<title>Node0&#45;&gt;Node2</title>
<path fill="none" stroke="#191970" d="M224.9437,-112.4992C245.0056,-101.4011 266.5896,-89.4611 282.8622,-80.4592"/>
<polygon fill="#191970" stroke="#191970" points="284.7217,-83.4304 291.7779,-75.5271 281.3333,-77.3052 284.7217,-83.4304"/>
</g>
<!-- Node2&#45;&gt;Node1 -->
<g id="edge8" class="edge">
<title>Node2&#45;&gt;Node1</title>
<path fill="none" stroke="#191970" d="M288.4657,-62.7746C247.6182,-56.2287 153.1178,-40.4373 64.0531,-20.0933"/>
<polygon fill="#191970" stroke="#191970" points="64.5939,-16.6262 54.0628,-17.7865 63.0189,-23.4467 64.5939,-16.6262"/>
</g>
<!-- Node3 -->
<g id="node4" class="node">
<title>Node3</title>
<polygon fill="none" stroke="#bfbfbf" points="72,-.5 72,-19.5 198,-19.5 198,-.5 72,-.5"/>
<text text-anchor="middle" x="135" y="-7.5" font-family="Helvetica,sans-Serif" font-size="10.00" fill="#000000">deal.II/base/exceptions.h</text>
</g>
<!-- Node2&#45;&gt;Node3 -->
<g id="edge3" class="edge">
<title>Node2&#45;&gt;Node3</title>
<path fill="none" stroke="#191970" d="M288.3566,-59.3562C260.2975,-50.3256 209.5661,-33.9983 174.1663,-22.6053"/>
<polygon fill="#191970" stroke="#191970" points="175.2114,-19.2648 164.6199,-19.5328 173.0668,-25.9282 175.2114,-19.2648"/>
</g>
<!-- Node4 -->
<g id="node5" class="node">
<title>Node4</title>
<polygon fill="none" stroke="#bfbfbf" points="216,-.5 216,-19.5 272,-19.5 272,-.5 216,-.5"/>
<text text-anchor="middle" x="244" y="-7.5" font-family="Helvetica,sans-Serif" font-size="10.00" fill="#000000">algorithm</text>
</g>
<!-- Node2&#45;&gt;Node4 -->
<g id="edge4" class="edge">
<title>Node2&#45;&gt;Node4</title>
<path fill="none" stroke="#191970" d="M297.6779,-56.2455C288.0777,-47.9746 274.1108,-35.9416 262.8305,-26.2232"/>
<polygon fill="#191970" stroke="#191970" points="265.053,-23.5182 255.1924,-19.6427 260.484,-28.8214 265.053,-23.5182"/>
</g>
<!-- Node5 -->
<g id="node6" class="node">
<title>Node5</title>
<polygon fill="none" stroke="#bfbfbf" points="290,-.5 290,-19.5 328,-19.5 328,-.5 290,-.5"/>
<text text-anchor="middle" x="309" y="-7.5" font-family="Helvetica,sans-Serif" font-size="10.00" fill="#000000">array</text>
</g>
<!-- Node2&#45;&gt;Node5 -->
<g id="edge5" class="edge">
<title>Node2&#45;&gt;Node5</title>
<path fill="none" stroke="#191970" d="M309,-56.2455C309,-48.9382 309,-38.6944 309,-29.7046"/>
<polygon fill="#191970" stroke="#191970" points="312.5001,-29.6426 309,-19.6427 305.5001,-29.6427 312.5001,-29.6426"/>
</g>
<!-- Node6 -->
<g id="node7" class="node">
<title>Node6</title>
<polygon fill="none" stroke="#bfbfbf" points="346.5,-.5 346.5,-19.5 405.5,-19.5 405.5,-.5 346.5,-.5"/>
<text text-anchor="middle" x="376" y="-7.5" font-family="Helvetica,sans-Serif" font-size="10.00" fill="#000000">exception</text>
</g>
<!-- Node2&#45;&gt;Node6 -->
<g id="edge6" class="edge">
<title>Node2&#45;&gt;Node6</title>
<path fill="none" stroke="#191970" d="M320.6705,-56.2455C330.5661,-47.9746 344.9627,-35.9416 356.5901,-26.2232"/>
<polygon fill="#191970" stroke="#191970" points="359.035,-28.7413 364.4632,-19.6427 354.5458,-23.3703 359.035,-28.7413"/>
</g>
<!-- Node7 -->
<g id="node8" class="node">
<title>Node7</title>
<polygon fill="none" stroke="#bfbfbf" points="423.5,-.5 423.5,-19.5 482.5,-19.5 482.5,-.5 423.5,-.5"/>
<text text-anchor="middle" x="453" y="-7.5" font-family="Helvetica,sans-Serif" font-size="10.00" fill="#000000">functional</text>
</g>
<!-- Node2&#45;&gt;Node7 -->
<g id="edge7" class="edge">
<title>Node2&#45;&gt;Node7</title>
<path fill="none" stroke="#191970" d="M329.6317,-57.9766C353.0059,-48.8866 391.4512,-33.9356 419.2181,-23.1374"/>
<polygon fill="#191970" stroke="#191970" points="420.5005,-26.3941 428.552,-19.5076 417.9633,-19.8701 420.5005,-26.3941"/>
</g>
<!-- Node8 -->
<g id="node9" class="node">
<title>Node8</title>
<polygon fill="none" stroke="#bfbfbf" points="500.5,-.5 500.5,-19.5 535.5,-19.5 535.5,-.5 500.5,-.5"/>
<text text-anchor="middle" x="518" y="-7.5" font-family="Helvetica,sans-Serif" font-size="10.00" fill="#000000">new</text>
</g>
<!-- Node2&#45;&gt;Node8 -->
<g id="edge9" class="edge">
<title>Node2&#45;&gt;Node8</title>
<path fill="none" stroke="#191970" d="M329.5356,-61.6895C361.9638,-54.7028 427.1344,-39.9342 490.7068,-20.1543"/>
<polygon fill="#191970" stroke="#191970" points="491.9976,-23.4171 500.4799,-17.0688 489.8901,-16.7419 491.9976,-23.4171"/>
</g>
<!-- Node9 -->
<g id="node10" class="node">
<title>Node9</title>
<polygon fill="none" stroke="#bfbfbf" points="554,-.5 554,-19.5 598,-19.5 598,-.5 554,-.5"/>
<text text-anchor="middle" x="576" y="-7.5" font-family="Helvetica,sans-Serif" font-size="10.00" fill="#000000">vector</text>
</g>
<!-- Node2&#45;&gt;Node9 -->
<g id="edge10" class="edge">
<title>Node2&#45;&gt;Node9</title>
<path fill="none" stroke="#191970" d="M329.7042,-62.8199C369.4633,-56.5325 459.3744,-41.4418 543.9863,-20.0346"/>
<polygon fill="#191970" stroke="#191970" points="544.9258,-23.407 553.7422,-17.5315 543.1861,-16.6266 544.9258,-23.407"/>
</g>
</g>
</svg>
