<?xml version="1.0" encoding="UTF-8" standalone="no"?>
<!DOCTYPE svg PUBLIC "-//W3C//DTD SVG 1.1//EN"
 "http://www.w3.org/Graphics/SVG/1.1/DTD/svg11.dtd">
<!-- Generated by graphviz version 2.40.1 (20161225.0304)
 -->
<!-- Title: /home/jihuan/Projects/deal.ii/program/dealii&#45;9.1.1/examples/laplace&#45;bem/tests/quad&#45;tree&#45;get&#45;leaves/quad&#45;tree&#45;get&#45;leaves.cc Pages: 1 -->
<!--zoomable 184 -->
<svg id="main" version="1.1" xmlns="http://www.w3.org/2000/svg" xmlns:xlink="http://www.w3.org/1999/xlink" xml:space="preserve" onload="init(evt)">
<style type="text/css"><![CDATA[
.edge:hover path { stroke: red; }
.edge:hover polygon { stroke: red; fill: red; }
]]></style>
<script type="text/javascript"><![CDATA[
var edges = document.getElementsByTagName('g');
if (edges && edges.length) {
  for (var i=0;i<edges.length;i++) {
    if (edges[i].id.substr(0,4)=='edge') {
      edges[i].setAttribute('class','edge');
    }
  }
}
]]></script>
        <defs>
                <circle id="rim" cx="0" cy="0" r="7"/>
                <circle id="rim2" cx="0" cy="0" r="3.5"/>
                <g id="zoomPlus">
                        <use xlink:href="#rim" fill="#404040">
                                <set attributeName="fill" to="#808080" begin="zoomplus.mouseover" end="zoomplus.mouseout"/>
                        </use>
                        <path d="M-4,0h8M0,-4v8" fill="none" stroke="white" stroke-width="1.5" pointer-events="none"/>
                </g>
                <g id="zoomMin">
                        <use xlink:href="#rim" fill="#404040">
                                <set attributeName="fill" to="#808080" begin="zoomminus.mouseover" end="zoomminus.mouseout"/>
                        </use>
                        <path d="M-4,0h8" fill="none" stroke="white" stroke-width="1.5" pointer-events="none"/>
                </g>
                <g id="dirArrow">
                        <path fill="none" stroke="white" stroke-width="1.5" d="M0,-3.0v7 M-2.5,-0.5L0,-3.0L2.5,-0.5"/>
                </g>
               <g id="resetDef">
                       <use xlink:href="#rim2" fill="#404040">
                               <set attributeName="fill" to="#808080" begin="reset.mouseover" end="reset.mouseout"/>
                       </use>
               </g>
        </defs>

<script type="text/javascript">
var viewWidth = 1287;
var viewHeight = 184;
var sectionId = 'dynsection-0';
</script>
<script xlink:href="svgpan.js"/>
<svg id="graph" class="graph">
<g id="viewport">
<title>/home/jihuan/Projects/deal.ii/program/dealii&#45;9.1.1/examples/laplace&#45;bem/tests/quad&#45;tree&#45;get&#45;leaves/quad&#45;tree&#45;get&#45;leaves.cc</title>
<!-- Node0 -->
<g id="node1" class="node">
<title>Node0</title>
<polygon fill="#bfbfbf" stroke="#000000" points="672,-112.5 672,-175.5 825,-175.5 825,-112.5 672,-112.5"/>
<text text-anchor="start" x="680" y="-163.5" font-family="Helvetica,sans-Serif" font-size="10.00" fill="#000000">/home/jihuan/Projects</text>
<text text-anchor="start" x="680" y="-152.5" font-family="Helvetica,sans-Serif" font-size="10.00" fill="#000000">/deal.ii/program/dealii</text>
<text text-anchor="start" x="680" y="-141.5" font-family="Helvetica,sans-Serif" font-size="10.00" fill="#000000">&#45;9.1.1/examples/laplace</text>
<text text-anchor="start" x="680" y="-130.5" font-family="Helvetica,sans-Serif" font-size="10.00" fill="#000000">&#45;bem/tests/quad&#45;tree&#45;get</text>
<text text-anchor="middle" x="748.5" y="-119.5" font-family="Helvetica,sans-Serif" font-size="10.00" fill="#000000">&#45;leaves/quad&#45;tree&#45;get&#45;leaves.cc</text>
</g>
<!-- Node1 -->
<g id="node2" class="node">
<title>Node1</title>
<polygon fill="none" stroke="#bfbfbf" points="681.5,-.5 681.5,-19.5 735.5,-19.5 735.5,-.5 681.5,-.5"/>
<text text-anchor="middle" x="708.5" y="-7.5" font-family="Helvetica,sans-Serif" font-size="10.00" fill="#000000">iostream</text>
</g>
<!-- Node0&#45;&gt;Node1 -->
<g id="edge1" class="edge">
<title>Node0&#45;&gt;Node1</title>
<path fill="none" stroke="#191970" d="M739.0206,-112.2439C731.3128,-86.4228 720.6906,-50.8386 714.2251,-29.1792"/>
<polygon fill="#191970" stroke="#191970" points="717.5523,-28.0888 711.3381,-19.5078 710.8448,-30.0911 717.5523,-28.0888"/>
</g>
<!-- Node2 -->
<g id="node3" class="node">
<title>Node2</title>
<polygon fill="none" stroke="#bfbfbf" points="753.5,-.5 753.5,-19.5 797.5,-19.5 797.5,-.5 753.5,-.5"/>
<text text-anchor="middle" x="775.5" y="-7.5" font-family="Helvetica,sans-Serif" font-size="10.00" fill="#000000">vector</text>
</g>
<!-- Node0&#45;&gt;Node2 -->
<g id="edge2" class="edge">
<title>Node0&#45;&gt;Node2</title>
<path fill="none" stroke="#191970" d="M754.8986,-112.2439C760.0776,-86.5407 767.2059,-51.1634 771.5756,-29.4768"/>
<polygon fill="#191970" stroke="#191970" points="775.04,-30.0021 773.5843,-19.5078 768.1779,-28.6194 775.04,-30.0021"/>
</g>
<!-- Node3 -->
<g id="node4" class="node">
<title>Node3</title>
<g id="a_node4"><a xlink:href="debug__tools_8h.html" target="_top" xlink:title="This file includes a bunch of helper functions for printing out and visualizing information about gri...">
<polygon fill="none" stroke="#000000" points="402,-56.5 402,-75.5 479,-75.5 479,-56.5 402,-56.5"/>
<text text-anchor="middle" x="440.5" y="-63.5" font-family="Helvetica,sans-Serif" font-size="10.00" fill="#000000">debug_tools.h</text>
</a>
</g>
</g>
<!-- Node0&#45;&gt;Node3 -->
<g id="edge3" class="edge">
<title>Node0&#45;&gt;Node3</title>
<path fill="none" stroke="#191970" d="M671.9694,-124.6189C614.299,-110.014 537.0297,-90.4458 487.9946,-78.0279"/>
<polygon fill="#191970" stroke="#191970" points="488.8309,-74.6292 478.2777,-75.5671 487.1124,-81.415 488.8309,-74.6292"/>
</g>
<!-- Node10 -->
<g id="node11" class="node">
<title>Node10</title>
<g id="a_node11"><a xlink:href="tree_8h.html" target="_top" xlink:title="Implementation of the classes for binary tree node, general tree node and functions for manipulating ...">
<polygon fill="none" stroke="#000000" points="967,-56.5 967,-75.5 1008,-75.5 1008,-56.5 967,-56.5"/>
<text text-anchor="middle" x="987.5" y="-63.5" font-family="Helvetica,sans-Serif" font-size="10.00" fill="#000000">tree.h</text>
</a>
</g>
</g>
<!-- Node0&#45;&gt;Node10 -->
<g id="edge11" class="edge">
<title>Node0&#45;&gt;Node10</title>
<path fill="none" stroke="#191970" d="M825.1073,-118.9985C870.0234,-104.3396 924.2611,-86.6386 957.2991,-75.8563"/>
<polygon fill="#191970" stroke="#191970" points="958.4173,-79.1732 966.8379,-72.7433 956.2455,-72.5186 958.4173,-79.1732"/>
</g>
<!-- Node3&#45;&gt;Node1 -->
<g id="edge9" class="edge">
<title>Node3&#45;&gt;Node1</title>
<path fill="none" stroke="#191970" d="M479.2794,-59.2325C523.5183,-51.3092 598.2171,-37.315 671.5617,-20.0935"/>
<polygon fill="#191970" stroke="#191970" points="672.5065,-23.4666 681.4297,-17.7546 670.8921,-16.6553 672.5065,-23.4666"/>
</g>
<!-- Node4 -->
<g id="node5" class="node">
<title>Node4</title>
<polygon fill="none" stroke="#bfbfbf" points="180,-.5 180,-19.5 307,-19.5 307,-.5 180,-.5"/>
<text text-anchor="middle" x="243.5" y="-7.5" font-family="Helvetica,sans-Serif" font-size="10.00" fill="#000000">deal.II/dofs/dof_handler.h</text>
</g>
<!-- Node3&#45;&gt;Node4 -->
<g id="edge4" class="edge">
<title>Node3&#45;&gt;Node4</title>
<path fill="none" stroke="#191970" d="M406.6345,-56.3733C373.451,-46.9404 322.745,-32.5265 286.6806,-22.2747"/>
<polygon fill="#191970" stroke="#191970" points="287.4995,-18.8689 276.9236,-19.5011 285.5855,-25.6021 287.4995,-18.8689"/>
</g>
<!-- Node5 -->
<g id="node6" class="node">
<title>Node5</title>
<polygon fill="none" stroke="#bfbfbf" points="325.5,-.5 325.5,-19.5 441.5,-19.5 441.5,-.5 325.5,-.5"/>
<text text-anchor="middle" x="383.5" y="-7.5" font-family="Helvetica,sans-Serif" font-size="10.00" fill="#000000">deal.II/dofs/dof_tools.h</text>
</g>
<!-- Node3&#45;&gt;Node5 -->
<g id="edge5" class="edge">
<title>Node3&#45;&gt;Node5</title>
<path fill="none" stroke="#191970" d="M430.5714,-56.2455C422.3162,-48.1352 410.3791,-36.4075 400.5918,-26.7919"/>
<polygon fill="#191970" stroke="#191970" points="402.9011,-24.1542 393.3149,-19.6427 397.9954,-29.1476 402.9011,-24.1542"/>
</g>
<!-- Node6 -->
<g id="node7" class="node">
<title>Node6</title>
<polygon fill="none" stroke="#bfbfbf" points="459.5,-.5 459.5,-19.5 533.5,-19.5 533.5,-.5 459.5,-.5"/>
<text text-anchor="middle" x="496.5" y="-7.5" font-family="Helvetica,sans-Serif" font-size="10.00" fill="#000000">deal.II/fe/fe.h</text>
</g>
<!-- Node3&#45;&gt;Node6 -->
<g id="edge6" class="edge">
<title>Node3&#45;&gt;Node6</title>
<path fill="none" stroke="#191970" d="M450.2545,-56.2455C458.3648,-48.1352 470.0925,-36.4075 479.7081,-26.7919"/>
<polygon fill="#191970" stroke="#191970" points="482.2611,-29.1887 486.8573,-19.6427 477.3113,-24.2389 482.2611,-29.1887"/>
</g>
<!-- Node7 -->
<g id="node8" class="node">
<title>Node7</title>
<polygon fill="none" stroke="#bfbfbf" points="551.5,-.5 551.5,-19.5 663.5,-19.5 663.5,-.5 551.5,-.5"/>
<text text-anchor="middle" x="607.5" y="-7.5" font-family="Helvetica,sans-Serif" font-size="10.00" fill="#000000">deal.II/fe/fe_system.h</text>
</g>
<!-- Node3&#45;&gt;Node7 -->
<g id="edge7" class="edge">
<title>Node3&#45;&gt;Node7</title>
<path fill="none" stroke="#191970" d="M469.2083,-56.3733C496.8577,-47.1016 538.8576,-33.0178 569.3166,-22.804"/>
<polygon fill="#191970" stroke="#191970" points="570.7979,-25.9989 579.1663,-19.5011 568.5724,-19.3621 570.7979,-25.9989"/>
</g>
<!-- Node8 -->
<g id="node9" class="node">
<title>Node8</title>
<polygon fill="none" stroke="#bfbfbf" points="0,-.5 0,-19.5 103,-19.5 103,-.5 0,-.5"/>
<text text-anchor="middle" x="51.5" y="-7.5" font-family="Helvetica,sans-Serif" font-size="10.00" fill="#000000">deal.II/fe/mapping.h</text>
</g>
<!-- Node3&#45;&gt;Node8 -->
<g id="edge8" class="edge">
<title>Node3&#45;&gt;Node8</title>
<path fill="none" stroke="#191970" d="M401.9577,-60.9446C342.2671,-53.0424 223.6115,-37.0446 113.1721,-20.2291"/>
<polygon fill="#191970" stroke="#191970" points="113.6109,-16.7556 103.1968,-18.7045 112.5532,-23.6753 113.6109,-16.7556"/>
</g>
<!-- Node9 -->
<g id="node10" class="node">
<title>Node9</title>
<polygon fill="none" stroke="#bfbfbf" points="121,-.5 121,-19.5 162,-19.5 162,-.5 121,-.5"/>
<text text-anchor="middle" x="141.5" y="-7.5" font-family="Helvetica,sans-Serif" font-size="10.00" fill="#000000">string</text>
</g>
<!-- Node3&#45;&gt;Node9 -->
<g id="edge10" class="edge">
<title>Node3&#45;&gt;Node9</title>
<path fill="none" stroke="#191970" d="M401.6315,-61.4066C350.7006,-54.9455 258.5459,-41.7375 171.9932,-20.0924"/>
<polygon fill="#191970" stroke="#191970" points="172.8396,-16.6964 162.2854,-17.6225 171.1136,-23.4802 172.8396,-16.6964"/>
</g>
<!-- Node10&#45;&gt;Node1 -->
<g id="edge17" class="edge">
<title>Node10&#45;&gt;Node1</title>
<path fill="none" stroke="#191970" d="M966.8968,-62.6998C926.3748,-56.0821 833.3016,-40.2559 745.4224,-20.0684"/>
<polygon fill="#191970" stroke="#191970" points="746.0968,-16.6319 735.5643,-17.7799 744.5138,-23.4506 746.0968,-16.6319"/>
</g>
<!-- Node10&#45;&gt;Node2 -->
<g id="edge19" class="edge">
<title>Node10&#45;&gt;Node2</title>
<path fill="none" stroke="#191970" d="M966.7558,-61.179C934.6436,-53.62 870.7788,-38.206 807.5306,-20.1759"/>
<polygon fill="#191970" stroke="#191970" points="808.3771,-16.7776 797.7994,-17.3792 806.4436,-23.5053 808.3771,-16.7776"/>
</g>
<!-- Node11 -->
<g id="node12" class="node">
<title>Node11</title>
<polygon fill="none" stroke="#bfbfbf" points="815.5,-.5 815.5,-19.5 941.5,-19.5 941.5,-.5 815.5,-.5"/>
<text text-anchor="middle" x="878.5" y="-7.5" font-family="Helvetica,sans-Serif" font-size="10.00" fill="#000000">deal.II/base/exceptions.h</text>
</g>
<!-- Node10&#45;&gt;Node11 -->
<g id="edge12" class="edge">
<title>Node10&#45;&gt;Node11</title>
<path fill="none" stroke="#191970" d="M968.5136,-56.2455C951.3208,-47.4125 925.7762,-34.2887 906.2868,-24.2758"/>
<polygon fill="#191970" stroke="#191970" points="907.763,-21.0993 897.2688,-19.6427 904.5641,-27.3257 907.763,-21.0993"/>
</g>
<!-- Node12 -->
<g id="node13" class="node">
<title>Node12</title>
<polygon fill="none" stroke="#bfbfbf" points="959.5,-.5 959.5,-19.5 1015.5,-19.5 1015.5,-.5 959.5,-.5"/>
<text text-anchor="middle" x="987.5" y="-7.5" font-family="Helvetica,sans-Serif" font-size="10.00" fill="#000000">algorithm</text>
</g>
<!-- Node10&#45;&gt;Node12 -->
<g id="edge13" class="edge">
<title>Node10&#45;&gt;Node12</title>
<path fill="none" stroke="#191970" d="M987.5,-56.2455C987.5,-48.9382 987.5,-38.6944 987.5,-29.7046"/>
<polygon fill="#191970" stroke="#191970" points="991.0001,-29.6426 987.5,-19.6427 984.0001,-29.6427 991.0001,-29.6426"/>
</g>
<!-- Node13 -->
<g id="node14" class="node">
<title>Node13</title>
<polygon fill="none" stroke="#bfbfbf" points="1033.5,-.5 1033.5,-19.5 1071.5,-19.5 1071.5,-.5 1033.5,-.5"/>
<text text-anchor="middle" x="1052.5" y="-7.5" font-family="Helvetica,sans-Serif" font-size="10.00" fill="#000000">array</text>
</g>
<!-- Node10&#45;&gt;Node13 -->
<g id="edge14" class="edge">
<title>Node10&#45;&gt;Node13</title>
<path fill="none" stroke="#191970" d="M998.8221,-56.2455C1008.4223,-47.9746 1022.3892,-35.9416 1033.6695,-26.2232"/>
<polygon fill="#191970" stroke="#191970" points="1036.016,-28.8214 1041.3076,-19.6427 1031.447,-23.5182 1036.016,-28.8214"/>
</g>
<!-- Node14 -->
<g id="node15" class="node">
<title>Node14</title>
<polygon fill="none" stroke="#bfbfbf" points="1090,-.5 1090,-19.5 1149,-19.5 1149,-.5 1090,-.5"/>
<text text-anchor="middle" x="1119.5" y="-7.5" font-family="Helvetica,sans-Serif" font-size="10.00" fill="#000000">exception</text>
</g>
<!-- Node10&#45;&gt;Node14 -->
<g id="edge15" class="edge">
<title>Node10&#45;&gt;Node14</title>
<path fill="none" stroke="#191970" d="M1008.125,-57.25C1029.3772,-48.2339 1062.7951,-34.0566 1087.486,-23.5817"/>
<polygon fill="#191970" stroke="#191970" points="1088.9695,-26.7543 1096.8084,-19.6267 1086.2356,-20.3103 1088.9695,-26.7543"/>
</g>
<!-- Node15 -->
<g id="node16" class="node">
<title>Node15</title>
<polygon fill="none" stroke="#bfbfbf" points="1167,-.5 1167,-19.5 1226,-19.5 1226,-.5 1167,-.5"/>
<text text-anchor="middle" x="1196.5" y="-7.5" font-family="Helvetica,sans-Serif" font-size="10.00" fill="#000000">functional</text>
</g>
<!-- Node10&#45;&gt;Node15 -->
<g id="edge16" class="edge">
<title>Node10&#45;&gt;Node15</title>
<path fill="none" stroke="#191970" d="M1008.3038,-60.4258C1042.8835,-51.1604 1112.7497,-32.4403 1156.9428,-20.5991"/>
<polygon fill="#191970" stroke="#191970" points="1158.0205,-23.9338 1166.7739,-17.9649 1156.2087,-17.1723 1158.0205,-23.9338"/>
</g>
<!-- Node16 -->
<g id="node17" class="node">
<title>Node16</title>
<polygon fill="none" stroke="#bfbfbf" points="1244,-.5 1244,-19.5 1279,-19.5 1279,-.5 1244,-.5"/>
<text text-anchor="middle" x="1261.5" y="-7.5" font-family="Helvetica,sans-Serif" font-size="10.00" fill="#000000">new</text>
</g>
<!-- Node10&#45;&gt;Node16 -->
<g id="edge18" class="edge">
<title>Node10&#45;&gt;Node16</title>
<path fill="none" stroke="#191970" d="M1008.0436,-63.4909C1049.3855,-58.1685 1145.6077,-44.4039 1234.1036,-20.0309"/>
<polygon fill="#191970" stroke="#191970" points="1235.0619,-23.3973 1243.7434,-17.3243 1233.1696,-16.6579 1235.0619,-23.3973"/>
</g>
</g>
</svg>
        <g id="navigator" transform="translate(0 0)" fill="#404254">
                <rect fill="#f2f5e9" fill-opacity="0.5" stroke="#606060" stroke-width=".5" x="0" y="0" width="60" height="60"/>
                <use id="zoomplus" xlink:href="#zoomPlus" x="17" y="9" onmousedown="handleZoom(evt,'in')"/>
                <use id="zoomminus" xlink:href="#zoomMin" x="42" y="9" onmousedown="handleZoom(evt,'out')"/>
                <use id="reset" xlink:href="#resetDef" x="30" y="36" onmousedown="handleReset()"/>
                <g id="arrowUp" xlink:href="#dirArrow" transform="translate(30 24)" onmousedown="handlePan(0,-1)">
                  <use xlink:href="#rim" fill="#404040">
                        <set attributeName="fill" to="#808080" begin="arrowUp.mouseover" end="arrowUp.mouseout"/>
                  </use>
                  <path fill="none" stroke="white" stroke-width="1.5" d="M0,-3.0v7 M-2.5,-0.5L0,-3.0L2.5,-0.5"/>
                </g>
                <g id="arrowRight" xlink:href="#dirArrow" transform="rotate(90) translate(36 -43)" onmousedown="handlePan(1,0)">
                  <use xlink:href="#rim" fill="#404040">
                        <set attributeName="fill" to="#808080" begin="arrowRight.mouseover" end="arrowRight.mouseout"/>
                  </use>
                  <path fill="none" stroke="white" stroke-width="1.5" d="M0,-3.0v7 M-2.5,-0.5L0,-3.0L2.5,-0.5"/>
                </g>
                <g id="arrowDown" xlink:href="#dirArrow" transform="rotate(180) translate(-30 -48)" onmousedown="handlePan(0,1)">
                  <use xlink:href="#rim" fill="#404040">
                        <set attributeName="fill" to="#808080" begin="arrowDown.mouseover" end="arrowDown.mouseout"/>
                  </use>
                  <path fill="none" stroke="white" stroke-width="1.5" d="M0,-3.0v7 M-2.5,-0.5L0,-3.0L2.5,-0.5"/>
                </g>
                <g id="arrowLeft" xlink:href="#dirArrow" transform="rotate(270) translate(-36 17)" onmousedown="handlePan(-1,0)">
                  <use xlink:href="#rim" fill="#404040">
                        <set attributeName="fill" to="#808080" begin="arrowLeft.mouseover" end="arrowLeft.mouseout"/>
                  </use>
                  <path fill="none" stroke="white" stroke-width="1.5" d="M0,-3.0v7 M-2.5,-0.5L0,-3.0L2.5,-0.5"/>
                </g>
        </g>
        <svg viewBox="0 0 15 15" width="100%" height="30px" preserveAspectRatio="xMaxYMin meet">
         <g id="arrow_out" transform="scale(0.3 0.3)">
          <a xlink:href="quad-tree-get-leaves_8cc__incl_org.svg" target="_base">
           <rect id="button" ry="5" rx="5" y="6" x="6" height="38" width="38"
                fill="#f2f5e9" fill-opacity="0.5" stroke="#606060" stroke-width="1.0"/>
           <path id="arrow"
             d="M 11.500037,31.436501 C 11.940474,20.09759 22.043105,11.32322 32.158766,21.979434 L 37.068811,17.246167 C 37.068811,17.246167 37.088388,32 37.088388,32 L 22.160133,31.978069 C 22.160133,31.978069 26.997745,27.140456 26.997745,27.140456 C 18.528582,18.264221 13.291696,25.230495 11.500037,31.436501 z"
             style="fill:#404040;"/>
          </a>
         </g>
        </svg>
</svg>
