<?xml version="1.0" encoding="UTF-8" standalone="no"?>
<!DOCTYPE svg PUBLIC "-//W3C//DTD SVG 1.1//EN"
 "http://www.w3.org/Graphics/SVG/1.1/DTD/svg11.dtd">
<!-- Generated by graphviz version 2.40.1 (20161225.0304)
 -->
<!-- Title: /home/jihuan/Projects/deal.ii/program/dealii&#45;9.1.1/examples/laplace&#45;bem/tests/rkmatrix/rkmatrix.cc Pages: 1 -->
<!--zoomable 374 -->
<svg id="main" version="1.1" xmlns="http://www.w3.org/2000/svg" xmlns:xlink="http://www.w3.org/1999/xlink" xml:space="preserve" onload="init(evt)">
<style type="text/css"><![CDATA[
.edge:hover path { stroke: red; }
.edge:hover polygon { stroke: red; fill: red; }
]]></style>
<script type="text/javascript"><![CDATA[
var edges = document.getElementsByTagName('g');
if (edges && edges.length) {
  for (var i=0;i<edges.length;i++) {
    if (edges[i].id.substr(0,4)=='edge') {
      edges[i].setAttribute('class','edge');
    }
  }
}
]]></script>
        <defs>
                <circle id="rim" cx="0" cy="0" r="7"/>
                <circle id="rim2" cx="0" cy="0" r="3.5"/>
                <g id="zoomPlus">
                        <use xlink:href="#rim" fill="#404040">
                                <set attributeName="fill" to="#808080" begin="zoomplus.mouseover" end="zoomplus.mouseout"/>
                        </use>
                        <path d="M-4,0h8M0,-4v8" fill="none" stroke="white" stroke-width="1.5" pointer-events="none"/>
                </g>
                <g id="zoomMin">
                        <use xlink:href="#rim" fill="#404040">
                                <set attributeName="fill" to="#808080" begin="zoomminus.mouseover" end="zoomminus.mouseout"/>
                        </use>
                        <path d="M-4,0h8" fill="none" stroke="white" stroke-width="1.5" pointer-events="none"/>
                </g>
                <g id="dirArrow">
                        <path fill="none" stroke="white" stroke-width="1.5" d="M0,-3.0v7 M-2.5,-0.5L0,-3.0L2.5,-0.5"/>
                </g>
               <g id="resetDef">
                       <use xlink:href="#rim2" fill="#404040">
                               <set attributeName="fill" to="#808080" begin="reset.mouseover" end="reset.mouseout"/>
                       </use>
               </g>
        </defs>

<script type="text/javascript">
var viewWidth = 1829;
var viewHeight = 374;
var sectionId = 'dynsection-0';
</script>
<script xlink:href="svgpan.js"/>
<svg id="graph" class="graph">
<g id="viewport">
<title>/home/jihuan/Projects/deal.ii/program/dealii&#45;9.1.1/examples/laplace&#45;bem/tests/rkmatrix/rkmatrix.cc</title>
<!-- Node0 -->
<g id="node1" class="node">
<title>Node0</title>
<polygon fill="#bfbfbf" stroke="#000000" points="1363.5,-313.5 1363.5,-365.5 1516.5,-365.5 1516.5,-313.5 1363.5,-313.5"/>
<text text-anchor="start" x="1371.5" y="-353.5" font-family="Helvetica,sans-Serif" font-size="10.00" fill="#000000">/home/jihuan/Projects</text>
<text text-anchor="start" x="1371.5" y="-342.5" font-family="Helvetica,sans-Serif" font-size="10.00" fill="#000000">/deal.ii/program/dealii</text>
<text text-anchor="start" x="1371.5" y="-331.5" font-family="Helvetica,sans-Serif" font-size="10.00" fill="#000000">&#45;9.1.1/examples/laplace</text>
<text text-anchor="middle" x="1440" y="-320.5" font-family="Helvetica,sans-Serif" font-size="10.00" fill="#000000">&#45;bem/tests/rkmatrix/rkmatrix.cc</text>
</g>
<!-- Node1 -->
<g id="node2" class="node">
<title>Node1</title>
<g id="a_node2"><a xlink:href="rkmatrix_8h.html" target="_top" xlink:title="Definition of rank&#45;k matrix. ">
<polygon fill="none" stroke="#000000" points="1373,-257.5 1373,-276.5 1433,-276.5 1433,-257.5 1373,-257.5"/>
<text text-anchor="middle" x="1403" y="-264.5" font-family="Helvetica,sans-Serif" font-size="10.00" fill="#000000">rkmatrix.h</text>
</a>
</g>
</g>
<!-- Node0&#45;&gt;Node1 -->
<g id="edge1" class="edge">
<title>Node0&#45;&gt;Node1</title>
<path fill="none" stroke="#191970" d="M1426.6422,-313.3258C1421.9407,-304.1136 1416.7581,-293.9584 1412.4463,-285.5096"/>
<polygon fill="#191970" stroke="#191970" points="1415.5289,-283.8501 1407.8656,-276.534 1409.2939,-287.0321 1415.5289,-283.8501"/>
</g>
<!-- Node26 -->
<g id="node27" class="node">
<title>Node26</title>
<polygon fill="none" stroke="#bfbfbf" points="1451,-257.5 1451,-276.5 1505,-276.5 1505,-257.5 1451,-257.5"/>
<text text-anchor="middle" x="1478" y="-264.5" font-family="Helvetica,sans-Serif" font-size="10.00" fill="#000000">iostream</text>
</g>
<!-- Node0&#45;&gt;Node26 -->
<g id="edge38" class="edge">
<title>Node0&#45;&gt;Node26</title>
<path fill="none" stroke="#191970" d="M1453.7189,-313.3258C1458.5473,-304.1136 1463.8701,-293.9584 1468.2984,-285.5096"/>
<polygon fill="#191970" stroke="#191970" points="1471.4605,-287.016 1473.0029,-276.534 1465.2605,-283.7663 1471.4605,-287.016"/>
</g>
<!-- Node2 -->
<g id="node3" class="node">
<title>Node2</title>
<polygon fill="none" stroke="#bfbfbf" points="1299.5,-73 1299.5,-92 1402.5,-92 1402.5,-73 1299.5,-73"/>
<text text-anchor="middle" x="1351" y="-80" font-family="Helvetica,sans-Serif" font-size="10.00" fill="#000000">deal.II/base/types.h</text>
</g>
<!-- Node1&#45;&gt;Node2 -->
<g id="edge2" class="edge">
<title>Node1&#45;&gt;Node2</title>
<path fill="none" stroke="#191970" d="M1372.9822,-260.7919C1301.0023,-245.2345 1122.02,-202.3468 1088,-154 1015.3792,-50.7966 823.0572,-198.7948 1290,-98 1295.0116,-96.9182 1300.2354,-95.7122 1305.4252,-94.464"/>
<polygon fill="#191970" stroke="#191970" points="1306.4255,-97.8223 1315.2987,-92.0329 1304.7519,-91.0253 1306.4255,-97.8223"/>
</g>
<!-- Node3 -->
<g id="node4" class="node">
<title>Node3</title>
<polygon fill="none" stroke="#bfbfbf" points="0,-73 0,-92 116,-92 116,-73 0,-73"/>
<text text-anchor="middle" x="58" y="-80" font-family="Helvetica,sans-Serif" font-size="10.00" fill="#000000">deal.II/lac/full_matrix.h</text>
</g>
<!-- Node1&#45;&gt;Node3 -->
<g id="edge3" class="edge">
<title>Node1&#45;&gt;Node3</title>
<path fill="none" stroke="#191970" d="M1372.6066,-265.7902C1251.1449,-260.8518 800.3601,-241.5077 659,-221 446.3806,-190.1545 197.8509,-122.5782 100.3193,-94.7982"/>
<polygon fill="#191970" stroke="#191970" points="101.1171,-91.3862 90.5401,-92.0018 99.1925,-98.1164 101.1171,-91.3862"/>
</g>
<!-- Node4 -->
<g id="node5" class="node">
<title>Node4</title>
<polygon fill="none" stroke="#bfbfbf" points="134.5,-67.5 134.5,-97.5 225.5,-97.5 225.5,-67.5 134.5,-67.5"/>
<text text-anchor="start" x="142.5" y="-85.5" font-family="Helvetica,sans-Serif" font-size="10.00" fill="#000000">deal.II/lac/lapack</text>
<text text-anchor="middle" x="180" y="-74.5" font-family="Helvetica,sans-Serif" font-size="10.00" fill="#000000">_full_matrix.h</text>
</g>
<!-- Node1&#45;&gt;Node4 -->
<g id="edge4" class="edge">
<title>Node1&#45;&gt;Node4</title>
<path fill="none" stroke="#191970" d="M1372.9617,-265.593C1290.8256,-261.4984 1055.705,-248.123 862,-221 583.6343,-182.0227 512.1653,-165.0294 235.5202,-98.2809"/>
<polygon fill="#191970" stroke="#191970" points="236.1338,-94.8286 225.5918,-95.8853 234.4919,-101.6333 236.1338,-94.8286"/>
</g>
<!-- Node5 -->
<g id="node6" class="node">
<title>Node5</title>
<polygon fill="none" stroke="#bfbfbf" points="1352.5,-.5 1352.5,-30.5 1443.5,-30.5 1443.5,-.5 1352.5,-.5"/>
<text text-anchor="start" x="1360.5" y="-18.5" font-family="Helvetica,sans-Serif" font-size="10.00" fill="#000000">deal.II/lac/lapack</text>
<text text-anchor="middle" x="1398" y="-7.5" font-family="Helvetica,sans-Serif" font-size="10.00" fill="#000000">_support.h</text>
</g>
<!-- Node1&#45;&gt;Node5 -->
<g id="edge5" class="edge">
<title>Node1&#45;&gt;Node5</title>
<path fill="none" stroke="#191970" d="M1433.2198,-259.1927C1436.1848,-258.4443 1439.1496,-257.7029 1442,-257 1509.4051,-240.3776 1533.1285,-254.3828 1594,-221 1669.1324,-179.7963 1765.4382,-132.3393 1710,-67 1693.6171,-47.6912 1538.7918,-29.4645 1453.5853,-20.7893"/>
<polygon fill="#191970" stroke="#191970" points="1453.8537,-17.2987 1443.5533,-19.7793 1453.1524,-24.2635 1453.8537,-17.2987"/>
</g>
<!-- Node6 -->
<g id="node7" class="node">
<title>Node6</title>
<polygon fill="none" stroke="#bfbfbf" points="243.5,-67.5 243.5,-97.5 334.5,-97.5 334.5,-67.5 243.5,-67.5"/>
<text text-anchor="start" x="251.5" y="-85.5" font-family="Helvetica,sans-Serif" font-size="10.00" fill="#000000">deal.II/lac/lapack</text>
<text text-anchor="middle" x="289" y="-74.5" font-family="Helvetica,sans-Serif" font-size="10.00" fill="#000000">_templates.h</text>
</g>
<!-- Node1&#45;&gt;Node6 -->
<g id="edge6" class="edge">
<title>Node1&#45;&gt;Node6</title>
<path fill="none" stroke="#191970" d="M1372.8174,-263.0974C1270.1637,-249.7009 925.1794,-203.6682 642,-154 536.3363,-135.4671 413.7568,-109.6622 344.3902,-94.6557"/>
<polygon fill="#191970" stroke="#191970" points="345.0649,-91.2207 334.5503,-92.5221 343.5815,-98.0618 345.0649,-91.2207"/>
</g>
<!-- Node7 -->
<g id="node8" class="node">
<title>Node7</title>
<polygon fill="none" stroke="#bfbfbf" points="1777,-196 1777,-215 1821,-215 1821,-196 1777,-196"/>
<text text-anchor="middle" x="1799" y="-203" font-family="Helvetica,sans-Serif" font-size="10.00" fill="#000000">cmath</text>
</g>
<!-- Node1&#45;&gt;Node7 -->
<g id="edge7" class="edge">
<title>Node1&#45;&gt;Node7</title>
<path fill="none" stroke="#191970" d="M1433.1417,-258.8291C1436.1225,-258.1544 1439.1124,-257.5295 1442,-257 1583.207,-231.1087 1624.2318,-257.7853 1763,-221 1765.3309,-220.3821 1767.7063,-219.6383 1770.0693,-218.8152"/>
<polygon fill="#191970" stroke="#191970" points="1771.5256,-222.0039 1779.5667,-215.1052 1768.9786,-215.4837 1771.5256,-222.0039"/>
</g>
<!-- Node8 -->
<g id="node9" class="node">
<title>Node8</title>
<polygon fill="none" stroke="#bfbfbf" points="1665.5,-73 1665.5,-92 1700.5,-92 1700.5,-73 1665.5,-73"/>
<text text-anchor="middle" x="1683" y="-80" font-family="Helvetica,sans-Serif" font-size="10.00" fill="#000000">map</text>
</g>
<!-- Node1&#45;&gt;Node8 -->
<g id="edge8" class="edge">
<title>Node1&#45;&gt;Node8</title>
<path fill="none" stroke="#191970" d="M1433.2294,-259.2417C1471.1149,-249.2793 1533.6695,-231.9713 1555,-221 1598.3997,-198.6775 1609.9076,-190.7683 1642,-154 1655.9142,-138.0585 1667.4339,-116.6768 1674.6828,-101.4589"/>
<polygon fill="#191970" stroke="#191970" points="1678.01,-102.5997 1678.9958,-92.0508 1671.6468,-99.6825 1678.01,-102.5997"/>
</g>
<!-- Node9 -->
<g id="node10" class="node">
<title>Node9</title>
<polygon fill="none" stroke="#bfbfbf" points="1603,-73 1603,-92 1647,-92 1647,-73 1603,-73"/>
<text text-anchor="middle" x="1625" y="-80" font-family="Helvetica,sans-Serif" font-size="10.00" fill="#000000">vector</text>
</g>
<!-- Node1&#45;&gt;Node9 -->
<g id="edge9" class="edge">
<title>Node1&#45;&gt;Node9</title>
<path fill="none" stroke="#191970" d="M1427.2209,-257.4794C1477.9152,-237.0519 1592.4591,-188.1069 1616,-154 1626.4082,-138.9202 1627.8532,-117.6938 1627.184,-102.2888"/>
<polygon fill="#191970" stroke="#191970" points="1630.6705,-101.9768 1626.421,-92.2715 1623.6907,-102.5085 1630.6705,-101.9768"/>
</g>
<!-- Node10 -->
<g id="node11" class="node">
<title>Node10</title>
<g id="a_node11"><a xlink:href="lapack__full__matrix__ext_8h_source.html" target="_top" xlink:title="lapack_full_matrix\l_ext.h">
<polygon fill="none" stroke="#000000" points="1355.5,-190.5 1355.5,-220.5 1450.5,-220.5 1450.5,-190.5 1355.5,-190.5"/>
<text text-anchor="start" x="1363.5" y="-208.5" font-family="Helvetica,sans-Serif" font-size="10.00" fill="#000000">lapack_full_matrix</text>
<text text-anchor="middle" x="1403" y="-197.5" font-family="Helvetica,sans-Serif" font-size="10.00" fill="#000000">_ext.h</text>
</a>
</g>
</g>
<!-- Node1&#45;&gt;Node10 -->
<g id="edge10" class="edge">
<title>Node1&#45;&gt;Node10</title>
<path fill="none" stroke="#191970" d="M1403,-257.3906C1403,-250.2234 1403,-240.0862 1403,-230.671"/>
<polygon fill="#191970" stroke="#191970" points="1406.5001,-230.5446 1403,-220.5446 1399.5001,-230.5446 1406.5001,-230.5446"/>
</g>
<!-- Node10&#45;&gt;Node8 -->
<g id="edge12" class="edge">
<title>Node10&#45;&gt;Node8</title>
<path fill="none" stroke="#191970" d="M1450.7712,-201.842C1495.9712,-196.6267 1564.3907,-184.0695 1616,-154 1639.0676,-140.56 1659.0322,-116.7277 1671.0291,-100.2958"/>
<polygon fill="#191970" stroke="#191970" points="1673.9462,-102.2323 1676.8435,-92.0413 1668.2234,-98.2012 1673.9462,-102.2323"/>
</g>
<!-- Node10&#45;&gt;Node9 -->
<g id="edge16" class="edge">
<title>Node10&#45;&gt;Node9</title>
<path fill="none" stroke="#191970" d="M1442.0594,-190.411C1465.2195,-180.9511 1494.8645,-167.9359 1520,-154 1550.7163,-136.9699 1583.8492,-113.4592 1604.5058,-98.1208"/>
<polygon fill="#191970" stroke="#191970" points="1606.6488,-100.8886 1612.5513,-92.0903 1602.4504,-95.2874 1606.6488,-100.8886"/>
</g>
<!-- Node11 -->
<g id="node12" class="node">
<title>Node11</title>
<polygon fill="none" stroke="#bfbfbf" points="1567,-134.5 1567,-153.5 1607,-153.5 1607,-134.5 1567,-134.5"/>
<text text-anchor="middle" x="1587" y="-141.5" font-family="Helvetica,sans-Serif" font-size="10.00" fill="#000000">limits</text>
</g>
<!-- Node10&#45;&gt;Node11 -->
<g id="edge11" class="edge">
<title>Node10&#45;&gt;Node11</title>
<path fill="none" stroke="#191970" d="M1448.0115,-190.4554C1481.8925,-179.131 1527.3957,-163.9221 1556.9565,-154.0417"/>
<polygon fill="#191970" stroke="#191970" points="1558.3277,-157.2738 1566.7025,-150.7842 1556.1087,-150.6348 1558.3277,-157.2738"/>
</g>
<!-- Node12 -->
<g id="node13" class="node">
<title>Node12</title>
<polygon fill="none" stroke="#bfbfbf" points="1097.5,-134.5 1097.5,-153.5 1138.5,-153.5 1138.5,-134.5 1097.5,-134.5"/>
<text text-anchor="middle" x="1118" y="-141.5" font-family="Helvetica,sans-Serif" font-size="10.00" fill="#000000">regex</text>
</g>
<!-- Node10&#45;&gt;Node12 -->
<g id="edge13" class="edge">
<title>Node10&#45;&gt;Node12</title>
<path fill="none" stroke="#191970" d="M1355.1289,-197.6377C1305.6927,-189.1168 1226.2067,-174.2997 1148.5129,-153.8725"/>
<polygon fill="#191970" stroke="#191970" points="1149.1203,-150.4123 1138.5564,-151.2207 1147.3187,-157.1765 1149.1203,-150.4123"/>
</g>
<!-- Node13 -->
<g id="node14" class="node">
<title>Node13</title>
<polygon fill="none" stroke="#bfbfbf" points="1157,-134.5 1157,-153.5 1209,-153.5 1209,-134.5 1157,-134.5"/>
<text text-anchor="middle" x="1183" y="-141.5" font-family="Helvetica,sans-Serif" font-size="10.00" fill="#000000">sstream</text>
</g>
<!-- Node10&#45;&gt;Node13 -->
<g id="edge14" class="edge">
<title>Node10&#45;&gt;Node13</title>
<path fill="none" stroke="#191970" d="M1355.2633,-192.1554C1314.2557,-180.6919 1256.0343,-164.4164 1218.8899,-154.0329"/>
<polygon fill="#191970" stroke="#191970" points="1219.5771,-150.5909 1209.0041,-151.2693 1217.6925,-157.3324 1219.5771,-150.5909"/>
</g>
<!-- Node14 -->
<g id="node15" class="node">
<title>Node14</title>
<polygon fill="none" stroke="#bfbfbf" points="1469.5,-134.5 1469.5,-153.5 1510.5,-153.5 1510.5,-134.5 1469.5,-134.5"/>
<text text-anchor="middle" x="1490" y="-141.5" font-family="Helvetica,sans-Serif" font-size="10.00" fill="#000000">string</text>
</g>
<!-- Node10&#45;&gt;Node14 -->
<g id="edge15" class="edge">
<title>Node10&#45;&gt;Node14</title>
<path fill="none" stroke="#191970" d="M1424.5056,-190.2977C1437.7968,-180.9022 1454.8057,-168.8787 1468.1588,-159.4395"/>
<polygon fill="#191970" stroke="#191970" points="1470.1846,-162.2937 1476.33,-153.6633 1466.1439,-156.5776 1470.1846,-162.2937"/>
</g>
<!-- Node15 -->
<g id="node16" class="node">
<title>Node15</title>
<g id="a_node16"><a xlink:href="general__exceptions_8h.html" target="_top" xlink:title="Definition of self&#45;defined general exceptions. ">
<polygon fill="none" stroke="#000000" points="1227.5,-134.5 1227.5,-153.5 1336.5,-153.5 1336.5,-134.5 1227.5,-134.5"/>
<text text-anchor="middle" x="1282" y="-141.5" font-family="Helvetica,sans-Serif" font-size="10.00" fill="#000000">general_exceptions.h</text>
</a>
</g>
</g>
<!-- Node10&#45;&gt;Node15 -->
<g id="edge17" class="edge">
<title>Node10&#45;&gt;Node15</title>
<path fill="none" stroke="#191970" d="M1373.4001,-190.4554C1354.0078,-180.599 1328.8258,-167.7999 1309.8057,-158.1327"/>
<polygon fill="#191970" stroke="#191970" points="1311.2512,-154.9412 1300.7507,-153.5303 1308.0795,-161.1815 1311.2512,-154.9412"/>
</g>
<!-- Node17 -->
<g id="node18" class="node">
<title>Node17</title>
<g id="a_node18"><a xlink:href="generic__functors_8h.html" target="_top" xlink:title="This header file contains a set of self&#45;defined generic functors. ">
<polygon fill="none" stroke="#000000" points="1354.5,-134.5 1354.5,-153.5 1451.5,-153.5 1451.5,-134.5 1354.5,-134.5"/>
<text text-anchor="middle" x="1403" y="-141.5" font-family="Helvetica,sans-Serif" font-size="10.00" fill="#000000">generic_functors.h</text>
</a>
</g>
</g>
<!-- Node10&#45;&gt;Node17 -->
<g id="edge19" class="edge">
<title>Node10&#45;&gt;Node17</title>
<path fill="none" stroke="#191970" d="M1403,-190.2977C1403,-182.3834 1403,-172.6043 1403,-164.0759"/>
<polygon fill="#191970" stroke="#191970" points="1406.5001,-163.8469 1403,-153.8469 1399.5001,-163.847 1406.5001,-163.8469"/>
</g>
<!-- Node18 -->
<g id="node19" class="node">
<title>Node18</title>
<g id="a_node19"><a xlink:href="lapack__helpers_8h.html" target="_top" xlink:title="Exposes LAPACK helper functions defined in lapack_full_matrix.cc and define new ones by following the...">
<polygon fill="none" stroke="#000000" points="651,-134.5 651,-153.5 741,-153.5 741,-134.5 651,-134.5"/>
<text text-anchor="middle" x="696" y="-141.5" font-family="Helvetica,sans-Serif" font-size="10.00" fill="#000000">lapack_helpers.h</text>
</a>
</g>
</g>
<!-- Node10&#45;&gt;Node18 -->
<g id="edge25" class="edge">
<title>Node10&#45;&gt;Node18</title>
<path fill="none" stroke="#191970" d="M1355.2377,-201.3453C1228.8659,-190.3525 886.2316,-160.5477 751.4913,-148.827"/>
<polygon fill="#191970" stroke="#191970" points="751.657,-145.3283 741.3913,-147.9485 751.0504,-152.302 751.657,-145.3283"/>
</g>
<!-- Node16 -->
<g id="node17" class="node">
<title>Node16</title>
<polygon fill="none" stroke="#bfbfbf" points="1421,-73 1421,-92 1547,-92 1547,-73 1421,-73"/>
<text text-anchor="middle" x="1484" y="-80" font-family="Helvetica,sans-Serif" font-size="10.00" fill="#000000">deal.II/base/exceptions.h</text>
</g>
<!-- Node15&#45;&gt;Node16 -->
<g id="edge18" class="edge">
<title>Node15&#45;&gt;Node16</title>
<path fill="none" stroke="#191970" d="M1313.5625,-134.3906C1348.3985,-123.7846 1404.595,-106.6753 1442.8588,-95.0257"/>
<polygon fill="#191970" stroke="#191970" points="1444.1121,-98.3028 1452.6591,-92.0419 1442.0733,-91.6063 1444.1121,-98.3028"/>
</g>
<!-- Node17&#45;&gt;Node2 -->
<g id="edge21" class="edge">
<title>Node17&#45;&gt;Node2</title>
<path fill="none" stroke="#191970" d="M1394.875,-134.3906C1387.1358,-125.2376 1375.3013,-111.2409 1365.8728,-100.09"/>
<polygon fill="#191970" stroke="#191970" points="1368.3689,-97.6213 1359.2396,-92.2449 1363.0235,-102.1409 1368.3689,-97.6213"/>
</g>
<!-- Node17&#45;&gt;Node5 -->
<g id="edge22" class="edge">
<title>Node17&#45;&gt;Node5</title>
<path fill="none" stroke="#191970" d="M1451.6161,-135.8453C1491.5019,-128.047 1543.3803,-114.9719 1556,-98 1564.2211,-86.9437 1564.0932,-78.1502 1556,-67 1543.6315,-49.9595 1494.0016,-35.6085 1453.6224,-26.4199"/>
<polygon fill="#191970" stroke="#191970" points="1454.3696,-23.0006 1443.8491,-24.2537 1452.8548,-29.8348 1454.3696,-23.0006"/>
</g>
<!-- Node17&#45;&gt;Node8 -->
<g id="edge23" class="edge">
<title>Node17&#45;&gt;Node8</title>
<path fill="none" stroke="#191970" d="M1451.5157,-135.616C1522.2705,-123.3259 1646.4479,-101.4921 1656,-98 1657.0407,-97.6195 1658.0878,-97.2006 1659.1337,-96.7518"/>
<polygon fill="#191970" stroke="#191970" points="1660.9442,-99.759 1668.3051,-92.1388 1657.7987,-93.5055 1660.9442,-99.759"/>
</g>
<!-- Node17&#45;&gt;Node9 -->
<g id="edge24" class="edge">
<title>Node17&#45;&gt;Node9</title>
<path fill="none" stroke="#191970" d="M1450.6265,-134.4799C1488.5739,-126.3567 1542.8109,-113.538 1589,-98 1590.8865,-97.3654 1592.8119,-96.6734 1594.7426,-95.9456"/>
<polygon fill="#191970" stroke="#191970" points="1596.3153,-99.0855 1604.2859,-92.1056 1593.7022,-92.5915 1596.3153,-99.0855"/>
</g>
<!-- Node17&#45;&gt;Node16 -->
<g id="edge20" class="edge">
<title>Node17&#45;&gt;Node16</title>
<path fill="none" stroke="#191970" d="M1415.6563,-134.3906C1428.3768,-124.7324 1448.2004,-109.6812 1463.2284,-98.271"/>
<polygon fill="#191970" stroke="#191970" points="1465.5846,-100.8766 1471.4326,-92.0419 1461.3516,-95.3015 1465.5846,-100.8766"/>
</g>
<!-- Node18&#45;&gt;Node3 -->
<g id="edge29" class="edge">
<title>Node18&#45;&gt;Node3</title>
<path fill="none" stroke="#191970" d="M650.9506,-142.6206C554.1556,-139.1646 319.3451,-128.1412 125,-98 118.3414,-96.9673 111.3624,-95.6366 104.5278,-94.1895"/>
<polygon fill="#191970" stroke="#191970" points="105.1921,-90.7519 94.6719,-92.0072 103.6788,-97.5864 105.1921,-90.7519"/>
</g>
<!-- Node18&#45;&gt;Node4 -->
<g id="edge30" class="edge">
<title>Node18&#45;&gt;Node4</title>
<path fill="none" stroke="#191970" d="M650.6885,-142.1993C569.1858,-138.3741 392.4475,-127.4067 235.3651,-98.0599"/>
<polygon fill="#191970" stroke="#191970" points="236.0027,-94.6185 225.5254,-96.1923 234.6973,-101.4958 236.0027,-94.6185"/>
</g>
<!-- Node18&#45;&gt;Node5 -->
<g id="edge31" class="edge">
<title>Node18&#45;&gt;Node5</title>
<path fill="none" stroke="#191970" d="M650.8257,-140.6163C568.1468,-133.9624 399.3368,-118.0617 382,-98 372.9913,-87.5754 372.5074,-76.9859 382,-67 415.3001,-31.9692 1134.6988,-19.1898 1342.3503,-16.2233"/>
<polygon fill="#191970" stroke="#191970" points="1342.4739,-19.722 1352.4236,-16.0814 1342.3752,-12.7227 1342.4739,-19.722"/>
</g>
<!-- Node18&#45;&gt;Node6 -->
<g id="edge32" class="edge">
<title>Node18&#45;&gt;Node6</title>
<path fill="none" stroke="#191970" d="M650.7993,-139.7721C584.3024,-133.1545 456.3698,-118.9057 349,-98 347.548,-97.7173 346.0788,-97.4202 344.5986,-97.1112"/>
<polygon fill="#191970" stroke="#191970" points="345.2529,-93.6713 334.7322,-94.9224 343.7369,-100.5052 345.2529,-93.6713"/>
</g>
<!-- Node19 -->
<g id="node20" class="node">
<title>Node19</title>
<polygon fill="none" stroke="#bfbfbf" points="391,-73 391,-92 507,-92 507,-73 391,-73"/>
<text text-anchor="middle" x="449" y="-80" font-family="Helvetica,sans-Serif" font-size="10.00" fill="#000000">deal.II/base/numbers.h</text>
</g>
<!-- Node18&#45;&gt;Node19 -->
<g id="edge26" class="edge">
<title>Node18&#45;&gt;Node19</title>
<path fill="none" stroke="#191970" d="M657.6773,-134.4581C614.503,-123.7082 544.2505,-106.2162 497.3416,-94.5365"/>
<polygon fill="#191970" stroke="#191970" points="497.962,-91.0842 487.4126,-92.0643 496.2707,-97.8768 497.962,-91.0842"/>
</g>
<!-- Node20 -->
<g id="node21" class="node">
<title>Node20</title>
<polygon fill="none" stroke="#bfbfbf" points="525,-67.5 525,-97.5 653,-97.5 653,-67.5 525,-67.5"/>
<text text-anchor="start" x="533" y="-85.5" font-family="Helvetica,sans-Serif" font-size="10.00" fill="#000000">deal.II/lac/blas_extension</text>
<text text-anchor="middle" x="589" y="-74.5" font-family="Helvetica,sans-Serif" font-size="10.00" fill="#000000">_templates.h</text>
</g>
<!-- Node18&#45;&gt;Node20 -->
<g id="edge27" class="edge">
<title>Node18&#45;&gt;Node20</title>
<path fill="none" stroke="#191970" d="M679.2813,-134.3906C664.5319,-125.9132 642.5538,-113.2809 623.9756,-102.6028"/>
<polygon fill="#191970" stroke="#191970" points="625.5892,-99.4933 615.1751,-97.5446 622.101,-105.5623 625.5892,-99.4933"/>
</g>
<!-- Node21 -->
<g id="node22" class="node">
<title>Node21</title>
<polygon fill="none" stroke="#bfbfbf" points="671,-73 671,-92 797,-92 797,-73 671,-73"/>
<text text-anchor="middle" x="734" y="-80" font-family="Helvetica,sans-Serif" font-size="10.00" fill="#000000">deal.II/lac/block_vector.h</text>
</g>
<!-- Node18&#45;&gt;Node21 -->
<g id="edge28" class="edge">
<title>Node18&#45;&gt;Node21</title>
<path fill="none" stroke="#191970" d="M701.9375,-134.3906C707.4267,-125.5068 715.7353,-112.0601 722.519,-101.0811"/>
<polygon fill="#191970" stroke="#191970" points="725.6998,-102.5917 727.9788,-92.2449 719.7449,-98.9122 725.6998,-102.5917"/>
</g>
<!-- Node22 -->
<g id="node23" class="node">
<title>Node22</title>
<polygon fill="none" stroke="#bfbfbf" points="815,-67.5 815,-97.5 907,-97.5 907,-67.5 815,-67.5"/>
<text text-anchor="start" x="823" y="-85.5" font-family="Helvetica,sans-Serif" font-size="10.00" fill="#000000">deal.II/lac/sparse</text>
<text text-anchor="middle" x="861" y="-74.5" font-family="Helvetica,sans-Serif" font-size="10.00" fill="#000000">_matrix.h</text>
</g>
<!-- Node18&#45;&gt;Node22 -->
<g id="edge33" class="edge">
<title>Node18&#45;&gt;Node22</title>
<path fill="none" stroke="#191970" d="M721.7813,-134.3906C745.5594,-125.5279 781.5211,-112.1239 810.9382,-101.1594"/>
<polygon fill="#191970" stroke="#191970" points="812.4886,-104.3168 820.6365,-97.5446 810.0438,-97.7576 812.4886,-104.3168"/>
</g>
<!-- Node23 -->
<g id="node24" class="node">
<title>Node23</title>
<polygon fill="none" stroke="#bfbfbf" points="925.5,-73 925.5,-92 1026.5,-92 1026.5,-73 925.5,-73"/>
<text text-anchor="middle" x="976" y="-80" font-family="Helvetica,sans-Serif" font-size="10.00" fill="#000000">deal.II/lac/utilities.h</text>
</g>
<!-- Node18&#45;&gt;Node23 -->
<g id="edge34" class="edge">
<title>Node18&#45;&gt;Node23</title>
<path fill="none" stroke="#191970" d="M741.2195,-135.1868C785.7908,-126.3489 855.7737,-112.0675 916,-98 920.6654,-96.9103 925.5232,-95.7306 930.3653,-94.5254"/>
<polygon fill="#191970" stroke="#191970" points="931.3781,-97.8795 940.2157,-92.036 929.663,-91.0929 931.3781,-97.8795"/>
</g>
<!-- Node24 -->
<g id="node25" class="node">
<title>Node24</title>
<polygon fill="none" stroke="#bfbfbf" points="1045,-73 1045,-92 1143,-92 1143,-73 1045,-73"/>
<text text-anchor="middle" x="1094" y="-80" font-family="Helvetica,sans-Serif" font-size="10.00" fill="#000000">deal.II/lac/vector.h</text>
</g>
<!-- Node18&#45;&gt;Node24 -->
<g id="edge35" class="edge">
<title>Node18&#45;&gt;Node24</title>
<path fill="none" stroke="#191970" d="M741.2552,-139.6349C806.5289,-132.9377 930.7188,-118.6928 1035,-98 1040.0642,-96.9951 1045.3392,-95.8108 1050.561,-94.552"/>
<polygon fill="#191970" stroke="#191970" points="1051.6203,-97.8948 1060.4681,-92.0667 1049.917,-91.1052 1051.6203,-97.8948"/>
</g>
<!-- Node25 -->
<g id="node26" class="node">
<title>Node25</title>
<g id="a_node26"><a xlink:href="lapack__templates__ext_8h.html" target="_top" xlink:title="Append more template based LAPACK functions to those existing in deal.ii. ">
<polygon fill="none" stroke="#000000" points="1161,-73 1161,-92 1281,-92 1281,-73 1161,-73"/>
<text text-anchor="middle" x="1221" y="-80" font-family="Helvetica,sans-Serif" font-size="10.00" fill="#000000">lapack_templates_ext.h</text>
</a>
</g>
</g>
<!-- Node18&#45;&gt;Node25 -->
<g id="edge36" class="edge">
<title>Node18&#45;&gt;Node25</title>
<path fill="none" stroke="#191970" d="M741.2177,-141.2505C823.3979,-135.8517 1002.5727,-122.23 1152,-98 1158.677,-96.9173 1165.6759,-95.5827 1172.5488,-94.1548"/>
<polygon fill="#191970" stroke="#191970" points="1173.4385,-97.5435 1182.4762,-92.0145 1171.9631,-90.7008 1173.4385,-97.5435"/>
</g>
<!-- Node25&#45;&gt;Node5 -->
<g id="edge37" class="edge">
<title>Node25&#45;&gt;Node5</title>
<path fill="none" stroke="#191970" d="M1246.3598,-72.9005C1272.9823,-62.8231 1315.511,-46.7247 1348.7637,-34.1375"/>
<polygon fill="#191970" stroke="#191970" points="1350.2023,-37.3353 1358.3156,-30.5218 1347.7242,-30.7887 1350.2023,-37.3353"/>
</g>
</g>
</svg>
        <g id="navigator" transform="translate(0 0)" fill="#404254">
                <rect fill="#f2f5e9" fill-opacity="0.5" stroke="#606060" stroke-width=".5" x="0" y="0" width="60" height="60"/>
                <use id="zoomplus" xlink:href="#zoomPlus" x="17" y="9" onmousedown="handleZoom(evt,'in')"/>
                <use id="zoomminus" xlink:href="#zoomMin" x="42" y="9" onmousedown="handleZoom(evt,'out')"/>
                <use id="reset" xlink:href="#resetDef" x="30" y="36" onmousedown="handleReset()"/>
                <g id="arrowUp" xlink:href="#dirArrow" transform="translate(30 24)" onmousedown="handlePan(0,-1)">
                  <use xlink:href="#rim" fill="#404040">
                        <set attributeName="fill" to="#808080" begin="arrowUp.mouseover" end="arrowUp.mouseout"/>
                  </use>
                  <path fill="none" stroke="white" stroke-width="1.5" d="M0,-3.0v7 M-2.5,-0.5L0,-3.0L2.5,-0.5"/>
                </g>
                <g id="arrowRight" xlink:href="#dirArrow" transform="rotate(90) translate(36 -43)" onmousedown="handlePan(1,0)">
                  <use xlink:href="#rim" fill="#404040">
                        <set attributeName="fill" to="#808080" begin="arrowRight.mouseover" end="arrowRight.mouseout"/>
                  </use>
                  <path fill="none" stroke="white" stroke-width="1.5" d="M0,-3.0v7 M-2.5,-0.5L0,-3.0L2.5,-0.5"/>
                </g>
                <g id="arrowDown" xlink:href="#dirArrow" transform="rotate(180) translate(-30 -48)" onmousedown="handlePan(0,1)">
                  <use xlink:href="#rim" fill="#404040">
                        <set attributeName="fill" to="#808080" begin="arrowDown.mouseover" end="arrowDown.mouseout"/>
                  </use>
                  <path fill="none" stroke="white" stroke-width="1.5" d="M0,-3.0v7 M-2.5,-0.5L0,-3.0L2.5,-0.5"/>
                </g>
                <g id="arrowLeft" xlink:href="#dirArrow" transform="rotate(270) translate(-36 17)" onmousedown="handlePan(-1,0)">
                  <use xlink:href="#rim" fill="#404040">
                        <set attributeName="fill" to="#808080" begin="arrowLeft.mouseover" end="arrowLeft.mouseout"/>
                  </use>
                  <path fill="none" stroke="white" stroke-width="1.5" d="M0,-3.0v7 M-2.5,-0.5L0,-3.0L2.5,-0.5"/>
                </g>
        </g>
        <svg viewBox="0 0 15 15" width="100%" height="30px" preserveAspectRatio="xMaxYMin meet">
         <g id="arrow_out" transform="scale(0.3 0.3)">
          <a xlink:href="rkmatrix_8cc__incl_org.svg" target="_base">
           <rect id="button" ry="5" rx="5" y="6" x="6" height="38" width="38"
                fill="#f2f5e9" fill-opacity="0.5" stroke="#606060" stroke-width="1.0"/>
           <path id="arrow"
             d="M 11.500037,31.436501 C 11.940474,20.09759 22.043105,11.32322 32.158766,21.979434 L 37.068811,17.246167 C 37.068811,17.246167 37.088388,32 37.088388,32 L 22.160133,31.978069 C 22.160133,31.978069 26.997745,27.140456 26.997745,27.140456 C 18.528582,18.264221 13.291696,25.230495 11.500037,31.436501 z"
             style="fill:#404040;"/>
          </a>
         </g>
        </svg>
</svg>
