<?xml version="1.0" encoding="UTF-8" standalone="no"?>
<!DOCTYPE svg PUBLIC "-//W3C//DTD SVG 1.1//EN"
 "http://www.w3.org/Graphics/SVG/1.1/DTD/svg11.dtd">
<!-- Generated by graphviz version 2.40.1 (20161225.0304)
 -->
<!-- Title: /home/jihuan/Projects/deal.ii/program/dealii&#45;9.1.1/examples/laplace&#45;bem/tests/rkmatrix&#45;local&#45;to&#45;submatrix/rkmatrix&#45;local&#45;to&#45;submatrix.cc Pages: 1 -->
<svg width="2396pt" height="497pt"
 viewBox="0.00 0.00 2396.15 497.00" xmlns="http://www.w3.org/2000/svg" xmlns:xlink="http://www.w3.org/1999/xlink">
<g id="graph0" class="graph" transform="scale(1 1) rotate(0) translate(4 493)">
<title>/home/jihuan/Projects/deal.ii/program/dealii&#45;9.1.1/examples/laplace&#45;bem/tests/rkmatrix&#45;local&#45;to&#45;submatrix/rkmatrix&#45;local&#45;to&#45;submatrix.cc</title>
<!-- Node0 -->
<g id="node1" class="node">
<title>Node0</title>
<polygon fill="#bfbfbf" stroke="#000000" points="1037.5,-414.5 1037.5,-488.5 1172.5,-488.5 1172.5,-414.5 1037.5,-414.5"/>
<text text-anchor="start" x="1045.5" y="-476.5" font-family="Helvetica,sans-Serif" font-size="10.00" fill="#000000">/home/jihuan/Projects</text>
<text text-anchor="start" x="1045.5" y="-465.5" font-family="Helvetica,sans-Serif" font-size="10.00" fill="#000000">/deal.ii/program/dealii</text>
<text text-anchor="start" x="1045.5" y="-454.5" font-family="Helvetica,sans-Serif" font-size="10.00" fill="#000000">&#45;9.1.1/examples/laplace</text>
<text text-anchor="start" x="1045.5" y="-443.5" font-family="Helvetica,sans-Serif" font-size="10.00" fill="#000000">&#45;bem/tests/rkmatrix&#45;local</text>
<text text-anchor="start" x="1045.5" y="-432.5" font-family="Helvetica,sans-Serif" font-size="10.00" fill="#000000">&#45;to&#45;submatrix/rkmatrix&#45;local</text>
<text text-anchor="middle" x="1105" y="-421.5" font-family="Helvetica,sans-Serif" font-size="10.00" fill="#000000">&#45;to&#45;submatrix.cc</text>
</g>
<!-- Node1 -->
<g id="node2" class="node">
<title>Node1</title>
<polygon fill="none" stroke="#bfbfbf" points="760,-56.5 760,-75.5 814,-75.5 814,-56.5 760,-56.5"/>
<text text-anchor="middle" x="787" y="-63.5" font-family="Helvetica,sans-Serif" font-size="10.00" fill="#000000">iostream</text>
</g>
<!-- Node0&#45;&gt;Node1 -->
<g id="edge1" class="edge">
<title>Node0&#45;&gt;Node1</title>
<path fill="none" stroke="#191970" d="M1037.3309,-449.0648C881.5386,-441.8919 504.9693,-415.0879 428,-322 390.5025,-276.65 331.8389,-322.8524 499,-179 538.2077,-145.2593 681.4512,-98.3225 749.9839,-77.1473"/>
<polygon fill="#191970" stroke="#191970" points="751.3914,-80.3764 759.9234,-74.0951 749.3365,-73.6848 751.3914,-80.3764"/>
</g>
<!-- Node2 -->
<g id="node3" class="node">
<title>Node2</title>
<g id="a_node3"><a xlink:href="hmatrix_8h.html" target="_top" xlink:title="Definition of hierarchical matrix. ">
<polygon fill="none" stroke="#000000" points="966.5,-358.5 966.5,-377.5 1023.5,-377.5 1023.5,-358.5 966.5,-358.5"/>
<text text-anchor="middle" x="995" y="-365.5" font-family="Helvetica,sans-Serif" font-size="10.00" fill="#000000">hmatrix.h</text>
</a>
</g>
</g>
<!-- Node0&#45;&gt;Node2 -->
<g id="edge2" class="edge">
<title>Node0&#45;&gt;Node2</title>
<path fill="none" stroke="#191970" d="M1056.1118,-414.3894C1042.0287,-403.6991 1027.4044,-392.5979 1015.994,-383.9364"/>
<polygon fill="#191970" stroke="#191970" points="1018.0384,-381.0941 1007.9571,-377.8356 1013.806,-386.6697 1018.0384,-381.0941"/>
</g>
<!-- Node31 -->
<g id="node32" class="node">
<title>Node31</title>
<g id="a_node32"><a xlink:href="lapack__full__matrix__ext_8h_source.html" target="_top" xlink:title="lapack_full_matrix\l_ext.h">
<polygon fill="none" stroke="#000000" points="1185.5,-235.5 1185.5,-265.5 1280.5,-265.5 1280.5,-235.5 1185.5,-235.5"/>
<text text-anchor="start" x="1193.5" y="-253.5" font-family="Helvetica,sans-Serif" font-size="10.00" fill="#000000">lapack_full_matrix</text>
<text text-anchor="middle" x="1233" y="-242.5" font-family="Helvetica,sans-Serif" font-size="10.00" fill="#000000">_ext.h</text>
</a>
</g>
</g>
<!-- Node0&#45;&gt;Node31 -->
<g id="edge80" class="edge">
<title>Node0&#45;&gt;Node31</title>
<path fill="none" stroke="#191970" d="M1136.54,-414.314C1156.8346,-389.2686 1182.8899,-354.9173 1202,-322 1210.6912,-307.0293 1218.4383,-289.1632 1224.014,-275.0353"/>
<polygon fill="#191970" stroke="#191970" points="1227.3567,-276.0937 1227.6727,-265.5036 1220.8216,-273.5852 1227.3567,-276.0937"/>
</g>
<!-- Node45 -->
<g id="node46" class="node">
<title>Node45</title>
<g id="a_node46"><a xlink:href="rkmatrix_8h.html" target="_top" xlink:title="Definition of rank&#45;k matrix. ">
<polygon fill="none" stroke="#000000" points="1284,-302.5 1284,-321.5 1344,-321.5 1344,-302.5 1284,-302.5"/>
<text text-anchor="middle" x="1314" y="-309.5" font-family="Helvetica,sans-Serif" font-size="10.00" fill="#000000">rkmatrix.h</text>
</a>
</g>
</g>
<!-- Node0&#45;&gt;Node45 -->
<g id="edge81" class="edge">
<title>Node0&#45;&gt;Node45</title>
<path fill="none" stroke="#191970" d="M1172.816,-421.5829C1197.1524,-409.5288 1224.1959,-394.5485 1247,-378 1266.6632,-363.7307 1286.1036,-343.7518 1298.9371,-329.5214"/>
<polygon fill="#191970" stroke="#191970" points="1301.6796,-331.7035 1305.6816,-321.8935 1296.4355,-327.0667 1301.6796,-331.7035"/>
</g>
<!-- Node2&#45;&gt;Node1 -->
<g id="edge7" class="edge">
<title>Node2&#45;&gt;Node1</title>
<path fill="none" stroke="#191970" d="M966.2304,-362.5162C926.0841,-354.3966 855.933,-338.3658 836,-322 808.3462,-299.2951 799,-286.2805 799,-250.5 799,-250.5 799,-250.5 799,-189 799,-152.3261 793.6502,-109.7908 790.0947,-85.5711"/>
<polygon fill="#191970" stroke="#191970" points="793.5327,-84.8983 788.5688,-75.5382 786.6123,-85.9508 793.5327,-84.8983"/>
</g>
<!-- Node3 -->
<g id="node4" class="node">
<title>Node3</title>
<polygon fill="none" stroke="#bfbfbf" points="845,-302.5 845,-321.5 967,-321.5 967,-302.5 845,-302.5"/>
<text text-anchor="middle" x="906" y="-309.5" font-family="Helvetica,sans-Serif" font-size="10.00" fill="#000000">deal.II/base/logstream.h</text>
</g>
<!-- Node2&#45;&gt;Node3 -->
<g id="edge3" class="edge">
<title>Node2&#45;&gt;Node3</title>
<path fill="none" stroke="#191970" d="M979.4974,-358.2455C965.842,-349.6534 945.7343,-337.0014 930.0011,-327.1018"/>
<polygon fill="#191970" stroke="#191970" points="931.6529,-324.006 921.325,-321.6427 927.9249,-329.9307 931.6529,-324.006"/>
</g>
<!-- Node4 -->
<g id="node5" class="node">
<title>Node4</title>
<polygon fill="none" stroke="#bfbfbf" points="1039,-118 1039,-137 1155,-137 1155,-118 1039,-118"/>
<text text-anchor="middle" x="1097" y="-125" font-family="Helvetica,sans-Serif" font-size="10.00" fill="#000000">deal.II/lac/full_matrix.h</text>
</g>
<!-- Node2&#45;&gt;Node4 -->
<g id="edge4" class="edge">
<title>Node2&#45;&gt;Node4</title>
<path fill="none" stroke="#191970" d="M998.3989,-358.4121C1008.4176,-330.3933 1039.0743,-246.3747 1070,-179 1075.0635,-167.9687 1081.3265,-155.9392 1086.5454,-146.2826"/>
<polygon fill="#191970" stroke="#191970" points="1089.7755,-147.6712 1091.5119,-137.2196 1083.6368,-144.3071 1089.7755,-147.6712"/>
</g>
<!-- Node5 -->
<g id="node6" class="node">
<title>Node5</title>
<polygon fill="none" stroke="#bfbfbf" points="114,-56.5 114,-75.5 170,-75.5 170,-56.5 114,-56.5"/>
<text text-anchor="middle" x="142" y="-63.5" font-family="Helvetica,sans-Serif" font-size="10.00" fill="#000000">algorithm</text>
</g>
<!-- Node2&#45;&gt;Node5 -->
<g id="edge5" class="edge">
<title>Node2&#45;&gt;Node5</title>
<path fill="none" stroke="#191970" d="M966.376,-366.7486C858.1753,-361.8724 477.7428,-343.3558 428,-322 300.5792,-267.2951 191.3396,-132.3792 154.9137,-83.7955"/>
<polygon fill="#191970" stroke="#191970" points="157.5541,-81.4797 148.7928,-75.5224 151.9268,-85.6431 157.5541,-81.4797"/>
</g>
<!-- Node6 -->
<g id="node7" class="node">
<title>Node6</title>
<polygon fill="none" stroke="#bfbfbf" points="1117,-302.5 1117,-321.5 1167,-321.5 1167,-302.5 1117,-302.5"/>
<text text-anchor="middle" x="1142" y="-309.5" font-family="Helvetica,sans-Serif" font-size="10.00" fill="#000000">fstream</text>
</g>
<!-- Node2&#45;&gt;Node6 -->
<g id="edge6" class="edge">
<title>Node2&#45;&gt;Node6</title>
<path fill="none" stroke="#191970" d="M1020.2702,-358.3733C1044.3966,-349.1822 1080.9362,-335.2624 1107.6877,-325.0713"/>
<polygon fill="#191970" stroke="#191970" points="1108.9607,-328.3318 1117.0596,-321.5011 1106.4687,-321.7904 1108.9607,-328.3318"/>
</g>
<!-- Node7 -->
<g id="node8" class="node">
<title>Node7</title>
<polygon fill="none" stroke="#bfbfbf" points="1079.5,-179.5 1079.5,-198.5 1114.5,-198.5 1114.5,-179.5 1079.5,-179.5"/>
<text text-anchor="middle" x="1097" y="-186.5" font-family="Helvetica,sans-Serif" font-size="10.00" fill="#000000">map</text>
</g>
<!-- Node2&#45;&gt;Node7 -->
<g id="edge8" class="edge">
<title>Node2&#45;&gt;Node7</title>
<path fill="none" stroke="#191970" d="M1017.8802,-358.4836C1033.4537,-350.8506 1053.2911,-338.6547 1065,-322 1089.37,-287.3364 1095.3143,-236.3876 1096.679,-208.6907"/>
<polygon fill="#191970" stroke="#191970" points="1100.1778,-208.783 1097.0186,-198.6701 1093.1819,-208.5459 1100.1778,-208.783"/>
</g>
<!-- Node8 -->
<g id="node9" class="node">
<title>Node8</title>
<polygon fill="none" stroke="#bfbfbf" points="700.5,-56.5 700.5,-75.5 741.5,-75.5 741.5,-56.5 700.5,-56.5"/>
<text text-anchor="middle" x="721" y="-63.5" font-family="Helvetica,sans-Serif" font-size="10.00" fill="#000000">string</text>
</g>
<!-- Node2&#45;&gt;Node8 -->
<g id="edge9" class="edge">
<title>Node2&#45;&gt;Node8</title>
<path fill="none" stroke="#191970" d="M966.2321,-364.7513C928.8324,-359.6654 862.2453,-347.6227 811,-322 765.9267,-299.4633 723,-300.8935 723,-250.5 723,-250.5 723,-250.5 723,-189 723,-152.4946 722.1084,-109.9028 721.5158,-85.6269"/>
<polygon fill="#191970" stroke="#191970" points="725.0132,-85.4766 721.2615,-75.5683 718.0154,-85.6536 725.0132,-85.4766"/>
</g>
<!-- Node9 -->
<g id="node10" class="node">
<title>Node9</title>
<polygon fill="none" stroke="#bfbfbf" points="0,-.5 0,-19.5 40,-19.5 40,-.5 0,-.5"/>
<text text-anchor="middle" x="20" y="-7.5" font-family="Helvetica,sans-Serif" font-size="10.00" fill="#000000">utility</text>
</g>
<!-- Node2&#45;&gt;Node9 -->
<g id="edge10" class="edge">
<title>Node2&#45;&gt;Node9</title>
<path fill="none" stroke="#191970" d="M966.2544,-366.2206C882.0517,-360.8097 637.0549,-343.5951 560,-322 313.4303,-252.8975 204.938,-271.029 39,-76 28.0256,-63.1016 23.3801,-44.1998 21.419,-29.9264"/>
<polygon fill="#191970" stroke="#191970" points="24.8685,-29.2588 20.352,-19.6748 17.9061,-29.9834 24.8685,-29.2588"/>
</g>
<!-- Node10 -->
<g id="node11" class="node">
<title>Node10</title>
<polygon fill="none" stroke="#bfbfbf" points="1389,-.5 1389,-19.5 1433,-19.5 1433,-.5 1389,-.5"/>
<text text-anchor="middle" x="1411" y="-7.5" font-family="Helvetica,sans-Serif" font-size="10.00" fill="#000000">vector</text>
</g>
<!-- Node2&#45;&gt;Node10 -->
<g id="edge11" class="edge">
<title>Node2&#45;&gt;Node10</title>
<path fill="none" stroke="#191970" d="M1023.7616,-367.0735C1220.2505,-360.5607 2357,-319.8839 2357,-250.5 2357,-250.5 2357,-250.5 2357,-127.5 2357,-92.5536 2496.1707,-121.714 2179,-56 2035.0702,-26.1794 1570.9876,-13.6343 1443.607,-10.7013"/>
<polygon fill="#191970" stroke="#191970" points="1443.4201,-7.1963 1433.3435,-10.4691 1443.2618,-14.1945 1443.4201,-7.1963"/>
</g>
<!-- Node11 -->
<g id="node12" class="node">
<title>Node11</title>
<g id="a_node12"><a xlink:href="block__cluster_8h.html" target="_top" xlink:title="Implementation of the class BlockCluster. ">
<polygon fill="none" stroke="#000000" points="498.5,-241 498.5,-260 581.5,-260 581.5,-241 498.5,-241"/>
<text text-anchor="middle" x="540" y="-248" font-family="Helvetica,sans-Serif" font-size="10.00" fill="#000000">block_cluster.h</text>
</a>
</g>
</g>
<!-- Node2&#45;&gt;Node11 -->
<g id="edge12" class="edge">
<title>Node2&#45;&gt;Node11</title>
<path fill="none" stroke="#191970" d="M966.3757,-366.2925C878.1177,-360.8244 614.1952,-342.8778 582,-322 563.4711,-309.9844 552.0673,-286.6961 545.9027,-269.9589"/>
<polygon fill="#191970" stroke="#191970" points="549.0895,-268.4544 542.586,-260.0905 542.4542,-270.6845 549.0895,-268.4544"/>
</g>
<!-- Node30 -->
<g id="node31" class="node">
<title>Node30</title>
<g id="a_node31"><a xlink:href="block__cluster__tree_8h.html" target="_top" xlink:title="Implementation of the class BlockClusterTree. ">
<polygon fill="none" stroke="#000000" points="591,-302.5 591,-321.5 695,-321.5 695,-302.5 591,-302.5"/>
<text text-anchor="middle" x="643" y="-309.5" font-family="Helvetica,sans-Serif" font-size="10.00" fill="#000000">block_cluster_tree.h</text>
</a>
</g>
</g>
<!-- Node2&#45;&gt;Node30 -->
<g id="edge44" class="edge">
<title>Node2&#45;&gt;Node30</title>
<path fill="none" stroke="#191970" d="M966.4925,-363.4647C909.8681,-354.4563 782.0635,-334.1237 705.1282,-321.884"/>
<polygon fill="#191970" stroke="#191970" points="705.5099,-318.4008 695.0842,-320.2861 704.41,-325.3139 705.5099,-318.4008"/>
</g>
<!-- Node2&#45;&gt;Node31 -->
<g id="edge70" class="edge">
<title>Node2&#45;&gt;Node31</title>
<path fill="none" stroke="#191970" d="M1023.5782,-366.3421C1061.2543,-362.9718 1128.3329,-352.7768 1176,-322 1194.3952,-310.1229 1209.5148,-290.2884 1219.5486,-274.519"/>
<polygon fill="#191970" stroke="#191970" points="1222.6486,-276.1574 1224.8549,-265.7948 1216.668,-272.5198 1222.6486,-276.1574"/>
</g>
<!-- Node44 -->
<g id="node45" class="node">
<title>Node44</title>
<g id="a_node45"><a xlink:href="generic__functors_8h.html" target="_top" xlink:title="This header file contains a set of self&#45;defined generic functors. ">
<polygon fill="none" stroke="#000000" points="925.5,-241 925.5,-260 1022.5,-260 1022.5,-241 925.5,-241"/>
<text text-anchor="middle" x="974" y="-248" font-family="Helvetica,sans-Serif" font-size="10.00" fill="#000000">generic_functors.h</text>
</a>
</g>
</g>
<!-- Node2&#45;&gt;Node44 -->
<g id="edge66" class="edge">
<title>Node2&#45;&gt;Node44</title>
<path fill="none" stroke="#191970" d="M993.2815,-358.3845C989.8512,-339.1913 982.0937,-295.786 977.5327,-270.2663"/>
<polygon fill="#191970" stroke="#191970" points="980.9471,-269.4766 975.7423,-260.2484 974.0563,-270.7082 980.9471,-269.4766"/>
</g>
<!-- Node2&#45;&gt;Node45 -->
<g id="edge71" class="edge">
<title>Node2&#45;&gt;Node45</title>
<path fill="none" stroke="#191970" d="M1023.5899,-362.9811C1080.6384,-352.9663 1208.7222,-330.4814 1274.0441,-319.0142"/>
<polygon fill="#191970" stroke="#191970" points="1274.7243,-322.4484 1283.9685,-317.272 1273.5139,-315.5538 1274.7243,-322.4484"/>
</g>
<!-- Node12 -->
<g id="node13" class="node">
<title>Node12</title>
<g id="a_node13"><a xlink:href="cluster_8h.html" target="_top" xlink:title="Implementation of the class Cluster. ">
<polygon fill="none" stroke="#000000" points="394,-118 394,-137 448,-137 448,-118 394,-118"/>
<text text-anchor="middle" x="421" y="-125" font-family="Helvetica,sans-Serif" font-size="10.00" fill="#000000">cluster.h</text>
</a>
</g>
</g>
<!-- Node11&#45;&gt;Node12 -->
<g id="edge13" class="edge">
<title>Node11&#45;&gt;Node12</title>
<path fill="none" stroke="#191970" d="M530.6623,-240.8484C510.5025,-220.011 462.685,-170.5862 437.3721,-144.4224"/>
<polygon fill="#191970" stroke="#191970" points="439.7631,-141.8601 430.2944,-137.1068 434.7322,-146.7274 439.7631,-141.8601"/>
</g>
<!-- Node20 -->
<g id="node21" class="node">
<title>Node20</title>
<g id="a_node21"><a xlink:href="cluster__tree_8h_source.html" target="_top" xlink:title="cluster_tree.h">
<polygon fill="none" stroke="#000000" points="508,-179.5 508,-198.5 584,-198.5 584,-179.5 508,-179.5"/>
<text text-anchor="middle" x="546" y="-186.5" font-family="Helvetica,sans-Serif" font-size="10.00" fill="#000000">cluster_tree.h</text>
</a>
</g>
</g>
<!-- Node11&#45;&gt;Node20 -->
<g id="edge25" class="edge">
<title>Node11&#45;&gt;Node20</title>
<path fill="none" stroke="#191970" d="M540.9375,-240.8906C541.7692,-232.3657 543.0108,-219.6392 544.0562,-208.9235"/>
<polygon fill="#191970" stroke="#191970" points="547.5617,-209.0375 545.0493,-198.7449 540.5947,-208.3577 547.5617,-209.0375"/>
</g>
<!-- Node12&#45;&gt;Node5 -->
<g id="edge15" class="edge">
<title>Node12&#45;&gt;Node5</title>
<path fill="none" stroke="#191970" d="M397.8253,-117.9103C392.0679,-115.7589 385.8647,-113.6329 380,-112 294.677,-88.2442 270.6649,-94.2633 184,-76 182.7623,-75.7392 181.5053,-75.4693 180.2369,-75.1927"/>
<polygon fill="#191970" stroke="#191970" points="180.9464,-71.7648 170.4213,-72.9787 179.4062,-78.5933 180.9464,-71.7648"/>
</g>
<!-- Node12&#45;&gt;Node10 -->
<g id="edge17" class="edge">
<title>Node12&#45;&gt;Node10</title>
<path fill="none" stroke="#191970" d="M424.1807,-117.9718C430.1118,-101.9045 444.5266,-69.8241 469,-56 509.4151,-33.171 1217.5137,-14.6889 1378.5831,-10.7684"/>
<polygon fill="#191970" stroke="#191970" points="1378.8921,-14.262 1388.8046,-10.5213 1378.7229,-7.2641 1378.8921,-14.262"/>
</g>
<!-- Node13 -->
<g id="node14" class="node">
<title>Node13</title>
<polygon fill="none" stroke="#bfbfbf" points="1135.5,-56.5 1135.5,-75.5 1238.5,-75.5 1238.5,-56.5 1135.5,-56.5"/>
<text text-anchor="middle" x="1187" y="-63.5" font-family="Helvetica,sans-Serif" font-size="10.00" fill="#000000">deal.II/base/types.h</text>
</g>
<!-- Node12&#45;&gt;Node13 -->
<g id="edge14" class="edge">
<title>Node12&#45;&gt;Node13</title>
<path fill="none" stroke="#191970" d="M442.7592,-117.8729C448.8713,-115.5568 455.5987,-113.361 462,-112 734.1552,-54.1377 809.6209,-97.8477 1087,-76 1099.421,-75.0217 1112.6935,-73.811 1125.3759,-72.5738"/>
<polygon fill="#191970" stroke="#191970" points="1125.7875,-76.0503 1135.393,-71.5798 1125.0962,-69.0845 1125.7875,-76.0503"/>
</g>
<!-- Node14 -->
<g id="node15" class="node">
<title>Node14</title>
<polygon fill="none" stroke="#bfbfbf" points="48.5,-56.5 48.5,-75.5 95.5,-75.5 95.5,-56.5 48.5,-56.5"/>
<text text-anchor="middle" x="72" y="-63.5" font-family="Helvetica,sans-Serif" font-size="10.00" fill="#000000">iterator</text>
</g>
<!-- Node12&#45;&gt;Node14 -->
<g id="edge16" class="edge">
<title>Node12&#45;&gt;Node14</title>
<path fill="none" stroke="#191970" d="M393.7101,-124.2925C340.2262,-117.7422 217.784,-101.4465 105.483,-75.8517"/>
<polygon fill="#191970" stroke="#191970" points="106.2227,-72.4304 95.6915,-73.59 104.6472,-79.2509 106.2227,-72.4304"/>
</g>
<!-- Node15 -->
<g id="node16" class="node">
<title>Node15</title>
<g id="a_node16"><a xlink:href="simple__bounding__box_8h_source.html" target="_top" xlink:title="simple_bounding_box.h">
<polygon fill="none" stroke="#000000" points="226.5,-56.5 226.5,-75.5 345.5,-75.5 345.5,-56.5 226.5,-56.5"/>
<text text-anchor="middle" x="286" y="-63.5" font-family="Helvetica,sans-Serif" font-size="10.00" fill="#000000">simple_bounding_box.h</text>
</a>
</g>
</g>
<!-- Node12&#45;&gt;Node15 -->
<g id="edge18" class="edge">
<title>Node12&#45;&gt;Node15</title>
<path fill="none" stroke="#191970" d="M399.9063,-117.8906C377.4173,-107.6457 341.6082,-91.3326 316.1476,-79.7339"/>
<polygon fill="#191970" stroke="#191970" points="317.4968,-76.5025 306.9456,-75.5419 314.5948,-82.8727 317.4968,-76.5025"/>
</g>
<!-- Node15&#45;&gt;Node9 -->
<g id="edge23" class="edge">
<title>Node15&#45;&gt;Node9</title>
<path fill="none" stroke="#191970" d="M226.0579,-56.7591C180.179,-49.1423 115.2308,-37.1902 50.1849,-20.0421"/>
<polygon fill="#191970" stroke="#191970" points="50.7344,-16.566 40.1694,-17.36 48.9236,-23.3277 50.7344,-16.566"/>
</g>
<!-- Node15&#45;&gt;Node10 -->
<g id="edge24" class="edge">
<title>Node15&#45;&gt;Node10</title>
<path fill="none" stroke="#191970" d="M345.5405,-60.1972C362.4801,-58.6785 380.957,-57.1473 398,-56 783.7306,-30.0344 1253.0989,-14.7673 1378.7783,-10.9507"/>
<polygon fill="#191970" stroke="#191970" points="1378.991,-14.4459 1388.881,-10.6462 1378.78,-7.4491 1378.991,-14.4459"/>
</g>
<!-- Node16 -->
<g id="node17" class="node">
<title>Node16</title>
<polygon fill="none" stroke="#bfbfbf" points="204,-.5 204,-19.5 304,-19.5 304,-.5 204,-.5"/>
<text text-anchor="middle" x="254" y="-7.5" font-family="Helvetica,sans-Serif" font-size="10.00" fill="#000000">deal.II/base/point.h</text>
</g>
<!-- Node15&#45;&gt;Node16 -->
<g id="edge19" class="edge">
<title>Node15&#45;&gt;Node16</title>
<path fill="none" stroke="#191970" d="M280.426,-56.2455C276.0669,-48.617 269.8789,-37.7881 264.5867,-28.5267"/>
<polygon fill="#191970" stroke="#191970" points="267.5104,-26.5886 259.5101,-19.6427 261.4327,-30.0616 267.5104,-26.5886"/>
</g>
<!-- Node17 -->
<g id="node18" class="node">
<title>Node17</title>
<polygon fill="none" stroke="#bfbfbf" points="58.5,-.5 58.5,-19.5 185.5,-19.5 185.5,-.5 58.5,-.5"/>
<text text-anchor="middle" x="122" y="-7.5" font-family="Helvetica,sans-Serif" font-size="10.00" fill="#000000">deal.II/dofs/dof_handler.h</text>
</g>
<!-- Node15&#45;&gt;Node17 -->
<g id="edge20" class="edge">
<title>Node15&#45;&gt;Node17</title>
<path fill="none" stroke="#191970" d="M257.8074,-56.3733C230.6547,-47.1016 189.4093,-33.0178 159.4975,-22.804"/>
<polygon fill="#191970" stroke="#191970" points="160.4192,-19.4204 149.8247,-19.5011 158.1572,-26.0449 160.4192,-19.4204"/>
</g>
<!-- Node18 -->
<g id="node19" class="node">
<title>Node18</title>
<polygon fill="none" stroke="#bfbfbf" points="322,-.5 322,-19.5 438,-19.5 438,-.5 322,-.5"/>
<text text-anchor="middle" x="380" y="-7.5" font-family="Helvetica,sans-Serif" font-size="10.00" fill="#000000">deal.II/dofs/dof_tools.h</text>
</g>
<!-- Node15&#45;&gt;Node18 -->
<g id="edge21" class="edge">
<title>Node15&#45;&gt;Node18</title>
<path fill="none" stroke="#191970" d="M302.3736,-56.2455C316.9308,-47.5731 338.431,-34.7645 355.1152,-24.825"/>
<polygon fill="#191970" stroke="#191970" points="357.0144,-27.7676 363.8141,-19.6427 353.4317,-21.7539 357.0144,-27.7676"/>
</g>
<!-- Node19 -->
<g id="node20" class="node">
<title>Node19</title>
<polygon fill="none" stroke="#bfbfbf" points="456.5,-.5 456.5,-19.5 559.5,-19.5 559.5,-.5 456.5,-.5"/>
<text text-anchor="middle" x="508" y="-7.5" font-family="Helvetica,sans-Serif" font-size="10.00" fill="#000000">deal.II/fe/mapping.h</text>
</g>
<!-- Node15&#45;&gt;Node19 -->
<g id="edge22" class="edge">
<title>Node15&#45;&gt;Node19</title>
<path fill="none" stroke="#191970" d="M323.9109,-56.4369C361.665,-46.9133 419.7265,-32.2672 460.5264,-21.9753"/>
<polygon fill="#191970" stroke="#191970" points="461.4053,-25.3633 470.2454,-19.5237 459.6931,-18.576 461.4053,-25.3633"/>
</g>
<!-- Node20&#45;&gt;Node12 -->
<g id="edge26" class="edge">
<title>Node20&#45;&gt;Node12</title>
<path fill="none" stroke="#191970" d="M526.4688,-179.3906C505.8292,-169.2359 473.0724,-153.1196 449.5398,-141.5416"/>
<polygon fill="#191970" stroke="#191970" points="450.912,-138.3161 440.3941,-137.0419 447.8218,-144.5971 450.912,-138.3161"/>
</g>
<!-- Node21 -->
<g id="node22" class="node">
<title>Node21</title>
<g id="a_node22"><a xlink:href="debug__tools_8h.html" target="_top" xlink:title="This file includes a bunch of helper functions for printing out and visualizing information about gri...">
<polygon fill="none" stroke="#000000" points="471.5,-118 471.5,-137 548.5,-137 548.5,-118 471.5,-118"/>
<text text-anchor="middle" x="510" y="-125" font-family="Helvetica,sans-Serif" font-size="10.00" fill="#000000">debug_tools.h</text>
</a>
</g>
</g>
<!-- Node20&#45;&gt;Node21 -->
<g id="edge27" class="edge">
<title>Node20&#45;&gt;Node21</title>
<path fill="none" stroke="#191970" d="M540.375,-179.3906C535.1747,-170.5068 527.3034,-157.0601 520.8767,-146.0811"/>
<polygon fill="#191970" stroke="#191970" points="523.7767,-144.1069 515.7043,-137.2449 517.7356,-147.6432 523.7767,-144.1069"/>
</g>
<!-- Node24 -->
<g id="node25" class="node">
<title>Node24</title>
<g id="a_node25"><a xlink:href="tree_8h.html" target="_top" xlink:title="Implementation of the classes for binary tree node, general tree node and functions for manipulating ...">
<polygon fill="none" stroke="#000000" points="827.5,-118 827.5,-137 868.5,-137 868.5,-118 827.5,-118"/>
<text text-anchor="middle" x="848" y="-125" font-family="Helvetica,sans-Serif" font-size="10.00" fill="#000000">tree.h</text>
</a>
</g>
</g>
<!-- Node20&#45;&gt;Node24 -->
<g id="edge35" class="edge">
<title>Node20&#45;&gt;Node24</title>
<path fill="none" stroke="#191970" d="M584.2485,-181.211C644.9358,-168.8525 762.0752,-144.9979 817.5056,-133.7099"/>
<polygon fill="#191970" stroke="#191970" points="818.3219,-137.1156 827.4223,-131.6905 816.925,-130.2564 818.3219,-137.1156"/>
</g>
<!-- Node21&#45;&gt;Node1 -->
<g id="edge33" class="edge">
<title>Node21&#45;&gt;Node1</title>
<path fill="none" stroke="#191970" d="M540.6961,-117.9901C547.9726,-115.884 555.7319,-113.7582 563,-112 645.2643,-92.0992 667.5355,-95.0543 750,-76 750.1013,-75.9766 750.2027,-75.9531 750.3043,-75.9295"/>
<polygon fill="#191970" stroke="#191970" points="751.1055,-79.3369 759.9801,-73.5496 749.4335,-72.5395 751.1055,-79.3369"/>
</g>
<!-- Node21&#45;&gt;Node8 -->
<g id="edge34" class="edge">
<title>Node21&#45;&gt;Node8</title>
<path fill="none" stroke="#191970" d="M542.4982,-117.9381C549.2699,-115.9619 556.3651,-113.9032 563,-112 616.9207,-96.5332 632.906,-93.6241 690.7324,-75.9779"/>
<polygon fill="#191970" stroke="#191970" points="691.852,-79.2955 700.3847,-73.0151 689.7978,-72.6037 691.852,-79.2955"/>
</g>
<!-- Node21&#45;&gt;Node17 -->
<g id="edge28" class="edge">
<title>Node21&#45;&gt;Node17</title>
<path fill="none" stroke="#191970" d="M479.9132,-117.9332C472.4746,-115.7811 464.4901,-113.649 457,-112 351.6627,-88.8088 317.2441,-115.8108 217,-76 187.6469,-64.3427 158.5063,-42.1004 140.3946,-26.6776"/>
<polygon fill="#191970" stroke="#191970" points="142.2718,-23.6703 132.4368,-19.7304 137.6683,-28.9436 142.2718,-23.6703"/>
</g>
<!-- Node21&#45;&gt;Node18 -->
<g id="edge29" class="edge">
<title>Node21&#45;&gt;Node18</title>
<path fill="none" stroke="#191970" d="M499.3616,-117.8845C477.2696,-97.9167 426.1838,-51.743 398.5503,-26.7667"/>
<polygon fill="#191970" stroke="#191970" points="400.5511,-23.8572 390.7854,-19.7484 395.8573,-29.0504 400.5511,-23.8572"/>
</g>
<!-- Node21&#45;&gt;Node19 -->
<g id="edge32" class="edge">
<title>Node21&#45;&gt;Node19</title>
<path fill="none" stroke="#191970" d="M498.8115,-117.7687C488.8196,-108.2725 474.8813,-92.8302 469,-76 462.7462,-58.1038 475.5251,-39.6903 488.0932,-26.8754"/>
<polygon fill="#191970" stroke="#191970" points="490.8514,-29.0847 495.7194,-19.6744 486.0456,-23.9951 490.8514,-29.0847"/>
</g>
<!-- Node22 -->
<g id="node23" class="node">
<title>Node22</title>
<polygon fill="none" stroke="#bfbfbf" points="478,-56.5 478,-75.5 552,-75.5 552,-56.5 478,-56.5"/>
<text text-anchor="middle" x="515" y="-63.5" font-family="Helvetica,sans-Serif" font-size="10.00" fill="#000000">deal.II/fe/fe.h</text>
</g>
<!-- Node21&#45;&gt;Node22 -->
<g id="edge30" class="edge">
<title>Node21&#45;&gt;Node22</title>
<path fill="none" stroke="#191970" d="M510.7813,-117.8906C511.4743,-109.3657 512.509,-96.6392 513.3802,-85.9235"/>
<polygon fill="#191970" stroke="#191970" points="516.8858,-85.9956 514.2077,-75.7449 509.9088,-85.4283 516.8858,-85.9956"/>
</g>
<!-- Node23 -->
<g id="node24" class="node">
<title>Node23</title>
<polygon fill="none" stroke="#bfbfbf" points="570,-56.5 570,-75.5 682,-75.5 682,-56.5 570,-56.5"/>
<text text-anchor="middle" x="626" y="-63.5" font-family="Helvetica,sans-Serif" font-size="10.00" fill="#000000">deal.II/fe/fe_system.h</text>
</g>
<!-- Node21&#45;&gt;Node23 -->
<g id="edge31" class="edge">
<title>Node21&#45;&gt;Node23</title>
<path fill="none" stroke="#191970" d="M528.125,-117.8906C547.1083,-107.8262 577.1373,-91.9057 598.9307,-80.3514"/>
<polygon fill="#191970" stroke="#191970" points="600.8066,-83.3184 608.0023,-75.5419 597.5277,-77.1338 600.8066,-83.3184"/>
</g>
<!-- Node24&#45;&gt;Node1 -->
<g id="edge41" class="edge">
<title>Node24&#45;&gt;Node1</title>
<path fill="none" stroke="#191970" d="M838.4688,-117.8906C829.2121,-108.5581 814.961,-94.1902 803.7997,-82.9374"/>
<polygon fill="#191970" stroke="#191970" points="806.1928,-80.38 796.6656,-75.7449 801.2228,-85.3095 806.1928,-80.38"/>
</g>
<!-- Node24&#45;&gt;Node5 -->
<g id="edge37" class="edge">
<title>Node24&#45;&gt;Node5</title>
<path fill="none" stroke="#191970" d="M827.2652,-126.1945C747.9648,-121.1195 456.3327,-101.7053 217,-76 204.9788,-74.7089 191.907,-73.0535 180.0939,-71.4628"/>
<polygon fill="#191970" stroke="#191970" points="180.4775,-67.9827 170.0948,-70.0922 179.5268,-74.9179 180.4775,-67.9827"/>
</g>
<!-- Node24&#45;&gt;Node10 -->
<g id="edge43" class="edge">
<title>Node24&#45;&gt;Node10</title>
<path fill="none" stroke="#191970" d="M867.303,-117.9536C872.3229,-115.7496 877.7873,-113.5884 883,-112 971.0694,-85.1631 999.7304,-105.3336 1087,-76 1105.4645,-69.7936 1107.4905,-62.071 1126,-56 1214.6621,-26.9194 1325.0975,-15.8075 1378.7457,-11.9094"/>
<polygon fill="#191970" stroke="#191970" points="1379.2638,-15.3821 1388.9995,-11.2029 1378.7825,-8.3986 1379.2638,-15.3821"/>
</g>
<!-- Node25 -->
<g id="node26" class="node">
<title>Node25</title>
<polygon fill="none" stroke="#bfbfbf" points="1257,-56.5 1257,-75.5 1383,-75.5 1383,-56.5 1257,-56.5"/>
<text text-anchor="middle" x="1320" y="-63.5" font-family="Helvetica,sans-Serif" font-size="10.00" fill="#000000">deal.II/base/exceptions.h</text>
</g>
<!-- Node24&#45;&gt;Node25 -->
<g id="edge36" class="edge">
<title>Node24&#45;&gt;Node25</title>
<path fill="none" stroke="#191970" d="M868.8551,-124.4966C891.1547,-121.3065 927.5578,-116.1602 959,-112 1083.6346,-95.5092 1117.3989,-92.8814 1246.4172,-76.0619"/>
<polygon fill="#191970" stroke="#191970" points="1247.2361,-79.4847 1256.6981,-74.718 1246.3287,-72.5438 1247.2361,-79.4847"/>
</g>
<!-- Node26 -->
<g id="node27" class="node">
<title>Node26</title>
<polygon fill="none" stroke="#bfbfbf" points="886,-56.5 886,-75.5 924,-75.5 924,-56.5 886,-56.5"/>
<text text-anchor="middle" x="905" y="-63.5" font-family="Helvetica,sans-Serif" font-size="10.00" fill="#000000">array</text>
</g>
<!-- Node24&#45;&gt;Node26 -->
<g id="edge38" class="edge">
<title>Node24&#45;&gt;Node26</title>
<path fill="none" stroke="#191970" d="M856.9063,-117.8906C865.4728,-108.6478 878.6169,-94.466 889.0003,-83.2628"/>
<polygon fill="#191970" stroke="#191970" points="891.7375,-85.4584 895.9682,-75.7449 886.6035,-80.7 891.7375,-85.4584"/>
</g>
<!-- Node27 -->
<g id="node28" class="node">
<title>Node27</title>
<polygon fill="none" stroke="#bfbfbf" points="942.5,-56.5 942.5,-75.5 1001.5,-75.5 1001.5,-56.5 942.5,-56.5"/>
<text text-anchor="middle" x="972" y="-63.5" font-family="Helvetica,sans-Serif" font-size="10.00" fill="#000000">exception</text>
</g>
<!-- Node24&#45;&gt;Node27 -->
<g id="edge39" class="edge">
<title>Node24&#45;&gt;Node27</title>
<path fill="none" stroke="#191970" d="M867.375,-117.8906C887.8495,-107.7359 920.3442,-91.6196 943.6885,-80.0416"/>
<polygon fill="#191970" stroke="#191970" points="945.3575,-83.1207 952.7611,-75.5419 942.2472,-76.8496 945.3575,-83.1207"/>
</g>
<!-- Node28 -->
<g id="node29" class="node">
<title>Node28</title>
<polygon fill="none" stroke="#bfbfbf" points="1019.5,-56.5 1019.5,-75.5 1078.5,-75.5 1078.5,-56.5 1019.5,-56.5"/>
<text text-anchor="middle" x="1049" y="-63.5" font-family="Helvetica,sans-Serif" font-size="10.00" fill="#000000">functional</text>
</g>
<!-- Node24&#45;&gt;Node28 -->
<g id="edge40" class="edge">
<title>Node24&#45;&gt;Node28</title>
<path fill="none" stroke="#191970" d="M868.1537,-117.9727C872.9638,-115.8674 878.1195,-113.7463 883,-112 906.2162,-103.6931 968.4018,-87.0011 1009.7191,-76.1734"/>
<polygon fill="#191970" stroke="#191970" points="1010.6899,-79.5373 1019.4801,-73.6226 1008.92,-72.7647 1010.6899,-79.5373"/>
</g>
<!-- Node29 -->
<g id="node30" class="node">
<title>Node29</title>
<polygon fill="none" stroke="#bfbfbf" points="832.5,-56.5 832.5,-75.5 867.5,-75.5 867.5,-56.5 832.5,-56.5"/>
<text text-anchor="middle" x="850" y="-63.5" font-family="Helvetica,sans-Serif" font-size="10.00" fill="#000000">new</text>
</g>
<!-- Node24&#45;&gt;Node29 -->
<g id="edge42" class="edge">
<title>Node24&#45;&gt;Node29</title>
<path fill="none" stroke="#191970" d="M848.3125,-117.8906C848.5897,-109.3657 849.0036,-96.6392 849.3521,-85.9235"/>
<polygon fill="#191970" stroke="#191970" points="852.8561,-85.8534 849.6831,-75.7449 845.8598,-85.6258 852.8561,-85.8534"/>
</g>
<!-- Node30&#45;&gt;Node11 -->
<g id="edge45" class="edge">
<title>Node30&#45;&gt;Node11</title>
<path fill="none" stroke="#191970" d="M626.9063,-302.3906C610.2772,-292.4616 584.1024,-276.833 564.8206,-265.3201"/>
<polygon fill="#191970" stroke="#191970" points="566.361,-262.1634 555.9807,-260.0419 562.7724,-268.1736 566.361,-262.1634"/>
</g>
<!-- Node30&#45;&gt;Node20 -->
<g id="edge46" class="edge">
<title>Node30&#45;&gt;Node20</title>
<path fill="none" stroke="#191970" d="M636.9475,-302.1609C627.5648,-287.1634 608.6412,-257.9106 590,-235 581.7763,-224.8928 571.7942,-214.338 563.418,-205.8919"/>
<polygon fill="#191970" stroke="#191970" points="565.8369,-203.3613 556.2735,-198.8014 560.9059,-208.3299 565.8369,-203.3613"/>
</g>
<!-- Node30&#45;&gt;Node21 -->
<g id="edge47" class="edge">
<title>Node30&#45;&gt;Node21</title>
<path fill="none" stroke="#191970" d="M641.619,-302.1727C637.8385,-278.4545 625.3587,-217.217 593,-179 579.3159,-162.8385 559.2327,-150.1899 542.2492,-141.4726"/>
<polygon fill="#191970" stroke="#191970" points="543.7133,-138.2925 533.1931,-137.0368 540.6341,-144.5789 543.7133,-138.2925"/>
</g>
<!-- Node30&#45;&gt;Node24 -->
<g id="edge65" class="edge">
<title>Node30&#45;&gt;Node24</title>
<path fill="none" stroke="#191970" d="M653.7331,-302.3402C686.9439,-272.4505 788.2884,-181.2404 829.8878,-143.801"/>
<polygon fill="#191970" stroke="#191970" points="832.2816,-146.3553 837.3732,-137.0641 827.5988,-141.1523 832.2816,-146.3553"/>
</g>
<!-- Node30&#45;&gt;Node31 -->
<g id="edge48" class="edge">
<title>Node30&#45;&gt;Node31</title>
<path fill="none" stroke="#191970" d="M695.0997,-306.5693C805.1263,-295.1004 1060.4622,-268.4849 1175.2648,-256.5182"/>
<polygon fill="#191970" stroke="#191970" points="1175.6843,-259.9935 1185.2675,-255.4755 1174.9585,-253.0312 1175.6843,-259.9935"/>
</g>
<!-- Node31&#45;&gt;Node7 -->
<g id="edge50" class="edge">
<title>Node31&#45;&gt;Node7</title>
<path fill="none" stroke="#191970" d="M1199.7307,-235.4554C1176.4084,-224.9089 1145.6354,-210.9932 1123.8688,-201.1502"/>
<polygon fill="#191970" stroke="#191970" points="1125.1147,-197.8725 1114.5609,-196.9411 1122.2304,-204.2506 1125.1147,-197.8725"/>
</g>
<!-- Node31&#45;&gt;Node10 -->
<g id="edge51" class="edge">
<title>Node31&#45;&gt;Node10</title>
<path fill="none" stroke="#191970" d="M1280.6078,-246.8704C1431.6739,-234.8626 1892.7457,-194.2542 1934,-143 1998.5726,-62.7752 1566.5444,-22.2548 1443.2169,-12.4089"/>
<polygon fill="#191970" stroke="#191970" points="1443.4833,-8.9192 1433.2401,-11.626 1442.9356,-15.8977 1443.4833,-8.9192"/>
</g>
<!-- Node32 -->
<g id="node33" class="node">
<title>Node32</title>
<polygon fill="none" stroke="#bfbfbf" points="1260,-179.5 1260,-198.5 1300,-198.5 1300,-179.5 1260,-179.5"/>
<text text-anchor="middle" x="1280" y="-186.5" font-family="Helvetica,sans-Serif" font-size="10.00" fill="#000000">limits</text>
</g>
<!-- Node31&#45;&gt;Node32 -->
<g id="edge49" class="edge">
<title>Node31&#45;&gt;Node32</title>
<path fill="none" stroke="#191970" d="M1244.618,-235.2977C1251.21,-226.672 1259.4948,-215.8312 1266.3901,-206.8087"/>
<polygon fill="#191970" stroke="#191970" points="1269.1835,-208.9176 1272.4747,-198.8469 1263.6217,-204.6671 1269.1835,-208.9176"/>
</g>
<!-- Node33 -->
<g id="node34" class="node">
<title>Node33</title>
<g id="a_node34"><a xlink:href="general__exceptions_8h.html" target="_top" xlink:title="Definition of self&#45;defined general exceptions. ">
<polygon fill="none" stroke="#000000" points="1132.5,-179.5 1132.5,-198.5 1241.5,-198.5 1241.5,-179.5 1132.5,-179.5"/>
<text text-anchor="middle" x="1187" y="-186.5" font-family="Helvetica,sans-Serif" font-size="10.00" fill="#000000">general_exceptions.h</text>
</a>
</g>
</g>
<!-- Node31&#45;&gt;Node33 -->
<g id="edge52" class="edge">
<title>Node31&#45;&gt;Node33</title>
<path fill="none" stroke="#191970" d="M1221.6292,-235.2977C1215.2439,-226.7609 1207.2359,-216.0545 1200.5295,-207.0883"/>
<polygon fill="#191970" stroke="#191970" points="1203.1575,-204.7584 1194.3652,-198.8469 1197.5521,-208.9511 1203.1575,-204.7584"/>
</g>
<!-- Node34 -->
<g id="node35" class="node">
<title>Node34</title>
<g id="a_node35"><a xlink:href="lapack__helpers_8h.html" target="_top" xlink:title="Exposes LAPACK helper functions defined in lapack_full_matrix.cc and define new ones by following the...">
<polygon fill="none" stroke="#000000" points="1579,-179.5 1579,-198.5 1669,-198.5 1669,-179.5 1579,-179.5"/>
<text text-anchor="middle" x="1624" y="-186.5" font-family="Helvetica,sans-Serif" font-size="10.00" fill="#000000">lapack_helpers.h</text>
</a>
</g>
</g>
<!-- Node31&#45;&gt;Node34 -->
<g id="edge54" class="edge">
<title>Node31&#45;&gt;Node34</title>
<path fill="none" stroke="#191970" d="M1280.5534,-243.0204C1353.3018,-231.5779 1491.871,-209.7824 1568.8977,-197.667"/>
<polygon fill="#191970" stroke="#191970" points="1569.5543,-201.1068 1578.889,-196.0955 1568.4666,-194.1918 1569.5543,-201.1068"/>
</g>
<!-- Node33&#45;&gt;Node25 -->
<g id="edge53" class="edge">
<title>Node33&#45;&gt;Node25</title>
<path fill="none" stroke="#191970" d="M1132.246,-180.0912C1092.0857,-172.3094 1042.4729,-159.6517 1030,-143 1021.7401,-131.9727 1021.0533,-122.4777 1030,-112 1033.5388,-107.8557 1161.8125,-88.7138 1246.5575,-76.4658"/>
<polygon fill="#191970" stroke="#191970" points="1247.2674,-79.8997 1256.6652,-75.0078 1246.2679,-72.9714 1247.2674,-79.8997"/>
</g>
<!-- Node34&#45;&gt;Node4 -->
<g id="edge58" class="edge">
<title>Node34&#45;&gt;Node4</title>
<path fill="none" stroke="#191970" d="M1578.696,-186.3947C1495.9182,-181.2079 1314.855,-167.8879 1164,-143 1157.6609,-141.9542 1151.0264,-140.6632 1144.5007,-139.2762"/>
<polygon fill="#191970" stroke="#191970" points="1144.9139,-135.783 1134.3938,-137.0392 1143.4011,-142.6176 1144.9139,-135.783"/>
</g>
<!-- Node35 -->
<g id="node36" class="node">
<title>Node35</title>
<polygon fill="none" stroke="#bfbfbf" points="1809,-118 1809,-137 1925,-137 1925,-118 1809,-118"/>
<text text-anchor="middle" x="1867" y="-125" font-family="Helvetica,sans-Serif" font-size="10.00" fill="#000000">deal.II/base/numbers.h</text>
</g>
<!-- Node34&#45;&gt;Node35 -->
<g id="edge55" class="edge">
<title>Node34&#45;&gt;Node35</title>
<path fill="none" stroke="#191970" d="M1661.7021,-179.4581C1704.1772,-168.7082 1773.292,-151.2162 1819.4413,-139.5365"/>
<polygon fill="#191970" stroke="#191970" points="1820.3738,-142.9109 1829.2094,-137.0643 1818.6563,-136.1248 1820.3738,-142.9109"/>
</g>
<!-- Node36 -->
<g id="node37" class="node">
<title>Node36</title>
<polygon fill="none" stroke="#bfbfbf" points="1173,-112.5 1173,-142.5 1301,-142.5 1301,-112.5 1173,-112.5"/>
<text text-anchor="start" x="1181" y="-130.5" font-family="Helvetica,sans-Serif" font-size="10.00" fill="#000000">deal.II/lac/blas_extension</text>
<text text-anchor="middle" x="1237" y="-119.5" font-family="Helvetica,sans-Serif" font-size="10.00" fill="#000000">_templates.h</text>
</g>
<!-- Node34&#45;&gt;Node36 -->
<g id="edge56" class="edge">
<title>Node34&#45;&gt;Node36</title>
<path fill="none" stroke="#191970" d="M1578.8755,-183.309C1519.7189,-175.6454 1412.5057,-161.0613 1311.1524,-143.1418"/>
<polygon fill="#191970" stroke="#191970" points="1311.5078,-139.6501 1301.0487,-141.3407 1310.2793,-146.5414 1311.5078,-139.6501"/>
</g>
<!-- Node37 -->
<g id="node38" class="node">
<title>Node37</title>
<polygon fill="none" stroke="#bfbfbf" points="1319,-118 1319,-137 1445,-137 1445,-118 1319,-118"/>
<text text-anchor="middle" x="1382" y="-125" font-family="Helvetica,sans-Serif" font-size="10.00" fill="#000000">deal.II/lac/block_vector.h</text>
</g>
<!-- Node34&#45;&gt;Node37 -->
<g id="edge57" class="edge">
<title>Node34&#45;&gt;Node37</title>
<path fill="none" stroke="#191970" d="M1586.453,-179.4581C1544.1528,-168.7082 1475.3223,-151.2162 1429.363,-139.5365"/>
<polygon fill="#191970" stroke="#191970" points="1430.1891,-136.1352 1419.6351,-137.0643 1428.4649,-142.9196 1430.1891,-136.1352"/>
</g>
<!-- Node38 -->
<g id="node39" class="node">
<title>Node38</title>
<polygon fill="none" stroke="#bfbfbf" points="1981.5,-112.5 1981.5,-142.5 2072.5,-142.5 2072.5,-112.5 1981.5,-112.5"/>
<text text-anchor="start" x="1989.5" y="-130.5" font-family="Helvetica,sans-Serif" font-size="10.00" fill="#000000">deal.II/lac/lapack</text>
<text text-anchor="middle" x="2027" y="-119.5" font-family="Helvetica,sans-Serif" font-size="10.00" fill="#000000">_full_matrix.h</text>
</g>
<!-- Node34&#45;&gt;Node38 -->
<g id="edge59" class="edge">
<title>Node34&#45;&gt;Node38</title>
<path fill="none" stroke="#191970" d="M1669.2171,-182.5482C1729.6173,-173.871 1839.9444,-157.8151 1934,-143 1946.0006,-141.1097 1958.8596,-139.0127 1971.0707,-136.9877"/>
<polygon fill="#191970" stroke="#191970" points="1971.8537,-140.4056 1981.1426,-135.3097 1970.7033,-133.5007 1971.8537,-140.4056"/>
</g>
<!-- Node39 -->
<g id="node40" class="node">
<title>Node39</title>
<polygon fill="none" stroke="#bfbfbf" points="2090.5,-112.5 2090.5,-142.5 2181.5,-142.5 2181.5,-112.5 2090.5,-112.5"/>
<text text-anchor="start" x="2098.5" y="-130.5" font-family="Helvetica,sans-Serif" font-size="10.00" fill="#000000">deal.II/lac/lapack</text>
<text text-anchor="middle" x="2136" y="-119.5" font-family="Helvetica,sans-Serif" font-size="10.00" fill="#000000">_support.h</text>
</g>
<!-- Node34&#45;&gt;Node39 -->
<g id="edge60" class="edge">
<title>Node34&#45;&gt;Node39</title>
<path fill="none" stroke="#191970" d="M1669.1316,-187.0681C1749.7962,-183.0508 1924.0583,-171.8138 2079.9834,-142.9701"/>
<polygon fill="#191970" stroke="#191970" points="2081.045,-146.3319 2090.2262,-141.0447 2079.7517,-139.4524 2081.045,-146.3319"/>
</g>
<!-- Node40 -->
<g id="node41" class="node">
<title>Node40</title>
<polygon fill="none" stroke="#bfbfbf" points="2199.5,-112.5 2199.5,-142.5 2290.5,-142.5 2290.5,-112.5 2199.5,-112.5"/>
<text text-anchor="start" x="2207.5" y="-130.5" font-family="Helvetica,sans-Serif" font-size="10.00" fill="#000000">deal.II/lac/lapack</text>
<text text-anchor="middle" x="2245" y="-119.5" font-family="Helvetica,sans-Serif" font-size="10.00" fill="#000000">_templates.h</text>
</g>
<!-- Node34&#45;&gt;Node40 -->
<g id="edge61" class="edge">
<title>Node34&#45;&gt;Node40</title>
<path fill="none" stroke="#191970" d="M1669.1387,-188.2893C1763.9385,-186.1618 1990.6689,-177.7416 2189.2084,-142.8993"/>
<polygon fill="#191970" stroke="#191970" points="2190.0078,-146.3121 2199.2387,-141.112 2188.7797,-139.4206 2190.0078,-146.3121"/>
</g>
<!-- Node41 -->
<g id="node42" class="node">
<title>Node41</title>
<polygon fill="none" stroke="#bfbfbf" points="1463,-112.5 1463,-142.5 1555,-142.5 1555,-112.5 1463,-112.5"/>
<text text-anchor="start" x="1471" y="-130.5" font-family="Helvetica,sans-Serif" font-size="10.00" fill="#000000">deal.II/lac/sparse</text>
<text text-anchor="middle" x="1509" y="-119.5" font-family="Helvetica,sans-Serif" font-size="10.00" fill="#000000">_matrix.h</text>
</g>
<!-- Node34&#45;&gt;Node41 -->
<g id="edge62" class="edge">
<title>Node34&#45;&gt;Node41</title>
<path fill="none" stroke="#191970" d="M1606.0313,-179.3906C1590.0351,-170.8361 1566.1277,-158.0509 1546.047,-147.3121"/>
<polygon fill="#191970" stroke="#191970" points="1547.601,-144.1741 1537.1322,-142.5446 1544.2998,-150.3469 1547.601,-144.1741"/>
</g>
<!-- Node42 -->
<g id="node43" class="node">
<title>Node42</title>
<polygon fill="none" stroke="#bfbfbf" points="1573.5,-118 1573.5,-137 1674.5,-137 1674.5,-118 1573.5,-118"/>
<text text-anchor="middle" x="1624" y="-125" font-family="Helvetica,sans-Serif" font-size="10.00" fill="#000000">deal.II/lac/utilities.h</text>
</g>
<!-- Node34&#45;&gt;Node42 -->
<g id="edge63" class="edge">
<title>Node34&#45;&gt;Node42</title>
<path fill="none" stroke="#191970" d="M1624,-179.3906C1624,-170.8657 1624,-158.1392 1624,-147.4235"/>
<polygon fill="#191970" stroke="#191970" points="1627.5001,-147.2448 1624,-137.2449 1620.5001,-147.2449 1627.5001,-147.2448"/>
</g>
<!-- Node43 -->
<g id="node44" class="node">
<title>Node43</title>
<polygon fill="none" stroke="#bfbfbf" points="1693,-118 1693,-137 1791,-137 1791,-118 1693,-118"/>
<text text-anchor="middle" x="1742" y="-125" font-family="Helvetica,sans-Serif" font-size="10.00" fill="#000000">deal.II/lac/vector.h</text>
</g>
<!-- Node34&#45;&gt;Node43 -->
<g id="edge64" class="edge">
<title>Node34&#45;&gt;Node43</title>
<path fill="none" stroke="#191970" d="M1642.4375,-179.3906C1661.8347,-169.2811 1692.569,-153.2628 1714.7617,-141.6962"/>
<polygon fill="#191970" stroke="#191970" points="1716.4418,-144.7675 1723.692,-137.0419 1713.2064,-138.56 1716.4418,-144.7675"/>
</g>
<!-- Node44&#45;&gt;Node7 -->
<g id="edge68" class="edge">
<title>Node44&#45;&gt;Node7</title>
<path fill="none" stroke="#191970" d="M993.2188,-240.8906C1013.8844,-230.5578 1046.8954,-214.0523 1070.1271,-202.4365"/>
<polygon fill="#191970" stroke="#191970" points="1071.7357,-205.5453 1079.1147,-197.9426 1068.6052,-199.2843 1071.7357,-205.5453"/>
</g>
<!-- Node44&#45;&gt;Node10 -->
<g id="edge69" class="edge">
<title>Node44&#45;&gt;Node10</title>
<path fill="none" stroke="#191970" d="M978.3091,-240.6654C982.8124,-230.3297 990.0389,-213.579 996,-199 1011.7118,-160.5735 996.9179,-137.0804 1030,-112 1158.8417,-14.3217 1267.7994,-179.5154 1392,-76 1405.2841,-64.9283 1409.6147,-45.2185 1410.873,-30.2115"/>
<polygon fill="#191970" stroke="#191970" points="1414.385,-30.0192 1411.3338,-19.8733 1407.3919,-29.7075 1414.385,-30.0192"/>
</g>
<!-- Node44&#45;&gt;Node13 -->
<g id="edge67" class="edge">
<title>Node44&#45;&gt;Node13</title>
<path fill="none" stroke="#191970" d="M974.2266,-240.8046C975.3582,-215.6454 981.9693,-147.7467 1020,-112 1035.4356,-97.4914 1084.4596,-85.0202 1125.4279,-76.738"/>
<polygon fill="#191970" stroke="#191970" points="1126.2405,-80.1452 1135.3741,-74.776 1124.8857,-73.2776 1126.2405,-80.1452"/>
</g>
<!-- Node45&#45;&gt;Node4 -->
<g id="edge73" class="edge">
<title>Node45&#45;&gt;Node4</title>
<path fill="none" stroke="#191970" d="M1317.1565,-302.285C1324.291,-278.2857 1338.8238,-215.5032 1309,-179 1307.6947,-177.4024 1209.8936,-154.1073 1147.5996,-139.4006"/>
<polygon fill="#191970" stroke="#191970" points="1148.0852,-135.9191 1137.5487,-137.0295 1146.4779,-142.7321 1148.0852,-135.9191"/>
</g>
<!-- Node45&#45;&gt;Node7 -->
<g id="edge77" class="edge">
<title>Node45&#45;&gt;Node7</title>
<path fill="none" stroke="#191970" d="M1283.7948,-306.0646C1254.6567,-299.4164 1210.0763,-286.7596 1176,-266 1149.954,-250.1325 1125.7436,-224.2116 1111.1632,-206.8841"/>
<polygon fill="#191970" stroke="#191970" points="1113.5044,-204.2193 1104.4576,-198.7051 1108.0911,-208.6574 1113.5044,-204.2193"/>
</g>
<!-- Node45&#45;&gt;Node10 -->
<g id="edge78" class="edge">
<title>Node45&#45;&gt;Node10</title>
<path fill="none" stroke="#191970" d="M1344.0777,-311.561C1511.2973,-308.7332 2319,-289.8544 2319,-189 2319,-189 2319,-189 2319,-127.5 2319,-37.3778 1606.3929,-14.7181 1443.7685,-10.7203"/>
<polygon fill="#191970" stroke="#191970" points="1443.5258,-7.2135 1433.4451,-10.4736 1443.3586,-14.2116 1443.5258,-7.2135"/>
</g>
<!-- Node45&#45;&gt;Node13 -->
<g id="edge72" class="edge">
<title>Node45&#45;&gt;Node13</title>
<path fill="none" stroke="#191970" d="M1283.8564,-309.6101C1193.1602,-302.277 928.2628,-279.7618 916,-266 869.0383,-213.298 886.3247,-189.1766 995,-112 1015.8073,-97.2235 1077.3704,-84.0734 1125.2362,-75.6572"/>
<polygon fill="#191970" stroke="#191970" points="1125.9635,-79.0835 1135.2228,-73.9342 1124.7733,-72.1854 1125.9635,-79.0835"/>
</g>
<!-- Node45&#45;&gt;Node31 -->
<g id="edge79" class="edge">
<title>Node45&#45;&gt;Node31</title>
<path fill="none" stroke="#191970" d="M1301.3438,-302.3906C1290.5844,-294.2215 1274.7435,-282.1941 1261.0209,-271.7752"/>
<polygon fill="#191970" stroke="#191970" points="1262.8958,-268.8042 1252.8148,-265.5446 1258.6628,-274.3793 1262.8958,-268.8042"/>
</g>
<!-- Node45&#45;&gt;Node38 -->
<g id="edge74" class="edge">
<title>Node45&#45;&gt;Node38</title>
<path fill="none" stroke="#191970" d="M1344.1354,-309.5374C1457.5498,-299.8541 1857.7943,-261.8158 1967,-199 1986.6095,-187.7205 2002.6745,-167.4807 2013.2294,-151.4073"/>
<polygon fill="#191970" stroke="#191970" points="2016.4511,-152.8571 2018.7924,-142.5242 2010.5185,-149.1417 2016.4511,-152.8571"/>
</g>
<!-- Node45&#45;&gt;Node39 -->
<g id="edge75" class="edge">
<title>Node45&#45;&gt;Node39</title>
<path fill="none" stroke="#191970" d="M1344.0193,-310.1701C1436.5026,-304.3779 1716.1833,-285.6637 1805,-266 1891.606,-246.8258 1911.4029,-233.7875 1993,-199 2029.8186,-183.303 2070.5303,-162.6039 2099.0675,-147.5182"/>
<polygon fill="#191970" stroke="#191970" points="2101.0692,-150.4179 2108.2554,-142.6327 2097.7827,-144.2373 2101.0692,-150.4179"/>
</g>
<!-- Node45&#45;&gt;Node40 -->
<g id="edge76" class="edge">
<title>Node45&#45;&gt;Node40</title>
<path fill="none" stroke="#191970" d="M1344.0976,-310.5953C1444.7575,-305.7286 1769.0544,-288.6397 1871,-266 1996.3059,-238.1725 2136.2548,-178.0189 2203.9293,-146.9498"/>
<polygon fill="#191970" stroke="#191970" points="2205.7691,-149.9554 2213.3793,-142.5841 2202.8334,-143.6007 2205.7691,-149.9554"/>
</g>
</g>
</svg>
