<?xml version="1.0" encoding="UTF-8" standalone="no"?>
<!DOCTYPE svg PUBLIC "-//W3C//DTD SVG 1.1//EN"
 "http://www.w3.org/Graphics/SVG/1.1/DTD/svg11.dtd">
<!-- Generated by graphviz version 2.40.1 (20161225.0304)
 -->
<!-- Title: /home/jihuan/Projects/deal.ii/program/dealii&#45;9.1.1/examples/laplace&#45;bem/tests/rkmatrix&#45;agglomeration&#45;of&#45;two&#45;submatrices&#45;interwoven&#45;indices/rkmatrix&#45;agglomeration&#45;of&#45;two&#45;submatrices&#45;interwoven&#45;indices.cc Pages: 1 -->
<svg width="1886pt" height="407pt"
 viewBox="0.00 0.00 1886.38 407.00" xmlns="http://www.w3.org/2000/svg" xmlns:xlink="http://www.w3.org/1999/xlink">
<g id="graph0" class="graph" transform="scale(1 1) rotate(0) translate(4 403)">
<title>/home/jihuan/Projects/deal.ii/program/dealii&#45;9.1.1/examples/laplace&#45;bem/tests/rkmatrix&#45;agglomeration&#45;of&#45;two&#45;submatrices&#45;interwoven&#45;indices/rkmatrix&#45;agglomeration&#45;of&#45;two&#45;submatrices&#45;interwoven&#45;indices.cc</title>
<!-- Node0 -->
<g id="node1" class="node">
<title>Node0</title>
<polygon fill="#bfbfbf" stroke="#000000" points="312.8787,-313.5 312.8787,-398.5 512.8787,-398.5 512.8787,-313.5 312.8787,-313.5"/>
<text text-anchor="start" x="320.8787" y="-386.5" font-family="Helvetica,sans-Serif" font-size="10.00" fill="#000000">/home/jihuan/Projects</text>
<text text-anchor="start" x="320.8787" y="-375.5" font-family="Helvetica,sans-Serif" font-size="10.00" fill="#000000">/deal.ii/program/dealii</text>
<text text-anchor="start" x="320.8787" y="-364.5" font-family="Helvetica,sans-Serif" font-size="10.00" fill="#000000">&#45;9.1.1/examples/laplace</text>
<text text-anchor="start" x="320.8787" y="-353.5" font-family="Helvetica,sans-Serif" font-size="10.00" fill="#000000">&#45;bem/tests/rkmatrix&#45;agglomeration</text>
<text text-anchor="start" x="320.8787" y="-342.5" font-family="Helvetica,sans-Serif" font-size="10.00" fill="#000000">&#45;of&#45;two&#45;submatrices&#45;interwoven</text>
<text text-anchor="start" x="320.8787" y="-331.5" font-family="Helvetica,sans-Serif" font-size="10.00" fill="#000000">&#45;indices/rkmatrix&#45;agglomeration</text>
<text text-anchor="middle" x="412.8787" y="-320.5" font-family="Helvetica,sans-Serif" font-size="10.00" fill="#000000">&#45;of&#45;two&#45;submatrices&#45;interwoven&#45;indices.cc</text>
</g>
<!-- Node1 -->
<g id="node2" class="node">
<title>Node1</title>
<polygon fill="none" stroke="#bfbfbf" points="292.8787,-257.5 292.8787,-276.5 346.8787,-276.5 346.8787,-257.5 292.8787,-257.5"/>
<text text-anchor="middle" x="319.8787" y="-264.5" font-family="Helvetica,sans-Serif" font-size="10.00" fill="#000000">iostream</text>
</g>
<!-- Node0&#45;&gt;Node1 -->
<g id="edge1" class="edge">
<title>Node0&#45;&gt;Node1</title>
<path fill="none" stroke="#191970" d="M368.2855,-313.3247C357.2926,-302.8047 346.1574,-292.1484 337.3429,-283.713"/>
<polygon fill="#191970" stroke="#191970" points="339.6156,-281.0435 329.971,-276.6581 334.7758,-286.1008 339.6156,-281.0435"/>
</g>
<!-- Node2 -->
<g id="node3" class="node">
<title>Node2</title>
<g id="a_node3"><a xlink:href="generic__functors_8h.html" target="_top" xlink:title="This header file contains a set of self&#45;defined generic functors. ">
<polygon fill="none" stroke="#000000" points="217.3787,-134.5 217.3787,-153.5 314.3787,-153.5 314.3787,-134.5 217.3787,-134.5"/>
<text text-anchor="middle" x="265.8787" y="-141.5" font-family="Helvetica,sans-Serif" font-size="10.00" fill="#000000">generic_functors.h</text>
</a>
</g>
</g>
<!-- Node0&#45;&gt;Node2 -->
<g id="edge2" class="edge">
<title>Node0&#45;&gt;Node2</title>
<path fill="none" stroke="#191970" d="M390.1095,-313.2385C380.1789,-295.473 368.0402,-274.8724 355.8787,-257 331.7144,-221.4882 299.601,-182.9163 280.9897,-161.2727"/>
<polygon fill="#191970" stroke="#191970" points="283.5339,-158.8641 274.3421,-153.5952 278.2419,-163.4462 283.5339,-158.8641"/>
</g>
<!-- Node10 -->
<g id="node11" class="node">
<title>Node10</title>
<g id="a_node11"><a xlink:href="lapack__full__matrix__ext_8h_source.html" target="_top" xlink:title="lapack_full_matrix\l_ext.h">
<polygon fill="none" stroke="#000000" points="403.3787,-190.5 403.3787,-220.5 498.3787,-220.5 498.3787,-190.5 403.3787,-190.5"/>
<text text-anchor="start" x="411.3787" y="-208.5" font-family="Helvetica,sans-Serif" font-size="10.00" fill="#000000">lapack_full_matrix</text>
<text text-anchor="middle" x="450.8787" y="-197.5" font-family="Helvetica,sans-Serif" font-size="10.00" fill="#000000">_ext.h</text>
</a>
</g>
</g>
<!-- Node0&#45;&gt;Node10 -->
<g id="edge10" class="edge">
<title>Node0&#45;&gt;Node10</title>
<path fill="none" stroke="#191970" d="M423.6664,-313.2753C430.4099,-286.5675 438.8624,-253.091 444.5426,-230.5944"/>
<polygon fill="#191970" stroke="#191970" points="447.9603,-231.3552 447.015,-220.8026 441.1733,-229.6415 447.9603,-231.3552"/>
</g>
<!-- Node27 -->
<g id="node28" class="node">
<title>Node27</title>
<g id="a_node28"><a xlink:href="rkmatrix_8h.html" target="_top" xlink:title="Definition of rank&#45;k matrix. ">
<polygon fill="none" stroke="#000000" points="640.8787,-257.5 640.8787,-276.5 700.8787,-276.5 700.8787,-257.5 640.8787,-257.5"/>
<text text-anchor="middle" x="670.8787" y="-264.5" font-family="Helvetica,sans-Serif" font-size="10.00" fill="#000000">rkmatrix.h</text>
</a>
</g>
</g>
<!-- Node0&#45;&gt;Node27 -->
<g id="edge33" class="edge">
<title>Node0&#45;&gt;Node27</title>
<path fill="none" stroke="#191970" d="M512.9975,-321.4629C555.3033,-306.869 601.9776,-290.7682 633.527,-279.8849"/>
<polygon fill="#191970" stroke="#191970" points="634.9022,-283.113 643.2142,-276.5432 632.6195,-276.4956 634.9022,-283.113"/>
</g>
<!-- Node3 -->
<g id="node4" class="node">
<title>Node3</title>
<polygon fill="none" stroke="#bfbfbf" points="26.8787,-73 26.8787,-92 152.8787,-92 152.8787,-73 26.8787,-73"/>
<text text-anchor="middle" x="89.8787" y="-80" font-family="Helvetica,sans-Serif" font-size="10.00" fill="#000000">deal.II/base/exceptions.h</text>
</g>
<!-- Node2&#45;&gt;Node3 -->
<g id="edge3" class="edge">
<title>Node2&#45;&gt;Node3</title>
<path fill="none" stroke="#191970" d="M238.3787,-134.3906C208.4141,-123.92 160.3104,-107.1111 127.0089,-95.4745"/>
<polygon fill="#191970" stroke="#191970" points="127.7805,-92.0366 117.1856,-92.0419 125.4713,-98.6448 127.7805,-92.0366"/>
</g>
<!-- Node4 -->
<g id="node5" class="node">
<title>Node4</title>
<polygon fill="none" stroke="#bfbfbf" points="475.3787,-73 475.3787,-92 578.3787,-92 578.3787,-73 475.3787,-73"/>
<text text-anchor="middle" x="526.8787" y="-80" font-family="Helvetica,sans-Serif" font-size="10.00" fill="#000000">deal.II/base/types.h</text>
</g>
<!-- Node2&#45;&gt;Node4 -->
<g id="edge4" class="edge">
<title>Node2&#45;&gt;Node4</title>
<path fill="none" stroke="#191970" d="M308.4714,-134.4988C349.0066,-125.3868 411.6842,-111.1159 465.8787,-98 470.4819,-96.886 475.275,-95.7048 480.0618,-94.5112"/>
<polygon fill="#191970" stroke="#191970" points="480.9693,-97.8921 489.8154,-92.0613 479.264,-91.103 480.9693,-97.8921"/>
</g>
<!-- Node5 -->
<g id="node6" class="node">
<title>Node5</title>
<polygon fill="none" stroke="#bfbfbf" points="766.3787,-.5 766.3787,-30.5 857.3787,-30.5 857.3787,-.5 766.3787,-.5"/>
<text text-anchor="start" x="774.3787" y="-18.5" font-family="Helvetica,sans-Serif" font-size="10.00" fill="#000000">deal.II/lac/lapack</text>
<text text-anchor="middle" x="811.8787" y="-7.5" font-family="Helvetica,sans-Serif" font-size="10.00" fill="#000000">_support.h</text>
</g>
<!-- Node2&#45;&gt;Node5 -->
<g id="edge5" class="edge">
<title>Node2&#45;&gt;Node5</title>
<path fill="none" stroke="#191970" d="M275.9177,-134.2578C296.423,-114.4559 341.9392,-71.0314 350.8787,-67 422.0146,-34.9204 649.6364,-21.897 756.0525,-17.4621"/>
<polygon fill="#191970" stroke="#191970" points="756.4202,-20.9502 766.2699,-17.0473 756.1361,-13.956 756.4202,-20.9502"/>
</g>
<!-- Node6 -->
<g id="node7" class="node">
<title>Node6</title>
<polygon fill="none" stroke="#bfbfbf" points="236.3787,-73 236.3787,-92 303.3787,-92 303.3787,-73 236.3787,-73"/>
<text text-anchor="middle" x="269.8787" y="-80" font-family="Helvetica,sans-Serif" font-size="10.00" fill="#000000">forward_list</text>
</g>
<!-- Node2&#45;&gt;Node6 -->
<g id="edge6" class="edge">
<title>Node2&#45;&gt;Node6</title>
<path fill="none" stroke="#191970" d="M266.5037,-134.3906C267.0582,-125.8657 267.8859,-113.1392 268.5829,-102.4235"/>
<polygon fill="#191970" stroke="#191970" points="272.0884,-102.451 269.2449,-92.2449 265.1032,-101.9966 272.0884,-102.451"/>
</g>
<!-- Node7 -->
<g id="node8" class="node">
<title>Node7</title>
<polygon fill="none" stroke="#bfbfbf" points="171.3787,-73 171.3787,-92 218.3787,-92 218.3787,-73 171.3787,-73"/>
<text text-anchor="middle" x="194.8787" y="-80" font-family="Helvetica,sans-Serif" font-size="10.00" fill="#000000">iterator</text>
</g>
<!-- Node2&#45;&gt;Node7 -->
<g id="edge7" class="edge">
<title>Node2&#45;&gt;Node7</title>
<path fill="none" stroke="#191970" d="M254.785,-134.3906C243.9072,-124.9683 227.104,-110.4134 214.0587,-99.1137"/>
<polygon fill="#191970" stroke="#191970" points="215.9791,-96.1466 206.1289,-92.2449 211.396,-101.4377 215.9791,-96.1466"/>
</g>
<!-- Node8 -->
<g id="node9" class="node">
<title>Node8</title>
<polygon fill="none" stroke="#bfbfbf" points="422.3787,-73 422.3787,-92 457.3787,-92 457.3787,-73 422.3787,-73"/>
<text text-anchor="middle" x="439.8787" y="-80" font-family="Helvetica,sans-Serif" font-size="10.00" fill="#000000">map</text>
</g>
<!-- Node2&#45;&gt;Node8 -->
<g id="edge8" class="edge">
<title>Node2&#45;&gt;Node8</title>
<path fill="none" stroke="#191970" d="M304.1632,-134.4833C334.3245,-126.4037 377.1068,-113.6415 412.8787,-98 413.7237,-97.6305 414.576,-97.2415 415.4309,-96.837"/>
<polygon fill="#191970" stroke="#191970" points="417.2325,-99.8447 424.4734,-92.1103 413.9897,-93.6411 417.2325,-99.8447"/>
</g>
<!-- Node9 -->
<g id="node10" class="node">
<title>Node9</title>
<polygon fill="none" stroke="#bfbfbf" points="359.8787,-73 359.8787,-92 403.8787,-92 403.8787,-73 359.8787,-73"/>
<text text-anchor="middle" x="381.8787" y="-80" font-family="Helvetica,sans-Serif" font-size="10.00" fill="#000000">vector</text>
</g>
<!-- Node2&#45;&gt;Node9 -->
<g id="edge9" class="edge">
<title>Node2&#45;&gt;Node9</title>
<path fill="none" stroke="#191970" d="M284.0037,-134.3906C302.987,-124.3262 333.016,-108.4057 354.8094,-96.8514"/>
<polygon fill="#191970" stroke="#191970" points="356.6854,-99.8184 363.881,-92.0419 353.4064,-93.6338 356.6854,-99.8184"/>
</g>
<!-- Node10&#45;&gt;Node2 -->
<g id="edge19" class="edge">
<title>Node10&#45;&gt;Node2</title>
<path fill="none" stroke="#191970" d="M405.6226,-190.4554C374.4842,-180.104 333.5819,-166.5067 304.0833,-156.7004"/>
<polygon fill="#191970" stroke="#191970" points="305.1407,-153.3637 294.5472,-153.5303 302.9324,-160.0063 305.1407,-153.3637"/>
</g>
<!-- Node10&#45;&gt;Node8 -->
<g id="edge12" class="edge">
<title>Node10&#45;&gt;Node8</title>
<path fill="none" stroke="#191970" d="M498.4622,-190.8794C529.7192,-178.5999 562.0746,-159.0483 545.8787,-134 524.7085,-101.2583 500.4584,-116.0123 465.8787,-98 465.3398,-97.7193 464.7966,-97.4323 464.2505,-97.1402"/>
<polygon fill="#191970" stroke="#191970" points="465.8168,-94.0054 455.3876,-92.1393 462.3768,-100.1018 465.8168,-94.0054"/>
</g>
<!-- Node10&#45;&gt;Node9 -->
<g id="edge16" class="edge">
<title>Node10&#45;&gt;Node9</title>
<path fill="none" stroke="#191970" d="M479.0792,-190.2949C501.2919,-176.2752 526.2946,-154.5816 511.8787,-134 485.0189,-95.6522 455.8877,-116.4995 412.8787,-98 411.6972,-97.4918 410.4969,-96.9604 409.2891,-96.4132"/>
<polygon fill="#191970" stroke="#191970" points="410.608,-93.1649 400.0738,-92.0329 407.6028,-99.487 410.608,-93.1649"/>
</g>
<!-- Node11 -->
<g id="node12" class="node">
<title>Node11</title>
<polygon fill="none" stroke="#bfbfbf" points="31.8787,-134.5 31.8787,-153.5 71.8787,-153.5 71.8787,-134.5 31.8787,-134.5"/>
<text text-anchor="middle" x="51.8787" y="-141.5" font-family="Helvetica,sans-Serif" font-size="10.00" fill="#000000">limits</text>
</g>
<!-- Node10&#45;&gt;Node11 -->
<g id="edge11" class="edge">
<title>Node10&#45;&gt;Node11</title>
<path fill="none" stroke="#191970" d="M403.3149,-201.8472C334.2189,-195.8934 202.081,-182.0703 81.7601,-153.8277"/>
<polygon fill="#191970" stroke="#191970" points="82.5516,-150.4184 72.0122,-151.5013 80.9266,-157.2272 82.5516,-150.4184"/>
</g>
<!-- Node12 -->
<g id="node13" class="node">
<title>Node12</title>
<polygon fill="none" stroke="#bfbfbf" points="332.3787,-134.5 332.3787,-153.5 373.3787,-153.5 373.3787,-134.5 332.3787,-134.5"/>
<text text-anchor="middle" x="352.8787" y="-141.5" font-family="Helvetica,sans-Serif" font-size="10.00" fill="#000000">regex</text>
</g>
<!-- Node10&#45;&gt;Node12 -->
<g id="edge13" class="edge">
<title>Node10&#45;&gt;Node12</title>
<path fill="none" stroke="#191970" d="M426.9052,-190.4554C411.7012,-180.9141 392.1028,-168.6151 376.8912,-159.0691"/>
<polygon fill="#191970" stroke="#191970" points="378.396,-155.8813 368.0653,-153.5303 374.6751,-161.8105 378.396,-155.8813"/>
</g>
<!-- Node13 -->
<g id="node14" class="node">
<title>Node13</title>
<polygon fill="none" stroke="#bfbfbf" points="391.8787,-134.5 391.8787,-153.5 443.8787,-153.5 443.8787,-134.5 391.8787,-134.5"/>
<text text-anchor="middle" x="417.8787" y="-141.5" font-family="Helvetica,sans-Serif" font-size="10.00" fill="#000000">sstream</text>
</g>
<!-- Node10&#45;&gt;Node13 -->
<g id="edge14" class="edge">
<title>Node10&#45;&gt;Node13</title>
<path fill="none" stroke="#191970" d="M442.7214,-190.2977C438.2838,-182.0277 432.7537,-171.7215 428.0384,-162.9339"/>
<polygon fill="#191970" stroke="#191970" points="430.9748,-161.0037 423.1625,-153.8469 424.8066,-164.3134 430.9748,-161.0037"/>
</g>
<!-- Node14 -->
<g id="node15" class="node">
<title>Node14</title>
<polygon fill="none" stroke="#bfbfbf" points="462.3787,-134.5 462.3787,-153.5 503.3787,-153.5 503.3787,-134.5 462.3787,-134.5"/>
<text text-anchor="middle" x="482.8787" y="-141.5" font-family="Helvetica,sans-Serif" font-size="10.00" fill="#000000">string</text>
</g>
<!-- Node10&#45;&gt;Node14 -->
<g id="edge15" class="edge">
<title>Node10&#45;&gt;Node14</title>
<path fill="none" stroke="#191970" d="M458.7889,-190.2977C463.092,-182.0277 468.4545,-171.7215 473.027,-162.9339"/>
<polygon fill="#191970" stroke="#191970" points="476.2441,-164.3335 477.7551,-153.8469 470.0344,-161.1024 476.2441,-164.3335"/>
</g>
<!-- Node15 -->
<g id="node16" class="node">
<title>Node15</title>
<g id="a_node16"><a xlink:href="general__exceptions_8h.html" target="_top" xlink:title="Definition of self&#45;defined general exceptions. ">
<polygon fill="none" stroke="#000000" points="90.3787,-134.5 90.3787,-153.5 199.3787,-153.5 199.3787,-134.5 90.3787,-134.5"/>
<text text-anchor="middle" x="144.8787" y="-141.5" font-family="Helvetica,sans-Serif" font-size="10.00" fill="#000000">general_exceptions.h</text>
</a>
</g>
</g>
<!-- Node10&#45;&gt;Node15 -->
<g id="edge17" class="edge">
<title>Node10&#45;&gt;Node15</title>
<path fill="none" stroke="#191970" d="M403.0662,-195.8906C348.8353,-184.9913 260.4315,-167.2238 202.4554,-155.5718"/>
<polygon fill="#191970" stroke="#191970" points="202.8491,-152.081 192.3555,-153.5419 201.4698,-158.9438 202.8491,-152.081"/>
</g>
<!-- Node16 -->
<g id="node17" class="node">
<title>Node16</title>
<g id="a_node17"><a xlink:href="lapack__helpers_8h.html" target="_top" xlink:title="Exposes LAPACK helper functions defined in lapack_full_matrix.cc and define new ones by following the...">
<polygon fill="none" stroke="#000000" points="1152.8787,-134.5 1152.8787,-153.5 1242.8787,-153.5 1242.8787,-134.5 1152.8787,-134.5"/>
<text text-anchor="middle" x="1197.8787" y="-141.5" font-family="Helvetica,sans-Serif" font-size="10.00" fill="#000000">lapack_helpers.h</text>
</a>
</g>
</g>
<!-- Node10&#45;&gt;Node16 -->
<g id="edge20" class="edge">
<title>Node10&#45;&gt;Node16</title>
<path fill="none" stroke="#191970" d="M498.4581,-201.5828C630.6064,-190.7031 1001.6405,-160.1562 1142.6004,-148.551"/>
<polygon fill="#191970" stroke="#191970" points="1143.0643,-152.0248 1152.7434,-147.716 1142.4899,-145.0484 1143.0643,-152.0248"/>
</g>
<!-- Node15&#45;&gt;Node3 -->
<g id="edge18" class="edge">
<title>Node15&#45;&gt;Node3</title>
<path fill="none" stroke="#191970" d="M136.285,-134.3906C128.0191,-125.1478 115.3361,-110.966 105.3171,-99.7628"/>
<polygon fill="#191970" stroke="#191970" points="107.8688,-97.3657 98.5937,-92.2449 102.651,-102.0321 107.8688,-97.3657"/>
</g>
<!-- Node16&#45;&gt;Node5 -->
<g id="edge26" class="edge">
<title>Node16&#45;&gt;Node5</title>
<path fill="none" stroke="#191970" d="M1242.9217,-140.2516C1322.1456,-133.1997 1479.6288,-116.9508 1495.8787,-98 1504.8472,-87.5409 1505.2482,-77.1015 1495.8787,-67 1474.5943,-44.0528 1026.8664,-24.0593 867.548,-17.6471"/>
<polygon fill="#191970" stroke="#191970" points="867.6106,-14.1469 857.4787,-17.2445 867.3308,-21.1414 867.6106,-14.1469"/>
</g>
<!-- Node17 -->
<g id="node18" class="node">
<title>Node17</title>
<polygon fill="none" stroke="#bfbfbf" points="1370.8787,-73 1370.8787,-92 1486.8787,-92 1486.8787,-73 1370.8787,-73"/>
<text text-anchor="middle" x="1428.8787" y="-80" font-family="Helvetica,sans-Serif" font-size="10.00" fill="#000000">deal.II/base/numbers.h</text>
</g>
<!-- Node16&#45;&gt;Node17 -->
<g id="edge21" class="edge">
<title>Node16&#45;&gt;Node17</title>
<path fill="none" stroke="#191970" d="M1233.719,-134.4581C1273.9272,-123.7533 1339.2478,-106.3628 1383.1157,-94.6837"/>
<polygon fill="#191970" stroke="#191970" points="1384.1914,-98.0193 1392.9544,-92.0643 1382.3905,-91.2549 1384.1914,-98.0193"/>
</g>
<!-- Node18 -->
<g id="node19" class="node">
<title>Node18</title>
<polygon fill="none" stroke="#bfbfbf" points="596.8787,-67.5 596.8787,-97.5 724.8787,-97.5 724.8787,-67.5 596.8787,-67.5"/>
<text text-anchor="start" x="604.8787" y="-85.5" font-family="Helvetica,sans-Serif" font-size="10.00" fill="#000000">deal.II/lac/blas_extension</text>
<text text-anchor="middle" x="660.8787" y="-74.5" font-family="Helvetica,sans-Serif" font-size="10.00" fill="#000000">_templates.h</text>
</g>
<!-- Node16&#45;&gt;Node18 -->
<g id="edge22" class="edge">
<title>Node16&#45;&gt;Node18</title>
<path fill="none" stroke="#191970" d="M1152.8785,-141.1968C1071.458,-135.765 894.1313,-122.2874 734.8772,-98.0478"/>
<polygon fill="#191970" stroke="#191970" points="735.3152,-94.574 724.899,-96.5111 734.2497,-101.4925 735.3152,-94.574"/>
</g>
<!-- Node19 -->
<g id="node20" class="node">
<title>Node19</title>
<polygon fill="none" stroke="#bfbfbf" points="742.8787,-73 742.8787,-92 868.8787,-92 868.8787,-73 742.8787,-73"/>
<text text-anchor="middle" x="805.8787" y="-80" font-family="Helvetica,sans-Serif" font-size="10.00" fill="#000000">deal.II/lac/block_vector.h</text>
</g>
<!-- Node16&#45;&gt;Node19 -->
<g id="edge23" class="edge">
<title>Node16&#45;&gt;Node19</title>
<path fill="none" stroke="#191970" d="M1152.6753,-138.5047C1090.5513,-130.7242 975.3874,-115.4825 877.8787,-98 871.2831,-96.8174 864.3705,-95.4695 857.5472,-94.0734"/>
<polygon fill="#191970" stroke="#191970" points="858.166,-90.6272 847.6615,-92.0073 856.7339,-97.4792 858.166,-90.6272"/>
</g>
<!-- Node20 -->
<g id="node21" class="node">
<title>Node20</title>
<polygon fill="none" stroke="#bfbfbf" points="1652.8787,-73 1652.8787,-92 1768.8787,-92 1768.8787,-73 1652.8787,-73"/>
<text text-anchor="middle" x="1710.8787" y="-80" font-family="Helvetica,sans-Serif" font-size="10.00" fill="#000000">deal.II/lac/full_matrix.h</text>
</g>
<!-- Node16&#45;&gt;Node20 -->
<g id="edge24" class="edge">
<title>Node16&#45;&gt;Node20</title>
<path fill="none" stroke="#191970" d="M1243.074,-141.2071C1323.9003,-135.7977 1498.3743,-122.2374 1643.8787,-98 1650.2162,-96.9443 1656.8498,-95.6476 1663.375,-94.2578"/>
<polygon fill="#191970" stroke="#191970" points="1664.4755,-97.5989 1673.4815,-92.0184 1662.9611,-90.7647 1664.4755,-97.5989"/>
</g>
<!-- Node21 -->
<g id="node22" class="node">
<title>Node21</title>
<polygon fill="none" stroke="#bfbfbf" points="1787.3787,-67.5 1787.3787,-97.5 1878.3787,-97.5 1878.3787,-67.5 1787.3787,-67.5"/>
<text text-anchor="start" x="1795.3787" y="-85.5" font-family="Helvetica,sans-Serif" font-size="10.00" fill="#000000">deal.II/lac/lapack</text>
<text text-anchor="middle" x="1832.8787" y="-74.5" font-family="Helvetica,sans-Serif" font-size="10.00" fill="#000000">_full_matrix.h</text>
</g>
<!-- Node16&#45;&gt;Node21 -->
<g id="edge25" class="edge">
<title>Node16&#45;&gt;Node21</title>
<path fill="none" stroke="#191970" d="M1243.0141,-143.4141C1339.5237,-141.5192 1573.0648,-133.5082 1777.1177,-97.8911"/>
<polygon fill="#191970" stroke="#191970" points="1777.8828,-101.3101 1787.1186,-96.1189 1776.6613,-94.4175 1777.8828,-101.3101"/>
</g>
<!-- Node22 -->
<g id="node23" class="node">
<title>Node22</title>
<polygon fill="none" stroke="#bfbfbf" points="1543.3787,-67.5 1543.3787,-97.5 1634.3787,-97.5 1634.3787,-67.5 1543.3787,-67.5"/>
<text text-anchor="start" x="1551.3787" y="-85.5" font-family="Helvetica,sans-Serif" font-size="10.00" fill="#000000">deal.II/lac/lapack</text>
<text text-anchor="middle" x="1588.8787" y="-74.5" font-family="Helvetica,sans-Serif" font-size="10.00" fill="#000000">_templates.h</text>
</g>
<!-- Node16&#45;&gt;Node22 -->
<g id="edge27" class="edge">
<title>Node16&#45;&gt;Node22</title>
<path fill="none" stroke="#191970" d="M1243.1246,-139.3767C1307.1209,-132.4607 1427.5737,-118.0558 1528.8787,-98 1530.3299,-97.7127 1531.7982,-97.4116 1533.2778,-97.0989"/>
<polygon fill="#191970" stroke="#191970" points="1534.146,-100.4912 1543.1406,-94.8923 1532.6177,-93.6601 1534.146,-100.4912"/>
</g>
<!-- Node23 -->
<g id="node24" class="node">
<title>Node23</title>
<polygon fill="none" stroke="#bfbfbf" points="886.8787,-67.5 886.8787,-97.5 978.8787,-97.5 978.8787,-67.5 886.8787,-67.5"/>
<text text-anchor="start" x="894.8787" y="-85.5" font-family="Helvetica,sans-Serif" font-size="10.00" fill="#000000">deal.II/lac/sparse</text>
<text text-anchor="middle" x="932.8787" y="-74.5" font-family="Helvetica,sans-Serif" font-size="10.00" fill="#000000">_matrix.h</text>
</g>
<!-- Node16&#45;&gt;Node23 -->
<g id="edge28" class="edge">
<title>Node16&#45;&gt;Node23</title>
<path fill="none" stroke="#191970" d="M1152.8708,-134.819C1110.4348,-125.9914 1045.1302,-111.9646 988.8787,-98 988.7778,-97.9749 988.6767,-97.9498 988.5756,-97.9247"/>
<polygon fill="#191970" stroke="#191970" points="989.5277,-94.5556 978.9722,-95.4679 987.7927,-101.3372 989.5277,-94.5556"/>
</g>
<!-- Node24 -->
<g id="node25" class="node">
<title>Node24</title>
<polygon fill="none" stroke="#bfbfbf" points="997.3787,-73 997.3787,-92 1098.3787,-92 1098.3787,-73 997.3787,-73"/>
<text text-anchor="middle" x="1047.8787" y="-80" font-family="Helvetica,sans-Serif" font-size="10.00" fill="#000000">deal.II/lac/utilities.h</text>
</g>
<!-- Node16&#45;&gt;Node24 -->
<g id="edge29" class="edge">
<title>Node16&#45;&gt;Node24</title>
<path fill="none" stroke="#191970" d="M1174.4412,-134.3906C1149.2334,-124.0554 1108.9634,-107.5447 1080.6311,-95.9284"/>
<polygon fill="#191970" stroke="#191970" points="1081.7319,-92.5971 1071.1517,-92.0419 1079.0764,-99.0739 1081.7319,-92.5971"/>
</g>
<!-- Node25 -->
<g id="node26" class="node">
<title>Node25</title>
<polygon fill="none" stroke="#bfbfbf" points="1116.8787,-73 1116.8787,-92 1214.8787,-92 1214.8787,-73 1116.8787,-73"/>
<text text-anchor="middle" x="1165.8787" y="-80" font-family="Helvetica,sans-Serif" font-size="10.00" fill="#000000">deal.II/lac/vector.h</text>
</g>
<!-- Node16&#45;&gt;Node25 -->
<g id="edge30" class="edge">
<title>Node16&#45;&gt;Node25</title>
<path fill="none" stroke="#191970" d="M1192.8787,-134.3906C1188.3029,-125.5965 1181.4007,-112.3312 1175.7204,-101.4145"/>
<polygon fill="#191970" stroke="#191970" points="1178.6699,-99.5003 1170.9492,-92.2449 1172.4602,-102.7314 1178.6699,-99.5003"/>
</g>
<!-- Node26 -->
<g id="node27" class="node">
<title>Node26</title>
<g id="a_node27"><a xlink:href="lapack__templates__ext_8h.html" target="_top" xlink:title="Append more template based LAPACK functions to those existing in deal.ii. ">
<polygon fill="none" stroke="#000000" points="1232.8787,-73 1232.8787,-92 1352.8787,-92 1352.8787,-73 1232.8787,-73"/>
<text text-anchor="middle" x="1292.8787" y="-80" font-family="Helvetica,sans-Serif" font-size="10.00" fill="#000000">lapack_templates_ext.h</text>
</a>
</g>
</g>
<!-- Node16&#45;&gt;Node26 -->
<g id="edge31" class="edge">
<title>Node16&#45;&gt;Node26</title>
<path fill="none" stroke="#191970" d="M1212.7225,-134.3906C1227.9206,-124.5519 1251.7636,-109.1167 1269.4994,-97.6351"/>
<polygon fill="#191970" stroke="#191970" points="1271.6467,-100.4144 1278.1392,-92.0419 1267.8427,-94.5382 1271.6467,-100.4144"/>
</g>
<!-- Node26&#45;&gt;Node5 -->
<g id="edge32" class="edge">
<title>Node26&#45;&gt;Node5</title>
<path fill="none" stroke="#191970" d="M1253.6026,-72.9878C1243.9217,-70.834 1233.5548,-68.6875 1223.8787,-67 1097.3009,-44.925 947.251,-28.6233 867.7805,-20.7573"/>
<polygon fill="#191970" stroke="#191970" points="867.8058,-17.2431 857.5117,-19.7491 867.1218,-24.2096 867.8058,-17.2431"/>
</g>
<!-- Node27&#45;&gt;Node4 -->
<g id="edge34" class="edge">
<title>Node27&#45;&gt;Node4</title>
<path fill="none" stroke="#191970" d="M689.7611,-257.3676C702.8488,-249.5389 719.2436,-237.1524 726.8787,-221 732.7667,-208.5437 732.7135,-202.4813 726.8787,-190 710.4433,-154.8425 693.3083,-153.7139 659.8787,-134 631.4802,-117.253 596.6439,-103.995 569.7488,-95.1271"/>
<polygon fill="#191970" stroke="#191970" points="570.8175,-91.7943 560.226,-92.0602 568.6716,-98.4573 570.8175,-91.7943"/>
</g>
<!-- Node27&#45;&gt;Node5 -->
<g id="edge37" class="edge">
<title>Node27&#45;&gt;Node5</title>
<path fill="none" stroke="#191970" d="M640.6719,-266.4151C524.3323,-263.491 107.5394,-246.6093 22.8787,-154 -3.2536,-125.4142 -8.6067,-95.259 17.8787,-67 43.1173,-40.0714 579.7154,-22.2087 756.1797,-17.0453"/>
<polygon fill="#191970" stroke="#191970" points="756.3956,-20.5406 766.2898,-16.7519 756.1924,-13.5435 756.3956,-20.5406"/>
</g>
<!-- Node27&#45;&gt;Node8 -->
<g id="edge40" class="edge">
<title>Node27&#45;&gt;Node8</title>
<path fill="none" stroke="#191970" d="M665.6277,-257.4982C651.8778,-233.4435 612.4322,-169.5317 562.8787,-134 525.5084,-107.204 507.3554,-117.8558 465.8787,-98 465.2033,-97.6766 464.5225,-97.3413 463.839,-96.9962"/>
<polygon fill="#191970" stroke="#191970" points="465.4721,-93.9 455.0219,-92.1551 462.103,-100.036 465.4721,-93.9"/>
</g>
<!-- Node27&#45;&gt;Node9 -->
<g id="edge41" class="edge">
<title>Node27&#45;&gt;Node9</title>
<path fill="none" stroke="#191970" d="M659.3344,-257.3215C648.4807,-248.1424 631.8577,-233.8779 617.8787,-221 577.1956,-183.5215 576.3945,-162.3197 528.8787,-134 482.5087,-106.3632 462.9634,-118.1372 412.8787,-98 411.5179,-97.4529 410.1352,-96.8694 408.7471,-96.2615"/>
<polygon fill="#191970" stroke="#191970" points="410.2239,-93.0883 399.683,-92.0207 407.2574,-99.4287 410.2239,-93.0883"/>
</g>
<!-- Node27&#45;&gt;Node10 -->
<g id="edge42" class="edge">
<title>Node27&#45;&gt;Node10</title>
<path fill="none" stroke="#191970" d="M640.75,-258.5776C606.7961,-249.086 550.8142,-233.4365 508.4134,-221.5836"/>
<polygon fill="#191970" stroke="#191970" points="509.3422,-218.2091 498.7691,-218.8875 507.4576,-224.9506 509.3422,-218.2091"/>
</g>
<!-- Node27&#45;&gt;Node20 -->
<g id="edge35" class="edge">
<title>Node27&#45;&gt;Node20</title>
<path fill="none" stroke="#191970" d="M700.99,-263.4188C759.7584,-256.3069 893.7978,-239.4853 1005.8787,-221 1290.8066,-174.0074 1361.3797,-157.8873 1643.8787,-98 1649.3536,-96.8394 1655.0698,-95.5841 1660.7555,-94.3078"/>
<polygon fill="#191970" stroke="#191970" points="1661.9219,-97.6321 1670.8979,-92.0035 1660.371,-90.806 1661.9219,-97.6321"/>
</g>
<!-- Node27&#45;&gt;Node21 -->
<g id="edge36" class="edge">
<title>Node27&#45;&gt;Node21</title>
<path fill="none" stroke="#191970" d="M701.1068,-264.6093C772.1248,-258.8186 955.0779,-242.8886 1106.8787,-221 1403.7428,-178.1943 1480.8842,-166.7731 1777.6007,-97.9484"/>
<polygon fill="#191970" stroke="#191970" points="1778.3957,-101.357 1787.3449,-95.6859 1776.8124,-94.5384 1778.3957,-101.357"/>
</g>
<!-- Node27&#45;&gt;Node22 -->
<g id="edge38" class="edge">
<title>Node27&#45;&gt;Node22</title>
<path fill="none" stroke="#191970" d="M701.157,-261.2988C787.3533,-245.0283 1041.42,-196.7892 1251.8787,-154 1351.1108,-133.8247 1466.4899,-109.0617 1533.2539,-94.6039"/>
<polygon fill="#191970" stroke="#191970" points="1534.1109,-97.9995 1543.1427,-92.4608 1532.6282,-91.1583 1534.1109,-97.9995"/>
</g>
<!-- Node28 -->
<g id="node29" class="node">
<title>Node28</title>
<polygon fill="none" stroke="#bfbfbf" points="673.8787,-196 673.8787,-215 717.8787,-215 717.8787,-196 673.8787,-196"/>
<text text-anchor="middle" x="695.8787" y="-203" font-family="Helvetica,sans-Serif" font-size="10.00" fill="#000000">cmath</text>
</g>
<!-- Node27&#45;&gt;Node28 -->
<g id="edge39" class="edge">
<title>Node27&#45;&gt;Node28</title>
<path fill="none" stroke="#191970" d="M674.785,-257.3906C678.3234,-248.6862 683.6424,-235.6015 688.0538,-224.7494"/>
<polygon fill="#191970" stroke="#191970" points="691.3939,-225.8268 691.9174,-215.2449 684.9092,-223.1907 691.3939,-225.8268"/>
</g>
</g>
</svg>
