<?xml version="1.0" encoding="UTF-8" standalone="no"?>
<!DOCTYPE svg PUBLIC "-//W3C//DTD SVG 1.1//EN"
 "http://www.w3.org/Graphics/SVG/1.1/DTD/svg11.dtd">
<!-- Generated by graphviz version 2.40.1 (20161225.0304)
 -->
<!-- Title: /home/jihuan/Projects/deal.ii/program/dealii&#45;9.1.1/examples/laplace&#45;bem/tests/rkmatrix&#45;add&#45;formatted/rkmatrix&#45;add&#45;formatted.cc Pages: 1 -->
<!--zoomable 318 -->
<svg id="main" version="1.1" xmlns="http://www.w3.org/2000/svg" xmlns:xlink="http://www.w3.org/1999/xlink" xml:space="preserve" onload="init(evt)">
<style type="text/css"><![CDATA[
.edge:hover path { stroke: red; }
.edge:hover polygon { stroke: red; fill: red; }
]]></style>
<script type="text/javascript"><![CDATA[
var edges = document.getElementsByTagName('g');
if (edges && edges.length) {
  for (var i=0;i<edges.length;i++) {
    if (edges[i].id.substr(0,4)=='edge') {
      edges[i].setAttribute('class','edge');
    }
  }
}
]]></script>
        <defs>
                <circle id="rim" cx="0" cy="0" r="7"/>
                <circle id="rim2" cx="0" cy="0" r="3.5"/>
                <g id="zoomPlus">
                        <use xlink:href="#rim" fill="#404040">
                                <set attributeName="fill" to="#808080" begin="zoomplus.mouseover" end="zoomplus.mouseout"/>
                        </use>
                        <path d="M-4,0h8M0,-4v8" fill="none" stroke="white" stroke-width="1.5" pointer-events="none"/>
                </g>
                <g id="zoomMin">
                        <use xlink:href="#rim" fill="#404040">
                                <set attributeName="fill" to="#808080" begin="zoomminus.mouseover" end="zoomminus.mouseout"/>
                        </use>
                        <path d="M-4,0h8" fill="none" stroke="white" stroke-width="1.5" pointer-events="none"/>
                </g>
                <g id="dirArrow">
                        <path fill="none" stroke="white" stroke-width="1.5" d="M0,-3.0v7 M-2.5,-0.5L0,-3.0L2.5,-0.5"/>
                </g>
               <g id="resetDef">
                       <use xlink:href="#rim2" fill="#404040">
                               <set attributeName="fill" to="#808080" begin="reset.mouseover" end="reset.mouseout"/>
                       </use>
               </g>
        </defs>

<script type="text/javascript">
var viewWidth = 1973;
var viewHeight = 318;
var sectionId = 'dynsection-0';
</script>
<script xlink:href="svgpan.js"/>
<svg id="graph" class="graph">
<g id="viewport">
<title>/home/jihuan/Projects/deal.ii/program/dealii&#45;9.1.1/examples/laplace&#45;bem/tests/rkmatrix&#45;add&#45;formatted/rkmatrix&#45;add&#45;formatted.cc</title>
<!-- Node0 -->
<g id="node1" class="node">
<title>Node0</title>
<polygon fill="#bfbfbf" stroke="#000000" points="301,-246.5 301,-309.5 477,-309.5 477,-246.5 301,-246.5"/>
<text text-anchor="start" x="309" y="-297.5" font-family="Helvetica,sans-Serif" font-size="10.00" fill="#000000">/home/jihuan/Projects</text>
<text text-anchor="start" x="309" y="-286.5" font-family="Helvetica,sans-Serif" font-size="10.00" fill="#000000">/deal.ii/program/dealii</text>
<text text-anchor="start" x="309" y="-275.5" font-family="Helvetica,sans-Serif" font-size="10.00" fill="#000000">&#45;9.1.1/examples/laplace</text>
<text text-anchor="start" x="309" y="-264.5" font-family="Helvetica,sans-Serif" font-size="10.00" fill="#000000">&#45;bem/tests/rkmatrix&#45;add</text>
<text text-anchor="middle" x="389" y="-253.5" font-family="Helvetica,sans-Serif" font-size="10.00" fill="#000000">&#45;formatted/rkmatrix&#45;add&#45;formatted.cc</text>
</g>
<!-- Node1 -->
<g id="node2" class="node">
<title>Node1</title>
<polygon fill="none" stroke="#bfbfbf" points="0,-129 0,-148 54,-148 54,-129 0,-129"/>
<text text-anchor="middle" x="27" y="-136" font-family="Helvetica,sans-Serif" font-size="10.00" fill="#000000">iostream</text>
</g>
<!-- Node0&#45;&gt;Node1 -->
<g id="edge1" class="edge">
<title>Node0&#45;&gt;Node1</title>
<path fill="none" stroke="#191970" d="M303.151,-246.4969C237.183,-222.0117 143.9534,-186.8058 63,-154 61.581,-153.425 60.1334,-152.8313 58.6731,-152.2267"/>
<polygon fill="#191970" stroke="#191970" points="59.596,-148.8176 49.0216,-148.1597 56.8778,-155.2683 59.596,-148.8176"/>
</g>
<!-- Node2 -->
<g id="node3" class="node">
<title>Node2</title>
<g id="a_node3"><a xlink:href="debug__tools_8h.html" target="_top" xlink:title="This file includes a bunch of helper functions for printing out and visualizing information about gri...">
<polygon fill="none" stroke="#000000" points="350.5,-190.5 350.5,-209.5 427.5,-209.5 427.5,-190.5 350.5,-190.5"/>
<text text-anchor="middle" x="389" y="-197.5" font-family="Helvetica,sans-Serif" font-size="10.00" fill="#000000">debug_tools.h</text>
</a>
</g>
</g>
<!-- Node0&#45;&gt;Node2 -->
<g id="edge2" class="edge">
<title>Node0&#45;&gt;Node2</title>
<path fill="none" stroke="#191970" d="M389,-246.2744C389,-237.3302 389,-227.8568 389,-219.8269"/>
<polygon fill="#191970" stroke="#191970" points="392.5001,-219.6425 389,-209.6426 385.5001,-219.6426 392.5001,-219.6425"/>
</g>
<!-- Node9 -->
<g id="node10" class="node">
<title>Node9</title>
<g id="a_node10"><a xlink:href="rkmatrix_8h.html" target="_top" xlink:title="Definition of rank&#45;k matrix. ">
<polygon fill="none" stroke="#000000" points="932,-190.5 932,-209.5 992,-209.5 992,-190.5 932,-190.5"/>
<text text-anchor="middle" x="962" y="-197.5" font-family="Helvetica,sans-Serif" font-size="10.00" fill="#000000">rkmatrix.h</text>
</a>
</g>
</g>
<!-- Node0&#45;&gt;Node9 -->
<g id="edge10" class="edge">
<title>Node0&#45;&gt;Node9</title>
<path fill="none" stroke="#191970" d="M477.2755,-265.9834C603.4767,-248.8042 830.3276,-217.924 921.9722,-205.4488"/>
<polygon fill="#191970" stroke="#191970" points="922.5155,-208.9072 931.952,-204.0903 921.5713,-201.9712 922.5155,-208.9072"/>
</g>
<!-- Node2&#45;&gt;Node1 -->
<g id="edge8" class="edge">
<title>Node2&#45;&gt;Node1</title>
<path fill="none" stroke="#191970" d="M350.1746,-197.8688C288.3737,-193.7353 164.2651,-182.394 63,-154 60.8174,-153.388 58.5932,-152.6728 56.3752,-151.8917"/>
<polygon fill="#191970" stroke="#191970" points="57.4272,-148.5449 46.8393,-148.1601 54.8762,-155.0636 57.4272,-148.5449"/>
</g>
<!-- Node3 -->
<g id="node4" class="node">
<title>Node3</title>
<polygon fill="none" stroke="#bfbfbf" points="72.5,-129 72.5,-148 199.5,-148 199.5,-129 72.5,-129"/>
<text text-anchor="middle" x="136" y="-136" font-family="Helvetica,sans-Serif" font-size="10.00" fill="#000000">deal.II/dofs/dof_handler.h</text>
</g>
<!-- Node2&#45;&gt;Node3 -->
<g id="edge3" class="edge">
<title>Node2&#45;&gt;Node3</title>
<path fill="none" stroke="#191970" d="M350.2993,-190.5925C305.973,-179.8175 233.2659,-162.1437 185.0178,-150.4154"/>
<polygon fill="#191970" stroke="#191970" points="185.6562,-146.9687 175.1124,-148.0076 184.0027,-153.7707 185.6562,-146.9687"/>
</g>
<!-- Node4 -->
<g id="node5" class="node">
<title>Node4</title>
<polygon fill="none" stroke="#bfbfbf" points="218,-129 218,-148 334,-148 334,-129 218,-129"/>
<text text-anchor="middle" x="276" y="-136" font-family="Helvetica,sans-Serif" font-size="10.00" fill="#000000">deal.II/dofs/dof_tools.h</text>
</g>
<!-- Node2&#45;&gt;Node4 -->
<g id="edge4" class="edge">
<title>Node2&#45;&gt;Node4</title>
<path fill="none" stroke="#191970" d="M371.3438,-190.3906C352.8514,-180.3262 323.599,-164.4057 302.3692,-152.8514"/>
<polygon fill="#191970" stroke="#191970" points="303.9888,-149.7481 293.5323,-148.0419 300.6425,-155.8965 303.9888,-149.7481"/>
</g>
<!-- Node5 -->
<g id="node6" class="node">
<title>Node5</title>
<polygon fill="none" stroke="#bfbfbf" points="352,-129 352,-148 426,-148 426,-129 352,-129"/>
<text text-anchor="middle" x="389" y="-136" font-family="Helvetica,sans-Serif" font-size="10.00" fill="#000000">deal.II/fe/fe.h</text>
</g>
<!-- Node2&#45;&gt;Node5 -->
<g id="edge5" class="edge">
<title>Node2&#45;&gt;Node5</title>
<path fill="none" stroke="#191970" d="M389,-190.3906C389,-181.8657 389,-169.1392 389,-158.4235"/>
<polygon fill="#191970" stroke="#191970" points="392.5001,-158.2448 389,-148.2449 385.5001,-158.2449 392.5001,-158.2448"/>
</g>
<!-- Node6 -->
<g id="node7" class="node">
<title>Node6</title>
<polygon fill="none" stroke="#bfbfbf" points="444,-129 444,-148 556,-148 556,-129 444,-129"/>
<text text-anchor="middle" x="500" y="-136" font-family="Helvetica,sans-Serif" font-size="10.00" fill="#000000">deal.II/fe/fe_system.h</text>
</g>
<!-- Node2&#45;&gt;Node6 -->
<g id="edge6" class="edge">
<title>Node2&#45;&gt;Node6</title>
<path fill="none" stroke="#191970" d="M406.3438,-190.3906C424.4273,-180.3713 452.9859,-164.5483 473.8165,-153.0071"/>
<polygon fill="#191970" stroke="#191970" points="475.7271,-155.9498 482.778,-148.0419 472.3346,-149.8268 475.7271,-155.9498"/>
</g>
<!-- Node7 -->
<g id="node8" class="node">
<title>Node7</title>
<polygon fill="none" stroke="#bfbfbf" points="574.5,-129 574.5,-148 677.5,-148 677.5,-129 574.5,-129"/>
<text text-anchor="middle" x="626" y="-136" font-family="Helvetica,sans-Serif" font-size="10.00" fill="#000000">deal.II/fe/mapping.h</text>
</g>
<!-- Node2&#45;&gt;Node7 -->
<g id="edge7" class="edge">
<title>Node2&#45;&gt;Node7</title>
<path fill="none" stroke="#191970" d="M425.7712,-190.4581C467.1106,-179.7308 534.3233,-162.2895 579.3322,-150.61"/>
<polygon fill="#191970" stroke="#191970" points="580.3422,-153.9639 589.1425,-148.0643 578.584,-147.1883 580.3422,-153.9639"/>
</g>
<!-- Node8 -->
<g id="node9" class="node">
<title>Node8</title>
<polygon fill="none" stroke="#bfbfbf" points="695.5,-129 695.5,-148 736.5,-148 736.5,-129 695.5,-129"/>
<text text-anchor="middle" x="716" y="-136" font-family="Helvetica,sans-Serif" font-size="10.00" fill="#000000">string</text>
</g>
<!-- Node2&#45;&gt;Node8 -->
<g id="edge9" class="edge">
<title>Node2&#45;&gt;Node8</title>
<path fill="none" stroke="#191970" d="M427.8972,-197.9771C485.5375,-194.0936 596.4621,-183.2033 686,-154 687.463,-153.5228 688.9415,-152.9805 690.4167,-152.3915"/>
<polygon fill="#191970" stroke="#191970" points="692.2905,-155.382 699.9105,-148.0208 689.3632,-149.0235 692.2905,-155.382"/>
</g>
<!-- Node10 -->
<g id="node11" class="node">
<title>Node10</title>
<polygon fill="none" stroke="#bfbfbf" points="754.5,-129 754.5,-148 857.5,-148 857.5,-129 754.5,-129"/>
<text text-anchor="middle" x="806" y="-136" font-family="Helvetica,sans-Serif" font-size="10.00" fill="#000000">deal.II/base/types.h</text>
</g>
<!-- Node9&#45;&gt;Node10 -->
<g id="edge11" class="edge">
<title>Node9&#45;&gt;Node10</title>
<path fill="none" stroke="#191970" d="M937.625,-190.3906C911.2944,-180.0103 869.162,-163.4004 839.6771,-151.7766"/>
<polygon fill="#191970" stroke="#191970" points="840.7907,-148.4534 830.2038,-148.0419 838.2233,-154.9657 840.7907,-148.4534"/>
</g>
<!-- Node11 -->
<g id="node12" class="node">
<title>Node11</title>
<polygon fill="none" stroke="#bfbfbf" points="607,-6 607,-25 723,-25 723,-6 607,-6"/>
<text text-anchor="middle" x="665" y="-13" font-family="Helvetica,sans-Serif" font-size="10.00" fill="#000000">deal.II/lac/full_matrix.h</text>
</g>
<!-- Node9&#45;&gt;Node11 -->
<g id="edge12" class="edge">
<title>Node9&#45;&gt;Node11</title>
<path fill="none" stroke="#191970" d="M951.2753,-190.2939C934.0473,-174.9628 898.8064,-144.6612 866,-123 808.1865,-84.8272 735.4468,-48.5909 695.2319,-29.4941"/>
<polygon fill="#191970" stroke="#191970" points="696.5121,-26.2282 685.9744,-25.1284 693.5263,-32.5595 696.5121,-26.2282"/>
</g>
<!-- Node12 -->
<g id="node13" class="node">
<title>Node12</title>
<polygon fill="none" stroke="#bfbfbf" points="741.5,-.5 741.5,-30.5 832.5,-30.5 832.5,-.5 741.5,-.5"/>
<text text-anchor="start" x="749.5" y="-18.5" font-family="Helvetica,sans-Serif" font-size="10.00" fill="#000000">deal.II/lac/lapack</text>
<text text-anchor="middle" x="787" y="-7.5" font-family="Helvetica,sans-Serif" font-size="10.00" fill="#000000">_full_matrix.h</text>
</g>
<!-- Node9&#45;&gt;Node12 -->
<g id="edge13" class="edge">
<title>Node9&#45;&gt;Node12</title>
<path fill="none" stroke="#191970" d="M959.9332,-190.2959C954.3638,-166.3213 936.9064,-103.5908 900,-67 884.0075,-51.1442 862.2523,-39.6535 842.0998,-31.6055"/>
<polygon fill="#191970" stroke="#191970" points="843.2664,-28.3048 832.675,-28.0372 840.7878,-34.8513 843.2664,-28.3048"/>
</g>
<!-- Node13 -->
<g id="node14" class="node">
<title>Node13</title>
<polygon fill="none" stroke="#bfbfbf" points="850.5,-.5 850.5,-30.5 941.5,-30.5 941.5,-.5 850.5,-.5"/>
<text text-anchor="start" x="858.5" y="-18.5" font-family="Helvetica,sans-Serif" font-size="10.00" fill="#000000">deal.II/lac/lapack</text>
<text text-anchor="middle" x="896" y="-7.5" font-family="Helvetica,sans-Serif" font-size="10.00" fill="#000000">_support.h</text>
</g>
<!-- Node9&#45;&gt;Node13 -->
<g id="edge14" class="edge">
<title>Node9&#45;&gt;Node13</title>
<path fill="none" stroke="#191970" d="M961.8919,-190.4903C961.3025,-167.9721 957.8154,-110.0546 938,-67 933.248,-56.675 925.9336,-46.6699 918.7326,-38.2676"/>
<polygon fill="#191970" stroke="#191970" points="921.2462,-35.8286 911.9507,-30.7448 916.047,-40.5157 921.2462,-35.8286"/>
</g>
<!-- Node14 -->
<g id="node15" class="node">
<title>Node14</title>
<polygon fill="none" stroke="#bfbfbf" points="959.5,-.5 959.5,-30.5 1050.5,-30.5 1050.5,-.5 959.5,-.5"/>
<text text-anchor="start" x="967.5" y="-18.5" font-family="Helvetica,sans-Serif" font-size="10.00" fill="#000000">deal.II/lac/lapack</text>
<text text-anchor="middle" x="1005" y="-7.5" font-family="Helvetica,sans-Serif" font-size="10.00" fill="#000000">_templates.h</text>
</g>
<!-- Node9&#45;&gt;Node14 -->
<g id="edge15" class="edge">
<title>Node9&#45;&gt;Node14</title>
<path fill="none" stroke="#191970" d="M965.2596,-190.2011C968.2751,-180.9368 972.7665,-166.6147 976,-154 986.07,-114.7141 995.2121,-68.5009 1000.4354,-40.6319"/>
<polygon fill="#191970" stroke="#191970" points="1003.9207,-41.0328 1002.3014,-30.5624 997.0378,-39.7573 1003.9207,-41.0328"/>
</g>
<!-- Node15 -->
<g id="node16" class="node">
<title>Node15</title>
<polygon fill="none" stroke="#bfbfbf" points="1028.5,-67.5 1028.5,-86.5 1063.5,-86.5 1063.5,-67.5 1028.5,-67.5"/>
<text text-anchor="middle" x="1046" y="-74.5" font-family="Helvetica,sans-Serif" font-size="10.00" fill="#000000">map</text>
</g>
<!-- Node9&#45;&gt;Node15 -->
<g id="edge16" class="edge">
<title>Node9&#45;&gt;Node15</title>
<path fill="none" stroke="#191970" d="M975.9582,-190.4386C987.4453,-181.9767 1003.492,-168.7125 1014,-154 1026.5786,-136.3884 1035.379,-113.0867 1040.5243,-96.7469"/>
<polygon fill="#191970" stroke="#191970" points="1044.0153,-97.2851 1043.5039,-86.7026 1037.3044,-95.2942 1044.0153,-97.2851"/>
</g>
<!-- Node16 -->
<g id="node17" class="node">
<title>Node16</title>
<polygon fill="none" stroke="#bfbfbf" points="1376,-67.5 1376,-86.5 1420,-86.5 1420,-67.5 1376,-67.5"/>
<text text-anchor="middle" x="1398" y="-74.5" font-family="Helvetica,sans-Serif" font-size="10.00" fill="#000000">vector</text>
</g>
<!-- Node9&#45;&gt;Node16 -->
<g id="edge17" class="edge">
<title>Node9&#45;&gt;Node16</title>
<path fill="none" stroke="#191970" d="M992.1393,-197.1613C1041.6099,-191.9651 1142.7537,-179.0779 1225,-154 1278.8071,-137.5936 1337.9736,-108.7191 1371.2966,-91.3734"/>
<polygon fill="#191970" stroke="#191970" points="1373.1578,-94.3492 1380.3793,-86.5968 1369.8995,-88.1537 1373.1578,-94.3492"/>
</g>
<!-- Node17 -->
<g id="node18" class="node">
<title>Node17</title>
<g id="a_node18"><a xlink:href="lapack__full__matrix__ext_8h_source.html" target="_top" xlink:title="lapack_full_matrix\l_ext.h">
<polygon fill="none" stroke="#000000" points="1120.5,-123.5 1120.5,-153.5 1215.5,-153.5 1215.5,-123.5 1120.5,-123.5"/>
<text text-anchor="start" x="1128.5" y="-141.5" font-family="Helvetica,sans-Serif" font-size="10.00" fill="#000000">lapack_full_matrix</text>
<text text-anchor="middle" x="1168" y="-130.5" font-family="Helvetica,sans-Serif" font-size="10.00" fill="#000000">_ext.h</text>
</a>
</g>
</g>
<!-- Node9&#45;&gt;Node17 -->
<g id="edge18" class="edge">
<title>Node9&#45;&gt;Node17</title>
<path fill="none" stroke="#191970" d="M992.396,-190.9255C1023.3201,-181.6933 1072.0095,-167.1573 1110.2833,-155.7309"/>
<polygon fill="#191970" stroke="#191970" points="1111.6935,-158.9627 1120.2743,-152.7482 1109.691,-152.2552 1111.6935,-158.9627"/>
</g>
<!-- Node17&#45;&gt;Node15 -->
<g id="edge20" class="edge">
<title>Node17&#45;&gt;Node15</title>
<path fill="none" stroke="#191970" d="M1138.1554,-123.4554C1118.2409,-113.4165 1092.2704,-100.3248 1072.9766,-90.5989"/>
<polygon fill="#191970" stroke="#191970" points="1074.3358,-87.3645 1063.8307,-85.9884 1071.1847,-93.6152 1074.3358,-87.3645"/>
</g>
<!-- Node17&#45;&gt;Node16 -->
<g id="edge21" class="edge">
<title>Node17&#45;&gt;Node16</title>
<path fill="none" stroke="#191970" d="M1215.6598,-127.002C1253.896,-117.5889 1309.1444,-103.5669 1365.8451,-87.2263"/>
<polygon fill="#191970" stroke="#191970" points="1367.0688,-90.5157 1375.6972,-84.3675 1365.118,-83.793 1367.0688,-90.5157"/>
</g>
<!-- Node18 -->
<g id="node19" class="node">
<title>Node18</title>
<polygon fill="none" stroke="#bfbfbf" points="1190,-67.5 1190,-86.5 1230,-86.5 1230,-67.5 1190,-67.5"/>
<text text-anchor="middle" x="1210" y="-74.5" font-family="Helvetica,sans-Serif" font-size="10.00" fill="#000000">limits</text>
</g>
<!-- Node17&#45;&gt;Node18 -->
<g id="edge19" class="edge">
<title>Node17&#45;&gt;Node18</title>
<path fill="none" stroke="#191970" d="M1178.382,-123.2977C1184.1513,-114.8498 1191.3716,-104.2773 1197.4553,-95.369"/>
<polygon fill="#191970" stroke="#191970" points="1200.5259,-97.0788 1203.2753,-86.8469 1194.7453,-93.1311 1200.5259,-97.0788"/>
</g>
<!-- Node19 -->
<g id="node20" class="node">
<title>Node19</title>
<g id="a_node20"><a xlink:href="general__exceptions_8h.html" target="_top" xlink:title="Definition of self&#45;defined general exceptions. ">
<polygon fill="none" stroke="#000000" points="1248.5,-67.5 1248.5,-86.5 1357.5,-86.5 1357.5,-67.5 1248.5,-67.5"/>
<text text-anchor="middle" x="1303" y="-74.5" font-family="Helvetica,sans-Serif" font-size="10.00" fill="#000000">general_exceptions.h</text>
</a>
</g>
</g>
<!-- Node17&#45;&gt;Node19 -->
<g id="edge22" class="edge">
<title>Node17&#45;&gt;Node19</title>
<path fill="none" stroke="#191970" d="M1201.0247,-123.4554C1222.957,-113.464 1251.5273,-100.4487 1272.8453,-90.7372"/>
<polygon fill="#191970" stroke="#191970" points="1274.4306,-93.8611 1282.0798,-86.5303 1271.5286,-87.4909 1274.4306,-93.8611"/>
</g>
<!-- Node21 -->
<g id="node22" class="node">
<title>Node21</title>
<g id="a_node22"><a xlink:href="lapack__helpers_8h.html" target="_top" xlink:title="Exposes LAPACK helper functions defined in lapack_full_matrix.cc and define new ones by following the...">
<polygon fill="none" stroke="#000000" points="1082,-67.5 1082,-86.5 1172,-86.5 1172,-67.5 1082,-67.5"/>
<text text-anchor="middle" x="1127" y="-74.5" font-family="Helvetica,sans-Serif" font-size="10.00" fill="#000000">lapack_helpers.h</text>
</a>
</g>
</g>
<!-- Node17&#45;&gt;Node21 -->
<g id="edge24" class="edge">
<title>Node17&#45;&gt;Node21</title>
<path fill="none" stroke="#191970" d="M1157.8652,-123.2977C1152.2332,-114.8498 1145.1849,-104.2773 1139.246,-95.369"/>
<polygon fill="#191970" stroke="#191970" points="1142.0238,-93.226 1133.5646,-86.8469 1136.1995,-97.1089 1142.0238,-93.226"/>
</g>
<!-- Node20 -->
<g id="node21" class="node">
<title>Node20</title>
<polygon fill="none" stroke="#bfbfbf" points="1839,-6 1839,-25 1965,-25 1965,-6 1839,-6"/>
<text text-anchor="middle" x="1902" y="-13" font-family="Helvetica,sans-Serif" font-size="10.00" fill="#000000">deal.II/base/exceptions.h</text>
</g>
<!-- Node19&#45;&gt;Node20 -->
<g id="edge23" class="edge">
<title>Node19&#45;&gt;Node20</title>
<path fill="none" stroke="#191970" d="M1357.7746,-68.156C1360.8925,-67.7416 1363.9841,-67.3523 1367,-67 1572.0047,-43.0505 1625.7617,-60.7862 1830,-31 1837.2198,-29.9471 1844.7984,-28.5934 1852.217,-27.1254"/>
<polygon fill="#191970" stroke="#191970" points="1853.0981,-30.5174 1862.1854,-25.0702 1851.6846,-23.6616 1853.0981,-30.5174"/>
</g>
<!-- Node21&#45;&gt;Node11 -->
<g id="edge28" class="edge">
<title>Node21&#45;&gt;Node11</title>
<path fill="none" stroke="#191970" d="M1081.7227,-68.4923C1078.4369,-67.9595 1075.1702,-67.4554 1072,-67 921.5881,-45.3937 881.8565,-56.1714 732,-31 725.664,-29.9357 719.0312,-28.634 712.5065,-27.2417"/>
<polygon fill="#191970" stroke="#191970" points="712.9209,-23.7486 702.4003,-25.0003 711.4052,-30.5826 712.9209,-23.7486"/>
</g>
<!-- Node21&#45;&gt;Node12 -->
<g id="edge29" class="edge">
<title>Node21&#45;&gt;Node12</title>
<path fill="none" stroke="#191970" d="M1081.9933,-68.7214C1078.6133,-68.129 1075.2537,-67.5492 1072,-67 972.7453,-50.2455 944.2336,-53.1682 842.6285,-31.2151"/>
<polygon fill="#191970" stroke="#191970" points="843.0799,-27.7311 832.5627,-29.0115 841.5828,-34.5692 843.0799,-27.7311"/>
</g>
<!-- Node21&#45;&gt;Node13 -->
<g id="edge30" class="edge">
<title>Node21&#45;&gt;Node13</title>
<path fill="none" stroke="#191970" d="M1089.2907,-67.4937C1055.5091,-58.9121 1004.3634,-45.7596 951.5245,-31.386"/>
<polygon fill="#191970" stroke="#191970" points="952.2111,-27.9454 941.6424,-28.6887 950.3679,-34.6984 952.2111,-27.9454"/>
</g>
<!-- Node21&#45;&gt;Node14 -->
<g id="edge31" class="edge">
<title>Node21&#45;&gt;Node14</title>
<path fill="none" stroke="#191970" d="M1107.9375,-67.3906C1090.8912,-58.7976 1065.3764,-45.9356 1044.0144,-35.1671"/>
<polygon fill="#191970" stroke="#191970" points="1045.3497,-31.9207 1034.8446,-30.5446 1042.1986,-38.1714 1045.3497,-31.9207"/>
</g>
<!-- Node22 -->
<g id="node23" class="node">
<title>Node22</title>
<polygon fill="none" stroke="#bfbfbf" points="1069,-6 1069,-25 1185,-25 1185,-6 1069,-6"/>
<text text-anchor="middle" x="1127" y="-13" font-family="Helvetica,sans-Serif" font-size="10.00" fill="#000000">deal.II/base/numbers.h</text>
</g>
<!-- Node21&#45;&gt;Node22 -->
<g id="edge25" class="edge">
<title>Node21&#45;&gt;Node22</title>
<path fill="none" stroke="#191970" d="M1127,-67.3906C1127,-58.8657 1127,-46.1392 1127,-35.4235"/>
<polygon fill="#191970" stroke="#191970" points="1130.5001,-35.2448 1127,-25.2449 1123.5001,-35.2449 1130.5001,-35.2448"/>
</g>
<!-- Node23 -->
<g id="node24" class="node">
<title>Node23</title>
<polygon fill="none" stroke="#bfbfbf" points="1203,-.5 1203,-30.5 1331,-30.5 1331,-.5 1203,-.5"/>
<text text-anchor="start" x="1211" y="-18.5" font-family="Helvetica,sans-Serif" font-size="10.00" fill="#000000">deal.II/lac/blas_extension</text>
<text text-anchor="middle" x="1267" y="-7.5" font-family="Helvetica,sans-Serif" font-size="10.00" fill="#000000">_templates.h</text>
</g>
<!-- Node21&#45;&gt;Node23 -->
<g id="edge26" class="edge">
<title>Node21&#45;&gt;Node23</title>
<path fill="none" stroke="#191970" d="M1148.875,-67.3906C1168.7872,-58.6435 1198.7691,-45.4728 1223.5438,-34.5897"/>
<polygon fill="#191970" stroke="#191970" points="1225.0043,-37.771 1232.7521,-30.5446 1222.1889,-31.3621 1225.0043,-37.771"/>
</g>
<!-- Node24 -->
<g id="node25" class="node">
<title>Node24</title>
<polygon fill="none" stroke="#bfbfbf" points="1349,-6 1349,-25 1475,-25 1475,-6 1349,-6"/>
<text text-anchor="middle" x="1412" y="-13" font-family="Helvetica,sans-Serif" font-size="10.00" fill="#000000">deal.II/lac/block_vector.h</text>
</g>
<!-- Node21&#45;&gt;Node24 -->
<g id="edge27" class="edge">
<title>Node21&#45;&gt;Node24</title>
<path fill="none" stroke="#191970" d="M1171.2185,-67.4581C1221.4527,-56.6181 1303.4573,-38.9224 1357.5772,-27.2439"/>
<polygon fill="#191970" stroke="#191970" points="1358.641,-30.595 1367.6777,-25.0643 1357.1644,-23.7524 1358.641,-30.595"/>
</g>
<!-- Node25 -->
<g id="node26" class="node">
<title>Node25</title>
<polygon fill="none" stroke="#bfbfbf" points="1493,-.5 1493,-30.5 1585,-30.5 1585,-.5 1493,-.5"/>
<text text-anchor="start" x="1501" y="-18.5" font-family="Helvetica,sans-Serif" font-size="10.00" fill="#000000">deal.II/lac/sparse</text>
<text text-anchor="middle" x="1539" y="-7.5" font-family="Helvetica,sans-Serif" font-size="10.00" fill="#000000">_matrix.h</text>
</g>
<!-- Node21&#45;&gt;Node25 -->
<g id="edge32" class="edge">
<title>Node21&#45;&gt;Node25</title>
<path fill="none" stroke="#191970" d="M1172.0443,-68.4326C1175.0715,-67.9266 1178.0778,-67.4437 1181,-67 1311.8038,-47.1394 1349.183,-56.9634 1482.7057,-31.0654"/>
<polygon fill="#191970" stroke="#191970" points="1483.7794,-34.4211 1492.9135,-29.0529 1482.4254,-27.5533 1483.7794,-34.4211"/>
</g>
<!-- Node26 -->
<g id="node27" class="node">
<title>Node26</title>
<polygon fill="none" stroke="#bfbfbf" points="1603.5,-6 1603.5,-25 1704.5,-25 1704.5,-6 1603.5,-6"/>
<text text-anchor="middle" x="1654" y="-13" font-family="Helvetica,sans-Serif" font-size="10.00" fill="#000000">deal.II/lac/utilities.h</text>
</g>
<!-- Node21&#45;&gt;Node26 -->
<g id="edge33" class="edge">
<title>Node21&#45;&gt;Node26</title>
<path fill="none" stroke="#191970" d="M1172.0291,-68.3265C1175.06,-67.8461 1178.0712,-67.3979 1181,-67 1363.5744,-42.1962 1412.4006,-62.1497 1594,-31 1599.567,-30.0451 1605.3741,-28.83 1611.0886,-27.5015"/>
<polygon fill="#191970" stroke="#191970" points="1612.3253,-30.802 1621.2031,-25.0196 1610.657,-24.0036 1612.3253,-30.802"/>
</g>
<!-- Node27 -->
<g id="node28" class="node">
<title>Node27</title>
<polygon fill="none" stroke="#bfbfbf" points="1723,-6 1723,-25 1821,-25 1821,-6 1723,-6"/>
<text text-anchor="middle" x="1772" y="-13" font-family="Helvetica,sans-Serif" font-size="10.00" fill="#000000">deal.II/lac/vector.h</text>
</g>
<!-- Node21&#45;&gt;Node27 -->
<g id="edge34" class="edge">
<title>Node21&#45;&gt;Node27</title>
<path fill="none" stroke="#191970" d="M1172.0204,-68.2602C1175.0534,-67.7958 1178.0675,-67.3693 1181,-67 1416.568,-37.3338 1479.7684,-69.8318 1714,-31 1719.4626,-30.0944 1725.1557,-28.8972 1730.7484,-27.5683"/>
<polygon fill="#191970" stroke="#191970" points="1731.7983,-30.9131 1740.6355,-25.0689 1730.0826,-24.1266 1731.7983,-30.9131"/>
</g>
</g>
</svg>
        <g id="navigator" transform="translate(0 0)" fill="#404254">
                <rect fill="#f2f5e9" fill-opacity="0.5" stroke="#606060" stroke-width=".5" x="0" y="0" width="60" height="60"/>
                <use id="zoomplus" xlink:href="#zoomPlus" x="17" y="9" onmousedown="handleZoom(evt,'in')"/>
                <use id="zoomminus" xlink:href="#zoomMin" x="42" y="9" onmousedown="handleZoom(evt,'out')"/>
                <use id="reset" xlink:href="#resetDef" x="30" y="36" onmousedown="handleReset()"/>
                <g id="arrowUp" xlink:href="#dirArrow" transform="translate(30 24)" onmousedown="handlePan(0,-1)">
                  <use xlink:href="#rim" fill="#404040">
                        <set attributeName="fill" to="#808080" begin="arrowUp.mouseover" end="arrowUp.mouseout"/>
                  </use>
                  <path fill="none" stroke="white" stroke-width="1.5" d="M0,-3.0v7 M-2.5,-0.5L0,-3.0L2.5,-0.5"/>
                </g>
                <g id="arrowRight" xlink:href="#dirArrow" transform="rotate(90) translate(36 -43)" onmousedown="handlePan(1,0)">
                  <use xlink:href="#rim" fill="#404040">
                        <set attributeName="fill" to="#808080" begin="arrowRight.mouseover" end="arrowRight.mouseout"/>
                  </use>
                  <path fill="none" stroke="white" stroke-width="1.5" d="M0,-3.0v7 M-2.5,-0.5L0,-3.0L2.5,-0.5"/>
                </g>
                <g id="arrowDown" xlink:href="#dirArrow" transform="rotate(180) translate(-30 -48)" onmousedown="handlePan(0,1)">
                  <use xlink:href="#rim" fill="#404040">
                        <set attributeName="fill" to="#808080" begin="arrowDown.mouseover" end="arrowDown.mouseout"/>
                  </use>
                  <path fill="none" stroke="white" stroke-width="1.5" d="M0,-3.0v7 M-2.5,-0.5L0,-3.0L2.5,-0.5"/>
                </g>
                <g id="arrowLeft" xlink:href="#dirArrow" transform="rotate(270) translate(-36 17)" onmousedown="handlePan(-1,0)">
                  <use xlink:href="#rim" fill="#404040">
                        <set attributeName="fill" to="#808080" begin="arrowLeft.mouseover" end="arrowLeft.mouseout"/>
                  </use>
                  <path fill="none" stroke="white" stroke-width="1.5" d="M0,-3.0v7 M-2.5,-0.5L0,-3.0L2.5,-0.5"/>
                </g>
        </g>
        <svg viewBox="0 0 15 15" width="100%" height="30px" preserveAspectRatio="xMaxYMin meet">
         <g id="arrow_out" transform="scale(0.3 0.3)">
          <a xlink:href="rkmatrix-add-formatted_8cc__incl_org.svg" target="_base">
           <rect id="button" ry="5" rx="5" y="6" x="6" height="38" width="38"
                fill="#f2f5e9" fill-opacity="0.5" stroke="#606060" stroke-width="1.0"/>
           <path id="arrow"
             d="M 11.500037,31.436501 C 11.940474,20.09759 22.043105,11.32322 32.158766,21.979434 L 37.068811,17.246167 C 37.068811,17.246167 37.088388,32 37.088388,32 L 22.160133,31.978069 C 22.160133,31.978069 26.997745,27.140456 26.997745,27.140456 C 18.528582,18.264221 13.291696,25.230495 11.500037,31.436501 z"
             style="fill:#404040;"/>
          </a>
         </g>
        </svg>
</svg>
