<?xml version="1.0" encoding="UTF-8" standalone="no"?>
<!DOCTYPE svg PUBLIC "-//W3C//DTD SVG 1.1//EN"
 "http://www.w3.org/Graphics/SVG/1.1/DTD/svg11.dtd">
<!-- Generated by graphviz version 2.40.1 (20161225.0304)
 -->
<!-- Title: /home/jihuan/Projects/deal.ii/program/dealii&#45;9.1.1/examples/laplace&#45;bem/tests/rkmatrix&#45;global&#45;to&#45;rkmatrix/rkmatrix&#45;global&#45;to&#45;rkmatrix.cc Pages: 1 -->
<svg width="1366pt" height="329pt"
 viewBox="0.00 0.00 1366.00 329.00" xmlns="http://www.w3.org/2000/svg" xmlns:xlink="http://www.w3.org/1999/xlink">
<g id="graph0" class="graph" transform="scale(1 1) rotate(0) translate(4 325)">
<title>/home/jihuan/Projects/deal.ii/program/dealii&#45;9.1.1/examples/laplace&#45;bem/tests/rkmatrix&#45;global&#45;to&#45;rkmatrix/rkmatrix&#45;global&#45;to&#45;rkmatrix.cc</title>
<!-- Node0 -->
<g id="node1" class="node">
<title>Node0</title>
<polygon fill="#bfbfbf" stroke="#000000" points="351.5,-246.5 351.5,-320.5 484.5,-320.5 484.5,-246.5 351.5,-246.5"/>
<text text-anchor="start" x="359.5" y="-308.5" font-family="Helvetica,sans-Serif" font-size="10.00" fill="#000000">/home/jihuan/Projects</text>
<text text-anchor="start" x="359.5" y="-297.5" font-family="Helvetica,sans-Serif" font-size="10.00" fill="#000000">/deal.ii/program/dealii</text>
<text text-anchor="start" x="359.5" y="-286.5" font-family="Helvetica,sans-Serif" font-size="10.00" fill="#000000">&#45;9.1.1/examples/laplace</text>
<text text-anchor="start" x="359.5" y="-275.5" font-family="Helvetica,sans-Serif" font-size="10.00" fill="#000000">&#45;bem/tests/rkmatrix&#45;global</text>
<text text-anchor="start" x="359.5" y="-264.5" font-family="Helvetica,sans-Serif" font-size="10.00" fill="#000000">&#45;to&#45;rkmatrix/rkmatrix&#45;global</text>
<text text-anchor="middle" x="418" y="-253.5" font-family="Helvetica,sans-Serif" font-size="10.00" fill="#000000">&#45;to&#45;rkmatrix.cc</text>
</g>
<!-- Node1 -->
<g id="node2" class="node">
<title>Node1</title>
<g id="a_node2"><a xlink:href="rkmatrix_8h.html" target="_top" xlink:title="Definition of rank&#45;k matrix. ">
<polygon fill="none" stroke="#000000" points="351,-190.5 351,-209.5 411,-209.5 411,-190.5 351,-190.5"/>
<text text-anchor="middle" x="381" y="-197.5" font-family="Helvetica,sans-Serif" font-size="10.00" fill="#000000">rkmatrix.h</text>
</a>
</g>
</g>
<!-- Node0&#45;&gt;Node1 -->
<g id="edge1" class="edge">
<title>Node0&#45;&gt;Node1</title>
<path fill="none" stroke="#191970" d="M401.448,-246.1461C397.2811,-236.7424 392.9809,-227.0379 389.4056,-218.9694"/>
<polygon fill="#191970" stroke="#191970" points="392.5805,-217.4948 385.3293,-209.7701 386.1806,-220.3307 392.5805,-217.4948"/>
</g>
<!-- Node21 -->
<g id="node22" class="node">
<title>Node21</title>
<polygon fill="none" stroke="#bfbfbf" points="429,-190.5 429,-209.5 483,-209.5 483,-190.5 429,-190.5"/>
<text text-anchor="middle" x="456" y="-197.5" font-family="Helvetica,sans-Serif" font-size="10.00" fill="#000000">iostream</text>
</g>
<!-- Node0&#45;&gt;Node21 -->
<g id="edge27" class="edge">
<title>Node0&#45;&gt;Node21</title>
<path fill="none" stroke="#191970" d="M434.9994,-246.1461C439.2789,-236.7424 443.6953,-227.0379 447.3672,-218.9694"/>
<polygon fill="#191970" stroke="#191970" points="450.5972,-220.3217 451.5537,-209.7701 444.2259,-217.4222 450.5972,-220.3217"/>
</g>
<!-- Node2 -->
<g id="node3" class="node">
<title>Node2</title>
<polygon fill="none" stroke="#bfbfbf" points="135.5,-129 135.5,-148 238.5,-148 238.5,-129 135.5,-129"/>
<text text-anchor="middle" x="187" y="-136" font-family="Helvetica,sans-Serif" font-size="10.00" fill="#000000">deal.II/base/types.h</text>
</g>
<!-- Node1&#45;&gt;Node2 -->
<g id="edge2" class="edge">
<title>Node1&#45;&gt;Node2</title>
<path fill="none" stroke="#191970" d="M350.6875,-190.3906C317.3735,-179.8298 263.7192,-162.8208 226.9819,-151.1747"/>
<polygon fill="#191970" stroke="#191970" points="227.6898,-147.7275 217.0996,-148.0419 225.5744,-154.4002 227.6898,-147.7275"/>
</g>
<!-- Node3 -->
<g id="node4" class="node">
<title>Node3</title>
<polygon fill="none" stroke="#bfbfbf" points="0,-6 0,-25 116,-25 116,-6 0,-6"/>
<text text-anchor="middle" x="58" y="-13" font-family="Helvetica,sans-Serif" font-size="10.00" fill="#000000">deal.II/lac/full_matrix.h</text>
</g>
<!-- Node1&#45;&gt;Node3 -->
<g id="edge3" class="edge">
<title>Node1&#45;&gt;Node3</title>
<path fill="none" stroke="#191970" d="M364.51,-190.4933C339.2368,-175.93 289.3938,-147.2366 247,-123 188.7893,-89.7209 120.367,-50.8693 83.9285,-30.1999"/>
<polygon fill="#191970" stroke="#191970" points="85.3813,-27.0002 74.9562,-25.1113 81.9279,-33.0891 85.3813,-27.0002"/>
</g>
<!-- Node4 -->
<g id="node5" class="node">
<title>Node4</title>
<polygon fill="none" stroke="#bfbfbf" points="134.5,-.5 134.5,-30.5 225.5,-30.5 225.5,-.5 134.5,-.5"/>
<text text-anchor="start" x="142.5" y="-18.5" font-family="Helvetica,sans-Serif" font-size="10.00" fill="#000000">deal.II/lac/lapack</text>
<text text-anchor="middle" x="180" y="-7.5" font-family="Helvetica,sans-Serif" font-size="10.00" fill="#000000">_full_matrix.h</text>
</g>
<!-- Node1&#45;&gt;Node4 -->
<g id="edge4" class="edge">
<title>Node1&#45;&gt;Node4</title>
<path fill="none" stroke="#191970" d="M372.6399,-190.2937C364.7993,-181.095 352.8412,-166.8172 343,-154 314.0841,-116.3398 316.9584,-98.0066 281,-67 265.9075,-53.9858 246.9543,-43.2101 229.5552,-34.938"/>
<polygon fill="#191970" stroke="#191970" points="230.6326,-31.5819 220.0833,-30.6016 227.7187,-37.9466 230.6326,-31.5819"/>
</g>
<!-- Node5 -->
<g id="node6" class="node">
<title>Node5</title>
<polygon fill="none" stroke="#bfbfbf" points="243.5,-.5 243.5,-30.5 334.5,-30.5 334.5,-.5 243.5,-.5"/>
<text text-anchor="start" x="251.5" y="-18.5" font-family="Helvetica,sans-Serif" font-size="10.00" fill="#000000">deal.II/lac/lapack</text>
<text text-anchor="middle" x="289" y="-7.5" font-family="Helvetica,sans-Serif" font-size="10.00" fill="#000000">_support.h</text>
</g>
<!-- Node1&#45;&gt;Node5 -->
<g id="edge5" class="edge">
<title>Node1&#45;&gt;Node5</title>
<path fill="none" stroke="#191970" d="M376.7872,-190.1732C367.1719,-167.9301 342.6117,-112.1506 319,-67 314.2109,-57.8422 308.5924,-47.9914 303.5206,-39.3821"/>
<polygon fill="#191970" stroke="#191970" points="306.4236,-37.4165 298.2968,-30.619 300.4109,-41.0008 306.4236,-37.4165"/>
</g>
<!-- Node6 -->
<g id="node7" class="node">
<title>Node6</title>
<polygon fill="none" stroke="#bfbfbf" points="352.5,-.5 352.5,-30.5 443.5,-30.5 443.5,-.5 352.5,-.5"/>
<text text-anchor="start" x="360.5" y="-18.5" font-family="Helvetica,sans-Serif" font-size="10.00" fill="#000000">deal.II/lac/lapack</text>
<text text-anchor="middle" x="398" y="-7.5" font-family="Helvetica,sans-Serif" font-size="10.00" fill="#000000">_templates.h</text>
</g>
<!-- Node1&#45;&gt;Node6 -->
<g id="edge6" class="edge">
<title>Node1&#45;&gt;Node6</title>
<path fill="none" stroke="#191970" d="M381.8901,-190.3402C384.4425,-162.6387 391.8481,-82.2663 395.6649,-40.8429"/>
<polygon fill="#191970" stroke="#191970" points="399.1637,-41.0153 396.5961,-30.7363 392.1933,-40.373 399.1637,-41.0153"/>
</g>
<!-- Node7 -->
<g id="node8" class="node">
<title>Node7</title>
<polygon fill="none" stroke="#bfbfbf" points="612,-129 612,-148 656,-148 656,-129 612,-129"/>
<text text-anchor="middle" x="634" y="-136" font-family="Helvetica,sans-Serif" font-size="10.00" fill="#000000">cmath</text>
</g>
<!-- Node1&#45;&gt;Node7 -->
<g id="edge7" class="edge">
<title>Node1&#45;&gt;Node7</title>
<path fill="none" stroke="#191970" d="M411.1963,-192.0939C414.1661,-191.3656 417.1384,-190.6558 420,-190 498.6734,-171.9705 520.9654,-178.0882 598,-154 600.1107,-153.34 602.2658,-152.5977 604.4198,-151.8048"/>
<polygon fill="#191970" stroke="#191970" points="605.7221,-155.0536 613.7169,-148.1013 603.1316,-148.5505 605.7221,-155.0536"/>
</g>
<!-- Node8 -->
<g id="node9" class="node">
<title>Node8</title>
<polygon fill="none" stroke="#bfbfbf" points="409.5,-67.5 409.5,-86.5 444.5,-86.5 444.5,-67.5 409.5,-67.5"/>
<text text-anchor="middle" x="427" y="-74.5" font-family="Helvetica,sans-Serif" font-size="10.00" fill="#000000">map</text>
</g>
<!-- Node1&#45;&gt;Node8 -->
<g id="edge8" class="edge">
<title>Node1&#45;&gt;Node8</title>
<path fill="none" stroke="#191970" d="M384.6095,-190.3484C392.2009,-170.0499 409.9375,-122.6235 419.895,-95.9981"/>
<polygon fill="#191970" stroke="#191970" points="423.1825,-97.1992 423.4072,-86.6068 416.626,-94.7472 423.1825,-97.1992"/>
</g>
<!-- Node9 -->
<g id="node10" class="node">
<title>Node9</title>
<polygon fill="none" stroke="#bfbfbf" points="757,-67.5 757,-86.5 801,-86.5 801,-67.5 757,-67.5"/>
<text text-anchor="middle" x="779" y="-74.5" font-family="Helvetica,sans-Serif" font-size="10.00" fill="#000000">vector</text>
</g>
<!-- Node1&#45;&gt;Node9 -->
<g id="edge9" class="edge">
<title>Node1&#45;&gt;Node9</title>
<path fill="none" stroke="#191970" d="M411.2291,-192.2298C414.1922,-191.4739 417.1541,-190.7206 420,-190 483.9515,-173.8073 504.8378,-183.1861 564,-154 583.8572,-144.204 583.1348,-132.7799 603,-123 659.7803,-95.0462 682.0372,-104.212 746.8278,-87.1147"/>
<polygon fill="#191970" stroke="#191970" points="747.9934,-90.4241 756.7049,-84.3941 746.1345,-83.6754 747.9934,-90.4241"/>
</g>
<!-- Node10 -->
<g id="node11" class="node">
<title>Node10</title>
<g id="a_node11"><a xlink:href="lapack__full__matrix__ext_8h_source.html" target="_top" xlink:title="lapack_full_matrix\l_ext.h">
<polygon fill="none" stroke="#000000" points="460.5,-123.5 460.5,-153.5 555.5,-153.5 555.5,-123.5 460.5,-123.5"/>
<text text-anchor="start" x="468.5" y="-141.5" font-family="Helvetica,sans-Serif" font-size="10.00" fill="#000000">lapack_full_matrix</text>
<text text-anchor="middle" x="508" y="-130.5" font-family="Helvetica,sans-Serif" font-size="10.00" fill="#000000">_ext.h</text>
</a>
</g>
</g>
<!-- Node1&#45;&gt;Node10 -->
<g id="edge10" class="edge">
<title>Node1&#45;&gt;Node10</title>
<path fill="none" stroke="#191970" d="M400.8438,-190.3906C418.6682,-181.7591 445.3876,-168.8202 467.6855,-158.0224"/>
<polygon fill="#191970" stroke="#191970" points="469.4575,-161.0531 476.9323,-153.5446 466.4066,-154.7529 469.4575,-161.0531"/>
</g>
<!-- Node10&#45;&gt;Node8 -->
<g id="edge12" class="edge">
<title>Node10&#45;&gt;Node8</title>
<path fill="none" stroke="#191970" d="M487.9775,-123.2977C475.914,-114.1384 460.5612,-102.4816 448.2789,-93.1562"/>
<polygon fill="#191970" stroke="#191970" points="450.0501,-90.1065 439.9691,-86.8469 445.8171,-95.6816 450.0501,-90.1065"/>
</g>
<!-- Node10&#45;&gt;Node9 -->
<g id="edge13" class="edge">
<title>Node10&#45;&gt;Node9</title>
<path fill="none" stroke="#191970" d="M555.6753,-126.3492C560.507,-125.1874 565.3464,-124.0517 570,-123 645.6521,-105.9026 668.1704,-107.2794 746.8557,-87.0848"/>
<polygon fill="#191970" stroke="#191970" points="747.9415,-90.4189 756.7372,-84.5124 746.178,-83.6446 747.9415,-90.4189"/>
</g>
<!-- Node11 -->
<g id="node12" class="node">
<title>Node11</title>
<polygon fill="none" stroke="#bfbfbf" points="571,-67.5 571,-86.5 611,-86.5 611,-67.5 571,-67.5"/>
<text text-anchor="middle" x="591" y="-74.5" font-family="Helvetica,sans-Serif" font-size="10.00" fill="#000000">limits</text>
</g>
<!-- Node10&#45;&gt;Node11 -->
<g id="edge11" class="edge">
<title>Node10&#45;&gt;Node11</title>
<path fill="none" stroke="#191970" d="M528.5169,-123.2977C540.9982,-114.0495 556.9159,-102.2551 569.5614,-92.8853"/>
<polygon fill="#191970" stroke="#191970" points="571.7596,-95.6126 577.7106,-86.8469 567.5922,-89.9882 571.7596,-95.6126"/>
</g>
<!-- Node12 -->
<g id="node13" class="node">
<title>Node12</title>
<g id="a_node13"><a xlink:href="general__exceptions_8h.html" target="_top" xlink:title="Definition of self&#45;defined general exceptions. ">
<polygon fill="none" stroke="#000000" points="629.5,-67.5 629.5,-86.5 738.5,-86.5 738.5,-67.5 629.5,-67.5"/>
<text text-anchor="middle" x="684" y="-74.5" font-family="Helvetica,sans-Serif" font-size="10.00" fill="#000000">general_exceptions.h</text>
</a>
</g>
</g>
<!-- Node10&#45;&gt;Node12 -->
<g id="edge14" class="edge">
<title>Node10&#45;&gt;Node12</title>
<path fill="none" stroke="#191970" d="M551.0544,-123.4554C580.4205,-113.194 618.9145,-99.7429 646.9195,-89.9571"/>
<polygon fill="#191970" stroke="#191970" points="648.4406,-93.1332 656.7262,-86.5303 646.1314,-86.525 648.4406,-93.1332"/>
</g>
<!-- Node14 -->
<g id="node15" class="node">
<title>Node14</title>
<g id="a_node15"><a xlink:href="lapack__helpers_8h.html" target="_top" xlink:title="Exposes LAPACK helper functions defined in lapack_full_matrix.cc and define new ones by following the...">
<polygon fill="none" stroke="#000000" points="463,-67.5 463,-86.5 553,-86.5 553,-67.5 463,-67.5"/>
<text text-anchor="middle" x="508" y="-74.5" font-family="Helvetica,sans-Serif" font-size="10.00" fill="#000000">lapack_helpers.h</text>
</a>
</g>
</g>
<!-- Node10&#45;&gt;Node14 -->
<g id="edge16" class="edge">
<title>Node10&#45;&gt;Node14</title>
<path fill="none" stroke="#191970" d="M508,-123.2977C508,-115.3834 508,-105.6043 508,-97.0759"/>
<polygon fill="#191970" stroke="#191970" points="511.5001,-96.8469 508,-86.8469 504.5001,-96.847 511.5001,-96.8469"/>
</g>
<!-- Node13 -->
<g id="node14" class="node">
<title>Node13</title>
<polygon fill="none" stroke="#bfbfbf" points="1232,-6 1232,-25 1358,-25 1358,-6 1232,-6"/>
<text text-anchor="middle" x="1295" y="-13" font-family="Helvetica,sans-Serif" font-size="10.00" fill="#000000">deal.II/base/exceptions.h</text>
</g>
<!-- Node12&#45;&gt;Node13 -->
<g id="edge15" class="edge">
<title>Node12&#45;&gt;Node13</title>
<path fill="none" stroke="#191970" d="M738.7738,-68.149C741.8919,-67.7363 744.9838,-67.3494 748,-67 958.3103,-42.6388 1013.47,-61.3491 1223,-31 1230.3909,-29.9295 1238.1571,-28.5406 1245.7427,-27.0344"/>
<polygon fill="#191970" stroke="#191970" points="1246.4797,-30.4561 1255.5638,-25.0036 1245.0622,-23.6011 1246.4797,-30.4561"/>
</g>
<!-- Node14&#45;&gt;Node3 -->
<g id="edge20" class="edge">
<title>Node14&#45;&gt;Node3</title>
<path fill="none" stroke="#191970" d="M462.7208,-68.5061C459.4354,-67.9701 456.1693,-67.4615 453,-67 307.877,-45.8698 269.5804,-55.5699 125,-31 118.7433,-29.9367 112.1962,-28.6468 105.749,-27.27"/>
<polygon fill="#191970" stroke="#191970" points="106.2766,-23.8021 95.7562,-25.0553 104.7619,-30.6363 106.2766,-23.8021"/>
</g>
<!-- Node14&#45;&gt;Node4 -->
<g id="edge21" class="edge">
<title>Node14&#45;&gt;Node4</title>
<path fill="none" stroke="#191970" d="M462.9881,-68.752C459.6093,-68.1525 456.2514,-67.5628 453,-67 358.9378,-50.719 331.9582,-52.5049 235.4465,-31.1919"/>
<polygon fill="#191970" stroke="#191970" points="236.0914,-27.7497 225.5687,-28.9844 234.5646,-34.5812 236.0914,-27.7497"/>
</g>
<!-- Node14&#45;&gt;Node5 -->
<g id="edge22" class="edge">
<title>Node14&#45;&gt;Node5</title>
<path fill="none" stroke="#191970" d="M473.5321,-67.4732C442.1586,-58.7834 394.3055,-45.4838 344.3411,-31.3701"/>
<polygon fill="#191970" stroke="#191970" points="345.2332,-27.9851 334.6581,-28.6321 343.3285,-34.721 345.2332,-27.9851"/>
</g>
<!-- Node14&#45;&gt;Node6 -->
<g id="edge23" class="edge">
<title>Node14&#45;&gt;Node6</title>
<path fill="none" stroke="#191970" d="M490.8125,-67.3906C475.5807,-58.8747 452.8497,-46.166 433.696,-35.4573"/>
<polygon fill="#191970" stroke="#191970" points="435.3455,-32.3697 424.909,-30.5446 431.9295,-38.4796 435.3455,-32.3697"/>
</g>
<!-- Node15 -->
<g id="node16" class="node">
<title>Node15</title>
<polygon fill="none" stroke="#bfbfbf" points="808,-6 808,-25 924,-25 924,-6 808,-6"/>
<text text-anchor="middle" x="866" y="-13" font-family="Helvetica,sans-Serif" font-size="10.00" fill="#000000">deal.II/base/numbers.h</text>
</g>
<!-- Node14&#45;&gt;Node15 -->
<g id="edge17" class="edge">
<title>Node14&#45;&gt;Node15</title>
<path fill="none" stroke="#191970" d="M553.0619,-68.5425C556.0849,-68.0099 559.0854,-67.4911 562,-67 667.0606,-49.2976 694.3565,-51.0214 799,-31 804.8596,-29.8789 810.9843,-28.6049 817.0475,-27.2804"/>
<polygon fill="#191970" stroke="#191970" points="818.1418,-30.6222 827.1355,-25.0219 816.6124,-23.7913 818.1418,-30.6222"/>
</g>
<!-- Node16 -->
<g id="node17" class="node">
<title>Node16</title>
<polygon fill="none" stroke="#bfbfbf" points="942,-.5 942,-30.5 1070,-30.5 1070,-.5 942,-.5"/>
<text text-anchor="start" x="950" y="-18.5" font-family="Helvetica,sans-Serif" font-size="10.00" fill="#000000">deal.II/lac/blas_extension</text>
<text text-anchor="middle" x="1006" y="-7.5" font-family="Helvetica,sans-Serif" font-size="10.00" fill="#000000">_templates.h</text>
</g>
<!-- Node14&#45;&gt;Node16 -->
<g id="edge18" class="edge">
<title>Node14&#45;&gt;Node16</title>
<path fill="none" stroke="#191970" d="M553.0337,-68.3597C556.0634,-67.8712 559.0732,-67.4122 562,-67 722.8403,-44.347 767.5367,-55.7751 932.0075,-31.0404"/>
<polygon fill="#191970" stroke="#191970" points="932.6233,-34.4871 941.9809,-29.5187 931.5674,-27.5672 932.6233,-34.4871"/>
</g>
<!-- Node17 -->
<g id="node18" class="node">
<title>Node17</title>
<polygon fill="none" stroke="#bfbfbf" points="1088,-6 1088,-25 1214,-25 1214,-6 1088,-6"/>
<text text-anchor="middle" x="1151" y="-13" font-family="Helvetica,sans-Serif" font-size="10.00" fill="#000000">deal.II/lac/block_vector.h</text>
</g>
<!-- Node14&#45;&gt;Node17 -->
<g id="edge19" class="edge">
<title>Node14&#45;&gt;Node17</title>
<path fill="none" stroke="#191970" d="M553.0213,-68.2673C556.0541,-67.8012 559.0679,-67.3724 562,-67 790.499,-37.9825 850.9446,-63.3197 1079,-31 1086.3942,-29.9521 1094.1621,-28.5756 1101.7485,-27.0749"/>
<polygon fill="#191970" stroke="#191970" points="1102.484,-30.4969 1111.5701,-25.0477 1101.069,-23.6414 1102.484,-30.4969"/>
</g>
<!-- Node18 -->
<g id="node19" class="node">
<title>Node18</title>
<polygon fill="none" stroke="#bfbfbf" points="462,-.5 462,-30.5 554,-30.5 554,-.5 462,-.5"/>
<text text-anchor="start" x="470" y="-18.5" font-family="Helvetica,sans-Serif" font-size="10.00" fill="#000000">deal.II/lac/sparse</text>
<text text-anchor="middle" x="508" y="-7.5" font-family="Helvetica,sans-Serif" font-size="10.00" fill="#000000">_matrix.h</text>
</g>
<!-- Node14&#45;&gt;Node18 -->
<g id="edge24" class="edge">
<title>Node14&#45;&gt;Node18</title>
<path fill="none" stroke="#191970" d="M508,-67.3906C508,-60.2234 508,-50.0862 508,-40.671"/>
<polygon fill="#191970" stroke="#191970" points="511.5001,-40.5446 508,-30.5446 504.5001,-40.5446 511.5001,-40.5446"/>
</g>
<!-- Node19 -->
<g id="node20" class="node">
<title>Node19</title>
<polygon fill="none" stroke="#bfbfbf" points="572.5,-6 572.5,-25 673.5,-25 673.5,-6 572.5,-6"/>
<text text-anchor="middle" x="623" y="-13" font-family="Helvetica,sans-Serif" font-size="10.00" fill="#000000">deal.II/lac/utilities.h</text>
</g>
<!-- Node14&#45;&gt;Node19 -->
<g id="edge25" class="edge">
<title>Node14&#45;&gt;Node19</title>
<path fill="none" stroke="#191970" d="M525.9688,-67.3906C544.7884,-57.3262 574.5585,-41.4057 596.1641,-29.8514"/>
<polygon fill="#191970" stroke="#191970" points="597.9898,-32.8442 605.1574,-25.0419 594.6886,-26.6714 597.9898,-32.8442"/>
</g>
<!-- Node20 -->
<g id="node21" class="node">
<title>Node20</title>
<polygon fill="none" stroke="#bfbfbf" points="692,-6 692,-25 790,-25 790,-6 692,-6"/>
<text text-anchor="middle" x="741" y="-13" font-family="Helvetica,sans-Serif" font-size="10.00" fill="#000000">deal.II/lac/vector.h</text>
</g>
<!-- Node14&#45;&gt;Node20 -->
<g id="edge26" class="edge">
<title>Node14&#45;&gt;Node20</title>
<path fill="none" stroke="#191970" d="M544.5455,-67.4403C579.9568,-58.1663 635.1743,-43.6761 683,-31 687.0803,-29.9185 691.3213,-28.7913 695.5699,-27.6598"/>
<polygon fill="#191970" stroke="#191970" points="696.6647,-30.9903 705.4252,-25.0317 694.861,-24.2266 696.6647,-30.9903"/>
</g>
</g>
</svg>
