<?xml version="1.0" encoding="UTF-8" standalone="no"?>
<!DOCTYPE svg PUBLIC "-//W3C//DTD SVG 1.1//EN"
 "http://www.w3.org/Graphics/SVG/1.1/DTD/svg11.dtd">
<!-- Generated by graphviz version 2.40.1 (20161225.0304)
 -->
<!-- Title: /home/jihuan/Projects/deal.ii/program/dealii&#45;9.1.1/examples/laplace&#45;bem/tests/rkmatrix&#45;local&#45;to&#45;rkmatrix/rkmatrix&#45;local&#45;to&#45;rkmatrix.cc Pages: 1 -->
<svg width="2318pt" height="497pt"
 viewBox="0.00 0.00 2318.00 497.00" xmlns="http://www.w3.org/2000/svg" xmlns:xlink="http://www.w3.org/1999/xlink">
<g id="graph0" class="graph" transform="scale(1 1) rotate(0) translate(4 493)">
<title>/home/jihuan/Projects/deal.ii/program/dealii&#45;9.1.1/examples/laplace&#45;bem/tests/rkmatrix&#45;local&#45;to&#45;rkmatrix/rkmatrix&#45;local&#45;to&#45;rkmatrix.cc</title>
<!-- Node0 -->
<g id="node1" class="node">
<title>Node0</title>
<polygon fill="#bfbfbf" stroke="#000000" points="786,-414.5 786,-488.5 914,-488.5 914,-414.5 786,-414.5"/>
<text text-anchor="start" x="794" y="-476.5" font-family="Helvetica,sans-Serif" font-size="10.00" fill="#000000">/home/jihuan/Projects</text>
<text text-anchor="start" x="794" y="-465.5" font-family="Helvetica,sans-Serif" font-size="10.00" fill="#000000">/deal.ii/program/dealii</text>
<text text-anchor="start" x="794" y="-454.5" font-family="Helvetica,sans-Serif" font-size="10.00" fill="#000000">&#45;9.1.1/examples/laplace</text>
<text text-anchor="start" x="794" y="-443.5" font-family="Helvetica,sans-Serif" font-size="10.00" fill="#000000">&#45;bem/tests/rkmatrix&#45;local</text>
<text text-anchor="start" x="794" y="-432.5" font-family="Helvetica,sans-Serif" font-size="10.00" fill="#000000">&#45;to&#45;rkmatrix/rkmatrix&#45;local</text>
<text text-anchor="middle" x="850" y="-421.5" font-family="Helvetica,sans-Serif" font-size="10.00" fill="#000000">&#45;to&#45;rkmatrix.cc</text>
</g>
<!-- Node1 -->
<g id="node2" class="node">
<title>Node1</title>
<g id="a_node2"><a xlink:href="rkmatrix_8h.html" target="_top" xlink:title="Definition of rank&#45;k matrix. ">
<polygon fill="none" stroke="#000000" points="1579,-302.5 1579,-321.5 1639,-321.5 1639,-302.5 1579,-302.5"/>
<text text-anchor="middle" x="1609" y="-309.5" font-family="Helvetica,sans-Serif" font-size="10.00" fill="#000000">rkmatrix.h</text>
</a>
</g>
</g>
<!-- Node0&#45;&gt;Node1 -->
<g id="edge1" class="edge">
<title>Node0&#45;&gt;Node1</title>
<path fill="none" stroke="#191970" d="M914.0578,-439.7265C1065.9676,-411.8064 1444.6035,-342.2152 1568.8244,-319.3841"/>
<polygon fill="#191970" stroke="#191970" points="1569.4844,-322.8215 1578.687,-317.5714 1568.219,-315.9368 1569.4844,-322.8215"/>
</g>
<!-- Node20 -->
<g id="node21" class="node">
<title>Node20</title>
<polygon fill="none" stroke="#bfbfbf" points="0,-56.5 0,-75.5 54,-75.5 54,-56.5 0,-56.5"/>
<text text-anchor="middle" x="27" y="-63.5" font-family="Helvetica,sans-Serif" font-size="10.00" fill="#000000">iostream</text>
</g>
<!-- Node0&#45;&gt;Node20 -->
<g id="edge26" class="edge">
<title>Node0&#45;&gt;Node20</title>
<path fill="none" stroke="#191970" d="M785.8914,-447.3124C593.2913,-433.8834 33,-388.2633 33,-312 33,-312 33,-312 33,-189 33,-152.456 30.3251,-109.8771 28.5473,-85.6142"/>
<polygon fill="#191970" stroke="#191970" points="32.0312,-85.2678 27.7844,-75.5614 25.0513,-85.7976 32.0312,-85.2678"/>
</g>
<!-- Node21 -->
<g id="node22" class="node">
<title>Node21</title>
<g id="a_node22"><a xlink:href="hmatrix_8h.html" target="_top" xlink:title="Definition of hierarchical matrix. ">
<polygon fill="none" stroke="#000000" points="821.5,-358.5 821.5,-377.5 878.5,-377.5 878.5,-358.5 821.5,-358.5"/>
<text text-anchor="middle" x="850" y="-365.5" font-family="Helvetica,sans-Serif" font-size="10.00" fill="#000000">hmatrix.h</text>
</a>
</g>
</g>
<!-- Node0&#45;&gt;Node21 -->
<g id="edge27" class="edge">
<title>Node0&#45;&gt;Node21</title>
<path fill="none" stroke="#191970" d="M850,-414.1461C850,-405.0558 850,-395.6845 850,-387.7816"/>
<polygon fill="#191970" stroke="#191970" points="853.5001,-387.7701 850,-377.7701 846.5001,-387.7702 853.5001,-387.7701"/>
</g>
<!-- Node2 -->
<g id="node3" class="node">
<title>Node2</title>
<polygon fill="none" stroke="#bfbfbf" points="1085.5,-56.5 1085.5,-75.5 1188.5,-75.5 1188.5,-56.5 1085.5,-56.5"/>
<text text-anchor="middle" x="1137" y="-63.5" font-family="Helvetica,sans-Serif" font-size="10.00" fill="#000000">deal.II/base/types.h</text>
</g>
<!-- Node1&#45;&gt;Node2 -->
<g id="edge2" class="edge">
<title>Node1&#45;&gt;Node2</title>
<path fill="none" stroke="#191970" d="M1578.8935,-311.3167C1440.7982,-308.0398 873.5978,-292.9713 848,-266 800.8821,-216.3539 802.5539,-164.0518 847,-112 847.9294,-110.9115 990.4407,-88.6864 1075.3134,-75.534"/>
<polygon fill="#191970" stroke="#191970" points="1076.0183,-78.9666 1085.3646,-73.977 1074.9467,-72.0491 1076.0183,-78.9666"/>
</g>
<!-- Node3 -->
<g id="node4" class="node">
<title>Node3</title>
<polygon fill="none" stroke="#bfbfbf" points="2090,-118 2090,-137 2206,-137 2206,-118 2090,-118"/>
<text text-anchor="middle" x="2148" y="-125" font-family="Helvetica,sans-Serif" font-size="10.00" fill="#000000">deal.II/lac/full_matrix.h</text>
</g>
<!-- Node1&#45;&gt;Node3 -->
<g id="edge3" class="edge">
<title>Node1&#45;&gt;Node3</title>
<path fill="none" stroke="#191970" d="M1639.3489,-309.7507C1689.6478,-305.3696 1792.9742,-293.5868 1876,-266 1973.1521,-233.7194 2078.5757,-171.2846 2124.4587,-142.5911"/>
<polygon fill="#191970" stroke="#191970" points="2126.4785,-145.4553 2133.0719,-137.162 2122.7459,-139.5335 2126.4785,-145.4553"/>
</g>
<!-- Node4 -->
<g id="node5" class="node">
<title>Node4</title>
<polygon fill="none" stroke="#bfbfbf" points="1684.5,-112.5 1684.5,-142.5 1775.5,-142.5 1775.5,-112.5 1684.5,-112.5"/>
<text text-anchor="start" x="1692.5" y="-130.5" font-family="Helvetica,sans-Serif" font-size="10.00" fill="#000000">deal.II/lac/lapack</text>
<text text-anchor="middle" x="1730" y="-119.5" font-family="Helvetica,sans-Serif" font-size="10.00" fill="#000000">_full_matrix.h</text>
</g>
<!-- Node1&#45;&gt;Node4 -->
<g id="edge4" class="edge">
<title>Node1&#45;&gt;Node4</title>
<path fill="none" stroke="#191970" d="M1628.1578,-302.3621C1658.3839,-285.9357 1716.0574,-249.3408 1739,-199 1745.6384,-184.434 1743.3932,-166.568 1739.4859,-152.3391"/>
<polygon fill="#191970" stroke="#191970" points="1742.7977,-151.2032 1736.4504,-142.7201 1736.1222,-153.3099 1742.7977,-151.2032"/>
</g>
<!-- Node5 -->
<g id="node6" class="node">
<title>Node5</title>
<polygon fill="none" stroke="#bfbfbf" points="1832.5,-112.5 1832.5,-142.5 1923.5,-142.5 1923.5,-112.5 1832.5,-112.5"/>
<text text-anchor="start" x="1840.5" y="-130.5" font-family="Helvetica,sans-Serif" font-size="10.00" fill="#000000">deal.II/lac/lapack</text>
<text text-anchor="middle" x="1878" y="-119.5" font-family="Helvetica,sans-Serif" font-size="10.00" fill="#000000">_support.h</text>
</g>
<!-- Node1&#45;&gt;Node5 -->
<g id="edge5" class="edge">
<title>Node1&#45;&gt;Node5</title>
<path fill="none" stroke="#191970" d="M1636.1117,-302.4326C1657.7348,-294.2401 1688.3705,-281.3514 1713,-266 1768.3579,-231.4957 1824.8737,-179.7189 1855.2738,-150.2213"/>
<polygon fill="#191970" stroke="#191970" points="1858.0805,-152.3717 1862.7785,-142.8754 1853.1839,-147.3693 1858.0805,-152.3717"/>
</g>
<!-- Node6 -->
<g id="node7" class="node">
<title>Node6</title>
<polygon fill="none" stroke="#bfbfbf" points="1980.5,-112.5 1980.5,-142.5 2071.5,-142.5 2071.5,-112.5 1980.5,-112.5"/>
<text text-anchor="start" x="1988.5" y="-130.5" font-family="Helvetica,sans-Serif" font-size="10.00" fill="#000000">deal.II/lac/lapack</text>
<text text-anchor="middle" x="2026" y="-119.5" font-family="Helvetica,sans-Serif" font-size="10.00" fill="#000000">_templates.h</text>
</g>
<!-- Node1&#45;&gt;Node6 -->
<g id="edge6" class="edge">
<title>Node1&#45;&gt;Node6</title>
<path fill="none" stroke="#191970" d="M1639.1963,-308.2485C1703.9618,-299.0276 1859.0122,-270.5706 1966,-199 1984.5776,-186.5723 2000.554,-166.7805 2011.3392,-151.1676"/>
<polygon fill="#191970" stroke="#191970" points="2014.4496,-152.8109 2017.0699,-142.5452 2008.6197,-148.9362 2014.4496,-152.8109"/>
</g>
<!-- Node7 -->
<g id="node8" class="node">
<title>Node7</title>
<polygon fill="none" stroke="#bfbfbf" points="1140.5,-179.5 1140.5,-198.5 1175.5,-198.5 1175.5,-179.5 1140.5,-179.5"/>
<text text-anchor="middle" x="1158" y="-186.5" font-family="Helvetica,sans-Serif" font-size="10.00" fill="#000000">map</text>
</g>
<!-- Node1&#45;&gt;Node7 -->
<g id="edge7" class="edge">
<title>Node1&#45;&gt;Node7</title>
<path fill="none" stroke="#191970" d="M1578.8295,-307.9032C1532.6774,-301.2703 1442.0059,-286.7921 1367,-266 1300.1546,-247.4701 1224.368,-217.1009 1184.9925,-200.583"/>
<polygon fill="#191970" stroke="#191970" points="1186.1412,-197.2688 1175.5674,-196.6012 1183.417,-203.717 1186.1412,-197.2688"/>
</g>
<!-- Node8 -->
<g id="node9" class="node">
<title>Node8</title>
<polygon fill="none" stroke="#bfbfbf" points="1782,-.5 1782,-19.5 1826,-19.5 1826,-.5 1782,-.5"/>
<text text-anchor="middle" x="1804" y="-7.5" font-family="Helvetica,sans-Serif" font-size="10.00" fill="#000000">vector</text>
</g>
<!-- Node1&#45;&gt;Node8 -->
<g id="edge8" class="edge">
<title>Node1&#45;&gt;Node8</title>
<path fill="none" stroke="#191970" d="M1639.1023,-310.3185C1696.4677,-306.5372 1825.0003,-295.2833 1929,-266 2062.1889,-228.4979 2138.9028,-258.5634 2215,-143 2222.5773,-131.4929 2223.4883,-122.8524 2215,-112 2167.7212,-51.5536 1924.2323,-21.8619 1835.9864,-12.9627"/>
<polygon fill="#191970" stroke="#191970" points="1836.3131,-9.478 1826.0179,-11.9798 1835.6262,-16.4442 1836.3131,-9.478"/>
</g>
<!-- Node9 -->
<g id="node10" class="node">
<title>Node9</title>
<g id="a_node10"><a xlink:href="lapack__full__matrix__ext_8h_source.html" target="_top" xlink:title="lapack_full_matrix\l_ext.h">
<polygon fill="none" stroke="#000000" points="1376.5,-235.5 1376.5,-265.5 1471.5,-265.5 1471.5,-235.5 1376.5,-235.5"/>
<text text-anchor="start" x="1384.5" y="-253.5" font-family="Helvetica,sans-Serif" font-size="10.00" fill="#000000">lapack_full_matrix</text>
<text text-anchor="middle" x="1424" y="-242.5" font-family="Helvetica,sans-Serif" font-size="10.00" fill="#000000">_ext.h</text>
</a>
</g>
</g>
<!-- Node1&#45;&gt;Node9 -->
<g id="edge9" class="edge">
<title>Node1&#45;&gt;Node9</title>
<path fill="none" stroke="#191970" d="M1580.0938,-302.3906C1553.0857,-293.4123 1512.0585,-279.7735 1478.8431,-268.7316"/>
<polygon fill="#191970" stroke="#191970" points="1479.8496,-265.378 1469.2561,-265.5446 1477.6414,-272.0205 1479.8496,-265.378"/>
</g>
<!-- Node9&#45;&gt;Node7 -->
<g id="edge11" class="edge">
<title>Node9&#45;&gt;Node7</title>
<path fill="none" stroke="#191970" d="M1376.4445,-239.505C1320.83,-226.6468 1230.6489,-205.7966 1185.5373,-195.3667"/>
<polygon fill="#191970" stroke="#191970" points="1186.1292,-191.9113 1175.5977,-193.0687 1184.5523,-198.7314 1186.1292,-191.9113"/>
</g>
<!-- Node9&#45;&gt;Node8 -->
<g id="edge12" class="edge">
<title>Node9&#45;&gt;Node8</title>
<path fill="none" stroke="#191970" d="M1471.5296,-248.0961C1586.9813,-241.1318 1876.7785,-216.5219 1932,-143 1967.8153,-95.3155 1883.9218,-46.6769 1835.4333,-23.669"/>
<polygon fill="#191970" stroke="#191970" points="1836.7986,-20.4442 1826.2537,-19.4171 1833.8565,-26.7959 1836.7986,-20.4442"/>
</g>
<!-- Node10 -->
<g id="node11" class="node">
<title>Node10</title>
<polygon fill="none" stroke="#bfbfbf" points="1690,-179.5 1690,-198.5 1730,-198.5 1730,-179.5 1690,-179.5"/>
<text text-anchor="middle" x="1710" y="-186.5" font-family="Helvetica,sans-Serif" font-size="10.00" fill="#000000">limits</text>
</g>
<!-- Node9&#45;&gt;Node10 -->
<g id="edge10" class="edge">
<title>Node9&#45;&gt;Node10</title>
<path fill="none" stroke="#191970" d="M1471.6431,-242.0052C1522.5167,-232.6454 1605.3664,-216.5715 1676,-199 1677.2763,-198.6825 1678.5764,-198.3483 1679.8876,-198.0024"/>
<polygon fill="#191970" stroke="#191970" points="1681.2451,-201.2577 1689.9408,-195.205 1679.3685,-194.514 1681.2451,-201.2577"/>
</g>
<!-- Node11 -->
<g id="node12" class="node">
<title>Node11</title>
<g id="a_node12"><a xlink:href="general__exceptions_8h.html" target="_top" xlink:title="Definition of self&#45;defined general exceptions. ">
<polygon fill="none" stroke="#000000" points="1271.5,-179.5 1271.5,-198.5 1380.5,-198.5 1380.5,-179.5 1271.5,-179.5"/>
<text text-anchor="middle" x="1326" y="-186.5" font-family="Helvetica,sans-Serif" font-size="10.00" fill="#000000">general_exceptions.h</text>
</a>
</g>
</g>
<!-- Node9&#45;&gt;Node11 -->
<g id="edge13" class="edge">
<title>Node9&#45;&gt;Node11</title>
<path fill="none" stroke="#191970" d="M1400.0265,-235.4554C1384.8224,-225.9141 1365.2241,-213.6151 1350.0125,-204.0691"/>
<polygon fill="#191970" stroke="#191970" points="1351.5172,-200.8813 1341.1865,-198.5303 1347.7963,-206.8105 1351.5172,-200.8813"/>
</g>
<!-- Node13 -->
<g id="node14" class="node">
<title>Node13</title>
<g id="a_node14"><a xlink:href="lapack__helpers_8h.html" target="_top" xlink:title="Exposes LAPACK helper functions defined in lapack_full_matrix.cc and define new ones by following the...">
<polygon fill="none" stroke="#000000" points="1438,-179.5 1438,-198.5 1528,-198.5 1528,-179.5 1438,-179.5"/>
<text text-anchor="middle" x="1483" y="-186.5" font-family="Helvetica,sans-Serif" font-size="10.00" fill="#000000">lapack_helpers.h</text>
</a>
</g>
</g>
<!-- Node9&#45;&gt;Node13 -->
<g id="edge15" class="edge">
<title>Node9&#45;&gt;Node13</title>
<path fill="none" stroke="#191970" d="M1438.5843,-235.2977C1447.03,-226.4941 1457.6892,-215.3833 1466.4484,-206.2529"/>
<polygon fill="#191970" stroke="#191970" points="1469.1561,-208.4862 1473.5534,-198.8469 1464.1048,-203.6402 1469.1561,-208.4862"/>
</g>
<!-- Node12 -->
<g id="node13" class="node">
<title>Node12</title>
<polygon fill="none" stroke="#bfbfbf" points="1207,-56.5 1207,-75.5 1333,-75.5 1333,-56.5 1207,-56.5"/>
<text text-anchor="middle" x="1270" y="-63.5" font-family="Helvetica,sans-Serif" font-size="10.00" fill="#000000">deal.II/base/exceptions.h</text>
</g>
<!-- Node11&#45;&gt;Node12 -->
<g id="edge14" class="edge">
<title>Node11&#45;&gt;Node12</title>
<path fill="none" stroke="#191970" d="M1271.1482,-184.9442C1159.8786,-176.4536 917.0873,-156.48 905,-143 836.2955,-66.3797 743.019,-134.2469 1196.5701,-76.0337"/>
<polygon fill="#191970" stroke="#191970" points="1197.2301,-79.4776 1206.6989,-74.7245 1196.3327,-72.5354 1197.2301,-79.4776"/>
</g>
<!-- Node13&#45;&gt;Node3 -->
<g id="edge19" class="edge">
<title>Node13&#45;&gt;Node3</title>
<path fill="none" stroke="#191970" d="M1528.116,-186.3881C1648.1609,-179.3001 1973.4964,-159.1516 2080,-143 2086.7564,-141.9754 2093.8387,-140.6492 2100.7749,-139.2042"/>
<polygon fill="#191970" stroke="#191970" points="2101.7527,-142.5733 2110.7777,-137.0234 2100.2616,-135.734 2101.7527,-142.5733"/>
</g>
<!-- Node13&#45;&gt;Node4 -->
<g id="edge20" class="edge">
<title>Node13&#45;&gt;Node4</title>
<path fill="none" stroke="#191970" d="M1525.068,-179.4256C1561.9154,-170.9264 1617.1373,-157.9177 1674.4539,-143.087"/>
<polygon fill="#191970" stroke="#191970" points="1675.6222,-146.3996 1684.4192,-140.4953 1673.8602,-139.625 1675.6222,-146.3996"/>
</g>
<!-- Node13&#45;&gt;Node5 -->
<g id="edge21" class="edge">
<title>Node13&#45;&gt;Node5</title>
<path fill="none" stroke="#191970" d="M1528.1559,-182.2685C1587.0545,-173.4494 1693.2868,-157.4101 1784,-143 1796.3738,-141.0344 1809.655,-138.8749 1822.2233,-136.8084"/>
<polygon fill="#191970" stroke="#191970" points="1822.8218,-140.257 1832.1191,-135.1765 1821.6828,-133.3503 1822.8218,-140.257"/>
</g>
<!-- Node13&#45;&gt;Node6 -->
<g id="edge22" class="edge">
<title>Node13&#45;&gt;Node6</title>
<path fill="none" stroke="#191970" d="M1528.0366,-185.3067C1609.0423,-178.4588 1784.6214,-162.6815 1932,-143 1944.4187,-141.3416 1957.7183,-139.3075 1970.2901,-137.2652"/>
<polygon fill="#191970" stroke="#191970" points="1970.8889,-140.7139 1980.1857,-135.6327 1969.7494,-133.8072 1970.8889,-140.7139"/>
</g>
<!-- Node14 -->
<g id="node15" class="node">
<title>Node14</title>
<polygon fill="none" stroke="#bfbfbf" points="1550,-118 1550,-137 1666,-137 1666,-118 1550,-118"/>
<text text-anchor="middle" x="1608" y="-125" font-family="Helvetica,sans-Serif" font-size="10.00" fill="#000000">deal.II/base/numbers.h</text>
</g>
<!-- Node13&#45;&gt;Node14 -->
<g id="edge16" class="edge">
<title>Node13&#45;&gt;Node14</title>
<path fill="none" stroke="#191970" d="M1502.5313,-179.3906C1523.1708,-169.2359 1555.9276,-153.1196 1579.4602,-141.5416"/>
<polygon fill="#191970" stroke="#191970" points="1581.1782,-144.5971 1588.6059,-137.0419 1578.088,-138.3161 1581.1782,-144.5971"/>
</g>
<!-- Node15 -->
<g id="node16" class="node">
<title>Node15</title>
<polygon fill="none" stroke="#bfbfbf" points="914,-112.5 914,-142.5 1042,-142.5 1042,-112.5 914,-112.5"/>
<text text-anchor="start" x="922" y="-130.5" font-family="Helvetica,sans-Serif" font-size="10.00" fill="#000000">deal.II/lac/blas_extension</text>
<text text-anchor="middle" x="978" y="-119.5" font-family="Helvetica,sans-Serif" font-size="10.00" fill="#000000">_templates.h</text>
</g>
<!-- Node13&#45;&gt;Node15 -->
<g id="edge17" class="edge">
<title>Node13&#45;&gt;Node15</title>
<path fill="none" stroke="#191970" d="M1437.6572,-184.1756C1337.7252,-173.5426 1103.798,-148.6497 1052.0306,-142.7062"/>
<polygon fill="#191970" stroke="#191970" points="1052.3749,-139.2224 1042.0244,-141.4845 1051.5265,-146.1708 1052.3749,-139.2224"/>
</g>
<!-- Node16 -->
<g id="node17" class="node">
<title>Node16</title>
<polygon fill="none" stroke="#bfbfbf" points="1060,-118 1060,-137 1186,-137 1186,-118 1060,-118"/>
<text text-anchor="middle" x="1123" y="-125" font-family="Helvetica,sans-Serif" font-size="10.00" fill="#000000">deal.II/lac/block_vector.h</text>
</g>
<!-- Node13&#45;&gt;Node16 -->
<g id="edge18" class="edge">
<title>Node13&#45;&gt;Node16</title>
<path fill="none" stroke="#191970" d="M1437.9743,-182.5725C1381.1832,-174.2902 1280.6006,-159.0382 1195,-143 1188.7319,-141.8256 1182.1732,-140.5205 1175.6752,-139.1801"/>
<polygon fill="#191970" stroke="#191970" points="1176.07,-135.6868 1165.5644,-137.0587 1174.6325,-142.5377 1176.07,-135.6868"/>
</g>
<!-- Node17 -->
<g id="node18" class="node">
<title>Node17</title>
<polygon fill="none" stroke="#bfbfbf" points="1204,-112.5 1204,-142.5 1296,-142.5 1296,-112.5 1204,-112.5"/>
<text text-anchor="start" x="1212" y="-130.5" font-family="Helvetica,sans-Serif" font-size="10.00" fill="#000000">deal.II/lac/sparse</text>
<text text-anchor="middle" x="1250" y="-119.5" font-family="Helvetica,sans-Serif" font-size="10.00" fill="#000000">_matrix.h</text>
</g>
<!-- Node13&#45;&gt;Node17 -->
<g id="edge23" class="edge">
<title>Node13&#45;&gt;Node17</title>
<path fill="none" stroke="#191970" d="M1445.0883,-179.4574C1411.0525,-170.8336 1359.4799,-157.6271 1305.8687,-143.2068"/>
<polygon fill="#191970" stroke="#191970" points="1306.7598,-139.8221 1296.1933,-140.5969 1304.9367,-146.5805 1306.7598,-139.8221"/>
</g>
<!-- Node18 -->
<g id="node19" class="node">
<title>Node18</title>
<polygon fill="none" stroke="#bfbfbf" points="1314.5,-118 1314.5,-137 1415.5,-137 1415.5,-118 1314.5,-118"/>
<text text-anchor="middle" x="1365" y="-125" font-family="Helvetica,sans-Serif" font-size="10.00" fill="#000000">deal.II/lac/utilities.h</text>
</g>
<!-- Node13&#45;&gt;Node18 -->
<g id="edge24" class="edge">
<title>Node13&#45;&gt;Node18</title>
<path fill="none" stroke="#191970" d="M1464.5625,-179.3906C1445.1653,-169.2811 1414.431,-153.2628 1392.2383,-141.6962"/>
<polygon fill="#191970" stroke="#191970" points="1393.7936,-138.56 1383.308,-137.0419 1390.5582,-144.7675 1393.7936,-138.56"/>
</g>
<!-- Node19 -->
<g id="node20" class="node">
<title>Node19</title>
<polygon fill="none" stroke="#bfbfbf" points="1434,-118 1434,-137 1532,-137 1532,-118 1434,-118"/>
<text text-anchor="middle" x="1483" y="-125" font-family="Helvetica,sans-Serif" font-size="10.00" fill="#000000">deal.II/lac/vector.h</text>
</g>
<!-- Node13&#45;&gt;Node19 -->
<g id="edge25" class="edge">
<title>Node13&#45;&gt;Node19</title>
<path fill="none" stroke="#191970" d="M1483,-179.3906C1483,-170.8657 1483,-158.1392 1483,-147.4235"/>
<polygon fill="#191970" stroke="#191970" points="1486.5001,-147.2448 1483,-137.2449 1479.5001,-147.2449 1486.5001,-147.2448"/>
</g>
<!-- Node21&#45;&gt;Node1 -->
<g id="edge80" class="edge">
<title>Node21&#45;&gt;Node1</title>
<path fill="none" stroke="#191970" d="M878.8269,-365.8731C995.4886,-357.2657 1432.8304,-324.998 1568.5622,-314.9835"/>
<polygon fill="#191970" stroke="#191970" points="1569.1983,-318.4462 1578.9137,-314.2198 1568.6832,-311.4652 1569.1983,-318.4462"/>
</g>
<!-- Node21&#45;&gt;Node3 -->
<g id="edge29" class="edge">
<title>Node21&#45;&gt;Node3</title>
<path fill="none" stroke="#191970" d="M878.7609,-367.7849C982.7662,-366.7014 1348.9522,-360.2289 1648,-322 1774.3168,-305.8522 1808.855,-308.2122 1929,-266 1989.9525,-244.5847 2003.7904,-234.1447 2058,-199 2084.1896,-182.021 2111.9722,-159.0999 2129.6254,-143.8353"/>
<polygon fill="#191970" stroke="#191970" points="2132.2007,-146.2329 2137.4264,-137.0165 2127.5938,-140.9625 2132.2007,-146.2329"/>
</g>
<!-- Node21&#45;&gt;Node7 -->
<g id="edge33" class="edge">
<title>Node21&#45;&gt;Node7</title>
<path fill="none" stroke="#191970" d="M866.5594,-358.3762C917.3226,-328.8742 1071.0234,-239.5481 1132.3408,-203.9123"/>
<polygon fill="#191970" stroke="#191970" points="1134.4714,-206.7223 1141.3587,-198.6714 1130.9541,-200.6701 1134.4714,-206.7223"/>
</g>
<!-- Node21&#45;&gt;Node8 -->
<g id="edge36" class="edge">
<title>Node21&#45;&gt;Node8</title>
<path fill="none" stroke="#191970" d="M878.7263,-367.1799C1080.0934,-361.2483 2272,-323.0732 2272,-250.5 2272,-250.5 2272,-250.5 2272,-127.5 2272,-37.4996 1942.2992,-15.8033 1836.3587,-11.1549"/>
<polygon fill="#191970" stroke="#191970" points="1836.3948,-7.6535 1826.2578,-10.7342 1836.1034,-14.6474 1836.3948,-7.6535"/>
</g>
<!-- Node21&#45;&gt;Node9 -->
<g id="edge79" class="edge">
<title>Node21&#45;&gt;Node9</title>
<path fill="none" stroke="#191970" d="M878.9126,-364.6315C932.8929,-358.1137 1052.5456,-342.5857 1152,-322 1226.719,-306.5342 1311.5729,-283.3066 1366.3448,-267.5566"/>
<polygon fill="#191970" stroke="#191970" points="1367.5766,-270.8439 1376.2126,-264.7063 1365.6341,-264.1189 1367.5766,-270.8439"/>
</g>
<!-- Node21&#45;&gt;Node20 -->
<g id="edge32" class="edge">
<title>Node21&#45;&gt;Node20</title>
<path fill="none" stroke="#191970" d="M821.34,-367.0579C716.8377,-363.431 356.5511,-349.1957 245,-322 166.1615,-302.7795 77,-331.6476 77,-250.5 77,-250.5 77,-250.5 77,-189 77,-149.2909 54.3594,-107.3275 39.5485,-84.1244"/>
<polygon fill="#191970" stroke="#191970" points="42.386,-82.0699 33.9523,-75.6572 36.5462,-85.9296 42.386,-82.0699"/>
</g>
<!-- Node22 -->
<g id="node23" class="node">
<title>Node22</title>
<polygon fill="none" stroke="#bfbfbf" points="436,-302.5 436,-321.5 558,-321.5 558,-302.5 436,-302.5"/>
<text text-anchor="middle" x="497" y="-309.5" font-family="Helvetica,sans-Serif" font-size="10.00" fill="#000000">deal.II/base/logstream.h</text>
</g>
<!-- Node21&#45;&gt;Node22 -->
<g id="edge28" class="edge">
<title>Node21&#45;&gt;Node22</title>
<path fill="none" stroke="#191970" d="M821.4115,-363.4647C766.5113,-354.7553 644.889,-335.4611 567.1522,-323.129"/>
<polygon fill="#191970" stroke="#191970" points="567.3819,-319.6217 556.957,-321.5116 566.2851,-326.5353 567.3819,-319.6217"/>
</g>
<!-- Node23 -->
<g id="node24" class="node">
<title>Node23</title>
<polygon fill="none" stroke="#bfbfbf" points="709,-56.5 709,-75.5 765,-75.5 765,-56.5 709,-56.5"/>
<text text-anchor="middle" x="737" y="-63.5" font-family="Helvetica,sans-Serif" font-size="10.00" fill="#000000">algorithm</text>
</g>
<!-- Node21&#45;&gt;Node23 -->
<g id="edge30" class="edge">
<title>Node21&#45;&gt;Node23</title>
<path fill="none" stroke="#191970" d="M842.6619,-358.4026C820.3653,-328.558 753.5635,-233.9237 731,-143 726.2703,-123.9408 728.9158,-101.488 732.046,-85.7622"/>
<polygon fill="#191970" stroke="#191970" points="735.5418,-86.1682 734.3124,-75.6449 728.711,-84.6379 735.5418,-86.1682"/>
</g>
<!-- Node24 -->
<g id="node25" class="node">
<title>Node24</title>
<polygon fill="none" stroke="#bfbfbf" points="614,-302.5 614,-321.5 664,-321.5 664,-302.5 614,-302.5"/>
<text text-anchor="middle" x="639" y="-309.5" font-family="Helvetica,sans-Serif" font-size="10.00" fill="#000000">fstream</text>
</g>
<!-- Node21&#45;&gt;Node24 -->
<g id="edge31" class="edge">
<title>Node21&#45;&gt;Node24</title>
<path fill="none" stroke="#191970" d="M821.4155,-360.8687C788.2097,-352.5197 731.5512,-338.0746 673.8653,-322.1829"/>
<polygon fill="#191970" stroke="#191970" points="674.7967,-318.8091 664.2255,-319.5162 672.9303,-325.5557 674.7967,-318.8091"/>
</g>
<!-- Node25 -->
<g id="node26" class="node">
<title>Node25</title>
<polygon fill="none" stroke="#bfbfbf" points="72.5,-56.5 72.5,-75.5 113.5,-75.5 113.5,-56.5 72.5,-56.5"/>
<text text-anchor="middle" x="93" y="-63.5" font-family="Helvetica,sans-Serif" font-size="10.00" fill="#000000">string</text>
</g>
<!-- Node21&#45;&gt;Node25 -->
<g id="edge34" class="edge">
<title>Node21&#45;&gt;Node25</title>
<path fill="none" stroke="#191970" d="M821.2114,-366.421C686.7421,-358.6713 127,-322.1113 127,-250.5 127,-250.5 127,-250.5 127,-189 127,-150.9808 111.7222,-108.663 101.649,-84.8934"/>
<polygon fill="#191970" stroke="#191970" points="104.8089,-83.3841 97.5854,-75.6336 98.399,-86.1971 104.8089,-83.3841"/>
</g>
<!-- Node26 -->
<g id="node27" class="node">
<title>Node26</title>
<polygon fill="none" stroke="#bfbfbf" points="2067,-.5 2067,-19.5 2107,-19.5 2107,-.5 2067,-.5"/>
<text text-anchor="middle" x="2087" y="-7.5" font-family="Helvetica,sans-Serif" font-size="10.00" fill="#000000">utility</text>
</g>
<!-- Node21&#45;&gt;Node26 -->
<g id="edge35" class="edge">
<title>Node21&#45;&gt;Node26</title>
<path fill="none" stroke="#191970" d="M878.5083,-367.321C1029.6662,-363.6439 1738.7289,-345.4137 1957,-322 2116.1617,-304.9269 2310,-410.5748 2310,-250.5 2310,-250.5 2310,-250.5 2310,-127.5 2310,-41.4268 2178.3589,-18.255 2117.3623,-12.1382"/>
<polygon fill="#191970" stroke="#191970" points="2117.4594,-8.6326 2107.1831,-11.2109 2116.8243,-15.6038 2117.4594,-8.6326"/>
</g>
<!-- Node27 -->
<g id="node28" class="node">
<title>Node27</title>
<g id="a_node28"><a xlink:href="block__cluster_8h.html" target="_top" xlink:title="Implementation of the class BlockCluster. ">
<polygon fill="none" stroke="#000000" points="566.5,-241 566.5,-260 649.5,-260 649.5,-241 566.5,-241"/>
<text text-anchor="middle" x="608" y="-248" font-family="Helvetica,sans-Serif" font-size="10.00" fill="#000000">block_cluster.h</text>
</a>
</g>
</g>
<!-- Node21&#45;&gt;Node27 -->
<g id="edge37" class="edge">
<title>Node21&#45;&gt;Node27</title>
<path fill="none" stroke="#191970" d="M821.2957,-367.0239C762.6305,-364.362 632.2202,-354.8066 605,-322 593.1397,-307.7056 596.155,-285.7224 600.7164,-269.9057"/>
<polygon fill="#191970" stroke="#191970" points="604.1387,-270.7043 603.9576,-260.111 597.4931,-268.5052 604.1387,-270.7043"/>
</g>
<!-- Node44 -->
<g id="node45" class="node">
<title>Node44</title>
<g id="a_node45"><a xlink:href="block__cluster__tree_8h.html" target="_top" xlink:title="Implementation of the class BlockClusterTree. ">
<polygon fill="none" stroke="#000000" points="682,-302.5 682,-321.5 786,-321.5 786,-302.5 682,-302.5"/>
<text text-anchor="middle" x="734" y="-309.5" font-family="Helvetica,sans-Serif" font-size="10.00" fill="#000000">block_cluster_tree.h</text>
</a>
</g>
</g>
<!-- Node21&#45;&gt;Node44 -->
<g id="edge69" class="edge">
<title>Node21&#45;&gt;Node44</title>
<path fill="none" stroke="#191970" d="M830.0589,-358.3733C811.5214,-349.4241 783.6972,-335.9917 762.7587,-325.8835"/>
<polygon fill="#191970" stroke="#191970" points="764.2081,-322.6967 753.6809,-321.5011 761.1648,-329.0006 764.2081,-322.6967"/>
</g>
<!-- Node45 -->
<g id="node46" class="node">
<title>Node45</title>
<g id="a_node46"><a xlink:href="generic__functors_8h.html" target="_top" xlink:title="This header file contains a set of self&#45;defined generic functors. ">
<polygon fill="none" stroke="#000000" points="857.5,-241 857.5,-260 954.5,-260 954.5,-241 857.5,-241"/>
<text text-anchor="middle" x="906" y="-248" font-family="Helvetica,sans-Serif" font-size="10.00" fill="#000000">generic_functors.h</text>
</a>
</g>
</g>
<!-- Node21&#45;&gt;Node45 -->
<g id="edge75" class="edge">
<title>Node21&#45;&gt;Node45</title>
<path fill="none" stroke="#191970" d="M854.5827,-358.3845C863.8121,-339.0192 884.7889,-295.0055 896.9046,-269.584"/>
<polygon fill="#191970" stroke="#191970" points="900.2111,-270.7814 901.354,-260.2484 893.8921,-267.7697 900.2111,-270.7814"/>
</g>
<!-- Node28 -->
<g id="node29" class="node">
<title>Node28</title>
<g id="a_node29"><a xlink:href="cluster_8h.html" target="_top" xlink:title="Implementation of the class Cluster. ">
<polygon fill="none" stroke="#000000" points="630,-118 630,-137 684,-137 684,-118 630,-118"/>
<text text-anchor="middle" x="657" y="-125" font-family="Helvetica,sans-Serif" font-size="10.00" fill="#000000">cluster.h</text>
</a>
</g>
</g>
<!-- Node27&#45;&gt;Node28 -->
<g id="edge38" class="edge">
<title>Node27&#45;&gt;Node28</title>
<path fill="none" stroke="#191970" d="M608.4465,-240.879C609.3847,-226.7945 612.2617,-199.9616 621,-179 626.0776,-166.8197 634.3949,-154.6512 641.7564,-145.2031"/>
<polygon fill="#191970" stroke="#191970" points="644.5337,-147.3354 648.1279,-137.3688 639.1029,-142.9187 644.5337,-147.3354"/>
</g>
<!-- Node35 -->
<g id="node36" class="node">
<title>Node35</title>
<g id="a_node36"><a xlink:href="cluster__tree_8h_source.html" target="_top" xlink:title="cluster_tree.h">
<polygon fill="none" stroke="#000000" points="630,-179.5 630,-198.5 706,-198.5 706,-179.5 630,-179.5"/>
<text text-anchor="middle" x="668" y="-186.5" font-family="Helvetica,sans-Serif" font-size="10.00" fill="#000000">cluster_tree.h</text>
</a>
</g>
</g>
<!-- Node27&#45;&gt;Node35 -->
<g id="edge50" class="edge">
<title>Node27&#45;&gt;Node35</title>
<path fill="none" stroke="#191970" d="M617.375,-240.8906C626.4799,-231.5581 640.4974,-217.1902 651.4757,-205.9374"/>
<polygon fill="#191970" stroke="#191970" points="654.0148,-208.3468 658.4928,-198.7449 649.0043,-203.4586 654.0148,-208.3468"/>
</g>
<!-- Node28&#45;&gt;Node2 -->
<g id="edge39" class="edge">
<title>Node28&#45;&gt;Node2</title>
<path fill="none" stroke="#191970" d="M684.2976,-121.1444C698.2174,-118.0662 715.4491,-114.504 731,-112 795.701,-101.582 978.5001,-82.24 1075.219,-72.2827"/>
<polygon fill="#191970" stroke="#191970" points="1075.849,-75.7365 1085.4388,-71.2325 1075.1334,-68.7732 1075.849,-75.7365"/>
</g>
<!-- Node28&#45;&gt;Node8 -->
<g id="edge42" class="edge">
<title>Node28&#45;&gt;Node8</title>
<path fill="none" stroke="#191970" d="M659.5327,-117.9869C664.368,-101.9425 676.5801,-69.8956 700,-56 747.2399,-27.9715 1593.8877,-13.2719 1771.4888,-10.4895"/>
<polygon fill="#191970" stroke="#191970" points="1771.5786,-13.9886 1781.5231,-10.3339 1771.47,-6.9895 1771.5786,-13.9886"/>
</g>
<!-- Node28&#45;&gt;Node23 -->
<g id="edge40" class="edge">
<title>Node28&#45;&gt;Node23</title>
<path fill="none" stroke="#191970" d="M669.5,-117.8906C682.0636,-108.2324 701.6423,-93.1812 716.4849,-81.771"/>
<polygon fill="#191970" stroke="#191970" points="718.7928,-84.4115 724.5878,-75.5419 714.5265,-78.8618 718.7928,-84.4115"/>
</g>
<!-- Node29 -->
<g id="node30" class="node">
<title>Node29</title>
<polygon fill="none" stroke="#bfbfbf" points="468.5,-56.5 468.5,-75.5 515.5,-75.5 515.5,-56.5 468.5,-56.5"/>
<text text-anchor="middle" x="492" y="-63.5" font-family="Helvetica,sans-Serif" font-size="10.00" fill="#000000">iterator</text>
</g>
<!-- Node28&#45;&gt;Node29 -->
<g id="edge41" class="edge">
<title>Node28&#45;&gt;Node29</title>
<path fill="none" stroke="#191970" d="M631.2188,-117.8906C602.6755,-107.2518 556.5759,-90.0692 525.3153,-78.4175"/>
<polygon fill="#191970" stroke="#191970" points="526.321,-75.0572 515.7283,-74.8442 523.8761,-81.6164 526.321,-75.0572"/>
</g>
<!-- Node30 -->
<g id="node31" class="node">
<title>Node30</title>
<g id="a_node31"><a xlink:href="simple__bounding__box_8h_source.html" target="_top" xlink:title="simple_bounding_box.h">
<polygon fill="none" stroke="#000000" points="533.5,-56.5 533.5,-75.5 652.5,-75.5 652.5,-56.5 533.5,-56.5"/>
<text text-anchor="middle" x="593" y="-63.5" font-family="Helvetica,sans-Serif" font-size="10.00" fill="#000000">simple_bounding_box.h</text>
</a>
</g>
</g>
<!-- Node28&#45;&gt;Node30 -->
<g id="edge43" class="edge">
<title>Node28&#45;&gt;Node30</title>
<path fill="none" stroke="#191970" d="M647,-117.8906C637.2881,-108.5581 622.3361,-94.1902 610.6259,-82.9374"/>
<polygon fill="#191970" stroke="#191970" points="612.7766,-80.15 603.141,-75.7449 607.9264,-85.1974 612.7766,-80.15"/>
</g>
<!-- Node30&#45;&gt;Node8 -->
<g id="edge49" class="edge">
<title>Node30&#45;&gt;Node8</title>
<path fill="none" stroke="#191970" d="M652.7207,-57.44C657.5458,-56.8978 662.3508,-56.4073 667,-56 1103.4019,-17.7706 1636.8651,-11.2559 1771.8158,-10.197"/>
<polygon fill="#191970" stroke="#191970" points="1771.9192,-13.6964 1781.893,-10.1224 1771.8674,-6.6966 1771.9192,-13.6964"/>
</g>
<!-- Node30&#45;&gt;Node26 -->
<g id="edge48" class="edge">
<title>Node30&#45;&gt;Node26</title>
<path fill="none" stroke="#191970" d="M652.656,-59.7699C668.0644,-58.3406 684.6377,-56.9606 700,-56 1203.7144,-24.5034 1330.6232,-38.0061 1835,-20 1914.9711,-17.1451 2009.1962,-13.2697 2056.563,-11.286"/>
<polygon fill="#191970" stroke="#191970" points="2056.9057,-14.7748 2066.75,-10.8583 2056.6119,-7.781 2056.9057,-14.7748"/>
</g>
<!-- Node31 -->
<g id="node32" class="node">
<title>Node31</title>
<polygon fill="none" stroke="#bfbfbf" points="543,-.5 543,-19.5 643,-19.5 643,-.5 543,-.5"/>
<text text-anchor="middle" x="593" y="-7.5" font-family="Helvetica,sans-Serif" font-size="10.00" fill="#000000">deal.II/base/point.h</text>
</g>
<!-- Node30&#45;&gt;Node31 -->
<g id="edge44" class="edge">
<title>Node30&#45;&gt;Node31</title>
<path fill="none" stroke="#191970" d="M593,-56.2455C593,-48.9382 593,-38.6944 593,-29.7046"/>
<polygon fill="#191970" stroke="#191970" points="596.5001,-29.6426 593,-19.6427 589.5001,-29.6427 596.5001,-29.6426"/>
</g>
<!-- Node32 -->
<g id="node33" class="node">
<title>Node32</title>
<polygon fill="none" stroke="#bfbfbf" points="244.5,-.5 244.5,-19.5 371.5,-19.5 371.5,-.5 244.5,-.5"/>
<text text-anchor="middle" x="308" y="-7.5" font-family="Helvetica,sans-Serif" font-size="10.00" fill="#000000">deal.II/dofs/dof_handler.h</text>
</g>
<!-- Node30&#45;&gt;Node32 -->
<g id="edge45" class="edge">
<title>Node30&#45;&gt;Node32</title>
<path fill="none" stroke="#191970" d="M544.3306,-56.4369C495.0427,-46.7522 418.7952,-31.7703 366.3074,-21.4569"/>
<polygon fill="#191970" stroke="#191970" points="366.9559,-18.0175 356.4687,-19.5237 365.6062,-24.8861 366.9559,-18.0175"/>
</g>
<!-- Node33 -->
<g id="node34" class="node">
<title>Node33</title>
<polygon fill="none" stroke="#bfbfbf" points="403,-.5 403,-19.5 519,-19.5 519,-.5 403,-.5"/>
<text text-anchor="middle" x="461" y="-7.5" font-family="Helvetica,sans-Serif" font-size="10.00" fill="#000000">deal.II/dofs/dof_tools.h</text>
</g>
<!-- Node30&#45;&gt;Node33 -->
<g id="edge46" class="edge">
<title>Node30&#45;&gt;Node33</title>
<path fill="none" stroke="#191970" d="M570.3084,-56.3733C548.9289,-47.3032 516.6943,-33.6279 492.7638,-23.4755"/>
<polygon fill="#191970" stroke="#191970" points="493.9683,-20.1846 483.3955,-19.5011 491.2344,-26.6287 493.9683,-20.1846"/>
</g>
<!-- Node34 -->
<g id="node35" class="node">
<title>Node34</title>
<polygon fill="none" stroke="#bfbfbf" points="97.5,-.5 97.5,-19.5 200.5,-19.5 200.5,-.5 97.5,-.5"/>
<text text-anchor="middle" x="149" y="-7.5" font-family="Helvetica,sans-Serif" font-size="10.00" fill="#000000">deal.II/fe/mapping.h</text>
</g>
<!-- Node30&#45;&gt;Node34 -->
<g id="edge47" class="edge">
<title>Node30&#45;&gt;Node34</title>
<path fill="none" stroke="#191970" d="M533.172,-57.2476C530.0709,-56.8195 526.9994,-56.4013 524,-56 413.7859,-41.2555 285.0951,-25.8668 210.7303,-17.153"/>
<polygon fill="#191970" stroke="#191970" points="210.9442,-13.6542 200.6052,-15.9685 210.1308,-20.6068 210.9442,-13.6542"/>
</g>
<!-- Node35&#45;&gt;Node28 -->
<g id="edge51" class="edge">
<title>Node35&#45;&gt;Node28</title>
<path fill="none" stroke="#191970" d="M666.2813,-179.3906C664.7565,-170.8657 662.4802,-158.1392 660.5636,-147.4235"/>
<polygon fill="#191970" stroke="#191970" points="663.9491,-146.4724 658.743,-137.2449 657.0584,-147.7049 663.9491,-146.4724"/>
</g>
<!-- Node36 -->
<g id="node37" class="node">
<title>Node36</title>
<g id="a_node37"><a xlink:href="debug__tools_8h.html" target="_top" xlink:title="This file includes a bunch of helper functions for printing out and visualizing information about gri...">
<polygon fill="none" stroke="#000000" points="179.5,-118 179.5,-137 256.5,-137 256.5,-118 179.5,-118"/>
<text text-anchor="middle" x="218" y="-125" font-family="Helvetica,sans-Serif" font-size="10.00" fill="#000000">debug_tools.h</text>
</a>
</g>
</g>
<!-- Node35&#45;&gt;Node36 -->
<g id="edge52" class="edge">
<title>Node35&#45;&gt;Node36</title>
<path fill="none" stroke="#191970" d="M629.6333,-183.7565C547.8729,-172.5826 356.6104,-146.4434 266.5396,-134.1337"/>
<polygon fill="#191970" stroke="#191970" points="266.9705,-130.6602 256.5887,-132.7738 266.0226,-137.5957 266.9705,-130.6602"/>
</g>
<!-- Node39 -->
<g id="node40" class="node">
<title>Node39</title>
<g id="a_node40"><a xlink:href="tree_8h.html" target="_top" xlink:title="Implementation of the classes for binary tree node, general tree node and functions for manipulating ...">
<polygon fill="none" stroke="#000000" points="740.5,-118 740.5,-137 781.5,-137 781.5,-118 740.5,-118"/>
<text text-anchor="middle" x="761" y="-125" font-family="Helvetica,sans-Serif" font-size="10.00" fill="#000000">tree.h</text>
</a>
</g>
</g>
<!-- Node35&#45;&gt;Node39 -->
<g id="edge60" class="edge">
<title>Node35&#45;&gt;Node39</title>
<path fill="none" stroke="#191970" d="M682.5313,-179.3906C697.4094,-169.5519 720.7504,-154.1167 738.1128,-142.6351"/>
<polygon fill="#191970" stroke="#191970" points="740.1602,-145.4773 746.5708,-137.0419 736.299,-139.6385 740.1602,-145.4773"/>
</g>
<!-- Node36&#45;&gt;Node20 -->
<g id="edge58" class="edge">
<title>Node36&#45;&gt;Node20</title>
<path fill="none" stroke="#191970" d="M188.1563,-117.8906C154.5902,-107.0827 100.0506,-89.5215 63.8532,-77.8664"/>
<polygon fill="#191970" stroke="#191970" points="64.7543,-74.4796 54.1628,-74.7461 62.6088,-81.1427 64.7543,-74.4796"/>
</g>
<!-- Node36&#45;&gt;Node25 -->
<g id="edge59" class="edge">
<title>Node36&#45;&gt;Node25</title>
<path fill="none" stroke="#191970" d="M198.4688,-117.8906C177.8292,-107.7359 145.0724,-91.6196 121.5398,-80.0416"/>
<polygon fill="#191970" stroke="#191970" points="122.912,-76.8161 112.3941,-75.5419 119.8218,-83.0971 122.912,-76.8161"/>
</g>
<!-- Node36&#45;&gt;Node32 -->
<g id="edge53" class="edge">
<title>Node36&#45;&gt;Node32</title>
<path fill="none" stroke="#191970" d="M212.018,-117.8668C203.8138,-103.2914 191.4383,-75.2917 204,-56 214.2713,-40.2257 231.3175,-29.8207 248.6675,-22.9735"/>
<polygon fill="#191970" stroke="#191970" points="250.0628,-26.1915 258.2965,-19.524 247.702,-19.6016 250.0628,-26.1915"/>
</g>
<!-- Node36&#45;&gt;Node33 -->
<g id="edge54" class="edge">
<title>Node36&#45;&gt;Node33</title>
<path fill="none" stroke="#191970" d="M217.586,-117.5647C217.5197,-102.0644 219.818,-72.2264 237,-56 248.4151,-45.2198 331.2576,-30.1974 392.8925,-20.2922"/>
<polygon fill="#191970" stroke="#191970" points="393.6478,-23.7161 402.973,-18.6871 392.547,-16.8032 393.6478,-23.7161"/>
</g>
<!-- Node36&#45;&gt;Node34 -->
<g id="edge57" class="edge">
<title>Node36&#45;&gt;Node34</title>
<path fill="none" stroke="#191970" d="M204.9128,-117.9333C193.0196,-108.5535 175.8688,-93.1899 166,-76 157.8076,-61.7301 153.4992,-43.4881 151.2727,-29.8002"/>
<polygon fill="#191970" stroke="#191970" points="154.6932,-28.9848 149.8524,-19.5606 147.7595,-29.9466 154.6932,-28.9848"/>
</g>
<!-- Node37 -->
<g id="node38" class="node">
<title>Node37</title>
<polygon fill="none" stroke="#bfbfbf" points="246,-56.5 246,-75.5 320,-75.5 320,-56.5 246,-56.5"/>
<text text-anchor="middle" x="283" y="-63.5" font-family="Helvetica,sans-Serif" font-size="10.00" fill="#000000">deal.II/fe/fe.h</text>
</g>
<!-- Node36&#45;&gt;Node37 -->
<g id="edge55" class="edge">
<title>Node36&#45;&gt;Node37</title>
<path fill="none" stroke="#191970" d="M228.1563,-117.8906C238.0199,-108.5581 253.2055,-94.1902 265.0987,-82.9374"/>
<polygon fill="#191970" stroke="#191970" points="267.8421,-85.1601 272.7006,-75.7449 263.0311,-80.0753 267.8421,-85.1601"/>
</g>
<!-- Node38 -->
<g id="node39" class="node">
<title>Node38</title>
<polygon fill="none" stroke="#bfbfbf" points="338,-56.5 338,-75.5 450,-75.5 450,-56.5 338,-56.5"/>
<text text-anchor="middle" x="394" y="-63.5" font-family="Helvetica,sans-Serif" font-size="10.00" fill="#000000">deal.II/fe/fe_system.h</text>
</g>
<!-- Node36&#45;&gt;Node38 -->
<g id="edge56" class="edge">
<title>Node36&#45;&gt;Node38</title>
<path fill="none" stroke="#191970" d="M245.5,-117.8906C275.4647,-107.42 323.5683,-90.6111 356.8698,-78.9745"/>
<polygon fill="#191970" stroke="#191970" points="358.4074,-82.1448 366.6931,-75.5419 356.0983,-75.5366 358.4074,-82.1448"/>
</g>
<!-- Node39&#45;&gt;Node8 -->
<g id="edge68" class="edge">
<title>Node39&#45;&gt;Node8</title>
<path fill="none" stroke="#191970" d="M780.274,-117.8559C785.2944,-115.6538 790.7663,-113.5179 796,-112 900.4353,-81.7103 934.6476,-109.8006 1038,-76 1056.1398,-70.0675 1057.6256,-61.1603 1076,-56 1209.5898,-18.4822 1647.9065,-11.489 1771.3709,-10.253"/>
<polygon fill="#191970" stroke="#191970" points="1771.7057,-13.7501 1781.6723,-10.1561 1771.6398,-6.7504 1771.7057,-13.7501"/>
</g>
<!-- Node39&#45;&gt;Node12 -->
<g id="edge61" class="edge">
<title>Node39&#45;&gt;Node12</title>
<path fill="none" stroke="#191970" d="M781.8438,-124.4092C804.134,-121.1461 840.5294,-115.9395 872,-112 1012.9636,-94.3544 1051.077,-93.8763 1196.5078,-76.0304"/>
<polygon fill="#191970" stroke="#191970" points="1197.2088,-79.4705 1206.705,-74.7723 1196.3516,-72.5232 1197.2088,-79.4705"/>
</g>
<!-- Node39&#45;&gt;Node20 -->
<g id="edge66" class="edge">
<title>Node39&#45;&gt;Node20</title>
<path fill="none" stroke="#191970" d="M740.3346,-121.8437C726.9432,-118.4139 709.0651,-114.2737 693,-112 418.5648,-73.1591 341.493,-120.6543 64.3267,-75.8882"/>
<polygon fill="#191970" stroke="#191970" points="64.8167,-72.4219 54.3819,-74.2565 63.6833,-79.3295 64.8167,-72.4219"/>
</g>
<!-- Node39&#45;&gt;Node23 -->
<g id="edge62" class="edge">
<title>Node39&#45;&gt;Node23</title>
<path fill="none" stroke="#191970" d="M757.25,-117.8906C753.8532,-109.1862 748.7469,-96.1015 744.512,-85.2494"/>
<polygon fill="#191970" stroke="#191970" points="747.6989,-83.7882 740.8029,-75.7449 741.1778,-86.3331 747.6989,-83.7882"/>
</g>
<!-- Node40 -->
<g id="node41" class="node">
<title>Node40</title>
<polygon fill="none" stroke="#bfbfbf" points="991,-56.5 991,-75.5 1029,-75.5 1029,-56.5 991,-56.5"/>
<text text-anchor="middle" x="1010" y="-63.5" font-family="Helvetica,sans-Serif" font-size="10.00" fill="#000000">array</text>
</g>
<!-- Node39&#45;&gt;Node40 -->
<g id="edge63" class="edge">
<title>Node39&#45;&gt;Node40</title>
<path fill="none" stroke="#191970" d="M780.6906,-117.8555C785.6083,-115.7057 790.9282,-113.5942 796,-112 875.91,-86.8824 900.0968,-97.7063 981,-76 981.0997,-75.9733 981.1995,-75.9464 981.2994,-75.9193"/>
<polygon fill="#191970" stroke="#191970" points="982.217,-79.2985 990.7734,-73.0503 980.1882,-72.5989 982.217,-79.2985"/>
</g>
<!-- Node41 -->
<g id="node42" class="node">
<title>Node41</title>
<polygon fill="none" stroke="#bfbfbf" points="783.5,-56.5 783.5,-75.5 842.5,-75.5 842.5,-56.5 783.5,-56.5"/>
<text text-anchor="middle" x="813" y="-63.5" font-family="Helvetica,sans-Serif" font-size="10.00" fill="#000000">exception</text>
</g>
<!-- Node39&#45;&gt;Node41 -->
<g id="edge64" class="edge">
<title>Node39&#45;&gt;Node41</title>
<path fill="none" stroke="#191970" d="M769.125,-117.8906C776.8642,-108.7376 788.6987,-94.7409 798.1272,-83.59"/>
<polygon fill="#191970" stroke="#191970" points="800.9765,-85.6409 804.7604,-75.7449 795.6311,-81.1213 800.9765,-85.6409"/>
</g>
<!-- Node42 -->
<g id="node43" class="node">
<title>Node42</title>
<polygon fill="none" stroke="#bfbfbf" points="860.5,-56.5 860.5,-75.5 919.5,-75.5 919.5,-56.5 860.5,-56.5"/>
<text text-anchor="middle" x="890" y="-63.5" font-family="Helvetica,sans-Serif" font-size="10.00" fill="#000000">functional</text>
</g>
<!-- Node39&#45;&gt;Node42 -->
<g id="edge65" class="edge">
<title>Node39&#45;&gt;Node42</title>
<path fill="none" stroke="#191970" d="M781.1563,-117.8906C802.551,-107.6908 836.562,-91.4763 860.8702,-79.8875"/>
<polygon fill="#191970" stroke="#191970" points="862.4648,-83.0047 869.9853,-75.5419 859.4524,-76.686 862.4648,-83.0047"/>
</g>
<!-- Node43 -->
<g id="node44" class="node">
<title>Node43</title>
<polygon fill="none" stroke="#bfbfbf" points="937.5,-56.5 937.5,-75.5 972.5,-75.5 972.5,-56.5 937.5,-56.5"/>
<text text-anchor="middle" x="955" y="-63.5" font-family="Helvetica,sans-Serif" font-size="10.00" fill="#000000">new</text>
</g>
<!-- Node39&#45;&gt;Node43 -->
<g id="edge67" class="edge">
<title>Node39&#45;&gt;Node43</title>
<path fill="none" stroke="#191970" d="M781.1486,-117.9583C785.9588,-115.8535 791.1159,-113.7363 796,-112 850.3867,-92.665 868.2872,-94.3389 927.4908,-75.9226"/>
<polygon fill="#191970" stroke="#191970" points="928.888,-79.1513 937.3592,-72.7882 926.7689,-72.4797 928.888,-79.1513"/>
</g>
<!-- Node44&#45;&gt;Node9 -->
<g id="edge73" class="edge">
<title>Node44&#45;&gt;Node9</title>
<path fill="none" stroke="#191970" d="M786.145,-307.3523C912.3896,-296.1001 1233.7709,-267.4552 1365.9104,-255.6776"/>
<polygon fill="#191970" stroke="#191970" points="1366.5722,-259.1325 1376.2219,-254.7585 1365.9506,-252.1602 1366.5722,-259.1325"/>
</g>
<!-- Node44&#45;&gt;Node27 -->
<g id="edge70" class="edge">
<title>Node44&#45;&gt;Node27</title>
<path fill="none" stroke="#191970" d="M714.3125,-302.3906C693.5078,-292.2359 660.489,-276.1196 636.7681,-264.5416"/>
<polygon fill="#191970" stroke="#191970" points="638.0712,-261.283 627.5493,-260.0419 635.0007,-267.5736 638.0712,-261.283"/>
</g>
<!-- Node44&#45;&gt;Node35 -->
<g id="edge71" class="edge">
<title>Node44&#45;&gt;Node35</title>
<path fill="none" stroke="#191970" d="M728.8211,-302.3484C717.881,-281.9601 692.2554,-234.2033 678.0051,-207.6459"/>
<polygon fill="#191970" stroke="#191970" points="680.9671,-205.7635 673.1549,-198.6068 674.799,-209.0733 680.9671,-205.7635"/>
</g>
<!-- Node44&#45;&gt;Node36 -->
<g id="edge72" class="edge">
<title>Node44&#45;&gt;Node36</title>
<path fill="none" stroke="#191970" d="M690.6105,-302.4335C654.4859,-294.0627 601.8901,-280.929 557,-266 440.3763,-227.2148 306.5763,-168.0281 248.0445,-141.3688"/>
<polygon fill="#191970" stroke="#191970" points="249.2097,-138.0531 238.6597,-137.0788 246.2995,-144.4195 249.2097,-138.0531"/>
</g>
<!-- Node44&#45;&gt;Node39 -->
<g id="edge74" class="edge">
<title>Node44&#45;&gt;Node39</title>
<path fill="none" stroke="#191970" d="M735.4136,-302.3402C739.6693,-273.26 752.4191,-186.136 758.1523,-146.959"/>
<polygon fill="#191970" stroke="#191970" points="761.6154,-147.4656 759.6004,-137.0641 754.6892,-146.4519 761.6154,-147.4656"/>
</g>
<!-- Node45&#45;&gt;Node2 -->
<g id="edge76" class="edge">
<title>Node45&#45;&gt;Node2</title>
<path fill="none" stroke="#191970" d="M897.4779,-240.8996C876.8996,-216.5409 828.581,-151.4734 862,-112 863.7317,-109.9545 994.7844,-88.7075 1075.3277,-75.8167"/>
<polygon fill="#191970" stroke="#191970" points="1076.0491,-79.2459 1085.3709,-74.2107 1074.9437,-72.3337 1076.0491,-79.2459"/>
</g>
<!-- Node45&#45;&gt;Node7 -->
<g id="edge77" class="edge">
<title>Node45&#45;&gt;Node7</title>
<path fill="none" stroke="#191970" d="M945.0985,-240.9581C996.5488,-228.4018 1085.6908,-206.6469 1130.5454,-195.7002"/>
<polygon fill="#191970" stroke="#191970" points="1131.552,-199.0574 1140.437,-193.2862 1129.8923,-192.257 1131.552,-199.0574"/>
</g>
<!-- Node45&#45;&gt;Node8 -->
<g id="edge78" class="edge">
<title>Node45&#45;&gt;Node8</title>
<path fill="none" stroke="#191970" d="M954.5614,-248.8789C1060.7472,-244.8223 1321.3449,-232.0771 1537,-199 1564.8157,-194.7336 1764.8479,-163.6182 1784,-143 1812.7597,-112.0387 1810.852,-58.3844 1807.2637,-29.5956"/>
<polygon fill="#191970" stroke="#191970" points="1810.7074,-28.9536 1805.8138,-19.5567 1803.7793,-29.9543 1810.7074,-28.9536"/>
</g>
</g>
</svg>
