<?xml version="1.0" encoding="UTF-8" standalone="no"?>
<!DOCTYPE svg PUBLIC "-//W3C//DTD SVG 1.1//EN"
 "http://www.w3.org/Graphics/SVG/1.1/DTD/svg11.dtd">
<!-- Generated by graphviz version 2.40.1 (20161225.0304)
 -->
<!-- Title: /home/jihuan/Projects/deal.ii/program/dealii&#45;9.1.1/examples/laplace&#45;bem/tests/rkmatrix&#45;truncate&#45;to&#45;rank/rkmatrix&#45;truncate&#45;to&#45;rank.cc Pages: 1 -->
<!--zoomable 396 -->
<svg id="main" version="1.1" xmlns="http://www.w3.org/2000/svg" xmlns:xlink="http://www.w3.org/1999/xlink" xml:space="preserve" onload="init(evt)">
<style type="text/css"><![CDATA[
.edge:hover path { stroke: red; }
.edge:hover polygon { stroke: red; fill: red; }
]]></style>
<script type="text/javascript"><![CDATA[
var edges = document.getElementsByTagName('g');
if (edges && edges.length) {
  for (var i=0;i<edges.length;i++) {
    if (edges[i].id.substr(0,4)=='edge') {
      edges[i].setAttribute('class','edge');
    }
  }
}
]]></script>
        <defs>
                <circle id="rim" cx="0" cy="0" r="7"/>
                <circle id="rim2" cx="0" cy="0" r="3.5"/>
                <g id="zoomPlus">
                        <use xlink:href="#rim" fill="#404040">
                                <set attributeName="fill" to="#808080" begin="zoomplus.mouseover" end="zoomplus.mouseout"/>
                        </use>
                        <path d="M-4,0h8M0,-4v8" fill="none" stroke="white" stroke-width="1.5" pointer-events="none"/>
                </g>
                <g id="zoomMin">
                        <use xlink:href="#rim" fill="#404040">
                                <set attributeName="fill" to="#808080" begin="zoomminus.mouseover" end="zoomminus.mouseout"/>
                        </use>
                        <path d="M-4,0h8" fill="none" stroke="white" stroke-width="1.5" pointer-events="none"/>
                </g>
                <g id="dirArrow">
                        <path fill="none" stroke="white" stroke-width="1.5" d="M0,-3.0v7 M-2.5,-0.5L0,-3.0L2.5,-0.5"/>
                </g>
               <g id="resetDef">
                       <use xlink:href="#rim2" fill="#404040">
                               <set attributeName="fill" to="#808080" begin="reset.mouseover" end="reset.mouseout"/>
                       </use>
               </g>
        </defs>

<script type="text/javascript">
var viewWidth = 2480;
var viewHeight = 396;
var sectionId = 'dynsection-0';
</script>
<script xlink:href="svgpan.js"/>
<svg id="graph" class="graph">
<g id="viewport">
<title>/home/jihuan/Projects/deal.ii/program/dealii&#45;9.1.1/examples/laplace&#45;bem/tests/rkmatrix&#45;truncate&#45;to&#45;rank/rkmatrix&#45;truncate&#45;to&#45;rank.cc</title>
<!-- Node0 -->
<g id="node1" class="node">
<title>Node0</title>
<polygon fill="#bfbfbf" stroke="#000000" points="604.5,-313.5 604.5,-387.5 744.5,-387.5 744.5,-313.5 604.5,-313.5"/>
<text text-anchor="start" x="612.5" y="-375.5" font-family="Helvetica,sans-Serif" font-size="10.00" fill="#000000">/home/jihuan/Projects</text>
<text text-anchor="start" x="612.5" y="-364.5" font-family="Helvetica,sans-Serif" font-size="10.00" fill="#000000">/deal.ii/program/dealii</text>
<text text-anchor="start" x="612.5" y="-353.5" font-family="Helvetica,sans-Serif" font-size="10.00" fill="#000000">&#45;9.1.1/examples/laplace</text>
<text text-anchor="start" x="612.5" y="-342.5" font-family="Helvetica,sans-Serif" font-size="10.00" fill="#000000">&#45;bem/tests/rkmatrix&#45;truncate</text>
<text text-anchor="start" x="612.5" y="-331.5" font-family="Helvetica,sans-Serif" font-size="10.00" fill="#000000">&#45;to&#45;rank/rkmatrix&#45;truncate</text>
<text text-anchor="middle" x="674.5" y="-320.5" font-family="Helvetica,sans-Serif" font-size="10.00" fill="#000000">&#45;to&#45;rank.cc</text>
</g>
<!-- Node1 -->
<g id="node2" class="node">
<title>Node1</title>
<g id="a_node2"><a xlink:href="debug__tools_8h.html" target="_top" xlink:title="This file includes a bunch of helper functions for printing out and visualizing information about gri...">
<polygon fill="none" stroke="#000000" points="327,-257.5 327,-276.5 404,-276.5 404,-257.5 327,-257.5"/>
<text text-anchor="middle" x="365.5" y="-264.5" font-family="Helvetica,sans-Serif" font-size="10.00" fill="#000000">debug_tools.h</text>
</a>
</g>
</g>
<!-- Node0&#45;&gt;Node1 -->
<g id="edge1" class="edge">
<title>Node0&#45;&gt;Node1</title>
<path fill="none" stroke="#191970" d="M604.3831,-331.5526C544.9548,-315.4934 461.4987,-292.9414 410.5921,-279.1851"/>
<polygon fill="#191970" stroke="#191970" points="411.4283,-275.7856 400.8615,-276.5556 409.6022,-282.5432 411.4283,-275.7856"/>
</g>
<!-- Node9 -->
<g id="node10" class="node">
<title>Node9</title>
<g id="a_node10"><a xlink:href="rkmatrix_8h.html" target="_top" xlink:title="Definition of rank&#45;k matrix. ">
<polygon fill="none" stroke="#000000" points="1267.5,-257.5 1267.5,-276.5 1327.5,-276.5 1327.5,-257.5 1267.5,-257.5"/>
<text text-anchor="middle" x="1297.5" y="-264.5" font-family="Helvetica,sans-Serif" font-size="10.00" fill="#000000">rkmatrix.h</text>
</a>
</g>
</g>
<!-- Node0&#45;&gt;Node9 -->
<g id="edge9" class="edge">
<title>Node0&#45;&gt;Node9</title>
<path fill="none" stroke="#191970" d="M744.755,-341.0838C875.817,-323.5177 1153.6886,-286.2749 1257.3749,-272.3779"/>
<polygon fill="#191970" stroke="#191970" points="1257.982,-275.8279 1267.4284,-271.0305 1257.0521,-268.89 1257.982,-275.8279"/>
</g>
<!-- Node2 -->
<g id="node3" class="node">
<title>Node2</title>
<polygon fill="none" stroke="#bfbfbf" points="232,-196 232,-215 359,-215 359,-196 232,-196"/>
<text text-anchor="middle" x="295.5" y="-203" font-family="Helvetica,sans-Serif" font-size="10.00" fill="#000000">deal.II/dofs/dof_handler.h</text>
</g>
<!-- Node1&#45;&gt;Node2 -->
<g id="edge2" class="edge">
<title>Node1&#45;&gt;Node2</title>
<path fill="none" stroke="#191970" d="M354.5625,-257.3906C343.838,-247.9683 327.2713,-233.4134 314.4099,-222.1137"/>
<polygon fill="#191970" stroke="#191970" points="316.4143,-219.2158 306.5917,-215.2449 311.7941,-224.4745 316.4143,-219.2158"/>
</g>
<!-- Node3 -->
<g id="node4" class="node">
<title>Node3</title>
<polygon fill="none" stroke="#bfbfbf" points="377.5,-196 377.5,-215 493.5,-215 493.5,-196 377.5,-196"/>
<text text-anchor="middle" x="435.5" y="-203" font-family="Helvetica,sans-Serif" font-size="10.00" fill="#000000">deal.II/dofs/dof_tools.h</text>
</g>
<!-- Node1&#45;&gt;Node3 -->
<g id="edge3" class="edge">
<title>Node1&#45;&gt;Node3</title>
<path fill="none" stroke="#191970" d="M376.4375,-257.3906C387.162,-247.9683 403.7287,-233.4134 416.5901,-222.1137"/>
<polygon fill="#191970" stroke="#191970" points="419.2059,-224.4745 424.4083,-215.2449 414.5857,-219.2158 419.2059,-224.4745"/>
</g>
<!-- Node4 -->
<g id="node5" class="node">
<title>Node4</title>
<polygon fill="none" stroke="#bfbfbf" points="511.5,-196 511.5,-215 585.5,-215 585.5,-196 511.5,-196"/>
<text text-anchor="middle" x="548.5" y="-203" font-family="Helvetica,sans-Serif" font-size="10.00" fill="#000000">deal.II/fe/fe.h</text>
</g>
<!-- Node1&#45;&gt;Node4 -->
<g id="edge4" class="edge">
<title>Node1&#45;&gt;Node4</title>
<path fill="none" stroke="#191970" d="M393.8404,-257.4941C421.547,-248.1984 464.9269,-233.6381 502.5,-221 505.1958,-220.0932 507.9803,-219.1562 510.7833,-218.2125"/>
<polygon fill="#191970" stroke="#191970" points="511.9224,-221.5221 520.2822,-215.0135 509.6881,-214.8882 511.9224,-221.5221"/>
</g>
<!-- Node5 -->
<g id="node6" class="node">
<title>Node5</title>
<polygon fill="none" stroke="#bfbfbf" points="603.5,-196 603.5,-215 715.5,-215 715.5,-196 603.5,-196"/>
<text text-anchor="middle" x="659.5" y="-203" font-family="Helvetica,sans-Serif" font-size="10.00" fill="#000000">deal.II/fe/fe_system.h</text>
</g>
<!-- Node1&#45;&gt;Node5 -->
<g id="edge5" class="edge">
<title>Node1&#45;&gt;Node5</title>
<path fill="none" stroke="#191970" d="M404.0805,-259.6881C449.668,-250.9469 527.7615,-235.6553 594.5,-221 599.6096,-219.878 604.936,-218.6703 610.2442,-217.4419"/>
<polygon fill="#191970" stroke="#191970" points="611.4293,-220.7592 620.3679,-215.0714 609.8333,-213.9435 611.4293,-220.7592"/>
</g>
<!-- Node6 -->
<g id="node7" class="node">
<title>Node6</title>
<polygon fill="none" stroke="#bfbfbf" points="0,-196 0,-215 103,-215 103,-196 0,-196"/>
<text text-anchor="middle" x="51.5" y="-203" font-family="Helvetica,sans-Serif" font-size="10.00" fill="#000000">deal.II/fe/mapping.h</text>
</g>
<!-- Node1&#45;&gt;Node6 -->
<g id="edge6" class="edge">
<title>Node1&#45;&gt;Node6</title>
<path fill="none" stroke="#191970" d="M326.7592,-260.8098C276.9753,-252.6598 187.9662,-237.428 112.5,-221 107.4903,-219.9094 102.2677,-218.6979 97.0786,-217.4465"/>
<polygon fill="#191970" stroke="#191970" points="97.753,-214.008 87.2058,-215.0118 96.077,-220.8044 97.753,-214.008"/>
</g>
<!-- Node7 -->
<g id="node8" class="node">
<title>Node7</title>
<polygon fill="none" stroke="#bfbfbf" points="121.5,-196 121.5,-215 175.5,-215 175.5,-196 121.5,-196"/>
<text text-anchor="middle" x="148.5" y="-203" font-family="Helvetica,sans-Serif" font-size="10.00" fill="#000000">iostream</text>
</g>
<!-- Node1&#45;&gt;Node7 -->
<g id="edge7" class="edge">
<title>Node1&#45;&gt;Node7</title>
<path fill="none" stroke="#191970" d="M326.7102,-258.111C290.8224,-249.5929 236.1404,-235.8653 189.5,-221 187.0892,-220.2316 184.6131,-219.4014 182.1291,-218.5383"/>
<polygon fill="#191970" stroke="#191970" points="183.2267,-215.2135 172.6323,-215.1081 180.8486,-221.7972 183.2267,-215.2135"/>
</g>
<!-- Node8 -->
<g id="node9" class="node">
<title>Node8</title>
<polygon fill="none" stroke="#bfbfbf" points="702,-134.5 702,-153.5 743,-153.5 743,-134.5 702,-134.5"/>
<text text-anchor="middle" x="722.5" y="-141.5" font-family="Helvetica,sans-Serif" font-size="10.00" fill="#000000">string</text>
</g>
<!-- Node1&#45;&gt;Node8 -->
<g id="edge8" class="edge">
<title>Node1&#45;&gt;Node8</title>
<path fill="none" stroke="#191970" d="M326.5723,-260.6697C273.3586,-250.4579 188.1998,-227.6006 222.5,-190 254.2039,-155.2455 587.9404,-146.3956 691.8165,-144.4748"/>
<polygon fill="#191970" stroke="#191970" points="692.0209,-147.9718 701.9576,-144.296 691.8975,-140.9729 692.0209,-147.9718"/>
</g>
<!-- Node10 -->
<g id="node11" class="node">
<title>Node10</title>
<polygon fill="none" stroke="#bfbfbf" points="1054,-73 1054,-92 1157,-92 1157,-73 1054,-73"/>
<text text-anchor="middle" x="1105.5" y="-80" font-family="Helvetica,sans-Serif" font-size="10.00" fill="#000000">deal.II/base/types.h</text>
</g>
<!-- Node9&#45;&gt;Node10 -->
<g id="edge10" class="edge">
<title>Node9&#45;&gt;Node10</title>
<path fill="none" stroke="#191970" d="M1300.5873,-257.3407C1307.5639,-233.4683 1321.7649,-170.9527 1292.5,-134 1284.1037,-123.3981 1212.6068,-105.822 1160.5102,-94.1996"/>
<polygon fill="#191970" stroke="#191970" points="1161.2211,-90.7724 1150.7012,-92.0301 1159.7094,-97.6072 1161.2211,-90.7724"/>
</g>
<!-- Node11 -->
<g id="node12" class="node">
<title>Node11</title>
<polygon fill="none" stroke="#bfbfbf" points="2121.5,-73 2121.5,-92 2237.5,-92 2237.5,-73 2121.5,-73"/>
<text text-anchor="middle" x="2179.5" y="-80" font-family="Helvetica,sans-Serif" font-size="10.00" fill="#000000">deal.II/lac/full_matrix.h</text>
</g>
<!-- Node9&#45;&gt;Node11 -->
<g id="edge11" class="edge">
<title>Node9&#45;&gt;Node11</title>
<path fill="none" stroke="#191970" d="M1327.525,-261.032C1434.4406,-239.7258 1806.5614,-165.0992 2112.5,-98 2117.8208,-96.833 2123.3731,-95.5897 2128.9055,-94.3343"/>
<polygon fill="#191970" stroke="#191970" points="2129.8193,-97.7158 2138.7879,-92.0754 2128.2594,-90.8918 2129.8193,-97.7158"/>
</g>
<!-- Node12 -->
<g id="node13" class="node">
<title>Node12</title>
<polygon fill="none" stroke="#bfbfbf" points="2256,-67.5 2256,-97.5 2347,-97.5 2347,-67.5 2256,-67.5"/>
<text text-anchor="start" x="2264" y="-85.5" font-family="Helvetica,sans-Serif" font-size="10.00" fill="#000000">deal.II/lac/lapack</text>
<text text-anchor="middle" x="2301.5" y="-74.5" font-family="Helvetica,sans-Serif" font-size="10.00" fill="#000000">_full_matrix.h</text>
</g>
<!-- Node9&#45;&gt;Node12 -->
<g id="edge12" class="edge">
<title>Node9&#45;&gt;Node12</title>
<path fill="none" stroke="#191970" d="M1327.6382,-263.0966C1383.932,-255.6984 1508.8326,-238.777 1613.5,-221 1892.7379,-173.5734 1965.9618,-164.4704 2245.9108,-98.0358"/>
<polygon fill="#191970" stroke="#191970" points="2247.0376,-101.3656 2255.9573,-95.6482 2245.419,-94.5553 2247.0376,-101.3656"/>
</g>
<!-- Node13 -->
<g id="node14" class="node">
<title>Node13</title>
<polygon fill="none" stroke="#bfbfbf" points="1429,-.5 1429,-30.5 1520,-30.5 1520,-.5 1429,-.5"/>
<text text-anchor="start" x="1437" y="-18.5" font-family="Helvetica,sans-Serif" font-size="10.00" fill="#000000">deal.II/lac/lapack</text>
<text text-anchor="middle" x="1474.5" y="-7.5" font-family="Helvetica,sans-Serif" font-size="10.00" fill="#000000">_support.h</text>
</g>
<!-- Node9&#45;&gt;Node13 -->
<g id="edge13" class="edge">
<title>Node9&#45;&gt;Node13</title>
<path fill="none" stroke="#191970" d="M1327.7209,-265.014C1503.6259,-253.1492 2390.3433,-189.0572 2465.5,-98 2474.2703,-87.3742 2474.9862,-76.992 2465.5,-67 2433.1279,-32.9019 1735.1703,-19.5063 1530.4586,-16.3023"/>
<polygon fill="#191970" stroke="#191970" points="1530.287,-12.7993 1520.2341,-16.1443 1530.1788,-19.7984 1530.287,-12.7993"/>
</g>
<!-- Node14 -->
<g id="node15" class="node">
<title>Node14</title>
<polygon fill="none" stroke="#bfbfbf" points="2365,-67.5 2365,-97.5 2456,-97.5 2456,-67.5 2365,-67.5"/>
<text text-anchor="start" x="2373" y="-85.5" font-family="Helvetica,sans-Serif" font-size="10.00" fill="#000000">deal.II/lac/lapack</text>
<text text-anchor="middle" x="2410.5" y="-74.5" font-family="Helvetica,sans-Serif" font-size="10.00" fill="#000000">_templates.h</text>
</g>
<!-- Node9&#45;&gt;Node14 -->
<g id="edge14" class="edge">
<title>Node9&#45;&gt;Node14</title>
<path fill="none" stroke="#191970" d="M1327.7284,-264.5503C1397.0503,-258.7462 1572.7293,-242.9778 1718.5,-221 2000.7035,-178.4523 2073.9516,-165.5384 2354.8305,-98.3095"/>
<polygon fill="#191970" stroke="#191970" points="2356.001,-101.6282 2364.9105,-95.8949 2354.3703,-94.8208 2356.001,-101.6282"/>
</g>
<!-- Node15 -->
<g id="node16" class="node">
<title>Node15</title>
<polygon fill="none" stroke="#bfbfbf" points="733.5,-196 733.5,-215 777.5,-215 777.5,-196 733.5,-196"/>
<text text-anchor="middle" x="755.5" y="-203" font-family="Helvetica,sans-Serif" font-size="10.00" fill="#000000">cmath</text>
</g>
<!-- Node9&#45;&gt;Node15 -->
<g id="edge15" class="edge">
<title>Node9&#45;&gt;Node15</title>
<path fill="none" stroke="#191970" d="M1267.1747,-265.499C1172.3804,-260.6101 882.5548,-244.1157 791.5,-221 789.0185,-220.37 786.4887,-219.5904 783.9785,-218.7187"/>
<polygon fill="#191970" stroke="#191970" points="785.1254,-215.4091 774.5376,-215.0226 782.5734,-221.9274 785.1254,-215.4091"/>
</g>
<!-- Node16 -->
<g id="node17" class="node">
<title>Node16</title>
<polygon fill="none" stroke="#bfbfbf" points="1001,-73 1001,-92 1036,-92 1036,-73 1001,-73"/>
<text text-anchor="middle" x="1018.5" y="-80" font-family="Helvetica,sans-Serif" font-size="10.00" fill="#000000">map</text>
</g>
<!-- Node9&#45;&gt;Node16 -->
<g id="edge16" class="edge">
<title>Node9&#45;&gt;Node16</title>
<path fill="none" stroke="#191970" d="M1297.9459,-257.1746C1298.4894,-232.3607 1296.1981,-166.8141 1259.5,-134 1187.6028,-69.7123 1136.3002,-130.5185 1045.5,-98 1044.2978,-97.5695 1043.0876,-97.0864 1041.8811,-96.5641"/>
<polygon fill="#191970" stroke="#191970" points="1043.4008,-93.4106 1032.8982,-92.0156 1040.2386,-99.6556 1043.4008,-93.4106"/>
</g>
<!-- Node17 -->
<g id="node18" class="node">
<title>Node17</title>
<polygon fill="none" stroke="#bfbfbf" points="749.5,-73 749.5,-92 793.5,-92 793.5,-73 749.5,-73"/>
<text text-anchor="middle" x="771.5" y="-80" font-family="Helvetica,sans-Serif" font-size="10.00" fill="#000000">vector</text>
</g>
<!-- Node9&#45;&gt;Node17 -->
<g id="edge17" class="edge">
<title>Node9&#45;&gt;Node17</title>
<path fill="none" stroke="#191970" d="M1267.163,-263.6372C1149.6919,-250.3127 729.4211,-199.7222 692.5,-154 673.6238,-130.6241 710.5007,-108.1288 739.9828,-94.8064"/>
<polygon fill="#191970" stroke="#191970" points="741.4259,-97.9956 749.215,-90.8137 738.6473,-91.5707 741.4259,-97.9956"/>
</g>
<!-- Node18 -->
<g id="node19" class="node">
<title>Node18</title>
<g id="a_node19"><a xlink:href="lapack__full__matrix__ext_8h_source.html" target="_top" xlink:title="lapack_full_matrix\l_ext.h">
<polygon fill="none" stroke="#000000" points="1012,-190.5 1012,-220.5 1107,-220.5 1107,-190.5 1012,-190.5"/>
<text text-anchor="start" x="1020" y="-208.5" font-family="Helvetica,sans-Serif" font-size="10.00" fill="#000000">lapack_full_matrix</text>
<text text-anchor="middle" x="1059.5" y="-197.5" font-family="Helvetica,sans-Serif" font-size="10.00" fill="#000000">_ext.h</text>
</a>
</g>
</g>
<!-- Node9&#45;&gt;Node18 -->
<g id="edge18" class="edge">
<title>Node9&#45;&gt;Node18</title>
<path fill="none" stroke="#191970" d="M1267.3571,-259.211C1229.6383,-249.4643 1164.2479,-232.5672 1116.8652,-220.3234"/>
<polygon fill="#191970" stroke="#191970" points="1117.6017,-216.8988 1107.044,-217.7855 1115.8503,-223.6762 1117.6017,-216.8988"/>
</g>
<!-- Node18&#45;&gt;Node8 -->
<g id="edge23" class="edge">
<title>Node18&#45;&gt;Node8</title>
<path fill="none" stroke="#191970" d="M1011.8449,-199.0195C952.0613,-190.5131 846.5753,-174.2562 757.5,-154 756.0365,-153.6672 754.5433,-153.3101 753.0385,-152.936"/>
<polygon fill="#191970" stroke="#191970" points="753.6951,-149.489 743.1314,-150.2997 751.895,-156.2536 753.6951,-149.489"/>
</g>
<!-- Node18&#45;&gt;Node16 -->
<g id="edge20" class="edge">
<title>Node18&#45;&gt;Node16</title>
<path fill="none" stroke="#191970" d="M1107.2149,-192.8208C1143.2033,-180.8213 1183.2531,-160.6783 1163.5,-134 1130.8724,-89.9335 1095.8165,-119.787 1045.5,-98 1044.6537,-97.6336 1043.8003,-97.2471 1042.9444,-96.8449"/>
<polygon fill="#191970" stroke="#191970" points="1044.3823,-93.6475 1033.8966,-92.1304 1041.1475,-99.8553 1044.3823,-93.6475"/>
</g>
<!-- Node18&#45;&gt;Node17 -->
<g id="edge24" class="edge">
<title>Node18&#45;&gt;Node17</title>
<path fill="none" stroke="#191970" d="M1011.8114,-202.2829C943.6237,-196.7204 823.0061,-182.9968 791.5,-154 777.3211,-140.9503 772.8819,-118.7581 771.6424,-102.5519"/>
<polygon fill="#191970" stroke="#191970" points="775.1357,-102.3172 771.215,-92.4745 768.1419,-102.6139 775.1357,-102.3172"/>
</g>
<!-- Node19 -->
<g id="node20" class="node">
<title>Node19</title>
<polygon fill="none" stroke="#bfbfbf" points="1210.5,-134.5 1210.5,-153.5 1250.5,-153.5 1250.5,-134.5 1210.5,-134.5"/>
<text text-anchor="middle" x="1230.5" y="-141.5" font-family="Helvetica,sans-Serif" font-size="10.00" fill="#000000">limits</text>
</g>
<!-- Node18&#45;&gt;Node19 -->
<g id="edge19" class="edge">
<title>Node18&#45;&gt;Node19</title>
<path fill="none" stroke="#191970" d="M1101.3313,-190.4554C1132.1527,-179.3705 1173.3232,-164.5636 1200.8166,-154.6756"/>
<polygon fill="#191970" stroke="#191970" points="1202.0571,-157.949 1210.2825,-151.2712 1199.688,-151.3621 1202.0571,-157.949"/>
</g>
<!-- Node20 -->
<g id="node21" class="node">
<title>Node20</title>
<polygon fill="none" stroke="#bfbfbf" points="927,-134.5 927,-153.5 968,-153.5 968,-134.5 927,-134.5"/>
<text text-anchor="middle" x="947.5" y="-141.5" font-family="Helvetica,sans-Serif" font-size="10.00" fill="#000000">regex</text>
</g>
<!-- Node18&#45;&gt;Node20 -->
<g id="edge21" class="edge">
<title>Node18&#45;&gt;Node20</title>
<path fill="none" stroke="#191970" d="M1032.1017,-190.4554C1014.3978,-180.734 991.4805,-168.15 973.9642,-158.5317"/>
<polygon fill="#191970" stroke="#191970" points="975.3061,-155.2756 964.856,-153.5303 971.9369,-161.4115 975.3061,-155.2756"/>
</g>
<!-- Node21 -->
<g id="node22" class="node">
<title>Node21</title>
<polygon fill="none" stroke="#bfbfbf" points="986.5,-134.5 986.5,-153.5 1038.5,-153.5 1038.5,-134.5 986.5,-134.5"/>
<text text-anchor="middle" x="1012.5" y="-141.5" font-family="Helvetica,sans-Serif" font-size="10.00" fill="#000000">sstream</text>
</g>
<!-- Node18&#45;&gt;Node21 -->
<g id="edge22" class="edge">
<title>Node18&#45;&gt;Node21</title>
<path fill="none" stroke="#191970" d="M1047.882,-190.2977C1041.29,-181.672 1033.0052,-170.8312 1026.1099,-161.8087"/>
<polygon fill="#191970" stroke="#191970" points="1028.8783,-159.6671 1020.0253,-153.8469 1023.3165,-163.9176 1028.8783,-159.6671"/>
</g>
<!-- Node22 -->
<g id="node23" class="node">
<title>Node22</title>
<g id="a_node23"><a xlink:href="general__exceptions_8h.html" target="_top" xlink:title="Definition of self&#45;defined general exceptions. ">
<polygon fill="none" stroke="#000000" points="800,-134.5 800,-153.5 909,-153.5 909,-134.5 800,-134.5"/>
<text text-anchor="middle" x="854.5" y="-141.5" font-family="Helvetica,sans-Serif" font-size="10.00" fill="#000000">general_exceptions.h</text>
</a>
</g>
</g>
<!-- Node18&#45;&gt;Node22 -->
<g id="edge25" class="edge">
<title>Node18&#45;&gt;Node22</title>
<path fill="none" stroke="#191970" d="M1011.9536,-191.2361C977.0094,-180.7528 929.967,-166.6401 896.4234,-156.577"/>
<polygon fill="#191970" stroke="#191970" points="897.059,-153.1136 886.475,-153.5925 895.0475,-159.8184 897.059,-153.1136"/>
</g>
<!-- Node24 -->
<g id="node25" class="node">
<title>Node24</title>
<g id="a_node25"><a xlink:href="generic__functors_8h.html" target="_top" xlink:title="This header file contains a set of self&#45;defined generic functors. ">
<polygon fill="none" stroke="#000000" points="1057,-134.5 1057,-153.5 1154,-153.5 1154,-134.5 1057,-134.5"/>
<text text-anchor="middle" x="1105.5" y="-141.5" font-family="Helvetica,sans-Serif" font-size="10.00" fill="#000000">generic_functors.h</text>
</a>
</g>
</g>
<!-- Node18&#45;&gt;Node24 -->
<g id="edge27" class="edge">
<title>Node18&#45;&gt;Node24</title>
<path fill="none" stroke="#191970" d="M1070.8708,-190.2977C1077.2561,-181.7609 1085.2641,-171.0545 1091.9705,-162.0883"/>
<polygon fill="#191970" stroke="#191970" points="1094.9479,-163.9511 1098.1348,-153.8469 1089.3425,-159.7584 1094.9479,-163.9511"/>
</g>
<!-- Node25 -->
<g id="node26" class="node">
<title>Node25</title>
<g id="a_node26"><a xlink:href="lapack__helpers_8h.html" target="_top" xlink:title="Exposes LAPACK helper functions defined in lapack_full_matrix.cc and define new ones by following the...">
<polygon fill="none" stroke="#000000" points="1654.5,-134.5 1654.5,-153.5 1744.5,-153.5 1744.5,-134.5 1654.5,-134.5"/>
<text text-anchor="middle" x="1699.5" y="-141.5" font-family="Helvetica,sans-Serif" font-size="10.00" fill="#000000">lapack_helpers.h</text>
</a>
</g>
</g>
<!-- Node18&#45;&gt;Node25 -->
<g id="edge33" class="edge">
<title>Node18&#45;&gt;Node25</title>
<path fill="none" stroke="#191970" d="M1107.0812,-200.9277C1223.1701,-189.7723 1520.4497,-161.2056 1644.1743,-149.3164"/>
<polygon fill="#191970" stroke="#191970" points="1644.5703,-152.7946 1654.1896,-148.354 1643.9006,-145.8267 1644.5703,-152.7946"/>
</g>
<!-- Node23 -->
<g id="node24" class="node">
<title>Node23</title>
<polygon fill="none" stroke="#bfbfbf" points="815.5,-73 815.5,-92 941.5,-92 941.5,-73 815.5,-73"/>
<text text-anchor="middle" x="878.5" y="-80" font-family="Helvetica,sans-Serif" font-size="10.00" fill="#000000">deal.II/base/exceptions.h</text>
</g>
<!-- Node22&#45;&gt;Node23 -->
<g id="edge26" class="edge">
<title>Node22&#45;&gt;Node23</title>
<path fill="none" stroke="#191970" d="M858.25,-134.3906C861.6468,-125.6862 866.7531,-112.6015 870.988,-101.7494"/>
<polygon fill="#191970" stroke="#191970" points="874.3222,-102.8331 874.6971,-92.2449 867.8011,-100.2882 874.3222,-102.8331"/>
</g>
<!-- Node24&#45;&gt;Node10 -->
<g id="edge29" class="edge">
<title>Node24&#45;&gt;Node10</title>
<path fill="none" stroke="#191970" d="M1105.5,-134.3906C1105.5,-125.8657 1105.5,-113.1392 1105.5,-102.4235"/>
<polygon fill="#191970" stroke="#191970" points="1109.0001,-102.2448 1105.5,-92.2449 1102.0001,-102.2449 1109.0001,-102.2448"/>
</g>
<!-- Node24&#45;&gt;Node13 -->
<g id="edge30" class="edge">
<title>Node24&#45;&gt;Node13</title>
<path fill="none" stroke="#191970" d="M1070.6019,-134.4435C1040.8995,-125.5209 1001.632,-111.5771 992.5,-98 984.8105,-86.5676 983.2897,-77.2468 992.5,-67 1020.5499,-35.7934 1297.4314,-21.9535 1418.415,-17.3611"/>
<polygon fill="#191970" stroke="#191970" points="1418.7231,-20.8521 1428.5862,-16.9829 1418.463,-13.857 1418.7231,-20.8521"/>
</g>
<!-- Node24&#45;&gt;Node16 -->
<g id="edge31" class="edge">
<title>Node24&#45;&gt;Node16</title>
<path fill="none" stroke="#191970" d="M1091.9063,-134.3906C1078.1157,-124.6421 1056.5528,-109.3994 1040.359,-97.9521"/>
<polygon fill="#191970" stroke="#191970" points="1042.1844,-94.9563 1031.9983,-92.0419 1038.1437,-100.6723 1042.1844,-94.9563"/>
</g>
<!-- Node24&#45;&gt;Node17 -->
<g id="edge32" class="edge">
<title>Node24&#45;&gt;Node17</title>
<path fill="none" stroke="#191970" d="M1056.779,-135.5182C1053.6402,-134.997 1050.5265,-134.4869 1047.5,-134 940.5753,-116.7985 910.504,-128.1986 806.5,-98 804.374,-97.3827 802.2086,-96.6636 800.0502,-95.8796"/>
<polygon fill="#191970" stroke="#191970" points="801.358,-92.6332 790.7746,-92.1419 798.7417,-99.1259 801.358,-92.6332"/>
</g>
<!-- Node24&#45;&gt;Node23 -->
<g id="edge28" class="edge">
<title>Node24&#45;&gt;Node23</title>
<path fill="none" stroke="#191970" d="M1070.0313,-134.3906C1030.5507,-123.6944 966.6557,-106.3836 923.6395,-94.7294"/>
<polygon fill="#191970" stroke="#191970" points="924.287,-91.2787 913.7197,-92.0419 922.4565,-98.0352 924.287,-91.2787"/>
</g>
<!-- Node25&#45;&gt;Node11 -->
<g id="edge37" class="edge">
<title>Node25&#45;&gt;Node11</title>
<path fill="none" stroke="#191970" d="M1744.6587,-140.7015C1820.8673,-134.749 1979.6921,-120.6789 2112.5,-98 2118.7559,-96.9317 2125.3025,-95.6388 2131.7494,-94.2606"/>
<polygon fill="#191970" stroke="#191970" points="2132.7369,-97.6267 2141.742,-92.0446 2131.2214,-90.7927 2132.7369,-97.6267"/>
</g>
<!-- Node25&#45;&gt;Node12 -->
<g id="edge38" class="edge">
<title>Node25&#45;&gt;Node12</title>
<path fill="none" stroke="#191970" d="M1744.5494,-143.1125C1836.9602,-140.6687 2054.6294,-131.7098 2245.7906,-97.889"/>
<polygon fill="#191970" stroke="#191970" points="2246.5133,-101.3152 2255.7369,-96.1022 2245.2756,-94.4255 2246.5133,-101.3152"/>
</g>
<!-- Node25&#45;&gt;Node13 -->
<g id="edge39" class="edge">
<title>Node25&#45;&gt;Node13</title>
<path fill="none" stroke="#191970" d="M1654.0791,-143.1901C1537.4529,-140.6424 1234.4768,-130.8917 1204.5,-98 1195.2193,-87.8169 1195.7176,-77.6159 1204.5,-67 1231.1368,-34.8023 1347.696,-22.5557 1418.6739,-18.0315"/>
<polygon fill="#191970" stroke="#191970" points="1419.029,-21.5165 1428.7992,-17.4186 1418.6059,-14.5293 1419.029,-21.5165"/>
</g>
<!-- Node25&#45;&gt;Node14 -->
<g id="edge40" class="edge">
<title>Node25&#45;&gt;Node14</title>
<path fill="none" stroke="#191970" d="M1744.5209,-142.0793C1869.5225,-136.5558 2219.9955,-119.7287 2354.8957,-97.9969"/>
<polygon fill="#191970" stroke="#191970" points="2355.7164,-101.4079 2364.9923,-96.2886 2354.5485,-94.506 2355.7164,-101.4079"/>
</g>
<!-- Node26 -->
<g id="node27" class="node">
<title>Node26</title>
<polygon fill="none" stroke="#bfbfbf" points="1841.5,-73 1841.5,-92 1957.5,-92 1957.5,-73 1841.5,-73"/>
<text text-anchor="middle" x="1899.5" y="-80" font-family="Helvetica,sans-Serif" font-size="10.00" fill="#000000">deal.II/base/numbers.h</text>
</g>
<!-- Node25&#45;&gt;Node26 -->
<g id="edge34" class="edge">
<title>Node25&#45;&gt;Node26</title>
<path fill="none" stroke="#191970" d="M1730.75,-134.3906C1765.2411,-123.7846 1820.8812,-106.6753 1858.7662,-95.0257"/>
<polygon fill="#191970" stroke="#191970" points="1859.9399,-98.3266 1868.4694,-92.0419 1857.8824,-91.6357 1859.9399,-98.3266"/>
</g>
<!-- Node27 -->
<g id="node28" class="node">
<title>Node27</title>
<polygon fill="none" stroke="#bfbfbf" points="1975.5,-67.5 1975.5,-97.5 2103.5,-97.5 2103.5,-67.5 1975.5,-67.5"/>
<text text-anchor="start" x="1983.5" y="-85.5" font-family="Helvetica,sans-Serif" font-size="10.00" fill="#000000">deal.II/lac/blas_extension</text>
<text text-anchor="middle" x="2039.5" y="-74.5" font-family="Helvetica,sans-Serif" font-size="10.00" fill="#000000">_templates.h</text>
</g>
<!-- Node25&#45;&gt;Node27 -->
<g id="edge35" class="edge">
<title>Node25&#45;&gt;Node27</title>
<path fill="none" stroke="#191970" d="M1744.9498,-136.7184C1796.1351,-128.3959 1882.0414,-114.062 1965.5309,-98.1468"/>
<polygon fill="#191970" stroke="#191970" points="1966.2716,-101.5686 1975.4343,-96.2491 1964.9542,-94.6936 1966.2716,-101.5686"/>
</g>
<!-- Node28 -->
<g id="node29" class="node">
<title>Node28</title>
<polygon fill="none" stroke="#bfbfbf" points="1213.5,-73 1213.5,-92 1339.5,-92 1339.5,-73 1213.5,-73"/>
<text text-anchor="middle" x="1276.5" y="-80" font-family="Helvetica,sans-Serif" font-size="10.00" fill="#000000">deal.II/lac/block_vector.h</text>
</g>
<!-- Node25&#45;&gt;Node28 -->
<g id="edge36" class="edge">
<title>Node25&#45;&gt;Node28</title>
<path fill="none" stroke="#191970" d="M1654.4423,-139.2877C1587.4711,-132.0142 1457.8115,-116.8965 1348.5,-98 1341.8124,-96.8439 1334.8028,-95.5009 1327.8923,-94.0982"/>
<polygon fill="#191970" stroke="#191970" points="1328.3908,-90.627 1317.8873,-92.0152 1326.964,-97.4801 1328.3908,-90.627"/>
</g>
<!-- Node29 -->
<g id="node30" class="node">
<title>Node29</title>
<polygon fill="none" stroke="#bfbfbf" points="1357.5,-67.5 1357.5,-97.5 1449.5,-97.5 1449.5,-67.5 1357.5,-67.5"/>
<text text-anchor="start" x="1365.5" y="-85.5" font-family="Helvetica,sans-Serif" font-size="10.00" fill="#000000">deal.II/lac/sparse</text>
<text text-anchor="middle" x="1403.5" y="-74.5" font-family="Helvetica,sans-Serif" font-size="10.00" fill="#000000">_matrix.h</text>
</g>
<!-- Node25&#45;&gt;Node29 -->
<g id="edge41" class="edge">
<title>Node25&#45;&gt;Node29</title>
<path fill="none" stroke="#191970" d="M1654.152,-136.4322C1605.7229,-128.0886 1526.8366,-113.745 1459.5,-98 1459.3987,-97.9763 1459.2973,-97.9526 1459.1958,-97.9288"/>
<polygon fill="#191970" stroke="#191970" points="1460.1151,-94.5505 1449.5692,-95.5683 1458.448,-101.3492 1460.1151,-94.5505"/>
</g>
<!-- Node30 -->
<g id="node31" class="node">
<title>Node30</title>
<polygon fill="none" stroke="#bfbfbf" points="1468,-73 1468,-92 1569,-92 1569,-73 1468,-73"/>
<text text-anchor="middle" x="1518.5" y="-80" font-family="Helvetica,sans-Serif" font-size="10.00" fill="#000000">deal.II/lac/utilities.h</text>
</g>
<!-- Node25&#45;&gt;Node30 -->
<g id="edge42" class="edge">
<title>Node25&#45;&gt;Node30</title>
<path fill="none" stroke="#191970" d="M1671.2188,-134.3906C1640.27,-123.8749 1590.5058,-106.966 1556.243,-95.3243"/>
<polygon fill="#191970" stroke="#191970" points="1557.1771,-91.9452 1546.5827,-92.0419 1554.925,-98.573 1557.1771,-91.9452"/>
</g>
<!-- Node31 -->
<g id="node32" class="node">
<title>Node31</title>
<polygon fill="none" stroke="#bfbfbf" points="1587.5,-73 1587.5,-92 1685.5,-92 1685.5,-73 1587.5,-73"/>
<text text-anchor="middle" x="1636.5" y="-80" font-family="Helvetica,sans-Serif" font-size="10.00" fill="#000000">deal.II/lac/vector.h</text>
</g>
<!-- Node25&#45;&gt;Node31 -->
<g id="edge43" class="edge">
<title>Node25&#45;&gt;Node31</title>
<path fill="none" stroke="#191970" d="M1689.6563,-134.3906C1680.0961,-125.0581 1665.3777,-110.6902 1653.8505,-99.4374"/>
<polygon fill="#191970" stroke="#191970" points="1656.0832,-96.7257 1646.4825,-92.2449 1651.1934,-101.7348 1656.0832,-96.7257"/>
</g>
<!-- Node32 -->
<g id="node33" class="node">
<title>Node32</title>
<g id="a_node33"><a xlink:href="lapack__templates__ext_8h.html" target="_top" xlink:title="Append more template based LAPACK functions to those existing in deal.ii. ">
<polygon fill="none" stroke="#000000" points="1703.5,-73 1703.5,-92 1823.5,-92 1823.5,-73 1703.5,-73"/>
<text text-anchor="middle" x="1763.5" y="-80" font-family="Helvetica,sans-Serif" font-size="10.00" fill="#000000">lapack_templates_ext.h</text>
</a>
</g>
</g>
<!-- Node25&#45;&gt;Node32 -->
<g id="edge44" class="edge">
<title>Node25&#45;&gt;Node32</title>
<path fill="none" stroke="#191970" d="M1709.5,-134.3906C1719.2119,-125.0581 1734.1639,-110.6902 1745.8741,-99.4374"/>
<polygon fill="#191970" stroke="#191970" points="1748.5736,-101.6974 1753.359,-92.2449 1743.7234,-96.65 1748.5736,-101.6974"/>
</g>
<!-- Node32&#45;&gt;Node13 -->
<g id="edge45" class="edge">
<title>Node32&#45;&gt;Node13</title>
<path fill="none" stroke="#191970" d="M1722.4003,-72.9717C1671.9762,-61.2817 1586.2757,-41.4134 1530.0257,-28.3727"/>
<polygon fill="#191970" stroke="#191970" points="1530.7583,-24.9498 1520.2262,-26.1009 1529.1774,-31.769 1530.7583,-24.9498"/>
</g>
</g>
</svg>
        <g id="navigator" transform="translate(0 0)" fill="#404254">
                <rect fill="#f2f5e9" fill-opacity="0.5" stroke="#606060" stroke-width=".5" x="0" y="0" width="60" height="60"/>
                <use id="zoomplus" xlink:href="#zoomPlus" x="17" y="9" onmousedown="handleZoom(evt,'in')"/>
                <use id="zoomminus" xlink:href="#zoomMin" x="42" y="9" onmousedown="handleZoom(evt,'out')"/>
                <use id="reset" xlink:href="#resetDef" x="30" y="36" onmousedown="handleReset()"/>
                <g id="arrowUp" xlink:href="#dirArrow" transform="translate(30 24)" onmousedown="handlePan(0,-1)">
                  <use xlink:href="#rim" fill="#404040">
                        <set attributeName="fill" to="#808080" begin="arrowUp.mouseover" end="arrowUp.mouseout"/>
                  </use>
                  <path fill="none" stroke="white" stroke-width="1.5" d="M0,-3.0v7 M-2.5,-0.5L0,-3.0L2.5,-0.5"/>
                </g>
                <g id="arrowRight" xlink:href="#dirArrow" transform="rotate(90) translate(36 -43)" onmousedown="handlePan(1,0)">
                  <use xlink:href="#rim" fill="#404040">
                        <set attributeName="fill" to="#808080" begin="arrowRight.mouseover" end="arrowRight.mouseout"/>
                  </use>
                  <path fill="none" stroke="white" stroke-width="1.5" d="M0,-3.0v7 M-2.5,-0.5L0,-3.0L2.5,-0.5"/>
                </g>
                <g id="arrowDown" xlink:href="#dirArrow" transform="rotate(180) translate(-30 -48)" onmousedown="handlePan(0,1)">
                  <use xlink:href="#rim" fill="#404040">
                        <set attributeName="fill" to="#808080" begin="arrowDown.mouseover" end="arrowDown.mouseout"/>
                  </use>
                  <path fill="none" stroke="white" stroke-width="1.5" d="M0,-3.0v7 M-2.5,-0.5L0,-3.0L2.5,-0.5"/>
                </g>
                <g id="arrowLeft" xlink:href="#dirArrow" transform="rotate(270) translate(-36 17)" onmousedown="handlePan(-1,0)">
                  <use xlink:href="#rim" fill="#404040">
                        <set attributeName="fill" to="#808080" begin="arrowLeft.mouseover" end="arrowLeft.mouseout"/>
                  </use>
                  <path fill="none" stroke="white" stroke-width="1.5" d="M0,-3.0v7 M-2.5,-0.5L0,-3.0L2.5,-0.5"/>
                </g>
        </g>
        <svg viewBox="0 0 15 15" width="100%" height="30px" preserveAspectRatio="xMaxYMin meet">
         <g id="arrow_out" transform="scale(0.3 0.3)">
          <a xlink:href="rkmatrix-truncate-to-rank_8cc__incl_org.svg" target="_base">
           <rect id="button" ry="5" rx="5" y="6" x="6" height="38" width="38"
                fill="#f2f5e9" fill-opacity="0.5" stroke="#606060" stroke-width="1.0"/>
           <path id="arrow"
             d="M 11.500037,31.436501 C 11.940474,20.09759 22.043105,11.32322 32.158766,21.979434 L 37.068811,17.246167 C 37.068811,17.246167 37.088388,32 37.088388,32 L 22.160133,31.978069 C 22.160133,31.978069 26.997745,27.140456 26.997745,27.140456 C 18.528582,18.264221 13.291696,25.230495 11.500037,31.436501 z"
             style="fill:#404040;"/>
          </a>
         </g>
        </svg>
</svg>
