<?xml version="1.0" encoding="UTF-8" standalone="no"?>
<!DOCTYPE svg PUBLIC "-//W3C//DTD SVG 1.1//EN"
 "http://www.w3.org/Graphics/SVG/1.1/DTD/svg11.dtd">
<!-- Generated by graphviz version 2.40.1 (20161225.0304)
 -->
<!-- Title: /home/jihuan/Projects/deal.ii/program/dealii&#45;9.1.1/examples/laplace&#45;bem/tests/rkmatrix&#45;global&#45;to&#45;rkmatrix/rkmatrix&#45;global&#45;to&#45;rkmatrix.cc Pages: 1 -->
<svg width="1366pt" height="329pt"
 viewBox="0.00 0.00 1366.00 329.00" xmlns="http://www.w3.org/2000/svg" xmlns:xlink="http://www.w3.org/1999/xlink">
<g id="graph0" class="graph" transform="scale(1 1) rotate(0) translate(4 325)">
<title>/home/jihuan/Projects/deal.ii/program/dealii&#45;9.1.1/examples/laplace&#45;bem/tests/rkmatrix&#45;global&#45;to&#45;rkmatrix/rkmatrix&#45;global&#45;to&#45;rkmatrix.cc</title>
<!-- Node0 -->
<g id="node1" class="node">
<title>Node0</title>
<polygon fill="#bfbfbf" stroke="#000000" points="332.5,-246.5 332.5,-320.5 465.5,-320.5 465.5,-246.5 332.5,-246.5"/>
<text text-anchor="start" x="340.5" y="-308.5" font-family="Helvetica,sans-Serif" font-size="10.00" fill="#000000">/home/jihuan/Projects</text>
<text text-anchor="start" x="340.5" y="-297.5" font-family="Helvetica,sans-Serif" font-size="10.00" fill="#000000">/deal.ii/program/dealii</text>
<text text-anchor="start" x="340.5" y="-286.5" font-family="Helvetica,sans-Serif" font-size="10.00" fill="#000000">&#45;9.1.1/examples/laplace</text>
<text text-anchor="start" x="340.5" y="-275.5" font-family="Helvetica,sans-Serif" font-size="10.00" fill="#000000">&#45;bem/tests/rkmatrix&#45;global</text>
<text text-anchor="start" x="340.5" y="-264.5" font-family="Helvetica,sans-Serif" font-size="10.00" fill="#000000">&#45;to&#45;rkmatrix/rkmatrix&#45;global</text>
<text text-anchor="middle" x="399" y="-253.5" font-family="Helvetica,sans-Serif" font-size="10.00" fill="#000000">&#45;to&#45;rkmatrix.cc</text>
</g>
<!-- Node1 -->
<g id="node2" class="node">
<title>Node1</title>
<g id="a_node2"><a xlink:href="rkmatrix_8h.html" target="_top" xlink:title="Definition of rank&#45;k matrix. ">
<polygon fill="none" stroke="#000000" points="332,-190.5 332,-209.5 392,-209.5 392,-190.5 332,-190.5"/>
<text text-anchor="middle" x="362" y="-197.5" font-family="Helvetica,sans-Serif" font-size="10.00" fill="#000000">rkmatrix.h</text>
</a>
</g>
</g>
<!-- Node0&#45;&gt;Node1 -->
<g id="edge1" class="edge">
<title>Node0&#45;&gt;Node1</title>
<path fill="none" stroke="#191970" d="M382.448,-246.1461C378.2811,-236.7424 373.9809,-227.0379 370.4056,-218.9694"/>
<polygon fill="#191970" stroke="#191970" points="373.5805,-217.4948 366.3293,-209.7701 367.1806,-220.3307 373.5805,-217.4948"/>
</g>
<!-- Node20 -->
<g id="node21" class="node">
<title>Node20</title>
<polygon fill="none" stroke="#bfbfbf" points="410,-190.5 410,-209.5 464,-209.5 464,-190.5 410,-190.5"/>
<text text-anchor="middle" x="437" y="-197.5" font-family="Helvetica,sans-Serif" font-size="10.00" fill="#000000">iostream</text>
</g>
<!-- Node0&#45;&gt;Node20 -->
<g id="edge26" class="edge">
<title>Node0&#45;&gt;Node20</title>
<path fill="none" stroke="#191970" d="M415.9994,-246.1461C420.2789,-236.7424 424.6953,-227.0379 428.3672,-218.9694"/>
<polygon fill="#191970" stroke="#191970" points="431.5972,-220.3217 432.5537,-209.7701 425.2259,-217.4222 431.5972,-220.3217"/>
</g>
<!-- Node2 -->
<g id="node3" class="node">
<title>Node2</title>
<polygon fill="none" stroke="#bfbfbf" points="135.5,-129 135.5,-148 238.5,-148 238.5,-129 135.5,-129"/>
<text text-anchor="middle" x="187" y="-136" font-family="Helvetica,sans-Serif" font-size="10.00" fill="#000000">deal.II/base/types.h</text>
</g>
<!-- Node1&#45;&gt;Node2 -->
<g id="edge2" class="edge">
<title>Node1&#45;&gt;Node2</title>
<path fill="none" stroke="#191970" d="M334.6563,-190.3906C304.8618,-179.92 257.0315,-163.1111 223.9192,-151.4745"/>
<polygon fill="#191970" stroke="#191970" points="224.7466,-148.0554 214.1517,-148.0419 222.4257,-154.6595 224.7466,-148.0554"/>
</g>
<!-- Node3 -->
<g id="node4" class="node">
<title>Node3</title>
<polygon fill="none" stroke="#bfbfbf" points="0,-6 0,-25 116,-25 116,-6 0,-6"/>
<text text-anchor="middle" x="58" y="-13" font-family="Helvetica,sans-Serif" font-size="10.00" fill="#000000">deal.II/lac/full_matrix.h</text>
</g>
<!-- Node1&#45;&gt;Node3 -->
<g id="edge3" class="edge">
<title>Node1&#45;&gt;Node3</title>
<path fill="none" stroke="#191970" d="M348.4039,-190.4264C327.0967,-175.5308 284.4032,-146.1166 247,-123 190.257,-87.9306 121.7967,-50.0551 84.8318,-29.9571"/>
<polygon fill="#191970" stroke="#191970" points="86.1666,-26.6995 75.7074,-25.0097 82.8299,-32.8531 86.1666,-26.6995"/>
</g>
<!-- Node4 -->
<g id="node5" class="node">
<title>Node4</title>
<polygon fill="none" stroke="#bfbfbf" points="134.5,-.5 134.5,-30.5 225.5,-30.5 225.5,-.5 134.5,-.5"/>
<text text-anchor="start" x="142.5" y="-18.5" font-family="Helvetica,sans-Serif" font-size="10.00" fill="#000000">deal.II/lac/lapack</text>
<text text-anchor="middle" x="180" y="-7.5" font-family="Helvetica,sans-Serif" font-size="10.00" fill="#000000">_full_matrix.h</text>
</g>
<!-- Node1&#45;&gt;Node4 -->
<g id="edge4" class="edge">
<title>Node1&#45;&gt;Node4</title>
<path fill="none" stroke="#191970" d="M356.5752,-190.4271C340.1609,-161.5592 291.5071,-76.7424 281,-67 266.7519,-53.7888 248.4735,-43.1085 231.3919,-34.9715"/>
<polygon fill="#191970" stroke="#191970" points="232.609,-31.6798 222.0584,-30.7128 229.7032,-38.0482 232.609,-31.6798"/>
</g>
<!-- Node5 -->
<g id="node6" class="node">
<title>Node5</title>
<polygon fill="none" stroke="#bfbfbf" points="243.5,-.5 243.5,-30.5 334.5,-30.5 334.5,-.5 243.5,-.5"/>
<text text-anchor="start" x="251.5" y="-18.5" font-family="Helvetica,sans-Serif" font-size="10.00" fill="#000000">deal.II/lac/lapack</text>
<text text-anchor="middle" x="289" y="-7.5" font-family="Helvetica,sans-Serif" font-size="10.00" fill="#000000">_support.h</text>
</g>
<!-- Node1&#45;&gt;Node5 -->
<g id="edge5" class="edge">
<title>Node1&#45;&gt;Node5</title>
<path fill="none" stroke="#191970" d="M359.6531,-190.3879C354.056,-168.1271 338.8931,-111.5359 319,-67 314.8472,-57.7029 309.4542,-47.9436 304.3881,-39.4512"/>
<polygon fill="#191970" stroke="#191970" points="307.304,-37.511 299.0932,-30.8151 301.3363,-41.1698 307.304,-37.511"/>
</g>
<!-- Node6 -->
<g id="node7" class="node">
<title>Node6</title>
<polygon fill="none" stroke="#bfbfbf" points="352.5,-.5 352.5,-30.5 443.5,-30.5 443.5,-.5 352.5,-.5"/>
<text text-anchor="start" x="360.5" y="-18.5" font-family="Helvetica,sans-Serif" font-size="10.00" fill="#000000">deal.II/lac/lapack</text>
<text text-anchor="middle" x="398" y="-7.5" font-family="Helvetica,sans-Serif" font-size="10.00" fill="#000000">_templates.h</text>
</g>
<!-- Node1&#45;&gt;Node6 -->
<g id="edge6" class="edge">
<title>Node1&#45;&gt;Node6</title>
<path fill="none" stroke="#191970" d="M363.8848,-190.3402C369.3015,-162.5797 385.0392,-81.924 393.1065,-40.579"/>
<polygon fill="#191970" stroke="#191970" points="396.5471,-41.2216 395.0271,-30.7363 389.6767,-39.8809 396.5471,-41.2216"/>
</g>
<!-- Node7 -->
<g id="node8" class="node">
<title>Node7</title>
<polygon fill="none" stroke="#bfbfbf" points="409.5,-67.5 409.5,-86.5 444.5,-86.5 444.5,-67.5 409.5,-67.5"/>
<text text-anchor="middle" x="427" y="-74.5" font-family="Helvetica,sans-Serif" font-size="10.00" fill="#000000">map</text>
</g>
<!-- Node1&#45;&gt;Node7 -->
<g id="edge7" class="edge">
<title>Node1&#45;&gt;Node7</title>
<path fill="none" stroke="#191970" d="M370.0347,-190.2095C377.19,-181.1842 387.6362,-167.224 395,-154 405.4147,-135.2971 414.4748,-112.509 420.2703,-96.5957"/>
<polygon fill="#191970" stroke="#191970" points="423.6961,-97.4067 423.7374,-86.8119 417.0982,-95.0684 423.6961,-97.4067"/>
</g>
<!-- Node8 -->
<g id="node9" class="node">
<title>Node8</title>
<polygon fill="none" stroke="#bfbfbf" points="757,-67.5 757,-86.5 801,-86.5 801,-67.5 757,-67.5"/>
<text text-anchor="middle" x="779" y="-74.5" font-family="Helvetica,sans-Serif" font-size="10.00" fill="#000000">vector</text>
</g>
<!-- Node1&#45;&gt;Node8 -->
<g id="edge8" class="edge">
<title>Node1&#45;&gt;Node8</title>
<path fill="none" stroke="#191970" d="M392.1791,-192.0167C395.1524,-191.3039 398.1302,-190.6189 401,-190 491.4261,-170.4975 517.5257,-181.0099 606,-154 659.8015,-137.5752 718.9699,-108.7069 752.2948,-91.3674"/>
<polygon fill="#191970" stroke="#191970" points="754.1551,-94.3436 761.378,-86.5925 750.8979,-88.1476 754.1551,-94.3436"/>
</g>
<!-- Node9 -->
<g id="node10" class="node">
<title>Node9</title>
<g id="a_node10"><a xlink:href="lapack__full__matrix__ext_8h_source.html" target="_top" xlink:title="lapack_full_matrix\l_ext.h">
<polygon fill="none" stroke="#000000" points="501.5,-123.5 501.5,-153.5 596.5,-153.5 596.5,-123.5 501.5,-123.5"/>
<text text-anchor="start" x="509.5" y="-141.5" font-family="Helvetica,sans-Serif" font-size="10.00" fill="#000000">lapack_full_matrix</text>
<text text-anchor="middle" x="549" y="-130.5" font-family="Helvetica,sans-Serif" font-size="10.00" fill="#000000">_ext.h</text>
</a>
</g>
</g>
<!-- Node1&#45;&gt;Node9 -->
<g id="edge9" class="edge">
<title>Node1&#45;&gt;Node9</title>
<path fill="none" stroke="#191970" d="M391.2188,-190.3906C418.5188,-181.4123 459.9895,-167.7735 493.564,-156.7316"/>
<polygon fill="#191970" stroke="#191970" points="494.8487,-159.9936 503.2547,-153.5446 492.6617,-153.344 494.8487,-159.9936"/>
</g>
<!-- Node9&#45;&gt;Node7 -->
<g id="edge11" class="edge">
<title>Node9&#45;&gt;Node7</title>
<path fill="none" stroke="#191970" d="M519.1554,-123.4554C499.2409,-113.4165 473.2704,-100.3248 453.9766,-90.5989"/>
<polygon fill="#191970" stroke="#191970" points="455.3358,-87.3645 444.8307,-85.9884 452.1847,-93.6152 455.3358,-87.3645"/>
</g>
<!-- Node9&#45;&gt;Node8 -->
<g id="edge12" class="edge">
<title>Node9&#45;&gt;Node8</title>
<path fill="none" stroke="#191970" d="M596.6598,-127.002C634.896,-117.5889 690.1444,-103.5669 746.8451,-87.2263"/>
<polygon fill="#191970" stroke="#191970" points="748.0688,-90.5157 756.6972,-84.3675 746.118,-83.793 748.0688,-90.5157"/>
</g>
<!-- Node10 -->
<g id="node11" class="node">
<title>Node10</title>
<polygon fill="none" stroke="#bfbfbf" points="571,-67.5 571,-86.5 611,-86.5 611,-67.5 571,-67.5"/>
<text text-anchor="middle" x="591" y="-74.5" font-family="Helvetica,sans-Serif" font-size="10.00" fill="#000000">limits</text>
</g>
<!-- Node9&#45;&gt;Node10 -->
<g id="edge10" class="edge">
<title>Node9&#45;&gt;Node10</title>
<path fill="none" stroke="#191970" d="M559.382,-123.2977C565.1513,-114.8498 572.3716,-104.2773 578.4553,-95.369"/>
<polygon fill="#191970" stroke="#191970" points="581.5259,-97.0788 584.2753,-86.8469 575.7453,-93.1311 581.5259,-97.0788"/>
</g>
<!-- Node11 -->
<g id="node12" class="node">
<title>Node11</title>
<g id="a_node12"><a xlink:href="general__exceptions_8h.html" target="_top" xlink:title="Definition of self&#45;defined general exceptions. ">
<polygon fill="none" stroke="#000000" points="629.5,-67.5 629.5,-86.5 738.5,-86.5 738.5,-67.5 629.5,-67.5"/>
<text text-anchor="middle" x="684" y="-74.5" font-family="Helvetica,sans-Serif" font-size="10.00" fill="#000000">general_exceptions.h</text>
</a>
</g>
</g>
<!-- Node9&#45;&gt;Node11 -->
<g id="edge13" class="edge">
<title>Node9&#45;&gt;Node11</title>
<path fill="none" stroke="#191970" d="M582.0247,-123.4554C603.957,-113.464 632.5273,-100.4487 653.8453,-90.7372"/>
<polygon fill="#191970" stroke="#191970" points="655.4306,-93.8611 663.0798,-86.5303 652.5286,-87.4909 655.4306,-93.8611"/>
</g>
<!-- Node13 -->
<g id="node14" class="node">
<title>Node13</title>
<g id="a_node14"><a xlink:href="lapack__helpers_8h.html" target="_top" xlink:title="Exposes LAPACK helper functions defined in lapack_full_matrix.cc and define new ones by following the...">
<polygon fill="none" stroke="#000000" points="463,-67.5 463,-86.5 553,-86.5 553,-67.5 463,-67.5"/>
<text text-anchor="middle" x="508" y="-74.5" font-family="Helvetica,sans-Serif" font-size="10.00" fill="#000000">lapack_helpers.h</text>
</a>
</g>
</g>
<!-- Node9&#45;&gt;Node13 -->
<g id="edge15" class="edge">
<title>Node9&#45;&gt;Node13</title>
<path fill="none" stroke="#191970" d="M538.8652,-123.2977C533.2332,-114.8498 526.1849,-104.2773 520.246,-95.369"/>
<polygon fill="#191970" stroke="#191970" points="523.0238,-93.226 514.5646,-86.8469 517.1995,-97.1089 523.0238,-93.226"/>
</g>
<!-- Node12 -->
<g id="node13" class="node">
<title>Node12</title>
<polygon fill="none" stroke="#bfbfbf" points="1232,-6 1232,-25 1358,-25 1358,-6 1232,-6"/>
<text text-anchor="middle" x="1295" y="-13" font-family="Helvetica,sans-Serif" font-size="10.00" fill="#000000">deal.II/base/exceptions.h</text>
</g>
<!-- Node11&#45;&gt;Node12 -->
<g id="edge14" class="edge">
<title>Node11&#45;&gt;Node12</title>
<path fill="none" stroke="#191970" d="M738.7738,-68.149C741.8919,-67.7363 744.9838,-67.3494 748,-67 958.3103,-42.6388 1013.47,-61.3491 1223,-31 1230.3909,-29.9295 1238.1571,-28.5406 1245.7427,-27.0344"/>
<polygon fill="#191970" stroke="#191970" points="1246.4797,-30.4561 1255.5638,-25.0036 1245.0622,-23.6011 1246.4797,-30.4561"/>
</g>
<!-- Node13&#45;&gt;Node3 -->
<g id="edge19" class="edge">
<title>Node13&#45;&gt;Node3</title>
<path fill="none" stroke="#191970" d="M462.7208,-68.5061C459.4354,-67.9701 456.1693,-67.4615 453,-67 307.877,-45.8698 269.5804,-55.5699 125,-31 118.7433,-29.9367 112.1962,-28.6468 105.749,-27.27"/>
<polygon fill="#191970" stroke="#191970" points="106.2766,-23.8021 95.7562,-25.0553 104.7619,-30.6363 106.2766,-23.8021"/>
</g>
<!-- Node13&#45;&gt;Node4 -->
<g id="edge20" class="edge">
<title>Node13&#45;&gt;Node4</title>
<path fill="none" stroke="#191970" d="M462.9881,-68.752C459.6093,-68.1525 456.2514,-67.5628 453,-67 358.9378,-50.719 331.9582,-52.5049 235.4465,-31.1919"/>
<polygon fill="#191970" stroke="#191970" points="236.0914,-27.7497 225.5687,-28.9844 234.5646,-34.5812 236.0914,-27.7497"/>
</g>
<!-- Node13&#45;&gt;Node5 -->
<g id="edge21" class="edge">
<title>Node13&#45;&gt;Node5</title>
<path fill="none" stroke="#191970" d="M473.5321,-67.4732C442.1586,-58.7834 394.3055,-45.4838 344.3411,-31.3701"/>
<polygon fill="#191970" stroke="#191970" points="345.2332,-27.9851 334.6581,-28.6321 343.3285,-34.721 345.2332,-27.9851"/>
</g>
<!-- Node13&#45;&gt;Node6 -->
<g id="edge22" class="edge">
<title>Node13&#45;&gt;Node6</title>
<path fill="none" stroke="#191970" d="M490.8125,-67.3906C475.5807,-58.8747 452.8497,-46.166 433.696,-35.4573"/>
<polygon fill="#191970" stroke="#191970" points="435.3455,-32.3697 424.909,-30.5446 431.9295,-38.4796 435.3455,-32.3697"/>
</g>
<!-- Node14 -->
<g id="node15" class="node">
<title>Node14</title>
<polygon fill="none" stroke="#bfbfbf" points="808,-6 808,-25 924,-25 924,-6 808,-6"/>
<text text-anchor="middle" x="866" y="-13" font-family="Helvetica,sans-Serif" font-size="10.00" fill="#000000">deal.II/base/numbers.h</text>
</g>
<!-- Node13&#45;&gt;Node14 -->
<g id="edge16" class="edge">
<title>Node13&#45;&gt;Node14</title>
<path fill="none" stroke="#191970" d="M553.0619,-68.5425C556.0849,-68.0099 559.0854,-67.4911 562,-67 667.0606,-49.2976 694.3565,-51.0214 799,-31 804.8596,-29.8789 810.9843,-28.6049 817.0475,-27.2804"/>
<polygon fill="#191970" stroke="#191970" points="818.1418,-30.6222 827.1355,-25.0219 816.6124,-23.7913 818.1418,-30.6222"/>
</g>
<!-- Node15 -->
<g id="node16" class="node">
<title>Node15</title>
<polygon fill="none" stroke="#bfbfbf" points="942,-.5 942,-30.5 1070,-30.5 1070,-.5 942,-.5"/>
<text text-anchor="start" x="950" y="-18.5" font-family="Helvetica,sans-Serif" font-size="10.00" fill="#000000">deal.II/lac/blas_extension</text>
<text text-anchor="middle" x="1006" y="-7.5" font-family="Helvetica,sans-Serif" font-size="10.00" fill="#000000">_templates.h</text>
</g>
<!-- Node13&#45;&gt;Node15 -->
<g id="edge17" class="edge">
<title>Node13&#45;&gt;Node15</title>
<path fill="none" stroke="#191970" d="M553.0337,-68.3597C556.0634,-67.8712 559.0732,-67.4122 562,-67 722.8403,-44.347 767.5367,-55.7751 932.0075,-31.0404"/>
<polygon fill="#191970" stroke="#191970" points="932.6233,-34.4871 941.9809,-29.5187 931.5674,-27.5672 932.6233,-34.4871"/>
</g>
<!-- Node16 -->
<g id="node17" class="node">
<title>Node16</title>
<polygon fill="none" stroke="#bfbfbf" points="1088,-6 1088,-25 1214,-25 1214,-6 1088,-6"/>
<text text-anchor="middle" x="1151" y="-13" font-family="Helvetica,sans-Serif" font-size="10.00" fill="#000000">deal.II/lac/block_vector.h</text>
</g>
<!-- Node13&#45;&gt;Node16 -->
<g id="edge18" class="edge">
<title>Node13&#45;&gt;Node16</title>
<path fill="none" stroke="#191970" d="M553.0213,-68.2673C556.0541,-67.8012 559.0679,-67.3724 562,-67 790.499,-37.9825 850.9446,-63.3197 1079,-31 1086.3942,-29.9521 1094.1621,-28.5756 1101.7485,-27.0749"/>
<polygon fill="#191970" stroke="#191970" points="1102.484,-30.4969 1111.5701,-25.0477 1101.069,-23.6414 1102.484,-30.4969"/>
</g>
<!-- Node17 -->
<g id="node18" class="node">
<title>Node17</title>
<polygon fill="none" stroke="#bfbfbf" points="462,-.5 462,-30.5 554,-30.5 554,-.5 462,-.5"/>
<text text-anchor="start" x="470" y="-18.5" font-family="Helvetica,sans-Serif" font-size="10.00" fill="#000000">deal.II/lac/sparse</text>
<text text-anchor="middle" x="508" y="-7.5" font-family="Helvetica,sans-Serif" font-size="10.00" fill="#000000">_matrix.h</text>
</g>
<!-- Node13&#45;&gt;Node17 -->
<g id="edge23" class="edge">
<title>Node13&#45;&gt;Node17</title>
<path fill="none" stroke="#191970" d="M508,-67.3906C508,-60.2234 508,-50.0862 508,-40.671"/>
<polygon fill="#191970" stroke="#191970" points="511.5001,-40.5446 508,-30.5446 504.5001,-40.5446 511.5001,-40.5446"/>
</g>
<!-- Node18 -->
<g id="node19" class="node">
<title>Node18</title>
<polygon fill="none" stroke="#bfbfbf" points="572.5,-6 572.5,-25 673.5,-25 673.5,-6 572.5,-6"/>
<text text-anchor="middle" x="623" y="-13" font-family="Helvetica,sans-Serif" font-size="10.00" fill="#000000">deal.II/lac/utilities.h</text>
</g>
<!-- Node13&#45;&gt;Node18 -->
<g id="edge24" class="edge">
<title>Node13&#45;&gt;Node18</title>
<path fill="none" stroke="#191970" d="M525.9688,-67.3906C544.7884,-57.3262 574.5585,-41.4057 596.1641,-29.8514"/>
<polygon fill="#191970" stroke="#191970" points="597.9898,-32.8442 605.1574,-25.0419 594.6886,-26.6714 597.9898,-32.8442"/>
</g>
<!-- Node19 -->
<g id="node20" class="node">
<title>Node19</title>
<polygon fill="none" stroke="#bfbfbf" points="692,-6 692,-25 790,-25 790,-6 692,-6"/>
<text text-anchor="middle" x="741" y="-13" font-family="Helvetica,sans-Serif" font-size="10.00" fill="#000000">deal.II/lac/vector.h</text>
</g>
<!-- Node13&#45;&gt;Node19 -->
<g id="edge25" class="edge">
<title>Node13&#45;&gt;Node19</title>
<path fill="none" stroke="#191970" d="M544.5455,-67.4403C579.9568,-58.1663 635.1743,-43.6761 683,-31 687.0803,-29.9185 691.3213,-28.7913 695.5699,-27.6598"/>
<polygon fill="#191970" stroke="#191970" points="696.6647,-30.9903 705.4252,-25.0317 694.861,-24.2266 696.6647,-30.9903"/>
</g>
</g>
</svg>
