<?xml version="1.0" encoding="UTF-8" standalone="no"?>
<!DOCTYPE svg PUBLIC "-//W3C//DTD SVG 1.1//EN"
 "http://www.w3.org/Graphics/SVG/1.1/DTD/svg11.dtd">
<!-- Generated by graphviz version 2.40.1 (20161225.0304)
 -->
<!-- Title: /home/jihuan/Projects/deal.ii/program/dealii&#45;9.1.1/examples/laplace&#45;bem/tests/rkmatrix&#45;agglomeration&#45;interwoven&#45;indices/rkmatrix&#45;agglomeration&#45;interwoven&#45;indices.cc Pages: 1 -->
<!--zoomable 396 -->
<svg id="main" version="1.1" xmlns="http://www.w3.org/2000/svg" xmlns:xlink="http://www.w3.org/1999/xlink" xml:space="preserve" onload="init(evt)">
<style type="text/css"><![CDATA[
.edge:hover path { stroke: red; }
.edge:hover polygon { stroke: red; fill: red; }
]]></style>
<script type="text/javascript"><![CDATA[
var edges = document.getElementsByTagName('g');
if (edges && edges.length) {
  for (var i=0;i<edges.length;i++) {
    if (edges[i].id.substr(0,4)=='edge') {
      edges[i].setAttribute('class','edge');
    }
  }
}
]]></script>
        <defs>
                <circle id="rim" cx="0" cy="0" r="7"/>
                <circle id="rim2" cx="0" cy="0" r="3.5"/>
                <g id="zoomPlus">
                        <use xlink:href="#rim" fill="#404040">
                                <set attributeName="fill" to="#808080" begin="zoomplus.mouseover" end="zoomplus.mouseout"/>
                        </use>
                        <path d="M-4,0h8M0,-4v8" fill="none" stroke="white" stroke-width="1.5" pointer-events="none"/>
                </g>
                <g id="zoomMin">
                        <use xlink:href="#rim" fill="#404040">
                                <set attributeName="fill" to="#808080" begin="zoomminus.mouseover" end="zoomminus.mouseout"/>
                        </use>
                        <path d="M-4,0h8" fill="none" stroke="white" stroke-width="1.5" pointer-events="none"/>
                </g>
                <g id="dirArrow">
                        <path fill="none" stroke="white" stroke-width="1.5" d="M0,-3.0v7 M-2.5,-0.5L0,-3.0L2.5,-0.5"/>
                </g>
               <g id="resetDef">
                       <use xlink:href="#rim2" fill="#404040">
                               <set attributeName="fill" to="#808080" begin="reset.mouseover" end="reset.mouseout"/>
                       </use>
               </g>
        </defs>

<script type="text/javascript">
var viewWidth = 2015;
var viewHeight = 396;
var sectionId = 'dynsection-0';
</script>
<script xlink:href="svgpan.js"/>
<svg id="graph" class="graph">
<g id="viewport">
<title>/home/jihuan/Projects/deal.ii/program/dealii&#45;9.1.1/examples/laplace&#45;bem/tests/rkmatrix&#45;agglomeration&#45;interwoven&#45;indices/rkmatrix&#45;agglomeration&#45;interwoven&#45;indices.cc</title>
<!-- Node0 -->
<g id="node1" class="node">
<title>Node0</title>
<polygon fill="#bfbfbf" stroke="#000000" points="441,-313.5 441,-387.5 644,-387.5 644,-313.5 441,-313.5"/>
<text text-anchor="start" x="449" y="-375.5" font-family="Helvetica,sans-Serif" font-size="10.00" fill="#000000">/home/jihuan/Projects</text>
<text text-anchor="start" x="449" y="-364.5" font-family="Helvetica,sans-Serif" font-size="10.00" fill="#000000">/deal.ii/program/dealii</text>
<text text-anchor="start" x="449" y="-353.5" font-family="Helvetica,sans-Serif" font-size="10.00" fill="#000000">&#45;9.1.1/examples/laplace</text>
<text text-anchor="start" x="449" y="-342.5" font-family="Helvetica,sans-Serif" font-size="10.00" fill="#000000">&#45;bem/tests/rkmatrix&#45;agglomeration</text>
<text text-anchor="start" x="449" y="-331.5" font-family="Helvetica,sans-Serif" font-size="10.00" fill="#000000">&#45;interwoven&#45;indices/rkmatrix&#45;agglomeration</text>
<text text-anchor="middle" x="542.5" y="-320.5" font-family="Helvetica,sans-Serif" font-size="10.00" fill="#000000">&#45;interwoven&#45;indices.cc</text>
</g>
<!-- Node1 -->
<g id="node2" class="node">
<title>Node1</title>
<polygon fill="none" stroke="#bfbfbf" points="0,-73 0,-92 103,-92 103,-73 0,-73"/>
<text text-anchor="middle" x="51.5" y="-80" font-family="Helvetica,sans-Serif" font-size="10.00" fill="#000000">deal.II/base/types.h</text>
</g>
<!-- Node0&#45;&gt;Node1 -->
<g id="edge1" class="edge">
<title>Node0&#45;&gt;Node1</title>
<path fill="none" stroke="#191970" d="M440.8302,-329.8812C355.4883,-309.9017 232.2058,-274.6651 134.5,-221 93.8501,-198.673 74.9966,-195.6029 54.5,-154 46.6241,-138.014 46.6322,-117.4953 48.1619,-102.542"/>
<polygon fill="#191970" stroke="#191970" points="51.6672,-102.7347 49.523,-92.3591 44.7289,-101.8073 51.6672,-102.7347"/>
</g>
<!-- Node2 -->
<g id="node3" class="node">
<title>Node2</title>
<polygon fill="none" stroke="#bfbfbf" points="743.5,-257.5 743.5,-276.5 797.5,-276.5 797.5,-257.5 743.5,-257.5"/>
<text text-anchor="middle" x="770.5" y="-264.5" font-family="Helvetica,sans-Serif" font-size="10.00" fill="#000000">iostream</text>
</g>
<!-- Node0&#45;&gt;Node2 -->
<g id="edge2" class="edge">
<title>Node0&#45;&gt;Node2</title>
<path fill="none" stroke="#191970" d="M643.8319,-313.3894C676.2362,-301.522 710.023,-289.1484 734.5445,-280.1679"/>
<polygon fill="#191970" stroke="#191970" points="735.9381,-283.385 744.1245,-276.6594 733.5308,-276.8119 735.9381,-283.385"/>
</g>
<!-- Node3 -->
<g id="node4" class="node">
<title>Node3</title>
<g id="a_node4"><a xlink:href="generic__functors_8h.html" target="_top" xlink:title="This header file contains a set of self&#45;defined generic functors. ">
<polygon fill="none" stroke="#000000" points="494,-134.5 494,-153.5 591,-153.5 591,-134.5 494,-134.5"/>
<text text-anchor="middle" x="542.5" y="-141.5" font-family="Helvetica,sans-Serif" font-size="10.00" fill="#000000">generic_functors.h</text>
</a>
</g>
</g>
<!-- Node0&#45;&gt;Node3 -->
<g id="edge3" class="edge">
<title>Node0&#45;&gt;Node3</title>
<path fill="none" stroke="#191970" d="M542.5,-313.1044C542.5,-269.2473 542.5,-198.1834 542.5,-163.8372"/>
<polygon fill="#191970" stroke="#191970" points="546.0001,-163.6894 542.5,-153.6894 539.0001,-163.6894 546.0001,-163.6894"/>
</g>
<!-- Node8 -->
<g id="node9" class="node">
<title>Node8</title>
<g id="a_node9"><a xlink:href="lapack__full__matrix__ext_8h_source.html" target="_top" xlink:title="lapack_full_matrix\l_ext.h">
<polygon fill="none" stroke="#000000" points="418,-190.5 418,-220.5 513,-220.5 513,-190.5 418,-190.5"/>
<text text-anchor="start" x="426" y="-208.5" font-family="Helvetica,sans-Serif" font-size="10.00" fill="#000000">lapack_full_matrix</text>
<text text-anchor="middle" x="465.5" y="-197.5" font-family="Helvetica,sans-Serif" font-size="10.00" fill="#000000">_ext.h</text>
</a>
</g>
</g>
<!-- Node0&#45;&gt;Node8 -->
<g id="edge9" class="edge">
<title>Node0&#45;&gt;Node8</title>
<path fill="none" stroke="#191970" d="M522.6706,-313.1589C508.7123,-286.8738 490.4338,-252.4532 478.3462,-229.691"/>
<polygon fill="#191970" stroke="#191970" points="481.3569,-227.8976 473.5756,-220.7072 475.1745,-231.1807 481.3569,-227.8976"/>
</g>
<!-- Node25 -->
<g id="node26" class="node">
<title>Node25</title>
<g id="a_node26"><a xlink:href="rkmatrix_8h.html" target="_top" xlink:title="Definition of rank&#45;k matrix. ">
<polygon fill="none" stroke="#000000" points="665.5,-257.5 665.5,-276.5 725.5,-276.5 725.5,-257.5 665.5,-257.5"/>
<text text-anchor="middle" x="695.5" y="-264.5" font-family="Helvetica,sans-Serif" font-size="10.00" fill="#000000">rkmatrix.h</text>
</a>
</g>
</g>
<!-- Node0&#45;&gt;Node25 -->
<g id="edge32" class="edge">
<title>Node0&#45;&gt;Node25</title>
<path fill="none" stroke="#191970" d="M610.499,-313.3894C631.181,-302.1022 652.7021,-290.357 668.9148,-281.5089"/>
<polygon fill="#191970" stroke="#191970" points="670.6995,-284.5223 677.8007,-276.6594 667.3461,-278.3778 670.6995,-284.5223"/>
</g>
<!-- Node3&#45;&gt;Node1 -->
<g id="edge5" class="edge">
<title>Node3&#45;&gt;Node1</title>
<path fill="none" stroke="#191970" d="M493.626,-137.8783C403.6651,-126.6103 212.0476,-102.6093 113.2494,-90.2344"/>
<polygon fill="#191970" stroke="#191970" points="113.4751,-86.7354 103.1176,-88.9653 112.605,-93.6811 113.4751,-86.7354"/>
</g>
<!-- Node4 -->
<g id="node5" class="node">
<title>Node4</title>
<polygon fill="none" stroke="#bfbfbf" points="249.5,-73 249.5,-92 375.5,-92 375.5,-73 249.5,-73"/>
<text text-anchor="middle" x="312.5" y="-80" font-family="Helvetica,sans-Serif" font-size="10.00" fill="#000000">deal.II/base/exceptions.h</text>
</g>
<!-- Node3&#45;&gt;Node4 -->
<g id="edge4" class="edge">
<title>Node3&#45;&gt;Node4</title>
<path fill="none" stroke="#191970" d="M506.8149,-134.4581C466.7807,-123.7533 401.7429,-106.3628 358.065,-94.6837"/>
<polygon fill="#191970" stroke="#191970" points="358.8336,-91.2663 348.2689,-92.0643 357.0253,-98.0287 358.8336,-91.2663"/>
</g>
<!-- Node5 -->
<g id="node6" class="node">
<title>Node5</title>
<polygon fill="none" stroke="#bfbfbf" points="672,-.5 672,-30.5 763,-30.5 763,-.5 672,-.5"/>
<text text-anchor="start" x="680" y="-18.5" font-family="Helvetica,sans-Serif" font-size="10.00" fill="#000000">deal.II/lac/lapack</text>
<text text-anchor="middle" x="717.5" y="-7.5" font-family="Helvetica,sans-Serif" font-size="10.00" fill="#000000">_support.h</text>
</g>
<!-- Node3&#45;&gt;Node5 -->
<g id="edge6" class="edge">
<title>Node3&#45;&gt;Node5</title>
<path fill="none" stroke="#191970" d="M551.5639,-134.2038C566.1733,-118.7492 596.2578,-88.2815 625.5,-67 641.6089,-55.2765 660.6506,-44.2123 677.2192,-35.3661"/>
<polygon fill="#191970" stroke="#191970" points="678.9051,-38.434 686.1352,-30.6896 675.6537,-32.235 678.9051,-38.434"/>
</g>
<!-- Node6 -->
<g id="node7" class="node">
<title>Node6</title>
<polygon fill="none" stroke="#bfbfbf" points="635,-73 635,-92 670,-92 670,-73 635,-73"/>
<text text-anchor="middle" x="652.5" y="-80" font-family="Helvetica,sans-Serif" font-size="10.00" fill="#000000">map</text>
</g>
<!-- Node3&#45;&gt;Node6 -->
<g id="edge7" class="edge">
<title>Node3&#45;&gt;Node6</title>
<path fill="none" stroke="#191970" d="M559.6875,-134.3906C577.6082,-124.3713 605.9095,-108.5483 626.5523,-97.0071"/>
<polygon fill="#191970" stroke="#191970" points="628.4128,-99.9769 635.4332,-92.0419 624.9967,-93.867 628.4128,-99.9769"/>
</g>
<!-- Node7 -->
<g id="node8" class="node">
<title>Node7</title>
<polygon fill="none" stroke="#bfbfbf" points="520.5,-73 520.5,-92 564.5,-92 564.5,-73 520.5,-73"/>
<text text-anchor="middle" x="542.5" y="-80" font-family="Helvetica,sans-Serif" font-size="10.00" fill="#000000">vector</text>
</g>
<!-- Node3&#45;&gt;Node7 -->
<g id="edge8" class="edge">
<title>Node3&#45;&gt;Node7</title>
<path fill="none" stroke="#191970" d="M542.5,-134.3906C542.5,-125.8657 542.5,-113.1392 542.5,-102.4235"/>
<polygon fill="#191970" stroke="#191970" points="546.0001,-102.2448 542.5,-92.2449 539.0001,-102.2449 546.0001,-102.2448"/>
</g>
<!-- Node8&#45;&gt;Node3 -->
<g id="edge18" class="edge">
<title>Node8&#45;&gt;Node3</title>
<path fill="none" stroke="#191970" d="M484.5337,-190.2977C496.0015,-181.1384 510.5962,-169.4816 522.2719,-160.1562"/>
<polygon fill="#191970" stroke="#191970" points="524.5419,-162.8225 530.1713,-153.8469 520.1734,-157.3529 524.5419,-162.8225"/>
</g>
<!-- Node8&#45;&gt;Node6 -->
<g id="edge11" class="edge">
<title>Node8&#45;&gt;Node6</title>
<path fill="none" stroke="#191970" d="M513.1339,-194.3222C540.3405,-186.2796 574.0031,-173.3796 599.5,-154 618.2445,-139.7528 633.4519,-117.1348 642.692,-101.1584"/>
<polygon fill="#191970" stroke="#191970" points="645.8685,-102.6469 647.6524,-92.2033 639.7452,-99.255 645.8685,-102.6469"/>
</g>
<!-- Node8&#45;&gt;Node7 -->
<g id="edge15" class="edge">
<title>Node8&#45;&gt;Node7</title>
<path fill="none" stroke="#191970" d="M466.9639,-190.258C468.993,-175.0516 473.7199,-151.4959 484.5,-134 493.2537,-119.7929 507.1234,-107.2726 519.1048,-98.1351"/>
<polygon fill="#191970" stroke="#191970" points="521.3679,-100.8169 527.3953,-92.1037 517.2498,-95.1564 521.3679,-100.8169"/>
</g>
<!-- Node9 -->
<g id="node10" class="node">
<title>Node9</title>
<polygon fill="none" stroke="#bfbfbf" points="207.5,-134.5 207.5,-153.5 247.5,-153.5 247.5,-134.5 207.5,-134.5"/>
<text text-anchor="middle" x="227.5" y="-141.5" font-family="Helvetica,sans-Serif" font-size="10.00" fill="#000000">limits</text>
</g>
<!-- Node8&#45;&gt;Node9 -->
<g id="edge10" class="edge">
<title>Node8&#45;&gt;Node9</title>
<path fill="none" stroke="#191970" d="M417.8587,-195.0537C377.4447,-185.9016 317.7794,-171.7088 257.4001,-154.0864"/>
<polygon fill="#191970" stroke="#191970" points="258.2879,-150.6992 247.7063,-151.2289 256.3086,-157.4136 258.2879,-150.6992"/>
</g>
<!-- Node10 -->
<g id="node11" class="node">
<title>Node10</title>
<polygon fill="none" stroke="#bfbfbf" points="266,-134.5 266,-153.5 307,-153.5 307,-134.5 266,-134.5"/>
<text text-anchor="middle" x="286.5" y="-141.5" font-family="Helvetica,sans-Serif" font-size="10.00" fill="#000000">regex</text>
</g>
<!-- Node8&#45;&gt;Node10 -->
<g id="edge12" class="edge">
<title>Node8&#45;&gt;Node10</title>
<path fill="none" stroke="#191970" d="M421.7117,-190.4554C389.1217,-179.2583 345.4779,-164.2634 316.7023,-154.3768"/>
<polygon fill="#191970" stroke="#191970" points="317.7812,-151.0467 307.1866,-151.1074 315.5066,-157.6669 317.7812,-151.0467"/>
</g>
<!-- Node11 -->
<g id="node12" class="node">
<title>Node11</title>
<polygon fill="none" stroke="#bfbfbf" points="325.5,-134.5 325.5,-153.5 377.5,-153.5 377.5,-134.5 325.5,-134.5"/>
<text text-anchor="middle" x="351.5" y="-141.5" font-family="Helvetica,sans-Serif" font-size="10.00" fill="#000000">sstream</text>
</g>
<!-- Node8&#45;&gt;Node11 -->
<g id="edge13" class="edge">
<title>Node8&#45;&gt;Node11</title>
<path fill="none" stroke="#191970" d="M437.6125,-190.4554C419.5924,-180.734 396.2659,-168.15 378.4368,-158.5317"/>
<polygon fill="#191970" stroke="#191970" points="379.6287,-155.1979 369.166,-153.5303 376.3052,-161.3586 379.6287,-155.1979"/>
</g>
<!-- Node12 -->
<g id="node13" class="node">
<title>Node12</title>
<polygon fill="none" stroke="#bfbfbf" points="396,-134.5 396,-153.5 437,-153.5 437,-134.5 396,-134.5"/>
<text text-anchor="middle" x="416.5" y="-141.5" font-family="Helvetica,sans-Serif" font-size="10.00" fill="#000000">string</text>
</g>
<!-- Node8&#45;&gt;Node12 -->
<g id="edge14" class="edge">
<title>Node8&#45;&gt;Node12</title>
<path fill="none" stroke="#191970" d="M453.3876,-190.2977C446.5151,-181.672 437.8777,-170.8312 430.689,-161.8087"/>
<polygon fill="#191970" stroke="#191970" points="433.3144,-159.487 424.3455,-153.8469 427.8396,-163.849 433.3144,-159.487"/>
</g>
<!-- Node13 -->
<g id="node14" class="node">
<title>Node13</title>
<g id="a_node14"><a xlink:href="general__exceptions_8h.html" target="_top" xlink:title="Definition of self&#45;defined general exceptions. ">
<polygon fill="none" stroke="#000000" points="80,-134.5 80,-153.5 189,-153.5 189,-134.5 80,-134.5"/>
<text text-anchor="middle" x="134.5" y="-141.5" font-family="Helvetica,sans-Serif" font-size="10.00" fill="#000000">general_exceptions.h</text>
</a>
</g>
</g>
<!-- Node8&#45;&gt;Node13 -->
<g id="edge16" class="edge">
<title>Node8&#45;&gt;Node13</title>
<path fill="none" stroke="#191970" d="M417.7233,-196.6231C359.1789,-185.7455 259.8858,-167.2968 195.7762,-155.3851"/>
<polygon fill="#191970" stroke="#191970" points="196.2718,-151.9174 185.8007,-153.5317 194.993,-158.7996 196.2718,-151.9174"/>
</g>
<!-- Node14 -->
<g id="node15" class="node">
<title>Node14</title>
<g id="a_node15"><a xlink:href="lapack__helpers_8h.html" target="_top" xlink:title="Exposes LAPACK helper functions defined in lapack_full_matrix.cc and define new ones by following the...">
<polygon fill="none" stroke="#000000" points="1235.5,-134.5 1235.5,-153.5 1325.5,-153.5 1325.5,-134.5 1235.5,-134.5"/>
<text text-anchor="middle" x="1280.5" y="-141.5" font-family="Helvetica,sans-Serif" font-size="10.00" fill="#000000">lapack_helpers.h</text>
</a>
</g>
</g>
<!-- Node8&#45;&gt;Node14 -->
<g id="edge19" class="edge">
<title>Node8&#45;&gt;Node14</title>
<path fill="none" stroke="#191970" d="M513.1395,-201.9051C654.9224,-191.2062 1073.6986,-159.6053 1225.0938,-148.181"/>
<polygon fill="#191970" stroke="#191970" points="1225.3913,-151.6686 1235.0996,-147.4259 1224.8645,-144.6884 1225.3913,-151.6686"/>
</g>
<!-- Node13&#45;&gt;Node4 -->
<g id="edge17" class="edge">
<title>Node13&#45;&gt;Node4</title>
<path fill="none" stroke="#191970" d="M162.3125,-134.3906C192.7483,-123.8749 241.6877,-106.966 275.3826,-95.3243"/>
<polygon fill="#191970" stroke="#191970" points="276.574,-98.6157 284.8828,-92.0419 274.288,-91.9995 276.574,-98.6157"/>
</g>
<!-- Node14&#45;&gt;Node5 -->
<g id="edge25" class="edge">
<title>Node14&#45;&gt;Node5</title>
<path fill="none" stroke="#191970" d="M1235.2886,-142.6139C1115.1245,-138.5721 794.3137,-125.3174 755.5,-98 736.5677,-84.6753 726.8525,-59.5005 722.0093,-40.4497"/>
<polygon fill="#191970" stroke="#191970" points="725.4048,-39.5962 719.7922,-30.6101 718.576,-41.1349 725.4048,-39.5962"/>
</g>
<!-- Node15 -->
<g id="node16" class="node">
<title>Node15</title>
<polygon fill="none" stroke="#bfbfbf" points="902.5,-73 902.5,-92 1018.5,-92 1018.5,-73 902.5,-73"/>
<text text-anchor="middle" x="960.5" y="-80" font-family="Helvetica,sans-Serif" font-size="10.00" fill="#000000">deal.II/base/numbers.h</text>
</g>
<!-- Node14&#45;&gt;Node15 -->
<g id="edge20" class="edge">
<title>Node14&#45;&gt;Node15</title>
<path fill="none" stroke="#191970" d="M1235.1293,-136.4193C1184.3996,-127.7878 1099.8593,-112.9392 1027.5,-98 1022.0191,-96.8684 1016.299,-95.6316 1010.6111,-94.3659"/>
<polygon fill="#191970" stroke="#191970" points="1010.9918,-90.8637 1000.4662,-92.0732 1009.4487,-97.6916 1010.9918,-90.8637"/>
</g>
<!-- Node16 -->
<g id="node17" class="node">
<title>Node16</title>
<polygon fill="none" stroke="#bfbfbf" points="1036.5,-67.5 1036.5,-97.5 1164.5,-97.5 1164.5,-67.5 1036.5,-67.5"/>
<text text-anchor="start" x="1044.5" y="-85.5" font-family="Helvetica,sans-Serif" font-size="10.00" fill="#000000">deal.II/lac/blas_extension</text>
<text text-anchor="middle" x="1100.5" y="-74.5" font-family="Helvetica,sans-Serif" font-size="10.00" fill="#000000">_templates.h</text>
</g>
<!-- Node14&#45;&gt;Node16 -->
<g id="edge21" class="edge">
<title>Node14&#45;&gt;Node16</title>
<path fill="none" stroke="#191970" d="M1252.375,-134.3906C1226.2097,-125.4508 1186.5209,-111.8905 1154.2773,-100.8739"/>
<polygon fill="#191970" stroke="#191970" points="1155.1275,-97.4658 1144.533,-97.5446 1152.8642,-104.0898 1155.1275,-97.4658"/>
</g>
<!-- Node17 -->
<g id="node18" class="node">
<title>Node17</title>
<polygon fill="none" stroke="#bfbfbf" points="1182.5,-73 1182.5,-92 1308.5,-92 1308.5,-73 1182.5,-73"/>
<text text-anchor="middle" x="1245.5" y="-80" font-family="Helvetica,sans-Serif" font-size="10.00" fill="#000000">deal.II/lac/block_vector.h</text>
</g>
<!-- Node14&#45;&gt;Node17 -->
<g id="edge22" class="edge">
<title>Node14&#45;&gt;Node17</title>
<path fill="none" stroke="#191970" d="M1275.0313,-134.3906C1269.9754,-125.5068 1262.3228,-112.0601 1256.0746,-101.0811"/>
<polygon fill="#191970" stroke="#191970" points="1259.034,-99.2048 1251.0459,-92.2449 1252.9502,-102.6672 1259.034,-99.2048"/>
</g>
<!-- Node18 -->
<g id="node19" class="node">
<title>Node18</title>
<polygon fill="none" stroke="#bfbfbf" points="1672.5,-73 1672.5,-92 1788.5,-92 1788.5,-73 1672.5,-73"/>
<text text-anchor="middle" x="1730.5" y="-80" font-family="Helvetica,sans-Serif" font-size="10.00" fill="#000000">deal.II/lac/full_matrix.h</text>
</g>
<!-- Node14&#45;&gt;Node18 -->
<g id="edge23" class="edge">
<title>Node14&#45;&gt;Node18</title>
<path fill="none" stroke="#191970" d="M1325.5427,-140.1771C1397.3666,-133.7253 1542.1222,-119.2652 1663.5,-98 1669.674,-96.9183 1676.1335,-95.6284 1682.5018,-94.2612"/>
<polygon fill="#191970" stroke="#191970" points="1683.3763,-97.6523 1692.3798,-92.0678 1681.8589,-90.8188 1683.3763,-97.6523"/>
</g>
<!-- Node19 -->
<g id="node20" class="node">
<title>Node19</title>
<polygon fill="none" stroke="#bfbfbf" points="1807,-67.5 1807,-97.5 1898,-97.5 1898,-67.5 1807,-67.5"/>
<text text-anchor="start" x="1815" y="-85.5" font-family="Helvetica,sans-Serif" font-size="10.00" fill="#000000">deal.II/lac/lapack</text>
<text text-anchor="middle" x="1852.5" y="-74.5" font-family="Helvetica,sans-Serif" font-size="10.00" fill="#000000">_full_matrix.h</text>
</g>
<!-- Node14&#45;&gt;Node19 -->
<g id="edge24" class="edge">
<title>Node14&#45;&gt;Node19</title>
<path fill="none" stroke="#191970" d="M1325.8306,-142.7952C1414.6078,-139.8262 1617.6102,-130.0366 1796.8646,-97.8828"/>
<polygon fill="#191970" stroke="#191970" points="1797.5228,-101.3206 1806.7338,-96.0852 1796.2684,-94.4339 1797.5228,-101.3206"/>
</g>
<!-- Node20 -->
<g id="node21" class="node">
<title>Node20</title>
<polygon fill="none" stroke="#bfbfbf" points="1916,-67.5 1916,-97.5 2007,-97.5 2007,-67.5 1916,-67.5"/>
<text text-anchor="start" x="1924" y="-85.5" font-family="Helvetica,sans-Serif" font-size="10.00" fill="#000000">deal.II/lac/lapack</text>
<text text-anchor="middle" x="1961.5" y="-74.5" font-family="Helvetica,sans-Serif" font-size="10.00" fill="#000000">_templates.h</text>
</g>
<!-- Node14&#45;&gt;Node20 -->
<g id="edge26" class="edge">
<title>Node14&#45;&gt;Node20</title>
<path fill="none" stroke="#191970" d="M1325.6781,-141.8988C1446.7411,-136.08 1777.4159,-118.904 1905.9968,-97.9852"/>
<polygon fill="#191970" stroke="#191970" points="1906.7227,-101.412 1915.9903,-96.2776 1905.5437,-94.512 1906.7227,-101.412"/>
</g>
<!-- Node21 -->
<g id="node22" class="node">
<title>Node21</title>
<polygon fill="none" stroke="#bfbfbf" points="1326.5,-67.5 1326.5,-97.5 1418.5,-97.5 1418.5,-67.5 1326.5,-67.5"/>
<text text-anchor="start" x="1334.5" y="-85.5" font-family="Helvetica,sans-Serif" font-size="10.00" fill="#000000">deal.II/lac/sparse</text>
<text text-anchor="middle" x="1372.5" y="-74.5" font-family="Helvetica,sans-Serif" font-size="10.00" fill="#000000">_matrix.h</text>
</g>
<!-- Node14&#45;&gt;Node21 -->
<g id="edge27" class="edge">
<title>Node14&#45;&gt;Node21</title>
<path fill="none" stroke="#191970" d="M1294.875,-134.3906C1307.3261,-126.0673 1325.7686,-113.7389 1341.5534,-103.1872"/>
<polygon fill="#191970" stroke="#191970" points="1343.6258,-106.0118 1349.9943,-97.5446 1339.7356,-100.1923 1343.6258,-106.0118"/>
</g>
<!-- Node22 -->
<g id="node23" class="node">
<title>Node22</title>
<polygon fill="none" stroke="#bfbfbf" points="1437,-73 1437,-92 1538,-92 1538,-73 1437,-73"/>
<text text-anchor="middle" x="1487.5" y="-80" font-family="Helvetica,sans-Serif" font-size="10.00" fill="#000000">deal.II/lac/utilities.h</text>
</g>
<!-- Node14&#45;&gt;Node22 -->
<g id="edge28" class="edge">
<title>Node14&#45;&gt;Node22</title>
<path fill="none" stroke="#191970" d="M1312.8438,-134.3906C1348.618,-123.7621 1406.3747,-106.6025 1445.5905,-94.9514"/>
<polygon fill="#191970" stroke="#191970" points="1446.7943,-98.245 1455.3834,-92.0419 1444.8007,-91.5349 1446.7943,-98.245"/>
</g>
<!-- Node23 -->
<g id="node24" class="node">
<title>Node23</title>
<polygon fill="none" stroke="#bfbfbf" points="1556.5,-73 1556.5,-92 1654.5,-92 1654.5,-73 1556.5,-73"/>
<text text-anchor="middle" x="1605.5" y="-80" font-family="Helvetica,sans-Serif" font-size="10.00" fill="#000000">deal.II/lac/vector.h</text>
</g>
<!-- Node14&#45;&gt;Node23 -->
<g id="edge29" class="edge">
<title>Node14&#45;&gt;Node23</title>
<path fill="none" stroke="#191970" d="M1325.621,-137.5018C1378.9049,-129.5341 1470.0821,-114.9771 1547.5,-98 1552.215,-96.966 1557.1223,-95.7989 1561.9979,-94.5806"/>
<polygon fill="#191970" stroke="#191970" points="1563.0779,-97.9168 1571.8897,-92.0343 1561.3328,-91.1378 1563.0779,-97.9168"/>
</g>
<!-- Node24 -->
<g id="node25" class="node">
<title>Node24</title>
<g id="a_node25"><a xlink:href="lapack__templates__ext_8h.html" target="_top" xlink:title="Append more template based LAPACK functions to those existing in deal.ii. ">
<polygon fill="none" stroke="#000000" points="764.5,-73 764.5,-92 884.5,-92 884.5,-73 764.5,-73"/>
<text text-anchor="middle" x="824.5" y="-80" font-family="Helvetica,sans-Serif" font-size="10.00" fill="#000000">lapack_templates_ext.h</text>
</a>
</g>
</g>
<!-- Node14&#45;&gt;Node24 -->
<g id="edge30" class="edge">
<title>Node14&#45;&gt;Node24</title>
<path fill="none" stroke="#191970" d="M1235.2971,-140.145C1162.8456,-133.6259 1016.3749,-119.0466 893.5,-98 887.1467,-96.9118 880.4974,-95.618 873.9405,-94.2488"/>
<polygon fill="#191970" stroke="#191970" points="874.2823,-90.742 863.769,-92.0537 872.8056,-97.5845 874.2823,-90.742"/>
</g>
<!-- Node24&#45;&gt;Node5 -->
<g id="edge31" class="edge">
<title>Node24&#45;&gt;Node5</title>
<path fill="none" stroke="#191970" d="M809.1695,-72.9005C793.8354,-63.2988 769.7723,-48.2313 750.1473,-35.9427"/>
<polygon fill="#191970" stroke="#191970" points="751.823,-32.8625 741.49,-30.5218 748.108,-38.7954 751.823,-32.8625"/>
</g>
<!-- Node25&#45;&gt;Node1 -->
<g id="edge33" class="edge">
<title>Node25&#45;&gt;Node1</title>
<path fill="none" stroke="#191970" d="M665.2399,-265.7593C552.4476,-260.5181 158.4662,-236.5056 70.5,-154 56.4945,-140.864 52.3673,-118.6862 51.3572,-102.5071"/>
<polygon fill="#191970" stroke="#191970" points="54.8542,-102.3464 51.0729,-92.4493 47.857,-102.5443 54.8542,-102.3464"/>
</g>
<!-- Node25&#45;&gt;Node5 -->
<g id="edge36" class="edge">
<title>Node25&#45;&gt;Node5</title>
<path fill="none" stroke="#191970" d="M696.3356,-257.448C699.4563,-221.7725 710.4937,-95.5945 715.27,-40.9932"/>
<polygon fill="#191970" stroke="#191970" points="718.7785,-41.0474 716.1633,-30.7804 711.8051,-40.4373 718.7785,-41.0474"/>
</g>
<!-- Node25&#45;&gt;Node6 -->
<g id="edge39" class="edge">
<title>Node25&#45;&gt;Node6</title>
<path fill="none" stroke="#191970" d="M693.2487,-257.3402C686.4712,-228.26 666.1658,-141.136 657.0352,-101.959"/>
<polygon fill="#191970" stroke="#191970" points="660.4076,-101.0087 654.729,-92.0641 653.5903,-102.5976 660.4076,-101.0087"/>
</g>
<!-- Node25&#45;&gt;Node7 -->
<g id="edge40" class="edge">
<title>Node25&#45;&gt;Node7</title>
<path fill="none" stroke="#191970" d="M689.6117,-257.4618C675.4663,-234.8819 637.8876,-176.8409 599.5,-134 588.0411,-121.2118 573.6908,-108.2604 562.2558,-98.5446"/>
<polygon fill="#191970" stroke="#191970" points="564.4465,-95.8141 554.5276,-92.0904 559.9594,-101.1869 564.4465,-95.8141"/>
</g>
<!-- Node25&#45;&gt;Node8 -->
<g id="edge41" class="edge">
<title>Node25&#45;&gt;Node8</title>
<path fill="none" stroke="#191970" d="M665.4315,-258.9599C629.3569,-249.3139 568.0894,-232.9315 522.8625,-220.8382"/>
<polygon fill="#191970" stroke="#191970" points="523.7471,-217.4519 513.1823,-218.2498 521.9388,-224.2143 523.7471,-217.4519"/>
</g>
<!-- Node25&#45;&gt;Node18 -->
<g id="edge34" class="edge">
<title>Node25&#45;&gt;Node18</title>
<path fill="none" stroke="#191970" d="M725.6763,-259.0037C728.6501,-258.2936 731.6289,-257.6127 734.5,-257 1144.1675,-169.5728 1252.8269,-180.5751 1663.5,-98 1669.1988,-96.8541 1675.1534,-95.5835 1681.0603,-94.2769"/>
<polygon fill="#191970" stroke="#191970" points="1681.9162,-97.6719 1690.9027,-92.06 1680.378,-90.843 1681.9162,-97.6719"/>
</g>
<!-- Node25&#45;&gt;Node19 -->
<g id="edge35" class="edge">
<title>Node25&#45;&gt;Node19</title>
<path fill="none" stroke="#191970" d="M725.6489,-258.8675C728.6282,-258.1849 731.6158,-257.5477 734.5,-257 861.2309,-232.932 894.7818,-239.1124 1022.5,-221 1364.5128,-172.4973 1455.133,-172.7528 1797.0546,-97.9491"/>
<polygon fill="#191970" stroke="#191970" points="1797.9675,-101.3321 1806.9854,-95.7709 1796.4677,-94.4947 1797.9675,-101.3321"/>
</g>
<!-- Node25&#45;&gt;Node20 -->
<g id="edge37" class="edge">
<title>Node25&#45;&gt;Node20</title>
<path fill="none" stroke="#191970" d="M725.6283,-258.7535C728.6119,-258.0941 731.606,-257.4934 734.5,-257 916.5671,-225.9586 965.1406,-243.1656 1148.5,-221 1341.3911,-197.6821 1388.7403,-185.2881 1580.5,-154 1722.7561,-130.7891 1762.004,-130.8206 1905.8432,-98.2594"/>
<polygon fill="#191970" stroke="#191970" points="1906.9534,-101.5962 1915.9263,-95.9626 1905.3987,-94.771 1906.9534,-101.5962"/>
</g>
<!-- Node26 -->
<g id="node27" class="node">
<title>Node26</title>
<polygon fill="none" stroke="#bfbfbf" points="761.5,-196 761.5,-215 805.5,-215 805.5,-196 761.5,-196"/>
<text text-anchor="middle" x="783.5" y="-203" font-family="Helvetica,sans-Serif" font-size="10.00" fill="#000000">cmath</text>
</g>
<!-- Node25&#45;&gt;Node26 -->
<g id="edge38" class="edge">
<title>Node25&#45;&gt;Node26</title>
<path fill="none" stroke="#191970" d="M709.25,-257.3906C723.1991,-247.6421 745.0098,-232.3994 761.3897,-220.9521"/>
<polygon fill="#191970" stroke="#191970" points="763.6548,-223.6392 769.8466,-215.0419 759.6449,-217.9015 763.6548,-223.6392"/>
</g>
</g>
</svg>
        <g id="navigator" transform="translate(0 0)" fill="#404254">
                <rect fill="#f2f5e9" fill-opacity="0.5" stroke="#606060" stroke-width=".5" x="0" y="0" width="60" height="60"/>
                <use id="zoomplus" xlink:href="#zoomPlus" x="17" y="9" onmousedown="handleZoom(evt,'in')"/>
                <use id="zoomminus" xlink:href="#zoomMin" x="42" y="9" onmousedown="handleZoom(evt,'out')"/>
                <use id="reset" xlink:href="#resetDef" x="30" y="36" onmousedown="handleReset()"/>
                <g id="arrowUp" xlink:href="#dirArrow" transform="translate(30 24)" onmousedown="handlePan(0,-1)">
                  <use xlink:href="#rim" fill="#404040">
                        <set attributeName="fill" to="#808080" begin="arrowUp.mouseover" end="arrowUp.mouseout"/>
                  </use>
                  <path fill="none" stroke="white" stroke-width="1.5" d="M0,-3.0v7 M-2.5,-0.5L0,-3.0L2.5,-0.5"/>
                </g>
                <g id="arrowRight" xlink:href="#dirArrow" transform="rotate(90) translate(36 -43)" onmousedown="handlePan(1,0)">
                  <use xlink:href="#rim" fill="#404040">
                        <set attributeName="fill" to="#808080" begin="arrowRight.mouseover" end="arrowRight.mouseout"/>
                  </use>
                  <path fill="none" stroke="white" stroke-width="1.5" d="M0,-3.0v7 M-2.5,-0.5L0,-3.0L2.5,-0.5"/>
                </g>
                <g id="arrowDown" xlink:href="#dirArrow" transform="rotate(180) translate(-30 -48)" onmousedown="handlePan(0,1)">
                  <use xlink:href="#rim" fill="#404040">
                        <set attributeName="fill" to="#808080" begin="arrowDown.mouseover" end="arrowDown.mouseout"/>
                  </use>
                  <path fill="none" stroke="white" stroke-width="1.5" d="M0,-3.0v7 M-2.5,-0.5L0,-3.0L2.5,-0.5"/>
                </g>
                <g id="arrowLeft" xlink:href="#dirArrow" transform="rotate(270) translate(-36 17)" onmousedown="handlePan(-1,0)">
                  <use xlink:href="#rim" fill="#404040">
                        <set attributeName="fill" to="#808080" begin="arrowLeft.mouseover" end="arrowLeft.mouseout"/>
                  </use>
                  <path fill="none" stroke="white" stroke-width="1.5" d="M0,-3.0v7 M-2.5,-0.5L0,-3.0L2.5,-0.5"/>
                </g>
        </g>
        <svg viewBox="0 0 15 15" width="100%" height="30px" preserveAspectRatio="xMaxYMin meet">
         <g id="arrow_out" transform="scale(0.3 0.3)">
          <a xlink:href="rkmatrix-agglomeration-interwoven-indices_8cc__incl_org.svg" target="_base">
           <rect id="button" ry="5" rx="5" y="6" x="6" height="38" width="38"
                fill="#f2f5e9" fill-opacity="0.5" stroke="#606060" stroke-width="1.0"/>
           <path id="arrow"
             d="M 11.500037,31.436501 C 11.940474,20.09759 22.043105,11.32322 32.158766,21.979434 L 37.068811,17.246167 C 37.068811,17.246167 37.088388,32 37.088388,32 L 22.160133,31.978069 C 22.160133,31.978069 26.997745,27.140456 26.997745,27.140456 C 18.528582,18.264221 13.291696,25.230495 11.500037,31.436501 z"
             style="fill:#404040;"/>
          </a>
         </g>
        </svg>
</svg>
