<?xml version="1.0" encoding="UTF-8" standalone="no"?>
<!DOCTYPE svg PUBLIC "-//W3C//DTD SVG 1.1//EN"
 "http://www.w3.org/Graphics/SVG/1.1/DTD/svg11.dtd">
<!-- Generated by graphviz version 2.40.1 (20161225.0304)
 -->
<!-- Title: /home/jihuan/Projects/deal.ii/program/dealii&#45;9.1.1/examples/laplace&#45;bem/tests/rkmatrix&#45;add&#45;formatted/rkmatrix&#45;add&#45;formatted.cc Pages: 1 -->
<!--zoomable 385 -->
<svg id="main" version="1.1" xmlns="http://www.w3.org/2000/svg" xmlns:xlink="http://www.w3.org/1999/xlink" xml:space="preserve" onload="init(evt)">
<style type="text/css"><![CDATA[
.edge:hover path { stroke: red; }
.edge:hover polygon { stroke: red; fill: red; }
]]></style>
<script type="text/javascript"><![CDATA[
var edges = document.getElementsByTagName('g');
if (edges && edges.length) {
  for (var i=0;i<edges.length;i++) {
    if (edges[i].id.substr(0,4)=='edge') {
      edges[i].setAttribute('class','edge');
    }
  }
}
]]></script>
        <defs>
                <circle id="rim" cx="0" cy="0" r="7"/>
                <circle id="rim2" cx="0" cy="0" r="3.5"/>
                <g id="zoomPlus">
                        <use xlink:href="#rim" fill="#404040">
                                <set attributeName="fill" to="#808080" begin="zoomplus.mouseover" end="zoomplus.mouseout"/>
                        </use>
                        <path d="M-4,0h8M0,-4v8" fill="none" stroke="white" stroke-width="1.5" pointer-events="none"/>
                </g>
                <g id="zoomMin">
                        <use xlink:href="#rim" fill="#404040">
                                <set attributeName="fill" to="#808080" begin="zoomminus.mouseover" end="zoomminus.mouseout"/>
                        </use>
                        <path d="M-4,0h8" fill="none" stroke="white" stroke-width="1.5" pointer-events="none"/>
                </g>
                <g id="dirArrow">
                        <path fill="none" stroke="white" stroke-width="1.5" d="M0,-3.0v7 M-2.5,-0.5L0,-3.0L2.5,-0.5"/>
                </g>
               <g id="resetDef">
                       <use xlink:href="#rim2" fill="#404040">
                               <set attributeName="fill" to="#808080" begin="reset.mouseover" end="reset.mouseout"/>
                       </use>
               </g>
        </defs>

<script type="text/javascript">
var viewWidth = 2481;
var viewHeight = 385;
var sectionId = 'dynsection-0';
</script>
<script xlink:href="svgpan.js"/>
<svg id="graph" class="graph">
<g id="viewport">
<title>/home/jihuan/Projects/deal.ii/program/dealii&#45;9.1.1/examples/laplace&#45;bem/tests/rkmatrix&#45;add&#45;formatted/rkmatrix&#45;add&#45;formatted.cc</title>
<!-- Node0 -->
<g id="node1" class="node">
<title>Node0</title>
<polygon fill="#bfbfbf" stroke="#000000" points="258,-313.5 258,-376.5 434,-376.5 434,-313.5 258,-313.5"/>
<text text-anchor="start" x="266" y="-364.5" font-family="Helvetica,sans-Serif" font-size="10.00" fill="#000000">/home/jihuan/Projects</text>
<text text-anchor="start" x="266" y="-353.5" font-family="Helvetica,sans-Serif" font-size="10.00" fill="#000000">/deal.ii/program/dealii</text>
<text text-anchor="start" x="266" y="-342.5" font-family="Helvetica,sans-Serif" font-size="10.00" fill="#000000">&#45;9.1.1/examples/laplace</text>
<text text-anchor="start" x="266" y="-331.5" font-family="Helvetica,sans-Serif" font-size="10.00" fill="#000000">&#45;bem/tests/rkmatrix&#45;add</text>
<text text-anchor="middle" x="346" y="-320.5" font-family="Helvetica,sans-Serif" font-size="10.00" fill="#000000">&#45;formatted/rkmatrix&#45;add&#45;formatted.cc</text>
</g>
<!-- Node1 -->
<g id="node2" class="node">
<title>Node1</title>
<polygon fill="none" stroke="#bfbfbf" points="0,-196 0,-215 54,-215 54,-196 0,-196"/>
<text text-anchor="middle" x="27" y="-203" font-family="Helvetica,sans-Serif" font-size="10.00" fill="#000000">iostream</text>
</g>
<!-- Node0&#45;&gt;Node1 -->
<g id="edge1" class="edge">
<title>Node0&#45;&gt;Node1</title>
<path fill="none" stroke="#191970" d="M273.614,-313.3453C205.886,-283.7276 107.9284,-240.8903 58.3196,-219.1962"/>
<polygon fill="#191970" stroke="#191970" points="59.6304,-215.9494 49.0658,-215.1495 56.8257,-222.363 59.6304,-215.9494"/>
</g>
<!-- Node2 -->
<g id="node3" class="node">
<title>Node2</title>
<g id="a_node3"><a xlink:href="debug__tools_8h.html" target="_top" xlink:title="This file includes a bunch of helper functions for printing out and visualizing information about gri...">
<polygon fill="none" stroke="#000000" points="307.5,-257.5 307.5,-276.5 384.5,-276.5 384.5,-257.5 307.5,-257.5"/>
<text text-anchor="middle" x="346" y="-264.5" font-family="Helvetica,sans-Serif" font-size="10.00" fill="#000000">debug_tools.h</text>
</a>
</g>
</g>
<!-- Node0&#45;&gt;Node2 -->
<g id="edge2" class="edge">
<title>Node0&#45;&gt;Node2</title>
<path fill="none" stroke="#191970" d="M346,-313.2744C346,-304.3302 346,-294.8568 346,-286.8269"/>
<polygon fill="#191970" stroke="#191970" points="349.5001,-286.6425 346,-276.6426 342.5001,-286.6426 349.5001,-286.6425"/>
</g>
<!-- Node9 -->
<g id="node10" class="node">
<title>Node9</title>
<g id="a_node10"><a xlink:href="rkmatrix_8h.html" target="_top" xlink:title="Definition of rank&#45;k matrix. ">
<polygon fill="none" stroke="#000000" points="1268,-257.5 1268,-276.5 1328,-276.5 1328,-257.5 1268,-257.5"/>
<text text-anchor="middle" x="1298" y="-264.5" font-family="Helvetica,sans-Serif" font-size="10.00" fill="#000000">rkmatrix.h</text>
</a>
</g>
</g>
<!-- Node0&#45;&gt;Node9 -->
<g id="edge10" class="edge">
<title>Node0&#45;&gt;Node9</title>
<path fill="none" stroke="#191970" d="M434.2808,-337.7669C634.1701,-321.3894 1115.0535,-281.9893 1257.5529,-270.3139"/>
<polygon fill="#191970" stroke="#191970" points="1257.9248,-273.7953 1267.6056,-269.4903 1257.3531,-266.8187 1257.9248,-273.7953"/>
</g>
<!-- Node2&#45;&gt;Node1 -->
<g id="edge8" class="edge">
<title>Node2&#45;&gt;Node1</title>
<path fill="none" stroke="#191970" d="M307.3461,-263.7466C252.2328,-258.4303 148.296,-245.8833 63,-221 60.8239,-220.3652 58.6045,-219.6331 56.39,-218.8398"/>
<polygon fill="#191970" stroke="#191970" points="57.4484,-215.4949 46.8616,-215.0822 54.8803,-222.0068 57.4484,-215.4949"/>
</g>
<!-- Node3 -->
<g id="node4" class="node">
<title>Node3</title>
<polygon fill="none" stroke="#bfbfbf" points="454.5,-196 454.5,-215 581.5,-215 581.5,-196 454.5,-196"/>
<text text-anchor="middle" x="518" y="-203" font-family="Helvetica,sans-Serif" font-size="10.00" fill="#000000">deal.II/dofs/dof_handler.h</text>
</g>
<!-- Node2&#45;&gt;Node3 -->
<g id="edge3" class="edge">
<title>Node2&#45;&gt;Node3</title>
<path fill="none" stroke="#191970" d="M372.875,-257.3906C402.1586,-246.92 449.169,-230.1111 481.7137,-218.4745"/>
<polygon fill="#191970" stroke="#191970" points="483.0759,-221.7045 491.3137,-215.0419 480.7191,-215.1131 483.0759,-221.7045"/>
</g>
<!-- Node4 -->
<g id="node5" class="node">
<title>Node4</title>
<polygon fill="none" stroke="#bfbfbf" points="600,-196 600,-215 716,-215 716,-196 600,-196"/>
<text text-anchor="middle" x="658" y="-203" font-family="Helvetica,sans-Serif" font-size="10.00" fill="#000000">deal.II/dofs/dof_tools.h</text>
</g>
<!-- Node2&#45;&gt;Node4 -->
<g id="edge4" class="edge">
<title>Node2&#45;&gt;Node4</title>
<path fill="none" stroke="#191970" d="M384.5458,-260.1976C432.7134,-251.5904 517.6223,-236.0658 590,-221 595.6956,-219.8144 601.6486,-218.5279 607.5617,-217.2201"/>
<polygon fill="#191970" stroke="#191970" points="608.4287,-220.6127 617.4229,-215.013 606.8998,-213.7817 608.4287,-220.6127"/>
</g>
<!-- Node5 -->
<g id="node6" class="node">
<title>Node5</title>
<polygon fill="none" stroke="#bfbfbf" points="72,-196 72,-215 146,-215 146,-196 72,-196"/>
<text text-anchor="middle" x="109" y="-203" font-family="Helvetica,sans-Serif" font-size="10.00" fill="#000000">deal.II/fe/fe.h</text>
</g>
<!-- Node2&#45;&gt;Node5 -->
<g id="edge5" class="edge">
<title>Node2&#45;&gt;Node5</title>
<path fill="none" stroke="#191970" d="M307.3243,-258.7427C268.5529,-250.2176 207.2732,-236.0695 155,-221 152.0191,-220.1407 148.9443,-219.2079 145.8643,-218.2407"/>
<polygon fill="#191970" stroke="#191970" points="146.709,-214.8354 136.1171,-215.0815 144.5507,-221.4943 146.709,-214.8354"/>
</g>
<!-- Node6 -->
<g id="node7" class="node">
<title>Node6</title>
<polygon fill="none" stroke="#bfbfbf" points="164,-196 164,-215 276,-215 276,-196 164,-196"/>
<text text-anchor="middle" x="220" y="-203" font-family="Helvetica,sans-Serif" font-size="10.00" fill="#000000">deal.II/fe/fe_system.h</text>
</g>
<!-- Node2&#45;&gt;Node6 -->
<g id="edge6" class="edge">
<title>Node2&#45;&gt;Node6</title>
<path fill="none" stroke="#191970" d="M326.3125,-257.3906C305.5078,-247.2359 272.489,-231.1196 248.7681,-219.5416"/>
<polygon fill="#191970" stroke="#191970" points="250.0712,-216.283 239.5493,-215.0419 247.0007,-222.5736 250.0712,-216.283"/>
</g>
<!-- Node7 -->
<g id="node8" class="node">
<title>Node7</title>
<polygon fill="none" stroke="#bfbfbf" points="294.5,-196 294.5,-215 397.5,-215 397.5,-196 294.5,-196"/>
<text text-anchor="middle" x="346" y="-203" font-family="Helvetica,sans-Serif" font-size="10.00" fill="#000000">deal.II/fe/mapping.h</text>
</g>
<!-- Node2&#45;&gt;Node7 -->
<g id="edge7" class="edge">
<title>Node2&#45;&gt;Node7</title>
<path fill="none" stroke="#191970" d="M346,-257.3906C346,-248.8657 346,-236.1392 346,-225.4235"/>
<polygon fill="#191970" stroke="#191970" points="349.5001,-225.2448 346,-215.2449 342.5001,-225.2449 349.5001,-225.2448"/>
</g>
<!-- Node8 -->
<g id="node9" class="node">
<title>Node8</title>
<polygon fill="none" stroke="#bfbfbf" points="702.5,-134.5 702.5,-153.5 743.5,-153.5 743.5,-134.5 702.5,-134.5"/>
<text text-anchor="middle" x="723" y="-141.5" font-family="Helvetica,sans-Serif" font-size="10.00" fill="#000000">string</text>
</g>
<!-- Node2&#45;&gt;Node8 -->
<g id="edge9" class="edge">
<title>Node2&#45;&gt;Node8</title>
<path fill="none" stroke="#191970" d="M358.9249,-257.1944C371.1102,-247.9255 389.8598,-233.6002 406,-221 423.4534,-207.3746 424.7624,-198.984 445,-190 488.9578,-170.4858 629.39,-153.8114 692.1673,-147.1264"/>
<polygon fill="#191970" stroke="#191970" points="692.6693,-150.5931 702.2491,-146.0679 691.9383,-143.6313 692.6693,-150.5931"/>
</g>
<!-- Node10 -->
<g id="node11" class="node">
<title>Node10</title>
<polygon fill="none" stroke="#bfbfbf" points="1054.5,-73 1054.5,-92 1157.5,-92 1157.5,-73 1054.5,-73"/>
<text text-anchor="middle" x="1106" y="-80" font-family="Helvetica,sans-Serif" font-size="10.00" fill="#000000">deal.II/base/types.h</text>
</g>
<!-- Node9&#45;&gt;Node10 -->
<g id="edge11" class="edge">
<title>Node9&#45;&gt;Node10</title>
<path fill="none" stroke="#191970" d="M1301.0873,-257.3407C1308.0639,-233.4683 1322.2649,-170.9527 1293,-134 1284.6037,-123.3981 1213.1068,-105.822 1161.0102,-94.1996"/>
<polygon fill="#191970" stroke="#191970" points="1161.7211,-90.7724 1151.2012,-92.0301 1160.2094,-97.6072 1161.7211,-90.7724"/>
</g>
<!-- Node11 -->
<g id="node12" class="node">
<title>Node11</title>
<polygon fill="none" stroke="#bfbfbf" points="2122,-73 2122,-92 2238,-92 2238,-73 2122,-73"/>
<text text-anchor="middle" x="2180" y="-80" font-family="Helvetica,sans-Serif" font-size="10.00" fill="#000000">deal.II/lac/full_matrix.h</text>
</g>
<!-- Node9&#45;&gt;Node11 -->
<g id="edge12" class="edge">
<title>Node9&#45;&gt;Node11</title>
<path fill="none" stroke="#191970" d="M1328.025,-261.032C1434.9406,-239.7258 1807.0614,-165.0992 2113,-98 2118.3208,-96.833 2123.8731,-95.5897 2129.4055,-94.3343"/>
<polygon fill="#191970" stroke="#191970" points="2130.3193,-97.7158 2139.2879,-92.0754 2128.7594,-90.8918 2130.3193,-97.7158"/>
</g>
<!-- Node12 -->
<g id="node13" class="node">
<title>Node12</title>
<polygon fill="none" stroke="#bfbfbf" points="2256.5,-67.5 2256.5,-97.5 2347.5,-97.5 2347.5,-67.5 2256.5,-67.5"/>
<text text-anchor="start" x="2264.5" y="-85.5" font-family="Helvetica,sans-Serif" font-size="10.00" fill="#000000">deal.II/lac/lapack</text>
<text text-anchor="middle" x="2302" y="-74.5" font-family="Helvetica,sans-Serif" font-size="10.00" fill="#000000">_full_matrix.h</text>
</g>
<!-- Node9&#45;&gt;Node12 -->
<g id="edge13" class="edge">
<title>Node9&#45;&gt;Node12</title>
<path fill="none" stroke="#191970" d="M1328.1382,-263.0966C1384.432,-255.6984 1509.3326,-238.777 1614,-221 1893.2379,-173.5734 1966.4618,-164.4704 2246.4108,-98.0358"/>
<polygon fill="#191970" stroke="#191970" points="2247.5376,-101.3656 2256.4573,-95.6482 2245.919,-94.5553 2247.5376,-101.3656"/>
</g>
<!-- Node13 -->
<g id="node14" class="node">
<title>Node13</title>
<polygon fill="none" stroke="#bfbfbf" points="1429.5,-.5 1429.5,-30.5 1520.5,-30.5 1520.5,-.5 1429.5,-.5"/>
<text text-anchor="start" x="1437.5" y="-18.5" font-family="Helvetica,sans-Serif" font-size="10.00" fill="#000000">deal.II/lac/lapack</text>
<text text-anchor="middle" x="1475" y="-7.5" font-family="Helvetica,sans-Serif" font-size="10.00" fill="#000000">_support.h</text>
</g>
<!-- Node9&#45;&gt;Node13 -->
<g id="edge14" class="edge">
<title>Node9&#45;&gt;Node13</title>
<path fill="none" stroke="#191970" d="M1328.2209,-265.014C1504.1259,-253.1492 2390.8433,-189.0572 2466,-98 2474.7703,-87.3742 2475.4862,-76.992 2466,-67 2433.6279,-32.9019 1735.6703,-19.5063 1530.9586,-16.3023"/>
<polygon fill="#191970" stroke="#191970" points="1530.787,-12.7993 1520.7341,-16.1443 1530.6788,-19.7984 1530.787,-12.7993"/>
</g>
<!-- Node14 -->
<g id="node15" class="node">
<title>Node14</title>
<polygon fill="none" stroke="#bfbfbf" points="2365.5,-67.5 2365.5,-97.5 2456.5,-97.5 2456.5,-67.5 2365.5,-67.5"/>
<text text-anchor="start" x="2373.5" y="-85.5" font-family="Helvetica,sans-Serif" font-size="10.00" fill="#000000">deal.II/lac/lapack</text>
<text text-anchor="middle" x="2411" y="-74.5" font-family="Helvetica,sans-Serif" font-size="10.00" fill="#000000">_templates.h</text>
</g>
<!-- Node9&#45;&gt;Node14 -->
<g id="edge15" class="edge">
<title>Node9&#45;&gt;Node14</title>
<path fill="none" stroke="#191970" d="M1328.2284,-264.5503C1397.5503,-258.7462 1573.2293,-242.9778 1719,-221 2001.2035,-178.4523 2074.4516,-165.5384 2355.3305,-98.3095"/>
<polygon fill="#191970" stroke="#191970" points="2356.501,-101.6282 2365.4105,-95.8949 2354.8703,-94.8208 2356.501,-101.6282"/>
</g>
<!-- Node15 -->
<g id="node16" class="node">
<title>Node15</title>
<polygon fill="none" stroke="#bfbfbf" points="734,-196 734,-215 778,-215 778,-196 734,-196"/>
<text text-anchor="middle" x="756" y="-203" font-family="Helvetica,sans-Serif" font-size="10.00" fill="#000000">cmath</text>
</g>
<!-- Node9&#45;&gt;Node15 -->
<g id="edge16" class="edge">
<title>Node9&#45;&gt;Node15</title>
<path fill="none" stroke="#191970" d="M1267.6747,-265.499C1172.8804,-260.6101 883.0548,-244.1157 792,-221 789.5185,-220.37 786.9887,-219.5904 784.4785,-218.7187"/>
<polygon fill="#191970" stroke="#191970" points="785.6254,-215.4091 775.0376,-215.0226 783.0734,-221.9274 785.6254,-215.4091"/>
</g>
<!-- Node16 -->
<g id="node17" class="node">
<title>Node16</title>
<polygon fill="none" stroke="#bfbfbf" points="1001.5,-73 1001.5,-92 1036.5,-92 1036.5,-73 1001.5,-73"/>
<text text-anchor="middle" x="1019" y="-80" font-family="Helvetica,sans-Serif" font-size="10.00" fill="#000000">map</text>
</g>
<!-- Node9&#45;&gt;Node16 -->
<g id="edge17" class="edge">
<title>Node9&#45;&gt;Node16</title>
<path fill="none" stroke="#191970" d="M1298.4459,-257.1746C1298.9894,-232.3607 1296.6981,-166.8141 1260,-134 1188.1028,-69.7123 1136.8002,-130.5185 1046,-98 1044.7978,-97.5695 1043.5876,-97.0864 1042.3811,-96.5641"/>
<polygon fill="#191970" stroke="#191970" points="1043.9008,-93.4106 1033.3982,-92.0156 1040.7386,-99.6556 1043.9008,-93.4106"/>
</g>
<!-- Node17 -->
<g id="node18" class="node">
<title>Node17</title>
<polygon fill="none" stroke="#bfbfbf" points="750,-73 750,-92 794,-92 794,-73 750,-73"/>
<text text-anchor="middle" x="772" y="-80" font-family="Helvetica,sans-Serif" font-size="10.00" fill="#000000">vector</text>
</g>
<!-- Node9&#45;&gt;Node17 -->
<g id="edge18" class="edge">
<title>Node9&#45;&gt;Node17</title>
<path fill="none" stroke="#191970" d="M1267.663,-263.6372C1150.1919,-250.3127 729.9211,-199.7222 693,-154 674.1238,-130.6241 711.0007,-108.1288 740.4828,-94.8064"/>
<polygon fill="#191970" stroke="#191970" points="741.9259,-97.9956 749.715,-90.8137 739.1473,-91.5707 741.9259,-97.9956"/>
</g>
<!-- Node18 -->
<g id="node19" class="node">
<title>Node18</title>
<g id="a_node19"><a xlink:href="lapack__full__matrix__ext_8h_source.html" target="_top" xlink:title="lapack_full_matrix\l_ext.h">
<polygon fill="none" stroke="#000000" points="1012.5,-190.5 1012.5,-220.5 1107.5,-220.5 1107.5,-190.5 1012.5,-190.5"/>
<text text-anchor="start" x="1020.5" y="-208.5" font-family="Helvetica,sans-Serif" font-size="10.00" fill="#000000">lapack_full_matrix</text>
<text text-anchor="middle" x="1060" y="-197.5" font-family="Helvetica,sans-Serif" font-size="10.00" fill="#000000">_ext.h</text>
</a>
</g>
</g>
<!-- Node9&#45;&gt;Node18 -->
<g id="edge19" class="edge">
<title>Node9&#45;&gt;Node18</title>
<path fill="none" stroke="#191970" d="M1267.8571,-259.211C1230.1383,-249.4643 1164.7479,-232.5672 1117.3652,-220.3234"/>
<polygon fill="#191970" stroke="#191970" points="1118.1017,-216.8988 1107.544,-217.7855 1116.3503,-223.6762 1118.1017,-216.8988"/>
</g>
<!-- Node18&#45;&gt;Node8 -->
<g id="edge24" class="edge">
<title>Node18&#45;&gt;Node8</title>
<path fill="none" stroke="#191970" d="M1012.3449,-199.0195C952.5613,-190.5131 847.0753,-174.2562 758,-154 756.5365,-153.6672 755.0433,-153.3101 753.5385,-152.936"/>
<polygon fill="#191970" stroke="#191970" points="754.1951,-149.489 743.6314,-150.2997 752.395,-156.2536 754.1951,-149.489"/>
</g>
<!-- Node18&#45;&gt;Node16 -->
<g id="edge21" class="edge">
<title>Node18&#45;&gt;Node16</title>
<path fill="none" stroke="#191970" d="M1107.7149,-192.8208C1143.7033,-180.8213 1183.7531,-160.6783 1164,-134 1131.3724,-89.9335 1096.3165,-119.787 1046,-98 1045.1537,-97.6336 1044.3003,-97.2471 1043.4444,-96.8449"/>
<polygon fill="#191970" stroke="#191970" points="1044.8823,-93.6475 1034.3966,-92.1304 1041.6475,-99.8553 1044.8823,-93.6475"/>
</g>
<!-- Node18&#45;&gt;Node17 -->
<g id="edge25" class="edge">
<title>Node18&#45;&gt;Node17</title>
<path fill="none" stroke="#191970" d="M1012.3114,-202.2829C944.1237,-196.7204 823.5061,-182.9968 792,-154 777.8211,-140.9503 773.3819,-118.7581 772.1424,-102.5519"/>
<polygon fill="#191970" stroke="#191970" points="775.6357,-102.3172 771.715,-92.4745 768.6419,-102.6139 775.6357,-102.3172"/>
</g>
<!-- Node19 -->
<g id="node20" class="node">
<title>Node19</title>
<polygon fill="none" stroke="#bfbfbf" points="1211,-134.5 1211,-153.5 1251,-153.5 1251,-134.5 1211,-134.5"/>
<text text-anchor="middle" x="1231" y="-141.5" font-family="Helvetica,sans-Serif" font-size="10.00" fill="#000000">limits</text>
</g>
<!-- Node18&#45;&gt;Node19 -->
<g id="edge20" class="edge">
<title>Node18&#45;&gt;Node19</title>
<path fill="none" stroke="#191970" d="M1101.8313,-190.4554C1132.6527,-179.3705 1173.8232,-164.5636 1201.3166,-154.6756"/>
<polygon fill="#191970" stroke="#191970" points="1202.5571,-157.949 1210.7825,-151.2712 1200.188,-151.3621 1202.5571,-157.949"/>
</g>
<!-- Node20 -->
<g id="node21" class="node">
<title>Node20</title>
<polygon fill="none" stroke="#bfbfbf" points="927.5,-134.5 927.5,-153.5 968.5,-153.5 968.5,-134.5 927.5,-134.5"/>
<text text-anchor="middle" x="948" y="-141.5" font-family="Helvetica,sans-Serif" font-size="10.00" fill="#000000">regex</text>
</g>
<!-- Node18&#45;&gt;Node20 -->
<g id="edge22" class="edge">
<title>Node18&#45;&gt;Node20</title>
<path fill="none" stroke="#191970" d="M1032.6017,-190.4554C1014.8978,-180.734 991.9805,-168.15 974.4642,-158.5317"/>
<polygon fill="#191970" stroke="#191970" points="975.8061,-155.2756 965.356,-153.5303 972.4369,-161.4115 975.8061,-155.2756"/>
</g>
<!-- Node21 -->
<g id="node22" class="node">
<title>Node21</title>
<polygon fill="none" stroke="#bfbfbf" points="987,-134.5 987,-153.5 1039,-153.5 1039,-134.5 987,-134.5"/>
<text text-anchor="middle" x="1013" y="-141.5" font-family="Helvetica,sans-Serif" font-size="10.00" fill="#000000">sstream</text>
</g>
<!-- Node18&#45;&gt;Node21 -->
<g id="edge23" class="edge">
<title>Node18&#45;&gt;Node21</title>
<path fill="none" stroke="#191970" d="M1048.382,-190.2977C1041.79,-181.672 1033.5052,-170.8312 1026.6099,-161.8087"/>
<polygon fill="#191970" stroke="#191970" points="1029.3783,-159.6671 1020.5253,-153.8469 1023.8165,-163.9176 1029.3783,-159.6671"/>
</g>
<!-- Node22 -->
<g id="node23" class="node">
<title>Node22</title>
<g id="a_node23"><a xlink:href="general__exceptions_8h.html" target="_top" xlink:title="Definition of self&#45;defined general exceptions. ">
<polygon fill="none" stroke="#000000" points="800.5,-134.5 800.5,-153.5 909.5,-153.5 909.5,-134.5 800.5,-134.5"/>
<text text-anchor="middle" x="855" y="-141.5" font-family="Helvetica,sans-Serif" font-size="10.00" fill="#000000">general_exceptions.h</text>
</a>
</g>
</g>
<!-- Node18&#45;&gt;Node22 -->
<g id="edge26" class="edge">
<title>Node18&#45;&gt;Node22</title>
<path fill="none" stroke="#191970" d="M1012.4536,-191.2361C977.5094,-180.7528 930.467,-166.6401 896.9234,-156.577"/>
<polygon fill="#191970" stroke="#191970" points="897.559,-153.1136 886.975,-153.5925 895.5475,-159.8184 897.559,-153.1136"/>
</g>
<!-- Node24 -->
<g id="node25" class="node">
<title>Node24</title>
<g id="a_node25"><a xlink:href="generic__functors_8h.html" target="_top" xlink:title="This header file contains a set of self&#45;defined generic functors. ">
<polygon fill="none" stroke="#000000" points="1057.5,-134.5 1057.5,-153.5 1154.5,-153.5 1154.5,-134.5 1057.5,-134.5"/>
<text text-anchor="middle" x="1106" y="-141.5" font-family="Helvetica,sans-Serif" font-size="10.00" fill="#000000">generic_functors.h</text>
</a>
</g>
</g>
<!-- Node18&#45;&gt;Node24 -->
<g id="edge28" class="edge">
<title>Node18&#45;&gt;Node24</title>
<path fill="none" stroke="#191970" d="M1071.3708,-190.2977C1077.7561,-181.7609 1085.7641,-171.0545 1092.4705,-162.0883"/>
<polygon fill="#191970" stroke="#191970" points="1095.4479,-163.9511 1098.6348,-153.8469 1089.8425,-159.7584 1095.4479,-163.9511"/>
</g>
<!-- Node25 -->
<g id="node26" class="node">
<title>Node25</title>
<g id="a_node26"><a xlink:href="lapack__helpers_8h.html" target="_top" xlink:title="Exposes LAPACK helper functions defined in lapack_full_matrix.cc and define new ones by following the...">
<polygon fill="none" stroke="#000000" points="1655,-134.5 1655,-153.5 1745,-153.5 1745,-134.5 1655,-134.5"/>
<text text-anchor="middle" x="1700" y="-141.5" font-family="Helvetica,sans-Serif" font-size="10.00" fill="#000000">lapack_helpers.h</text>
</a>
</g>
</g>
<!-- Node18&#45;&gt;Node25 -->
<g id="edge34" class="edge">
<title>Node18&#45;&gt;Node25</title>
<path fill="none" stroke="#191970" d="M1107.5812,-200.9277C1223.6701,-189.7723 1520.9497,-161.2056 1644.6743,-149.3164"/>
<polygon fill="#191970" stroke="#191970" points="1645.0703,-152.7946 1654.6896,-148.354 1644.4006,-145.8267 1645.0703,-152.7946"/>
</g>
<!-- Node23 -->
<g id="node24" class="node">
<title>Node23</title>
<polygon fill="none" stroke="#bfbfbf" points="816,-73 816,-92 942,-92 942,-73 816,-73"/>
<text text-anchor="middle" x="879" y="-80" font-family="Helvetica,sans-Serif" font-size="10.00" fill="#000000">deal.II/base/exceptions.h</text>
</g>
<!-- Node22&#45;&gt;Node23 -->
<g id="edge27" class="edge">
<title>Node22&#45;&gt;Node23</title>
<path fill="none" stroke="#191970" d="M858.75,-134.3906C862.1468,-125.6862 867.2531,-112.6015 871.488,-101.7494"/>
<polygon fill="#191970" stroke="#191970" points="874.8222,-102.8331 875.1971,-92.2449 868.3011,-100.2882 874.8222,-102.8331"/>
</g>
<!-- Node24&#45;&gt;Node10 -->
<g id="edge30" class="edge">
<title>Node24&#45;&gt;Node10</title>
<path fill="none" stroke="#191970" d="M1106,-134.3906C1106,-125.8657 1106,-113.1392 1106,-102.4235"/>
<polygon fill="#191970" stroke="#191970" points="1109.5001,-102.2448 1106,-92.2449 1102.5001,-102.2449 1109.5001,-102.2448"/>
</g>
<!-- Node24&#45;&gt;Node13 -->
<g id="edge31" class="edge">
<title>Node24&#45;&gt;Node13</title>
<path fill="none" stroke="#191970" d="M1071.1019,-134.4435C1041.3995,-125.5209 1002.132,-111.5771 993,-98 985.3105,-86.5676 983.7897,-77.2468 993,-67 1021.0499,-35.7934 1297.9314,-21.9535 1418.915,-17.3611"/>
<polygon fill="#191970" stroke="#191970" points="1419.2231,-20.8521 1429.0862,-16.9829 1418.963,-13.857 1419.2231,-20.8521"/>
</g>
<!-- Node24&#45;&gt;Node16 -->
<g id="edge32" class="edge">
<title>Node24&#45;&gt;Node16</title>
<path fill="none" stroke="#191970" d="M1092.4063,-134.3906C1078.6157,-124.6421 1057.0528,-109.3994 1040.859,-97.9521"/>
<polygon fill="#191970" stroke="#191970" points="1042.6844,-94.9563 1032.4983,-92.0419 1038.6437,-100.6723 1042.6844,-94.9563"/>
</g>
<!-- Node24&#45;&gt;Node17 -->
<g id="edge33" class="edge">
<title>Node24&#45;&gt;Node17</title>
<path fill="none" stroke="#191970" d="M1057.279,-135.5182C1054.1402,-134.997 1051.0265,-134.4869 1048,-134 941.0753,-116.7985 911.004,-128.1986 807,-98 804.874,-97.3827 802.7086,-96.6636 800.5502,-95.8796"/>
<polygon fill="#191970" stroke="#191970" points="801.858,-92.6332 791.2746,-92.1419 799.2417,-99.1259 801.858,-92.6332"/>
</g>
<!-- Node24&#45;&gt;Node23 -->
<g id="edge29" class="edge">
<title>Node24&#45;&gt;Node23</title>
<path fill="none" stroke="#191970" d="M1070.5313,-134.3906C1031.0507,-123.6944 967.1557,-106.3836 924.1395,-94.7294"/>
<polygon fill="#191970" stroke="#191970" points="924.787,-91.2787 914.2197,-92.0419 922.9565,-98.0352 924.787,-91.2787"/>
</g>
<!-- Node25&#45;&gt;Node11 -->
<g id="edge38" class="edge">
<title>Node25&#45;&gt;Node11</title>
<path fill="none" stroke="#191970" d="M1745.1587,-140.7015C1821.3673,-134.749 1980.1921,-120.6789 2113,-98 2119.2559,-96.9317 2125.8025,-95.6388 2132.2494,-94.2606"/>
<polygon fill="#191970" stroke="#191970" points="2133.2369,-97.6267 2142.242,-92.0446 2131.7214,-90.7927 2133.2369,-97.6267"/>
</g>
<!-- Node25&#45;&gt;Node12 -->
<g id="edge39" class="edge">
<title>Node25&#45;&gt;Node12</title>
<path fill="none" stroke="#191970" d="M1745.0494,-143.1125C1837.4602,-140.6687 2055.1294,-131.7098 2246.2906,-97.889"/>
<polygon fill="#191970" stroke="#191970" points="2247.0133,-101.3152 2256.2369,-96.1022 2245.7756,-94.4255 2247.0133,-101.3152"/>
</g>
<!-- Node25&#45;&gt;Node13 -->
<g id="edge40" class="edge">
<title>Node25&#45;&gt;Node13</title>
<path fill="none" stroke="#191970" d="M1654.5791,-143.1901C1537.9529,-140.6424 1234.9768,-130.8917 1205,-98 1195.7193,-87.8169 1196.2176,-77.6159 1205,-67 1231.6368,-34.8023 1348.196,-22.5557 1419.1739,-18.0315"/>
<polygon fill="#191970" stroke="#191970" points="1419.529,-21.5165 1429.2992,-17.4186 1419.1059,-14.5293 1419.529,-21.5165"/>
</g>
<!-- Node25&#45;&gt;Node14 -->
<g id="edge41" class="edge">
<title>Node25&#45;&gt;Node14</title>
<path fill="none" stroke="#191970" d="M1745.0209,-142.0793C1870.0225,-136.5558 2220.4955,-119.7287 2355.3957,-97.9969"/>
<polygon fill="#191970" stroke="#191970" points="2356.2164,-101.4079 2365.4923,-96.2886 2355.0485,-94.506 2356.2164,-101.4079"/>
</g>
<!-- Node26 -->
<g id="node27" class="node">
<title>Node26</title>
<polygon fill="none" stroke="#bfbfbf" points="1842,-73 1842,-92 1958,-92 1958,-73 1842,-73"/>
<text text-anchor="middle" x="1900" y="-80" font-family="Helvetica,sans-Serif" font-size="10.00" fill="#000000">deal.II/base/numbers.h</text>
</g>
<!-- Node25&#45;&gt;Node26 -->
<g id="edge35" class="edge">
<title>Node25&#45;&gt;Node26</title>
<path fill="none" stroke="#191970" d="M1731.25,-134.3906C1765.7411,-123.7846 1821.3812,-106.6753 1859.2662,-95.0257"/>
<polygon fill="#191970" stroke="#191970" points="1860.4399,-98.3266 1868.9694,-92.0419 1858.3824,-91.6357 1860.4399,-98.3266"/>
</g>
<!-- Node27 -->
<g id="node28" class="node">
<title>Node27</title>
<polygon fill="none" stroke="#bfbfbf" points="1976,-67.5 1976,-97.5 2104,-97.5 2104,-67.5 1976,-67.5"/>
<text text-anchor="start" x="1984" y="-85.5" font-family="Helvetica,sans-Serif" font-size="10.00" fill="#000000">deal.II/lac/blas_extension</text>
<text text-anchor="middle" x="2040" y="-74.5" font-family="Helvetica,sans-Serif" font-size="10.00" fill="#000000">_templates.h</text>
</g>
<!-- Node25&#45;&gt;Node27 -->
<g id="edge36" class="edge">
<title>Node25&#45;&gt;Node27</title>
<path fill="none" stroke="#191970" d="M1745.4498,-136.7184C1796.6351,-128.3959 1882.5414,-114.062 1966.0309,-98.1468"/>
<polygon fill="#191970" stroke="#191970" points="1966.7716,-101.5686 1975.9343,-96.2491 1965.4542,-94.6936 1966.7716,-101.5686"/>
</g>
<!-- Node28 -->
<g id="node29" class="node">
<title>Node28</title>
<polygon fill="none" stroke="#bfbfbf" points="1214,-73 1214,-92 1340,-92 1340,-73 1214,-73"/>
<text text-anchor="middle" x="1277" y="-80" font-family="Helvetica,sans-Serif" font-size="10.00" fill="#000000">deal.II/lac/block_vector.h</text>
</g>
<!-- Node25&#45;&gt;Node28 -->
<g id="edge37" class="edge">
<title>Node25&#45;&gt;Node28</title>
<path fill="none" stroke="#191970" d="M1654.9423,-139.2877C1587.9711,-132.0142 1458.3115,-116.8965 1349,-98 1342.3124,-96.8439 1335.3028,-95.5009 1328.3923,-94.0982"/>
<polygon fill="#191970" stroke="#191970" points="1328.8908,-90.627 1318.3873,-92.0152 1327.464,-97.4801 1328.8908,-90.627"/>
</g>
<!-- Node29 -->
<g id="node30" class="node">
<title>Node29</title>
<polygon fill="none" stroke="#bfbfbf" points="1358,-67.5 1358,-97.5 1450,-97.5 1450,-67.5 1358,-67.5"/>
<text text-anchor="start" x="1366" y="-85.5" font-family="Helvetica,sans-Serif" font-size="10.00" fill="#000000">deal.II/lac/sparse</text>
<text text-anchor="middle" x="1404" y="-74.5" font-family="Helvetica,sans-Serif" font-size="10.00" fill="#000000">_matrix.h</text>
</g>
<!-- Node25&#45;&gt;Node29 -->
<g id="edge42" class="edge">
<title>Node25&#45;&gt;Node29</title>
<path fill="none" stroke="#191970" d="M1654.652,-136.4322C1606.2229,-128.0886 1527.3366,-113.745 1460,-98 1459.8987,-97.9763 1459.7973,-97.9526 1459.6958,-97.9288"/>
<polygon fill="#191970" stroke="#191970" points="1460.6151,-94.5505 1450.0692,-95.5683 1458.948,-101.3492 1460.6151,-94.5505"/>
</g>
<!-- Node30 -->
<g id="node31" class="node">
<title>Node30</title>
<polygon fill="none" stroke="#bfbfbf" points="1468.5,-73 1468.5,-92 1569.5,-92 1569.5,-73 1468.5,-73"/>
<text text-anchor="middle" x="1519" y="-80" font-family="Helvetica,sans-Serif" font-size="10.00" fill="#000000">deal.II/lac/utilities.h</text>
</g>
<!-- Node25&#45;&gt;Node30 -->
<g id="edge43" class="edge">
<title>Node25&#45;&gt;Node30</title>
<path fill="none" stroke="#191970" d="M1671.7188,-134.3906C1640.77,-123.8749 1591.0058,-106.966 1556.743,-95.3243"/>
<polygon fill="#191970" stroke="#191970" points="1557.6771,-91.9452 1547.0827,-92.0419 1555.425,-98.573 1557.6771,-91.9452"/>
</g>
<!-- Node31 -->
<g id="node32" class="node">
<title>Node31</title>
<polygon fill="none" stroke="#bfbfbf" points="1588,-73 1588,-92 1686,-92 1686,-73 1588,-73"/>
<text text-anchor="middle" x="1637" y="-80" font-family="Helvetica,sans-Serif" font-size="10.00" fill="#000000">deal.II/lac/vector.h</text>
</g>
<!-- Node25&#45;&gt;Node31 -->
<g id="edge44" class="edge">
<title>Node25&#45;&gt;Node31</title>
<path fill="none" stroke="#191970" d="M1690.1563,-134.3906C1680.5961,-125.0581 1665.8777,-110.6902 1654.3505,-99.4374"/>
<polygon fill="#191970" stroke="#191970" points="1656.5832,-96.7257 1646.9825,-92.2449 1651.6934,-101.7348 1656.5832,-96.7257"/>
</g>
<!-- Node32 -->
<g id="node33" class="node">
<title>Node32</title>
<g id="a_node33"><a xlink:href="lapack__templates__ext_8h.html" target="_top" xlink:title="Append more template based LAPACK functions to those existing in deal.ii. ">
<polygon fill="none" stroke="#000000" points="1704,-73 1704,-92 1824,-92 1824,-73 1704,-73"/>
<text text-anchor="middle" x="1764" y="-80" font-family="Helvetica,sans-Serif" font-size="10.00" fill="#000000">lapack_templates_ext.h</text>
</a>
</g>
</g>
<!-- Node25&#45;&gt;Node32 -->
<g id="edge45" class="edge">
<title>Node25&#45;&gt;Node32</title>
<path fill="none" stroke="#191970" d="M1710,-134.3906C1719.7119,-125.0581 1734.6639,-110.6902 1746.3741,-99.4374"/>
<polygon fill="#191970" stroke="#191970" points="1749.0736,-101.6974 1753.859,-92.2449 1744.2234,-96.65 1749.0736,-101.6974"/>
</g>
<!-- Node32&#45;&gt;Node13 -->
<g id="edge46" class="edge">
<title>Node32&#45;&gt;Node13</title>
<path fill="none" stroke="#191970" d="M1722.9003,-72.9717C1672.4762,-61.2817 1586.7757,-41.4134 1530.5257,-28.3727"/>
<polygon fill="#191970" stroke="#191970" points="1531.2583,-24.9498 1520.7262,-26.1009 1529.6774,-31.769 1531.2583,-24.9498"/>
</g>
</g>
</svg>
        <g id="navigator" transform="translate(0 0)" fill="#404254">
                <rect fill="#f2f5e9" fill-opacity="0.5" stroke="#606060" stroke-width=".5" x="0" y="0" width="60" height="60"/>
                <use id="zoomplus" xlink:href="#zoomPlus" x="17" y="9" onmousedown="handleZoom(evt,'in')"/>
                <use id="zoomminus" xlink:href="#zoomMin" x="42" y="9" onmousedown="handleZoom(evt,'out')"/>
                <use id="reset" xlink:href="#resetDef" x="30" y="36" onmousedown="handleReset()"/>
                <g id="arrowUp" xlink:href="#dirArrow" transform="translate(30 24)" onmousedown="handlePan(0,-1)">
                  <use xlink:href="#rim" fill="#404040">
                        <set attributeName="fill" to="#808080" begin="arrowUp.mouseover" end="arrowUp.mouseout"/>
                  </use>
                  <path fill="none" stroke="white" stroke-width="1.5" d="M0,-3.0v7 M-2.5,-0.5L0,-3.0L2.5,-0.5"/>
                </g>
                <g id="arrowRight" xlink:href="#dirArrow" transform="rotate(90) translate(36 -43)" onmousedown="handlePan(1,0)">
                  <use xlink:href="#rim" fill="#404040">
                        <set attributeName="fill" to="#808080" begin="arrowRight.mouseover" end="arrowRight.mouseout"/>
                  </use>
                  <path fill="none" stroke="white" stroke-width="1.5" d="M0,-3.0v7 M-2.5,-0.5L0,-3.0L2.5,-0.5"/>
                </g>
                <g id="arrowDown" xlink:href="#dirArrow" transform="rotate(180) translate(-30 -48)" onmousedown="handlePan(0,1)">
                  <use xlink:href="#rim" fill="#404040">
                        <set attributeName="fill" to="#808080" begin="arrowDown.mouseover" end="arrowDown.mouseout"/>
                  </use>
                  <path fill="none" stroke="white" stroke-width="1.5" d="M0,-3.0v7 M-2.5,-0.5L0,-3.0L2.5,-0.5"/>
                </g>
                <g id="arrowLeft" xlink:href="#dirArrow" transform="rotate(270) translate(-36 17)" onmousedown="handlePan(-1,0)">
                  <use xlink:href="#rim" fill="#404040">
                        <set attributeName="fill" to="#808080" begin="arrowLeft.mouseover" end="arrowLeft.mouseout"/>
                  </use>
                  <path fill="none" stroke="white" stroke-width="1.5" d="M0,-3.0v7 M-2.5,-0.5L0,-3.0L2.5,-0.5"/>
                </g>
        </g>
        <svg viewBox="0 0 15 15" width="100%" height="30px" preserveAspectRatio="xMaxYMin meet">
         <g id="arrow_out" transform="scale(0.3 0.3)">
          <a xlink:href="rkmatrix-add-formatted_8cc__incl_org.svg" target="_base">
           <rect id="button" ry="5" rx="5" y="6" x="6" height="38" width="38"
                fill="#f2f5e9" fill-opacity="0.5" stroke="#606060" stroke-width="1.0"/>
           <path id="arrow"
             d="M 11.500037,31.436501 C 11.940474,20.09759 22.043105,11.32322 32.158766,21.979434 L 37.068811,17.246167 C 37.068811,17.246167 37.088388,32 37.088388,32 L 22.160133,31.978069 C 22.160133,31.978069 26.997745,27.140456 26.997745,27.140456 C 18.528582,18.264221 13.291696,25.230495 11.500037,31.436501 z"
             style="fill:#404040;"/>
          </a>
         </g>
        </svg>
</svg>
