<?xml version="1.0" encoding="UTF-8" standalone="no"?>
<!DOCTYPE svg PUBLIC "-//W3C//DTD SVG 1.1//EN"
 "http://www.w3.org/Graphics/SVG/1.1/DTD/svg11.dtd">
<!-- Generated by graphviz version 2.40.1 (20161225.0304)
 -->
<!-- Title: /home/jihuan/Projects/deal.ii/program/dealii&#45;9.1.1/examples/laplace&#45;bem/tests/rkmatrix&#45;agglomeration&#45;interwoven&#45;indices/rkmatrix&#45;agglomeration&#45;interwoven&#45;indices.cc Pages: 1 -->
<svg width="1367pt" height="329pt"
 viewBox="0.00 0.00 1366.50 329.00" xmlns="http://www.w3.org/2000/svg" xmlns:xlink="http://www.w3.org/1999/xlink">
<g id="graph0" class="graph" transform="scale(1 1) rotate(0) translate(4 325)">
<title>/home/jihuan/Projects/deal.ii/program/dealii&#45;9.1.1/examples/laplace&#45;bem/tests/rkmatrix&#45;agglomeration&#45;interwoven&#45;indices/rkmatrix&#45;agglomeration&#45;interwoven&#45;indices.cc</title>
<!-- Node0 -->
<g id="node1" class="node">
<title>Node0</title>
<polygon fill="#bfbfbf" stroke="#000000" points="706.5,-246.5 706.5,-320.5 909.5,-320.5 909.5,-246.5 706.5,-246.5"/>
<text text-anchor="start" x="714.5" y="-308.5" font-family="Helvetica,sans-Serif" font-size="10.00" fill="#000000">/home/jihuan/Projects</text>
<text text-anchor="start" x="714.5" y="-297.5" font-family="Helvetica,sans-Serif" font-size="10.00" fill="#000000">/deal.ii/program/dealii</text>
<text text-anchor="start" x="714.5" y="-286.5" font-family="Helvetica,sans-Serif" font-size="10.00" fill="#000000">&#45;9.1.1/examples/laplace</text>
<text text-anchor="start" x="714.5" y="-275.5" font-family="Helvetica,sans-Serif" font-size="10.00" fill="#000000">&#45;bem/tests/rkmatrix&#45;agglomeration</text>
<text text-anchor="start" x="714.5" y="-264.5" font-family="Helvetica,sans-Serif" font-size="10.00" fill="#000000">&#45;interwoven&#45;indices/rkmatrix&#45;agglomeration</text>
<text text-anchor="middle" x="808" y="-253.5" font-family="Helvetica,sans-Serif" font-size="10.00" fill="#000000">&#45;interwoven&#45;indices.cc</text>
</g>
<!-- Node1 -->
<g id="node2" class="node">
<title>Node1</title>
<polygon fill="none" stroke="#bfbfbf" points="638.5,-129 638.5,-148 741.5,-148 741.5,-129 638.5,-129"/>
<text text-anchor="middle" x="690" y="-136" font-family="Helvetica,sans-Serif" font-size="10.00" fill="#000000">deal.II/base/types.h</text>
</g>
<!-- Node0&#45;&gt;Node1 -->
<g id="edge1" class="edge">
<title>Node0&#45;&gt;Node1</title>
<path fill="none" stroke="#191970" d="M807.785,-246.2728C805.9669,-227.7703 801.0626,-206.0067 789,-190 775.4726,-172.0496 753.8737,-159.7919 734.2973,-151.754"/>
<polygon fill="#191970" stroke="#191970" points="735.4837,-148.4604 724.8937,-148.1406 732.9729,-154.9946 735.4837,-148.4604"/>
</g>
<!-- Node2 -->
<g id="node3" class="node">
<title>Node2</title>
<polygon fill="none" stroke="#bfbfbf" points="726,-190.5 726,-209.5 780,-209.5 780,-190.5 726,-190.5"/>
<text text-anchor="middle" x="753" y="-197.5" font-family="Helvetica,sans-Serif" font-size="10.00" fill="#000000">iostream</text>
</g>
<!-- Node0&#45;&gt;Node2 -->
<g id="edge2" class="edge">
<title>Node0&#45;&gt;Node2</title>
<path fill="none" stroke="#191970" d="M783.3956,-246.1461C776.9951,-236.4289 770.383,-226.3906 764.967,-218.1681"/>
<polygon fill="#191970" stroke="#191970" points="767.8591,-216.196 759.4354,-209.7701 762.0133,-220.0466 767.8591,-216.196"/>
</g>
<!-- Node3 -->
<g id="node4" class="node">
<title>Node3</title>
<g id="a_node4"><a xlink:href="generic__functors_8h.html" target="_top" xlink:title="This header file contains a set of self&#45;defined generic functors. ">
<polygon fill="none" stroke="#000000" points="596.5,-190.5 596.5,-209.5 693.5,-209.5 693.5,-190.5 596.5,-190.5"/>
<text text-anchor="middle" x="645" y="-197.5" font-family="Helvetica,sans-Serif" font-size="10.00" fill="#000000">generic_functors.h</text>
</a>
</g>
</g>
<!-- Node0&#45;&gt;Node3 -->
<g id="edge3" class="edge">
<title>Node0&#45;&gt;Node3</title>
<path fill="none" stroke="#191970" d="M735.5566,-246.3894C713.317,-234.9967 690.1666,-223.1375 672.8401,-214.2616"/>
<polygon fill="#191970" stroke="#191970" points="674.3521,-211.1037 663.8562,-209.6594 671.1606,-217.3338 674.3521,-211.1037"/>
</g>
<!-- Node6 -->
<g id="node7" class="node">
<title>Node6</title>
<g id="a_node7"><a xlink:href="lapack__full__matrix__ext_8h_source.html" target="_top" xlink:title="lapack_full_matrix\l_ext.h">
<polygon fill="none" stroke="#000000" points="836.5,-123.5 836.5,-153.5 931.5,-153.5 931.5,-123.5 836.5,-123.5"/>
<text text-anchor="start" x="844.5" y="-141.5" font-family="Helvetica,sans-Serif" font-size="10.00" fill="#000000">lapack_full_matrix</text>
<text text-anchor="middle" x="884" y="-130.5" font-family="Helvetica,sans-Serif" font-size="10.00" fill="#000000">_ext.h</text>
</a>
</g>
</g>
<!-- Node0&#45;&gt;Node6 -->
<g id="edge7" class="edge">
<title>Node0&#45;&gt;Node6</title>
<path fill="none" stroke="#191970" d="M827.5719,-246.1589C841.3489,-219.8738 859.3901,-185.4532 871.3206,-162.691"/>
<polygon fill="#191970" stroke="#191970" points="874.4869,-164.1892 876.0293,-153.7072 868.2869,-160.9395 874.4869,-164.1892"/>
</g>
<!-- Node21 -->
<g id="node22" class="node">
<title>Node21</title>
<g id="a_node22"><a xlink:href="rkmatrix_8h.html" target="_top" xlink:title="Definition of rank&#45;k matrix. ">
<polygon fill="none" stroke="#000000" points="885,-190.5 885,-209.5 945,-209.5 945,-190.5 885,-190.5"/>
<text text-anchor="middle" x="915" y="-197.5" font-family="Helvetica,sans-Serif" font-size="10.00" fill="#000000">rkmatrix.h</text>
</a>
</g>
</g>
<!-- Node0&#45;&gt;Node21 -->
<g id="edge24" class="edge">
<title>Node0&#45;&gt;Node21</title>
<path fill="none" stroke="#191970" d="M855.5549,-246.3894C869.1196,-235.8039 883.2004,-224.8155 894.2512,-216.1918"/>
<polygon fill="#191970" stroke="#191970" points="896.6659,-218.7471 902.3963,-209.8356 892.3594,-213.2285 896.6659,-218.7471"/>
</g>
<!-- Node3&#45;&gt;Node1 -->
<g id="edge4" class="edge">
<title>Node3&#45;&gt;Node1</title>
<path fill="none" stroke="#191970" d="M652.0313,-190.3906C658.663,-181.3273 668.7696,-167.5149 676.8887,-156.4188"/>
<polygon fill="#191970" stroke="#191970" points="679.7891,-158.382 682.8696,-148.2449 674.1399,-154.2484 679.7891,-158.382"/>
</g>
<!-- Node4 -->
<g id="node5" class="node">
<title>Node4</title>
<polygon fill="none" stroke="#bfbfbf" points="543.5,-67.5 543.5,-86.5 578.5,-86.5 578.5,-67.5 543.5,-67.5"/>
<text text-anchor="middle" x="561" y="-74.5" font-family="Helvetica,sans-Serif" font-size="10.00" fill="#000000">map</text>
</g>
<!-- Node3&#45;&gt;Node4 -->
<g id="edge5" class="edge">
<title>Node3&#45;&gt;Node4</title>
<path fill="none" stroke="#191970" d="M638.4087,-190.3484C624.3622,-169.7804 591.2944,-121.3596 573.2578,-94.9489"/>
<polygon fill="#191970" stroke="#191970" points="576.0907,-92.8909 567.5607,-86.6068 570.3101,-96.8387 576.0907,-92.8909"/>
</g>
<!-- Node5 -->
<g id="node6" class="node">
<title>Node5</title>
<polygon fill="none" stroke="#bfbfbf" points="597,-67.5 597,-86.5 641,-86.5 641,-67.5 597,-67.5"/>
<text text-anchor="middle" x="619" y="-74.5" font-family="Helvetica,sans-Serif" font-size="10.00" fill="#000000">vector</text>
</g>
<!-- Node3&#45;&gt;Node5 -->
<g id="edge6" class="edge">
<title>Node3&#45;&gt;Node5</title>
<path fill="none" stroke="#191970" d="M640.9711,-190.3029C637.3102,-181.1106 632.0321,-166.8372 629,-154 624.4619,-134.7863 621.8433,-112.3558 620.4333,-96.6773"/>
<polygon fill="#191970" stroke="#191970" points="623.9125,-96.2786 619.61,-86.5968 616.9357,-96.8485 623.9125,-96.2786"/>
</g>
<!-- Node6&#45;&gt;Node4 -->
<g id="edge9" class="edge">
<title>Node6&#45;&gt;Node4</title>
<path fill="none" stroke="#191970" d="M836.2123,-130.677C764.6935,-118.9012 634.102,-97.1154 588.2994,-86.4818"/>
<polygon fill="#191970" stroke="#191970" points="589.121,-83.0795 578.569,-84.0315 587.4115,-89.8676 589.121,-83.0795"/>
</g>
<!-- Node6&#45;&gt;Node5 -->
<g id="edge10" class="edge">
<title>Node6&#45;&gt;Node5</title>
<path fill="none" stroke="#191970" d="M836.3173,-126.3819C831.4871,-125.2136 826.65,-124.0675 822,-123 749.0012,-106.2423 727.2584,-106.9262 651.3173,-87.1472"/>
<polygon fill="#191970" stroke="#191970" points="651.8298,-83.6626 641.2676,-84.4941 650.0429,-90.4308 651.8298,-83.6626"/>
</g>
<!-- Node7 -->
<g id="node8" class="node">
<title>Node7</title>
<polygon fill="none" stroke="#bfbfbf" points="895,-67.5 895,-86.5 935,-86.5 935,-67.5 895,-67.5"/>
<text text-anchor="middle" x="915" y="-74.5" font-family="Helvetica,sans-Serif" font-size="10.00" fill="#000000">limits</text>
</g>
<!-- Node6&#45;&gt;Node7 -->
<g id="edge8" class="edge">
<title>Node6&#45;&gt;Node7</title>
<path fill="none" stroke="#191970" d="M891.6629,-123.2977C895.8316,-115.0277 901.0265,-104.7215 905.4561,-95.9339"/>
<polygon fill="#191970" stroke="#191970" points="908.6607,-97.3521 910.0365,-86.8469 902.4099,-94.2012 908.6607,-97.3521"/>
</g>
<!-- Node8 -->
<g id="node9" class="node">
<title>Node8</title>
<g id="a_node9"><a xlink:href="general__exceptions_8h.html" target="_top" xlink:title="Definition of self&#45;defined general exceptions. ">
<polygon fill="none" stroke="#000000" points="659.5,-67.5 659.5,-86.5 768.5,-86.5 768.5,-67.5 659.5,-67.5"/>
<text text-anchor="middle" x="714" y="-74.5" font-family="Helvetica,sans-Serif" font-size="10.00" fill="#000000">general_exceptions.h</text>
</a>
</g>
</g>
<!-- Node6&#45;&gt;Node8 -->
<g id="edge11" class="edge">
<title>Node6&#45;&gt;Node8</title>
<path fill="none" stroke="#191970" d="M842.4133,-123.4554C814.0484,-113.194 776.8667,-99.7429 749.8164,-89.9571"/>
<polygon fill="#191970" stroke="#191970" points="750.9382,-86.641 740.344,-86.5303 748.5569,-93.2235 750.9382,-86.641"/>
</g>
<!-- Node10 -->
<g id="node11" class="node">
<title>Node10</title>
<g id="a_node11"><a xlink:href="lapack__helpers_8h.html" target="_top" xlink:title="Exposes LAPACK helper functions defined in lapack_full_matrix.cc and define new ones by following the...">
<polygon fill="none" stroke="#000000" points="787,-67.5 787,-86.5 877,-86.5 877,-67.5 787,-67.5"/>
<text text-anchor="middle" x="832" y="-74.5" font-family="Helvetica,sans-Serif" font-size="10.00" fill="#000000">lapack_helpers.h</text>
</a>
</g>
</g>
<!-- Node6&#45;&gt;Node10 -->
<g id="edge13" class="edge">
<title>Node6&#45;&gt;Node10</title>
<path fill="none" stroke="#191970" d="M871.1461,-123.2977C863.7776,-114.5831 854.4974,-103.6075 846.8223,-94.5302"/>
<polygon fill="#191970" stroke="#191970" points="849.4552,-92.2233 840.3259,-86.8469 844.1098,-96.743 849.4552,-92.2233"/>
</g>
<!-- Node9 -->
<g id="node10" class="node">
<title>Node9</title>
<polygon fill="none" stroke="#bfbfbf" points="0,-6 0,-25 126,-25 126,-6 0,-6"/>
<text text-anchor="middle" x="63" y="-13" font-family="Helvetica,sans-Serif" font-size="10.00" fill="#000000">deal.II/base/exceptions.h</text>
</g>
<!-- Node8&#45;&gt;Node9 -->
<g id="edge12" class="edge">
<title>Node8&#45;&gt;Node9</title>
<path fill="none" stroke="#191970" d="M659.2286,-68.1278C656.1099,-67.7205 653.0172,-67.3406 650,-67 422.0003,-41.266 362.1731,-63.2258 135,-31 127.606,-29.9511 119.8381,-28.574 112.2518,-27.0731"/>
<polygon fill="#191970" stroke="#191970" points="112.9313,-23.6396 102.4302,-25.0458 111.5162,-30.4951 112.9313,-23.6396"/>
</g>
<!-- Node11 -->
<g id="node12" class="node">
<title>Node11</title>
<polygon fill="none" stroke="#bfbfbf" points="634,-6 634,-25 750,-25 750,-6 634,-6"/>
<text text-anchor="middle" x="692" y="-13" font-family="Helvetica,sans-Serif" font-size="10.00" fill="#000000">deal.II/base/numbers.h</text>
</g>
<!-- Node10&#45;&gt;Node11 -->
<g id="edge14" class="edge">
<title>Node10&#45;&gt;Node11</title>
<path fill="none" stroke="#191970" d="M810.125,-67.3906C786.7004,-57.1005 749.3404,-40.6888 722.9159,-29.0809"/>
<polygon fill="#191970" stroke="#191970" points="724.2846,-25.8594 713.7214,-25.0419 721.4693,-32.2683 724.2846,-25.8594"/>
</g>
<!-- Node12 -->
<g id="node13" class="node">
<title>Node12</title>
<polygon fill="none" stroke="#bfbfbf" points="768,-.5 768,-30.5 896,-30.5 896,-.5 768,-.5"/>
<text text-anchor="start" x="776" y="-18.5" font-family="Helvetica,sans-Serif" font-size="10.00" fill="#000000">deal.II/lac/blas_extension</text>
<text text-anchor="middle" x="832" y="-7.5" font-family="Helvetica,sans-Serif" font-size="10.00" fill="#000000">_templates.h</text>
</g>
<!-- Node10&#45;&gt;Node12 -->
<g id="edge15" class="edge">
<title>Node10&#45;&gt;Node12</title>
<path fill="none" stroke="#191970" d="M832,-67.3906C832,-60.2234 832,-50.0862 832,-40.671"/>
<polygon fill="#191970" stroke="#191970" points="835.5001,-40.5446 832,-30.5446 828.5001,-40.5446 835.5001,-40.5446"/>
</g>
<!-- Node13 -->
<g id="node14" class="node">
<title>Node13</title>
<polygon fill="none" stroke="#bfbfbf" points="144,-6 144,-25 270,-25 270,-6 144,-6"/>
<text text-anchor="middle" x="207" y="-13" font-family="Helvetica,sans-Serif" font-size="10.00" fill="#000000">deal.II/lac/block_vector.h</text>
</g>
<!-- Node10&#45;&gt;Node13 -->
<g id="edge16" class="edge">
<title>Node10&#45;&gt;Node13</title>
<path fill="none" stroke="#191970" d="M786.9776,-68.2758C783.9451,-67.8076 780.9316,-67.376 778,-67 557.4525,-38.7122 499.1152,-62.475 279,-31 271.6072,-29.9429 263.8399,-28.5613 256.2539,-27.0584"/>
<polygon fill="#191970" stroke="#191970" points="256.9337,-23.625 246.4324,-25.0297 255.5177,-30.4803 256.9337,-23.625"/>
</g>
<!-- Node14 -->
<g id="node15" class="node">
<title>Node14</title>
<polygon fill="none" stroke="#bfbfbf" points="1024,-6 1024,-25 1140,-25 1140,-6 1024,-6"/>
<text text-anchor="middle" x="1082" y="-13" font-family="Helvetica,sans-Serif" font-size="10.00" fill="#000000">deal.II/lac/full_matrix.h</text>
</g>
<!-- Node10&#45;&gt;Node14 -->
<g id="edge17" class="edge">
<title>Node10&#45;&gt;Node14</title>
<path fill="none" stroke="#191970" d="M870.7882,-67.4581C914.5784,-56.6857 985.8909,-39.1428 1033.3696,-27.4631"/>
<polygon fill="#191970" stroke="#191970" points="1034.2464,-30.8518 1043.1208,-25.0643 1032.5742,-24.0545 1034.2464,-30.8518"/>
</g>
<!-- Node15 -->
<g id="node16" class="node">
<title>Node15</title>
<polygon fill="none" stroke="#bfbfbf" points="1158.5,-.5 1158.5,-30.5 1249.5,-30.5 1249.5,-.5 1158.5,-.5"/>
<text text-anchor="start" x="1166.5" y="-18.5" font-family="Helvetica,sans-Serif" font-size="10.00" fill="#000000">deal.II/lac/lapack</text>
<text text-anchor="middle" x="1204" y="-7.5" font-family="Helvetica,sans-Serif" font-size="10.00" fill="#000000">_full_matrix.h</text>
</g>
<!-- Node10&#45;&gt;Node15 -->
<g id="edge18" class="edge">
<title>Node10&#45;&gt;Node15</title>
<path fill="none" stroke="#191970" d="M877.0537,-68.4928C880.0787,-67.9722 883.0819,-67.4696 886,-67 999.295,-48.7661 1031.74,-54.7058 1148.1785,-30.9913"/>
<polygon fill="#191970" stroke="#191970" points="1149.1168,-34.3715 1158.2014,-28.9198 1147.6999,-27.5163 1149.1168,-34.3715"/>
</g>
<!-- Node16 -->
<g id="node17" class="node">
<title>Node16</title>
<polygon fill="none" stroke="#bfbfbf" points="1267.5,-.5 1267.5,-30.5 1358.5,-30.5 1358.5,-.5 1267.5,-.5"/>
<text text-anchor="start" x="1275.5" y="-18.5" font-family="Helvetica,sans-Serif" font-size="10.00" fill="#000000">deal.II/lac/lapack</text>
<text text-anchor="middle" x="1313" y="-7.5" font-family="Helvetica,sans-Serif" font-size="10.00" fill="#000000">_support.h</text>
</g>
<!-- Node10&#45;&gt;Node16 -->
<g id="edge19" class="edge">
<title>Node10&#45;&gt;Node16</title>
<path fill="none" stroke="#191970" d="M877.0334,-68.3579C880.0632,-67.8699 883.0731,-67.4115 886,-67 1047.7052,-44.2676 1093.5999,-61.4069 1257.537,-31.0723"/>
<polygon fill="#191970" stroke="#191970" points="1258.2961,-34.491 1267.4765,-29.2022 1257.0017,-27.6117 1258.2961,-34.491"/>
</g>
<!-- Node17 -->
<g id="node18" class="node">
<title>Node17</title>
<polygon fill="none" stroke="#bfbfbf" points="914.5,-.5 914.5,-30.5 1005.5,-30.5 1005.5,-.5 914.5,-.5"/>
<text text-anchor="start" x="922.5" y="-18.5" font-family="Helvetica,sans-Serif" font-size="10.00" fill="#000000">deal.II/lac/lapack</text>
<text text-anchor="middle" x="960" y="-7.5" font-family="Helvetica,sans-Serif" font-size="10.00" fill="#000000">_templates.h</text>
</g>
<!-- Node10&#45;&gt;Node17 -->
<g id="edge20" class="edge">
<title>Node10&#45;&gt;Node17</title>
<path fill="none" stroke="#191970" d="M852,-67.3906C870.045,-58.7205 897.1352,-45.7046 919.6688,-34.8779"/>
<polygon fill="#191970" stroke="#191970" points="921.1899,-38.0302 928.6877,-30.5446 918.1583,-31.7206 921.1899,-38.0302"/>
</g>
<!-- Node18 -->
<g id="node19" class="node">
<title>Node18</title>
<polygon fill="none" stroke="#bfbfbf" points="288,-.5 288,-30.5 380,-30.5 380,-.5 288,-.5"/>
<text text-anchor="start" x="296" y="-18.5" font-family="Helvetica,sans-Serif" font-size="10.00" fill="#000000">deal.II/lac/sparse</text>
<text text-anchor="middle" x="334" y="-7.5" font-family="Helvetica,sans-Serif" font-size="10.00" fill="#000000">_matrix.h</text>
</g>
<!-- Node10&#45;&gt;Node18 -->
<g id="edge21" class="edge">
<title>Node10&#45;&gt;Node18</title>
<path fill="none" stroke="#191970" d="M786.9685,-68.3446C783.9382,-67.8598 780.9277,-67.4057 778,-67 609.2069,-43.6098 561.4746,-61.971 389.933,-30.9544"/>
<polygon fill="#191970" stroke="#191970" points="390.5374,-27.5069 380.0694,-29.1417 389.2721,-34.3916 390.5374,-27.5069"/>
</g>
<!-- Node19 -->
<g id="node20" class="node">
<title>Node19</title>
<polygon fill="none" stroke="#bfbfbf" points="398.5,-6 398.5,-25 499.5,-25 499.5,-6 398.5,-6"/>
<text text-anchor="middle" x="449" y="-13" font-family="Helvetica,sans-Serif" font-size="10.00" fill="#000000">deal.II/lac/utilities.h</text>
</g>
<!-- Node10&#45;&gt;Node19 -->
<g id="edge22" class="edge">
<title>Node10&#45;&gt;Node19</title>
<path fill="none" stroke="#191970" d="M786.9479,-68.4826C783.9226,-67.9645 780.9188,-67.4653 778,-67 658.8824,-48.0121 627.3837,-54.1265 509,-31 503.8525,-29.9944 498.4896,-28.8097 493.1801,-27.5506"/>
<polygon fill="#191970" stroke="#191970" points="493.6534,-24.0625 483.1061,-25.0651 491.9765,-30.8587 493.6534,-24.0625"/>
</g>
<!-- Node20 -->
<g id="node21" class="node">
<title>Node20</title>
<polygon fill="none" stroke="#bfbfbf" points="518,-6 518,-25 616,-25 616,-6 518,-6"/>
<text text-anchor="middle" x="567" y="-13" font-family="Helvetica,sans-Serif" font-size="10.00" fill="#000000">deal.II/lac/vector.h</text>
</g>
<!-- Node10&#45;&gt;Node20 -->
<g id="edge23" class="edge">
<title>Node10&#45;&gt;Node20</title>
<path fill="none" stroke="#191970" d="M786.6451,-67.5007C744.6206,-58.5617 680.4277,-44.5584 625,-31 620.6102,-29.9262 616.0435,-28.7715 611.4859,-27.5941"/>
<polygon fill="#191970" stroke="#191970" points="612.1555,-24.1514 601.5949,-25.0029 610.3815,-30.9229 612.1555,-24.1514"/>
</g>
<!-- Node21&#45;&gt;Node1 -->
<g id="edge25" class="edge">
<title>Node21&#45;&gt;Node1</title>
<path fill="none" stroke="#191970" d="M884.6555,-191.7058C846.0703,-181.1592 779.1347,-162.8635 734.7021,-150.7186"/>
<polygon fill="#191970" stroke="#191970" points="735.5979,-147.3351 725.0289,-148.0746 733.7522,-154.0874 735.5979,-147.3351"/>
</g>
<!-- Node21&#45;&gt;Node4 -->
<g id="edge31" class="edge">
<title>Node21&#45;&gt;Node4</title>
<path fill="none" stroke="#191970" d="M884.828,-193.2279C857.2193,-186.17 815.9312,-173.3987 784,-154 766.8019,-143.5519 768.7952,-132.3951 751,-123 688.0831,-89.7825 661.3927,-106.4187 588.2485,-86.6565"/>
<polygon fill="#191970" stroke="#191970" points="589.178,-83.2821 578.602,-83.9143 587.2639,-90.0153 589.178,-83.2821"/>
</g>
<!-- Node21&#45;&gt;Node5 -->
<g id="edge32" class="edge">
<title>Node21&#45;&gt;Node5</title>
<path fill="none" stroke="#191970" d="M895.2542,-190.462C877.3575,-181.6069 850.4304,-167.7543 828,-154 807.6071,-141.495 805.6624,-133.1484 784,-123 730.9927,-98.1672 711.1669,-103.7833 651.2772,-87.2025"/>
<polygon fill="#191970" stroke="#191970" points="651.8875,-83.7364 641.31,-84.3427 649.9569,-90.465 651.8875,-83.7364"/>
</g>
<!-- Node21&#45;&gt;Node6 -->
<g id="edge33" class="edge">
<title>Node21&#45;&gt;Node6</title>
<path fill="none" stroke="#191970" d="M910.1563,-190.3906C906.4269,-182.9922 901.1025,-172.4291 896.2298,-162.7623"/>
<polygon fill="#191970" stroke="#191970" points="899.2101,-160.8989 891.5835,-153.5446 892.9593,-164.0497 899.2101,-160.8989"/>
</g>
<!-- Node21&#45;&gt;Node14 -->
<g id="edge26" class="edge">
<title>Node21&#45;&gt;Node14</title>
<path fill="none" stroke="#191970" d="M924.5049,-190.3773C933.4089,-181.2376 946.9618,-166.9997 958,-154 989.5886,-116.798 991.8711,-102.8372 1025,-67 1036.656,-54.3911 1051.0052,-41.4387 1062.3903,-31.6775"/>
<polygon fill="#191970" stroke="#191970" points="1064.6958,-34.3117 1070.0757,-25.1845 1060.1782,-28.9646 1064.6958,-34.3117"/>
</g>
<!-- Node21&#45;&gt;Node15 -->
<g id="edge27" class="edge">
<title>Node21&#45;&gt;Node15</title>
<path fill="none" stroke="#191970" d="M930.131,-190.3402C975.1844,-161.5778 1109.1816,-76.0329 1171.4814,-36.2601"/>
<polygon fill="#191970" stroke="#191970" points="1173.5884,-39.0675 1180.1339,-30.7363 1169.8217,-33.1673 1173.5884,-39.0675"/>
</g>
<!-- Node21&#45;&gt;Node16 -->
<g id="edge28" class="edge">
<title>Node21&#45;&gt;Node16</title>
<path fill="none" stroke="#191970" d="M945.0361,-197.0687C986.07,-192.2285 1061.2583,-180.3448 1120,-154 1187.2367,-123.8454 1254.6349,-68.3152 1289.2157,-37.5208"/>
<polygon fill="#191970" stroke="#191970" points="1291.7933,-39.9096 1296.8828,-30.6173 1287.1093,-34.7076 1291.7933,-39.9096"/>
</g>
<!-- Node21&#45;&gt;Node17 -->
<g id="edge29" class="edge">
<title>Node21&#45;&gt;Node17</title>
<path fill="none" stroke="#191970" d="M921.9427,-190.2866C927.9923,-181.3132 936.4838,-167.3859 941,-154 953.8086,-116.0356 957.9987,-69.4395 959.3594,-41.1319"/>
<polygon fill="#191970" stroke="#191970" points="962.8665,-41.0194 959.7653,-30.8887 955.872,-40.7423 962.8665,-41.0194"/>
</g>
<!-- Node22 -->
<g id="node23" class="node">
<title>Node22</title>
<polygon fill="none" stroke="#bfbfbf" points="1067,-129 1067,-148 1111,-148 1111,-129 1067,-129"/>
<text text-anchor="middle" x="1089" y="-136" font-family="Helvetica,sans-Serif" font-size="10.00" fill="#000000">cmath</text>
</g>
<!-- Node21&#45;&gt;Node22 -->
<g id="edge30" class="edge">
<title>Node21&#45;&gt;Node22</title>
<path fill="none" stroke="#191970" d="M945.1397,-190.7649C973.2718,-181.954 1016.3048,-167.9867 1053,-154 1054.6174,-153.3835 1056.2689,-152.7365 1057.9316,-152.0711"/>
<polygon fill="#191970" stroke="#191970" points="1059.5184,-155.2023 1067.4197,-148.1439 1056.8413,-148.7344 1059.5184,-155.2023"/>
</g>
</g>
</svg>
