<?xml version="1.0" encoding="UTF-8" standalone="no"?>
<!DOCTYPE svg PUBLIC "-//W3C//DTD SVG 1.1//EN"
 "http://www.w3.org/Graphics/SVG/1.1/DTD/svg11.dtd">
<!-- Generated by graphviz version 2.40.1 (20161225.0304)
 -->
<!-- Title: /home/jihuan/Projects/deal.ii/program/dealii&#45;9.1.1/examples/laplace&#45;bem/tests/rkmatrix&#45;agglomeration&#45;of&#45;two&#45;submatrices&#45;interwoven&#45;indices/rkmatrix&#45;agglomeration&#45;of&#45;two&#45;submatrices&#45;interwoven&#45;indices.cc Pages: 1 -->
<!--zoomable 340 -->
<svg id="main" version="1.1" xmlns="http://www.w3.org/2000/svg" xmlns:xlink="http://www.w3.org/1999/xlink" xml:space="preserve" onload="init(evt)">
<style type="text/css"><![CDATA[
.edge:hover path { stroke: red; }
.edge:hover polygon { stroke: red; fill: red; }
]]></style>
<script type="text/javascript"><![CDATA[
var edges = document.getElementsByTagName('g');
if (edges && edges.length) {
  for (var i=0;i<edges.length;i++) {
    if (edges[i].id.substr(0,4)=='edge') {
      edges[i].setAttribute('class','edge');
    }
  }
}
]]></script>
        <defs>
                <circle id="rim" cx="0" cy="0" r="7"/>
                <circle id="rim2" cx="0" cy="0" r="3.5"/>
                <g id="zoomPlus">
                        <use xlink:href="#rim" fill="#404040">
                                <set attributeName="fill" to="#808080" begin="zoomplus.mouseover" end="zoomplus.mouseout"/>
                        </use>
                        <path d="M-4,0h8M0,-4v8" fill="none" stroke="white" stroke-width="1.5" pointer-events="none"/>
                </g>
                <g id="zoomMin">
                        <use xlink:href="#rim" fill="#404040">
                                <set attributeName="fill" to="#808080" begin="zoomminus.mouseover" end="zoomminus.mouseout"/>
                        </use>
                        <path d="M-4,0h8" fill="none" stroke="white" stroke-width="1.5" pointer-events="none"/>
                </g>
                <g id="dirArrow">
                        <path fill="none" stroke="white" stroke-width="1.5" d="M0,-3.0v7 M-2.5,-0.5L0,-3.0L2.5,-0.5"/>
                </g>
               <g id="resetDef">
                       <use xlink:href="#rim2" fill="#404040">
                               <set attributeName="fill" to="#808080" begin="reset.mouseover" end="reset.mouseout"/>
                       </use>
               </g>
        </defs>

<script type="text/javascript">
var viewWidth = 1366;
var viewHeight = 340;
var sectionId = 'dynsection-0';
</script>
<script xlink:href="svgpan.js"/>
<svg id="graph" class="graph">
<g id="viewport">
<title>/home/jihuan/Projects/deal.ii/program/dealii&#45;9.1.1/examples/laplace&#45;bem/tests/rkmatrix&#45;agglomeration&#45;of&#45;two&#45;submatrices&#45;interwoven&#45;indices/rkmatrix&#45;agglomeration&#45;of&#45;two&#45;submatrices&#45;interwoven&#45;indices.cc</title>
<!-- Node0 -->
<g id="node1" class="node">
<title>Node0</title>
<polygon fill="#bfbfbf" stroke="#000000" points="473,-246.5 473,-331.5 673,-331.5 673,-246.5 473,-246.5"/>
<text text-anchor="start" x="481" y="-319.5" font-family="Helvetica,sans-Serif" font-size="10.00" fill="#000000">/home/jihuan/Projects</text>
<text text-anchor="start" x="481" y="-308.5" font-family="Helvetica,sans-Serif" font-size="10.00" fill="#000000">/deal.ii/program/dealii</text>
<text text-anchor="start" x="481" y="-297.5" font-family="Helvetica,sans-Serif" font-size="10.00" fill="#000000">&#45;9.1.1/examples/laplace</text>
<text text-anchor="start" x="481" y="-286.5" font-family="Helvetica,sans-Serif" font-size="10.00" fill="#000000">&#45;bem/tests/rkmatrix&#45;agglomeration</text>
<text text-anchor="start" x="481" y="-275.5" font-family="Helvetica,sans-Serif" font-size="10.00" fill="#000000">&#45;of&#45;two&#45;submatrices&#45;interwoven</text>
<text text-anchor="start" x="481" y="-264.5" font-family="Helvetica,sans-Serif" font-size="10.00" fill="#000000">&#45;indices/rkmatrix&#45;agglomeration</text>
<text text-anchor="middle" x="573" y="-253.5" font-family="Helvetica,sans-Serif" font-size="10.00" fill="#000000">&#45;of&#45;two&#45;submatrices&#45;interwoven&#45;indices.cc</text>
</g>
<!-- Node1 -->
<g id="node2" class="node">
<title>Node1</title>
<polygon fill="none" stroke="#bfbfbf" points="399,-190.5 399,-209.5 453,-209.5 453,-190.5 399,-190.5"/>
<text text-anchor="middle" x="426" y="-197.5" font-family="Helvetica,sans-Serif" font-size="10.00" fill="#000000">iostream</text>
</g>
<!-- Node0&#45;&gt;Node1 -->
<g id="edge1" class="edge">
<title>Node0&#45;&gt;Node1</title>
<path fill="none" stroke="#191970" d="M502.5139,-246.3247C483.897,-235.0533 465.0217,-223.6254 450.6766,-214.9403"/>
<polygon fill="#191970" stroke="#191970" points="452.3193,-211.8433 441.9522,-209.6581 448.6938,-217.8314 452.3193,-211.8433"/>
</g>
<!-- Node2 -->
<g id="node3" class="node">
<title>Node2</title>
<g id="a_node3"><a xlink:href="generic__functors_8h.html" target="_top" xlink:title="This header file contains a set of self&#45;defined generic functors. ">
<polygon fill="none" stroke="#000000" points="471.5,-190.5 471.5,-209.5 568.5,-209.5 568.5,-190.5 471.5,-190.5"/>
<text text-anchor="middle" x="520" y="-197.5" font-family="Helvetica,sans-Serif" font-size="10.00" fill="#000000">generic_functors.h</text>
</a>
</g>
</g>
<!-- Node0&#45;&gt;Node2 -->
<g id="edge2" class="edge">
<title>Node0&#45;&gt;Node2</title>
<path fill="none" stroke="#191970" d="M547.5866,-246.3247C541.7055,-236.4488 535.7528,-226.4528 530.8899,-218.2868"/>
<polygon fill="#191970" stroke="#191970" points="533.8752,-216.4593 525.7515,-209.6581 527.8609,-220.0409 533.8752,-216.4593"/>
</g>
<!-- Node6 -->
<g id="node7" class="node">
<title>Node6</title>
<g id="a_node7"><a xlink:href="lapack__full__matrix__ext_8h_source.html" target="_top" xlink:title="lapack_full_matrix\l_ext.h">
<polygon fill="none" stroke="#000000" points="666.5,-123.5 666.5,-153.5 761.5,-153.5 761.5,-123.5 666.5,-123.5"/>
<text text-anchor="start" x="674.5" y="-141.5" font-family="Helvetica,sans-Serif" font-size="10.00" fill="#000000">lapack_full_matrix</text>
<text text-anchor="middle" x="714" y="-130.5" font-family="Helvetica,sans-Serif" font-size="10.00" fill="#000000">_ext.h</text>
</a>
</g>
</g>
<!-- Node0&#45;&gt;Node6 -->
<g id="edge6" class="edge">
<title>Node0&#45;&gt;Node6</title>
<path fill="none" stroke="#191970" d="M613.0278,-246.2753C638.9555,-218.6007 671.6921,-183.6585 692.7373,-161.1953"/>
<polygon fill="#191970" stroke="#191970" points="695.3805,-163.4933 699.6633,-153.8026 690.2721,-158.7073 695.3805,-163.4933"/>
</g>
<!-- Node21 -->
<g id="node22" class="node">
<title>Node21</title>
<g id="a_node22"><a xlink:href="rkmatrix_8h.html" target="_top" xlink:title="Definition of rank&#45;k matrix. ">
<polygon fill="none" stroke="#000000" points="722,-190.5 722,-209.5 782,-209.5 782,-190.5 722,-190.5"/>
<text text-anchor="middle" x="752" y="-197.5" font-family="Helvetica,sans-Serif" font-size="10.00" fill="#000000">rkmatrix.h</text>
</a>
</g>
</g>
<!-- Node0&#45;&gt;Node21 -->
<g id="edge23" class="edge">
<title>Node0&#45;&gt;Node21</title>
<path fill="none" stroke="#191970" d="M658.568,-246.455C682.0788,-234.7653 705.952,-222.8954 723.6815,-214.0802"/>
<polygon fill="#191970" stroke="#191970" points="725.4618,-217.1038 732.8578,-209.5176 722.3453,-210.8358 725.4618,-217.1038"/>
</g>
<!-- Node3 -->
<g id="node4" class="node">
<title>Node3</title>
<polygon fill="none" stroke="#bfbfbf" points="468.5,-129 468.5,-148 571.5,-148 571.5,-129 468.5,-129"/>
<text text-anchor="middle" x="520" y="-136" font-family="Helvetica,sans-Serif" font-size="10.00" fill="#000000">deal.II/base/types.h</text>
</g>
<!-- Node2&#45;&gt;Node3 -->
<g id="edge3" class="edge">
<title>Node2&#45;&gt;Node3</title>
<path fill="none" stroke="#191970" d="M520,-190.3906C520,-181.8657 520,-169.1392 520,-158.4235"/>
<polygon fill="#191970" stroke="#191970" points="523.5001,-158.2448 520,-148.2449 516.5001,-158.2449 523.5001,-158.2448"/>
</g>
<!-- Node4 -->
<g id="node5" class="node">
<title>Node4</title>
<polygon fill="none" stroke="#bfbfbf" points="478.5,-67.5 478.5,-86.5 513.5,-86.5 513.5,-67.5 478.5,-67.5"/>
<text text-anchor="middle" x="496" y="-74.5" font-family="Helvetica,sans-Serif" font-size="10.00" fill="#000000">map</text>
</g>
<!-- Node2&#45;&gt;Node4 -->
<g id="edge4" class="edge">
<title>Node2&#45;&gt;Node4</title>
<path fill="none" stroke="#191970" d="M477.8846,-190.3381C458.5614,-183.5724 437.4452,-172.343 426,-154 418.7066,-142.311 419.4587,-135.1259 426,-123 435.0908,-106.148 453.3485,-94.4622 468.9382,-87.0863"/>
<polygon fill="#191970" stroke="#191970" points="470.4315,-90.2534 478.1944,-83.0431 467.6295,-83.8387 470.4315,-90.2534"/>
</g>
<!-- Node5 -->
<g id="node6" class="node">
<title>Node5</title>
<polygon fill="none" stroke="#bfbfbf" points="532,-67.5 532,-86.5 576,-86.5 576,-67.5 532,-67.5"/>
<text text-anchor="middle" x="554" y="-74.5" font-family="Helvetica,sans-Serif" font-size="10.00" fill="#000000">vector</text>
</g>
<!-- Node2&#45;&gt;Node5 -->
<g id="edge5" class="edge">
<title>Node2&#45;&gt;Node5</title>
<path fill="none" stroke="#191970" d="M498.8784,-190.4622C484.7497,-182.8191 467.2828,-170.6199 459,-154 452.8545,-141.6687 451.6823,-134.6738 459,-123 466.3034,-111.3491 497.6933,-97.5494 522.4186,-88.1245"/>
<polygon fill="#191970" stroke="#191970" points="523.6896,-91.3861 531.8408,-84.6178 521.248,-84.8257 523.6896,-91.3861"/>
</g>
<!-- Node6&#45;&gt;Node4 -->
<g id="edge8" class="edge">
<title>Node6&#45;&gt;Node4</title>
<path fill="none" stroke="#191970" d="M666.16,-126.8915C629.5132,-117.7079 577.5524,-104.0618 523.4113,-86.9207"/>
<polygon fill="#191970" stroke="#191970" points="524.2294,-83.5077 513.6384,-83.7956 522.0972,-90.1752 524.2294,-83.5077"/>
</g>
<!-- Node6&#45;&gt;Node5 -->
<g id="edge9" class="edge">
<title>Node6&#45;&gt;Node5</title>
<path fill="none" stroke="#191970" d="M674.8596,-123.4554C647.4173,-112.9073 611.2066,-98.9888 585.5983,-89.1456"/>
<polygon fill="#191970" stroke="#191970" points="586.596,-85.7795 576.006,-85.4586 584.0844,-92.3134 586.596,-85.7795"/>
</g>
<!-- Node7 -->
<g id="node8" class="node">
<title>Node7</title>
<polygon fill="none" stroke="#bfbfbf" points="594,-67.5 594,-86.5 634,-86.5 634,-67.5 594,-67.5"/>
<text text-anchor="middle" x="614" y="-74.5" font-family="Helvetica,sans-Serif" font-size="10.00" fill="#000000">limits</text>
</g>
<!-- Node6&#45;&gt;Node7 -->
<g id="edge7" class="edge">
<title>Node6&#45;&gt;Node7</title>
<path fill="none" stroke="#191970" d="M689.5372,-123.4554C673.8765,-113.8241 653.6468,-101.3828 638.0644,-91.7996"/>
<polygon fill="#191970" stroke="#191970" points="639.848,-88.7876 629.4965,-86.5303 636.181,-94.7503 639.848,-88.7876"/>
</g>
<!-- Node8 -->
<g id="node9" class="node">
<title>Node8</title>
<g id="a_node9"><a xlink:href="general__exceptions_8h.html" target="_top" xlink:title="Definition of self&#45;defined general exceptions. ">
<polygon fill="none" stroke="#000000" points="652.5,-67.5 652.5,-86.5 761.5,-86.5 761.5,-67.5 652.5,-67.5"/>
<text text-anchor="middle" x="707" y="-74.5" font-family="Helvetica,sans-Serif" font-size="10.00" fill="#000000">general_exceptions.h</text>
</a>
</g>
</g>
<!-- Node6&#45;&gt;Node8 -->
<g id="edge10" class="edge">
<title>Node6&#45;&gt;Node8</title>
<path fill="none" stroke="#191970" d="M712.2697,-123.2977C711.3587,-115.2945 710.2307,-105.3843 709.2524,-96.7889"/>
<polygon fill="#191970" stroke="#191970" points="712.7293,-96.3869 708.1208,-86.8469 705.7742,-97.1786 712.7293,-96.3869"/>
</g>
<!-- Node10 -->
<g id="node11" class="node">
<title>Node10</title>
<g id="a_node11"><a xlink:href="lapack__helpers_8h.html" target="_top" xlink:title="Exposes LAPACK helper functions defined in lapack_full_matrix.cc and define new ones by following the...">
<polygon fill="none" stroke="#000000" points="818,-67.5 818,-86.5 908,-86.5 908,-67.5 818,-67.5"/>
<text text-anchor="middle" x="863" y="-74.5" font-family="Helvetica,sans-Serif" font-size="10.00" fill="#000000">lapack_helpers.h</text>
</a>
</g>
</g>
<!-- Node6&#45;&gt;Node10 -->
<g id="edge12" class="edge">
<title>Node6&#45;&gt;Node10</title>
<path fill="none" stroke="#191970" d="M750.4495,-123.4554C774.8744,-113.374 806.7581,-100.2139 830.3521,-90.4755"/>
<polygon fill="#191970" stroke="#191970" points="832.0021,-93.5809 839.9103,-86.5303 829.3313,-87.1104 832.0021,-93.5809"/>
</g>
<!-- Node9 -->
<g id="node10" class="node">
<title>Node9</title>
<polygon fill="none" stroke="#bfbfbf" points="0,-6 0,-25 126,-25 126,-6 0,-6"/>
<text text-anchor="middle" x="63" y="-13" font-family="Helvetica,sans-Serif" font-size="10.00" fill="#000000">deal.II/base/exceptions.h</text>
</g>
<!-- Node8&#45;&gt;Node9 -->
<g id="edge11" class="edge">
<title>Node8&#45;&gt;Node9</title>
<path fill="none" stroke="#191970" d="M652.2282,-68.1312C649.1097,-67.7231 646.0171,-67.342 643,-67 418.0963,-41.5062 359.0852,-62.8973 135,-31 127.6065,-29.9476 119.8389,-28.5686 112.2527,-27.0668"/>
<polygon fill="#191970" stroke="#191970" points="112.9323,-23.6333 102.4311,-25.0389 111.5168,-30.4887 112.9323,-23.6333"/>
</g>
<!-- Node11 -->
<g id="node12" class="node">
<title>Node11</title>
<polygon fill="none" stroke="#bfbfbf" points="278,-6 278,-25 394,-25 394,-6 278,-6"/>
<text text-anchor="middle" x="336" y="-13" font-family="Helvetica,sans-Serif" font-size="10.00" fill="#000000">deal.II/base/numbers.h</text>
</g>
<!-- Node10&#45;&gt;Node11 -->
<g id="edge13" class="edge">
<title>Node10&#45;&gt;Node11</title>
<path fill="none" stroke="#191970" d="M817.9565,-68.9919C813.2514,-68.2672 808.5334,-67.5868 804,-67 626.5413,-44.0313 579.6977,-59.2326 403,-31 396.5783,-29.974 389.8562,-28.6828 383.2522,-27.2859"/>
<polygon fill="#191970" stroke="#191970" points="383.5516,-23.7676 373.0318,-25.0265 382.0405,-30.6026 383.5516,-23.7676"/>
</g>
<!-- Node12 -->
<g id="node13" class="node">
<title>Node12</title>
<polygon fill="none" stroke="#bfbfbf" points="412,-.5 412,-30.5 540,-30.5 540,-.5 412,-.5"/>
<text text-anchor="start" x="420" y="-18.5" font-family="Helvetica,sans-Serif" font-size="10.00" fill="#000000">deal.II/lac/blas_extension</text>
<text text-anchor="middle" x="476" y="-7.5" font-family="Helvetica,sans-Serif" font-size="10.00" fill="#000000">_templates.h</text>
</g>
<!-- Node10&#45;&gt;Node12 -->
<g id="edge14" class="edge">
<title>Node10&#45;&gt;Node12</title>
<path fill="none" stroke="#191970" d="M817.9229,-69.228C813.2243,-68.4573 808.5171,-67.7015 804,-67 694.1017,-49.9324 663.4346,-50.8305 550.1639,-31.1352"/>
<polygon fill="#191970" stroke="#191970" points="550.4998,-27.6408 540.0454,-29.3597 549.2899,-34.5354 550.4998,-27.6408"/>
</g>
<!-- Node13 -->
<g id="node14" class="node">
<title>Node13</title>
<polygon fill="none" stroke="#bfbfbf" points="558,-6 558,-25 684,-25 684,-6 558,-6"/>
<text text-anchor="middle" x="621" y="-13" font-family="Helvetica,sans-Serif" font-size="10.00" fill="#000000">deal.II/lac/block_vector.h</text>
</g>
<!-- Node10&#45;&gt;Node13 -->
<g id="edge15" class="edge">
<title>Node10&#45;&gt;Node13</title>
<path fill="none" stroke="#191970" d="M825.453,-67.4581C783.1528,-56.7082 714.3223,-39.2162 668.363,-27.5365"/>
<polygon fill="#191970" stroke="#191970" points="669.1891,-24.1352 658.6351,-25.0643 667.4649,-30.9196 669.1891,-24.1352"/>
</g>
<!-- Node14 -->
<g id="node15" class="node">
<title>Node14</title>
<polygon fill="none" stroke="#bfbfbf" points="144,-6 144,-25 260,-25 260,-6 144,-6"/>
<text text-anchor="middle" x="202" y="-13" font-family="Helvetica,sans-Serif" font-size="10.00" fill="#000000">deal.II/lac/full_matrix.h</text>
</g>
<!-- Node10&#45;&gt;Node14 -->
<g id="edge16" class="edge">
<title>Node10&#45;&gt;Node14</title>
<path fill="none" stroke="#191970" d="M817.9694,-68.8876C813.2618,-68.1833 808.5397,-67.5361 804,-67 567.3289,-39.0523 504.7359,-65.9691 269,-31 262.2554,-29.9995 255.1857,-28.674 248.2716,-27.2183"/>
<polygon fill="#191970" stroke="#191970" points="248.8288,-23.7571 238.3089,-25.0151 247.3172,-30.5919 248.8288,-23.7571"/>
</g>
<!-- Node15 -->
<g id="node16" class="node">
<title>Node15</title>
<polygon fill="none" stroke="#bfbfbf" points="1048.5,-.5 1048.5,-30.5 1139.5,-30.5 1139.5,-.5 1048.5,-.5"/>
<text text-anchor="start" x="1056.5" y="-18.5" font-family="Helvetica,sans-Serif" font-size="10.00" fill="#000000">deal.II/lac/lapack</text>
<text text-anchor="middle" x="1094" y="-7.5" font-family="Helvetica,sans-Serif" font-size="10.00" fill="#000000">_full_matrix.h</text>
</g>
<!-- Node10&#45;&gt;Node15 -->
<g id="edge17" class="edge">
<title>Node10&#45;&gt;Node15</title>
<path fill="none" stroke="#191970" d="M900.4783,-67.425C934.1267,-58.7794 985.1163,-45.5574 1038.7197,-31.0495"/>
<polygon fill="#191970" stroke="#191970" points="1039.6654,-34.4195 1048.4,-28.4231 1037.8324,-27.6637 1039.6654,-34.4195"/>
</g>
<!-- Node16 -->
<g id="node17" class="node">
<title>Node16</title>
<polygon fill="none" stroke="#bfbfbf" points="1157.5,-.5 1157.5,-30.5 1248.5,-30.5 1248.5,-.5 1157.5,-.5"/>
<text text-anchor="start" x="1165.5" y="-18.5" font-family="Helvetica,sans-Serif" font-size="10.00" fill="#000000">deal.II/lac/lapack</text>
<text text-anchor="middle" x="1203" y="-7.5" font-family="Helvetica,sans-Serif" font-size="10.00" fill="#000000">_support.h</text>
</g>
<!-- Node10&#45;&gt;Node16 -->
<g id="edge18" class="edge">
<title>Node10&#45;&gt;Node16</title>
<path fill="none" stroke="#191970" d="M908.3954,-71.4115C963.0803,-64.3013 1057.8602,-50.7741 1147.6417,-31.1635"/>
<polygon fill="#191970" stroke="#191970" points="1148.4268,-34.5745 1157.4338,-28.9956 1146.9136,-27.74 1148.4268,-34.5745"/>
</g>
<!-- Node17 -->
<g id="node18" class="node">
<title>Node17</title>
<polygon fill="none" stroke="#bfbfbf" points="1266.5,-.5 1266.5,-30.5 1357.5,-30.5 1357.5,-.5 1266.5,-.5"/>
<text text-anchor="start" x="1274.5" y="-18.5" font-family="Helvetica,sans-Serif" font-size="10.00" fill="#000000">deal.II/lac/lapack</text>
<text text-anchor="middle" x="1312" y="-7.5" font-family="Helvetica,sans-Serif" font-size="10.00" fill="#000000">_templates.h</text>
</g>
<!-- Node10&#45;&gt;Node17 -->
<g id="edge19" class="edge">
<title>Node10&#45;&gt;Node17</title>
<path fill="none" stroke="#191970" d="M908.0984,-74.1586C980.0447,-69.1012 1125.2807,-56.7471 1256.6302,-31.0891"/>
<polygon fill="#191970" stroke="#191970" points="1257.3364,-34.5173 1266.4639,-29.1377 1255.9738,-27.6511 1257.3364,-34.5173"/>
</g>
<!-- Node18 -->
<g id="node19" class="node">
<title>Node18</title>
<polygon fill="none" stroke="#bfbfbf" points="702,-.5 702,-30.5 794,-30.5 794,-.5 702,-.5"/>
<text text-anchor="start" x="710" y="-18.5" font-family="Helvetica,sans-Serif" font-size="10.00" fill="#000000">deal.II/lac/sparse</text>
<text text-anchor="middle" x="748" y="-7.5" font-family="Helvetica,sans-Serif" font-size="10.00" fill="#000000">_matrix.h</text>
</g>
<!-- Node10&#45;&gt;Node18 -->
<g id="edge20" class="edge">
<title>Node10&#45;&gt;Node18</title>
<path fill="none" stroke="#191970" d="M845.0313,-67.3906C829.0351,-58.8361 805.1277,-46.0509 785.047,-35.3121"/>
<polygon fill="#191970" stroke="#191970" points="786.601,-32.1741 776.1322,-30.5446 783.2998,-38.3469 786.601,-32.1741"/>
</g>
<!-- Node19 -->
<g id="node20" class="node">
<title>Node19</title>
<polygon fill="none" stroke="#bfbfbf" points="812.5,-6 812.5,-25 913.5,-25 913.5,-6 812.5,-6"/>
<text text-anchor="middle" x="863" y="-13" font-family="Helvetica,sans-Serif" font-size="10.00" fill="#000000">deal.II/lac/utilities.h</text>
</g>
<!-- Node10&#45;&gt;Node19 -->
<g id="edge21" class="edge">
<title>Node10&#45;&gt;Node19</title>
<path fill="none" stroke="#191970" d="M863,-67.3906C863,-58.8657 863,-46.1392 863,-35.4235"/>
<polygon fill="#191970" stroke="#191970" points="866.5001,-35.2448 863,-25.2449 859.5001,-35.2449 866.5001,-35.2448"/>
</g>
<!-- Node20 -->
<g id="node21" class="node">
<title>Node20</title>
<polygon fill="none" stroke="#bfbfbf" points="932,-6 932,-25 1030,-25 1030,-6 932,-6"/>
<text text-anchor="middle" x="981" y="-13" font-family="Helvetica,sans-Serif" font-size="10.00" fill="#000000">deal.II/lac/vector.h</text>
</g>
<!-- Node10&#45;&gt;Node20 -->
<g id="edge22" class="edge">
<title>Node10&#45;&gt;Node20</title>
<path fill="none" stroke="#191970" d="M881.4375,-67.3906C900.8347,-57.2811 931.569,-41.2628 953.7617,-29.6962"/>
<polygon fill="#191970" stroke="#191970" points="955.4418,-32.7675 962.692,-25.0419 952.2064,-26.56 955.4418,-32.7675"/>
</g>
<!-- Node21&#45;&gt;Node3 -->
<g id="edge24" class="edge">
<title>Node21&#45;&gt;Node3</title>
<path fill="none" stroke="#191970" d="M721.6701,-191.9599C681.9633,-181.4342 611.9984,-162.8875 565.8156,-150.6451"/>
<polygon fill="#191970" stroke="#191970" points="566.618,-147.237 556.0551,-148.0577 564.8243,-154.0033 566.618,-147.237"/>
</g>
<!-- Node21&#45;&gt;Node4 -->
<g id="edge30" class="edge">
<title>Node21&#45;&gt;Node4</title>
<path fill="none" stroke="#191970" d="M721.9447,-193.8139C692.9177,-186.9798 648.4172,-174.1894 614,-154 596.3615,-143.6531 596.6415,-134.8842 580,-123 562.0156,-110.1569 540.0627,-98.25 523.1101,-89.7692"/>
<polygon fill="#191970" stroke="#191970" points="524.2938,-86.4515 513.7742,-85.1906 521.2114,-92.7364 524.2938,-86.4515"/>
</g>
<!-- Node21&#45;&gt;Node5 -->
<g id="edge31" class="edge">
<title>Node21&#45;&gt;Node5</title>
<path fill="none" stroke="#191970" d="M729.0962,-190.3893C709.4451,-181.7994 680.6411,-168.379 657,-154 648.5659,-148.8702 602.6251,-114.0775 575.0266,-93.0559"/>
<polygon fill="#191970" stroke="#191970" points="576.8558,-90.0493 566.7814,-86.7697 572.6117,-95.616 576.8558,-90.0493"/>
</g>
<!-- Node21&#45;&gt;Node6 -->
<g id="edge32" class="edge">
<title>Node21&#45;&gt;Node6</title>
<path fill="none" stroke="#191970" d="M746.0625,-190.3906C741.3959,-182.838 734.6915,-171.9876 728.6188,-162.1593"/>
<polygon fill="#191970" stroke="#191970" points="731.5298,-160.2119 723.2958,-153.5446 725.5748,-163.8914 731.5298,-160.2119"/>
</g>
<!-- Node21&#45;&gt;Node14 -->
<g id="edge25" class="edge">
<title>Node21&#45;&gt;Node14</title>
<path fill="none" stroke="#191970" d="M757.7333,-190.4308C771.4239,-166.2179 802.5432,-101.9655 770,-67 731.9767,-26.1465 324.1873,-39.3147 269,-31 262.337,-29.9961 255.3555,-28.6816 248.5198,-27.2421"/>
<polygon fill="#191970" stroke="#191970" points="249.1825,-23.8042 238.663,-25.0653 247.673,-30.6395 249.1825,-23.8042"/>
</g>
<!-- Node21&#45;&gt;Node15 -->
<g id="edge26" class="edge">
<title>Node21&#45;&gt;Node15</title>
<path fill="none" stroke="#191970" d="M765.0687,-190.3047C797.0546,-166.8797 882.3423,-106.2439 960,-67 985.1357,-54.2978 1014.1897,-42.7751 1038.8056,-33.8654"/>
<polygon fill="#191970" stroke="#191970" points="1040.1117,-37.1156 1048.3542,-30.4588 1037.7595,-30.5226 1040.1117,-37.1156"/>
</g>
<!-- Node21&#45;&gt;Node16 -->
<g id="edge27" class="edge">
<title>Node21&#45;&gt;Node16</title>
<path fill="none" stroke="#191970" d="M775.4696,-190.3636C796.3921,-181.5508 827.6864,-167.8189 854,-154 887.1001,-136.6171 963.4029,-81.1712 998,-67 1058.9759,-42.0239 1080.3473,-47.9008 1147.5757,-31.2573"/>
<polygon fill="#191970" stroke="#191970" points="1148.5526,-34.6202 1157.3751,-28.7539 1146.8199,-27.8381 1148.5526,-34.6202"/>
</g>
<!-- Node21&#45;&gt;Node17 -->
<g id="edge28" class="edge">
<title>Node21&#45;&gt;Node17</title>
<path fill="none" stroke="#191970" d="M781.4469,-190.43C809.9795,-181.1485 854.4698,-166.6531 893,-154 1023.5338,-111.1335 1176.7958,-60.3601 1256.889,-33.7926"/>
<polygon fill="#191970" stroke="#191970" points="1258.3673,-36.9898 1266.7566,-30.5191 1256.1632,-30.3458 1258.3673,-36.9898"/>
</g>
<!-- Node22 -->
<g id="node23" class="node">
<title>Node22</title>
<polygon fill="none" stroke="#bfbfbf" points="1040,-129 1040,-148 1084,-148 1084,-129 1040,-129"/>
<text text-anchor="middle" x="1062" y="-136" font-family="Helvetica,sans-Serif" font-size="10.00" fill="#000000">cmath</text>
</g>
<!-- Node21&#45;&gt;Node22 -->
<g id="edge29" class="edge">
<title>Node21&#45;&gt;Node22</title>
<path fill="none" stroke="#191970" d="M782.1285,-197.3305C833.1558,-192.2833 939.4756,-179.4858 1026,-154 1028.1744,-153.3595 1030.3926,-152.6233 1032.6062,-151.827"/>
<polygon fill="#191970" stroke="#191970" points="1034.1186,-154.9928 1042.1327,-148.0629 1031.5462,-148.4826 1034.1186,-154.9928"/>
</g>
</g>
</svg>
        <g id="navigator" transform="translate(0 0)" fill="#404254">
                <rect fill="#f2f5e9" fill-opacity="0.5" stroke="#606060" stroke-width=".5" x="0" y="0" width="60" height="60"/>
                <use id="zoomplus" xlink:href="#zoomPlus" x="17" y="9" onmousedown="handleZoom(evt,'in')"/>
                <use id="zoomminus" xlink:href="#zoomMin" x="42" y="9" onmousedown="handleZoom(evt,'out')"/>
                <use id="reset" xlink:href="#resetDef" x="30" y="36" onmousedown="handleReset()"/>
                <g id="arrowUp" xlink:href="#dirArrow" transform="translate(30 24)" onmousedown="handlePan(0,-1)">
                  <use xlink:href="#rim" fill="#404040">
                        <set attributeName="fill" to="#808080" begin="arrowUp.mouseover" end="arrowUp.mouseout"/>
                  </use>
                  <path fill="none" stroke="white" stroke-width="1.5" d="M0,-3.0v7 M-2.5,-0.5L0,-3.0L2.5,-0.5"/>
                </g>
                <g id="arrowRight" xlink:href="#dirArrow" transform="rotate(90) translate(36 -43)" onmousedown="handlePan(1,0)">
                  <use xlink:href="#rim" fill="#404040">
                        <set attributeName="fill" to="#808080" begin="arrowRight.mouseover" end="arrowRight.mouseout"/>
                  </use>
                  <path fill="none" stroke="white" stroke-width="1.5" d="M0,-3.0v7 M-2.5,-0.5L0,-3.0L2.5,-0.5"/>
                </g>
                <g id="arrowDown" xlink:href="#dirArrow" transform="rotate(180) translate(-30 -48)" onmousedown="handlePan(0,1)">
                  <use xlink:href="#rim" fill="#404040">
                        <set attributeName="fill" to="#808080" begin="arrowDown.mouseover" end="arrowDown.mouseout"/>
                  </use>
                  <path fill="none" stroke="white" stroke-width="1.5" d="M0,-3.0v7 M-2.5,-0.5L0,-3.0L2.5,-0.5"/>
                </g>
                <g id="arrowLeft" xlink:href="#dirArrow" transform="rotate(270) translate(-36 17)" onmousedown="handlePan(-1,0)">
                  <use xlink:href="#rim" fill="#404040">
                        <set attributeName="fill" to="#808080" begin="arrowLeft.mouseover" end="arrowLeft.mouseout"/>
                  </use>
                  <path fill="none" stroke="white" stroke-width="1.5" d="M0,-3.0v7 M-2.5,-0.5L0,-3.0L2.5,-0.5"/>
                </g>
        </g>
        <svg viewBox="0 0 15 15" width="100%" height="30px" preserveAspectRatio="xMaxYMin meet">
         <g id="arrow_out" transform="scale(0.3 0.3)">
          <a xlink:href="rkmatrix-agglomeration-of-two-submatrices-interwoven-indices_8cc__incl_org.svg" target="_base">
           <rect id="button" ry="5" rx="5" y="6" x="6" height="38" width="38"
                fill="#f2f5e9" fill-opacity="0.5" stroke="#606060" stroke-width="1.0"/>
           <path id="arrow"
             d="M 11.500037,31.436501 C 11.940474,20.09759 22.043105,11.32322 32.158766,21.979434 L 37.068811,17.246167 C 37.068811,17.246167 37.088388,32 37.088388,32 L 22.160133,31.978069 C 22.160133,31.978069 26.997745,27.140456 26.997745,27.140456 C 18.528582,18.264221 13.291696,25.230495 11.500037,31.436501 z"
             style="fill:#404040;"/>
          </a>
         </g>
        </svg>
</svg>
