<?xml version="1.0" encoding="UTF-8" standalone="no"?>
<!DOCTYPE svg PUBLIC "-//W3C//DTD SVG 1.1//EN"
 "http://www.w3.org/Graphics/SVG/1.1/DTD/svg11.dtd">
<!-- Generated by graphviz version 2.40.1 (20161225.0304)
 -->
<!-- Title: /home/jihuan/Projects/deal.ii/program/dealii&#45;9.1.1/examples/laplace&#45;bem/tests/rkmatrix&#45;add&#45;formatted&#45;using&#45;qr/rkmatrix&#45;add&#45;formatted&#45;using&#45;qr.cc Pages: 1 -->
<svg width="2613pt" height="396pt"
 viewBox="0.00 0.00 2612.71 396.00" xmlns="http://www.w3.org/2000/svg" xmlns:xlink="http://www.w3.org/1999/xlink">
<g id="graph0" class="graph" transform="scale(1 1) rotate(0) translate(4 392)">
<title>/home/jihuan/Projects/deal.ii/program/dealii&#45;9.1.1/examples/laplace&#45;bem/tests/rkmatrix&#45;add&#45;formatted&#45;using&#45;qr/rkmatrix&#45;add&#45;formatted&#45;using&#45;qr.cc</title>
<!-- Node0 -->
<g id="node1" class="node">
<title>Node0</title>
<polygon fill="#bfbfbf" stroke="#000000" points="76.4887,-313.5 76.4887,-387.5 213.4887,-387.5 213.4887,-313.5 76.4887,-313.5"/>
<text text-anchor="start" x="84.4887" y="-375.5" font-family="Helvetica,sans-Serif" font-size="10.00" fill="#000000">/home/jihuan/Projects</text>
<text text-anchor="start" x="84.4887" y="-364.5" font-family="Helvetica,sans-Serif" font-size="10.00" fill="#000000">/deal.ii/program/dealii</text>
<text text-anchor="start" x="84.4887" y="-353.5" font-family="Helvetica,sans-Serif" font-size="10.00" fill="#000000">&#45;9.1.1/examples/laplace</text>
<text text-anchor="start" x="84.4887" y="-342.5" font-family="Helvetica,sans-Serif" font-size="10.00" fill="#000000">&#45;bem/tests/rkmatrix&#45;add</text>
<text text-anchor="start" x="84.4887" y="-331.5" font-family="Helvetica,sans-Serif" font-size="10.00" fill="#000000">&#45;formatted&#45;using&#45;qr/rkmatrix</text>
<text text-anchor="middle" x="144.9887" y="-320.5" font-family="Helvetica,sans-Serif" font-size="10.00" fill="#000000">&#45;add&#45;formatted&#45;using&#45;qr.cc</text>
</g>
<!-- Node1 -->
<g id="node2" class="node">
<title>Node1</title>
<polygon fill="none" stroke="#bfbfbf" points="13.9887,-196 13.9887,-215 67.9887,-215 67.9887,-196 13.9887,-196"/>
<text text-anchor="middle" x="40.9887" y="-203" font-family="Helvetica,sans-Serif" font-size="10.00" fill="#000000">iostream</text>
</g>
<!-- Node0&#45;&gt;Node1 -->
<g id="edge1" class="edge">
<title>Node0&#45;&gt;Node1</title>
<path fill="none" stroke="#191970" d="M118.2061,-313.1589C97.4707,-284.2489 69.6766,-245.4975 53.7128,-223.2403"/>
<polygon fill="#191970" stroke="#191970" points="56.5099,-221.135 47.8375,-215.0489 50.8218,-225.2148 56.5099,-221.135"/>
</g>
<!-- Node2 -->
<g id="node3" class="node">
<title>Node2</title>
<polygon fill="none" stroke="#bfbfbf" points="75.4887,-134.5 75.4887,-153.5 116.4887,-153.5 116.4887,-134.5 75.4887,-134.5"/>
<text text-anchor="middle" x="95.9887" y="-141.5" font-family="Helvetica,sans-Serif" font-size="10.00" fill="#000000">string</text>
</g>
<!-- Node0&#45;&gt;Node2 -->
<g id="edge2" class="edge">
<title>Node0&#45;&gt;Node2</title>
<path fill="none" stroke="#191970" d="M85.5525,-313.2634C55.3353,-290.6847 21.5681,-258.9207 4.9887,-221 -.5307,-208.3761 -2.229,-201.7359 4.9887,-190 18.1384,-168.6186 44.6397,-156.8105 65.6675,-150.5303"/>
<polygon fill="#191970" stroke="#191970" points="66.7322,-153.8681 75.4681,-147.8737 64.9007,-147.1119 66.7322,-153.8681"/>
</g>
<!-- Node3 -->
<g id="node4" class="node">
<title>Node3</title>
<g id="a_node4"><a xlink:href="debug__tools_8h.html" target="_top" xlink:title="This file includes a bunch of helper functions for printing out and visualizing information about gri...">
<polygon fill="none" stroke="#000000" points="204.4887,-257.5 204.4887,-276.5 281.4887,-276.5 281.4887,-257.5 204.4887,-257.5"/>
<text text-anchor="middle" x="242.9887" y="-264.5" font-family="Helvetica,sans-Serif" font-size="10.00" fill="#000000">debug_tools.h</text>
</a>
</g>
</g>
<!-- Node0&#45;&gt;Node3 -->
<g id="edge3" class="edge">
<title>Node0&#45;&gt;Node3</title>
<path fill="none" stroke="#191970" d="M188.5436,-313.3894C200.8443,-302.9087 213.6085,-292.0331 223.6836,-283.4487"/>
<polygon fill="#191970" stroke="#191970" points="226.1033,-285.9853 231.4451,-276.8356 221.5634,-280.657 226.1033,-285.9853"/>
</g>
<!-- Node9 -->
<g id="node10" class="node">
<title>Node9</title>
<g id="a_node10"><a xlink:href="rkmatrix_8h.html" target="_top" xlink:title="Definition of rank&#45;k matrix. ">
<polygon fill="none" stroke="#000000" points="1783.9887,-257.5 1783.9887,-276.5 1843.9887,-276.5 1843.9887,-257.5 1783.9887,-257.5"/>
<text text-anchor="middle" x="1813.9887" y="-264.5" font-family="Helvetica,sans-Serif" font-size="10.00" fill="#000000">rkmatrix.h</text>
</a>
</g>
</g>
<!-- Node0&#45;&gt;Node9 -->
<g id="edge11" class="edge">
<title>Node0&#45;&gt;Node9</title>
<path fill="none" stroke="#191970" d="M213.527,-347.071C494.4651,-333.0157 1553.4514,-280.0347 1773.7092,-269.0152"/>
<polygon fill="#191970" stroke="#191970" points="1774.0362,-272.5033 1783.8488,-268.5079 1773.6864,-265.512 1774.0362,-272.5033"/>
</g>
<!-- Node3&#45;&gt;Node1 -->
<g id="edge9" class="edge">
<title>Node3&#45;&gt;Node1</title>
<path fill="none" stroke="#191970" d="M206.277,-257.4445C173.4714,-248.6848 124.2096,-234.9855 81.9887,-221 79.5868,-220.2044 77.1172,-219.354 74.6379,-218.4764"/>
<polygon fill="#191970" stroke="#191970" points="75.745,-215.1547 65.1511,-215.0157 73.346,-221.7308 75.745,-215.1547"/>
</g>
<!-- Node3&#45;&gt;Node2 -->
<g id="edge10" class="edge">
<title>Node3&#45;&gt;Node2</title>
<path fill="none" stroke="#191970" d="M204.3007,-262.843C175.6772,-257.7283 137.8413,-246.3387 114.9887,-221 100.8428,-205.3153 96.8277,-180.7802 95.8815,-163.633"/>
<polygon fill="#191970" stroke="#191970" points="99.3795,-163.507 95.6272,-153.5989 92.3817,-163.6844 99.3795,-163.507"/>
</g>
<!-- Node4 -->
<g id="node5" class="node">
<title>Node4</title>
<polygon fill="none" stroke="#bfbfbf" points="375.4887,-196 375.4887,-215 502.4887,-215 502.4887,-196 375.4887,-196"/>
<text text-anchor="middle" x="438.9887" y="-203" font-family="Helvetica,sans-Serif" font-size="10.00" fill="#000000">deal.II/dofs/dof_handler.h</text>
</g>
<!-- Node3&#45;&gt;Node4 -->
<g id="edge4" class="edge">
<title>Node3&#45;&gt;Node4</title>
<path fill="none" stroke="#191970" d="M273.6137,-257.3906C307.2711,-246.8298 361.4785,-229.8208 398.5946,-218.1747"/>
<polygon fill="#191970" stroke="#191970" points="400.0853,-221.3753 408.5787,-215.0419 397.9895,-214.6963 400.0853,-221.3753"/>
</g>
<!-- Node5 -->
<g id="node6" class="node">
<title>Node5</title>
<polygon fill="none" stroke="#bfbfbf" points="520.9887,-196 520.9887,-215 636.9887,-215 636.9887,-196 520.9887,-196"/>
<text text-anchor="middle" x="578.9887" y="-203" font-family="Helvetica,sans-Serif" font-size="10.00" fill="#000000">deal.II/dofs/dof_tools.h</text>
</g>
<!-- Node3&#45;&gt;Node5 -->
<g id="edge5" class="edge">
<title>Node3&#45;&gt;Node5</title>
<path fill="none" stroke="#191970" d="M281.7215,-261.0266C333.9387,-252.8198 429.7416,-237.2201 510.9887,-221 516.7699,-219.8458 522.8116,-218.5701 528.8058,-217.2606"/>
<polygon fill="#191970" stroke="#191970" points="529.7917,-220.627 538.7941,-215.0408 528.2729,-213.7937 529.7917,-220.627"/>
</g>
<!-- Node6 -->
<g id="node7" class="node">
<title>Node6</title>
<polygon fill="none" stroke="#bfbfbf" points="654.9887,-196 654.9887,-215 728.9887,-215 728.9887,-196 654.9887,-196"/>
<text text-anchor="middle" x="691.9887" y="-203" font-family="Helvetica,sans-Serif" font-size="10.00" fill="#000000">deal.II/fe/fe.h</text>
</g>
<!-- Node3&#45;&gt;Node6 -->
<g id="edge6" class="edge">
<title>Node3&#45;&gt;Node6</title>
<path fill="none" stroke="#191970" d="M281.4958,-265.3136C353.7364,-261.5546 514.194,-250.3791 645.9887,-221 649.6593,-220.1818 653.4479,-219.1778 657.202,-218.0777"/>
<polygon fill="#191970" stroke="#191970" points="658.4689,-221.3482 666.9534,-215.0029 656.3637,-214.6722 658.4689,-221.3482"/>
</g>
<!-- Node7 -->
<g id="node8" class="node">
<title>Node7</title>
<polygon fill="none" stroke="#bfbfbf" points="123.9887,-196 123.9887,-215 235.9887,-215 235.9887,-196 123.9887,-196"/>
<text text-anchor="middle" x="179.9887" y="-203" font-family="Helvetica,sans-Serif" font-size="10.00" fill="#000000">deal.II/fe/fe_system.h</text>
</g>
<!-- Node3&#45;&gt;Node7 -->
<g id="edge7" class="edge">
<title>Node3&#45;&gt;Node7</title>
<path fill="none" stroke="#191970" d="M233.1449,-257.3906C223.5848,-248.0581 208.8664,-233.6902 197.3392,-222.4374"/>
<polygon fill="#191970" stroke="#191970" points="199.5719,-219.7257 189.9712,-215.2449 194.6821,-224.7348 199.5719,-219.7257"/>
</g>
<!-- Node8 -->
<g id="node9" class="node">
<title>Node8</title>
<polygon fill="none" stroke="#bfbfbf" points="254.4887,-196 254.4887,-215 357.4887,-215 357.4887,-196 254.4887,-196"/>
<text text-anchor="middle" x="305.9887" y="-203" font-family="Helvetica,sans-Serif" font-size="10.00" fill="#000000">deal.II/fe/mapping.h</text>
</g>
<!-- Node3&#45;&gt;Node8 -->
<g id="edge8" class="edge">
<title>Node3&#45;&gt;Node8</title>
<path fill="none" stroke="#191970" d="M252.8324,-257.3906C262.3926,-248.0581 277.111,-233.6902 288.6382,-222.4374"/>
<polygon fill="#191970" stroke="#191970" points="291.2953,-224.7348 296.0061,-215.2449 286.4055,-219.7257 291.2953,-224.7348"/>
</g>
<!-- Node10 -->
<g id="node11" class="node">
<title>Node10</title>
<polygon fill="none" stroke="#bfbfbf" points="1181.4887,-73 1181.4887,-92 1284.4887,-92 1284.4887,-73 1181.4887,-73"/>
<text text-anchor="middle" x="1232.9887" y="-80" font-family="Helvetica,sans-Serif" font-size="10.00" fill="#000000">deal.II/base/types.h</text>
</g>
<!-- Node9&#45;&gt;Node10 -->
<g id="edge12" class="edge">
<title>Node9&#45;&gt;Node10</title>
<path fill="none" stroke="#191970" d="M1784.5831,-257.4722C1716.7118,-235.5039 1543.8406,-179.6796 1398.9887,-134 1356.3485,-120.5533 1307.4574,-105.4196 1273.8361,-95.0565"/>
<polygon fill="#191970" stroke="#191970" points="1274.5032,-91.5998 1263.916,-92.0007 1272.4424,-98.2896 1274.5032,-91.5998"/>
</g>
<!-- Node11 -->
<g id="node12" class="node">
<title>Node11</title>
<polygon fill="none" stroke="#bfbfbf" points="2248.9887,-73 2248.9887,-92 2364.9887,-92 2364.9887,-73 2248.9887,-73"/>
<text text-anchor="middle" x="2306.9887" y="-80" font-family="Helvetica,sans-Serif" font-size="10.00" fill="#000000">deal.II/lac/full_matrix.h</text>
</g>
<!-- Node9&#45;&gt;Node11 -->
<g id="edge13" class="edge">
<title>Node9&#45;&gt;Node11</title>
<path fill="none" stroke="#191970" d="M1839.4564,-257.469C1921.2601,-226.8548 2177.4786,-130.9678 2271.7354,-95.6931"/>
<polygon fill="#191970" stroke="#191970" points="2273.2386,-98.8678 2281.3775,-92.0847 2270.7851,-92.3118 2273.2386,-98.8678"/>
</g>
<!-- Node12 -->
<g id="node13" class="node">
<title>Node12</title>
<polygon fill="none" stroke="#bfbfbf" points="2383.4887,-67.5 2383.4887,-97.5 2474.4887,-97.5 2474.4887,-67.5 2383.4887,-67.5"/>
<text text-anchor="start" x="2391.4887" y="-85.5" font-family="Helvetica,sans-Serif" font-size="10.00" fill="#000000">deal.II/lac/lapack</text>
<text text-anchor="middle" x="2428.9887" y="-74.5" font-family="Helvetica,sans-Serif" font-size="10.00" fill="#000000">_full_matrix.h</text>
</g>
<!-- Node9&#45;&gt;Node12 -->
<g id="edge14" class="edge">
<title>Node9&#45;&gt;Node12</title>
<path fill="none" stroke="#191970" d="M1844.0424,-259.7591C1879.5394,-251.0855 1940.2999,-235.8581 1991.9887,-221 2130.7236,-181.1202 2292.2343,-128.2265 2374.6055,-100.7784"/>
<polygon fill="#191970" stroke="#191970" points="2375.8735,-104.0451 2384.2516,-97.5598 2373.6579,-97.405 2375.8735,-104.0451"/>
</g>
<!-- Node13 -->
<g id="node14" class="node">
<title>Node13</title>
<polygon fill="none" stroke="#bfbfbf" points="1629.4887,-.5 1629.4887,-30.5 1720.4887,-30.5 1720.4887,-.5 1629.4887,-.5"/>
<text text-anchor="start" x="1637.4887" y="-18.5" font-family="Helvetica,sans-Serif" font-size="10.00" fill="#000000">deal.II/lac/lapack</text>
<text text-anchor="middle" x="1674.9887" y="-7.5" font-family="Helvetica,sans-Serif" font-size="10.00" fill="#000000">_support.h</text>
</g>
<!-- Node9&#45;&gt;Node13 -->
<g id="edge15" class="edge">
<title>Node9&#45;&gt;Node13</title>
<path fill="none" stroke="#191970" d="M1844.0878,-264.4744C1999.7688,-250.8693 2702.2864,-182.6012 2592.9887,-67 2563.2597,-35.5565 1925.0903,-20.4281 1730.6927,-16.538"/>
<polygon fill="#191970" stroke="#191970" points="1730.7574,-13.0387 1720.69,-16.3399 1730.6188,-20.0373 1730.7574,-13.0387"/>
</g>
<!-- Node14 -->
<g id="node15" class="node">
<title>Node14</title>
<polygon fill="none" stroke="#bfbfbf" points="2492.4887,-67.5 2492.4887,-97.5 2583.4887,-97.5 2583.4887,-67.5 2492.4887,-67.5"/>
<text text-anchor="start" x="2500.4887" y="-85.5" font-family="Helvetica,sans-Serif" font-size="10.00" fill="#000000">deal.II/lac/lapack</text>
<text text-anchor="middle" x="2537.9887" y="-74.5" font-family="Helvetica,sans-Serif" font-size="10.00" fill="#000000">_templates.h</text>
</g>
<!-- Node9&#45;&gt;Node14 -->
<g id="edge16" class="edge">
<title>Node9&#45;&gt;Node14</title>
<path fill="none" stroke="#191970" d="M1844.2247,-266.3549C1984.2422,-263.2237 2563.9552,-248.6225 2589.9887,-221 2620.7434,-188.3682 2585.3654,-135.8294 2559.7528,-105.7126"/>
<polygon fill="#191970" stroke="#191970" points="2562.0775,-103.0554 2552.8507,-97.8479 2556.8162,-107.6727 2562.0775,-103.0554"/>
</g>
<!-- Node15 -->
<g id="node16" class="node">
<title>Node15</title>
<polygon fill="none" stroke="#bfbfbf" points="2536.9887,-196 2536.9887,-215 2580.9887,-215 2580.9887,-196 2536.9887,-196"/>
<text text-anchor="middle" x="2558.9887" y="-203" font-family="Helvetica,sans-Serif" font-size="10.00" fill="#000000">cmath</text>
</g>
<!-- Node9&#45;&gt;Node15 -->
<g id="edge17" class="edge">
<title>Node9&#45;&gt;Node15</title>
<path fill="none" stroke="#191970" d="M1844.2805,-266.4064C1962.268,-263.8829 2391.0555,-252.6825 2522.9887,-221 2525.4782,-220.4022 2528.0135,-219.6453 2530.5275,-218.7889"/>
<polygon fill="#191970" stroke="#191970" points="2531.9205,-222.0027 2539.9751,-215.1198 2529.3863,-215.4775 2531.9205,-222.0027"/>
</g>
<!-- Node16 -->
<g id="node17" class="node">
<title>Node16</title>
<polygon fill="none" stroke="#bfbfbf" points="777.4887,-73 777.4887,-92 812.4887,-92 812.4887,-73 777.4887,-73"/>
<text text-anchor="middle" x="794.9887" y="-80" font-family="Helvetica,sans-Serif" font-size="10.00" fill="#000000">map</text>
</g>
<!-- Node9&#45;&gt;Node16 -->
<g id="edge18" class="edge">
<title>Node9&#45;&gt;Node16</title>
<path fill="none" stroke="#191970" d="M1783.571,-266.7336C1650.8174,-265.3611 1121.6247,-257.652 959.9887,-221 884.0029,-203.7698 842.6418,-217.85 797.9887,-154 787.5608,-139.0891 788.0823,-117.8383 790.4381,-102.3815"/>
<polygon fill="#191970" stroke="#191970" points="793.9208,-102.8015 792.3473,-92.3241 787.0436,-101.4959 793.9208,-102.8015"/>
</g>
<!-- Node17 -->
<g id="node18" class="node">
<title>Node17</title>
<polygon fill="none" stroke="#bfbfbf" points="1118.9887,-73 1118.9887,-92 1162.9887,-92 1162.9887,-73 1118.9887,-73"/>
<text text-anchor="middle" x="1140.9887" y="-80" font-family="Helvetica,sans-Serif" font-size="10.00" fill="#000000">vector</text>
</g>
<!-- Node9&#45;&gt;Node17 -->
<g id="edge19" class="edge">
<title>Node9&#45;&gt;Node17</title>
<path fill="none" stroke="#191970" d="M1783.8287,-262.297C1738.122,-254.9276 1648.7188,-239.5649 1573.9887,-221 1393.07,-176.0552 1346.4965,-166.1663 1172.9887,-98 1171.5882,-97.4498 1170.1643,-96.8639 1168.7342,-96.254"/>
<polygon fill="#191970" stroke="#191970" points="1169.9391,-92.9571 1159.387,-92.0065 1167.0432,-99.33 1169.9391,-92.9571"/>
</g>
<!-- Node18 -->
<g id="node19" class="node">
<title>Node18</title>
<g id="a_node19"><a xlink:href="lapack__full__matrix__ext_8h_source.html" target="_top" xlink:title="lapack_full_matrix\l_ext.h">
<polygon fill="none" stroke="#000000" points="969.4887,-190.5 969.4887,-220.5 1064.4887,-220.5 1064.4887,-190.5 969.4887,-190.5"/>
<text text-anchor="start" x="977.4887" y="-208.5" font-family="Helvetica,sans-Serif" font-size="10.00" fill="#000000">lapack_full_matrix</text>
<text text-anchor="middle" x="1016.9887" y="-197.5" font-family="Helvetica,sans-Serif" font-size="10.00" fill="#000000">_ext.h</text>
</a>
</g>
</g>
<!-- Node9&#45;&gt;Node18 -->
<g id="edge20" class="edge">
<title>Node9&#45;&gt;Node18</title>
<path fill="none" stroke="#191970" d="M1783.7186,-264.6642C1665.3802,-255.5327 1232.8109,-222.1538 1075.058,-209.9809"/>
<polygon fill="#191970" stroke="#191970" points="1074.866,-206.4557 1064.6263,-209.1759 1074.3274,-213.435 1074.866,-206.4557"/>
</g>
<!-- Node18&#45;&gt;Node2 -->
<g id="edge25" class="edge">
<title>Node18&#45;&gt;Node2</title>
<path fill="none" stroke="#191970" d="M969.4111,-202.323C804.7966,-191.3308 262.1219,-155.0936 126.7775,-146.0559"/>
<polygon fill="#191970" stroke="#191970" points="126.9044,-142.5567 116.6934,-145.3826 126.438,-149.5411 126.9044,-142.5567"/>
</g>
<!-- Node18&#45;&gt;Node16 -->
<g id="edge22" class="edge">
<title>Node18&#45;&gt;Node16</title>
<path fill="none" stroke="#191970" d="M969.2169,-199.0399C916.3445,-190.9428 835.7066,-175.4743 813.9887,-154 800.4659,-140.6289 796.2297,-118.8071 795.0615,-102.7827"/>
<polygon fill="#191970" stroke="#191970" points="798.5421,-102.2024 794.6642,-92.3427 791.5471,-102.4687 798.5421,-102.2024"/>
</g>
<!-- Node18&#45;&gt;Node17 -->
<g id="edge26" class="edge">
<title>Node18&#45;&gt;Node17</title>
<path fill="none" stroke="#191970" d="M1064.6206,-201.5997C1124.6957,-195.5782 1222.8503,-181.6967 1244.9887,-154 1250.5386,-147.0566 1249.6764,-141.5523 1244.9887,-134 1244.435,-133.108 1200.4776,-111.5276 1169.8949,-96.5888"/>
<polygon fill="#191970" stroke="#191970" points="1171.4178,-93.4375 1160.8959,-92.1961 1168.3471,-99.7281 1171.4178,-93.4375"/>
</g>
<!-- Node19 -->
<g id="node20" class="node">
<title>Node19</title>
<polygon fill="none" stroke="#bfbfbf" points="822.9887,-134.5 822.9887,-153.5 862.9887,-153.5 862.9887,-134.5 822.9887,-134.5"/>
<text text-anchor="middle" x="842.9887" y="-141.5" font-family="Helvetica,sans-Serif" font-size="10.00" fill="#000000">limits</text>
</g>
<!-- Node18&#45;&gt;Node19 -->
<g id="edge21" class="edge">
<title>Node18&#45;&gt;Node19</title>
<path fill="none" stroke="#191970" d="M974.4235,-190.4554C942.8822,-179.3072 900.6895,-164.3943 872.7146,-154.5066"/>
<polygon fill="#191970" stroke="#191970" points="873.6922,-151.14 863.0974,-151.1074 871.3594,-157.7399 873.6922,-151.14"/>
</g>
<!-- Node20 -->
<g id="node21" class="node">
<title>Node20</title>
<polygon fill="none" stroke="#bfbfbf" points="881.4887,-134.5 881.4887,-153.5 922.4887,-153.5 922.4887,-134.5 881.4887,-134.5"/>
<text text-anchor="middle" x="901.9887" y="-141.5" font-family="Helvetica,sans-Serif" font-size="10.00" fill="#000000">regex</text>
</g>
<!-- Node18&#45;&gt;Node20 -->
<g id="edge23" class="edge">
<title>Node18&#45;&gt;Node20</title>
<path fill="none" stroke="#191970" d="M988.8565,-190.4554C970.5101,-180.644 946.711,-167.9167 928.6636,-158.2653"/>
<polygon fill="#191970" stroke="#191970" points="930.2784,-155.1598 919.8096,-153.5303 926.9773,-161.3326 930.2784,-155.1598"/>
</g>
<!-- Node21 -->
<g id="node22" class="node">
<title>Node21</title>
<polygon fill="none" stroke="#bfbfbf" points="940.9887,-134.5 940.9887,-153.5 992.9887,-153.5 992.9887,-134.5 940.9887,-134.5"/>
<text text-anchor="middle" x="966.9887" y="-141.5" font-family="Helvetica,sans-Serif" font-size="10.00" fill="#000000">sstream</text>
</g>
<!-- Node18&#45;&gt;Node21 -->
<g id="edge24" class="edge">
<title>Node18&#45;&gt;Node21</title>
<path fill="none" stroke="#191970" d="M1004.6291,-190.2977C997.6163,-181.672 988.8027,-170.8312 981.4673,-161.8087"/>
<polygon fill="#191970" stroke="#191970" points="984.0184,-159.3982 974.9943,-153.8469 978.5869,-163.8141 984.0184,-159.3982"/>
</g>
<!-- Node22 -->
<g id="node23" class="node">
<title>Node22</title>
<g id="a_node23"><a xlink:href="general__exceptions_8h.html" target="_top" xlink:title="Definition of self&#45;defined general exceptions. ">
<polygon fill="none" stroke="#000000" points="1011.4887,-134.5 1011.4887,-153.5 1120.4887,-153.5 1120.4887,-134.5 1011.4887,-134.5"/>
<text text-anchor="middle" x="1065.9887" y="-141.5" font-family="Helvetica,sans-Serif" font-size="10.00" fill="#000000">general_exceptions.h</text>
</a>
</g>
</g>
<!-- Node18&#45;&gt;Node22 -->
<g id="edge27" class="edge">
<title>Node18&#45;&gt;Node22</title>
<path fill="none" stroke="#191970" d="M1029.101,-190.2977C1035.9736,-181.672 1044.611,-170.8312 1051.7997,-161.8087"/>
<polygon fill="#191970" stroke="#191970" points="1054.6491,-163.849 1058.1432,-153.8469 1049.1743,-159.487 1054.6491,-163.849"/>
</g>
<!-- Node24 -->
<g id="node25" class="node">
<title>Node24</title>
<g id="a_node25"><a xlink:href="generic__functors_8h.html" target="_top" xlink:title="This header file contains a set of self&#45;defined generic functors. ">
<polygon fill="none" stroke="#000000" points="1138.4887,-134.5 1138.4887,-153.5 1235.4887,-153.5 1235.4887,-134.5 1138.4887,-134.5"/>
<text text-anchor="middle" x="1186.9887" y="-141.5" font-family="Helvetica,sans-Serif" font-size="10.00" fill="#000000">generic_functors.h</text>
</a>
</g>
</g>
<!-- Node18&#45;&gt;Node24 -->
<g id="edge29" class="edge">
<title>Node18&#45;&gt;Node24</title>
<path fill="none" stroke="#191970" d="M1058.5754,-190.4554C1086.9403,-180.194 1124.122,-166.7429 1151.1723,-156.9571"/>
<polygon fill="#191970" stroke="#191970" points="1152.4318,-160.2235 1160.6447,-153.5303 1150.0505,-153.641 1152.4318,-160.2235"/>
</g>
<!-- Node25 -->
<g id="node26" class="node">
<title>Node25</title>
<g id="a_node26"><a xlink:href="lapack__helpers_8h.html" target="_top" xlink:title="Exposes LAPACK helper functions defined in lapack_full_matrix.cc and define new ones by following the...">
<polygon fill="none" stroke="#000000" points="1805.9887,-134.5 1805.9887,-153.5 1895.9887,-153.5 1895.9887,-134.5 1805.9887,-134.5"/>
<text text-anchor="middle" x="1850.9887" y="-141.5" font-family="Helvetica,sans-Serif" font-size="10.00" fill="#000000">lapack_helpers.h</text>
</a>
</g>
</g>
<!-- Node18&#45;&gt;Node25 -->
<g id="edge35" class="edge">
<title>Node18&#45;&gt;Node25</title>
<path fill="none" stroke="#191970" d="M1064.5202,-201.995C1208.8431,-191.3525 1641.5117,-159.447 1795.6795,-148.0786"/>
<polygon fill="#191970" stroke="#191970" points="1796.1429,-151.554 1805.8584,-147.328 1795.6281,-144.5729 1796.1429,-151.554"/>
</g>
<!-- Node23 -->
<g id="node24" class="node">
<title>Node23</title>
<polygon fill="none" stroke="#bfbfbf" points="936.9887,-73 936.9887,-92 1062.9887,-92 1062.9887,-73 936.9887,-73"/>
<text text-anchor="middle" x="999.9887" y="-80" font-family="Helvetica,sans-Serif" font-size="10.00" fill="#000000">deal.II/base/exceptions.h</text>
</g>
<!-- Node22&#45;&gt;Node23 -->
<g id="edge28" class="edge">
<title>Node22&#45;&gt;Node23</title>
<path fill="none" stroke="#191970" d="M1055.6762,-134.3906C1045.5645,-124.9683 1029.9445,-110.4134 1017.818,-99.1137"/>
<polygon fill="#191970" stroke="#191970" points="1020.1487,-96.5015 1010.4466,-92.2449 1015.3766,-101.6228 1020.1487,-96.5015"/>
</g>
<!-- Node24&#45;&gt;Node10 -->
<g id="edge31" class="edge">
<title>Node24&#45;&gt;Node10</title>
<path fill="none" stroke="#191970" d="M1194.1762,-134.3906C1200.9553,-125.3273 1211.2865,-111.5149 1219.586,-100.4188"/>
<polygon fill="#191970" stroke="#191970" points="1222.513,-102.349 1225.6998,-92.2449 1216.9075,-98.1563 1222.513,-102.349"/>
</g>
<!-- Node24&#45;&gt;Node13 -->
<g id="edge32" class="edge">
<title>Node24&#45;&gt;Node13</title>
<path fill="none" stroke="#191970" d="M1157.0429,-134.4983C1139.9832,-127.3713 1120.0563,-115.7417 1109.9887,-98 1103.1889,-86.0171 1100.699,-77.1749 1109.9887,-67 1143.8886,-29.8696 1483.1289,-19.2072 1619.0775,-16.4121"/>
<polygon fill="#191970" stroke="#191970" points="1619.3514,-19.9074 1629.2798,-16.2093 1619.2122,-12.9088 1619.3514,-19.9074"/>
</g>
<!-- Node24&#45;&gt;Node16 -->
<g id="edge33" class="edge">
<title>Node24&#45;&gt;Node16</title>
<path fill="none" stroke="#191970" d="M1138.265,-135.5348C1135.1268,-135.0096 1132.014,-134.494 1128.9887,-134 1015.5677,-115.4795 880.1757,-95.1504 822.8357,-86.623"/>
<polygon fill="#191970" stroke="#191970" points="823.1543,-83.132 812.7486,-85.125 822.1259,-90.0561 823.1543,-83.132"/>
</g>
<!-- Node24&#45;&gt;Node17 -->
<g id="edge34" class="edge">
<title>Node24&#45;&gt;Node17</title>
<path fill="none" stroke="#191970" d="M1179.8012,-134.3906C1173.0221,-125.3273 1162.6909,-111.5149 1154.3913,-100.4188"/>
<polygon fill="#191970" stroke="#191970" points="1157.0699,-98.1563 1148.2775,-92.2449 1151.4644,-102.349 1157.0699,-98.1563"/>
</g>
<!-- Node24&#45;&gt;Node23 -->
<g id="edge30" class="edge">
<title>Node24&#45;&gt;Node23</title>
<path fill="none" stroke="#191970" d="M1157.7699,-134.3906C1125.658,-123.8298 1073.9397,-106.8208 1038.5279,-95.1747"/>
<polygon fill="#191970" stroke="#191970" points="1039.5952,-91.8413 1029.0023,-92.0419 1037.4082,-98.4909 1039.5952,-91.8413"/>
</g>
<!-- Node25&#45;&gt;Node11 -->
<g id="edge39" class="edge">
<title>Node25&#45;&gt;Node11</title>
<path fill="none" stroke="#191970" d="M1896.1457,-140.2801C1968.8909,-133.9248 2116.3816,-119.5394 2239.9887,-98 2246.1637,-96.924 2252.6238,-95.6374 2258.9924,-94.2719"/>
<polygon fill="#191970" stroke="#191970" points="2259.8663,-97.6632 2268.8707,-92.08 2258.3499,-90.8294 2259.8663,-97.6632"/>
</g>
<!-- Node25&#45;&gt;Node12 -->
<g id="edge40" class="edge">
<title>Node25&#45;&gt;Node12</title>
<path fill="none" stroke="#191970" d="M1896.1423,-142.8656C1985.5729,-140.008 2191.5396,-130.3889 2373.2205,-97.9051"/>
<polygon fill="#191970" stroke="#191970" points="2374.0094,-101.3191 2383.2231,-96.0888 2372.7587,-94.4318 2374.0094,-101.3191"/>
</g>
<!-- Node25&#45;&gt;Node13 -->
<g id="edge41" class="edge">
<title>Node25&#45;&gt;Node13</title>
<path fill="none" stroke="#191970" d="M1805.6595,-141.6328C1682.1659,-134.9669 1347.9062,-115.3907 1331.9887,-98 1322.6863,-87.8367 1322.9987,-77.4406 1331.9887,-67 1350.4747,-45.5312 1527.1474,-27.7955 1619.4388,-19.9065"/>
<polygon fill="#191970" stroke="#191970" points="1619.7795,-23.3902 1629.4495,-19.0611 1619.1904,-16.4151 1619.7795,-23.3902"/>
</g>
<!-- Node25&#45;&gt;Node14 -->
<g id="edge42" class="edge">
<title>Node25&#45;&gt;Node14</title>
<path fill="none" stroke="#191970" d="M1896.1484,-141.9356C2017.9937,-136.1772 2352.4868,-119.075 2482.3845,-98.0007"/>
<polygon fill="#191970" stroke="#191970" points="2483.2098,-101.4106 2492.4794,-96.2799 2482.0335,-94.5101 2483.2098,-101.4106"/>
</g>
<!-- Node26 -->
<g id="node27" class="node">
<title>Node26</title>
<polygon fill="none" stroke="#bfbfbf" points="2114.9887,-73 2114.9887,-92 2230.9887,-92 2230.9887,-73 2114.9887,-73"/>
<text text-anchor="middle" x="2172.9887" y="-80" font-family="Helvetica,sans-Serif" font-size="10.00" fill="#000000">deal.II/base/numbers.h</text>
</g>
<!-- Node25&#45;&gt;Node26 -->
<g id="edge36" class="edge">
<title>Node25&#45;&gt;Node26</title>
<path fill="none" stroke="#191970" d="M1896.2585,-136.5211C1947.3393,-127.9227 2032.8449,-113.0486 2105.9887,-98 2111.6823,-96.8286 2117.6337,-95.5421 2123.5388,-94.2267"/>
<polygon fill="#191970" stroke="#191970" points="2124.3979,-97.6209 2133.3794,-92.0009 2122.8536,-90.7933 2124.3979,-97.6209"/>
</g>
<!-- Node27 -->
<g id="node28" class="node">
<title>Node27</title>
<polygon fill="none" stroke="#bfbfbf" points="1340.9887,-67.5 1340.9887,-97.5 1468.9887,-97.5 1468.9887,-67.5 1340.9887,-67.5"/>
<text text-anchor="start" x="1348.9887" y="-85.5" font-family="Helvetica,sans-Serif" font-size="10.00" fill="#000000">deal.II/lac/blas_extension</text>
<text text-anchor="middle" x="1404.9887" y="-74.5" font-family="Helvetica,sans-Serif" font-size="10.00" fill="#000000">_templates.h</text>
</g>
<!-- Node25&#45;&gt;Node27 -->
<g id="edge37" class="edge">
<title>Node25&#45;&gt;Node27</title>
<path fill="none" stroke="#191970" d="M1805.7347,-139.6952C1737.2264,-132.8988 1602.9131,-118.485 1479.0607,-98.0935"/>
<polygon fill="#191970" stroke="#191970" points="1479.4618,-94.6122 1469.023,-96.4237 1478.3131,-101.5173 1479.4618,-94.6122"/>
</g>
<!-- Node28 -->
<g id="node29" class="node">
<title>Node28</title>
<polygon fill="none" stroke="#bfbfbf" points="1486.9887,-73 1486.9887,-92 1612.9887,-92 1612.9887,-73 1486.9887,-73"/>
<text text-anchor="middle" x="1549.9887" y="-80" font-family="Helvetica,sans-Serif" font-size="10.00" fill="#000000">deal.II/lac/block_vector.h</text>
</g>
<!-- Node25&#45;&gt;Node28 -->
<g id="edge38" class="edge">
<title>Node25&#45;&gt;Node28</title>
<path fill="none" stroke="#191970" d="M1805.7625,-135.1066C1759.5428,-125.9729 1685.7086,-111.2579 1621.9887,-98 1616.1344,-96.7819 1610.0163,-95.4916 1603.9261,-94.1962"/>
<polygon fill="#191970" stroke="#191970" points="1604.2653,-90.6897 1593.7547,-92.0229 1602.8026,-97.5352 1604.2653,-90.6897"/>
</g>
<!-- Node29 -->
<g id="node30" class="node">
<title>Node29</title>
<polygon fill="none" stroke="#bfbfbf" points="1630.9887,-67.5 1630.9887,-97.5 1722.9887,-97.5 1722.9887,-67.5 1630.9887,-67.5"/>
<text text-anchor="start" x="1638.9887" y="-85.5" font-family="Helvetica,sans-Serif" font-size="10.00" fill="#000000">deal.II/lac/sparse</text>
<text text-anchor="middle" x="1676.9887" y="-74.5" font-family="Helvetica,sans-Serif" font-size="10.00" fill="#000000">_matrix.h</text>
</g>
<!-- Node25&#45;&gt;Node29 -->
<g id="edge43" class="edge">
<title>Node25&#45;&gt;Node29</title>
<path fill="none" stroke="#191970" d="M1823.8012,-134.3906C1798.6171,-125.4893 1760.4728,-112.0073 1729.3769,-101.0165"/>
<polygon fill="#191970" stroke="#191970" points="1730.1487,-97.5772 1719.5539,-97.5446 1727.8159,-104.1771 1730.1487,-97.5772"/>
</g>
<!-- Node30 -->
<g id="node31" class="node">
<title>Node30</title>
<polygon fill="none" stroke="#bfbfbf" points="1741.4887,-73 1741.4887,-92 1842.4887,-92 1842.4887,-73 1741.4887,-73"/>
<text text-anchor="middle" x="1791.9887" y="-80" font-family="Helvetica,sans-Serif" font-size="10.00" fill="#000000">deal.II/lac/utilities.h</text>
</g>
<!-- Node25&#45;&gt;Node30 -->
<g id="edge44" class="edge">
<title>Node25&#45;&gt;Node30</title>
<path fill="none" stroke="#191970" d="M1841.7699,-134.3906C1832.9028,-125.1478 1819.2975,-110.966 1808.5498,-99.7628"/>
<polygon fill="#191970" stroke="#191970" points="1810.786,-97.0381 1801.3374,-92.2449 1805.7346,-101.8841 1810.786,-97.0381"/>
</g>
<!-- Node31 -->
<g id="node32" class="node">
<title>Node31</title>
<polygon fill="none" stroke="#bfbfbf" points="1860.9887,-73 1860.9887,-92 1958.9887,-92 1958.9887,-73 1860.9887,-73"/>
<text text-anchor="middle" x="1909.9887" y="-80" font-family="Helvetica,sans-Serif" font-size="10.00" fill="#000000">deal.II/lac/vector.h</text>
</g>
<!-- Node25&#45;&gt;Node31 -->
<g id="edge45" class="edge">
<title>Node25&#45;&gt;Node31</title>
<path fill="none" stroke="#191970" d="M1860.2074,-134.3906C1869.0745,-125.1478 1882.6798,-110.966 1893.4276,-99.7628"/>
<polygon fill="#191970" stroke="#191970" points="1896.2427,-101.8841 1900.64,-92.2449 1891.1914,-97.0381 1896.2427,-101.8841"/>
</g>
<!-- Node32 -->
<g id="node33" class="node">
<title>Node32</title>
<g id="a_node33"><a xlink:href="lapack__templates__ext_8h.html" target="_top" xlink:title="Append more template based LAPACK functions to those existing in deal.ii. ">
<polygon fill="none" stroke="#000000" points="1976.9887,-73 1976.9887,-92 2096.9887,-92 2096.9887,-73 1976.9887,-73"/>
<text text-anchor="middle" x="2036.9887" y="-80" font-family="Helvetica,sans-Serif" font-size="10.00" fill="#000000">lapack_templates_ext.h</text>
</a>
</g>
</g>
<!-- Node25&#45;&gt;Node32 -->
<g id="edge46" class="edge">
<title>Node25&#45;&gt;Node32</title>
<path fill="none" stroke="#191970" d="M1880.0512,-134.3906C1911.8549,-123.8749 1962.9938,-106.966 1998.2031,-95.3243"/>
<polygon fill="#191970" stroke="#191970" points="1999.7346,-98.5043 2008.1303,-92.0419 1997.537,-91.8582 1999.7346,-98.5043"/>
</g>
<!-- Node32&#45;&gt;Node13 -->
<g id="edge47" class="edge">
<title>Node32&#45;&gt;Node13</title>
<path fill="none" stroke="#191970" d="M1995.8266,-72.921C1986.679,-70.8851 1977.018,-68.8067 1967.9887,-67 1885.6954,-50.5341 1789.8234,-34.2222 1730.7663,-24.5029"/>
<polygon fill="#191970" stroke="#191970" points="1730.9724,-20.99 1720.5377,-22.8249 1729.8392,-27.8977 1730.9724,-20.99"/>
</g>
</g>
</svg>
