<?xml version="1.0" encoding="UTF-8" standalone="no"?>
<!DOCTYPE svg PUBLIC "-//W3C//DTD SVG 1.1//EN"
 "http://www.w3.org/Graphics/SVG/1.1/DTD/svg11.dtd">
<!-- Generated by graphviz version 2.40.1 (20161225.0304)
 -->
<!-- Title: /home/jihuan/Projects/deal.ii/program/dealii&#45;9.1.1/examples/laplace&#45;bem/tests/rkmatrix&#45;truncate&#45;to&#45;rank/rkmatrix&#45;truncate&#45;to&#45;rank.cc Pages: 1 -->
<svg width="1448pt" height="329pt"
 viewBox="0.00 0.00 1448.00 329.00" xmlns="http://www.w3.org/2000/svg" xmlns:xlink="http://www.w3.org/1999/xlink">
<g id="graph0" class="graph" transform="scale(1 1) rotate(0) translate(4 325)">
<title>/home/jihuan/Projects/deal.ii/program/dealii&#45;9.1.1/examples/laplace&#45;bem/tests/rkmatrix&#45;truncate&#45;to&#45;rank/rkmatrix&#45;truncate&#45;to&#45;rank.cc</title>
<!-- Node0 -->
<g id="node1" class="node">
<title>Node0</title>
<polygon fill="#bfbfbf" stroke="#000000" points="571.5,-246.5 571.5,-320.5 711.5,-320.5 711.5,-246.5 571.5,-246.5"/>
<text text-anchor="start" x="579.5" y="-308.5" font-family="Helvetica,sans-Serif" font-size="10.00" fill="#000000">/home/jihuan/Projects</text>
<text text-anchor="start" x="579.5" y="-297.5" font-family="Helvetica,sans-Serif" font-size="10.00" fill="#000000">/deal.ii/program/dealii</text>
<text text-anchor="start" x="579.5" y="-286.5" font-family="Helvetica,sans-Serif" font-size="10.00" fill="#000000">&#45;9.1.1/examples/laplace</text>
<text text-anchor="start" x="579.5" y="-275.5" font-family="Helvetica,sans-Serif" font-size="10.00" fill="#000000">&#45;bem/tests/rkmatrix&#45;truncate</text>
<text text-anchor="start" x="579.5" y="-264.5" font-family="Helvetica,sans-Serif" font-size="10.00" fill="#000000">&#45;to&#45;rank/rkmatrix&#45;truncate</text>
<text text-anchor="middle" x="641.5" y="-253.5" font-family="Helvetica,sans-Serif" font-size="10.00" fill="#000000">&#45;to&#45;rank.cc</text>
</g>
<!-- Node1 -->
<g id="node2" class="node">
<title>Node1</title>
<g id="a_node2"><a xlink:href="debug__tools_8h.html" target="_top" xlink:title="This file includes a bunch of helper functions for printing out and visualizing information about gri...">
<polygon fill="none" stroke="#000000" points="348,-190.5 348,-209.5 425,-209.5 425,-190.5 348,-190.5"/>
<text text-anchor="middle" x="386.5" y="-197.5" font-family="Helvetica,sans-Serif" font-size="10.00" fill="#000000">debug_tools.h</text>
</a>
</g>
</g>
<!-- Node0&#45;&gt;Node1 -->
<g id="edge1" class="edge">
<title>Node0&#45;&gt;Node1</title>
<path fill="none" stroke="#191970" d="M571.4828,-260.5728C524.5175,-245.194 464.3912,-225.5056 425.6581,-212.8224"/>
<polygon fill="#191970" stroke="#191970" points="426.4042,-209.3839 415.8115,-209.5981 424.2258,-216.0363 426.4042,-209.3839"/>
</g>
<!-- Node9 -->
<g id="node10" class="node">
<title>Node9</title>
<g id="a_node10"><a xlink:href="rkmatrix_8h.html" target="_top" xlink:title="Definition of rank&#45;k matrix. ">
<polygon fill="none" stroke="#000000" points="982.5,-190.5 982.5,-209.5 1042.5,-209.5 1042.5,-190.5 982.5,-190.5"/>
<text text-anchor="middle" x="1012.5" y="-197.5" font-family="Helvetica,sans-Serif" font-size="10.00" fill="#000000">rkmatrix.h</text>
</a>
</g>
</g>
<!-- Node0&#45;&gt;Node9 -->
<g id="edge9" class="edge">
<title>Node0&#45;&gt;Node9</title>
<path fill="none" stroke="#191970" d="M711.7184,-267.6961C788.928,-250.3188 910.2831,-223.0057 972.6172,-208.9763"/>
<polygon fill="#191970" stroke="#191970" points="973.4737,-212.3712 982.4611,-206.7608 971.9366,-205.542 973.4737,-212.3712"/>
</g>
<!-- Node2 -->
<g id="node3" class="node">
<title>Node2</title>
<polygon fill="none" stroke="#bfbfbf" points="253,-129 253,-148 380,-148 380,-129 253,-129"/>
<text text-anchor="middle" x="316.5" y="-136" font-family="Helvetica,sans-Serif" font-size="10.00" fill="#000000">deal.II/dofs/dof_handler.h</text>
</g>
<!-- Node1&#45;&gt;Node2 -->
<g id="edge2" class="edge">
<title>Node1&#45;&gt;Node2</title>
<path fill="none" stroke="#191970" d="M375.5625,-190.3906C364.838,-180.9683 348.2713,-166.4134 335.4099,-155.1137"/>
<polygon fill="#191970" stroke="#191970" points="337.4143,-152.2158 327.5917,-148.2449 332.7941,-157.4745 337.4143,-152.2158"/>
</g>
<!-- Node3 -->
<g id="node4" class="node">
<title>Node3</title>
<polygon fill="none" stroke="#bfbfbf" points="398.5,-129 398.5,-148 514.5,-148 514.5,-129 398.5,-129"/>
<text text-anchor="middle" x="456.5" y="-136" font-family="Helvetica,sans-Serif" font-size="10.00" fill="#000000">deal.II/dofs/dof_tools.h</text>
</g>
<!-- Node1&#45;&gt;Node3 -->
<g id="edge3" class="edge">
<title>Node1&#45;&gt;Node3</title>
<path fill="none" stroke="#191970" d="M397.4375,-190.3906C408.162,-180.9683 424.7287,-166.4134 437.5901,-155.1137"/>
<polygon fill="#191970" stroke="#191970" points="440.2059,-157.4745 445.4083,-148.2449 435.5857,-152.2158 440.2059,-157.4745"/>
</g>
<!-- Node4 -->
<g id="node5" class="node">
<title>Node4</title>
<polygon fill="none" stroke="#bfbfbf" points="532.5,-129 532.5,-148 606.5,-148 606.5,-129 532.5,-129"/>
<text text-anchor="middle" x="569.5" y="-136" font-family="Helvetica,sans-Serif" font-size="10.00" fill="#000000">deal.II/fe/fe.h</text>
</g>
<!-- Node1&#45;&gt;Node4 -->
<g id="edge4" class="edge">
<title>Node1&#45;&gt;Node4</title>
<path fill="none" stroke="#191970" d="M414.8404,-190.4941C442.547,-181.1984 485.9269,-166.6381 523.5,-154 526.1958,-153.0932 528.9803,-152.1562 531.7833,-151.2125"/>
<polygon fill="#191970" stroke="#191970" points="532.9224,-154.5221 541.2822,-148.0135 530.6881,-147.8882 532.9224,-154.5221"/>
</g>
<!-- Node5 -->
<g id="node6" class="node">
<title>Node5</title>
<polygon fill="none" stroke="#bfbfbf" points="624.5,-129 624.5,-148 736.5,-148 736.5,-129 624.5,-129"/>
<text text-anchor="middle" x="680.5" y="-136" font-family="Helvetica,sans-Serif" font-size="10.00" fill="#000000">deal.II/fe/fe_system.h</text>
</g>
<!-- Node1&#45;&gt;Node5 -->
<g id="edge5" class="edge">
<title>Node1&#45;&gt;Node5</title>
<path fill="none" stroke="#191970" d="M425.0805,-192.6881C470.668,-183.9469 548.7615,-168.6553 615.5,-154 620.6096,-152.878 625.936,-151.6703 631.2442,-150.4419"/>
<polygon fill="#191970" stroke="#191970" points="632.4293,-153.7592 641.3679,-148.0714 630.8333,-146.9435 632.4293,-153.7592"/>
</g>
<!-- Node6 -->
<g id="node7" class="node">
<title>Node6</title>
<polygon fill="none" stroke="#bfbfbf" points="0,-129 0,-148 103,-148 103,-129 0,-129"/>
<text text-anchor="middle" x="51.5" y="-136" font-family="Helvetica,sans-Serif" font-size="10.00" fill="#000000">deal.II/fe/mapping.h</text>
</g>
<!-- Node1&#45;&gt;Node6 -->
<g id="edge6" class="edge">
<title>Node1&#45;&gt;Node6</title>
<path fill="none" stroke="#191970" d="M347.7412,-194.523C294.4864,-186.7635 195.8074,-171.5459 112.5,-154 107.4178,-152.9296 102.12,-151.7224 96.8619,-150.466"/>
<polygon fill="#191970" stroke="#191970" points="97.4121,-146.9972 86.866,-148.0124 95.7434,-153.7954 97.4121,-146.9972"/>
</g>
<!-- Node7 -->
<g id="node8" class="node">
<title>Node7</title>
<polygon fill="none" stroke="#bfbfbf" points="121.5,-129 121.5,-148 175.5,-148 175.5,-129 121.5,-129"/>
<text text-anchor="middle" x="148.5" y="-136" font-family="Helvetica,sans-Serif" font-size="10.00" fill="#000000">iostream</text>
</g>
<!-- Node1&#45;&gt;Node7 -->
<g id="edge7" class="edge">
<title>Node1&#45;&gt;Node7</title>
<path fill="none" stroke="#191970" d="M347.961,-193.395C306.8899,-185.8554 240.2377,-172.1766 184.5,-154 182.3975,-153.3143 180.2485,-152.553 178.0989,-151.7461"/>
<polygon fill="#191970" stroke="#191970" points="179.3955,-148.4952 168.8117,-148.0118 176.784,-154.9898 179.3955,-148.4952"/>
</g>
<!-- Node8 -->
<g id="node9" class="node">
<title>Node8</title>
<polygon fill="none" stroke="#bfbfbf" points="194,-129 194,-148 235,-148 235,-129 194,-129"/>
<text text-anchor="middle" x="214.5" y="-136" font-family="Helvetica,sans-Serif" font-size="10.00" fill="#000000">string</text>
</g>
<!-- Node1&#45;&gt;Node8 -->
<g id="edge8" class="edge">
<title>Node1&#45;&gt;Node8</title>
<path fill="none" stroke="#191970" d="M350.8914,-190.4758C321.5627,-182.1756 279.1549,-169.1183 243.5,-154 242.4751,-153.5654 241.4381,-153.1071 240.3968,-152.6312"/>
<polygon fill="#191970" stroke="#191970" points="241.633,-149.3379 231.1181,-148.0389 238.5279,-155.6116 241.633,-149.3379"/>
</g>
<!-- Node10 -->
<g id="node11" class="node">
<title>Node10</title>
<polygon fill="none" stroke="#bfbfbf" points="1007,-129 1007,-148 1110,-148 1110,-129 1007,-129"/>
<text text-anchor="middle" x="1058.5" y="-136" font-family="Helvetica,sans-Serif" font-size="10.00" fill="#000000">deal.II/base/types.h</text>
</g>
<!-- Node9&#45;&gt;Node10 -->
<g id="edge10" class="edge">
<title>Node9&#45;&gt;Node10</title>
<path fill="none" stroke="#191970" d="M1019.6875,-190.3906C1026.4666,-181.3273 1036.7978,-167.5149 1045.0973,-156.4188"/>
<polygon fill="#191970" stroke="#191970" points="1048.0243,-158.349 1051.2112,-148.2449 1042.4188,-154.1563 1048.0243,-158.349"/>
</g>
<!-- Node11 -->
<g id="node12" class="node">
<title>Node11</title>
<polygon fill="none" stroke="#bfbfbf" points="996.5,-6 996.5,-25 1112.5,-25 1112.5,-6 996.5,-6"/>
<text text-anchor="middle" x="1054.5" y="-13" font-family="Helvetica,sans-Serif" font-size="10.00" fill="#000000">deal.II/lac/full_matrix.h</text>
</g>
<!-- Node9&#45;&gt;Node11 -->
<g id="edge11" class="edge">
<title>Node9&#45;&gt;Node11</title>
<path fill="none" stroke="#191970" d="M1042.7596,-196.1017C1068.0432,-191.0722 1102.5952,-179.6682 1119.5,-154 1146.4925,-113.0145 1100.665,-59.0466 1073.0695,-32.1846"/>
<polygon fill="#191970" stroke="#191970" points="1075.1938,-29.377 1065.518,-25.0607 1070.3902,-34.4688 1075.1938,-29.377"/>
</g>
<!-- Node12 -->
<g id="node13" class="node">
<title>Node12</title>
<polygon fill="none" stroke="#bfbfbf" points="1131,-.5 1131,-30.5 1222,-30.5 1222,-.5 1131,-.5"/>
<text text-anchor="start" x="1139" y="-18.5" font-family="Helvetica,sans-Serif" font-size="10.00" fill="#000000">deal.II/lac/lapack</text>
<text text-anchor="middle" x="1176.5" y="-7.5" font-family="Helvetica,sans-Serif" font-size="10.00" fill="#000000">_full_matrix.h</text>
</g>
<!-- Node9&#45;&gt;Node12 -->
<g id="edge12" class="edge">
<title>Node9&#45;&gt;Node12</title>
<path fill="none" stroke="#191970" d="M1042.524,-196.7309C1070.8927,-192.0598 1112.6938,-180.8244 1137.5,-154 1166.5021,-122.6383 1174.1603,-71.3776 1176.0485,-40.7948"/>
<polygon fill="#191970" stroke="#191970" points="1179.5569,-40.686 1176.512,-30.5382 1172.564,-40.37 1179.5569,-40.686"/>
</g>
<!-- Node13 -->
<g id="node14" class="node">
<title>Node13</title>
<polygon fill="none" stroke="#bfbfbf" points="1240,-.5 1240,-30.5 1331,-30.5 1331,-.5 1240,-.5"/>
<text text-anchor="start" x="1248" y="-18.5" font-family="Helvetica,sans-Serif" font-size="10.00" fill="#000000">deal.II/lac/lapack</text>
<text text-anchor="middle" x="1285.5" y="-7.5" font-family="Helvetica,sans-Serif" font-size="10.00" fill="#000000">_support.h</text>
</g>
<!-- Node9&#45;&gt;Node13 -->
<g id="edge13" class="edge">
<title>Node9&#45;&gt;Node13</title>
<path fill="none" stroke="#191970" d="M1042.5654,-195.5008C1073.9596,-189.7421 1123.6646,-177.5567 1160.5,-154 1208.1846,-123.5052 1249.0143,-70.1066 1270.1283,-39.2828"/>
<polygon fill="#191970" stroke="#191970" points="1273.1173,-41.1101 1275.7922,-30.8584 1267.3081,-37.2044 1273.1173,-41.1101"/>
</g>
<!-- Node14 -->
<g id="node15" class="node">
<title>Node14</title>
<polygon fill="none" stroke="#bfbfbf" points="1349,-.5 1349,-30.5 1440,-30.5 1440,-.5 1349,-.5"/>
<text text-anchor="start" x="1357" y="-18.5" font-family="Helvetica,sans-Serif" font-size="10.00" fill="#000000">deal.II/lac/lapack</text>
<text text-anchor="middle" x="1394.5" y="-7.5" font-family="Helvetica,sans-Serif" font-size="10.00" fill="#000000">_templates.h</text>
</g>
<!-- Node9&#45;&gt;Node14 -->
<g id="edge14" class="edge">
<title>Node9&#45;&gt;Node14</title>
<path fill="none" stroke="#191970" d="M1042.5619,-195.6323C1079.1994,-189.5712 1142.4126,-176.7057 1192.5,-154 1261.8086,-122.5809 1332.9329,-67.4038 1369.4621,-37.0412"/>
<polygon fill="#191970" stroke="#191970" points="1371.7294,-39.7077 1377.1408,-30.5991 1367.2303,-34.345 1371.7294,-39.7077"/>
</g>
<!-- Node15 -->
<g id="node16" class="node">
<title>Node15</title>
<polygon fill="none" stroke="#bfbfbf" points="944.5,-129 944.5,-148 988.5,-148 988.5,-129 944.5,-129"/>
<text text-anchor="middle" x="966.5" y="-136" font-family="Helvetica,sans-Serif" font-size="10.00" fill="#000000">cmath</text>
</g>
<!-- Node9&#45;&gt;Node15 -->
<g id="edge15" class="edge">
<title>Node9&#45;&gt;Node15</title>
<path fill="none" stroke="#191970" d="M1005.3125,-190.3906C998.5334,-181.3273 988.2022,-167.5149 979.9027,-156.4188"/>
<polygon fill="#191970" stroke="#191970" points="982.5812,-154.1563 973.7888,-148.2449 976.9757,-158.349 982.5812,-154.1563"/>
</g>
<!-- Node16 -->
<g id="node17" class="node">
<title>Node16</title>
<polygon fill="none" stroke="#bfbfbf" points="601,-67.5 601,-86.5 636,-86.5 636,-67.5 601,-67.5"/>
<text text-anchor="middle" x="618.5" y="-74.5" font-family="Helvetica,sans-Serif" font-size="10.00" fill="#000000">map</text>
</g>
<!-- Node9&#45;&gt;Node16 -->
<g id="edge16" class="edge">
<title>Node9&#45;&gt;Node16</title>
<path fill="none" stroke="#191970" d="M982.14,-198.5403C936.8624,-195.3624 849.8669,-185.3469 783.5,-154 763.7919,-144.6913 764.4696,-133.7338 745.5,-123 706.9579,-101.1913 691.7894,-102.8743 645.8289,-87.0056"/>
<polygon fill="#191970" stroke="#191970" points="646.8049,-83.638 636.2102,-83.5857 644.4599,-90.2336 646.8049,-83.638"/>
</g>
<!-- Node17 -->
<g id="node18" class="node">
<title>Node17</title>
<polygon fill="none" stroke="#bfbfbf" points="948.5,-67.5 948.5,-86.5 992.5,-86.5 992.5,-67.5 948.5,-67.5"/>
<text text-anchor="middle" x="970.5" y="-74.5" font-family="Helvetica,sans-Serif" font-size="10.00" fill="#000000">vector</text>
</g>
<!-- Node9&#45;&gt;Node17 -->
<g id="edge17" class="edge">
<title>Node9&#45;&gt;Node17</title>
<path fill="none" stroke="#191970" d="M982.5542,-190.4983C965.4946,-183.3713 945.5676,-171.7417 935.5,-154 924.2681,-134.2065 939.4641,-110.1573 953.2054,-94.26"/>
<polygon fill="#191970" stroke="#191970" points="955.9151,-96.4842 960.1109,-86.7555 950.7641,-91.7442 955.9151,-96.4842"/>
</g>
<!-- Node18 -->
<g id="node19" class="node">
<title>Node18</title>
<g id="a_node19"><a xlink:href="lapack__full__matrix__ext_8h_source.html" target="_top" xlink:title="lapack_full_matrix\l_ext.h">
<polygon fill="none" stroke="#000000" points="793,-123.5 793,-153.5 888,-153.5 888,-123.5 793,-123.5"/>
<text text-anchor="start" x="801" y="-141.5" font-family="Helvetica,sans-Serif" font-size="10.00" fill="#000000">lapack_full_matrix</text>
<text text-anchor="middle" x="840.5" y="-130.5" font-family="Helvetica,sans-Serif" font-size="10.00" fill="#000000">_ext.h</text>
</a>
</g>
</g>
<!-- Node9&#45;&gt;Node18 -->
<g id="edge18" class="edge">
<title>Node9&#45;&gt;Node18</title>
<path fill="none" stroke="#191970" d="M985.625,-190.3906C960.7304,-181.4893 923.0245,-168.0073 892.2861,-157.0165"/>
<polygon fill="#191970" stroke="#191970" points="893.1705,-153.6158 882.5759,-153.5446 890.8137,-160.2072 893.1705,-153.6158"/>
</g>
<!-- Node18&#45;&gt;Node16 -->
<g id="edge20" class="edge">
<title>Node18&#45;&gt;Node16</title>
<path fill="none" stroke="#191970" d="M792.7656,-126.4568C748.2969,-115.1446 684.3011,-98.6066 645.81,-86.8414"/>
<polygon fill="#191970" stroke="#191970" points="646.7233,-83.4599 636.1342,-83.8088 644.6297,-90.1395 646.7233,-83.4599"/>
</g>
<!-- Node18&#45;&gt;Node17 -->
<g id="edge21" class="edge">
<title>Node18&#45;&gt;Node17</title>
<path fill="none" stroke="#191970" d="M872.3016,-123.4554C893.3265,-113.509 920.6859,-100.5659 941.1843,-90.8686"/>
<polygon fill="#191970" stroke="#191970" points="942.8119,-93.9706 950.3546,-86.5303 939.8184,-87.6429 942.8119,-93.9706"/>
</g>
<!-- Node19 -->
<g id="node20" class="node">
<title>Node19</title>
<polygon fill="none" stroke="#bfbfbf" points="654.5,-67.5 654.5,-86.5 694.5,-86.5 694.5,-67.5 654.5,-67.5"/>
<text text-anchor="middle" x="674.5" y="-74.5" font-family="Helvetica,sans-Serif" font-size="10.00" fill="#000000">limits</text>
</g>
<!-- Node18&#45;&gt;Node19 -->
<g id="edge19" class="edge">
<title>Node18&#45;&gt;Node19</title>
<path fill="none" stroke="#191970" d="M799.8918,-123.4554C770.2731,-112.4822 730.8093,-97.8616 704.1262,-87.976"/>
<polygon fill="#191970" stroke="#191970" points="705.1656,-84.6286 694.5725,-84.4365 702.7337,-91.1926 705.1656,-84.6286"/>
</g>
<!-- Node20 -->
<g id="node21" class="node">
<title>Node20</title>
<g id="a_node21"><a xlink:href="general__exceptions_8h.html" target="_top" xlink:title="Definition of self&#45;defined general exceptions. ">
<polygon fill="none" stroke="#000000" points="713,-67.5 713,-86.5 822,-86.5 822,-67.5 713,-67.5"/>
<text text-anchor="middle" x="767.5" y="-74.5" font-family="Helvetica,sans-Serif" font-size="10.00" fill="#000000">general_exceptions.h</text>
</a>
</g>
</g>
<!-- Node18&#45;&gt;Node20 -->
<g id="edge22" class="edge">
<title>Node18&#45;&gt;Node20</title>
<path fill="none" stroke="#191970" d="M822.4551,-123.2977C811.6886,-114.2274 798.0149,-102.7077 787.0005,-93.4285"/>
<polygon fill="#191970" stroke="#191970" points="789.0911,-90.6132 779.1882,-86.8469 784.5809,-95.9667 789.0911,-90.6132"/>
</g>
<!-- Node22 -->
<g id="node23" class="node">
<title>Node22</title>
<g id="a_node23"><a xlink:href="lapack__helpers_8h.html" target="_top" xlink:title="Exposes LAPACK helper functions defined in lapack_full_matrix.cc and define new ones by following the...">
<polygon fill="none" stroke="#000000" points="840.5,-67.5 840.5,-86.5 930.5,-86.5 930.5,-67.5 840.5,-67.5"/>
<text text-anchor="middle" x="885.5" y="-74.5" font-family="Helvetica,sans-Serif" font-size="10.00" fill="#000000">lapack_helpers.h</text>
</a>
</g>
</g>
<!-- Node18&#45;&gt;Node22 -->
<g id="edge24" class="edge">
<title>Node18&#45;&gt;Node22</title>
<path fill="none" stroke="#191970" d="M851.6236,-123.2977C857.8701,-114.7609 865.704,-104.0545 872.2647,-95.0883"/>
<polygon fill="#191970" stroke="#191970" points="875.2144,-96.984 878.2949,-86.8469 869.5652,-92.8505 875.2144,-96.984"/>
</g>
<!-- Node21 -->
<g id="node22" class="node">
<title>Node21</title>
<polygon fill="none" stroke="#bfbfbf" points="82.5,-6 82.5,-25 208.5,-25 208.5,-6 82.5,-6"/>
<text text-anchor="middle" x="145.5" y="-13" font-family="Helvetica,sans-Serif" font-size="10.00" fill="#000000">deal.II/base/exceptions.h</text>
</g>
<!-- Node20&#45;&gt;Node21 -->
<g id="edge23" class="edge">
<title>Node20&#45;&gt;Node21</title>
<path fill="none" stroke="#191970" d="M712.7269,-68.1428C709.6087,-67.7317 706.5165,-67.3468 703.5,-67 488.3257,-42.2613 431.8813,-61.8651 217.5,-31 210.1082,-29.9358 202.3415,-28.5504 194.7557,-27.0457"/>
<polygon fill="#191970" stroke="#191970" points="195.4359,-23.6124 184.9344,-25.0159 194.0191,-30.4675 195.4359,-23.6124"/>
</g>
<!-- Node22&#45;&gt;Node11 -->
<g id="edge28" class="edge">
<title>Node22&#45;&gt;Node11</title>
<path fill="none" stroke="#191970" d="M911.9063,-67.3906C940.6791,-56.92 986.8696,-40.1111 1018.8466,-28.4745"/>
<polygon fill="#191970" stroke="#191970" points="1020.079,-31.7506 1028.2792,-25.0419 1017.6851,-25.1726 1020.079,-31.7506"/>
</g>
<!-- Node22&#45;&gt;Node12 -->
<g id="edge29" class="edge">
<title>Node22&#45;&gt;Node12</title>
<path fill="none" stroke="#191970" d="M930.7177,-68.3943C988.0445,-57.4551 1083.1454,-39.2028 1121.1131,-30.8883"/>
<polygon fill="#191970" stroke="#191970" points="1121.9839,-34.2797 1130.9568,-28.6461 1120.4292,-27.4545 1121.9839,-34.2797"/>
</g>
<!-- Node22&#45;&gt;Node13 -->
<g id="edge30" class="edge">
<title>Node22&#45;&gt;Node13</title>
<path fill="none" stroke="#191970" d="M930.5466,-68.4475C933.5733,-67.9379 936.5788,-67.4501 939.5,-67 1065.5799,-47.5721 1101.6269,-56.6464 1230.1351,-31.0996"/>
<polygon fill="#191970" stroke="#191970" points="1230.8501,-34.526 1239.9594,-29.1157 1229.4644,-27.6645 1230.8501,-34.526"/>
</g>
<!-- Node22&#45;&gt;Node14 -->
<g id="edge31" class="edge">
<title>Node22&#45;&gt;Node14</title>
<path fill="none" stroke="#191970" d="M930.5303,-68.3353C933.5609,-67.8527 936.5718,-67.4017 939.5,-67 1113.5761,-43.1213 1162.8288,-63.083 1339.1194,-31.0459"/>
<polygon fill="#191970" stroke="#191970" points="1339.7828,-34.4826 1348.9806,-29.2242 1338.5111,-27.5991 1339.7828,-34.4826"/>
</g>
<!-- Node23 -->
<g id="node24" class="node">
<title>Node23</title>
<polygon fill="none" stroke="#bfbfbf" points="226.5,-6 226.5,-25 342.5,-25 342.5,-6 226.5,-6"/>
<text text-anchor="middle" x="284.5" y="-13" font-family="Helvetica,sans-Serif" font-size="10.00" fill="#000000">deal.II/base/numbers.h</text>
</g>
<!-- Node22&#45;&gt;Node23 -->
<g id="edge25" class="edge">
<title>Node22&#45;&gt;Node23</title>
<path fill="none" stroke="#191970" d="M840.4764,-68.2854C837.4442,-67.8149 834.4311,-67.3802 831.5,-67 619.3447,-39.4823 562.9949,-63.2027 351.5,-31 344.8386,-29.9857 337.858,-28.6653 331.0227,-27.2231"/>
<polygon fill="#191970" stroke="#191970" points="331.686,-23.7853 321.1662,-25.0443 330.175,-30.6203 331.686,-23.7853"/>
</g>
<!-- Node24 -->
<g id="node25" class="node">
<title>Node24</title>
<polygon fill="none" stroke="#bfbfbf" points="360.5,-.5 360.5,-30.5 488.5,-30.5 488.5,-.5 360.5,-.5"/>
<text text-anchor="start" x="368.5" y="-18.5" font-family="Helvetica,sans-Serif" font-size="10.00" fill="#000000">deal.II/lac/blas_extension</text>
<text text-anchor="middle" x="424.5" y="-7.5" font-family="Helvetica,sans-Serif" font-size="10.00" fill="#000000">_templates.h</text>
</g>
<!-- Node22&#45;&gt;Node24 -->
<g id="edge26" class="edge">
<title>Node22&#45;&gt;Node24</title>
<path fill="none" stroke="#191970" d="M840.4612,-68.3957C837.4326,-67.8986 834.4245,-67.4278 831.5,-67 686.9417,-45.8554 646.6563,-54.1569 498.4459,-31.048"/>
<polygon fill="#191970" stroke="#191970" points="498.949,-27.5841 488.5252,-29.4798 497.856,-34.4983 498.949,-27.5841"/>
</g>
<!-- Node25 -->
<g id="node26" class="node">
<title>Node25</title>
<polygon fill="none" stroke="#bfbfbf" points="506.5,-6 506.5,-25 632.5,-25 632.5,-6 506.5,-6"/>
<text text-anchor="middle" x="569.5" y="-13" font-family="Helvetica,sans-Serif" font-size="10.00" fill="#000000">deal.II/lac/block_vector.h</text>
</g>
<!-- Node22&#45;&gt;Node25 -->
<g id="edge27" class="edge">
<title>Node22&#45;&gt;Node25</title>
<path fill="none" stroke="#191970" d="M840.3101,-68.6245C780.6449,-57.5412 678.79,-38.5276 641.5,-31 635.4134,-29.7713 629.0451,-28.451 622.721,-27.1181"/>
<polygon fill="#191970" stroke="#191970" points="623.3754,-23.6791 612.8663,-25.0244 621.9206,-30.5263 623.3754,-23.6791"/>
</g>
<!-- Node26 -->
<g id="node27" class="node">
<title>Node26</title>
<polygon fill="none" stroke="#bfbfbf" points="650.5,-.5 650.5,-30.5 742.5,-30.5 742.5,-.5 650.5,-.5"/>
<text text-anchor="start" x="658.5" y="-18.5" font-family="Helvetica,sans-Serif" font-size="10.00" fill="#000000">deal.II/lac/sparse</text>
<text text-anchor="middle" x="696.5" y="-7.5" font-family="Helvetica,sans-Serif" font-size="10.00" fill="#000000">_matrix.h</text>
</g>
<!-- Node22&#45;&gt;Node26 -->
<g id="edge32" class="edge">
<title>Node22&#45;&gt;Node26</title>
<path fill="none" stroke="#191970" d="M855.9688,-67.3906C828.3767,-58.4123 786.4625,-44.7735 752.5289,-33.7316"/>
<polygon fill="#191970" stroke="#191970" points="753.3269,-30.3107 742.7346,-30.5446 751.1608,-36.9672 753.3269,-30.3107"/>
</g>
<!-- Node27 -->
<g id="node28" class="node">
<title>Node27</title>
<polygon fill="none" stroke="#bfbfbf" points="761,-6 761,-25 862,-25 862,-6 761,-6"/>
<text text-anchor="middle" x="811.5" y="-13" font-family="Helvetica,sans-Serif" font-size="10.00" fill="#000000">deal.II/lac/utilities.h</text>
</g>
<!-- Node22&#45;&gt;Node27 -->
<g id="edge33" class="edge">
<title>Node22&#45;&gt;Node27</title>
<path fill="none" stroke="#191970" d="M873.9375,-67.3906C862.4921,-57.8786 844.7527,-43.1357 831.103,-31.7917"/>
<polygon fill="#191970" stroke="#191970" points="833.1533,-28.9447 823.2255,-25.2449 828.6792,-34.3283 833.1533,-28.9447"/>
</g>
<!-- Node28 -->
<g id="node29" class="node">
<title>Node28</title>
<polygon fill="none" stroke="#bfbfbf" points="880.5,-6 880.5,-25 978.5,-25 978.5,-6 880.5,-6"/>
<text text-anchor="middle" x="929.5" y="-13" font-family="Helvetica,sans-Serif" font-size="10.00" fill="#000000">deal.II/lac/vector.h</text>
</g>
<!-- Node22&#45;&gt;Node28 -->
<g id="edge34" class="edge">
<title>Node22&#45;&gt;Node28</title>
<path fill="none" stroke="#191970" d="M892.375,-67.3906C898.8593,-58.3273 908.7414,-44.5149 916.6801,-33.4188"/>
<polygon fill="#191970" stroke="#191970" points="919.5559,-35.4143 922.5281,-25.2449 913.8629,-31.3412 919.5559,-35.4143"/>
</g>
</g>
</svg>
