<?xml version="1.0" encoding="UTF-8" standalone="no"?>
<!DOCTYPE svg PUBLIC "-//W3C//DTD SVG 1.1//EN"
 "http://www.w3.org/Graphics/SVG/1.1/DTD/svg11.dtd">
<!-- Generated by graphviz version 2.40.1 (20161225.0304)
 -->
<!-- Title: /home/jihuan/Projects/deal.ii/program/dealii&#45;9.1.1/examples/laplace&#45;bem/tests/rkmatrix&#45;agglomeration&#45;of&#45;two&#45;submatrices&#45;interwoven&#45;indices/rkmatrix&#45;agglomeration&#45;of&#45;two&#45;submatrices&#45;interwoven&#45;indices.cc Pages: 1 -->
<!--zoomable 407 -->
<svg id="main" version="1.1" xmlns="http://www.w3.org/2000/svg" xmlns:xlink="http://www.w3.org/1999/xlink" xml:space="preserve" onload="init(evt)">
<style type="text/css"><![CDATA[
.edge:hover path { stroke: red; }
.edge:hover polygon { stroke: red; fill: red; }
]]></style>
<script type="text/javascript"><![CDATA[
var edges = document.getElementsByTagName('g');
if (edges && edges.length) {
  for (var i=0;i<edges.length;i++) {
    if (edges[i].id.substr(0,4)=='edge') {
      edges[i].setAttribute('class','edge');
    }
  }
}
]]></script>
        <defs>
                <circle id="rim" cx="0" cy="0" r="7"/>
                <circle id="rim2" cx="0" cy="0" r="3.5"/>
                <g id="zoomPlus">
                        <use xlink:href="#rim" fill="#404040">
                                <set attributeName="fill" to="#808080" begin="zoomplus.mouseover" end="zoomplus.mouseout"/>
                        </use>
                        <path d="M-4,0h8M0,-4v8" fill="none" stroke="white" stroke-width="1.5" pointer-events="none"/>
                </g>
                <g id="zoomMin">
                        <use xlink:href="#rim" fill="#404040">
                                <set attributeName="fill" to="#808080" begin="zoomminus.mouseover" end="zoomminus.mouseout"/>
                        </use>
                        <path d="M-4,0h8" fill="none" stroke="white" stroke-width="1.5" pointer-events="none"/>
                </g>
                <g id="dirArrow">
                        <path fill="none" stroke="white" stroke-width="1.5" d="M0,-3.0v7 M-2.5,-0.5L0,-3.0L2.5,-0.5"/>
                </g>
               <g id="resetDef">
                       <use xlink:href="#rim2" fill="#404040">
                               <set attributeName="fill" to="#808080" begin="reset.mouseover" end="reset.mouseout"/>
                       </use>
               </g>
        </defs>

<script type="text/javascript">
var viewWidth = 1739;
var viewHeight = 407;
var sectionId = 'dynsection-0';
</script>
<script xlink:href="svgpan.js"/>
<svg id="graph" class="graph">
<g id="viewport">
<title>/home/jihuan/Projects/deal.ii/program/dealii&#45;9.1.1/examples/laplace&#45;bem/tests/rkmatrix&#45;agglomeration&#45;of&#45;two&#45;submatrices&#45;interwoven&#45;indices/rkmatrix&#45;agglomeration&#45;of&#45;two&#45;submatrices&#45;interwoven&#45;indices.cc</title>
<!-- Node0 -->
<g id="node1" class="node">
<title>Node0</title>
<polygon fill="#bfbfbf" stroke="#000000" points="1128.5,-313.5 1128.5,-398.5 1328.5,-398.5 1328.5,-313.5 1128.5,-313.5"/>
<text text-anchor="start" x="1136.5" y="-386.5" font-family="Helvetica,sans-Serif" font-size="10.00" fill="#000000">/home/jihuan/Projects</text>
<text text-anchor="start" x="1136.5" y="-375.5" font-family="Helvetica,sans-Serif" font-size="10.00" fill="#000000">/deal.ii/program/dealii</text>
<text text-anchor="start" x="1136.5" y="-364.5" font-family="Helvetica,sans-Serif" font-size="10.00" fill="#000000">&#45;9.1.1/examples/laplace</text>
<text text-anchor="start" x="1136.5" y="-353.5" font-family="Helvetica,sans-Serif" font-size="10.00" fill="#000000">&#45;bem/tests/rkmatrix&#45;agglomeration</text>
<text text-anchor="start" x="1136.5" y="-342.5" font-family="Helvetica,sans-Serif" font-size="10.00" fill="#000000">&#45;of&#45;two&#45;submatrices&#45;interwoven</text>
<text text-anchor="start" x="1136.5" y="-331.5" font-family="Helvetica,sans-Serif" font-size="10.00" fill="#000000">&#45;indices/rkmatrix&#45;agglomeration</text>
<text text-anchor="middle" x="1228.5" y="-320.5" font-family="Helvetica,sans-Serif" font-size="10.00" fill="#000000">&#45;of&#45;two&#45;submatrices&#45;interwoven&#45;indices.cc</text>
</g>
<!-- Node1 -->
<g id="node2" class="node">
<title>Node1</title>
<polygon fill="none" stroke="#bfbfbf" points="1117.5,-257.5 1117.5,-276.5 1171.5,-276.5 1171.5,-257.5 1117.5,-257.5"/>
<text text-anchor="middle" x="1144.5" y="-264.5" font-family="Helvetica,sans-Serif" font-size="10.00" fill="#000000">iostream</text>
</g>
<!-- Node0&#45;&gt;Node1 -->
<g id="edge1" class="edge">
<title>Node0&#45;&gt;Node1</title>
<path fill="none" stroke="#191970" d="M1188.2222,-313.3247C1178.3945,-302.912 1168.4408,-292.3659 1160.5184,-283.9719"/>
<polygon fill="#191970" stroke="#191970" points="1163.0248,-281.5282 1153.6156,-276.6581 1157.9341,-286.3329 1163.0248,-281.5282"/>
</g>
<!-- Node2 -->
<g id="node3" class="node">
<title>Node2</title>
<g id="a_node3"><a xlink:href="generic__functors_8h.html" target="_top" xlink:title="This header file contains a set of self&#45;defined generic functors. ">
<polygon fill="none" stroke="#000000" points="1451,-134.5 1451,-153.5 1548,-153.5 1548,-134.5 1451,-134.5"/>
<text text-anchor="middle" x="1499.5" y="-141.5" font-family="Helvetica,sans-Serif" font-size="10.00" fill="#000000">generic_functors.h</text>
</a>
</g>
</g>
<!-- Node0&#45;&gt;Node2 -->
<g id="edge2" class="edge">
<title>Node0&#45;&gt;Node2</title>
<path fill="none" stroke="#191970" d="M1283.0149,-313.3537C1343.6206,-265.9425 1438.3684,-191.8225 1479.4178,-159.7101"/>
<polygon fill="#191970" stroke="#191970" points="1481.6109,-162.4382 1487.3306,-153.52 1477.2978,-156.9248 1481.6109,-162.4382"/>
</g>
<!-- Node8 -->
<g id="node9" class="node">
<title>Node8</title>
<g id="a_node9"><a xlink:href="lapack__full__matrix__ext_8h_source.html" target="_top" xlink:title="lapack_full_matrix\l_ext.h">
<polygon fill="none" stroke="#000000" points="1034,-190.5 1034,-220.5 1129,-220.5 1129,-190.5 1034,-190.5"/>
<text text-anchor="start" x="1042" y="-208.5" font-family="Helvetica,sans-Serif" font-size="10.00" fill="#000000">lapack_full_matrix</text>
<text text-anchor="middle" x="1081.5" y="-197.5" font-family="Helvetica,sans-Serif" font-size="10.00" fill="#000000">_ext.h</text>
</a>
</g>
</g>
<!-- Node0&#45;&gt;Node8 -->
<g id="edge8" class="edge">
<title>Node0&#45;&gt;Node8</title>
<path fill="none" stroke="#191970" d="M1214.7913,-313.3189C1207.0532,-294.3278 1195.8118,-272.7502 1180.5,-257 1167.5175,-243.6458 1150.3249,-233.0588 1133.9149,-225.044"/>
<polygon fill="#191970" stroke="#191970" points="1134.9254,-221.6545 1124.3811,-220.6207 1131.9793,-228.0044 1134.9254,-221.6545"/>
</g>
<!-- Node25 -->
<g id="node26" class="node">
<title>Node25</title>
<g id="a_node26"><a xlink:href="rkmatrix_8h.html" target="_top" xlink:title="Definition of rank&#45;k matrix. ">
<polygon fill="none" stroke="#000000" points="1227.5,-257.5 1227.5,-276.5 1287.5,-276.5 1287.5,-257.5 1227.5,-257.5"/>
<text text-anchor="middle" x="1257.5" y="-264.5" font-family="Helvetica,sans-Serif" font-size="10.00" fill="#000000">rkmatrix.h</text>
</a>
</g>
</g>
<!-- Node0&#45;&gt;Node25 -->
<g id="edge31" class="edge">
<title>Node0&#45;&gt;Node25</title>
<path fill="none" stroke="#191970" d="M1242.4054,-313.3247C1245.4835,-303.8782 1248.5974,-294.3218 1251.191,-286.3621"/>
<polygon fill="#191970" stroke="#191970" points="1254.5826,-287.2505 1254.353,-276.6581 1247.927,-285.0818 1254.5826,-287.2505"/>
</g>
<!-- Node3 -->
<g id="node4" class="node">
<title>Node3</title>
<polygon fill="none" stroke="#bfbfbf" points="1351.5,-73 1351.5,-92 1477.5,-92 1477.5,-73 1351.5,-73"/>
<text text-anchor="middle" x="1414.5" y="-80" font-family="Helvetica,sans-Serif" font-size="10.00" fill="#000000">deal.II/base/exceptions.h</text>
</g>
<!-- Node2&#45;&gt;Node3 -->
<g id="edge3" class="edge">
<title>Node2&#45;&gt;Node3</title>
<path fill="none" stroke="#191970" d="M1486.2188,-134.3906C1472.7452,-124.6421 1451.678,-109.3994 1435.8565,-97.9521"/>
<polygon fill="#191970" stroke="#191970" points="1437.8414,-95.0682 1427.688,-92.0419 1433.7381,-100.7394 1437.8414,-95.0682"/>
</g>
<!-- Node4 -->
<g id="node5" class="node">
<title>Node4</title>
<polygon fill="none" stroke="#bfbfbf" points="1596,-73 1596,-92 1699,-92 1699,-73 1596,-73"/>
<text text-anchor="middle" x="1647.5" y="-80" font-family="Helvetica,sans-Serif" font-size="10.00" fill="#000000">deal.II/base/types.h</text>
</g>
<!-- Node2&#45;&gt;Node4 -->
<g id="edge4" class="edge">
<title>Node2&#45;&gt;Node4</title>
<path fill="none" stroke="#191970" d="M1522.625,-134.3906C1547.4967,-124.0554 1587.2298,-107.5447 1615.1844,-95.9284"/>
<polygon fill="#191970" stroke="#191970" points="1616.646,-99.1113 1624.5374,-92.0419 1613.9598,-92.6472 1616.646,-99.1113"/>
</g>
<!-- Node5 -->
<g id="node6" class="node">
<title>Node5</title>
<polygon fill="none" stroke="#bfbfbf" points="1166,-.5 1166,-30.5 1257,-30.5 1257,-.5 1166,-.5"/>
<text text-anchor="start" x="1174" y="-18.5" font-family="Helvetica,sans-Serif" font-size="10.00" fill="#000000">deal.II/lac/lapack</text>
<text text-anchor="middle" x="1211.5" y="-7.5" font-family="Helvetica,sans-Serif" font-size="10.00" fill="#000000">_support.h</text>
</g>
<!-- Node2&#45;&gt;Node5 -->
<g id="edge5" class="edge">
<title>Node2&#45;&gt;Node5</title>
<path fill="none" stroke="#191970" d="M1501.0161,-134.4364C1502.9995,-118.1862 1504.3607,-85.1828 1486.5,-67 1456.6529,-36.6146 1338.6409,-23.6915 1267.2676,-18.5654"/>
<polygon fill="#191970" stroke="#191970" points="1267.3085,-15.06 1257.0916,-17.8645 1266.8274,-22.0435 1267.3085,-15.06"/>
</g>
<!-- Node6 -->
<g id="node7" class="node">
<title>Node6</title>
<polygon fill="none" stroke="#bfbfbf" points="1298,-73 1298,-92 1333,-92 1333,-73 1298,-73"/>
<text text-anchor="middle" x="1315.5" y="-80" font-family="Helvetica,sans-Serif" font-size="10.00" fill="#000000">map</text>
</g>
<!-- Node2&#45;&gt;Node6 -->
<g id="edge6" class="edge">
<title>Node2&#45;&gt;Node6</title>
<path fill="none" stroke="#191970" d="M1456.9101,-134.4197C1424.783,-126.5052 1379.9916,-113.9874 1342.5,-98 1341.5056,-97.576 1340.5018,-97.1236 1339.4962,-96.6499"/>
<polygon fill="#191970" stroke="#191970" points="1341.0818,-93.5294 1330.5979,-92 1337.8398,-99.7334 1341.0818,-93.5294"/>
</g>
<!-- Node7 -->
<g id="node8" class="node">
<title>Node7</title>
<polygon fill="none" stroke="#bfbfbf" points="1533.5,-73 1533.5,-92 1577.5,-92 1577.5,-73 1533.5,-73"/>
<text text-anchor="middle" x="1555.5" y="-80" font-family="Helvetica,sans-Serif" font-size="10.00" fill="#000000">vector</text>
</g>
<!-- Node2&#45;&gt;Node7 -->
<g id="edge7" class="edge">
<title>Node2&#45;&gt;Node7</title>
<path fill="none" stroke="#191970" d="M1508.25,-134.3906C1516.6662,-125.1478 1529.5797,-110.966 1539.781,-99.7628"/>
<polygon fill="#191970" stroke="#191970" points="1542.4818,-101.9953 1546.6266,-92.2449 1537.306,-97.2824 1542.4818,-101.9953"/>
</g>
<!-- Node8&#45;&gt;Node2 -->
<g id="edge17" class="edge">
<title>Node8&#45;&gt;Node2</title>
<path fill="none" stroke="#191970" d="M1129.2739,-191.9605C1132.3849,-191.2488 1135.4799,-190.5867 1138.5,-190 1268.5048,-164.7435 1305.5737,-173.1068 1440.8808,-154.0113"/>
<polygon fill="#191970" stroke="#191970" points="1441.3941,-157.4736 1450.7953,-152.5882 1440.3994,-150.5446 1441.3941,-157.4736"/>
</g>
<!-- Node8&#45;&gt;Node6 -->
<g id="edge10" class="edge">
<title>Node8&#45;&gt;Node6</title>
<path fill="none" stroke="#191970" d="M1111.5319,-190.4043C1151.9929,-169.9527 1226.134,-132.0758 1288.5,-98 1289.0336,-97.7084 1289.5725,-97.4126 1290.1151,-97.1134"/>
<polygon fill="#191970" stroke="#191970" points="1291.9966,-100.0708 1298.9986,-92.1196 1288.5664,-93.9689 1291.9966,-100.0708"/>
</g>
<!-- Node8&#45;&gt;Node7 -->
<g id="edge14" class="edge">
<title>Node8&#45;&gt;Node7</title>
<path fill="none" stroke="#191970" d="M1129.2527,-191.8461C1132.3688,-191.1624 1135.4708,-190.5378 1138.5,-190 1184.3986,-181.8511 1524.9832,-188.3479 1556.5,-154 1569.0479,-140.325 1566.5992,-118.2377 1562.3902,-102.2272"/>
<polygon fill="#191970" stroke="#191970" points="1565.6246,-100.8345 1559.3576,-92.2919 1558.9295,-102.8781 1565.6246,-100.8345"/>
</g>
<!-- Node9 -->
<g id="node10" class="node">
<title>Node9</title>
<polygon fill="none" stroke="#bfbfbf" points="1113.5,-134.5 1113.5,-153.5 1153.5,-153.5 1153.5,-134.5 1113.5,-134.5"/>
<text text-anchor="middle" x="1133.5" y="-141.5" font-family="Helvetica,sans-Serif" font-size="10.00" fill="#000000">limits</text>
</g>
<!-- Node8&#45;&gt;Node9 -->
<g id="edge9" class="edge">
<title>Node8&#45;&gt;Node9</title>
<path fill="none" stroke="#191970" d="M1094.3539,-190.2977C1101.7224,-181.5831 1111.0026,-170.6075 1118.6777,-161.5302"/>
<polygon fill="#191970" stroke="#191970" points="1121.3902,-163.743 1125.1741,-153.8469 1116.0448,-159.2233 1121.3902,-163.743"/>
</g>
<!-- Node10 -->
<g id="node11" class="node">
<title>Node10</title>
<polygon fill="none" stroke="#bfbfbf" points="924,-134.5 924,-153.5 965,-153.5 965,-134.5 924,-134.5"/>
<text text-anchor="middle" x="944.5" y="-141.5" font-family="Helvetica,sans-Serif" font-size="10.00" fill="#000000">regex</text>
</g>
<!-- Node8&#45;&gt;Node10 -->
<g id="edge11" class="edge">
<title>Node8&#45;&gt;Node10</title>
<path fill="none" stroke="#191970" d="M1047.986,-190.4554C1025.5914,-180.4023 996.3771,-167.2879 974.7017,-157.5577"/>
<polygon fill="#191970" stroke="#191970" points="975.8812,-154.2507 965.3248,-153.3484 973.0144,-160.6368 975.8812,-154.2507"/>
</g>
<!-- Node11 -->
<g id="node12" class="node">
<title>Node11</title>
<polygon fill="none" stroke="#bfbfbf" points="983.5,-134.5 983.5,-153.5 1035.5,-153.5 1035.5,-134.5 983.5,-134.5"/>
<text text-anchor="middle" x="1009.5" y="-141.5" font-family="Helvetica,sans-Serif" font-size="10.00" fill="#000000">sstream</text>
</g>
<!-- Node8&#45;&gt;Node11 -->
<g id="edge12" class="edge">
<title>Node8&#45;&gt;Node11</title>
<path fill="none" stroke="#191970" d="M1063.7022,-190.2977C1053.0833,-181.2274 1039.5969,-169.7077 1028.7333,-160.4285"/>
<polygon fill="#191970" stroke="#191970" points="1030.9051,-157.6805 1021.0281,-153.8469 1026.3587,-163.0031 1030.9051,-157.6805"/>
</g>
<!-- Node12 -->
<g id="node13" class="node">
<title>Node12</title>
<polygon fill="none" stroke="#bfbfbf" points="1054,-134.5 1054,-153.5 1095,-153.5 1095,-134.5 1054,-134.5"/>
<text text-anchor="middle" x="1074.5" y="-141.5" font-family="Helvetica,sans-Serif" font-size="10.00" fill="#000000">string</text>
</g>
<!-- Node8&#45;&gt;Node12 -->
<g id="edge13" class="edge">
<title>Node8&#45;&gt;Node12</title>
<path fill="none" stroke="#191970" d="M1079.7697,-190.2977C1078.8587,-182.2945 1077.7307,-172.3843 1076.7524,-163.7889"/>
<polygon fill="#191970" stroke="#191970" points="1080.2293,-163.3869 1075.6208,-153.8469 1073.2742,-164.1786 1080.2293,-163.3869"/>
</g>
<!-- Node13 -->
<g id="node14" class="node">
<title>Node13</title>
<g id="a_node14"><a xlink:href="general__exceptions_8h.html" target="_top" xlink:title="Definition of self&#45;defined general exceptions. ">
<polygon fill="none" stroke="#000000" points="1324,-134.5 1324,-153.5 1433,-153.5 1433,-134.5 1324,-134.5"/>
<text text-anchor="middle" x="1378.5" y="-141.5" font-family="Helvetica,sans-Serif" font-size="10.00" fill="#000000">general_exceptions.h</text>
</a>
</g>
</g>
<!-- Node8&#45;&gt;Node13 -->
<g id="edge15" class="edge">
<title>Node8&#45;&gt;Node13</title>
<path fill="none" stroke="#191970" d="M1129.0173,-192.288C1132.2198,-191.4874 1135.4028,-190.7168 1138.5,-190 1197.5393,-176.3357 1265.4133,-163.5988 1313.8825,-155.0084"/>
<polygon fill="#191970" stroke="#191970" points="1314.6798,-158.4219 1323.9206,-153.2394 1313.4649,-151.5282 1314.6798,-158.4219"/>
</g>
<!-- Node14 -->
<g id="node15" class="node">
<title>Node14</title>
<g id="a_node15"><a xlink:href="lapack__helpers_8h.html" target="_top" xlink:title="Exposes LAPACK helper functions defined in lapack_full_matrix.cc and define new ones by following the...">
<polygon fill="none" stroke="#000000" points="727.5,-134.5 727.5,-153.5 817.5,-153.5 817.5,-134.5 727.5,-134.5"/>
<text text-anchor="middle" x="772.5" y="-141.5" font-family="Helvetica,sans-Serif" font-size="10.00" fill="#000000">lapack_helpers.h</text>
</a>
</g>
</g>
<!-- Node8&#45;&gt;Node14 -->
<g id="edge18" class="edge">
<title>Node8&#45;&gt;Node14</title>
<path fill="none" stroke="#191970" d="M1033.8959,-196.0254C978.2045,-184.9412 886.1668,-166.623 827.4801,-154.9426"/>
<polygon fill="#191970" stroke="#191970" points="828.134,-151.5042 817.6431,-152.9848 826.7676,-158.3696 828.134,-151.5042"/>
</g>
<!-- Node13&#45;&gt;Node3 -->
<g id="edge16" class="edge">
<title>Node13&#45;&gt;Node3</title>
<path fill="none" stroke="#191970" d="M1384.125,-134.3906C1389.3253,-125.5068 1397.1966,-112.0601 1403.6233,-101.0811"/>
<polygon fill="#191970" stroke="#191970" points="1406.7644,-102.6432 1408.7957,-92.2449 1400.7233,-99.1069 1406.7644,-102.6432"/>
</g>
<!-- Node14&#45;&gt;Node5 -->
<g id="edge24" class="edge">
<title>Node14&#45;&gt;Node5</title>
<path fill="none" stroke="#191970" d="M808.1056,-134.4848C834.1331,-126.7144 869.7567,-114.3495 898.5,-98 917.4455,-87.2236 916.7313,-76.1793 936.5,-67 974.6328,-49.2936 1086.9446,-31.9843 1155.6749,-22.6318"/>
<polygon fill="#191970" stroke="#191970" points="1156.4555,-26.0584 1165.8992,-21.2554 1155.5216,-19.121 1156.4555,-26.0584"/>
</g>
<!-- Node15 -->
<g id="node16" class="node">
<title>Node15</title>
<polygon fill="none" stroke="#bfbfbf" points="373.5,-73 373.5,-92 489.5,-92 489.5,-73 373.5,-73"/>
<text text-anchor="middle" x="431.5" y="-80" font-family="Helvetica,sans-Serif" font-size="10.00" fill="#000000">deal.II/base/numbers.h</text>
</g>
<!-- Node14&#45;&gt;Node15 -->
<g id="edge19" class="edge">
<title>Node14&#45;&gt;Node15</title>
<path fill="none" stroke="#191970" d="M727.2548,-137.2702C672.8026,-128.9713 578.6798,-113.9895 498.5,-98 492.7994,-96.8632 486.8437,-95.5981 480.9361,-94.2947"/>
<polygon fill="#191970" stroke="#191970" points="481.6174,-90.8606 471.0931,-92.0809 480.0814,-97.69 481.6174,-90.8606"/>
</g>
<!-- Node16 -->
<g id="node17" class="node">
<title>Node16</title>
<polygon fill="none" stroke="#bfbfbf" points="507.5,-67.5 507.5,-97.5 635.5,-97.5 635.5,-67.5 507.5,-67.5"/>
<text text-anchor="start" x="515.5" y="-85.5" font-family="Helvetica,sans-Serif" font-size="10.00" fill="#000000">deal.II/lac/blas_extension</text>
<text text-anchor="middle" x="571.5" y="-74.5" font-family="Helvetica,sans-Serif" font-size="10.00" fill="#000000">_templates.h</text>
</g>
<!-- Node14&#45;&gt;Node16 -->
<g id="edge20" class="edge">
<title>Node14&#45;&gt;Node16</title>
<path fill="none" stroke="#191970" d="M741.0938,-134.3906C711.6239,-125.3737 666.7915,-111.6563 630.6221,-100.5896"/>
<polygon fill="#191970" stroke="#191970" points="631.2566,-97.1236 620.6701,-97.5446 629.2085,-103.8173 631.2566,-97.1236"/>
</g>
<!-- Node17 -->
<g id="node18" class="node">
<title>Node17</title>
<polygon fill="none" stroke="#bfbfbf" points="653.5,-73 653.5,-92 779.5,-92 779.5,-73 653.5,-73"/>
<text text-anchor="middle" x="716.5" y="-80" font-family="Helvetica,sans-Serif" font-size="10.00" fill="#000000">deal.II/lac/block_vector.h</text>
</g>
<!-- Node14&#45;&gt;Node17 -->
<g id="edge21" class="edge">
<title>Node14&#45;&gt;Node17</title>
<path fill="none" stroke="#191970" d="M763.75,-134.3906C755.3338,-125.1478 742.4203,-110.966 732.219,-99.7628"/>
<polygon fill="#191970" stroke="#191970" points="734.694,-97.2824 725.3734,-92.2449 729.5182,-101.9953 734.694,-97.2824"/>
</g>
<!-- Node18 -->
<g id="node19" class="node">
<title>Node18</title>
<polygon fill="none" stroke="#bfbfbf" points="945.5,-73 945.5,-92 1061.5,-92 1061.5,-73 945.5,-73"/>
<text text-anchor="middle" x="1003.5" y="-80" font-family="Helvetica,sans-Serif" font-size="10.00" fill="#000000">deal.II/lac/full_matrix.h</text>
</g>
<!-- Node14&#45;&gt;Node18 -->
<g id="edge22" class="edge">
<title>Node14&#45;&gt;Node18</title>
<path fill="none" stroke="#191970" d="M808.3403,-134.4581C848.5485,-123.7533 913.8691,-106.3628 957.7369,-94.6837"/>
<polygon fill="#191970" stroke="#191970" points="958.8127,-98.0193 967.5756,-92.0643 957.0118,-91.2549 958.8127,-98.0193"/>
</g>
<!-- Node19 -->
<g id="node20" class="node">
<title>Node19</title>
<polygon fill="none" stroke="#bfbfbf" points="1080,-67.5 1080,-97.5 1171,-97.5 1171,-67.5 1080,-67.5"/>
<text text-anchor="start" x="1088" y="-85.5" font-family="Helvetica,sans-Serif" font-size="10.00" fill="#000000">deal.II/lac/lapack</text>
<text text-anchor="middle" x="1125.5" y="-74.5" font-family="Helvetica,sans-Serif" font-size="10.00" fill="#000000">_full_matrix.h</text>
</g>
<!-- Node14&#45;&gt;Node19 -->
<g id="edge23" class="edge">
<title>Node14&#45;&gt;Node19</title>
<path fill="none" stroke="#191970" d="M817.746,-138.7547C874.4681,-131.7956 974.802,-118.222 1070.1812,-97.9033"/>
<polygon fill="#191970" stroke="#191970" points="1070.9525,-101.3175 1079.9887,-95.786 1069.4753,-94.4752 1070.9525,-101.3175"/>
</g>
<!-- Node20 -->
<g id="node21" class="node">
<title>Node20</title>
<polygon fill="none" stroke="#bfbfbf" points="1189,-67.5 1189,-97.5 1280,-97.5 1280,-67.5 1189,-67.5"/>
<text text-anchor="start" x="1197" y="-85.5" font-family="Helvetica,sans-Serif" font-size="10.00" fill="#000000">deal.II/lac/lapack</text>
<text text-anchor="middle" x="1234.5" y="-74.5" font-family="Helvetica,sans-Serif" font-size="10.00" fill="#000000">_templates.h</text>
</g>
<!-- Node14&#45;&gt;Node20 -->
<g id="edge25" class="edge">
<title>Node14&#45;&gt;Node20</title>
<path fill="none" stroke="#191970" d="M817.7326,-141.2916C891.4042,-136.3583 1041.9502,-124.1014 1178.4946,-97.9884"/>
<polygon fill="#191970" stroke="#191970" points="1179.5692,-101.3452 1188.718,-96.0019 1178.2339,-94.4737 1179.5692,-101.3452"/>
</g>
<!-- Node21 -->
<g id="node22" class="node">
<title>Node21</title>
<polygon fill="none" stroke="#bfbfbf" points="797.5,-67.5 797.5,-97.5 889.5,-97.5 889.5,-67.5 797.5,-67.5"/>
<text text-anchor="start" x="805.5" y="-85.5" font-family="Helvetica,sans-Serif" font-size="10.00" fill="#000000">deal.II/lac/sparse</text>
<text text-anchor="middle" x="843.5" y="-74.5" font-family="Helvetica,sans-Serif" font-size="10.00" fill="#000000">_matrix.h</text>
</g>
<!-- Node14&#45;&gt;Node21 -->
<g id="edge26" class="edge">
<title>Node14&#45;&gt;Node21</title>
<path fill="none" stroke="#191970" d="M783.5938,-134.3906C792.8468,-126.3756 806.3876,-114.6466 818.2556,-104.3666"/>
<polygon fill="#191970" stroke="#191970" points="820.8643,-106.7374 826.1314,-97.5446 816.2812,-101.4464 820.8643,-106.7374"/>
</g>
<!-- Node22 -->
<g id="node23" class="node">
<title>Node22</title>
<polygon fill="none" stroke="#bfbfbf" points="0,-73 0,-92 101,-92 101,-73 0,-73"/>
<text text-anchor="middle" x="50.5" y="-80" font-family="Helvetica,sans-Serif" font-size="10.00" fill="#000000">deal.II/lac/utilities.h</text>
</g>
<!-- Node14&#45;&gt;Node22 -->
<g id="edge27" class="edge">
<title>Node14&#45;&gt;Node22</title>
<path fill="none" stroke="#191970" d="M727.163,-141.9359C598,-135.8827 229.7597,-117.3795 110.5,-98 104.7174,-97.0603 98.6802,-95.8191 92.7582,-94.4472"/>
<polygon fill="#191970" stroke="#191970" points="93.5121,-91.0284 82.9662,-92.045 91.8443,-97.8268 93.5121,-91.0284"/>
</g>
<!-- Node23 -->
<g id="node24" class="node">
<title>Node23</title>
<polygon fill="none" stroke="#bfbfbf" points="119.5,-73 119.5,-92 217.5,-92 217.5,-73 119.5,-73"/>
<text text-anchor="middle" x="168.5" y="-80" font-family="Helvetica,sans-Serif" font-size="10.00" fill="#000000">deal.II/lac/vector.h</text>
</g>
<!-- Node14&#45;&gt;Node23 -->
<g id="edge28" class="edge">
<title>Node14&#45;&gt;Node23</title>
<path fill="none" stroke="#191970" d="M727.2103,-142.8918C633.2226,-139.9994 410.414,-130.0616 226.5,-98 221.1093,-97.0602 215.4904,-95.8541 209.9635,-94.5302"/>
<polygon fill="#191970" stroke="#191970" points="210.737,-91.1157 200.1836,-92.0524 209.0178,-97.9013 210.737,-91.1157"/>
</g>
<!-- Node24 -->
<g id="node25" class="node">
<title>Node24</title>
<g id="a_node25"><a xlink:href="lapack__templates__ext_8h.html" target="_top" xlink:title="Append more template based LAPACK functions to those existing in deal.ii. ">
<polygon fill="none" stroke="#000000" points="235.5,-73 235.5,-92 355.5,-92 355.5,-73 235.5,-73"/>
<text text-anchor="middle" x="295.5" y="-80" font-family="Helvetica,sans-Serif" font-size="10.00" fill="#000000">lapack_templates_ext.h</text>
</a>
</g>
</g>
<!-- Node14&#45;&gt;Node24 -->
<g id="edge29" class="edge">
<title>Node14&#45;&gt;Node24</title>
<path fill="none" stroke="#191970" d="M727.2984,-140.5201C651.8032,-134.3469 495.4243,-120.0188 364.5,-98 357.9108,-96.8918 351.0048,-95.5543 344.2146,-94.1351"/>
<polygon fill="#191970" stroke="#191970" points="344.9129,-90.7053 334.3992,-92.0145 343.4345,-97.5474 344.9129,-90.7053"/>
</g>
<!-- Node24&#45;&gt;Node5 -->
<g id="edge30" class="edge">
<title>Node24&#45;&gt;Node5</title>
<path fill="none" stroke="#191970" d="M332.9,-72.9527C343.0893,-70.666 354.1673,-68.465 364.5,-67 518.1105,-45.2199 992.3104,-24.4175 1155.583,-17.7275"/>
<polygon fill="#191970" stroke="#191970" points="1156.0322,-21.2122 1165.8812,-17.3074 1155.7468,-14.218 1156.0322,-21.2122"/>
</g>
<!-- Node25&#45;&gt;Node4 -->
<g id="edge32" class="edge">
<title>Node25&#45;&gt;Node4</title>
<path fill="none" stroke="#191970" d="M1287.8687,-265.2899C1334.6105,-261.7652 1426.2408,-251.28 1497.5,-221 1545.0516,-200.794 1555.217,-189.7689 1592.5,-154 1609.5327,-137.659 1625.5737,-115.7759 1635.8869,-100.5407"/>
<polygon fill="#191970" stroke="#191970" points="1638.9242,-102.2932 1641.5257,-92.0227 1633.0872,-98.4292 1638.9242,-102.2932"/>
</g>
<!-- Node25&#45;&gt;Node5 -->
<g id="edge35" class="edge">
<title>Node25&#45;&gt;Node5</title>
<path fill="none" stroke="#191970" d="M1287.5287,-264.6762C1406.7293,-254.4226 1834.0145,-207.3307 1707.5,-67 1678.4266,-34.7516 1390.3341,-21.4199 1267.0284,-17.1605"/>
<polygon fill="#191970" stroke="#191970" points="1267.1418,-13.6624 1257.0292,-16.8225 1266.9053,-20.6584 1267.1418,-13.6624"/>
</g>
<!-- Node25&#45;&gt;Node6 -->
<g id="edge38" class="edge">
<title>Node25&#45;&gt;Node6</title>
<path fill="none" stroke="#191970" d="M1260.5367,-257.3402C1269.698,-228.1978 1297.1844,-140.7626 1309.4617,-101.708"/>
<polygon fill="#191970" stroke="#191970" points="1312.8333,-102.6535 1312.4934,-92.0641 1306.1555,-100.5542 1312.8333,-102.6535"/>
</g>
<!-- Node25&#45;&gt;Node7 -->
<g id="edge39" class="edge">
<title>Node25&#45;&gt;Node7</title>
<path fill="none" stroke="#191970" d="M1287.5318,-260.8937C1360.0101,-245.4856 1541.0774,-202.7632 1575.5,-154 1586.7036,-138.1289 1577.7827,-116.1624 1568.5502,-100.7792"/>
<polygon fill="#191970" stroke="#191970" points="1571.3296,-98.6334 1562.9386,-92.1649 1565.4644,-102.4543 1571.3296,-98.6334"/>
</g>
<!-- Node25&#45;&gt;Node8 -->
<g id="edge40" class="edge">
<title>Node25&#45;&gt;Node8</title>
<path fill="none" stroke="#191970" d="M1230,-257.3906C1204.4161,-248.4508 1165.6094,-234.8905 1134.0823,-223.8739"/>
<polygon fill="#191970" stroke="#191970" points="1135.1493,-220.5393 1124.5544,-220.5446 1132.8401,-227.1475 1135.1493,-220.5393"/>
</g>
<!-- Node25&#45;&gt;Node18 -->
<g id="edge33" class="edge">
<title>Node25&#45;&gt;Node18</title>
<path fill="none" stroke="#191970" d="M1227.1621,-262.3703C1172.8364,-253.8556 1061.1978,-235.2759 1024.5,-221 971.1508,-200.2466 942.5379,-203.9071 914.5,-154 899.9149,-128.0388 933.1028,-107.9233 963.0135,-95.7338"/>
<polygon fill="#191970" stroke="#191970" points="964.4745,-98.9217 972.5448,-92.0573 961.9553,-92.3907 964.4745,-98.9217"/>
</g>
<!-- Node25&#45;&gt;Node19 -->
<g id="edge34" class="edge">
<title>Node25&#45;&gt;Node19</title>
<path fill="none" stroke="#191970" d="M1250.5956,-257.3145C1234.9426,-235.3609 1195.5496,-180.1352 1162.5,-134 1155.9605,-124.8712 1148.7583,-114.8412 1142.4597,-106.0773"/>
<polygon fill="#191970" stroke="#191970" points="1145.1994,-103.8922 1136.5202,-97.8157 1139.5157,-107.9783 1145.1994,-103.8922"/>
</g>
<!-- Node25&#45;&gt;Node20 -->
<g id="edge36" class="edge">
<title>Node25&#45;&gt;Node20</title>
<path fill="none" stroke="#191970" d="M1256.2958,-257.3402C1252.8425,-229.6387 1242.8232,-149.2663 1237.6593,-107.8429"/>
<polygon fill="#191970" stroke="#191970" points="1241.1096,-107.2265 1236.3994,-97.7363 1234.1634,-108.0925 1241.1096,-107.2265"/>
</g>
<!-- Node26 -->
<g id="node27" class="node">
<title>Node26</title>
<polygon fill="none" stroke="#bfbfbf" points="1147.5,-196 1147.5,-215 1191.5,-215 1191.5,-196 1147.5,-196"/>
<text text-anchor="middle" x="1169.5" y="-203" font-family="Helvetica,sans-Serif" font-size="10.00" fill="#000000">cmath</text>
</g>
<!-- Node25&#45;&gt;Node26 -->
<g id="edge37" class="edge">
<title>Node25&#45;&gt;Node26</title>
<path fill="none" stroke="#191970" d="M1243.75,-257.3906C1229.8009,-247.6421 1207.9902,-232.3994 1191.6103,-220.9521"/>
<polygon fill="#191970" stroke="#191970" points="1193.3551,-217.9015 1183.1534,-215.0419 1189.3452,-223.6392 1193.3551,-217.9015"/>
</g>
</g>
</svg>
        <g id="navigator" transform="translate(0 0)" fill="#404254">
                <rect fill="#f2f5e9" fill-opacity="0.5" stroke="#606060" stroke-width=".5" x="0" y="0" width="60" height="60"/>
                <use id="zoomplus" xlink:href="#zoomPlus" x="17" y="9" onmousedown="handleZoom(evt,'in')"/>
                <use id="zoomminus" xlink:href="#zoomMin" x="42" y="9" onmousedown="handleZoom(evt,'out')"/>
                <use id="reset" xlink:href="#resetDef" x="30" y="36" onmousedown="handleReset()"/>
                <g id="arrowUp" xlink:href="#dirArrow" transform="translate(30 24)" onmousedown="handlePan(0,-1)">
                  <use xlink:href="#rim" fill="#404040">
                        <set attributeName="fill" to="#808080" begin="arrowUp.mouseover" end="arrowUp.mouseout"/>
                  </use>
                  <path fill="none" stroke="white" stroke-width="1.5" d="M0,-3.0v7 M-2.5,-0.5L0,-3.0L2.5,-0.5"/>
                </g>
                <g id="arrowRight" xlink:href="#dirArrow" transform="rotate(90) translate(36 -43)" onmousedown="handlePan(1,0)">
                  <use xlink:href="#rim" fill="#404040">
                        <set attributeName="fill" to="#808080" begin="arrowRight.mouseover" end="arrowRight.mouseout"/>
                  </use>
                  <path fill="none" stroke="white" stroke-width="1.5" d="M0,-3.0v7 M-2.5,-0.5L0,-3.0L2.5,-0.5"/>
                </g>
                <g id="arrowDown" xlink:href="#dirArrow" transform="rotate(180) translate(-30 -48)" onmousedown="handlePan(0,1)">
                  <use xlink:href="#rim" fill="#404040">
                        <set attributeName="fill" to="#808080" begin="arrowDown.mouseover" end="arrowDown.mouseout"/>
                  </use>
                  <path fill="none" stroke="white" stroke-width="1.5" d="M0,-3.0v7 M-2.5,-0.5L0,-3.0L2.5,-0.5"/>
                </g>
                <g id="arrowLeft" xlink:href="#dirArrow" transform="rotate(270) translate(-36 17)" onmousedown="handlePan(-1,0)">
                  <use xlink:href="#rim" fill="#404040">
                        <set attributeName="fill" to="#808080" begin="arrowLeft.mouseover" end="arrowLeft.mouseout"/>
                  </use>
                  <path fill="none" stroke="white" stroke-width="1.5" d="M0,-3.0v7 M-2.5,-0.5L0,-3.0L2.5,-0.5"/>
                </g>
        </g>
        <svg viewBox="0 0 15 15" width="100%" height="30px" preserveAspectRatio="xMaxYMin meet">
         <g id="arrow_out" transform="scale(0.3 0.3)">
          <a xlink:href="rkmatrix-agglomeration-of-two-submatrices-interwoven-indices_8cc__incl_org.svg" target="_base">
           <rect id="button" ry="5" rx="5" y="6" x="6" height="38" width="38"
                fill="#f2f5e9" fill-opacity="0.5" stroke="#606060" stroke-width="1.0"/>
           <path id="arrow"
             d="M 11.500037,31.436501 C 11.940474,20.09759 22.043105,11.32322 32.158766,21.979434 L 37.068811,17.246167 C 37.068811,17.246167 37.088388,32 37.088388,32 L 22.160133,31.978069 C 22.160133,31.978069 26.997745,27.140456 26.997745,27.140456 C 18.528582,18.264221 13.291696,25.230495 11.500037,31.436501 z"
             style="fill:#404040;"/>
          </a>
         </g>
        </svg>
</svg>
