<?xml version="1.0" encoding="UTF-8" standalone="no"?>
<!DOCTYPE svg PUBLIC "-//W3C//DTD SVG 1.1//EN"
 "http://www.w3.org/Graphics/SVG/1.1/DTD/svg11.dtd">
<!-- Generated by graphviz version 2.40.1 (20161225.0304)
 -->
<!-- Title: /home/jihuan/Projects/deal.ii/program/dealii&#45;9.1.1/examples/laplace&#45;bem/tests/rkmatrix&#45;add&#45;formatted&#45;using&#45;qr/rkmatrix&#45;add&#45;formatted&#45;using&#45;qr.cc Pages: 1 -->
<svg width="1449pt" height="329pt"
 viewBox="0.00 0.00 1448.50 329.00" xmlns="http://www.w3.org/2000/svg" xmlns:xlink="http://www.w3.org/1999/xlink">
<g id="graph0" class="graph" transform="scale(1 1) rotate(0) translate(4 325)">
<title>/home/jihuan/Projects/deal.ii/program/dealii&#45;9.1.1/examples/laplace&#45;bem/tests/rkmatrix&#45;add&#45;formatted&#45;using&#45;qr/rkmatrix&#45;add&#45;formatted&#45;using&#45;qr.cc</title>
<!-- Node0 -->
<g id="node1" class="node">
<title>Node0</title>
<polygon fill="#bfbfbf" stroke="#000000" points="66.5,-246.5 66.5,-320.5 203.5,-320.5 203.5,-246.5 66.5,-246.5"/>
<text text-anchor="start" x="74.5" y="-308.5" font-family="Helvetica,sans-Serif" font-size="10.00" fill="#000000">/home/jihuan/Projects</text>
<text text-anchor="start" x="74.5" y="-297.5" font-family="Helvetica,sans-Serif" font-size="10.00" fill="#000000">/deal.ii/program/dealii</text>
<text text-anchor="start" x="74.5" y="-286.5" font-family="Helvetica,sans-Serif" font-size="10.00" fill="#000000">&#45;9.1.1/examples/laplace</text>
<text text-anchor="start" x="74.5" y="-275.5" font-family="Helvetica,sans-Serif" font-size="10.00" fill="#000000">&#45;bem/tests/rkmatrix&#45;add</text>
<text text-anchor="start" x="74.5" y="-264.5" font-family="Helvetica,sans-Serif" font-size="10.00" fill="#000000">&#45;formatted&#45;using&#45;qr/rkmatrix</text>
<text text-anchor="middle" x="135" y="-253.5" font-family="Helvetica,sans-Serif" font-size="10.00" fill="#000000">&#45;add&#45;formatted&#45;using&#45;qr.cc</text>
</g>
<!-- Node1 -->
<g id="node2" class="node">
<title>Node1</title>
<polygon fill="none" stroke="#bfbfbf" points="0,-129 0,-148 54,-148 54,-129 0,-129"/>
<text text-anchor="middle" x="27" y="-136" font-family="Helvetica,sans-Serif" font-size="10.00" fill="#000000">iostream</text>
</g>
<!-- Node0&#45;&gt;Node1 -->
<g id="edge1" class="edge">
<title>Node0&#45;&gt;Node1</title>
<path fill="none" stroke="#191970" d="M107.1873,-246.1589C85.6544,-217.2489 56.7913,-178.4975 40.2135,-156.2403"/>
<polygon fill="#191970" stroke="#191970" points="42.8927,-153.9781 34.1123,-148.0489 37.2788,-158.1595 42.8927,-153.9781"/>
</g>
<!-- Node2 -->
<g id="node3" class="node">
<title>Node2</title>
<polygon fill="none" stroke="#bfbfbf" points="72.5,-129 72.5,-148 113.5,-148 113.5,-129 72.5,-129"/>
<text text-anchor="middle" x="93" y="-136" font-family="Helvetica,sans-Serif" font-size="10.00" fill="#000000">string</text>
</g>
<!-- Node0&#45;&gt;Node2 -->
<g id="edge2" class="edge">
<title>Node0&#45;&gt;Node2</title>
<path fill="none" stroke="#191970" d="M124.184,-246.1589C115.9961,-217.8914 105.083,-180.215 98.5754,-157.7483"/>
<polygon fill="#191970" stroke="#191970" points="101.91,-156.6803 95.7659,-148.0489 95.1863,-158.6279 101.91,-156.6803"/>
</g>
<!-- Node3 -->
<g id="node4" class="node">
<title>Node3</title>
<g id="a_node4"><a xlink:href="debug__tools_8h.html" target="_top" xlink:title="This file includes a bunch of helper functions for printing out and visualizing information about gri...">
<polygon fill="none" stroke="#000000" points="185.5,-190.5 185.5,-209.5 262.5,-209.5 262.5,-190.5 185.5,-190.5"/>
<text text-anchor="middle" x="224" y="-197.5" font-family="Helvetica,sans-Serif" font-size="10.00" fill="#000000">debug_tools.h</text>
</a>
</g>
</g>
<!-- Node0&#45;&gt;Node3 -->
<g id="edge3" class="edge">
<title>Node0&#45;&gt;Node3</title>
<path fill="none" stroke="#191970" d="M174.555,-246.3894C185.6144,-236.0135 197.0862,-225.2506 206.1927,-216.7069"/>
<polygon fill="#191970" stroke="#191970" points="208.6184,-219.2303 213.5165,-209.8356 203.8289,-214.1253 208.6184,-219.2303"/>
</g>
<!-- Node9 -->
<g id="node10" class="node">
<title>Node9</title>
<g id="a_node10"><a xlink:href="rkmatrix_8h.html" target="_top" xlink:title="Definition of rank&#45;k matrix. ">
<polygon fill="none" stroke="#000000" points="983,-190.5 983,-209.5 1043,-209.5 1043,-190.5 983,-190.5"/>
<text text-anchor="middle" x="1013" y="-197.5" font-family="Helvetica,sans-Serif" font-size="10.00" fill="#000000">rkmatrix.h</text>
</a>
</g>
</g>
<!-- Node0&#45;&gt;Node9 -->
<g id="edge11" class="edge">
<title>Node0&#45;&gt;Node9</title>
<path fill="none" stroke="#191970" d="M203.5295,-276.9827C377.7783,-260.4112 833.7629,-217.0459 972.4194,-203.8593"/>
<polygon fill="#191970" stroke="#191970" points="972.9759,-207.3223 982.5996,-202.8912 972.3131,-200.3537 972.9759,-207.3223"/>
</g>
<!-- Node3&#45;&gt;Node1 -->
<g id="edge9" class="edge">
<title>Node3&#45;&gt;Node1</title>
<path fill="none" stroke="#191970" d="M185.5036,-190.4868C152.6102,-182.0064 104.2101,-168.6904 63,-154 61.1733,-153.3488 59.3071,-152.6505 57.4329,-151.9236"/>
<polygon fill="#191970" stroke="#191970" points="58.7219,-148.6695 48.1404,-148.1373 56.0805,-155.1521 58.7219,-148.6695"/>
</g>
<!-- Node3&#45;&gt;Node2 -->
<g id="edge10" class="edge">
<title>Node3&#45;&gt;Node2</title>
<path fill="none" stroke="#191970" d="M202.1827,-190.4377C181.6281,-181.3407 150.0374,-167.1317 123,-154 122.1694,-153.5966 121.3275,-153.1842 120.4788,-152.7654"/>
<polygon fill="#191970" stroke="#191970" points="121.8364,-149.5302 111.3314,-148.1535 118.685,-155.7807 121.8364,-149.5302"/>
</g>
<!-- Node4 -->
<g id="node5" class="node">
<title>Node4</title>
<polygon fill="none" stroke="#bfbfbf" points="475.5,-129 475.5,-148 602.5,-148 602.5,-129 475.5,-129"/>
<text text-anchor="middle" x="539" y="-136" font-family="Helvetica,sans-Serif" font-size="10.00" fill="#000000">deal.II/dofs/dof_handler.h</text>
</g>
<!-- Node3&#45;&gt;Node4 -->
<g id="edge4" class="edge">
<title>Node3&#45;&gt;Node4</title>
<path fill="none" stroke="#191970" d="M262.6095,-192.9242C310.4148,-184.1025 394.3063,-168.4235 466,-154 472.0849,-152.7758 478.4488,-151.467 484.7742,-150.1482"/>
<polygon fill="#191970" stroke="#191970" points="485.569,-153.5577 494.6368,-148.078 484.131,-146.7069 485.569,-153.5577"/>
</g>
<!-- Node5 -->
<g id="node6" class="node">
<title>Node5</title>
<polygon fill="none" stroke="#bfbfbf" points="621,-129 621,-148 737,-148 737,-129 621,-129"/>
<text text-anchor="middle" x="679" y="-136" font-family="Helvetica,sans-Serif" font-size="10.00" fill="#000000">deal.II/dofs/dof_tools.h</text>
</g>
<!-- Node3&#45;&gt;Node5 -->
<g id="edge5" class="edge">
<title>Node3&#45;&gt;Node5</title>
<path fill="none" stroke="#191970" d="M262.6459,-196.7714C332.5071,-190.6322 484.3247,-175.9025 611,-154 617.2639,-152.9169 623.8186,-151.6262 630.2812,-150.2586"/>
<polygon fill="#191970" stroke="#191970" points="631.2855,-153.6217 640.3061,-148.0649 629.789,-146.7835 631.2855,-153.6217"/>
</g>
<!-- Node6 -->
<g id="node7" class="node">
<title>Node6</title>
<polygon fill="none" stroke="#bfbfbf" points="132,-129 132,-148 206,-148 206,-129 132,-129"/>
<text text-anchor="middle" x="169" y="-136" font-family="Helvetica,sans-Serif" font-size="10.00" fill="#000000">deal.II/fe/fe.h</text>
</g>
<!-- Node3&#45;&gt;Node6 -->
<g id="edge6" class="edge">
<title>Node3&#45;&gt;Node6</title>
<path fill="none" stroke="#191970" d="M215.4063,-190.3906C207.1403,-181.1478 194.4574,-166.966 184.4383,-155.7628"/>
<polygon fill="#191970" stroke="#191970" points="186.99,-153.3657 177.7149,-148.2449 181.7722,-158.0321 186.99,-153.3657"/>
</g>
<!-- Node7 -->
<g id="node8" class="node">
<title>Node7</title>
<polygon fill="none" stroke="#bfbfbf" points="224,-129 224,-148 336,-148 336,-129 224,-129"/>
<text text-anchor="middle" x="280" y="-136" font-family="Helvetica,sans-Serif" font-size="10.00" fill="#000000">deal.II/fe/fe_system.h</text>
</g>
<!-- Node3&#45;&gt;Node7 -->
<g id="edge7" class="edge">
<title>Node3&#45;&gt;Node7</title>
<path fill="none" stroke="#191970" d="M232.75,-190.3906C241.1662,-181.1478 254.0797,-166.966 264.281,-155.7628"/>
<polygon fill="#191970" stroke="#191970" points="266.9818,-157.9953 271.1266,-148.2449 261.806,-153.2824 266.9818,-157.9953"/>
</g>
<!-- Node8 -->
<g id="node9" class="node">
<title>Node8</title>
<polygon fill="none" stroke="#bfbfbf" points="354.5,-129 354.5,-148 457.5,-148 457.5,-129 354.5,-129"/>
<text text-anchor="middle" x="406" y="-136" font-family="Helvetica,sans-Serif" font-size="10.00" fill="#000000">deal.II/fe/mapping.h</text>
</g>
<!-- Node3&#45;&gt;Node8 -->
<g id="edge8" class="edge">
<title>Node3&#45;&gt;Node8</title>
<path fill="none" stroke="#191970" d="M252.4375,-190.3906C283.5572,-179.8749 333.5964,-162.966 368.0485,-151.3243"/>
<polygon fill="#191970" stroke="#191970" points="369.4089,-154.5591 377.7622,-148.0419 367.168,-147.9274 369.4089,-154.5591"/>
</g>
<!-- Node10 -->
<g id="node11" class="node">
<title>Node10</title>
<polygon fill="none" stroke="#bfbfbf" points="1007.5,-129 1007.5,-148 1110.5,-148 1110.5,-129 1007.5,-129"/>
<text text-anchor="middle" x="1059" y="-136" font-family="Helvetica,sans-Serif" font-size="10.00" fill="#000000">deal.II/base/types.h</text>
</g>
<!-- Node9&#45;&gt;Node10 -->
<g id="edge12" class="edge">
<title>Node9&#45;&gt;Node10</title>
<path fill="none" stroke="#191970" d="M1020.1875,-190.3906C1026.9666,-181.3273 1037.2978,-167.5149 1045.5973,-156.4188"/>
<polygon fill="#191970" stroke="#191970" points="1048.5243,-158.349 1051.7112,-148.2449 1042.9188,-154.1563 1048.5243,-158.349"/>
</g>
<!-- Node11 -->
<g id="node12" class="node">
<title>Node11</title>
<polygon fill="none" stroke="#bfbfbf" points="997,-6 997,-25 1113,-25 1113,-6 997,-6"/>
<text text-anchor="middle" x="1055" y="-13" font-family="Helvetica,sans-Serif" font-size="10.00" fill="#000000">deal.II/lac/full_matrix.h</text>
</g>
<!-- Node9&#45;&gt;Node11 -->
<g id="edge13" class="edge">
<title>Node9&#45;&gt;Node11</title>
<path fill="none" stroke="#191970" d="M1043.2596,-196.1017C1068.5432,-191.0722 1103.0952,-179.6682 1120,-154 1146.9925,-113.0145 1101.165,-59.0466 1073.5695,-32.1846"/>
<polygon fill="#191970" stroke="#191970" points="1075.6938,-29.377 1066.018,-25.0607 1070.8902,-34.4688 1075.6938,-29.377"/>
</g>
<!-- Node12 -->
<g id="node13" class="node">
<title>Node12</title>
<polygon fill="none" stroke="#bfbfbf" points="1131.5,-.5 1131.5,-30.5 1222.5,-30.5 1222.5,-.5 1131.5,-.5"/>
<text text-anchor="start" x="1139.5" y="-18.5" font-family="Helvetica,sans-Serif" font-size="10.00" fill="#000000">deal.II/lac/lapack</text>
<text text-anchor="middle" x="1177" y="-7.5" font-family="Helvetica,sans-Serif" font-size="10.00" fill="#000000">_full_matrix.h</text>
</g>
<!-- Node9&#45;&gt;Node12 -->
<g id="edge14" class="edge">
<title>Node9&#45;&gt;Node12</title>
<path fill="none" stroke="#191970" d="M1043.024,-196.7309C1071.3927,-192.0598 1113.1938,-180.8244 1138,-154 1167.0021,-122.6383 1174.6603,-71.3776 1176.5485,-40.7948"/>
<polygon fill="#191970" stroke="#191970" points="1180.0569,-40.686 1177.012,-30.5382 1173.064,-40.37 1180.0569,-40.686"/>
</g>
<!-- Node13 -->
<g id="node14" class="node">
<title>Node13</title>
<polygon fill="none" stroke="#bfbfbf" points="1240.5,-.5 1240.5,-30.5 1331.5,-30.5 1331.5,-.5 1240.5,-.5"/>
<text text-anchor="start" x="1248.5" y="-18.5" font-family="Helvetica,sans-Serif" font-size="10.00" fill="#000000">deal.II/lac/lapack</text>
<text text-anchor="middle" x="1286" y="-7.5" font-family="Helvetica,sans-Serif" font-size="10.00" fill="#000000">_support.h</text>
</g>
<!-- Node9&#45;&gt;Node13 -->
<g id="edge15" class="edge">
<title>Node9&#45;&gt;Node13</title>
<path fill="none" stroke="#191970" d="M1043.0654,-195.5008C1074.4596,-189.7421 1124.1646,-177.5567 1161,-154 1208.6846,-123.5052 1249.5143,-70.1066 1270.6283,-39.2828"/>
<polygon fill="#191970" stroke="#191970" points="1273.6173,-41.1101 1276.2922,-30.8584 1267.8081,-37.2044 1273.6173,-41.1101"/>
</g>
<!-- Node14 -->
<g id="node15" class="node">
<title>Node14</title>
<polygon fill="none" stroke="#bfbfbf" points="1349.5,-.5 1349.5,-30.5 1440.5,-30.5 1440.5,-.5 1349.5,-.5"/>
<text text-anchor="start" x="1357.5" y="-18.5" font-family="Helvetica,sans-Serif" font-size="10.00" fill="#000000">deal.II/lac/lapack</text>
<text text-anchor="middle" x="1395" y="-7.5" font-family="Helvetica,sans-Serif" font-size="10.00" fill="#000000">_templates.h</text>
</g>
<!-- Node9&#45;&gt;Node14 -->
<g id="edge16" class="edge">
<title>Node9&#45;&gt;Node14</title>
<path fill="none" stroke="#191970" d="M1043.0619,-195.6323C1079.6994,-189.5712 1142.9126,-176.7057 1193,-154 1262.3086,-122.5809 1333.4329,-67.4038 1369.9621,-37.0412"/>
<polygon fill="#191970" stroke="#191970" points="1372.2294,-39.7077 1377.6408,-30.5991 1367.7303,-34.345 1372.2294,-39.7077"/>
</g>
<!-- Node15 -->
<g id="node16" class="node">
<title>Node15</title>
<polygon fill="none" stroke="#bfbfbf" points="945,-129 945,-148 989,-148 989,-129 945,-129"/>
<text text-anchor="middle" x="967" y="-136" font-family="Helvetica,sans-Serif" font-size="10.00" fill="#000000">cmath</text>
</g>
<!-- Node9&#45;&gt;Node15 -->
<g id="edge17" class="edge">
<title>Node9&#45;&gt;Node15</title>
<path fill="none" stroke="#191970" d="M1005.8125,-190.3906C999.0334,-181.3273 988.7022,-167.5149 980.4027,-156.4188"/>
<polygon fill="#191970" stroke="#191970" points="983.0812,-154.1563 974.2888,-148.2449 977.4757,-158.349 983.0812,-154.1563"/>
</g>
<!-- Node16 -->
<g id="node17" class="node">
<title>Node16</title>
<polygon fill="none" stroke="#bfbfbf" points="601.5,-67.5 601.5,-86.5 636.5,-86.5 636.5,-67.5 601.5,-67.5"/>
<text text-anchor="middle" x="619" y="-74.5" font-family="Helvetica,sans-Serif" font-size="10.00" fill="#000000">map</text>
</g>
<!-- Node9&#45;&gt;Node16 -->
<g id="edge18" class="edge">
<title>Node9&#45;&gt;Node16</title>
<path fill="none" stroke="#191970" d="M982.64,-198.5403C937.3624,-195.3624 850.3669,-185.3469 784,-154 764.2919,-144.6913 764.9696,-133.7338 746,-123 707.4579,-101.1913 692.2894,-102.8743 646.3289,-87.0056"/>
<polygon fill="#191970" stroke="#191970" points="647.3049,-83.638 636.7102,-83.5857 644.9599,-90.2336 647.3049,-83.638"/>
</g>
<!-- Node17 -->
<g id="node18" class="node">
<title>Node17</title>
<polygon fill="none" stroke="#bfbfbf" points="949,-67.5 949,-86.5 993,-86.5 993,-67.5 949,-67.5"/>
<text text-anchor="middle" x="971" y="-74.5" font-family="Helvetica,sans-Serif" font-size="10.00" fill="#000000">vector</text>
</g>
<!-- Node9&#45;&gt;Node17 -->
<g id="edge19" class="edge">
<title>Node9&#45;&gt;Node17</title>
<path fill="none" stroke="#191970" d="M983.0542,-190.4983C965.9946,-183.3713 946.0676,-171.7417 936,-154 924.7681,-134.2065 939.9641,-110.1573 953.7054,-94.26"/>
<polygon fill="#191970" stroke="#191970" points="956.4151,-96.4842 960.6109,-86.7555 951.2641,-91.7442 956.4151,-96.4842"/>
</g>
<!-- Node18 -->
<g id="node19" class="node">
<title>Node18</title>
<g id="a_node19"><a xlink:href="lapack__full__matrix__ext_8h_source.html" target="_top" xlink:title="lapack_full_matrix\l_ext.h">
<polygon fill="none" stroke="#000000" points="793.5,-123.5 793.5,-153.5 888.5,-153.5 888.5,-123.5 793.5,-123.5"/>
<text text-anchor="start" x="801.5" y="-141.5" font-family="Helvetica,sans-Serif" font-size="10.00" fill="#000000">lapack_full_matrix</text>
<text text-anchor="middle" x="841" y="-130.5" font-family="Helvetica,sans-Serif" font-size="10.00" fill="#000000">_ext.h</text>
</a>
</g>
</g>
<!-- Node9&#45;&gt;Node18 -->
<g id="edge20" class="edge">
<title>Node9&#45;&gt;Node18</title>
<path fill="none" stroke="#191970" d="M986.125,-190.3906C961.2304,-181.4893 923.5245,-168.0073 892.7861,-157.0165"/>
<polygon fill="#191970" stroke="#191970" points="893.6705,-153.6158 883.0759,-153.5446 891.3137,-160.2072 893.6705,-153.6158"/>
</g>
<!-- Node18&#45;&gt;Node16 -->
<g id="edge22" class="edge">
<title>Node18&#45;&gt;Node16</title>
<path fill="none" stroke="#191970" d="M793.2656,-126.4568C748.7969,-115.1446 684.8011,-98.6066 646.31,-86.8414"/>
<polygon fill="#191970" stroke="#191970" points="647.2233,-83.4599 636.6342,-83.8088 645.1297,-90.1395 647.2233,-83.4599"/>
</g>
<!-- Node18&#45;&gt;Node17 -->
<g id="edge23" class="edge">
<title>Node18&#45;&gt;Node17</title>
<path fill="none" stroke="#191970" d="M872.8016,-123.4554C893.8265,-113.509 921.1859,-100.5659 941.6843,-90.8686"/>
<polygon fill="#191970" stroke="#191970" points="943.3119,-93.9706 950.8546,-86.5303 940.3184,-87.6429 943.3119,-93.9706"/>
</g>
<!-- Node19 -->
<g id="node20" class="node">
<title>Node19</title>
<polygon fill="none" stroke="#bfbfbf" points="655,-67.5 655,-86.5 695,-86.5 695,-67.5 655,-67.5"/>
<text text-anchor="middle" x="675" y="-74.5" font-family="Helvetica,sans-Serif" font-size="10.00" fill="#000000">limits</text>
</g>
<!-- Node18&#45;&gt;Node19 -->
<g id="edge21" class="edge">
<title>Node18&#45;&gt;Node19</title>
<path fill="none" stroke="#191970" d="M800.3918,-123.4554C770.7731,-112.4822 731.3093,-97.8616 704.6262,-87.976"/>
<polygon fill="#191970" stroke="#191970" points="705.6656,-84.6286 695.0725,-84.4365 703.2337,-91.1926 705.6656,-84.6286"/>
</g>
<!-- Node20 -->
<g id="node21" class="node">
<title>Node20</title>
<g id="a_node21"><a xlink:href="general__exceptions_8h.html" target="_top" xlink:title="Definition of self&#45;defined general exceptions. ">
<polygon fill="none" stroke="#000000" points="713.5,-67.5 713.5,-86.5 822.5,-86.5 822.5,-67.5 713.5,-67.5"/>
<text text-anchor="middle" x="768" y="-74.5" font-family="Helvetica,sans-Serif" font-size="10.00" fill="#000000">general_exceptions.h</text>
</a>
</g>
</g>
<!-- Node18&#45;&gt;Node20 -->
<g id="edge24" class="edge">
<title>Node18&#45;&gt;Node20</title>
<path fill="none" stroke="#191970" d="M822.9551,-123.2977C812.1886,-114.2274 798.5149,-102.7077 787.5005,-93.4285"/>
<polygon fill="#191970" stroke="#191970" points="789.5911,-90.6132 779.6882,-86.8469 785.0809,-95.9667 789.5911,-90.6132"/>
</g>
<!-- Node22 -->
<g id="node23" class="node">
<title>Node22</title>
<g id="a_node23"><a xlink:href="lapack__helpers_8h.html" target="_top" xlink:title="Exposes LAPACK helper functions defined in lapack_full_matrix.cc and define new ones by following the...">
<polygon fill="none" stroke="#000000" points="841,-67.5 841,-86.5 931,-86.5 931,-67.5 841,-67.5"/>
<text text-anchor="middle" x="886" y="-74.5" font-family="Helvetica,sans-Serif" font-size="10.00" fill="#000000">lapack_helpers.h</text>
</a>
</g>
</g>
<!-- Node18&#45;&gt;Node22 -->
<g id="edge26" class="edge">
<title>Node18&#45;&gt;Node22</title>
<path fill="none" stroke="#191970" d="M852.1236,-123.2977C858.3701,-114.7609 866.204,-104.0545 872.7647,-95.0883"/>
<polygon fill="#191970" stroke="#191970" points="875.7144,-96.984 878.7949,-86.8469 870.0652,-92.8505 875.7144,-96.984"/>
</g>
<!-- Node21 -->
<g id="node22" class="node">
<title>Node21</title>
<polygon fill="none" stroke="#bfbfbf" points="83,-6 83,-25 209,-25 209,-6 83,-6"/>
<text text-anchor="middle" x="146" y="-13" font-family="Helvetica,sans-Serif" font-size="10.00" fill="#000000">deal.II/base/exceptions.h</text>
</g>
<!-- Node20&#45;&gt;Node21 -->
<g id="edge25" class="edge">
<title>Node20&#45;&gt;Node21</title>
<path fill="none" stroke="#191970" d="M713.2269,-68.1428C710.1087,-67.7317 707.0165,-67.3468 704,-67 488.8257,-42.2613 432.3813,-61.8651 218,-31 210.6082,-29.9358 202.8415,-28.5504 195.2557,-27.0457"/>
<polygon fill="#191970" stroke="#191970" points="195.9359,-23.6124 185.4344,-25.0159 194.5191,-30.4675 195.9359,-23.6124"/>
</g>
<!-- Node22&#45;&gt;Node11 -->
<g id="edge30" class="edge">
<title>Node22&#45;&gt;Node11</title>
<path fill="none" stroke="#191970" d="M912.4063,-67.3906C941.1791,-56.92 987.3696,-40.1111 1019.3466,-28.4745"/>
<polygon fill="#191970" stroke="#191970" points="1020.579,-31.7506 1028.7792,-25.0419 1018.1851,-25.1726 1020.579,-31.7506"/>
</g>
<!-- Node22&#45;&gt;Node12 -->
<g id="edge31" class="edge">
<title>Node22&#45;&gt;Node12</title>
<path fill="none" stroke="#191970" d="M931.2177,-68.3943C988.5445,-57.4551 1083.6454,-39.2028 1121.6131,-30.8883"/>
<polygon fill="#191970" stroke="#191970" points="1122.4839,-34.2797 1131.4568,-28.6461 1120.9292,-27.4545 1122.4839,-34.2797"/>
</g>
<!-- Node22&#45;&gt;Node13 -->
<g id="edge32" class="edge">
<title>Node22&#45;&gt;Node13</title>
<path fill="none" stroke="#191970" d="M931.0466,-68.4475C934.0733,-67.9379 937.0788,-67.4501 940,-67 1066.0799,-47.5721 1102.1269,-56.6464 1230.6351,-31.0996"/>
<polygon fill="#191970" stroke="#191970" points="1231.3501,-34.526 1240.4594,-29.1157 1229.9644,-27.6645 1231.3501,-34.526"/>
</g>
<!-- Node22&#45;&gt;Node14 -->
<g id="edge33" class="edge">
<title>Node22&#45;&gt;Node14</title>
<path fill="none" stroke="#191970" d="M931.0303,-68.3353C934.0609,-67.8527 937.0718,-67.4017 940,-67 1114.0761,-43.1213 1163.3288,-63.083 1339.6194,-31.0459"/>
<polygon fill="#191970" stroke="#191970" points="1340.2828,-34.4826 1349.4806,-29.2242 1339.0111,-27.5991 1340.2828,-34.4826"/>
</g>
<!-- Node23 -->
<g id="node24" class="node">
<title>Node23</title>
<polygon fill="none" stroke="#bfbfbf" points="227,-6 227,-25 343,-25 343,-6 227,-6"/>
<text text-anchor="middle" x="285" y="-13" font-family="Helvetica,sans-Serif" font-size="10.00" fill="#000000">deal.II/base/numbers.h</text>
</g>
<!-- Node22&#45;&gt;Node23 -->
<g id="edge27" class="edge">
<title>Node22&#45;&gt;Node23</title>
<path fill="none" stroke="#191970" d="M840.9764,-68.2854C837.9442,-67.8149 834.9311,-67.3802 832,-67 619.8447,-39.4823 563.4949,-63.2027 352,-31 345.3386,-29.9857 338.358,-28.6653 331.5227,-27.2231"/>
<polygon fill="#191970" stroke="#191970" points="332.186,-23.7853 321.6662,-25.0443 330.675,-30.6203 332.186,-23.7853"/>
</g>
<!-- Node24 -->
<g id="node25" class="node">
<title>Node24</title>
<polygon fill="none" stroke="#bfbfbf" points="361,-.5 361,-30.5 489,-30.5 489,-.5 361,-.5"/>
<text text-anchor="start" x="369" y="-18.5" font-family="Helvetica,sans-Serif" font-size="10.00" fill="#000000">deal.II/lac/blas_extension</text>
<text text-anchor="middle" x="425" y="-7.5" font-family="Helvetica,sans-Serif" font-size="10.00" fill="#000000">_templates.h</text>
</g>
<!-- Node22&#45;&gt;Node24 -->
<g id="edge28" class="edge">
<title>Node22&#45;&gt;Node24</title>
<path fill="none" stroke="#191970" d="M840.9612,-68.3957C837.9326,-67.8986 834.9245,-67.4278 832,-67 687.4417,-45.8554 647.1563,-54.1569 498.9459,-31.048"/>
<polygon fill="#191970" stroke="#191970" points="499.449,-27.5841 489.0252,-29.4798 498.356,-34.4983 499.449,-27.5841"/>
</g>
<!-- Node25 -->
<g id="node26" class="node">
<title>Node25</title>
<polygon fill="none" stroke="#bfbfbf" points="507,-6 507,-25 633,-25 633,-6 507,-6"/>
<text text-anchor="middle" x="570" y="-13" font-family="Helvetica,sans-Serif" font-size="10.00" fill="#000000">deal.II/lac/block_vector.h</text>
</g>
<!-- Node22&#45;&gt;Node25 -->
<g id="edge29" class="edge">
<title>Node22&#45;&gt;Node25</title>
<path fill="none" stroke="#191970" d="M840.8101,-68.6245C781.1449,-57.5412 679.29,-38.5276 642,-31 635.9134,-29.7713 629.5451,-28.451 623.221,-27.1181"/>
<polygon fill="#191970" stroke="#191970" points="623.8754,-23.6791 613.3663,-25.0244 622.4206,-30.5263 623.8754,-23.6791"/>
</g>
<!-- Node26 -->
<g id="node27" class="node">
<title>Node26</title>
<polygon fill="none" stroke="#bfbfbf" points="651,-.5 651,-30.5 743,-30.5 743,-.5 651,-.5"/>
<text text-anchor="start" x="659" y="-18.5" font-family="Helvetica,sans-Serif" font-size="10.00" fill="#000000">deal.II/lac/sparse</text>
<text text-anchor="middle" x="697" y="-7.5" font-family="Helvetica,sans-Serif" font-size="10.00" fill="#000000">_matrix.h</text>
</g>
<!-- Node22&#45;&gt;Node26 -->
<g id="edge34" class="edge">
<title>Node22&#45;&gt;Node26</title>
<path fill="none" stroke="#191970" d="M856.4688,-67.3906C828.8767,-58.4123 786.9625,-44.7735 753.0289,-33.7316"/>
<polygon fill="#191970" stroke="#191970" points="753.8269,-30.3107 743.2346,-30.5446 751.6608,-36.9672 753.8269,-30.3107"/>
</g>
<!-- Node27 -->
<g id="node28" class="node">
<title>Node27</title>
<polygon fill="none" stroke="#bfbfbf" points="761.5,-6 761.5,-25 862.5,-25 862.5,-6 761.5,-6"/>
<text text-anchor="middle" x="812" y="-13" font-family="Helvetica,sans-Serif" font-size="10.00" fill="#000000">deal.II/lac/utilities.h</text>
</g>
<!-- Node22&#45;&gt;Node27 -->
<g id="edge35" class="edge">
<title>Node22&#45;&gt;Node27</title>
<path fill="none" stroke="#191970" d="M874.4375,-67.3906C862.9921,-57.8786 845.2527,-43.1357 831.603,-31.7917"/>
<polygon fill="#191970" stroke="#191970" points="833.6533,-28.9447 823.7255,-25.2449 829.1792,-34.3283 833.6533,-28.9447"/>
</g>
<!-- Node28 -->
<g id="node29" class="node">
<title>Node28</title>
<polygon fill="none" stroke="#bfbfbf" points="881,-6 881,-25 979,-25 979,-6 881,-6"/>
<text text-anchor="middle" x="930" y="-13" font-family="Helvetica,sans-Serif" font-size="10.00" fill="#000000">deal.II/lac/vector.h</text>
</g>
<!-- Node22&#45;&gt;Node28 -->
<g id="edge36" class="edge">
<title>Node22&#45;&gt;Node28</title>
<path fill="none" stroke="#191970" d="M892.875,-67.3906C899.3593,-58.3273 909.2414,-44.5149 917.1801,-33.4188"/>
<polygon fill="#191970" stroke="#191970" points="920.0559,-35.4143 923.0281,-25.2449 914.3629,-31.3412 920.0559,-35.4143"/>
</g>
</g>
</svg>
