<?xml version="1.0" encoding="UTF-8" standalone="no"?>
<!DOCTYPE svg PUBLIC "-//W3C//DTD SVG 1.1//EN"
 "http://www.w3.org/Graphics/SVG/1.1/DTD/svg11.dtd">
<!-- Generated by graphviz version 2.40.1 (20161225.0304)
 -->
<!-- Title: /home/jihuan/Projects/deal.ii/program/dealii&#45;9.1.1/examples/laplace&#45;bem/tests/rkmatrix&#45;truncate&#45;to&#45;rank/rkmatrix&#45;truncate&#45;to&#45;rank.cc Pages: 1 -->
<svg width="1974pt" height="329pt"
 viewBox="0.00 0.00 1973.50 329.00" xmlns="http://www.w3.org/2000/svg" xmlns:xlink="http://www.w3.org/1999/xlink">
<g id="graph0" class="graph" transform="scale(1 1) rotate(0) translate(4 325)">
<title>/home/jihuan/Projects/deal.ii/program/dealii&#45;9.1.1/examples/laplace&#45;bem/tests/rkmatrix&#45;truncate&#45;to&#45;rank/rkmatrix&#45;truncate&#45;to&#45;rank.cc</title>
<!-- Node0 -->
<g id="node1" class="node">
<title>Node0</title>
<polygon fill="#bfbfbf" stroke="#000000" points="624.5,-246.5 624.5,-320.5 764.5,-320.5 764.5,-246.5 624.5,-246.5"/>
<text text-anchor="start" x="632.5" y="-308.5" font-family="Helvetica,sans-Serif" font-size="10.00" fill="#000000">/home/jihuan/Projects</text>
<text text-anchor="start" x="632.5" y="-297.5" font-family="Helvetica,sans-Serif" font-size="10.00" fill="#000000">/deal.ii/program/dealii</text>
<text text-anchor="start" x="632.5" y="-286.5" font-family="Helvetica,sans-Serif" font-size="10.00" fill="#000000">&#45;9.1.1/examples/laplace</text>
<text text-anchor="start" x="632.5" y="-275.5" font-family="Helvetica,sans-Serif" font-size="10.00" fill="#000000">&#45;bem/tests/rkmatrix&#45;truncate</text>
<text text-anchor="start" x="632.5" y="-264.5" font-family="Helvetica,sans-Serif" font-size="10.00" fill="#000000">&#45;to&#45;rank/rkmatrix&#45;truncate</text>
<text text-anchor="middle" x="694.5" y="-253.5" font-family="Helvetica,sans-Serif" font-size="10.00" fill="#000000">&#45;to&#45;rank.cc</text>
</g>
<!-- Node1 -->
<g id="node2" class="node">
<title>Node1</title>
<g id="a_node2"><a xlink:href="debug__tools_8h.html" target="_top" xlink:title="This file includes a bunch of helper functions for printing out and visualizing information about gri...">
<polygon fill="none" stroke="#000000" points="452,-190.5 452,-209.5 529,-209.5 529,-190.5 452,-190.5"/>
<text text-anchor="middle" x="490.5" y="-197.5" font-family="Helvetica,sans-Serif" font-size="10.00" fill="#000000">debug_tools.h</text>
</a>
</g>
</g>
<!-- Node0&#45;&gt;Node1 -->
<g id="edge1" class="edge">
<title>Node0&#45;&gt;Node1</title>
<path fill="none" stroke="#191970" d="M624.2948,-254.764C590.0104,-240.731 550.4011,-224.5183 523.2272,-213.3957"/>
<polygon fill="#191970" stroke="#191970" points="524.3919,-210.0906 513.8113,-209.5416 521.7402,-216.569 524.3919,-210.0906"/>
</g>
<!-- Node9 -->
<g id="node10" class="node">
<title>Node9</title>
<g id="a_node10"><a xlink:href="rkmatrix_8h.html" target="_top" xlink:title="Definition of rank&#45;k matrix. ">
<polygon fill="none" stroke="#000000" points="932.5,-190.5 932.5,-209.5 992.5,-209.5 992.5,-190.5 932.5,-190.5"/>
<text text-anchor="middle" x="962.5" y="-197.5" font-family="Helvetica,sans-Serif" font-size="10.00" fill="#000000">rkmatrix.h</text>
</a>
</g>
</g>
<!-- Node0&#45;&gt;Node9 -->
<g id="edge9" class="edge">
<title>Node0&#45;&gt;Node9</title>
<path fill="none" stroke="#191970" d="M764.5638,-261.6704C814.8538,-246.0017 880.8367,-225.4436 922.4634,-212.4741"/>
<polygon fill="#191970" stroke="#191970" points="923.7347,-215.744 932.2409,-209.4277 921.6524,-209.0609 923.7347,-215.744"/>
</g>
<!-- Node2 -->
<g id="node3" class="node">
<title>Node2</title>
<polygon fill="none" stroke="#bfbfbf" points="0,-129 0,-148 127,-148 127,-129 0,-129"/>
<text text-anchor="middle" x="63.5" y="-136" font-family="Helvetica,sans-Serif" font-size="10.00" fill="#000000">deal.II/dofs/dof_handler.h</text>
</g>
<!-- Node1&#45;&gt;Node2 -->
<g id="edge2" class="edge">
<title>Node1&#45;&gt;Node2</title>
<path fill="none" stroke="#191970" d="M451.8474,-196.0019C386.6061,-189.0248 250.5852,-173.492 136.5,-154 129.7213,-152.8418 122.6155,-151.4976 115.6094,-150.0943"/>
<polygon fill="#191970" stroke="#191970" points="115.9658,-146.5945 105.466,-148.0107 114.5572,-153.4513 115.9658,-146.5945"/>
</g>
<!-- Node3 -->
<g id="node4" class="node">
<title>Node3</title>
<polygon fill="none" stroke="#bfbfbf" points="145.5,-129 145.5,-148 261.5,-148 261.5,-129 145.5,-129"/>
<text text-anchor="middle" x="203.5" y="-136" font-family="Helvetica,sans-Serif" font-size="10.00" fill="#000000">deal.II/dofs/dof_tools.h</text>
</g>
<!-- Node1&#45;&gt;Node3 -->
<g id="edge3" class="edge">
<title>Node1&#45;&gt;Node3</title>
<path fill="none" stroke="#191970" d="M451.8978,-192.1869C407.9265,-183.2271 333.9491,-167.9709 270.5,-154 265.1802,-152.8286 259.6285,-151.5825 254.0965,-150.3253"/>
<polygon fill="#191970" stroke="#191970" points="254.7432,-146.883 244.2145,-148.0645 253.1821,-153.7067 254.7432,-146.883"/>
</g>
<!-- Node4 -->
<g id="node5" class="node">
<title>Node4</title>
<polygon fill="none" stroke="#bfbfbf" points="279.5,-129 279.5,-148 353.5,-148 353.5,-129 279.5,-129"/>
<text text-anchor="middle" x="316.5" y="-136" font-family="Helvetica,sans-Serif" font-size="10.00" fill="#000000">deal.II/fe/fe.h</text>
</g>
<!-- Node1&#45;&gt;Node4 -->
<g id="edge4" class="edge">
<title>Node1&#45;&gt;Node4</title>
<path fill="none" stroke="#191970" d="M463.3125,-190.3906C433.6883,-179.92 386.1313,-163.1111 353.2082,-151.4745"/>
<polygon fill="#191970" stroke="#191970" points="354.0914,-148.0745 343.4966,-148.0419 351.7586,-154.6744 354.0914,-148.0745"/>
</g>
<!-- Node5 -->
<g id="node6" class="node">
<title>Node5</title>
<polygon fill="none" stroke="#bfbfbf" points="371.5,-129 371.5,-148 483.5,-148 483.5,-129 371.5,-129"/>
<text text-anchor="middle" x="427.5" y="-136" font-family="Helvetica,sans-Serif" font-size="10.00" fill="#000000">deal.II/fe/fe_system.h</text>
</g>
<!-- Node1&#45;&gt;Node5 -->
<g id="edge5" class="edge">
<title>Node1&#45;&gt;Node5</title>
<path fill="none" stroke="#191970" d="M480.6563,-190.3906C471.0961,-181.0581 456.3777,-166.6902 444.8505,-155.4374"/>
<polygon fill="#191970" stroke="#191970" points="447.0832,-152.7257 437.4825,-148.2449 442.1934,-157.7348 447.0832,-152.7257"/>
</g>
<!-- Node6 -->
<g id="node7" class="node">
<title>Node6</title>
<polygon fill="none" stroke="#bfbfbf" points="502,-129 502,-148 605,-148 605,-129 502,-129"/>
<text text-anchor="middle" x="553.5" y="-136" font-family="Helvetica,sans-Serif" font-size="10.00" fill="#000000">deal.II/fe/mapping.h</text>
</g>
<!-- Node1&#45;&gt;Node6 -->
<g id="edge6" class="edge">
<title>Node1&#45;&gt;Node6</title>
<path fill="none" stroke="#191970" d="M500.3438,-190.3906C509.9039,-181.0581 524.6223,-166.6902 536.1495,-155.4374"/>
<polygon fill="#191970" stroke="#191970" points="538.8066,-157.7348 543.5175,-148.2449 533.9168,-152.7257 538.8066,-157.7348"/>
</g>
<!-- Node7 -->
<g id="node8" class="node">
<title>Node7</title>
<polygon fill="none" stroke="#bfbfbf" points="623.5,-129 623.5,-148 677.5,-148 677.5,-129 623.5,-129"/>
<text text-anchor="middle" x="650.5" y="-136" font-family="Helvetica,sans-Serif" font-size="10.00" fill="#000000">iostream</text>
</g>
<!-- Node1&#45;&gt;Node7 -->
<g id="edge7" class="edge">
<title>Node1&#45;&gt;Node7</title>
<path fill="none" stroke="#191970" d="M517.0065,-190.4244C541.9939,-181.318 580.4356,-167.1027 613.5,-154 615.1025,-153.365 616.7409,-152.7079 618.3934,-152.0389"/>
<polygon fill="#191970" stroke="#191970" points="619.9401,-155.1873 627.8588,-148.1484 617.279,-148.7129 619.9401,-155.1873"/>
</g>
<!-- Node8 -->
<g id="node9" class="node">
<title>Node8</title>
<polygon fill="none" stroke="#bfbfbf" points="696,-129 696,-148 737,-148 737,-129 696,-129"/>
<text text-anchor="middle" x="716.5" y="-136" font-family="Helvetica,sans-Serif" font-size="10.00" fill="#000000">string</text>
</g>
<!-- Node1&#45;&gt;Node8 -->
<g id="edge8" class="edge">
<title>Node1&#45;&gt;Node8</title>
<path fill="none" stroke="#191970" d="M529.2586,-193.816C569.4005,-186.7424 633.5463,-173.5523 686.5,-154 687.7374,-153.5431 688.989,-153.0468 690.2428,-152.5215"/>
<polygon fill="#191970" stroke="#191970" points="692.1201,-155.5075 699.6965,-148.1016 689.1553,-149.1664 692.1201,-155.5075"/>
</g>
<!-- Node10 -->
<g id="node11" class="node">
<title>Node10</title>
<polygon fill="none" stroke="#bfbfbf" points="755,-129 755,-148 858,-148 858,-129 755,-129"/>
<text text-anchor="middle" x="806.5" y="-136" font-family="Helvetica,sans-Serif" font-size="10.00" fill="#000000">deal.II/base/types.h</text>
</g>
<!-- Node9&#45;&gt;Node10 -->
<g id="edge10" class="edge">
<title>Node9&#45;&gt;Node10</title>
<path fill="none" stroke="#191970" d="M938.125,-190.3906C911.7944,-180.0103 869.662,-163.4004 840.1771,-151.7766"/>
<polygon fill="#191970" stroke="#191970" points="841.2907,-148.4534 830.7038,-148.0419 838.7233,-154.9657 841.2907,-148.4534"/>
</g>
<!-- Node11 -->
<g id="node12" class="node">
<title>Node11</title>
<polygon fill="none" stroke="#bfbfbf" points="607.5,-6 607.5,-25 723.5,-25 723.5,-6 607.5,-6"/>
<text text-anchor="middle" x="665.5" y="-13" font-family="Helvetica,sans-Serif" font-size="10.00" fill="#000000">deal.II/lac/full_matrix.h</text>
</g>
<!-- Node9&#45;&gt;Node11 -->
<g id="edge11" class="edge">
<title>Node9&#45;&gt;Node11</title>
<path fill="none" stroke="#191970" d="M951.7753,-190.2939C934.5473,-174.9628 899.3064,-144.6612 866.5,-123 808.6865,-84.8272 735.9468,-48.5909 695.7319,-29.4941"/>
<polygon fill="#191970" stroke="#191970" points="697.0121,-26.2282 686.4744,-25.1284 694.0263,-32.5595 697.0121,-26.2282"/>
</g>
<!-- Node12 -->
<g id="node13" class="node">
<title>Node12</title>
<polygon fill="none" stroke="#bfbfbf" points="742,-.5 742,-30.5 833,-30.5 833,-.5 742,-.5"/>
<text text-anchor="start" x="750" y="-18.5" font-family="Helvetica,sans-Serif" font-size="10.00" fill="#000000">deal.II/lac/lapack</text>
<text text-anchor="middle" x="787.5" y="-7.5" font-family="Helvetica,sans-Serif" font-size="10.00" fill="#000000">_full_matrix.h</text>
</g>
<!-- Node9&#45;&gt;Node12 -->
<g id="edge12" class="edge">
<title>Node9&#45;&gt;Node12</title>
<path fill="none" stroke="#191970" d="M960.4332,-190.2959C954.8638,-166.3213 937.4064,-103.5908 900.5,-67 884.5075,-51.1442 862.7523,-39.6535 842.5998,-31.6055"/>
<polygon fill="#191970" stroke="#191970" points="843.7664,-28.3048 833.175,-28.0372 841.2878,-34.8513 843.7664,-28.3048"/>
</g>
<!-- Node13 -->
<g id="node14" class="node">
<title>Node13</title>
<polygon fill="none" stroke="#bfbfbf" points="851,-.5 851,-30.5 942,-30.5 942,-.5 851,-.5"/>
<text text-anchor="start" x="859" y="-18.5" font-family="Helvetica,sans-Serif" font-size="10.00" fill="#000000">deal.II/lac/lapack</text>
<text text-anchor="middle" x="896.5" y="-7.5" font-family="Helvetica,sans-Serif" font-size="10.00" fill="#000000">_support.h</text>
</g>
<!-- Node9&#45;&gt;Node13 -->
<g id="edge13" class="edge">
<title>Node9&#45;&gt;Node13</title>
<path fill="none" stroke="#191970" d="M962.3919,-190.4903C961.8025,-167.9721 958.3154,-110.0546 938.5,-67 933.748,-56.675 926.4336,-46.6699 919.2326,-38.2676"/>
<polygon fill="#191970" stroke="#191970" points="921.7462,-35.8286 912.4507,-30.7448 916.547,-40.5157 921.7462,-35.8286"/>
</g>
<!-- Node14 -->
<g id="node15" class="node">
<title>Node14</title>
<polygon fill="none" stroke="#bfbfbf" points="960,-.5 960,-30.5 1051,-30.5 1051,-.5 960,-.5"/>
<text text-anchor="start" x="968" y="-18.5" font-family="Helvetica,sans-Serif" font-size="10.00" fill="#000000">deal.II/lac/lapack</text>
<text text-anchor="middle" x="1005.5" y="-7.5" font-family="Helvetica,sans-Serif" font-size="10.00" fill="#000000">_templates.h</text>
</g>
<!-- Node9&#45;&gt;Node14 -->
<g id="edge14" class="edge">
<title>Node9&#45;&gt;Node14</title>
<path fill="none" stroke="#191970" d="M965.7596,-190.2011C968.7751,-180.9368 973.2665,-166.6147 976.5,-154 986.57,-114.7141 995.7121,-68.5009 1000.9354,-40.6319"/>
<polygon fill="#191970" stroke="#191970" points="1004.4207,-41.0328 1002.8014,-30.5624 997.5378,-39.7573 1004.4207,-41.0328"/>
</g>
<!-- Node15 -->
<g id="node16" class="node">
<title>Node15</title>
<polygon fill="none" stroke="#bfbfbf" points="1029,-67.5 1029,-86.5 1064,-86.5 1064,-67.5 1029,-67.5"/>
<text text-anchor="middle" x="1046.5" y="-74.5" font-family="Helvetica,sans-Serif" font-size="10.00" fill="#000000">map</text>
</g>
<!-- Node9&#45;&gt;Node15 -->
<g id="edge15" class="edge">
<title>Node9&#45;&gt;Node15</title>
<path fill="none" stroke="#191970" d="M976.4582,-190.4386C987.9453,-181.9767 1003.992,-168.7125 1014.5,-154 1027.0786,-136.3884 1035.879,-113.0867 1041.0243,-96.7469"/>
<polygon fill="#191970" stroke="#191970" points="1044.5153,-97.2851 1044.0039,-86.7026 1037.8044,-95.2942 1044.5153,-97.2851"/>
</g>
<!-- Node16 -->
<g id="node17" class="node">
<title>Node16</title>
<polygon fill="none" stroke="#bfbfbf" points="1376.5,-67.5 1376.5,-86.5 1420.5,-86.5 1420.5,-67.5 1376.5,-67.5"/>
<text text-anchor="middle" x="1398.5" y="-74.5" font-family="Helvetica,sans-Serif" font-size="10.00" fill="#000000">vector</text>
</g>
<!-- Node9&#45;&gt;Node16 -->
<g id="edge16" class="edge">
<title>Node9&#45;&gt;Node16</title>
<path fill="none" stroke="#191970" d="M992.6393,-197.1613C1042.1099,-191.9651 1143.2537,-179.0779 1225.5,-154 1279.3071,-137.5936 1338.4736,-108.7191 1371.7966,-91.3734"/>
<polygon fill="#191970" stroke="#191970" points="1373.6578,-94.3492 1380.8793,-86.5968 1370.3995,-88.1537 1373.6578,-94.3492"/>
</g>
<!-- Node17 -->
<g id="node18" class="node">
<title>Node17</title>
<g id="a_node18"><a xlink:href="lapack__full__matrix__ext_8h_source.html" target="_top" xlink:title="lapack_full_matrix\l_ext.h">
<polygon fill="none" stroke="#000000" points="1121,-123.5 1121,-153.5 1216,-153.5 1216,-123.5 1121,-123.5"/>
<text text-anchor="start" x="1129" y="-141.5" font-family="Helvetica,sans-Serif" font-size="10.00" fill="#000000">lapack_full_matrix</text>
<text text-anchor="middle" x="1168.5" y="-130.5" font-family="Helvetica,sans-Serif" font-size="10.00" fill="#000000">_ext.h</text>
</a>
</g>
</g>
<!-- Node9&#45;&gt;Node17 -->
<g id="edge17" class="edge">
<title>Node9&#45;&gt;Node17</title>
<path fill="none" stroke="#191970" d="M992.896,-190.9255C1023.8201,-181.6933 1072.5095,-167.1573 1110.7833,-155.7309"/>
<polygon fill="#191970" stroke="#191970" points="1112.1935,-158.9627 1120.7743,-152.7482 1110.191,-152.2552 1112.1935,-158.9627"/>
</g>
<!-- Node17&#45;&gt;Node15 -->
<g id="edge19" class="edge">
<title>Node17&#45;&gt;Node15</title>
<path fill="none" stroke="#191970" d="M1138.6554,-123.4554C1118.7409,-113.4165 1092.7704,-100.3248 1073.4766,-90.5989"/>
<polygon fill="#191970" stroke="#191970" points="1074.8358,-87.3645 1064.3307,-85.9884 1071.6847,-93.6152 1074.8358,-87.3645"/>
</g>
<!-- Node17&#45;&gt;Node16 -->
<g id="edge20" class="edge">
<title>Node17&#45;&gt;Node16</title>
<path fill="none" stroke="#191970" d="M1216.1598,-127.002C1254.396,-117.5889 1309.6444,-103.5669 1366.3451,-87.2263"/>
<polygon fill="#191970" stroke="#191970" points="1367.5688,-90.5157 1376.1972,-84.3675 1365.618,-83.793 1367.5688,-90.5157"/>
</g>
<!-- Node18 -->
<g id="node19" class="node">
<title>Node18</title>
<polygon fill="none" stroke="#bfbfbf" points="1190.5,-67.5 1190.5,-86.5 1230.5,-86.5 1230.5,-67.5 1190.5,-67.5"/>
<text text-anchor="middle" x="1210.5" y="-74.5" font-family="Helvetica,sans-Serif" font-size="10.00" fill="#000000">limits</text>
</g>
<!-- Node17&#45;&gt;Node18 -->
<g id="edge18" class="edge">
<title>Node17&#45;&gt;Node18</title>
<path fill="none" stroke="#191970" d="M1178.882,-123.2977C1184.6513,-114.8498 1191.8716,-104.2773 1197.9553,-95.369"/>
<polygon fill="#191970" stroke="#191970" points="1201.0259,-97.0788 1203.7753,-86.8469 1195.2453,-93.1311 1201.0259,-97.0788"/>
</g>
<!-- Node19 -->
<g id="node20" class="node">
<title>Node19</title>
<g id="a_node20"><a xlink:href="general__exceptions_8h.html" target="_top" xlink:title="Definition of self&#45;defined general exceptions. ">
<polygon fill="none" stroke="#000000" points="1249,-67.5 1249,-86.5 1358,-86.5 1358,-67.5 1249,-67.5"/>
<text text-anchor="middle" x="1303.5" y="-74.5" font-family="Helvetica,sans-Serif" font-size="10.00" fill="#000000">general_exceptions.h</text>
</a>
</g>
</g>
<!-- Node17&#45;&gt;Node19 -->
<g id="edge21" class="edge">
<title>Node17&#45;&gt;Node19</title>
<path fill="none" stroke="#191970" d="M1201.5247,-123.4554C1223.457,-113.464 1252.0273,-100.4487 1273.3453,-90.7372"/>
<polygon fill="#191970" stroke="#191970" points="1274.9306,-93.8611 1282.5798,-86.5303 1272.0286,-87.4909 1274.9306,-93.8611"/>
</g>
<!-- Node21 -->
<g id="node22" class="node">
<title>Node21</title>
<g id="a_node22"><a xlink:href="lapack__helpers_8h.html" target="_top" xlink:title="Exposes LAPACK helper functions defined in lapack_full_matrix.cc and define new ones by following the...">
<polygon fill="none" stroke="#000000" points="1082.5,-67.5 1082.5,-86.5 1172.5,-86.5 1172.5,-67.5 1082.5,-67.5"/>
<text text-anchor="middle" x="1127.5" y="-74.5" font-family="Helvetica,sans-Serif" font-size="10.00" fill="#000000">lapack_helpers.h</text>
</a>
</g>
</g>
<!-- Node17&#45;&gt;Node21 -->
<g id="edge23" class="edge">
<title>Node17&#45;&gt;Node21</title>
<path fill="none" stroke="#191970" d="M1158.3652,-123.2977C1152.7332,-114.8498 1145.6849,-104.2773 1139.746,-95.369"/>
<polygon fill="#191970" stroke="#191970" points="1142.5238,-93.226 1134.0646,-86.8469 1136.6995,-97.1089 1142.5238,-93.226"/>
</g>
<!-- Node20 -->
<g id="node21" class="node">
<title>Node20</title>
<polygon fill="none" stroke="#bfbfbf" points="1839.5,-6 1839.5,-25 1965.5,-25 1965.5,-6 1839.5,-6"/>
<text text-anchor="middle" x="1902.5" y="-13" font-family="Helvetica,sans-Serif" font-size="10.00" fill="#000000">deal.II/base/exceptions.h</text>
</g>
<!-- Node19&#45;&gt;Node20 -->
<g id="edge22" class="edge">
<title>Node19&#45;&gt;Node20</title>
<path fill="none" stroke="#191970" d="M1358.2746,-68.156C1361.3925,-67.7416 1364.4841,-67.3523 1367.5,-67 1572.5047,-43.0505 1626.2617,-60.7862 1830.5,-31 1837.7198,-29.9471 1845.2984,-28.5934 1852.717,-27.1254"/>
<polygon fill="#191970" stroke="#191970" points="1853.5981,-30.5174 1862.6854,-25.0702 1852.1846,-23.6616 1853.5981,-30.5174"/>
</g>
<!-- Node21&#45;&gt;Node11 -->
<g id="edge27" class="edge">
<title>Node21&#45;&gt;Node11</title>
<path fill="none" stroke="#191970" d="M1082.2227,-68.4923C1078.9369,-67.9595 1075.6702,-67.4554 1072.5,-67 922.0881,-45.3937 882.3565,-56.1714 732.5,-31 726.164,-29.9357 719.5312,-28.634 713.0065,-27.2417"/>
<polygon fill="#191970" stroke="#191970" points="713.4209,-23.7486 702.9003,-25.0003 711.9052,-30.5826 713.4209,-23.7486"/>
</g>
<!-- Node21&#45;&gt;Node12 -->
<g id="edge28" class="edge">
<title>Node21&#45;&gt;Node12</title>
<path fill="none" stroke="#191970" d="M1082.4933,-68.7214C1079.1133,-68.129 1075.7537,-67.5492 1072.5,-67 973.2453,-50.2455 944.7336,-53.1682 843.1285,-31.2151"/>
<polygon fill="#191970" stroke="#191970" points="843.5799,-27.7311 833.0627,-29.0115 842.0828,-34.5692 843.5799,-27.7311"/>
</g>
<!-- Node21&#45;&gt;Node13 -->
<g id="edge29" class="edge">
<title>Node21&#45;&gt;Node13</title>
<path fill="none" stroke="#191970" d="M1089.7907,-67.4937C1056.0091,-58.9121 1004.8634,-45.7596 952.0245,-31.386"/>
<polygon fill="#191970" stroke="#191970" points="952.7111,-27.9454 942.1424,-28.6887 950.8679,-34.6984 952.7111,-27.9454"/>
</g>
<!-- Node21&#45;&gt;Node14 -->
<g id="edge30" class="edge">
<title>Node21&#45;&gt;Node14</title>
<path fill="none" stroke="#191970" d="M1108.4375,-67.3906C1091.3912,-58.7976 1065.8764,-45.9356 1044.5144,-35.1671"/>
<polygon fill="#191970" stroke="#191970" points="1045.8497,-31.9207 1035.3446,-30.5446 1042.6986,-38.1714 1045.8497,-31.9207"/>
</g>
<!-- Node22 -->
<g id="node23" class="node">
<title>Node22</title>
<polygon fill="none" stroke="#bfbfbf" points="1069.5,-6 1069.5,-25 1185.5,-25 1185.5,-6 1069.5,-6"/>
<text text-anchor="middle" x="1127.5" y="-13" font-family="Helvetica,sans-Serif" font-size="10.00" fill="#000000">deal.II/base/numbers.h</text>
</g>
<!-- Node21&#45;&gt;Node22 -->
<g id="edge24" class="edge">
<title>Node21&#45;&gt;Node22</title>
<path fill="none" stroke="#191970" d="M1127.5,-67.3906C1127.5,-58.8657 1127.5,-46.1392 1127.5,-35.4235"/>
<polygon fill="#191970" stroke="#191970" points="1131.0001,-35.2448 1127.5,-25.2449 1124.0001,-35.2449 1131.0001,-35.2448"/>
</g>
<!-- Node23 -->
<g id="node24" class="node">
<title>Node23</title>
<polygon fill="none" stroke="#bfbfbf" points="1203.5,-.5 1203.5,-30.5 1331.5,-30.5 1331.5,-.5 1203.5,-.5"/>
<text text-anchor="start" x="1211.5" y="-18.5" font-family="Helvetica,sans-Serif" font-size="10.00" fill="#000000">deal.II/lac/blas_extension</text>
<text text-anchor="middle" x="1267.5" y="-7.5" font-family="Helvetica,sans-Serif" font-size="10.00" fill="#000000">_templates.h</text>
</g>
<!-- Node21&#45;&gt;Node23 -->
<g id="edge25" class="edge">
<title>Node21&#45;&gt;Node23</title>
<path fill="none" stroke="#191970" d="M1149.375,-67.3906C1169.2872,-58.6435 1199.2691,-45.4728 1224.0438,-34.5897"/>
<polygon fill="#191970" stroke="#191970" points="1225.5043,-37.771 1233.2521,-30.5446 1222.6889,-31.3621 1225.5043,-37.771"/>
</g>
<!-- Node24 -->
<g id="node25" class="node">
<title>Node24</title>
<polygon fill="none" stroke="#bfbfbf" points="1349.5,-6 1349.5,-25 1475.5,-25 1475.5,-6 1349.5,-6"/>
<text text-anchor="middle" x="1412.5" y="-13" font-family="Helvetica,sans-Serif" font-size="10.00" fill="#000000">deal.II/lac/block_vector.h</text>
</g>
<!-- Node21&#45;&gt;Node24 -->
<g id="edge26" class="edge">
<title>Node21&#45;&gt;Node24</title>
<path fill="none" stroke="#191970" d="M1171.7185,-67.4581C1221.9527,-56.6181 1303.9573,-38.9224 1358.0772,-27.2439"/>
<polygon fill="#191970" stroke="#191970" points="1359.141,-30.595 1368.1777,-25.0643 1357.6644,-23.7524 1359.141,-30.595"/>
</g>
<!-- Node25 -->
<g id="node26" class="node">
<title>Node25</title>
<polygon fill="none" stroke="#bfbfbf" points="1493.5,-.5 1493.5,-30.5 1585.5,-30.5 1585.5,-.5 1493.5,-.5"/>
<text text-anchor="start" x="1501.5" y="-18.5" font-family="Helvetica,sans-Serif" font-size="10.00" fill="#000000">deal.II/lac/sparse</text>
<text text-anchor="middle" x="1539.5" y="-7.5" font-family="Helvetica,sans-Serif" font-size="10.00" fill="#000000">_matrix.h</text>
</g>
<!-- Node21&#45;&gt;Node25 -->
<g id="edge31" class="edge">
<title>Node21&#45;&gt;Node25</title>
<path fill="none" stroke="#191970" d="M1172.5443,-68.4326C1175.5715,-67.9266 1178.5778,-67.4437 1181.5,-67 1312.3038,-47.1394 1349.683,-56.9634 1483.2057,-31.0654"/>
<polygon fill="#191970" stroke="#191970" points="1484.2794,-34.4211 1493.4135,-29.0529 1482.9254,-27.5533 1484.2794,-34.4211"/>
</g>
<!-- Node26 -->
<g id="node27" class="node">
<title>Node26</title>
<polygon fill="none" stroke="#bfbfbf" points="1604,-6 1604,-25 1705,-25 1705,-6 1604,-6"/>
<text text-anchor="middle" x="1654.5" y="-13" font-family="Helvetica,sans-Serif" font-size="10.00" fill="#000000">deal.II/lac/utilities.h</text>
</g>
<!-- Node21&#45;&gt;Node26 -->
<g id="edge32" class="edge">
<title>Node21&#45;&gt;Node26</title>
<path fill="none" stroke="#191970" d="M1172.5291,-68.3265C1175.56,-67.8461 1178.5712,-67.3979 1181.5,-67 1364.0744,-42.1962 1412.9006,-62.1497 1594.5,-31 1600.067,-30.0451 1605.8741,-28.83 1611.5886,-27.5015"/>
<polygon fill="#191970" stroke="#191970" points="1612.8253,-30.802 1621.7031,-25.0196 1611.157,-24.0036 1612.8253,-30.802"/>
</g>
<!-- Node27 -->
<g id="node28" class="node">
<title>Node27</title>
<polygon fill="none" stroke="#bfbfbf" points="1723.5,-6 1723.5,-25 1821.5,-25 1821.5,-6 1723.5,-6"/>
<text text-anchor="middle" x="1772.5" y="-13" font-family="Helvetica,sans-Serif" font-size="10.00" fill="#000000">deal.II/lac/vector.h</text>
</g>
<!-- Node21&#45;&gt;Node27 -->
<g id="edge33" class="edge">
<title>Node21&#45;&gt;Node27</title>
<path fill="none" stroke="#191970" d="M1172.5204,-68.2602C1175.5534,-67.7958 1178.5675,-67.3693 1181.5,-67 1417.068,-37.3338 1480.2684,-69.8318 1714.5,-31 1719.9626,-30.0944 1725.6557,-28.8972 1731.2484,-27.5683"/>
<polygon fill="#191970" stroke="#191970" points="1732.2983,-30.9131 1741.1355,-25.0689 1730.5826,-24.1266 1732.2983,-30.9131"/>
</g>
</g>
</svg>
