<?xml version="1.0" encoding="UTF-8" standalone="no"?>
<!DOCTYPE svg PUBLIC "-//W3C//DTD SVG 1.1//EN"
 "http://www.w3.org/Graphics/SVG/1.1/DTD/svg11.dtd">
<!-- Generated by graphviz version 2.40.1 (20161225.0304)
 -->
<!-- Title: /home/jihuan/Projects/deal.ii/program/dealii&#45;9.1.1/examples/laplace&#45;bem/include/rkmatrix.h Pages: 1 -->
<!--zoomable 318 -->
<svg id="main" version="1.1" xmlns="http://www.w3.org/2000/svg" xmlns:xlink="http://www.w3.org/1999/xlink" xml:space="preserve" onload="init(evt)">
<style type="text/css"><![CDATA[
.edge:hover path { stroke: red; }
.edge:hover polygon { stroke: red; fill: red; }
]]></style>
<script type="text/javascript"><![CDATA[
var edges = document.getElementsByTagName('g');
if (edges && edges.length) {
  for (var i=0;i<edges.length;i++) {
    if (edges[i].id.substr(0,4)=='edge') {
      edges[i].setAttribute('class','edge');
    }
  }
}
]]></script>
        <defs>
                <circle id="rim" cx="0" cy="0" r="7"/>
                <circle id="rim2" cx="0" cy="0" r="3.5"/>
                <g id="zoomPlus">
                        <use xlink:href="#rim" fill="#404040">
                                <set attributeName="fill" to="#808080" begin="zoomplus.mouseover" end="zoomplus.mouseout"/>
                        </use>
                        <path d="M-4,0h8M0,-4v8" fill="none" stroke="white" stroke-width="1.5" pointer-events="none"/>
                </g>
                <g id="zoomMin">
                        <use xlink:href="#rim" fill="#404040">
                                <set attributeName="fill" to="#808080" begin="zoomminus.mouseover" end="zoomminus.mouseout"/>
                        </use>
                        <path d="M-4,0h8" fill="none" stroke="white" stroke-width="1.5" pointer-events="none"/>
                </g>
                <g id="dirArrow">
                        <path fill="none" stroke="white" stroke-width="1.5" d="M0,-3.0v7 M-2.5,-0.5L0,-3.0L2.5,-0.5"/>
                </g>
               <g id="resetDef">
                       <use xlink:href="#rim2" fill="#404040">
                               <set attributeName="fill" to="#808080" begin="reset.mouseover" end="reset.mouseout"/>
                       </use>
               </g>
        </defs>

<script type="text/javascript">
var viewWidth = 1929;
var viewHeight = 318;
var sectionId = 'dynsection-0';
</script>
<script xlink:href="svgpan.js"/>
<svg id="graph" class="graph">
<g id="viewport">
<title>/home/jihuan/Projects/deal.ii/program/dealii&#45;9.1.1/examples/laplace&#45;bem/include/rkmatrix.h</title>
<!-- Node0 -->
<g id="node1" class="node">
<title>Node0</title>
<polygon fill="#bfbfbf" stroke="#000000" points="1146.7695,-257.5 1146.7695,-309.5 1266.7695,-309.5 1266.7695,-257.5 1146.7695,-257.5"/>
<text text-anchor="start" x="1154.7695" y="-297.5" font-family="Helvetica,sans-Serif" font-size="10.00" fill="#000000">/home/jihuan/Projects</text>
<text text-anchor="start" x="1154.7695" y="-286.5" font-family="Helvetica,sans-Serif" font-size="10.00" fill="#000000">/deal.ii/program/dealii</text>
<text text-anchor="start" x="1154.7695" y="-275.5" font-family="Helvetica,sans-Serif" font-size="10.00" fill="#000000">&#45;9.1.1/examples/laplace</text>
<text text-anchor="middle" x="1206.7695" y="-264.5" font-family="Helvetica,sans-Serif" font-size="10.00" fill="#000000">&#45;bem/include/rkmatrix.h</text>
</g>
<!-- Node1 -->
<g id="node2" class="node">
<title>Node1</title>
<polygon fill="none" stroke="#bfbfbf" points="1368.2695,-73 1368.2695,-92 1471.2695,-92 1471.2695,-73 1368.2695,-73"/>
<text text-anchor="middle" x="1419.7695" y="-80" font-family="Helvetica,sans-Serif" font-size="10.00" fill="#000000">deal.II/base/types.h</text>
</g>
<!-- Node0&#45;&gt;Node1 -->
<g id="edge1" class="edge">
<title>Node0&#45;&gt;Node1</title>
<path fill="none" stroke="#191970" d="M1217.5091,-257.4568C1232.1812,-224.711 1261.359,-168.602 1301.7695,-134 1322.6424,-116.1273 1350.6806,-103.5437 1374.1886,-95.2911"/>
<polygon fill="#191970" stroke="#191970" points="1375.5839,-98.5148 1383.952,-92.0166 1373.358,-91.8781 1375.5839,-98.5148"/>
</g>
<!-- Node2 -->
<g id="node3" class="node">
<title>Node2</title>
<polygon fill="none" stroke="#bfbfbf" points="15.7695,-73 15.7695,-92 131.7695,-92 131.7695,-73 15.7695,-73"/>
<text text-anchor="middle" x="73.7695" y="-80" font-family="Helvetica,sans-Serif" font-size="10.00" fill="#000000">deal.II/lac/full_matrix.h</text>
</g>
<!-- Node0&#45;&gt;Node2 -->
<g id="edge2" class="edge">
<title>Node0&#45;&gt;Node2</title>
<path fill="none" stroke="#191970" d="M1146.7596,-280.3391C1037.7213,-273.9209 800.1074,-256.8256 602.7695,-221 417.0018,-187.2749 200.6083,-122.3631 113.2853,-95.0733"/>
<polygon fill="#191970" stroke="#191970" points="114.119,-91.6667 103.5298,-92.0129 112.0237,-98.3457 114.119,-91.6667"/>
</g>
<!-- Node3 -->
<g id="node4" class="node">
<title>Node3</title>
<polygon fill="none" stroke="#bfbfbf" points="150.2695,-67.5 150.2695,-97.5 241.2695,-97.5 241.2695,-67.5 150.2695,-67.5"/>
<text text-anchor="start" x="158.2695" y="-85.5" font-family="Helvetica,sans-Serif" font-size="10.00" fill="#000000">deal.II/lac/lapack</text>
<text text-anchor="middle" x="195.7695" y="-74.5" font-family="Helvetica,sans-Serif" font-size="10.00" fill="#000000">_full_matrix.h</text>
</g>
<!-- Node0&#45;&gt;Node3 -->
<g id="edge3" class="edge">
<title>Node0&#45;&gt;Node3</title>
<path fill="none" stroke="#191970" d="M1146.5937,-277.2146C1059.356,-267.6507 892.8646,-247.6985 752.7695,-221 529.8971,-178.5263 473.774,-157.6869 251.0987,-98.3175"/>
<polygon fill="#191970" stroke="#191970" points="251.9632,-94.9258 241.3994,-95.7352 250.1623,-101.6902 251.9632,-94.9258"/>
</g>
<!-- Node4 -->
<g id="node5" class="node">
<title>Node4</title>
<polygon fill="none" stroke="#bfbfbf" points="962.2695,-.5 962.2695,-30.5 1053.2695,-30.5 1053.2695,-.5 962.2695,-.5"/>
<text text-anchor="start" x="970.2695" y="-18.5" font-family="Helvetica,sans-Serif" font-size="10.00" fill="#000000">deal.II/lac/lapack</text>
<text text-anchor="middle" x="1007.7695" y="-7.5" font-family="Helvetica,sans-Serif" font-size="10.00" fill="#000000">_support.h</text>
</g>
<!-- Node0&#45;&gt;Node4 -->
<g id="edge4" class="edge">
<title>Node0&#45;&gt;Node4</title>
<path fill="none" stroke="#191970" d="M1146.5087,-282.1009C1019.2828,-278.3462 714.2843,-265.1167 462.7695,-221 256.016,-184.7346 134.4158,-264.6393 6.7695,-98 -1.6087,-87.0624 -2.7192,-76.9895 6.7695,-67 39.5131,-32.5285 746.059,-19.3782 951.9431,-16.27"/>
<polygon fill="#191970" stroke="#191970" points="952.2752,-19.7655 962.2219,-16.1169 952.1709,-12.7663 952.2752,-19.7655"/>
</g>
<!-- Node5 -->
<g id="node6" class="node">
<title>Node5</title>
<polygon fill="none" stroke="#bfbfbf" points="259.2695,-67.5 259.2695,-97.5 350.2695,-97.5 350.2695,-67.5 259.2695,-67.5"/>
<text text-anchor="start" x="267.2695" y="-85.5" font-family="Helvetica,sans-Serif" font-size="10.00" fill="#000000">deal.II/lac/lapack</text>
<text text-anchor="middle" x="304.7695" y="-74.5" font-family="Helvetica,sans-Serif" font-size="10.00" fill="#000000">_templates.h</text>
</g>
<!-- Node0&#45;&gt;Node5 -->
<g id="edge5" class="edge">
<title>Node0&#45;&gt;Node5</title>
<path fill="none" stroke="#191970" d="M1146.6677,-271.6092C1009.0972,-244.1176 660.7046,-172.9401 360.1078,-98.0067"/>
<polygon fill="#191970" stroke="#191970" points="360.8829,-94.5928 350.3327,-95.5643 359.186,-101.384 360.8829,-94.5928"/>
</g>
<!-- Node6 -->
<g id="node7" class="node">
<title>Node6</title>
<polygon fill="none" stroke="#bfbfbf" points="1876.7695,-196 1876.7695,-215 1920.7695,-215 1920.7695,-196 1876.7695,-196"/>
<text text-anchor="middle" x="1898.7695" y="-203" font-family="Helvetica,sans-Serif" font-size="10.00" fill="#000000">cmath</text>
</g>
<!-- Node0&#45;&gt;Node6 -->
<g id="edge6" class="edge">
<title>Node0&#45;&gt;Node6</title>
<path fill="none" stroke="#191970" d="M1266.8199,-280.1731C1406.6833,-272.0383 1750.766,-249.692 1862.7695,-221 1865.2497,-220.3647 1867.7785,-219.5812 1870.288,-218.707"/>
<polygon fill="#191970" stroke="#191970" points="1871.6951,-221.9148 1879.7278,-215.0064 1869.1402,-215.3977 1871.6951,-221.9148"/>
</g>
<!-- Node7 -->
<g id="node8" class="node">
<title>Node7</title>
<polygon fill="none" stroke="#bfbfbf" points="1315.2695,-73 1315.2695,-92 1350.2695,-92 1350.2695,-73 1315.2695,-73"/>
<text text-anchor="middle" x="1332.7695" y="-80" font-family="Helvetica,sans-Serif" font-size="10.00" fill="#000000">map</text>
</g>
<!-- Node0&#45;&gt;Node7 -->
<g id="edge7" class="edge">
<title>Node0&#45;&gt;Node7</title>
<path fill="none" stroke="#191970" d="M1204.0899,-257.478C1202.1866,-225.2644 1203.7235,-170.2328 1230.7695,-134 1252.8869,-104.37 1273.0476,-115.2159 1305.7695,-98 1306.4332,-97.6508 1307.1043,-97.2939 1307.78,-96.9313"/>
<polygon fill="#191970" stroke="#191970" points="1309.5529,-99.9503 1316.6006,-92.0395 1306.1579,-93.8287 1309.5529,-99.9503"/>
</g>
<!-- Node8 -->
<g id="node9" class="node">
<title>Node8</title>
<polygon fill="none" stroke="#bfbfbf" points="1822.7695,-73 1822.7695,-92 1866.7695,-92 1866.7695,-73 1822.7695,-73"/>
<text text-anchor="middle" x="1844.7695" y="-80" font-family="Helvetica,sans-Serif" font-size="10.00" fill="#000000">vector</text>
</g>
<!-- Node0&#45;&gt;Node8 -->
<g id="edge8" class="edge">
<title>Node0&#45;&gt;Node8</title>
<path fill="none" stroke="#191970" d="M1266.9812,-277.8503C1403.7462,-263.9142 1732.4037,-223.8625 1815.7695,-154 1831.2854,-140.9974 1838.5885,-118.4293 1841.9682,-102.1207"/>
<polygon fill="#191970" stroke="#191970" points="1845.4587,-102.4781 1843.7339,-92.0246 1838.5634,-101.2721 1845.4587,-102.4781"/>
</g>
<!-- Node9 -->
<g id="node10" class="node">
<title>Node9</title>
<g id="a_node10"><a xlink:href="lapack__full__matrix__ext_8h_source.html" target="_top" xlink:title="lapack_full_matrix\l_ext.h">
<polygon fill="none" stroke="#000000" points="1374.2695,-190.5 1374.2695,-220.5 1469.2695,-220.5 1469.2695,-190.5 1374.2695,-190.5"/>
<text text-anchor="start" x="1382.2695" y="-208.5" font-family="Helvetica,sans-Serif" font-size="10.00" fill="#000000">lapack_full_matrix</text>
<text text-anchor="middle" x="1421.7695" y="-197.5" font-family="Helvetica,sans-Serif" font-size="10.00" fill="#000000">_ext.h</text>
</a>
</g>
</g>
<!-- Node0&#45;&gt;Node9 -->
<g id="edge9" class="edge">
<title>Node0&#45;&gt;Node9</title>
<path fill="none" stroke="#191970" d="M1266.9449,-261.6689C1299.5649,-249.8347 1339.4483,-235.3654 1370.5652,-224.0765"/>
<polygon fill="#191970" stroke="#191970" points="1372.1329,-227.231 1380.3398,-220.5303 1369.7456,-220.6506 1372.1329,-227.231"/>
</g>
<!-- Node9&#45;&gt;Node7 -->
<g id="edge11" class="edge">
<title>Node9&#45;&gt;Node7</title>
<path fill="none" stroke="#191970" d="M1374.0505,-198.0021C1347.9726,-191.2055 1317.8004,-178.3247 1301.7695,-154 1290.4622,-136.8427 1303.4821,-114.8778 1315.944,-99.8483"/>
<polygon fill="#191970" stroke="#191970" points="1318.634,-102.0902 1322.6519,-92.2867 1313.3974,-97.4449 1318.634,-102.0902"/>
</g>
<!-- Node9&#45;&gt;Node8 -->
<g id="edge15" class="edge">
<title>Node9&#45;&gt;Node8</title>
<path fill="none" stroke="#191970" d="M1469.5429,-203.4111C1556.8735,-198.8566 1738.2275,-185.7758 1791.7695,-154 1812.3469,-141.7879 1827.4231,-118.1866 1836.1239,-101.444"/>
<polygon fill="#191970" stroke="#191970" points="1839.4597,-102.5897 1840.7096,-92.0688 1833.1716,-99.5139 1839.4597,-102.5897"/>
</g>
<!-- Node10 -->
<g id="node11" class="node">
<title>Node10</title>
<polygon fill="none" stroke="#bfbfbf" points="1310.7695,-134.5 1310.7695,-153.5 1350.7695,-153.5 1350.7695,-134.5 1310.7695,-134.5"/>
<text text-anchor="middle" x="1330.7695" y="-141.5" font-family="Helvetica,sans-Serif" font-size="10.00" fill="#000000">limits</text>
</g>
<!-- Node9&#45;&gt;Node10 -->
<g id="edge10" class="edge">
<title>Node9&#45;&gt;Node10</title>
<path fill="none" stroke="#191970" d="M1399.2752,-190.2977C1385.3728,-180.9022 1367.582,-168.8787 1353.6149,-159.4395"/>
<polygon fill="#191970" stroke="#191970" points="1355.3132,-156.3629 1345.068,-153.6633 1351.3936,-162.1626 1355.3132,-156.3629"/>
</g>
<!-- Node11 -->
<g id="node12" class="node">
<title>Node11</title>
<polygon fill="none" stroke="#bfbfbf" points="1369.2695,-134.5 1369.2695,-153.5 1410.2695,-153.5 1410.2695,-134.5 1369.2695,-134.5"/>
<text text-anchor="middle" x="1389.7695" y="-141.5" font-family="Helvetica,sans-Serif" font-size="10.00" fill="#000000">regex</text>
</g>
<!-- Node9&#45;&gt;Node11 -->
<g id="edge12" class="edge">
<title>Node9&#45;&gt;Node11</title>
<path fill="none" stroke="#191970" d="M1413.8594,-190.2977C1409.5563,-182.0277 1404.1938,-171.7215 1399.6213,-162.9339"/>
<polygon fill="#191970" stroke="#191970" points="1402.6139,-161.1024 1394.8932,-153.8469 1396.4042,-164.3335 1402.6139,-161.1024"/>
</g>
<!-- Node12 -->
<g id="node13" class="node">
<title>Node12</title>
<polygon fill="none" stroke="#bfbfbf" points="1428.7695,-134.5 1428.7695,-153.5 1480.7695,-153.5 1480.7695,-134.5 1428.7695,-134.5"/>
<text text-anchor="middle" x="1454.7695" y="-141.5" font-family="Helvetica,sans-Serif" font-size="10.00" fill="#000000">sstream</text>
</g>
<!-- Node9&#45;&gt;Node12 -->
<g id="edge13" class="edge">
<title>Node9&#45;&gt;Node12</title>
<path fill="none" stroke="#191970" d="M1429.9269,-190.2977C1434.3644,-182.0277 1439.8946,-171.7215 1444.6099,-162.9339"/>
<polygon fill="#191970" stroke="#191970" points="1447.8417,-164.3134 1449.4858,-153.8469 1441.6735,-161.0037 1447.8417,-164.3134"/>
</g>
<!-- Node13 -->
<g id="node14" class="node">
<title>Node13</title>
<polygon fill="none" stroke="#bfbfbf" points="1614.2695,-134.5 1614.2695,-153.5 1655.2695,-153.5 1655.2695,-134.5 1614.2695,-134.5"/>
<text text-anchor="middle" x="1634.7695" y="-141.5" font-family="Helvetica,sans-Serif" font-size="10.00" fill="#000000">string</text>
</g>
<!-- Node9&#45;&gt;Node13 -->
<g id="edge14" class="edge">
<title>Node9&#45;&gt;Node13</title>
<path fill="none" stroke="#191970" d="M1469.6522,-192.9311C1504.6652,-183.552 1553.5014,-170.0818 1604.3671,-154.3268"/>
<polygon fill="#191970" stroke="#191970" points="1605.7196,-157.5714 1614.224,-151.2527 1603.6354,-150.8888 1605.7196,-157.5714"/>
</g>
<!-- Node14 -->
<g id="node15" class="node">
<title>Node14</title>
<g id="a_node15"><a xlink:href="general__exceptions_8h.html" target="_top" xlink:title="Definition of self&#45;defined general exceptions. ">
<polygon fill="none" stroke="#000000" points="1673.2695,-134.5 1673.2695,-153.5 1782.2695,-153.5 1782.2695,-134.5 1673.2695,-134.5"/>
<text text-anchor="middle" x="1727.7695" y="-141.5" font-family="Helvetica,sans-Serif" font-size="10.00" fill="#000000">general_exceptions.h</text>
</a>
</g>
</g>
<!-- Node9&#45;&gt;Node14 -->
<g id="edge16" class="edge">
<title>Node9&#45;&gt;Node14</title>
<path fill="none" stroke="#191970" d="M1469.582,-195.8906C1523.813,-184.9913 1612.2168,-167.2238 1670.1929,-155.5718"/>
<polygon fill="#191970" stroke="#191970" points="1671.1785,-158.9438 1680.2928,-153.5419 1669.7992,-152.081 1671.1785,-158.9438"/>
</g>
<!-- Node16 -->
<g id="node17" class="node">
<title>Node16</title>
<g id="a_node17"><a xlink:href="generic__functors_8h.html" target="_top" xlink:title="This header file contains a set of self&#45;defined generic functors. ">
<polygon fill="none" stroke="#000000" points="1499.2695,-134.5 1499.2695,-153.5 1596.2695,-153.5 1596.2695,-134.5 1499.2695,-134.5"/>
<text text-anchor="middle" x="1547.7695" y="-141.5" font-family="Helvetica,sans-Serif" font-size="10.00" fill="#000000">generic_functors.h</text>
</a>
</g>
</g>
<!-- Node9&#45;&gt;Node16 -->
<g id="edge18" class="edge">
<title>Node9&#45;&gt;Node16</title>
<path fill="none" stroke="#191970" d="M1452.5926,-190.4554C1472.8784,-180.554 1499.2484,-167.683 1519.0857,-158.0004"/>
<polygon fill="#191970" stroke="#191970" points="1520.7926,-161.062 1528.244,-153.5303 1517.7221,-154.7714 1520.7926,-161.062"/>
</g>
<!-- Node19 -->
<g id="node20" class="node">
<title>Node19</title>
<g id="a_node20"><a xlink:href="lapack__helpers_8h.html" target="_top" xlink:title="Exposes LAPACK helper functions defined in lapack_full_matrix.cc and define new ones by following the...">
<polygon fill="none" stroke="#000000" points="696.7695,-134.5 696.7695,-153.5 786.7695,-153.5 786.7695,-134.5 696.7695,-134.5"/>
<text text-anchor="middle" x="741.7695" y="-141.5" font-family="Helvetica,sans-Serif" font-size="10.00" fill="#000000">lapack_helpers.h</text>
</a>
</g>
</g>
<!-- Node9&#45;&gt;Node19 -->
<g id="edge26" class="edge">
<title>Node9&#45;&gt;Node19</title>
<path fill="none" stroke="#191970" d="M1374.2235,-201.1999C1252.0052,-190.1463 927.3639,-160.7854 797.0483,-148.9995"/>
<polygon fill="#191970" stroke="#191970" points="797.171,-145.4964 786.8964,-148.0813 796.5404,-152.4679 797.171,-145.4964"/>
</g>
<!-- Node15 -->
<g id="node16" class="node">
<title>Node15</title>
<polygon fill="none" stroke="#bfbfbf" points="1678.7695,-73 1678.7695,-92 1804.7695,-92 1804.7695,-73 1678.7695,-73"/>
<text text-anchor="middle" x="1741.7695" y="-80" font-family="Helvetica,sans-Serif" font-size="10.00" fill="#000000">deal.II/base/exceptions.h</text>
</g>
<!-- Node14&#45;&gt;Node15 -->
<g id="edge17" class="edge">
<title>Node14&#45;&gt;Node15</title>
<path fill="none" stroke="#191970" d="M1729.957,-134.3906C1731.9181,-125.776 1734.8559,-112.8708 1737.311,-102.0858"/>
<polygon fill="#191970" stroke="#191970" points="1740.7442,-102.7723 1739.5512,-92.2449 1733.9188,-101.2185 1740.7442,-102.7723"/>
</g>
<!-- Node16&#45;&gt;Node1 -->
<g id="edge20" class="edge">
<title>Node16&#45;&gt;Node1</title>
<path fill="none" stroke="#191970" d="M1527.7695,-134.3906C1506.5407,-124.1908 1472.7933,-107.9763 1448.6736,-96.3875"/>
<polygon fill="#191970" stroke="#191970" points="1450.1585,-93.2179 1439.6291,-92.0419 1447.1269,-99.5275 1450.1585,-93.2179"/>
</g>
<!-- Node16&#45;&gt;Node4 -->
<g id="edge21" class="edge">
<title>Node16&#45;&gt;Node4</title>
<path fill="none" stroke="#191970" d="M1542.6558,-134.3947C1533.0617,-117.456 1510.6085,-82.5949 1480.7695,-67 1409.4061,-29.7029 1172.4067,-19.3451 1063.4463,-16.5262"/>
<polygon fill="#191970" stroke="#191970" points="1063.3946,-13.0239 1053.3114,-16.2762 1063.222,-20.0218 1063.3946,-13.0239"/>
</g>
<!-- Node16&#45;&gt;Node7 -->
<g id="edge24" class="edge">
<title>Node16&#45;&gt;Node7</title>
<path fill="none" stroke="#191970" d="M1502.292,-134.4126C1455.312,-124.2343 1385.3518,-108.2342 1359.7695,-98 1358.7659,-97.5985 1357.7542,-97.1651 1356.742,-96.7073"/>
<polygon fill="#191970" stroke="#191970" points="1358.3098,-93.5779 1347.8147,-92.1277 1355.1147,-99.8062 1358.3098,-93.5779"/>
</g>
<!-- Node16&#45;&gt;Node8 -->
<g id="edge25" class="edge">
<title>Node16&#45;&gt;Node8</title>
<path fill="none" stroke="#191970" d="M1596.4129,-135.6106C1672.9962,-122.3993 1813.1226,-98.2126 1813.7695,-98 1815.3809,-97.4706 1817.0132,-96.8698 1818.6424,-96.2199"/>
<polygon fill="#191970" stroke="#191970" points="1820.0868,-99.408 1827.7704,-92.1134 1817.2148,-93.0243 1820.0868,-99.408"/>
</g>
<!-- Node16&#45;&gt;Node15 -->
<g id="edge19" class="edge">
<title>Node16&#45;&gt;Node15</title>
<path fill="none" stroke="#191970" d="M1578.082,-134.3906C1611.396,-123.8298 1665.0503,-106.8208 1701.7877,-95.1747"/>
<polygon fill="#191970" stroke="#191970" points="1703.1951,-98.4002 1711.6699,-92.0419 1701.0797,-91.7275 1703.1951,-98.4002"/>
</g>
<!-- Node17 -->
<g id="node18" class="node">
<title>Node17</title>
<polygon fill="none" stroke="#bfbfbf" points="1593.2695,-73 1593.2695,-92 1660.2695,-92 1660.2695,-73 1593.2695,-73"/>
<text text-anchor="middle" x="1626.7695" y="-80" font-family="Helvetica,sans-Serif" font-size="10.00" fill="#000000">forward_list</text>
</g>
<!-- Node16&#45;&gt;Node17 -->
<g id="edge22" class="edge">
<title>Node16&#45;&gt;Node17</title>
<path fill="none" stroke="#191970" d="M1560.1133,-134.3906C1572.5198,-124.7324 1591.8539,-109.6812 1606.5109,-98.271"/>
<polygon fill="#191970" stroke="#191970" points="1608.7716,-100.9466 1614.5125,-92.0419 1604.4716,-95.423 1608.7716,-100.9466"/>
</g>
<!-- Node18 -->
<g id="node19" class="node">
<title>Node18</title>
<polygon fill="none" stroke="#bfbfbf" points="1528.2695,-73 1528.2695,-92 1575.2695,-92 1575.2695,-73 1528.2695,-73"/>
<text text-anchor="middle" x="1551.7695" y="-80" font-family="Helvetica,sans-Serif" font-size="10.00" fill="#000000">iterator</text>
</g>
<!-- Node16&#45;&gt;Node18 -->
<g id="edge23" class="edge">
<title>Node16&#45;&gt;Node18</title>
<path fill="none" stroke="#191970" d="M1548.3945,-134.3906C1548.949,-125.8657 1549.7768,-113.1392 1550.4737,-102.4235"/>
<polygon fill="#191970" stroke="#191970" points="1553.9792,-102.451 1551.1357,-92.2449 1546.994,-101.9966 1553.9792,-102.451"/>
</g>
<!-- Node19&#45;&gt;Node2 -->
<g id="edge30" class="edge">
<title>Node19&#45;&gt;Node2</title>
<path fill="none" stroke="#191970" d="M696.6464,-142.871C596.224,-139.8512 346.8758,-129.5436 140.7695,-98 134.1089,-96.9806 127.1288,-95.6574 120.2937,-94.2138"/>
<polygon fill="#191970" stroke="#191970" points="120.9572,-90.776 110.4373,-92.034 119.4456,-97.6109 120.9572,-90.776"/>
</g>
<!-- Node19&#45;&gt;Node3 -->
<g id="edge31" class="edge">
<title>Node19&#45;&gt;Node3</title>
<path fill="none" stroke="#191970" d="M696.6068,-142.5877C611.1931,-139.3109 420.1294,-129.0901 251.3501,-98.0895"/>
<polygon fill="#191970" stroke="#191970" points="251.7637,-94.6063 241.2912,-96.2121 250.4793,-101.4875 251.7637,-94.6063"/>
</g>
<!-- Node19&#45;&gt;Node4 -->
<g id="edge32" class="edge">
<title>Node19&#45;&gt;Node4</title>
<path fill="none" stroke="#191970" d="M746.0628,-134.254C753.8619,-117.7286 771.9691,-84.3214 797.7695,-67 822.7302,-50.2424 898.6681,-34.2933 952.0196,-24.7013"/>
<polygon fill="#191970" stroke="#191970" points="952.7976,-28.1181 962.0338,-22.9275 951.5766,-21.2254 952.7976,-28.1181"/>
</g>
<!-- Node19&#45;&gt;Node5 -->
<g id="edge33" class="edge">
<title>Node19&#45;&gt;Node5</title>
<path fill="none" stroke="#191970" d="M696.7174,-140.8472C626.7303,-135.4543 487.5918,-122.7557 360.4664,-97.9406"/>
<polygon fill="#191970" stroke="#191970" points="361.0463,-94.4875 350.5566,-95.9764 359.6853,-101.3539 361.0463,-94.4875"/>
</g>
<!-- Node20 -->
<g id="node21" class="node">
<title>Node20</title>
<polygon fill="none" stroke="#bfbfbf" points="1042.7695,-73 1042.7695,-92 1158.7695,-92 1158.7695,-73 1042.7695,-73"/>
<text text-anchor="middle" x="1100.7695" y="-80" font-family="Helvetica,sans-Serif" font-size="10.00" fill="#000000">deal.II/base/numbers.h</text>
</g>
<!-- Node19&#45;&gt;Node20 -->
<g id="edge27" class="edge">
<title>Node19&#45;&gt;Node20</title>
<path fill="none" stroke="#191970" d="M786.9639,-137.8969C844.4979,-129.8945 946.8665,-114.8752 1033.7695,-98 1039.5509,-96.8774 1045.5919,-95.6118 1051.5778,-94.3002"/>
<polygon fill="#191970" stroke="#191970" points="1052.5517,-97.6689 1061.5441,-92.0664 1051.0207,-90.8383 1052.5517,-97.6689"/>
</g>
<!-- Node21 -->
<g id="node22" class="node">
<title>Node21</title>
<polygon fill="none" stroke="#bfbfbf" points="368.7695,-67.5 368.7695,-97.5 496.7695,-97.5 496.7695,-67.5 368.7695,-67.5"/>
<text text-anchor="start" x="376.7695" y="-85.5" font-family="Helvetica,sans-Serif" font-size="10.00" fill="#000000">deal.II/lac/blas_extension</text>
<text text-anchor="middle" x="432.7695" y="-74.5" font-family="Helvetica,sans-Serif" font-size="10.00" fill="#000000">_templates.h</text>
</g>
<!-- Node19&#45;&gt;Node21 -->
<g id="edge28" class="edge">
<title>Node19&#45;&gt;Node21</title>
<path fill="none" stroke="#191970" d="M696.4821,-135.4058C651.0749,-126.7367 578.8843,-112.8133 506.9907,-98.2311"/>
<polygon fill="#191970" stroke="#191970" points="507.3479,-94.7322 496.851,-96.1696 505.9532,-101.5919 507.3479,-94.7322"/>
</g>
<!-- Node22 -->
<g id="node23" class="node">
<title>Node22</title>
<polygon fill="none" stroke="#bfbfbf" points="514.7695,-73 514.7695,-92 640.7695,-92 640.7695,-73 514.7695,-73"/>
<text text-anchor="middle" x="577.7695" y="-80" font-family="Helvetica,sans-Serif" font-size="10.00" fill="#000000">deal.II/lac/block_vector.h</text>
</g>
<!-- Node19&#45;&gt;Node22 -->
<g id="edge29" class="edge">
<title>Node19&#45;&gt;Node22</title>
<path fill="none" stroke="#191970" d="M716.1445,-134.3906C688.3433,-123.9652 643.7852,-107.2559 612.7701,-95.6252"/>
<polygon fill="#191970" stroke="#191970" points="613.8069,-92.276 603.2146,-92.0419 611.349,-98.8303 613.8069,-92.276"/>
</g>
<!-- Node23 -->
<g id="node24" class="node">
<title>Node23</title>
<polygon fill="none" stroke="#bfbfbf" points="658.7695,-67.5 658.7695,-97.5 750.7695,-97.5 750.7695,-67.5 658.7695,-67.5"/>
<text text-anchor="start" x="666.7695" y="-85.5" font-family="Helvetica,sans-Serif" font-size="10.00" fill="#000000">deal.II/lac/sparse</text>
<text text-anchor="middle" x="704.7695" y="-74.5" font-family="Helvetica,sans-Serif" font-size="10.00" fill="#000000">_matrix.h</text>
</g>
<!-- Node19&#45;&gt;Node23 -->
<g id="edge34" class="edge">
<title>Node19&#45;&gt;Node23</title>
<path fill="none" stroke="#191970" d="M735.9883,-134.3906C731.4445,-126.838 724.9166,-115.9876 719.0036,-106.1593"/>
<polygon fill="#191970" stroke="#191970" points="721.9751,-104.309 713.8208,-97.5446 715.9769,-107.9177 721.9751,-104.309"/>
</g>
<!-- Node24 -->
<g id="node25" class="node">
<title>Node24</title>
<polygon fill="none" stroke="#bfbfbf" points="807.2695,-73 807.2695,-92 908.2695,-92 908.2695,-73 807.2695,-73"/>
<text text-anchor="middle" x="857.7695" y="-80" font-family="Helvetica,sans-Serif" font-size="10.00" fill="#000000">deal.II/lac/utilities.h</text>
</g>
<!-- Node19&#45;&gt;Node24 -->
<g id="edge35" class="edge">
<title>Node19&#45;&gt;Node24</title>
<path fill="none" stroke="#191970" d="M759.8945,-134.3906C778.8778,-124.3262 808.9068,-108.4057 830.7002,-96.8514"/>
<polygon fill="#191970" stroke="#191970" points="832.5762,-99.8184 839.7718,-92.0419 829.2973,-93.6338 832.5762,-99.8184"/>
</g>
<!-- Node25 -->
<g id="node26" class="node">
<title>Node25</title>
<polygon fill="none" stroke="#bfbfbf" points="926.7695,-73 926.7695,-92 1024.7695,-92 1024.7695,-73 926.7695,-73"/>
<text text-anchor="middle" x="975.7695" y="-80" font-family="Helvetica,sans-Serif" font-size="10.00" fill="#000000">deal.II/lac/vector.h</text>
</g>
<!-- Node19&#45;&gt;Node25 -->
<g id="edge36" class="edge">
<title>Node19&#45;&gt;Node25</title>
<path fill="none" stroke="#191970" d="M778.0753,-134.4581C818.8914,-123.7308 885.2533,-106.2895 929.6925,-94.61"/>
<polygon fill="#191970" stroke="#191970" points="930.5968,-97.9913 939.3786,-92.0643 928.8174,-91.2212 930.5968,-97.9913"/>
</g>
<!-- Node26 -->
<g id="node27" class="node">
<title>Node26</title>
<g id="a_node27"><a xlink:href="lapack__templates__ext_8h.html" target="_top" xlink:title="Append more template based LAPACK functions to those existing in deal.ii. ">
<polygon fill="none" stroke="#000000" points="1176.7695,-73 1176.7695,-92 1296.7695,-92 1296.7695,-73 1176.7695,-73"/>
<text text-anchor="middle" x="1236.7695" y="-80" font-family="Helvetica,sans-Serif" font-size="10.00" fill="#000000">lapack_templates_ext.h</text>
</a>
</g>
</g>
<!-- Node19&#45;&gt;Node26 -->
<g id="edge37" class="edge">
<title>Node19&#45;&gt;Node26</title>
<path fill="none" stroke="#191970" d="M786.7695,-140.8282C864.7298,-134.9576 1029.8022,-120.8696 1167.7695,-98 1174.3614,-96.9073 1181.2688,-95.5788 1188.0598,-94.1639"/>
<polygon fill="#191970" stroke="#191970" points="1188.8384,-97.5766 1197.8757,-92.0468 1187.3626,-90.7339 1188.8384,-97.5766"/>
</g>
<!-- Node26&#45;&gt;Node4 -->
<g id="edge38" class="edge">
<title>Node26&#45;&gt;Node4</title>
<path fill="none" stroke="#191970" d="M1203.9594,-72.9005C1167.2817,-62.1695 1107.2691,-44.6112 1063.2606,-31.7354"/>
<polygon fill="#191970" stroke="#191970" points="1064.1477,-28.3482 1053.5672,-28.8993 1062.182,-35.0666 1064.1477,-28.3482"/>
</g>
</g>
</svg>
        <g id="navigator" transform="translate(0 0)" fill="#404254">
                <rect fill="#f2f5e9" fill-opacity="0.5" stroke="#606060" stroke-width=".5" x="0" y="0" width="60" height="60"/>
                <use id="zoomplus" xlink:href="#zoomPlus" x="17" y="9" onmousedown="handleZoom(evt,'in')"/>
                <use id="zoomminus" xlink:href="#zoomMin" x="42" y="9" onmousedown="handleZoom(evt,'out')"/>
                <use id="reset" xlink:href="#resetDef" x="30" y="36" onmousedown="handleReset()"/>
                <g id="arrowUp" xlink:href="#dirArrow" transform="translate(30 24)" onmousedown="handlePan(0,-1)">
                  <use xlink:href="#rim" fill="#404040">
                        <set attributeName="fill" to="#808080" begin="arrowUp.mouseover" end="arrowUp.mouseout"/>
                  </use>
                  <path fill="none" stroke="white" stroke-width="1.5" d="M0,-3.0v7 M-2.5,-0.5L0,-3.0L2.5,-0.5"/>
                </g>
                <g id="arrowRight" xlink:href="#dirArrow" transform="rotate(90) translate(36 -43)" onmousedown="handlePan(1,0)">
                  <use xlink:href="#rim" fill="#404040">
                        <set attributeName="fill" to="#808080" begin="arrowRight.mouseover" end="arrowRight.mouseout"/>
                  </use>
                  <path fill="none" stroke="white" stroke-width="1.5" d="M0,-3.0v7 M-2.5,-0.5L0,-3.0L2.5,-0.5"/>
                </g>
                <g id="arrowDown" xlink:href="#dirArrow" transform="rotate(180) translate(-30 -48)" onmousedown="handlePan(0,1)">
                  <use xlink:href="#rim" fill="#404040">
                        <set attributeName="fill" to="#808080" begin="arrowDown.mouseover" end="arrowDown.mouseout"/>
                  </use>
                  <path fill="none" stroke="white" stroke-width="1.5" d="M0,-3.0v7 M-2.5,-0.5L0,-3.0L2.5,-0.5"/>
                </g>
                <g id="arrowLeft" xlink:href="#dirArrow" transform="rotate(270) translate(-36 17)" onmousedown="handlePan(-1,0)">
                  <use xlink:href="#rim" fill="#404040">
                        <set attributeName="fill" to="#808080" begin="arrowLeft.mouseover" end="arrowLeft.mouseout"/>
                  </use>
                  <path fill="none" stroke="white" stroke-width="1.5" d="M0,-3.0v7 M-2.5,-0.5L0,-3.0L2.5,-0.5"/>
                </g>
        </g>
        <svg viewBox="0 0 15 15" width="100%" height="30px" preserveAspectRatio="xMaxYMin meet">
         <g id="arrow_out" transform="scale(0.3 0.3)">
          <a xlink:href="rkmatrix_8h__incl_org.svg" target="_base">
           <rect id="button" ry="5" rx="5" y="6" x="6" height="38" width="38"
                fill="#f2f5e9" fill-opacity="0.5" stroke="#606060" stroke-width="1.0"/>
           <path id="arrow"
             d="M 11.500037,31.436501 C 11.940474,20.09759 22.043105,11.32322 32.158766,21.979434 L 37.068811,17.246167 C 37.068811,17.246167 37.088388,32 37.088388,32 L 22.160133,31.978069 C 22.160133,31.978069 26.997745,27.140456 26.997745,27.140456 C 18.528582,18.264221 13.291696,25.230495 11.500037,31.436501 z"
             style="fill:#404040;"/>
          </a>
         </g>
        </svg>
</svg>
