<?xml version="1.0" encoding="UTF-8" standalone="no"?>
<!DOCTYPE svg PUBLIC "-//W3C//DTD SVG 1.1//EN"
 "http://www.w3.org/Graphics/SVG/1.1/DTD/svg11.dtd">
<!-- Generated by graphviz version 2.40.1 (20161225.0304)
 -->
<!-- Title: /home/jihuan/Projects/deal.ii/program/dealii&#45;9.1.1/examples/laplace&#45;bem/tests/rkmatrix&#45;local&#45;to&#45;submatrix/rkmatrix&#45;local&#45;to&#45;submatrix.cc Pages: 1 -->
<svg width="2750pt" height="497pt"
 viewBox="0.00 0.00 2750.00 497.00" xmlns="http://www.w3.org/2000/svg" xmlns:xlink="http://www.w3.org/1999/xlink">
<g id="graph0" class="graph" transform="scale(1 1) rotate(0) translate(4 493)">
<title>/home/jihuan/Projects/deal.ii/program/dealii&#45;9.1.1/examples/laplace&#45;bem/tests/rkmatrix&#45;local&#45;to&#45;submatrix/rkmatrix&#45;local&#45;to&#45;submatrix.cc</title>
<!-- Node0 -->
<g id="node1" class="node">
<title>Node0</title>
<polygon fill="#bfbfbf" stroke="#000000" points="1258.5,-414.5 1258.5,-488.5 1393.5,-488.5 1393.5,-414.5 1258.5,-414.5"/>
<text text-anchor="start" x="1266.5" y="-476.5" font-family="Helvetica,sans-Serif" font-size="10.00" fill="#000000">/home/jihuan/Projects</text>
<text text-anchor="start" x="1266.5" y="-465.5" font-family="Helvetica,sans-Serif" font-size="10.00" fill="#000000">/deal.ii/program/dealii</text>
<text text-anchor="start" x="1266.5" y="-454.5" font-family="Helvetica,sans-Serif" font-size="10.00" fill="#000000">&#45;9.1.1/examples/laplace</text>
<text text-anchor="start" x="1266.5" y="-443.5" font-family="Helvetica,sans-Serif" font-size="10.00" fill="#000000">&#45;bem/tests/rkmatrix&#45;local</text>
<text text-anchor="start" x="1266.5" y="-432.5" font-family="Helvetica,sans-Serif" font-size="10.00" fill="#000000">&#45;to&#45;submatrix/rkmatrix&#45;local</text>
<text text-anchor="middle" x="1326" y="-421.5" font-family="Helvetica,sans-Serif" font-size="10.00" fill="#000000">&#45;to&#45;submatrix.cc</text>
</g>
<!-- Node1 -->
<g id="node2" class="node">
<title>Node1</title>
<polygon fill="none" stroke="#bfbfbf" points="0,-56.5 0,-75.5 54,-75.5 54,-56.5 0,-56.5"/>
<text text-anchor="middle" x="27" y="-63.5" font-family="Helvetica,sans-Serif" font-size="10.00" fill="#000000">iostream</text>
</g>
<!-- Node0&#45;&gt;Node1 -->
<g id="edge1" class="edge">
<title>Node0&#45;&gt;Node1</title>
<path fill="none" stroke="#191970" d="M1258.2431,-447.5413C997.5834,-431.8719 74,-372.11 74,-312 74,-312 74,-312 74,-189 74,-149.62 52.7179,-107.5428 38.7956,-84.2301"/>
<polygon fill="#191970" stroke="#191970" points="41.7699,-82.3851 33.5351,-75.7189 35.8155,-86.0654 41.7699,-82.3851"/>
</g>
<!-- Node2 -->
<g id="node3" class="node">
<title>Node2</title>
<g id="a_node3"><a xlink:href="hmatrix_8h.html" target="_top" xlink:title="Definition of hierarchical matrix. ">
<polygon fill="none" stroke="#000000" points="1151.5,-358.5 1151.5,-377.5 1208.5,-377.5 1208.5,-358.5 1151.5,-358.5"/>
<text text-anchor="middle" x="1180" y="-365.5" font-family="Helvetica,sans-Serif" font-size="10.00" fill="#000000">hmatrix.h</text>
</a>
</g>
</g>
<!-- Node0&#45;&gt;Node2 -->
<g id="edge2" class="edge">
<title>Node0&#45;&gt;Node2</title>
<path fill="none" stroke="#191970" d="M1261.112,-414.3894C1241.5608,-403.2077 1221.2236,-391.5765 1205.804,-382.7578"/>
<polygon fill="#191970" stroke="#191970" points="1207.3078,-379.5859 1196.8896,-377.6594 1203.8326,-385.6623 1207.3078,-379.5859"/>
</g>
<!-- Node31 -->
<g id="node32" class="node">
<title>Node31</title>
<g id="a_node32"><a xlink:href="lapack__full__matrix__ext_8h_source.html" target="_top" xlink:title="lapack_full_matrix\l_ext.h">
<polygon fill="none" stroke="#000000" points="1500.5,-235.5 1500.5,-265.5 1595.5,-265.5 1595.5,-235.5 1500.5,-235.5"/>
<text text-anchor="start" x="1508.5" y="-253.5" font-family="Helvetica,sans-Serif" font-size="10.00" fill="#000000">lapack_full_matrix</text>
<text text-anchor="middle" x="1548" y="-242.5" font-family="Helvetica,sans-Serif" font-size="10.00" fill="#000000">_ext.h</text>
</a>
</g>
</g>
<!-- Node0&#45;&gt;Node31 -->
<g id="edge81" class="edge">
<title>Node0&#45;&gt;Node31</title>
<path fill="none" stroke="#191970" d="M1366.9769,-414.3993C1412.9441,-372.7804 1485.9903,-306.6439 1523.7003,-272.5011"/>
<polygon fill="#191970" stroke="#191970" points="1526.1245,-275.0277 1531.1884,-265.7213 1521.4262,-269.8386 1526.1245,-275.0277"/>
</g>
<!-- Node45 -->
<g id="node46" class="node">
<title>Node45</title>
<g id="a_node46"><a xlink:href="rkmatrix_8h.html" target="_top" xlink:title="Definition of rank&#45;k matrix. ">
<polygon fill="none" stroke="#000000" points="2343,-302.5 2343,-321.5 2403,-321.5 2403,-302.5 2343,-302.5"/>
<text text-anchor="middle" x="2373" y="-309.5" font-family="Helvetica,sans-Serif" font-size="10.00" fill="#000000">rkmatrix.h</text>
</a>
</g>
</g>
<!-- Node0&#45;&gt;Node45 -->
<g id="edge82" class="edge">
<title>Node0&#45;&gt;Node45</title>
<path fill="none" stroke="#191970" d="M1393.8899,-442.4545C1593.446,-415.8661 2174.0694,-338.5051 2332.6002,-317.3828"/>
<polygon fill="#191970" stroke="#191970" points="2333.3995,-320.8073 2342.8497,-316.0172 2332.475,-313.8686 2333.3995,-320.8073"/>
</g>
<!-- Node2&#45;&gt;Node1 -->
<g id="edge7" class="edge">
<title>Node2&#45;&gt;Node1</title>
<path fill="none" stroke="#191970" d="M1151.3301,-367.7957C985.6404,-366.2469 158,-353.3621 158,-250.5 158,-250.5 158,-250.5 158,-189 158,-135.5071 99.2292,-98.4915 60.417,-79.8789"/>
<polygon fill="#191970" stroke="#191970" points="61.5737,-76.558 51.0274,-75.5446 58.6398,-82.9135 61.5737,-76.558"/>
</g>
<!-- Node3 -->
<g id="node4" class="node">
<title>Node3</title>
<polygon fill="none" stroke="#bfbfbf" points="1208,-302.5 1208,-321.5 1330,-321.5 1330,-302.5 1208,-302.5"/>
<text text-anchor="middle" x="1269" y="-309.5" font-family="Helvetica,sans-Serif" font-size="10.00" fill="#000000">deal.II/base/logstream.h</text>
</g>
<!-- Node2&#45;&gt;Node3 -->
<g id="edge3" class="edge">
<title>Node2&#45;&gt;Node3</title>
<path fill="none" stroke="#191970" d="M1195.5026,-358.2455C1209.158,-349.6534 1229.2657,-337.0014 1244.9989,-327.1018"/>
<polygon fill="#191970" stroke="#191970" points="1247.0751,-329.9307 1253.675,-321.6427 1243.3471,-324.006 1247.0751,-329.9307"/>
</g>
<!-- Node4 -->
<g id="node5" class="node">
<title>Node4</title>
<polygon fill="none" stroke="#bfbfbf" points="1423,-118 1423,-137 1539,-137 1539,-118 1423,-118"/>
<text text-anchor="middle" x="1481" y="-125" font-family="Helvetica,sans-Serif" font-size="10.00" fill="#000000">deal.II/lac/full_matrix.h</text>
</g>
<!-- Node2&#45;&gt;Node4 -->
<g id="edge4" class="edge">
<title>Node2&#45;&gt;Node4</title>
<path fill="none" stroke="#191970" d="M1208.7534,-363.6801C1252.7969,-356.5473 1334.1667,-341.1709 1356,-322 1407.5367,-276.7477 1372.4724,-233.5826 1414,-179 1425.1493,-164.3457 1441.4705,-151.6819 1455.2125,-142.5791"/>
<polygon fill="#191970" stroke="#191970" points="1457.2287,-145.4448 1463.7903,-137.1263 1453.4734,-139.5373 1457.2287,-145.4448"/>
</g>
<!-- Node5 -->
<g id="node6" class="node">
<title>Node5</title>
<polygon fill="none" stroke="#bfbfbf" points="770,-56.5 770,-75.5 826,-75.5 826,-56.5 770,-56.5"/>
<text text-anchor="middle" x="798" y="-63.5" font-family="Helvetica,sans-Serif" font-size="10.00" fill="#000000">algorithm</text>
</g>
<!-- Node2&#45;&gt;Node5 -->
<g id="edge5" class="edge">
<title>Node2&#45;&gt;Node5</title>
<path fill="none" stroke="#191970" d="M1151.3354,-366.4281C1089.6798,-361.3441 950,-339.9548 950,-250.5 950,-250.5 950,-250.5 950,-189 950,-153.154 950.7981,-137.8843 926,-112 919.4673,-105.1811 871.1229,-88.9238 835.7692,-77.6855"/>
<polygon fill="#191970" stroke="#191970" points="836.7775,-74.3336 826.1877,-74.6608 834.6702,-81.0089 836.7775,-74.3336"/>
</g>
<!-- Node6 -->
<g id="node7" class="node">
<title>Node6</title>
<polygon fill="none" stroke="#bfbfbf" points="674,-302.5 674,-321.5 724,-321.5 724,-302.5 674,-302.5"/>
<text text-anchor="middle" x="699" y="-309.5" font-family="Helvetica,sans-Serif" font-size="10.00" fill="#000000">fstream</text>
</g>
<!-- Node2&#45;&gt;Node6 -->
<g id="edge6" class="edge">
<title>Node2&#45;&gt;Node6</title>
<path fill="none" stroke="#191970" d="M1151.4918,-366.8807C1081.7471,-363.7592 896.9429,-353.1748 734.3083,-321.9372"/>
<polygon fill="#191970" stroke="#191970" points="734.6089,-318.4298 724.1234,-319.9478 733.2669,-325.3 734.6089,-318.4298"/>
</g>
<!-- Node7 -->
<g id="node8" class="node">
<title>Node7</title>
<polygon fill="none" stroke="#bfbfbf" points="1423.5,-179.5 1423.5,-198.5 1458.5,-198.5 1458.5,-179.5 1423.5,-179.5"/>
<text text-anchor="middle" x="1441" y="-186.5" font-family="Helvetica,sans-Serif" font-size="10.00" fill="#000000">map</text>
</g>
<!-- Node2&#45;&gt;Node7 -->
<g id="edge8" class="edge">
<title>Node2&#45;&gt;Node7</title>
<path fill="none" stroke="#191970" d="M1208.5197,-366.0823C1263.5687,-361.7933 1381.5586,-349.5566 1410,-322 1440.8162,-292.1425 1443.5547,-238.0313 1442.5131,-208.88"/>
<polygon fill="#191970" stroke="#191970" points="1445.9976,-208.4989 1441.9554,-198.7055 1439.0081,-208.8822 1445.9976,-208.4989"/>
</g>
<!-- Node8 -->
<g id="node9" class="node">
<title>Node8</title>
<polygon fill="none" stroke="#bfbfbf" points="710.5,-56.5 710.5,-75.5 751.5,-75.5 751.5,-56.5 710.5,-56.5"/>
<text text-anchor="middle" x="731" y="-63.5" font-family="Helvetica,sans-Serif" font-size="10.00" fill="#000000">string</text>
</g>
<!-- Node2&#45;&gt;Node8 -->
<g id="edge9" class="edge">
<title>Node2&#45;&gt;Node8</title>
<path fill="none" stroke="#191970" d="M1151.134,-364.3301C1100.117,-357.4338 996.5159,-341.4668 966,-322 932.4271,-300.583 912,-290.3224 912,-250.5 912,-250.5 912,-250.5 912,-189 912,-152.9507 812.5393,-102.7579 761.0758,-79.1996"/>
<polygon fill="#191970" stroke="#191970" points="762.3168,-75.9196 751.763,-74.9875 759.432,-82.2976 762.3168,-75.9196"/>
</g>
<!-- Node9 -->
<g id="node10" class="node">
<title>Node9</title>
<polygon fill="none" stroke="#bfbfbf" points="2000,-.5 2000,-19.5 2040,-19.5 2040,-.5 2000,-.5"/>
<text text-anchor="middle" x="2020" y="-7.5" font-family="Helvetica,sans-Serif" font-size="10.00" fill="#000000">utility</text>
</g>
<!-- Node2&#45;&gt;Node9 -->
<g id="edge10" class="edge">
<title>Node2&#45;&gt;Node9</title>
<path fill="none" stroke="#191970" d="M1208.5094,-367.6178C1369.6745,-365.3539 2168.0529,-352.7386 2412,-322 2560.8924,-303.2388 2742,-400.5698 2742,-250.5 2742,-250.5 2742,-250.5 2742,-127.5 2742,-56.248 2187.1322,-19.6216 2050.2461,-11.67"/>
<polygon fill="#191970" stroke="#191970" points="2050.2477,-8.1644 2040.064,-11.0869 2049.8475,-15.153 2050.2477,-8.1644"/>
</g>
<!-- Node10 -->
<g id="node11" class="node">
<title>Node10</title>
<polygon fill="none" stroke="#bfbfbf" points="1217,-.5 1217,-19.5 1261,-19.5 1261,-.5 1217,-.5"/>
<text text-anchor="middle" x="1239" y="-7.5" font-family="Helvetica,sans-Serif" font-size="10.00" fill="#000000">vector</text>
</g>
<!-- Node2&#45;&gt;Node10 -->
<g id="edge11" class="edge">
<title>Node2&#45;&gt;Node10</title>
<path fill="none" stroke="#191970" d="M1179.8008,-358.1247C1179.6537,-345.1893 1179.7798,-321.8227 1182,-302 1193.6295,-198.1674 1222.4694,-76.1103 1234.0603,-29.4592"/>
<polygon fill="#191970" stroke="#191970" points="1237.4597,-30.2925 1236.4977,-19.7414 1230.67,-28.5895 1237.4597,-30.2925"/>
</g>
<!-- Node11 -->
<g id="node12" class="node">
<title>Node11</title>
<g id="a_node12"><a xlink:href="block__cluster_8h.html" target="_top" xlink:title="Implementation of the class BlockCluster. ">
<polygon fill="none" stroke="#000000" points="800.5,-241 800.5,-260 883.5,-260 883.5,-241 800.5,-241"/>
<text text-anchor="middle" x="842" y="-248" font-family="Helvetica,sans-Serif" font-size="10.00" fill="#000000">block_cluster.h</text>
</a>
</g>
</g>
<!-- Node2&#45;&gt;Node11 -->
<g id="edge12" class="edge">
<title>Node2&#45;&gt;Node11</title>
<path fill="none" stroke="#191970" d="M1151.0786,-365.9476C1088.0598,-361.0535 940.5916,-347.1865 898,-322 876.7844,-309.4541 860.598,-285.5701 851.2094,-268.8726"/>
<polygon fill="#191970" stroke="#191970" points="854.2766,-267.1861 846.4804,-260.0119 848.1011,-270.482 854.2766,-267.1861"/>
</g>
<!-- Node30 -->
<g id="node31" class="node">
<title>Node30</title>
<g id="a_node31"><a xlink:href="block__cluster__tree_8h.html" target="_top" xlink:title="Implementation of the class BlockClusterTree. ">
<polygon fill="none" stroke="#000000" points="742,-302.5 742,-321.5 846,-321.5 846,-302.5 742,-302.5"/>
<text text-anchor="middle" x="794" y="-309.5" font-family="Helvetica,sans-Serif" font-size="10.00" fill="#000000">block_cluster_tree.h</text>
</a>
</g>
</g>
<!-- Node2&#45;&gt;Node30 -->
<g id="edge44" class="edge">
<title>Node2&#45;&gt;Node30</title>
<path fill="none" stroke="#191970" d="M1151.3046,-363.9496C1095.2847,-356.0257 967.4405,-337.8615 860,-322 858.7424,-321.8143 857.4715,-321.6262 856.1906,-321.4362"/>
<polygon fill="#191970" stroke="#191970" points="856.6401,-317.9647 846.2333,-319.9516 855.6077,-324.8881 856.6401,-317.9647"/>
</g>
<!-- Node2&#45;&gt;Node31 -->
<g id="edge70" class="edge">
<title>Node2&#45;&gt;Node31</title>
<path fill="none" stroke="#191970" d="M1179.7499,-358.2247C1179.9523,-343.617 1182.6636,-316.2849 1199,-302 1220.5534,-283.1533 1396.8218,-264.3623 1490.2888,-255.6009"/>
<polygon fill="#191970" stroke="#191970" points="1490.8051,-259.0681 1500.4386,-254.6583 1490.1578,-252.098 1490.8051,-259.0681"/>
</g>
<!-- Node44 -->
<g id="node45" class="node">
<title>Node44</title>
<g id="a_node45"><a xlink:href="generic__functors_8h.html" target="_top" xlink:title="This header file contains a set of self&#45;defined generic functors. ">
<polygon fill="none" stroke="#000000" points="1270.5,-241 1270.5,-260 1367.5,-260 1367.5,-241 1270.5,-241"/>
<text text-anchor="middle" x="1319" y="-248" font-family="Helvetica,sans-Serif" font-size="10.00" fill="#000000">generic_functors.h</text>
</a>
</g>
</g>
<!-- Node2&#45;&gt;Node44 -->
<g id="edge66" class="edge">
<title>Node2&#45;&gt;Node44</title>
<path fill="none" stroke="#191970" d="M1208.5785,-363.8764C1249.9571,-357.255 1323.3305,-342.8454 1339,-322 1350.6732,-306.471 1341.6689,-284.4438 1332.2885,-268.9527"/>
<polygon fill="#191970" stroke="#191970" points="1334.998,-266.7028 1326.5807,-260.2685 1329.1484,-270.5475 1334.998,-266.7028"/>
</g>
<!-- Node2&#45;&gt;Node45 -->
<g id="edge71" class="edge">
<title>Node2&#45;&gt;Node45</title>
<path fill="none" stroke="#191970" d="M1208.6055,-366.6572C1367.9806,-359.1761 2145.8911,-322.6606 2332.6394,-313.8945"/>
<polygon fill="#191970" stroke="#191970" points="2333.0132,-317.381 2342.838,-313.4158 2332.6849,-310.3886 2333.0132,-317.381"/>
</g>
<!-- Node12 -->
<g id="node13" class="node">
<title>Node12</title>
<g id="a_node13"><a xlink:href="cluster_8h.html" target="_top" xlink:title="Implementation of the class Cluster. ">
<polygon fill="none" stroke="#000000" points="978,-118 978,-137 1032,-137 1032,-118 978,-118"/>
<text text-anchor="middle" x="1005" y="-125" font-family="Helvetica,sans-Serif" font-size="10.00" fill="#000000">cluster.h</text>
</a>
</g>
</g>
<!-- Node11&#45;&gt;Node12 -->
<g id="edge13" class="edge">
<title>Node11&#45;&gt;Node12</title>
<path fill="none" stroke="#191970" d="M854.7903,-240.8484C882.7612,-219.7415 949.6023,-169.3032 983.9038,-143.4192"/>
<polygon fill="#191970" stroke="#191970" points="986.395,-145.9241 992.2691,-137.1068 982.1785,-140.3365 986.395,-145.9241"/>
</g>
<!-- Node20 -->
<g id="node21" class="node">
<title>Node20</title>
<g id="a_node21"><a xlink:href="cluster__tree_8h_source.html" target="_top" xlink:title="cluster_tree.h">
<polygon fill="none" stroke="#000000" points="734,-179.5 734,-198.5 810,-198.5 810,-179.5 734,-179.5"/>
<text text-anchor="middle" x="772" y="-186.5" font-family="Helvetica,sans-Serif" font-size="10.00" fill="#000000">cluster_tree.h</text>
</a>
</g>
</g>
<!-- Node11&#45;&gt;Node20 -->
<g id="edge25" class="edge">
<title>Node11&#45;&gt;Node20</title>
<path fill="none" stroke="#191970" d="M831.0625,-240.8906C820.338,-231.4683 803.7713,-216.9134 790.9099,-205.6137"/>
<polygon fill="#191970" stroke="#191970" points="792.9143,-202.7158 783.0917,-198.7449 788.2941,-207.9745 792.9143,-202.7158"/>
</g>
<!-- Node12&#45;&gt;Node5 -->
<g id="edge15" class="edge">
<title>Node12&#45;&gt;Node5</title>
<path fill="none" stroke="#191970" d="M980.8483,-117.9519C975.344,-115.8926 969.4972,-113.7966 964,-112 951.7774,-108.0053 881.05,-88.615 835.9469,-76.3191"/>
<polygon fill="#191970" stroke="#191970" points="836.7579,-72.9125 826.1896,-73.6607 834.9178,-79.6664 836.7579,-72.9125"/>
</g>
<!-- Node12&#45;&gt;Node10 -->
<g id="edge17" class="edge">
<title>Node12&#45;&gt;Node10</title>
<path fill="none" stroke="#191970" d="M1012.1067,-117.5886C1023.7175,-102.1211 1048.26,-72.3272 1076,-56 1117.4513,-31.6025 1172.4813,-19.6025 1206.8128,-14.1178"/>
<polygon fill="#191970" stroke="#191970" points="1207.398,-17.5692 1216.765,-12.6183 1206.3551,-10.6474 1207.398,-17.5692"/>
</g>
<!-- Node13 -->
<g id="node14" class="node">
<title>Node13</title>
<polygon fill="none" stroke="#bfbfbf" points="1267.5,-56.5 1267.5,-75.5 1370.5,-75.5 1370.5,-56.5 1267.5,-56.5"/>
<text text-anchor="middle" x="1319" y="-63.5" font-family="Helvetica,sans-Serif" font-size="10.00" fill="#000000">deal.II/base/types.h</text>
</g>
<!-- Node12&#45;&gt;Node13 -->
<g id="edge14" class="edge">
<title>Node12&#45;&gt;Node13</title>
<path fill="none" stroke="#191970" d="M1032.0432,-122.2033C1082.4866,-112.3235 1191.9811,-90.8779 1260.1829,-77.5199"/>
<polygon fill="#191970" stroke="#191970" points="1261.2054,-80.8862 1270.3462,-75.5293 1259.8599,-74.0167 1261.2054,-80.8862"/>
</g>
<!-- Node14 -->
<g id="node15" class="node">
<title>Node14</title>
<polygon fill="none" stroke="#bfbfbf" points="981.5,-56.5 981.5,-75.5 1028.5,-75.5 1028.5,-56.5 981.5,-56.5"/>
<text text-anchor="middle" x="1005" y="-63.5" font-family="Helvetica,sans-Serif" font-size="10.00" fill="#000000">iterator</text>
</g>
<!-- Node12&#45;&gt;Node14 -->
<g id="edge16" class="edge">
<title>Node12&#45;&gt;Node14</title>
<path fill="none" stroke="#191970" d="M1005,-117.8906C1005,-109.3657 1005,-96.6392 1005,-85.9235"/>
<polygon fill="#191970" stroke="#191970" points="1008.5001,-85.7448 1005,-75.7449 1001.5001,-85.7449 1008.5001,-85.7448"/>
</g>
<!-- Node15 -->
<g id="node16" class="node">
<title>Node15</title>
<g id="a_node16"><a xlink:href="simple__bounding__box_8h_source.html" target="_top" xlink:title="simple_bounding_box.h">
<polygon fill="none" stroke="#000000" points="844.5,-56.5 844.5,-75.5 963.5,-75.5 963.5,-56.5 844.5,-56.5"/>
<text text-anchor="middle" x="904" y="-63.5" font-family="Helvetica,sans-Serif" font-size="10.00" fill="#000000">simple_bounding_box.h</text>
</a>
</g>
</g>
<!-- Node12&#45;&gt;Node15 -->
<g id="edge18" class="edge">
<title>Node12&#45;&gt;Node15</title>
<path fill="none" stroke="#191970" d="M989.2188,-117.8906C972.9125,-107.9616 947.246,-92.333 928.3386,-80.8201"/>
<polygon fill="#191970" stroke="#191970" points="930.0319,-77.7533 919.6704,-75.5419 926.3913,-83.7322 930.0319,-77.7533"/>
</g>
<!-- Node15&#45;&gt;Node9 -->
<g id="edge23" class="edge">
<title>Node15&#45;&gt;Node9</title>
<path fill="none" stroke="#191970" d="M963.6622,-56.8742C966.4778,-56.5543 969.2679,-56.2602 972,-56 1373.2526,-17.7908 1864.0058,-11.2666 1989.6044,-10.2002"/>
<polygon fill="#191970" stroke="#191970" points="1989.9944,-13.6973 1999.9662,-10.1178 1989.9387,-6.6975 1989.9944,-13.6973"/>
</g>
<!-- Node15&#45;&gt;Node10 -->
<g id="edge24" class="edge">
<title>Node15&#45;&gt;Node10</title>
<path fill="none" stroke="#191970" d="M961.2079,-56.4369C1031.9587,-44.6099 1149.9697,-24.8827 1206.6617,-15.4058"/>
<polygon fill="#191970" stroke="#191970" points="1207.5438,-18.807 1216.8298,-13.7061 1206.3896,-11.9028 1207.5438,-18.807"/>
</g>
<!-- Node16 -->
<g id="node17" class="node">
<title>Node16</title>
<polygon fill="none" stroke="#bfbfbf" points="854,-.5 854,-19.5 954,-19.5 954,-.5 854,-.5"/>
<text text-anchor="middle" x="904" y="-7.5" font-family="Helvetica,sans-Serif" font-size="10.00" fill="#000000">deal.II/base/point.h</text>
</g>
<!-- Node15&#45;&gt;Node16 -->
<g id="edge19" class="edge">
<title>Node15&#45;&gt;Node16</title>
<path fill="none" stroke="#191970" d="M904,-56.2455C904,-48.9382 904,-38.6944 904,-29.7046"/>
<polygon fill="#191970" stroke="#191970" points="907.5001,-29.6426 904,-19.6427 900.5001,-29.6427 907.5001,-29.6426"/>
</g>
<!-- Node17 -->
<g id="node18" class="node">
<title>Node17</title>
<polygon fill="none" stroke="#bfbfbf" points="514.5,-.5 514.5,-19.5 641.5,-19.5 641.5,-.5 514.5,-.5"/>
<text text-anchor="middle" x="578" y="-7.5" font-family="Helvetica,sans-Serif" font-size="10.00" fill="#000000">deal.II/dofs/dof_handler.h</text>
</g>
<!-- Node15&#45;&gt;Node17 -->
<g id="edge20" class="edge">
<title>Node15&#45;&gt;Node17</title>
<path fill="none" stroke="#191970" d="M848.329,-56.4369C791.5989,-46.6918 703.645,-31.5832 643.5753,-21.2645"/>
<polygon fill="#191970" stroke="#191970" points="643.8896,-17.7673 633.4414,-19.5237 642.7044,-24.6662 643.8896,-17.7673"/>
</g>
<!-- Node18 -->
<g id="node19" class="node">
<title>Node18</title>
<polygon fill="none" stroke="#bfbfbf" points="700,-.5 700,-19.5 816,-19.5 816,-.5 700,-.5"/>
<text text-anchor="middle" x="758" y="-7.5" font-family="Helvetica,sans-Serif" font-size="10.00" fill="#000000">deal.II/dofs/dof_tools.h</text>
</g>
<!-- Node15&#45;&gt;Node18 -->
<g id="edge21" class="edge">
<title>Node15&#45;&gt;Node18</title>
<path fill="none" stroke="#191970" d="M878.9017,-56.3733C855.0445,-47.2226 818.9665,-33.3844 792.429,-23.2057"/>
<polygon fill="#191970" stroke="#191970" points="793.361,-19.8145 782.7708,-19.5011 790.8541,-26.3503 793.361,-19.8145"/>
</g>
<!-- Node19 -->
<g id="node20" class="node">
<title>Node19</title>
<polygon fill="none" stroke="#bfbfbf" points="314.5,-.5 314.5,-19.5 417.5,-19.5 417.5,-.5 314.5,-.5"/>
<text text-anchor="middle" x="366" y="-7.5" font-family="Helvetica,sans-Serif" font-size="10.00" fill="#000000">deal.II/fe/mapping.h</text>
</g>
<!-- Node15&#45;&gt;Node19 -->
<g id="edge22" class="edge">
<title>Node15&#45;&gt;Node19</title>
<path fill="none" stroke="#191970" d="M844.1834,-57.1586C841.0793,-56.7537 838.004,-56.3648 835,-56 689.3456,-38.3119 517.5998,-22.8315 427.7996,-15.1461"/>
<polygon fill="#191970" stroke="#191970" points="428.0496,-11.6548 417.7884,-14.2926 427.4549,-18.6295 428.0496,-11.6548"/>
</g>
<!-- Node20&#45;&gt;Node12 -->
<g id="edge26" class="edge">
<title>Node20&#45;&gt;Node12</title>
<path fill="none" stroke="#191970" d="M808.1506,-179.4581C851.6716,-167.9708 924.3609,-148.7846 968.1789,-137.2189"/>
<polygon fill="#191970" stroke="#191970" points="969.0899,-140.5984 977.8655,-134.6621 967.3034,-133.8302 969.0899,-140.5984"/>
</g>
<!-- Node21 -->
<g id="node22" class="node">
<title>Node21</title>
<g id="a_node22"><a xlink:href="debug__tools_8h.html" target="_top" xlink:title="This file includes a bunch of helper functions for printing out and visualizing information about gri...">
<polygon fill="none" stroke="#000000" points="559.5,-118 559.5,-137 636.5,-137 636.5,-118 559.5,-118"/>
<text text-anchor="middle" x="598" y="-125" font-family="Helvetica,sans-Serif" font-size="10.00" fill="#000000">debug_tools.h</text>
</a>
</g>
</g>
<!-- Node20&#45;&gt;Node21 -->
<g id="edge27" class="edge">
<title>Node20&#45;&gt;Node21</title>
<path fill="none" stroke="#191970" d="M744.8125,-179.3906C715.1883,-168.92 667.6313,-152.1111 634.7082,-140.4745"/>
<polygon fill="#191970" stroke="#191970" points="635.5914,-137.0745 624.9966,-137.0419 633.2586,-143.6744 635.5914,-137.0745"/>
</g>
<!-- Node24 -->
<g id="node25" class="node">
<title>Node24</title>
<g id="a_node25"><a xlink:href="tree_8h.html" target="_top" xlink:title="Implementation of the classes for binary tree node, general tree node and functions for manipulating ...">
<polygon fill="none" stroke="#000000" points="321.5,-118 321.5,-137 362.5,-137 362.5,-118 321.5,-118"/>
<text text-anchor="middle" x="342" y="-125" font-family="Helvetica,sans-Serif" font-size="10.00" fill="#000000">tree.h</text>
</a>
</g>
</g>
<!-- Node20&#45;&gt;Node24 -->
<g id="edge35" class="edge">
<title>Node20&#45;&gt;Node24</title>
<path fill="none" stroke="#191970" d="M733.8404,-183.5423C649.6243,-171.4974 449.261,-142.8408 372.5764,-131.8731"/>
<polygon fill="#191970" stroke="#191970" points="372.9965,-128.3977 362.6017,-130.4465 372.0054,-135.3272 372.9965,-128.3977"/>
</g>
<!-- Node21&#45;&gt;Node1 -->
<g id="edge33" class="edge">
<title>Node21&#45;&gt;Node1</title>
<path fill="none" stroke="#191970" d="M559.4572,-124.6718C456.5882,-116.9871 176.3168,-95.125 64.0234,-75.846"/>
<polygon fill="#191970" stroke="#191970" points="64.4692,-72.3702 54.0081,-74.0485 63.2325,-79.2601 64.4692,-72.3702"/>
</g>
<!-- Node21&#45;&gt;Node8 -->
<g id="edge34" class="edge">
<title>Node21&#45;&gt;Node8</title>
<path fill="none" stroke="#191970" d="M618.7813,-117.8906C640.8394,-107.6908 675.905,-91.4763 700.9669,-79.8875"/>
<polygon fill="#191970" stroke="#191970" points="702.7571,-82.9158 710.3647,-75.5419 699.8191,-76.5622 702.7571,-82.9158"/>
</g>
<!-- Node21&#45;&gt;Node17 -->
<g id="edge28" class="edge">
<title>Node21&#45;&gt;Node17</title>
<path fill="none" stroke="#191970" d="M559.3619,-120.188C517.5822,-111.4036 455.0519,-95.3979 441,-76 419.5905,-46.4452 461.2468,-29.5643 504.1039,-20.2876"/>
<polygon fill="#191970" stroke="#191970" points="505.0079,-23.6755 514.1116,-18.2557 503.6151,-16.8155 505.0079,-23.6755"/>
</g>
<!-- Node21&#45;&gt;Node18 -->
<g id="edge29" class="edge">
<title>Node21&#45;&gt;Node18</title>
<path fill="none" stroke="#191970" d="M611.0935,-117.8845C638.6352,-97.6585 702.7905,-50.5445 736.4736,-25.8085"/>
<polygon fill="#191970" stroke="#191970" points="738.7372,-28.4885 744.7256,-19.7484 734.5938,-22.8465 738.7372,-28.4885"/>
</g>
<!-- Node21&#45;&gt;Node19 -->
<g id="edge32" class="edge">
<title>Node21&#45;&gt;Node19</title>
<path fill="none" stroke="#191970" d="M559.2293,-120.9946C524.1108,-113.863 471.9113,-100.0931 432,-76 410.8939,-63.2589 391.5638,-42.3512 379.3533,-27.4838"/>
<polygon fill="#191970" stroke="#191970" points="381.993,-25.18 373.027,-19.5354 376.5161,-29.5393 381.993,-25.18"/>
</g>
<!-- Node22 -->
<g id="node23" class="node">
<title>Node22</title>
<polygon fill="none" stroke="#bfbfbf" points="450,-56.5 450,-75.5 524,-75.5 524,-56.5 450,-56.5"/>
<text text-anchor="middle" x="487" y="-63.5" font-family="Helvetica,sans-Serif" font-size="10.00" fill="#000000">deal.II/fe/fe.h</text>
</g>
<!-- Node21&#45;&gt;Node22 -->
<g id="edge30" class="edge">
<title>Node21&#45;&gt;Node22</title>
<path fill="none" stroke="#191970" d="M580.6563,-117.8906C562.5727,-107.8713 534.0141,-92.0483 513.1835,-80.5071"/>
<polygon fill="#191970" stroke="#191970" points="514.6654,-77.3268 504.222,-75.5419 511.2729,-83.4498 514.6654,-77.3268"/>
</g>
<!-- Node23 -->
<g id="node24" class="node">
<title>Node23</title>
<polygon fill="none" stroke="#bfbfbf" points="542,-56.5 542,-75.5 654,-75.5 654,-56.5 542,-56.5"/>
<text text-anchor="middle" x="598" y="-63.5" font-family="Helvetica,sans-Serif" font-size="10.00" fill="#000000">deal.II/fe/fe_system.h</text>
</g>
<!-- Node21&#45;&gt;Node23 -->
<g id="edge31" class="edge">
<title>Node21&#45;&gt;Node23</title>
<path fill="none" stroke="#191970" d="M598,-117.8906C598,-109.3657 598,-96.6392 598,-85.9235"/>
<polygon fill="#191970" stroke="#191970" points="601.5001,-85.7448 598,-75.7449 594.5001,-85.7449 601.5001,-85.7448"/>
</g>
<!-- Node24&#45;&gt;Node1 -->
<g id="edge41" class="edge">
<title>Node24&#45;&gt;Node1</title>
<path fill="none" stroke="#191970" d="M321.2205,-124.3097C276.1561,-117.2545 165.9293,-99.2624 63.9063,-76.0552"/>
<polygon fill="#191970" stroke="#191970" points="64.591,-72.6214 54.0612,-73.7933 63.0235,-79.4437 64.591,-72.6214"/>
</g>
<!-- Node24&#45;&gt;Node5 -->
<g id="edge37" class="edge">
<title>Node24&#45;&gt;Node5</title>
<path fill="none" stroke="#191970" d="M362.5957,-125.9518C423.6541,-121.1506 608.8548,-105.0613 760,-76 760.1005,-75.9807 760.2011,-75.9612 760.3018,-75.9417"/>
<polygon fill="#191970" stroke="#191970" points="760.8513,-79.4042 769.8752,-73.8527 759.3589,-72.5652 760.8513,-79.4042"/>
</g>
<!-- Node24&#45;&gt;Node10 -->
<g id="edge43" class="edge">
<title>Node24&#45;&gt;Node10</title>
<path fill="none" stroke="#191970" d="M351.2949,-117.8714C367.6568,-101.6526 403.4436,-69.3499 441,-56 477.6349,-42.9777 1061.8558,-17.4957 1206.7007,-11.3549"/>
<polygon fill="#191970" stroke="#191970" points="1206.8908,-14.8501 1216.734,-10.9307 1206.5951,-7.8564 1206.8908,-14.8501"/>
</g>
<!-- Node25 -->
<g id="node26" class="node">
<title>Node25</title>
<polygon fill="none" stroke="#bfbfbf" points="1085,-56.5 1085,-75.5 1211,-75.5 1211,-56.5 1085,-56.5"/>
<text text-anchor="middle" x="1148" y="-63.5" font-family="Helvetica,sans-Serif" font-size="10.00" fill="#000000">deal.II/base/exceptions.h</text>
</g>
<!-- Node24&#45;&gt;Node25 -->
<g id="edge36" class="edge">
<title>Node24&#45;&gt;Node25</title>
<path fill="none" stroke="#191970" d="M362.6655,-125.9559C400.0464,-123.1639 481.3874,-117.0925 550,-112 766.4397,-95.9357 820.691,-93.7375 1037,-76 1049.2492,-74.9956 1062.2535,-73.8739 1074.8841,-72.7551"/>
<polygon fill="#191970" stroke="#191970" points="1075.2624,-76.2353 1084.9119,-71.8607 1074.6404,-69.263 1075.2624,-76.2353"/>
</g>
<!-- Node26 -->
<g id="node27" class="node">
<title>Node26</title>
<polygon fill="none" stroke="#bfbfbf" points="72,-56.5 72,-75.5 110,-75.5 110,-56.5 72,-56.5"/>
<text text-anchor="middle" x="91" y="-63.5" font-family="Helvetica,sans-Serif" font-size="10.00" fill="#000000">array</text>
</g>
<!-- Node24&#45;&gt;Node26 -->
<g id="edge38" class="edge">
<title>Node24&#45;&gt;Node26</title>
<path fill="none" stroke="#191970" d="M321.1939,-123.5354C283.0568,-116.0909 199.289,-98.9171 119.8467,-76.0045"/>
<polygon fill="#191970" stroke="#191970" points="120.7636,-72.6261 110.1834,-73.1821 118.801,-79.3454 120.7636,-72.6261"/>
</g>
<!-- Node27 -->
<g id="node28" class="node">
<title>Node27</title>
<polygon fill="none" stroke="#bfbfbf" points="128.5,-56.5 128.5,-75.5 187.5,-75.5 187.5,-56.5 128.5,-56.5"/>
<text text-anchor="middle" x="158" y="-63.5" font-family="Helvetica,sans-Serif" font-size="10.00" fill="#000000">exception</text>
</g>
<!-- Node24&#45;&gt;Node27 -->
<g id="edge39" class="edge">
<title>Node24&#45;&gt;Node27</title>
<path fill="none" stroke="#191970" d="M321.2505,-120.5647C290.9677,-110.443 234.1471,-91.4513 196.1826,-78.7621"/>
<polygon fill="#191970" stroke="#191970" points="197.0829,-75.3727 186.4891,-75.5222 194.8638,-82.0117 197.0829,-75.3727"/>
</g>
<!-- Node28 -->
<g id="node29" class="node">
<title>Node28</title>
<polygon fill="none" stroke="#bfbfbf" points="205.5,-56.5 205.5,-75.5 264.5,-75.5 264.5,-56.5 205.5,-56.5"/>
<text text-anchor="middle" x="235" y="-63.5" font-family="Helvetica,sans-Serif" font-size="10.00" fill="#000000">functional</text>
</g>
<!-- Node24&#45;&gt;Node28 -->
<g id="edge40" class="edge">
<title>Node24&#45;&gt;Node28</title>
<path fill="none" stroke="#191970" d="M325.2813,-117.8906C307.9278,-107.9165 280.5677,-92.1908 260.5118,-80.6633"/>
<polygon fill="#191970" stroke="#191970" points="262.0154,-77.4907 251.6013,-75.5419 258.5272,-83.5596 262.0154,-77.4907"/>
</g>
<!-- Node29 -->
<g id="node30" class="node">
<title>Node29</title>
<polygon fill="none" stroke="#bfbfbf" points="282.5,-56.5 282.5,-75.5 317.5,-75.5 317.5,-56.5 282.5,-56.5"/>
<text text-anchor="middle" x="300" y="-63.5" font-family="Helvetica,sans-Serif" font-size="10.00" fill="#000000">new</text>
</g>
<!-- Node24&#45;&gt;Node29 -->
<g id="edge42" class="edge">
<title>Node24&#45;&gt;Node29</title>
<path fill="none" stroke="#191970" d="M335.4375,-117.8906C329.3092,-108.917 320.0015,-95.2879 312.4628,-84.2491"/>
<polygon fill="#191970" stroke="#191970" points="315.185,-82.029 306.655,-75.7449 309.4044,-85.9768 315.185,-82.029"/>
</g>
<!-- Node30&#45;&gt;Node11 -->
<g id="edge45" class="edge">
<title>Node30&#45;&gt;Node11</title>
<path fill="none" stroke="#191970" d="M801.5,-302.3906C808.5738,-293.3273 819.3542,-279.5149 828.0146,-268.4188"/>
<polygon fill="#191970" stroke="#191970" points="831.0006,-270.2815 834.3943,-260.2449 825.4824,-265.9746 831.0006,-270.2815"/>
</g>
<!-- Node30&#45;&gt;Node20 -->
<g id="edge46" class="edge">
<title>Node30&#45;&gt;Node20</title>
<path fill="none" stroke="#191970" d="M792.2737,-302.3484C788.6752,-282.2295 780.3101,-235.4608 775.5253,-208.7098"/>
<polygon fill="#191970" stroke="#191970" points="778.9244,-207.8343 773.7183,-198.6068 772.0337,-209.0668 778.9244,-207.8343"/>
</g>
<!-- Node30&#45;&gt;Node21 -->
<g id="edge47" class="edge">
<title>Node30&#45;&gt;Node21</title>
<path fill="none" stroke="#191970" d="M783.7382,-302.3402C752.0515,-272.5128 655.4935,-181.6202 615.5663,-144.0357"/>
<polygon fill="#191970" stroke="#191970" points="617.8407,-141.3699 608.1603,-137.0641 613.0428,-146.4669 617.8407,-141.3699"/>
</g>
<!-- Node30&#45;&gt;Node24 -->
<g id="edge65" class="edge">
<title>Node30&#45;&gt;Node24</title>
<path fill="none" stroke="#191970" d="M770.6503,-302.469C694.9211,-271.5574 456.1599,-174.0984 371.845,-139.6823"/>
<polygon fill="#191970" stroke="#191970" points="373.1571,-136.4376 362.576,-135.8988 370.5117,-142.9185 373.1571,-136.4376"/>
</g>
<!-- Node30&#45;&gt;Node31 -->
<g id="edge48" class="edge">
<title>Node30&#45;&gt;Node31</title>
<path fill="none" stroke="#191970" d="M846.1861,-308.0688C948.0661,-300.3513 1180.5723,-282.5282 1376,-266 1414.0399,-262.7828 1456.7893,-258.9315 1490.1531,-255.8727"/>
<polygon fill="#191970" stroke="#191970" points="1490.5526,-259.3508 1500.1904,-254.9505 1489.9121,-252.3802 1490.5526,-259.3508"/>
</g>
<!-- Node31&#45;&gt;Node7 -->
<g id="edge50" class="edge">
<title>Node31&#45;&gt;Node7</title>
<path fill="none" stroke="#191970" d="M1521.8249,-235.4554C1504.9113,-225.734 1483.0171,-213.15 1466.2828,-203.5317"/>
<polygon fill="#191970" stroke="#191970" points="1467.9953,-200.4791 1457.5812,-198.5303 1464.507,-206.548 1467.9953,-200.4791"/>
</g>
<!-- Node31&#45;&gt;Node10 -->
<g id="edge51" class="edge">
<title>Node31&#45;&gt;Node10</title>
<path fill="none" stroke="#191970" d="M1569.2164,-235.3005C1587.5306,-220.3355 1608.879,-197.1494 1594,-179 1542.2765,-115.9074 1471.8795,-200.4975 1414,-143 1385.9872,-115.1721 1422.7672,-85.0281 1396,-56 1379.1733,-37.752 1312.1375,-22.9787 1271.2974,-15.4418"/>
<polygon fill="#191970" stroke="#191970" points="1271.7395,-11.9653 1261.278,-13.6405 1270.5009,-18.8548 1271.7395,-11.9653"/>
</g>
<!-- Node32 -->
<g id="node33" class="node">
<title>Node32</title>
<polygon fill="none" stroke="#bfbfbf" points="1642,-179.5 1642,-198.5 1682,-198.5 1682,-179.5 1642,-179.5"/>
<text text-anchor="middle" x="1662" y="-186.5" font-family="Helvetica,sans-Serif" font-size="10.00" fill="#000000">limits</text>
</g>
<!-- Node31&#45;&gt;Node32 -->
<g id="edge49" class="edge">
<title>Node31&#45;&gt;Node32</title>
<path fill="none" stroke="#191970" d="M1575.8875,-235.4554C1593.9076,-225.734 1617.2341,-213.15 1635.0632,-203.5317"/>
<polygon fill="#191970" stroke="#191970" points="1637.1948,-206.3586 1644.334,-198.5303 1633.8713,-200.1979 1637.1948,-206.3586"/>
</g>
<!-- Node33 -->
<g id="node34" class="node">
<title>Node33</title>
<g id="a_node34"><a xlink:href="general__exceptions_8h.html" target="_top" xlink:title="Definition of self&#45;defined general exceptions. ">
<polygon fill="none" stroke="#000000" points="1476.5,-179.5 1476.5,-198.5 1585.5,-198.5 1585.5,-179.5 1476.5,-179.5"/>
<text text-anchor="middle" x="1531" y="-186.5" font-family="Helvetica,sans-Serif" font-size="10.00" fill="#000000">general_exceptions.h</text>
</a>
</g>
</g>
<!-- Node31&#45;&gt;Node33 -->
<g id="edge52" class="edge">
<title>Node31&#45;&gt;Node33</title>
<path fill="none" stroke="#191970" d="M1543.7978,-235.2977C1541.5609,-227.2055 1538.7851,-217.1639 1536.391,-208.5029"/>
<polygon fill="#191970" stroke="#191970" points="1539.7598,-207.5529 1533.7219,-198.8469 1533.0128,-209.418 1539.7598,-207.5529"/>
</g>
<!-- Node34 -->
<g id="node35" class="node">
<title>Node34</title>
<g id="a_node35"><a xlink:href="lapack__helpers_8h.html" target="_top" xlink:title="Exposes LAPACK helper functions defined in lapack_full_matrix.cc and define new ones by following the...">
<polygon fill="none" stroke="#000000" points="1963,-179.5 1963,-198.5 2053,-198.5 2053,-179.5 1963,-179.5"/>
<text text-anchor="middle" x="2008" y="-186.5" font-family="Helvetica,sans-Serif" font-size="10.00" fill="#000000">lapack_helpers.h</text>
</a>
</g>
</g>
<!-- Node31&#45;&gt;Node34 -->
<g id="edge54" class="edge">
<title>Node31&#45;&gt;Node34</title>
<path fill="none" stroke="#191970" d="M1595.9263,-244.0925C1681.8966,-232.5986 1861.8114,-208.5448 1952.7951,-196.3806"/>
<polygon fill="#191970" stroke="#191970" points="1953.4599,-199.823 1962.9078,-195.0286 1952.5322,-192.8847 1953.4599,-199.823"/>
</g>
<!-- Node33&#45;&gt;Node25 -->
<g id="edge53" class="edge">
<title>Node33&#45;&gt;Node25</title>
<path fill="none" stroke="#191970" d="M1499.0428,-179.4181C1468.6323,-170.2484 1421.6178,-155.9379 1381,-143 1311.9812,-121.0155 1231.8635,-94.2683 1185.8344,-78.7821"/>
<polygon fill="#191970" stroke="#191970" points="1186.8647,-75.436 1176.2706,-75.5615 1184.6306,-82.07 1186.8647,-75.436"/>
</g>
<!-- Node34&#45;&gt;Node4 -->
<g id="edge58" class="edge">
<title>Node34&#45;&gt;Node4</title>
<path fill="none" stroke="#191970" d="M1962.696,-186.3947C1879.9182,-181.2079 1698.855,-167.8879 1548,-143 1541.6609,-141.9542 1535.0264,-140.6632 1528.5007,-139.2762"/>
<polygon fill="#191970" stroke="#191970" points="1528.9139,-135.783 1518.3938,-137.0392 1527.4011,-142.6176 1528.9139,-135.783"/>
</g>
<!-- Node35 -->
<g id="node36" class="node">
<title>Node35</title>
<polygon fill="none" stroke="#bfbfbf" points="2193,-118 2193,-137 2309,-137 2309,-118 2193,-118"/>
<text text-anchor="middle" x="2251" y="-125" font-family="Helvetica,sans-Serif" font-size="10.00" fill="#000000">deal.II/base/numbers.h</text>
</g>
<!-- Node34&#45;&gt;Node35 -->
<g id="edge55" class="edge">
<title>Node34&#45;&gt;Node35</title>
<path fill="none" stroke="#191970" d="M2045.7021,-179.4581C2088.1772,-168.7082 2157.292,-151.2162 2203.4413,-139.5365"/>
<polygon fill="#191970" stroke="#191970" points="2204.3738,-142.9109 2213.2094,-137.0643 2202.6563,-136.1248 2204.3738,-142.9109"/>
</g>
<!-- Node36 -->
<g id="node37" class="node">
<title>Node36</title>
<polygon fill="none" stroke="#bfbfbf" points="1557,-112.5 1557,-142.5 1685,-142.5 1685,-112.5 1557,-112.5"/>
<text text-anchor="start" x="1565" y="-130.5" font-family="Helvetica,sans-Serif" font-size="10.00" fill="#000000">deal.II/lac/blas_extension</text>
<text text-anchor="middle" x="1621" y="-119.5" font-family="Helvetica,sans-Serif" font-size="10.00" fill="#000000">_templates.h</text>
</g>
<!-- Node34&#45;&gt;Node36 -->
<g id="edge56" class="edge">
<title>Node34&#45;&gt;Node36</title>
<path fill="none" stroke="#191970" d="M1962.8755,-183.309C1903.7189,-175.6454 1796.5057,-161.0613 1695.1524,-143.1418"/>
<polygon fill="#191970" stroke="#191970" points="1695.5078,-139.6501 1685.0487,-141.3407 1694.2793,-146.5414 1695.5078,-139.6501"/>
</g>
<!-- Node37 -->
<g id="node38" class="node">
<title>Node37</title>
<polygon fill="none" stroke="#bfbfbf" points="1703,-118 1703,-137 1829,-137 1829,-118 1703,-118"/>
<text text-anchor="middle" x="1766" y="-125" font-family="Helvetica,sans-Serif" font-size="10.00" fill="#000000">deal.II/lac/block_vector.h</text>
</g>
<!-- Node34&#45;&gt;Node37 -->
<g id="edge57" class="edge">
<title>Node34&#45;&gt;Node37</title>
<path fill="none" stroke="#191970" d="M1970.453,-179.4581C1928.1528,-168.7082 1859.3223,-151.2162 1813.363,-139.5365"/>
<polygon fill="#191970" stroke="#191970" points="1814.1891,-136.1352 1803.6351,-137.0643 1812.4649,-142.9196 1814.1891,-136.1352"/>
</g>
<!-- Node38 -->
<g id="node39" class="node">
<title>Node38</title>
<polygon fill="none" stroke="#bfbfbf" points="2475.5,-112.5 2475.5,-142.5 2566.5,-142.5 2566.5,-112.5 2475.5,-112.5"/>
<text text-anchor="start" x="2483.5" y="-130.5" font-family="Helvetica,sans-Serif" font-size="10.00" fill="#000000">deal.II/lac/lapack</text>
<text text-anchor="middle" x="2521" y="-119.5" font-family="Helvetica,sans-Serif" font-size="10.00" fill="#000000">_full_matrix.h</text>
</g>
<!-- Node34&#45;&gt;Node38 -->
<g id="edge59" class="edge">
<title>Node34&#45;&gt;Node38</title>
<path fill="none" stroke="#191970" d="M2053.0529,-184.8602C2129.9133,-177.6174 2291.2427,-161.6309 2427,-143 2439.4126,-141.2965 2452.7097,-139.2441 2465.281,-137.1983"/>
<polygon fill="#191970" stroke="#191970" points="2465.8798,-140.6469 2475.1767,-135.5658 2464.7403,-133.7402 2465.8798,-140.6469"/>
</g>
<!-- Node39 -->
<g id="node40" class="node">
<title>Node39</title>
<polygon fill="none" stroke="#bfbfbf" points="2584.5,-112.5 2584.5,-142.5 2675.5,-142.5 2675.5,-112.5 2584.5,-112.5"/>
<text text-anchor="start" x="2592.5" y="-130.5" font-family="Helvetica,sans-Serif" font-size="10.00" fill="#000000">deal.II/lac/lapack</text>
<text text-anchor="middle" x="2630" y="-119.5" font-family="Helvetica,sans-Serif" font-size="10.00" fill="#000000">_support.h</text>
</g>
<!-- Node34&#45;&gt;Node39 -->
<g id="edge60" class="edge">
<title>Node34&#45;&gt;Node39</title>
<path fill="none" stroke="#191970" d="M2053.2184,-188.2966C2148.1856,-186.183 2375.3165,-177.7876 2574.1916,-142.9021"/>
<polygon fill="#191970" stroke="#191970" points="2575.0075,-146.3119 2584.2388,-141.1125 2573.7799,-139.4204 2575.0075,-146.3119"/>
</g>
<!-- Node40 -->
<g id="node41" class="node">
<title>Node40</title>
<polygon fill="none" stroke="#bfbfbf" points="2327.5,-112.5 2327.5,-142.5 2418.5,-142.5 2418.5,-112.5 2327.5,-112.5"/>
<text text-anchor="start" x="2335.5" y="-130.5" font-family="Helvetica,sans-Serif" font-size="10.00" fill="#000000">deal.II/lac/lapack</text>
<text text-anchor="middle" x="2373" y="-119.5" font-family="Helvetica,sans-Serif" font-size="10.00" fill="#000000">_templates.h</text>
</g>
<!-- Node34&#45;&gt;Node40 -->
<g id="edge61" class="edge">
<title>Node34&#45;&gt;Node40</title>
<path fill="none" stroke="#191970" d="M2053.2432,-184.1178C2111.9487,-177.3802 2217.6703,-163.8772 2317.5379,-142.9248"/>
<polygon fill="#191970" stroke="#191970" points="2318.4404,-146.3112 2327.4932,-140.8068 2316.9837,-139.4644 2318.4404,-146.3112"/>
</g>
<!-- Node41 -->
<g id="node42" class="node">
<title>Node41</title>
<polygon fill="none" stroke="#bfbfbf" points="1847,-112.5 1847,-142.5 1939,-142.5 1939,-112.5 1847,-112.5"/>
<text text-anchor="start" x="1855" y="-130.5" font-family="Helvetica,sans-Serif" font-size="10.00" fill="#000000">deal.II/lac/sparse</text>
<text text-anchor="middle" x="1893" y="-119.5" font-family="Helvetica,sans-Serif" font-size="10.00" fill="#000000">_matrix.h</text>
</g>
<!-- Node34&#45;&gt;Node41 -->
<g id="edge62" class="edge">
<title>Node34&#45;&gt;Node41</title>
<path fill="none" stroke="#191970" d="M1990.0313,-179.3906C1974.0351,-170.8361 1950.1277,-158.0509 1930.047,-147.3121"/>
<polygon fill="#191970" stroke="#191970" points="1931.601,-144.1741 1921.1322,-142.5446 1928.2998,-150.3469 1931.601,-144.1741"/>
</g>
<!-- Node42 -->
<g id="node43" class="node">
<title>Node42</title>
<polygon fill="none" stroke="#bfbfbf" points="1957.5,-118 1957.5,-137 2058.5,-137 2058.5,-118 1957.5,-118"/>
<text text-anchor="middle" x="2008" y="-125" font-family="Helvetica,sans-Serif" font-size="10.00" fill="#000000">deal.II/lac/utilities.h</text>
</g>
<!-- Node34&#45;&gt;Node42 -->
<g id="edge63" class="edge">
<title>Node34&#45;&gt;Node42</title>
<path fill="none" stroke="#191970" d="M2008,-179.3906C2008,-170.8657 2008,-158.1392 2008,-147.4235"/>
<polygon fill="#191970" stroke="#191970" points="2011.5001,-147.2448 2008,-137.2449 2004.5001,-147.2449 2011.5001,-147.2448"/>
</g>
<!-- Node43 -->
<g id="node44" class="node">
<title>Node43</title>
<polygon fill="none" stroke="#bfbfbf" points="2077,-118 2077,-137 2175,-137 2175,-118 2077,-118"/>
<text text-anchor="middle" x="2126" y="-125" font-family="Helvetica,sans-Serif" font-size="10.00" fill="#000000">deal.II/lac/vector.h</text>
</g>
<!-- Node34&#45;&gt;Node43 -->
<g id="edge64" class="edge">
<title>Node34&#45;&gt;Node43</title>
<path fill="none" stroke="#191970" d="M2026.4375,-179.3906C2045.8347,-169.2811 2076.569,-153.2628 2098.7617,-141.6962"/>
<polygon fill="#191970" stroke="#191970" points="2100.4418,-144.7675 2107.692,-137.0419 2097.2064,-138.56 2100.4418,-144.7675"/>
</g>
<!-- Node44&#45;&gt;Node7 -->
<g id="edge68" class="edge">
<title>Node44&#45;&gt;Node7</title>
<path fill="none" stroke="#191970" d="M1338.0625,-240.8906C1358.4691,-230.6037 1391.0119,-214.1989 1414.0378,-202.5916"/>
<polygon fill="#191970" stroke="#191970" points="1415.9061,-205.5694 1423.2602,-197.9426 1412.7551,-199.3187 1415.9061,-205.5694"/>
</g>
<!-- Node44&#45;&gt;Node10 -->
<g id="edge69" class="edge">
<title>Node44&#45;&gt;Node10</title>
<path fill="none" stroke="#191970" d="M1324.0667,-240.9779C1342.1965,-206.3056 1401.5888,-87.199 1379,-56 1366.2114,-38.3368 1308.374,-23.7998 1271.1556,-16.0579"/>
<polygon fill="#191970" stroke="#191970" points="1271.7546,-12.6083 1261.2594,-14.0575 1270.3677,-19.4695 1271.7546,-12.6083"/>
</g>
<!-- Node44&#45;&gt;Node13 -->
<g id="edge67" class="edge">
<title>Node44&#45;&gt;Node13</title>
<path fill="none" stroke="#191970" d="M1319,-240.8402C1319,-211.8223 1319,-125.0088 1319,-85.7113"/>
<polygon fill="#191970" stroke="#191970" points="1322.5001,-85.5641 1319,-75.5641 1315.5001,-85.5642 1322.5001,-85.5641"/>
</g>
<!-- Node45&#45;&gt;Node4 -->
<g id="edge73" class="edge">
<title>Node45&#45;&gt;Node4</title>
<path fill="none" stroke="#191970" d="M2342.975,-306.1345C2235.2261,-285.025 1857.9774,-210.5935 1548,-143 1542.6049,-141.8236 1536.9724,-140.5663 1531.3643,-139.2958"/>
<polygon fill="#191970" stroke="#191970" points="1531.881,-135.8237 1521.3527,-137.0092 1530.3223,-142.648 1531.881,-135.8237"/>
</g>
<!-- Node45&#45;&gt;Node7 -->
<g id="edge78" class="edge">
<title>Node45&#45;&gt;Node7</title>
<path fill="none" stroke="#191970" d="M2342.8115,-311.1934C2192.296,-307.0749 1528.6608,-287.7381 1491,-266 1468.972,-253.2853 1454.9786,-226.5045 1447.562,-208.133"/>
<polygon fill="#191970" stroke="#191970" points="1450.8124,-206.8326 1444.0264,-198.6962 1444.2574,-209.2885 1450.8124,-206.8326"/>
</g>
<!-- Node45&#45;&gt;Node10 -->
<g id="edge79" class="edge">
<title>Node45&#45;&gt;Node10</title>
<path fill="none" stroke="#191970" d="M2389.2376,-302.2634C2414.1533,-287.3999 2463.4068,-258.3196 2506,-235 2590.3472,-188.8203 2749.5588,-182.3496 2684,-112 2634.1003,-58.4538 1479.7292,-17.9363 1271.1504,-11.0398"/>
<polygon fill="#191970" stroke="#191970" points="1271.2489,-7.5412 1261.1392,-10.7106 1271.0188,-14.5374 1271.2489,-7.5412"/>
</g>
<!-- Node45&#45;&gt;Node13 -->
<g id="edge72" class="edge">
<title>Node45&#45;&gt;Node13</title>
<path fill="none" stroke="#191970" d="M2381.1861,-302.1014C2406.7487,-269.9826 2480.2827,-167.5407 2427,-112 2390.5942,-74.0514 1609.051,-67.3716 1380.9648,-66.229"/>
<polygon fill="#191970" stroke="#191970" points="1380.8619,-62.7286 1370.8451,-66.1802 1380.828,-69.7285 1380.8619,-62.7286"/>
</g>
<!-- Node45&#45;&gt;Node31 -->
<g id="edge80" class="edge">
<title>Node45&#45;&gt;Node31</title>
<path fill="none" stroke="#191970" d="M2342.6594,-309.7382C2221.053,-300.673 1767.7015,-266.8777 1605.8666,-254.8137"/>
<polygon fill="#191970" stroke="#191970" points="1605.8675,-251.3041 1595.635,-254.051 1605.3471,-258.2848 1605.8675,-251.3041"/>
</g>
<!-- Node45&#45;&gt;Node38 -->
<g id="edge74" class="edge">
<title>Node45&#45;&gt;Node38</title>
<path fill="none" stroke="#191970" d="M2403.066,-309.374C2452.5629,-304.3596 2547.7611,-291.5687 2568,-266 2595.2527,-231.5705 2564.2401,-180.4569 2541.2438,-150.9101"/>
<polygon fill="#191970" stroke="#191970" points="2543.7311,-148.4187 2534.7318,-142.8275 2538.2802,-152.8104 2543.7311,-148.4187"/>
</g>
<!-- Node45&#45;&gt;Node39 -->
<g id="edge75" class="edge">
<title>Node45&#45;&gt;Node39</title>
<path fill="none" stroke="#191970" d="M2403.1806,-309.2987C2455.8062,-303.9957 2561.3086,-290.5468 2588,-266 2619.9297,-236.6357 2627.8949,-183.887 2629.6968,-152.6494"/>
<polygon fill="#191970" stroke="#191970" points="2633.1973,-152.7049 2630.1063,-142.571 2626.2031,-152.4207 2633.1973,-152.7049"/>
</g>
<!-- Node45&#45;&gt;Node40 -->
<g id="edge76" class="edge">
<title>Node45&#45;&gt;Node40</title>
<path fill="none" stroke="#191970" d="M2373,-302.3402C2373,-274.6387 2373,-194.2663 2373,-152.8429"/>
<polygon fill="#191970" stroke="#191970" points="2376.5001,-152.7363 2373,-142.7363 2369.5001,-152.7364 2376.5001,-152.7363"/>
</g>
<!-- Node46 -->
<g id="node47" class="node">
<title>Node46</title>
<polygon fill="none" stroke="#bfbfbf" points="2515,-241 2515,-260 2559,-260 2559,-241 2515,-241"/>
<text text-anchor="middle" x="2537" y="-248" font-family="Helvetica,sans-Serif" font-size="10.00" fill="#000000">cmath</text>
</g>
<!-- Node45&#45;&gt;Node46 -->
<g id="edge77" class="edge">
<title>Node45&#45;&gt;Node46</title>
<path fill="none" stroke="#191970" d="M2401.1515,-302.442C2427.2108,-293.4625 2466.9529,-279.4327 2501,-266 2502.6102,-265.3647 2504.2558,-264.7027 2505.9139,-264.0254"/>
<polygon fill="#191970" stroke="#191970" points="2507.5138,-267.1501 2515.3876,-260.0612 2504.8116,-260.6927 2507.5138,-267.1501"/>
</g>
</g>
</svg>
