<?xml version="1.0" encoding="UTF-8" standalone="no"?>
<!DOCTYPE svg PUBLIC "-//W3C//DTD SVG 1.1//EN"
 "http://www.w3.org/Graphics/SVG/1.1/DTD/svg11.dtd">
<!-- Generated by graphviz version 2.40.1 (20161225.0304)
 -->
<!-- Title: /home/jihuan/Projects/deal.ii/program/dealii&#45;9.1.1/examples/laplace&#45;bem/tests/rkmatrix&#45;truncate&#45;to&#45;rank/rkmatrix&#45;truncate&#45;to&#45;rank.cc Pages: 1 -->
<svg width="2631pt" height="396pt"
 viewBox="0.00 0.00 2630.50 396.00" xmlns="http://www.w3.org/2000/svg" xmlns:xlink="http://www.w3.org/1999/xlink">
<g id="graph0" class="graph" transform="scale(1 1) rotate(0) translate(4 392)">
<title>/home/jihuan/Projects/deal.ii/program/dealii&#45;9.1.1/examples/laplace&#45;bem/tests/rkmatrix&#45;truncate&#45;to&#45;rank/rkmatrix&#45;truncate&#45;to&#45;rank.cc</title>
<!-- Node0 -->
<g id="node1" class="node">
<title>Node0</title>
<polygon fill="#bfbfbf" stroke="#000000" points="669,-313.5 669,-387.5 809,-387.5 809,-313.5 669,-313.5"/>
<text text-anchor="start" x="677" y="-375.5" font-family="Helvetica,sans-Serif" font-size="10.00" fill="#000000">/home/jihuan/Projects</text>
<text text-anchor="start" x="677" y="-364.5" font-family="Helvetica,sans-Serif" font-size="10.00" fill="#000000">/deal.ii/program/dealii</text>
<text text-anchor="start" x="677" y="-353.5" font-family="Helvetica,sans-Serif" font-size="10.00" fill="#000000">&#45;9.1.1/examples/laplace</text>
<text text-anchor="start" x="677" y="-342.5" font-family="Helvetica,sans-Serif" font-size="10.00" fill="#000000">&#45;bem/tests/rkmatrix&#45;truncate</text>
<text text-anchor="start" x="677" y="-331.5" font-family="Helvetica,sans-Serif" font-size="10.00" fill="#000000">&#45;to&#45;rank/rkmatrix&#45;truncate</text>
<text text-anchor="middle" x="739" y="-320.5" font-family="Helvetica,sans-Serif" font-size="10.00" fill="#000000">&#45;to&#45;rank.cc</text>
</g>
<!-- Node1 -->
<g id="node2" class="node">
<title>Node1</title>
<g id="a_node2"><a xlink:href="debug__tools_8h.html" target="_top" xlink:title="This file includes a bunch of helper functions for printing out and visualizing information about gri...">
<polygon fill="none" stroke="#000000" points="387.5,-257.5 387.5,-276.5 464.5,-276.5 464.5,-257.5 387.5,-257.5"/>
<text text-anchor="middle" x="426" y="-264.5" font-family="Helvetica,sans-Serif" font-size="10.00" fill="#000000">debug_tools.h</text>
</a>
</g>
</g>
<!-- Node0&#45;&gt;Node1 -->
<g id="edge1" class="edge">
<title>Node0&#45;&gt;Node1</title>
<path fill="none" stroke="#191970" d="M668.7567,-331.761C608.6016,-315.7132 523.7203,-293.0692 471.9094,-279.2474"/>
<polygon fill="#191970" stroke="#191970" points="472.5696,-275.8012 462.0053,-276.6052 470.7652,-282.5646 472.5696,-275.8012"/>
</g>
<!-- Node9 -->
<g id="node10" class="node">
<title>Node9</title>
<g id="a_node10"><a xlink:href="rkmatrix_8h.html" target="_top" xlink:title="Definition of rank&#45;k matrix. ">
<polygon fill="none" stroke="#000000" points="1216,-257.5 1216,-276.5 1276,-276.5 1276,-257.5 1216,-257.5"/>
<text text-anchor="middle" x="1246" y="-264.5" font-family="Helvetica,sans-Serif" font-size="10.00" fill="#000000">rkmatrix.h</text>
</a>
</g>
</g>
<!-- Node0&#45;&gt;Node9 -->
<g id="edge9" class="edge">
<title>Node0&#45;&gt;Node9</title>
<path fill="none" stroke="#191970" d="M809.2298,-338.9335C917.1257,-321.1637 1120.1786,-287.7221 1206.0432,-273.5807"/>
<polygon fill="#191970" stroke="#191970" points="1206.621,-277.0327 1215.9193,-271.9541 1205.4834,-270.1258 1206.621,-277.0327"/>
</g>
<!-- Node2 -->
<g id="node3" class="node">
<title>Node2</title>
<polygon fill="none" stroke="#bfbfbf" points="416.5,-196 416.5,-215 543.5,-215 543.5,-196 416.5,-196"/>
<text text-anchor="middle" x="480" y="-203" font-family="Helvetica,sans-Serif" font-size="10.00" fill="#000000">deal.II/dofs/dof_handler.h</text>
</g>
<!-- Node1&#45;&gt;Node2 -->
<g id="edge2" class="edge">
<title>Node1&#45;&gt;Node2</title>
<path fill="none" stroke="#191970" d="M434.4375,-257.3906C442.5531,-248.1478 455.0055,-233.966 464.8424,-222.7628"/>
<polygon fill="#191970" stroke="#191970" points="467.4755,-225.0686 471.4435,-215.2449 462.2154,-220.45 467.4755,-225.0686"/>
</g>
<!-- Node3 -->
<g id="node4" class="node">
<title>Node3</title>
<polygon fill="none" stroke="#bfbfbf" points="562,-196 562,-215 678,-215 678,-196 562,-196"/>
<text text-anchor="middle" x="620" y="-203" font-family="Helvetica,sans-Serif" font-size="10.00" fill="#000000">deal.II/dofs/dof_tools.h</text>
</g>
<!-- Node1&#45;&gt;Node3 -->
<g id="edge3" class="edge">
<title>Node1&#45;&gt;Node3</title>
<path fill="none" stroke="#191970" d="M456.3125,-257.3906C489.6265,-246.8298 543.2808,-229.8208 580.0181,-218.1747"/>
<polygon fill="#191970" stroke="#191970" points="581.4256,-221.4002 589.9004,-215.0419 579.3102,-214.7275 581.4256,-221.4002"/>
</g>
<!-- Node4 -->
<g id="node5" class="node">
<title>Node4</title>
<polygon fill="none" stroke="#bfbfbf" points="0,-196 0,-215 74,-215 74,-196 0,-196"/>
<text text-anchor="middle" x="37" y="-203" font-family="Helvetica,sans-Serif" font-size="10.00" fill="#000000">deal.II/fe/fe.h</text>
</g>
<!-- Node1&#45;&gt;Node4 -->
<g id="edge4" class="edge">
<title>Node1&#45;&gt;Node4</title>
<path fill="none" stroke="#191970" d="M387.4997,-264.257C323.584,-259.1659 191.8305,-246.3857 83,-221 79.53,-220.1906 75.9514,-219.2257 72.3948,-218.1789"/>
<polygon fill="#191970" stroke="#191970" points="73.1274,-214.7401 62.5378,-215.0723 71.0232,-221.4164 73.1274,-214.7401"/>
</g>
<!-- Node5 -->
<g id="node6" class="node">
<title>Node5</title>
<polygon fill="none" stroke="#bfbfbf" points="92,-196 92,-215 204,-215 204,-196 92,-196"/>
<text text-anchor="middle" x="148" y="-203" font-family="Helvetica,sans-Serif" font-size="10.00" fill="#000000">deal.II/fe/fe_system.h</text>
</g>
<!-- Node1&#45;&gt;Node5 -->
<g id="edge5" class="edge">
<title>Node1&#45;&gt;Node5</title>
<path fill="none" stroke="#191970" d="M387.4663,-258.9371C344.7602,-249.9409 273.8712,-234.829 213,-221 207.9675,-219.8567 202.7214,-218.6427 197.4877,-217.4171"/>
<polygon fill="#191970" stroke="#191970" points="198.0343,-213.9501 187.4979,-215.0615 196.4277,-220.7633 198.0343,-213.9501"/>
</g>
<!-- Node6 -->
<g id="node7" class="node">
<title>Node6</title>
<polygon fill="none" stroke="#bfbfbf" points="222.5,-196 222.5,-215 325.5,-215 325.5,-196 222.5,-196"/>
<text text-anchor="middle" x="274" y="-203" font-family="Helvetica,sans-Serif" font-size="10.00" fill="#000000">deal.II/fe/mapping.h</text>
</g>
<!-- Node1&#45;&gt;Node6 -->
<g id="edge6" class="edge">
<title>Node1&#45;&gt;Node6</title>
<path fill="none" stroke="#191970" d="M402.25,-257.3906C376.7061,-247.0554 335.8991,-230.5447 307.189,-218.9284"/>
<polygon fill="#191970" stroke="#191970" points="308.166,-215.5481 297.5832,-215.0419 305.5404,-222.0371 308.166,-215.5481"/>
</g>
<!-- Node7 -->
<g id="node8" class="node">
<title>Node7</title>
<polygon fill="none" stroke="#bfbfbf" points="344,-196 344,-215 398,-215 398,-196 344,-196"/>
<text text-anchor="middle" x="371" y="-203" font-family="Helvetica,sans-Serif" font-size="10.00" fill="#000000">iostream</text>
</g>
<!-- Node1&#45;&gt;Node7 -->
<g id="edge7" class="edge">
<title>Node1&#45;&gt;Node7</title>
<path fill="none" stroke="#191970" d="M417.4063,-257.3906C409.1403,-248.1478 396.4574,-233.966 386.4383,-222.7628"/>
<polygon fill="#191970" stroke="#191970" points="388.99,-220.3657 379.7149,-215.2449 383.7722,-225.0321 388.99,-220.3657"/>
</g>
<!-- Node8 -->
<g id="node9" class="node">
<title>Node8</title>
<polygon fill="none" stroke="#bfbfbf" points="814.5,-134.5 814.5,-153.5 855.5,-153.5 855.5,-134.5 814.5,-134.5"/>
<text text-anchor="middle" x="835" y="-141.5" font-family="Helvetica,sans-Serif" font-size="10.00" fill="#000000">string</text>
</g>
<!-- Node1&#45;&gt;Node8 -->
<g id="edge8" class="edge">
<title>Node1&#45;&gt;Node8</title>
<path fill="none" stroke="#191970" d="M464.5093,-263.9111C516.2456,-258.9352 610.5322,-246.944 687,-221 733.3281,-205.2818 782.9503,-176.7852 811.3522,-159.2148"/>
<polygon fill="#191970" stroke="#191970" points="813.5211,-161.986 820.1352,-153.7092 809.8032,-156.0549 813.5211,-161.986"/>
</g>
<!-- Node10 -->
<g id="node11" class="node">
<title>Node10</title>
<polygon fill="none" stroke="#bfbfbf" points="1158.5,-73 1158.5,-92 1261.5,-92 1261.5,-73 1158.5,-73"/>
<text text-anchor="middle" x="1210" y="-80" font-family="Helvetica,sans-Serif" font-size="10.00" fill="#000000">deal.II/base/types.h</text>
</g>
<!-- Node9&#45;&gt;Node10 -->
<g id="edge10" class="edge">
<title>Node9&#45;&gt;Node10</title>
<path fill="none" stroke="#191970" d="M1261.3511,-257.3199C1294.2039,-235.3773 1365.9147,-180.1726 1335,-134 1325.4736,-119.7718 1286.2014,-105.0331 1254.185,-94.9876"/>
<polygon fill="#191970" stroke="#191970" points="1255.1094,-91.6103 1244.5228,-92.0264 1253.0583,-98.303 1255.1094,-91.6103"/>
</g>
<!-- Node11 -->
<g id="node12" class="node">
<title>Node11</title>
<polygon fill="none" stroke="#bfbfbf" points="2288,-73 2288,-92 2404,-92 2404,-73 2288,-73"/>
<text text-anchor="middle" x="2346" y="-80" font-family="Helvetica,sans-Serif" font-size="10.00" fill="#000000">deal.II/lac/full_matrix.h</text>
</g>
<!-- Node9&#45;&gt;Node11 -->
<g id="edge11" class="edge">
<title>Node9&#45;&gt;Node11</title>
<path fill="none" stroke="#191970" d="M1276.1192,-262.24C1373.3987,-246.8472 1687.9664,-196.9247 1948,-154 2095.2095,-129.6996 2132.6979,-127.2718 2279,-98 2284.6999,-96.8596 2290.6552,-95.5923 2296.5625,-94.2876"/>
<polygon fill="#191970" stroke="#191970" points="2297.4177,-97.6828 2306.4052,-92.0726 2295.8807,-90.8536 2297.4177,-97.6828"/>
</g>
<!-- Node12 -->
<g id="node13" class="node">
<title>Node12</title>
<polygon fill="none" stroke="#bfbfbf" points="2422.5,-67.5 2422.5,-97.5 2513.5,-97.5 2513.5,-67.5 2422.5,-67.5"/>
<text text-anchor="start" x="2430.5" y="-85.5" font-family="Helvetica,sans-Serif" font-size="10.00" fill="#000000">deal.II/lac/lapack</text>
<text text-anchor="middle" x="2468" y="-74.5" font-family="Helvetica,sans-Serif" font-size="10.00" fill="#000000">_full_matrix.h</text>
</g>
<!-- Node9&#45;&gt;Node12 -->
<g id="edge12" class="edge">
<title>Node9&#45;&gt;Node12</title>
<path fill="none" stroke="#191970" d="M1276.0642,-264.0322C1342.9983,-257.3212 1509.3379,-240.0707 1648,-221 1985.8237,-174.5379 2074.9794,-172.2034 2412.4272,-97.9807"/>
<polygon fill="#191970" stroke="#191970" points="2413.4718,-101.3346 2422.4838,-95.7637 2411.9648,-94.4987 2413.4718,-101.3346"/>
</g>
<!-- Node13 -->
<g id="node14" class="node">
<title>Node13</title>
<polygon fill="none" stroke="#bfbfbf" points="1181.5,-.5 1181.5,-30.5 1272.5,-30.5 1272.5,-.5 1181.5,-.5"/>
<text text-anchor="start" x="1189.5" y="-18.5" font-family="Helvetica,sans-Serif" font-size="10.00" fill="#000000">deal.II/lac/lapack</text>
<text text-anchor="middle" x="1227" y="-7.5" font-family="Helvetica,sans-Serif" font-size="10.00" fill="#000000">_support.h</text>
</g>
<!-- Node9&#45;&gt;Node13 -->
<g id="edge13" class="edge">
<title>Node9&#45;&gt;Node13</title>
<path fill="none" stroke="#191970" d="M1215.8514,-266.4314C1114.9243,-264.2202 793.5301,-254.5758 763,-221 716.9539,-170.3602 717.3499,-117.9972 763,-67 789.7945,-37.067 1053.3996,-22.6084 1170.9348,-17.6093"/>
<polygon fill="#191970" stroke="#191970" points="1171.3217,-21.0963 1181.1671,-17.1823 1171.0298,-14.1024 1171.3217,-21.0963"/>
</g>
<!-- Node14 -->
<g id="node15" class="node">
<title>Node14</title>
<polygon fill="none" stroke="#bfbfbf" points="2531.5,-67.5 2531.5,-97.5 2622.5,-97.5 2622.5,-67.5 2531.5,-67.5"/>
<text text-anchor="start" x="2539.5" y="-85.5" font-family="Helvetica,sans-Serif" font-size="10.00" fill="#000000">deal.II/lac/lapack</text>
<text text-anchor="middle" x="2577" y="-74.5" font-family="Helvetica,sans-Serif" font-size="10.00" fill="#000000">_templates.h</text>
</g>
<!-- Node9&#45;&gt;Node14 -->
<g id="edge14" class="edge">
<title>Node9&#45;&gt;Node14</title>
<path fill="none" stroke="#191970" d="M1276.0185,-265.1499C1357.039,-259.9945 1586.8793,-244.2976 1777,-221 1965.4947,-197.9016 2011.6527,-185.0614 2199,-154 2339.9289,-130.6346 2378.8257,-130.6389 2521.4287,-98.2427"/>
<polygon fill="#191970" stroke="#191970" points="2522.4566,-101.5981 2531.4252,-95.9576 2520.8967,-94.7741 2522.4566,-101.5981"/>
</g>
<!-- Node15 -->
<g id="node16" class="node">
<title>Node15</title>
<polygon fill="none" stroke="#bfbfbf" points="772,-196 772,-215 816,-215 816,-196 772,-196"/>
<text text-anchor="middle" x="794" y="-203" font-family="Helvetica,sans-Serif" font-size="10.00" fill="#000000">cmath</text>
</g>
<!-- Node9&#45;&gt;Node15 -->
<g id="edge15" class="edge">
<title>Node9&#45;&gt;Node15</title>
<path fill="none" stroke="#191970" d="M1215.9132,-264.8355C1133.1246,-258.6952 903.2367,-240.3531 830,-221 827.6686,-220.3839 825.2928,-219.6414 822.9297,-218.8192"/>
<polygon fill="#191970" stroke="#191970" points="824.0199,-215.4876 813.4318,-215.111 821.4741,-222.0083 824.0199,-215.4876"/>
</g>
<!-- Node16 -->
<g id="node17" class="node">
<title>Node16</title>
<polygon fill="none" stroke="#bfbfbf" points="772.5,-73 772.5,-92 807.5,-92 807.5,-73 772.5,-73"/>
<text text-anchor="middle" x="790" y="-80" font-family="Helvetica,sans-Serif" font-size="10.00" fill="#000000">map</text>
</g>
<!-- Node9&#45;&gt;Node16 -->
<g id="edge16" class="edge">
<title>Node9&#45;&gt;Node16</title>
<path fill="none" stroke="#191970" d="M1215.8947,-263.4178C1126.0981,-252.1234 862.7845,-214.3875 805,-154 792.0166,-140.4318 789.034,-118.6409 788.8269,-102.6776"/>
<polygon fill="#191970" stroke="#191970" points="792.3349,-102.3617 789.0633,-92.2846 785.3367,-102.2024 792.3349,-102.3617"/>
</g>
<!-- Node17 -->
<g id="node18" class="node">
<title>Node17</title>
<polygon fill="none" stroke="#bfbfbf" points="1280,-73 1280,-92 1324,-92 1324,-73 1280,-73"/>
<text text-anchor="middle" x="1302" y="-80" font-family="Helvetica,sans-Serif" font-size="10.00" fill="#000000">vector</text>
</g>
<!-- Node9&#45;&gt;Node17 -->
<g id="edge17" class="edge">
<title>Node9&#45;&gt;Node17</title>
<path fill="none" stroke="#191970" d="M1276.2939,-257.9686C1295.2073,-250.836 1318.6146,-239.0298 1333,-221 1357.6264,-190.1349 1365.6557,-170.665 1351,-134 1345.4338,-120.0746 1334.1115,-107.7656 1323.7518,-98.676"/>
<polygon fill="#191970" stroke="#191970" points="1325.7219,-95.7643 1315.7782,-92.1072 1321.2709,-101.167 1325.7219,-95.7643"/>
</g>
<!-- Node18 -->
<g id="node19" class="node">
<title>Node18</title>
<g id="a_node19"><a xlink:href="lapack__full__matrix__ext_8h_source.html" target="_top" xlink:title="lapack_full_matrix\l_ext.h">
<polygon fill="none" stroke="#000000" points="1091.5,-190.5 1091.5,-220.5 1186.5,-220.5 1186.5,-190.5 1091.5,-190.5"/>
<text text-anchor="start" x="1099.5" y="-208.5" font-family="Helvetica,sans-Serif" font-size="10.00" fill="#000000">lapack_full_matrix</text>
<text text-anchor="middle" x="1139" y="-197.5" font-family="Helvetica,sans-Serif" font-size="10.00" fill="#000000">_ext.h</text>
</a>
</g>
</g>
<!-- Node9&#45;&gt;Node18 -->
<g id="edge18" class="edge">
<title>Node9&#45;&gt;Node18</title>
<path fill="none" stroke="#191970" d="M1229.2813,-257.3906C1214.5319,-248.9132 1192.5538,-236.2809 1173.9756,-225.6028"/>
<polygon fill="#191970" stroke="#191970" points="1175.5892,-222.4933 1165.1751,-220.5446 1172.101,-228.5623 1175.5892,-222.4933"/>
</g>
<!-- Node18&#45;&gt;Node8 -->
<g id="edge23" class="edge">
<title>Node18&#45;&gt;Node8</title>
<path fill="none" stroke="#191970" d="M1091.1063,-197.6584C1037.0969,-188.5083 946.786,-172.2813 870,-154 868.5399,-153.6524 867.0495,-153.2832 865.547,-152.8994"/>
<polygon fill="#191970" stroke="#191970" points="866.2142,-149.4544 855.6477,-150.2294 864.3912,-156.2129 866.2142,-149.4544"/>
</g>
<!-- Node18&#45;&gt;Node16 -->
<g id="edge20" class="edge">
<title>Node18&#45;&gt;Node16</title>
<path fill="none" stroke="#191970" d="M1091.4262,-200.0793C1042.7009,-193.3978 965.4605,-179.6382 903,-154 884.4765,-146.3966 839.6093,-116.5758 812.3111,-97.9313"/>
<polygon fill="#191970" stroke="#191970" points="814.0164,-94.8567 803.7905,-92.0851 810.056,-100.6287 814.0164,-94.8567"/>
</g>
<!-- Node18&#45;&gt;Node17 -->
<g id="edge24" class="edge">
<title>Node18&#45;&gt;Node17</title>
<path fill="none" stroke="#191970" d="M1186.6252,-199.6567C1238.6502,-192.18 1317.0058,-177.3331 1335,-154 1347.9396,-137.2212 1333.1166,-114.5523 1319.4038,-99.275"/>
<polygon fill="#191970" stroke="#191970" points="1321.924,-96.8461 1312.487,-92.03 1316.8609,-101.6799 1321.924,-96.8461"/>
</g>
<!-- Node19 -->
<g id="node20" class="node">
<title>Node19</title>
<polygon fill="none" stroke="#bfbfbf" points="1028,-134.5 1028,-153.5 1068,-153.5 1068,-134.5 1028,-134.5"/>
<text text-anchor="middle" x="1048" y="-141.5" font-family="Helvetica,sans-Serif" font-size="10.00" fill="#000000">limits</text>
</g>
<!-- Node18&#45;&gt;Node19 -->
<g id="edge19" class="edge">
<title>Node18&#45;&gt;Node19</title>
<path fill="none" stroke="#191970" d="M1116.5056,-190.2977C1102.6033,-180.9022 1084.8124,-168.8787 1070.8454,-159.4395"/>
<polygon fill="#191970" stroke="#191970" points="1072.5436,-156.3629 1062.2985,-153.6633 1068.624,-162.1626 1072.5436,-156.3629"/>
</g>
<!-- Node20 -->
<g id="node21" class="node">
<title>Node20</title>
<polygon fill="none" stroke="#bfbfbf" points="1086.5,-134.5 1086.5,-153.5 1127.5,-153.5 1127.5,-134.5 1086.5,-134.5"/>
<text text-anchor="middle" x="1107" y="-141.5" font-family="Helvetica,sans-Serif" font-size="10.00" fill="#000000">regex</text>
</g>
<!-- Node18&#45;&gt;Node20 -->
<g id="edge21" class="edge">
<title>Node18&#45;&gt;Node20</title>
<path fill="none" stroke="#191970" d="M1131.0899,-190.2977C1126.7868,-182.0277 1121.4242,-171.7215 1116.8518,-162.9339"/>
<polygon fill="#191970" stroke="#191970" points="1119.8443,-161.1024 1112.1236,-153.8469 1113.6346,-164.3335 1119.8443,-161.1024"/>
</g>
<!-- Node21 -->
<g id="node22" class="node">
<title>Node21</title>
<polygon fill="none" stroke="#bfbfbf" points="1146,-134.5 1146,-153.5 1198,-153.5 1198,-134.5 1146,-134.5"/>
<text text-anchor="middle" x="1172" y="-141.5" font-family="Helvetica,sans-Serif" font-size="10.00" fill="#000000">sstream</text>
</g>
<!-- Node18&#45;&gt;Node21 -->
<g id="edge22" class="edge">
<title>Node18&#45;&gt;Node21</title>
<path fill="none" stroke="#191970" d="M1147.1573,-190.2977C1151.5949,-182.0277 1157.125,-171.7215 1161.8404,-162.9339"/>
<polygon fill="#191970" stroke="#191970" points="1165.0721,-164.3134 1166.7163,-153.8469 1158.904,-161.0037 1165.0721,-164.3134"/>
</g>
<!-- Node22 -->
<g id="node23" class="node">
<title>Node22</title>
<g id="a_node23"><a xlink:href="general__exceptions_8h.html" target="_top" xlink:title="Definition of self&#45;defined general exceptions. ">
<polygon fill="none" stroke="#000000" points="1216.5,-134.5 1216.5,-153.5 1325.5,-153.5 1325.5,-134.5 1216.5,-134.5"/>
<text text-anchor="middle" x="1271" y="-141.5" font-family="Helvetica,sans-Serif" font-size="10.00" fill="#000000">general_exceptions.h</text>
</a>
</g>
</g>
<!-- Node18&#45;&gt;Node22 -->
<g id="edge25" class="edge">
<title>Node18&#45;&gt;Node22</title>
<path fill="none" stroke="#191970" d="M1171.2908,-190.4554C1192.6392,-180.509 1220.4196,-167.5659 1241.2333,-157.8686"/>
<polygon fill="#191970" stroke="#191970" points="1242.9584,-160.9262 1250.5447,-153.5303 1240.0021,-154.581 1242.9584,-160.9262"/>
</g>
<!-- Node24 -->
<g id="node25" class="node">
<title>Node24</title>
<g id="a_node25"><a xlink:href="generic__functors_8h.html" target="_top" xlink:title="This header file contains a set of self&#45;defined generic functors. ">
<polygon fill="none" stroke="#000000" points="912.5,-134.5 912.5,-153.5 1009.5,-153.5 1009.5,-134.5 912.5,-134.5"/>
<text text-anchor="middle" x="961" y="-141.5" font-family="Helvetica,sans-Serif" font-size="10.00" fill="#000000">generic_functors.h</text>
</a>
</g>
</g>
<!-- Node18&#45;&gt;Node24 -->
<g id="edge27" class="edge">
<title>Node18&#45;&gt;Node24</title>
<path fill="none" stroke="#191970" d="M1095.4563,-190.4554C1065.6263,-180.149 1026.4834,-166.6249 998.1298,-156.8286"/>
<polygon fill="#191970" stroke="#191970" points="999.1784,-153.4879 988.5837,-153.5303 996.8924,-160.1041 999.1784,-153.4879"/>
</g>
<!-- Node27 -->
<g id="node28" class="node">
<title>Node27</title>
<g id="a_node28"><a xlink:href="lapack__helpers_8h.html" target="_top" xlink:title="Exposes LAPACK helper functions defined in lapack_full_matrix.cc and define new ones by following the...">
<polygon fill="none" stroke="#000000" points="1849,-134.5 1849,-153.5 1939,-153.5 1939,-134.5 1849,-134.5"/>
<text text-anchor="middle" x="1894" y="-141.5" font-family="Helvetica,sans-Serif" font-size="10.00" fill="#000000">lapack_helpers.h</text>
</a>
</g>
</g>
<!-- Node18&#45;&gt;Node27 -->
<g id="edge35" class="edge">
<title>Node18&#45;&gt;Node27</title>
<path fill="none" stroke="#191970" d="M1186.5146,-201.6296C1319.6945,-190.7812 1696.1348,-160.1175 1838.5158,-148.5196"/>
<polygon fill="#191970" stroke="#191970" points="1839.075,-151.9857 1848.7578,-147.6853 1838.5067,-145.0088 1839.075,-151.9857"/>
</g>
<!-- Node23 -->
<g id="node24" class="node">
<title>Node23</title>
<polygon fill="none" stroke="#bfbfbf" points="1014,-73 1014,-92 1140,-92 1140,-73 1014,-73"/>
<text text-anchor="middle" x="1077" y="-80" font-family="Helvetica,sans-Serif" font-size="10.00" fill="#000000">deal.II/base/exceptions.h</text>
</g>
<!-- Node22&#45;&gt;Node23 -->
<g id="edge26" class="edge">
<title>Node22&#45;&gt;Node23</title>
<path fill="none" stroke="#191970" d="M1240.6875,-134.3906C1207.3735,-123.8298 1153.7192,-106.8208 1116.9819,-95.1747"/>
<polygon fill="#191970" stroke="#191970" points="1117.6898,-91.7275 1107.0996,-92.0419 1115.5744,-98.4002 1117.6898,-91.7275"/>
</g>
<!-- Node24&#45;&gt;Node10 -->
<g id="edge29" class="edge">
<title>Node24&#45;&gt;Node10</title>
<path fill="none" stroke="#191970" d="M1000.273,-134.4979C1038.3241,-125.2661 1097.65,-110.8059 1149,-98 1153.4131,-96.8994 1158.0038,-95.747 1162.5977,-94.5886"/>
<polygon fill="#191970" stroke="#191970" points="1163.7552,-97.9061 1172.5919,-92.0611 1162.0389,-91.1198 1163.7552,-97.9061"/>
</g>
<!-- Node24&#45;&gt;Node13 -->
<g id="edge30" class="edge">
<title>Node24&#45;&gt;Node13</title>
<path fill="none" stroke="#191970" d="M963.7491,-134.2456C968.9345,-117.7075 981.7793,-84.2816 1005,-67 1030.9747,-47.6688 1114.4815,-32.0049 1171.3368,-23.2209"/>
<polygon fill="#191970" stroke="#191970" points="1171.9095,-26.6741 1181.2714,-21.7138 1170.8595,-19.7533 1171.9095,-26.6741"/>
</g>
<!-- Node24&#45;&gt;Node16 -->
<g id="edge33" class="edge">
<title>Node24&#45;&gt;Node16</title>
<path fill="none" stroke="#191970" d="M922.866,-134.4923C893.0971,-126.4585 851.0493,-113.7527 816,-98 815.299,-97.6849 814.5932,-97.3553 813.8855,-97.0137"/>
<polygon fill="#191970" stroke="#191970" points="815.2709,-93.7845 804.8072,-92.1229 811.9508,-99.9471 815.2709,-93.7845"/>
</g>
<!-- Node24&#45;&gt;Node17 -->
<g id="edge34" class="edge">
<title>Node24&#45;&gt;Node17</title>
<path fill="none" stroke="#191970" d="M1009.7177,-135.4976C1012.8574,-134.9814 1015.9721,-134.4781 1019,-134 1130.3182,-116.4242 1162.2291,-130.9555 1270,-98 1271.8595,-97.4314 1273.7459,-96.768 1275.6244,-96.0418"/>
<polygon fill="#191970" stroke="#191970" points="1277.0292,-99.2476 1284.7902,-92.0352 1274.2255,-92.8336 1277.0292,-99.2476"/>
</g>
<!-- Node24&#45;&gt;Node23 -->
<g id="edge28" class="edge">
<title>Node24&#45;&gt;Node23</title>
<path fill="none" stroke="#191970" d="M979.125,-134.3906C998.1083,-124.3262 1028.1373,-108.4057 1049.9307,-96.8514"/>
<polygon fill="#191970" stroke="#191970" points="1051.8066,-99.8184 1059.0023,-92.0419 1048.5277,-93.6338 1051.8066,-99.8184"/>
</g>
<!-- Node25 -->
<g id="node26" class="node">
<title>Node25</title>
<polygon fill="none" stroke="#bfbfbf" points="825.5,-73 825.5,-92 892.5,-92 892.5,-73 825.5,-73"/>
<text text-anchor="middle" x="859" y="-80" font-family="Helvetica,sans-Serif" font-size="10.00" fill="#000000">forward_list</text>
</g>
<!-- Node24&#45;&gt;Node25 -->
<g id="edge31" class="edge">
<title>Node24&#45;&gt;Node25</title>
<path fill="none" stroke="#191970" d="M945.0625,-134.3906C928.5949,-124.4616 902.6742,-108.833 883.5796,-97.3201"/>
<polygon fill="#191970" stroke="#191970" points="885.1966,-94.2081 874.8256,-92.0419 881.5822,-100.2027 885.1966,-94.2081"/>
</g>
<!-- Node26 -->
<g id="node27" class="node">
<title>Node26</title>
<polygon fill="none" stroke="#bfbfbf" points="910.5,-73 910.5,-92 957.5,-92 957.5,-73 910.5,-73"/>
<text text-anchor="middle" x="934" y="-80" font-family="Helvetica,sans-Serif" font-size="10.00" fill="#000000">iterator</text>
</g>
<!-- Node24&#45;&gt;Node26 -->
<g id="edge32" class="edge">
<title>Node24&#45;&gt;Node26</title>
<path fill="none" stroke="#191970" d="M956.7813,-134.3906C952.9204,-125.5965 947.0966,-112.3312 942.3039,-101.4145"/>
<polygon fill="#191970" stroke="#191970" points="945.5029,-99.9943 938.2782,-92.2449 939.0934,-102.8083 945.5029,-99.9943"/>
</g>
<!-- Node27&#45;&gt;Node11 -->
<g id="edge39" class="edge">
<title>Node27&#45;&gt;Node11</title>
<path fill="none" stroke="#191970" d="M1939.2785,-140.1941C2011.4782,-133.7658 2156.9908,-119.3371 2279,-98 2285.1744,-96.9202 2291.6341,-95.6314 2298.0025,-94.2648"/>
<polygon fill="#191970" stroke="#191970" points="2298.8767,-97.656 2307.8806,-92.0719 2297.3597,-90.8223 2298.8767,-97.656"/>
</g>
<!-- Node27&#45;&gt;Node12 -->
<g id="edge40" class="edge">
<title>Node27&#45;&gt;Node12</title>
<path fill="none" stroke="#191970" d="M1939.1565,-142.8226C2028.0909,-139.8955 2232.1804,-130.1673 2412.3163,-97.8909"/>
<polygon fill="#191970" stroke="#191970" points="2413.0221,-101.3201 2422.234,-96.0864 2411.769,-94.4331 2413.0221,-101.3201"/>
</g>
<!-- Node27&#45;&gt;Node13 -->
<g id="edge41" class="edge">
<title>Node27&#45;&gt;Node13</title>
<path fill="none" stroke="#191970" d="M1848.6973,-142.093C1756.7274,-137.7017 1551.393,-125.1051 1487,-98 1466.9112,-89.544 1468.5677,-76.6004 1449,-67 1395.9984,-40.9959 1329.3611,-27.8094 1282.9905,-21.333"/>
<polygon fill="#191970" stroke="#191970" points="1283.2072,-17.8309 1272.8318,-19.9761 1282.2804,-24.7693 1283.2072,-17.8309"/>
</g>
<!-- Node27&#45;&gt;Node14 -->
<g id="edge42" class="edge">
<title>Node27&#45;&gt;Node14</title>
<path fill="none" stroke="#191970" d="M1939.3222,-141.904C2060.7713,-136.0983 2392.5006,-118.9526 2521.4671,-97.9898"/>
<polygon fill="#191970" stroke="#191970" points="2522.2222,-101.4116 2531.4905,-96.2784 2521.044,-94.5114 2522.2222,-101.4116"/>
</g>
<!-- Node28 -->
<g id="node29" class="node">
<title>Node28</title>
<polygon fill="none" stroke="#bfbfbf" points="1496,-73 1496,-92 1612,-92 1612,-73 1496,-73"/>
<text text-anchor="middle" x="1554" y="-80" font-family="Helvetica,sans-Serif" font-size="10.00" fill="#000000">deal.II/base/numbers.h</text>
</g>
<!-- Node27&#45;&gt;Node28 -->
<g id="edge36" class="edge">
<title>Node27&#45;&gt;Node28</title>
<path fill="none" stroke="#191970" d="M1848.921,-137.2589C1794.6686,-128.9491 1700.8905,-113.9566 1621,-98 1615.2997,-96.8615 1609.3442,-95.5954 1603.4368,-94.2914"/>
<polygon fill="#191970" stroke="#191970" points="1604.1183,-90.8573 1593.5939,-92.077 1602.5818,-97.6866 1604.1183,-90.8573"/>
</g>
<!-- Node29 -->
<g id="node30" class="node">
<title>Node29</title>
<polygon fill="none" stroke="#bfbfbf" points="1630,-67.5 1630,-97.5 1758,-97.5 1758,-67.5 1630,-67.5"/>
<text text-anchor="start" x="1638" y="-85.5" font-family="Helvetica,sans-Serif" font-size="10.00" fill="#000000">deal.II/lac/blas_extension</text>
<text text-anchor="middle" x="1694" y="-74.5" font-family="Helvetica,sans-Serif" font-size="10.00" fill="#000000">_templates.h</text>
</g>
<!-- Node27&#45;&gt;Node29 -->
<g id="edge37" class="edge">
<title>Node27&#45;&gt;Node29</title>
<path fill="none" stroke="#191970" d="M1862.75,-134.3906C1833.4268,-125.3737 1788.8174,-111.6563 1752.8279,-100.5896"/>
<polygon fill="#191970" stroke="#191970" points="1753.5126,-97.1384 1742.9255,-97.5446 1751.4551,-103.8292 1753.5126,-97.1384"/>
</g>
<!-- Node30 -->
<g id="node31" class="node">
<title>Node30</title>
<polygon fill="none" stroke="#bfbfbf" points="1776,-73 1776,-92 1902,-92 1902,-73 1776,-73"/>
<text text-anchor="middle" x="1839" y="-80" font-family="Helvetica,sans-Serif" font-size="10.00" fill="#000000">deal.II/lac/block_vector.h</text>
</g>
<!-- Node27&#45;&gt;Node30 -->
<g id="edge38" class="edge">
<title>Node27&#45;&gt;Node30</title>
<path fill="none" stroke="#191970" d="M1885.4063,-134.3906C1877.1403,-125.1478 1864.4574,-110.966 1854.4383,-99.7628"/>
<polygon fill="#191970" stroke="#191970" points="1856.99,-97.3657 1847.7149,-92.2449 1851.7722,-102.0321 1856.99,-97.3657"/>
</g>
<!-- Node31 -->
<g id="node32" class="node">
<title>Node31</title>
<polygon fill="none" stroke="#bfbfbf" points="1920,-67.5 1920,-97.5 2012,-97.5 2012,-67.5 1920,-67.5"/>
<text text-anchor="start" x="1928" y="-85.5" font-family="Helvetica,sans-Serif" font-size="10.00" fill="#000000">deal.II/lac/sparse</text>
<text text-anchor="middle" x="1966" y="-74.5" font-family="Helvetica,sans-Serif" font-size="10.00" fill="#000000">_matrix.h</text>
</g>
<!-- Node27&#45;&gt;Node31 -->
<g id="edge43" class="edge">
<title>Node27&#45;&gt;Node31</title>
<path fill="none" stroke="#191970" d="M1905.25,-134.3906C1914.7236,-126.2986 1928.6294,-114.4207 1940.7468,-104.0705"/>
<polygon fill="#191970" stroke="#191970" points="1943.0563,-106.7008 1948.3868,-97.5446 1938.5098,-101.3782 1943.0563,-106.7008"/>
</g>
<!-- Node32 -->
<g id="node33" class="node">
<title>Node32</title>
<polygon fill="none" stroke="#bfbfbf" points="2030.5,-73 2030.5,-92 2131.5,-92 2131.5,-73 2030.5,-73"/>
<text text-anchor="middle" x="2081" y="-80" font-family="Helvetica,sans-Serif" font-size="10.00" fill="#000000">deal.II/lac/utilities.h</text>
</g>
<!-- Node27&#45;&gt;Node32 -->
<g id="edge44" class="edge">
<title>Node27&#45;&gt;Node32</title>
<path fill="none" stroke="#191970" d="M1923.2188,-134.3906C1955.3307,-123.8298 2007.049,-106.8208 2042.4608,-95.1747"/>
<polygon fill="#191970" stroke="#191970" points="2043.5804,-98.4909 2051.9864,-92.0419 2041.3935,-91.8413 2043.5804,-98.4909"/>
</g>
<!-- Node33 -->
<g id="node34" class="node">
<title>Node33</title>
<polygon fill="none" stroke="#bfbfbf" points="1342,-73 1342,-92 1440,-92 1440,-73 1342,-73"/>
<text text-anchor="middle" x="1391" y="-80" font-family="Helvetica,sans-Serif" font-size="10.00" fill="#000000">deal.II/lac/vector.h</text>
</g>
<!-- Node27&#45;&gt;Node33 -->
<g id="edge45" class="edge">
<title>Node27&#45;&gt;Node33</title>
<path fill="none" stroke="#191970" d="M1848.7456,-141.3228C1768.6789,-136.1302 1597.0024,-122.9455 1454,-98 1448.1711,-96.9832 1442.0816,-95.731 1436.0839,-94.3829"/>
<polygon fill="#191970" stroke="#191970" points="1436.6745,-90.9264 1426.1392,-92.0481 1435.0745,-97.7412 1436.6745,-90.9264"/>
</g>
<!-- Node34 -->
<g id="node35" class="node">
<title>Node34</title>
<g id="a_node35"><a xlink:href="lapack__templates__ext_8h.html" target="_top" xlink:title="Append more template based LAPACK functions to those existing in deal.ii. ">
<polygon fill="none" stroke="#000000" points="2150,-73 2150,-92 2270,-92 2270,-73 2150,-73"/>
<text text-anchor="middle" x="2210" y="-80" font-family="Helvetica,sans-Serif" font-size="10.00" fill="#000000">lapack_templates_ext.h</text>
</a>
</g>
</g>
<!-- Node27&#45;&gt;Node34 -->
<g id="edge46" class="edge">
<title>Node27&#45;&gt;Node34</title>
<path fill="none" stroke="#191970" d="M1939.1691,-136.1032C1988.768,-127.312 2070.7132,-112.4344 2141,-98 2146.7785,-96.8133 2152.8184,-95.5261 2158.8181,-94.2179"/>
<polygon fill="#191970" stroke="#191970" points="2159.8129,-97.5826 2168.824,-92.0104 2158.3048,-90.747 2159.8129,-97.5826"/>
</g>
<!-- Node34&#45;&gt;Node13 -->
<g id="edge47" class="edge">
<title>Node34&#45;&gt;Node13</title>
<path fill="none" stroke="#191970" d="M2172.6043,-72.9219C2162.415,-70.6353 2151.3359,-68.4421 2141,-67 1973.7283,-43.6618 1454.2269,-23.5786 1282.6349,-17.4315"/>
<polygon fill="#191970" stroke="#191970" points="1282.6788,-13.9309 1272.5604,-17.0723 1282.4293,-20.9265 1282.6788,-13.9309"/>
</g>
</g>
</svg>
