<?xml version="1.0" encoding="UTF-8" standalone="no"?>
<!DOCTYPE svg PUBLIC "-//W3C//DTD SVG 1.1//EN"
 "http://www.w3.org/Graphics/SVG/1.1/DTD/svg11.dtd">
<!-- Generated by graphviz version 2.40.1 (20161225.0304)
 -->
<!-- Title: /home/jihuan/Projects/deal.ii/program/dealii&#45;9.1.1/examples/laplace&#45;bem/tests/rkmatrix&#45;add&#45;formatted&#45;using&#45;qr/rkmatrix&#45;add&#45;formatted&#45;using&#45;qr.cc Pages: 1 -->
<svg width="2573pt" height="396pt"
 viewBox="0.00 0.00 2572.93 396.00" xmlns="http://www.w3.org/2000/svg" xmlns:xlink="http://www.w3.org/1999/xlink">
<g id="graph0" class="graph" transform="scale(1 1) rotate(0) translate(4 392)">
<title>/home/jihuan/Projects/deal.ii/program/dealii&#45;9.1.1/examples/laplace&#45;bem/tests/rkmatrix&#45;add&#45;formatted&#45;using&#45;qr/rkmatrix&#45;add&#45;formatted&#45;using&#45;qr.cc</title>
<!-- Node0 -->
<g id="node1" class="node">
<title>Node0</title>
<polygon fill="#bfbfbf" stroke="#000000" points="1780.4306,-313.5 1780.4306,-387.5 1917.4306,-387.5 1917.4306,-313.5 1780.4306,-313.5"/>
<text text-anchor="start" x="1788.4306" y="-375.5" font-family="Helvetica,sans-Serif" font-size="10.00" fill="#000000">/home/jihuan/Projects</text>
<text text-anchor="start" x="1788.4306" y="-364.5" font-family="Helvetica,sans-Serif" font-size="10.00" fill="#000000">/deal.ii/program/dealii</text>
<text text-anchor="start" x="1788.4306" y="-353.5" font-family="Helvetica,sans-Serif" font-size="10.00" fill="#000000">&#45;9.1.1/examples/laplace</text>
<text text-anchor="start" x="1788.4306" y="-342.5" font-family="Helvetica,sans-Serif" font-size="10.00" fill="#000000">&#45;bem/tests/rkmatrix&#45;add</text>
<text text-anchor="start" x="1788.4306" y="-331.5" font-family="Helvetica,sans-Serif" font-size="10.00" fill="#000000">&#45;formatted&#45;using&#45;qr/rkmatrix</text>
<text text-anchor="middle" x="1848.9306" y="-320.5" font-family="Helvetica,sans-Serif" font-size="10.00" fill="#000000">&#45;add&#45;formatted&#45;using&#45;qr.cc</text>
</g>
<!-- Node1 -->
<g id="node2" class="node">
<title>Node1</title>
<polygon fill="none" stroke="#bfbfbf" points="1849.9306,-196 1849.9306,-215 1903.9306,-215 1903.9306,-196 1849.9306,-196"/>
<text text-anchor="middle" x="1876.9306" y="-203" font-family="Helvetica,sans-Serif" font-size="10.00" fill="#000000">iostream</text>
</g>
<!-- Node0&#45;&gt;Node1 -->
<g id="edge1" class="edge">
<title>Node0&#45;&gt;Node1</title>
<path fill="none" stroke="#191970" d="M1856.1413,-313.1589C1861.575,-285.0198 1868.8092,-247.5573 1873.1543,-225.0556"/>
<polygon fill="#191970" stroke="#191970" points="1876.6271,-225.5311 1875.0867,-215.0489 1869.7541,-224.2039 1876.6271,-225.5311"/>
</g>
<!-- Node2 -->
<g id="node3" class="node">
<title>Node2</title>
<polygon fill="none" stroke="#bfbfbf" points="1812.4306,-134.5 1812.4306,-153.5 1853.4306,-153.5 1853.4306,-134.5 1812.4306,-134.5"/>
<text text-anchor="middle" x="1832.9306" y="-141.5" font-family="Helvetica,sans-Serif" font-size="10.00" fill="#000000">string</text>
</g>
<!-- Node0&#45;&gt;Node2 -->
<g id="edge2" class="edge">
<title>Node0&#45;&gt;Node2</title>
<path fill="none" stroke="#191970" d="M1846.0331,-313.1044C1842.635,-269.2473 1837.1288,-198.1834 1834.4676,-163.8372"/>
<polygon fill="#191970" stroke="#191970" points="1837.9435,-163.3891 1833.6814,-153.6894 1830.9644,-163.9299 1837.9435,-163.3891"/>
</g>
<!-- Node3 -->
<g id="node4" class="node">
<title>Node3</title>
<g id="a_node4"><a xlink:href="debug__tools_8h.html" target="_top" xlink:title="This file includes a bunch of helper functions for printing out and visualizing information about gri...">
<polygon fill="none" stroke="#000000" points="2039.4306,-257.5 2039.4306,-276.5 2116.4306,-276.5 2116.4306,-257.5 2039.4306,-257.5"/>
<text text-anchor="middle" x="2077.9306" y="-264.5" font-family="Helvetica,sans-Serif" font-size="10.00" fill="#000000">debug_tools.h</text>
</a>
</g>
</g>
<!-- Node0&#45;&gt;Node3 -->
<g id="edge3" class="edge">
<title>Node0&#45;&gt;Node3</title>
<path fill="none" stroke="#191970" d="M1917.6381,-325.4472C1958.5902,-310.5149 2008.8992,-292.1708 2042.1091,-280.0615"/>
<polygon fill="#191970" stroke="#191970" points="2043.6414,-283.2283 2051.8374,-276.5143 2041.2434,-276.6518 2043.6414,-283.2283"/>
</g>
<!-- Node9 -->
<g id="node10" class="node">
<title>Node9</title>
<g id="a_node10"><a xlink:href="rkmatrix_8h.html" target="_top" xlink:title="Definition of rank&#45;k matrix. ">
<polygon fill="none" stroke="#000000" points="1320.9306,-257.5 1320.9306,-276.5 1380.9306,-276.5 1380.9306,-257.5 1320.9306,-257.5"/>
<text text-anchor="middle" x="1350.9306" y="-264.5" font-family="Helvetica,sans-Serif" font-size="10.00" fill="#000000">rkmatrix.h</text>
</a>
</g>
</g>
<!-- Node0&#45;&gt;Node9 -->
<g id="edge11" class="edge">
<title>Node0&#45;&gt;Node9</title>
<path fill="none" stroke="#191970" d="M1780.2087,-338.9773C1674.6783,-321.283 1476.0322,-287.9759 1391.0991,-273.7351"/>
<polygon fill="#191970" stroke="#191970" points="1391.5212,-270.2571 1381.0801,-272.0552 1390.3637,-277.1607 1391.5212,-270.2571"/>
</g>
<!-- Node3&#45;&gt;Node1 -->
<g id="edge9" class="edge">
<title>Node3&#45;&gt;Node1</title>
<path fill="none" stroke="#191970" d="M2041.451,-257.4224C2008.8518,-248.6481 1959.8976,-234.9398 1917.9306,-221 1915.5294,-220.2024 1913.0602,-219.3505 1910.5814,-218.4719"/>
<polygon fill="#191970" stroke="#191970" points="1911.6891,-215.1504 1901.0952,-215.0089 1909.2886,-221.726 1911.6891,-215.1504"/>
</g>
<!-- Node3&#45;&gt;Node2 -->
<g id="edge10" class="edge">
<title>Node3&#45;&gt;Node2</title>
<path fill="none" stroke="#191970" d="M2042.6606,-257.4586C2016.6403,-249.6389 1980.8786,-237.2237 1951.9306,-221 1932.6152,-210.1748 1931.2461,-202.4424 1912.9306,-190 1896.1393,-178.5931 1876.3724,-167.2094 1860.6885,-158.6201"/>
<polygon fill="#191970" stroke="#191970" points="1861.9749,-155.3368 1851.5139,-153.658 1858.6447,-161.4939 1861.9749,-155.3368"/>
</g>
<!-- Node4 -->
<g id="node5" class="node">
<title>Node4</title>
<polygon fill="none" stroke="#bfbfbf" points="2081.4306,-196 2081.4306,-215 2208.4306,-215 2208.4306,-196 2081.4306,-196"/>
<text text-anchor="middle" x="2144.9306" y="-203" font-family="Helvetica,sans-Serif" font-size="10.00" fill="#000000">deal.II/dofs/dof_handler.h</text>
</g>
<!-- Node3&#45;&gt;Node4 -->
<g id="edge4" class="edge">
<title>Node3&#45;&gt;Node4</title>
<path fill="none" stroke="#191970" d="M2088.3993,-257.3906C2098.6643,-247.9683 2114.5209,-233.4134 2126.8312,-222.1137"/>
<polygon fill="#191970" stroke="#191970" points="2129.314,-224.5856 2134.3142,-215.2449 2124.5805,-219.4287 2129.314,-224.5856"/>
</g>
<!-- Node5 -->
<g id="node6" class="node">
<title>Node5</title>
<polygon fill="none" stroke="#bfbfbf" points="2226.9306,-196 2226.9306,-215 2342.9306,-215 2342.9306,-196 2226.9306,-196"/>
<text text-anchor="middle" x="2284.9306" y="-203" font-family="Helvetica,sans-Serif" font-size="10.00" fill="#000000">deal.II/dofs/dof_tools.h</text>
</g>
<!-- Node3&#45;&gt;Node5 -->
<g id="edge5" class="edge">
<title>Node3&#45;&gt;Node5</title>
<path fill="none" stroke="#191970" d="M2110.2743,-257.3906C2146.0486,-246.7621 2203.8053,-229.6025 2243.0211,-217.9514"/>
<polygon fill="#191970" stroke="#191970" points="2244.2249,-221.245 2252.814,-215.0419 2242.2313,-214.5349 2244.2249,-221.245"/>
</g>
<!-- Node6 -->
<g id="node7" class="node">
<title>Node6</title>
<polygon fill="none" stroke="#bfbfbf" points="2360.9306,-196 2360.9306,-215 2434.9306,-215 2434.9306,-196 2360.9306,-196"/>
<text text-anchor="middle" x="2397.9306" y="-203" font-family="Helvetica,sans-Serif" font-size="10.00" fill="#000000">deal.II/fe/fe.h</text>
</g>
<!-- Node3&#45;&gt;Node6 -->
<g id="edge6" class="edge">
<title>Node3&#45;&gt;Node6</title>
<path fill="none" stroke="#191970" d="M2116.4466,-262.494C2169.8359,-255.8053 2269.1178,-241.764 2351.9306,-221 2355.3025,-220.1546 2358.7821,-219.1791 2362.2471,-218.1376"/>
<polygon fill="#191970" stroke="#191970" points="2363.4012,-221.4434 2371.8722,-215.08 2361.2819,-214.7719 2363.4012,-221.4434"/>
</g>
<!-- Node7 -->
<g id="node8" class="node">
<title>Node7</title>
<polygon fill="none" stroke="#bfbfbf" points="2452.9306,-196 2452.9306,-215 2564.9306,-215 2564.9306,-196 2452.9306,-196"/>
<text text-anchor="middle" x="2508.9306" y="-203" font-family="Helvetica,sans-Serif" font-size="10.00" fill="#000000">deal.II/fe/fe_system.h</text>
</g>
<!-- Node3&#45;&gt;Node7 -->
<g id="edge7" class="edge">
<title>Node3&#45;&gt;Node7</title>
<path fill="none" stroke="#191970" d="M2116.608,-263.5389C2183.6112,-257.2313 2325.4682,-242.5025 2443.9306,-221 2449.7806,-219.9381 2455.8934,-218.6802 2461.9293,-217.3473"/>
<polygon fill="#191970" stroke="#191970" points="2462.9866,-220.696 2471.9547,-215.0547 2461.4261,-213.8721 2462.9866,-220.696"/>
</g>
<!-- Node8 -->
<g id="node9" class="node">
<title>Node8</title>
<polygon fill="none" stroke="#bfbfbf" points="1960.4306,-196 1960.4306,-215 2063.4306,-215 2063.4306,-196 1960.4306,-196"/>
<text text-anchor="middle" x="2011.9306" y="-203" font-family="Helvetica,sans-Serif" font-size="10.00" fill="#000000">deal.II/fe/mapping.h</text>
</g>
<!-- Node3&#45;&gt;Node8 -->
<g id="edge8" class="edge">
<title>Node3&#45;&gt;Node8</title>
<path fill="none" stroke="#191970" d="M2067.6181,-257.3906C2057.5064,-247.9683 2041.8864,-233.4134 2029.7599,-222.1137"/>
<polygon fill="#191970" stroke="#191970" points="2032.0907,-219.5015 2022.3885,-215.2449 2027.3185,-224.6228 2032.0907,-219.5015"/>
</g>
<!-- Node10 -->
<g id="node11" class="node">
<title>Node10</title>
<polygon fill="none" stroke="#bfbfbf" points="1700.4306,-73 1700.4306,-92 1803.4306,-92 1803.4306,-73 1700.4306,-73"/>
<text text-anchor="middle" x="1751.9306" y="-80" font-family="Helvetica,sans-Serif" font-size="10.00" fill="#000000">deal.II/base/types.h</text>
</g>
<!-- Node9&#45;&gt;Node10 -->
<g id="edge12" class="edge">
<title>Node9&#45;&gt;Node10</title>
<path fill="none" stroke="#191970" d="M1381.14,-262.2461C1443.0301,-251.4086 1586.9018,-220.4961 1687.9306,-154 1709.335,-139.9119 1728.1223,-116.9416 1739.7106,-100.8483"/>
<polygon fill="#191970" stroke="#191970" points="1742.8291,-102.4943 1745.667,-92.2866 1737.0829,-98.4966 1742.8291,-102.4943"/>
</g>
<!-- Node11 -->
<g id="node12" class="node">
<title>Node11</title>
<polygon fill="none" stroke="#bfbfbf" points="961.9306,-73 961.9306,-92 1077.9306,-92 1077.9306,-73 961.9306,-73"/>
<text text-anchor="middle" x="1019.9306" y="-80" font-family="Helvetica,sans-Serif" font-size="10.00" fill="#000000">deal.II/lac/full_matrix.h</text>
</g>
<!-- Node9&#45;&gt;Node11 -->
<g id="edge13" class="edge">
<title>Node9&#45;&gt;Node11</title>
<path fill="none" stroke="#191970" d="M1320.9305,-261.4111C1289.146,-254.7201 1238.1027,-241.7431 1197.9306,-221 1132.42,-187.1732 1066.98,-128.1779 1036.9488,-99.3394"/>
<polygon fill="#191970" stroke="#191970" points="1039.0581,-96.5089 1029.4467,-92.0511 1034.1804,-101.5297 1039.0581,-96.5089"/>
</g>
<!-- Node12 -->
<g id="node13" class="node">
<title>Node12</title>
<polygon fill="none" stroke="#bfbfbf" points="1096.4306,-67.5 1096.4306,-97.5 1187.4306,-97.5 1187.4306,-67.5 1096.4306,-67.5"/>
<text text-anchor="start" x="1104.4306" y="-85.5" font-family="Helvetica,sans-Serif" font-size="10.00" fill="#000000">deal.II/lac/lapack</text>
<text text-anchor="middle" x="1141.9306" y="-74.5" font-family="Helvetica,sans-Serif" font-size="10.00" fill="#000000">_full_matrix.h</text>
</g>
<!-- Node9&#45;&gt;Node12 -->
<g id="edge14" class="edge">
<title>Node9&#45;&gt;Node12</title>
<path fill="none" stroke="#191970" d="M1356.6828,-257.3338C1370.0711,-233.4458 1399.9753,-170.8972 1369.9306,-134 1322.0141,-75.1549 1276.3165,-113.6194 1197.3306,-98.0302"/>
<polygon fill="#191970" stroke="#191970" points="1198.0521,-94.6052 1187.5308,-95.8509 1196.5326,-101.4383 1198.0521,-94.6052"/>
</g>
<!-- Node13 -->
<g id="node14" class="node">
<title>Node13</title>
<polygon fill="none" stroke="#bfbfbf" points="582.4306,-.5 582.4306,-30.5 673.4306,-30.5 673.4306,-.5 582.4306,-.5"/>
<text text-anchor="start" x="590.4306" y="-18.5" font-family="Helvetica,sans-Serif" font-size="10.00" fill="#000000">deal.II/lac/lapack</text>
<text text-anchor="middle" x="627.9306" y="-7.5" font-family="Helvetica,sans-Serif" font-size="10.00" fill="#000000">_support.h</text>
</g>
<!-- Node9&#45;&gt;Node13 -->
<g id="edge15" class="edge">
<title>Node9&#45;&gt;Node13</title>
<path fill="none" stroke="#191970" d="M1320.7062,-265.5502C1129.8836,-256.0969 97.2596,-200.3987 6.9306,-98 -2.1838,-87.6678 -2.4005,-77.137 6.9306,-67 44.8075,-25.8519 426.6832,-17.5769 572.1054,-15.9159"/>
<polygon fill="#191970" stroke="#191970" points="572.1976,-19.4153 582.1592,-15.8074 572.122,-12.4157 572.1976,-19.4153"/>
</g>
<!-- Node14 -->
<g id="node15" class="node">
<title>Node14</title>
<polygon fill="none" stroke="#bfbfbf" points="1205.4306,-67.5 1205.4306,-97.5 1296.4306,-97.5 1296.4306,-67.5 1205.4306,-67.5"/>
<text text-anchor="start" x="1213.4306" y="-85.5" font-family="Helvetica,sans-Serif" font-size="10.00" fill="#000000">deal.II/lac/lapack</text>
<text text-anchor="middle" x="1250.9306" y="-74.5" font-family="Helvetica,sans-Serif" font-size="10.00" fill="#000000">_templates.h</text>
</g>
<!-- Node9&#45;&gt;Node14 -->
<g id="edge16" class="edge">
<title>Node9&#45;&gt;Node14</title>
<path fill="none" stroke="#191970" d="M1367.9873,-257.377C1380.2395,-249.4014 1395.8014,-236.8248 1402.9306,-221 1418.8128,-185.7457 1425.4621,-165.4236 1402.9306,-134 1399.8899,-129.7592 1348.3422,-112.8416 1306.1085,-99.5385"/>
<polygon fill="#191970" stroke="#191970" points="1307.0252,-96.158 1296.436,-96.5033 1304.9293,-102.8368 1307.0252,-96.158"/>
</g>
<!-- Node15 -->
<g id="node16" class="node">
<title>Node15</title>
<polygon fill="none" stroke="#bfbfbf" points="1014.9306,-196 1014.9306,-215 1058.9306,-215 1058.9306,-196 1014.9306,-196"/>
<text text-anchor="middle" x="1036.9306" y="-203" font-family="Helvetica,sans-Serif" font-size="10.00" fill="#000000">cmath</text>
</g>
<!-- Node9&#45;&gt;Node15 -->
<g id="edge17" class="edge">
<title>Node9&#45;&gt;Node15</title>
<path fill="none" stroke="#191970" d="M1320.7755,-264.4266C1269.1649,-259.4905 1160.9488,-246.8134 1072.9306,-221 1070.7554,-220.3621 1068.5367,-219.6277 1066.3227,-218.8328"/>
<polygon fill="#191970" stroke="#191970" points="1067.3819,-215.4881 1056.7953,-215.0716 1064.8115,-221.9991 1067.3819,-215.4881"/>
</g>
<!-- Node16 -->
<g id="node17" class="node">
<title>Node16</title>
<polygon fill="none" stroke="#bfbfbf" points="1314.4306,-73 1314.4306,-92 1349.4306,-92 1349.4306,-73 1314.4306,-73"/>
<text text-anchor="middle" x="1331.9306" y="-80" font-family="Helvetica,sans-Serif" font-size="10.00" fill="#000000">map</text>
</g>
<!-- Node9&#45;&gt;Node16 -->
<g id="edge18" class="edge">
<title>Node9&#45;&gt;Node16</title>
<path fill="none" stroke="#191970" d="M1320.6934,-258.7536C1277.8002,-245.162 1201.3417,-213.4468 1172.9306,-154 1136.5137,-77.802 1240.3765,-124.8145 1304.9306,-98 1305.9289,-97.5853 1306.936,-97.1408 1307.9445,-96.6737"/>
<polygon fill="#191970" stroke="#191970" points="1309.5889,-99.7637 1316.855,-92.053 1306.3664,-93.5495 1309.5889,-99.7637"/>
</g>
<!-- Node17 -->
<g id="node18" class="node">
<title>Node17</title>
<polygon fill="none" stroke="#bfbfbf" points="1821.9306,-73 1821.9306,-92 1865.9306,-92 1865.9306,-73 1821.9306,-73"/>
<text text-anchor="middle" x="1843.9306" y="-80" font-family="Helvetica,sans-Serif" font-size="10.00" fill="#000000">vector</text>
</g>
<!-- Node9&#45;&gt;Node17 -->
<g id="edge19" class="edge">
<title>Node9&#45;&gt;Node17</title>
<path fill="none" stroke="#191970" d="M1381.0318,-264.7382C1428.8735,-260.4259 1524.6519,-248.844 1600.9306,-221 1688.502,-189.0338 1781.3894,-127.1216 1822.3707,-98.1552"/>
<polygon fill="#191970" stroke="#191970" points="1824.645,-100.8321 1830.7535,-92.1755 1820.5799,-95.1334 1824.645,-100.8321"/>
</g>
<!-- Node18 -->
<g id="node19" class="node">
<title>Node18</title>
<g id="a_node19"><a xlink:href="lapack__full__matrix__ext_8h_source.html" target="_top" xlink:title="lapack_full_matrix\l_ext.h">
<polygon fill="none" stroke="#000000" points="1265.4306,-190.5 1265.4306,-220.5 1360.4306,-220.5 1360.4306,-190.5 1265.4306,-190.5"/>
<text text-anchor="start" x="1273.4306" y="-208.5" font-family="Helvetica,sans-Serif" font-size="10.00" fill="#000000">lapack_full_matrix</text>
<text text-anchor="middle" x="1312.9306" y="-197.5" font-family="Helvetica,sans-Serif" font-size="10.00" fill="#000000">_ext.h</text>
</a>
</g>
</g>
<!-- Node9&#45;&gt;Node18 -->
<g id="edge20" class="edge">
<title>Node9&#45;&gt;Node18</title>
<path fill="none" stroke="#191970" d="M1344.9931,-257.3906C1340.3264,-249.838 1333.6221,-238.9876 1327.5494,-229.1593"/>
<polygon fill="#191970" stroke="#191970" points="1330.4604,-227.2119 1322.2264,-220.5446 1324.5054,-230.8914 1330.4604,-227.2119"/>
</g>
<!-- Node18&#45;&gt;Node2 -->
<g id="edge25" class="edge">
<title>Node18&#45;&gt;Node2</title>
<path fill="none" stroke="#191970" d="M1360.4556,-199.8793C1465.5126,-187.4542 1715.0683,-157.9395 1802.2403,-147.6297"/>
<polygon fill="#191970" stroke="#191970" points="1802.7585,-151.0929 1812.2782,-146.4425 1801.9363,-144.1414 1802.7585,-151.0929"/>
</g>
<!-- Node18&#45;&gt;Node16 -->
<g id="edge22" class="edge">
<title>Node18&#45;&gt;Node16</title>
<path fill="none" stroke="#191970" d="M1265.3224,-197.7886C1218.1258,-188.0261 1156.2956,-168.2134 1181.9306,-134 1216.0853,-88.416 1252.5323,-120.3351 1304.9306,-98 1305.925,-97.5761 1306.9289,-97.1239 1307.9346,-96.6503"/>
<polygon fill="#191970" stroke="#191970" points="1309.5908,-99.7339 1316.8331,-92.0008 1306.3491,-93.5297 1309.5908,-99.7339"/>
</g>
<!-- Node18&#45;&gt;Node17 -->
<g id="edge26" class="edge">
<title>Node18&#45;&gt;Node17</title>
<path fill="none" stroke="#191970" d="M1360.589,-203.2946C1432.6941,-198.994 1573.2641,-186.8282 1687.9306,-154 1736.0019,-140.2375 1788.0937,-113.7883 1818.272,-97.2028"/>
<polygon fill="#191970" stroke="#191970" points="1820.2338,-100.1165 1827.2673,-92.1931 1816.8279,-94.001 1820.2338,-100.1165"/>
</g>
<!-- Node19 -->
<g id="node20" class="node">
<title>Node19</title>
<polygon fill="none" stroke="#bfbfbf" points="1190.9306,-134.5 1190.9306,-153.5 1230.9306,-153.5 1230.9306,-134.5 1190.9306,-134.5"/>
<text text-anchor="middle" x="1210.9306" y="-141.5" font-family="Helvetica,sans-Serif" font-size="10.00" fill="#000000">limits</text>
</g>
<!-- Node18&#45;&gt;Node19 -->
<g id="edge21" class="edge">
<title>Node18&#45;&gt;Node19</title>
<path fill="none" stroke="#191970" d="M1287.9786,-190.4554C1272.0047,-180.8241 1251.3704,-168.3828 1235.4763,-158.7996"/>
<polygon fill="#191970" stroke="#191970" points="1237.108,-155.6965 1226.737,-153.5303 1233.4936,-161.6912 1237.108,-155.6965"/>
</g>
<!-- Node20 -->
<g id="node21" class="node">
<title>Node20</title>
<polygon fill="none" stroke="#bfbfbf" points="1249.4306,-134.5 1249.4306,-153.5 1290.4306,-153.5 1290.4306,-134.5 1249.4306,-134.5"/>
<text text-anchor="middle" x="1269.9306" y="-141.5" font-family="Helvetica,sans-Serif" font-size="10.00" fill="#000000">regex</text>
</g>
<!-- Node18&#45;&gt;Node20 -->
<g id="edge23" class="edge">
<title>Node18&#45;&gt;Node20</title>
<path fill="none" stroke="#191970" d="M1302.3014,-190.2977C1296.3325,-181.7609 1288.8468,-171.0545 1282.5777,-162.0883"/>
<polygon fill="#191970" stroke="#191970" points="1285.414,-160.0368 1276.8154,-153.8469 1279.6772,-164.048 1285.414,-160.0368"/>
</g>
<!-- Node21 -->
<g id="node22" class="node">
<title>Node21</title>
<polygon fill="none" stroke="#bfbfbf" points="1308.9306,-134.5 1308.9306,-153.5 1360.9306,-153.5 1360.9306,-134.5 1308.9306,-134.5"/>
<text text-anchor="middle" x="1334.9306" y="-141.5" font-family="Helvetica,sans-Serif" font-size="10.00" fill="#000000">sstream</text>
</g>
<!-- Node18&#45;&gt;Node21 -->
<g id="edge24" class="edge">
<title>Node18&#45;&gt;Node21</title>
<path fill="none" stroke="#191970" d="M1318.3688,-190.2977C1321.2636,-182.2055 1324.8557,-172.1639 1327.954,-163.5029"/>
<polygon fill="#191970" stroke="#191970" points="1331.3353,-164.4415 1331.4081,-153.8469 1324.7443,-162.0837 1331.3353,-164.4415"/>
</g>
<!-- Node22 -->
<g id="node23" class="node">
<title>Node22</title>
<g id="a_node23"><a xlink:href="general__exceptions_8h.html" target="_top" xlink:title="Definition of self&#45;defined general exceptions. ">
<polygon fill="none" stroke="#000000" points="1570.4306,-134.5 1570.4306,-153.5 1679.4306,-153.5 1679.4306,-134.5 1570.4306,-134.5"/>
<text text-anchor="middle" x="1624.9306" y="-141.5" font-family="Helvetica,sans-Serif" font-size="10.00" fill="#000000">general_exceptions.h</text>
</a>
</g>
</g>
<!-- Node18&#45;&gt;Node22 -->
<g id="edge27" class="edge">
<title>Node18&#45;&gt;Node22</title>
<path fill="none" stroke="#191970" d="M1360.6563,-196.0925C1416.0058,-185.1823 1507.2386,-167.1989 1566.708,-155.4766"/>
<polygon fill="#191970" stroke="#191970" points="1567.5628,-158.8755 1576.6971,-153.5076 1566.209,-152.0077 1567.5628,-158.8755"/>
</g>
<!-- Node24 -->
<g id="node25" class="node">
<title>Node24</title>
<g id="a_node25"><a xlink:href="generic__functors_8h.html" target="_top" xlink:title="This header file contains a set of self&#45;defined generic functors. ">
<polygon fill="none" stroke="#000000" points="1455.4306,-134.5 1455.4306,-153.5 1552.4306,-153.5 1552.4306,-134.5 1455.4306,-134.5"/>
<text text-anchor="middle" x="1503.9306" y="-141.5" font-family="Helvetica,sans-Serif" font-size="10.00" fill="#000000">generic_functors.h</text>
</a>
</g>
</g>
<!-- Node18&#45;&gt;Node24 -->
<g id="edge29" class="edge">
<title>Node18&#45;&gt;Node24</title>
<path fill="none" stroke="#191970" d="M1359.6545,-190.4554C1391.8028,-180.104 1434.0317,-166.5067 1464.487,-156.7004"/>
<polygon fill="#191970" stroke="#191970" points="1465.8864,-159.9269 1474.3324,-153.5303 1463.7409,-153.2638 1465.8864,-159.9269"/>
</g>
<!-- Node27 -->
<g id="node28" class="node">
<title>Node27</title>
<g id="a_node28"><a xlink:href="lapack__helpers_8h.html" target="_top" xlink:title="Exposes LAPACK helper functions defined in lapack_full_matrix.cc and define new ones by following the...">
<polygon fill="none" stroke="#000000" points="624.9306,-134.5 624.9306,-153.5 714.9306,-153.5 714.9306,-134.5 624.9306,-134.5"/>
<text text-anchor="middle" x="669.9306" y="-141.5" font-family="Helvetica,sans-Serif" font-size="10.00" fill="#000000">lapack_helpers.h</text>
</a>
</g>
</g>
<!-- Node18&#45;&gt;Node27 -->
<g id="edge37" class="edge">
<title>Node18&#45;&gt;Node27</title>
<path fill="none" stroke="#191970" d="M1265.3881,-200.9528C1148.8184,-189.8034 849.2846,-161.1544 725.124,-149.279"/>
<polygon fill="#191970" stroke="#191970" points="725.3643,-145.7861 715.0764,-148.318 724.6977,-152.7543 725.3643,-145.7861"/>
</g>
<!-- Node23 -->
<g id="node24" class="node">
<title>Node23</title>
<polygon fill="none" stroke="#bfbfbf" points="1555.9306,-73 1555.9306,-92 1681.9306,-92 1681.9306,-73 1555.9306,-73"/>
<text text-anchor="middle" x="1618.9306" y="-80" font-family="Helvetica,sans-Serif" font-size="10.00" fill="#000000">deal.II/base/exceptions.h</text>
</g>
<!-- Node22&#45;&gt;Node23 -->
<g id="edge28" class="edge">
<title>Node22&#45;&gt;Node23</title>
<path fill="none" stroke="#191970" d="M1623.9931,-134.3906C1623.1614,-125.8657 1621.9198,-113.1392 1620.8744,-102.4235"/>
<polygon fill="#191970" stroke="#191970" points="1624.3359,-101.8577 1619.8813,-92.2449 1617.3689,-102.5375 1624.3359,-101.8577"/>
</g>
<!-- Node24&#45;&gt;Node10 -->
<g id="edge31" class="edge">
<title>Node24&#45;&gt;Node10</title>
<path fill="none" stroke="#191970" d="M1542.9913,-134.4834C1580.8375,-125.241 1639.8462,-110.7732 1690.9306,-98 1695.343,-96.8967 1699.9333,-95.7424 1704.5269,-94.5829"/>
<polygon fill="#191970" stroke="#191970" points="1705.6849,-97.9002 1714.5206,-92.0538 1703.9676,-91.1142 1705.6849,-97.9002"/>
</g>
<!-- Node24&#45;&gt;Node13 -->
<g id="edge32" class="edge">
<title>Node24&#45;&gt;Node13</title>
<path fill="none" stroke="#191970" d="M1508.2823,-134.4627C1514.9466,-118.2524 1525.1979,-85.3074 1507.9306,-67 1479.5896,-36.952 873.0473,-20.955 683.8088,-16.6823"/>
<polygon fill="#191970" stroke="#191970" points="683.6058,-13.177 673.5301,-16.4525 683.4493,-20.1752 683.6058,-13.177"/>
</g>
<!-- Node24&#45;&gt;Node16 -->
<g id="edge35" class="edge">
<title>Node24&#45;&gt;Node16</title>
<path fill="none" stroke="#191970" d="M1465.2206,-134.4452C1435.263,-126.4264 1393.094,-113.7623 1357.9306,-98 1357.2293,-97.6856 1356.5232,-97.3566 1355.8153,-97.0156"/>
<polygon fill="#191970" stroke="#191970" points="1357.1997,-93.786 1346.7353,-92.1282 1353.8819,-99.9498 1357.1997,-93.786"/>
</g>
<!-- Node24&#45;&gt;Node17 -->
<g id="edge36" class="edge">
<title>Node24&#45;&gt;Node17</title>
<path fill="none" stroke="#191970" d="M1552.7311,-135.3335C1555.5037,-134.8738 1558.2516,-134.4262 1560.9306,-134 1672.6623,-116.2227 1704.9397,-131.7338 1812.9306,-98 1814.589,-97.4819 1816.2677,-96.8836 1817.941,-96.2296"/>
<polygon fill="#191970" stroke="#191970" points="1819.5885,-99.3269 1827.2868,-92.0477 1816.7294,-92.9374 1819.5885,-99.3269"/>
</g>
<!-- Node24&#45;&gt;Node23 -->
<g id="edge30" class="edge">
<title>Node24&#45;&gt;Node23</title>
<path fill="none" stroke="#191970" d="M1521.8993,-134.3906C1540.719,-124.3262 1570.4891,-108.4057 1592.0946,-96.8514"/>
<polygon fill="#191970" stroke="#191970" points="1593.9204,-99.8442 1601.088,-92.0419 1590.6192,-93.6714 1593.9204,-99.8442"/>
</g>
<!-- Node25 -->
<g id="node26" class="node">
<title>Node25</title>
<polygon fill="none" stroke="#bfbfbf" points="1367.4306,-73 1367.4306,-92 1434.4306,-92 1434.4306,-73 1367.4306,-73"/>
<text text-anchor="middle" x="1400.9306" y="-80" font-family="Helvetica,sans-Serif" font-size="10.00" fill="#000000">forward_list</text>
</g>
<!-- Node24&#45;&gt;Node25 -->
<g id="edge33" class="edge">
<title>Node24&#45;&gt;Node25</title>
<path fill="none" stroke="#191970" d="M1487.8368,-134.3906C1471.2078,-124.4616 1445.033,-108.833 1425.7512,-97.3201"/>
<polygon fill="#191970" stroke="#191970" points="1427.2916,-94.1634 1416.9113,-92.0419 1423.703,-100.1736 1427.2916,-94.1634"/>
</g>
<!-- Node26 -->
<g id="node27" class="node">
<title>Node26</title>
<polygon fill="none" stroke="#bfbfbf" points="1452.4306,-73 1452.4306,-92 1499.4306,-92 1499.4306,-73 1452.4306,-73"/>
<text text-anchor="middle" x="1475.9306" y="-80" font-family="Helvetica,sans-Serif" font-size="10.00" fill="#000000">iterator</text>
</g>
<!-- Node24&#45;&gt;Node26 -->
<g id="edge34" class="edge">
<title>Node24&#45;&gt;Node26</title>
<path fill="none" stroke="#191970" d="M1499.5556,-134.3906C1495.5518,-125.5965 1489.5123,-112.3312 1484.5421,-101.4145"/>
<polygon fill="#191970" stroke="#191970" points="1487.6963,-99.8957 1480.3673,-92.2449 1481.3255,-102.7963 1487.6963,-99.8957"/>
</g>
<!-- Node27&#45;&gt;Node11 -->
<g id="edge41" class="edge">
<title>Node27&#45;&gt;Node11</title>
<path fill="none" stroke="#191970" d="M715.188,-137.5877C771.2001,-129.4346 869.413,-114.4295 952.9306,-98 958.7092,-96.8632 964.7485,-95.5891 970.7335,-94.2726"/>
<polygon fill="#191970" stroke="#191970" points="971.7091,-97.6408 980.6988,-92.0341 970.1748,-90.811 971.7091,-97.6408"/>
</g>
<!-- Node27&#45;&gt;Node12 -->
<g id="edge42" class="edge">
<title>Node27&#45;&gt;Node12</title>
<path fill="none" stroke="#191970" d="M715.0366,-141.4682C790.1255,-136.7229 945.5537,-124.6465 1086.061,-97.9582"/>
<polygon fill="#191970" stroke="#191970" points="1086.9947,-101.3426 1096.1504,-96.0112 1085.6684,-94.4694 1086.9947,-101.3426"/>
</g>
<!-- Node27&#45;&gt;Node13 -->
<g id="edge43" class="edge">
<title>Node27&#45;&gt;Node13</title>
<path fill="none" stroke="#191970" d="M624.7921,-139.7412C549.71,-132.198 405.8796,-115.6155 390.9306,-98 382.0158,-87.4951 382.2843,-77.727 390.9306,-67 413.2703,-39.2845 509.4918,-25.7138 572.2521,-19.6938"/>
<polygon fill="#191970" stroke="#191970" points="572.7678,-23.1612 582.4041,-18.7575 572.1248,-16.1908 572.7678,-23.1612"/>
</g>
<!-- Node27&#45;&gt;Node14 -->
<g id="edge44" class="edge">
<title>Node27&#45;&gt;Node14</title>
<path fill="none" stroke="#191970" d="M714.9914,-142.9002C804.7436,-140.0983 1012.1978,-130.5655 1195.0959,-97.9162"/>
<polygon fill="#191970" stroke="#191970" points="1195.9502,-101.3185 1205.1654,-96.0905 1194.7013,-94.4307 1195.9502,-101.3185"/>
</g>
<!-- Node28 -->
<g id="node29" class="node">
<title>Node28</title>
<polygon fill="none" stroke="#bfbfbf" points="399.9306,-73 399.9306,-92 515.9306,-92 515.9306,-73 399.9306,-73"/>
<text text-anchor="middle" x="457.9306" y="-80" font-family="Helvetica,sans-Serif" font-size="10.00" fill="#000000">deal.II/base/numbers.h</text>
</g>
<!-- Node27&#45;&gt;Node28 -->
<g id="edge38" class="edge">
<title>Node27&#45;&gt;Node28</title>
<path fill="none" stroke="#191970" d="M636.8056,-134.3906C600.0895,-123.7395 540.7642,-106.5296 500.5968,-94.8772"/>
<polygon fill="#191970" stroke="#191970" points="501.4022,-91.4666 490.823,-92.0419 499.4519,-98.1895 501.4022,-91.4666"/>
</g>
<!-- Node29 -->
<g id="node30" class="node">
<title>Node29</title>
<polygon fill="none" stroke="#bfbfbf" points="533.9306,-67.5 533.9306,-97.5 661.9306,-97.5 661.9306,-67.5 533.9306,-67.5"/>
<text text-anchor="start" x="541.9306" y="-85.5" font-family="Helvetica,sans-Serif" font-size="10.00" fill="#000000">deal.II/lac/blas_extension</text>
<text text-anchor="middle" x="597.9306" y="-74.5" font-family="Helvetica,sans-Serif" font-size="10.00" fill="#000000">_templates.h</text>
</g>
<!-- Node27&#45;&gt;Node29 -->
<g id="edge39" class="edge">
<title>Node27&#45;&gt;Node29</title>
<path fill="none" stroke="#191970" d="M658.6806,-134.3906C649.2069,-126.2986 635.3012,-114.4207 623.1838,-104.0705"/>
<polygon fill="#191970" stroke="#191970" points="625.4208,-101.3782 615.5438,-97.5446 620.8743,-106.7008 625.4208,-101.3782"/>
</g>
<!-- Node30 -->
<g id="node31" class="node">
<title>Node30</title>
<polygon fill="none" stroke="#bfbfbf" points="679.9306,-73 679.9306,-92 805.9306,-92 805.9306,-73 679.9306,-73"/>
<text text-anchor="middle" x="742.9306" y="-80" font-family="Helvetica,sans-Serif" font-size="10.00" fill="#000000">deal.II/lac/block_vector.h</text>
</g>
<!-- Node27&#45;&gt;Node30 -->
<g id="edge40" class="edge">
<title>Node27&#45;&gt;Node30</title>
<path fill="none" stroke="#191970" d="M681.3368,-134.3906C692.6275,-124.8786 710.1273,-110.1357 723.5925,-98.7917"/>
<polygon fill="#191970" stroke="#191970" points="725.9708,-101.3646 731.3635,-92.2449 721.4607,-96.0111 725.9708,-101.3646"/>
</g>
<!-- Node31 -->
<g id="node32" class="node">
<title>Node31</title>
<polygon fill="none" stroke="#bfbfbf" points="15.9306,-67.5 15.9306,-97.5 107.9306,-97.5 107.9306,-67.5 15.9306,-67.5"/>
<text text-anchor="start" x="23.9306" y="-85.5" font-family="Helvetica,sans-Serif" font-size="10.00" fill="#000000">deal.II/lac/sparse</text>
<text text-anchor="middle" x="61.9306" y="-74.5" font-family="Helvetica,sans-Serif" font-size="10.00" fill="#000000">_matrix.h</text>
</g>
<!-- Node27&#45;&gt;Node31 -->
<g id="edge45" class="edge">
<title>Node27&#45;&gt;Node31</title>
<path fill="none" stroke="#191970" d="M624.7494,-143.167C531.535,-140.8199 311.1553,-132.0263 118.0416,-97.9727"/>
<polygon fill="#191970" stroke="#191970" points="118.4546,-94.4911 107.9942,-96.1735 117.2206,-101.3815 118.4546,-94.4911"/>
</g>
<!-- Node32 -->
<g id="node33" class="node">
<title>Node32</title>
<polygon fill="none" stroke="#bfbfbf" points="126.4306,-73 126.4306,-92 227.4306,-92 227.4306,-73 126.4306,-73"/>
<text text-anchor="middle" x="176.9306" y="-80" font-family="Helvetica,sans-Serif" font-size="10.00" fill="#000000">deal.II/lac/utilities.h</text>
</g>
<!-- Node27&#45;&gt;Node32 -->
<g id="edge46" class="edge">
<title>Node27&#45;&gt;Node32</title>
<path fill="none" stroke="#191970" d="M624.7396,-141.3934C545.6355,-136.3436 377.1452,-123.4167 236.9306,-98 231.5052,-97.0165 225.8474,-95.8056 220.2677,-94.4978"/>
<polygon fill="#191970" stroke="#191970" points="220.9219,-91.0545 210.3756,-92.0671 219.2515,-97.8523 220.9219,-91.0545"/>
</g>
<!-- Node33 -->
<g id="node34" class="node">
<title>Node33</title>
<polygon fill="none" stroke="#bfbfbf" points="245.9306,-73 245.9306,-92 343.9306,-92 343.9306,-73 245.9306,-73"/>
<text text-anchor="middle" x="294.9306" y="-80" font-family="Helvetica,sans-Serif" font-size="10.00" fill="#000000">deal.II/lac/vector.h</text>
</g>
<!-- Node27&#45;&gt;Node33 -->
<g id="edge47" class="edge">
<title>Node27&#45;&gt;Node33</title>
<path fill="none" stroke="#191970" d="M624.7512,-138.705C563.8629,-131.258 452.2217,-116.5069 357.9306,-98 352.4733,-96.9289 346.7775,-95.6943 341.1383,-94.3993"/>
<polygon fill="#191970" stroke="#191970" points="341.65,-90.9237 331.1125,-92.025 340.0368,-97.7353 341.65,-90.9237"/>
</g>
<!-- Node34 -->
<g id="node35" class="node">
<title>Node34</title>
<g id="a_node35"><a xlink:href="lapack__templates__ext_8h.html" target="_top" xlink:title="Append more template based LAPACK functions to those existing in deal.ii. ">
<polygon fill="none" stroke="#000000" points="823.9306,-73 823.9306,-92 943.9306,-92 943.9306,-73 823.9306,-73"/>
<text text-anchor="middle" x="883.9306" y="-80" font-family="Helvetica,sans-Serif" font-size="10.00" fill="#000000">lapack_templates_ext.h</text>
</a>
</g>
</g>
<!-- Node27&#45;&gt;Node34 -->
<g id="edge48" class="edge">
<title>Node27&#45;&gt;Node34</title>
<path fill="none" stroke="#191970" d="M703.3681,-134.3906C740.4306,-123.7395 800.3155,-106.5296 840.8618,-94.8772"/>
<polygon fill="#191970" stroke="#191970" points="842.0836,-98.1679 850.7279,-92.0419 840.1502,-91.4402 842.0836,-98.1679"/>
</g>
<!-- Node34&#45;&gt;Node13 -->
<g id="edge49" class="edge">
<title>Node34&#45;&gt;Node13</title>
<path fill="none" stroke="#191970" d="M847.5239,-72.9717C804.7773,-61.7841 733.4105,-43.1061 683.6803,-30.0907"/>
<polygon fill="#191970" stroke="#191970" points="684.2869,-26.6317 673.7265,-27.4857 682.5145,-33.4036 684.2869,-26.6317"/>
</g>
</g>
</svg>
