<?xml version="1.0" encoding="UTF-8" standalone="no"?>
<!DOCTYPE svg PUBLIC "-//W3C//DTD SVG 1.1//EN"
 "http://www.w3.org/Graphics/SVG/1.1/DTD/svg11.dtd">
<!-- Generated by graphviz version 2.40.1 (20161225.0304)
 -->
<!-- Title: /home/jihuan/Projects/deal.ii/program/dealii&#45;9.1.1/examples/laplace&#45;bem/tests/rkmatrix&#45;global&#45;to&#45;submatrix/rkmatrix&#45;global&#45;to&#45;submatrix.cc Pages: 1 -->
<svg width="1931pt" height="396pt"
 viewBox="0.00 0.00 1930.76 396.00" xmlns="http://www.w3.org/2000/svg" xmlns:xlink="http://www.w3.org/1999/xlink">
<g id="graph0" class="graph" transform="scale(1 1) rotate(0) translate(4 392)">
<title>/home/jihuan/Projects/deal.ii/program/dealii&#45;9.1.1/examples/laplace&#45;bem/tests/rkmatrix&#45;global&#45;to&#45;submatrix/rkmatrix&#45;global&#45;to&#45;submatrix.cc</title>
<!-- Node0 -->
<g id="node1" class="node">
<title>Node0</title>
<polygon fill="#bfbfbf" stroke="#000000" points="922,-313.5 922,-387.5 1062,-387.5 1062,-313.5 922,-313.5"/>
<text text-anchor="start" x="930" y="-375.5" font-family="Helvetica,sans-Serif" font-size="10.00" fill="#000000">/home/jihuan/Projects</text>
<text text-anchor="start" x="930" y="-364.5" font-family="Helvetica,sans-Serif" font-size="10.00" fill="#000000">/deal.ii/program/dealii</text>
<text text-anchor="start" x="930" y="-353.5" font-family="Helvetica,sans-Serif" font-size="10.00" fill="#000000">&#45;9.1.1/examples/laplace</text>
<text text-anchor="start" x="930" y="-342.5" font-family="Helvetica,sans-Serif" font-size="10.00" fill="#000000">&#45;bem/tests/rkmatrix&#45;global</text>
<text text-anchor="start" x="930" y="-331.5" font-family="Helvetica,sans-Serif" font-size="10.00" fill="#000000">&#45;to&#45;submatrix/rkmatrix&#45;global</text>
<text text-anchor="middle" x="992" y="-320.5" font-family="Helvetica,sans-Serif" font-size="10.00" fill="#000000">&#45;to&#45;submatrix.cc</text>
</g>
<!-- Node1 -->
<g id="node2" class="node">
<title>Node1</title>
<polygon fill="none" stroke="#bfbfbf" points="910,-257.5 910,-276.5 964,-276.5 964,-257.5 910,-257.5"/>
<text text-anchor="middle" x="937" y="-264.5" font-family="Helvetica,sans-Serif" font-size="10.00" fill="#000000">iostream</text>
</g>
<!-- Node0&#45;&gt;Node1 -->
<g id="edge1" class="edge">
<title>Node0&#45;&gt;Node1</title>
<path fill="none" stroke="#191970" d="M967.3956,-313.1461C960.9951,-303.4289 954.383,-293.3906 948.967,-285.1681"/>
<polygon fill="#191970" stroke="#191970" points="951.8591,-283.196 943.4354,-276.7701 946.0133,-287.0466 951.8591,-283.196"/>
</g>
<!-- Node2 -->
<g id="node3" class="node">
<title>Node2</title>
<g id="a_node3"><a xlink:href="lapack__full__matrix__ext_8h_source.html" target="_top" xlink:title="lapack_full_matrix\l_ext.h">
<polygon fill="none" stroke="#000000" points="292.5,-190.5 292.5,-220.5 387.5,-220.5 387.5,-190.5 292.5,-190.5"/>
<text text-anchor="start" x="300.5" y="-208.5" font-family="Helvetica,sans-Serif" font-size="10.00" fill="#000000">lapack_full_matrix</text>
<text text-anchor="middle" x="340" y="-197.5" font-family="Helvetica,sans-Serif" font-size="10.00" fill="#000000">_ext.h</text>
</a>
</g>
</g>
<!-- Node0&#45;&gt;Node2 -->
<g id="edge2" class="edge">
<title>Node0&#45;&gt;Node2</title>
<path fill="none" stroke="#191970" d="M994.4235,-313.2929C993.5484,-293.6166 988.7003,-270.7515 973,-257 928.9323,-218.4022 505.2518,-227.2036 447,-221 431.0001,-219.2961 413.7178,-216.9953 397.8061,-214.6885"/>
<polygon fill="#191970" stroke="#191970" points="397.9789,-211.1761 387.5749,-213.1779 396.9564,-218.101 397.9789,-211.1761"/>
</g>
<!-- Node25 -->
<g id="node26" class="node">
<title>Node25</title>
<g id="a_node26"><a xlink:href="rkmatrix_8h.html" target="_top" xlink:title="Definition of rank&#45;k matrix. ">
<polygon fill="none" stroke="#000000" points="1249,-257.5 1249,-276.5 1309,-276.5 1309,-257.5 1249,-257.5"/>
<text text-anchor="middle" x="1279" y="-264.5" font-family="Helvetica,sans-Serif" font-size="10.00" fill="#000000">rkmatrix.h</text>
</a>
</g>
</g>
<!-- Node0&#45;&gt;Node25 -->
<g id="edge30" class="edge">
<title>Node0&#45;&gt;Node25</title>
<path fill="none" stroke="#191970" d="M1062.2081,-330.0736C1117.7492,-313.9144 1193.3139,-291.9296 1238.9908,-278.6403"/>
<polygon fill="#191970" stroke="#191970" points="1240.1959,-281.9349 1248.82,-275.7806 1238.2403,-275.2136 1240.1959,-281.9349"/>
</g>
<!-- Node3 -->
<g id="node4" class="node">
<title>Node3</title>
<polygon fill="none" stroke="#bfbfbf" points="0,-134.5 0,-153.5 40,-153.5 40,-134.5 0,-134.5"/>
<text text-anchor="middle" x="20" y="-141.5" font-family="Helvetica,sans-Serif" font-size="10.00" fill="#000000">limits</text>
</g>
<!-- Node2&#45;&gt;Node3 -->
<g id="edge3" class="edge">
<title>Node2&#45;&gt;Node3</title>
<path fill="none" stroke="#191970" d="M292.36,-198.5331C235.3288,-189.8224 137.0991,-173.6418 54,-154 52.7201,-153.6975 51.4169,-153.3758 50.1032,-153.0402"/>
<polygon fill="#191970" stroke="#191970" points="50.6094,-149.55 40.04,-150.2839 48.7602,-156.3013 50.6094,-149.55"/>
</g>
<!-- Node4 -->
<g id="node5" class="node">
<title>Node4</title>
<polygon fill="none" stroke="#bfbfbf" points="203.5,-73 203.5,-92 238.5,-92 238.5,-73 203.5,-73"/>
<text text-anchor="middle" x="221" y="-80" font-family="Helvetica,sans-Serif" font-size="10.00" fill="#000000">map</text>
</g>
<!-- Node2&#45;&gt;Node4 -->
<g id="edge4" class="edge">
<title>Node2&#45;&gt;Node4</title>
<path fill="none" stroke="#191970" d="M292.2678,-202.7779C226.2792,-197.9039 112.4166,-185.1116 87,-154 55.1281,-114.9867 145.4592,-94.382 193.3462,-86.438"/>
<polygon fill="#191970" stroke="#191970" points="194.0792,-89.8657 203.4118,-84.8504 192.9885,-82.9512 194.0792,-89.8657"/>
</g>
<!-- Node5 -->
<g id="node6" class="node">
<title>Node5</title>
<polygon fill="none" stroke="#bfbfbf" points="96.5,-134.5 96.5,-153.5 137.5,-153.5 137.5,-134.5 96.5,-134.5"/>
<text text-anchor="middle" x="117" y="-141.5" font-family="Helvetica,sans-Serif" font-size="10.00" fill="#000000">regex</text>
</g>
<!-- Node2&#45;&gt;Node5 -->
<g id="edge5" class="edge">
<title>Node2&#45;&gt;Node5</title>
<path fill="none" stroke="#191970" d="M292.1834,-193.6054C255.1315,-184.1928 202.3262,-170.3544 147.1935,-153.9282"/>
<polygon fill="#191970" stroke="#191970" points="148.1882,-150.5726 137.6042,-151.0517 146.1769,-157.2774 148.1882,-150.5726"/>
</g>
<!-- Node6 -->
<g id="node7" class="node">
<title>Node6</title>
<polygon fill="none" stroke="#bfbfbf" points="156,-134.5 156,-153.5 208,-153.5 208,-134.5 156,-134.5"/>
<text text-anchor="middle" x="182" y="-141.5" font-family="Helvetica,sans-Serif" font-size="10.00" fill="#000000">sstream</text>
</g>
<!-- Node2&#45;&gt;Node6 -->
<g id="edge6" class="edge">
<title>Node2&#45;&gt;Node6</title>
<path fill="none" stroke="#191970" d="M301.3489,-190.4554C275.2174,-180.284 241.0347,-166.9787 215.9519,-157.2155"/>
<polygon fill="#191970" stroke="#191970" points="217.0729,-153.8961 206.4844,-153.5303 214.5338,-160.4193 217.0729,-153.8961"/>
</g>
<!-- Node7 -->
<g id="node8" class="node">
<title>Node7</title>
<polygon fill="none" stroke="#bfbfbf" points="226.5,-134.5 226.5,-153.5 267.5,-153.5 267.5,-134.5 226.5,-134.5"/>
<text text-anchor="middle" x="247" y="-141.5" font-family="Helvetica,sans-Serif" font-size="10.00" fill="#000000">string</text>
</g>
<!-- Node2&#45;&gt;Node7 -->
<g id="edge7" class="edge">
<title>Node2&#45;&gt;Node7</title>
<path fill="none" stroke="#191970" d="M317.0112,-190.2977C302.8034,-180.9022 284.6215,-168.8787 270.3475,-159.4395"/>
<polygon fill="#191970" stroke="#191970" points="271.8845,-156.2598 261.6128,-153.6633 268.0233,-162.0986 271.8845,-156.2598"/>
</g>
<!-- Node8 -->
<g id="node9" class="node">
<title>Node8</title>
<polygon fill="none" stroke="#bfbfbf" points="401,-73 401,-92 445,-92 445,-73 401,-73"/>
<text text-anchor="middle" x="423" y="-80" font-family="Helvetica,sans-Serif" font-size="10.00" fill="#000000">vector</text>
</g>
<!-- Node2&#45;&gt;Node8 -->
<g id="edge8" class="edge">
<title>Node2&#45;&gt;Node8</title>
<path fill="none" stroke="#191970" d="M365.0152,-190.455C378.0887,-181.4042 393.3356,-168.7793 403,-154 413.2311,-138.3542 418.2889,-117.4877 420.7513,-102.3375"/>
<polygon fill="#191970" stroke="#191970" points="424.2713,-102.432 422.1711,-92.0474 417.337,-101.4751 424.2713,-102.432"/>
</g>
<!-- Node9 -->
<g id="node10" class="node">
<title>Node9</title>
<g id="a_node10"><a xlink:href="general__exceptions_8h.html" target="_top" xlink:title="Definition of self&#45;defined general exceptions. ">
<polygon fill="none" stroke="#000000" points="285.5,-134.5 285.5,-153.5 394.5,-153.5 394.5,-134.5 285.5,-134.5"/>
<text text-anchor="middle" x="340" y="-141.5" font-family="Helvetica,sans-Serif" font-size="10.00" fill="#000000">general_exceptions.h</text>
</a>
</g>
</g>
<!-- Node2&#45;&gt;Node9 -->
<g id="edge9" class="edge">
<title>Node2&#45;&gt;Node9</title>
<path fill="none" stroke="#191970" d="M340,-190.2977C340,-182.3834 340,-172.6043 340,-164.0759"/>
<polygon fill="#191970" stroke="#191970" points="343.5001,-163.8469 340,-153.8469 336.5001,-163.847 343.5001,-163.8469"/>
</g>
<!-- Node11 -->
<g id="node12" class="node">
<title>Node11</title>
<g id="a_node12"><a xlink:href="generic__functors_8h.html" target="_top" xlink:title="This header file contains a set of self&#45;defined generic functors. ">
<polygon fill="none" stroke="#000000" points="489.5,-134.5 489.5,-153.5 586.5,-153.5 586.5,-134.5 489.5,-134.5"/>
<text text-anchor="middle" x="538" y="-141.5" font-family="Helvetica,sans-Serif" font-size="10.00" fill="#000000">generic_functors.h</text>
</a>
</g>
</g>
<!-- Node2&#45;&gt;Node11 -->
<g id="edge11" class="edge">
<title>Node2&#45;&gt;Node11</title>
<path fill="none" stroke="#191970" d="M387.6779,-190.691C421.2357,-180.2677 465.6679,-166.4668 497.5079,-156.5771"/>
<polygon fill="#191970" stroke="#191970" points="498.8616,-159.8216 507.3733,-153.5128 496.7852,-153.1367 498.8616,-159.8216"/>
</g>
<!-- Node14 -->
<g id="node15" class="node">
<title>Node14</title>
<g id="a_node15"><a xlink:href="lapack__helpers_8h.html" target="_top" xlink:title="Exposes LAPACK helper functions defined in lapack_full_matrix.cc and define new ones by following the...">
<polygon fill="none" stroke="#000000" points="1143,-134.5 1143,-153.5 1233,-153.5 1233,-134.5 1143,-134.5"/>
<text text-anchor="middle" x="1188" y="-141.5" font-family="Helvetica,sans-Serif" font-size="10.00" fill="#000000">lapack_helpers.h</text>
</a>
</g>
</g>
<!-- Node2&#45;&gt;Node14 -->
<g id="edge17" class="edge">
<title>Node2&#45;&gt;Node14</title>
<path fill="none" stroke="#191970" d="M387.7151,-202.0395C534.062,-191.4259 976.1082,-159.3672 1132.4654,-148.0276"/>
<polygon fill="#191970" stroke="#191970" points="1133.0632,-151.4935 1142.7838,-147.2792 1132.5568,-144.5118 1133.0632,-151.4935"/>
</g>
<!-- Node10 -->
<g id="node11" class="node">
<title>Node10</title>
<polygon fill="none" stroke="#bfbfbf" points="257,-73 257,-92 383,-92 383,-73 257,-73"/>
<text text-anchor="middle" x="320" y="-80" font-family="Helvetica,sans-Serif" font-size="10.00" fill="#000000">deal.II/base/exceptions.h</text>
</g>
<!-- Node9&#45;&gt;Node10 -->
<g id="edge10" class="edge">
<title>Node9&#45;&gt;Node10</title>
<path fill="none" stroke="#191970" d="M336.875,-134.3906C334.0735,-125.776 329.8767,-112.8708 326.3694,-102.0858"/>
<polygon fill="#191970" stroke="#191970" points="329.5902,-100.6722 323.1691,-92.2449 322.9333,-102.8371 329.5902,-100.6722"/>
</g>
<!-- Node11&#45;&gt;Node4 -->
<g id="edge15" class="edge">
<title>Node11&#45;&gt;Node4</title>
<path fill="none" stroke="#191970" d="M489.1611,-136.2471C484.376,-135.4877 479.5938,-134.7289 475,-134 374.1122,-117.9931 344.329,-131.9895 248,-98 246.7958,-97.5751 245.584,-97.0966 244.3761,-96.5781"/>
<polygon fill="#191970" stroke="#191970" points="245.8931,-93.4233 235.3886,-92.0428 242.7395,-99.6727 245.8931,-93.4233"/>
</g>
<!-- Node11&#45;&gt;Node8 -->
<g id="edge16" class="edge">
<title>Node11&#45;&gt;Node8</title>
<path fill="none" stroke="#191970" d="M520.0313,-134.3906C501.2116,-124.3262 471.4415,-108.4057 449.8359,-96.8514"/>
<polygon fill="#191970" stroke="#191970" points="451.3114,-93.6714 440.8426,-92.0419 448.0102,-99.8442 451.3114,-93.6714"/>
</g>
<!-- Node11&#45;&gt;Node10 -->
<g id="edge12" class="edge">
<title>Node11&#45;&gt;Node10</title>
<path fill="none" stroke="#191970" d="M503.9375,-134.3906C466.1023,-123.7169 404.9194,-106.4566 363.6115,-94.8033"/>
<polygon fill="#191970" stroke="#191970" points="364.398,-91.3886 353.8233,-92.0419 362.4973,-98.1256 364.398,-91.3886"/>
</g>
<!-- Node12 -->
<g id="node13" class="node">
<title>Node12</title>
<polygon fill="none" stroke="#bfbfbf" points="501.5,-73 501.5,-92 604.5,-92 604.5,-73 501.5,-73"/>
<text text-anchor="middle" x="553" y="-80" font-family="Helvetica,sans-Serif" font-size="10.00" fill="#000000">deal.II/base/types.h</text>
</g>
<!-- Node11&#45;&gt;Node12 -->
<g id="edge13" class="edge">
<title>Node11&#45;&gt;Node12</title>
<path fill="none" stroke="#191970" d="M540.3438,-134.3906C542.4449,-125.776 545.5925,-112.8708 548.223,-102.0858"/>
<polygon fill="#191970" stroke="#191970" points="551.6539,-102.7894 550.6232,-92.2449 544.8532,-101.1307 551.6539,-102.7894"/>
</g>
<!-- Node13 -->
<g id="node14" class="node">
<title>Node13</title>
<polygon fill="none" stroke="#bfbfbf" points="1016.5,-.5 1016.5,-30.5 1107.5,-30.5 1107.5,-.5 1016.5,-.5"/>
<text text-anchor="start" x="1024.5" y="-18.5" font-family="Helvetica,sans-Serif" font-size="10.00" fill="#000000">deal.II/lac/lapack</text>
<text text-anchor="middle" x="1062" y="-7.5" font-family="Helvetica,sans-Serif" font-size="10.00" fill="#000000">_support.h</text>
</g>
<!-- Node11&#45;&gt;Node13 -->
<g id="edge14" class="edge">
<title>Node11&#45;&gt;Node13</title>
<path fill="none" stroke="#191970" d="M525.0775,-134.397C505.7837,-118.9424 473.6797,-88.148 493,-67 527.1905,-29.5751 869.6018,-19.081 1006.1835,-16.3716"/>
<polygon fill="#191970" stroke="#191970" points="1006.4989,-19.8663 1016.43,-16.1754 1006.3648,-12.8676 1006.4989,-19.8663"/>
</g>
<!-- Node14&#45;&gt;Node13 -->
<g id="edge23" class="edge">
<title>Node14&#45;&gt;Node13</title>
<path fill="none" stroke="#191970" d="M1142.556,-141.7587C1016.1428,-135.3066 668.5191,-115.9975 652,-98 642.6835,-87.8497 642.8849,-77.3316 652,-67 675.0521,-40.8712 899.2515,-24.7401 1006.0168,-18.4807"/>
<polygon fill="#191970" stroke="#191970" points="1006.4985,-21.9588 1016.2801,-17.8883 1006.095,-14.9705 1006.4985,-21.9588"/>
</g>
<!-- Node15 -->
<g id="node16" class="node">
<title>Node15</title>
<polygon fill="none" stroke="#bfbfbf" points="661,-73 661,-92 777,-92 777,-73 661,-73"/>
<text text-anchor="middle" x="719" y="-80" font-family="Helvetica,sans-Serif" font-size="10.00" fill="#000000">deal.II/base/numbers.h</text>
</g>
<!-- Node14&#45;&gt;Node15 -->
<g id="edge18" class="edge">
<title>Node14&#45;&gt;Node15</title>
<path fill="none" stroke="#191970" d="M1142.8479,-140.5149C1068.2161,-134.3786 914.5889,-120.1576 786,-98 779.7458,-96.9223 773.2001,-95.6239 766.7537,-94.2429"/>
<polygon fill="#191970" stroke="#191970" points="767.2823,-90.7751 756.7614,-92.0245 765.7652,-97.6087 767.2823,-90.7751"/>
</g>
<!-- Node16 -->
<g id="node17" class="node">
<title>Node16</title>
<polygon fill="none" stroke="#bfbfbf" points="795,-67.5 795,-97.5 923,-97.5 923,-67.5 795,-67.5"/>
<text text-anchor="start" x="803" y="-85.5" font-family="Helvetica,sans-Serif" font-size="10.00" fill="#000000">deal.II/lac/blas_extension</text>
<text text-anchor="middle" x="859" y="-74.5" font-family="Helvetica,sans-Serif" font-size="10.00" fill="#000000">_templates.h</text>
</g>
<!-- Node14&#45;&gt;Node16 -->
<g id="edge19" class="edge">
<title>Node14&#45;&gt;Node16</title>
<path fill="none" stroke="#191970" d="M1142.6008,-136.2861C1093.4643,-127.8383 1012.5407,-113.6398 933.235,-98.2093"/>
<polygon fill="#191970" stroke="#191970" points="933.5565,-94.706 923.0708,-96.223 932.2139,-101.5761 933.5565,-94.706"/>
</g>
<!-- Node17 -->
<g id="node18" class="node">
<title>Node17</title>
<polygon fill="none" stroke="#bfbfbf" points="941,-73 941,-92 1067,-92 1067,-73 941,-73"/>
<text text-anchor="middle" x="1004" y="-80" font-family="Helvetica,sans-Serif" font-size="10.00" fill="#000000">deal.II/lac/block_vector.h</text>
</g>
<!-- Node14&#45;&gt;Node17 -->
<g id="edge20" class="edge">
<title>Node14&#45;&gt;Node17</title>
<path fill="none" stroke="#191970" d="M1159.25,-134.3906C1127.7883,-123.8749 1077.1992,-106.966 1042.3686,-95.3243"/>
<polygon fill="#191970" stroke="#191970" points="1043.1419,-91.8925 1032.5481,-92.0419 1040.9228,-98.5315 1043.1419,-91.8925"/>
</g>
<!-- Node18 -->
<g id="node19" class="node">
<title>Node18</title>
<polygon fill="none" stroke="#bfbfbf" points="1569,-73 1569,-92 1685,-92 1685,-73 1569,-73"/>
<text text-anchor="middle" x="1627" y="-80" font-family="Helvetica,sans-Serif" font-size="10.00" fill="#000000">deal.II/lac/full_matrix.h</text>
</g>
<!-- Node14&#45;&gt;Node18 -->
<g id="edge21" class="edge">
<title>Node14&#45;&gt;Node18</title>
<path fill="none" stroke="#191970" d="M1233.1772,-139.948C1303.4114,-133.3037 1442.8953,-118.7278 1560,-98 1566.1721,-96.9075 1572.6305,-95.6112 1578.9982,-94.2407"/>
<polygon fill="#191970" stroke="#191970" points="1579.8738,-97.6316 1588.8757,-92.0445 1578.3544,-90.7985 1579.8738,-97.6316"/>
</g>
<!-- Node19 -->
<g id="node20" class="node">
<title>Node19</title>
<polygon fill="none" stroke="#bfbfbf" points="1703.5,-67.5 1703.5,-97.5 1794.5,-97.5 1794.5,-67.5 1703.5,-67.5"/>
<text text-anchor="start" x="1711.5" y="-85.5" font-family="Helvetica,sans-Serif" font-size="10.00" fill="#000000">deal.II/lac/lapack</text>
<text text-anchor="middle" x="1749" y="-74.5" font-family="Helvetica,sans-Serif" font-size="10.00" fill="#000000">_full_matrix.h</text>
</g>
<!-- Node14&#45;&gt;Node19 -->
<g id="edge22" class="edge">
<title>Node14&#45;&gt;Node19</title>
<path fill="none" stroke="#191970" d="M1233.0509,-142.6828C1320.2556,-139.5343 1518.1971,-129.4703 1693.3253,-97.8926"/>
<polygon fill="#191970" stroke="#191970" points="1694.0265,-101.3225 1703.2326,-96.0785 1692.7657,-94.437 1694.0265,-101.3225"/>
</g>
<!-- Node20 -->
<g id="node21" class="node">
<title>Node20</title>
<polygon fill="none" stroke="#bfbfbf" points="1812.5,-67.5 1812.5,-97.5 1903.5,-97.5 1903.5,-67.5 1812.5,-67.5"/>
<text text-anchor="start" x="1820.5" y="-85.5" font-family="Helvetica,sans-Serif" font-size="10.00" fill="#000000">deal.II/lac/lapack</text>
<text text-anchor="middle" x="1858" y="-74.5" font-family="Helvetica,sans-Serif" font-size="10.00" fill="#000000">_templates.h</text>
</g>
<!-- Node14&#45;&gt;Node20 -->
<g id="edge24" class="edge">
<title>Node14&#45;&gt;Node20</title>
<path fill="none" stroke="#191970" d="M1233.2684,-141.8264C1352.8123,-135.8994 1675.8856,-118.6219 1802.303,-98.0187"/>
<polygon fill="#191970" stroke="#191970" points="1803.2243,-101.4119 1812.4896,-96.2734 1802.0421,-94.5125 1803.2243,-101.4119"/>
</g>
<!-- Node21 -->
<g id="node22" class="node">
<title>Node21</title>
<polygon fill="none" stroke="#bfbfbf" points="1085,-67.5 1085,-97.5 1177,-97.5 1177,-67.5 1085,-67.5"/>
<text text-anchor="start" x="1093" y="-85.5" font-family="Helvetica,sans-Serif" font-size="10.00" fill="#000000">deal.II/lac/sparse</text>
<text text-anchor="middle" x="1131" y="-74.5" font-family="Helvetica,sans-Serif" font-size="10.00" fill="#000000">_matrix.h</text>
</g>
<!-- Node14&#45;&gt;Node21 -->
<g id="edge25" class="edge">
<title>Node14&#45;&gt;Node21</title>
<path fill="none" stroke="#191970" d="M1179.0938,-134.3906C1171.8081,-126.5298 1161.2113,-115.0964 1151.8177,-104.9612"/>
<polygon fill="#191970" stroke="#191970" points="1154.3085,-102.4997 1144.9438,-97.5446 1149.1744,-107.2581 1154.3085,-102.4997"/>
</g>
<!-- Node22 -->
<g id="node23" class="node">
<title>Node22</title>
<polygon fill="none" stroke="#bfbfbf" points="1195.5,-73 1195.5,-92 1296.5,-92 1296.5,-73 1195.5,-73"/>
<text text-anchor="middle" x="1246" y="-80" font-family="Helvetica,sans-Serif" font-size="10.00" fill="#000000">deal.II/lac/utilities.h</text>
</g>
<!-- Node14&#45;&gt;Node22 -->
<g id="edge26" class="edge">
<title>Node14&#45;&gt;Node22</title>
<path fill="none" stroke="#191970" d="M1197.0625,-134.3906C1205.7793,-125.1478 1219.154,-110.966 1229.7196,-99.7628"/>
<polygon fill="#191970" stroke="#191970" points="1232.495,-101.9213 1236.8097,-92.2449 1227.4024,-97.1186 1232.495,-101.9213"/>
</g>
<!-- Node23 -->
<g id="node24" class="node">
<title>Node23</title>
<polygon fill="none" stroke="#bfbfbf" points="1315,-73 1315,-92 1413,-92 1413,-73 1315,-73"/>
<text text-anchor="middle" x="1364" y="-80" font-family="Helvetica,sans-Serif" font-size="10.00" fill="#000000">deal.II/lac/vector.h</text>
</g>
<!-- Node14&#45;&gt;Node23 -->
<g id="edge27" class="edge">
<title>Node14&#45;&gt;Node23</title>
<path fill="none" stroke="#191970" d="M1215.5,-134.3906C1245.4647,-123.92 1293.5683,-107.1111 1326.8698,-95.4745"/>
<polygon fill="#191970" stroke="#191970" points="1328.4074,-98.6448 1336.6931,-92.0419 1326.0983,-92.0366 1328.4074,-98.6448"/>
</g>
<!-- Node24 -->
<g id="node25" class="node">
<title>Node24</title>
<g id="a_node25"><a xlink:href="lapack__templates__ext_8h.html" target="_top" xlink:title="Append more template based LAPACK functions to those existing in deal.ii. ">
<polygon fill="none" stroke="#000000" points="1431,-73 1431,-92 1551,-92 1551,-73 1431,-73"/>
<text text-anchor="middle" x="1491" y="-80" font-family="Helvetica,sans-Serif" font-size="10.00" fill="#000000">lapack_templates_ext.h</text>
</a>
</g>
</g>
<!-- Node14&#45;&gt;Node24 -->
<g id="edge28" class="edge">
<title>Node14&#45;&gt;Node24</title>
<path fill="none" stroke="#191970" d="M1233.3696,-135.4554C1280.5659,-126.479 1356.5698,-111.7776 1422,-98 1427.6955,-96.8007 1433.6477,-95.5141 1439.5663,-94.2135"/>
<polygon fill="#191970" stroke="#191970" points="1440.4379,-97.6054 1449.4439,-92.0247 1438.9234,-90.7712 1440.4379,-97.6054"/>
</g>
<!-- Node24&#45;&gt;Node13 -->
<g id="edge29" class="edge">
<title>Node24&#45;&gt;Node13</title>
<path fill="none" stroke="#191970" d="M1450.9748,-72.9475C1441.5042,-70.8432 1431.4192,-68.7289 1422,-67 1314.8698,-47.3361 1188.6418,-30.7873 1117.7062,-22.085"/>
<polygon fill="#191970" stroke="#191970" points="1118.0006,-18.595 1107.6504,-20.8585 1117.1531,-25.5435 1118.0006,-18.595"/>
</g>
<!-- Node25&#45;&gt;Node2 -->
<g id="edge39" class="edge">
<title>Node25&#45;&gt;Node2</title>
<path fill="none" stroke="#191970" d="M1248.6533,-265.6839C1118.5569,-259.9862 607.3231,-237.0124 447,-221 430.9893,-219.4009 413.7034,-217.1348 397.7917,-214.8276"/>
<polygon fill="#191970" stroke="#191970" points="397.966,-211.3153 387.561,-213.3122 396.9402,-218.2398 397.966,-211.3153"/>
</g>
<!-- Node25&#45;&gt;Node4 -->
<g id="edge37" class="edge">
<title>Node25&#45;&gt;Node4</title>
<path fill="none" stroke="#191970" d="M1248.9002,-264.3328C1180.2795,-258.1078 1007.0445,-241.575 863,-221 692.3625,-196.6265 649.499,-190.3222 481,-154 446.0155,-146.4586 437.7657,-142.4933 403,-134 334.2979,-117.216 313.8163,-123.8823 248,-98 246.994,-97.6044 245.9804,-97.176 244.9665,-96.7223"/>
<polygon fill="#191970" stroke="#191970" points="246.5298,-93.5907 236.0318,-92.1612 243.347,-99.8253 246.5298,-93.5907"/>
</g>
<!-- Node25&#45;&gt;Node8 -->
<g id="edge38" class="edge">
<title>Node25&#45;&gt;Node8</title>
<path fill="none" stroke="#191970" d="M1248.8751,-262.6211C1198.2926,-255.1168 1093.1657,-238.8702 1005,-221 793.7151,-178.1749 542.4496,-113.7468 454.9303,-90.8992"/>
<polygon fill="#191970" stroke="#191970" points="455.6429,-87.4679 445.0826,-88.3233 453.8714,-94.24 455.6429,-87.4679"/>
</g>
<!-- Node25&#45;&gt;Node12 -->
<g id="edge31" class="edge">
<title>Node25&#45;&gt;Node12</title>
<path fill="none" stroke="#191970" d="M1248.9615,-258.3139C1172.4098,-236.2976 963.6364,-177.006 788,-134 727.401,-119.1619 657.5106,-104.1056 609.8039,-94.1377"/>
<polygon fill="#191970" stroke="#191970" points="610.4754,-90.7026 599.9718,-92.0898 609.048,-97.5555 610.4754,-90.7026"/>
</g>
<!-- Node25&#45;&gt;Node13 -->
<g id="edge34" class="edge">
<title>Node25&#45;&gt;Node13</title>
<path fill="none" stroke="#191970" d="M1309.0096,-263.0087C1446.0414,-244.2089 2001.8979,-161.4404 1913,-67 1885.6964,-37.9942 1302.3753,-21.3502 1117.6081,-16.7915"/>
<polygon fill="#191970" stroke="#191970" points="1117.6452,-13.2915 1107.5626,-16.5459 1117.4741,-20.2894 1117.6452,-13.2915"/>
</g>
<!-- Node25&#45;&gt;Node18 -->
<g id="edge32" class="edge">
<title>Node25&#45;&gt;Node18</title>
<path fill="none" stroke="#191970" d="M1297.22,-257.3402C1354.6544,-226.8901 1532.1281,-132.7985 1600.1173,-96.7525"/>
<polygon fill="#191970" stroke="#191970" points="1601.7647,-99.8406 1608.9603,-92.0641 1598.4858,-93.656 1601.7647,-99.8406"/>
</g>
<!-- Node25&#45;&gt;Node19 -->
<g id="edge33" class="edge">
<title>Node25&#45;&gt;Node19</title>
<path fill="none" stroke="#191970" d="M1307.2871,-257.4173C1333.7149,-248.3637 1374.2042,-234.235 1409,-221 1515.5294,-180.4803 1639.1284,-128.9903 1703.9718,-101.6264"/>
<polygon fill="#191970" stroke="#191970" points="1705.6338,-104.7238 1713.4831,-97.6078 1702.9094,-98.2758 1705.6338,-104.7238"/>
</g>
<!-- Node25&#45;&gt;Node20 -->
<g id="edge35" class="edge">
<title>Node25&#45;&gt;Node20</title>
<path fill="none" stroke="#191970" d="M1309.1504,-260.1125C1345.0752,-251.7179 1406.8,-236.6996 1459,-221 1586.3462,-182.6995 1733.5072,-129.1564 1808.4972,-101.189"/>
<polygon fill="#191970" stroke="#191970" points="1810.0111,-104.3597 1818.1531,-97.5803 1807.5606,-97.8026 1810.0111,-104.3597"/>
</g>
<!-- Node26 -->
<g id="node27" class="node">
<title>Node26</title>
<polygon fill="none" stroke="#bfbfbf" points="1773,-196 1773,-215 1817,-215 1817,-196 1773,-196"/>
<text text-anchor="middle" x="1795" y="-203" font-family="Helvetica,sans-Serif" font-size="10.00" fill="#000000">cmath</text>
</g>
<!-- Node25&#45;&gt;Node26 -->
<g id="edge36" class="edge">
<title>Node25&#45;&gt;Node26</title>
<path fill="none" stroke="#191970" d="M1309.0471,-265.3441C1400.2729,-260.1243 1673.0438,-243.0448 1759,-221 1761.48,-220.364 1764.0087,-219.5801 1766.5181,-218.7055"/>
<polygon fill="#191970" stroke="#191970" points="1767.9255,-221.9132 1775.9578,-215.0043 1765.3702,-215.3962 1767.9255,-221.9132"/>
</g>
</g>
</svg>
