<?xml version="1.0" encoding="UTF-8" standalone="no"?>
<!DOCTYPE svg PUBLIC "-//W3C//DTD SVG 1.1//EN"
 "http://www.w3.org/Graphics/SVG/1.1/DTD/svg11.dtd">
<!-- Generated by graphviz version 2.40.1 (20161225.0304)
 -->
<!-- Title: /home/jihuan/Projects/deal.ii/program/dealii&#45;9.1.1/examples/laplace&#45;bem/tests/rkmatrix&#45;agglomeration&#45;of&#45;two&#45;submatrices/rkmatrix&#45;agglomeration&#45;of&#45;two&#45;submatrices.cc Pages: 1 -->
<svg width="2081pt" height="396pt"
 viewBox="0.00 0.00 2081.09 396.00" xmlns="http://www.w3.org/2000/svg" xmlns:xlink="http://www.w3.org/1999/xlink">
<g id="graph0" class="graph" transform="scale(1 1) rotate(0) translate(4 392)">
<title>/home/jihuan/Projects/deal.ii/program/dealii&#45;9.1.1/examples/laplace&#45;bem/tests/rkmatrix&#45;agglomeration&#45;of&#45;two&#45;submatrices/rkmatrix&#45;agglomeration&#45;of&#45;two&#45;submatrices.cc</title>
<!-- Node0 -->
<g id="node1" class="node">
<title>Node0</title>
<polygon fill="#bfbfbf" stroke="#000000" points="964.5,-313.5 964.5,-387.5 1169.5,-387.5 1169.5,-313.5 964.5,-313.5"/>
<text text-anchor="start" x="972.5" y="-375.5" font-family="Helvetica,sans-Serif" font-size="10.00" fill="#000000">/home/jihuan/Projects</text>
<text text-anchor="start" x="972.5" y="-364.5" font-family="Helvetica,sans-Serif" font-size="10.00" fill="#000000">/deal.ii/program/dealii</text>
<text text-anchor="start" x="972.5" y="-353.5" font-family="Helvetica,sans-Serif" font-size="10.00" fill="#000000">&#45;9.1.1/examples/laplace</text>
<text text-anchor="start" x="972.5" y="-342.5" font-family="Helvetica,sans-Serif" font-size="10.00" fill="#000000">&#45;bem/tests/rkmatrix&#45;agglomeration</text>
<text text-anchor="start" x="972.5" y="-331.5" font-family="Helvetica,sans-Serif" font-size="10.00" fill="#000000">&#45;of&#45;two&#45;submatrices/rkmatrix&#45;agglomeration</text>
<text text-anchor="middle" x="1067" y="-320.5" font-family="Helvetica,sans-Serif" font-size="10.00" fill="#000000">&#45;of&#45;two&#45;submatrices.cc</text>
</g>
<!-- Node1 -->
<g id="node2" class="node">
<title>Node1</title>
<polygon fill="none" stroke="#bfbfbf" points="985,-257.5 985,-276.5 1039,-276.5 1039,-257.5 985,-257.5"/>
<text text-anchor="middle" x="1012" y="-264.5" font-family="Helvetica,sans-Serif" font-size="10.00" fill="#000000">iostream</text>
</g>
<!-- Node0&#45;&gt;Node1 -->
<g id="edge1" class="edge">
<title>Node0&#45;&gt;Node1</title>
<path fill="none" stroke="#191970" d="M1042.3956,-313.1461C1035.9951,-303.4289 1029.383,-293.3906 1023.967,-285.1681"/>
<polygon fill="#191970" stroke="#191970" points="1026.8591,-283.196 1018.4354,-276.7701 1021.0133,-287.0466 1026.8591,-283.196"/>
</g>
<!-- Node2 -->
<g id="node3" class="node">
<title>Node2</title>
<g id="a_node3"><a xlink:href="lapack__full__matrix__ext_8h_source.html" target="_top" xlink:title="lapack_full_matrix\l_ext.h">
<polygon fill="none" stroke="#000000" points="292.5,-190.5 292.5,-220.5 387.5,-220.5 387.5,-190.5 292.5,-190.5"/>
<text text-anchor="start" x="300.5" y="-208.5" font-family="Helvetica,sans-Serif" font-size="10.00" fill="#000000">lapack_full_matrix</text>
<text text-anchor="middle" x="340" y="-197.5" font-family="Helvetica,sans-Serif" font-size="10.00" fill="#000000">_ext.h</text>
</a>
</g>
</g>
<!-- Node0&#45;&gt;Node2 -->
<g id="edge2" class="edge">
<title>Node0&#45;&gt;Node2</title>
<path fill="none" stroke="#191970" d="M1069.4686,-313.2411C1068.6076,-293.5487 1063.7587,-270.6846 1048,-257 997.4894,-213.1372 513.5508,-227.8013 447,-221 430.993,-219.3641 413.7084,-217.0858 397.7966,-214.7788"/>
<polygon fill="#191970" stroke="#191970" points="397.9704,-211.2665 387.5658,-213.265 396.9458,-218.1911 397.9704,-211.2665"/>
</g>
<!-- Node27 -->
<g id="node28" class="node">
<title>Node27</title>
<g id="a_node28"><a xlink:href="rkmatrix_8h.html" target="_top" xlink:title="Definition of rank&#45;k matrix. ">
<polygon fill="none" stroke="#000000" points="1374,-257.5 1374,-276.5 1434,-276.5 1434,-257.5 1374,-257.5"/>
<text text-anchor="middle" x="1404" y="-264.5" font-family="Helvetica,sans-Serif" font-size="10.00" fill="#000000">rkmatrix.h</text>
</a>
</g>
</g>
<!-- Node0&#45;&gt;Node27 -->
<g id="edge32" class="edge">
<title>Node0&#45;&gt;Node27</title>
<path fill="none" stroke="#191970" d="M1169.9423,-324.9935C1235.4033,-308.774 1316.5037,-288.6793 1364.0237,-276.9051"/>
<polygon fill="#191970" stroke="#191970" points="1365.0575,-280.2549 1373.9222,-274.4525 1363.3739,-273.4603 1365.0575,-280.2549"/>
</g>
<!-- Node3 -->
<g id="node4" class="node">
<title>Node3</title>
<polygon fill="none" stroke="#bfbfbf" points="0,-134.5 0,-153.5 40,-153.5 40,-134.5 0,-134.5"/>
<text text-anchor="middle" x="20" y="-141.5" font-family="Helvetica,sans-Serif" font-size="10.00" fill="#000000">limits</text>
</g>
<!-- Node2&#45;&gt;Node3 -->
<g id="edge3" class="edge">
<title>Node2&#45;&gt;Node3</title>
<path fill="none" stroke="#191970" d="M292.36,-198.5331C235.3288,-189.8224 137.0991,-173.6418 54,-154 52.7201,-153.6975 51.4169,-153.3758 50.1032,-153.0402"/>
<polygon fill="#191970" stroke="#191970" points="50.6094,-149.55 40.04,-150.2839 48.7602,-156.3013 50.6094,-149.55"/>
</g>
<!-- Node4 -->
<g id="node5" class="node">
<title>Node4</title>
<polygon fill="none" stroke="#bfbfbf" points="203.5,-73 203.5,-92 238.5,-92 238.5,-73 203.5,-73"/>
<text text-anchor="middle" x="221" y="-80" font-family="Helvetica,sans-Serif" font-size="10.00" fill="#000000">map</text>
</g>
<!-- Node2&#45;&gt;Node4 -->
<g id="edge4" class="edge">
<title>Node2&#45;&gt;Node4</title>
<path fill="none" stroke="#191970" d="M292.2678,-202.7779C226.2792,-197.9039 112.4166,-185.1116 87,-154 55.1281,-114.9867 145.4592,-94.382 193.3462,-86.438"/>
<polygon fill="#191970" stroke="#191970" points="194.0792,-89.8657 203.4118,-84.8504 192.9885,-82.9512 194.0792,-89.8657"/>
</g>
<!-- Node5 -->
<g id="node6" class="node">
<title>Node5</title>
<polygon fill="none" stroke="#bfbfbf" points="96.5,-134.5 96.5,-153.5 137.5,-153.5 137.5,-134.5 96.5,-134.5"/>
<text text-anchor="middle" x="117" y="-141.5" font-family="Helvetica,sans-Serif" font-size="10.00" fill="#000000">regex</text>
</g>
<!-- Node2&#45;&gt;Node5 -->
<g id="edge5" class="edge">
<title>Node2&#45;&gt;Node5</title>
<path fill="none" stroke="#191970" d="M292.1834,-193.6054C255.1315,-184.1928 202.3262,-170.3544 147.1935,-153.9282"/>
<polygon fill="#191970" stroke="#191970" points="148.1882,-150.5726 137.6042,-151.0517 146.1769,-157.2774 148.1882,-150.5726"/>
</g>
<!-- Node6 -->
<g id="node7" class="node">
<title>Node6</title>
<polygon fill="none" stroke="#bfbfbf" points="156,-134.5 156,-153.5 208,-153.5 208,-134.5 156,-134.5"/>
<text text-anchor="middle" x="182" y="-141.5" font-family="Helvetica,sans-Serif" font-size="10.00" fill="#000000">sstream</text>
</g>
<!-- Node2&#45;&gt;Node6 -->
<g id="edge6" class="edge">
<title>Node2&#45;&gt;Node6</title>
<path fill="none" stroke="#191970" d="M301.3489,-190.4554C275.2174,-180.284 241.0347,-166.9787 215.9519,-157.2155"/>
<polygon fill="#191970" stroke="#191970" points="217.0729,-153.8961 206.4844,-153.5303 214.5338,-160.4193 217.0729,-153.8961"/>
</g>
<!-- Node7 -->
<g id="node8" class="node">
<title>Node7</title>
<polygon fill="none" stroke="#bfbfbf" points="226.5,-134.5 226.5,-153.5 267.5,-153.5 267.5,-134.5 226.5,-134.5"/>
<text text-anchor="middle" x="247" y="-141.5" font-family="Helvetica,sans-Serif" font-size="10.00" fill="#000000">string</text>
</g>
<!-- Node2&#45;&gt;Node7 -->
<g id="edge7" class="edge">
<title>Node2&#45;&gt;Node7</title>
<path fill="none" stroke="#191970" d="M317.0112,-190.2977C302.8034,-180.9022 284.6215,-168.8787 270.3475,-159.4395"/>
<polygon fill="#191970" stroke="#191970" points="271.8845,-156.2598 261.6128,-153.6633 268.0233,-162.0986 271.8845,-156.2598"/>
</g>
<!-- Node8 -->
<g id="node9" class="node">
<title>Node8</title>
<polygon fill="none" stroke="#bfbfbf" points="401,-73 401,-92 445,-92 445,-73 401,-73"/>
<text text-anchor="middle" x="423" y="-80" font-family="Helvetica,sans-Serif" font-size="10.00" fill="#000000">vector</text>
</g>
<!-- Node2&#45;&gt;Node8 -->
<g id="edge8" class="edge">
<title>Node2&#45;&gt;Node8</title>
<path fill="none" stroke="#191970" d="M365.0152,-190.455C378.0887,-181.4042 393.3356,-168.7793 403,-154 413.2311,-138.3542 418.2889,-117.4877 420.7513,-102.3375"/>
<polygon fill="#191970" stroke="#191970" points="424.2713,-102.432 422.1711,-92.0474 417.337,-101.4751 424.2713,-102.432"/>
</g>
<!-- Node9 -->
<g id="node10" class="node">
<title>Node9</title>
<g id="a_node10"><a xlink:href="general__exceptions_8h.html" target="_top" xlink:title="Definition of self&#45;defined general exceptions. ">
<polygon fill="none" stroke="#000000" points="285.5,-134.5 285.5,-153.5 394.5,-153.5 394.5,-134.5 285.5,-134.5"/>
<text text-anchor="middle" x="340" y="-141.5" font-family="Helvetica,sans-Serif" font-size="10.00" fill="#000000">general_exceptions.h</text>
</a>
</g>
</g>
<!-- Node2&#45;&gt;Node9 -->
<g id="edge9" class="edge">
<title>Node2&#45;&gt;Node9</title>
<path fill="none" stroke="#191970" d="M340,-190.2977C340,-182.3834 340,-172.6043 340,-164.0759"/>
<polygon fill="#191970" stroke="#191970" points="343.5001,-163.8469 340,-153.8469 336.5001,-163.847 343.5001,-163.8469"/>
</g>
<!-- Node11 -->
<g id="node12" class="node">
<title>Node11</title>
<g id="a_node12"><a xlink:href="generic__functors_8h.html" target="_top" xlink:title="This header file contains a set of self&#45;defined generic functors. ">
<polygon fill="none" stroke="#000000" points="527.5,-134.5 527.5,-153.5 624.5,-153.5 624.5,-134.5 527.5,-134.5"/>
<text text-anchor="middle" x="576" y="-141.5" font-family="Helvetica,sans-Serif" font-size="10.00" fill="#000000">generic_functors.h</text>
</a>
</g>
</g>
<!-- Node2&#45;&gt;Node11 -->
<g id="edge11" class="edge">
<title>Node2&#45;&gt;Node11</title>
<path fill="none" stroke="#191970" d="M387.7581,-193.0546C429.1926,-182.257 488.7944,-166.7252 529.7732,-156.0464"/>
<polygon fill="#191970" stroke="#191970" points="530.7149,-159.418 539.5091,-153.5093 528.9497,-152.6442 530.7149,-159.418"/>
</g>
<!-- Node16 -->
<g id="node17" class="node">
<title>Node16</title>
<g id="a_node17"><a xlink:href="lapack__helpers_8h.html" target="_top" xlink:title="Exposes LAPACK helper functions defined in lapack_full_matrix.cc and define new ones by following the...">
<polygon fill="none" stroke="#000000" points="1293,-134.5 1293,-153.5 1383,-153.5 1383,-134.5 1293,-134.5"/>
<text text-anchor="middle" x="1338" y="-141.5" font-family="Helvetica,sans-Serif" font-size="10.00" fill="#000000">lapack_helpers.h</text>
</a>
</g>
</g>
<!-- Node2&#45;&gt;Node16 -->
<g id="edge19" class="edge">
<title>Node2&#45;&gt;Node16</title>
<path fill="none" stroke="#191970" d="M387.7994,-202.5544C553.9164,-192.3178 1105.6351,-158.3191 1282.7507,-147.4046"/>
<polygon fill="#191970" stroke="#191970" points="1283.1176,-150.8888 1292.8833,-146.7802 1282.6869,-143.902 1283.1176,-150.8888"/>
</g>
<!-- Node10 -->
<g id="node11" class="node">
<title>Node10</title>
<polygon fill="none" stroke="#bfbfbf" points="257,-73 257,-92 383,-92 383,-73 257,-73"/>
<text text-anchor="middle" x="320" y="-80" font-family="Helvetica,sans-Serif" font-size="10.00" fill="#000000">deal.II/base/exceptions.h</text>
</g>
<!-- Node9&#45;&gt;Node10 -->
<g id="edge10" class="edge">
<title>Node9&#45;&gt;Node10</title>
<path fill="none" stroke="#191970" d="M336.875,-134.3906C334.0735,-125.776 329.8767,-112.8708 326.3694,-102.0858"/>
<polygon fill="#191970" stroke="#191970" points="329.5902,-100.6722 323.1691,-92.2449 322.9333,-102.8371 329.5902,-100.6722"/>
</g>
<!-- Node11&#45;&gt;Node4 -->
<g id="edge17" class="edge">
<title>Node11&#45;&gt;Node4</title>
<path fill="none" stroke="#191970" d="M527.3246,-138.2106C442.4415,-127.9609 273.8715,-106.8685 248,-98 246.7921,-97.5859 245.5771,-97.1163 244.3668,-96.6048"/>
<polygon fill="#191970" stroke="#191970" points="245.8786,-93.4476 235.3704,-92.0949 242.7415,-99.7053 245.8786,-93.4476"/>
</g>
<!-- Node11&#45;&gt;Node8 -->
<g id="edge18" class="edge">
<title>Node11&#45;&gt;Node8</title>
<path fill="none" stroke="#191970" d="M550.8015,-134.3606C527.0437,-125.2091 490.4843,-110.9632 459,-98 457.5843,-97.4171 456.1393,-96.8169 454.6811,-96.207"/>
<polygon fill="#191970" stroke="#191970" points="455.6107,-92.7997 445.0376,-92.1206 452.8795,-99.2449 455.6107,-92.7997"/>
</g>
<!-- Node11&#45;&gt;Node10 -->
<g id="edge12" class="edge">
<title>Node11&#45;&gt;Node10</title>
<path fill="none" stroke="#191970" d="M536.2809,-134.4581C491.4397,-123.6857 418.4157,-106.1428 369.7975,-94.4631"/>
<polygon fill="#191970" stroke="#191970" points="370.3532,-90.9971 359.8123,-92.0643 368.7181,-97.8034 370.3532,-90.9971"/>
</g>
<!-- Node12 -->
<g id="node13" class="node">
<title>Node12</title>
<polygon fill="none" stroke="#bfbfbf" points="651.5,-73 651.5,-92 754.5,-92 754.5,-73 651.5,-73"/>
<text text-anchor="middle" x="703" y="-80" font-family="Helvetica,sans-Serif" font-size="10.00" fill="#000000">deal.II/base/types.h</text>
</g>
<!-- Node11&#45;&gt;Node12 -->
<g id="edge13" class="edge">
<title>Node11&#45;&gt;Node12</title>
<path fill="none" stroke="#191970" d="M595.8438,-134.3906C616.8136,-124.2359 650.0944,-108.1196 674.0036,-96.5416"/>
<polygon fill="#191970" stroke="#191970" points="675.8208,-99.5504 683.2956,-92.0419 672.7699,-93.2502 675.8208,-99.5504"/>
</g>
<!-- Node13 -->
<g id="node14" class="node">
<title>Node13</title>
<polygon fill="none" stroke="#bfbfbf" points="1166.5,-.5 1166.5,-30.5 1257.5,-30.5 1257.5,-.5 1166.5,-.5"/>
<text text-anchor="start" x="1174.5" y="-18.5" font-family="Helvetica,sans-Serif" font-size="10.00" fill="#000000">deal.II/lac/lapack</text>
<text text-anchor="middle" x="1212" y="-7.5" font-family="Helvetica,sans-Serif" font-size="10.00" fill="#000000">_support.h</text>
</g>
<!-- Node11&#45;&gt;Node13 -->
<g id="edge14" class="edge">
<title>Node11&#45;&gt;Node13</title>
<path fill="none" stroke="#191970" d="M542.1035,-134.4632C524.1299,-127.4893 503.6198,-116.0275 493,-98 486.0068,-86.1289 483.6121,-77.0844 493,-67 515.5158,-42.8138 990.4151,-23.4773 1155.804,-17.4547"/>
<polygon fill="#191970" stroke="#191970" points="1156.3752,-20.9364 1166.2422,-17.0773 1156.1223,-13.941 1156.3752,-20.9364"/>
</g>
<!-- Node14 -->
<g id="node15" class="node">
<title>Node14</title>
<polygon fill="none" stroke="#bfbfbf" points="501.5,-73 501.5,-92 568.5,-92 568.5,-73 501.5,-73"/>
<text text-anchor="middle" x="535" y="-80" font-family="Helvetica,sans-Serif" font-size="10.00" fill="#000000">forward_list</text>
</g>
<!-- Node11&#45;&gt;Node14 -->
<g id="edge15" class="edge">
<title>Node11&#45;&gt;Node14</title>
<path fill="none" stroke="#191970" d="M569.5938,-134.3906C563.6114,-125.417 554.5253,-111.7879 547.1661,-100.7491"/>
<polygon fill="#191970" stroke="#191970" points="549.9558,-98.6239 541.4966,-92.2449 544.1314,-102.5068 549.9558,-98.6239"/>
</g>
<!-- Node15 -->
<g id="node16" class="node">
<title>Node15</title>
<polygon fill="none" stroke="#bfbfbf" points="586.5,-73 586.5,-92 633.5,-92 633.5,-73 586.5,-73"/>
<text text-anchor="middle" x="610" y="-80" font-family="Helvetica,sans-Serif" font-size="10.00" fill="#000000">iterator</text>
</g>
<!-- Node11&#45;&gt;Node15 -->
<g id="edge16" class="edge">
<title>Node11&#45;&gt;Node15</title>
<path fill="none" stroke="#191970" d="M581.3125,-134.3906C586.2239,-125.5068 593.6579,-112.0601 599.7275,-101.0811"/>
<polygon fill="#191970" stroke="#191970" points="602.8373,-102.6899 604.6126,-92.2449 596.7112,-99.3031 602.8373,-102.6899"/>
</g>
<!-- Node16&#45;&gt;Node13 -->
<g id="edge25" class="edge">
<title>Node16&#45;&gt;Node13</title>
<path fill="none" stroke="#191970" d="M1292.556,-141.7587C1166.1428,-135.3066 818.5191,-115.9975 802,-98 792.6835,-87.8497 792.8849,-77.3316 802,-67 825.0521,-40.8712 1049.2515,-24.7401 1156.0168,-18.4807"/>
<polygon fill="#191970" stroke="#191970" points="1156.4985,-21.9588 1166.2801,-17.8883 1156.095,-14.9705 1156.4985,-21.9588"/>
</g>
<!-- Node17 -->
<g id="node18" class="node">
<title>Node17</title>
<polygon fill="none" stroke="#bfbfbf" points="811,-73 811,-92 927,-92 927,-73 811,-73"/>
<text text-anchor="middle" x="869" y="-80" font-family="Helvetica,sans-Serif" font-size="10.00" fill="#000000">deal.II/base/numbers.h</text>
</g>
<!-- Node16&#45;&gt;Node17 -->
<g id="edge20" class="edge">
<title>Node16&#45;&gt;Node17</title>
<path fill="none" stroke="#191970" d="M1292.8479,-140.5149C1218.2161,-134.3786 1064.5889,-120.1576 936,-98 929.7458,-96.9223 923.2001,-95.6239 916.7537,-94.2429"/>
<polygon fill="#191970" stroke="#191970" points="917.2823,-90.7751 906.7614,-92.0245 915.7652,-97.6087 917.2823,-90.7751"/>
</g>
<!-- Node18 -->
<g id="node19" class="node">
<title>Node18</title>
<polygon fill="none" stroke="#bfbfbf" points="945,-67.5 945,-97.5 1073,-97.5 1073,-67.5 945,-67.5"/>
<text text-anchor="start" x="953" y="-85.5" font-family="Helvetica,sans-Serif" font-size="10.00" fill="#000000">deal.II/lac/blas_extension</text>
<text text-anchor="middle" x="1009" y="-74.5" font-family="Helvetica,sans-Serif" font-size="10.00" fill="#000000">_templates.h</text>
</g>
<!-- Node16&#45;&gt;Node18 -->
<g id="edge21" class="edge">
<title>Node16&#45;&gt;Node18</title>
<path fill="none" stroke="#191970" d="M1292.6008,-136.2861C1243.4643,-127.8383 1162.5407,-113.6398 1083.235,-98.2093"/>
<polygon fill="#191970" stroke="#191970" points="1083.5565,-94.706 1073.0708,-96.223 1082.2139,-101.5761 1083.5565,-94.706"/>
</g>
<!-- Node19 -->
<g id="node20" class="node">
<title>Node19</title>
<polygon fill="none" stroke="#bfbfbf" points="1091,-73 1091,-92 1217,-92 1217,-73 1091,-73"/>
<text text-anchor="middle" x="1154" y="-80" font-family="Helvetica,sans-Serif" font-size="10.00" fill="#000000">deal.II/lac/block_vector.h</text>
</g>
<!-- Node16&#45;&gt;Node19 -->
<g id="edge22" class="edge">
<title>Node16&#45;&gt;Node19</title>
<path fill="none" stroke="#191970" d="M1309.25,-134.3906C1277.7883,-123.8749 1227.1992,-106.966 1192.3686,-95.3243"/>
<polygon fill="#191970" stroke="#191970" points="1193.1419,-91.8925 1182.5481,-92.0419 1190.9228,-98.5315 1193.1419,-91.8925"/>
</g>
<!-- Node20 -->
<g id="node21" class="node">
<title>Node20</title>
<polygon fill="none" stroke="#bfbfbf" points="1719,-73 1719,-92 1835,-92 1835,-73 1719,-73"/>
<text text-anchor="middle" x="1777" y="-80" font-family="Helvetica,sans-Serif" font-size="10.00" fill="#000000">deal.II/lac/full_matrix.h</text>
</g>
<!-- Node16&#45;&gt;Node20 -->
<g id="edge23" class="edge">
<title>Node16&#45;&gt;Node20</title>
<path fill="none" stroke="#191970" d="M1383.1772,-139.948C1453.4114,-133.3037 1592.8953,-118.7278 1710,-98 1716.1721,-96.9075 1722.6305,-95.6112 1728.9982,-94.2407"/>
<polygon fill="#191970" stroke="#191970" points="1729.8738,-97.6316 1738.8757,-92.0445 1728.3544,-90.7985 1729.8738,-97.6316"/>
</g>
<!-- Node21 -->
<g id="node22" class="node">
<title>Node21</title>
<polygon fill="none" stroke="#bfbfbf" points="1853.5,-67.5 1853.5,-97.5 1944.5,-97.5 1944.5,-67.5 1853.5,-67.5"/>
<text text-anchor="start" x="1861.5" y="-85.5" font-family="Helvetica,sans-Serif" font-size="10.00" fill="#000000">deal.II/lac/lapack</text>
<text text-anchor="middle" x="1899" y="-74.5" font-family="Helvetica,sans-Serif" font-size="10.00" fill="#000000">_full_matrix.h</text>
</g>
<!-- Node16&#45;&gt;Node21 -->
<g id="edge24" class="edge">
<title>Node16&#45;&gt;Node21</title>
<path fill="none" stroke="#191970" d="M1383.0509,-142.6828C1470.2556,-139.5343 1668.1971,-129.4703 1843.3253,-97.8926"/>
<polygon fill="#191970" stroke="#191970" points="1844.0265,-101.3225 1853.2326,-96.0785 1842.7657,-94.437 1844.0265,-101.3225"/>
</g>
<!-- Node22 -->
<g id="node23" class="node">
<title>Node22</title>
<polygon fill="none" stroke="#bfbfbf" points="1962.5,-67.5 1962.5,-97.5 2053.5,-97.5 2053.5,-67.5 1962.5,-67.5"/>
<text text-anchor="start" x="1970.5" y="-85.5" font-family="Helvetica,sans-Serif" font-size="10.00" fill="#000000">deal.II/lac/lapack</text>
<text text-anchor="middle" x="2008" y="-74.5" font-family="Helvetica,sans-Serif" font-size="10.00" fill="#000000">_templates.h</text>
</g>
<!-- Node16&#45;&gt;Node22 -->
<g id="edge26" class="edge">
<title>Node16&#45;&gt;Node22</title>
<path fill="none" stroke="#191970" d="M1383.2684,-141.8264C1502.8123,-135.8994 1825.8856,-118.6219 1952.303,-98.0187"/>
<polygon fill="#191970" stroke="#191970" points="1953.2243,-101.4119 1962.4896,-96.2734 1952.0421,-94.5125 1953.2243,-101.4119"/>
</g>
<!-- Node23 -->
<g id="node24" class="node">
<title>Node23</title>
<polygon fill="none" stroke="#bfbfbf" points="1235,-67.5 1235,-97.5 1327,-97.5 1327,-67.5 1235,-67.5"/>
<text text-anchor="start" x="1243" y="-85.5" font-family="Helvetica,sans-Serif" font-size="10.00" fill="#000000">deal.II/lac/sparse</text>
<text text-anchor="middle" x="1281" y="-74.5" font-family="Helvetica,sans-Serif" font-size="10.00" fill="#000000">_matrix.h</text>
</g>
<!-- Node16&#45;&gt;Node23 -->
<g id="edge27" class="edge">
<title>Node16&#45;&gt;Node23</title>
<path fill="none" stroke="#191970" d="M1329.0938,-134.3906C1321.8081,-126.5298 1311.2113,-115.0964 1301.8177,-104.9612"/>
<polygon fill="#191970" stroke="#191970" points="1304.3085,-102.4997 1294.9438,-97.5446 1299.1744,-107.2581 1304.3085,-102.4997"/>
</g>
<!-- Node24 -->
<g id="node25" class="node">
<title>Node24</title>
<polygon fill="none" stroke="#bfbfbf" points="1345.5,-73 1345.5,-92 1446.5,-92 1446.5,-73 1345.5,-73"/>
<text text-anchor="middle" x="1396" y="-80" font-family="Helvetica,sans-Serif" font-size="10.00" fill="#000000">deal.II/lac/utilities.h</text>
</g>
<!-- Node16&#45;&gt;Node24 -->
<g id="edge28" class="edge">
<title>Node16&#45;&gt;Node24</title>
<path fill="none" stroke="#191970" d="M1347.0625,-134.3906C1355.7793,-125.1478 1369.154,-110.966 1379.7196,-99.7628"/>
<polygon fill="#191970" stroke="#191970" points="1382.495,-101.9213 1386.8097,-92.2449 1377.4024,-97.1186 1382.495,-101.9213"/>
</g>
<!-- Node25 -->
<g id="node26" class="node">
<title>Node25</title>
<polygon fill="none" stroke="#bfbfbf" points="1465,-73 1465,-92 1563,-92 1563,-73 1465,-73"/>
<text text-anchor="middle" x="1514" y="-80" font-family="Helvetica,sans-Serif" font-size="10.00" fill="#000000">deal.II/lac/vector.h</text>
</g>
<!-- Node16&#45;&gt;Node25 -->
<g id="edge29" class="edge">
<title>Node16&#45;&gt;Node25</title>
<path fill="none" stroke="#191970" d="M1365.5,-134.3906C1395.4647,-123.92 1443.5683,-107.1111 1476.8698,-95.4745"/>
<polygon fill="#191970" stroke="#191970" points="1478.4074,-98.6448 1486.6931,-92.0419 1476.0983,-92.0366 1478.4074,-98.6448"/>
</g>
<!-- Node26 -->
<g id="node27" class="node">
<title>Node26</title>
<g id="a_node27"><a xlink:href="lapack__templates__ext_8h.html" target="_top" xlink:title="Append more template based LAPACK functions to those existing in deal.ii. ">
<polygon fill="none" stroke="#000000" points="1581,-73 1581,-92 1701,-92 1701,-73 1581,-73"/>
<text text-anchor="middle" x="1641" y="-80" font-family="Helvetica,sans-Serif" font-size="10.00" fill="#000000">lapack_templates_ext.h</text>
</a>
</g>
</g>
<!-- Node16&#45;&gt;Node26 -->
<g id="edge30" class="edge">
<title>Node16&#45;&gt;Node26</title>
<path fill="none" stroke="#191970" d="M1383.3696,-135.4554C1430.5659,-126.479 1506.5698,-111.7776 1572,-98 1577.6955,-96.8007 1583.6477,-95.5141 1589.5663,-94.2135"/>
<polygon fill="#191970" stroke="#191970" points="1590.4379,-97.6054 1599.4439,-92.0247 1588.9234,-90.7712 1590.4379,-97.6054"/>
</g>
<!-- Node26&#45;&gt;Node13 -->
<g id="edge31" class="edge">
<title>Node26&#45;&gt;Node13</title>
<path fill="none" stroke="#191970" d="M1600.9748,-72.9475C1591.5042,-70.8432 1581.4192,-68.7289 1572,-67 1464.8698,-47.3361 1338.6418,-30.7873 1267.7062,-22.085"/>
<polygon fill="#191970" stroke="#191970" points="1268.0006,-18.595 1257.6504,-20.8585 1267.1531,-25.5435 1268.0006,-18.595"/>
</g>
<!-- Node27&#45;&gt;Node2 -->
<g id="edge41" class="edge">
<title>Node27&#45;&gt;Node2</title>
<path fill="none" stroke="#191970" d="M1373.9654,-265.9452C1232.7014,-260.9243 633.4762,-238.9465 447,-221 430.9836,-219.4586 413.6959,-217.2115 397.7842,-214.9042"/>
<polygon fill="#191970" stroke="#191970" points="397.9593,-211.3919 387.5538,-213.386 396.9317,-218.3161 397.9593,-211.3919"/>
</g>
<!-- Node27&#45;&gt;Node4 -->
<g id="edge39" class="edge">
<title>Node27&#45;&gt;Node4</title>
<path fill="none" stroke="#191970" d="M1373.6637,-266.1714C1252.4404,-262.6977 802.6397,-248.2106 663,-221 543.3964,-197.6937 520.2561,-167.1543 403,-134 334.9456,-114.7575 313.8163,-123.8823 248,-98 246.994,-97.6044 245.9804,-97.176 244.9665,-96.7223"/>
<polygon fill="#191970" stroke="#191970" points="246.5298,-93.5907 236.0318,-92.1612 243.347,-99.8253 246.5298,-93.5907"/>
</g>
<!-- Node27&#45;&gt;Node8 -->
<g id="edge40" class="edge">
<title>Node27&#45;&gt;Node8</title>
<path fill="none" stroke="#191970" d="M1373.9698,-265.216C1238.0402,-256.8309 680.0534,-218.9959 519,-154 487.749,-141.3881 457.5688,-116.064 439.6427,-99.1935"/>
<polygon fill="#191970" stroke="#191970" points="441.9342,-96.5408 432.3089,-92.1132 437.0722,-101.5769 441.9342,-96.5408"/>
</g>
<!-- Node27&#45;&gt;Node12 -->
<g id="edge33" class="edge">
<title>Node27&#45;&gt;Node12</title>
<path fill="none" stroke="#191970" d="M1373.8789,-259.0723C1263.6703,-230.0659 881.8939,-129.5841 749.0206,-94.6124"/>
<polygon fill="#191970" stroke="#191970" points="749.7133,-91.1756 739.1517,-92.015 747.9315,-97.945 749.7133,-91.1756"/>
</g>
<!-- Node27&#45;&gt;Node13 -->
<g id="edge36" class="edge">
<title>Node27&#45;&gt;Node13</title>
<path fill="none" stroke="#191970" d="M1434.2352,-263.2804C1574.9791,-245.3939 2155.2965,-165.0509 2063,-67 2035.6964,-37.9942 1452.3753,-21.3502 1267.6081,-16.7915"/>
<polygon fill="#191970" stroke="#191970" points="1267.6452,-13.2915 1257.5626,-16.5459 1267.4741,-20.2894 1267.6452,-13.2915"/>
</g>
<!-- Node27&#45;&gt;Node20 -->
<g id="edge34" class="edge">
<title>Node27&#45;&gt;Node20</title>
<path fill="none" stroke="#191970" d="M1423.2687,-257.469C1484.6596,-227.1027 1675.883,-132.5163 1748.5714,-96.5619"/>
<polygon fill="#191970" stroke="#191970" points="1750.2111,-99.6556 1757.6227,-92.0847 1747.1075,-93.3812 1750.2111,-99.6556"/>
</g>
<!-- Node27&#45;&gt;Node21 -->
<g id="edge35" class="edge">
<title>Node27&#45;&gt;Node21</title>
<path fill="none" stroke="#191970" d="M1434.0245,-257.4543C1462.0763,-248.4265 1505.0557,-234.315 1542,-221 1654.2166,-180.5564 1784.5031,-128.7691 1852.405,-101.4066"/>
<polygon fill="#191970" stroke="#191970" points="1853.997,-104.5384 1861.9611,-97.551 1851.3778,-98.0469 1853.997,-104.5384"/>
</g>
<!-- Node27&#45;&gt;Node22 -->
<g id="edge37" class="edge">
<title>Node27&#45;&gt;Node22</title>
<path fill="none" stroke="#191970" d="M1434.1538,-260.5342C1471.8026,-252.2703 1538.0642,-237.0958 1594,-221 1726.5357,-182.8621 1879.8297,-128.9646 1957.408,-100.9808"/>
<polygon fill="#191970" stroke="#191970" points="1958.7243,-104.2267 1966.9389,-97.5357 1956.3446,-97.6436 1958.7243,-104.2267"/>
</g>
<!-- Node28 -->
<g id="node29" class="node">
<title>Node28</title>
<polygon fill="none" stroke="#bfbfbf" points="1923,-196 1923,-215 1967,-215 1967,-196 1923,-196"/>
<text text-anchor="middle" x="1945" y="-203" font-family="Helvetica,sans-Serif" font-size="10.00" fill="#000000">cmath</text>
</g>
<!-- Node27&#45;&gt;Node28 -->
<g id="edge38" class="edge">
<title>Node27&#45;&gt;Node28</title>
<path fill="none" stroke="#191970" d="M1434.2654,-265.4959C1528.8726,-260.5976 1818.1258,-244.0785 1909,-221 1911.4815,-220.3698 1914.0112,-219.59 1916.5213,-218.7183"/>
<polygon fill="#191970" stroke="#191970" points="1917.9266,-221.9269 1925.9623,-215.0219 1915.3745,-215.4086 1917.9266,-221.9269"/>
</g>
</g>
</svg>
