<?xml version="1.0" encoding="UTF-8" standalone="no"?>
<!DOCTYPE svg PUBLIC "-//W3C//DTD SVG 1.1//EN"
 "http://www.w3.org/Graphics/SVG/1.1/DTD/svg11.dtd">
<!-- Generated by graphviz version 2.40.1 (20161225.0304)
 -->
<!-- Title: /home/jihuan/Projects/deal.ii/program/dealii&#45;9.1.1/examples/laplace&#45;bem/tests/rkmatrix&#45;add&#45;formatted/rkmatrix&#45;add&#45;formatted.cc Pages: 1 -->
<svg width="1448pt" height="318pt"
 viewBox="0.00 0.00 1447.50 318.00" xmlns="http://www.w3.org/2000/svg" xmlns:xlink="http://www.w3.org/1999/xlink">
<g id="graph0" class="graph" transform="scale(1 1) rotate(0) translate(4 314)">
<title>/home/jihuan/Projects/deal.ii/program/dealii&#45;9.1.1/examples/laplace&#45;bem/tests/rkmatrix&#45;add&#45;formatted/rkmatrix&#45;add&#45;formatted.cc</title>
<!-- Node0 -->
<g id="node1" class="node">
<title>Node0</title>
<polygon fill="#bfbfbf" stroke="#000000" points="258,-246.5 258,-309.5 434,-309.5 434,-246.5 258,-246.5"/>
<text text-anchor="start" x="266" y="-297.5" font-family="Helvetica,sans-Serif" font-size="10.00" fill="#000000">/home/jihuan/Projects</text>
<text text-anchor="start" x="266" y="-286.5" font-family="Helvetica,sans-Serif" font-size="10.00" fill="#000000">/deal.ii/program/dealii</text>
<text text-anchor="start" x="266" y="-275.5" font-family="Helvetica,sans-Serif" font-size="10.00" fill="#000000">&#45;9.1.1/examples/laplace</text>
<text text-anchor="start" x="266" y="-264.5" font-family="Helvetica,sans-Serif" font-size="10.00" fill="#000000">&#45;bem/tests/rkmatrix&#45;add</text>
<text text-anchor="middle" x="346" y="-253.5" font-family="Helvetica,sans-Serif" font-size="10.00" fill="#000000">&#45;formatted/rkmatrix&#45;add&#45;formatted.cc</text>
</g>
<!-- Node1 -->
<g id="node2" class="node">
<title>Node1</title>
<polygon fill="none" stroke="#bfbfbf" points="0,-129 0,-148 54,-148 54,-129 0,-129"/>
<text text-anchor="middle" x="27" y="-136" font-family="Helvetica,sans-Serif" font-size="10.00" fill="#000000">iostream</text>
</g>
<!-- Node0&#45;&gt;Node1 -->
<g id="edge1" class="edge">
<title>Node0&#45;&gt;Node1</title>
<path fill="none" stroke="#191970" d="M273.614,-246.3453C205.886,-216.7276 107.9284,-173.8903 58.3196,-152.1962"/>
<polygon fill="#191970" stroke="#191970" points="59.6304,-148.9494 49.0658,-148.1495 56.8257,-155.363 59.6304,-148.9494"/>
</g>
<!-- Node2 -->
<g id="node3" class="node">
<title>Node2</title>
<g id="a_node3"><a xlink:href="debug__tools_8h.html" target="_top" xlink:title="This file includes a bunch of helper functions for printing out and visualizing information about gri...">
<polygon fill="none" stroke="#000000" points="307.5,-190.5 307.5,-209.5 384.5,-209.5 384.5,-190.5 307.5,-190.5"/>
<text text-anchor="middle" x="346" y="-197.5" font-family="Helvetica,sans-Serif" font-size="10.00" fill="#000000">debug_tools.h</text>
</a>
</g>
</g>
<!-- Node0&#45;&gt;Node2 -->
<g id="edge2" class="edge">
<title>Node0&#45;&gt;Node2</title>
<path fill="none" stroke="#191970" d="M346,-246.2744C346,-237.3302 346,-227.8568 346,-219.8269"/>
<polygon fill="#191970" stroke="#191970" points="349.5001,-219.6425 346,-209.6426 342.5001,-219.6426 349.5001,-219.6425"/>
</g>
<!-- Node9 -->
<g id="node10" class="node">
<title>Node9</title>
<g id="a_node10"><a xlink:href="rkmatrix_8h.html" target="_top" xlink:title="Definition of rank&#45;k matrix. ">
<polygon fill="none" stroke="#000000" points="982,-190.5 982,-209.5 1042,-209.5 1042,-190.5 982,-190.5"/>
<text text-anchor="middle" x="1012" y="-197.5" font-family="Helvetica,sans-Serif" font-size="10.00" fill="#000000">rkmatrix.h</text>
</a>
</g>
</g>
<!-- Node0&#45;&gt;Node9 -->
<g id="edge10" class="edge">
<title>Node0&#45;&gt;Node9</title>
<path fill="none" stroke="#191970" d="M434.0959,-267.6825C580.0406,-250.5898 866.3375,-217.0596 971.7765,-204.7109"/>
<polygon fill="#191970" stroke="#191970" points="972.462,-208.1546 981.987,-203.515 971.6477,-201.2021 972.462,-208.1546"/>
</g>
<!-- Node2&#45;&gt;Node1 -->
<g id="edge8" class="edge">
<title>Node2&#45;&gt;Node1</title>
<path fill="none" stroke="#191970" d="M307.3461,-196.7466C252.2328,-191.4303 148.296,-178.8833 63,-154 60.8239,-153.3652 58.6045,-152.6331 56.39,-151.8398"/>
<polygon fill="#191970" stroke="#191970" points="57.4484,-148.4949 46.8616,-148.0822 54.8803,-155.0068 57.4484,-148.4949"/>
</g>
<!-- Node3 -->
<g id="node4" class="node">
<title>Node3</title>
<polygon fill="none" stroke="#bfbfbf" points="474.5,-129 474.5,-148 601.5,-148 601.5,-129 474.5,-129"/>
<text text-anchor="middle" x="538" y="-136" font-family="Helvetica,sans-Serif" font-size="10.00" fill="#000000">deal.II/dofs/dof_handler.h</text>
</g>
<!-- Node2&#45;&gt;Node3 -->
<g id="edge3" class="edge">
<title>Node2&#45;&gt;Node3</title>
<path fill="none" stroke="#191970" d="M376,-190.3906C408.9705,-179.8298 462.0717,-162.8208 498.4303,-151.1747"/>
<polygon fill="#191970" stroke="#191970" points="499.755,-154.4256 508.2107,-148.0419 497.6196,-147.7592 499.755,-154.4256"/>
</g>
<!-- Node4 -->
<g id="node5" class="node">
<title>Node4</title>
<polygon fill="none" stroke="#bfbfbf" points="620,-129 620,-148 736,-148 736,-129 620,-129"/>
<text text-anchor="middle" x="678" y="-136" font-family="Helvetica,sans-Serif" font-size="10.00" fill="#000000">deal.II/dofs/dof_tools.h</text>
</g>
<!-- Node2&#45;&gt;Node4 -->
<g id="edge4" class="edge">
<title>Node2&#45;&gt;Node4</title>
<path fill="none" stroke="#191970" d="M384.5909,-193.9162C436.1209,-185.6463 530.1789,-170.0403 610,-154 615.7797,-152.8386 621.8206,-151.5582 627.8142,-150.2463"/>
<polygon fill="#191970" stroke="#191970" points="628.801,-153.6124 637.8021,-148.0239 627.2806,-146.7795 628.801,-153.6124"/>
</g>
<!-- Node5 -->
<g id="node6" class="node">
<title>Node5</title>
<polygon fill="none" stroke="#bfbfbf" points="72,-129 72,-148 146,-148 146,-129 72,-129"/>
<text text-anchor="middle" x="109" y="-136" font-family="Helvetica,sans-Serif" font-size="10.00" fill="#000000">deal.II/fe/fe.h</text>
</g>
<!-- Node2&#45;&gt;Node5 -->
<g id="edge5" class="edge">
<title>Node2&#45;&gt;Node5</title>
<path fill="none" stroke="#191970" d="M307.3243,-191.7427C268.5529,-183.2176 207.2732,-169.0695 155,-154 152.0191,-153.1407 148.9443,-152.2079 145.8643,-151.2407"/>
<polygon fill="#191970" stroke="#191970" points="146.709,-147.8354 136.1171,-148.0815 144.5507,-154.4943 146.709,-147.8354"/>
</g>
<!-- Node6 -->
<g id="node7" class="node">
<title>Node6</title>
<polygon fill="none" stroke="#bfbfbf" points="164,-129 164,-148 276,-148 276,-129 164,-129"/>
<text text-anchor="middle" x="220" y="-136" font-family="Helvetica,sans-Serif" font-size="10.00" fill="#000000">deal.II/fe/fe_system.h</text>
</g>
<!-- Node2&#45;&gt;Node6 -->
<g id="edge6" class="edge">
<title>Node2&#45;&gt;Node6</title>
<path fill="none" stroke="#191970" d="M326.3125,-190.3906C305.5078,-180.2359 272.489,-164.1196 248.7681,-152.5416"/>
<polygon fill="#191970" stroke="#191970" points="250.0712,-149.283 239.5493,-148.0419 247.0007,-155.5736 250.0712,-149.283"/>
</g>
<!-- Node7 -->
<g id="node8" class="node">
<title>Node7</title>
<polygon fill="none" stroke="#bfbfbf" points="294.5,-129 294.5,-148 397.5,-148 397.5,-129 294.5,-129"/>
<text text-anchor="middle" x="346" y="-136" font-family="Helvetica,sans-Serif" font-size="10.00" fill="#000000">deal.II/fe/mapping.h</text>
</g>
<!-- Node2&#45;&gt;Node7 -->
<g id="edge7" class="edge">
<title>Node2&#45;&gt;Node7</title>
<path fill="none" stroke="#191970" d="M346,-190.3906C346,-181.8657 346,-169.1392 346,-158.4235"/>
<polygon fill="#191970" stroke="#191970" points="349.5001,-158.2448 346,-148.2449 342.5001,-158.2449 349.5001,-158.2448"/>
</g>
<!-- Node8 -->
<g id="node9" class="node">
<title>Node8</title>
<polygon fill="none" stroke="#bfbfbf" points="415.5,-129 415.5,-148 456.5,-148 456.5,-129 415.5,-129"/>
<text text-anchor="middle" x="436" y="-136" font-family="Helvetica,sans-Serif" font-size="10.00" fill="#000000">string</text>
</g>
<!-- Node2&#45;&gt;Node8 -->
<g id="edge9" class="edge">
<title>Node2&#45;&gt;Node8</title>
<path fill="none" stroke="#191970" d="M360.0625,-190.3906C374.3286,-180.6421 396.635,-165.3994 413.3872,-153.9521"/>
<polygon fill="#191970" stroke="#191970" points="415.7545,-156.5736 422.0362,-148.0419 411.8051,-150.7941 415.7545,-156.5736"/>
</g>
<!-- Node10 -->
<g id="node11" class="node">
<title>Node10</title>
<polygon fill="none" stroke="#bfbfbf" points="1006.5,-129 1006.5,-148 1109.5,-148 1109.5,-129 1006.5,-129"/>
<text text-anchor="middle" x="1058" y="-136" font-family="Helvetica,sans-Serif" font-size="10.00" fill="#000000">deal.II/base/types.h</text>
</g>
<!-- Node9&#45;&gt;Node10 -->
<g id="edge11" class="edge">
<title>Node9&#45;&gt;Node10</title>
<path fill="none" stroke="#191970" d="M1019.1875,-190.3906C1025.9666,-181.3273 1036.2978,-167.5149 1044.5973,-156.4188"/>
<polygon fill="#191970" stroke="#191970" points="1047.5243,-158.349 1050.7112,-148.2449 1041.9188,-154.1563 1047.5243,-158.349"/>
</g>
<!-- Node11 -->
<g id="node12" class="node">
<title>Node11</title>
<polygon fill="none" stroke="#bfbfbf" points="996,-6 996,-25 1112,-25 1112,-6 996,-6"/>
<text text-anchor="middle" x="1054" y="-13" font-family="Helvetica,sans-Serif" font-size="10.00" fill="#000000">deal.II/lac/full_matrix.h</text>
</g>
<!-- Node9&#45;&gt;Node11 -->
<g id="edge12" class="edge">
<title>Node9&#45;&gt;Node11</title>
<path fill="none" stroke="#191970" d="M1042.2596,-196.1017C1067.5432,-191.0722 1102.0952,-179.6682 1119,-154 1145.9925,-113.0145 1100.165,-59.0466 1072.5695,-32.1846"/>
<polygon fill="#191970" stroke="#191970" points="1074.6938,-29.377 1065.018,-25.0607 1069.8902,-34.4688 1074.6938,-29.377"/>
</g>
<!-- Node12 -->
<g id="node13" class="node">
<title>Node12</title>
<polygon fill="none" stroke="#bfbfbf" points="1130.5,-.5 1130.5,-30.5 1221.5,-30.5 1221.5,-.5 1130.5,-.5"/>
<text text-anchor="start" x="1138.5" y="-18.5" font-family="Helvetica,sans-Serif" font-size="10.00" fill="#000000">deal.II/lac/lapack</text>
<text text-anchor="middle" x="1176" y="-7.5" font-family="Helvetica,sans-Serif" font-size="10.00" fill="#000000">_full_matrix.h</text>
</g>
<!-- Node9&#45;&gt;Node12 -->
<g id="edge13" class="edge">
<title>Node9&#45;&gt;Node12</title>
<path fill="none" stroke="#191970" d="M1042.024,-196.7309C1070.3927,-192.0598 1112.1938,-180.8244 1137,-154 1166.0021,-122.6383 1173.6603,-71.3776 1175.5485,-40.7948"/>
<polygon fill="#191970" stroke="#191970" points="1179.0569,-40.686 1176.012,-30.5382 1172.064,-40.37 1179.0569,-40.686"/>
</g>
<!-- Node13 -->
<g id="node14" class="node">
<title>Node13</title>
<polygon fill="none" stroke="#bfbfbf" points="1239.5,-.5 1239.5,-30.5 1330.5,-30.5 1330.5,-.5 1239.5,-.5"/>
<text text-anchor="start" x="1247.5" y="-18.5" font-family="Helvetica,sans-Serif" font-size="10.00" fill="#000000">deal.II/lac/lapack</text>
<text text-anchor="middle" x="1285" y="-7.5" font-family="Helvetica,sans-Serif" font-size="10.00" fill="#000000">_support.h</text>
</g>
<!-- Node9&#45;&gt;Node13 -->
<g id="edge14" class="edge">
<title>Node9&#45;&gt;Node13</title>
<path fill="none" stroke="#191970" d="M1042.0654,-195.5008C1073.4596,-189.7421 1123.1646,-177.5567 1160,-154 1207.6846,-123.5052 1248.5143,-70.1066 1269.6283,-39.2828"/>
<polygon fill="#191970" stroke="#191970" points="1272.6173,-41.1101 1275.2922,-30.8584 1266.8081,-37.2044 1272.6173,-41.1101"/>
</g>
<!-- Node14 -->
<g id="node15" class="node">
<title>Node14</title>
<polygon fill="none" stroke="#bfbfbf" points="1348.5,-.5 1348.5,-30.5 1439.5,-30.5 1439.5,-.5 1348.5,-.5"/>
<text text-anchor="start" x="1356.5" y="-18.5" font-family="Helvetica,sans-Serif" font-size="10.00" fill="#000000">deal.II/lac/lapack</text>
<text text-anchor="middle" x="1394" y="-7.5" font-family="Helvetica,sans-Serif" font-size="10.00" fill="#000000">_templates.h</text>
</g>
<!-- Node9&#45;&gt;Node14 -->
<g id="edge15" class="edge">
<title>Node9&#45;&gt;Node14</title>
<path fill="none" stroke="#191970" d="M1042.0619,-195.6323C1078.6994,-189.5712 1141.9126,-176.7057 1192,-154 1261.3086,-122.5809 1332.4329,-67.4038 1368.9621,-37.0412"/>
<polygon fill="#191970" stroke="#191970" points="1371.2294,-39.7077 1376.6408,-30.5991 1366.7303,-34.345 1371.2294,-39.7077"/>
</g>
<!-- Node15 -->
<g id="node16" class="node">
<title>Node15</title>
<polygon fill="none" stroke="#bfbfbf" points="944,-129 944,-148 988,-148 988,-129 944,-129"/>
<text text-anchor="middle" x="966" y="-136" font-family="Helvetica,sans-Serif" font-size="10.00" fill="#000000">cmath</text>
</g>
<!-- Node9&#45;&gt;Node15 -->
<g id="edge16" class="edge">
<title>Node9&#45;&gt;Node15</title>
<path fill="none" stroke="#191970" d="M1004.8125,-190.3906C998.0334,-181.3273 987.7022,-167.5149 979.4027,-156.4188"/>
<polygon fill="#191970" stroke="#191970" points="982.0812,-154.1563 973.2888,-148.2449 976.4757,-158.349 982.0812,-154.1563"/>
</g>
<!-- Node16 -->
<g id="node17" class="node">
<title>Node16</title>
<polygon fill="none" stroke="#bfbfbf" points="600.5,-67.5 600.5,-86.5 635.5,-86.5 635.5,-67.5 600.5,-67.5"/>
<text text-anchor="middle" x="618" y="-74.5" font-family="Helvetica,sans-Serif" font-size="10.00" fill="#000000">map</text>
</g>
<!-- Node9&#45;&gt;Node16 -->
<g id="edge17" class="edge">
<title>Node9&#45;&gt;Node16</title>
<path fill="none" stroke="#191970" d="M981.64,-198.5403C936.3624,-195.3624 849.3669,-185.3469 783,-154 763.2919,-144.6913 763.9696,-133.7338 745,-123 706.4579,-101.1913 691.2894,-102.8743 645.3289,-87.0056"/>
<polygon fill="#191970" stroke="#191970" points="646.3049,-83.638 635.7102,-83.5857 643.9599,-90.2336 646.3049,-83.638"/>
</g>
<!-- Node17 -->
<g id="node18" class="node">
<title>Node17</title>
<polygon fill="none" stroke="#bfbfbf" points="948,-67.5 948,-86.5 992,-86.5 992,-67.5 948,-67.5"/>
<text text-anchor="middle" x="970" y="-74.5" font-family="Helvetica,sans-Serif" font-size="10.00" fill="#000000">vector</text>
</g>
<!-- Node9&#45;&gt;Node17 -->
<g id="edge18" class="edge">
<title>Node9&#45;&gt;Node17</title>
<path fill="none" stroke="#191970" d="M982.0542,-190.4983C964.9946,-183.3713 945.0676,-171.7417 935,-154 923.7681,-134.2065 938.9641,-110.1573 952.7054,-94.26"/>
<polygon fill="#191970" stroke="#191970" points="955.4151,-96.4842 959.6109,-86.7555 950.2641,-91.7442 955.4151,-96.4842"/>
</g>
<!-- Node18 -->
<g id="node19" class="node">
<title>Node18</title>
<g id="a_node19"><a xlink:href="lapack__full__matrix__ext_8h_source.html" target="_top" xlink:title="lapack_full_matrix\l_ext.h">
<polygon fill="none" stroke="#000000" points="792.5,-123.5 792.5,-153.5 887.5,-153.5 887.5,-123.5 792.5,-123.5"/>
<text text-anchor="start" x="800.5" y="-141.5" font-family="Helvetica,sans-Serif" font-size="10.00" fill="#000000">lapack_full_matrix</text>
<text text-anchor="middle" x="840" y="-130.5" font-family="Helvetica,sans-Serif" font-size="10.00" fill="#000000">_ext.h</text>
</a>
</g>
</g>
<!-- Node9&#45;&gt;Node18 -->
<g id="edge19" class="edge">
<title>Node9&#45;&gt;Node18</title>
<path fill="none" stroke="#191970" d="M985.125,-190.3906C960.2304,-181.4893 922.5245,-168.0073 891.7861,-157.0165"/>
<polygon fill="#191970" stroke="#191970" points="892.6705,-153.6158 882.0759,-153.5446 890.3137,-160.2072 892.6705,-153.6158"/>
</g>
<!-- Node18&#45;&gt;Node16 -->
<g id="edge21" class="edge">
<title>Node18&#45;&gt;Node16</title>
<path fill="none" stroke="#191970" d="M792.2656,-126.4568C747.7969,-115.1446 683.8011,-98.6066 645.31,-86.8414"/>
<polygon fill="#191970" stroke="#191970" points="646.2233,-83.4599 635.6342,-83.8088 644.1297,-90.1395 646.2233,-83.4599"/>
</g>
<!-- Node18&#45;&gt;Node17 -->
<g id="edge22" class="edge">
<title>Node18&#45;&gt;Node17</title>
<path fill="none" stroke="#191970" d="M871.8016,-123.4554C892.8265,-113.509 920.1859,-100.5659 940.6843,-90.8686"/>
<polygon fill="#191970" stroke="#191970" points="942.3119,-93.9706 949.8546,-86.5303 939.3184,-87.6429 942.3119,-93.9706"/>
</g>
<!-- Node19 -->
<g id="node20" class="node">
<title>Node19</title>
<polygon fill="none" stroke="#bfbfbf" points="654,-67.5 654,-86.5 694,-86.5 694,-67.5 654,-67.5"/>
<text text-anchor="middle" x="674" y="-74.5" font-family="Helvetica,sans-Serif" font-size="10.00" fill="#000000">limits</text>
</g>
<!-- Node18&#45;&gt;Node19 -->
<g id="edge20" class="edge">
<title>Node18&#45;&gt;Node19</title>
<path fill="none" stroke="#191970" d="M799.3918,-123.4554C769.7731,-112.4822 730.3093,-97.8616 703.6262,-87.976"/>
<polygon fill="#191970" stroke="#191970" points="704.6656,-84.6286 694.0725,-84.4365 702.2337,-91.1926 704.6656,-84.6286"/>
</g>
<!-- Node20 -->
<g id="node21" class="node">
<title>Node20</title>
<g id="a_node21"><a xlink:href="general__exceptions_8h.html" target="_top" xlink:title="Definition of self&#45;defined general exceptions. ">
<polygon fill="none" stroke="#000000" points="712.5,-67.5 712.5,-86.5 821.5,-86.5 821.5,-67.5 712.5,-67.5"/>
<text text-anchor="middle" x="767" y="-74.5" font-family="Helvetica,sans-Serif" font-size="10.00" fill="#000000">general_exceptions.h</text>
</a>
</g>
</g>
<!-- Node18&#45;&gt;Node20 -->
<g id="edge23" class="edge">
<title>Node18&#45;&gt;Node20</title>
<path fill="none" stroke="#191970" d="M821.9551,-123.2977C811.1886,-114.2274 797.5149,-102.7077 786.5005,-93.4285"/>
<polygon fill="#191970" stroke="#191970" points="788.5911,-90.6132 778.6882,-86.8469 784.0809,-95.9667 788.5911,-90.6132"/>
</g>
<!-- Node22 -->
<g id="node23" class="node">
<title>Node22</title>
<g id="a_node23"><a xlink:href="lapack__helpers_8h.html" target="_top" xlink:title="Exposes LAPACK helper functions defined in lapack_full_matrix.cc and define new ones by following the...">
<polygon fill="none" stroke="#000000" points="840,-67.5 840,-86.5 930,-86.5 930,-67.5 840,-67.5"/>
<text text-anchor="middle" x="885" y="-74.5" font-family="Helvetica,sans-Serif" font-size="10.00" fill="#000000">lapack_helpers.h</text>
</a>
</g>
</g>
<!-- Node18&#45;&gt;Node22 -->
<g id="edge25" class="edge">
<title>Node18&#45;&gt;Node22</title>
<path fill="none" stroke="#191970" d="M851.1236,-123.2977C857.3701,-114.7609 865.204,-104.0545 871.7647,-95.0883"/>
<polygon fill="#191970" stroke="#191970" points="874.7144,-96.984 877.7949,-86.8469 869.0652,-92.8505 874.7144,-96.984"/>
</g>
<!-- Node21 -->
<g id="node22" class="node">
<title>Node21</title>
<polygon fill="none" stroke="#bfbfbf" points="82,-6 82,-25 208,-25 208,-6 82,-6"/>
<text text-anchor="middle" x="145" y="-13" font-family="Helvetica,sans-Serif" font-size="10.00" fill="#000000">deal.II/base/exceptions.h</text>
</g>
<!-- Node20&#45;&gt;Node21 -->
<g id="edge24" class="edge">
<title>Node20&#45;&gt;Node21</title>
<path fill="none" stroke="#191970" d="M712.2269,-68.1428C709.1087,-67.7317 706.0165,-67.3468 703,-67 487.8257,-42.2613 431.3813,-61.8651 217,-31 209.6082,-29.9358 201.8415,-28.5504 194.2557,-27.0457"/>
<polygon fill="#191970" stroke="#191970" points="194.9359,-23.6124 184.4344,-25.0159 193.5191,-30.4675 194.9359,-23.6124"/>
</g>
<!-- Node22&#45;&gt;Node11 -->
<g id="edge29" class="edge">
<title>Node22&#45;&gt;Node11</title>
<path fill="none" stroke="#191970" d="M911.4063,-67.3906C940.1791,-56.92 986.3696,-40.1111 1018.3466,-28.4745"/>
<polygon fill="#191970" stroke="#191970" points="1019.579,-31.7506 1027.7792,-25.0419 1017.1851,-25.1726 1019.579,-31.7506"/>
</g>
<!-- Node22&#45;&gt;Node12 -->
<g id="edge30" class="edge">
<title>Node22&#45;&gt;Node12</title>
<path fill="none" stroke="#191970" d="M930.2177,-68.3943C987.5445,-57.4551 1082.6454,-39.2028 1120.6131,-30.8883"/>
<polygon fill="#191970" stroke="#191970" points="1121.4839,-34.2797 1130.4568,-28.6461 1119.9292,-27.4545 1121.4839,-34.2797"/>
</g>
<!-- Node22&#45;&gt;Node13 -->
<g id="edge31" class="edge">
<title>Node22&#45;&gt;Node13</title>
<path fill="none" stroke="#191970" d="M930.0466,-68.4475C933.0733,-67.9379 936.0788,-67.4501 939,-67 1065.0799,-47.5721 1101.1269,-56.6464 1229.6351,-31.0996"/>
<polygon fill="#191970" stroke="#191970" points="1230.3501,-34.526 1239.4594,-29.1157 1228.9644,-27.6645 1230.3501,-34.526"/>
</g>
<!-- Node22&#45;&gt;Node14 -->
<g id="edge32" class="edge">
<title>Node22&#45;&gt;Node14</title>
<path fill="none" stroke="#191970" d="M930.0303,-68.3353C933.0609,-67.8527 936.0718,-67.4017 939,-67 1113.0761,-43.1213 1162.3288,-63.083 1338.6194,-31.0459"/>
<polygon fill="#191970" stroke="#191970" points="1339.2828,-34.4826 1348.4806,-29.2242 1338.0111,-27.5991 1339.2828,-34.4826"/>
</g>
<!-- Node23 -->
<g id="node24" class="node">
<title>Node23</title>
<polygon fill="none" stroke="#bfbfbf" points="226,-6 226,-25 342,-25 342,-6 226,-6"/>
<text text-anchor="middle" x="284" y="-13" font-family="Helvetica,sans-Serif" font-size="10.00" fill="#000000">deal.II/base/numbers.h</text>
</g>
<!-- Node22&#45;&gt;Node23 -->
<g id="edge26" class="edge">
<title>Node22&#45;&gt;Node23</title>
<path fill="none" stroke="#191970" d="M839.9764,-68.2854C836.9442,-67.8149 833.9311,-67.3802 831,-67 618.8447,-39.4823 562.4949,-63.2027 351,-31 344.3386,-29.9857 337.358,-28.6653 330.5227,-27.2231"/>
<polygon fill="#191970" stroke="#191970" points="331.186,-23.7853 320.6662,-25.0443 329.675,-30.6203 331.186,-23.7853"/>
</g>
<!-- Node24 -->
<g id="node25" class="node">
<title>Node24</title>
<polygon fill="none" stroke="#bfbfbf" points="360,-.5 360,-30.5 488,-30.5 488,-.5 360,-.5"/>
<text text-anchor="start" x="368" y="-18.5" font-family="Helvetica,sans-Serif" font-size="10.00" fill="#000000">deal.II/lac/blas_extension</text>
<text text-anchor="middle" x="424" y="-7.5" font-family="Helvetica,sans-Serif" font-size="10.00" fill="#000000">_templates.h</text>
</g>
<!-- Node22&#45;&gt;Node24 -->
<g id="edge27" class="edge">
<title>Node22&#45;&gt;Node24</title>
<path fill="none" stroke="#191970" d="M839.9612,-68.3957C836.9326,-67.8986 833.9245,-67.4278 831,-67 686.4417,-45.8554 646.1563,-54.1569 497.9459,-31.048"/>
<polygon fill="#191970" stroke="#191970" points="498.449,-27.5841 488.0252,-29.4798 497.356,-34.4983 498.449,-27.5841"/>
</g>
<!-- Node25 -->
<g id="node26" class="node">
<title>Node25</title>
<polygon fill="none" stroke="#bfbfbf" points="506,-6 506,-25 632,-25 632,-6 506,-6"/>
<text text-anchor="middle" x="569" y="-13" font-family="Helvetica,sans-Serif" font-size="10.00" fill="#000000">deal.II/lac/block_vector.h</text>
</g>
<!-- Node22&#45;&gt;Node25 -->
<g id="edge28" class="edge">
<title>Node22&#45;&gt;Node25</title>
<path fill="none" stroke="#191970" d="M839.8101,-68.6245C780.1449,-57.5412 678.29,-38.5276 641,-31 634.9134,-29.7713 628.5451,-28.451 622.221,-27.1181"/>
<polygon fill="#191970" stroke="#191970" points="622.8754,-23.6791 612.3663,-25.0244 621.4206,-30.5263 622.8754,-23.6791"/>
</g>
<!-- Node26 -->
<g id="node27" class="node">
<title>Node26</title>
<polygon fill="none" stroke="#bfbfbf" points="650,-.5 650,-30.5 742,-30.5 742,-.5 650,-.5"/>
<text text-anchor="start" x="658" y="-18.5" font-family="Helvetica,sans-Serif" font-size="10.00" fill="#000000">deal.II/lac/sparse</text>
<text text-anchor="middle" x="696" y="-7.5" font-family="Helvetica,sans-Serif" font-size="10.00" fill="#000000">_matrix.h</text>
</g>
<!-- Node22&#45;&gt;Node26 -->
<g id="edge33" class="edge">
<title>Node22&#45;&gt;Node26</title>
<path fill="none" stroke="#191970" d="M855.4688,-67.3906C827.8767,-58.4123 785.9625,-44.7735 752.0289,-33.7316"/>
<polygon fill="#191970" stroke="#191970" points="752.8269,-30.3107 742.2346,-30.5446 750.6608,-36.9672 752.8269,-30.3107"/>
</g>
<!-- Node27 -->
<g id="node28" class="node">
<title>Node27</title>
<polygon fill="none" stroke="#bfbfbf" points="760.5,-6 760.5,-25 861.5,-25 861.5,-6 760.5,-6"/>
<text text-anchor="middle" x="811" y="-13" font-family="Helvetica,sans-Serif" font-size="10.00" fill="#000000">deal.II/lac/utilities.h</text>
</g>
<!-- Node22&#45;&gt;Node27 -->
<g id="edge34" class="edge">
<title>Node22&#45;&gt;Node27</title>
<path fill="none" stroke="#191970" d="M873.4375,-67.3906C861.9921,-57.8786 844.2527,-43.1357 830.603,-31.7917"/>
<polygon fill="#191970" stroke="#191970" points="832.6533,-28.9447 822.7255,-25.2449 828.1792,-34.3283 832.6533,-28.9447"/>
</g>
<!-- Node28 -->
<g id="node29" class="node">
<title>Node28</title>
<polygon fill="none" stroke="#bfbfbf" points="880,-6 880,-25 978,-25 978,-6 880,-6"/>
<text text-anchor="middle" x="929" y="-13" font-family="Helvetica,sans-Serif" font-size="10.00" fill="#000000">deal.II/lac/vector.h</text>
</g>
<!-- Node22&#45;&gt;Node28 -->
<g id="edge35" class="edge">
<title>Node22&#45;&gt;Node28</title>
<path fill="none" stroke="#191970" d="M891.875,-67.3906C898.3593,-58.3273 908.2414,-44.5149 916.1801,-33.4188"/>
<polygon fill="#191970" stroke="#191970" points="919.0559,-35.4143 922.0281,-25.2449 913.3629,-31.3412 919.0559,-35.4143"/>
</g>
</g>
</svg>
