<?xml version="1.0" encoding="UTF-8" standalone="no"?>
<!DOCTYPE svg PUBLIC "-//W3C//DTD SVG 1.1//EN"
 "http://www.w3.org/Graphics/SVG/1.1/DTD/svg11.dtd">
<!-- Generated by graphviz version 2.40.1 (20161225.0304)
 -->
<!-- Title: /home/jihuan/Projects/deal.ii/program/dealii&#45;9.1.1/examples/laplace&#45;bem/tests/rkmatrix&#45;add&#45;formatted/rkmatrix&#45;add&#45;formatted.cc Pages: 1 -->
<!--zoomable 385 -->
<svg id="main" version="1.1" xmlns="http://www.w3.org/2000/svg" xmlns:xlink="http://www.w3.org/1999/xlink" xml:space="preserve" onload="init(evt)">
<style type="text/css"><![CDATA[
.edge:hover path { stroke: red; }
.edge:hover polygon { stroke: red; fill: red; }
]]></style>
<script type="text/javascript"><![CDATA[
var edges = document.getElementsByTagName('g');
if (edges && edges.length) {
  for (var i=0;i<edges.length;i++) {
    if (edges[i].id.substr(0,4)=='edge') {
      edges[i].setAttribute('class','edge');
    }
  }
}
]]></script>
        <defs>
                <circle id="rim" cx="0" cy="0" r="7"/>
                <circle id="rim2" cx="0" cy="0" r="3.5"/>
                <g id="zoomPlus">
                        <use xlink:href="#rim" fill="#404040">
                                <set attributeName="fill" to="#808080" begin="zoomplus.mouseover" end="zoomplus.mouseout"/>
                        </use>
                        <path d="M-4,0h8M0,-4v8" fill="none" stroke="white" stroke-width="1.5" pointer-events="none"/>
                </g>
                <g id="zoomMin">
                        <use xlink:href="#rim" fill="#404040">
                                <set attributeName="fill" to="#808080" begin="zoomminus.mouseover" end="zoomminus.mouseout"/>
                        </use>
                        <path d="M-4,0h8" fill="none" stroke="white" stroke-width="1.5" pointer-events="none"/>
                </g>
                <g id="dirArrow">
                        <path fill="none" stroke="white" stroke-width="1.5" d="M0,-3.0v7 M-2.5,-0.5L0,-3.0L2.5,-0.5"/>
                </g>
               <g id="resetDef">
                       <use xlink:href="#rim2" fill="#404040">
                               <set attributeName="fill" to="#808080" begin="reset.mouseover" end="reset.mouseout"/>
                       </use>
               </g>
        </defs>

<script type="text/javascript">
var viewWidth = 2630;
var viewHeight = 385;
var sectionId = 'dynsection-0';
</script>
<script xlink:href="svgpan.js"/>
<svg id="graph" class="graph">
<g id="viewport">
<title>/home/jihuan/Projects/deal.ii/program/dealii&#45;9.1.1/examples/laplace&#45;bem/tests/rkmatrix&#45;add&#45;formatted/rkmatrix&#45;add&#45;formatted.cc</title>
<!-- Node0 -->
<g id="node1" class="node">
<title>Node0</title>
<polygon fill="#bfbfbf" stroke="#000000" points="309,-313.5 309,-376.5 485,-376.5 485,-313.5 309,-313.5"/>
<text text-anchor="start" x="317" y="-364.5" font-family="Helvetica,sans-Serif" font-size="10.00" fill="#000000">/home/jihuan/Projects</text>
<text text-anchor="start" x="317" y="-353.5" font-family="Helvetica,sans-Serif" font-size="10.00" fill="#000000">/deal.ii/program/dealii</text>
<text text-anchor="start" x="317" y="-342.5" font-family="Helvetica,sans-Serif" font-size="10.00" fill="#000000">&#45;9.1.1/examples/laplace</text>
<text text-anchor="start" x="317" y="-331.5" font-family="Helvetica,sans-Serif" font-size="10.00" fill="#000000">&#45;bem/tests/rkmatrix&#45;add</text>
<text text-anchor="middle" x="397" y="-320.5" font-family="Helvetica,sans-Serif" font-size="10.00" fill="#000000">&#45;formatted/rkmatrix&#45;add&#45;formatted.cc</text>
</g>
<!-- Node1 -->
<g id="node2" class="node">
<title>Node1</title>
<polygon fill="none" stroke="#bfbfbf" points="0,-196 0,-215 54,-215 54,-196 0,-196"/>
<text text-anchor="middle" x="27" y="-203" font-family="Helvetica,sans-Serif" font-size="10.00" fill="#000000">iostream</text>
</g>
<!-- Node0&#45;&gt;Node1 -->
<g id="edge1" class="edge">
<title>Node0&#45;&gt;Node1</title>
<path fill="none" stroke="#191970" d="M308.9783,-313.7107C241.3567,-289.3382 145.8246,-254.1798 63,-221 61.3932,-220.3563 59.7503,-219.6875 58.0943,-219.0049"/>
<polygon fill="#191970" stroke="#191970" points="59.2021,-215.6739 48.6272,-215.024 56.4886,-222.1267 59.2021,-215.6739"/>
</g>
<!-- Node2 -->
<g id="node3" class="node">
<title>Node2</title>
<g id="a_node3"><a xlink:href="debug__tools_8h.html" target="_top" xlink:title="This file includes a bunch of helper functions for printing out and visualizing information about gri...">
<polygon fill="none" stroke="#000000" points="358.5,-257.5 358.5,-276.5 435.5,-276.5 435.5,-257.5 358.5,-257.5"/>
<text text-anchor="middle" x="397" y="-264.5" font-family="Helvetica,sans-Serif" font-size="10.00" fill="#000000">debug_tools.h</text>
</a>
</g>
</g>
<!-- Node0&#45;&gt;Node2 -->
<g id="edge2" class="edge">
<title>Node0&#45;&gt;Node2</title>
<path fill="none" stroke="#191970" d="M397,-313.2744C397,-304.3302 397,-294.8568 397,-286.8269"/>
<polygon fill="#191970" stroke="#191970" points="400.5001,-286.6425 397,-276.6426 393.5001,-286.6426 400.5001,-286.6425"/>
</g>
<!-- Node9 -->
<g id="node10" class="node">
<title>Node9</title>
<g id="a_node10"><a xlink:href="rkmatrix_8h.html" target="_top" xlink:title="Definition of rank&#45;k matrix. ">
<polygon fill="none" stroke="#000000" points="1215,-257.5 1215,-276.5 1275,-276.5 1275,-257.5 1215,-257.5"/>
<text text-anchor="middle" x="1245" y="-264.5" font-family="Helvetica,sans-Serif" font-size="10.00" fill="#000000">rkmatrix.h</text>
</a>
</g>
</g>
<!-- Node0&#45;&gt;Node9 -->
<g id="edge10" class="edge">
<title>Node0&#45;&gt;Node9</title>
<path fill="none" stroke="#191970" d="M485.3511,-336.8734C666.692,-320.1934 1074.7733,-282.6576 1204.5587,-270.7198"/>
<polygon fill="#191970" stroke="#191970" points="1205.196,-274.1761 1214.8334,-269.7748 1204.5548,-267.2055 1205.196,-274.1761"/>
</g>
<!-- Node2&#45;&gt;Node1 -->
<g id="edge8" class="edge">
<title>Node2&#45;&gt;Node1</title>
<path fill="none" stroke="#191970" d="M358.2485,-265.0542C295.2872,-261.1433 167.3141,-250.0625 63,-221 60.6771,-220.3528 58.3074,-219.5878 55.9485,-218.75"/>
<polygon fill="#191970" stroke="#191970" points="57.0458,-215.4205 46.4589,-215.0112 54.4798,-221.9333 57.0458,-215.4205"/>
</g>
<!-- Node3 -->
<g id="node4" class="node">
<title>Node3</title>
<polygon fill="none" stroke="#bfbfbf" points="193.5,-196 193.5,-215 320.5,-215 320.5,-196 193.5,-196"/>
<text text-anchor="middle" x="257" y="-203" font-family="Helvetica,sans-Serif" font-size="10.00" fill="#000000">deal.II/dofs/dof_handler.h</text>
</g>
<!-- Node2&#45;&gt;Node3 -->
<g id="edge3" class="edge">
<title>Node2&#45;&gt;Node3</title>
<path fill="none" stroke="#191970" d="M375.125,-257.3906C351.7004,-247.1005 314.3404,-230.6888 287.9159,-219.0809"/>
<polygon fill="#191970" stroke="#191970" points="289.2846,-215.8594 278.7214,-215.0419 286.4693,-222.2683 289.2846,-215.8594"/>
</g>
<!-- Node4 -->
<g id="node5" class="node">
<title>Node4</title>
<polygon fill="none" stroke="#bfbfbf" points="339,-196 339,-215 455,-215 455,-196 339,-196"/>
<text text-anchor="middle" x="397" y="-203" font-family="Helvetica,sans-Serif" font-size="10.00" fill="#000000">deal.II/dofs/dof_tools.h</text>
</g>
<!-- Node2&#45;&gt;Node4 -->
<g id="edge4" class="edge">
<title>Node2&#45;&gt;Node4</title>
<path fill="none" stroke="#191970" d="M397,-257.3906C397,-248.8657 397,-236.1392 397,-225.4235"/>
<polygon fill="#191970" stroke="#191970" points="400.5001,-225.2448 397,-215.2449 393.5001,-225.2449 400.5001,-225.2448"/>
</g>
<!-- Node5 -->
<g id="node6" class="node">
<title>Node5</title>
<polygon fill="none" stroke="#bfbfbf" points="473,-196 473,-215 547,-215 547,-196 473,-196"/>
<text text-anchor="middle" x="510" y="-203" font-family="Helvetica,sans-Serif" font-size="10.00" fill="#000000">deal.II/fe/fe.h</text>
</g>
<!-- Node2&#45;&gt;Node5 -->
<g id="edge5" class="edge">
<title>Node2&#45;&gt;Node5</title>
<path fill="none" stroke="#191970" d="M414.6563,-257.3906C433.1486,-247.3262 462.401,-231.4057 483.6308,-219.8514"/>
<polygon fill="#191970" stroke="#191970" points="485.3575,-222.8965 492.4677,-215.0419 482.0112,-216.7481 485.3575,-222.8965"/>
</g>
<!-- Node6 -->
<g id="node7" class="node">
<title>Node6</title>
<polygon fill="none" stroke="#bfbfbf" points="565,-196 565,-215 677,-215 677,-196 565,-196"/>
<text text-anchor="middle" x="621" y="-203" font-family="Helvetica,sans-Serif" font-size="10.00" fill="#000000">deal.II/fe/fe_system.h</text>
</g>
<!-- Node2&#45;&gt;Node6 -->
<g id="edge6" class="edge">
<title>Node2&#45;&gt;Node6</title>
<path fill="none" stroke="#191970" d="M432,-257.3906C470.9588,-246.6944 534.0093,-229.3836 576.4571,-217.7294"/>
<polygon fill="#191970" stroke="#191970" points="577.5293,-221.0646 586.2458,-215.0419 575.6759,-214.3144 577.5293,-221.0646"/>
</g>
<!-- Node7 -->
<g id="node8" class="node">
<title>Node7</title>
<polygon fill="none" stroke="#bfbfbf" points="72.5,-196 72.5,-215 175.5,-215 175.5,-196 72.5,-196"/>
<text text-anchor="middle" x="124" y="-203" font-family="Helvetica,sans-Serif" font-size="10.00" fill="#000000">deal.II/fe/mapping.h</text>
</g>
<!-- Node2&#45;&gt;Node7 -->
<g id="edge7" class="edge">
<title>Node2&#45;&gt;Node7</title>
<path fill="none" stroke="#191970" d="M358.4162,-259.1528C315.6663,-250.3454 244.7391,-235.398 184,-221 179.4004,-219.9097 174.6122,-218.737 169.8357,-217.5424"/>
<polygon fill="#191970" stroke="#191970" points="170.6651,-214.1421 160.1118,-215.0789 168.9459,-220.9277 170.6651,-214.1421"/>
</g>
<!-- Node8 -->
<g id="node9" class="node">
<title>Node8</title>
<polygon fill="none" stroke="#bfbfbf" points="813.5,-134.5 813.5,-153.5 854.5,-153.5 854.5,-134.5 813.5,-134.5"/>
<text text-anchor="middle" x="834" y="-141.5" font-family="Helvetica,sans-Serif" font-size="10.00" fill="#000000">string</text>
</g>
<!-- Node2&#45;&gt;Node8 -->
<g id="edge9" class="edge">
<title>Node2&#45;&gt;Node8</title>
<path fill="none" stroke="#191970" d="M435.7979,-264.7888C492.1581,-260.6978 599.3995,-249.5821 686,-221 732.7041,-205.5855 782.5656,-176.7425 810.8477,-159.067"/>
<polygon fill="#191970" stroke="#191970" points="813.0023,-161.8453 819.576,-153.5364 809.2556,-155.9324 813.0023,-161.8453"/>
</g>
<!-- Node10 -->
<g id="node11" class="node">
<title>Node10</title>
<polygon fill="none" stroke="#bfbfbf" points="1157.5,-73 1157.5,-92 1260.5,-92 1260.5,-73 1157.5,-73"/>
<text text-anchor="middle" x="1209" y="-80" font-family="Helvetica,sans-Serif" font-size="10.00" fill="#000000">deal.II/base/types.h</text>
</g>
<!-- Node9&#45;&gt;Node10 -->
<g id="edge11" class="edge">
<title>Node9&#45;&gt;Node10</title>
<path fill="none" stroke="#191970" d="M1260.3511,-257.3199C1293.2039,-235.3773 1364.9147,-180.1726 1334,-134 1324.4736,-119.7718 1285.2014,-105.0331 1253.185,-94.9876"/>
<polygon fill="#191970" stroke="#191970" points="1254.1094,-91.6103 1243.5228,-92.0264 1252.0583,-98.303 1254.1094,-91.6103"/>
</g>
<!-- Node11 -->
<g id="node12" class="node">
<title>Node11</title>
<polygon fill="none" stroke="#bfbfbf" points="2287,-73 2287,-92 2403,-92 2403,-73 2287,-73"/>
<text text-anchor="middle" x="2345" y="-80" font-family="Helvetica,sans-Serif" font-size="10.00" fill="#000000">deal.II/lac/full_matrix.h</text>
</g>
<!-- Node9&#45;&gt;Node11 -->
<g id="edge12" class="edge">
<title>Node9&#45;&gt;Node11</title>
<path fill="none" stroke="#191970" d="M1275.1192,-262.24C1372.3987,-246.8472 1686.9664,-196.9247 1947,-154 2094.2095,-129.6996 2131.6979,-127.2718 2278,-98 2283.6999,-96.8596 2289.6552,-95.5923 2295.5625,-94.2876"/>
<polygon fill="#191970" stroke="#191970" points="2296.4177,-97.6828 2305.4052,-92.0726 2294.8807,-90.8536 2296.4177,-97.6828"/>
</g>
<!-- Node12 -->
<g id="node13" class="node">
<title>Node12</title>
<polygon fill="none" stroke="#bfbfbf" points="2421.5,-67.5 2421.5,-97.5 2512.5,-97.5 2512.5,-67.5 2421.5,-67.5"/>
<text text-anchor="start" x="2429.5" y="-85.5" font-family="Helvetica,sans-Serif" font-size="10.00" fill="#000000">deal.II/lac/lapack</text>
<text text-anchor="middle" x="2467" y="-74.5" font-family="Helvetica,sans-Serif" font-size="10.00" fill="#000000">_full_matrix.h</text>
</g>
<!-- Node9&#45;&gt;Node12 -->
<g id="edge13" class="edge">
<title>Node9&#45;&gt;Node12</title>
<path fill="none" stroke="#191970" d="M1275.0642,-264.0322C1341.9983,-257.3212 1508.3379,-240.0707 1647,-221 1984.8237,-174.5379 2073.9794,-172.2034 2411.4272,-97.9807"/>
<polygon fill="#191970" stroke="#191970" points="2412.4718,-101.3346 2421.4838,-95.7637 2410.9648,-94.4987 2412.4718,-101.3346"/>
</g>
<!-- Node13 -->
<g id="node14" class="node">
<title>Node13</title>
<polygon fill="none" stroke="#bfbfbf" points="1180.5,-.5 1180.5,-30.5 1271.5,-30.5 1271.5,-.5 1180.5,-.5"/>
<text text-anchor="start" x="1188.5" y="-18.5" font-family="Helvetica,sans-Serif" font-size="10.00" fill="#000000">deal.II/lac/lapack</text>
<text text-anchor="middle" x="1226" y="-7.5" font-family="Helvetica,sans-Serif" font-size="10.00" fill="#000000">_support.h</text>
</g>
<!-- Node9&#45;&gt;Node13 -->
<g id="edge14" class="edge">
<title>Node9&#45;&gt;Node13</title>
<path fill="none" stroke="#191970" d="M1214.8514,-266.4314C1113.9243,-264.2202 792.5301,-254.5758 762,-221 715.9539,-170.3602 716.3499,-117.9972 762,-67 788.7945,-37.067 1052.3996,-22.6084 1169.9348,-17.6093"/>
<polygon fill="#191970" stroke="#191970" points="1170.3217,-21.0963 1180.1671,-17.1823 1170.0298,-14.1024 1170.3217,-21.0963"/>
</g>
<!-- Node14 -->
<g id="node15" class="node">
<title>Node14</title>
<polygon fill="none" stroke="#bfbfbf" points="2530.5,-67.5 2530.5,-97.5 2621.5,-97.5 2621.5,-67.5 2530.5,-67.5"/>
<text text-anchor="start" x="2538.5" y="-85.5" font-family="Helvetica,sans-Serif" font-size="10.00" fill="#000000">deal.II/lac/lapack</text>
<text text-anchor="middle" x="2576" y="-74.5" font-family="Helvetica,sans-Serif" font-size="10.00" fill="#000000">_templates.h</text>
</g>
<!-- Node9&#45;&gt;Node14 -->
<g id="edge15" class="edge">
<title>Node9&#45;&gt;Node14</title>
<path fill="none" stroke="#191970" d="M1275.0185,-265.1499C1356.039,-259.9945 1585.8793,-244.2976 1776,-221 1964.4947,-197.9016 2010.6527,-185.0614 2198,-154 2338.9289,-130.6346 2377.8257,-130.6389 2520.4287,-98.2427"/>
<polygon fill="#191970" stroke="#191970" points="2521.4566,-101.5981 2530.4252,-95.9576 2519.8967,-94.7741 2521.4566,-101.5981"/>
</g>
<!-- Node15 -->
<g id="node16" class="node">
<title>Node15</title>
<polygon fill="none" stroke="#bfbfbf" points="771,-196 771,-215 815,-215 815,-196 771,-196"/>
<text text-anchor="middle" x="793" y="-203" font-family="Helvetica,sans-Serif" font-size="10.00" fill="#000000">cmath</text>
</g>
<!-- Node9&#45;&gt;Node15 -->
<g id="edge16" class="edge">
<title>Node9&#45;&gt;Node15</title>
<path fill="none" stroke="#191970" d="M1214.9132,-264.8355C1132.1246,-258.6952 902.2367,-240.3531 829,-221 826.6686,-220.3839 824.2928,-219.6414 821.9297,-218.8192"/>
<polygon fill="#191970" stroke="#191970" points="823.0199,-215.4876 812.4318,-215.111 820.4741,-222.0083 823.0199,-215.4876"/>
</g>
<!-- Node16 -->
<g id="node17" class="node">
<title>Node16</title>
<polygon fill="none" stroke="#bfbfbf" points="771.5,-73 771.5,-92 806.5,-92 806.5,-73 771.5,-73"/>
<text text-anchor="middle" x="789" y="-80" font-family="Helvetica,sans-Serif" font-size="10.00" fill="#000000">map</text>
</g>
<!-- Node9&#45;&gt;Node16 -->
<g id="edge17" class="edge">
<title>Node9&#45;&gt;Node16</title>
<path fill="none" stroke="#191970" d="M1214.8947,-263.4178C1125.0981,-252.1234 861.7845,-214.3875 804,-154 791.0166,-140.4318 788.034,-118.6409 787.8269,-102.6776"/>
<polygon fill="#191970" stroke="#191970" points="791.3349,-102.3617 788.0633,-92.2846 784.3367,-102.2024 791.3349,-102.3617"/>
</g>
<!-- Node17 -->
<g id="node18" class="node">
<title>Node17</title>
<polygon fill="none" stroke="#bfbfbf" points="1279,-73 1279,-92 1323,-92 1323,-73 1279,-73"/>
<text text-anchor="middle" x="1301" y="-80" font-family="Helvetica,sans-Serif" font-size="10.00" fill="#000000">vector</text>
</g>
<!-- Node9&#45;&gt;Node17 -->
<g id="edge18" class="edge">
<title>Node9&#45;&gt;Node17</title>
<path fill="none" stroke="#191970" d="M1275.2939,-257.9686C1294.2073,-250.836 1317.6146,-239.0298 1332,-221 1356.6264,-190.1349 1364.6557,-170.665 1350,-134 1344.4338,-120.0746 1333.1115,-107.7656 1322.7518,-98.676"/>
<polygon fill="#191970" stroke="#191970" points="1324.7219,-95.7643 1314.7782,-92.1072 1320.2709,-101.167 1324.7219,-95.7643"/>
</g>
<!-- Node18 -->
<g id="node19" class="node">
<title>Node18</title>
<g id="a_node19"><a xlink:href="lapack__full__matrix__ext_8h_source.html" target="_top" xlink:title="lapack_full_matrix\l_ext.h">
<polygon fill="none" stroke="#000000" points="1090.5,-190.5 1090.5,-220.5 1185.5,-220.5 1185.5,-190.5 1090.5,-190.5"/>
<text text-anchor="start" x="1098.5" y="-208.5" font-family="Helvetica,sans-Serif" font-size="10.00" fill="#000000">lapack_full_matrix</text>
<text text-anchor="middle" x="1138" y="-197.5" font-family="Helvetica,sans-Serif" font-size="10.00" fill="#000000">_ext.h</text>
</a>
</g>
</g>
<!-- Node9&#45;&gt;Node18 -->
<g id="edge19" class="edge">
<title>Node9&#45;&gt;Node18</title>
<path fill="none" stroke="#191970" d="M1228.2813,-257.3906C1213.5319,-248.9132 1191.5538,-236.2809 1172.9756,-225.6028"/>
<polygon fill="#191970" stroke="#191970" points="1174.5892,-222.4933 1164.1751,-220.5446 1171.101,-228.5623 1174.5892,-222.4933"/>
</g>
<!-- Node18&#45;&gt;Node8 -->
<g id="edge24" class="edge">
<title>Node18&#45;&gt;Node8</title>
<path fill="none" stroke="#191970" d="M1090.1063,-197.6584C1036.0969,-188.5083 945.786,-172.2813 869,-154 867.5399,-153.6524 866.0495,-153.2832 864.547,-152.8994"/>
<polygon fill="#191970" stroke="#191970" points="865.2142,-149.4544 854.6477,-150.2294 863.3912,-156.2129 865.2142,-149.4544"/>
</g>
<!-- Node18&#45;&gt;Node16 -->
<g id="edge21" class="edge">
<title>Node18&#45;&gt;Node16</title>
<path fill="none" stroke="#191970" d="M1090.4262,-200.0793C1041.7009,-193.3978 964.4605,-179.6382 902,-154 883.4765,-146.3966 838.6093,-116.5758 811.3111,-97.9313"/>
<polygon fill="#191970" stroke="#191970" points="813.0164,-94.8567 802.7905,-92.0851 809.056,-100.6287 813.0164,-94.8567"/>
</g>
<!-- Node18&#45;&gt;Node17 -->
<g id="edge25" class="edge">
<title>Node18&#45;&gt;Node17</title>
<path fill="none" stroke="#191970" d="M1185.6252,-199.6567C1237.6502,-192.18 1316.0058,-177.3331 1334,-154 1346.9396,-137.2212 1332.1166,-114.5523 1318.4038,-99.275"/>
<polygon fill="#191970" stroke="#191970" points="1320.924,-96.8461 1311.487,-92.03 1315.8609,-101.6799 1320.924,-96.8461"/>
</g>
<!-- Node19 -->
<g id="node20" class="node">
<title>Node19</title>
<polygon fill="none" stroke="#bfbfbf" points="1027,-134.5 1027,-153.5 1067,-153.5 1067,-134.5 1027,-134.5"/>
<text text-anchor="middle" x="1047" y="-141.5" font-family="Helvetica,sans-Serif" font-size="10.00" fill="#000000">limits</text>
</g>
<!-- Node18&#45;&gt;Node19 -->
<g id="edge20" class="edge">
<title>Node18&#45;&gt;Node19</title>
<path fill="none" stroke="#191970" d="M1115.5056,-190.2977C1101.6033,-180.9022 1083.8124,-168.8787 1069.8454,-159.4395"/>
<polygon fill="#191970" stroke="#191970" points="1071.5436,-156.3629 1061.2985,-153.6633 1067.624,-162.1626 1071.5436,-156.3629"/>
</g>
<!-- Node20 -->
<g id="node21" class="node">
<title>Node20</title>
<polygon fill="none" stroke="#bfbfbf" points="1085.5,-134.5 1085.5,-153.5 1126.5,-153.5 1126.5,-134.5 1085.5,-134.5"/>
<text text-anchor="middle" x="1106" y="-141.5" font-family="Helvetica,sans-Serif" font-size="10.00" fill="#000000">regex</text>
</g>
<!-- Node18&#45;&gt;Node20 -->
<g id="edge22" class="edge">
<title>Node18&#45;&gt;Node20</title>
<path fill="none" stroke="#191970" d="M1130.0899,-190.2977C1125.7868,-182.0277 1120.4242,-171.7215 1115.8518,-162.9339"/>
<polygon fill="#191970" stroke="#191970" points="1118.8443,-161.1024 1111.1236,-153.8469 1112.6346,-164.3335 1118.8443,-161.1024"/>
</g>
<!-- Node21 -->
<g id="node22" class="node">
<title>Node21</title>
<polygon fill="none" stroke="#bfbfbf" points="1145,-134.5 1145,-153.5 1197,-153.5 1197,-134.5 1145,-134.5"/>
<text text-anchor="middle" x="1171" y="-141.5" font-family="Helvetica,sans-Serif" font-size="10.00" fill="#000000">sstream</text>
</g>
<!-- Node18&#45;&gt;Node21 -->
<g id="edge23" class="edge">
<title>Node18&#45;&gt;Node21</title>
<path fill="none" stroke="#191970" d="M1146.1573,-190.2977C1150.5949,-182.0277 1156.125,-171.7215 1160.8404,-162.9339"/>
<polygon fill="#191970" stroke="#191970" points="1164.0721,-164.3134 1165.7163,-153.8469 1157.904,-161.0037 1164.0721,-164.3134"/>
</g>
<!-- Node22 -->
<g id="node23" class="node">
<title>Node22</title>
<g id="a_node23"><a xlink:href="general__exceptions_8h.html" target="_top" xlink:title="Definition of self&#45;defined general exceptions. ">
<polygon fill="none" stroke="#000000" points="1215.5,-134.5 1215.5,-153.5 1324.5,-153.5 1324.5,-134.5 1215.5,-134.5"/>
<text text-anchor="middle" x="1270" y="-141.5" font-family="Helvetica,sans-Serif" font-size="10.00" fill="#000000">general_exceptions.h</text>
</a>
</g>
</g>
<!-- Node18&#45;&gt;Node22 -->
<g id="edge26" class="edge">
<title>Node18&#45;&gt;Node22</title>
<path fill="none" stroke="#191970" d="M1170.2908,-190.4554C1191.6392,-180.509 1219.4196,-167.5659 1240.2333,-157.8686"/>
<polygon fill="#191970" stroke="#191970" points="1241.9584,-160.9262 1249.5447,-153.5303 1239.0021,-154.581 1241.9584,-160.9262"/>
</g>
<!-- Node24 -->
<g id="node25" class="node">
<title>Node24</title>
<g id="a_node25"><a xlink:href="generic__functors_8h.html" target="_top" xlink:title="This header file contains a set of self&#45;defined generic functors. ">
<polygon fill="none" stroke="#000000" points="911.5,-134.5 911.5,-153.5 1008.5,-153.5 1008.5,-134.5 911.5,-134.5"/>
<text text-anchor="middle" x="960" y="-141.5" font-family="Helvetica,sans-Serif" font-size="10.00" fill="#000000">generic_functors.h</text>
</a>
</g>
</g>
<!-- Node18&#45;&gt;Node24 -->
<g id="edge28" class="edge">
<title>Node18&#45;&gt;Node24</title>
<path fill="none" stroke="#191970" d="M1094.4563,-190.4554C1064.6263,-180.149 1025.4834,-166.6249 997.1298,-156.8286"/>
<polygon fill="#191970" stroke="#191970" points="998.1784,-153.4879 987.5837,-153.5303 995.8924,-160.1041 998.1784,-153.4879"/>
</g>
<!-- Node27 -->
<g id="node28" class="node">
<title>Node27</title>
<g id="a_node28"><a xlink:href="lapack__helpers_8h.html" target="_top" xlink:title="Exposes LAPACK helper functions defined in lapack_full_matrix.cc and define new ones by following the...">
<polygon fill="none" stroke="#000000" points="1848,-134.5 1848,-153.5 1938,-153.5 1938,-134.5 1848,-134.5"/>
<text text-anchor="middle" x="1893" y="-141.5" font-family="Helvetica,sans-Serif" font-size="10.00" fill="#000000">lapack_helpers.h</text>
</a>
</g>
</g>
<!-- Node18&#45;&gt;Node27 -->
<g id="edge36" class="edge">
<title>Node18&#45;&gt;Node27</title>
<path fill="none" stroke="#191970" d="M1185.5146,-201.6296C1318.6945,-190.7812 1695.1348,-160.1175 1837.5158,-148.5196"/>
<polygon fill="#191970" stroke="#191970" points="1838.075,-151.9857 1847.7578,-147.6853 1837.5067,-145.0088 1838.075,-151.9857"/>
</g>
<!-- Node23 -->
<g id="node24" class="node">
<title>Node23</title>
<polygon fill="none" stroke="#bfbfbf" points="1013,-73 1013,-92 1139,-92 1139,-73 1013,-73"/>
<text text-anchor="middle" x="1076" y="-80" font-family="Helvetica,sans-Serif" font-size="10.00" fill="#000000">deal.II/base/exceptions.h</text>
</g>
<!-- Node22&#45;&gt;Node23 -->
<g id="edge27" class="edge">
<title>Node22&#45;&gt;Node23</title>
<path fill="none" stroke="#191970" d="M1239.6875,-134.3906C1206.3735,-123.8298 1152.7192,-106.8208 1115.9819,-95.1747"/>
<polygon fill="#191970" stroke="#191970" points="1116.6898,-91.7275 1106.0996,-92.0419 1114.5744,-98.4002 1116.6898,-91.7275"/>
</g>
<!-- Node24&#45;&gt;Node10 -->
<g id="edge30" class="edge">
<title>Node24&#45;&gt;Node10</title>
<path fill="none" stroke="#191970" d="M999.273,-134.4979C1037.3241,-125.2661 1096.65,-110.8059 1148,-98 1152.4131,-96.8994 1157.0038,-95.747 1161.5977,-94.5886"/>
<polygon fill="#191970" stroke="#191970" points="1162.7552,-97.9061 1171.5919,-92.0611 1161.0389,-91.1198 1162.7552,-97.9061"/>
</g>
<!-- Node24&#45;&gt;Node13 -->
<g id="edge31" class="edge">
<title>Node24&#45;&gt;Node13</title>
<path fill="none" stroke="#191970" d="M962.7491,-134.2456C967.9345,-117.7075 980.7793,-84.2816 1004,-67 1029.9747,-47.6688 1113.4815,-32.0049 1170.3368,-23.2209"/>
<polygon fill="#191970" stroke="#191970" points="1170.9095,-26.6741 1180.2714,-21.7138 1169.8595,-19.7533 1170.9095,-26.6741"/>
</g>
<!-- Node24&#45;&gt;Node16 -->
<g id="edge34" class="edge">
<title>Node24&#45;&gt;Node16</title>
<path fill="none" stroke="#191970" d="M921.866,-134.4923C892.0971,-126.4585 850.0493,-113.7527 815,-98 814.299,-97.6849 813.5932,-97.3553 812.8855,-97.0137"/>
<polygon fill="#191970" stroke="#191970" points="814.2709,-93.7845 803.8072,-92.1229 810.9508,-99.9471 814.2709,-93.7845"/>
</g>
<!-- Node24&#45;&gt;Node17 -->
<g id="edge35" class="edge">
<title>Node24&#45;&gt;Node17</title>
<path fill="none" stroke="#191970" d="M1008.7177,-135.4976C1011.8574,-134.9814 1014.9721,-134.4781 1018,-134 1129.3182,-116.4242 1161.2291,-130.9555 1269,-98 1270.8595,-97.4314 1272.7459,-96.768 1274.6244,-96.0418"/>
<polygon fill="#191970" stroke="#191970" points="1276.0292,-99.2476 1283.7902,-92.0352 1273.2255,-92.8336 1276.0292,-99.2476"/>
</g>
<!-- Node24&#45;&gt;Node23 -->
<g id="edge29" class="edge">
<title>Node24&#45;&gt;Node23</title>
<path fill="none" stroke="#191970" d="M978.125,-134.3906C997.1083,-124.3262 1027.1373,-108.4057 1048.9307,-96.8514"/>
<polygon fill="#191970" stroke="#191970" points="1050.8066,-99.8184 1058.0023,-92.0419 1047.5277,-93.6338 1050.8066,-99.8184"/>
</g>
<!-- Node25 -->
<g id="node26" class="node">
<title>Node25</title>
<polygon fill="none" stroke="#bfbfbf" points="824.5,-73 824.5,-92 891.5,-92 891.5,-73 824.5,-73"/>
<text text-anchor="middle" x="858" y="-80" font-family="Helvetica,sans-Serif" font-size="10.00" fill="#000000">forward_list</text>
</g>
<!-- Node24&#45;&gt;Node25 -->
<g id="edge32" class="edge">
<title>Node24&#45;&gt;Node25</title>
<path fill="none" stroke="#191970" d="M944.0625,-134.3906C927.5949,-124.4616 901.6742,-108.833 882.5796,-97.3201"/>
<polygon fill="#191970" stroke="#191970" points="884.1966,-94.2081 873.8256,-92.0419 880.5822,-100.2027 884.1966,-94.2081"/>
</g>
<!-- Node26 -->
<g id="node27" class="node">
<title>Node26</title>
<polygon fill="none" stroke="#bfbfbf" points="909.5,-73 909.5,-92 956.5,-92 956.5,-73 909.5,-73"/>
<text text-anchor="middle" x="933" y="-80" font-family="Helvetica,sans-Serif" font-size="10.00" fill="#000000">iterator</text>
</g>
<!-- Node24&#45;&gt;Node26 -->
<g id="edge33" class="edge">
<title>Node24&#45;&gt;Node26</title>
<path fill="none" stroke="#191970" d="M955.7813,-134.3906C951.9204,-125.5965 946.0966,-112.3312 941.3039,-101.4145"/>
<polygon fill="#191970" stroke="#191970" points="944.5029,-99.9943 937.2782,-92.2449 938.0934,-102.8083 944.5029,-99.9943"/>
</g>
<!-- Node27&#45;&gt;Node11 -->
<g id="edge40" class="edge">
<title>Node27&#45;&gt;Node11</title>
<path fill="none" stroke="#191970" d="M1938.2785,-140.1941C2010.4782,-133.7658 2155.9908,-119.3371 2278,-98 2284.1744,-96.9202 2290.6341,-95.6314 2297.0025,-94.2648"/>
<polygon fill="#191970" stroke="#191970" points="2297.8767,-97.656 2306.8806,-92.0719 2296.3597,-90.8223 2297.8767,-97.656"/>
</g>
<!-- Node27&#45;&gt;Node12 -->
<g id="edge41" class="edge">
<title>Node27&#45;&gt;Node12</title>
<path fill="none" stroke="#191970" d="M1938.1565,-142.8226C2027.0909,-139.8955 2231.1804,-130.1673 2411.3163,-97.8909"/>
<polygon fill="#191970" stroke="#191970" points="2412.0221,-101.3201 2421.234,-96.0864 2410.769,-94.4331 2412.0221,-101.3201"/>
</g>
<!-- Node27&#45;&gt;Node13 -->
<g id="edge42" class="edge">
<title>Node27&#45;&gt;Node13</title>
<path fill="none" stroke="#191970" d="M1847.6973,-142.093C1755.7274,-137.7017 1550.393,-125.1051 1486,-98 1465.9112,-89.544 1467.5677,-76.6004 1448,-67 1394.9984,-40.9959 1328.3611,-27.8094 1281.9905,-21.333"/>
<polygon fill="#191970" stroke="#191970" points="1282.2072,-17.8309 1271.8318,-19.9761 1281.2804,-24.7693 1282.2072,-17.8309"/>
</g>
<!-- Node27&#45;&gt;Node14 -->
<g id="edge43" class="edge">
<title>Node27&#45;&gt;Node14</title>
<path fill="none" stroke="#191970" d="M1938.3222,-141.904C2059.7713,-136.0983 2391.5006,-118.9526 2520.4671,-97.9898"/>
<polygon fill="#191970" stroke="#191970" points="2521.2222,-101.4116 2530.4905,-96.2784 2520.044,-94.5114 2521.2222,-101.4116"/>
</g>
<!-- Node28 -->
<g id="node29" class="node">
<title>Node28</title>
<polygon fill="none" stroke="#bfbfbf" points="1495,-73 1495,-92 1611,-92 1611,-73 1495,-73"/>
<text text-anchor="middle" x="1553" y="-80" font-family="Helvetica,sans-Serif" font-size="10.00" fill="#000000">deal.II/base/numbers.h</text>
</g>
<!-- Node27&#45;&gt;Node28 -->
<g id="edge37" class="edge">
<title>Node27&#45;&gt;Node28</title>
<path fill="none" stroke="#191970" d="M1847.921,-137.2589C1793.6686,-128.9491 1699.8905,-113.9566 1620,-98 1614.2997,-96.8615 1608.3442,-95.5954 1602.4368,-94.2914"/>
<polygon fill="#191970" stroke="#191970" points="1603.1183,-90.8573 1592.5939,-92.077 1601.5818,-97.6866 1603.1183,-90.8573"/>
</g>
<!-- Node29 -->
<g id="node30" class="node">
<title>Node29</title>
<polygon fill="none" stroke="#bfbfbf" points="1629,-67.5 1629,-97.5 1757,-97.5 1757,-67.5 1629,-67.5"/>
<text text-anchor="start" x="1637" y="-85.5" font-family="Helvetica,sans-Serif" font-size="10.00" fill="#000000">deal.II/lac/blas_extension</text>
<text text-anchor="middle" x="1693" y="-74.5" font-family="Helvetica,sans-Serif" font-size="10.00" fill="#000000">_templates.h</text>
</g>
<!-- Node27&#45;&gt;Node29 -->
<g id="edge38" class="edge">
<title>Node27&#45;&gt;Node29</title>
<path fill="none" stroke="#191970" d="M1861.75,-134.3906C1832.4268,-125.3737 1787.8174,-111.6563 1751.8279,-100.5896"/>
<polygon fill="#191970" stroke="#191970" points="1752.5126,-97.1384 1741.9255,-97.5446 1750.4551,-103.8292 1752.5126,-97.1384"/>
</g>
<!-- Node30 -->
<g id="node31" class="node">
<title>Node30</title>
<polygon fill="none" stroke="#bfbfbf" points="1775,-73 1775,-92 1901,-92 1901,-73 1775,-73"/>
<text text-anchor="middle" x="1838" y="-80" font-family="Helvetica,sans-Serif" font-size="10.00" fill="#000000">deal.II/lac/block_vector.h</text>
</g>
<!-- Node27&#45;&gt;Node30 -->
<g id="edge39" class="edge">
<title>Node27&#45;&gt;Node30</title>
<path fill="none" stroke="#191970" d="M1884.4063,-134.3906C1876.1403,-125.1478 1863.4574,-110.966 1853.4383,-99.7628"/>
<polygon fill="#191970" stroke="#191970" points="1855.99,-97.3657 1846.7149,-92.2449 1850.7722,-102.0321 1855.99,-97.3657"/>
</g>
<!-- Node31 -->
<g id="node32" class="node">
<title>Node31</title>
<polygon fill="none" stroke="#bfbfbf" points="1919,-67.5 1919,-97.5 2011,-97.5 2011,-67.5 1919,-67.5"/>
<text text-anchor="start" x="1927" y="-85.5" font-family="Helvetica,sans-Serif" font-size="10.00" fill="#000000">deal.II/lac/sparse</text>
<text text-anchor="middle" x="1965" y="-74.5" font-family="Helvetica,sans-Serif" font-size="10.00" fill="#000000">_matrix.h</text>
</g>
<!-- Node27&#45;&gt;Node31 -->
<g id="edge44" class="edge">
<title>Node27&#45;&gt;Node31</title>
<path fill="none" stroke="#191970" d="M1904.25,-134.3906C1913.7236,-126.2986 1927.6294,-114.4207 1939.7468,-104.0705"/>
<polygon fill="#191970" stroke="#191970" points="1942.0563,-106.7008 1947.3868,-97.5446 1937.5098,-101.3782 1942.0563,-106.7008"/>
</g>
<!-- Node32 -->
<g id="node33" class="node">
<title>Node32</title>
<polygon fill="none" stroke="#bfbfbf" points="2029.5,-73 2029.5,-92 2130.5,-92 2130.5,-73 2029.5,-73"/>
<text text-anchor="middle" x="2080" y="-80" font-family="Helvetica,sans-Serif" font-size="10.00" fill="#000000">deal.II/lac/utilities.h</text>
</g>
<!-- Node27&#45;&gt;Node32 -->
<g id="edge45" class="edge">
<title>Node27&#45;&gt;Node32</title>
<path fill="none" stroke="#191970" d="M1922.2188,-134.3906C1954.3307,-123.8298 2006.049,-106.8208 2041.4608,-95.1747"/>
<polygon fill="#191970" stroke="#191970" points="2042.5804,-98.4909 2050.9864,-92.0419 2040.3935,-91.8413 2042.5804,-98.4909"/>
</g>
<!-- Node33 -->
<g id="node34" class="node">
<title>Node33</title>
<polygon fill="none" stroke="#bfbfbf" points="1341,-73 1341,-92 1439,-92 1439,-73 1341,-73"/>
<text text-anchor="middle" x="1390" y="-80" font-family="Helvetica,sans-Serif" font-size="10.00" fill="#000000">deal.II/lac/vector.h</text>
</g>
<!-- Node27&#45;&gt;Node33 -->
<g id="edge46" class="edge">
<title>Node27&#45;&gt;Node33</title>
<path fill="none" stroke="#191970" d="M1847.7456,-141.3228C1767.6789,-136.1302 1596.0024,-122.9455 1453,-98 1447.1711,-96.9832 1441.0816,-95.731 1435.0839,-94.3829"/>
<polygon fill="#191970" stroke="#191970" points="1435.6745,-90.9264 1425.1392,-92.0481 1434.0745,-97.7412 1435.6745,-90.9264"/>
</g>
<!-- Node34 -->
<g id="node35" class="node">
<title>Node34</title>
<g id="a_node35"><a xlink:href="lapack__templates__ext_8h.html" target="_top" xlink:title="Append more template based LAPACK functions to those existing in deal.ii. ">
<polygon fill="none" stroke="#000000" points="2149,-73 2149,-92 2269,-92 2269,-73 2149,-73"/>
<text text-anchor="middle" x="2209" y="-80" font-family="Helvetica,sans-Serif" font-size="10.00" fill="#000000">lapack_templates_ext.h</text>
</a>
</g>
</g>
<!-- Node27&#45;&gt;Node34 -->
<g id="edge47" class="edge">
<title>Node27&#45;&gt;Node34</title>
<path fill="none" stroke="#191970" d="M1938.1691,-136.1032C1987.768,-127.312 2069.7132,-112.4344 2140,-98 2145.7785,-96.8133 2151.8184,-95.5261 2157.8181,-94.2179"/>
<polygon fill="#191970" stroke="#191970" points="2158.8129,-97.5826 2167.824,-92.0104 2157.3048,-90.747 2158.8129,-97.5826"/>
</g>
<!-- Node34&#45;&gt;Node13 -->
<g id="edge48" class="edge">
<title>Node34&#45;&gt;Node13</title>
<path fill="none" stroke="#191970" d="M2171.6043,-72.9219C2161.415,-70.6353 2150.3359,-68.4421 2140,-67 1972.7283,-43.6618 1453.2269,-23.5786 1281.6349,-17.4315"/>
<polygon fill="#191970" stroke="#191970" points="1281.6788,-13.9309 1271.5604,-17.0723 1281.4293,-20.9265 1281.6788,-13.9309"/>
</g>
</g>
</svg>
        <g id="navigator" transform="translate(0 0)" fill="#404254">
                <rect fill="#f2f5e9" fill-opacity="0.5" stroke="#606060" stroke-width=".5" x="0" y="0" width="60" height="60"/>
                <use id="zoomplus" xlink:href="#zoomPlus" x="17" y="9" onmousedown="handleZoom(evt,'in')"/>
                <use id="zoomminus" xlink:href="#zoomMin" x="42" y="9" onmousedown="handleZoom(evt,'out')"/>
                <use id="reset" xlink:href="#resetDef" x="30" y="36" onmousedown="handleReset()"/>
                <g id="arrowUp" xlink:href="#dirArrow" transform="translate(30 24)" onmousedown="handlePan(0,-1)">
                  <use xlink:href="#rim" fill="#404040">
                        <set attributeName="fill" to="#808080" begin="arrowUp.mouseover" end="arrowUp.mouseout"/>
                  </use>
                  <path fill="none" stroke="white" stroke-width="1.5" d="M0,-3.0v7 M-2.5,-0.5L0,-3.0L2.5,-0.5"/>
                </g>
                <g id="arrowRight" xlink:href="#dirArrow" transform="rotate(90) translate(36 -43)" onmousedown="handlePan(1,0)">
                  <use xlink:href="#rim" fill="#404040">
                        <set attributeName="fill" to="#808080" begin="arrowRight.mouseover" end="arrowRight.mouseout"/>
                  </use>
                  <path fill="none" stroke="white" stroke-width="1.5" d="M0,-3.0v7 M-2.5,-0.5L0,-3.0L2.5,-0.5"/>
                </g>
                <g id="arrowDown" xlink:href="#dirArrow" transform="rotate(180) translate(-30 -48)" onmousedown="handlePan(0,1)">
                  <use xlink:href="#rim" fill="#404040">
                        <set attributeName="fill" to="#808080" begin="arrowDown.mouseover" end="arrowDown.mouseout"/>
                  </use>
                  <path fill="none" stroke="white" stroke-width="1.5" d="M0,-3.0v7 M-2.5,-0.5L0,-3.0L2.5,-0.5"/>
                </g>
                <g id="arrowLeft" xlink:href="#dirArrow" transform="rotate(270) translate(-36 17)" onmousedown="handlePan(-1,0)">
                  <use xlink:href="#rim" fill="#404040">
                        <set attributeName="fill" to="#808080" begin="arrowLeft.mouseover" end="arrowLeft.mouseout"/>
                  </use>
                  <path fill="none" stroke="white" stroke-width="1.5" d="M0,-3.0v7 M-2.5,-0.5L0,-3.0L2.5,-0.5"/>
                </g>
        </g>
        <svg viewBox="0 0 15 15" width="100%" height="30px" preserveAspectRatio="xMaxYMin meet">
         <g id="arrow_out" transform="scale(0.3 0.3)">
          <a xlink:href="rkmatrix-add-formatted_8cc__incl_org.svg" target="_base">
           <rect id="button" ry="5" rx="5" y="6" x="6" height="38" width="38"
                fill="#f2f5e9" fill-opacity="0.5" stroke="#606060" stroke-width="1.0"/>
           <path id="arrow"
             d="M 11.500037,31.436501 C 11.940474,20.09759 22.043105,11.32322 32.158766,21.979434 L 37.068811,17.246167 C 37.068811,17.246167 37.088388,32 37.088388,32 L 22.160133,31.978069 C 22.160133,31.978069 26.997745,27.140456 26.997745,27.140456 C 18.528582,18.264221 13.291696,25.230495 11.500037,31.436501 z"
             style="fill:#404040;"/>
          </a>
         </g>
        </svg>
</svg>
