<?xml version="1.0" encoding="UTF-8" standalone="no"?>
<!DOCTYPE svg PUBLIC "-//W3C//DTD SVG 1.1//EN"
 "http://www.w3.org/Graphics/SVG/1.1/DTD/svg11.dtd">
<!-- Generated by graphviz version 2.40.1 (20161225.0304)
 -->
<!-- Title: /home/jihuan/Projects/deal.ii/program/dealii&#45;9.1.1/examples/laplace&#45;bem/tests/rkmatrix/rkmatrix.cc Pages: 1 -->
<!--zoomable 374 -->
<svg id="main" version="1.1" xmlns="http://www.w3.org/2000/svg" xmlns:xlink="http://www.w3.org/1999/xlink" xml:space="preserve" onload="init(evt)">
<style type="text/css"><![CDATA[
.edge:hover path { stroke: red; }
.edge:hover polygon { stroke: red; fill: red; }
]]></style>
<script type="text/javascript"><![CDATA[
var edges = document.getElementsByTagName('g');
if (edges && edges.length) {
  for (var i=0;i<edges.length;i++) {
    if (edges[i].id.substr(0,4)=='edge') {
      edges[i].setAttribute('class','edge');
    }
  }
}
]]></script>
        <defs>
                <circle id="rim" cx="0" cy="0" r="7"/>
                <circle id="rim2" cx="0" cy="0" r="3.5"/>
                <g id="zoomPlus">
                        <use xlink:href="#rim" fill="#404040">
                                <set attributeName="fill" to="#808080" begin="zoomplus.mouseover" end="zoomplus.mouseout"/>
                        </use>
                        <path d="M-4,0h8M0,-4v8" fill="none" stroke="white" stroke-width="1.5" pointer-events="none"/>
                </g>
                <g id="zoomMin">
                        <use xlink:href="#rim" fill="#404040">
                                <set attributeName="fill" to="#808080" begin="zoomminus.mouseover" end="zoomminus.mouseout"/>
                        </use>
                        <path d="M-4,0h8" fill="none" stroke="white" stroke-width="1.5" pointer-events="none"/>
                </g>
                <g id="dirArrow">
                        <path fill="none" stroke="white" stroke-width="1.5" d="M0,-3.0v7 M-2.5,-0.5L0,-3.0L2.5,-0.5"/>
                </g>
               <g id="resetDef">
                       <use xlink:href="#rim2" fill="#404040">
                               <set attributeName="fill" to="#808080" begin="reset.mouseover" end="reset.mouseout"/>
                       </use>
               </g>
        </defs>

<script type="text/javascript">
var viewWidth = 1929;
var viewHeight = 374;
var sectionId = 'dynsection-0';
</script>
<script xlink:href="svgpan.js"/>
<svg id="graph" class="graph">
<g id="viewport">
<title>/home/jihuan/Projects/deal.ii/program/dealii&#45;9.1.1/examples/laplace&#45;bem/tests/rkmatrix/rkmatrix.cc</title>
<!-- Node0 -->
<g id="node1" class="node">
<title>Node0</title>
<polygon fill="#bfbfbf" stroke="#000000" points="1167.2705,-313.5 1167.2705,-365.5 1320.2705,-365.5 1320.2705,-313.5 1167.2705,-313.5"/>
<text text-anchor="start" x="1175.2705" y="-353.5" font-family="Helvetica,sans-Serif" font-size="10.00" fill="#000000">/home/jihuan/Projects</text>
<text text-anchor="start" x="1175.2705" y="-342.5" font-family="Helvetica,sans-Serif" font-size="10.00" fill="#000000">/deal.ii/program/dealii</text>
<text text-anchor="start" x="1175.2705" y="-331.5" font-family="Helvetica,sans-Serif" font-size="10.00" fill="#000000">&#45;9.1.1/examples/laplace</text>
<text text-anchor="middle" x="1243.7705" y="-320.5" font-family="Helvetica,sans-Serif" font-size="10.00" fill="#000000">&#45;bem/tests/rkmatrix/rkmatrix.cc</text>
</g>
<!-- Node1 -->
<g id="node2" class="node">
<title>Node1</title>
<g id="a_node2"><a xlink:href="rkmatrix_8h.html" target="_top" xlink:title="Definition of rank&#45;k matrix. ">
<polygon fill="none" stroke="#000000" points="1176.7705,-257.5 1176.7705,-276.5 1236.7705,-276.5 1236.7705,-257.5 1176.7705,-257.5"/>
<text text-anchor="middle" x="1206.7705" y="-264.5" font-family="Helvetica,sans-Serif" font-size="10.00" fill="#000000">rkmatrix.h</text>
</a>
</g>
</g>
<!-- Node0&#45;&gt;Node1 -->
<g id="edge1" class="edge">
<title>Node0&#45;&gt;Node1</title>
<path fill="none" stroke="#191970" d="M1230.4126,-313.3258C1225.7112,-304.1136 1220.5286,-293.9584 1216.2167,-285.5096"/>
<polygon fill="#191970" stroke="#191970" points="1219.2994,-283.8501 1211.6361,-276.534 1213.0644,-287.0321 1219.2994,-283.8501"/>
</g>
<!-- Node28 -->
<g id="node29" class="node">
<title>Node28</title>
<polygon fill="none" stroke="#bfbfbf" points="1254.7705,-257.5 1254.7705,-276.5 1308.7705,-276.5 1308.7705,-257.5 1254.7705,-257.5"/>
<text text-anchor="middle" x="1281.7705" y="-264.5" font-family="Helvetica,sans-Serif" font-size="10.00" fill="#000000">iostream</text>
</g>
<!-- Node0&#45;&gt;Node28 -->
<g id="edge40" class="edge">
<title>Node0&#45;&gt;Node28</title>
<path fill="none" stroke="#191970" d="M1257.4894,-313.3258C1262.3178,-304.1136 1267.6406,-293.9584 1272.0689,-285.5096"/>
<polygon fill="#191970" stroke="#191970" points="1275.2309,-287.016 1276.7734,-276.534 1269.031,-283.7663 1275.2309,-287.016"/>
</g>
<!-- Node2 -->
<g id="node3" class="node">
<title>Node2</title>
<polygon fill="none" stroke="#bfbfbf" points="1368.2705,-73 1368.2705,-92 1471.2705,-92 1471.2705,-73 1368.2705,-73"/>
<text text-anchor="middle" x="1419.7705" y="-80" font-family="Helvetica,sans-Serif" font-size="10.00" fill="#000000">deal.II/base/types.h</text>
</g>
<!-- Node1&#45;&gt;Node2 -->
<g id="edge2" class="edge">
<title>Node1&#45;&gt;Node2</title>
<path fill="none" stroke="#191970" d="M1211.3704,-257.2778C1223.1742,-233.2621 1256.7972,-170.4451 1301.7705,-134 1323.4236,-116.4529 1351.9769,-103.7815 1375.572,-95.399"/>
<polygon fill="#191970" stroke="#191970" points="1377.0101,-98.6067 1385.346,-92.0674 1374.7516,-91.981 1377.0101,-98.6067"/>
</g>
<!-- Node3 -->
<g id="node4" class="node">
<title>Node3</title>
<polygon fill="none" stroke="#bfbfbf" points="15.7705,-73 15.7705,-92 131.7705,-92 131.7705,-73 15.7705,-73"/>
<text text-anchor="middle" x="73.7705" y="-80" font-family="Helvetica,sans-Serif" font-size="10.00" fill="#000000">deal.II/lac/full_matrix.h</text>
</g>
<!-- Node1&#45;&gt;Node3 -->
<g id="edge3" class="edge">
<title>Node1&#45;&gt;Node3</title>
<path fill="none" stroke="#191970" d="M1176.5679,-266.4537C1089.4527,-264.4891 830.4288,-255.9105 618.7705,-221 426.547,-189.295 202.834,-122.8585 113.5326,-95.1048"/>
<polygon fill="#191970" stroke="#191970" points="114.4047,-91.7105 103.8161,-92.0725 112.3194,-98.3927 114.4047,-91.7105"/>
</g>
<!-- Node4 -->
<g id="node5" class="node">
<title>Node4</title>
<polygon fill="none" stroke="#bfbfbf" points="150.2705,-67.5 150.2705,-97.5 241.2705,-97.5 241.2705,-67.5 150.2705,-67.5"/>
<text text-anchor="start" x="158.2705" y="-85.5" font-family="Helvetica,sans-Serif" font-size="10.00" fill="#000000">deal.II/lac/lapack</text>
<text text-anchor="middle" x="195.7705" y="-74.5" font-family="Helvetica,sans-Serif" font-size="10.00" fill="#000000">_full_matrix.h</text>
</g>
<!-- Node1&#45;&gt;Node4 -->
<g id="edge4" class="edge">
<title>Node1&#45;&gt;Node4</title>
<path fill="none" stroke="#191970" d="M1176.6716,-264.9391C1107.2434,-259.9198 930.6538,-245.6332 784.7705,-221 547.4842,-180.9328 487.6251,-159.5997 251.3179,-98.3501"/>
<polygon fill="#191970" stroke="#191970" points="251.9466,-94.8975 241.3886,-95.7799 250.1925,-101.6742 251.9466,-94.8975"/>
</g>
<!-- Node5 -->
<g id="node6" class="node">
<title>Node5</title>
<polygon fill="none" stroke="#bfbfbf" points="962.2705,-.5 962.2705,-30.5 1053.2705,-30.5 1053.2705,-.5 962.2705,-.5"/>
<text text-anchor="start" x="970.2705" y="-18.5" font-family="Helvetica,sans-Serif" font-size="10.00" fill="#000000">deal.II/lac/lapack</text>
<text text-anchor="middle" x="1007.7705" y="-7.5" font-family="Helvetica,sans-Serif" font-size="10.00" fill="#000000">_support.h</text>
</g>
<!-- Node1&#45;&gt;Node5 -->
<g id="edge5" class="edge">
<title>Node1&#45;&gt;Node5</title>
<path fill="none" stroke="#191970" d="M1176.3953,-265.9354C1055.0099,-261.5549 604.5428,-244.0608 463.7705,-221 256.1981,-186.9962 134.7237,-264.9448 6.7705,-98 -1.6108,-87.0647 -2.7183,-76.9895 6.7705,-67 39.5141,-32.5285 746.06,-19.3782 951.944,-16.27"/>
<polygon fill="#191970" stroke="#191970" points="952.2761,-19.7655 962.2229,-16.1169 952.1718,-12.7663 952.2761,-19.7655"/>
</g>
<!-- Node6 -->
<g id="node7" class="node">
<title>Node6</title>
<polygon fill="none" stroke="#bfbfbf" points="259.2705,-67.5 259.2705,-97.5 350.2705,-97.5 350.2705,-67.5 259.2705,-67.5"/>
<text text-anchor="start" x="267.2705" y="-85.5" font-family="Helvetica,sans-Serif" font-size="10.00" fill="#000000">deal.II/lac/lapack</text>
<text text-anchor="middle" x="304.7705" y="-74.5" font-family="Helvetica,sans-Serif" font-size="10.00" fill="#000000">_templates.h</text>
</g>
<!-- Node1&#45;&gt;Node6 -->
<g id="edge6" class="edge">
<title>Node1&#45;&gt;Node6</title>
<path fill="none" stroke="#191970" d="M1176.5783,-261.8529C1067.6743,-243.1033 684.8411,-175.6015 360.3825,-98.0441"/>
<polygon fill="#191970" stroke="#191970" points="360.8579,-94.5589 350.3174,-95.6304 359.2255,-101.3659 360.8579,-94.5589"/>
</g>
<!-- Node7 -->
<g id="node8" class="node">
<title>Node7</title>
<polygon fill="none" stroke="#bfbfbf" points="1876.7705,-196 1876.7705,-215 1920.7705,-215 1920.7705,-196 1876.7705,-196"/>
<text text-anchor="middle" x="1898.7705" y="-203" font-family="Helvetica,sans-Serif" font-size="10.00" fill="#000000">cmath</text>
</g>
<!-- Node1&#45;&gt;Node7 -->
<g id="edge7" class="edge">
<title>Node1&#45;&gt;Node7</title>
<path fill="none" stroke="#191970" d="M1236.8847,-258.6671C1239.8711,-258.0252 1242.8698,-257.4522 1245.7705,-257 1517.1812,-214.6908 1595.468,-284.2709 1862.7705,-221 1865.2619,-220.4103 1867.7986,-219.6591 1870.3135,-218.8066"/>
<polygon fill="#191970" stroke="#191970" points="1871.7034,-222.0217 1879.7628,-215.1443 1869.1737,-215.4947 1871.7034,-222.0217"/>
</g>
<!-- Node8 -->
<g id="node9" class="node">
<title>Node8</title>
<polygon fill="none" stroke="#bfbfbf" points="1315.2705,-73 1315.2705,-92 1350.2705,-92 1350.2705,-73 1315.2705,-73"/>
<text text-anchor="middle" x="1332.7705" y="-80" font-family="Helvetica,sans-Serif" font-size="10.00" fill="#000000">map</text>
</g>
<!-- Node1&#45;&gt;Node8 -->
<g id="edge8" class="edge">
<title>Node1&#45;&gt;Node8</title>
<path fill="none" stroke="#191970" d="M1205.7491,-257.48C1203.7483,-233.9256 1201.7689,-172.0783 1230.7705,-134 1253.1735,-104.5854 1273.0485,-115.2159 1305.7705,-98 1306.4342,-97.6508 1307.1052,-97.2939 1307.7809,-96.9313"/>
<polygon fill="#191970" stroke="#191970" points="1309.5538,-99.9503 1316.6015,-92.0395 1306.1589,-93.8287 1309.5538,-99.9503"/>
</g>
<!-- Node9 -->
<g id="node10" class="node">
<title>Node9</title>
<polygon fill="none" stroke="#bfbfbf" points="1822.7705,-73 1822.7705,-92 1866.7705,-92 1866.7705,-73 1822.7705,-73"/>
<text text-anchor="middle" x="1844.7705" y="-80" font-family="Helvetica,sans-Serif" font-size="10.00" fill="#000000">vector</text>
</g>
<!-- Node1&#45;&gt;Node9 -->
<g id="edge9" class="edge">
<title>Node1&#45;&gt;Node9</title>
<path fill="none" stroke="#191970" d="M1236.9366,-258.9548C1239.9125,-258.2546 1242.8945,-257.5894 1245.7705,-257 1348.4211,-235.962 1375.5825,-239.2205 1478.7705,-221 1629.1533,-194.4461 1698.0783,-251.307 1815.7705,-154 1831.3722,-141.1006 1838.6598,-118.5139 1842.0124,-102.1727"/>
<polygon fill="#191970" stroke="#191970" points="1845.5071,-102.5026 1843.7586,-92.0531 1838.6091,-101.3123 1845.5071,-102.5026"/>
</g>
<!-- Node10 -->
<g id="node11" class="node">
<title>Node10</title>
<g id="a_node11"><a xlink:href="lapack__full__matrix__ext_8h_source.html" target="_top" xlink:title="lapack_full_matrix\l_ext.h">
<polygon fill="none" stroke="#000000" points="1374.2705,-190.5 1374.2705,-220.5 1469.2705,-220.5 1469.2705,-190.5 1374.2705,-190.5"/>
<text text-anchor="start" x="1382.2705" y="-208.5" font-family="Helvetica,sans-Serif" font-size="10.00" fill="#000000">lapack_full_matrix</text>
<text text-anchor="middle" x="1421.7705" y="-197.5" font-family="Helvetica,sans-Serif" font-size="10.00" fill="#000000">_ext.h</text>
</a>
</g>
</g>
<!-- Node1&#45;&gt;Node10 -->
<g id="edge10" class="edge">
<title>Node1&#45;&gt;Node10</title>
<path fill="none" stroke="#191970" d="M1237.1187,-258.319C1270.0546,-248.8978 1323.4121,-233.6351 1364.3208,-221.9333"/>
<polygon fill="#191970" stroke="#191970" points="1365.5158,-225.2319 1374.1676,-219.1166 1363.5906,-218.5018 1365.5158,-225.2319"/>
</g>
<!-- Node10&#45;&gt;Node8 -->
<g id="edge12" class="edge">
<title>Node10&#45;&gt;Node8</title>
<path fill="none" stroke="#191970" d="M1374.0514,-198.0021C1347.9735,-191.2055 1317.8013,-178.3247 1301.7705,-154 1290.4632,-136.8427 1303.483,-114.8778 1315.945,-99.8483"/>
<polygon fill="#191970" stroke="#191970" points="1318.6349,-102.0902 1322.6528,-92.2867 1313.3984,-97.4449 1318.6349,-102.0902"/>
</g>
<!-- Node10&#45;&gt;Node9 -->
<g id="edge16" class="edge">
<title>Node10&#45;&gt;Node9</title>
<path fill="none" stroke="#191970" d="M1469.5439,-203.4111C1556.8745,-198.8566 1738.2284,-185.7758 1791.7705,-154 1812.3478,-141.7879 1827.4241,-118.1866 1836.1248,-101.444"/>
<polygon fill="#191970" stroke="#191970" points="1839.4607,-102.5897 1840.7106,-92.0688 1833.1726,-99.5139 1839.4607,-102.5897"/>
</g>
<!-- Node11 -->
<g id="node12" class="node">
<title>Node11</title>
<polygon fill="none" stroke="#bfbfbf" points="1310.7705,-134.5 1310.7705,-153.5 1350.7705,-153.5 1350.7705,-134.5 1310.7705,-134.5"/>
<text text-anchor="middle" x="1330.7705" y="-141.5" font-family="Helvetica,sans-Serif" font-size="10.00" fill="#000000">limits</text>
</g>
<!-- Node10&#45;&gt;Node11 -->
<g id="edge11" class="edge">
<title>Node10&#45;&gt;Node11</title>
<path fill="none" stroke="#191970" d="M1399.2761,-190.2977C1385.3738,-180.9022 1367.5829,-168.8787 1353.6159,-159.4395"/>
<polygon fill="#191970" stroke="#191970" points="1355.3141,-156.3629 1345.069,-153.6633 1351.3945,-162.1626 1355.3141,-156.3629"/>
</g>
<!-- Node12 -->
<g id="node13" class="node">
<title>Node12</title>
<polygon fill="none" stroke="#bfbfbf" points="1369.2705,-134.5 1369.2705,-153.5 1410.2705,-153.5 1410.2705,-134.5 1369.2705,-134.5"/>
<text text-anchor="middle" x="1389.7705" y="-141.5" font-family="Helvetica,sans-Serif" font-size="10.00" fill="#000000">regex</text>
</g>
<!-- Node10&#45;&gt;Node12 -->
<g id="edge13" class="edge">
<title>Node10&#45;&gt;Node12</title>
<path fill="none" stroke="#191970" d="M1413.8604,-190.2977C1409.5573,-182.0277 1404.1947,-171.7215 1399.6222,-162.9339"/>
<polygon fill="#191970" stroke="#191970" points="1402.6148,-161.1024 1394.8941,-153.8469 1396.4051,-164.3335 1402.6148,-161.1024"/>
</g>
<!-- Node13 -->
<g id="node14" class="node">
<title>Node13</title>
<polygon fill="none" stroke="#bfbfbf" points="1428.7705,-134.5 1428.7705,-153.5 1480.7705,-153.5 1480.7705,-134.5 1428.7705,-134.5"/>
<text text-anchor="middle" x="1454.7705" y="-141.5" font-family="Helvetica,sans-Serif" font-size="10.00" fill="#000000">sstream</text>
</g>
<!-- Node10&#45;&gt;Node13 -->
<g id="edge14" class="edge">
<title>Node10&#45;&gt;Node13</title>
<path fill="none" stroke="#191970" d="M1429.9278,-190.2977C1434.3654,-182.0277 1439.8955,-171.7215 1444.6109,-162.9339"/>
<polygon fill="#191970" stroke="#191970" points="1447.8426,-164.3134 1449.4868,-153.8469 1441.6745,-161.0037 1447.8426,-164.3134"/>
</g>
<!-- Node14 -->
<g id="node15" class="node">
<title>Node14</title>
<polygon fill="none" stroke="#bfbfbf" points="1614.2705,-134.5 1614.2705,-153.5 1655.2705,-153.5 1655.2705,-134.5 1614.2705,-134.5"/>
<text text-anchor="middle" x="1634.7705" y="-141.5" font-family="Helvetica,sans-Serif" font-size="10.00" fill="#000000">string</text>
</g>
<!-- Node10&#45;&gt;Node14 -->
<g id="edge15" class="edge">
<title>Node10&#45;&gt;Node14</title>
<path fill="none" stroke="#191970" d="M1469.6531,-192.9311C1504.6662,-183.552 1553.5024,-170.0818 1604.3681,-154.3268"/>
<polygon fill="#191970" stroke="#191970" points="1605.7206,-157.5714 1614.225,-151.2527 1603.6364,-150.8888 1605.7206,-157.5714"/>
</g>
<!-- Node15 -->
<g id="node16" class="node">
<title>Node15</title>
<g id="a_node16"><a xlink:href="general__exceptions_8h.html" target="_top" xlink:title="Definition of self&#45;defined general exceptions. ">
<polygon fill="none" stroke="#000000" points="1673.2705,-134.5 1673.2705,-153.5 1782.2705,-153.5 1782.2705,-134.5 1673.2705,-134.5"/>
<text text-anchor="middle" x="1727.7705" y="-141.5" font-family="Helvetica,sans-Serif" font-size="10.00" fill="#000000">general_exceptions.h</text>
</a>
</g>
</g>
<!-- Node10&#45;&gt;Node15 -->
<g id="edge17" class="edge">
<title>Node10&#45;&gt;Node15</title>
<path fill="none" stroke="#191970" d="M1469.583,-195.8906C1523.8139,-184.9913 1612.2177,-167.2238 1670.1939,-155.5718"/>
<polygon fill="#191970" stroke="#191970" points="1671.1794,-158.9438 1680.2937,-153.5419 1669.8001,-152.081 1671.1794,-158.9438"/>
</g>
<!-- Node17 -->
<g id="node18" class="node">
<title>Node17</title>
<g id="a_node18"><a xlink:href="generic__functors_8h.html" target="_top" xlink:title="This header file contains a set of self&#45;defined generic functors. ">
<polygon fill="none" stroke="#000000" points="1499.2705,-134.5 1499.2705,-153.5 1596.2705,-153.5 1596.2705,-134.5 1499.2705,-134.5"/>
<text text-anchor="middle" x="1547.7705" y="-141.5" font-family="Helvetica,sans-Serif" font-size="10.00" fill="#000000">generic_functors.h</text>
</a>
</g>
</g>
<!-- Node10&#45;&gt;Node17 -->
<g id="edge19" class="edge">
<title>Node10&#45;&gt;Node17</title>
<path fill="none" stroke="#191970" d="M1452.5936,-190.4554C1472.8793,-180.554 1499.2493,-167.683 1519.0867,-158.0004"/>
<polygon fill="#191970" stroke="#191970" points="1520.7935,-161.062 1528.245,-153.5303 1517.7231,-154.7714 1520.7935,-161.062"/>
</g>
<!-- Node20 -->
<g id="node21" class="node">
<title>Node20</title>
<g id="a_node21"><a xlink:href="lapack__helpers_8h.html" target="_top" xlink:title="Exposes LAPACK helper functions defined in lapack_full_matrix.cc and define new ones by following the...">
<polygon fill="none" stroke="#000000" points="696.7705,-134.5 696.7705,-153.5 786.7705,-153.5 786.7705,-134.5 696.7705,-134.5"/>
<text text-anchor="middle" x="741.7705" y="-141.5" font-family="Helvetica,sans-Serif" font-size="10.00" fill="#000000">lapack_helpers.h</text>
</a>
</g>
</g>
<!-- Node10&#45;&gt;Node20 -->
<g id="edge27" class="edge">
<title>Node10&#45;&gt;Node20</title>
<path fill="none" stroke="#191970" d="M1374.2245,-201.1999C1252.0062,-190.1463 927.3648,-160.7854 797.0492,-148.9995"/>
<polygon fill="#191970" stroke="#191970" points="797.1719,-145.4964 786.8973,-148.0813 796.5414,-152.4679 797.1719,-145.4964"/>
</g>
<!-- Node16 -->
<g id="node17" class="node">
<title>Node16</title>
<polygon fill="none" stroke="#bfbfbf" points="1678.7705,-73 1678.7705,-92 1804.7705,-92 1804.7705,-73 1678.7705,-73"/>
<text text-anchor="middle" x="1741.7705" y="-80" font-family="Helvetica,sans-Serif" font-size="10.00" fill="#000000">deal.II/base/exceptions.h</text>
</g>
<!-- Node15&#45;&gt;Node16 -->
<g id="edge18" class="edge">
<title>Node15&#45;&gt;Node16</title>
<path fill="none" stroke="#191970" d="M1729.958,-134.3906C1731.919,-125.776 1734.8568,-112.8708 1737.3119,-102.0858"/>
<polygon fill="#191970" stroke="#191970" points="1740.7451,-102.7723 1739.5521,-92.2449 1733.9197,-101.2185 1740.7451,-102.7723"/>
</g>
<!-- Node17&#45;&gt;Node2 -->
<g id="edge21" class="edge">
<title>Node17&#45;&gt;Node2</title>
<path fill="none" stroke="#191970" d="M1527.7705,-134.3906C1506.5416,-124.1908 1472.7942,-107.9763 1448.6745,-96.3875"/>
<polygon fill="#191970" stroke="#191970" points="1450.1594,-93.2179 1439.63,-92.0419 1447.1279,-99.5275 1450.1594,-93.2179"/>
</g>
<!-- Node17&#45;&gt;Node5 -->
<g id="edge22" class="edge">
<title>Node17&#45;&gt;Node5</title>
<path fill="none" stroke="#191970" d="M1542.6567,-134.3947C1533.0626,-117.456 1510.6095,-82.5949 1480.7705,-67 1409.407,-29.7029 1172.4076,-19.3451 1063.4473,-16.5262"/>
<polygon fill="#191970" stroke="#191970" points="1063.3956,-13.0239 1053.3123,-16.2762 1063.223,-20.0218 1063.3956,-13.0239"/>
</g>
<!-- Node17&#45;&gt;Node8 -->
<g id="edge25" class="edge">
<title>Node17&#45;&gt;Node8</title>
<path fill="none" stroke="#191970" d="M1502.293,-134.4126C1455.313,-124.2343 1385.3527,-108.2342 1359.7705,-98 1358.7668,-97.5985 1357.7552,-97.1651 1356.7429,-96.7073"/>
<polygon fill="#191970" stroke="#191970" points="1358.3107,-93.5779 1347.8156,-92.1277 1355.1157,-99.8062 1358.3107,-93.5779"/>
</g>
<!-- Node17&#45;&gt;Node9 -->
<g id="edge26" class="edge">
<title>Node17&#45;&gt;Node9</title>
<path fill="none" stroke="#191970" d="M1596.4139,-135.6106C1672.9971,-122.3993 1813.1235,-98.2126 1813.7705,-98 1815.3818,-97.4706 1817.0142,-96.8698 1818.6434,-96.2199"/>
<polygon fill="#191970" stroke="#191970" points="1820.0877,-99.408 1827.7714,-92.1134 1817.2157,-93.0243 1820.0877,-99.408"/>
</g>
<!-- Node17&#45;&gt;Node16 -->
<g id="edge20" class="edge">
<title>Node17&#45;&gt;Node16</title>
<path fill="none" stroke="#191970" d="M1578.083,-134.3906C1611.397,-123.8298 1665.0513,-106.8208 1701.7886,-95.1747"/>
<polygon fill="#191970" stroke="#191970" points="1703.196,-98.4002 1711.6708,-92.0419 1701.0807,-91.7275 1703.196,-98.4002"/>
</g>
<!-- Node18 -->
<g id="node19" class="node">
<title>Node18</title>
<polygon fill="none" stroke="#bfbfbf" points="1593.2705,-73 1593.2705,-92 1660.2705,-92 1660.2705,-73 1593.2705,-73"/>
<text text-anchor="middle" x="1626.7705" y="-80" font-family="Helvetica,sans-Serif" font-size="10.00" fill="#000000">forward_list</text>
</g>
<!-- Node17&#45;&gt;Node18 -->
<g id="edge23" class="edge">
<title>Node17&#45;&gt;Node18</title>
<path fill="none" stroke="#191970" d="M1560.1142,-134.3906C1572.5207,-124.7324 1591.8548,-109.6812 1606.5118,-98.271"/>
<polygon fill="#191970" stroke="#191970" points="1608.7726,-100.9466 1614.5134,-92.0419 1604.4725,-95.423 1608.7726,-100.9466"/>
</g>
<!-- Node19 -->
<g id="node20" class="node">
<title>Node19</title>
<polygon fill="none" stroke="#bfbfbf" points="1528.2705,-73 1528.2705,-92 1575.2705,-92 1575.2705,-73 1528.2705,-73"/>
<text text-anchor="middle" x="1551.7705" y="-80" font-family="Helvetica,sans-Serif" font-size="10.00" fill="#000000">iterator</text>
</g>
<!-- Node17&#45;&gt;Node19 -->
<g id="edge24" class="edge">
<title>Node17&#45;&gt;Node19</title>
<path fill="none" stroke="#191970" d="M1548.3955,-134.3906C1548.95,-125.8657 1549.7777,-113.1392 1550.4747,-102.4235"/>
<polygon fill="#191970" stroke="#191970" points="1553.9802,-102.451 1551.1367,-92.2449 1546.9949,-101.9966 1553.9802,-102.451"/>
</g>
<!-- Node20&#45;&gt;Node3 -->
<g id="edge31" class="edge">
<title>Node20&#45;&gt;Node3</title>
<path fill="none" stroke="#191970" d="M696.6473,-142.871C596.2249,-139.8512 346.8767,-129.5436 140.7705,-98 134.1099,-96.9806 127.1297,-95.6574 120.2946,-94.2138"/>
<polygon fill="#191970" stroke="#191970" points="120.9582,-90.776 110.4383,-92.034 119.4465,-97.6109 120.9582,-90.776"/>
</g>
<!-- Node20&#45;&gt;Node4 -->
<g id="edge32" class="edge">
<title>Node20&#45;&gt;Node4</title>
<path fill="none" stroke="#191970" d="M696.6077,-142.5877C611.1941,-139.3109 420.1304,-129.0901 251.351,-98.0895"/>
<polygon fill="#191970" stroke="#191970" points="251.7646,-94.6063 241.2922,-96.2121 250.4802,-101.4875 251.7646,-94.6063"/>
</g>
<!-- Node20&#45;&gt;Node5 -->
<g id="edge33" class="edge">
<title>Node20&#45;&gt;Node5</title>
<path fill="none" stroke="#191970" d="M746.0638,-134.254C753.8629,-117.7286 771.9701,-84.3214 797.7705,-67 822.7311,-50.2424 898.6691,-34.2933 952.0205,-24.7013"/>
<polygon fill="#191970" stroke="#191970" points="952.7985,-28.1181 962.0347,-22.9275 951.5775,-21.2254 952.7985,-28.1181"/>
</g>
<!-- Node20&#45;&gt;Node6 -->
<g id="edge34" class="edge">
<title>Node20&#45;&gt;Node6</title>
<path fill="none" stroke="#191970" d="M696.7183,-140.8472C626.7312,-135.4543 487.5927,-122.7557 360.4673,-97.9406"/>
<polygon fill="#191970" stroke="#191970" points="361.0473,-94.4875 350.5576,-95.9764 359.6862,-101.3539 361.0473,-94.4875"/>
</g>
<!-- Node21 -->
<g id="node22" class="node">
<title>Node21</title>
<polygon fill="none" stroke="#bfbfbf" points="1042.7705,-73 1042.7705,-92 1158.7705,-92 1158.7705,-73 1042.7705,-73"/>
<text text-anchor="middle" x="1100.7705" y="-80" font-family="Helvetica,sans-Serif" font-size="10.00" fill="#000000">deal.II/base/numbers.h</text>
</g>
<!-- Node20&#45;&gt;Node21 -->
<g id="edge28" class="edge">
<title>Node20&#45;&gt;Node21</title>
<path fill="none" stroke="#191970" d="M786.9648,-137.8969C844.4989,-129.8945 946.8674,-114.8752 1033.7705,-98 1039.5519,-96.8774 1045.5928,-95.6118 1051.5788,-94.3002"/>
<polygon fill="#191970" stroke="#191970" points="1052.5526,-97.6689 1061.545,-92.0664 1051.0216,-90.8383 1052.5526,-97.6689"/>
</g>
<!-- Node22 -->
<g id="node23" class="node">
<title>Node22</title>
<polygon fill="none" stroke="#bfbfbf" points="368.7705,-67.5 368.7705,-97.5 496.7705,-97.5 496.7705,-67.5 368.7705,-67.5"/>
<text text-anchor="start" x="376.7705" y="-85.5" font-family="Helvetica,sans-Serif" font-size="10.00" fill="#000000">deal.II/lac/blas_extension</text>
<text text-anchor="middle" x="432.7705" y="-74.5" font-family="Helvetica,sans-Serif" font-size="10.00" fill="#000000">_templates.h</text>
</g>
<!-- Node20&#45;&gt;Node22 -->
<g id="edge29" class="edge">
<title>Node20&#45;&gt;Node22</title>
<path fill="none" stroke="#191970" d="M696.483,-135.4058C651.0758,-126.7367 578.8852,-112.8133 506.9917,-98.2311"/>
<polygon fill="#191970" stroke="#191970" points="507.3488,-94.7322 496.852,-96.1696 505.9541,-101.5919 507.3488,-94.7322"/>
</g>
<!-- Node23 -->
<g id="node24" class="node">
<title>Node23</title>
<polygon fill="none" stroke="#bfbfbf" points="514.7705,-73 514.7705,-92 640.7705,-92 640.7705,-73 514.7705,-73"/>
<text text-anchor="middle" x="577.7705" y="-80" font-family="Helvetica,sans-Serif" font-size="10.00" fill="#000000">deal.II/lac/block_vector.h</text>
</g>
<!-- Node20&#45;&gt;Node23 -->
<g id="edge30" class="edge">
<title>Node20&#45;&gt;Node23</title>
<path fill="none" stroke="#191970" d="M716.1455,-134.3906C688.3442,-123.9652 643.7861,-107.2559 612.7711,-95.6252"/>
<polygon fill="#191970" stroke="#191970" points="613.8078,-92.276 603.2155,-92.0419 611.3499,-98.8303 613.8078,-92.276"/>
</g>
<!-- Node24 -->
<g id="node25" class="node">
<title>Node24</title>
<polygon fill="none" stroke="#bfbfbf" points="658.7705,-67.5 658.7705,-97.5 750.7705,-97.5 750.7705,-67.5 658.7705,-67.5"/>
<text text-anchor="start" x="666.7705" y="-85.5" font-family="Helvetica,sans-Serif" font-size="10.00" fill="#000000">deal.II/lac/sparse</text>
<text text-anchor="middle" x="704.7705" y="-74.5" font-family="Helvetica,sans-Serif" font-size="10.00" fill="#000000">_matrix.h</text>
</g>
<!-- Node20&#45;&gt;Node24 -->
<g id="edge35" class="edge">
<title>Node20&#45;&gt;Node24</title>
<path fill="none" stroke="#191970" d="M735.9892,-134.3906C731.4454,-126.838 724.9175,-115.9876 719.0045,-106.1593"/>
<polygon fill="#191970" stroke="#191970" points="721.976,-104.309 713.8217,-97.5446 715.9779,-107.9177 721.976,-104.309"/>
</g>
<!-- Node25 -->
<g id="node26" class="node">
<title>Node25</title>
<polygon fill="none" stroke="#bfbfbf" points="807.2705,-73 807.2705,-92 908.2705,-92 908.2705,-73 807.2705,-73"/>
<text text-anchor="middle" x="857.7705" y="-80" font-family="Helvetica,sans-Serif" font-size="10.00" fill="#000000">deal.II/lac/utilities.h</text>
</g>
<!-- Node20&#45;&gt;Node25 -->
<g id="edge36" class="edge">
<title>Node20&#45;&gt;Node25</title>
<path fill="none" stroke="#191970" d="M759.8955,-134.3906C778.8788,-124.3262 808.9078,-108.4057 830.7012,-96.8514"/>
<polygon fill="#191970" stroke="#191970" points="832.5771,-99.8184 839.7728,-92.0419 829.2982,-93.6338 832.5771,-99.8184"/>
</g>
<!-- Node26 -->
<g id="node27" class="node">
<title>Node26</title>
<polygon fill="none" stroke="#bfbfbf" points="926.7705,-73 926.7705,-92 1024.7705,-92 1024.7705,-73 926.7705,-73"/>
<text text-anchor="middle" x="975.7705" y="-80" font-family="Helvetica,sans-Serif" font-size="10.00" fill="#000000">deal.II/lac/vector.h</text>
</g>
<!-- Node20&#45;&gt;Node26 -->
<g id="edge37" class="edge">
<title>Node20&#45;&gt;Node26</title>
<path fill="none" stroke="#191970" d="M778.0762,-134.4581C818.8924,-123.7308 885.2542,-106.2895 929.6934,-94.61"/>
<polygon fill="#191970" stroke="#191970" points="930.5977,-97.9913 939.3796,-92.0643 928.8183,-91.2212 930.5977,-97.9913"/>
</g>
<!-- Node27 -->
<g id="node28" class="node">
<title>Node27</title>
<g id="a_node28"><a xlink:href="lapack__templates__ext_8h.html" target="_top" xlink:title="Append more template based LAPACK functions to those existing in deal.ii. ">
<polygon fill="none" stroke="#000000" points="1176.7705,-73 1176.7705,-92 1296.7705,-92 1296.7705,-73 1176.7705,-73"/>
<text text-anchor="middle" x="1236.7705" y="-80" font-family="Helvetica,sans-Serif" font-size="10.00" fill="#000000">lapack_templates_ext.h</text>
</a>
</g>
</g>
<!-- Node20&#45;&gt;Node27 -->
<g id="edge38" class="edge">
<title>Node20&#45;&gt;Node27</title>
<path fill="none" stroke="#191970" d="M786.7705,-140.8282C864.7307,-134.9576 1029.8032,-120.8696 1167.7705,-98 1174.3623,-96.9073 1181.2697,-95.5788 1188.0607,-94.1639"/>
<polygon fill="#191970" stroke="#191970" points="1188.8394,-97.5766 1197.8767,-92.0468 1187.3635,-90.7339 1188.8394,-97.5766"/>
</g>
<!-- Node27&#45;&gt;Node5 -->
<g id="edge39" class="edge">
<title>Node27&#45;&gt;Node5</title>
<path fill="none" stroke="#191970" d="M1203.9604,-72.9005C1167.2826,-62.1695 1107.2701,-44.6112 1063.2616,-31.7354"/>
<polygon fill="#191970" stroke="#191970" points="1064.1486,-28.3482 1053.5681,-28.8993 1062.1829,-35.0666 1064.1486,-28.3482"/>
</g>
</g>
</svg>
        <g id="navigator" transform="translate(0 0)" fill="#404254">
                <rect fill="#f2f5e9" fill-opacity="0.5" stroke="#606060" stroke-width=".5" x="0" y="0" width="60" height="60"/>
                <use id="zoomplus" xlink:href="#zoomPlus" x="17" y="9" onmousedown="handleZoom(evt,'in')"/>
                <use id="zoomminus" xlink:href="#zoomMin" x="42" y="9" onmousedown="handleZoom(evt,'out')"/>
                <use id="reset" xlink:href="#resetDef" x="30" y="36" onmousedown="handleReset()"/>
                <g id="arrowUp" xlink:href="#dirArrow" transform="translate(30 24)" onmousedown="handlePan(0,-1)">
                  <use xlink:href="#rim" fill="#404040">
                        <set attributeName="fill" to="#808080" begin="arrowUp.mouseover" end="arrowUp.mouseout"/>
                  </use>
                  <path fill="none" stroke="white" stroke-width="1.5" d="M0,-3.0v7 M-2.5,-0.5L0,-3.0L2.5,-0.5"/>
                </g>
                <g id="arrowRight" xlink:href="#dirArrow" transform="rotate(90) translate(36 -43)" onmousedown="handlePan(1,0)">
                  <use xlink:href="#rim" fill="#404040">
                        <set attributeName="fill" to="#808080" begin="arrowRight.mouseover" end="arrowRight.mouseout"/>
                  </use>
                  <path fill="none" stroke="white" stroke-width="1.5" d="M0,-3.0v7 M-2.5,-0.5L0,-3.0L2.5,-0.5"/>
                </g>
                <g id="arrowDown" xlink:href="#dirArrow" transform="rotate(180) translate(-30 -48)" onmousedown="handlePan(0,1)">
                  <use xlink:href="#rim" fill="#404040">
                        <set attributeName="fill" to="#808080" begin="arrowDown.mouseover" end="arrowDown.mouseout"/>
                  </use>
                  <path fill="none" stroke="white" stroke-width="1.5" d="M0,-3.0v7 M-2.5,-0.5L0,-3.0L2.5,-0.5"/>
                </g>
                <g id="arrowLeft" xlink:href="#dirArrow" transform="rotate(270) translate(-36 17)" onmousedown="handlePan(-1,0)">
                  <use xlink:href="#rim" fill="#404040">
                        <set attributeName="fill" to="#808080" begin="arrowLeft.mouseover" end="arrowLeft.mouseout"/>
                  </use>
                  <path fill="none" stroke="white" stroke-width="1.5" d="M0,-3.0v7 M-2.5,-0.5L0,-3.0L2.5,-0.5"/>
                </g>
        </g>
        <svg viewBox="0 0 15 15" width="100%" height="30px" preserveAspectRatio="xMaxYMin meet">
         <g id="arrow_out" transform="scale(0.3 0.3)">
          <a xlink:href="rkmatrix_8cc__incl_org.svg" target="_base">
           <rect id="button" ry="5" rx="5" y="6" x="6" height="38" width="38"
                fill="#f2f5e9" fill-opacity="0.5" stroke="#606060" stroke-width="1.0"/>
           <path id="arrow"
             d="M 11.500037,31.436501 C 11.940474,20.09759 22.043105,11.32322 32.158766,21.979434 L 37.068811,17.246167 C 37.068811,17.246167 37.088388,32 37.088388,32 L 22.160133,31.978069 C 22.160133,31.978069 26.997745,27.140456 26.997745,27.140456 C 18.528582,18.264221 13.291696,25.230495 11.500037,31.436501 z"
             style="fill:#404040;"/>
          </a>
         </g>
        </svg>
</svg>
