<?xml version="1.0" encoding="UTF-8" standalone="no"?>
<!DOCTYPE svg PUBLIC "-//W3C//DTD SVG 1.1//EN"
 "http://www.w3.org/Graphics/SVG/1.1/DTD/svg11.dtd">
<!-- Generated by graphviz version 2.40.1 (20161225.0304)
 -->
<!-- Title: /home/jihuan/Projects/deal.ii/program/dealii&#45;9.1.1/examples/laplace&#45;bem/tests/rkmatrix&#45;agglomeration&#45;interwoven&#45;indices/rkmatrix&#45;agglomeration&#45;interwoven&#45;indices.cc Pages: 1 -->
<!--zoomable 329 -->
<svg id="main" version="1.1" xmlns="http://www.w3.org/2000/svg" xmlns:xlink="http://www.w3.org/1999/xlink" xml:space="preserve" onload="init(evt)">
<style type="text/css"><![CDATA[
.edge:hover path { stroke: red; }
.edge:hover polygon { stroke: red; fill: red; }
]]></style>
<script type="text/javascript"><![CDATA[
var edges = document.getElementsByTagName('g');
if (edges && edges.length) {
  for (var i=0;i<edges.length;i++) {
    if (edges[i].id.substr(0,4)=='edge') {
      edges[i].setAttribute('class','edge');
    }
  }
}
]]></script>
        <defs>
                <circle id="rim" cx="0" cy="0" r="7"/>
                <circle id="rim2" cx="0" cy="0" r="3.5"/>
                <g id="zoomPlus">
                        <use xlink:href="#rim" fill="#404040">
                                <set attributeName="fill" to="#808080" begin="zoomplus.mouseover" end="zoomplus.mouseout"/>
                        </use>
                        <path d="M-4,0h8M0,-4v8" fill="none" stroke="white" stroke-width="1.5" pointer-events="none"/>
                </g>
                <g id="zoomMin">
                        <use xlink:href="#rim" fill="#404040">
                                <set attributeName="fill" to="#808080" begin="zoomminus.mouseover" end="zoomminus.mouseout"/>
                        </use>
                        <path d="M-4,0h8" fill="none" stroke="white" stroke-width="1.5" pointer-events="none"/>
                </g>
                <g id="dirArrow">
                        <path fill="none" stroke="white" stroke-width="1.5" d="M0,-3.0v7 M-2.5,-0.5L0,-3.0L2.5,-0.5"/>
                </g>
               <g id="resetDef">
                       <use xlink:href="#rim2" fill="#404040">
                               <set attributeName="fill" to="#808080" begin="reset.mouseover" end="reset.mouseout"/>
                       </use>
               </g>
        </defs>

<script type="text/javascript">
var viewWidth = 1366;
var viewHeight = 329;
var sectionId = 'dynsection-0';
</script>
<script xlink:href="svgpan.js"/>
<svg id="graph" class="graph">
<g id="viewport">
<title>/home/jihuan/Projects/deal.ii/program/dealii&#45;9.1.1/examples/laplace&#45;bem/tests/rkmatrix&#45;agglomeration&#45;interwoven&#45;indices/rkmatrix&#45;agglomeration&#45;interwoven&#45;indices.cc</title>
<!-- Node0 -->
<g id="node1" class="node">
<title>Node0</title>
<polygon fill="#bfbfbf" stroke="#000000" points="457.5,-246.5 457.5,-320.5 660.5,-320.5 660.5,-246.5 457.5,-246.5"/>
<text text-anchor="start" x="465.5" y="-308.5" font-family="Helvetica,sans-Serif" font-size="10.00" fill="#000000">/home/jihuan/Projects</text>
<text text-anchor="start" x="465.5" y="-297.5" font-family="Helvetica,sans-Serif" font-size="10.00" fill="#000000">/deal.ii/program/dealii</text>
<text text-anchor="start" x="465.5" y="-286.5" font-family="Helvetica,sans-Serif" font-size="10.00" fill="#000000">&#45;9.1.1/examples/laplace</text>
<text text-anchor="start" x="465.5" y="-275.5" font-family="Helvetica,sans-Serif" font-size="10.00" fill="#000000">&#45;bem/tests/rkmatrix&#45;agglomeration</text>
<text text-anchor="start" x="465.5" y="-264.5" font-family="Helvetica,sans-Serif" font-size="10.00" fill="#000000">&#45;interwoven&#45;indices/rkmatrix&#45;agglomeration</text>
<text text-anchor="middle" x="559" y="-253.5" font-family="Helvetica,sans-Serif" font-size="10.00" fill="#000000">&#45;interwoven&#45;indices.cc</text>
</g>
<!-- Node1 -->
<g id="node2" class="node">
<title>Node1</title>
<polygon fill="none" stroke="#bfbfbf" points="384.5,-129 384.5,-148 487.5,-148 487.5,-129 384.5,-129"/>
<text text-anchor="middle" x="436" y="-136" font-family="Helvetica,sans-Serif" font-size="10.00" fill="#000000">deal.II/base/types.h</text>
</g>
<!-- Node0&#45;&gt;Node1 -->
<g id="edge1" class="edge">
<title>Node0&#45;&gt;Node1</title>
<path fill="none" stroke="#191970" d="M464.3918,-246.3405C450.246,-236.6425 437.5573,-224.6685 429,-210 419.7955,-194.2222 423.4134,-173.0964 428.1952,-157.9053"/>
<polygon fill="#191970" stroke="#191970" points="431.6463,-158.6487 431.7161,-148.0541 425.0547,-156.2927 431.6463,-158.6487"/>
</g>
<!-- Node2 -->
<g id="node3" class="node">
<title>Node2</title>
<polygon fill="none" stroke="#bfbfbf" points="438,-190.5 438,-209.5 492,-209.5 492,-190.5 438,-190.5"/>
<text text-anchor="middle" x="465" y="-197.5" font-family="Helvetica,sans-Serif" font-size="10.00" fill="#000000">iostream</text>
</g>
<!-- Node0&#45;&gt;Node2 -->
<g id="edge2" class="edge">
<title>Node0&#45;&gt;Node2</title>
<path fill="none" stroke="#191970" d="M517.2228,-246.3894C505.5421,-236.0135 493.4258,-225.2506 483.8078,-216.7069"/>
<polygon fill="#191970" stroke="#191970" points="485.8732,-213.8601 476.0724,-209.8356 481.2243,-219.0935 485.8732,-213.8601"/>
</g>
<!-- Node3 -->
<g id="node4" class="node">
<title>Node3</title>
<g id="a_node4"><a xlink:href="generic__functors_8h.html" target="_top" xlink:title="This header file contains a set of self&#45;defined generic functors. ">
<polygon fill="none" stroke="#000000" points="510.5,-190.5 510.5,-209.5 607.5,-209.5 607.5,-190.5 510.5,-190.5"/>
<text text-anchor="middle" x="559" y="-197.5" font-family="Helvetica,sans-Serif" font-size="10.00" fill="#000000">generic_functors.h</text>
</a>
</g>
</g>
<!-- Node0&#45;&gt;Node3 -->
<g id="edge3" class="edge">
<title>Node0&#45;&gt;Node3</title>
<path fill="none" stroke="#191970" d="M559,-246.1461C559,-237.0558 559,-227.6845 559,-219.7816"/>
<polygon fill="#191970" stroke="#191970" points="562.5001,-219.7701 559,-209.7701 555.5001,-219.7702 562.5001,-219.7701"/>
</g>
<!-- Node6 -->
<g id="node7" class="node">
<title>Node6</title>
<g id="a_node7"><a xlink:href="lapack__full__matrix__ext_8h_source.html" target="_top" xlink:title="lapack_full_matrix\l_ext.h">
<polygon fill="none" stroke="#000000" points="658.5,-123.5 658.5,-153.5 753.5,-153.5 753.5,-123.5 658.5,-123.5"/>
<text text-anchor="start" x="666.5" y="-141.5" font-family="Helvetica,sans-Serif" font-size="10.00" fill="#000000">lapack_full_matrix</text>
<text text-anchor="middle" x="706" y="-130.5" font-family="Helvetica,sans-Serif" font-size="10.00" fill="#000000">_ext.h</text>
</a>
</g>
</g>
<!-- Node0&#45;&gt;Node6 -->
<g id="edge7" class="edge">
<title>Node0&#45;&gt;Node6</title>
<path fill="none" stroke="#191970" d="M596.8562,-246.1589C624.2176,-219.1697 660.2745,-183.6034 683.3039,-160.8873"/>
<polygon fill="#191970" stroke="#191970" points="685.9215,-163.2215 690.583,-153.7072 681.0058,-158.238 685.9215,-163.2215"/>
</g>
<!-- Node21 -->
<g id="node22" class="node">
<title>Node21</title>
<g id="a_node22"><a xlink:href="rkmatrix_8h.html" target="_top" xlink:title="Definition of rank&#45;k matrix. ">
<polygon fill="none" stroke="#000000" points="676,-190.5 676,-209.5 736,-209.5 736,-190.5 676,-190.5"/>
<text text-anchor="middle" x="706" y="-197.5" font-family="Helvetica,sans-Serif" font-size="10.00" fill="#000000">rkmatrix.h</text>
</a>
</g>
</g>
<!-- Node0&#45;&gt;Node21 -->
<g id="edge24" class="edge">
<title>Node0&#45;&gt;Node21</title>
<path fill="none" stroke="#191970" d="M624.3324,-246.3894C644.0176,-235.2077 664.494,-223.5765 680.0193,-214.7578"/>
<polygon fill="#191970" stroke="#191970" points="682.0283,-217.6419 688.9947,-209.6594 678.5709,-211.5553 682.0283,-217.6419"/>
</g>
<!-- Node3&#45;&gt;Node1 -->
<g id="edge4" class="edge">
<title>Node3&#45;&gt;Node1</title>
<path fill="none" stroke="#191970" d="M539.7813,-190.3906C519.4719,-180.2359 487.2393,-164.1196 464.0832,-152.5416"/>
<polygon fill="#191970" stroke="#191970" points="465.5933,-149.3836 455.0838,-148.0419 462.4628,-155.6446 465.5933,-149.3836"/>
</g>
<!-- Node4 -->
<g id="node5" class="node">
<title>Node4</title>
<polygon fill="none" stroke="#bfbfbf" points="478.5,-67.5 478.5,-86.5 513.5,-86.5 513.5,-67.5 478.5,-67.5"/>
<text text-anchor="middle" x="496" y="-74.5" font-family="Helvetica,sans-Serif" font-size="10.00" fill="#000000">map</text>
</g>
<!-- Node3&#45;&gt;Node4 -->
<g id="edge5" class="edge">
<title>Node3&#45;&gt;Node4</title>
<path fill="none" stroke="#191970" d="M554.0565,-190.3484C543.6137,-169.9601 519.1529,-122.2033 505.5503,-95.6459"/>
<polygon fill="#191970" stroke="#191970" points="508.5945,-93.9116 500.9205,-86.6068 502.3642,-97.1028 508.5945,-93.9116"/>
</g>
<!-- Node5 -->
<g id="node6" class="node">
<title>Node5</title>
<polygon fill="none" stroke="#bfbfbf" points="532,-67.5 532,-86.5 576,-86.5 576,-67.5 532,-67.5"/>
<text text-anchor="middle" x="554" y="-74.5" font-family="Helvetica,sans-Serif" font-size="10.00" fill="#000000">vector</text>
</g>
<!-- Node3&#45;&gt;Node5 -->
<g id="edge6" class="edge">
<title>Node3&#45;&gt;Node5</title>
<path fill="none" stroke="#191970" d="M558.6077,-190.3484C557.7898,-170.2295 555.8887,-123.4608 554.8012,-96.7098"/>
<polygon fill="#191970" stroke="#191970" points="558.2939,-96.4563 554.3905,-86.6068 551.2997,-96.7407 558.2939,-96.4563"/>
</g>
<!-- Node6&#45;&gt;Node4 -->
<g id="edge9" class="edge">
<title>Node6&#45;&gt;Node4</title>
<path fill="none" stroke="#191970" d="M658.2892,-126.1998C623.3494,-116.9372 574.6279,-103.4945 523.2659,-86.902"/>
<polygon fill="#191970" stroke="#191970" points="524.2399,-83.5383 513.6475,-83.7674 522.0709,-90.1937 524.2399,-83.5383"/>
</g>
<!-- Node6&#45;&gt;Node5 -->
<g id="edge10" class="edge">
<title>Node6&#45;&gt;Node5</title>
<path fill="none" stroke="#191970" d="M668.8166,-123.4554C643.3252,-113.1415 609.8698,-99.6052 585.6535,-89.8072"/>
<polygon fill="#191970" stroke="#191970" points="586.798,-86.4947 576.2152,-85.9884 584.1725,-92.9836 586.798,-86.4947"/>
</g>
<!-- Node7 -->
<g id="node8" class="node">
<title>Node7</title>
<polygon fill="none" stroke="#bfbfbf" points="594,-67.5 594,-86.5 634,-86.5 634,-67.5 594,-67.5"/>
<text text-anchor="middle" x="614" y="-74.5" font-family="Helvetica,sans-Serif" font-size="10.00" fill="#000000">limits</text>
</g>
<!-- Node6&#45;&gt;Node7 -->
<g id="edge8" class="edge">
<title>Node6&#45;&gt;Node7</title>
<path fill="none" stroke="#191970" d="M683.2584,-123.2977C669.2033,-113.9022 651.217,-101.8787 637.0964,-92.4395"/>
<polygon fill="#191970" stroke="#191970" points="638.7143,-89.311 628.4556,-86.6633 634.8241,-95.1305 638.7143,-89.311"/>
</g>
<!-- Node8 -->
<g id="node9" class="node">
<title>Node8</title>
<g id="a_node9"><a xlink:href="general__exceptions_8h.html" target="_top" xlink:title="Definition of self&#45;defined general exceptions. ">
<polygon fill="none" stroke="#000000" points="652.5,-67.5 652.5,-86.5 761.5,-86.5 761.5,-67.5 652.5,-67.5"/>
<text text-anchor="middle" x="707" y="-74.5" font-family="Helvetica,sans-Serif" font-size="10.00" fill="#000000">general_exceptions.h</text>
</a>
</g>
</g>
<!-- Node6&#45;&gt;Node8 -->
<g id="edge11" class="edge">
<title>Node6&#45;&gt;Node8</title>
<path fill="none" stroke="#191970" d="M706.2472,-123.2977C706.3759,-115.3834 706.5349,-105.6043 706.6736,-97.0759"/>
<polygon fill="#191970" stroke="#191970" points="710.1767,-96.9025 706.8399,-86.8469 703.1777,-96.7887 710.1767,-96.9025"/>
</g>
<!-- Node10 -->
<g id="node11" class="node">
<title>Node10</title>
<g id="a_node11"><a xlink:href="lapack__helpers_8h.html" target="_top" xlink:title="Exposes LAPACK helper functions defined in lapack_full_matrix.cc and define new ones by following the...">
<polygon fill="none" stroke="#000000" points="818,-67.5 818,-86.5 908,-86.5 908,-67.5 818,-67.5"/>
<text text-anchor="middle" x="863" y="-74.5" font-family="Helvetica,sans-Serif" font-size="10.00" fill="#000000">lapack_helpers.h</text>
</a>
</g>
</g>
<!-- Node6&#45;&gt;Node10 -->
<g id="edge13" class="edge">
<title>Node6&#45;&gt;Node10</title>
<path fill="none" stroke="#191970" d="M744.4065,-123.4554C770.3726,-113.284 804.339,-99.9787 829.263,-90.2155"/>
<polygon fill="#191970" stroke="#191970" points="830.636,-93.4366 838.6706,-86.5303 828.0829,-86.9188 830.636,-93.4366"/>
</g>
<!-- Node9 -->
<g id="node10" class="node">
<title>Node9</title>
<polygon fill="none" stroke="#bfbfbf" points="0,-6 0,-25 126,-25 126,-6 0,-6"/>
<text text-anchor="middle" x="63" y="-13" font-family="Helvetica,sans-Serif" font-size="10.00" fill="#000000">deal.II/base/exceptions.h</text>
</g>
<!-- Node8&#45;&gt;Node9 -->
<g id="edge12" class="edge">
<title>Node8&#45;&gt;Node9</title>
<path fill="none" stroke="#191970" d="M652.2282,-68.1312C649.1097,-67.7231 646.0171,-67.342 643,-67 418.0963,-41.5062 359.0852,-62.8973 135,-31 127.6065,-29.9476 119.8389,-28.5686 112.2527,-27.0668"/>
<polygon fill="#191970" stroke="#191970" points="112.9323,-23.6333 102.4311,-25.0389 111.5168,-30.4887 112.9323,-23.6333"/>
</g>
<!-- Node11 -->
<g id="node12" class="node">
<title>Node11</title>
<polygon fill="none" stroke="#bfbfbf" points="278,-6 278,-25 394,-25 394,-6 278,-6"/>
<text text-anchor="middle" x="336" y="-13" font-family="Helvetica,sans-Serif" font-size="10.00" fill="#000000">deal.II/base/numbers.h</text>
</g>
<!-- Node10&#45;&gt;Node11 -->
<g id="edge14" class="edge">
<title>Node10&#45;&gt;Node11</title>
<path fill="none" stroke="#191970" d="M817.9565,-68.9919C813.2514,-68.2672 808.5334,-67.5868 804,-67 626.5413,-44.0313 579.6977,-59.2326 403,-31 396.5783,-29.974 389.8562,-28.6828 383.2522,-27.2859"/>
<polygon fill="#191970" stroke="#191970" points="383.5516,-23.7676 373.0318,-25.0265 382.0405,-30.6026 383.5516,-23.7676"/>
</g>
<!-- Node12 -->
<g id="node13" class="node">
<title>Node12</title>
<polygon fill="none" stroke="#bfbfbf" points="412,-.5 412,-30.5 540,-30.5 540,-.5 412,-.5"/>
<text text-anchor="start" x="420" y="-18.5" font-family="Helvetica,sans-Serif" font-size="10.00" fill="#000000">deal.II/lac/blas_extension</text>
<text text-anchor="middle" x="476" y="-7.5" font-family="Helvetica,sans-Serif" font-size="10.00" fill="#000000">_templates.h</text>
</g>
<!-- Node10&#45;&gt;Node12 -->
<g id="edge15" class="edge">
<title>Node10&#45;&gt;Node12</title>
<path fill="none" stroke="#191970" d="M817.9229,-69.228C813.2243,-68.4573 808.5171,-67.7015 804,-67 694.1017,-49.9324 663.4346,-50.8305 550.1639,-31.1352"/>
<polygon fill="#191970" stroke="#191970" points="550.4998,-27.6408 540.0454,-29.3597 549.2899,-34.5354 550.4998,-27.6408"/>
</g>
<!-- Node13 -->
<g id="node14" class="node">
<title>Node13</title>
<polygon fill="none" stroke="#bfbfbf" points="558,-6 558,-25 684,-25 684,-6 558,-6"/>
<text text-anchor="middle" x="621" y="-13" font-family="Helvetica,sans-Serif" font-size="10.00" fill="#000000">deal.II/lac/block_vector.h</text>
</g>
<!-- Node10&#45;&gt;Node13 -->
<g id="edge16" class="edge">
<title>Node10&#45;&gt;Node13</title>
<path fill="none" stroke="#191970" d="M825.453,-67.4581C783.1528,-56.7082 714.3223,-39.2162 668.363,-27.5365"/>
<polygon fill="#191970" stroke="#191970" points="669.1891,-24.1352 658.6351,-25.0643 667.4649,-30.9196 669.1891,-24.1352"/>
</g>
<!-- Node14 -->
<g id="node15" class="node">
<title>Node14</title>
<polygon fill="none" stroke="#bfbfbf" points="144,-6 144,-25 260,-25 260,-6 144,-6"/>
<text text-anchor="middle" x="202" y="-13" font-family="Helvetica,sans-Serif" font-size="10.00" fill="#000000">deal.II/lac/full_matrix.h</text>
</g>
<!-- Node10&#45;&gt;Node14 -->
<g id="edge17" class="edge">
<title>Node10&#45;&gt;Node14</title>
<path fill="none" stroke="#191970" d="M817.9694,-68.8876C813.2618,-68.1833 808.5397,-67.5361 804,-67 567.3289,-39.0523 504.7359,-65.9691 269,-31 262.2554,-29.9995 255.1857,-28.674 248.2716,-27.2183"/>
<polygon fill="#191970" stroke="#191970" points="248.8288,-23.7571 238.3089,-25.0151 247.3172,-30.5919 248.8288,-23.7571"/>
</g>
<!-- Node15 -->
<g id="node16" class="node">
<title>Node15</title>
<polygon fill="none" stroke="#bfbfbf" points="1048.5,-.5 1048.5,-30.5 1139.5,-30.5 1139.5,-.5 1048.5,-.5"/>
<text text-anchor="start" x="1056.5" y="-18.5" font-family="Helvetica,sans-Serif" font-size="10.00" fill="#000000">deal.II/lac/lapack</text>
<text text-anchor="middle" x="1094" y="-7.5" font-family="Helvetica,sans-Serif" font-size="10.00" fill="#000000">_full_matrix.h</text>
</g>
<!-- Node10&#45;&gt;Node15 -->
<g id="edge18" class="edge">
<title>Node10&#45;&gt;Node15</title>
<path fill="none" stroke="#191970" d="M900.4783,-67.425C934.1267,-58.7794 985.1163,-45.5574 1038.7197,-31.0495"/>
<polygon fill="#191970" stroke="#191970" points="1039.6654,-34.4195 1048.4,-28.4231 1037.8324,-27.6637 1039.6654,-34.4195"/>
</g>
<!-- Node16 -->
<g id="node17" class="node">
<title>Node16</title>
<polygon fill="none" stroke="#bfbfbf" points="1157.5,-.5 1157.5,-30.5 1248.5,-30.5 1248.5,-.5 1157.5,-.5"/>
<text text-anchor="start" x="1165.5" y="-18.5" font-family="Helvetica,sans-Serif" font-size="10.00" fill="#000000">deal.II/lac/lapack</text>
<text text-anchor="middle" x="1203" y="-7.5" font-family="Helvetica,sans-Serif" font-size="10.00" fill="#000000">_support.h</text>
</g>
<!-- Node10&#45;&gt;Node16 -->
<g id="edge19" class="edge">
<title>Node10&#45;&gt;Node16</title>
<path fill="none" stroke="#191970" d="M908.3954,-71.4115C963.0803,-64.3013 1057.8602,-50.7741 1147.6417,-31.1635"/>
<polygon fill="#191970" stroke="#191970" points="1148.4268,-34.5745 1157.4338,-28.9956 1146.9136,-27.74 1148.4268,-34.5745"/>
</g>
<!-- Node17 -->
<g id="node18" class="node">
<title>Node17</title>
<polygon fill="none" stroke="#bfbfbf" points="1266.5,-.5 1266.5,-30.5 1357.5,-30.5 1357.5,-.5 1266.5,-.5"/>
<text text-anchor="start" x="1274.5" y="-18.5" font-family="Helvetica,sans-Serif" font-size="10.00" fill="#000000">deal.II/lac/lapack</text>
<text text-anchor="middle" x="1312" y="-7.5" font-family="Helvetica,sans-Serif" font-size="10.00" fill="#000000">_templates.h</text>
</g>
<!-- Node10&#45;&gt;Node17 -->
<g id="edge20" class="edge">
<title>Node10&#45;&gt;Node17</title>
<path fill="none" stroke="#191970" d="M908.0984,-74.1586C980.0447,-69.1012 1125.2807,-56.7471 1256.6302,-31.0891"/>
<polygon fill="#191970" stroke="#191970" points="1257.3364,-34.5173 1266.4639,-29.1377 1255.9738,-27.6511 1257.3364,-34.5173"/>
</g>
<!-- Node18 -->
<g id="node19" class="node">
<title>Node18</title>
<polygon fill="none" stroke="#bfbfbf" points="702,-.5 702,-30.5 794,-30.5 794,-.5 702,-.5"/>
<text text-anchor="start" x="710" y="-18.5" font-family="Helvetica,sans-Serif" font-size="10.00" fill="#000000">deal.II/lac/sparse</text>
<text text-anchor="middle" x="748" y="-7.5" font-family="Helvetica,sans-Serif" font-size="10.00" fill="#000000">_matrix.h</text>
</g>
<!-- Node10&#45;&gt;Node18 -->
<g id="edge21" class="edge">
<title>Node10&#45;&gt;Node18</title>
<path fill="none" stroke="#191970" d="M845.0313,-67.3906C829.0351,-58.8361 805.1277,-46.0509 785.047,-35.3121"/>
<polygon fill="#191970" stroke="#191970" points="786.601,-32.1741 776.1322,-30.5446 783.2998,-38.3469 786.601,-32.1741"/>
</g>
<!-- Node19 -->
<g id="node20" class="node">
<title>Node19</title>
<polygon fill="none" stroke="#bfbfbf" points="812.5,-6 812.5,-25 913.5,-25 913.5,-6 812.5,-6"/>
<text text-anchor="middle" x="863" y="-13" font-family="Helvetica,sans-Serif" font-size="10.00" fill="#000000">deal.II/lac/utilities.h</text>
</g>
<!-- Node10&#45;&gt;Node19 -->
<g id="edge22" class="edge">
<title>Node10&#45;&gt;Node19</title>
<path fill="none" stroke="#191970" d="M863,-67.3906C863,-58.8657 863,-46.1392 863,-35.4235"/>
<polygon fill="#191970" stroke="#191970" points="866.5001,-35.2448 863,-25.2449 859.5001,-35.2449 866.5001,-35.2448"/>
</g>
<!-- Node20 -->
<g id="node21" class="node">
<title>Node20</title>
<polygon fill="none" stroke="#bfbfbf" points="932,-6 932,-25 1030,-25 1030,-6 932,-6"/>
<text text-anchor="middle" x="981" y="-13" font-family="Helvetica,sans-Serif" font-size="10.00" fill="#000000">deal.II/lac/vector.h</text>
</g>
<!-- Node10&#45;&gt;Node20 -->
<g id="edge23" class="edge">
<title>Node10&#45;&gt;Node20</title>
<path fill="none" stroke="#191970" d="M881.4375,-67.3906C900.8347,-57.2811 931.569,-41.2628 953.7617,-29.6962"/>
<polygon fill="#191970" stroke="#191970" points="955.4418,-32.7675 962.692,-25.0419 952.2064,-26.56 955.4418,-32.7675"/>
</g>
<!-- Node21&#45;&gt;Node1 -->
<g id="edge25" class="edge">
<title>Node21&#45;&gt;Node1</title>
<path fill="none" stroke="#191970" d="M675.8135,-193.1242C630.343,-182.767 543.6784,-163.0268 487.9303,-150.3286"/>
<polygon fill="#191970" stroke="#191970" points="488.4252,-146.8517 477.8976,-148.0433 486.8705,-153.6769 488.4252,-146.8517"/>
</g>
<!-- Node21&#45;&gt;Node4 -->
<g id="edge30" class="edge">
<title>Node21&#45;&gt;Node4</title>
<path fill="none" stroke="#191970" d="M682.6313,-190.4889C662.2052,-181.8615 631.9893,-168.3319 607,-154 573.9195,-135.0275 538.0822,-109.093 516.3352,-92.6939"/>
<polygon fill="#191970" stroke="#191970" points="518.2713,-89.7692 508.1929,-86.5019 514.034,-95.3411 518.2713,-89.7692"/>
</g>
<!-- Node21&#45;&gt;Node5 -->
<g id="edge31" class="edge">
<title>Node21&#45;&gt;Node5</title>
<path fill="none" stroke="#191970" d="M694.0728,-190.3484C667.9895,-169.2415 605.6592,-118.8032 573.6725,-92.9192"/>
<polygon fill="#191970" stroke="#191970" points="575.8471,-90.1765 565.8718,-86.6068 571.4437,-95.6181 575.8471,-90.1765"/>
</g>
<!-- Node21&#45;&gt;Node6 -->
<g id="edge32" class="edge">
<title>Node21&#45;&gt;Node6</title>
<path fill="none" stroke="#191970" d="M706,-190.3906C706,-183.2234 706,-173.0862 706,-163.671"/>
<polygon fill="#191970" stroke="#191970" points="709.5001,-163.5446 706,-153.5446 702.5001,-163.5446 709.5001,-163.5446"/>
</g>
<!-- Node21&#45;&gt;Node14 -->
<g id="edge26" class="edge">
<title>Node21&#45;&gt;Node14</title>
<path fill="none" stroke="#191970" d="M724.094,-190.4907C737.2086,-182.5748 754.1357,-170.023 763,-154 781.7969,-120.0231 797.4566,-95.4218 771,-67 732.8983,-26.0681 324.2975,-39.3273 269,-31 262.337,-29.9966 255.3554,-28.6823 248.5197,-27.2429"/>
<polygon fill="#191970" stroke="#191970" points="249.1824,-23.805 238.6629,-25.0662 247.6729,-30.6403 249.1824,-23.805"/>
</g>
<!-- Node21&#45;&gt;Node15 -->
<g id="edge27" class="edge">
<title>Node21&#45;&gt;Node15</title>
<path fill="none" stroke="#191970" d="M726.6671,-190.3481C746.5135,-181.0679 777.3303,-166.6276 804,-154 893.1423,-111.7928 997.453,-61.836 1053.4791,-34.9574"/>
<polygon fill="#191970" stroke="#191970" points="1055.2039,-38.0119 1062.7055,-30.5302 1052.1756,-31.7008 1055.2039,-38.0119"/>
</g>
<!-- Node21&#45;&gt;Node16 -->
<g id="edge28" class="edge">
<title>Node21&#45;&gt;Node16</title>
<path fill="none" stroke="#191970" d="M736.0341,-190.9299C765.0956,-182.0145 810.3051,-167.7784 849,-154 960.8469,-114.1738 1090.3168,-61.9248 1157.4054,-34.3812"/>
<polygon fill="#191970" stroke="#191970" points="1158.9239,-37.5411 1166.8415,-30.501 1156.2618,-31.0671 1158.9239,-37.5411"/>
</g>
<!-- Node21&#45;&gt;Node17 -->
<g id="edge29" class="edge">
<title>Node21&#45;&gt;Node17</title>
<path fill="none" stroke="#191970" d="M736.0906,-193.9781C775.1025,-185.9502 845.1179,-170.7894 904,-154 1034.8057,-116.7026 1185.6344,-62.5135 1262.0473,-34.2462"/>
<polygon fill="#191970" stroke="#191970" points="1263.722,-37.3581 1271.8811,-30.5994 1261.288,-30.7949 1263.722,-37.3581"/>
</g>
</g>
</svg>
        <g id="navigator" transform="translate(0 0)" fill="#404254">
                <rect fill="#f2f5e9" fill-opacity="0.5" stroke="#606060" stroke-width=".5" x="0" y="0" width="60" height="60"/>
                <use id="zoomplus" xlink:href="#zoomPlus" x="17" y="9" onmousedown="handleZoom(evt,'in')"/>
                <use id="zoomminus" xlink:href="#zoomMin" x="42" y="9" onmousedown="handleZoom(evt,'out')"/>
                <use id="reset" xlink:href="#resetDef" x="30" y="36" onmousedown="handleReset()"/>
                <g id="arrowUp" xlink:href="#dirArrow" transform="translate(30 24)" onmousedown="handlePan(0,-1)">
                  <use xlink:href="#rim" fill="#404040">
                        <set attributeName="fill" to="#808080" begin="arrowUp.mouseover" end="arrowUp.mouseout"/>
                  </use>
                  <path fill="none" stroke="white" stroke-width="1.5" d="M0,-3.0v7 M-2.5,-0.5L0,-3.0L2.5,-0.5"/>
                </g>
                <g id="arrowRight" xlink:href="#dirArrow" transform="rotate(90) translate(36 -43)" onmousedown="handlePan(1,0)">
                  <use xlink:href="#rim" fill="#404040">
                        <set attributeName="fill" to="#808080" begin="arrowRight.mouseover" end="arrowRight.mouseout"/>
                  </use>
                  <path fill="none" stroke="white" stroke-width="1.5" d="M0,-3.0v7 M-2.5,-0.5L0,-3.0L2.5,-0.5"/>
                </g>
                <g id="arrowDown" xlink:href="#dirArrow" transform="rotate(180) translate(-30 -48)" onmousedown="handlePan(0,1)">
                  <use xlink:href="#rim" fill="#404040">
                        <set attributeName="fill" to="#808080" begin="arrowDown.mouseover" end="arrowDown.mouseout"/>
                  </use>
                  <path fill="none" stroke="white" stroke-width="1.5" d="M0,-3.0v7 M-2.5,-0.5L0,-3.0L2.5,-0.5"/>
                </g>
                <g id="arrowLeft" xlink:href="#dirArrow" transform="rotate(270) translate(-36 17)" onmousedown="handlePan(-1,0)">
                  <use xlink:href="#rim" fill="#404040">
                        <set attributeName="fill" to="#808080" begin="arrowLeft.mouseover" end="arrowLeft.mouseout"/>
                  </use>
                  <path fill="none" stroke="white" stroke-width="1.5" d="M0,-3.0v7 M-2.5,-0.5L0,-3.0L2.5,-0.5"/>
                </g>
        </g>
        <svg viewBox="0 0 15 15" width="100%" height="30px" preserveAspectRatio="xMaxYMin meet">
         <g id="arrow_out" transform="scale(0.3 0.3)">
          <a xlink:href="rkmatrix-agglomeration-interwoven-indices_8cc__incl_org.svg" target="_base">
           <rect id="button" ry="5" rx="5" y="6" x="6" height="38" width="38"
                fill="#f2f5e9" fill-opacity="0.5" stroke="#606060" stroke-width="1.0"/>
           <path id="arrow"
             d="M 11.500037,31.436501 C 11.940474,20.09759 22.043105,11.32322 32.158766,21.979434 L 37.068811,17.246167 C 37.068811,17.246167 37.088388,32 37.088388,32 L 22.160133,31.978069 C 22.160133,31.978069 26.997745,27.140456 26.997745,27.140456 C 18.528582,18.264221 13.291696,25.230495 11.500037,31.436501 z"
             style="fill:#404040;"/>
          </a>
         </g>
        </svg>
</svg>
