<?xml version="1.0" encoding="UTF-8" standalone="no"?>
<!DOCTYPE svg PUBLIC "-//W3C//DTD SVG 1.1//EN"
 "http://www.w3.org/Graphics/SVG/1.1/DTD/svg11.dtd">
<!-- Generated by graphviz version 2.40.1 (20161225.0304)
 -->
<!-- Title: /home/jihuan/Projects/deal.ii/program/dealii&#45;9.1.1/examples/laplace&#45;bem/tests/lapack&#45;matrix&#45;scale&#45;rows&#45;and&#45;columns/scale&#45;rows&#45;and&#45;columns.cc Pages: 1 -->
<!--zoomable 340 -->
<svg id="main" version="1.1" xmlns="http://www.w3.org/2000/svg" xmlns:xlink="http://www.w3.org/1999/xlink" xml:space="preserve" onload="init(evt)">
<style type="text/css"><![CDATA[
.edge:hover path { stroke: red; }
.edge:hover polygon { stroke: red; fill: red; }
]]></style>
<script type="text/javascript"><![CDATA[
var edges = document.getElementsByTagName('g');
if (edges && edges.length) {
  for (var i=0;i<edges.length;i++) {
    if (edges[i].id.substr(0,4)=='edge') {
      edges[i].setAttribute('class','edge');
    }
  }
}
]]></script>
        <defs>
                <circle id="rim" cx="0" cy="0" r="7"/>
                <circle id="rim2" cx="0" cy="0" r="3.5"/>
                <g id="zoomPlus">
                        <use xlink:href="#rim" fill="#404040">
                                <set attributeName="fill" to="#808080" begin="zoomplus.mouseover" end="zoomplus.mouseout"/>
                        </use>
                        <path d="M-4,0h8M0,-4v8" fill="none" stroke="white" stroke-width="1.5" pointer-events="none"/>
                </g>
                <g id="zoomMin">
                        <use xlink:href="#rim" fill="#404040">
                                <set attributeName="fill" to="#808080" begin="zoomminus.mouseover" end="zoomminus.mouseout"/>
                        </use>
                        <path d="M-4,0h8" fill="none" stroke="white" stroke-width="1.5" pointer-events="none"/>
                </g>
                <g id="dirArrow">
                        <path fill="none" stroke="white" stroke-width="1.5" d="M0,-3.0v7 M-2.5,-0.5L0,-3.0L2.5,-0.5"/>
                </g>
               <g id="resetDef">
                       <use xlink:href="#rim2" fill="#404040">
                               <set attributeName="fill" to="#808080" begin="reset.mouseover" end="reset.mouseout"/>
                       </use>
               </g>
        </defs>

<script type="text/javascript">
var viewWidth = 1859;
var viewHeight = 340;
var sectionId = 'dynsection-0';
</script>
<script xlink:href="svgpan.js"/>
<svg id="graph" class="graph">
<g id="viewport">
<title>/home/jihuan/Projects/deal.ii/program/dealii&#45;9.1.1/examples/laplace&#45;bem/tests/lapack&#45;matrix&#45;scale&#45;rows&#45;and&#45;columns/scale&#45;rows&#45;and&#45;columns.cc</title>
<!-- Node0 -->
<g id="node1" class="node">
<title>Node0</title>
<polygon fill="#bfbfbf" stroke="#000000" points="954,-257.5 954,-331.5 1106,-331.5 1106,-257.5 954,-257.5"/>
<text text-anchor="start" x="962" y="-319.5" font-family="Helvetica,sans-Serif" font-size="10.00" fill="#000000">/home/jihuan/Projects</text>
<text text-anchor="start" x="962" y="-308.5" font-family="Helvetica,sans-Serif" font-size="10.00" fill="#000000">/deal.ii/program/dealii</text>
<text text-anchor="start" x="962" y="-297.5" font-family="Helvetica,sans-Serif" font-size="10.00" fill="#000000">&#45;9.1.1/examples/laplace</text>
<text text-anchor="start" x="962" y="-286.5" font-family="Helvetica,sans-Serif" font-size="10.00" fill="#000000">&#45;bem/tests/lapack&#45;matrix</text>
<text text-anchor="start" x="962" y="-275.5" font-family="Helvetica,sans-Serif" font-size="10.00" fill="#000000">&#45;scale&#45;rows&#45;and&#45;columns/scale</text>
<text text-anchor="middle" x="1030" y="-264.5" font-family="Helvetica,sans-Serif" font-size="10.00" fill="#000000">&#45;rows&#45;and&#45;columns.cc</text>
</g>
<!-- Node1 -->
<g id="node2" class="node">
<title>Node1</title>
<polygon fill="none" stroke="#bfbfbf" points="1753,-73 1753,-92 1851,-92 1851,-73 1753,-73"/>
<text text-anchor="middle" x="1802" y="-80" font-family="Helvetica,sans-Serif" font-size="10.00" fill="#000000">deal.II/lac/vector.h</text>
</g>
<!-- Node0&#45;&gt;Node1 -->
<g id="edge1" class="edge">
<title>Node0&#45;&gt;Node1</title>
<path fill="none" stroke="#191970" d="M1106.1351,-273.5924C1265.5786,-229.8074 1630.3256,-129.6437 1757.3755,-94.7544"/>
<polygon fill="#191970" stroke="#191970" points="1758.4495,-98.0891 1767.1657,-92.0659 1756.5958,-91.339 1758.4495,-98.0891"/>
</g>
<!-- Node2 -->
<g id="node3" class="node">
<title>Node2</title>
<polygon fill="none" stroke="#bfbfbf" points="1003,-196 1003,-215 1057,-215 1057,-196 1003,-196"/>
<text text-anchor="middle" x="1030" y="-203" font-family="Helvetica,sans-Serif" font-size="10.00" fill="#000000">iostream</text>
</g>
<!-- Node0&#45;&gt;Node2 -->
<g id="edge2" class="edge">
<title>Node0&#45;&gt;Node2</title>
<path fill="none" stroke="#191970" d="M1030,-257.2717C1030,-246.2996 1030,-234.7213 1030,-225.3031"/>
<polygon fill="#191970" stroke="#191970" points="1033.5001,-225.0721 1030,-215.0721 1026.5001,-225.0721 1033.5001,-225.0721"/>
</g>
<!-- Node3 -->
<g id="node4" class="node">
<title>Node3</title>
<g id="a_node4"><a xlink:href="lapack__full__matrix__ext_8h_source.html" target="_top" xlink:title="lapack_full_matrix\l_ext.h">
<polygon fill="none" stroke="#000000" points="463.5,-190.5 463.5,-220.5 558.5,-220.5 558.5,-190.5 463.5,-190.5"/>
<text text-anchor="start" x="471.5" y="-208.5" font-family="Helvetica,sans-Serif" font-size="10.00" fill="#000000">lapack_full_matrix</text>
<text text-anchor="middle" x="511" y="-197.5" font-family="Helvetica,sans-Serif" font-size="10.00" fill="#000000">_ext.h</text>
</a>
</g>
</g>
<!-- Node0&#45;&gt;Node3 -->
<g id="edge3" class="edge">
<title>Node0&#45;&gt;Node3</title>
<path fill="none" stroke="#191970" d="M953.9771,-281.4633C849.1169,-263.4815 662.4226,-231.4665 568.4297,-215.3482"/>
<polygon fill="#191970" stroke="#191970" points="568.9805,-211.8917 558.5328,-213.6511 567.7974,-218.791 568.9805,-211.8917"/>
</g>
<!-- Node4 -->
<g id="node5" class="node">
<title>Node4</title>
<polygon fill="none" stroke="#bfbfbf" points="558,-134.5 558,-153.5 598,-153.5 598,-134.5 558,-134.5"/>
<text text-anchor="middle" x="578" y="-141.5" font-family="Helvetica,sans-Serif" font-size="10.00" fill="#000000">limits</text>
</g>
<!-- Node3&#45;&gt;Node4 -->
<g id="edge4" class="edge">
<title>Node3&#45;&gt;Node4</title>
<path fill="none" stroke="#191970" d="M527.5618,-190.2977C537.3465,-181.3163 549.7474,-169.9334 559.8043,-160.702"/>
<polygon fill="#191970" stroke="#191970" points="562.2722,-163.1876 567.2725,-153.8469 557.5387,-158.0307 562.2722,-163.1876"/>
</g>
<!-- Node5 -->
<g id="node6" class="node">
<title>Node5</title>
<polygon fill="none" stroke="#bfbfbf" points="454.5,-73 454.5,-92 489.5,-92 489.5,-73 454.5,-73"/>
<text text-anchor="middle" x="472" y="-80" font-family="Helvetica,sans-Serif" font-size="10.00" fill="#000000">map</text>
</g>
<!-- Node3&#45;&gt;Node5 -->
<g id="edge5" class="edge">
<title>Node3&#45;&gt;Node5</title>
<path fill="none" stroke="#191970" d="M506.2178,-190.4178C499.1306,-168.0657 485.8421,-126.1559 478.0752,-101.6602"/>
<polygon fill="#191970" stroke="#191970" points="481.3866,-100.5237 475.0278,-92.0493 474.714,-102.6394 481.3866,-100.5237"/>
</g>
<!-- Node6 -->
<g id="node7" class="node">
<title>Node6</title>
<polygon fill="none" stroke="#bfbfbf" points="1152.5,-134.5 1152.5,-153.5 1193.5,-153.5 1193.5,-134.5 1152.5,-134.5"/>
<text text-anchor="middle" x="1173" y="-141.5" font-family="Helvetica,sans-Serif" font-size="10.00" fill="#000000">regex</text>
</g>
<!-- Node3&#45;&gt;Node6 -->
<g id="edge6" class="edge">
<title>Node3&#45;&gt;Node6</title>
<path fill="none" stroke="#191970" d="M558.8675,-203.0927C682.859,-196.6252 1013.1894,-177.8598 1142.1666,-153.6276"/>
<polygon fill="#191970" stroke="#191970" points="1143.0619,-157.0185 1152.1941,-151.647 1141.7054,-150.1511 1143.0619,-157.0185"/>
</g>
<!-- Node7 -->
<g id="node8" class="node">
<title>Node7</title>
<polygon fill="none" stroke="#bfbfbf" points="110,-134.5 110,-153.5 162,-153.5 162,-134.5 110,-134.5"/>
<text text-anchor="middle" x="136" y="-141.5" font-family="Helvetica,sans-Serif" font-size="10.00" fill="#000000">sstream</text>
</g>
<!-- Node3&#45;&gt;Node7 -->
<g id="edge7" class="edge">
<title>Node3&#45;&gt;Node7</title>
<path fill="none" stroke="#191970" d="M463.3472,-200.2344C399.1973,-192.7166 281.4121,-177.4051 172.1497,-154.0372"/>
<polygon fill="#191970" stroke="#191970" points="172.7961,-150.5961 162.2817,-151.8993 171.3139,-157.4374 172.7961,-150.5961"/>
</g>
<!-- Node8 -->
<g id="node9" class="node">
<title>Node8</title>
<polygon fill="none" stroke="#bfbfbf" points="180.5,-134.5 180.5,-153.5 221.5,-153.5 221.5,-134.5 180.5,-134.5"/>
<text text-anchor="middle" x="201" y="-141.5" font-family="Helvetica,sans-Serif" font-size="10.00" fill="#000000">string</text>
</g>
<!-- Node3&#45;&gt;Node8 -->
<g id="edge8" class="edge">
<title>Node3&#45;&gt;Node8</title>
<path fill="none" stroke="#191970" d="M463.2876,-198.9986C409.0295,-191.1095 317.731,-176.3324 231.4711,-154.12"/>
<polygon fill="#191970" stroke="#191970" points="232.3537,-150.7332 221.7936,-151.5906 230.5835,-157.5057 232.3537,-150.7332"/>
</g>
<!-- Node9 -->
<g id="node10" class="node">
<title>Node9</title>
<polygon fill="none" stroke="#bfbfbf" points="508,-73 508,-92 552,-92 552,-73 508,-73"/>
<text text-anchor="middle" x="530" y="-80" font-family="Helvetica,sans-Serif" font-size="10.00" fill="#000000">vector</text>
</g>
<!-- Node3&#45;&gt;Node9 -->
<g id="edge9" class="edge">
<title>Node3&#45;&gt;Node9</title>
<path fill="none" stroke="#191970" d="M513.3298,-190.4178C516.7671,-168.1659 523.1984,-126.5314 526.9892,-101.9908"/>
<polygon fill="#191970" stroke="#191970" points="530.4572,-102.4664 528.5249,-92.0493 523.5392,-101.3977 530.4572,-102.4664"/>
</g>
<!-- Node10 -->
<g id="node11" class="node">
<title>Node10</title>
<g id="a_node11"><a xlink:href="general__exceptions_8h.html" target="_top" xlink:title="Definition of self&#45;defined general exceptions. ">
<polygon fill="none" stroke="#000000" points="239.5,-134.5 239.5,-153.5 348.5,-153.5 348.5,-134.5 239.5,-134.5"/>
<text text-anchor="middle" x="294" y="-141.5" font-family="Helvetica,sans-Serif" font-size="10.00" fill="#000000">general_exceptions.h</text>
</a>
</g>
</g>
<!-- Node3&#45;&gt;Node10 -->
<g id="edge10" class="edge">
<title>Node3&#45;&gt;Node10</title>
<path fill="none" stroke="#191970" d="M463.3784,-192.0036C425.8596,-181.3703 373.9811,-166.6675 337.555,-156.3439"/>
<polygon fill="#191970" stroke="#191970" points="338.291,-152.9147 327.7155,-153.5553 336.3822,-159.6495 338.291,-152.9147"/>
</g>
<!-- Node12 -->
<g id="node13" class="node">
<title>Node12</title>
<g id="a_node13"><a xlink:href="generic__functors_8h.html" target="_top" xlink:title="This header file contains a set of self&#45;defined generic functors. ">
<polygon fill="none" stroke="#000000" points="366.5,-134.5 366.5,-153.5 463.5,-153.5 463.5,-134.5 366.5,-134.5"/>
<text text-anchor="middle" x="415" y="-141.5" font-family="Helvetica,sans-Serif" font-size="10.00" fill="#000000">generic_functors.h</text>
</a>
</g>
</g>
<!-- Node3&#45;&gt;Node12 -->
<g id="edge12" class="edge">
<title>Node3&#45;&gt;Node12</title>
<path fill="none" stroke="#191970" d="M487.2697,-190.2977C472.4638,-180.8127 453.4772,-168.6495 438.6807,-159.1705"/>
<polygon fill="#191970" stroke="#191970" points="440.3925,-156.1105 430.0841,-153.6633 436.6165,-162.0047 440.3925,-156.1105"/>
</g>
<!-- Node17 -->
<g id="node18" class="node">
<title>Node17</title>
<g id="a_node18"><a xlink:href="lapack__helpers_8h.html" target="_top" xlink:title="Exposes LAPACK helper functions defined in lapack_full_matrix.cc and define new ones by following the...">
<polygon fill="none" stroke="#000000" points="1044,-134.5 1044,-153.5 1134,-153.5 1134,-134.5 1044,-134.5"/>
<text text-anchor="middle" x="1089" y="-141.5" font-family="Helvetica,sans-Serif" font-size="10.00" fill="#000000">lapack_helpers.h</text>
</a>
</g>
</g>
<!-- Node3&#45;&gt;Node17 -->
<g id="edge20" class="edge">
<title>Node3&#45;&gt;Node17</title>
<path fill="none" stroke="#191970" d="M558.7919,-200.4149C665.1479,-189.0985 920.8801,-161.8882 1033.808,-149.8725"/>
<polygon fill="#191970" stroke="#191970" points="1034.3844,-153.331 1043.9579,-148.7925 1033.6437,-146.3703 1034.3844,-153.331"/>
</g>
<!-- Node11 -->
<g id="node12" class="node">
<title>Node11</title>
<polygon fill="none" stroke="#bfbfbf" points="0,-73 0,-92 126,-92 126,-73 0,-73"/>
<text text-anchor="middle" x="63" y="-80" font-family="Helvetica,sans-Serif" font-size="10.00" fill="#000000">deal.II/base/exceptions.h</text>
</g>
<!-- Node10&#45;&gt;Node11 -->
<g id="edge11" class="edge">
<title>Node10&#45;&gt;Node11</title>
<path fill="none" stroke="#191970" d="M258.1597,-134.4581C217.9515,-123.7533 152.6309,-106.3628 108.7631,-94.6837"/>
<polygon fill="#191970" stroke="#191970" points="109.4882,-91.2549 98.9244,-92.0643 107.6873,-98.0193 109.4882,-91.2549"/>
</g>
<!-- Node12&#45;&gt;Node5 -->
<g id="edge18" class="edge">
<title>Node12&#45;&gt;Node5</title>
<path fill="none" stroke="#191970" d="M423.9063,-134.3906C432.4728,-125.1478 445.6169,-110.966 456.0003,-99.7628"/>
<polygon fill="#191970" stroke="#191970" points="458.7375,-101.9584 462.9682,-92.2449 453.6035,-97.2 458.7375,-101.9584"/>
</g>
<!-- Node12&#45;&gt;Node9 -->
<g id="edge19" class="edge">
<title>Node12&#45;&gt;Node9</title>
<path fill="none" stroke="#191970" d="M432.9688,-134.3906C451.7884,-124.3262 481.5585,-108.4057 503.1641,-96.8514"/>
<polygon fill="#191970" stroke="#191970" points="504.9898,-99.8442 512.1574,-92.0419 501.6886,-93.6714 504.9898,-99.8442"/>
</g>
<!-- Node12&#45;&gt;Node11 -->
<g id="edge13" class="edge">
<title>Node12&#45;&gt;Node11</title>
<path fill="none" stroke="#191970" d="M366.2718,-135.5623C363.1347,-135.0303 360.0234,-134.5058 357,-134 258.4143,-117.5082 233.2241,-116.5242 135,-98 128.7333,-96.8181 122.1755,-95.5085 115.6779,-94.1656"/>
<polygon fill="#191970" stroke="#191970" points="116.0735,-90.6724 105.5676,-92.0418 114.6344,-97.5229 116.0735,-90.6724"/>
</g>
<!-- Node13 -->
<g id="node14" class="node">
<title>Node13</title>
<polygon fill="none" stroke="#bfbfbf" points="294.5,-73 294.5,-92 397.5,-92 397.5,-73 294.5,-73"/>
<text text-anchor="middle" x="346" y="-80" font-family="Helvetica,sans-Serif" font-size="10.00" fill="#000000">deal.II/base/types.h</text>
</g>
<!-- Node12&#45;&gt;Node13 -->
<g id="edge14" class="edge">
<title>Node12&#45;&gt;Node13</title>
<path fill="none" stroke="#191970" d="M404.2188,-134.3906C393.6474,-124.9683 377.3175,-110.4134 364.6397,-99.1137"/>
<polygon fill="#191970" stroke="#191970" points="366.7272,-96.2858 356.9333,-92.2449 362.0696,-101.5114 366.7272,-96.2858"/>
</g>
<!-- Node14 -->
<g id="node15" class="node">
<title>Node14</title>
<polygon fill="none" stroke="#bfbfbf" points="584.5,-.5 584.5,-30.5 675.5,-30.5 675.5,-.5 584.5,-.5"/>
<text text-anchor="start" x="592.5" y="-18.5" font-family="Helvetica,sans-Serif" font-size="10.00" fill="#000000">deal.II/lac/lapack</text>
<text text-anchor="middle" x="630" y="-7.5" font-family="Helvetica,sans-Serif" font-size="10.00" fill="#000000">_support.h</text>
</g>
<!-- Node12&#45;&gt;Node14 -->
<g id="edge15" class="edge">
<title>Node12&#45;&gt;Node14</title>
<path fill="none" stroke="#191970" d="M415.9919,-134.4178C418.1949,-118.1395 424.9984,-85.0949 445,-67 464.0423,-49.7729 527.1526,-34.6309 574.402,-25.3022"/>
<polygon fill="#191970" stroke="#191970" points="575.0697,-28.738 584.2222,-23.4011 573.7393,-21.8656 575.0697,-28.738"/>
</g>
<!-- Node15 -->
<g id="node16" class="node">
<title>Node15</title>
<polygon fill="none" stroke="#bfbfbf" points="144.5,-73 144.5,-92 211.5,-92 211.5,-73 144.5,-73"/>
<text text-anchor="middle" x="178" y="-80" font-family="Helvetica,sans-Serif" font-size="10.00" fill="#000000">forward_list</text>
</g>
<!-- Node12&#45;&gt;Node15 -->
<g id="edge16" class="edge">
<title>Node12&#45;&gt;Node15</title>
<path fill="none" stroke="#191970" d="M367.2867,-134.4442C327.5412,-126.0796 269.6244,-112.9493 220,-98 217.3697,-97.2076 214.6651,-96.3386 211.9569,-95.4292"/>
<polygon fill="#191970" stroke="#191970" points="212.8546,-92.0349 202.2597,-92.0238 210.5352,-98.6395 212.8546,-92.0349"/>
</g>
<!-- Node16 -->
<g id="node17" class="node">
<title>Node16</title>
<polygon fill="none" stroke="#bfbfbf" points="229.5,-73 229.5,-92 276.5,-92 276.5,-73 229.5,-73"/>
<text text-anchor="middle" x="253" y="-80" font-family="Helvetica,sans-Serif" font-size="10.00" fill="#000000">iterator</text>
</g>
<!-- Node12&#45;&gt;Node16 -->
<g id="edge17" class="edge">
<title>Node12&#45;&gt;Node16</title>
<path fill="none" stroke="#191970" d="M384.9547,-134.4218C358.3736,-125.6996 318.69,-112.0688 285,-98 283.6471,-97.4351 282.2699,-96.8415 280.8844,-96.2296"/>
<polygon fill="#191970" stroke="#191970" points="282.339,-93.0462 271.7928,-92.0315 279.4044,-99.4014 282.339,-93.0462"/>
</g>
<!-- Node17&#45;&gt;Node1 -->
<g id="edge30" class="edge">
<title>Node17&#45;&gt;Node1</title>
<path fill="none" stroke="#191970" d="M1134.2555,-135.3277C1137.5464,-134.8335 1140.8203,-134.3831 1144,-134 1409.2286,-102.0483 1480.2887,-140.702 1744,-98 1749.5302,-97.1045 1755.295,-95.9018 1760.9521,-94.5602"/>
<polygon fill="#191970" stroke="#191970" points="1762.1086,-97.878 1770.9446,-92.0321 1760.3916,-91.0918 1762.1086,-97.878"/>
</g>
<!-- Node17&#45;&gt;Node14 -->
<g id="edge26" class="edge">
<title>Node17&#45;&gt;Node14</title>
<path fill="none" stroke="#191970" d="M1043.866,-141.1832C961.7201,-135.5519 791.2589,-121.397 737,-98 716.9856,-89.3696 716.182,-80.4105 699,-67 685.9791,-56.8372 671.3432,-45.8526 658.9126,-36.6491"/>
<polygon fill="#191970" stroke="#191970" points="660.8308,-33.7148 650.706,-30.594 656.6747,-39.3476 660.8308,-33.7148"/>
</g>
<!-- Node18 -->
<g id="node19" class="node">
<title>Node18</title>
<polygon fill="none" stroke="#bfbfbf" points="746,-73 746,-92 862,-92 862,-73 746,-73"/>
<text text-anchor="middle" x="804" y="-80" font-family="Helvetica,sans-Serif" font-size="10.00" fill="#000000">deal.II/base/numbers.h</text>
</g>
<!-- Node17&#45;&gt;Node18 -->
<g id="edge21" class="edge">
<title>Node17&#45;&gt;Node18</title>
<path fill="none" stroke="#191970" d="M1043.8533,-134.7398C999.7282,-125.6263 930.6735,-111.1971 871,-98 865.6813,-96.8237 860.1302,-95.5744 854.5986,-94.3154"/>
<polygon fill="#191970" stroke="#191970" points="855.2461,-90.8732 844.7171,-92.0526 853.6835,-97.6966 855.2461,-90.8732"/>
</g>
<!-- Node19 -->
<g id="node20" class="node">
<title>Node19</title>
<polygon fill="none" stroke="#bfbfbf" points="880,-67.5 880,-97.5 1008,-97.5 1008,-67.5 880,-67.5"/>
<text text-anchor="start" x="888" y="-85.5" font-family="Helvetica,sans-Serif" font-size="10.00" fill="#000000">deal.II/lac/blas_extension</text>
<text text-anchor="middle" x="944" y="-74.5" font-family="Helvetica,sans-Serif" font-size="10.00" fill="#000000">_templates.h</text>
</g>
<!-- Node17&#45;&gt;Node19 -->
<g id="edge22" class="edge">
<title>Node17&#45;&gt;Node19</title>
<path fill="none" stroke="#191970" d="M1066.3438,-134.3906C1045.7204,-125.6435 1014.6677,-112.4728 989.0082,-101.5897"/>
<polygon fill="#191970" stroke="#191970" points="990.0438,-98.2272 979.471,-97.5446 987.3105,-104.6715 990.0438,-98.2272"/>
</g>
<!-- Node20 -->
<g id="node21" class="node">
<title>Node20</title>
<polygon fill="none" stroke="#bfbfbf" points="1026,-73 1026,-92 1152,-92 1152,-73 1026,-73"/>
<text text-anchor="middle" x="1089" y="-80" font-family="Helvetica,sans-Serif" font-size="10.00" fill="#000000">deal.II/lac/block_vector.h</text>
</g>
<!-- Node17&#45;&gt;Node20 -->
<g id="edge23" class="edge">
<title>Node17&#45;&gt;Node20</title>
<path fill="none" stroke="#191970" d="M1089,-134.3906C1089,-125.8657 1089,-113.1392 1089,-102.4235"/>
<polygon fill="#191970" stroke="#191970" points="1092.5001,-102.2448 1089,-92.2449 1085.5001,-102.2449 1092.5001,-102.2448"/>
</g>
<!-- Node21 -->
<g id="node22" class="node">
<title>Node21</title>
<polygon fill="none" stroke="#bfbfbf" points="1170,-73 1170,-92 1286,-92 1286,-73 1170,-73"/>
<text text-anchor="middle" x="1228" y="-80" font-family="Helvetica,sans-Serif" font-size="10.00" fill="#000000">deal.II/lac/full_matrix.h</text>
</g>
<!-- Node17&#45;&gt;Node21 -->
<g id="edge24" class="edge">
<title>Node17&#45;&gt;Node21</title>
<path fill="none" stroke="#191970" d="M1110.7188,-134.3906C1133.874,-124.1457 1170.7441,-107.8326 1196.9591,-96.2339"/>
<polygon fill="#191970" stroke="#191970" points="1198.705,-99.2888 1206.4338,-92.0419 1195.8727,-92.8874 1198.705,-99.2888"/>
</g>
<!-- Node22 -->
<g id="node23" class="node">
<title>Node22</title>
<polygon fill="none" stroke="#bfbfbf" points="1304.5,-67.5 1304.5,-97.5 1395.5,-97.5 1395.5,-67.5 1304.5,-67.5"/>
<text text-anchor="start" x="1312.5" y="-85.5" font-family="Helvetica,sans-Serif" font-size="10.00" fill="#000000">deal.II/lac/lapack</text>
<text text-anchor="middle" x="1350" y="-74.5" font-family="Helvetica,sans-Serif" font-size="10.00" fill="#000000">_full_matrix.h</text>
</g>
<!-- Node17&#45;&gt;Node22 -->
<g id="edge25" class="edge">
<title>Node17&#45;&gt;Node22</title>
<path fill="none" stroke="#191970" d="M1134.1765,-134.6593C1173.901,-126.278 1233.4942,-113.2997 1294.6136,-98.0213"/>
<polygon fill="#191970" stroke="#191970" points="1295.59,-101.3848 1304.4332,-95.5498 1293.8814,-94.5965 1295.59,-101.3848"/>
</g>
<!-- Node23 -->
<g id="node24" class="node">
<title>Node23</title>
<polygon fill="none" stroke="#bfbfbf" points="1413.5,-67.5 1413.5,-97.5 1504.5,-97.5 1504.5,-67.5 1413.5,-67.5"/>
<text text-anchor="start" x="1421.5" y="-85.5" font-family="Helvetica,sans-Serif" font-size="10.00" fill="#000000">deal.II/lac/lapack</text>
<text text-anchor="middle" x="1459" y="-74.5" font-family="Helvetica,sans-Serif" font-size="10.00" fill="#000000">_templates.h</text>
</g>
<!-- Node17&#45;&gt;Node23 -->
<g id="edge27" class="edge">
<title>Node17&#45;&gt;Node23</title>
<path fill="none" stroke="#191970" d="M1134.2945,-135.6061C1137.5763,-135.0466 1140.8374,-134.5054 1144,-134 1256.4694,-116.0274 1288.6849,-121.8677 1403.5616,-98.141"/>
<polygon fill="#191970" stroke="#191970" points="1404.3802,-101.5455 1413.4496,-96.0686 1402.9443,-94.6944 1404.3802,-101.5455"/>
</g>
<!-- Node24 -->
<g id="node25" class="node">
<title>Node24</title>
<polygon fill="none" stroke="#bfbfbf" points="1523,-67.5 1523,-97.5 1615,-97.5 1615,-67.5 1523,-67.5"/>
<text text-anchor="start" x="1531" y="-85.5" font-family="Helvetica,sans-Serif" font-size="10.00" fill="#000000">deal.II/lac/sparse</text>
<text text-anchor="middle" x="1569" y="-74.5" font-family="Helvetica,sans-Serif" font-size="10.00" fill="#000000">_matrix.h</text>
</g>
<!-- Node17&#45;&gt;Node24 -->
<g id="edge28" class="edge">
<title>Node17&#45;&gt;Node24</title>
<path fill="none" stroke="#191970" d="M1134.2729,-135.4616C1137.5597,-134.9361 1140.8279,-134.4419 1144,-134 1304.4445,-111.6479 1349.8602,-127.8672 1513.0341,-97.9679"/>
<polygon fill="#191970" stroke="#191970" points="1513.7374,-101.3972 1522.9276,-96.1256 1512.4558,-94.5155 1513.7374,-101.3972"/>
</g>
<!-- Node25 -->
<g id="node26" class="node">
<title>Node25</title>
<polygon fill="none" stroke="#bfbfbf" points="1633.5,-73 1633.5,-92 1734.5,-92 1734.5,-73 1633.5,-73"/>
<text text-anchor="middle" x="1684" y="-80" font-family="Helvetica,sans-Serif" font-size="10.00" fill="#000000">deal.II/lac/utilities.h</text>
</g>
<!-- Node17&#45;&gt;Node25 -->
<g id="edge29" class="edge">
<title>Node17&#45;&gt;Node25</title>
<path fill="none" stroke="#191970" d="M1134.2622,-135.3817C1137.5516,-134.8749 1140.8232,-134.4068 1144,-134 1356.1999,-106.8279 1412.9322,-132.8926 1624,-98 1629.78,-97.0445 1635.8157,-95.7942 1641.7369,-94.4177"/>
<polygon fill="#191970" stroke="#191970" points="1642.6524,-97.797 1651.5284,-92.0119 1640.9821,-90.9991 1642.6524,-97.797"/>
</g>
<!-- Node26 -->
<g id="node27" class="node">
<title>Node26</title>
<g id="a_node27"><a xlink:href="lapack__templates__ext_8h.html" target="_top" xlink:title="Append more template based LAPACK functions to those existing in deal.ii. ">
<polygon fill="none" stroke="#000000" points="570,-73 570,-92 690,-92 690,-73 570,-73"/>
<text text-anchor="middle" x="630" y="-80" font-family="Helvetica,sans-Serif" font-size="10.00" fill="#000000">lapack_templates_ext.h</text>
</a>
</g>
</g>
<!-- Node17&#45;&gt;Node26 -->
<g id="edge31" class="edge">
<title>Node17&#45;&gt;Node26</title>
<path fill="none" stroke="#191970" d="M1043.7727,-139.8917C971.6433,-133.049 826.2252,-118.0628 704,-98 697.125,-96.8715 689.9197,-95.5446 682.8166,-94.1502"/>
<polygon fill="#191970" stroke="#191970" points="683.0283,-90.6223 672.5334,-92.074 681.6429,-97.4839 683.0283,-90.6223"/>
</g>
<!-- Node26&#45;&gt;Node14 -->
<g id="edge32" class="edge">
<title>Node26&#45;&gt;Node14</title>
<path fill="none" stroke="#191970" d="M630,-72.9005C630,-64.5099 630,-51.9451 630,-40.7085"/>
<polygon fill="#191970" stroke="#191970" points="633.5001,-40.5217 630,-30.5218 626.5001,-40.5218 633.5001,-40.5217"/>
</g>
</g>
</svg>
        <g id="navigator" transform="translate(0 0)" fill="#404254">
                <rect fill="#f2f5e9" fill-opacity="0.5" stroke="#606060" stroke-width=".5" x="0" y="0" width="60" height="60"/>
                <use id="zoomplus" xlink:href="#zoomPlus" x="17" y="9" onmousedown="handleZoom(evt,'in')"/>
                <use id="zoomminus" xlink:href="#zoomMin" x="42" y="9" onmousedown="handleZoom(evt,'out')"/>
                <use id="reset" xlink:href="#resetDef" x="30" y="36" onmousedown="handleReset()"/>
                <g id="arrowUp" xlink:href="#dirArrow" transform="translate(30 24)" onmousedown="handlePan(0,-1)">
                  <use xlink:href="#rim" fill="#404040">
                        <set attributeName="fill" to="#808080" begin="arrowUp.mouseover" end="arrowUp.mouseout"/>
                  </use>
                  <path fill="none" stroke="white" stroke-width="1.5" d="M0,-3.0v7 M-2.5,-0.5L0,-3.0L2.5,-0.5"/>
                </g>
                <g id="arrowRight" xlink:href="#dirArrow" transform="rotate(90) translate(36 -43)" onmousedown="handlePan(1,0)">
                  <use xlink:href="#rim" fill="#404040">
                        <set attributeName="fill" to="#808080" begin="arrowRight.mouseover" end="arrowRight.mouseout"/>
                  </use>
                  <path fill="none" stroke="white" stroke-width="1.5" d="M0,-3.0v7 M-2.5,-0.5L0,-3.0L2.5,-0.5"/>
                </g>
                <g id="arrowDown" xlink:href="#dirArrow" transform="rotate(180) translate(-30 -48)" onmousedown="handlePan(0,1)">
                  <use xlink:href="#rim" fill="#404040">
                        <set attributeName="fill" to="#808080" begin="arrowDown.mouseover" end="arrowDown.mouseout"/>
                  </use>
                  <path fill="none" stroke="white" stroke-width="1.5" d="M0,-3.0v7 M-2.5,-0.5L0,-3.0L2.5,-0.5"/>
                </g>
                <g id="arrowLeft" xlink:href="#dirArrow" transform="rotate(270) translate(-36 17)" onmousedown="handlePan(-1,0)">
                  <use xlink:href="#rim" fill="#404040">
                        <set attributeName="fill" to="#808080" begin="arrowLeft.mouseover" end="arrowLeft.mouseout"/>
                  </use>
                  <path fill="none" stroke="white" stroke-width="1.5" d="M0,-3.0v7 M-2.5,-0.5L0,-3.0L2.5,-0.5"/>
                </g>
        </g>
        <svg viewBox="0 0 15 15" width="100%" height="30px" preserveAspectRatio="xMaxYMin meet">
         <g id="arrow_out" transform="scale(0.3 0.3)">
          <a xlink:href="scale-rows-and-columns_8cc__incl_org.svg" target="_base">
           <rect id="button" ry="5" rx="5" y="6" x="6" height="38" width="38"
                fill="#f2f5e9" fill-opacity="0.5" stroke="#606060" stroke-width="1.0"/>
           <path id="arrow"
             d="M 11.500037,31.436501 C 11.940474,20.09759 22.043105,11.32322 32.158766,21.979434 L 37.068811,17.246167 C 37.068811,17.246167 37.088388,32 37.088388,32 L 22.160133,31.978069 C 22.160133,31.978069 26.997745,27.140456 26.997745,27.140456 C 18.528582,18.264221 13.291696,25.230495 11.500037,31.436501 z"
             style="fill:#404040;"/>
          </a>
         </g>
        </svg>
</svg>
