<?xml version="1.0" encoding="UTF-8" standalone="no"?>
<!DOCTYPE svg PUBLIC "-//W3C//DTD SVG 1.1//EN"
 "http://www.w3.org/Graphics/SVG/1.1/DTD/svg11.dtd">
<!-- Generated by graphviz version 2.40.1 (20161225.0304)
 -->
<!-- Title: /home/jihuan/Projects/deal.ii/program/dealii&#45;9.1.1/examples/laplace&#45;bem/tests/lapack&#45;matrix&#45;scale&#45;rows&#45;and&#45;columns/scale&#45;rows&#45;and&#45;columns.cc Pages: 1 -->
<!--zoomable 340 -->
<svg id="main" version="1.1" xmlns="http://www.w3.org/2000/svg" xmlns:xlink="http://www.w3.org/1999/xlink" xml:space="preserve" onload="init(evt)">
<style type="text/css"><![CDATA[
.edge:hover path { stroke: red; }
.edge:hover polygon { stroke: red; fill: red; }
]]></style>
<script type="text/javascript"><![CDATA[
var edges = document.getElementsByTagName('g');
if (edges && edges.length) {
  for (var i=0;i<edges.length;i++) {
    if (edges[i].id.substr(0,4)=='edge') {
      edges[i].setAttribute('class','edge');
    }
  }
}
]]></script>
        <defs>
                <circle id="rim" cx="0" cy="0" r="7"/>
                <circle id="rim2" cx="0" cy="0" r="3.5"/>
                <g id="zoomPlus">
                        <use xlink:href="#rim" fill="#404040">
                                <set attributeName="fill" to="#808080" begin="zoomplus.mouseover" end="zoomplus.mouseout"/>
                        </use>
                        <path d="M-4,0h8M0,-4v8" fill="none" stroke="white" stroke-width="1.5" pointer-events="none"/>
                </g>
                <g id="zoomMin">
                        <use xlink:href="#rim" fill="#404040">
                                <set attributeName="fill" to="#808080" begin="zoomminus.mouseover" end="zoomminus.mouseout"/>
                        </use>
                        <path d="M-4,0h8" fill="none" stroke="white" stroke-width="1.5" pointer-events="none"/>
                </g>
                <g id="dirArrow">
                        <path fill="none" stroke="white" stroke-width="1.5" d="M0,-3.0v7 M-2.5,-0.5L0,-3.0L2.5,-0.5"/>
                </g>
               <g id="resetDef">
                       <use xlink:href="#rim2" fill="#404040">
                               <set attributeName="fill" to="#808080" begin="reset.mouseover" end="reset.mouseout"/>
                       </use>
               </g>
        </defs>

<script type="text/javascript">
var viewWidth = 1861;
var viewHeight = 340;
var sectionId = 'dynsection-0';
</script>
<script xlink:href="svgpan.js"/>
<svg id="graph" class="graph">
<g id="viewport">
<title>/home/jihuan/Projects/deal.ii/program/dealii&#45;9.1.1/examples/laplace&#45;bem/tests/lapack&#45;matrix&#45;scale&#45;rows&#45;and&#45;columns/scale&#45;rows&#45;and&#45;columns.cc</title>
<!-- Node0 -->
<g id="node1" class="node">
<title>Node0</title>
<polygon fill="#bfbfbf" stroke="#000000" points="1494,-257.5 1494,-331.5 1646,-331.5 1646,-257.5 1494,-257.5"/>
<text text-anchor="start" x="1502" y="-319.5" font-family="Helvetica,sans-Serif" font-size="10.00" fill="#000000">/home/jihuan/Projects</text>
<text text-anchor="start" x="1502" y="-308.5" font-family="Helvetica,sans-Serif" font-size="10.00" fill="#000000">/deal.ii/program/dealii</text>
<text text-anchor="start" x="1502" y="-297.5" font-family="Helvetica,sans-Serif" font-size="10.00" fill="#000000">&#45;9.1.1/examples/laplace</text>
<text text-anchor="start" x="1502" y="-286.5" font-family="Helvetica,sans-Serif" font-size="10.00" fill="#000000">&#45;bem/tests/lapack&#45;matrix</text>
<text text-anchor="start" x="1502" y="-275.5" font-family="Helvetica,sans-Serif" font-size="10.00" fill="#000000">&#45;scale&#45;rows&#45;and&#45;columns/scale</text>
<text text-anchor="middle" x="1570" y="-264.5" font-family="Helvetica,sans-Serif" font-size="10.00" fill="#000000">&#45;rows&#45;and&#45;columns.cc</text>
</g>
<!-- Node1 -->
<g id="node2" class="node">
<title>Node1</title>
<polygon fill="none" stroke="#bfbfbf" points="1755,-73 1755,-92 1853,-92 1853,-73 1755,-73"/>
<text text-anchor="middle" x="1804" y="-80" font-family="Helvetica,sans-Serif" font-size="10.00" fill="#000000">deal.II/lac/vector.h</text>
</g>
<!-- Node0&#45;&gt;Node1 -->
<g id="edge1" class="edge">
<title>Node0&#45;&gt;Node1</title>
<path fill="none" stroke="#191970" d="M1568.8245,-257.4116C1569.9421,-235.8255 1574.617,-209.1774 1589,-190 1612.1007,-159.199 1713.5938,-116.9522 1768.4736,-95.7601"/>
<polygon fill="#191970" stroke="#191970" points="1770.0616,-98.9 1778.149,-92.0557 1767.5586,-92.3627 1770.0616,-98.9"/>
</g>
<!-- Node2 -->
<g id="node3" class="node">
<title>Node2</title>
<polygon fill="none" stroke="#bfbfbf" points="1598,-196 1598,-215 1652,-215 1652,-196 1598,-196"/>
<text text-anchor="middle" x="1625" y="-203" font-family="Helvetica,sans-Serif" font-size="10.00" fill="#000000">iostream</text>
</g>
<!-- Node0&#45;&gt;Node2 -->
<g id="edge2" class="edge">
<title>Node0&#45;&gt;Node2</title>
<path fill="none" stroke="#191970" d="M1593.0063,-257.2717C1600.1593,-245.6967 1607.7293,-233.4472 1613.7091,-223.7707"/>
<polygon fill="#191970" stroke="#191970" points="1616.805,-225.4188 1619.0847,-215.0721 1610.8503,-221.7389 1616.805,-225.4188"/>
</g>
<!-- Node3 -->
<g id="node4" class="node">
<title>Node3</title>
<g id="a_node4"><a xlink:href="lapack__full__matrix__ext_8h_source.html" target="_top" xlink:title="lapack_full_matrix\l_ext.h">
<polygon fill="none" stroke="#000000" points="249.5,-190.5 249.5,-220.5 344.5,-220.5 344.5,-190.5 249.5,-190.5"/>
<text text-anchor="start" x="257.5" y="-208.5" font-family="Helvetica,sans-Serif" font-size="10.00" fill="#000000">lapack_full_matrix</text>
<text text-anchor="middle" x="297" y="-197.5" font-family="Helvetica,sans-Serif" font-size="10.00" fill="#000000">_ext.h</text>
</a>
</g>
</g>
<!-- Node0&#45;&gt;Node3 -->
<g id="edge3" class="edge">
<title>Node0&#45;&gt;Node3</title>
<path fill="none" stroke="#191970" d="M1493.7083,-289.1662C1260.5532,-272.8655 560.7861,-223.9422 354.7054,-209.5344"/>
<polygon fill="#191970" stroke="#191970" points="354.9148,-206.0406 344.695,-208.8345 354.4266,-213.0235 354.9148,-206.0406"/>
</g>
<!-- Node4 -->
<g id="node5" class="node">
<title>Node4</title>
<polygon fill="none" stroke="#bfbfbf" points="0,-134.5 0,-153.5 40,-153.5 40,-134.5 0,-134.5"/>
<text text-anchor="middle" x="20" y="-141.5" font-family="Helvetica,sans-Serif" font-size="10.00" fill="#000000">limits</text>
</g>
<!-- Node3&#45;&gt;Node4 -->
<g id="edge4" class="edge">
<title>Node3&#45;&gt;Node4</title>
<path fill="none" stroke="#191970" d="M249.4915,-197.4922C201.4134,-188.9757 124.8334,-174.2821 50.2147,-154.08"/>
<polygon fill="#191970" stroke="#191970" points="50.7484,-150.5971 40.1787,-151.3256 48.8958,-157.3475 50.7484,-150.5971"/>
</g>
<!-- Node5 -->
<g id="node6" class="node">
<title>Node5</title>
<polygon fill="none" stroke="#bfbfbf" points="153.5,-73 153.5,-92 188.5,-92 188.5,-73 153.5,-73"/>
<text text-anchor="middle" x="171" y="-80" font-family="Helvetica,sans-Serif" font-size="10.00" fill="#000000">map</text>
</g>
<!-- Node3&#45;&gt;Node5 -->
<g id="edge5" class="edge">
<title>Node3&#45;&gt;Node5</title>
<path fill="none" stroke="#191970" d="M286.1451,-190.4245C274.9368,-175.3476 256.5199,-151.8905 238,-134 224.2373,-120.705 207.1066,-107.5889 193.6124,-97.9206"/>
<polygon fill="#191970" stroke="#191970" points="195.5335,-94.9928 185.3418,-92.0978 191.5037,-100.7165 195.5335,-94.9928"/>
</g>
<!-- Node6 -->
<g id="node7" class="node">
<title>Node6</title>
<polygon fill="none" stroke="#bfbfbf" points="58.5,-134.5 58.5,-153.5 99.5,-153.5 99.5,-134.5 58.5,-134.5"/>
<text text-anchor="middle" x="79" y="-141.5" font-family="Helvetica,sans-Serif" font-size="10.00" fill="#000000">regex</text>
</g>
<!-- Node3&#45;&gt;Node6 -->
<g id="edge6" class="edge">
<title>Node3&#45;&gt;Node6</title>
<path fill="none" stroke="#191970" d="M249.2766,-193.1938C213.3124,-183.7461 162.5867,-170.0531 109.2437,-153.9583"/>
<polygon fill="#191970" stroke="#191970" points="110.1952,-150.5895 99.6097,-151.0336 108.1618,-157.2876 110.1952,-150.5895"/>
</g>
<!-- Node7 -->
<g id="node8" class="node">
<title>Node7</title>
<polygon fill="none" stroke="#bfbfbf" points="118,-134.5 118,-153.5 170,-153.5 170,-134.5 118,-134.5"/>
<text text-anchor="middle" x="144" y="-141.5" font-family="Helvetica,sans-Serif" font-size="10.00" fill="#000000">sstream</text>
</g>
<!-- Node3&#45;&gt;Node7 -->
<g id="edge7" class="edge">
<title>Node3&#45;&gt;Node7</title>
<path fill="none" stroke="#191970" d="M259.572,-190.4554C234.3794,-180.329 201.4593,-167.0964 177.2004,-157.3453"/>
<polygon fill="#191970" stroke="#191970" points="178.2934,-154.0125 167.7096,-153.5303 175.6827,-160.5074 178.2934,-154.0125"/>
</g>
<!-- Node8 -->
<g id="node9" class="node">
<title>Node8</title>
<polygon fill="none" stroke="#bfbfbf" points="188.5,-134.5 188.5,-153.5 229.5,-153.5 229.5,-134.5 188.5,-134.5"/>
<text text-anchor="middle" x="209" y="-141.5" font-family="Helvetica,sans-Serif" font-size="10.00" fill="#000000">string</text>
</g>
<!-- Node3&#45;&gt;Node8 -->
<g id="edge8" class="edge">
<title>Node3&#45;&gt;Node8</title>
<path fill="none" stroke="#191970" d="M275.2472,-190.2977C261.8032,-180.9022 244.5989,-168.8787 231.0922,-159.4395"/>
<polygon fill="#191970" stroke="#191970" points="233.0288,-156.5228 222.8271,-153.6633 229.0189,-162.2605 233.0288,-156.5228"/>
</g>
<!-- Node9 -->
<g id="node10" class="node">
<title>Node9</title>
<polygon fill="none" stroke="#bfbfbf" points="366,-73 366,-92 410,-92 410,-73 366,-73"/>
<text text-anchor="middle" x="388" y="-80" font-family="Helvetica,sans-Serif" font-size="10.00" fill="#000000">vector</text>
</g>
<!-- Node3&#45;&gt;Node9 -->
<g id="edge9" class="edge">
<title>Node3&#45;&gt;Node9</title>
<path fill="none" stroke="#191970" d="M344.6504,-191.4393C362.7634,-183.5152 381.5387,-171.5707 392,-154 401.3147,-138.355 398.6628,-117.2101 394.6875,-101.9783"/>
<polygon fill="#191970" stroke="#191970" points="397.9462,-100.6614 391.7111,-92.0955 391.2436,-102.68 397.9462,-100.6614"/>
</g>
<!-- Node10 -->
<g id="node11" class="node">
<title>Node10</title>
<g id="a_node11"><a xlink:href="general__exceptions_8h.html" target="_top" xlink:title="Definition of self&#45;defined general exceptions. ">
<polygon fill="none" stroke="#000000" points="440.5,-134.5 440.5,-153.5 549.5,-153.5 549.5,-134.5 440.5,-134.5"/>
<text text-anchor="middle" x="495" y="-141.5" font-family="Helvetica,sans-Serif" font-size="10.00" fill="#000000">general_exceptions.h</text>
</a>
</g>
</g>
<!-- Node3&#45;&gt;Node10 -->
<g id="edge10" class="edge">
<title>Node3&#45;&gt;Node10</title>
<path fill="none" stroke="#191970" d="M344.6779,-190.691C378.2357,-180.2677 422.6679,-166.4668 454.5079,-156.5771"/>
<polygon fill="#191970" stroke="#191970" points="455.8616,-159.8216 464.3733,-153.5128 453.7852,-153.1367 455.8616,-159.8216"/>
</g>
<!-- Node12 -->
<g id="node13" class="node">
<title>Node12</title>
<g id="a_node13"><a xlink:href="generic__functors_8h.html" target="_top" xlink:title="This header file contains a set of self&#45;defined generic functors. ">
<polygon fill="none" stroke="#000000" points="286.5,-134.5 286.5,-153.5 383.5,-153.5 383.5,-134.5 286.5,-134.5"/>
<text text-anchor="middle" x="335" y="-141.5" font-family="Helvetica,sans-Serif" font-size="10.00" fill="#000000">generic_functors.h</text>
</a>
</g>
</g>
<!-- Node3&#45;&gt;Node12 -->
<g id="edge12" class="edge">
<title>Node3&#45;&gt;Node12</title>
<path fill="none" stroke="#191970" d="M306.3933,-190.2977C311.6131,-181.8498 318.1457,-171.2773 323.65,-162.369"/>
<polygon fill="#191970" stroke="#191970" points="326.6368,-164.1938 328.9157,-153.8469 320.6818,-160.5143 326.6368,-164.1938"/>
</g>
<!-- Node15 -->
<g id="node16" class="node">
<title>Node15</title>
<g id="a_node16"><a xlink:href="lapack__helpers_8h.html" target="_top" xlink:title="Exposes LAPACK helper functions defined in lapack_full_matrix.cc and define new ones by following the...">
<polygon fill="none" stroke="#000000" points="1173,-134.5 1173,-153.5 1263,-153.5 1263,-134.5 1173,-134.5"/>
<text text-anchor="middle" x="1218" y="-141.5" font-family="Helvetica,sans-Serif" font-size="10.00" fill="#000000">lapack_helpers.h</text>
</a>
</g>
</g>
<!-- Node3&#45;&gt;Node15 -->
<g id="edge18" class="edge">
<title>Node3&#45;&gt;Node15</title>
<path fill="none" stroke="#191970" d="M344.5776,-202.323C500.6217,-191.9031 996.3844,-158.7984 1162.8701,-147.6813"/>
<polygon fill="#191970" stroke="#191970" points="1163.1436,-151.1709 1172.8882,-147.0124 1162.6772,-144.1865 1163.1436,-151.1709"/>
</g>
<!-- Node11 -->
<g id="node12" class="node">
<title>Node11</title>
<polygon fill="none" stroke="#bfbfbf" points="428,-73 428,-92 554,-92 554,-73 428,-73"/>
<text text-anchor="middle" x="491" y="-80" font-family="Helvetica,sans-Serif" font-size="10.00" fill="#000000">deal.II/base/exceptions.h</text>
</g>
<!-- Node10&#45;&gt;Node11 -->
<g id="edge11" class="edge">
<title>Node10&#45;&gt;Node11</title>
<path fill="none" stroke="#191970" d="M494.375,-134.3906C493.8205,-125.8657 492.9928,-113.1392 492.2958,-102.4235"/>
<polygon fill="#191970" stroke="#191970" points="495.7756,-101.9966 491.6338,-92.2449 488.7903,-102.451 495.7756,-101.9966"/>
</g>
<!-- Node12&#45;&gt;Node5 -->
<g id="edge16" class="edge">
<title>Node12&#45;&gt;Node5</title>
<path fill="none" stroke="#191970" d="M299.6057,-134.4942C271.2421,-126.3366 230.7494,-113.4647 197,-98 196.3013,-97.6798 195.5976,-97.3457 194.8917,-97.0001"/>
<polygon fill="#191970" stroke="#191970" points="196.2842,-93.7738 185.825,-92.0835 192.9472,-99.9273 196.2842,-93.7738"/>
</g>
<!-- Node12&#45;&gt;Node9 -->
<g id="edge17" class="edge">
<title>Node12&#45;&gt;Node9</title>
<path fill="none" stroke="#191970" d="M343.2813,-134.3906C351.1693,-125.2376 363.2314,-111.2409 372.8412,-100.09"/>
<polygon fill="#191970" stroke="#191970" points="375.7251,-102.1049 379.602,-92.2449 370.4225,-97.5352 375.7251,-102.1049"/>
</g>
<!-- Node12&#45;&gt;Node11 -->
<g id="edge13" class="edge">
<title>Node12&#45;&gt;Node11</title>
<path fill="none" stroke="#191970" d="M359.375,-134.3906C385.7056,-124.0103 427.838,-107.4004 457.3229,-95.7766"/>
<polygon fill="#191970" stroke="#191970" points="458.7767,-98.9657 466.7962,-92.0419 456.2093,-92.4534 458.7767,-98.9657"/>
</g>
<!-- Node13 -->
<g id="node14" class="node">
<title>Node13</title>
<polygon fill="none" stroke="#bfbfbf" points="206.5,-73 206.5,-92 309.5,-92 309.5,-73 206.5,-73"/>
<text text-anchor="middle" x="258" y="-80" font-family="Helvetica,sans-Serif" font-size="10.00" fill="#000000">deal.II/base/types.h</text>
</g>
<!-- Node12&#45;&gt;Node13 -->
<g id="edge14" class="edge">
<title>Node12&#45;&gt;Node13</title>
<path fill="none" stroke="#191970" d="M322.9688,-134.3906C310.9893,-124.8227 292.3834,-109.9621 278.1475,-98.5919"/>
<polygon fill="#191970" stroke="#191970" points="279.9447,-95.5479 269.9468,-92.0419 275.5761,-101.0175 279.9447,-95.5479"/>
</g>
<!-- Node14 -->
<g id="node15" class="node">
<title>Node14</title>
<polygon fill="none" stroke="#bfbfbf" points="586.5,-.5 586.5,-30.5 677.5,-30.5 677.5,-.5 586.5,-.5"/>
<text text-anchor="start" x="594.5" y="-18.5" font-family="Helvetica,sans-Serif" font-size="10.00" fill="#000000">deal.II/lac/lapack</text>
<text text-anchor="middle" x="632" y="-7.5" font-family="Helvetica,sans-Serif" font-size="10.00" fill="#000000">_support.h</text>
</g>
<!-- Node12&#45;&gt;Node14 -->
<g id="edge15" class="edge">
<title>Node12&#45;&gt;Node14</title>
<path fill="none" stroke="#191970" d="M334.7421,-134.3133C334.8701,-117.8773 337.6773,-84.6013 357,-67 388.4017,-38.3957 505.2548,-24.8381 576.142,-19.1188"/>
<polygon fill="#191970" stroke="#191970" points="576.5538,-22.5974 586.2516,-18.331 576.0099,-15.6185 576.5538,-22.5974"/>
</g>
<!-- Node15&#45;&gt;Node1 -->
<g id="edge28" class="edge">
<title>Node15&#45;&gt;Node1</title>
<path fill="none" stroke="#191970" d="M1263.1958,-142.7133C1354.8811,-139.5218 1569.0563,-129.1064 1746,-98 1751.3893,-97.0526 1757.0075,-95.8418 1762.534,-94.5157"/>
<polygon fill="#191970" stroke="#191970" points="1763.4806,-97.8865 1772.3134,-92.0358 1761.7599,-91.1012 1763.4806,-97.8865"/>
</g>
<!-- Node15&#45;&gt;Node14 -->
<g id="edge24" class="edge">
<title>Node15&#45;&gt;Node14</title>
<path fill="none" stroke="#191970" d="M1226.7348,-134.4838C1240.2588,-118.5977 1262.9304,-86.5 1245,-67 1207.711,-26.4469 832.3035,-17.8091 688.05,-15.9839"/>
<polygon fill="#191970" stroke="#191970" points="687.7047,-12.4796 677.6634,-15.8593 687.6206,-19.4791 687.7047,-12.4796"/>
</g>
<!-- Node16 -->
<g id="node17" class="node">
<title>Node16</title>
<polygon fill="none" stroke="#bfbfbf" points="830,-73 830,-92 946,-92 946,-73 830,-73"/>
<text text-anchor="middle" x="888" y="-80" font-family="Helvetica,sans-Serif" font-size="10.00" fill="#000000">deal.II/base/numbers.h</text>
</g>
<!-- Node15&#45;&gt;Node16 -->
<g id="edge19" class="edge">
<title>Node15&#45;&gt;Node16</title>
<path fill="none" stroke="#191970" d="M1172.7184,-136.8456C1120.2003,-128.3708 1031.0896,-113.4438 955,-98 949.3033,-96.8437 943.35,-95.5666 937.4438,-94.2565"/>
<polygon fill="#191970" stroke="#191970" points="938.1273,-90.8228 927.6022,-92.0359 936.5866,-97.6512 938.1273,-90.8228"/>
</g>
<!-- Node17 -->
<g id="node18" class="node">
<title>Node17</title>
<polygon fill="none" stroke="#bfbfbf" points="964,-67.5 964,-97.5 1092,-97.5 1092,-67.5 964,-67.5"/>
<text text-anchor="start" x="972" y="-85.5" font-family="Helvetica,sans-Serif" font-size="10.00" fill="#000000">deal.II/lac/blas_extension</text>
<text text-anchor="middle" x="1028" y="-74.5" font-family="Helvetica,sans-Serif" font-size="10.00" fill="#000000">_templates.h</text>
</g>
<!-- Node15&#45;&gt;Node17 -->
<g id="edge20" class="edge">
<title>Node15&#45;&gt;Node17</title>
<path fill="none" stroke="#191970" d="M1188.3125,-134.3906C1160.5745,-125.4123 1118.4385,-111.7735 1084.3253,-100.7316"/>
<polygon fill="#191970" stroke="#191970" points="1085.0711,-97.2943 1074.4792,-97.5446 1082.9154,-103.9541 1085.0711,-97.2943"/>
</g>
<!-- Node18 -->
<g id="node19" class="node">
<title>Node18</title>
<polygon fill="none" stroke="#bfbfbf" points="1110,-73 1110,-92 1236,-92 1236,-73 1110,-73"/>
<text text-anchor="middle" x="1173" y="-80" font-family="Helvetica,sans-Serif" font-size="10.00" fill="#000000">deal.II/lac/block_vector.h</text>
</g>
<!-- Node15&#45;&gt;Node18 -->
<g id="edge21" class="edge">
<title>Node15&#45;&gt;Node18</title>
<path fill="none" stroke="#191970" d="M1210.9688,-134.3906C1204.337,-125.3273 1194.2304,-111.5149 1186.1113,-100.4188"/>
<polygon fill="#191970" stroke="#191970" points="1188.8601,-98.2484 1180.1304,-92.2449 1183.2109,-102.382 1188.8601,-98.2484"/>
</g>
<!-- Node19 -->
<g id="node20" class="node">
<title>Node19</title>
<polygon fill="none" stroke="#bfbfbf" points="1292,-73 1292,-92 1408,-92 1408,-73 1292,-73"/>
<text text-anchor="middle" x="1350" y="-80" font-family="Helvetica,sans-Serif" font-size="10.00" fill="#000000">deal.II/lac/full_matrix.h</text>
</g>
<!-- Node15&#45;&gt;Node19 -->
<g id="edge22" class="edge">
<title>Node15&#45;&gt;Node19</title>
<path fill="none" stroke="#191970" d="M1238.625,-134.3906C1260.5173,-124.1908 1295.3193,-107.9763 1320.1927,-96.3875"/>
<polygon fill="#191970" stroke="#191970" points="1321.9335,-99.4377 1329.5198,-92.0419 1318.9772,-93.0926 1321.9335,-99.4377"/>
</g>
<!-- Node20 -->
<g id="node21" class="node">
<title>Node20</title>
<polygon fill="none" stroke="#bfbfbf" points="1426.5,-67.5 1426.5,-97.5 1517.5,-97.5 1517.5,-67.5 1426.5,-67.5"/>
<text text-anchor="start" x="1434.5" y="-85.5" font-family="Helvetica,sans-Serif" font-size="10.00" fill="#000000">deal.II/lac/lapack</text>
<text text-anchor="middle" x="1472" y="-74.5" font-family="Helvetica,sans-Serif" font-size="10.00" fill="#000000">_full_matrix.h</text>
</g>
<!-- Node15&#45;&gt;Node20 -->
<g id="edge23" class="edge">
<title>Node15&#45;&gt;Node20</title>
<path fill="none" stroke="#191970" d="M1262.0146,-134.4559C1300.3041,-126.0118 1357.5035,-113.0595 1416.5508,-98.0491"/>
<polygon fill="#191970" stroke="#191970" points="1417.6055,-101.392 1426.4265,-95.5234 1415.8711,-94.6103 1417.6055,-101.392"/>
</g>
<!-- Node21 -->
<g id="node22" class="node">
<title>Node21</title>
<polygon fill="none" stroke="#bfbfbf" points="1535.5,-67.5 1535.5,-97.5 1626.5,-97.5 1626.5,-67.5 1535.5,-67.5"/>
<text text-anchor="start" x="1543.5" y="-85.5" font-family="Helvetica,sans-Serif" font-size="10.00" fill="#000000">deal.II/lac/lapack</text>
<text text-anchor="middle" x="1581" y="-74.5" font-family="Helvetica,sans-Serif" font-size="10.00" fill="#000000">_templates.h</text>
</g>
<!-- Node15&#45;&gt;Node21 -->
<g id="edge25" class="edge">
<title>Node15&#45;&gt;Node21</title>
<path fill="none" stroke="#191970" d="M1263.1111,-139.1725C1321.6422,-132.4937 1427.0394,-119.056 1525.6188,-98.1473"/>
<polygon fill="#191970" stroke="#191970" points="1526.4022,-101.559 1535.4422,-96.0337 1524.9296,-94.7156 1526.4022,-101.559"/>
</g>
<!-- Node22 -->
<g id="node23" class="node">
<title>Node22</title>
<polygon fill="none" stroke="#bfbfbf" points="1645,-67.5 1645,-97.5 1737,-97.5 1737,-67.5 1645,-67.5"/>
<text text-anchor="start" x="1653" y="-85.5" font-family="Helvetica,sans-Serif" font-size="10.00" fill="#000000">deal.II/lac/sparse</text>
<text text-anchor="middle" x="1691" y="-74.5" font-family="Helvetica,sans-Serif" font-size="10.00" fill="#000000">_matrix.h</text>
</g>
<!-- Node15&#45;&gt;Node22 -->
<g id="edge26" class="edge">
<title>Node15&#45;&gt;Node22</title>
<path fill="none" stroke="#191970" d="M1263.2142,-141.4777C1338.4834,-136.7464 1494.2845,-124.6898 1634.8279,-98.0275"/>
<polygon fill="#191970" stroke="#191970" points="1635.7625,-101.4118 1644.9193,-96.0824 1634.4376,-94.5383 1635.7625,-101.4118"/>
</g>
<!-- Node23 -->
<g id="node24" class="node">
<title>Node23</title>
<polygon fill="none" stroke="#bfbfbf" points="710.5,-73 710.5,-92 811.5,-92 811.5,-73 710.5,-73"/>
<text text-anchor="middle" x="761" y="-80" font-family="Helvetica,sans-Serif" font-size="10.00" fill="#000000">deal.II/lac/utilities.h</text>
</g>
<!-- Node15&#45;&gt;Node23 -->
<g id="edge27" class="edge">
<title>Node15&#45;&gt;Node23</title>
<path fill="none" stroke="#191970" d="M1172.7476,-140.7927C1098.7324,-135.0921 947.3636,-121.5274 821,-98 815.5794,-96.9907 809.9244,-95.7644 804.3462,-94.4483"/>
<polygon fill="#191970" stroke="#191970" points="805.0026,-91.0054 794.4555,-92.0099 803.327,-97.8019 805.0026,-91.0054"/>
</g>
<!-- Node24 -->
<g id="node25" class="node">
<title>Node24</title>
<g id="a_node25"><a xlink:href="lapack__templates__ext_8h.html" target="_top" xlink:title="Append more template based LAPACK functions to those existing in deal.ii. ">
<polygon fill="none" stroke="#000000" points="572,-73 572,-92 692,-92 692,-73 572,-73"/>
<text text-anchor="middle" x="632" y="-80" font-family="Helvetica,sans-Serif" font-size="10.00" fill="#000000">lapack_templates_ext.h</text>
</a>
</g>
</g>
<!-- Node15&#45;&gt;Node24 -->
<g id="edge29" class="edge">
<title>Node15&#45;&gt;Node24</title>
<path fill="none" stroke="#191970" d="M1172.8059,-141.9916C1082.6377,-137.5416 874.1696,-125.0327 701,-98 694.2352,-96.944 687.1434,-95.6125 680.1881,-94.1758"/>
<polygon fill="#191970" stroke="#191970" points="680.6621,-90.6977 670.1495,-92.0152 679.1892,-97.541 680.6621,-90.6977"/>
</g>
<!-- Node24&#45;&gt;Node14 -->
<g id="edge30" class="edge">
<title>Node24&#45;&gt;Node14</title>
<path fill="none" stroke="#191970" d="M632,-72.9005C632,-64.5099 632,-51.9451 632,-40.7085"/>
<polygon fill="#191970" stroke="#191970" points="635.5001,-40.5217 632,-30.5218 628.5001,-40.5218 635.5001,-40.5217"/>
</g>
</g>
</svg>
        <g id="navigator" transform="translate(0 0)" fill="#404254">
                <rect fill="#f2f5e9" fill-opacity="0.5" stroke="#606060" stroke-width=".5" x="0" y="0" width="60" height="60"/>
                <use id="zoomplus" xlink:href="#zoomPlus" x="17" y="9" onmousedown="handleZoom(evt,'in')"/>
                <use id="zoomminus" xlink:href="#zoomMin" x="42" y="9" onmousedown="handleZoom(evt,'out')"/>
                <use id="reset" xlink:href="#resetDef" x="30" y="36" onmousedown="handleReset()"/>
                <g id="arrowUp" xlink:href="#dirArrow" transform="translate(30 24)" onmousedown="handlePan(0,-1)">
                  <use xlink:href="#rim" fill="#404040">
                        <set attributeName="fill" to="#808080" begin="arrowUp.mouseover" end="arrowUp.mouseout"/>
                  </use>
                  <path fill="none" stroke="white" stroke-width="1.5" d="M0,-3.0v7 M-2.5,-0.5L0,-3.0L2.5,-0.5"/>
                </g>
                <g id="arrowRight" xlink:href="#dirArrow" transform="rotate(90) translate(36 -43)" onmousedown="handlePan(1,0)">
                  <use xlink:href="#rim" fill="#404040">
                        <set attributeName="fill" to="#808080" begin="arrowRight.mouseover" end="arrowRight.mouseout"/>
                  </use>
                  <path fill="none" stroke="white" stroke-width="1.5" d="M0,-3.0v7 M-2.5,-0.5L0,-3.0L2.5,-0.5"/>
                </g>
                <g id="arrowDown" xlink:href="#dirArrow" transform="rotate(180) translate(-30 -48)" onmousedown="handlePan(0,1)">
                  <use xlink:href="#rim" fill="#404040">
                        <set attributeName="fill" to="#808080" begin="arrowDown.mouseover" end="arrowDown.mouseout"/>
                  </use>
                  <path fill="none" stroke="white" stroke-width="1.5" d="M0,-3.0v7 M-2.5,-0.5L0,-3.0L2.5,-0.5"/>
                </g>
                <g id="arrowLeft" xlink:href="#dirArrow" transform="rotate(270) translate(-36 17)" onmousedown="handlePan(-1,0)">
                  <use xlink:href="#rim" fill="#404040">
                        <set attributeName="fill" to="#808080" begin="arrowLeft.mouseover" end="arrowLeft.mouseout"/>
                  </use>
                  <path fill="none" stroke="white" stroke-width="1.5" d="M0,-3.0v7 M-2.5,-0.5L0,-3.0L2.5,-0.5"/>
                </g>
        </g>
        <svg viewBox="0 0 15 15" width="100%" height="30px" preserveAspectRatio="xMaxYMin meet">
         <g id="arrow_out" transform="scale(0.3 0.3)">
          <a xlink:href="scale-rows-and-columns_8cc__incl_org.svg" target="_base">
           <rect id="button" ry="5" rx="5" y="6" x="6" height="38" width="38"
                fill="#f2f5e9" fill-opacity="0.5" stroke="#606060" stroke-width="1.0"/>
           <path id="arrow"
             d="M 11.500037,31.436501 C 11.940474,20.09759 22.043105,11.32322 32.158766,21.979434 L 37.068811,17.246167 C 37.068811,17.246167 37.088388,32 37.088388,32 L 22.160133,31.978069 C 22.160133,31.978069 26.997745,27.140456 26.997745,27.140456 C 18.528582,18.264221 13.291696,25.230495 11.500037,31.436501 z"
             style="fill:#404040;"/>
          </a>
         </g>
        </svg>
</svg>
