<?xml version="1.0" encoding="UTF-8" standalone="no"?>
<!DOCTYPE svg PUBLIC "-//W3C//DTD SVG 1.1//EN"
 "http://www.w3.org/Graphics/SVG/1.1/DTD/svg11.dtd">
<!-- Generated by graphviz version 2.40.1 (20161225.0304)
 -->
<!-- Title: /home/jihuan/Projects/deal.ii/program/dealii&#45;9.1.1/examples/laplace&#45;bem/tests/lapack&#45;matrix&#45;scale&#45;rows&#45;and&#45;columns/scale&#45;rows&#45;and&#45;columns.cc Pages: 1 -->
<svg width="1366pt" height="273pt"
 viewBox="0.00 0.00 1366.00 273.00" xmlns="http://www.w3.org/2000/svg" xmlns:xlink="http://www.w3.org/1999/xlink">
<g id="graph0" class="graph" transform="scale(1 1) rotate(0) translate(4 269)">
<title>/home/jihuan/Projects/deal.ii/program/dealii&#45;9.1.1/examples/laplace&#45;bem/tests/lapack&#45;matrix&#45;scale&#45;rows&#45;and&#45;columns/scale&#45;rows&#45;and&#45;columns.cc</title>
<!-- Node0 -->
<g id="node1" class="node">
<title>Node0</title>
<polygon fill="#bfbfbf" stroke="#000000" points="694,-190.5 694,-264.5 846,-264.5 846,-190.5 694,-190.5"/>
<text text-anchor="start" x="702" y="-252.5" font-family="Helvetica,sans-Serif" font-size="10.00" fill="#000000">/home/jihuan/Projects</text>
<text text-anchor="start" x="702" y="-241.5" font-family="Helvetica,sans-Serif" font-size="10.00" fill="#000000">/deal.ii/program/dealii</text>
<text text-anchor="start" x="702" y="-230.5" font-family="Helvetica,sans-Serif" font-size="10.00" fill="#000000">&#45;9.1.1/examples/laplace</text>
<text text-anchor="start" x="702" y="-219.5" font-family="Helvetica,sans-Serif" font-size="10.00" fill="#000000">&#45;bem/tests/lapack&#45;matrix</text>
<text text-anchor="start" x="702" y="-208.5" font-family="Helvetica,sans-Serif" font-size="10.00" fill="#000000">&#45;scale&#45;rows&#45;and&#45;columns/scale</text>
<text text-anchor="middle" x="770" y="-197.5" font-family="Helvetica,sans-Serif" font-size="10.00" fill="#000000">&#45;rows&#45;and&#45;columns.cc</text>
</g>
<!-- Node1 -->
<g id="node2" class="node">
<title>Node1</title>
<polygon fill="none" stroke="#bfbfbf" points="0,-6 0,-25 98,-25 98,-6 0,-6"/>
<text text-anchor="middle" x="49" y="-13" font-family="Helvetica,sans-Serif" font-size="10.00" fill="#000000">deal.II/lac/vector.h</text>
</g>
<!-- Node0&#45;&gt;Node1 -->
<g id="edge1" class="edge">
<title>Node0&#45;&gt;Node1</title>
<path fill="none" stroke="#191970" d="M693.8633,-205.1131C542.6178,-160.6414 208.7745,-62.4795 91.0769,-27.8721"/>
<polygon fill="#191970" stroke="#191970" points="91.9277,-24.4742 81.3465,-25.011 89.953,-31.1899 91.9277,-24.4742"/>
</g>
<!-- Node2 -->
<g id="node3" class="node">
<title>Node2</title>
<polygon fill="none" stroke="#bfbfbf" points="836,-129 836,-148 890,-148 890,-129 836,-129"/>
<text text-anchor="middle" x="863" y="-136" font-family="Helvetica,sans-Serif" font-size="10.00" fill="#000000">iostream</text>
</g>
<!-- Node0&#45;&gt;Node2 -->
<g id="edge2" class="edge">
<title>Node0&#45;&gt;Node2</title>
<path fill="none" stroke="#191970" d="M808.9015,-190.2717C821.7526,-177.9733 835.3995,-164.9134 845.7718,-154.9872"/>
<polygon fill="#191970" stroke="#191970" points="848.1929,-157.5148 852.9977,-148.0721 843.353,-152.4574 848.1929,-157.5148"/>
</g>
<!-- Node3 -->
<g id="node4" class="node">
<title>Node3</title>
<g id="a_node4"><a xlink:href="lapack__full__matrix__ext_8h_source.html" target="_top" xlink:title="lapack_full_matrix\l_ext.h">
<polygon fill="none" stroke="#000000" points="722.5,-123.5 722.5,-153.5 817.5,-153.5 817.5,-123.5 722.5,-123.5"/>
<text text-anchor="start" x="730.5" y="-141.5" font-family="Helvetica,sans-Serif" font-size="10.00" fill="#000000">lapack_full_matrix</text>
<text text-anchor="middle" x="770" y="-130.5" font-family="Helvetica,sans-Serif" font-size="10.00" fill="#000000">_ext.h</text>
</a>
</g>
</g>
<!-- Node0&#45;&gt;Node3 -->
<g id="edge3" class="edge">
<title>Node0&#45;&gt;Node3</title>
<path fill="none" stroke="#191970" d="M770,-190.2717C770,-181.3955 770,-172.1226 770,-163.9174"/>
<polygon fill="#191970" stroke="#191970" points="773.5001,-163.8693 770,-153.8693 766.5001,-163.8693 773.5001,-163.8693"/>
</g>
<!-- Node4 -->
<g id="node5" class="node">
<title>Node4</title>
<polygon fill="none" stroke="#bfbfbf" points="722,-67.5 722,-86.5 762,-86.5 762,-67.5 722,-67.5"/>
<text text-anchor="middle" x="742" y="-74.5" font-family="Helvetica,sans-Serif" font-size="10.00" fill="#000000">limits</text>
</g>
<!-- Node3&#45;&gt;Node4 -->
<g id="edge4" class="edge">
<title>Node3&#45;&gt;Node4</title>
<path fill="none" stroke="#191970" d="M763.0786,-123.2977C759.3539,-115.1166 754.722,-104.943 750.7496,-96.2179"/>
<polygon fill="#191970" stroke="#191970" points="753.8122,-94.4978 746.4832,-86.8469 747.4414,-97.3983 753.8122,-94.4978"/>
</g>
<!-- Node5 -->
<g id="node6" class="node">
<title>Node5</title>
<polygon fill="none" stroke="#bfbfbf" points="780.5,-67.5 780.5,-86.5 815.5,-86.5 815.5,-67.5 780.5,-67.5"/>
<text text-anchor="middle" x="798" y="-74.5" font-family="Helvetica,sans-Serif" font-size="10.00" fill="#000000">map</text>
</g>
<!-- Node3&#45;&gt;Node5 -->
<g id="edge5" class="edge">
<title>Node3&#45;&gt;Node5</title>
<path fill="none" stroke="#191970" d="M776.9214,-123.2977C780.6461,-115.1166 785.278,-104.943 789.2504,-96.2179"/>
<polygon fill="#191970" stroke="#191970" points="792.5586,-97.3983 793.5168,-86.8469 786.1878,-94.4978 792.5586,-97.3983"/>
</g>
<!-- Node6 -->
<g id="node7" class="node">
<title>Node6</title>
<polygon fill="none" stroke="#bfbfbf" points="834,-67.5 834,-86.5 878,-86.5 878,-67.5 834,-67.5"/>
<text text-anchor="middle" x="856" y="-74.5" font-family="Helvetica,sans-Serif" font-size="10.00" fill="#000000">vector</text>
</g>
<!-- Node3&#45;&gt;Node6 -->
<g id="edge6" class="edge">
<title>Node3&#45;&gt;Node6</title>
<path fill="none" stroke="#191970" d="M791.2584,-123.2977C804.2718,-113.9917 820.8903,-102.1075 834.0317,-92.7099"/>
<polygon fill="#191970" stroke="#191970" points="836.3889,-95.3271 842.4871,-86.6633 832.3171,-89.6332 836.3889,-95.3271"/>
</g>
<!-- Node7 -->
<g id="node8" class="node">
<title>Node7</title>
<g id="a_node8"><a xlink:href="general__exceptions_8h.html" target="_top" xlink:title="Definition of self&#45;defined general exceptions. ">
<polygon fill="none" stroke="#000000" points="1098.5,-67.5 1098.5,-86.5 1207.5,-86.5 1207.5,-67.5 1098.5,-67.5"/>
<text text-anchor="middle" x="1153" y="-74.5" font-family="Helvetica,sans-Serif" font-size="10.00" fill="#000000">general_exceptions.h</text>
</a>
</g>
</g>
<!-- Node3&#45;&gt;Node7 -->
<g id="edge7" class="edge">
<title>Node3&#45;&gt;Node7</title>
<path fill="none" stroke="#191970" d="M817.7894,-125.0378C820.8966,-124.3072 823.9865,-123.6198 827,-123 916.8116,-104.5282 1022.0754,-91.1437 1088.1595,-83.7241"/>
<polygon fill="#191970" stroke="#191970" points="1088.8682,-87.167 1098.4208,-82.5846 1088.0956,-80.2097 1088.8682,-87.167"/>
</g>
<!-- Node9 -->
<g id="node10" class="node">
<title>Node9</title>
<g id="a_node10"><a xlink:href="lapack__helpers_8h.html" target="_top" xlink:title="Exposes LAPACK helper functions defined in lapack_full_matrix.cc and define new ones by following the...">
<polygon fill="none" stroke="#000000" points="614,-67.5 614,-86.5 704,-86.5 704,-67.5 614,-67.5"/>
<text text-anchor="middle" x="659" y="-74.5" font-family="Helvetica,sans-Serif" font-size="10.00" fill="#000000">lapack_helpers.h</text>
</a>
</g>
</g>
<!-- Node3&#45;&gt;Node9 -->
<g id="edge9" class="edge">
<title>Node3&#45;&gt;Node9</title>
<path fill="none" stroke="#191970" d="M742.8463,-123.4554C725.3005,-113.734 702.5878,-101.15 685.2279,-91.5317"/>
<polygon fill="#191970" stroke="#191970" points="686.6445,-88.3153 676.2011,-86.5303 683.252,-94.4383 686.6445,-88.3153"/>
</g>
<!-- Node8 -->
<g id="node9" class="node">
<title>Node8</title>
<polygon fill="none" stroke="#bfbfbf" points="1232,-6 1232,-25 1358,-25 1358,-6 1232,-6"/>
<text text-anchor="middle" x="1295" y="-13" font-family="Helvetica,sans-Serif" font-size="10.00" fill="#000000">deal.II/base/exceptions.h</text>
</g>
<!-- Node7&#45;&gt;Node8 -->
<g id="edge8" class="edge">
<title>Node7&#45;&gt;Node8</title>
<path fill="none" stroke="#191970" d="M1175.1875,-67.3906C1198.9467,-57.1005 1236.8405,-40.6888 1263.6425,-29.0809"/>
<polygon fill="#191970" stroke="#191970" points="1265.183,-32.2279 1272.9683,-25.0419 1262.4009,-25.8045 1265.183,-32.2279"/>
</g>
<!-- Node9&#45;&gt;Node1 -->
<g id="edge19" class="edge">
<title>Node9&#45;&gt;Node1</title>
<path fill="none" stroke="#191970" d="M613.9365,-75.9566C519.3404,-73.1731 293.4093,-63.4093 107,-31 101.6089,-30.0627 95.9897,-28.858 90.4626,-27.5349"/>
<polygon fill="#191970" stroke="#191970" points="91.236,-24.1203 80.6827,-25.0578 89.5172,-30.906 91.236,-24.1203"/>
</g>
<!-- Node10 -->
<g id="node11" class="node">
<title>Node10</title>
<polygon fill="none" stroke="#bfbfbf" points="116,-6 116,-25 232,-25 232,-6 116,-6"/>
<text text-anchor="middle" x="174" y="-13" font-family="Helvetica,sans-Serif" font-size="10.00" fill="#000000">deal.II/base/numbers.h</text>
</g>
<!-- Node9&#45;&gt;Node10 -->
<g id="edge10" class="edge">
<title>Node9&#45;&gt;Node10</title>
<path fill="none" stroke="#191970" d="M613.9114,-73.7888C537.0219,-67.9227 375.7711,-53.9229 241,-31 234.7434,-29.9358 228.1964,-28.6453 221.7493,-27.2683"/>
<polygon fill="#191970" stroke="#191970" points="222.277,-23.8004 211.7565,-25.0534 220.7621,-30.6345 222.277,-23.8004"/>
</g>
<!-- Node11 -->
<g id="node12" class="node">
<title>Node11</title>
<polygon fill="none" stroke="#bfbfbf" points="250,-.5 250,-30.5 378,-30.5 378,-.5 250,-.5"/>
<text text-anchor="start" x="258" y="-18.5" font-family="Helvetica,sans-Serif" font-size="10.00" fill="#000000">deal.II/lac/blas_extension</text>
<text text-anchor="middle" x="314" y="-7.5" font-family="Helvetica,sans-Serif" font-size="10.00" fill="#000000">_templates.h</text>
</g>
<!-- Node9&#45;&gt;Node11 -->
<g id="edge11" class="edge">
<title>Node9&#45;&gt;Node11</title>
<path fill="none" stroke="#191970" d="M613.6567,-69.9245C561.5859,-61.6673 473.3609,-47.2754 387.9267,-31.1341"/>
<polygon fill="#191970" stroke="#191970" points="388.5412,-27.6883 378.0636,-29.2603 387.2346,-34.5653 388.5412,-27.6883"/>
</g>
<!-- Node12 -->
<g id="node13" class="node">
<title>Node12</title>
<polygon fill="none" stroke="#bfbfbf" points="396,-6 396,-25 522,-25 522,-6 396,-6"/>
<text text-anchor="middle" x="459" y="-13" font-family="Helvetica,sans-Serif" font-size="10.00" fill="#000000">deal.II/lac/block_vector.h</text>
</g>
<!-- Node9&#45;&gt;Node12 -->
<g id="edge12" class="edge">
<title>Node9&#45;&gt;Node12</title>
<path fill="none" stroke="#191970" d="M627.75,-67.3906C593.2589,-56.7846 537.6188,-39.6753 499.7338,-28.0257"/>
<polygon fill="#191970" stroke="#191970" points="500.6176,-24.6357 490.0306,-25.0419 498.5601,-31.3266 500.6176,-24.6357"/>
</g>
<!-- Node13 -->
<g id="node14" class="node">
<title>Node13</title>
<polygon fill="none" stroke="#bfbfbf" points="540,-6 540,-25 656,-25 656,-6 540,-6"/>
<text text-anchor="middle" x="598" y="-13" font-family="Helvetica,sans-Serif" font-size="10.00" fill="#000000">deal.II/lac/full_matrix.h</text>
</g>
<!-- Node9&#45;&gt;Node13 -->
<g id="edge13" class="edge">
<title>Node9&#45;&gt;Node13</title>
<path fill="none" stroke="#191970" d="M649.4688,-67.3906C640.2121,-58.0581 625.961,-43.6902 614.7997,-32.4374"/>
<polygon fill="#191970" stroke="#191970" points="617.1928,-29.88 607.6656,-25.2449 612.2228,-34.8095 617.1928,-29.88"/>
</g>
<!-- Node14 -->
<g id="node15" class="node">
<title>Node14</title>
<polygon fill="none" stroke="#bfbfbf" points="674.5,-.5 674.5,-30.5 765.5,-30.5 765.5,-.5 674.5,-.5"/>
<text text-anchor="start" x="682.5" y="-18.5" font-family="Helvetica,sans-Serif" font-size="10.00" fill="#000000">deal.II/lac/lapack</text>
<text text-anchor="middle" x="720" y="-7.5" font-family="Helvetica,sans-Serif" font-size="10.00" fill="#000000">_full_matrix.h</text>
</g>
<!-- Node9&#45;&gt;Node14 -->
<g id="edge14" class="edge">
<title>Node9&#45;&gt;Node14</title>
<path fill="none" stroke="#191970" d="M668.5313,-67.3906C676.4047,-59.4527 687.8913,-47.8718 698.0167,-37.6635"/>
<polygon fill="#191970" stroke="#191970" points="700.5205,-40.1093 705.0777,-30.5446 695.5506,-35.1797 700.5205,-40.1093"/>
</g>
<!-- Node15 -->
<g id="node16" class="node">
<title>Node15</title>
<polygon fill="none" stroke="#bfbfbf" points="783.5,-.5 783.5,-30.5 874.5,-30.5 874.5,-.5 783.5,-.5"/>
<text text-anchor="start" x="791.5" y="-18.5" font-family="Helvetica,sans-Serif" font-size="10.00" fill="#000000">deal.II/lac/lapack</text>
<text text-anchor="middle" x="829" y="-7.5" font-family="Helvetica,sans-Serif" font-size="10.00" fill="#000000">_support.h</text>
</g>
<!-- Node9&#45;&gt;Node15 -->
<g id="edge15" class="edge">
<title>Node9&#45;&gt;Node15</title>
<path fill="none" stroke="#191970" d="M685.5625,-67.3906C710.1677,-58.4893 747.4351,-45.0073 777.8161,-34.0165"/>
<polygon fill="#191970" stroke="#191970" points="779.2004,-37.2378 787.4133,-30.5446 776.8191,-30.6553 779.2004,-37.2378"/>
</g>
<!-- Node16 -->
<g id="node17" class="node">
<title>Node16</title>
<polygon fill="none" stroke="#bfbfbf" points="892.5,-.5 892.5,-30.5 983.5,-30.5 983.5,-.5 892.5,-.5"/>
<text text-anchor="start" x="900.5" y="-18.5" font-family="Helvetica,sans-Serif" font-size="10.00" fill="#000000">deal.II/lac/lapack</text>
<text text-anchor="middle" x="938" y="-7.5" font-family="Helvetica,sans-Serif" font-size="10.00" fill="#000000">_templates.h</text>
</g>
<!-- Node9&#45;&gt;Node16 -->
<g id="edge16" class="edge">
<title>Node9&#45;&gt;Node16</title>
<path fill="none" stroke="#191970" d="M704.0554,-68.2207C755.519,-58.1226 837.5417,-41.7986 882.5817,-31.2203"/>
<polygon fill="#191970" stroke="#191970" points="883.4974,-34.6 892.4017,-28.8586 881.8605,-27.794 883.4974,-34.6"/>
</g>
<!-- Node17 -->
<g id="node18" class="node">
<title>Node17</title>
<polygon fill="none" stroke="#bfbfbf" points="1002,-.5 1002,-30.5 1094,-30.5 1094,-.5 1002,-.5"/>
<text text-anchor="start" x="1010" y="-18.5" font-family="Helvetica,sans-Serif" font-size="10.00" fill="#000000">deal.II/lac/sparse</text>
<text text-anchor="middle" x="1048" y="-7.5" font-family="Helvetica,sans-Serif" font-size="10.00" fill="#000000">_matrix.h</text>
</g>
<!-- Node9&#45;&gt;Node17 -->
<g id="edge17" class="edge">
<title>Node9&#45;&gt;Node17</title>
<path fill="none" stroke="#191970" d="M704.0494,-68.4651C707.0753,-67.9512 710.08,-67.4577 713,-67 833.8078,-48.0627 868.3244,-55.67 992.0521,-31.0139"/>
<polygon fill="#191970" stroke="#191970" points="992.7996,-34.4337 1001.9069,-29.0201 991.4114,-27.5727 992.7996,-34.4337"/>
</g>
<!-- Node18 -->
<g id="node19" class="node">
<title>Node18</title>
<polygon fill="none" stroke="#bfbfbf" points="1112.5,-6 1112.5,-25 1213.5,-25 1213.5,-6 1112.5,-6"/>
<text text-anchor="middle" x="1163" y="-13" font-family="Helvetica,sans-Serif" font-size="10.00" fill="#000000">deal.II/lac/utilities.h</text>
</g>
<!-- Node9&#45;&gt;Node18 -->
<g id="edge18" class="edge">
<title>Node9&#45;&gt;Node18</title>
<path fill="none" stroke="#191970" d="M704.0314,-68.3438C707.0618,-67.8592 710.0723,-67.4054 713,-67 885.4254,-43.1271 931.511,-60.8658 1103,-31 1108.4983,-30.0424 1114.232,-28.8365 1119.8799,-27.5222"/>
<polygon fill="#191970" stroke="#191970" points="1121.0051,-30.85 1129.8841,-25.0695 1119.3383,-24.0514 1121.0051,-30.85"/>
</g>
</g>
</svg>
