<?xml version="1.0" encoding="UTF-8" standalone="no"?>
<!DOCTYPE svg PUBLIC "-//W3C//DTD SVG 1.1//EN"
 "http://www.w3.org/Graphics/SVG/1.1/DTD/svg11.dtd">
<!-- Generated by graphviz version 2.40.1 (20161225.0304)
 -->
<!-- Title: /home/jihuan/Projects/deal.ii/program/dealii&#45;9.1.1/examples/laplace&#45;bem/tests/simple&#45;bounding&#45;box/simple&#45;bounding&#45;box.cc Pages: 1 -->
<!--zoomable 195 -->
<svg id="main" version="1.1" xmlns="http://www.w3.org/2000/svg" xmlns:xlink="http://www.w3.org/1999/xlink" xml:space="preserve" onload="init(evt)">
<style type="text/css"><![CDATA[
.edge:hover path { stroke: red; }
.edge:hover polygon { stroke: red; fill: red; }
]]></style>
<script type="text/javascript"><![CDATA[
var edges = document.getElementsByTagName('g');
if (edges && edges.length) {
  for (var i=0;i<edges.length;i++) {
    if (edges[i].id.substr(0,4)=='edge') {
      edges[i].setAttribute('class','edge');
    }
  }
}
]]></script>
        <defs>
                <circle id="rim" cx="0" cy="0" r="7"/>
                <circle id="rim2" cx="0" cy="0" r="3.5"/>
                <g id="zoomPlus">
                        <use xlink:href="#rim" fill="#404040">
                                <set attributeName="fill" to="#808080" begin="zoomplus.mouseover" end="zoomplus.mouseout"/>
                        </use>
                        <path d="M-4,0h8M0,-4v8" fill="none" stroke="white" stroke-width="1.5" pointer-events="none"/>
                </g>
                <g id="zoomMin">
                        <use xlink:href="#rim" fill="#404040">
                                <set attributeName="fill" to="#808080" begin="zoomminus.mouseover" end="zoomminus.mouseout"/>
                        </use>
                        <path d="M-4,0h8" fill="none" stroke="white" stroke-width="1.5" pointer-events="none"/>
                </g>
                <g id="dirArrow">
                        <path fill="none" stroke="white" stroke-width="1.5" d="M0,-3.0v7 M-2.5,-0.5L0,-3.0L2.5,-0.5"/>
                </g>
               <g id="resetDef">
                       <use xlink:href="#rim2" fill="#404040">
                               <set attributeName="fill" to="#808080" begin="reset.mouseover" end="reset.mouseout"/>
                       </use>
               </g>
        </defs>

<script type="text/javascript">
var viewWidth = 1034;
var viewHeight = 195;
var sectionId = 'dynsection-0';
</script>
<script xlink:href="svgpan.js"/>
<svg id="graph" class="graph">
<g id="viewport">
<title>/home/jihuan/Projects/deal.ii/program/dealii&#45;9.1.1/examples/laplace&#45;bem/tests/simple&#45;bounding&#45;box/simple&#45;bounding&#45;box.cc</title>
<!-- Node0 -->
<g id="node1" class="node">
<title>Node0</title>
<polygon fill="#bfbfbf" stroke="#000000" points="391.5,-123.5 391.5,-186.5 532.5,-186.5 532.5,-123.5 391.5,-123.5"/>
<text text-anchor="start" x="399.5" y="-174.5" font-family="Helvetica,sans-Serif" font-size="10.00" fill="#000000">/home/jihuan/Projects</text>
<text text-anchor="start" x="399.5" y="-163.5" font-family="Helvetica,sans-Serif" font-size="10.00" fill="#000000">/deal.ii/program/dealii</text>
<text text-anchor="start" x="399.5" y="-152.5" font-family="Helvetica,sans-Serif" font-size="10.00" fill="#000000">&#45;9.1.1/examples/laplace</text>
<text text-anchor="start" x="399.5" y="-141.5" font-family="Helvetica,sans-Serif" font-size="10.00" fill="#000000">&#45;bem/tests/simple&#45;bounding</text>
<text text-anchor="middle" x="462" y="-130.5" font-family="Helvetica,sans-Serif" font-size="10.00" fill="#000000">&#45;box/simple&#45;bounding&#45;box.cc</text>
</g>
<!-- Node1 -->
<g id="node2" class="node">
<title>Node1</title>
<polygon fill="none" stroke="#bfbfbf" points="0,-62 0,-81 122,-81 122,-62 0,-62"/>
<text text-anchor="middle" x="61" y="-69" font-family="Helvetica,sans-Serif" font-size="10.00" fill="#000000">deal.II/base/logstream.h</text>
</g>
<!-- Node0&#45;&gt;Node1 -->
<g id="edge1" class="edge">
<title>Node0&#45;&gt;Node1</title>
<path fill="none" stroke="#191970" d="M391.2323,-140.2641C313.0119,-123.9763 188.6257,-98.0754 116.9238,-83.145"/>
<polygon fill="#191970" stroke="#191970" points="117.2424,-79.6363 106.7389,-81.0242 115.8154,-86.4893 117.2424,-79.6363"/>
</g>
<!-- Node2 -->
<g id="node3" class="node">
<title>Node2</title>
<polygon fill="none" stroke="#bfbfbf" points="252,-.5 252,-19.5 352,-19.5 352,-.5 252,-.5"/>
<text text-anchor="middle" x="302" y="-7.5" font-family="Helvetica,sans-Serif" font-size="10.00" fill="#000000">deal.II/base/point.h</text>
</g>
<!-- Node0&#45;&gt;Node2 -->
<g id="edge2" class="edge">
<title>Node0&#45;&gt;Node2</title>
<path fill="none" stroke="#191970" d="M391.2624,-148.5547C313.5942,-139.8419 196.2461,-121.2936 169,-87 143.6657,-55.1127 195.828,-33.8761 242.0777,-21.9259"/>
<polygon fill="#191970" stroke="#191970" points="242.959,-25.3134 251.8271,-19.5163 241.2794,-18.5179 242.959,-25.3134"/>
</g>
<!-- Node3 -->
<g id="node4" class="node">
<title>Node3</title>
<polygon fill="none" stroke="#bfbfbf" points="178.5,-62 178.5,-81 263.5,-81 263.5,-62 178.5,-62"/>
<text text-anchor="middle" x="221" y="-69" font-family="Helvetica,sans-Serif" font-size="10.00" fill="#000000">deal.II/fe/fe_q.h</text>
</g>
<!-- Node0&#45;&gt;Node3 -->
<g id="edge3" class="edge">
<title>Node0&#45;&gt;Node3</title>
<path fill="none" stroke="#191970" d="M391.3204,-130.5114C347.6479,-115.3801 293.3786,-96.5772 257.9999,-84.3195"/>
<polygon fill="#191970" stroke="#191970" points="259.1415,-81.0109 248.5467,-81.0442 256.8498,-87.6252 259.1415,-81.0109"/>
</g>
<!-- Node4 -->
<g id="node5" class="node">
<title>Node4</title>
<polygon fill="none" stroke="#bfbfbf" points="281.5,-56.5 281.5,-86.5 376.5,-86.5 376.5,-56.5 281.5,-56.5"/>
<text text-anchor="start" x="289.5" y="-74.5" font-family="Helvetica,sans-Serif" font-size="10.00" fill="#000000">deal.II/fe/mapping</text>
<text text-anchor="middle" x="329" y="-63.5" font-family="Helvetica,sans-Serif" font-size="10.00" fill="#000000">_q_generic.h</text>
</g>
<!-- Node0&#45;&gt;Node4 -->
<g id="edge4" class="edge">
<title>Node0&#45;&gt;Node4</title>
<path fill="none" stroke="#191970" d="M411.7184,-123.4322C394.8695,-112.8541 376.5412,-101.3473 361.4292,-91.8597"/>
<polygon fill="#191970" stroke="#191970" points="363.2688,-88.882 352.9385,-86.5291 359.5468,-94.8105 363.2688,-88.882"/>
</g>
<!-- Node5 -->
<g id="node6" class="node">
<title>Node5</title>
<polygon fill="none" stroke="#bfbfbf" points="394.5,-62 394.5,-81 529.5,-81 529.5,-62 394.5,-62"/>
<text text-anchor="middle" x="462" y="-69" font-family="Helvetica,sans-Serif" font-size="10.00" fill="#000000">deal.II/grid/grid_generator.h</text>
</g>
<!-- Node0&#45;&gt;Node5 -->
<g id="edge5" class="edge">
<title>Node0&#45;&gt;Node5</title>
<path fill="none" stroke="#191970" d="M462,-123.4322C462,-112.6773 462,-100.9624 462,-91.3857"/>
<polygon fill="#191970" stroke="#191970" points="465.5001,-91.3112 462,-81.3112 458.5001,-91.3112 465.5001,-91.3112"/>
</g>
<!-- Node6 -->
<g id="node7" class="node">
<title>Node6</title>
<polygon fill="none" stroke="#bfbfbf" points="548,-62 548,-81 650,-81 650,-62 548,-62"/>
<text text-anchor="middle" x="599" y="-69" font-family="Helvetica,sans-Serif" font-size="10.00" fill="#000000">deal.II/grid/grid_in.h</text>
</g>
<!-- Node0&#45;&gt;Node6 -->
<g id="edge6" class="edge">
<title>Node0&#45;&gt;Node6</title>
<path fill="none" stroke="#191970" d="M513.7938,-123.4322C534.6363,-110.729 557.6763,-96.6864 574.5372,-86.4098"/>
<polygon fill="#191970" stroke="#191970" points="576.498,-89.3136 583.2154,-81.1205 572.8549,-83.3364 576.498,-89.3136"/>
</g>
<!-- Node7 -->
<g id="node8" class="node">
<title>Node7</title>
<polygon fill="none" stroke="#bfbfbf" points="668,-62 668,-81 776,-81 776,-62 668,-62"/>
<text text-anchor="middle" x="722" y="-69" font-family="Helvetica,sans-Serif" font-size="10.00" fill="#000000">deal.II/grid/grid_out.h</text>
</g>
<!-- Node0&#45;&gt;Node7 -->
<g id="edge7" class="edge">
<title>Node0&#45;&gt;Node7</title>
<path fill="none" stroke="#191970" d="M532.7027,-132.2936C580.9443,-116.8006 643.0511,-96.8548 682.7073,-84.119"/>
<polygon fill="#191970" stroke="#191970" points="683.8327,-87.4337 692.2836,-81.0435 681.6923,-80.769 683.8327,-87.4337"/>
</g>
<!-- Node8 -->
<g id="node9" class="node">
<title>Node8</title>
<g id="a_node9"><a xlink:href="simple__bounding__box_8h_source.html" target="_top" xlink:title="simple_bounding_box.h">
<polygon fill="none" stroke="#000000" points="794.5,-62 794.5,-81 913.5,-81 913.5,-62 794.5,-62"/>
<text text-anchor="middle" x="854" y="-69" font-family="Helvetica,sans-Serif" font-size="10.00" fill="#000000">simple_bounding_box.h</text>
</a>
</g>
</g>
<!-- Node0&#45;&gt;Node8 -->
<g id="edge8" class="edge">
<title>Node0&#45;&gt;Node8</title>
<path fill="none" stroke="#191970" d="M532.6289,-140.4163C598.1054,-126.8287 698.2068,-105.8837 785,-87 790.4736,-85.8091 796.1879,-84.5503 801.8831,-83.2858"/>
<polygon fill="#191970" stroke="#191970" points="803.0596,-86.6095 812.058,-81.0166 801.5359,-79.7773 803.0596,-86.6095"/>
</g>
<!-- Node14 -->
<g id="node15" class="node">
<title>Node14</title>
<polygon fill="none" stroke="#bfbfbf" points="932,-62 932,-81 982,-81 982,-62 932,-62"/>
<text text-anchor="middle" x="957" y="-69" font-family="Helvetica,sans-Serif" font-size="10.00" fill="#000000">fstream</text>
</g>
<!-- Node0&#45;&gt;Node14 -->
<g id="edge15" class="edge">
<title>Node0&#45;&gt;Node14</title>
<path fill="none" stroke="#191970" d="M532.831,-150.7487C624.4862,-143.8514 788.3821,-126.7458 923,-87 924.9132,-86.4351 926.8573,-85.7823 928.7973,-85.0709"/>
<polygon fill="#191970" stroke="#191970" points="930.3853,-88.2023 938.3012,-81.1603 927.7216,-81.7288 930.3853,-88.2023"/>
</g>
<!-- Node8&#45;&gt;Node2 -->
<g id="edge9" class="edge">
<title>Node8&#45;&gt;Node2</title>
<path fill="none" stroke="#191970" d="M815.4824,-61.947C805.5948,-59.7431 794.9424,-57.5837 785,-56 634.0153,-31.95 454.3307,-18.8795 362.5407,-13.3091"/>
<polygon fill="#191970" stroke="#191970" points="362.5175,-9.8016 352.3264,-12.6983 362.0996,-16.7891 362.5175,-9.8016"/>
</g>
<!-- Node9 -->
<g id="node10" class="node">
<title>Node9</title>
<polygon fill="none" stroke="#bfbfbf" points="522.5,-.5 522.5,-19.5 649.5,-19.5 649.5,-.5 522.5,-.5"/>
<text text-anchor="middle" x="586" y="-7.5" font-family="Helvetica,sans-Serif" font-size="10.00" fill="#000000">deal.II/dofs/dof_handler.h</text>
</g>
<!-- Node8&#45;&gt;Node9 -->
<g id="edge10" class="edge">
<title>Node8&#45;&gt;Node9</title>
<path fill="none" stroke="#191970" d="M812.419,-61.9581C765.2795,-51.1406 688.3887,-33.4959 637.4943,-21.8168"/>
<polygon fill="#191970" stroke="#191970" points="638.208,-18.3897 627.6785,-19.5643 636.6423,-25.2123 638.208,-18.3897"/>
</g>
<!-- Node10 -->
<g id="node11" class="node">
<title>Node10</title>
<polygon fill="none" stroke="#bfbfbf" points="668,-.5 668,-19.5 784,-19.5 784,-.5 668,-.5"/>
<text text-anchor="middle" x="726" y="-7.5" font-family="Helvetica,sans-Serif" font-size="10.00" fill="#000000">deal.II/dofs/dof_tools.h</text>
</g>
<!-- Node8&#45;&gt;Node10 -->
<g id="edge11" class="edge">
<title>Node8&#45;&gt;Node10</title>
<path fill="none" stroke="#191970" d="M834,-61.8906C812.7711,-51.6908 779.0238,-35.4763 754.904,-23.8875"/>
<polygon fill="#191970" stroke="#191970" points="756.3889,-20.7179 745.8596,-19.5419 753.3574,-27.0275 756.3889,-20.7179"/>
</g>
<!-- Node11 -->
<g id="node12" class="node">
<title>Node11</title>
<polygon fill="none" stroke="#bfbfbf" points="802.5,-.5 802.5,-19.5 905.5,-19.5 905.5,-.5 802.5,-.5"/>
<text text-anchor="middle" x="854" y="-7.5" font-family="Helvetica,sans-Serif" font-size="10.00" fill="#000000">deal.II/fe/mapping.h</text>
</g>
<!-- Node8&#45;&gt;Node11 -->
<g id="edge12" class="edge">
<title>Node8&#45;&gt;Node11</title>
<path fill="none" stroke="#191970" d="M854,-61.8906C854,-53.3657 854,-40.6392 854,-29.9235"/>
<polygon fill="#191970" stroke="#191970" points="857.5001,-29.7448 854,-19.7449 850.5001,-29.7449 857.5001,-29.7448"/>
</g>
<!-- Node12 -->
<g id="node13" class="node">
<title>Node12</title>
<polygon fill="none" stroke="#bfbfbf" points="924,-.5 924,-19.5 964,-19.5 964,-.5 924,-.5"/>
<text text-anchor="middle" x="944" y="-7.5" font-family="Helvetica,sans-Serif" font-size="10.00" fill="#000000">utility</text>
</g>
<!-- Node8&#45;&gt;Node12 -->
<g id="edge13" class="edge">
<title>Node8&#45;&gt;Node12</title>
<path fill="none" stroke="#191970" d="M868.0625,-61.8906C882.3286,-52.1421 904.635,-36.8994 921.3872,-25.4521"/>
<polygon fill="#191970" stroke="#191970" points="923.7545,-28.0736 930.0362,-19.5419 919.8051,-22.2941 923.7545,-28.0736"/>
</g>
<!-- Node13 -->
<g id="node14" class="node">
<title>Node13</title>
<polygon fill="none" stroke="#bfbfbf" points="982,-.5 982,-19.5 1026,-19.5 1026,-.5 982,-.5"/>
<text text-anchor="middle" x="1004" y="-7.5" font-family="Helvetica,sans-Serif" font-size="10.00" fill="#000000">vector</text>
</g>
<!-- Node8&#45;&gt;Node13 -->
<g id="edge14" class="edge">
<title>Node8&#45;&gt;Node13</title>
<path fill="none" stroke="#191970" d="M877.4375,-61.8906C902.9402,-51.4345 943.8594,-34.6577 972.2369,-23.0229"/>
<polygon fill="#191970" stroke="#191970" points="973.7807,-26.1727 981.7055,-19.1408 971.1252,-19.696 973.7807,-26.1727"/>
</g>
</g>
</svg>
        <g id="navigator" transform="translate(0 0)" fill="#404254">
                <rect fill="#f2f5e9" fill-opacity="0.5" stroke="#606060" stroke-width=".5" x="0" y="0" width="60" height="60"/>
                <use id="zoomplus" xlink:href="#zoomPlus" x="17" y="9" onmousedown="handleZoom(evt,'in')"/>
                <use id="zoomminus" xlink:href="#zoomMin" x="42" y="9" onmousedown="handleZoom(evt,'out')"/>
                <use id="reset" xlink:href="#resetDef" x="30" y="36" onmousedown="handleReset()"/>
                <g id="arrowUp" xlink:href="#dirArrow" transform="translate(30 24)" onmousedown="handlePan(0,-1)">
                  <use xlink:href="#rim" fill="#404040">
                        <set attributeName="fill" to="#808080" begin="arrowUp.mouseover" end="arrowUp.mouseout"/>
                  </use>
                  <path fill="none" stroke="white" stroke-width="1.5" d="M0,-3.0v7 M-2.5,-0.5L0,-3.0L2.5,-0.5"/>
                </g>
                <g id="arrowRight" xlink:href="#dirArrow" transform="rotate(90) translate(36 -43)" onmousedown="handlePan(1,0)">
                  <use xlink:href="#rim" fill="#404040">
                        <set attributeName="fill" to="#808080" begin="arrowRight.mouseover" end="arrowRight.mouseout"/>
                  </use>
                  <path fill="none" stroke="white" stroke-width="1.5" d="M0,-3.0v7 M-2.5,-0.5L0,-3.0L2.5,-0.5"/>
                </g>
                <g id="arrowDown" xlink:href="#dirArrow" transform="rotate(180) translate(-30 -48)" onmousedown="handlePan(0,1)">
                  <use xlink:href="#rim" fill="#404040">
                        <set attributeName="fill" to="#808080" begin="arrowDown.mouseover" end="arrowDown.mouseout"/>
                  </use>
                  <path fill="none" stroke="white" stroke-width="1.5" d="M0,-3.0v7 M-2.5,-0.5L0,-3.0L2.5,-0.5"/>
                </g>
                <g id="arrowLeft" xlink:href="#dirArrow" transform="rotate(270) translate(-36 17)" onmousedown="handlePan(-1,0)">
                  <use xlink:href="#rim" fill="#404040">
                        <set attributeName="fill" to="#808080" begin="arrowLeft.mouseover" end="arrowLeft.mouseout"/>
                  </use>
                  <path fill="none" stroke="white" stroke-width="1.5" d="M0,-3.0v7 M-2.5,-0.5L0,-3.0L2.5,-0.5"/>
                </g>
        </g>
        <svg viewBox="0 0 15 15" width="100%" height="30px" preserveAspectRatio="xMaxYMin meet">
         <g id="arrow_out" transform="scale(0.3 0.3)">
          <a xlink:href="simple-bounding-box_8cc__incl_org.svg" target="_base">
           <rect id="button" ry="5" rx="5" y="6" x="6" height="38" width="38"
                fill="#f2f5e9" fill-opacity="0.5" stroke="#606060" stroke-width="1.0"/>
           <path id="arrow"
             d="M 11.500037,31.436501 C 11.940474,20.09759 22.043105,11.32322 32.158766,21.979434 L 37.068811,17.246167 C 37.068811,17.246167 37.088388,32 37.088388,32 L 22.160133,31.978069 C 22.160133,31.978069 26.997745,27.140456 26.997745,27.140456 C 18.528582,18.264221 13.291696,25.230495 11.500037,31.436501 z"
             style="fill:#404040;"/>
          </a>
         </g>
        </svg>
</svg>
