<?xml version="1.0" encoding="UTF-8" standalone="no"?>
<!DOCTYPE svg PUBLIC "-//W3C//DTD SVG 1.1//EN"
 "http://www.w3.org/Graphics/SVG/1.1/DTD/svg11.dtd">
<!-- Generated by graphviz version 2.40.1 (20161225.0304)
 -->
<!-- Title: /home/jihuan/Projects/deal.ii/program/dealii&#45;9.1.1/examples/laplace&#45;bem/tests/lapack&#45;matrix&#45;svd&#45;degenerate&#45;cases/svd&#45;degenerate&#45;cases.cc Pages: 1 -->
<svg width="2004pt" height="273pt"
 viewBox="0.00 0.00 2003.50 273.00" xmlns="http://www.w3.org/2000/svg" xmlns:xlink="http://www.w3.org/1999/xlink">
<g id="graph0" class="graph" transform="scale(1 1) rotate(0) translate(4 269)">
<title>/home/jihuan/Projects/deal.ii/program/dealii&#45;9.1.1/examples/laplace&#45;bem/tests/lapack&#45;matrix&#45;svd&#45;degenerate&#45;cases/svd&#45;degenerate&#45;cases.cc</title>
<!-- Node0 -->
<g id="node1" class="node">
<title>Node0</title>
<polygon fill="#bfbfbf" stroke="#000000" points="562.5,-190.5 562.5,-264.5 696.5,-264.5 696.5,-190.5 562.5,-190.5"/>
<text text-anchor="start" x="570.5" y="-252.5" font-family="Helvetica,sans-Serif" font-size="10.00" fill="#000000">/home/jihuan/Projects</text>
<text text-anchor="start" x="570.5" y="-241.5" font-family="Helvetica,sans-Serif" font-size="10.00" fill="#000000">/deal.ii/program/dealii</text>
<text text-anchor="start" x="570.5" y="-230.5" font-family="Helvetica,sans-Serif" font-size="10.00" fill="#000000">&#45;9.1.1/examples/laplace</text>
<text text-anchor="start" x="570.5" y="-219.5" font-family="Helvetica,sans-Serif" font-size="10.00" fill="#000000">&#45;bem/tests/lapack&#45;matrix</text>
<text text-anchor="start" x="570.5" y="-208.5" font-family="Helvetica,sans-Serif" font-size="10.00" fill="#000000">&#45;svd&#45;degenerate&#45;cases/svd</text>
<text text-anchor="middle" x="629.5" y="-197.5" font-family="Helvetica,sans-Serif" font-size="10.00" fill="#000000">&#45;degenerate&#45;cases.cc</text>
</g>
<!-- Node1 -->
<g id="node2" class="node">
<title>Node1</title>
<g id="a_node2"><a xlink:href="debug__tools_8h.html" target="_top" xlink:title="This file includes a bunch of helper functions for printing out and visualizing information about gri...">
<polygon fill="none" stroke="#000000" points="452,-129 452,-148 529,-148 529,-129 452,-129"/>
<text text-anchor="middle" x="490.5" y="-136" font-family="Helvetica,sans-Serif" font-size="10.00" fill="#000000">debug_tools.h</text>
</a>
</g>
</g>
<!-- Node0&#45;&gt;Node1 -->
<g id="edge1" class="edge">
<title>Node0&#45;&gt;Node1</title>
<path fill="none" stroke="#191970" d="M571.3569,-190.2717C551.2078,-177.3705 529.7497,-163.6311 514.006,-153.5506"/>
<polygon fill="#191970" stroke="#191970" points="515.7586,-150.5168 505.4497,-148.0721 511.984,-156.412 515.7586,-150.5168"/>
</g>
<!-- Node9 -->
<g id="node10" class="node">
<title>Node9</title>
<g id="a_node10"><a xlink:href="lapack__full__matrix__ext_8h_source.html" target="_top" xlink:title="lapack_full_matrix\l_ext.h">
<polygon fill="none" stroke="#000000" points="813,-123.5 813,-153.5 908,-153.5 908,-123.5 813,-123.5"/>
<text text-anchor="start" x="821" y="-141.5" font-family="Helvetica,sans-Serif" font-size="10.00" fill="#000000">lapack_full_matrix</text>
<text text-anchor="middle" x="860.5" y="-130.5" font-family="Helvetica,sans-Serif" font-size="10.00" fill="#000000">_ext.h</text>
</a>
</g>
</g>
<!-- Node0&#45;&gt;Node9 -->
<g id="edge9" class="edge">
<title>Node0&#45;&gt;Node9</title>
<path fill="none" stroke="#191970" d="M696.6251,-201.638C733.4825,-187.4375 778.3617,-170.1463 811.8289,-157.2521"/>
<polygon fill="#191970" stroke="#191970" points="813.3145,-160.4306 821.3875,-153.5693 810.7978,-153.8986 813.3145,-160.4306"/>
</g>
<!-- Node2 -->
<g id="node3" class="node">
<title>Node2</title>
<polygon fill="none" stroke="#bfbfbf" points="0,-67.5 0,-86.5 127,-86.5 127,-67.5 0,-67.5"/>
<text text-anchor="middle" x="63.5" y="-74.5" font-family="Helvetica,sans-Serif" font-size="10.00" fill="#000000">deal.II/dofs/dof_handler.h</text>
</g>
<!-- Node1&#45;&gt;Node2 -->
<g id="edge2" class="edge">
<title>Node1&#45;&gt;Node2</title>
<path fill="none" stroke="#191970" d="M451.8535,-132.9338C380.8164,-122.7025 228.4158,-100.7525 137.0751,-87.5969"/>
<polygon fill="#191970" stroke="#191970" points="137.4645,-84.1169 127.0677,-86.1555 136.4666,-91.0454 137.4645,-84.1169"/>
</g>
<!-- Node3 -->
<g id="node4" class="node">
<title>Node3</title>
<polygon fill="none" stroke="#bfbfbf" points="145.5,-67.5 145.5,-86.5 261.5,-86.5 261.5,-67.5 145.5,-67.5"/>
<text text-anchor="middle" x="203.5" y="-74.5" font-family="Helvetica,sans-Serif" font-size="10.00" fill="#000000">deal.II/dofs/dof_tools.h</text>
</g>
<!-- Node1&#45;&gt;Node3 -->
<g id="edge3" class="edge">
<title>Node1&#45;&gt;Node3</title>
<path fill="none" stroke="#191970" d="M451.7939,-130.2058C401.8526,-119.5041 314.6773,-100.8237 258.0384,-88.6868"/>
<polygon fill="#191970" stroke="#191970" points="258.6927,-85.2476 248.1813,-86.5746 257.2259,-92.0922 258.6927,-85.2476"/>
</g>
<!-- Node4 -->
<g id="node5" class="node">
<title>Node4</title>
<polygon fill="none" stroke="#bfbfbf" points="279.5,-67.5 279.5,-86.5 353.5,-86.5 353.5,-67.5 279.5,-67.5"/>
<text text-anchor="middle" x="316.5" y="-74.5" font-family="Helvetica,sans-Serif" font-size="10.00" fill="#000000">deal.II/fe/fe.h</text>
</g>
<!-- Node1&#45;&gt;Node4 -->
<g id="edge4" class="edge">
<title>Node1&#45;&gt;Node4</title>
<path fill="none" stroke="#191970" d="M463.3125,-128.8906C433.6883,-118.42 386.1313,-101.6111 353.2082,-89.9745"/>
<polygon fill="#191970" stroke="#191970" points="354.0914,-86.5745 343.4966,-86.5419 351.7586,-93.1744 354.0914,-86.5745"/>
</g>
<!-- Node5 -->
<g id="node6" class="node">
<title>Node5</title>
<polygon fill="none" stroke="#bfbfbf" points="371.5,-67.5 371.5,-86.5 483.5,-86.5 483.5,-67.5 371.5,-67.5"/>
<text text-anchor="middle" x="427.5" y="-74.5" font-family="Helvetica,sans-Serif" font-size="10.00" fill="#000000">deal.II/fe/fe_system.h</text>
</g>
<!-- Node1&#45;&gt;Node5 -->
<g id="edge5" class="edge">
<title>Node1&#45;&gt;Node5</title>
<path fill="none" stroke="#191970" d="M480.6563,-128.8906C471.0961,-119.5581 456.3777,-105.1902 444.8505,-93.9374"/>
<polygon fill="#191970" stroke="#191970" points="447.0832,-91.2257 437.4825,-86.7449 442.1934,-96.2348 447.0832,-91.2257"/>
</g>
<!-- Node6 -->
<g id="node7" class="node">
<title>Node6</title>
<polygon fill="none" stroke="#bfbfbf" points="502,-67.5 502,-86.5 605,-86.5 605,-67.5 502,-67.5"/>
<text text-anchor="middle" x="553.5" y="-74.5" font-family="Helvetica,sans-Serif" font-size="10.00" fill="#000000">deal.II/fe/mapping.h</text>
</g>
<!-- Node1&#45;&gt;Node6 -->
<g id="edge6" class="edge">
<title>Node1&#45;&gt;Node6</title>
<path fill="none" stroke="#191970" d="M500.3438,-128.8906C509.9039,-119.5581 524.6223,-105.1902 536.1495,-93.9374"/>
<polygon fill="#191970" stroke="#191970" points="538.8066,-96.2348 543.5175,-86.7449 533.9168,-91.2257 538.8066,-96.2348"/>
</g>
<!-- Node7 -->
<g id="node8" class="node">
<title>Node7</title>
<polygon fill="none" stroke="#bfbfbf" points="623.5,-67.5 623.5,-86.5 677.5,-86.5 677.5,-67.5 623.5,-67.5"/>
<text text-anchor="middle" x="650.5" y="-74.5" font-family="Helvetica,sans-Serif" font-size="10.00" fill="#000000">iostream</text>
</g>
<!-- Node1&#45;&gt;Node7 -->
<g id="edge7" class="edge">
<title>Node1&#45;&gt;Node7</title>
<path fill="none" stroke="#191970" d="M515.5,-128.8906C542.5058,-118.5103 585.7185,-101.9004 615.9594,-90.2766"/>
<polygon fill="#191970" stroke="#191970" points="617.5971,-93.3968 625.6756,-86.5419 615.0856,-86.8628 617.5971,-93.3968"/>
</g>
<!-- Node8 -->
<g id="node9" class="node">
<title>Node8</title>
<polygon fill="none" stroke="#bfbfbf" points="696,-67.5 696,-86.5 737,-86.5 737,-67.5 696,-67.5"/>
<text text-anchor="middle" x="716.5" y="-74.5" font-family="Helvetica,sans-Serif" font-size="10.00" fill="#000000">string</text>
</g>
<!-- Node1&#45;&gt;Node8 -->
<g id="edge8" class="edge">
<title>Node1&#45;&gt;Node8</title>
<path fill="none" stroke="#191970" d="M529.0125,-129.1645C566.6698,-119.8625 625.82,-104.7913 686.2007,-86.9491"/>
<polygon fill="#191970" stroke="#191970" points="687.3131,-90.2698 695.8989,-84.0622 685.3159,-83.5607 687.3131,-90.2698"/>
</g>
<!-- Node10 -->
<g id="node11" class="node">
<title>Node10</title>
<polygon fill="none" stroke="#bfbfbf" points="755.5,-67.5 755.5,-86.5 795.5,-86.5 795.5,-67.5 755.5,-67.5"/>
<text text-anchor="middle" x="775.5" y="-74.5" font-family="Helvetica,sans-Serif" font-size="10.00" fill="#000000">limits</text>
</g>
<!-- Node9&#45;&gt;Node10 -->
<g id="edge10" class="edge">
<title>Node9&#45;&gt;Node10</title>
<path fill="none" stroke="#191970" d="M839.4888,-123.2977C826.7066,-114.0495 810.4054,-102.2551 797.4552,-92.8853"/>
<polygon fill="#191970" stroke="#191970" points="799.263,-89.8732 789.1096,-86.8469 795.1597,-95.5445 799.263,-89.8732"/>
</g>
<!-- Node11 -->
<g id="node12" class="node">
<title>Node11</title>
<polygon fill="none" stroke="#bfbfbf" points="814,-67.5 814,-86.5 849,-86.5 849,-67.5 814,-67.5"/>
<text text-anchor="middle" x="831.5" y="-74.5" font-family="Helvetica,sans-Serif" font-size="10.00" fill="#000000">map</text>
</g>
<!-- Node9&#45;&gt;Node11 -->
<g id="edge11" class="edge">
<title>Node9&#45;&gt;Node11</title>
<path fill="none" stroke="#191970" d="M853.3315,-123.2977C849.4318,-115.0277 844.572,-104.7215 840.4282,-95.9339"/>
<polygon fill="#191970" stroke="#191970" points="843.5741,-94.399 836.1433,-86.8469 837.2427,-97.3846 843.5741,-94.399"/>
</g>
<!-- Node12 -->
<g id="node13" class="node">
<title>Node12</title>
<polygon fill="none" stroke="#bfbfbf" points="867.5,-67.5 867.5,-86.5 911.5,-86.5 911.5,-67.5 867.5,-67.5"/>
<text text-anchor="middle" x="889.5" y="-74.5" font-family="Helvetica,sans-Serif" font-size="10.00" fill="#000000">vector</text>
</g>
<!-- Node9&#45;&gt;Node12 -->
<g id="edge12" class="edge">
<title>Node9&#45;&gt;Node12</title>
<path fill="none" stroke="#191970" d="M867.6685,-123.2977C871.5682,-115.0277 876.428,-104.7215 880.5718,-95.9339"/>
<polygon fill="#191970" stroke="#191970" points="883.7573,-97.3846 884.8567,-86.8469 877.4259,-94.399 883.7573,-97.3846"/>
</g>
<!-- Node13 -->
<g id="node14" class="node">
<title>Node13</title>
<g id="a_node14"><a xlink:href="general__exceptions_8h.html" target="_top" xlink:title="Definition of self&#45;defined general exceptions. ">
<polygon fill="none" stroke="#000000" points="930,-67.5 930,-86.5 1039,-86.5 1039,-67.5 930,-67.5"/>
<text text-anchor="middle" x="984.5" y="-74.5" font-family="Helvetica,sans-Serif" font-size="10.00" fill="#000000">general_exceptions.h</text>
</a>
</g>
</g>
<!-- Node9&#45;&gt;Node13 -->
<g id="edge13" class="edge">
<title>Node9&#45;&gt;Node13</title>
<path fill="none" stroke="#191970" d="M890.8338,-123.4554C910.7976,-113.554 936.749,-100.683 956.2715,-91.0004"/>
<polygon fill="#191970" stroke="#191970" points="957.8809,-94.1091 965.2844,-86.5303 954.7706,-87.838 957.8809,-94.1091"/>
</g>
<!-- Node15 -->
<g id="node16" class="node">
<title>Node15</title>
<g id="a_node16"><a xlink:href="lapack__helpers_8h.html" target="_top" xlink:title="Exposes LAPACK helper functions defined in lapack_full_matrix.cc and define new ones by following the...">
<polygon fill="none" stroke="#000000" points="1340.5,-67.5 1340.5,-86.5 1430.5,-86.5 1430.5,-67.5 1340.5,-67.5"/>
<text text-anchor="middle" x="1385.5" y="-74.5" font-family="Helvetica,sans-Serif" font-size="10.00" fill="#000000">lapack_helpers.h</text>
</a>
</g>
</g>
<!-- Node9&#45;&gt;Node15 -->
<g id="edge15" class="edge">
<title>Node9&#45;&gt;Node15</title>
<path fill="none" stroke="#191970" d="M908.0162,-132.9338C1005.2615,-121.5422 1226.5191,-95.6235 1330.0935,-83.4905"/>
<polygon fill="#191970" stroke="#191970" points="1330.8138,-86.9301 1340.3386,-82.2903 1329.9993,-79.9777 1330.8138,-86.9301"/>
</g>
<!-- Node14 -->
<g id="node15" class="node">
<title>Node14</title>
<polygon fill="none" stroke="#bfbfbf" points="637.5,-6 637.5,-25 763.5,-25 763.5,-6 637.5,-6"/>
<text text-anchor="middle" x="700.5" y="-13" font-family="Helvetica,sans-Serif" font-size="10.00" fill="#000000">deal.II/base/exceptions.h</text>
</g>
<!-- Node13&#45;&gt;Node14 -->
<g id="edge14" class="edge">
<title>Node13&#45;&gt;Node14</title>
<path fill="none" stroke="#191970" d="M940.4366,-67.4581C890.3787,-56.6181 808.6618,-38.9224 754.7318,-27.2439"/>
<polygon fill="#191970" stroke="#191970" points="755.181,-23.7601 744.6668,-25.0643 753.6995,-30.6015 755.181,-23.7601"/>
</g>
<!-- Node16 -->
<g id="node17" class="node">
<title>Node16</title>
<polygon fill="none" stroke="#bfbfbf" points="781.5,-6 781.5,-25 897.5,-25 897.5,-6 781.5,-6"/>
<text text-anchor="middle" x="839.5" y="-13" font-family="Helvetica,sans-Serif" font-size="10.00" fill="#000000">deal.II/base/numbers.h</text>
</g>
<!-- Node15&#45;&gt;Node16 -->
<g id="edge16" class="edge">
<title>Node15&#45;&gt;Node16</title>
<path fill="none" stroke="#191970" d="M1340.3399,-74.6498C1255.0939,-69.7745 1064.8129,-56.799 906.5,-31 900.1589,-29.9666 893.5232,-28.6828 886.9969,-27.2995"/>
<polygon fill="#191970" stroke="#191970" points="887.4092,-23.8062 876.8895,-25.0655 885.8984,-30.6413 887.4092,-23.8062"/>
</g>
<!-- Node17 -->
<g id="node18" class="node">
<title>Node17</title>
<polygon fill="none" stroke="#bfbfbf" points="915.5,-.5 915.5,-30.5 1043.5,-30.5 1043.5,-.5 915.5,-.5"/>
<text text-anchor="start" x="923.5" y="-18.5" font-family="Helvetica,sans-Serif" font-size="10.00" fill="#000000">deal.II/lac/blas_extension</text>
<text text-anchor="middle" x="979.5" y="-7.5" font-family="Helvetica,sans-Serif" font-size="10.00" fill="#000000">_templates.h</text>
</g>
<!-- Node15&#45;&gt;Node17 -->
<g id="edge17" class="edge">
<title>Node15&#45;&gt;Node17</title>
<path fill="none" stroke="#191970" d="M1340.3657,-71.8105C1278.1312,-64.4249 1162.2591,-49.8496 1053.6885,-31.1353"/>
<polygon fill="#191970" stroke="#191970" points="1053.9954,-27.6362 1043.5434,-29.3706 1052.7957,-34.5326 1053.9954,-27.6362"/>
</g>
<!-- Node18 -->
<g id="node19" class="node">
<title>Node18</title>
<polygon fill="none" stroke="#bfbfbf" points="1061.5,-6 1061.5,-25 1187.5,-25 1187.5,-6 1061.5,-6"/>
<text text-anchor="middle" x="1124.5" y="-13" font-family="Helvetica,sans-Serif" font-size="10.00" fill="#000000">deal.II/lac/block_vector.h</text>
</g>
<!-- Node15&#45;&gt;Node18 -->
<g id="edge18" class="edge">
<title>Node15&#45;&gt;Node18</title>
<path fill="none" stroke="#191970" d="M1345.0051,-67.4581C1299.1925,-56.6632 1224.5263,-39.0694 1174.9594,-27.3899"/>
<polygon fill="#191970" stroke="#191970" points="1175.6261,-23.9512 1165.0899,-25.0643 1174.0206,-30.7646 1175.6261,-23.9512"/>
</g>
<!-- Node19 -->
<g id="node20" class="node">
<title>Node19</title>
<polygon fill="none" stroke="#bfbfbf" points="1205.5,-6 1205.5,-25 1321.5,-25 1321.5,-6 1205.5,-6"/>
<text text-anchor="middle" x="1263.5" y="-13" font-family="Helvetica,sans-Serif" font-size="10.00" fill="#000000">deal.II/lac/full_matrix.h</text>
</g>
<!-- Node15&#45;&gt;Node19 -->
<g id="edge19" class="edge">
<title>Node15&#45;&gt;Node19</title>
<path fill="none" stroke="#191970" d="M1366.4375,-67.3906C1346.3828,-57.2811 1314.6066,-41.2628 1291.6616,-29.6962"/>
<polygon fill="#191970" stroke="#191970" points="1292.9337,-26.418 1282.4286,-25.0419 1289.7827,-32.6687 1292.9337,-26.418"/>
</g>
<!-- Node20 -->
<g id="node21" class="node">
<title>Node20</title>
<polygon fill="none" stroke="#bfbfbf" points="1340,-.5 1340,-30.5 1431,-30.5 1431,-.5 1340,-.5"/>
<text text-anchor="start" x="1348" y="-18.5" font-family="Helvetica,sans-Serif" font-size="10.00" fill="#000000">deal.II/lac/lapack</text>
<text text-anchor="middle" x="1385.5" y="-7.5" font-family="Helvetica,sans-Serif" font-size="10.00" fill="#000000">_full_matrix.h</text>
</g>
<!-- Node15&#45;&gt;Node20 -->
<g id="edge20" class="edge">
<title>Node15&#45;&gt;Node20</title>
<path fill="none" stroke="#191970" d="M1385.5,-67.3906C1385.5,-60.2234 1385.5,-50.0862 1385.5,-40.671"/>
<polygon fill="#191970" stroke="#191970" points="1389.0001,-40.5446 1385.5,-30.5446 1382.0001,-40.5446 1389.0001,-40.5446"/>
</g>
<!-- Node21 -->
<g id="node22" class="node">
<title>Node21</title>
<polygon fill="none" stroke="#bfbfbf" points="1449,-.5 1449,-30.5 1540,-30.5 1540,-.5 1449,-.5"/>
<text text-anchor="start" x="1457" y="-18.5" font-family="Helvetica,sans-Serif" font-size="10.00" fill="#000000">deal.II/lac/lapack</text>
<text text-anchor="middle" x="1494.5" y="-7.5" font-family="Helvetica,sans-Serif" font-size="10.00" fill="#000000">_support.h</text>
</g>
<!-- Node15&#45;&gt;Node21 -->
<g id="edge21" class="edge">
<title>Node15&#45;&gt;Node21</title>
<path fill="none" stroke="#191970" d="M1402.5313,-67.3906C1417.5563,-58.9132 1439.9452,-46.2809 1458.8706,-35.6028"/>
<polygon fill="#191970" stroke="#191970" points="1460.8462,-38.5069 1467.8356,-30.5446 1457.4063,-32.4104 1460.8462,-38.5069"/>
</g>
<!-- Node22 -->
<g id="node23" class="node">
<title>Node22</title>
<polygon fill="none" stroke="#bfbfbf" points="1558,-.5 1558,-30.5 1649,-30.5 1649,-.5 1558,-.5"/>
<text text-anchor="start" x="1566" y="-18.5" font-family="Helvetica,sans-Serif" font-size="10.00" fill="#000000">deal.II/lac/lapack</text>
<text text-anchor="middle" x="1603.5" y="-7.5" font-family="Helvetica,sans-Serif" font-size="10.00" fill="#000000">_templates.h</text>
</g>
<!-- Node15&#45;&gt;Node22 -->
<g id="edge22" class="edge">
<title>Node15&#45;&gt;Node22</title>
<path fill="none" stroke="#191970" d="M1419.7546,-67.4571C1450.9351,-58.7562 1498.496,-45.4484 1548.2062,-31.3597"/>
<polygon fill="#191970" stroke="#191970" points="1549.1751,-34.7231 1557.8405,-28.627 1547.2649,-27.9887 1549.1751,-34.7231"/>
</g>
<!-- Node23 -->
<g id="node24" class="node">
<title>Node23</title>
<polygon fill="none" stroke="#bfbfbf" points="1667.5,-.5 1667.5,-30.5 1759.5,-30.5 1759.5,-.5 1667.5,-.5"/>
<text text-anchor="start" x="1675.5" y="-18.5" font-family="Helvetica,sans-Serif" font-size="10.00" fill="#000000">deal.II/lac/sparse</text>
<text text-anchor="middle" x="1713.5" y="-7.5" font-family="Helvetica,sans-Serif" font-size="10.00" fill="#000000">_matrix.h</text>
</g>
<!-- Node15&#45;&gt;Node23 -->
<g id="edge23" class="edge">
<title>Node15&#45;&gt;Node23</title>
<path fill="none" stroke="#191970" d="M1430.716,-70.9052C1483.0836,-63.5091 1572.0944,-49.9015 1657.5199,-31.0858"/>
<polygon fill="#191970" stroke="#191970" points="1658.3801,-34.4801 1667.3784,-28.8872 1656.8563,-27.6479 1658.3801,-34.4801"/>
</g>
<!-- Node24 -->
<g id="node25" class="node">
<title>Node24</title>
<polygon fill="none" stroke="#bfbfbf" points="1778,-6 1778,-25 1879,-25 1879,-6 1778,-6"/>
<text text-anchor="middle" x="1828.5" y="-13" font-family="Helvetica,sans-Serif" font-size="10.00" fill="#000000">deal.II/lac/utilities.h</text>
</g>
<!-- Node15&#45;&gt;Node24 -->
<g id="edge24" class="edge">
<title>Node15&#45;&gt;Node24</title>
<path fill="none" stroke="#191970" d="M1430.6093,-73.5433C1502.5244,-67.5936 1647.4028,-53.8087 1768.5,-31 1773.8524,-29.9919 1779.4344,-28.7763 1784.9457,-27.4748"/>
<polygon fill="#191970" stroke="#191970" points="1785.8526,-30.8561 1794.7249,-25.0654 1784.178,-24.0593 1785.8526,-30.8561"/>
</g>
<!-- Node25 -->
<g id="node26" class="node">
<title>Node25</title>
<polygon fill="none" stroke="#bfbfbf" points="1897.5,-6 1897.5,-25 1995.5,-25 1995.5,-6 1897.5,-6"/>
<text text-anchor="middle" x="1946.5" y="-13" font-family="Helvetica,sans-Serif" font-size="10.00" fill="#000000">deal.II/lac/vector.h</text>
</g>
<!-- Node15&#45;&gt;Node25 -->
<g id="edge25" class="edge">
<title>Node15&#45;&gt;Node25</title>
<path fill="none" stroke="#191970" d="M1430.5894,-75.445C1519.0326,-71.83 1721.2287,-60.7766 1888.5,-31 1893.8873,-30.041 1899.5042,-28.8234 1905.0301,-27.4937"/>
<polygon fill="#191970" stroke="#191970" points="1905.978,-30.8642 1914.809,-25.0107 1904.2552,-24.0795 1905.978,-30.8642"/>
</g>
</g>
</svg>
