<?xml version="1.0" encoding="UTF-8" standalone="no"?>
<!DOCTYPE svg PUBLIC "-//W3C//DTD SVG 1.1//EN"
 "http://www.w3.org/Graphics/SVG/1.1/DTD/svg11.dtd">
<!-- Generated by graphviz version 2.40.1 (20161225.0304)
 -->
<!-- Title: /home/jihuan/Projects/deal.ii/program/dealii&#45;9.1.1/examples/laplace&#45;bem/include/tree.h Pages: 1 -->
<svg width="607pt" height="117pt"
 viewBox="0.00 0.00 607.00 117.00" xmlns="http://www.w3.org/2000/svg" xmlns:xlink="http://www.w3.org/1999/xlink">
<g id="graph0" class="graph" transform="scale(1 1) rotate(0) translate(4 113)">
<title>/home/jihuan/Projects/deal.ii/program/dealii&#45;9.1.1/examples/laplace&#45;bem/include/tree.h</title>
<!-- Node0 -->
<g id="node1" class="node">
<title>Node0</title>
<polygon fill="#bfbfbf" stroke="#000000" points="282,-56.5 282,-108.5 402,-108.5 402,-56.5 282,-56.5"/>
<text text-anchor="start" x="290" y="-96.5" font-family="Helvetica,sans-Serif" font-size="10.00" fill="#000000">/home/jihuan/Projects</text>
<text text-anchor="start" x="290" y="-85.5" font-family="Helvetica,sans-Serif" font-size="10.00" fill="#000000">/deal.ii/program/dealii</text>
<text text-anchor="start" x="290" y="-74.5" font-family="Helvetica,sans-Serif" font-size="10.00" fill="#000000">&#45;9.1.1/examples/laplace</text>
<text text-anchor="middle" x="342" y="-63.5" font-family="Helvetica,sans-Serif" font-size="10.00" fill="#000000">&#45;bem/include/tree.h</text>
</g>
<!-- Node1 -->
<g id="node2" class="node">
<title>Node1</title>
<polygon fill="none" stroke="#bfbfbf" points="0,-.5 0,-19.5 126,-19.5 126,-.5 0,-.5"/>
<text text-anchor="middle" x="63" y="-7.5" font-family="Helvetica,sans-Serif" font-size="10.00" fill="#000000">deal.II/base/exceptions.h</text>
</g>
<!-- Node0&#45;&gt;Node1 -->
<g id="edge1" class="edge">
<title>Node0&#45;&gt;Node1</title>
<path fill="none" stroke="#191970" d="M281.8046,-66.8578C230.1671,-53.4395 156.8208,-34.3799 109.5687,-22.1012"/>
<polygon fill="#191970" stroke="#191970" points="110.1665,-18.6403 99.6076,-19.5127 108.4059,-25.4153 110.1665,-18.6403"/>
</g>
<!-- Node2 -->
<g id="node3" class="node">
<title>Node2</title>
<polygon fill="none" stroke="#bfbfbf" points="144,-.5 144,-19.5 200,-19.5 200,-.5 144,-.5"/>
<text text-anchor="middle" x="172" y="-7.5" font-family="Helvetica,sans-Serif" font-size="10.00" fill="#000000">algorithm</text>
</g>
<!-- Node0&#45;&gt;Node2 -->
<g id="edge2" class="edge">
<title>Node0&#45;&gt;Node2</title>
<path fill="none" stroke="#191970" d="M281.5857,-56.7351C255.4334,-45.5819 225.8838,-32.9799 204.065,-23.6748"/>
<polygon fill="#191970" stroke="#191970" points="205.1956,-20.352 194.6241,-19.6485 202.4495,-26.7909 205.1956,-20.352"/>
</g>
<!-- Node3 -->
<g id="node4" class="node">
<title>Node3</title>
<polygon fill="none" stroke="#bfbfbf" points="218,-.5 218,-19.5 256,-19.5 256,-.5 218,-.5"/>
<text text-anchor="middle" x="237" y="-7.5" font-family="Helvetica,sans-Serif" font-size="10.00" fill="#000000">array</text>
</g>
<!-- Node0&#45;&gt;Node3 -->
<g id="edge3" class="edge">
<title>Node0&#45;&gt;Node3</title>
<path fill="none" stroke="#191970" d="M304.0926,-56.3258C289.0105,-45.912 272.1832,-34.2931 259.1535,-25.2965"/>
<polygon fill="#191970" stroke="#191970" points="261.0255,-22.3358 250.8079,-19.534 257.0482,-28.0961 261.0255,-22.3358"/>
</g>
<!-- Node4 -->
<g id="node5" class="node">
<title>Node4</title>
<polygon fill="none" stroke="#bfbfbf" points="274.5,-.5 274.5,-19.5 333.5,-19.5 333.5,-.5 274.5,-.5"/>
<text text-anchor="middle" x="304" y="-7.5" font-family="Helvetica,sans-Serif" font-size="10.00" fill="#000000">exception</text>
</g>
<!-- Node0&#45;&gt;Node4 -->
<g id="edge4" class="edge">
<title>Node0&#45;&gt;Node4</title>
<path fill="none" stroke="#191970" d="M328.2811,-56.3258C323.4527,-47.1136 318.1299,-36.9584 313.7016,-28.5096"/>
<polygon fill="#191970" stroke="#191970" points="316.7395,-26.7663 308.9971,-19.534 310.5395,-30.016 316.7395,-26.7663"/>
</g>
<!-- Node5 -->
<g id="node6" class="node">
<title>Node5</title>
<polygon fill="none" stroke="#bfbfbf" points="351.5,-.5 351.5,-19.5 410.5,-19.5 410.5,-.5 351.5,-.5"/>
<text text-anchor="middle" x="381" y="-7.5" font-family="Helvetica,sans-Serif" font-size="10.00" fill="#000000">functional</text>
</g>
<!-- Node0&#45;&gt;Node5 -->
<g id="edge5" class="edge">
<title>Node0&#45;&gt;Node5</title>
<path fill="none" stroke="#191970" d="M356.0799,-56.3258C361.0354,-47.1136 366.4983,-36.9584 371.0431,-28.5096"/>
<polygon fill="#191970" stroke="#191970" points="374.2163,-29.9988 375.8714,-19.534 368.0516,-26.6826 374.2163,-29.9988"/>
</g>
<!-- Node6 -->
<g id="node7" class="node">
<title>Node6</title>
<polygon fill="none" stroke="#bfbfbf" points="429,-.5 429,-19.5 483,-19.5 483,-.5 429,-.5"/>
<text text-anchor="middle" x="456" y="-7.5" font-family="Helvetica,sans-Serif" font-size="10.00" fill="#000000">iostream</text>
</g>
<!-- Node0&#45;&gt;Node6 -->
<g id="edge6" class="edge">
<title>Node0&#45;&gt;Node6</title>
<path fill="none" stroke="#191970" d="M383.1566,-56.3258C399.6889,-45.8119 418.1527,-34.0696 432.3545,-25.0377"/>
<polygon fill="#191970" stroke="#191970" points="434.4487,-27.8538 441.0086,-19.534 430.6922,-21.9471 434.4487,-27.8538"/>
</g>
<!-- Node7 -->
<g id="node8" class="node">
<title>Node7</title>
<polygon fill="none" stroke="#bfbfbf" points="501.5,-.5 501.5,-19.5 536.5,-19.5 536.5,-.5 501.5,-.5"/>
<text text-anchor="middle" x="519" y="-7.5" font-family="Helvetica,sans-Serif" font-size="10.00" fill="#000000">new</text>
</g>
<!-- Node0&#45;&gt;Node7 -->
<g id="edge7" class="edge">
<title>Node0&#45;&gt;Node7</title>
<path fill="none" stroke="#191970" d="M402.4183,-57.7524C432.738,-45.3333 467.9634,-30.9048 491.6918,-21.1856"/>
<polygon fill="#191970" stroke="#191970" points="493.1822,-24.3574 501.1094,-17.3281 490.5289,-17.8797 493.1822,-24.3574"/>
</g>
<!-- Node8 -->
<g id="node9" class="node">
<title>Node8</title>
<polygon fill="none" stroke="#bfbfbf" points="555,-.5 555,-19.5 599,-19.5 599,-.5 555,-.5"/>
<text text-anchor="middle" x="577" y="-7.5" font-family="Helvetica,sans-Serif" font-size="10.00" fill="#000000">vector</text>
</g>
<!-- Node0&#45;&gt;Node8 -->
<g id="edge8" class="edge">
<title>Node0&#45;&gt;Node8</title>
<path fill="none" stroke="#191970" d="M402.3248,-64.2731C440.6692,-52.6284 491.6049,-37.0519 545.2982,-20.192"/>
<polygon fill="#191970" stroke="#191970" points="546.5079,-23.4806 554.9973,-17.1418 544.4079,-16.8031 546.5079,-23.4806"/>
</g>
</g>
</svg>
